# Blender 3.3.1
# www.blender.org
mtllib Sala_3.mtl
o Sala_3
v -71.499039 -1.000000 -26.491913
v -71.499039 19.000000 -26.491913
v -71.499039 -1.000000 -95.491913
v -71.499039 19.000000 -95.491913
v -2.499039 -1.000000 -26.491913
v -2.499039 19.000000 -26.491913
v -2.499039 -1.000000 -95.491913
v -2.499039 19.000000 -95.491913
v -71.499039 -1.000000 -72.987816
v -71.499039 19.000000 -72.987816
v -2.499039 -1.000000 -72.987816
v -2.499039 19.000000 -72.987816
v -71.499039 -0.999569 -48.996002
v -2.499039 19.000431 -48.996002
v -71.499039 19.000431 -48.996006
v -2.499039 -0.999569 -48.996006
v -2.499039 16.994850 -72.987816
v -71.499039 16.994850 -72.987816
v -71.499039 16.995281 -48.996002
v -2.499039 16.995281 -48.996002
vn 1.0000 -0.0000 -0.0000
vn -0.0000 -0.0000 1.0000
vn -1.0000 -0.0000 -0.0000
vn -0.0000 -1.0000 -0.0000
vn -0.0000 1.0000 -0.0000
vn -0.0000 -0.0000 -1.0000
vt 0.375000 0.000000
vt 0.125000 0.750000
vt 0.375000 1.000000
vt 0.625000 0.000000
vt 0.875000 0.750000
vt 0.625000 1.000000
vt 0.375000 0.250000
vt 0.125000 0.500000
vt 0.625000 0.250000
vt 0.875000 0.500000
vt 0.375000 0.750000
vt 0.625000 0.750000
vt 0.375000 0.500000
vt 0.625000 0.500000
vt 0.375000 0.168453
vt 0.125000 0.581547
vt 0.875000 0.581547
vt 0.625000 0.168453
vt 0.375000 0.581547
vt 0.625000 0.581547
vt 0.375000 0.081570
vt 0.125000 0.668430
vt 0.625000 0.668430
vt 0.875000 0.668430
vt 0.625000 0.081570
vt 0.375000 0.668430
vt 0.548864 0.581547
vt 0.548864 0.168453
vt 0.548864 0.081570
vt 0.548864 0.668430
s 0
f 9/15/1 3/7/1 4/9/1 10/18/1 18/28/1
f 3/7/2 7/13/2 8/14/2 4/9/2
f 16/26/3 5/11/3 6/12/3 14/23/3 20/30/3
f 1/1/1 13/21/1 19/29/1 15/25/1 2/4/1
f 10/17/4 4/10/4 8/14/4 12/20/4 14/23/4 6/12/4 2/5/4 15/24/4
f 11/19/5 7/13/5 3/8/5 9/16/5 13/22/5 1/2/5 5/11/5 16/26/5
f 5/11/6 1/3/6 2/6/6 6/12/6
f 19/29/1 18/28/1 10/18/1 15/25/1
f 7/13/3 11/19/3 17/27/3 12/20/3 8/14/3
f 17/27/3 20/30/3 14/23/3 12/20/3
