# Blender 3.3.1
# www.blender.org
mtllib powerup.mtl
o powerup
v -0.147348 0.043777 0.239865
v -0.147348 0.381986 -0.006438
v -0.147348 0.043777 -0.249589
v -0.147348 0.381986 -0.006438
v 0.007677 0.043777 0.239865
v 0.007677 0.381986 -0.006438
v 0.007677 0.043777 -0.249589
v 0.007677 0.381986 -0.006438
v -0.147348 -0.294432 0.239865
v -0.147348 0.043777 -0.006438
v -0.147348 -0.294432 -0.249589
v -0.147348 0.043777 -0.006438
v 0.007677 -0.294432 0.239865
v 0.007677 0.043777 -0.006438
v 0.007677 -0.294432 -0.249589
v 0.007677 0.043777 -0.006438
vn -0.5515 -0.3806 -0.7423
vn -0.7071 0.4128 -0.5741
vn 0.7071 0.4128 -0.5741
vn 0.5515 -0.3806 -0.7423
vn 0.5513 -0.3784 0.7436
vn 0.7071 0.4163 0.5716
vn -0.7071 0.4163 0.5716
vn -0.5513 -0.3784 0.7436
vt 0.784310 0.345634
vt 0.645720 0.761077
vt 0.622033 0.345634
vt 0.784310 0.655735
vt 0.622033 0.655735
vt 0.126745 0.679423
vt 0.645720 0.398305
vt 0.328782 0.559195
vt 0.126745 0.988156
vt 0.622033 0.655735
vt 0.899211 0.345634
vt 0.760622 0.761077
vt 0.622033 0.321946
vt 0.899211 0.655735
vt 0.622033 0.011844
vt 0.011844 0.679423
vt 0.760622 0.398305
vt 0.328782 0.108385
vt 0.011844 0.988156
vt 0.622033 0.011844
vt 0.784310 0.011844
vt 0.645720 0.374617
vt 0.305094 0.011844
vt 0.784310 0.321946
vt 0.305094 0.321946
vt 0.265335 0.679423
vt 0.645720 0.011844
vt 0.011844 0.225405
vt 0.265335 0.988156
vt 0.305094 0.321946
vt 0.899211 0.011844
vt 0.760622 0.374617
vt 0.305094 0.655735
vt 0.899211 0.321946
vt 0.305094 0.345634
vt 0.150433 0.679423
vt 0.760622 0.011844
vt 0.011844 0.442174
vt 0.150433 0.988156
vt 0.305094 0.345634
s 1
usemtl Material.003
f 3/6/1 4/9/2 8/19/3 7/16/4
f 5/11/5 6/14/6 2/4/7 1/1/8
f 3/7/1 7/17/4 5/12/5 1/2/8
f 3/8/1 1/3/8 2/5/7 4/10/2
f 7/18/4 8/20/3 6/15/6 5/13/5
f 11/26/1 12/29/2 16/39/3 15/36/4
f 13/31/5 14/34/6 10/24/7 9/21/8
f 11/27/1 15/37/4 13/32/5 9/22/8
f 11/28/1 9/23/8 10/25/7 12/30/2
f 15/38/4 16/40/3 14/35/6 13/33/5
