# Blender 3.3.1
# www.blender.org
mtllib Sala_3.mtl
o Sala_3.001
v -47.601364 7.393245 -26.800323
v -47.601364 1.393245 -26.800323
v -68.301361 7.393245 -26.800323
v -68.301361 1.393245 -26.800323
v -47.601364 7.393245 -47.500320
v -47.601364 1.393245 -47.500320
v -68.301361 7.393245 -47.500320
v -68.301361 1.393245 -47.500320
v -54.351414 1.393245 -47.500320
v -61.551075 7.393245 -47.500320
v -54.351414 7.393245 -47.500320
v -61.551075 1.393245 -47.500320
v -47.601364 1.393245 -33.550957
v -54.351414 6.793245 -47.500320
v -61.551075 6.793245 -47.500320
v -47.601364 7.393245 -33.550957
v -47.601364 6.793245 -33.550957
v -47.601364 1.393245 -40.750526
v -47.601364 7.393245 -40.750526
v -47.601364 6.793245 -40.750526
v -68.301361 7.393245 -33.551250
v -68.301361 7.393245 -40.746872
v -68.301361 1.393245 -40.746872
v -68.301361 1.393245 -33.551247
v -68.301361 6.793626 -33.551250
v -68.301361 6.793626 -40.746872
vn -0.0000 -1.0000 -0.0000
vn -0.0000 1.0000 -0.0000
vn -0.0000 -0.0000 1.0000
vn -1.0000 -0.0000 -0.0000
vn 1.0000 -0.0000 -0.0000
vn -0.0000 -0.0000 -1.0000
vt 0.990030 0.009970
vt 0.487232 0.990030
vt 0.009970 0.509970
vt 0.009970 0.009970
vt 0.626380 0.990030
vt 0.149118 0.509970
vt 0.990030 0.490030
vt 0.328145 0.509970
vt 0.009970 0.990030
vt 0.009970 0.490030
vt 0.467293 0.509970
vt 0.149118 0.990030
vt 0.509970 0.009970
vt 0.169057 0.990030
vt 0.487232 0.509970
vt 0.490030 0.009970
vt 0.308205 0.990030
vt 0.626380 0.509970
vt 0.509970 0.490030
vt 0.169057 0.509970
vt 0.328145 0.990030
vt 0.490030 0.490030
vt 0.308205 0.509970
vt 0.467293 0.990030
vt 0.490030 0.166512
vt 0.308205 0.833488
vt 0.509970 0.333482
vt 0.169057 0.666518
vt 0.509970 0.166512
vt 0.169057 0.833488
vt 0.490030 0.333482
vt 0.308205 0.666518
vt 0.166526 0.009970
vt 0.626380 0.833474
vt 0.182972 0.833488
vt 0.182972 0.666518
vt 0.833474 0.009970
vt 0.487232 0.833474
vt 0.501147 0.833474
vt 0.333493 0.009970
vt 0.626380 0.666507
vt 0.666507 0.009970
vt 0.487232 0.666507
vt 0.501147 0.666507
vt 0.833467 0.490030
vt 0.328145 0.666533
vt 0.666592 0.490030
vt 0.328145 0.833408
vt 0.333408 0.490030
vt 0.467293 0.833408
vt 0.166533 0.490030
vt 0.467293 0.666533
vt 0.342051 0.666533
vt 0.342051 0.833408
s 0
usemtl material_sala_3
f 1/1/1 3/7/1 21/45/1 22/47/1 7/19/1 10/27/1 11/29/1 5/13/1 19/42/1 16/37/1
f 6/16/2 9/25/2 12/31/2 8/22/2 23/49/2 24/51/2 4/10/2 2/4/2 13/33/2 18/40/2
f 14/35/3 9/26/3 6/17/3 5/14/3 11/30/3
f 15/36/3 14/35/3 11/30/3 10/28/3
f 20/44/4 17/39/4 16/38/4 19/43/4
f 7/20/3 8/23/3 12/32/3 15/36/3 10/28/3
f 6/18/4 18/41/4 20/44/4 19/43/4 5/15/4
f 4/11/5 24/52/5 25/53/5 21/46/5 3/8/5
f 13/34/4 2/5/4 1/2/4 16/38/4 17/39/4
f 2/6/6 4/12/6 3/9/6 1/3/6
f 25/53/5 26/54/5 22/48/5 21/46/5
f 23/50/5 8/24/5 7/21/5 22/48/5 26/54/5
