# Blender 3.3.1
# www.blender.org
mtllib pasillo_5.mtl
o Pasillo_5
v -48.995804 -1.000000 -95.473862
v -48.995804 17.000000 -95.473862
v -24.995804 -1.000000 -95.473862
v -24.995804 17.000000 -95.473862
v -48.995804 -1.000000 -143.438812
v -48.995804 17.000000 -143.438812
v -24.995804 -1.000000 -143.438812
v -24.995804 17.000000 -143.438812
vn -1.0000 -0.0000 -0.0000
vn -0.0000 1.0000 -0.0000
vn -0.0000 -1.0000 -0.0000
vn 1.0000 -0.0000 -0.0000
vt 0.201873 0.586914
vt 0.316835 0.605618
vt 0.605591 0.586914
vt 0.172443 0.605618
vt 0.961206 0.586914
vt 0.009351 0.586914
vt 0.816814 0.586914
vt 0.798115 0.586914
vt 0.201873 0.202156
vt 0.316835 0.990381
vt 0.605591 0.202156
vt 0.172443 0.990381
vt 0.961206 0.202156
vt 0.009351 0.202156
vt 0.816814 0.202156
vt 0.798115 0.202156
s 0
usemtl Material.008
f 7/13/1 3/5/1 4/7/1 8/15/1
f 5/9/2 1/1/2 3/6/2 7/14/2
f 8/16/3 4/8/3 2/3/3 6/11/3
f 1/2/4 5/10/4 6/12/4 2/4/4
