# Blender 3.3.1
# www.blender.org
mtllib pasillo_4.mtl
o Pasillo_4
v -165.998337 -1.000000 -2.510170
v -165.998337 17.000000 -2.510170
v -165.998352 -1.000000 69.489830
v -165.998352 17.000000 69.489830
v -189.998337 -1.000000 -2.510178
v -189.998337 17.000000 -2.510178
v -189.998367 -1.000000 69.489822
v -189.998367 17.000000 69.489822
v -165.998352 -1.000000 45.454781
v -165.998352 17.000000 45.454781
v -189.998352 -1.000000 45.454773
v -189.998352 17.000000 45.454773
v -142.000000 -1.000000 69.489838
v -142.000000 17.000000 69.489838
v -141.999985 -1.000000 45.454788
v -141.999985 17.000000 45.454788
vn -0.0000 -0.0000 1.0000
vn -0.0000 -0.0000 -1.0000
vn 1.0000 -0.0000 -0.0000
vn -0.0000 1.0000 -0.0000
vn -0.0000 -1.0000 -0.0000
vn -1.0000 -0.0000 -0.0000
vt 0.201873 0.586914
vt 0.316835 0.605618
vt 0.605591 0.586914
vt 0.172443 0.605618
vt 0.153742 0.798126
vt 0.201873 0.009354
vt 0.605591 0.009354
vt 0.009350 0.798126
vt 0.961206 0.586914
vt 0.009351 0.586914
vt 0.816814 0.586914
vt 0.798115 0.586914
vt 0.153742 0.990650
vt 0.009351 0.009354
vt 0.961206 0.009354
vt 0.009350 0.990650
vt 0.798115 0.009354
vt 0.816814 0.009354
vt 0.961206 0.605618
vt 0.316835 0.990381
vt 0.201873 0.202156
vt 0.816814 0.605618
vt 0.172443 0.990381
vt 0.605591 0.202156
vt 0.009351 0.202156
vt 0.961206 0.202156
vt 0.798115 0.202156
vt 0.816814 0.202156
vt 0.153742 0.605618
vt 0.394382 0.009354
vt 0.413082 0.009354
vt 0.009350 0.605618
vt 0.961206 0.798128
vt 0.394382 0.202156
vt 0.816814 0.798128
vt 0.413082 0.202156
s 0
usemtl Material.005
f 9/19/1 15/33/1 16/35/1 10/22/1
f 3/5/2 7/13/2 8/16/2 4/8/2
f 11/26/3 5/9/3 6/11/3 12/28/3
f 9/21/4 1/1/4 5/10/4 11/25/4
f 12/27/5 6/12/5 2/3/5 10/24/5
f 8/17/5 12/27/5 10/24/5 4/7/5
f 3/6/4 9/21/4 11/25/4 7/14/4
f 7/15/3 11/26/3 12/28/3 8/18/3
f 1/2/6 9/20/6 10/23/6 2/4/6
f 10/24/5 16/36/5 14/31/5 4/7/5
f 4/8/2 14/32/2 13/29/2 3/5/2
f 3/6/4 13/30/4 15/34/4 9/21/4
