# Blender 3.3.1
# www.blender.org
mtllib Pasillo_3.mtl
o Pasillo_3
v 21.499329 -1.000000 -1.000000
v 21.499329 17.000000 -1.000000
v 21.499329 -1.000000 -73.000000
v 21.499329 17.000000 -73.000000
v 45.499329 -1.000000 -1.000000
v 45.499329 17.000000 -1.000000
v 45.499329 -1.000000 -73.000000
v 45.499329 17.000000 -73.000000
v 21.499329 -1.000000 -48.964951
v 21.499329 17.000000 -48.964951
v 45.499329 -1.000000 -48.964951
v 45.499329 17.000000 -48.964951
v -2.499039 -1.000000 -73.000000
v -2.499039 17.000000 -73.000000
v -2.499039 -1.000000 -48.964951
v -2.499039 17.000000 -48.964951
vn -0.0000 -0.0000 -1.0000
vn -0.0000 -0.0000 1.0000
vn -1.0000 -0.0000 -0.0000
vn -0.0000 1.0000 -0.0000
vn -0.0000 -1.0000 -0.0000
vn 1.0000 -0.0000 -0.0000
vt 0.125000 0.750000
vt 0.375000 0.000000
vt 0.875000 0.750000
vt 0.625000 0.000000
vt 0.375000 0.250000
vt 0.125000 0.500000
vt 0.875000 0.500000
vt 0.625000 0.250000
vt 0.375000 0.750000
vt 0.625000 0.750000
vt 0.375000 0.500000
vt 0.625000 0.500000
vt 0.375000 0.165987
vt 0.125000 0.584013
vt 0.625000 0.165987
vt 0.875000 0.584013
vt 0.375000 0.584013
vt 0.625000 0.584013
vt 0.375000 0.250000
vt 0.125000 0.500000
vt 0.875000 0.500000
vt 0.625000 0.250000
vt 0.375000 0.165987
vt 0.125000 0.584013
vt 0.625000 0.165987
vt 0.875000 0.584013
s 0
f 9/13/1 15/23/1 16/25/1 10/15/1
f 3/5/2 7/11/2 8/12/2 4/8/2
f 11/17/3 5/9/3 6/10/3 12/18/3
f 9/14/4 1/1/4 5/9/4 11/17/4
f 12/18/5 6/10/5 2/3/5 10/16/5
f 8/12/5 12/18/5 10/16/5 4/7/5
f 3/6/4 9/14/4 11/17/4 7/11/4
f 7/11/3 11/17/3 12/18/3 8/12/3
f 1/2/6 9/13/6 10/15/6 2/4/6
f 10/16/5 16/26/5 14/21/5 4/7/5
f 4/8/2 14/22/2 13/19/2 3/5/2
f 3/6/4 13/20/4 15/24/4 9/14/4
