# Blender v3.3.1 OBJ File: 'laboratorio.blend'
# www.blender.org
mtllib laboratorio.mtl
o laboratorio1_Plane.008
v -9.999999 0.000000 10.000000
v -10.000000 0.000000 -10.000000
v -9.999998 5.400002 10.000000
v -9.999999 5.400002 -10.000000
v 10.000001 -0.000000 9.999999
v 10.000001 -0.000000 -10.000000
v -10.000000 0.000000 9.999999
v -9.999999 5.400002 9.999999
v 10.000001 5.400002 9.999999
v -10.000001 0.000000 -10.000000
v -10.000000 5.400002 -10.000000
v 10.000001 5.400002 -10.000000
v 10.000001 -0.000000 10.000000
v 10.000001 -0.000000 -10.000000
v 10.000001 5.400002 10.000000
v 10.000001 5.400002 -10.000000
v -9.999999 0.002794 1.000000
v -9.999999 0.002794 -1.000000
v -9.999999 4.002794 1.000000
v -9.999999 4.002794 -1.000000
v 7.651210 0.000000 9.999999
v 5.551210 0.000000 9.999999
v 7.651210 3.998495 9.999999
v 5.551211 3.998495 9.999999
v -9.999999 -0.000000 10.000000
v 10.000001 -0.000000 9.999999
v -10.000000 -0.000000 -9.999999
v 10.000001 -0.000000 -10.000000
v -9.999998 5.400002 10.000000
v 10.000001 5.400002 9.999999
v -9.999999 5.400002 -9.999999
v 10.000001 5.400002 -10.000000
vt 0.450000 0.000517
vt 0.000000 0.000000
vt 1.000000 0.000000
vt 0.550000 0.000517
vt 0.550000 0.741258
vt 1.000000 1.000000
vt 0.000000 1.000000
vt 0.450000 0.741258
vt 1.000000 0.000000
vt 1.000000 1.000000
vt 0.000000 1.000000
vt 0.000000 0.000000
vt 0.777560 0.000000
vt 0.777561 0.740462
vt 0.882560 0.740462
vt 0.882560 0.000000
vt 0.000000 0.000000
vt 1.000000 0.000000
vt 1.000000 1.000000
vt 0.000000 1.000000
vt 0.000000 0.000000
vt 1.000000 0.000000
vt 1.000000 1.000000
vt 0.000000 1.000000
vt 0.000000 0.000000
vt 1.000000 0.000000
vt 1.000000 1.000000
vt 0.000000 1.000000
vt 0.000000 0.000000
vt 1.000000 0.000000
vt 1.000000 1.000000
vt 0.000000 1.000000
vn 1.0000 -0.0002 -0.0000
vn 1.0000 -0.0000 -0.0000
vn 0.0000 0.0000 1.0000
vn 0.0000 1.0000 0.0000
usemtl (null)
s off
f 17/1/1 1/2/1 2/3/1 18/4/1
f 20/5/2 18/4/2 2/3/2 4/6/2 3/7/2 1/2/2 17/1/2 19/8/2
f 5/9/3 9/10/3 8/11/3 7/12/3 22/13/3 24/14/3 23/15/3 21/16/3
f 10/17/3 6/18/3 12/19/3 11/20/3
f 13/21/2 14/22/2 16/23/2 15/24/2
f 25/25/4 26/26/4 28/27/4 27/28/4
f 29/29/4 30/30/4 32/31/4 31/32/4
o pasillo1_Plane.001
v -12.999999 0.001257 33.011646
v -9.999999 0.001257 33.011646
v -12.999999 0.001257 -9.988355
v -9.999999 0.001257 -9.988355
vt 0.000000 0.000000
vt 1.000000 0.000000
vt 1.000000 1.000000
vt 0.000000 1.000000
vn 0.0000 1.0000 0.0000
usemtl None
s off
f 33/33/5 34/34/5 36/35/5 35/36/5
o Plane_Plane.002
v -12.999999 -0.004559 -9.988355
v -9.999999 -0.004559 -9.988355
v -12.999999 5.395442 -9.988355
v -9.999999 5.395442 -9.988355
vt 0.000000 0.000000
vt 1.000000 0.000000
vt 1.000000 1.000000
vt 0.000000 1.000000
vn 0.0000 0.0000 1.0000
usemtl None
s off
f 37/37/6 38/38/6 40/39/6 39/40/6
o Plane.001_Plane.003
v -12.999999 -0.004559 33.002361
v -9.999999 -0.004559 33.002361
v -12.999999 5.395442 33.002361
v -9.999999 5.395442 33.002361
vt 0.000000 0.000000
vt 1.000000 0.000000
vt 1.000000 1.000000
vt 0.000000 1.000000
vn 0.0000 0.0000 1.0000
usemtl None
s off
f 41/41/7 42/42/7 44/43/7 43/44/7
o Plane.002_Plane.004
v -9.999999 -0.000000 12.999999
v 10.000001 -0.000000 12.999999
v -9.999999 -0.000000 9.999999
v 10.000001 -0.000000 9.999999
vt 0.000000 0.000000
vt 1.000000 0.000000
vt 1.000000 1.000000
vt 0.000000 1.000000
vn 0.0000 1.0000 0.0000
usemtl None
s off
f 45/45/8 46/46/8 48/47/8 47/48/8
o suelo_patio_Plane.005
v -10.042670 -0.004559 33.002361
v 13.957330 -0.004559 33.002361
v -10.042670 -0.004559 13.002361
v 13.957330 -0.004559 13.002361
vt 0.000000 0.000000
vt 1.000000 0.000000
vt 1.000000 1.000000
vt 0.000000 1.000000
vn 0.0000 1.0000 0.0000
usemtl None
s off
f 49/49/9 50/50/9 52/51/9 51/52/9
o patio1_Plane.006
v -10.042668 -0.000001 12.999999
v 13.957328 -0.000001 12.999999
v -10.042668 5.399999 12.999999
v 13.957328 5.399999 12.999999
v -9.999996 -0.004559 33.002361
v 13.999996 -0.004559 33.002361
v -9.999996 5.395441 33.002361
v 13.999996 5.395441 33.002361
v 13.957326 -0.004559 33.002361
v 13.957326 -0.004559 13.002361
v 13.957327 5.395441 33.002361
v 13.957326 5.395441 13.002361
v -10.042668 -0.004559 33.002361
v -10.042668 -0.004559 13.002361
v -10.042667 5.395441 33.002361
v -10.042668 5.395441 13.002361
v -3.871651 -0.000001 12.999999
v -1.871652 -0.000001 12.999999
v -3.871651 3.999999 12.999999
v -1.871652 3.999999 12.999999
v 9.196527 -0.000001 33.002361
v 9.196527 3.999999 33.002361
v 11.196526 -0.000001 33.002361
v 11.196526 3.999999 33.002361
v -10.042668 -0.000001 22.011995
v -10.042668 -0.000001 24.011995
v -10.042668 3.999999 24.011995
v -10.042668 4.000000 22.011995
vt 0.340459 0.740741
vt 0.340459 0.000000
vt 1.000000 0.000000
vt 1.000000 1.000000
vt 0.000000 1.000000
vt 0.257126 0.740741
vt 0.000000 0.000000
vt 0.257126 0.000000
vt 0.799855 0.741585
vt 0.883189 0.741585
vt 1.000000 1.000000
vt 0.000000 1.000000
vt 0.000000 0.000000
vt 1.000000 0.000000
vt 0.883189 0.000844
vt 0.799855 0.000844
vt 0.000000 0.000000
vt 1.000000 0.000000
vt 1.000000 1.000000
vt 0.000000 1.000000
vt 0.449518 0.741585
vt 0.000000 1.000000
vt 0.000000 0.000000
vt 0.449518 0.000844
vt 1.000000 0.000000
vt 1.000000 1.000000
vt 0.549518 0.741585
vt 0.549518 0.000844
vn 0.0000 0.0000 1.0000
vn 1.0000 -0.0000 -0.0000
usemtl (null)
s off
f 72/53/10 70/54/10 54/55/10 56/56/10 55/57/10 71/58/10
f 71/58/10 55/57/10 53/59/10 69/60/10
f 74/61/10 76/62/10 60/63/10 59/64/10 57/65/10 58/66/10 75/67/10 73/68/10
f 75/67/10 58/66/10 60/63/10 76/62/10
f 61/69/11 62/70/11 64/71/11 63/72/11
f 79/73/11 67/74/11 65/75/11 78/76/11
f 78/76/11 65/75/11 66/77/11 68/78/11 67/74/11 79/73/11 80/79/11 77/80/11
o puerta_Cube
v -34.318798 7.941980 -40.025429
v -34.318798 11.941980 -40.025429
v -34.318798 7.941980 -42.025429
v -34.318798 11.941980 -42.025429
v -32.318798 7.941980 -40.025429
v -32.318798 11.941980 -40.025429
v -32.318798 7.941980 -42.025429
v -32.318798 11.941980 -42.025429
vt 0.375000 0.000000
vt 0.625000 0.000000
vt 0.625000 0.250000
vt 0.375000 0.250000
vt 0.625000 0.500000
vt 0.375000 0.500000
vt 0.625000 0.750000
vt 0.375000 0.750000
vt 0.625000 1.000000
vt 0.375000 1.000000
vt 0.125000 0.500000
vt 0.125000 0.750000
vt 0.875000 0.500000
vt 0.875000 0.750000
vn -1.0000 0.0000 0.0000
vn 0.0000 0.0000 -1.0000
vn 1.0000 0.0000 0.0000
vn 0.0000 0.0000 1.0000
vn 0.0000 -1.0000 0.0000
vn 0.0000 1.0000 0.0000
usemtl None
s off
f 81/81/12 82/82/12 84/83/12 83/84/12
f 83/84/13 84/83/13 88/85/13 87/86/13
f 87/86/14 88/85/14 86/87/14 85/88/14
f 85/88/15 86/87/15 82/89/15 81/90/15
f 83/91/16 87/86/16 85/88/16 81/92/16
f 88/85/17 84/93/17 82/94/17 86/87/17
o Plane.003_Plane.011
v -4.001782 -0.004559 45.002277
v 13.998219 -0.004559 45.002277
v -4.001782 -0.004559 33.002277
v 13.998219 -0.004559 33.002277
vt 0.000000 0.000000
vt 1.000000 0.000000
vt 1.000000 1.000000
vt 0.000000 1.000000
vn 0.0000 1.0000 0.0000
usemtl None
s off
f 89/95/18 90/96/18 92/97/18 91/98/18
o Plane.005_Plane.013
v -4.001782 5.395442 45.002277
v -4.001782 -0.004559 45.002277
v -4.001782 5.395442 33.002277
v -4.001782 -0.004559 33.002277
v 13.998219 5.395442 45.002274
v 13.998219 -0.004558 45.002274
v 13.998219 5.395442 33.002274
v 13.998219 -0.004558 33.002274
v 13.998219 5.395442 45.002274
v 13.998219 -0.004559 45.002274
v -4.001782 5.395442 45.002274
v -4.001782 -0.004558 45.002274
vt 0.000000 0.000000
vt 1.000000 0.000000
vt 1.000000 1.000000
vt 0.000000 1.000000
vt 0.000000 0.000000
vt 1.000000 0.000000
vt 1.000000 1.000000
vt 0.000000 1.000000
vt 0.000000 0.000000
vt 1.000000 0.000000
vt 1.000000 1.000000
vt 0.000000 1.000000
vn 1.0000 0.0000 0.0000
vn -0.0000 0.0000 -1.0000
usemtl None
s off
f 93/99/19 94/100/19 96/101/19 95/102/19
f 97/103/19 98/104/19 100/105/19 99/106/19
f 101/107/20 102/108/20 104/109/20 103/110/20
o Plane.004_Plane.015
v -20.996021 -0.004559 10.011644
v -12.996021 -0.004559 10.011644
v -20.996021 -0.004559 -9.988356
v -12.996021 -0.004559 -9.988356
vt 0.000000 0.000000
vt 1.000000 0.000000
vt 1.000000 1.000000
vt 0.000000 1.000000
vn 0.0000 1.0000 0.0000
usemtl None
s off
f 105/111/21 106/112/21 108/113/21 107/114/21
o subfusil_Plane.018
v -21.000000 -0.003677 10.011645
v -13.000000 -0.003677 10.011645
v -21.000000 5.396323 10.011645
v -13.000000 5.396323 10.011645
v -20.996021 5.395441 10.011644
v -20.996021 -0.004558 10.011644
v -20.996021 5.395442 -9.988355
v -20.996021 -0.004558 -9.988355
v -21.000000 -0.003677 -9.988355
v -13.000000 -0.003677 -9.988355
v -21.000000 5.396323 -9.988355
v -13.000000 5.396323 -9.988355
v -13.000000 5.396323 10.011645
v -13.000000 -0.003677 10.011645
v -13.000000 5.396323 5.011645
v -13.000000 -0.003677 5.011645
v -12.999999 5.395442 -4.988355
v -12.999999 -0.004559 -4.988355
v -12.999999 5.395442 -9.988355
v -12.999999 -0.004558 -9.988355
vt 0.000000 0.000000
vt 1.000000 0.000000
vt 1.000000 1.000000
vt 0.000000 1.000000
vt 0.000000 0.000000
vt 1.000000 0.000000
vt 1.000000 1.000000
vt 0.000000 1.000000
vt 0.000000 0.000000
vt 1.000000 0.000000
vt 1.000000 1.000000
vt 0.000000 1.000000
vt 0.000000 0.000000
vt 1.000000 0.000000
vt 1.000000 1.000000
vt 0.000000 1.000000
vt 0.000000 0.000000
vt 1.000000 0.000000
vt 1.000000 1.000000
vt 0.000000 1.000000
vn 0.0000 0.0000 1.0000
vn 1.0000 0.0000 0.0000
usemtl None
s off
f 109/115/22 110/116/22 112/117/22 111/118/22
f 113/119/23 114/120/23 116/121/23 115/122/23
f 117/123/22 118/124/22 120/125/22 119/126/22
f 121/127/23 122/128/23 124/129/23 123/130/23
f 125/131/23 126/132/23 128/133/23 127/134/23
o Plane.006_Plane.021
v -12.999999 -0.002643 -9.986959
v -9.999999 -0.002643 -9.986959
v -12.999999 4.997357 -18.647213
v -9.999999 4.997357 -18.647213
vt 0.000000 0.000000
vt 1.000000 0.000000
vt 1.000000 1.000000
vt 0.000000 1.000000
vn 0.0000 0.8660 0.5000
usemtl None
s off
f 129/135/24 130/136/24 132/137/24 131/138/24
o Plane.007_Plane.022
v -12.999999 4.997357 -18.647213
v -9.999999 4.997357 -18.647213
v -12.999999 4.997357 -51.647213
v -9.999999 4.997357 -51.647213
vt 0.000000 0.000000
vt 1.000000 0.000000
vt 1.000000 1.000000
vt 0.000000 1.000000
vn 0.0000 1.0000 0.0000
usemtl None
s off
f 133/139/25 134/140/25 136/141/25 135/142/25
o Plane.008_Plane.023
v -30.973812 4.997357 -18.647213
v -12.973812 4.997357 -18.647213
v -30.973812 4.997357 -34.647213
v -12.973812 4.997357 -34.647213
vt 0.000000 0.000000
vt 1.000000 0.000000
vt 1.000000 1.000000
vt 0.000000 1.000000
vn 0.0000 1.0000 0.0000
usemtl None
s off
f 137/143/26 138/144/26 140/145/26 139/146/26
o Plane.009_Plane.024
v -12.973812 10.397357 -18.647213
v -12.973812 4.997357 -18.647213
v -12.973812 10.397357 -34.647213
v -12.973812 4.997357 -34.647213
v -30.973812 10.397357 -18.647213
v -30.973812 4.997357 -18.647213
v -30.973812 10.397357 -34.647213
v -30.973812 4.997357 -34.647213
v -12.973812 10.397357 -34.647213
v -30.973812 10.397357 -34.647213
v -30.973812 4.997357 -34.647213
v -12.973812 10.397357 -18.647213
v -12.973812 4.997357 -18.647213
v -30.973812 4.997357 -18.647213
v -12.973812 4.997357 -25.524532
v -12.973812 4.997357 -27.524532
v -12.973812 8.997357 -25.524532
v -12.973812 8.997357 -27.524532
v -23.000866 4.997358 -34.647213
v -25.000866 4.997358 -34.647213
v -25.000866 8.997357 -34.647213
v -23.000866 8.997357 -34.647213
vt 1.000000 0.429832
vt 1.000000 0.000000
vt 1.000000 1.000000
vt 1.000000 0.554832
vt 0.259259 0.554832
vt 0.000000 1.000000
vt 0.000000 0.000000
vt 0.259259 0.429832
vt 0.000000 0.000000
vt 1.000000 0.000000
vt 1.000000 1.000000
vt 0.000000 1.000000
vt 0.259259 0.668170
vt 0.000000 1.000000
vt 0.000000 0.000000
vt 1.000000 0.000000
vt 1.000000 1.000000
vt 1.000000 0.668170
vt 1.000000 0.557059
vt 0.259259 0.557059
vt 0.000000 0.000000
vt 1.000000 0.000000
vt 1.000000 1.000000
vt 0.000000 1.000000
vn 0.0000 0.0000 1.0000
vn 1.0000 0.0000 0.0000
vn 0.0000 0.0000 -1.0000
usemtl (null)
s off
f 155/147/27 142/148/27 144/149/27 156/150/27
f 158/151/28 156/150/28 144/149/28 143/152/28 141/153/28 142/148/28 155/147/28 157/154/28
f 145/155/28 146/156/28 148/157/28 147/158/28
f 161/159/29 150/160/29 149/161/29 144/162/29 151/163/29 160/164/29 159/165/29 162/166/29
f 151/163/29 150/160/29 161/159/29 160/164/29
f 152/167/29 153/168/29 154/169/29 145/170/29
