# Blender 3.3.1
# www.blender.org
mtllib mapa_laboratorio.mtl
o laboratorio1
v -12.475788 -2.930524 43.767765
v -12.475791 -2.930524 -25.689205
v -12.475787 6.992960 43.767765
v -12.475790 6.992960 -25.689205
v 56.981182 -2.930525 43.767761
v 56.981182 -2.930525 -25.689205
v -12.475791 -2.930524 43.767761
v -12.475791 6.992961 43.767761
v 56.981182 6.992960 43.767761
v -12.475794 -2.930524 -25.689205
v -12.475794 6.992961 -25.689205
v 56.981182 6.992960 -25.689205
v 56.981182 -2.930525 43.767765
v 56.981182 -2.930525 -25.689205
v 56.981182 6.992960 43.767765
v 56.981182 6.992960 -25.689205
v -12.475789 -2.925390 12.512130
v -12.475789 -2.925390 5.566432
v -12.475789 4.425339 12.512130
v -12.475789 4.425339 5.566432
v 48.824188 -2.930526 43.767761
v 41.531208 -2.930525 43.767761
v 48.824188 4.417437 43.767761
v 41.531208 4.417437 43.767761
v -12.475788 -2.930524 43.767765
v 56.981182 -2.930526 43.767761
v -12.475791 -2.930524 -25.689201
v 56.981182 -2.930526 -25.689205
v -12.475787 6.992961 43.767765
v 56.981182 6.992960 43.767761
v -12.475790 6.992961 -25.689201
v 56.981182 6.992960 -25.689205
vn 1.0000 -0.0000 -0.0000
vn -0.0000 -0.0000 1.0000
vn -0.0000 1.0000 -0.0000
vt 0.000000 0.000000
vt 1.000000 0.000000
vt 0.000000 1.000000
vt 1.000000 1.000000
vt 1.000000 0.000000
vt 1.000000 0.000000
vt 0.000000 0.000000
vt 0.000000 1.000000
vt 1.000000 1.000000
vt 0.000000 0.000000
vt 0.000000 1.000000
vt 1.000000 1.000000
vt 0.000000 0.000000
vt 1.000000 0.000000
vt 0.000000 1.000000
vt 1.000000 1.000000
vt 0.450000 0.000517
vt 0.550000 0.000517
vt 0.450000 0.741258
vt 0.550000 0.741258
vt 0.882560 0.000000
vt 0.777560 0.000000
vt 0.882560 0.740462
vt 0.777561 0.740462
vt 0.000000 0.000000
vt 1.000000 0.000000
vt 0.000000 1.000000
vt 1.000000 1.000000
vt 0.000000 0.000000
vt 1.000000 0.000000
vt 0.000000 1.000000
vt 1.000000 1.000000
s 0
usemtl 
f 17/17/1 1/1/1 2/2/1 18/18/1
f 20/20/1 18/18/1 2/2/1 4/4/1 3/3/1 1/1/1 17/17/1 19/19/1
f 5/5/2 9/9/2 8/8/2 7/7/2 22/22/2 24/24/2 23/23/2 21/21/2
f 10/10/2 6/6/2 12/12/2 11/11/2
f 13/13/1 14/14/1 16/16/1 15/15/1
f 25/25/3 26/26/3 28/28/3 27/27/3
f 29/29/3 30/30/3 32/32/3 31/31/3
o pasillo1
v -22.894337 -2.928213 123.683731
v -12.475789 -2.928213 123.683731
v -22.894337 -2.928213 -25.648762
v -12.475789 -2.928213 -25.648762
v -22.894337 -2.938901 123.651489
v -12.475789 -2.938901 123.651489
v -22.894337 6.984581 123.651489
v -12.475789 6.984581 123.651489
v -22.894335 6.984581 123.651489
v -22.894337 -2.938901 123.651489
v -22.894335 6.984581 43.775963
v -22.894337 -2.938901 43.775963
v -22.894337 6.984581 123.651489
v -12.475789 6.984581 123.651489
v -22.894337 6.984581 -25.681004
v -12.475789 6.984581 -25.681004
vn -0.0000 1.0000 -0.0000
vn -0.0000 -0.0000 1.0000
vn 1.0000 -0.0000 -0.0000
vt 0.000000 0.000000
vt 1.000000 0.000000
vt 0.000000 1.000000
vt 1.000000 1.000000
vt 0.000000 0.000000
vt 1.000000 0.000000
vt 0.000000 1.000000
vt 1.000000 1.000000
vt 0.000000 0.000000
vt 1.000000 0.000000
vt 0.000000 1.000000
vt 1.000000 1.000000
vt 0.000000 0.000000
vt 1.000000 0.000000
vt 0.000000 1.000000
vt 1.000000 1.000000
s 0
f 33/33/4 34/34/4 36/36/4 35/35/4
f 37/37/5 38/38/5 40/40/5 39/39/5
f 41/41/6 42/42/6 44/44/6 43/43/6
f 45/45/4 46/46/4 48/48/4 47/47/4
o patio1
v -12.623974 -2.930525 54.186306
v 70.724380 -2.930525 54.186306
v -12.623974 6.992956 54.186306
v 70.724380 6.992956 54.186306
v -12.475780 -2.938904 123.651474
v 70.872566 -2.938904 123.651474
v -12.475780 6.984579 123.651474
v 70.872566 6.984579 123.651474
v 70.724380 -2.938902 123.651474
v 70.724380 -2.938902 54.194511
v 70.724380 6.984578 123.651474
v 70.724380 6.984580 54.194511
v -12.623974 -2.938902 123.651474
v -12.623974 -2.938902 54.194511
v -12.623970 6.984578 123.651474
v -12.623974 6.984580 54.194511
v 8.807034 -2.930525 54.186306
v 15.752728 -2.930525 54.186306
v 8.807034 4.420201 54.186306
v 15.752728 4.420201 54.186306
v 54.190842 -2.930528 123.651474
v 54.190842 4.420199 123.651474
v 61.136536 -2.930528 123.651474
v 61.136536 4.420199 123.651474
v -12.623974 -2.930526 85.483604
v -12.623974 -2.930526 92.429306
v -12.623974 4.420201 92.429306
v -12.623974 4.420201 85.483604
v -12.623978 -2.938902 123.651474
v 70.724388 -2.938902 123.651474
v -12.623978 -2.938901 54.194511
v 70.724388 -2.938901 54.194511
vn -0.0000 -0.0000 1.0000
vn 1.0000 -0.0000 -0.0000
vn -0.0000 1.0000 -0.0000
vt 0.000000 0.000000
vt 1.000000 0.000000
vt 0.000000 1.000000
vt 1.000000 1.000000
vt 0.000000 0.000000
vt 1.000000 0.000000
vt 0.000000 1.000000
vt 1.000000 1.000000
vt 0.000000 0.000000
vt 1.000000 0.000000
vt 0.000000 1.000000
vt 1.000000 1.000000
vt 0.000000 0.000000
vt 1.000000 0.000000
vt 0.000000 1.000000
vt 1.000000 1.000000
vt 0.257126 0.000000
vt 0.340459 0.000000
vt 0.257126 0.740741
vt 0.340459 0.740741
vt 0.799855 0.000844
vt 0.799855 0.741585
vt 0.883189 0.000844
vt 0.883189 0.741585
vt 0.549518 0.000844
vt 0.449518 0.000844
vt 0.449518 0.741585
vt 0.549518 0.741585
vt 0.000000 0.000000
vt 1.000000 0.000000
vt 0.000000 1.000000
vt 1.000000 1.000000
s 0
usemtl 
f 68/68/7 66/66/7 50/50/7 52/52/7 51/51/7 67/67/7
f 67/67/7 51/51/7 49/49/7 65/65/7
f 70/70/7 72/72/7 56/56/7 55/55/7 53/53/7 54/54/7 71/71/7 69/69/7
f 71/71/7 54/54/7 56/56/7 72/72/7
f 57/57/8 58/58/8 60/60/8 59/59/8
f 75/75/8 63/63/8 61/61/8 74/74/8
f 74/74/8 61/61/8 62/62/8 64/64/8 63/63/8 75/75/8 76/76/8 73/73/8
f 77/77/9 78/78/9 80/80/9 79/79/9
o laboratorio3
v -50.663315 -2.938901 43.808205
v -22.880524 -2.938901 43.808205
v -50.663315 -2.938901 -25.648766
v -22.880524 -2.938901 -25.648766
v -50.677132 -2.937281 43.808208
v -22.894342 -2.937281 43.808208
v -50.677132 6.986201 43.808208
v -22.894342 6.986201 43.808208
v -50.663315 6.984580 43.808205
v -50.663315 -2.938900 43.808205
v -50.663315 6.984581 -25.648762
v -50.663315 -2.938900 -25.648762
v -50.677132 -2.937281 -25.648762
v -22.894342 -2.937281 -25.648762
v -50.677132 6.986201 -25.648762
v -22.894342 6.986201 -25.648762
v -22.894342 6.986200 43.808208
v -22.894342 -2.937281 43.808208
v -22.894342 6.986201 26.443966
v -22.894342 -2.937281 26.443966
v -22.894339 6.984581 -8.284519
v -22.894339 -2.938901 -8.284519
v -22.894339 6.984581 -25.648762
v -22.894339 -2.938900 -25.648762
v -50.677132 6.986201 43.808208
v -22.894342 6.986201 43.808208
v -50.677132 6.986201 -25.648762
v -22.894342 6.986201 -25.648762
v -50.663315 -2.938901 43.808205
v -22.880524 -2.938901 43.808205
v -50.663315 -2.938901 -25.648766
v -22.880524 -2.938901 -25.648766
vn -0.0000 1.0000 -0.0000
vn -0.0000 -0.0000 1.0000
vn 1.0000 -0.0000 -0.0000
vt 0.000000 0.000000
vt 1.000000 0.000000
vt 0.000000 1.000000
vt 1.000000 1.000000
vt 0.000000 0.000000
vt 1.000000 0.000000
vt 0.000000 1.000000
vt 1.000000 1.000000
vt 0.000000 0.000000
vt 1.000000 0.000000
vt 0.000000 1.000000
vt 1.000000 1.000000
vt 0.000000 0.000000
vt 1.000000 0.000000
vt 0.000000 1.000000
vt 1.000000 1.000000
vt 0.000000 0.000000
vt 1.000000 0.000000
vt 0.000000 1.000000
vt 1.000000 1.000000
vt 0.000000 0.000000
vt 1.000000 0.000000
vt 0.000000 1.000000
vt 1.000000 1.000000
vt 0.000000 0.000000
vt 1.000000 0.000000
vt 0.000000 1.000000
vt 1.000000 1.000000
vt 0.000000 0.000000
vt 1.000000 0.000000
vt 0.000000 1.000000
vt 1.000000 1.000000
s 0
f 81/81/10 82/82/10 84/84/10 83/83/10
f 85/85/11 86/86/11 88/88/11 87/87/11
f 89/89/12 90/90/12 92/92/12 91/91/12
f 93/93/11 94/94/11 96/96/11 95/95/11
f 97/97/12 98/98/12 100/100/12 99/99/12
f 101/101/12 102/102/12 104/104/12 103/103/12
f 105/105/10 106/106/10 108/108/10 107/107/10
f 109/109/10 110/110/10 112/112/10 111/111/10
o pasillo3
v -22.894337 6.253029 -55.719666
v -12.475789 6.253029 -55.719666
v -22.894337 6.253029 -170.323669
v -12.475789 6.253029 -170.323669
v -20.407894 6.253029 -112.884079
v -12.475786 16.176510 -55.719666
v -12.475787 6.253028 -55.719666
v -20.407894 6.253029 -119.829773
v -12.475786 16.176510 -170.323669
v -12.475787 6.253028 -170.323669
v -22.894335 16.176510 -111.285248
v -22.894337 6.253028 -111.285248
v -22.894335 16.176510 -170.323669
v -22.894337 6.253028 -170.323669
v -22.894337 6.253028 -170.323669
v -12.475789 6.253028 -170.323669
v -22.894337 16.176510 -170.323669
v -12.475789 16.176510 -170.323669
v -22.894333 16.176510 -55.719666
v -12.475786 16.176510 -55.719666
v -22.894333 16.176510 -170.323669
v -12.475786 16.176510 -170.323669
v -22.894337 6.253029 -112.884079
v -22.894337 13.603756 -112.884079
v -22.894337 13.603756 -119.829773
v -22.894337 6.253029 -119.829773
v -22.894337 6.253029 -119.829773
v -22.894337 6.253029 -112.884079
v -22.900875 6.253029 -112.910034
v -20.122597 6.253029 -112.910034
v -22.900875 6.253029 -119.855728
v -20.122597 6.253029 -119.855728
vn -0.0000 1.0000 -0.0000
vn 1.0000 -0.0000 -0.0000
vn -0.0000 -0.0000 1.0000
vt 0.000000 0.000000
vt 1.000000 0.000000
vt 0.000000 1.000000
vt 1.000000 1.000000
vt 0.238655 0.498799
vt 0.000000 0.000000
vt 1.000000 0.000000
vt 0.238655 0.559405
vt 0.000000 1.000000
vt 1.000000 1.000000
vt 0.000000 0.000000
vt 1.000000 0.000000
vt 0.000000 1.000000
vt 1.000000 1.000000
vt 0.000000 0.000000
vt 1.000000 0.000000
vt 0.000000 1.000000
vt 1.000000 1.000000
vt 0.000000 0.000000
vt 1.000000 0.000000
vt 0.000000 1.000000
vt 1.000000 1.000000
vt 1.000000 0.027081
vt 0.259259 0.027081
vt 0.259259 0.144728
vt 1.000000 0.144728
vt 0.000000 0.559405
vt 0.000000 0.498799
vt 0.000000 0.000000
vt 1.000000 0.000000
vt 0.000000 1.000000
vt 1.000000 1.000000
s 0
usemtl 
f 117/117/13 140/140/13 113/113/13 114/114/13 116/116/13 115/115/13 139/139/13 120/120/13
f 118/118/14 119/119/14 122/122/14 121/121/14
f 135/135/14 124/124/14 126/126/14 138/138/14
f 126/126/14 125/125/14 123/123/14 124/124/14 135/135/14 136/136/14 137/137/14 138/138/14
f 127/127/15 128/128/15 130/130/15 129/129/15
f 131/131/13 132/132/13 134/134/13 133/133/13
f 141/141/13 142/142/13 144/144/13 143/143/13
o laboratorio4
v -85.314667 6.253029 -55.719666
v -22.803391 6.253029 -55.719666
v -85.314667 6.253029 -111.285248
v -22.803391 6.253029 -111.285248
v -22.803387 16.176510 -55.719666
v -22.803387 6.253028 -55.719666
v -22.803387 16.176510 -111.285248
v -22.803387 6.253028 -111.285248
v -85.314667 16.176510 -55.719666
v -85.314667 6.253028 -55.719666
v -85.314667 16.176510 -111.285248
v -85.314667 6.253028 -111.285248
v -22.803387 16.176510 -111.285248
v -85.314667 16.176510 -111.285248
v -85.314667 6.253028 -111.285248
v -22.803387 16.176510 -55.719669
v -22.803387 6.253028 -55.719669
v -85.314667 6.253028 -55.719666
v -22.803387 6.253029 -79.603554
v -22.803387 6.253029 -86.549255
v -22.803387 13.603756 -79.603554
v -22.803387 13.603756 -86.549255
v -57.625828 6.253030 -111.285248
v -64.571526 6.253030 -111.285248
v -64.571526 13.603757 -111.285248
v -57.625828 13.603757 -111.285248
v -85.314667 16.175400 -55.719666
v -22.803391 16.175400 -55.719666
v -85.314667 16.175400 -111.285248
v -22.803391 16.175400 -111.285248
vn -0.0000 1.0000 -0.0000
vn 1.0000 -0.0000 -0.0000
vn -0.0000 -0.0000 -1.0000
vt 0.000000 0.000000
vt 1.000000 0.000000
vt 0.000000 1.000000
vt 1.000000 1.000000
vt 0.000000 0.000000
vt 1.000000 0.000000
vt 0.000000 1.000000
vt 1.000000 1.000000
vt 1.000000 0.000000
vt 0.000000 0.000000
vt 0.000000 1.000000
vt 1.000000 0.000000
vt 0.000000 1.000000
vt 1.000000 1.000000
vt 0.000000 0.000000
vt 0.000000 1.000000
vt 1.000000 1.000000
vt 0.000000 0.000000
vt 1.000000 0.000000
vt 1.000000 1.000000
vt 1.000000 0.429832
vt 1.000000 0.554832
vt 0.259259 0.429832
vt 0.259259 0.554832
vt 1.000000 0.557059
vt 1.000000 0.668170
vt 0.259259 0.668170
vt 0.259259 0.557059
vt 0.000000 0.000000
vt 1.000000 0.000000
vt 0.000000 1.000000
vt 1.000000 1.000000
s 0
usemtl 
f 145/145/16 146/146/16 148/148/16 147/147/16
f 163/165/17 150/150/17 152/152/17 164/166/17
f 166/168/17 164/166/17 152/152/17 151/151/17 149/149/17 150/150/17 163/165/17 165/167/17
f 153/154/17 154/156/17 156/158/17 155/157/17
f 169/171/18 158/160/18 157/159/18 152/153/18 159/161/18 168/170/18 167/169/18 170/172/18
f 159/161/18 158/160/18 169/171/18 168/170/18
f 160/162/18 161/163/18 162/164/18 153/155/18
f 171/173/16 172/174/16 174/176/16 173/175/16
o laboratorio2
v 8.355110 6.984582 165.325378
v 70.866386 6.984582 165.325378
v 8.355110 6.984582 123.651184
v 70.866386 6.984582 123.651184
v 8.355110 -2.938902 165.325394
v 70.866386 -2.938902 165.325394
v 8.355110 -2.938902 123.651207
v 70.866386 -2.938902 123.651207
v 8.355110 6.984580 165.325394
v 8.355110 -2.938902 165.325394
v 8.355110 6.984580 123.651207
v 8.355110 -2.938902 123.651207
v 70.866386 6.984581 165.325378
v 70.866386 -2.938901 165.325378
v 70.866386 6.984581 123.651199
v 70.866386 -2.938901 123.651199
v 70.866386 6.984581 165.325378
v 70.866386 -2.938902 165.325378
v 8.355110 6.984581 165.325378
v 8.355110 -2.938901 165.325378
vn -0.0000 1.0000 -0.0000
vn 1.0000 -0.0000 -0.0000
vn -0.0000 -0.0000 -1.0000
vt 0.000000 0.000000
vt 1.000000 0.000000
vt 0.000000 1.000000
vt 1.000000 1.000000
vt 0.000000 0.000000
vt 1.000000 0.000000
vt 0.000000 1.000000
vt 1.000000 1.000000
vt 0.000000 0.000000
vt 1.000000 0.000000
vt 0.000000 1.000000
vt 1.000000 1.000000
vt 0.000000 0.000000
vt 1.000000 0.000000
vt 0.000000 1.000000
vt 1.000000 1.000000
vt 0.000000 0.000000
vt 1.000000 0.000000
vt 0.000000 1.000000
vt 1.000000 1.000000
s 0
f 175/177/19 176/178/19 178/180/19 177/179/19
f 179/181/19 180/182/19 182/184/19 181/183/19
f 183/185/20 184/186/20 186/188/20 185/187/20
f 187/189/20 188/190/20 190/192/20 189/191/20
f 191/193/21 192/194/21 194/196/21 193/195/21
o pasillo2
v 56.981178 -2.930524 54.186314
v 56.981178 -2.930524 43.767765
v 56.981178 6.992958 54.186314
v 56.981178 6.992958 43.767765
v -12.475792 -2.930522 54.186314
v 56.981178 -2.930524 54.186314
v -12.475792 -2.930522 43.767769
v 56.981178 -2.930524 43.767769
v -12.475792 6.992962 54.186314
v 56.981178 6.992960 54.186314
v -12.475792 6.992962 43.767769
v 56.981178 6.992960 43.767769
vn 1.0000 -0.0000 -0.0000
vn -0.0000 1.0000 -0.0000
vt 0.000000 0.000000
vt 1.000000 0.000000
vt 0.000000 1.000000
vt 1.000000 1.000000
vt 0.000000 0.000000
vt 1.000000 0.000000
vt 0.000000 1.000000
vt 1.000000 1.000000
vt 0.000000 0.000000
vt 1.000000 0.000000
vt 0.000000 1.000000
vt 1.000000 1.000000
s 0
f 195/197/22 196/198/22 198/200/22 197/199/22
f 199/201/23 200/202/23 202/204/23 201/203/23
f 203/205/23 204/206/23 206/208/23 205/207/23
o rampa1
v -22.894337 6.986978 -25.648767
v -22.894337 -2.928213 -25.648767
v -22.894337 16.175400 -55.687828
v -22.894337 6.257006 -55.687828
v -22.894333 -2.935379 -25.643921
v -12.475788 -2.935379 -25.643921
v -22.894335 6.253029 -55.719673
v -12.475787 6.253029 -55.719673
v -12.475787 6.976290 -25.648769
v -12.475787 -2.938901 -25.648769
v -12.475787 16.164713 -55.687836
v -12.475787 6.246319 -55.687836
v -22.894333 6.986992 -25.612080
v -12.475787 6.986992 -25.612080
v -22.894333 16.175402 -55.687832
v -12.475787 16.175402 -55.687832
vn 1.0000 -0.0000 -0.0000
vn -0.0000 0.9564 0.2922
vt 0.000000 0.000000
vt 1.000000 0.000000
vt 0.000000 1.000000
vt 1.000000 1.000000
vt 0.000000 0.000000
vt 1.000000 0.000000
vt 0.000000 1.000000
vt 1.000000 1.000000
vt 0.000000 0.000000
vt 1.000000 0.000000
vt 0.000000 1.000000
vt 1.000000 1.000000
vt 0.000000 0.000000
vt 1.000000 0.000000
vt 0.000000 1.000000
vt 1.000000 1.000000
s 0
f 207/209/24 208/210/24 210/212/24 209/211/24
f 211/213/25 212/214/25 214/216/25 213/215/25
f 215/217/24 216/218/24 218/220/24 217/219/24
f 219/221/25 220/222/25 222/224/25 221/223/25
o pasillo4
v -22.803391 6.253029 -111.285255
v -22.803391 6.253029 -121.703804
v -85.314667 6.253029 -111.285255
v -85.314667 6.253029 -121.703804
v -85.314674 6.253028 -111.285255
v -85.314674 6.253028 -121.703804
v -85.314674 16.176510 -111.285255
v -85.314674 16.176510 -121.703804
v -22.803398 16.176510 -121.703804
v -22.803398 6.253028 -121.703804
v -85.314674 16.176510 -121.703804
v -85.314674 6.253028 -121.703804
v -22.803398 16.176510 -111.285255
v -22.803398 16.176510 -121.703804
v -85.314674 16.176510 -111.285255
v -85.314674 16.176510 -121.703804
vn -0.0000 1.0000 -0.0000
vn 1.0000 -0.0000 -0.0000
vn -0.0000 -0.0000 -1.0000
vt 0.000000 0.000000
vt 1.000000 0.000000
vt 0.000000 1.000000
vt 1.000000 1.000000
vt 0.000000 0.000000
vt 1.000000 0.000000
vt 0.000000 1.000000
vt 1.000000 1.000000
vt 0.000000 0.000000
vt 1.000000 0.000000
vt 0.000000 1.000000
vt 1.000000 1.000000
vt 0.000000 0.000000
vt 1.000000 0.000000
vt 0.000000 1.000000
vt 1.000000 1.000000
s 0
f 223/225/26 224/226/26 226/228/26 225/227/26
f 227/229/27 228/230/27 230/232/27 229/231/27
f 231/233/28 232/234/28 234/236/28 233/235/28
f 235/237/26 236/238/26 238/240/26 237/239/26
