# Blender v3.3.1 OBJ File: 'player_arm.blend'
# www.blender.org
mtllib player_arm.mtl
o mano_Cube.005
v -0.090505 -0.123552 0.141185
v -0.090505 -0.143552 0.141185
v -0.090505 -0.123552 0.041185
v -0.090505 -0.143552 0.041185
v -0.150505 -0.123552 0.141185
v -0.150505 -0.143552 0.141185
v -0.150505 -0.123552 0.041185
v -0.150505 -0.143552 0.041185
v 0.052059 -0.123552 0.140853
v 0.052059 -0.143552 0.140853
v 0.052059 -0.123552 0.081234
v 0.052059 -0.143552 0.081234
v -0.094537 -0.123552 0.140853
v -0.094537 -0.143552 0.140853
v -0.094537 -0.123552 0.081234
v -0.094537 -0.143552 0.081234
v 0.150000 0.150000 -0.050000
v 0.150000 -0.150000 -0.050000
v 0.150000 0.150000 0.050000
v 0.150000 -0.150000 0.050000
v -0.150000 0.150000 -0.050000
v -0.150000 -0.150000 -0.050000
v -0.150000 0.150000 0.050000
v -0.150000 -0.150000 0.050000
v 0.088978 0.115926 0.141185
v 0.088978 0.135926 0.141185
v 0.088978 0.115926 0.041185
v 0.088978 0.135926 0.041185
v 0.148978 0.115926 0.141185
v 0.148978 0.135926 0.141185
v 0.148978 0.115926 0.041185
v 0.148978 0.135926 0.041185
v -0.053586 0.115926 0.140853
v -0.053586 0.135926 0.140853
v -0.053586 0.115926 0.081234
v -0.053586 0.135926 0.081234
v 0.093010 0.115926 0.140853
v 0.093010 0.135926 0.140853
v 0.093010 0.115926 0.081234
v 0.093010 0.135926 0.081234
v -0.090505 0.015091 0.141185
v -0.090505 -0.004909 0.141185
v -0.090505 0.015091 0.041185
v -0.090505 -0.004909 0.041185
v -0.150505 0.015091 0.141185
v -0.150505 -0.004909 0.141185
v -0.150505 0.015091 0.041185
v -0.150505 -0.004909 0.041185
v 0.052059 0.015091 0.140853
v 0.052059 -0.004909 0.140853
v 0.052059 0.015091 0.081234
v 0.052059 -0.004909 0.081234
v -0.094537 0.015091 0.140853
v -0.094537 -0.004909 0.140853
v -0.094537 0.015091 0.081234
v -0.094537 -0.004909 0.081234
v -0.090505 -0.044691 0.141185
v -0.090505 -0.064691 0.141185
v -0.090505 -0.044691 0.041185
v -0.090505 -0.064691 0.041185
v -0.150505 -0.044691 0.141185
v -0.150505 -0.064691 0.141185
v -0.150505 -0.044691 0.041185
v -0.150505 -0.064691 0.041185
v 0.052059 -0.044691 0.140853
v 0.052059 -0.064691 0.140853
v 0.052059 -0.044691 0.081234
v 0.052059 -0.064691 0.081234
v -0.094537 -0.044691 0.140853
v -0.094537 -0.064691 0.140853
v -0.094537 -0.044691 0.081234
v -0.094537 -0.064691 0.081234
v -0.274789 0.148272 0.087334
v -0.274789 0.128272 0.087334
v -0.274789 0.148272 -0.049764
v -0.274789 0.128272 -0.049764
v -0.334789 0.148272 0.087334
v -0.334789 0.128272 0.087334
v -0.334789 0.148272 -0.049764
v -0.334789 0.128272 -0.049764
v -0.206101 0.148272 0.087002
v -0.206101 0.128272 0.087002
v -0.206101 0.148272 0.027384
v -0.206101 0.128272 0.027384
v -0.278821 0.148272 0.087002
v -0.278821 0.128272 0.087002
v -0.278821 0.148272 0.027384
v -0.278821 0.128272 0.027384
v -0.277797 0.128340 0.010150
v -0.277797 0.148340 0.010150
v -0.277797 0.128340 -0.049249
v -0.277797 0.148340 -0.049249
v -0.134275 0.128340 0.010150
v -0.134275 0.148340 0.010150
v -0.134275 0.128340 -0.049249
v -0.134275 0.148340 -0.049249
v 0.145328 -0.120000 0.040000
v 0.145328 0.120000 0.040000
v 0.145328 -0.120000 -0.040000
v 0.145328 0.120000 -0.040000
v 1.350219 -0.120000 0.040000
v 1.350219 0.120000 0.040000
v 1.350219 -0.120000 -0.040000
v 1.350219 0.120000 -0.040000
vt 0.375000 0.000000
vt 0.625000 0.000000
vt 0.625000 0.250000
vt 0.375000 0.250000
vt 0.625000 0.500000
vt 0.375000 0.500000
vt 0.625000 0.750000
vt 0.375000 0.750000
vt 0.625000 1.000000
vt 0.375000 1.000000
vt 0.125000 0.500000
vt 0.125000 0.750000
vt 0.875000 0.500000
vt 0.875000 0.750000
vt 0.375000 0.000000
vt 0.625000 0.000000
vt 0.625000 0.250000
vt 0.375000 0.250000
vt 0.625000 0.500000
vt 0.375000 0.500000
vt 0.625000 0.750000
vt 0.375000 0.750000
vt 0.625000 1.000000
vt 0.375000 1.000000
vt 0.125000 0.500000
vt 0.125000 0.750000
vt 0.875000 0.500000
vt 0.875000 0.750000
vt 0.625000 0.500000
vt 0.875000 0.500000
vt 0.875000 0.750000
vt 0.625000 0.750000
vt 0.375000 0.750000
vt 0.625000 1.000000
vt 0.375000 1.000000
vt 0.375000 0.000000
vt 0.625000 0.000000
vt 0.625000 0.250000
vt 0.375000 0.250000
vt 0.125000 0.500000
vt 0.375000 0.500000
vt 0.125000 0.750000
vt 0.375000 0.000000
vt 0.625000 0.000000
vt 0.625000 0.250000
vt 0.375000 0.250000
vt 0.625000 0.500000
vt 0.375000 0.500000
vt 0.625000 0.750000
vt 0.375000 0.750000
vt 0.625000 1.000000
vt 0.375000 1.000000
vt 0.125000 0.500000
vt 0.125000 0.750000
vt 0.875000 0.500000
vt 0.875000 0.750000
vt 0.375000 0.000000
vt 0.625000 0.000000
vt 0.625000 0.250000
vt 0.375000 0.250000
vt 0.625000 0.500000
vt 0.375000 0.500000
vt 0.625000 0.750000
vt 0.375000 0.750000
vt 0.625000 1.000000
vt 0.375000 1.000000
vt 0.125000 0.500000
vt 0.125000 0.750000
vt 0.875000 0.500000
vt 0.875000 0.750000
vt 0.375000 0.000000
vt 0.625000 0.000000
vt 0.625000 0.250000
vt 0.375000 0.250000
vt 0.625000 0.500000
vt 0.375000 0.500000
vt 0.625000 0.750000
vt 0.375000 0.750000
vt 0.625000 1.000000
vt 0.375000 1.000000
vt 0.125000 0.500000
vt 0.125000 0.750000
vt 0.875000 0.500000
vt 0.875000 0.750000
vt 0.375000 0.000000
vt 0.625000 0.000000
vt 0.625000 0.250000
vt 0.375000 0.250000
vt 0.625000 0.500000
vt 0.375000 0.500000
vt 0.625000 0.750000
vt 0.375000 0.750000
vt 0.625000 1.000000
vt 0.375000 1.000000
vt 0.125000 0.500000
vt 0.125000 0.750000
vt 0.875000 0.500000
vt 0.875000 0.750000
vt 0.375000 0.000000
vt 0.625000 0.000000
vt 0.625000 0.250000
vt 0.375000 0.250000
vt 0.625000 0.500000
vt 0.375000 0.500000
vt 0.625000 0.750000
vt 0.375000 0.750000
vt 0.625000 1.000000
vt 0.375000 1.000000
vt 0.125000 0.500000
vt 0.125000 0.750000
vt 0.875000 0.500000
vt 0.875000 0.750000
vt 0.375000 0.000000
vt 0.625000 0.000000
vt 0.625000 0.250000
vt 0.375000 0.250000
vt 0.625000 0.500000
vt 0.375000 0.500000
vt 0.625000 0.750000
vt 0.375000 0.750000
vt 0.625000 1.000000
vt 0.375000 1.000000
vt 0.125000 0.500000
vt 0.125000 0.750000
vt 0.875000 0.500000
vt 0.875000 0.750000
vt 0.375000 0.000000
vt 0.625000 0.000000
vt 0.625000 0.250000
vt 0.375000 0.250000
vt 0.625000 0.500000
vt 0.375000 0.500000
vt 0.625000 0.750000
vt 0.375000 0.750000
vt 0.625000 1.000000
vt 0.375000 1.000000
vt 0.125000 0.500000
vt 0.125000 0.750000
vt 0.875000 0.500000
vt 0.875000 0.750000
vt 0.375000 0.000000
vt 0.625000 0.000000
vt 0.625000 0.250000
vt 0.375000 0.250000
vt 0.625000 0.500000
vt 0.375000 0.500000
vt 0.625000 0.750000
vt 0.375000 0.750000
vt 0.625000 1.000000
vt 0.375000 1.000000
vt 0.125000 0.500000
vt 0.125000 0.750000
vt 0.875000 0.500000
vt 0.875000 0.750000
vt 0.375000 0.000000
vt 0.625000 0.000000
vt 0.625000 0.250000
vt 0.375000 0.250000
vt 0.625000 0.500000
vt 0.375000 0.500000
vt 0.625000 0.750000
vt 0.375000 0.750000
vt 0.625000 1.000000
vt 0.375000 1.000000
vt 0.125000 0.500000
vt 0.125000 0.750000
vt 0.875000 0.500000
vt 0.875000 0.750000
vt 0.375000 0.000000
vt 0.625000 0.000000
vt 0.625000 0.250000
vt 0.375000 0.250000
vt 0.625000 0.500000
vt 0.375000 0.500000
vt 0.625000 0.750000
vt 0.375000 0.750000
vt 0.625000 1.000000
vt 0.375000 1.000000
vt 0.125000 0.500000
vt 0.125000 0.750000
vt 0.875000 0.500000
vt 0.875000 0.750000
vn 1.0000 0.0000 -0.0000
vn -0.0000 0.0000 -1.0000
vn -1.0000 0.0000 0.0000
vn 0.0000 0.0000 1.0000
vn 0.0000 1.0000 -0.0000
vn 0.0000 -1.0000 0.0000
usemtl Material
s off
f 1/1/1 2/2/1 4/3/1 3/4/1
f 3/4/2 4/3/2 8/5/2 7/6/2
f 7/6/3 8/5/3 6/7/3 5/8/3
f 5/8/4 6/7/4 2/9/4 1/10/4
f 3/11/5 7/6/5 5/8/5 1/12/5
f 8/5/6 4/13/6 2/14/6 6/7/6
f 9/15/1 10/16/1 12/17/1 11/18/1
f 11/18/2 12/17/2 16/19/2 15/20/2
f 15/20/3 16/19/3 14/21/3 13/22/3
f 13/22/4 14/21/4 10/23/4 9/24/4
f 11/25/5 15/20/5 13/22/5 9/26/5
f 16/19/6 12/27/6 10/28/6 14/21/6
f 17/29/5 21/30/5 23/31/5 19/32/5
f 20/33/4 19/32/4 23/34/4 24/35/4
f 24/36/3 23/37/3 21/38/3 22/39/3
f 22/40/6 18/41/6 20/33/6 24/42/6
f 18/41/1 17/29/1 19/32/1 20/33/1
f 22/39/2 21/38/2 17/29/2 18/41/2
f 25/43/3 26/44/3 28/45/3 27/46/3
f 27/46/2 28/45/2 32/47/2 31/48/2
f 31/48/1 32/47/1 30/49/1 29/50/1
f 29/50/4 30/49/4 26/51/4 25/52/4
f 27/53/6 31/48/6 29/50/6 25/54/6
f 32/47/5 28/55/5 26/56/5 30/49/5
f 33/57/3 34/58/3 36/59/3 35/60/3
f 35/60/2 36/59/2 40/61/2 39/62/2
f 39/62/1 40/61/1 38/63/1 37/64/1
f 37/64/4 38/63/4 34/65/4 33/66/4
f 35/67/6 39/62/6 37/64/6 33/68/6
f 40/61/5 36/69/5 34/70/5 38/63/5
f 41/71/1 42/72/1 44/73/1 43/74/1
f 43/74/2 44/73/2 48/75/2 47/76/2
f 47/76/3 48/75/3 46/77/3 45/78/3
f 45/78/4 46/77/4 42/79/4 41/80/4
f 43/81/5 47/76/5 45/78/5 41/82/5
f 48/75/6 44/83/6 42/84/6 46/77/6
f 49/85/1 50/86/1 52/87/1 51/88/1
f 51/88/2 52/87/2 56/89/2 55/90/2
f 55/90/3 56/89/3 54/91/3 53/92/3
f 53/92/4 54/91/4 50/93/4 49/94/4
f 51/95/5 55/90/5 53/92/5 49/96/5
f 56/89/6 52/97/6 50/98/6 54/91/6
f 57/99/1 58/100/1 60/101/1 59/102/1
f 59/102/2 60/101/2 64/103/2 63/104/2
f 63/104/3 64/103/3 62/105/3 61/106/3
f 61/106/4 62/105/4 58/107/4 57/108/4
f 59/109/5 63/104/5 61/106/5 57/110/5
f 64/103/6 60/111/6 58/112/6 62/105/6
f 65/113/1 66/114/1 68/115/1 67/116/1
f 67/116/2 68/115/2 72/117/2 71/118/2
f 71/118/3 72/117/3 70/119/3 69/120/3
f 69/120/4 70/119/4 66/121/4 65/122/4
f 67/123/5 71/118/5 69/120/5 65/124/5
f 72/117/6 68/125/6 66/126/6 70/119/6
f 73/127/1 74/128/1 76/129/1 75/130/1
f 75/130/2 76/129/2 80/131/2 79/132/2
f 79/132/3 80/131/3 78/133/3 77/134/3
f 77/134/4 78/133/4 74/135/4 73/136/4
f 75/137/5 79/132/5 77/134/5 73/138/5
f 80/131/6 76/139/6 74/140/6 78/133/6
f 81/141/1 82/142/1 84/143/1 83/144/1
f 83/144/2 84/143/2 88/145/2 87/146/2
f 87/146/3 88/145/3 86/147/3 85/148/3
f 85/148/4 86/147/4 82/149/4 81/150/4
f 83/151/5 87/146/5 85/148/5 81/152/5
f 88/145/6 84/153/6 82/154/6 86/147/6
f 89/155/3 90/156/3 92/157/3 91/158/3
f 91/158/2 92/157/2 96/159/2 95/160/2
f 95/160/1 96/159/1 94/161/1 93/162/1
f 93/162/4 94/161/4 90/163/4 89/164/4
f 91/165/6 95/160/6 93/162/6 89/166/6
f 96/159/5 92/167/5 90/168/5 94/161/5
f 97/169/3 98/170/3 100/171/3 99/172/3
f 99/172/2 100/171/2 104/173/2 103/174/2
f 103/174/1 104/173/1 102/175/1 101/176/1
f 101/176/4 102/175/4 98/177/4 97/178/4
f 99/179/6 103/174/6 101/176/6 97/180/6
f 104/173/5 100/181/5 98/182/5 102/175/5
