# Blender 3.3.1
# www.blender.org
mtllib monstruo_3_caminar517.mtl
o monstruo_grande
v 0.466749 1.975515 0.266278
v 0.520143 1.154727 0.112315
v -0.665693 1.825898 0.161616
v -0.319415 1.141837 0.202559
v 0.648579 2.249483 -0.077483
v 0.562461 1.568602 -0.235277
v -0.763672 2.063031 -0.253691
v -0.686350 1.765511 -0.324439
v -0.229937 2.405871 0.473689
v 0.317072 2.262761 0.451395
v -0.367034 2.380297 0.567545
v -1.126196 2.144767 -0.112973
v -0.201123 2.582254 0.122956
v 0.331975 2.407086 0.191109
v -0.988795 1.996538 0.035245
v -0.356484 2.668158 0.147411
v -0.726510 2.318220 0.567393
v -1.423239 2.071952 0.147470
v -1.148941 2.090234 0.348742
v -0.877374 2.664420 0.323091
v -0.536776 2.722005 0.219792
v -0.445927 2.338217 0.536244
v -1.117608 2.025256 0.034995
v -1.785715 0.820192 0.816574
v -1.662396 0.796223 0.867450
v -1.647717 0.611366 0.674432
v -1.722987 0.625997 0.643379
v 0.470162 2.172775 0.443035
v 0.588393 2.360420 0.187564
v 0.432786 2.285281 0.451430
v 0.463327 2.419181 0.226007
v 0.718027 1.848993 0.269541
v 0.845360 1.949133 0.104381
v 0.735857 1.932506 0.322440
v 0.826850 2.045908 0.174127
v 0.904102 1.629206 0.213748
v 0.987476 1.667293 0.146504
v 0.979414 1.587699 0.275013
v 1.060544 1.636408 0.208354
v 0.917607 1.474119 0.227279
v 1.089111 1.572481 0.091969
v 1.007698 1.358639 0.359158
v 1.260885 1.505960 0.148275
v -0.063287 2.441098 0.501516
v 0.144964 2.403584 0.487853
v -0.050312 2.547252 0.256330
v 0.148413 2.506396 0.245662
v -0.011952 2.757717 0.637059
v 0.194382 2.692833 0.603470
v -0.021027 2.861909 0.379790
v 0.185510 2.796986 0.346671
v -0.507200 1.182181 -0.025500
v -0.375728 1.209701 -0.228147
v -0.038317 1.275102 -0.333935
v -0.715279 1.876609 -0.059062
v 0.547905 1.150361 -0.124214
v 0.332505 1.150699 -0.254226
v 0.028968 1.521191 -0.326620
v -0.032377 1.146954 0.199255
v 0.530221 2.057033 0.152086
v -0.213284 2.467642 0.350514
v -0.362442 2.635822 0.416453
v -0.915660 2.059416 -0.072486
v 0.306964 2.393290 0.351594
v -0.730477 2.548144 0.543232
v -1.315517 2.202937 0.395086
v -0.515645 2.633035 0.406587
v -1.736398 0.808836 0.872224
v -1.669031 0.498580 0.562760
v 0.563913 2.278545 0.346934
v 0.452483 2.396812 0.362043
v 0.742249 1.881682 0.143237
v 0.820029 2.001675 0.281341
v 0.944859 1.651923 0.180167
v 1.019857 1.611231 0.241328
v 0.985510 1.528243 0.142115
v 1.102476 1.443013 0.223003
v -0.058523 2.493296 0.378090
v 0.144692 2.456020 0.366080
v -0.047921 2.810946 0.510009
v 0.221194 2.743772 0.473463
v -1.522021 1.112620 0.801322
v -1.586815 0.938538 0.740687
v -1.736230 1.124195 0.716562
v -1.702887 0.961098 0.692801
v -1.650195 0.780111 0.649742
v -1.654085 1.102646 0.811131
v -0.022098 1.768156 0.507280
v 0.173294 2.132604 -0.200834
v 0.153498 2.514260 0.067040
v 0.069498 2.266062 0.617690
v 0.045172 2.526059 0.249866
v 0.045967 2.424854 0.494703
v 0.080990 2.845078 0.324588
v 0.092581 2.709658 0.658825
v 0.089552 2.828768 0.512358
v 0.180681 2.659903 0.271881
v 0.186965 2.541381 0.564850
v -0.050210 2.591943 0.592759
v -0.057379 2.711876 0.298202
v -0.071350 2.652198 0.446123
v 0.198753 2.600428 0.417108
v 0.060267 2.693984 0.264564
v 0.069480 2.558625 0.598500
v 0.485006 1.659811 -0.018223
v -0.574874 1.528302 0.193122
v 0.586455 1.778026 -0.228866
v 0.164810 1.157786 0.212296
v -0.247948 0.129972 -0.334928
v -0.402417 0.095814 -0.230627
v -0.406700 0.170284 -0.470317
v -0.270696 0.172840 -0.473132
v 0.307513 -0.002084 0.193419
v 0.235082 -0.020025 0.118298
v 0.317411 -0.008114 0.155497
v 0.286276 -0.015288 0.129542
v 0.248327 -0.003612 0.203316
v 0.076618 0.837335 -0.058250
v 0.130639 0.597583 0.046675
v 0.168869 0.301514 0.108626
v 0.199071 0.298933 0.287961
v 0.180168 0.552870 0.332914
v 0.186590 0.831516 0.338306
v 0.321703 0.296308 0.265619
v 0.387304 0.554109 0.296343
v 0.475434 0.882933 0.267480
v 0.332245 0.850544 -0.030268
v 0.309560 0.593881 0.080720
v 0.275346 0.299110 0.130809
v 0.341065 0.297961 0.185330
v 0.421063 0.593883 0.168820
v 0.500838 0.876984 0.078145
v -0.232234 0.852271 0.272710
v -0.223112 0.562521 0.133573
v -0.229973 0.342644 0.014992
v -0.511328 0.364266 -0.030109
v -0.503288 0.628985 0.061922
v -0.507059 0.882558 0.126458
v -0.505952 0.497486 -0.265797
v -0.497061 0.754130 -0.172048
v -0.494325 0.930569 -0.142272
v -0.102017 0.861245 -0.138725
v -0.153030 0.714779 -0.181583
v -0.210442 0.520988 -0.247112
vn -0.0026 0.5829 -0.8125
vn -0.0095 0.0867 -0.9962
vn 0.5016 -0.2383 -0.8316
vn -0.3164 -0.2499 0.9151
vn 0.9540 -0.1066 0.2802
vn 0.6629 0.7110 0.2346
vn 0.1581 0.8998 -0.4066
vn 0.5220 -0.2664 0.8103
vn -0.0291 0.8876 0.4597
vn -0.0694 0.5832 -0.8094
vn -0.2164 -0.4982 0.8396
vn -0.4706 -0.8229 -0.3184
vn -0.2430 -0.1826 0.9527
vn 0.2342 -0.9141 0.3310
vn 0.9293 -0.2907 0.2277
vn -0.0379 -0.8060 0.5907
vn 0.1916 0.9500 0.2464
vn -0.0327 -0.7146 0.6988
vn -0.6745 0.3271 0.6619
vn 0.9385 -0.0365 -0.3435
vn -0.8566 0.0526 -0.5133
vn 0.6126 0.7195 0.3271
vn 0.4838 0.1797 0.8565
vn -0.2589 -0.5163 0.8163
vn -0.0928 0.6154 0.7827
vn -0.5478 -0.5345 0.6436
vn -0.3051 -0.5460 -0.7803
vn 0.8259 0.5451 -0.1441
vn -0.2542 -0.6007 0.7580
vn 0.4816 0.8126 -0.3281
vn 0.4245 0.1498 0.8930
vn 0.7794 0.3677 -0.5072
vn -0.2690 -0.3216 -0.9079
vn -0.0420 -0.7129 -0.7001
vn -0.5075 0.0344 -0.8610
vn -0.7150 0.0982 0.6922
vn 0.6462 0.2969 0.7031
vn 0.9807 -0.0040 -0.1954
vn 0.4166 0.4927 0.7640
vn 0.2002 0.9787 0.0449
vn -0.2359 0.8898 0.3907
vn 0.4509 0.8590 0.2424
vn 0.0421 0.9770 0.2091
vn -0.9645 0.1021 0.2436
vn 0.3122 -0.3237 0.8932
vn -0.2724 0.4513 -0.8498
vn -0.7030 -0.4833 -0.5217
vn -0.9330 -0.3207 0.1632
vn 0.1506 0.1125 -0.9822
vn -0.9748 0.2158 -0.0574
vn 0.0535 0.8483 0.5269
vn 0.4964 0.6806 0.5388
vn -0.1926 0.8881 0.4173
vn 0.9880 -0.1280 0.0866
vn 0.4149 0.1578 0.8961
vn -0.7104 -0.0765 -0.6996
vn -0.1462 -0.7867 -0.5998
vn -0.6769 -0.5655 -0.4711
vn 0.7773 0.4179 0.4703
vn -0.4730 -0.7165 -0.5127
vn -0.0742 0.9909 0.1119
vn 0.7395 0.5708 0.3568
vn 0.6017 0.3131 0.7348
vn -0.3924 0.2222 -0.8925
vn 0.0717 0.1784 0.9813
vn -0.6858 -0.5876 0.4293
vn -0.2365 0.4192 0.8766
vn -0.6563 0.6755 0.3360
vn -0.4623 -0.7896 -0.4035
vn 0.2471 0.3044 0.9199
vn 0.5985 0.5006 0.6255
vn 0.2723 0.2902 0.9174
vn -0.3878 0.6775 -0.6250
vn -0.8418 0.4268 0.3306
vn 0.9409 -0.3174 0.1186
vn 0.5065 0.7143 0.4829
vn 0.2582 0.3905 -0.8837
vn -0.2129 -0.2690 0.9393
vn 0.4939 0.8611 0.1209
vn 0.3917 0.9187 0.0516
vn -0.0998 0.4966 0.8622
vn -0.4760 -0.1092 0.8726
vn 0.2227 0.7539 -0.6181
vn -0.1155 -0.5514 0.8262
vn 0.0426 0.1200 -0.9919
vn 0.9541 -0.2890 -0.0788
vn -0.9951 -0.0292 -0.0942
vn -0.1522 0.1693 -0.9737
vn 0.0543 -0.5624 0.8251
vn -0.9984 -0.0250 0.0501
vn 0.9593 -0.2389 -0.1506
vn 0.0590 -0.9774 -0.2031
vn 0.1115 -0.7390 0.6644
vn -0.9653 -0.1989 0.1691
vn -0.9595 -0.2574 -0.1146
vn 0.9951 -0.0833 -0.0540
vn -0.0014 0.5375 -0.8433
vn 0.0111 -0.9547 -0.2972
vn 0.0573 -0.9816 0.1819
vn 0.1681 -0.2398 0.9562
vn 0.2072 0.0122 -0.9782
vn 0.9648 -0.1014 0.2426
vn 0.6379 0.0255 -0.7697
vn 0.4666 -0.5521 -0.6910
vn 0.5548 -0.3815 -0.7394
vn 0.6129 -0.2046 -0.7632
vn 0.9885 -0.0841 0.1254
vn 0.9601 -0.2333 0.1544
vn 0.9480 -0.2542 0.1917
vn 0.0442 -0.5554 -0.8304
vn 0.1386 -0.3876 -0.9113
vn 0.1863 -0.1818 -0.9655
vn 0.2049 0.4100 0.8888
vn 0.2111 0.0049 0.9774
vn 0.1730 -0.1595 0.9719
vn -0.9492 -0.0044 0.3146
vn -0.9735 -0.0464 0.2240
vn -0.9826 -0.0972 0.1584
vn -0.1322 -0.3425 -0.9302
vn 0.0239 0.2156 -0.9762
vn 0.0217 0.3305 -0.9436
vn 0.8908 0.1861 0.4145
vn 0.9572 -0.1849 0.2228
vn 0.9830 -0.1758 0.0519
vn -0.9567 0.0809 -0.2797
vn -0.9993 0.0055 -0.0358
vn -0.9994 0.0345 -0.0057
vn -0.5968 0.2041 0.7760
vn -0.3943 -0.3308 0.8574
vn -0.2451 -0.3801 0.8919
vn 0.5188 -0.2172 0.8269
vn 0.4139 0.3230 -0.8511
vn -0.2053 -0.4304 -0.8790
vn -0.2616 -0.7616 -0.5929
vn -0.8102 -0.0810 -0.5806
vt 0.461701 0.809397
vt 0.301930 0.729761
vt 0.094158 0.499911
vt 0.498737 0.648456
vt 0.250869 0.553264
vt 0.714874 0.752530
vt 0.627854 0.740386
vt 0.227533 0.339544
vt 0.300362 0.438253
vt 0.625828 0.633709
vt 0.338991 0.679376
vt 0.653754 0.621457
vt 0.189641 0.785401
vt 0.531284 0.815038
vt 0.232114 0.729761
vt 0.806952 0.326283
vt 0.527824 0.712310
vt 0.703640 0.331352
vt 0.725736 0.123548
vt 0.557184 0.740386
vt 0.714874 0.681901
vt 0.693091 0.138725
vt 0.558638 0.706064
vt 0.944491 0.391302
vt 0.108931 0.369345
vt 0.090202 0.443431
vt 0.952837 0.467016
vt 0.108059 0.346292
vt 0.960024 0.371234
vt 0.653754 0.712739
vt 0.761990 0.055860
vt 0.265996 0.788213
vt 0.829683 0.188590
vt 0.886815 0.394232
vt 0.909606 0.471204
vt 0.826550 0.267021
vt 0.659457 0.749480
vt 0.206417 0.267620
vt 0.238389 0.812575
vt 0.882743 0.373659
vt 0.837846 0.166681
vt 0.102618 0.289588
vt 0.957957 0.321520
vt 0.918648 0.216117
vt 0.803322 0.012950
vt 0.106348 0.638847
vt 0.232551 0.755661
vt 0.798789 0.485160
vt 0.965752 0.239402
vt 0.153968 0.222285
vt 0.894228 0.312474
vt 0.856067 0.102710
vt 0.881967 0.351902
vt 0.842627 0.144082
vt 0.107159 0.331692
vt 0.958812 0.358201
vt 0.199778 0.246429
vt 0.138792 0.619338
vt 0.232114 0.797406
vt 0.967580 0.012950
vt 0.753483 0.682459
vt 0.843831 0.469074
vt 0.256421 0.022764
vt 0.824689 0.472884
vt 0.987050 0.016155
vt 0.832147 0.505580
vt 0.295109 0.018166
vt 0.782932 0.707368
vt 0.843831 0.503254
vt 0.076417 0.467161
vt 0.958695 0.494573
vt 0.833773 0.298242
vt 0.909847 0.503107
vt 0.076958 0.454690
vt 0.951531 0.482650
vt 0.837149 0.281767
vt 0.912926 0.487172
vt 0.064432 0.532285
vt 0.298790 0.687460
vt 0.825577 0.362572
vt 0.264894 0.686125
vt 0.056614 0.518895
vt 0.959622 0.549977
vt 0.837123 0.350740
vt 0.929664 0.555276
vt 0.051257 0.577890
vt 0.291936 0.641182
vt 0.824256 0.407314
vt 0.275162 0.640522
vt 0.035793 0.577862
vt 0.964581 0.612577
vt 0.838997 0.411720
vt 0.948088 0.615681
vt 0.039898 0.592711
vt 0.301778 0.620707
vt 0.403076 0.772170
vt 0.830596 0.428615
vt 0.403076 0.737417
vt 0.267017 0.619338
vt 0.012950 0.593438
vt 0.987050 0.637067
vt 0.428919 0.781443
vt 0.856067 0.440612
vt 0.428919 0.728949
vt 0.935424 0.646785
vt 0.945356 0.412724
vt 0.357115 0.854737
vt 0.331665 0.779032
vt 0.948027 0.441601
vt 0.799629 0.752473
vt 0.327972 0.853161
vt 0.906904 0.416128
vt 0.370069 0.779032
vt 0.684668 0.778429
vt 0.909575 0.445005
vt 0.655249 0.778999
vt 0.799629 0.791035
vt 0.330193 0.729131
vt 0.557184 0.775635
vt 0.363063 0.804932
vt 0.331684 0.807874
vt 0.754247 0.751428
vt 0.586563 0.768755
vt 0.566112 0.815056
vt 0.689281 0.828405
vt 0.370405 0.729131
vt 0.754247 0.791805
vt 0.657717 0.824383
vt 0.595492 0.808176
vt 0.327830 0.637821
vt 0.590400 0.642651
vt 0.164818 0.789976
vt 0.357235 0.619338
vt 0.642851 0.190721
vt 0.562581 0.649581
vt 0.406824 0.626953
vt 0.080449 0.619338
vt 0.646201 0.239681
vt 0.727583 0.656002
vt 0.597847 0.731399
vt 0.712829 0.722239
vt 0.658284 0.323708
vt 0.527919 0.666449
vt 0.661748 0.291537
vt 0.680225 0.245582
vt 0.377645 0.696957
vt 0.285191 0.477898
vt 0.483372 0.812325
vt 0.280072 0.728266
vt 0.924330 0.393087
vt 0.921760 0.373660
vt 0.678504 0.727397
vt 0.268491 0.812575
vt 0.930826 0.465310
vt 0.923786 0.327561
vt 0.941993 0.227167
vt 0.764056 0.466512
vt 0.919524 0.351927
vt 0.977463 0.013354
vt 0.833186 0.466512
vt 0.317617 0.012950
vt 0.798789 0.722800
vt 0.839639 0.522681
vt 0.934403 0.500152
vt 0.932138 0.484309
vt 0.281656 0.689101
vt 0.944784 0.554368
vt 0.283549 0.640852
vt 0.956335 0.614129
vt 0.284323 0.620942
vt 0.399765 0.754789
vt 0.961112 0.640376
vt 0.422297 0.755187
vt 0.926130 0.414426
vt 0.350867 0.779032
vt 0.928801 0.443303
vt 0.799629 0.771754
vt 0.350773 0.728949
vt 0.557184 0.796361
vt 0.753483 0.771844
vt 0.595492 0.787450
vt 0.985581 0.067358
vt 0.238180 0.070710
vt 0.259592 0.052321
vt 0.138792 0.821791
vt 0.953366 0.057503
vt 0.765454 0.639660
vt 0.120235 0.821584
vt 0.772730 0.660154
vt 0.283154 0.037949
vt 0.784440 0.682652
vt 0.128680 0.843910
vt 0.970110 0.058056
vt 0.758353 0.637393
vt 0.180368 0.432154
vt 0.759258 0.257498
vt 0.884976 0.446549
vt 0.828099 0.241547
vt 0.971226 0.428512
vt 0.101516 0.405509
vt 0.908240 0.430567
vt 0.669958 0.778714
vt 0.946692 0.427163
vt 0.342544 0.853949
vt 0.673120 0.826722
vt 0.582140 0.817526
vt 0.570535 0.766286
vt 0.348248 0.806122
vt 0.576699 0.792002
vt 0.653753 0.802281
vt 0.776512 0.794925
vt 0.776512 0.748700
vt 0.327830 0.829868
vt 0.363063 0.830170
vt 0.327830 0.753980
vt 0.373865 0.753980
vt 0.689281 0.803194
vt 0.351093 0.753886
vt 0.776117 0.771930
vt 0.671321 0.802907
vt 0.345899 0.829874
vt 0.457498 0.727404
vt 0.165986 0.548054
vt 0.260364 0.376248
vt 0.625887 0.695531
vt 0.520555 0.743605
vt 0.734596 0.339638
vt 0.406824 0.703049
vt 0.012950 0.651015
vt 0.277407 0.507014
vt 0.206214 0.619338
vt 0.706517 0.466512
vt 0.399765 0.822801
vt 0.181517 0.620770
vt 0.619265 0.470337
vt 0.422433 0.807343
vt 0.582936 0.466512
vt 0.458892 0.202188
vt 0.422433 0.843958
vt 0.727583 0.468029
vt 0.460639 0.221880
vt 0.402692 0.843997
vt 0.717439 0.778459
vt 0.429089 0.593438
vt 0.518160 0.466685
vt 0.070962 0.817001
vt 0.726094 0.791097
vt 0.457498 0.298878
vt 0.715181 0.783741
vt 0.523936 0.466512
vt 0.458951 0.311476
vt 0.719061 0.788282
vt 0.458165 0.306435
vt 0.058766 0.817583
vt 0.726094 0.778429
vt 0.431598 0.585369
vt 0.599953 0.261833
vt 0.080449 0.668491
vt 0.542336 0.274386
vt 0.076079 0.728305
vt 0.500395 0.287212
vt 0.064936 0.773359
vt 0.389801 0.564275
vt 0.039540 0.774208
vt 0.356388 0.547019
vt 0.031995 0.737396
vt 0.319737 0.531779
vt 0.030523 0.696843
vt 0.505723 0.512116
vt 0.384015 0.580847
vt 0.506522 0.550736
vt 0.346302 0.574833
vt 0.507607 0.604105
vt 0.294291 0.566034
vt 0.610540 0.298468
vt 0.545535 0.300686
vt 0.502363 0.302883
vt 0.504402 0.313331
vt 0.517745 0.511765
vt 0.548610 0.318269
vt 0.527842 0.556627
vt 0.609940 0.323717
vt 0.531284 0.618364
vt 0.660591 0.582499
vt 0.204501 0.743892
vt 0.668589 0.550878
vt 0.206214 0.710848
vt 0.668004 0.517120
vt 0.204545 0.678125
vt 0.623877 0.525891
vt 0.164692 0.675333
vt 0.610236 0.563455
vt 0.167167 0.712219
vt 0.605277 0.597358
vt 0.166352 0.745757
vt 0.511839 0.183186
vt 0.584607 0.521652
vt 0.552303 0.182624
vt 0.569857 0.561129
vt 0.598009 0.178631
vt 0.565182 0.606784
vt 0.592158 0.236754
vt 0.721184 0.600612
vt 0.550092 0.232946
vt 0.722606 0.558204
vt 0.518921 0.225772
vt 0.713819 0.525134
s 0
usemtl Material
f 89/196/1 7/19/1 13/33/1 90/198/1
f 8/22/2 7/19/2 89/196/2 58/145/2 54/138/2 53/134/2
f 6/18/3 56/142/3 57/144/3
f 3/8/4 106/224/4 4/9/4 59/147/4 88/195/4
f 6/17/5 107/226/5 5/14/5 60/148/5 1/1/5 105/222/5 2/4/5 56/143/5
f 61/150/6 13/34/6 16/40/6 62/151/6
f 5/16/7 14/36/7 31/76/7 29/72/7
f 88/195/8 1/3/8 10/26/8 91/200/8
f 67/158/9 21/53/9 20/51/9 65/155/9
f 13/33/10 7/19/10 12/31/10 16/41/10
f 3/8/11 9/25/11 11/28/11 15/38/11
f 55/141/12 3/6/12 15/37/12 63/152/12
f 66/156/13 19/49/13 17/43/13 65/155/13
f 23/57/14 22/55/14 17/42/14 19/50/14
f 83/184/15 82/183/15 25/63/15 26/67/15
f 15/38/16 11/28/16 22/55/16 23/57/16
f 62/151/17 16/40/17 21/53/17 67/158/17
f 69/163/18 26/66/18 25/64/18 68/160/18
f 87/193/19 84/186/19 24/60/19 68/159/19
f 86/190/20 83/184/20 26/67/20 69/161/20
f 84/187/21 85/189/21 27/68/21 24/61/21
f 70/164/22 29/73/22 31/77/22 71/165/22
f 70/164/23 28/71/23 34/83/23 73/167/23
f 10/26/24 1/3/24 28/70/24 30/74/24
f 64/154/25 10/27/25 30/75/25 71/165/25
f 34/82/26 32/78/26 36/86/26 38/90/26
f 60/149/27 5/15/27 33/81/27 72/166/27
f 5/16/28 29/72/28 35/84/28 33/80/28
f 28/70/29 1/3/29 32/78/29 34/82/29
f 37/88/30 39/92/30 43/103/30 41/97/30
f 73/167/31 34/83/31 38/91/31 75/169/31
f 33/80/32 35/84/32 39/92/32 37/88/32
f 72/166/33 33/81/33 37/89/33 74/168/33
f 76/171/34 41/98/34 43/104/34 77/173/34
f 74/168/35 37/89/35 41/99/35 76/170/35
f 38/90/36 36/86/36 40/94/36 42/100/36
f 75/169/37 38/91/37 42/101/37 77/172/37
f 102/219/38 97/211/38 51/127/38 81/180/38
f 91/199/39 10/27/39 45/109/39 93/203/39
f 90/197/40 13/34/40 46/112/40 92/201/40
f 61/150/41 9/24/41 44/106/41 78/174/41
f 64/154/42 14/35/42 47/115/42 79/176/42
f 96/209/43 94/206/43 50/124/43 80/179/43
f 101/218/44 99/215/44 48/118/44 80/178/44
f 104/221/45 98/213/45 49/121/45 95/208/45
f 103/220/46 100/217/46 50/125/46 94/205/46
f 8/23/47 53/135/47 52/131/47
f 8/23/48 52/131/48 4/10/48 106/225/48 3/7/48 55/140/48 7/20/48
f 54/138/49 58/145/49 89/196/49 5/16/49 107/227/49 6/18/49 57/144/49
f 100/216/50 101/218/50 80/178/50 50/126/50
f 95/207/51 96/209/51 80/179/51 48/119/51
f 10/27/52 64/154/52 79/176/52 45/109/52
f 13/34/53 61/150/53 78/174/53 46/112/53
f 98/212/54 102/219/54 81/180/54 49/122/54
f 39/93/55 75/169/55 77/172/55 43/105/55
f 36/87/56 74/168/56 76/170/56 40/95/56
f 40/96/57 76/171/57 77/173/57 42/102/57
f 32/79/58 72/166/58 74/168/58 36/87/58
f 35/85/59 73/167/59 75/169/59 39/93/59
f 1/2/60 60/149/60 72/166/60 32/79/60
f 14/35/61 64/154/61 71/165/61 31/77/61
f 29/73/62 70/164/62 73/167/62 35/85/62
f 28/71/63 70/164/63 71/165/63 30/75/63
f 85/189/64 86/191/64 69/162/64 27/68/64
f 82/182/65 87/193/65 68/159/65 25/65/65
f 27/69/66 69/163/66 68/160/66 24/62/66
f 11/29/67 62/151/67 67/158/67 22/56/67
f 18/44/68 66/156/68 65/155/68 20/51/68
f 7/21/69 55/141/69 63/152/69 12/30/69
f 22/56/70 67/158/70 65/155/70 17/43/70
f 9/24/71 61/150/71 62/151/71 11/29/71
f 19/49/72 66/156/72 87/193/72 82/182/72
f 12/31/73 18/45/73 20/52/73 21/54/73 16/41/73
f 66/157/74 18/48/74 84/187/74 87/194/74
f 23/57/75 19/50/75 82/183/75 83/184/75
f 49/123/76 81/181/76 96/209/76 95/207/76
f 97/210/77 103/220/77 94/205/77 51/128/77
f 99/214/78 104/221/78 95/208/78 48/120/78
f 81/181/79 51/129/79 94/206/79 96/209/79
f 14/35/80 90/197/80 92/201/80 47/115/80
f 9/24/81 91/199/81 93/203/81 44/106/81
f 3/8/82 88/195/82 91/200/82 9/25/82
f 5/16/83 89/196/83 90/198/83 14/36/83
f 44/107/84 93/204/84 104/221/84 99/214/84
f 47/116/85 92/202/85 103/220/85 97/210/85
f 45/110/86 79/177/86 102/219/86 98/212/86
f 46/113/87 78/175/87 101/218/87 100/216/87
f 92/202/88 46/114/88 100/217/88 103/220/88
f 93/204/89 45/111/89 98/213/89 104/221/89
f 78/175/90 44/108/90 99/215/90 101/218/90
f 79/177/91 47/117/91 97/211/91 102/219/91
f 59/146/92 4/11/92 52/130/92 53/133/92 54/136/92 108/228/92
f 136/291/93 110/234/93 109/231/93 135/289/93
f 121/264/94 120/262/94 114/246/94 117/254/94
f 139/297/95 111/237/95 110/235/95 136/290/95
f 135/288/96 109/232/96 112/240/96 144/307/96
f 144/306/97 112/241/97 111/238/97 139/296/97
f 111/239/98 112/242/98 109/233/98 110/236/98
f 117/255/99 114/247/99 116/252/99 115/249/99 113/243/99
f 124/270/100 121/263/100 117/256/100 113/244/100
f 120/261/101 129/277/101 116/253/101 114/248/101
f 130/279/102 124/269/102 113/245/102 115/250/102
f 129/277/103 130/278/103 115/251/103 116/253/103
f 57/144/104 56/142/104 132/282/104 127/275/104
f 127/275/105 132/282/105 131/280/105 128/276/105
f 128/276/106 131/280/106 130/278/106 129/277/106
f 56/143/107 2/4/107 126/273/107 132/283/107
f 132/283/108 126/273/108 125/271/108 131/281/108
f 131/281/109 125/271/109 124/269/109 130/279/109
f 54/138/110 57/144/110 127/275/110 118/257/110
f 118/257/111 127/275/111 128/276/111 119/259/111
f 119/259/112 128/276/112 129/277/112 120/261/112
f 2/5/113 108/230/113 123/267/113 126/274/113
f 126/274/114 123/267/114 122/265/114 125/272/114
f 125/272/115 122/265/115 121/263/115 124/270/115
f 108/229/116 54/137/116 118/258/116 123/268/116
f 123/268/117 118/258/117 119/260/117 122/266/117
f 122/266/118 119/260/118 120/262/118 121/264/118
f 54/138/119 142/302/119 141/300/119 53/134/119
f 142/302/120 143/304/120 140/298/120 141/300/120
f 143/304/121 144/306/121 139/296/121 140/298/121
f 4/12/122 133/284/122 142/303/122 54/139/122
f 133/284/123 134/286/123 143/305/123 142/303/123
f 134/286/124 135/288/124 144/307/124 143/305/124
f 53/135/125 141/301/125 138/294/125 52/131/125
f 141/301/126 140/299/126 137/292/126 138/294/126
f 140/299/127 139/297/127 136/290/127 137/292/127
f 52/132/128 138/295/128 133/285/128 4/13/128
f 138/295/129 137/293/129 134/287/129 133/285/129
f 137/293/130 136/291/130 135/289/130 134/287/130
f 105/223/131 1/3/131 88/195/131 59/147/131 108/230/131 2/5/131
f 86/192/132 85/188/132 83/185/132
f 83/185/133 85/188/133 18/46/133 23/58/133
f 63/153/134 15/39/134 23/59/134 18/47/134 12/32/134
f 84/187/135 18/48/135 85/189/135
l 52 106
