# Blender 3.3.1
# www.blender.org
mtllib monstruo_3_caminar651.mtl
o monstruo_grande
v 0.474891 1.975972 0.318348
v 0.517379 1.137419 0.108792
v -0.648001 1.801883 0.175865
v -0.315484 1.151191 0.209703
v 0.733430 2.255332 0.029998
v 0.599659 1.561220 -0.242379
v -0.748766 2.012635 -0.250676
v -0.674232 1.737121 -0.319685
v -0.248664 2.385882 0.483820
v 0.301608 2.263953 0.493570
v -0.384545 2.355904 0.576104
v -1.103366 2.041240 -0.104669
v -0.221274 2.563389 0.131973
v 0.338177 2.404647 0.231407
v -0.954119 1.914651 0.056096
v -0.384084 2.639470 0.150338
v -0.731576 2.271327 0.575970
v -1.396608 1.945580 0.156462
v -1.125141 1.990108 0.361381
v -0.908226 2.591815 0.313333
v -0.572821 2.678828 0.213982
v -0.455714 2.313748 0.547499
v -1.083570 1.922629 0.052195
v -1.682568 0.681744 0.826074
v -1.557790 0.664382 0.876066
v -1.527723 0.495339 0.670728
v -1.603884 0.505937 0.640214
v 0.431966 2.172003 0.493510
v 0.605124 2.362165 0.278528
v 0.409930 2.287390 0.502140
v 0.467470 2.418289 0.284328
v 0.704608 1.864143 0.393922
v 0.890238 1.935178 0.283023
v 0.715396 1.938995 0.443528
v 0.845654 2.048820 0.329519
v 0.877792 1.641580 0.484682
v 0.981984 1.667882 0.446480
v 0.919823 1.632334 0.581324
v 1.022290 1.666502 0.540229
v 0.881660 1.502357 0.555856
v 1.095334 1.572028 0.474284
v 0.906104 1.448692 0.743917
v 1.226969 1.551526 0.614498
v -0.084877 2.432182 0.514845
v 0.124348 2.400710 0.508617
v -0.068335 2.540025 0.271223
v 0.136972 2.504515 0.267194
v -0.028873 2.734905 0.676952
v 0.176546 2.666765 0.644218
v -0.027328 2.859568 0.428321
v 0.177291 2.791787 0.394609
v -0.509673 1.187138 -0.011451
v -0.384362 1.203159 -0.218814
v -0.041560 1.277234 -0.333251
v -0.699570 1.846965 -0.049296
v 0.544081 1.141521 -0.129786
v 0.328805 1.154563 -0.259220
v 0.032172 1.525301 -0.320989
v -0.032368 1.145976 0.197414
v 0.568435 2.056428 0.224114
v -0.232330 2.448280 0.360784
v -0.392447 2.608217 0.422176
v -0.892252 1.993801 -0.059245
v 0.299319 2.392707 0.390532
v -0.757398 2.499422 0.540865
v -1.301757 2.091218 0.400129
v -0.545051 2.596918 0.408325
v -1.632583 0.670562 0.881160
v -1.539557 0.389309 0.551299
v 0.542873 2.278755 0.426842
v 0.441326 2.398202 0.416460
v 0.777431 1.872837 0.290251
v 0.808904 2.004736 0.431048
v 0.929219 1.657447 0.464367
v 0.971076 1.648760 0.560652
v 0.979963 1.534357 0.491782
v 1.050715 1.496028 0.636741
v -0.077689 2.485461 0.391434
v 0.128220 2.454269 0.387064
v -0.059360 2.799210 0.553648
v 0.208405 2.727570 0.519036
v -1.443632 0.995016 0.833235
v -1.493877 0.820922 0.760113
v -1.658045 0.995729 0.748087
v -1.611323 0.837264 0.713058
v -1.543942 0.664637 0.657862
v -1.574455 0.973659 0.841342
v -0.020430 1.756925 0.513442
v 0.202953 2.135551 -0.184117
v 0.145691 2.511882 0.087751
v 0.041503 2.265103 0.636183
v 0.029475 2.522146 0.267174
v 0.024427 2.414899 0.510155
v 0.075022 2.844099 0.373623
v 0.073562 2.682140 0.697775
v 0.078410 2.812655 0.561426
v 0.170259 2.660723 0.307069
v 0.165385 2.521924 0.592412
v -0.070799 2.575008 0.617541
v -0.068313 2.715176 0.330006
v -0.086266 2.646619 0.474689
v 0.182812 2.591316 0.449289
v 0.050149 2.697325 0.298341
v 0.048023 2.537642 0.624526
v 0.550398 1.648571 -0.014060
v -0.567722 1.524181 0.198993
v 0.652815 1.773406 -0.219110
v 0.161389 1.148962 0.209558
v -0.289625 0.235884 -0.466262
v -0.431475 0.163593 -0.363311
v -0.462475 0.318779 -0.559154
v -0.327736 0.325182 -0.576933
v 0.254720 -0.002392 0.106016
v 0.183808 -0.016276 0.028392
v 0.265490 -0.007666 0.068244
v 0.234876 -0.013314 0.041263
v 0.195230 -0.002635 0.114207
v 0.063010 0.847071 -0.073295
v 0.105118 0.616027 0.007171
v 0.127389 0.314271 0.036211
v 0.155753 0.291839 0.214516
v 0.149195 0.540450 0.285307
v 0.169535 0.816382 0.319397
v 0.278302 0.285288 0.192527
v 0.356632 0.535308 0.250512
v 0.460783 0.860071 0.253511
v 0.318330 0.848751 -0.044894
v 0.283286 0.600144 0.041219
v 0.233402 0.304269 0.058533
v 0.298470 0.294188 0.112915
v 0.393835 0.585985 0.129225
v 0.487108 0.863014 0.064833
v -0.231316 0.861575 0.290669
v -0.230264 0.570715 0.110762
v -0.244220 0.367527 -0.050694
v -0.527286 0.394861 -0.072379
v -0.513347 0.645639 0.067415
v -0.510834 0.893337 0.156205
v -0.536483 0.571881 -0.279722
v -0.519792 0.802936 -0.137820
v -0.507422 0.932498 -0.107684
v -0.116682 0.859348 -0.116163
v -0.177438 0.765336 -0.171056
v -0.240285 0.592862 -0.276181
vn -0.0178 0.5827 -0.8125
vn -0.0117 0.0953 -0.9954
vn 0.4810 -0.2860 -0.8288
vn -0.3110 -0.2644 0.9129
vn 0.9282 -0.2114 0.3062
vn 0.6108 0.7533 0.2439
vn 0.2087 0.9079 -0.3635
vn 0.4550 -0.2556 0.8530
vn -0.1233 0.8977 0.4231
vn -0.1343 0.5883 -0.7974
vn -0.1512 -0.5306 0.8340
vn -0.3674 -0.8701 -0.3286
vn -0.2442 -0.1607 0.9563
vn 0.3205 -0.8736 0.3662
vn 0.9496 -0.2293 0.2138
vn 0.0368 -0.7937 0.6072
vn 0.1130 0.9666 0.2299
vn 0.0247 -0.7622 0.6469
vn -0.6989 0.2233 0.6794
vn 0.9389 0.0642 -0.3382
vn -0.8571 0.0186 -0.5148
vn 0.5272 0.7297 0.4355
vn 0.2320 0.1649 0.9586
vn -0.3722 -0.5281 0.7633
vn -0.1770 0.6222 0.7626
vn -0.8048 -0.3759 0.4593
vn -0.0630 -0.5664 -0.8217
vn 0.8292 0.5544 0.0716
vn -0.4391 -0.6040 0.6651
vn 0.5929 0.7158 -0.3688
vn -0.0000 0.3742 0.9273
vn 0.9411 0.2774 -0.1934
vn 0.1070 -0.5330 -0.8393
vn 0.2399 -0.9030 -0.3565
vn -0.1073 -0.3180 -0.9420
vn -0.9373 0.2227 0.2681
vn 0.2974 0.5906 0.7502
vn 0.9851 -0.0195 -0.1711
vn 0.3348 0.5290 0.7798
vn 0.1500 0.9884 0.0233
vn -0.3028 0.8735 0.3811
vn 0.4029 0.8763 0.2641
vn 0.0640 0.9561 0.2861
vn -0.9677 0.1135 0.2250
vn 0.2795 -0.4106 0.8679
vn -0.2360 0.5365 -0.8103
vn -0.7304 -0.4870 -0.4790
vn -0.9322 -0.3140 0.1799
vn 0.1603 0.1700 -0.9723
vn -0.9653 0.2547 -0.0571
vn 0.0603 0.8013 0.5953
vn 0.4195 0.7033 0.5739
vn -0.2651 0.8732 0.4090
vn 0.9806 -0.1704 0.0975
vn 0.0044 0.4932 0.8699
vn -0.3531 -0.3927 -0.8492
vn 0.1043 -0.9506 -0.2924
vn -0.4450 -0.6815 -0.5809
vn 0.5259 0.5431 0.6546
vn -0.3084 -0.7430 -0.5940
vn -0.0954 0.9916 0.0877
vn 0.6126 0.5789 0.5382
vn 0.4883 0.2632 0.8320
vn -0.4078 0.2516 -0.8777
vn 0.0552 0.1143 0.9919
vn -0.6362 -0.6702 0.3821
vn -0.2657 0.4253 0.8652
vn -0.7219 0.6206 0.3063
vn -0.3645 -0.8597 -0.3578
vn 0.1991 0.3561 0.9130
vn 0.5623 0.5378 0.6282
vn 0.2258 0.3325 0.9157
vn -0.4380 0.6176 -0.6532
vn -0.8670 0.3832 0.3186
vn 0.9570 -0.2544 0.1390
vn 0.5114 0.6578 0.5530
vn 0.2951 0.4576 -0.8387
vn -0.2521 -0.3391 0.9063
vn 0.5125 0.8353 0.1993
vn 0.3608 0.9310 0.0558
vn -0.1362 0.5126 0.8477
vn -0.4855 -0.1355 0.8636
vn 0.2758 0.7634 -0.5841
vn -0.1544 -0.6120 0.7756
vn 0.0842 0.1957 -0.9770
vn 0.9476 -0.3120 -0.0687
vn -0.9953 0.0151 -0.0956
vn -0.1167 0.2535 -0.9603
vn 0.0321 -0.6353 0.7716
vn -0.9995 -0.0007 0.0307
vn 0.9615 -0.2444 -0.1255
vn 0.0426 -0.9805 -0.1919
vn 0.1799 -0.8697 0.4596
vn -0.9746 -0.1739 0.1410
vn -0.9687 -0.2301 -0.0930
vn 0.9868 -0.0554 -0.1522
vn -0.0692 0.7432 -0.6655
vn -0.0455 -0.7859 -0.6166
vn 0.0259 -0.9874 0.1558
vn 0.1460 -0.2987 0.9431
vn 0.2207 0.0574 -0.9736
vn 0.9576 -0.1470 0.2478
vn 0.6484 0.0430 -0.7601
vn 0.4435 -0.5477 -0.7094
vn 0.5411 -0.3509 -0.7642
vn 0.6097 -0.1520 -0.7779
vn 0.9845 -0.1278 0.1201
vn 0.9447 -0.2954 0.1425
vn 0.9313 -0.3219 0.1705
vn 0.0338 -0.5383 -0.8421
vn 0.1245 -0.3239 -0.9379
vn 0.1865 -0.0845 -0.9788
vn 0.2156 0.3615 0.9071
vn 0.2045 -0.1025 0.9735
vn 0.1542 -0.2678 0.9511
vn -0.9487 0.0130 0.3160
vn -0.9762 -0.0222 0.2156
vn -0.9877 -0.0626 0.1433
vn -0.1517 -0.3894 -0.9085
vn 0.0005 0.3553 -0.9347
vn -0.0259 0.5256 -0.8503
vn 0.9027 0.1768 0.3923
vn 0.9550 -0.2476 0.1631
vn 0.9838 -0.1759 -0.0355
vn -0.9635 0.0871 -0.2530
vn -0.9992 0.0330 0.0203
vn -0.9978 0.0280 0.0605
vn -0.5563 0.2575 0.7901
vn -0.3449 -0.4183 0.8403
vn -0.1911 -0.5346 0.8232
vn 0.4872 -0.2567 0.8347
vn 0.3876 0.4145 -0.8234
vn -0.1580 -0.4563 -0.8757
vn -0.1513 -0.8001 -0.5805
vn -0.8227 -0.1197 -0.5557
vt 0.461701 0.809397
vt 0.301930 0.729761
vt 0.094158 0.499911
vt 0.498737 0.648456
vt 0.250869 0.553264
vt 0.714874 0.752530
vt 0.627854 0.740386
vt 0.227533 0.339544
vt 0.300362 0.438253
vt 0.625828 0.633709
vt 0.338991 0.679376
vt 0.653754 0.621457
vt 0.189641 0.785401
vt 0.531284 0.815038
vt 0.232114 0.729761
vt 0.806952 0.326283
vt 0.527824 0.712310
vt 0.703640 0.331352
vt 0.725736 0.123548
vt 0.557184 0.740386
vt 0.714874 0.681901
vt 0.693091 0.138725
vt 0.558638 0.706064
vt 0.944491 0.391302
vt 0.108931 0.369345
vt 0.090202 0.443431
vt 0.952837 0.467016
vt 0.108059 0.346292
vt 0.960024 0.371234
vt 0.653754 0.712739
vt 0.761990 0.055860
vt 0.265996 0.788213
vt 0.829683 0.188590
vt 0.886815 0.394232
vt 0.909606 0.471204
vt 0.826550 0.267021
vt 0.659457 0.749480
vt 0.206417 0.267620
vt 0.238389 0.812575
vt 0.882743 0.373659
vt 0.837846 0.166681
vt 0.102618 0.289588
vt 0.957957 0.321520
vt 0.918648 0.216117
vt 0.803322 0.012950
vt 0.106348 0.638847
vt 0.232551 0.755661
vt 0.798789 0.485160
vt 0.965752 0.239402
vt 0.153968 0.222285
vt 0.894228 0.312474
vt 0.856067 0.102710
vt 0.881967 0.351902
vt 0.842627 0.144082
vt 0.107159 0.331692
vt 0.958812 0.358201
vt 0.199778 0.246429
vt 0.138792 0.619338
vt 0.232114 0.797406
vt 0.967580 0.012950
vt 0.753483 0.682459
vt 0.843831 0.469074
vt 0.256421 0.022764
vt 0.824689 0.472884
vt 0.987050 0.016155
vt 0.832147 0.505580
vt 0.295109 0.018166
vt 0.782932 0.707368
vt 0.843831 0.503254
vt 0.076417 0.467161
vt 0.958695 0.494573
vt 0.833773 0.298242
vt 0.909847 0.503107
vt 0.076958 0.454690
vt 0.951531 0.482650
vt 0.837149 0.281767
vt 0.912926 0.487172
vt 0.064432 0.532285
vt 0.298790 0.687460
vt 0.825577 0.362572
vt 0.264894 0.686125
vt 0.056614 0.518895
vt 0.959622 0.549977
vt 0.837123 0.350740
vt 0.929664 0.555276
vt 0.051257 0.577890
vt 0.291936 0.641182
vt 0.824256 0.407314
vt 0.275162 0.640522
vt 0.035793 0.577862
vt 0.964581 0.612577
vt 0.838997 0.411720
vt 0.948088 0.615681
vt 0.039898 0.592711
vt 0.301778 0.620707
vt 0.403076 0.772170
vt 0.830596 0.428615
vt 0.403076 0.737417
vt 0.267017 0.619338
vt 0.012950 0.593438
vt 0.987050 0.637067
vt 0.428919 0.781443
vt 0.856067 0.440612
vt 0.428919 0.728949
vt 0.935424 0.646785
vt 0.945356 0.412724
vt 0.357115 0.854737
vt 0.331665 0.779032
vt 0.948027 0.441601
vt 0.799629 0.752473
vt 0.327972 0.853161
vt 0.906904 0.416128
vt 0.370069 0.779032
vt 0.684668 0.778429
vt 0.909575 0.445005
vt 0.655249 0.778999
vt 0.799629 0.791035
vt 0.330193 0.729131
vt 0.557184 0.775635
vt 0.363063 0.804932
vt 0.331684 0.807874
vt 0.754247 0.751428
vt 0.586563 0.768755
vt 0.566112 0.815056
vt 0.689281 0.828405
vt 0.370405 0.729131
vt 0.754247 0.791805
vt 0.657717 0.824383
vt 0.595492 0.808176
vt 0.327830 0.637821
vt 0.590400 0.642651
vt 0.164818 0.789976
vt 0.357235 0.619338
vt 0.642851 0.190721
vt 0.562581 0.649581
vt 0.406824 0.626953
vt 0.080449 0.619338
vt 0.646201 0.239681
vt 0.727583 0.656002
vt 0.597847 0.731399
vt 0.712829 0.722239
vt 0.658284 0.323708
vt 0.527919 0.666449
vt 0.661748 0.291537
vt 0.680225 0.245582
vt 0.377645 0.696957
vt 0.285191 0.477898
vt 0.483372 0.812325
vt 0.280072 0.728266
vt 0.924330 0.393087
vt 0.921760 0.373660
vt 0.678504 0.727397
vt 0.268491 0.812575
vt 0.930826 0.465310
vt 0.923786 0.327561
vt 0.941993 0.227167
vt 0.764056 0.466512
vt 0.919524 0.351927
vt 0.977463 0.013354
vt 0.833186 0.466512
vt 0.317617 0.012950
vt 0.798789 0.722800
vt 0.839639 0.522681
vt 0.934403 0.500152
vt 0.932138 0.484309
vt 0.281656 0.689101
vt 0.944784 0.554368
vt 0.283549 0.640852
vt 0.956335 0.614129
vt 0.284323 0.620942
vt 0.399765 0.754789
vt 0.961112 0.640376
vt 0.422297 0.755187
vt 0.926130 0.414426
vt 0.350867 0.779032
vt 0.928801 0.443303
vt 0.799629 0.771754
vt 0.350773 0.728949
vt 0.557184 0.796361
vt 0.753483 0.771844
vt 0.595492 0.787450
vt 0.985581 0.067358
vt 0.238180 0.070710
vt 0.259592 0.052321
vt 0.138792 0.821791
vt 0.953366 0.057503
vt 0.765454 0.639660
vt 0.120235 0.821584
vt 0.772730 0.660154
vt 0.283154 0.037949
vt 0.784440 0.682652
vt 0.128680 0.843910
vt 0.970110 0.058056
vt 0.758353 0.637393
vt 0.180368 0.432154
vt 0.759258 0.257498
vt 0.884976 0.446549
vt 0.828099 0.241547
vt 0.971226 0.428512
vt 0.101516 0.405509
vt 0.908240 0.430567
vt 0.669958 0.778714
vt 0.946692 0.427163
vt 0.342544 0.853949
vt 0.673120 0.826722
vt 0.582140 0.817526
vt 0.570535 0.766286
vt 0.348248 0.806122
vt 0.576699 0.792002
vt 0.653753 0.802281
vt 0.776512 0.794925
vt 0.776512 0.748700
vt 0.327830 0.829868
vt 0.363063 0.830170
vt 0.327830 0.753980
vt 0.373865 0.753980
vt 0.689281 0.803194
vt 0.351093 0.753886
vt 0.776117 0.771930
vt 0.671321 0.802907
vt 0.345899 0.829874
vt 0.457498 0.727404
vt 0.165986 0.548054
vt 0.260364 0.376248
vt 0.625887 0.695531
vt 0.520555 0.743605
vt 0.734596 0.339638
vt 0.406824 0.703049
vt 0.012950 0.651015
vt 0.277407 0.507014
vt 0.206214 0.619338
vt 0.706517 0.466512
vt 0.399765 0.822801
vt 0.181517 0.620770
vt 0.619265 0.470337
vt 0.422433 0.807343
vt 0.582936 0.466512
vt 0.458892 0.202188
vt 0.422433 0.843958
vt 0.727583 0.468029
vt 0.460639 0.221880
vt 0.402692 0.843997
vt 0.717439 0.778459
vt 0.429089 0.593438
vt 0.518160 0.466685
vt 0.070962 0.817001
vt 0.726094 0.791097
vt 0.457498 0.298878
vt 0.715181 0.783741
vt 0.523936 0.466512
vt 0.458951 0.311476
vt 0.719061 0.788282
vt 0.458165 0.306435
vt 0.058766 0.817583
vt 0.726094 0.778429
vt 0.431598 0.585369
vt 0.599953 0.261833
vt 0.080449 0.668491
vt 0.542336 0.274386
vt 0.076079 0.728305
vt 0.500395 0.287212
vt 0.064936 0.773359
vt 0.389801 0.564275
vt 0.039540 0.774208
vt 0.356388 0.547019
vt 0.031995 0.737396
vt 0.319737 0.531779
vt 0.030523 0.696843
vt 0.505723 0.512116
vt 0.384015 0.580847
vt 0.506522 0.550736
vt 0.346302 0.574833
vt 0.507607 0.604105
vt 0.294291 0.566034
vt 0.610540 0.298468
vt 0.545535 0.300686
vt 0.502363 0.302883
vt 0.504402 0.313331
vt 0.517745 0.511765
vt 0.548610 0.318269
vt 0.527842 0.556627
vt 0.609940 0.323717
vt 0.531284 0.618364
vt 0.660591 0.582499
vt 0.204501 0.743892
vt 0.668589 0.550878
vt 0.206214 0.710848
vt 0.668004 0.517120
vt 0.204545 0.678125
vt 0.623877 0.525891
vt 0.164692 0.675333
vt 0.610236 0.563455
vt 0.167167 0.712219
vt 0.605277 0.597358
vt 0.166352 0.745757
vt 0.511839 0.183186
vt 0.584607 0.521652
vt 0.552303 0.182624
vt 0.569857 0.561129
vt 0.598009 0.178631
vt 0.565182 0.606784
vt 0.592158 0.236754
vt 0.721184 0.600612
vt 0.550092 0.232946
vt 0.722606 0.558204
vt 0.518921 0.225772
vt 0.713819 0.525134
s 0
usemtl Material
f 89/196/1 7/19/1 13/33/1 90/198/1
f 8/22/2 7/19/2 89/196/2 58/145/2 54/138/2 53/134/2
f 6/18/3 56/142/3 57/144/3
f 3/8/4 106/224/4 4/9/4 59/147/4 88/195/4
f 6/17/5 107/226/5 5/14/5 60/148/5 1/1/5 105/222/5 2/4/5 56/143/5
f 61/150/6 13/34/6 16/40/6 62/151/6
f 5/16/7 14/36/7 31/76/7 29/72/7
f 88/195/8 1/3/8 10/26/8 91/200/8
f 67/158/9 21/53/9 20/51/9 65/155/9
f 13/33/10 7/19/10 12/31/10 16/41/10
f 3/8/11 9/25/11 11/28/11 15/38/11
f 55/141/12 3/6/12 15/37/12 63/152/12
f 66/156/13 19/49/13 17/43/13 65/155/13
f 23/57/14 22/55/14 17/42/14 19/50/14
f 83/184/15 82/183/15 25/63/15 26/67/15
f 15/38/16 11/28/16 22/55/16 23/57/16
f 62/151/17 16/40/17 21/53/17 67/158/17
f 69/163/18 26/66/18 25/64/18 68/160/18
f 87/193/19 84/186/19 24/60/19 68/159/19
f 86/190/20 83/184/20 26/67/20 69/161/20
f 84/187/21 85/189/21 27/68/21 24/61/21
f 70/164/22 29/73/22 31/77/22 71/165/22
f 70/164/23 28/71/23 34/83/23 73/167/23
f 10/26/24 1/3/24 28/70/24 30/74/24
f 64/154/25 10/27/25 30/75/25 71/165/25
f 34/82/26 32/78/26 36/86/26 38/90/26
f 60/149/27 5/15/27 33/81/27 72/166/27
f 5/16/28 29/72/28 35/84/28 33/80/28
f 28/70/29 1/3/29 32/78/29 34/82/29
f 37/88/30 39/92/30 43/103/30 41/97/30
f 73/167/31 34/83/31 38/91/31 75/169/31
f 33/80/32 35/84/32 39/92/32 37/88/32
f 72/166/33 33/81/33 37/89/33 74/168/33
f 76/171/34 41/98/34 43/104/34 77/173/34
f 74/168/35 37/89/35 41/99/35 76/170/35
f 38/90/36 36/86/36 40/94/36 42/100/36
f 75/169/37 38/91/37 42/101/37 77/172/37
f 102/219/38 97/211/38 51/127/38 81/180/38
f 91/199/39 10/27/39 45/109/39 93/203/39
f 90/197/40 13/34/40 46/112/40 92/201/40
f 61/150/41 9/24/41 44/106/41 78/174/41
f 64/154/42 14/35/42 47/115/42 79/176/42
f 96/209/43 94/206/43 50/124/43 80/179/43
f 101/218/44 99/215/44 48/118/44 80/178/44
f 104/221/45 98/213/45 49/121/45 95/208/45
f 103/220/46 100/217/46 50/125/46 94/205/46
f 8/23/47 53/135/47 52/131/47
f 8/23/48 52/131/48 4/10/48 106/225/48 3/7/48 55/140/48 7/20/48
f 54/138/49 58/145/49 89/196/49 5/16/49 107/227/49 6/18/49 57/144/49
f 100/216/50 101/218/50 80/178/50 50/126/50
f 95/207/51 96/209/51 80/179/51 48/119/51
f 10/27/52 64/154/52 79/176/52 45/109/52
f 13/34/53 61/150/53 78/174/53 46/112/53
f 98/212/54 102/219/54 81/180/54 49/122/54
f 39/93/55 75/169/55 77/172/55 43/105/55
f 36/87/56 74/168/56 76/170/56 40/95/56
f 40/96/57 76/171/57 77/173/57 42/102/57
f 32/79/58 72/166/58 74/168/58 36/87/58
f 35/85/59 73/167/59 75/169/59 39/93/59
f 1/2/60 60/149/60 72/166/60 32/79/60
f 14/35/61 64/154/61 71/165/61 31/77/61
f 29/73/62 70/164/62 73/167/62 35/85/62
f 28/71/63 70/164/63 71/165/63 30/75/63
f 85/189/64 86/191/64 69/162/64 27/68/64
f 82/182/65 87/193/65 68/159/65 25/65/65
f 27/69/66 69/163/66 68/160/66 24/62/66
f 11/29/67 62/151/67 67/158/67 22/56/67
f 18/44/68 66/156/68 65/155/68 20/51/68
f 7/21/69 55/141/69 63/152/69 12/30/69
f 22/56/70 67/158/70 65/155/70 17/43/70
f 9/24/71 61/150/71 62/151/71 11/29/71
f 19/49/72 66/156/72 87/193/72 82/182/72
f 12/31/73 18/45/73 20/52/73 21/54/73 16/41/73
f 66/157/74 18/48/74 84/187/74 87/194/74
f 23/57/75 19/50/75 82/183/75 83/184/75
f 49/123/76 81/181/76 96/209/76 95/207/76
f 97/210/77 103/220/77 94/205/77 51/128/77
f 99/214/78 104/221/78 95/208/78 48/120/78
f 81/181/79 51/129/79 94/206/79 96/209/79
f 14/35/80 90/197/80 92/201/80 47/115/80
f 9/24/81 91/199/81 93/203/81 44/106/81
f 3/8/82 88/195/82 91/200/82 9/25/82
f 5/16/83 89/196/83 90/198/83 14/36/83
f 44/107/84 93/204/84 104/221/84 99/214/84
f 47/116/85 92/202/85 103/220/85 97/210/85
f 45/110/86 79/177/86 102/219/86 98/212/86
f 46/113/87 78/175/87 101/218/87 100/216/87
f 92/202/88 46/114/88 100/217/88 103/220/88
f 93/204/89 45/111/89 98/213/89 104/221/89
f 78/175/90 44/108/90 99/215/90 101/218/90
f 79/177/91 47/117/91 97/211/91 102/219/91
f 59/146/92 4/11/92 52/130/92 53/133/92 54/136/92 108/228/92
f 136/291/93 110/234/93 109/231/93 135/289/93
f 121/264/94 120/262/94 114/246/94 117/254/94
f 139/297/95 111/237/95 110/235/95 136/290/95
f 135/288/96 109/232/96 112/240/96 144/307/96
f 144/306/97 112/241/97 111/238/97 139/296/97
f 111/239/98 112/242/98 109/233/98 110/236/98
f 117/255/99 114/247/99 116/252/99 115/249/99 113/243/99
f 124/270/100 121/263/100 117/256/100 113/244/100
f 120/261/101 129/277/101 116/253/101 114/248/101
f 130/279/102 124/269/102 113/245/102 115/250/102
f 129/277/103 130/278/103 115/251/103 116/253/103
f 57/144/104 56/142/104 132/282/104 127/275/104
f 127/275/105 132/282/105 131/280/105 128/276/105
f 128/276/106 131/280/106 130/278/106 129/277/106
f 56/143/107 2/4/107 126/273/107 132/283/107
f 132/283/108 126/273/108 125/271/108 131/281/108
f 131/281/109 125/271/109 124/269/109 130/279/109
f 54/138/110 57/144/110 127/275/110 118/257/110
f 118/257/111 127/275/111 128/276/111 119/259/111
f 119/259/112 128/276/112 129/277/112 120/261/112
f 2/5/113 108/230/113 123/267/113 126/274/113
f 126/274/114 123/267/114 122/265/114 125/272/114
f 125/272/115 122/265/115 121/263/115 124/270/115
f 108/229/116 54/137/116 118/258/116 123/268/116
f 123/268/117 118/258/117 119/260/117 122/266/117
f 122/266/118 119/260/118 120/262/118 121/264/118
f 54/138/119 142/302/119 141/300/119 53/134/119
f 142/302/120 143/304/120 140/298/120 141/300/120
f 143/304/121 144/306/121 139/296/121 140/298/121
f 4/12/122 133/284/122 142/303/122 54/139/122
f 133/284/123 134/286/123 143/305/123 142/303/123
f 134/286/124 135/288/124 144/307/124 143/305/124
f 53/135/125 141/301/125 138/294/125 52/131/125
f 141/301/126 140/299/126 137/292/126 138/294/126
f 140/299/127 139/297/127 136/290/127 137/292/127
f 52/132/128 138/295/128 133/285/128 4/13/128
f 138/295/129 137/293/129 134/287/129 133/285/129
f 137/293/130 136/291/130 135/289/130 134/287/130
f 105/223/131 1/3/131 88/195/131 59/147/131 108/230/131 2/5/131
f 86/192/132 85/188/132 83/185/132
f 83/185/133 85/188/133 18/46/133 23/58/133
f 63/153/134 15/39/134 23/59/134 18/47/134 12/32/134
f 84/187/135 18/48/135 85/189/135
l 52 106
