# Blender 3.3.1
# www.blender.org
mtllib monstruo_3_grande_caminar590.mtl
o monstruo_grande
v 0.317683 2.049132 0.160079
v 0.523527 1.180986 0.073563
v -0.723445 1.760504 0.106022
v -0.296920 1.168867 0.219849
v 0.560710 2.318703 -0.143537
v 0.539255 1.646078 -0.253371
v -0.822799 1.942727 -0.345458
v -0.728019 1.642787 -0.375059
v -0.368234 2.424610 0.354019
v 0.191799 2.328610 0.365779
v -0.509063 2.399931 0.447183
v -1.192856 1.996683 -0.224109
v -0.335641 2.559065 -0.014611
v 0.204288 2.457635 0.100313
v -1.055920 1.878804 -0.038118
v -0.498443 2.629720 -0.011908
v -0.866465 2.317694 0.441866
v -1.506202 1.943937 0.017417
v -1.251104 2.010082 0.242666
v -1.023441 2.601280 0.128750
v -0.685075 2.672270 0.036831
v -0.585482 2.353619 0.423078
v -1.187655 1.898600 -0.053685
v -1.862924 0.748861 0.779683
v -1.741585 0.734522 0.838347
v -1.706432 0.540599 0.657235
v -1.780494 0.549352 0.621428
v 0.323167 2.236194 0.351420
v 0.477416 2.420883 0.119216
v 0.301287 2.357011 0.364814
v 0.335120 2.480274 0.139060
v 0.536137 1.912698 0.181606
v 0.712257 1.967342 0.049406
v 0.568957 1.978332 0.237446
v 0.690216 2.082448 0.110283
v 0.667814 1.656474 0.205237
v 0.771073 1.668980 0.160911
v 0.714555 1.614253 0.290025
v 0.818383 1.637700 0.244593
v 0.646400 1.505514 0.239728
v 0.862996 1.551379 0.149390
v 0.673765 1.400687 0.404369
v 0.997622 1.469421 0.260596
v -0.206904 2.478606 0.388357
v 0.003897 2.455300 0.387437
v -0.190455 2.562349 0.134946
v 0.010538 2.539244 0.138495
v -0.151048 2.794412 0.529770
v 0.054719 2.725854 0.500253
v -0.153159 2.900066 0.272377
v 0.051032 2.832156 0.241712
v -0.502607 1.144844 0.013235
v -0.389966 1.134666 -0.201255
v -0.039693 1.254875 -0.338192
v -0.766352 1.782855 -0.124650
v 0.544816 1.243531 -0.154225
v 0.326678 1.263265 -0.279221
v 0.009296 1.507767 -0.347260
v -0.020953 1.141773 0.196375
v 0.402290 2.127909 0.055030
v -0.350353 2.472245 0.224942
v -0.518014 2.631994 0.261930
v -0.979568 1.935537 -0.157853
v 0.172927 2.451235 0.258500
v -0.888090 2.538304 0.372994
v -1.429300 2.113630 0.255424
v -0.669855 2.613961 0.244765
v -1.816295 0.743269 0.838441
v -1.715509 0.420940 0.551193
v 0.432688 2.333861 0.271774
v 0.318238 2.465150 0.272131
v 0.592170 1.925207 0.066473
v 0.665655 2.034812 0.213086
v 0.719585 1.666629 0.182541
v 0.766286 1.625232 0.267060
v 0.743706 1.533449 0.172317
v 0.815897 1.445419 0.292846
v -0.200642 2.518851 0.260286
v 0.005202 2.498985 0.262113
v -0.183245 2.849041 0.402305
v 0.084496 2.777608 0.370509
v -1.614405 1.054152 0.761881
v -1.666510 0.873735 0.707894
v -1.823951 1.049455 0.664917
v -1.780719 0.887232 0.652676
v -1.716315 0.707369 0.622873
v -1.746112 1.037445 0.765184
v -0.098744 1.813905 0.457989
v 0.100631 2.144162 -0.266171
v 0.024451 2.528531 -0.040405
v -0.059221 2.321275 0.527989
v -0.093327 2.549097 0.134909
v -0.096182 2.463601 0.387427
v -0.051760 2.881475 0.217758
v -0.047930 2.744270 0.553496
v -0.045548 2.864261 0.407737
v 0.043434 2.695711 0.164444
v 0.043362 2.578567 0.459553
v -0.192575 2.630038 0.482559
v -0.194578 2.747092 0.183948
v -0.210315 2.690201 0.334582
v 0.058700 2.637208 0.311421
v -0.076450 2.728810 0.153311
v -0.072983 2.594575 0.491429
v 0.395007 1.735133 -0.005375
v -0.604894 1.490221 0.156659
v 0.540750 1.872072 -0.254404
v 0.172900 1.122095 0.187798
v -0.194022 0.026044 0.051546
v -0.338053 0.033577 0.174344
v -0.364668 0.029871 -0.075758
v -0.229548 0.024661 -0.090817
v 0.390056 0.211091 -0.459759
v 0.320541 0.245998 -0.531491
v 0.401337 0.229252 -0.493133
v 0.371177 0.240809 -0.518640
v 0.330646 0.206148 -0.454149
v 0.099049 0.906447 -0.162692
v 0.176526 0.756645 -0.193679
v 0.242622 0.499585 -0.340657
v 0.278790 0.387593 -0.201951
v 0.239821 0.554166 -0.008051
v 0.222638 0.766896 0.171294
v 0.400382 0.410297 -0.217590
v 0.444644 0.596373 -0.026369
v 0.503892 0.866717 0.135162
v 0.352279 0.935272 -0.145342
v 0.356216 0.748806 -0.165814
v 0.349466 0.493030 -0.321961
v 0.416833 0.463661 -0.278463
v 0.470261 0.705111 -0.094233
v 0.522499 0.932709 -0.039077
v -0.173675 0.921152 0.353782
v -0.145543 0.618434 0.315812
v -0.139254 0.372573 0.295205
v -0.424290 0.359533 0.285475
v -0.437173 0.636548 0.264005
v -0.461855 0.893159 0.234049
v -0.459371 0.390159 0.018223
v -0.469810 0.663993 -0.002284
v -0.477337 0.870486 -0.041137
v -0.080775 0.831144 -0.065708
v -0.126632 0.644702 -0.045272
v -0.168145 0.435728 -0.015728
vn -0.0297 0.4952 -0.8683
vn 0.0030 -0.0194 -0.9998
vn 0.4727 -0.2046 -0.8572
vn -0.3084 -0.2111 0.9276
vn 0.8995 0.0138 0.4366
vn 0.5773 0.7987 0.1701
vn 0.1493 0.9050 -0.3982
vn 0.6047 -0.2034 0.7700
vn -0.1315 0.9456 0.2974
vn -0.0942 0.4705 -0.8774
vn -0.1783 -0.4160 0.8917
vn -0.3688 -0.8985 -0.2380
vn -0.3064 -0.0242 0.9516
vn 0.2836 -0.8150 0.5054
vn 0.9289 -0.2262 0.2932
vn -0.0569 -0.6660 0.7437
vn 0.0825 0.9898 0.1159
vn -0.0347 -0.6765 0.7356
vn -0.7270 0.3247 0.6050
vn 0.9569 -0.0031 -0.2903
vn -0.8276 -0.0231 -0.5609
vn 0.5700 0.7269 0.3829
vn 0.4080 0.0685 0.9104
vn -0.2937 -0.5401 0.7887
vn -0.1447 0.6473 0.7484
vn -0.8083 -0.2990 0.5071
vn -0.2592 -0.4708 -0.8433
vn 0.8864 0.4624 -0.0219
vn -0.3851 -0.6148 0.6882
vn 0.7006 0.6603 -0.2704
vn 0.2141 0.1998 0.9562
vn 0.9540 0.1551 -0.2567
vn -0.1000 -0.4048 -0.9089
vn 0.0033 -0.8049 -0.5934
vn -0.2489 -0.0312 -0.9680
vn -0.8385 0.3224 0.4392
vn 0.4827 0.3035 0.8215
vn 0.9824 -0.0275 -0.1848
vn 0.3364 0.6015 0.7246
vn 0.0905 0.9926 -0.0805
vn -0.3509 0.8957 0.2732
vn 0.3505 0.9156 0.1972
vn 0.0574 0.9755 0.2124
vn -0.9659 0.1243 0.2269
vn 0.2926 -0.3445 0.8920
vn -0.2479 0.4757 -0.8439
vn -0.7203 -0.5989 -0.3499
vn -0.8985 -0.3843 0.2124
vn 0.1477 0.0774 -0.9860
vn -0.9675 0.2445 -0.0640
vn 0.0578 0.8441 0.5331
vn 0.4076 0.7571 0.5105
vn -0.3369 0.8937 0.2962
vn 0.9824 -0.1601 0.0959
vn 0.1862 0.2369 0.9535
vn -0.5009 -0.0784 -0.8619
vn -0.1348 -0.8420 -0.5224
vn -0.6481 -0.4854 -0.5868
vn 0.7277 0.3277 0.6025
vn -0.4911 -0.6479 -0.5823
vn -0.1403 0.9888 0.0498
vn 0.7515 0.4772 0.4555
vn 0.5873 0.2761 0.7608
vn -0.3526 0.1517 -0.9234
vn 0.0069 0.2349 0.9720
vn -0.6773 -0.6006 0.4249
vn -0.2935 0.5312 0.7948
vn -0.7333 0.6564 0.1775
vn -0.3592 -0.8716 -0.3336
vn 0.1482 0.4777 0.8659
vn 0.5194 0.6310 0.5762
vn 0.1596 0.4029 0.9012
vn -0.3887 0.5238 -0.7579
vn -0.8862 0.4109 0.2138
vn 0.9398 -0.2469 0.2361
vn 0.5102 0.7019 0.4971
vn 0.2842 0.3962 -0.8731
vn -0.2412 -0.2729 0.9313
vn 0.5055 0.8531 0.1291
vn 0.2899 0.9564 -0.0347
vn -0.1792 0.5536 0.8133
vn -0.4924 -0.0696 0.8676
vn 0.1566 0.7282 -0.6672
vn -0.1497 -0.5546 0.8185
vn 0.0876 0.1175 -0.9892
vn 0.9489 -0.3102 -0.0583
vn -0.9954 -0.0055 -0.0955
vn -0.1121 0.1845 -0.9764
vn 0.0550 -0.5777 0.8144
vn -0.9992 -0.0061 0.0393
vn 0.9602 -0.2493 -0.1262
vn 0.0616 -0.9934 -0.0967
vn 0.2335 -0.4452 0.8645
vn -0.9576 -0.2882 0.0025
vn -0.9545 -0.2813 0.0992
vn 0.9846 -0.0871 -0.1518
vn -0.1310 0.2069 -0.9696
vn -0.0364 -0.9992 0.0187
vn 0.0319 -0.8873 -0.4600
vn 0.1891 -0.7703 0.6090
vn 0.1983 0.6204 -0.7588
vn 0.9707 -0.1993 0.1343
vn 0.6295 0.5063 -0.5894
vn 0.4715 -0.3182 -0.8225
vn 0.5387 0.0902 -0.8376
vn 0.6004 0.4010 -0.6919
vn 0.9955 -0.0427 0.0851
vn 0.9742 -0.2249 0.0156
vn 0.9712 -0.2377 0.0180
vn 0.1356 -0.3847 -0.9130
vn 0.0940 0.1728 -0.9805
vn 0.1626 0.5159 -0.8411
vn 0.2129 0.0752 0.9742
vn 0.2545 -0.5723 0.7796
vn 0.2121 -0.7222 0.6584
vn -0.9341 -0.1806 0.3080
vn -0.9390 -0.3192 0.1276
vn -0.9629 -0.2676 0.0358
vn -0.1286 -0.5106 -0.8501
vn -0.1010 -0.1388 -0.9852
vn -0.1160 -0.0950 -0.9887
vn 0.8974 0.3036 0.3202
vn 0.9886 -0.0410 0.1450
vn 0.9967 -0.0777 -0.0251
vn -0.9802 -0.0524 -0.1910
vn -0.9945 -0.0561 0.0879
vn -0.9919 -0.0327 0.1223
vn -0.5401 0.3622 0.7596
vn -0.2828 -0.0404 0.9583
vn -0.1061 -0.0023 0.9943
vn 0.5221 -0.0650 0.8504
vn 0.4438 0.2989 -0.8448
vn -0.1028 -0.5284 -0.8428
vn -0.1607 -0.8601 -0.4842
vn -0.7789 -0.1619 -0.6059
vt 0.882279 0.260085
vt 0.436089 0.649131
vt 0.117664 0.305524
vt 0.860974 0.338762
vt 0.079561 0.383885
vt 0.278417 0.728674
vt 0.111517 0.716819
vt 0.301243 0.337859
vt 0.232943 0.387386
vt 0.111517 0.662267
vt 0.671871 0.687525
vt 0.175114 0.511099
vt 0.930991 0.712692
vt 0.796001 0.259488
vt 0.522181 0.649131
vt 0.719621 0.316178
vt 0.801110 0.310020
vt 0.698705 0.366293
vt 0.510656 0.337024
vt 0.023033 0.717149
vt 0.367094 0.730187
vt 0.507246 0.358198
vt 0.018976 0.695717
vt 0.103380 0.570561
vt 0.268725 0.266033
vt 0.143950 0.273348
vt 0.098384 0.631539
vt 0.301351 0.259488
vt 0.128079 0.559933
vt 0.480438 0.333338
vt 0.348619 0.714075
vt 0.604958 0.268707
vt 0.031105 0.562973
vt 0.043818 0.625810
vt 0.721993 0.282954
vt 0.329365 0.336360
vt 0.302724 0.713315
vt 0.030374 0.549675
vt 0.582817 0.260846
vt 0.875347 0.642471
vt 0.380514 0.272320
vt 0.124895 0.517524
vt 0.813390 0.578569
vt 0.436089 0.332372
vt 0.956124 0.588845
vt 0.367094 0.692599
vt 0.367094 0.522797
vt 0.871643 0.594841
vt 0.398138 0.324445
vt 0.043891 0.509019
vt 0.796001 0.641153
vt 0.491075 0.268473
vt 0.032114 0.534706
vt 0.552485 0.259488
vt 0.331566 0.259909
vt 0.129819 0.544964
vt 0.339759 0.337186
vt 0.913298 0.588845
vt 0.317584 0.707220
vt 0.845734 0.463378
vt 0.311567 0.646434
vt 0.944558 0.353645
vt 0.398138 0.462439
vt 0.920230 0.354337
vt 0.870057 0.463781
vt 0.929709 0.374247
vt 0.357807 0.478584
vt 0.347994 0.663056
vt 0.944558 0.373825
vt 0.097076 0.285727
vt 0.229765 0.651022
vt 0.758050 0.297859
vt 0.168317 0.651042
vt 0.119329 0.272208
vt 0.094178 0.643292
vt 0.222768 0.636959
vt 0.746872 0.283208
vt 0.174541 0.636975
vt 0.045175 0.638147
vt 0.080672 0.327471
vt 0.442544 0.673801
vt 0.734592 0.339187
vt 0.484453 0.673801
vt 0.070725 0.319456
vt 0.218298 0.685110
vt 0.751374 0.331694
vt 0.180611 0.684911
vt 0.062412 0.356092
vt 0.455575 0.702696
vt 0.724658 0.367821
vt 0.476314 0.702696
vt 0.043357 0.357400
vt 0.210236 0.723455
vt 0.742364 0.370210
vt 0.189444 0.723462
vt 0.050281 0.367705
vt 0.444942 0.715336
vt 0.810526 0.722486
vt 0.728448 0.380153
vt 0.853695 0.722486
vt 0.487920 0.715336
vt 0.018975 0.371756
vt 0.232852 0.738567
vt 0.796001 0.739289
vt 0.758050 0.386241
vt 0.861207 0.739289
vt 0.167770 0.738589
vt 0.100634 0.583041
vt 0.712300 0.698974
vt 0.802197 0.701507
vt 0.098640 0.600731
vt 0.972705 0.287497
vt 0.747907 0.696578
vt 0.052045 0.577939
vt 0.849895 0.701507
vt 0.710445 0.675017
vt 0.050052 0.595630
vt 0.746553 0.677603
vt 0.924885 0.287497
vt 0.797725 0.671259
vt 0.981025 0.313792
vt 0.715147 0.730011
vt 0.752543 0.724602
vt 0.973919 0.259495
vt 0.967002 0.332143
vt 0.934252 0.306472
vt 0.715328 0.644023
vt 0.847669 0.671259
vt 0.923848 0.259495
vt 0.753088 0.649631
vt 0.920230 0.324823
vt 0.068284 0.665533
vt 0.630362 0.705721
vt 0.712055 0.621316
vt 0.966165 0.712391
vt 0.519769 0.388732
vt 0.031375 0.663704
vt 0.592215 0.695479
vt 0.581836 0.620019
vt 0.750017 0.621843
vt 0.569690 0.667298
vt 0.581066 0.387596
vt 0.531739 0.516092
vt 0.642835 0.625048
vt 0.273616 0.509019
vt 0.070982 0.710642
vt 0.316851 0.732164
vt 0.684917 0.393810
vt 0.816625 0.338063
vt 0.644803 0.392946
vt 0.602800 0.367236
vt 0.671871 0.661666
vt 0.181146 0.386242
vt 0.855113 0.259897
vt 0.463196 0.649131
vt 0.077903 0.567886
vt 0.078993 0.554271
vt 0.322237 0.720993
vt 0.070972 0.628379
vt 0.834014 0.651825
vt 0.084160 0.512738
vt 0.838315 0.596273
vt 0.320679 0.509019
vt 0.080733 0.539302
vt 0.857365 0.464048
vt 0.931678 0.351118
vt 0.335174 0.488977
vt 0.367094 0.673623
vt 0.939667 0.384854
vt 0.199177 0.651021
vt 0.069465 0.641494
vt 0.198664 0.632807
vt 0.464209 0.672968
vt 0.199604 0.684998
vt 0.465945 0.702696
vt 0.199840 0.723459
vt 0.466714 0.715004
vt 0.832520 0.720483
vt 0.200177 0.738589
vt 0.829423 0.735282
vt 0.076340 0.580490
vt 0.826046 0.701507
vt 0.074346 0.598181
vt 0.948795 0.287497
vt 0.823088 0.670800
vt 0.959731 0.307426
vt 0.948976 0.259488
vt 0.941524 0.331189
vt 0.875347 0.491894
vt 0.391834 0.432095
vt 0.377694 0.448634
vt 0.915590 0.478791
vt 0.834644 0.488373
vt 0.326937 0.619279
vt 0.938593 0.478810
vt 0.335216 0.632947
vt 0.358601 0.463790
vt 0.348787 0.648138
vt 0.927106 0.463378
vt 0.854274 0.489560
vt 0.315804 0.619182
vt 0.212520 0.321385
vt 0.644070 0.318501
vt 0.018976 0.592450
vt 0.663817 0.276029
vt 0.129819 0.597828
vt 0.224108 0.269832
vt 0.051049 0.586785
vt 0.728499 0.676310
vt 0.099637 0.591886
vt 0.730103 0.697776
vt 0.734390 0.646904
vt 0.920230 0.314550
vt 0.981025 0.324065
vt 0.732426 0.727384
vt 0.950683 0.319044
vt 0.753088 0.663662
vt 0.920230 0.273492
vt 0.977552 0.273492
vt 0.752543 0.710647
vt 0.709822 0.714522
vt 0.796001 0.686127
vt 0.853178 0.686127
vt 0.709822 0.659561
vt 0.824792 0.685890
vt 0.948939 0.273488
vt 0.731549 0.661651
vt 0.730449 0.712624
vt 0.878850 0.297575
vt 0.096711 0.342677
vt 0.285581 0.357771
vt 0.108549 0.696221
vt 0.804979 0.293594
vt 0.708839 0.350023
vt 0.668288 0.644023
vt 0.436089 0.526409
vt 0.145034 0.385321
vt 0.919159 0.607821
vt 0.247387 0.613831
vt 0.970304 0.416607
vt 0.947808 0.608020
vt 0.704660 0.516092
vt 0.970304 0.403829
vt 0.750017 0.516884
vt 0.618892 0.516092
vt 0.920230 0.404231
vt 0.273616 0.612878
vt 0.642836 0.516847
vt 0.938584 0.415207
vt 0.924281 0.443436
vt 0.075400 0.489812
vt 0.855524 0.444402
vt 0.531739 0.629156
vt 0.934913 0.435583
vt 0.576828 0.496673
vt 0.931440 0.443424
vt 0.848383 0.444289
vt 0.592622 0.497116
vt 0.934913 0.440184
vt 0.586164 0.496977
vt 0.517161 0.630156
vt 0.920230 0.438606
vt 0.085942 0.490043
vt 0.585376 0.420489
vt 0.510472 0.551446
vt 0.582586 0.444044
vt 0.504260 0.576063
vt 0.581388 0.469636
vt 0.508131 0.602400
vt 0.103684 0.463024
vt 0.477645 0.604263
vt 0.118194 0.440373
vt 0.454885 0.581958
vt 0.129418 0.415411
vt 0.438452 0.557360
vt 0.876897 0.417052
vt 0.081901 0.462161
vt 0.882279 0.393921
vt 0.081653 0.438865
vt 0.880271 0.363315
vt 0.079604 0.408162
vt 0.633117 0.418943
vt 0.615530 0.444447
vt 0.600997 0.469910
vt 0.614559 0.469949
vt 0.862035 0.416811
vt 0.638313 0.444473
vt 0.857648 0.390640
vt 0.666106 0.417503
vt 0.844696 0.362700
vt 0.167770 0.536691
vt 0.914144 0.688660
vt 0.182151 0.561697
vt 0.913298 0.663084
vt 0.189855 0.582503
vt 0.915415 0.641729
vt 0.680787 0.549268
vt 0.966165 0.641681
vt 0.684678 0.573659
vt 0.963812 0.665813
vt 0.684995 0.596421
vt 0.964308 0.688427
vt 0.584794 0.548886
vt 0.729850 0.550060
vt 0.578610 0.572959
vt 0.734888 0.574452
vt 0.569690 0.595426
vt 0.736445 0.597214
vt 0.642060 0.590920
vt 0.247172 0.543053
vt 0.641052 0.570535
vt 0.248998 0.562413
vt 0.635978 0.552556
vt 0.245738 0.579271
s 0
usemtl Material
f 89/203/1 7/19/1 13/32/1 90/205/1
f 8/22/2 7/19/2 89/203/2 58/151/2 54/142/2 53/136/2
f 6/18/3 56/148/3 57/150/3
f 3/8/4 106/231/4 4/9/4 59/153/4 88/202/4
f 6/17/5 107/233/5 5/14/5 60/154/5 1/1/5 105/229/5 2/4/5 56/149/5
f 61/156/6 13/33/6 16/38/6 62/157/6
f 5/16/7 14/35/7 31/77/7 29/72/7
f 88/202/8 1/3/8 10/26/8 91/207/8
f 67/164/9 21/53/9 20/50/9 65/161/9
f 13/32/10 7/19/10 12/30/10 16/39/10
f 3/8/11 9/25/11 11/28/11 15/36/11
f 55/147/12 3/6/12 15/37/12 63/158/12
f 66/162/13 19/48/13 17/40/13 65/160/13
f 23/57/14 22/55/14 17/41/14 19/49/14
f 83/191/15 82/190/15 25/63/15 26/67/15
f 15/36/16 11/28/16 22/55/16 23/57/16
f 62/157/17 16/38/17 21/53/17 67/164/17
f 69/169/18 26/66/18 25/64/18 68/166/18
f 87/200/19 84/193/19 24/60/19 68/165/19
f 86/197/20 83/191/20 26/67/20 69/167/20
f 84/194/21 85/196/21 27/68/21 24/61/21
f 70/170/22 29/73/22 31/78/22 71/172/22
f 70/170/23 28/71/23 34/85/23 73/174/23
f 10/26/24 1/3/24 28/70/24 30/74/24
f 64/159/25 10/27/25 30/75/25 71/171/25
f 34/84/26 32/80/26 36/88/26 38/92/26
f 60/155/27 5/15/27 33/83/27 72/173/27
f 5/16/28 29/72/28 35/86/28 33/82/28
f 28/70/29 1/3/29 32/80/29 34/84/29
f 37/90/30 39/94/30 43/105/30 41/99/30
f 73/174/31 34/85/31 38/93/31 75/176/31
f 33/82/32 35/86/32 39/94/32 37/90/32
f 72/173/33 33/83/33 37/91/33 74/175/33
f 76/178/34 41/100/34 43/106/34 77/180/34
f 74/175/35 37/91/35 41/101/35 76/177/35
f 38/92/36 36/88/36 40/96/36 42/102/36
f 75/176/37 38/93/37 42/103/37 77/179/37
f 102/226/38 97/218/38 51/129/38 81/187/38
f 91/206/39 10/27/39 45/111/39 93/210/39
f 90/204/40 13/33/40 46/114/40 92/208/40
f 61/156/41 9/24/41 44/108/41 78/181/41
f 64/159/42 14/34/42 47/117/42 79/183/42
f 96/216/43 94/213/43 50/126/43 80/186/43
f 101/225/44 99/222/44 48/120/44 80/185/44
f 104/228/45 98/220/45 49/123/45 95/215/45
f 103/227/46 100/224/46 50/127/46 94/212/46
f 8/23/47 53/137/47 52/132/47
f 8/23/48 52/132/48 4/10/48 106/232/48 3/7/48 55/146/48 7/20/48
f 54/142/49 58/151/49 89/203/49 5/16/49 107/234/49 6/18/49 57/150/49
f 100/223/50 101/225/50 80/185/50 50/128/50
f 95/214/51 96/216/51 80/186/51 48/121/51
f 10/27/52 64/159/52 79/183/52 45/111/52
f 13/33/53 61/156/53 78/181/53 46/114/53
f 98/219/54 102/226/54 81/187/54 49/124/54
f 39/95/55 75/176/55 77/179/55 43/107/55
f 36/89/56 74/175/56 76/177/56 40/97/56
f 40/98/57 76/178/57 77/180/57 42/104/57
f 32/81/58 72/173/58 74/175/58 36/89/58
f 35/87/59 73/174/59 75/176/59 39/95/59
f 1/2/60 60/155/60 72/173/60 32/81/60
f 14/34/61 64/159/61 71/171/61 31/79/61
f 29/73/62 70/170/62 73/174/62 35/87/62
f 28/71/63 70/170/63 71/172/63 30/76/63
f 85/196/64 86/198/64 69/168/64 27/68/64
f 82/189/65 87/200/65 68/165/65 25/65/65
f 27/69/66 69/169/66 68/166/66 24/62/66
f 11/29/67 62/157/67 67/164/67 22/56/67
f 18/43/68 66/162/68 65/160/68 20/51/68
f 7/21/69 55/147/69 63/158/69 12/31/69
f 22/56/70 67/164/70 65/161/70 17/42/70
f 9/24/71 61/156/71 62/157/71 11/29/71
f 19/48/72 66/162/72 87/200/72 82/189/72
f 12/30/73 18/44/73 20/52/73 21/54/73 16/39/73
f 66/163/74 18/47/74 84/194/74 87/201/74
f 23/57/75 19/49/75 82/190/75 83/191/75
f 49/125/76 81/188/76 96/216/76 95/214/76
f 97/217/77 103/227/77 94/212/77 51/130/77
f 99/221/78 104/228/78 95/215/78 48/122/78
f 81/188/79 51/131/79 94/213/79 96/216/79
f 14/34/80 90/204/80 92/208/80 47/117/80
f 9/24/81 91/206/81 93/210/81 44/108/81
f 3/8/82 88/202/82 91/207/82 9/25/82
f 5/16/83 89/203/83 90/205/83 14/35/83
f 44/109/84 93/211/84 104/228/84 99/221/84
f 47/118/85 92/209/85 103/227/85 97/217/85
f 45/112/86 79/184/86 102/226/86 98/219/86
f 46/115/87 78/182/87 101/225/87 100/223/87
f 92/209/88 46/116/88 100/224/88 103/227/88
f 93/211/89 45/113/89 98/220/89 104/228/89
f 78/182/90 44/110/90 99/222/90 101/225/90
f 79/184/91 47/119/91 97/218/91 102/226/91
f 59/152/92 4/11/92 52/133/92 53/138/92 54/141/92 108/235/92
f 136/298/93 110/241/93 109/238/93 135/296/93
f 121/271/94 120/269/94 114/253/94 117/261/94
f 139/304/95 111/244/95 110/242/95 136/297/95
f 135/295/96 109/239/96 112/247/96 144/314/96
f 144/313/97 112/248/97 111/245/97 139/303/97
f 111/246/98 112/249/98 109/240/98 110/243/98
f 117/262/99 114/254/99 116/259/99 115/256/99 113/250/99
f 124/277/100 121/270/100 117/263/100 113/251/100
f 120/268/101 129/284/101 116/260/101 114/255/101
f 130/286/102 124/276/102 113/252/102 115/257/102
f 129/284/103 130/285/103 115/258/103 116/260/103
f 57/150/104 56/148/104 132/289/104 127/282/104
f 127/282/105 132/289/105 131/287/105 128/283/105
f 128/283/106 131/287/106 130/285/106 129/284/106
f 56/149/107 2/4/107 126/280/107 132/290/107
f 132/290/108 126/280/108 125/278/108 131/288/108
f 131/288/109 125/278/109 124/276/109 130/286/109
f 54/142/110 57/150/110 127/282/110 118/264/110
f 118/264/111 127/282/111 128/283/111 119/266/111
f 119/266/112 128/283/112 129/284/112 120/268/112
f 2/5/113 108/237/113 123/274/113 126/281/113
f 126/281/114 123/274/114 122/272/114 125/279/114
f 125/279/115 122/272/115 121/270/115 124/277/115
f 108/236/116 54/143/116 118/265/116 123/275/116
f 123/275/117 118/265/117 119/267/117 122/273/117
f 122/273/118 119/267/118 120/269/118 121/271/118
f 54/144/119 142/309/119 141/307/119 53/139/119
f 142/309/120 143/311/120 140/305/120 141/307/120
f 143/311/121 144/313/121 139/303/121 140/305/121
f 4/12/122 133/291/122 142/310/122 54/145/122
f 133/291/123 134/293/123 143/312/123 142/310/123
f 134/293/124 135/295/124 144/314/124 143/312/124
f 53/140/125 141/308/125 138/301/125 52/134/125
f 141/308/126 140/306/126 137/299/126 138/301/126
f 140/306/127 139/304/127 136/297/127 137/299/127
f 52/135/128 138/302/128 133/292/128 4/13/128
f 138/302/129 137/300/129 134/294/129 133/292/129
f 137/300/130 136/298/130 135/296/130 134/294/130
f 105/230/131 1/3/131 88/202/131 59/153/131 108/237/131 2/5/131
f 86/199/132 85/195/132 83/192/132
f 83/192/133 85/195/133 18/45/133 23/58/133
f 63/158/134 15/37/134 23/59/134 18/46/134 12/31/134
f 84/194/135 18/47/135 85/196/135
l 52 106
