# Blender 3.3.1
# www.blender.org
mtllib monstruo_3_caminar649.mtl
o monstruo_grande
v 0.463805 1.977840 0.309601
v 0.517118 1.142393 0.111272
v -0.654015 1.796327 0.177138
v -0.318977 1.141437 0.204251
v 0.716123 2.258509 0.017047
v 0.594218 1.562944 -0.242690
v -0.756338 2.008585 -0.248681
v -0.677210 1.737082 -0.317679
v -0.257091 2.386097 0.482612
v 0.294649 2.265181 0.489072
v -0.392721 2.355910 0.575245
v -1.112260 2.036067 -0.102407
v -0.231068 2.561957 0.129863
v 0.327798 2.406422 0.227078
v -0.962241 1.909108 0.058418
v -0.394125 2.637301 0.148008
v -0.739285 2.270161 0.576594
v -1.405007 1.941719 0.159604
v -1.132561 1.985873 0.364446
v -0.917354 2.588954 0.312884
v -0.582815 2.676230 0.211783
v -0.463805 2.313310 0.547004
v -1.091863 1.917477 0.054978
v -1.694800 0.678523 0.828320
v -1.569736 0.659970 0.877157
v -1.543030 0.491001 0.671293
v -1.619365 0.502326 0.641485
v 0.426449 2.172812 0.487115
v 0.594912 2.363627 0.268741
v 0.403563 2.288522 0.496392
v 0.457699 2.419976 0.277828
v 0.696958 1.861968 0.377186
v 0.876814 1.938436 0.259027
v 0.707991 1.937999 0.428038
v 0.834962 2.049130 0.310657
v 0.877098 1.636801 0.446238
v 0.979011 1.665806 0.404281
v 0.924158 1.622377 0.539861
v 1.024199 1.659587 0.495503
v 0.885251 1.493792 0.509023
v 1.094108 1.569556 0.420618
v 0.919717 1.429694 0.692184
v 1.232949 1.541994 0.552352
v -0.093198 2.433332 0.513334
v 0.116378 2.402349 0.506574
v -0.077751 2.540217 0.269216
v 0.127556 2.505513 0.264810
v -0.037193 2.736464 0.674693
v 0.168259 2.668702 0.641385
v -0.036789 2.860607 0.425786
v 0.167846 2.793203 0.391470
v -0.509920 1.184592 -0.020183
v -0.381178 1.208493 -0.224809
v -0.041211 1.277490 -0.333314
v -0.705504 1.842049 -0.047334
v 0.544338 1.142301 -0.127050
v 0.329101 1.153071 -0.256813
v 0.029702 1.525379 -0.320963
v -0.033104 1.145675 0.197091
v 0.554543 2.059049 0.213691
v -0.241236 2.447949 0.359243
v -0.402012 2.607427 0.420047
v -0.900173 1.988352 -0.056870
v 0.290817 2.394184 0.386364
v -0.766067 2.498025 0.540078
v -1.309238 2.086932 0.403276
v -0.554560 2.595365 0.406501
v -1.644422 0.666807 0.882936
v -1.556885 0.385276 0.551812
v 0.536231 2.279455 0.418086
v 0.433438 2.399571 0.410304
v 0.764650 1.875302 0.269427
v 0.801124 2.004148 0.412778
v 0.927326 1.654149 0.424226
v 0.974192 1.640316 0.517525
v 0.979936 1.530080 0.441860
v 1.058330 1.484073 0.580518
v -0.086525 2.486157 0.389699
v 0.119533 2.455571 0.384851
v -0.068249 2.800444 0.551362
v 0.199543 2.729320 0.515954
v -1.453026 0.989644 0.833808
v -1.505479 0.816125 0.760874
v -1.668194 0.992327 0.750519
v -1.623194 0.833587 0.714907
v -1.557855 0.660458 0.658836
v -1.583956 0.969440 0.843064
v -0.025545 1.757353 0.513567
v 0.192450 2.135899 -0.184603
v 0.135564 2.512191 0.085307
v 0.036078 2.266079 0.635053
v 0.020156 2.522685 0.264992
v 0.016306 2.416236 0.508444
v 0.065393 2.845240 0.370734
v 0.065428 2.683965 0.695269
v 0.069518 2.814205 0.558631
v 0.160784 2.661919 0.304204
v 0.157216 2.523782 0.589901
v -0.078986 2.576368 0.615744
v -0.077859 2.715857 0.327805
v -0.095112 2.647628 0.472773
v 0.173990 2.592883 0.446551
v 0.040551 2.698210 0.295782
v 0.039946 2.539269 0.622406
v 0.538163 1.653813 -0.021300
v -0.570922 1.518325 0.199712
v 0.642432 1.775872 -0.222733
v 0.161398 1.154544 0.210992
v -0.285757 0.212379 -0.468066
v -0.429731 0.144474 -0.365084
v -0.456539 0.293045 -0.566547
v -0.321492 0.298058 -0.582316
v 0.257771 0.003256 0.120818
v 0.186895 -0.010900 0.043237
v 0.268548 -0.002120 0.083059
v 0.237944 -0.007862 0.056093
v 0.198284 0.003006 0.129012
v 0.064320 0.848414 -0.066101
v 0.108022 0.620322 0.016757
v 0.130659 0.318999 0.048764
v 0.157793 0.298499 0.227485
v 0.150273 0.547832 0.295593
v 0.169864 0.824147 0.326904
v 0.280508 0.291950 0.206441
v 0.358005 0.542767 0.262384
v 0.461231 0.867430 0.261401
v 0.319344 0.850611 -0.036964
v 0.285981 0.605162 0.052108
v 0.236533 0.309428 0.071937
v 0.301228 0.300047 0.126886
v 0.395962 0.592197 0.140955
v 0.487881 0.867147 0.072736
v -0.236533 0.848953 0.274275
v -0.234303 0.561277 0.098300
v -0.247455 0.355489 -0.056235
v -0.529725 0.384962 -0.084246
v -0.515772 0.638322 0.047652
v -0.513421 0.885306 0.135069
v -0.533099 0.556040 -0.296653
v -0.516404 0.792030 -0.162995
v -0.504823 0.933985 -0.129155
v -0.113879 0.859740 -0.133031
v -0.173687 0.750843 -0.189411
v -0.236825 0.574214 -0.287842
vn -0.0221 0.5794 -0.8147
vn -0.0121 0.0998 -0.9949
vn 0.4844 -0.2848 -0.8272
vn -0.3076 -0.2697 0.9125
vn 0.9290 -0.1943 0.3151
vn 0.6075 0.7574 0.2392
vn 0.2023 0.9097 -0.3627
vn 0.4703 -0.2558 0.8446
vn -0.1240 0.8995 0.4190
vn -0.1377 0.5841 -0.7999
vn -0.1472 -0.5268 0.8371
vn -0.3639 -0.8705 -0.3315
vn -0.2412 -0.1559 0.9579
vn 0.3257 -0.8707 0.3686
vn 0.9494 -0.2381 0.2049
vn 0.0376 -0.7884 0.6140
vn 0.1093 0.9682 0.2249
vn 0.0237 -0.7634 0.6455
vn -0.6910 0.2285 0.6858
vn 0.9363 0.0564 -0.3465
vn -0.8615 0.0270 -0.5070
vn 0.5369 0.7271 0.4278
vn 0.2604 0.1588 0.9524
vn -0.3607 -0.5310 0.7668
vn -0.1661 0.6207 0.7663
vn -0.7749 -0.4058 0.4846
vn -0.0918 -0.5558 -0.8262
vn 0.8327 0.5508 0.0558
vn -0.4248 -0.6071 0.6715
vn 0.5695 0.7400 -0.3580
vn 0.0532 0.3308 0.9422
vn 0.9274 0.2912 -0.2346
vn 0.0642 -0.4928 -0.8677
vn 0.2247 -0.8793 -0.4198
vn -0.1548 -0.2646 -0.9519
vn -0.9229 0.2004 0.3287
vn 0.3338 0.5491 0.7662
vn 0.9845 -0.0178 -0.1745
vn 0.3417 0.5302 0.7759
vn 0.1452 0.9893 0.0176
vn -0.3068 0.8736 0.3776
vn 0.4041 0.8769 0.2603
vn 0.0629 0.9568 0.2838
vn -0.9672 0.1119 0.2282
vn 0.2835 -0.4083 0.8677
vn -0.2399 0.5345 -0.8104
vn -0.7122 -0.4876 -0.5050
vn -0.9304 -0.3252 0.1692
vn 0.1548 0.1648 -0.9741
vn -0.9661 0.2526 -0.0541
vn 0.0606 0.8026 0.5934
vn 0.4255 0.7032 0.5697
vn -0.2700 0.8735 0.4050
vn 0.9812 -0.1681 0.0943
vn 0.0478 0.4429 0.8953
vn -0.3954 -0.3461 -0.8508
vn 0.0928 -0.9317 -0.3513
vn -0.4736 -0.6576 -0.5859
vn 0.5602 0.5179 0.6464
vn -0.3292 -0.7324 -0.5960
vn -0.0939 0.9914 0.0912
vn 0.6299 0.5719 0.5255
vn 0.5037 0.2632 0.8228
vn -0.4134 0.2567 -0.8736
vn 0.0652 0.1122 0.9915
vn -0.6387 -0.6651 0.3868
vn -0.2661 0.4286 0.8634
vn -0.7224 0.6193 0.3076
vn -0.3611 -0.8596 -0.3615
vn 0.2005 0.3622 0.9103
vn 0.5605 0.5436 0.6247
vn 0.2297 0.3293 0.9159
vn -0.4408 0.6137 -0.6550
vn -0.8644 0.3858 0.3224
vn 0.9564 -0.2593 0.1346
vn 0.5119 0.6601 0.5498
vn 0.2912 0.4566 -0.8407
vn -0.2482 -0.3378 0.9079
vn 0.5113 0.8368 0.1956
vn 0.3585 0.9321 0.0507
vn -0.1366 0.5117 0.8482
vn -0.4824 -0.1350 0.8655
vn 0.2645 0.7638 -0.5888
vn -0.1509 -0.6107 0.7774
vn 0.0809 0.1937 -0.9777
vn 0.9483 -0.3092 -0.0714
vn -0.9957 0.0129 -0.0917
vn -0.1200 0.2514 -0.9604
vn 0.0366 -0.6334 0.7729
vn -0.9994 -0.0024 0.0343
vn 0.9615 -0.2426 -0.1290
vn 0.0549 -0.9768 -0.2068
vn 0.1633 -0.8568 0.4891
vn -0.9751 -0.1737 0.1377
vn -0.9686 -0.2260 -0.1039
vn 0.9889 -0.0681 -0.1317
vn -0.0500 0.7225 -0.6895
vn -0.0405 -0.8062 -0.5902
vn 0.0266 -0.9870 0.1587
vn 0.1416 -0.2936 0.9454
vn 0.2255 0.0522 -0.9728
vn 0.9564 -0.1452 0.2534
vn 0.6522 0.0400 -0.7570
vn 0.4449 -0.5592 -0.6995
vn 0.5446 -0.3601 -0.7575
vn 0.6154 -0.1585 -0.7721
vn 0.9847 -0.1220 0.1243
vn 0.9450 -0.2901 0.1509
vn 0.9306 -0.3185 0.1805
vn 0.0332 -0.5509 -0.8339
vn 0.1289 -0.3359 -0.9330
vn 0.1932 -0.0935 -0.9767
vn 0.2117 0.3793 0.9007
vn 0.1999 -0.0901 0.9757
vn 0.1477 -0.2575 0.9549
vn -0.9491 0.0162 0.3146
vn -0.9771 -0.0251 0.2113
vn -0.9885 -0.0631 0.1371
vn -0.1446 -0.3540 -0.9240
vn 0.0138 0.3349 -0.9421
vn -0.0063 0.4912 -0.8710
vn 0.8982 0.1671 0.4066
vn 0.9527 -0.2443 0.1808
vn 0.9822 -0.1875 -0.0127
vn -0.9591 0.0962 -0.2661
vn -0.9993 0.0362 -0.0013
vn -0.9984 0.0405 0.0406
vn -0.5743 0.2232 0.7876
vn -0.3672 -0.4110 0.8344
vn -0.2125 -0.5081 0.8347
vn 0.4983 -0.2441 0.8319
vn 0.3838 0.4124 -0.8262
vn -0.1632 -0.4535 -0.8762
vn -0.1538 -0.8007 -0.5790
vn -0.8285 -0.1118 -0.5486
vt 0.461701 0.809397
vt 0.301930 0.729761
vt 0.094158 0.499911
vt 0.498737 0.648456
vt 0.250869 0.553264
vt 0.714874 0.752530
vt 0.627854 0.740386
vt 0.227533 0.339544
vt 0.300362 0.438253
vt 0.625828 0.633709
vt 0.338991 0.679376
vt 0.653754 0.621457
vt 0.189641 0.785401
vt 0.531284 0.815038
vt 0.232114 0.729761
vt 0.806952 0.326283
vt 0.527824 0.712310
vt 0.703640 0.331352
vt 0.725736 0.123548
vt 0.557184 0.740386
vt 0.714874 0.681901
vt 0.693091 0.138725
vt 0.558638 0.706064
vt 0.944491 0.391302
vt 0.108931 0.369345
vt 0.090202 0.443431
vt 0.952837 0.467016
vt 0.108059 0.346292
vt 0.960024 0.371234
vt 0.653754 0.712739
vt 0.761990 0.055860
vt 0.265996 0.788213
vt 0.829683 0.188590
vt 0.886815 0.394232
vt 0.909606 0.471204
vt 0.826550 0.267021
vt 0.659457 0.749480
vt 0.206417 0.267620
vt 0.238389 0.812575
vt 0.882743 0.373659
vt 0.837846 0.166681
vt 0.102618 0.289588
vt 0.957957 0.321520
vt 0.918648 0.216117
vt 0.803322 0.012950
vt 0.106348 0.638847
vt 0.232551 0.755661
vt 0.798789 0.485160
vt 0.965752 0.239402
vt 0.153968 0.222285
vt 0.894228 0.312474
vt 0.856067 0.102710
vt 0.881967 0.351902
vt 0.842627 0.144082
vt 0.107159 0.331692
vt 0.958812 0.358201
vt 0.199778 0.246429
vt 0.138792 0.619338
vt 0.232114 0.797406
vt 0.967580 0.012950
vt 0.753483 0.682459
vt 0.843831 0.469074
vt 0.256421 0.022764
vt 0.824689 0.472884
vt 0.987050 0.016155
vt 0.832147 0.505580
vt 0.295109 0.018166
vt 0.782932 0.707368
vt 0.843831 0.503254
vt 0.076417 0.467161
vt 0.958695 0.494573
vt 0.833773 0.298242
vt 0.909847 0.503107
vt 0.076958 0.454690
vt 0.951531 0.482650
vt 0.837149 0.281767
vt 0.912926 0.487172
vt 0.064432 0.532285
vt 0.298790 0.687460
vt 0.825577 0.362572
vt 0.264894 0.686125
vt 0.056614 0.518895
vt 0.959622 0.549977
vt 0.837123 0.350740
vt 0.929664 0.555276
vt 0.051257 0.577890
vt 0.291936 0.641182
vt 0.824256 0.407314
vt 0.275162 0.640522
vt 0.035793 0.577862
vt 0.964581 0.612577
vt 0.838997 0.411720
vt 0.948088 0.615681
vt 0.039898 0.592711
vt 0.301778 0.620707
vt 0.403076 0.772170
vt 0.830596 0.428615
vt 0.403076 0.737417
vt 0.267017 0.619338
vt 0.012950 0.593438
vt 0.987050 0.637067
vt 0.428919 0.781443
vt 0.856067 0.440612
vt 0.428919 0.728949
vt 0.935424 0.646785
vt 0.945356 0.412724
vt 0.357115 0.854737
vt 0.331665 0.779032
vt 0.948027 0.441601
vt 0.799629 0.752473
vt 0.327972 0.853161
vt 0.906904 0.416128
vt 0.370069 0.779032
vt 0.684668 0.778429
vt 0.909575 0.445005
vt 0.655249 0.778999
vt 0.799629 0.791035
vt 0.330193 0.729131
vt 0.557184 0.775635
vt 0.363063 0.804932
vt 0.331684 0.807874
vt 0.754247 0.751428
vt 0.586563 0.768755
vt 0.566112 0.815056
vt 0.689281 0.828405
vt 0.370405 0.729131
vt 0.754247 0.791805
vt 0.657717 0.824383
vt 0.595492 0.808176
vt 0.327830 0.637821
vt 0.590400 0.642651
vt 0.164818 0.789976
vt 0.357235 0.619338
vt 0.642851 0.190721
vt 0.562581 0.649581
vt 0.406824 0.626953
vt 0.080449 0.619338
vt 0.646201 0.239681
vt 0.727583 0.656002
vt 0.597847 0.731399
vt 0.712829 0.722239
vt 0.658284 0.323708
vt 0.527919 0.666449
vt 0.661748 0.291537
vt 0.680225 0.245582
vt 0.377645 0.696957
vt 0.285191 0.477898
vt 0.483372 0.812325
vt 0.280072 0.728266
vt 0.924330 0.393087
vt 0.921760 0.373660
vt 0.678504 0.727397
vt 0.268491 0.812575
vt 0.930826 0.465310
vt 0.923786 0.327561
vt 0.941993 0.227167
vt 0.764056 0.466512
vt 0.919524 0.351927
vt 0.977463 0.013354
vt 0.833186 0.466512
vt 0.317617 0.012950
vt 0.798789 0.722800
vt 0.839639 0.522681
vt 0.934403 0.500152
vt 0.932138 0.484309
vt 0.281656 0.689101
vt 0.944784 0.554368
vt 0.283549 0.640852
vt 0.956335 0.614129
vt 0.284323 0.620942
vt 0.399765 0.754789
vt 0.961112 0.640376
vt 0.422297 0.755187
vt 0.926130 0.414426
vt 0.350867 0.779032
vt 0.928801 0.443303
vt 0.799629 0.771754
vt 0.350773 0.728949
vt 0.557184 0.796361
vt 0.753483 0.771844
vt 0.595492 0.787450
vt 0.985581 0.067358
vt 0.238180 0.070710
vt 0.259592 0.052321
vt 0.138792 0.821791
vt 0.953366 0.057503
vt 0.765454 0.639660
vt 0.120235 0.821584
vt 0.772730 0.660154
vt 0.283154 0.037949
vt 0.784440 0.682652
vt 0.128680 0.843910
vt 0.970110 0.058056
vt 0.758353 0.637393
vt 0.180368 0.432154
vt 0.759258 0.257498
vt 0.884976 0.446549
vt 0.828099 0.241547
vt 0.971226 0.428512
vt 0.101516 0.405509
vt 0.908240 0.430567
vt 0.669958 0.778714
vt 0.946692 0.427163
vt 0.342544 0.853949
vt 0.673120 0.826722
vt 0.582140 0.817526
vt 0.570535 0.766286
vt 0.348248 0.806122
vt 0.576699 0.792002
vt 0.653753 0.802281
vt 0.776512 0.794925
vt 0.776512 0.748700
vt 0.327830 0.829868
vt 0.363063 0.830170
vt 0.327830 0.753980
vt 0.373865 0.753980
vt 0.689281 0.803194
vt 0.351093 0.753886
vt 0.776117 0.771930
vt 0.671321 0.802907
vt 0.345899 0.829874
vt 0.457498 0.727404
vt 0.165986 0.548054
vt 0.260364 0.376248
vt 0.625887 0.695531
vt 0.520555 0.743605
vt 0.734596 0.339638
vt 0.406824 0.703049
vt 0.012950 0.651015
vt 0.277407 0.507014
vt 0.206214 0.619338
vt 0.706517 0.466512
vt 0.399765 0.822801
vt 0.181517 0.620770
vt 0.619265 0.470337
vt 0.422433 0.807343
vt 0.582936 0.466512
vt 0.458892 0.202188
vt 0.422433 0.843958
vt 0.727583 0.468029
vt 0.460639 0.221880
vt 0.402692 0.843997
vt 0.717439 0.778459
vt 0.429089 0.593438
vt 0.518160 0.466685
vt 0.070962 0.817001
vt 0.726094 0.791097
vt 0.457498 0.298878
vt 0.715181 0.783741
vt 0.523936 0.466512
vt 0.458951 0.311476
vt 0.719061 0.788282
vt 0.458165 0.306435
vt 0.058766 0.817583
vt 0.726094 0.778429
vt 0.431598 0.585369
vt 0.599953 0.261833
vt 0.080449 0.668491
vt 0.542336 0.274386
vt 0.076079 0.728305
vt 0.500395 0.287212
vt 0.064936 0.773359
vt 0.389801 0.564275
vt 0.039540 0.774208
vt 0.356388 0.547019
vt 0.031995 0.737396
vt 0.319737 0.531779
vt 0.030523 0.696843
vt 0.505723 0.512116
vt 0.384015 0.580847
vt 0.506522 0.550736
vt 0.346302 0.574833
vt 0.507607 0.604105
vt 0.294291 0.566034
vt 0.610540 0.298468
vt 0.545535 0.300686
vt 0.502363 0.302883
vt 0.504402 0.313331
vt 0.517745 0.511765
vt 0.548610 0.318269
vt 0.527842 0.556627
vt 0.609940 0.323717
vt 0.531284 0.618364
vt 0.660591 0.582499
vt 0.204501 0.743892
vt 0.668589 0.550878
vt 0.206214 0.710848
vt 0.668004 0.517120
vt 0.204545 0.678125
vt 0.623877 0.525891
vt 0.164692 0.675333
vt 0.610236 0.563455
vt 0.167167 0.712219
vt 0.605277 0.597358
vt 0.166352 0.745757
vt 0.511839 0.183186
vt 0.584607 0.521652
vt 0.552303 0.182624
vt 0.569857 0.561129
vt 0.598009 0.178631
vt 0.565182 0.606784
vt 0.592158 0.236754
vt 0.721184 0.600612
vt 0.550092 0.232946
vt 0.722606 0.558204
vt 0.518921 0.225772
vt 0.713819 0.525134
s 0
usemtl Material
f 89/196/1 7/19/1 13/33/1 90/198/1
f 8/22/2 7/19/2 89/196/2 58/145/2 54/138/2 53/134/2
f 6/18/3 56/142/3 57/144/3
f 3/8/4 106/224/4 4/9/4 59/147/4 88/195/4
f 6/17/5 107/226/5 5/14/5 60/148/5 1/1/5 105/222/5 2/4/5 56/143/5
f 61/150/6 13/34/6 16/40/6 62/151/6
f 5/16/7 14/36/7 31/76/7 29/72/7
f 88/195/8 1/3/8 10/26/8 91/200/8
f 67/158/9 21/53/9 20/51/9 65/155/9
f 13/33/10 7/19/10 12/31/10 16/41/10
f 3/8/11 9/25/11 11/28/11 15/38/11
f 55/141/12 3/6/12 15/37/12 63/152/12
f 66/156/13 19/49/13 17/43/13 65/155/13
f 23/57/14 22/55/14 17/42/14 19/50/14
f 83/184/15 82/183/15 25/63/15 26/67/15
f 15/38/16 11/28/16 22/55/16 23/57/16
f 62/151/17 16/40/17 21/53/17 67/158/17
f 69/163/18 26/66/18 25/64/18 68/160/18
f 87/193/19 84/186/19 24/60/19 68/159/19
f 86/190/20 83/184/20 26/67/20 69/161/20
f 84/187/21 85/189/21 27/68/21 24/61/21
f 70/164/22 29/73/22 31/77/22 71/165/22
f 70/164/23 28/71/23 34/83/23 73/167/23
f 10/26/24 1/3/24 28/70/24 30/74/24
f 64/154/25 10/27/25 30/75/25 71/165/25
f 34/82/26 32/78/26 36/86/26 38/90/26
f 60/149/27 5/15/27 33/81/27 72/166/27
f 5/16/28 29/72/28 35/84/28 33/80/28
f 28/70/29 1/3/29 32/78/29 34/82/29
f 37/88/30 39/92/30 43/103/30 41/97/30
f 73/167/31 34/83/31 38/91/31 75/169/31
f 33/80/32 35/84/32 39/92/32 37/88/32
f 72/166/33 33/81/33 37/89/33 74/168/33
f 76/171/34 41/98/34 43/104/34 77/173/34
f 74/168/35 37/89/35 41/99/35 76/170/35
f 38/90/36 36/86/36 40/94/36 42/100/36
f 75/169/37 38/91/37 42/101/37 77/172/37
f 102/219/38 97/211/38 51/127/38 81/180/38
f 91/199/39 10/27/39 45/109/39 93/203/39
f 90/197/40 13/34/40 46/112/40 92/201/40
f 61/150/41 9/24/41 44/106/41 78/174/41
f 64/154/42 14/35/42 47/115/42 79/176/42
f 96/209/43 94/206/43 50/124/43 80/179/43
f 101/218/44 99/215/44 48/118/44 80/178/44
f 104/221/45 98/213/45 49/121/45 95/208/45
f 103/220/46 100/217/46 50/125/46 94/205/46
f 8/23/47 53/135/47 52/131/47
f 8/23/48 52/131/48 4/10/48 106/225/48 3/7/48 55/140/48 7/20/48
f 54/138/49 58/145/49 89/196/49 5/16/49 107/227/49 6/18/49 57/144/49
f 100/216/50 101/218/50 80/178/50 50/126/50
f 95/207/51 96/209/51 80/179/51 48/119/51
f 10/27/52 64/154/52 79/176/52 45/109/52
f 13/34/53 61/150/53 78/174/53 46/112/53
f 98/212/54 102/219/54 81/180/54 49/122/54
f 39/93/55 75/169/55 77/172/55 43/105/55
f 36/87/56 74/168/56 76/170/56 40/95/56
f 40/96/57 76/171/57 77/173/57 42/102/57
f 32/79/58 72/166/58 74/168/58 36/87/58
f 35/85/59 73/167/59 75/169/59 39/93/59
f 1/2/60 60/149/60 72/166/60 32/79/60
f 14/35/61 64/154/61 71/165/61 31/77/61
f 29/73/62 70/164/62 73/167/62 35/85/62
f 28/71/63 70/164/63 71/165/63 30/75/63
f 85/189/64 86/191/64 69/162/64 27/68/64
f 82/182/65 87/193/65 68/159/65 25/65/65
f 27/69/66 69/163/66 68/160/66 24/62/66
f 11/29/67 62/151/67 67/158/67 22/56/67
f 18/44/68 66/156/68 65/155/68 20/51/68
f 7/21/69 55/141/69 63/152/69 12/30/69
f 22/56/70 67/158/70 65/155/70 17/43/70
f 9/24/71 61/150/71 62/151/71 11/29/71
f 19/49/72 66/156/72 87/193/72 82/182/72
f 12/31/73 18/45/73 20/52/73 21/54/73 16/41/73
f 66/157/74 18/48/74 84/187/74 87/194/74
f 23/57/75 19/50/75 82/183/75 83/184/75
f 49/123/76 81/181/76 96/209/76 95/207/76
f 97/210/77 103/220/77 94/205/77 51/128/77
f 99/214/78 104/221/78 95/208/78 48/120/78
f 81/181/79 51/129/79 94/206/79 96/209/79
f 14/35/80 90/197/80 92/201/80 47/115/80
f 9/24/81 91/199/81 93/203/81 44/106/81
f 3/8/82 88/195/82 91/200/82 9/25/82
f 5/16/83 89/196/83 90/198/83 14/36/83
f 44/107/84 93/204/84 104/221/84 99/214/84
f 47/116/85 92/202/85 103/220/85 97/210/85
f 45/110/86 79/177/86 102/219/86 98/212/86
f 46/113/87 78/175/87 101/218/87 100/216/87
f 92/202/88 46/114/88 100/217/88 103/220/88
f 93/204/89 45/111/89 98/213/89 104/221/89
f 78/175/90 44/108/90 99/215/90 101/218/90
f 79/177/91 47/117/91 97/211/91 102/219/91
f 59/146/92 4/11/92 52/130/92 53/133/92 54/136/92 108/228/92
f 136/291/93 110/234/93 109/231/93 135/289/93
f 121/264/94 120/262/94 114/246/94 117/254/94
f 139/297/95 111/237/95 110/235/95 136/290/95
f 135/288/96 109/232/96 112/240/96 144/307/96
f 144/306/97 112/241/97 111/238/97 139/296/97
f 111/239/98 112/242/98 109/233/98 110/236/98
f 117/255/99 114/247/99 116/252/99 115/249/99 113/243/99
f 124/270/100 121/263/100 117/256/100 113/244/100
f 120/261/101 129/277/101 116/253/101 114/248/101
f 130/279/102 124/269/102 113/245/102 115/250/102
f 129/277/103 130/278/103 115/251/103 116/253/103
f 57/144/104 56/142/104 132/282/104 127/275/104
f 127/275/105 132/282/105 131/280/105 128/276/105
f 128/276/106 131/280/106 130/278/106 129/277/106
f 56/143/107 2/4/107 126/273/107 132/283/107
f 132/283/108 126/273/108 125/271/108 131/281/108
f 131/281/109 125/271/109 124/269/109 130/279/109
f 54/138/110 57/144/110 127/275/110 118/257/110
f 118/257/111 127/275/111 128/276/111 119/259/111
f 119/259/112 128/276/112 129/277/112 120/261/112
f 2/5/113 108/230/113 123/267/113 126/274/113
f 126/274/114 123/267/114 122/265/114 125/272/114
f 125/272/115 122/265/115 121/263/115 124/270/115
f 108/229/116 54/137/116 118/258/116 123/268/116
f 123/268/117 118/258/117 119/260/117 122/266/117
f 122/266/118 119/260/118 120/262/118 121/264/118
f 54/138/119 142/302/119 141/300/119 53/134/119
f 142/302/120 143/304/120 140/298/120 141/300/120
f 143/304/121 144/306/121 139/296/121 140/298/121
f 4/12/122 133/284/122 142/303/122 54/139/122
f 133/284/123 134/286/123 143/305/123 142/303/123
f 134/286/124 135/288/124 144/307/124 143/305/124
f 53/135/125 141/301/125 138/294/125 52/131/125
f 141/301/126 140/299/126 137/292/126 138/294/126
f 140/299/127 139/297/127 136/290/127 137/292/127
f 52/132/128 138/295/128 133/285/128 4/13/128
f 138/295/129 137/293/129 134/287/129 133/285/129
f 137/293/130 136/291/130 135/289/130 134/287/130
f 105/223/131 1/3/131 88/195/131 59/147/131 108/230/131 2/5/131
f 86/192/132 85/188/132 83/185/132
f 83/185/133 85/188/133 18/46/133 23/58/133
f 63/153/134 15/39/134 23/59/134 18/47/134 12/32/134
f 84/187/135 18/48/135 85/189/135
l 52 106
