# Blender 3.3.1
# www.blender.org
mtllib monstruo_3_caminar620.mtl
o monstruo_grande
v 0.331516 2.025577 0.215984
v 0.524691 1.206588 0.090260
v -0.735419 1.711855 0.218602
v -0.289538 1.095467 0.215137
v 0.448419 2.323221 -0.133275
v 0.509540 1.621287 -0.249647
v -0.891247 1.941998 -0.185354
v -0.772364 1.666576 -0.264832
v -0.366160 2.371238 0.497743
v 0.193465 2.292016 0.431965
v -0.493041 2.333415 0.603495
v -1.254006 1.974790 -0.014221
v -0.381829 2.539223 0.140998
v 0.167334 2.436996 0.176396
v -1.091194 1.840075 0.132468
v -0.545482 2.604429 0.172297
v -0.842065 2.235110 0.634225
v -1.531380 1.892919 0.264559
v -1.244726 1.936178 0.456307
v -1.045389 2.545772 0.379056
v -0.725828 2.637116 0.250693
v -0.569251 2.284874 0.582651
v -1.223852 1.858567 0.141297
v -1.796467 0.628247 0.945947
v -1.668310 0.608099 0.985190
v -1.660585 0.435944 0.780383
v -1.738808 0.448242 0.756430
v 0.354686 2.214130 0.401410
v 0.423849 2.418448 0.140943
v 0.307105 2.326233 0.420179
v 0.298515 2.465154 0.196184
v 0.584455 1.913855 0.175737
v 0.676102 2.018975 -0.007638
v 0.607767 1.992745 0.225372
v 0.668573 2.116152 0.070297
v 0.764987 1.696424 0.091218
v 0.828575 1.736869 0.004717
v 0.855248 1.665298 0.136655
v 0.915417 1.714198 0.050960
v 0.794739 1.544198 0.110725
v 0.923275 1.643756 -0.065123
v 0.921070 1.446076 0.225863
v 1.108537 1.594563 -0.044482
v -0.204442 2.431712 0.511594
v 0.005886 2.407717 0.488715
v -0.213909 2.532290 0.265567
v -0.011610 2.508910 0.245806
v -0.147385 2.746442 0.654209
v 0.057226 2.681379 0.611634
v -0.164659 2.859008 0.400633
v 0.038793 2.794468 0.357473
v -0.499815 1.123066 0.004009
v -0.388544 1.165660 -0.207933
v -0.055703 1.276062 -0.332830
v -0.800700 1.759332 0.001617
v 0.548582 1.207483 -0.147588
v 0.328727 1.202453 -0.272719
v -0.026946 1.527622 -0.322654
v -0.010107 1.146339 0.192452
v 0.372032 2.115164 0.097577
v -0.365417 2.430870 0.372169
v -0.530074 2.581260 0.444213
v -1.028056 1.911407 0.011469
v 0.158151 2.420086 0.336740
v -0.878280 2.461541 0.594649
v -1.420479 2.035787 0.504874
v -0.682271 2.559867 0.444609
v -1.742192 0.616356 0.996651
v -1.685493 0.328900 0.663906
v 0.428322 2.327806 0.297401
v 0.303777 2.440455 0.331493
v 0.583781 1.948137 0.049619
v 0.680936 2.066441 0.175086
v 0.795328 1.719498 0.048056
v 0.885193 1.689016 0.093471
v 0.837525 1.596339 0.009514
v 0.976266 1.526298 0.067251
v -0.209145 2.481410 0.387327
v -0.004110 2.459224 0.366638
v -0.187156 2.804051 0.530241
v 0.079564 2.736790 0.482121
v -1.549775 0.935011 0.928063
v -1.610677 0.761505 0.861984
v -1.770807 0.940212 0.861323
v -1.731303 0.780469 0.825047
v -1.673468 0.605458 0.766623
v -1.679909 0.917292 0.947756
v -0.075952 1.756863 0.517591
v 0.016842 2.141127 -0.192409
v -0.021761 2.513652 0.065655
v -0.036851 2.265909 0.622559
v -0.114116 2.519552 0.253789
v -0.095784 2.419338 0.499645
v -0.065846 2.843349 0.340691
v -0.042550 2.697025 0.670884
v -0.049552 2.820907 0.528570
v 0.027730 2.660755 0.277049
v 0.046654 2.533662 0.567550
v -0.188841 2.582628 0.605445
v -0.209768 2.709277 0.313473
v -0.215287 2.647047 0.461103
v 0.052857 2.597040 0.420770
v -0.092872 2.693350 0.274816
v -0.068943 2.548512 0.606307
v 0.387780 1.721708 -0.029773
v -0.595712 1.436641 0.229901
v 0.489995 1.840855 -0.246761
v 0.177082 1.184950 0.196655
v -0.203988 -0.001867 -0.136896
v -0.348916 0.003715 -0.015240
v -0.373619 0.004810 -0.264965
v -0.238408 -0.000626 -0.279095
v 0.345522 0.019205 0.361702
v 0.264169 -0.011079 0.301301
v 0.350538 0.004873 0.325066
v 0.316333 -0.006254 0.305089
v 0.288081 0.022394 0.378583
v 0.090616 0.850881 -0.086849
v 0.132399 0.567728 0.093602
v 0.192886 0.296816 0.231490
v 0.251264 0.338744 0.398544
v 0.227928 0.595796 0.383006
v 0.222115 0.867167 0.319459
v 0.368763 0.331412 0.357498
v 0.425625 0.587345 0.311649
v 0.500922 0.923772 0.221823
v 0.347932 0.885634 -0.070444
v 0.314401 0.574228 0.100968
v 0.301460 0.300538 0.235648
v 0.375000 0.313289 0.277145
v 0.437722 0.595711 0.169341
v 0.519124 0.920949 0.032281
v -0.174467 0.818988 0.272455
v -0.149952 0.540258 0.183288
v -0.146940 0.304435 0.129937
v -0.432160 0.296975 0.117637
v -0.441197 0.570652 0.134569
v -0.462636 0.825107 0.148883
v -0.466026 0.362742 -0.141968
v -0.472791 0.639453 -0.127204
v -0.477653 0.871881 -0.125617
v -0.081608 0.831693 -0.158768
v -0.129768 0.622522 -0.173351
v -0.174139 0.408806 -0.168773
vn -0.1296 0.5572 -0.8202
vn -0.0911 0.0987 -0.9909
vn 0.4907 -0.1647 -0.8556
vn -0.2115 -0.3183 0.9241
vn 0.9455 0.0810 0.3155
vn 0.5780 0.7977 0.1720
vn 0.0125 0.9204 -0.3908
vn 0.6570 -0.2152 0.7225
vn -0.1096 0.9041 0.4129
vn -0.2098 0.5470 -0.8104
vn -0.0603 -0.5084 0.8590
vn -0.3800 -0.8734 -0.3046
vn -0.1707 -0.1379 0.9756
vn 0.3728 -0.8538 0.3635
vn 0.9583 -0.2524 0.1340
vn 0.0698 -0.7489 0.6590
vn 0.0806 0.9764 0.2003
vn 0.0610 -0.7550 0.6529
vn -0.6324 0.2504 0.7330
vn 0.9073 0.0349 -0.4190
vn -0.8976 0.0353 -0.4394
vn 0.5854 0.7604 0.2811
vn 0.6106 0.1603 0.7756
vn -0.1178 -0.5645 0.8170
vn -0.0728 0.5956 0.8000
vn -0.3922 -0.5439 0.7418
vn -0.4213 -0.5158 -0.7460
vn 0.7752 0.5814 -0.2470
vn -0.1025 -0.6466 0.7559
vn 0.3318 0.8163 -0.4729
vn 0.5688 0.1701 0.8047
vn 0.6533 0.3880 -0.6501
vn -0.4381 -0.3299 -0.8362
vn -0.1302 -0.7669 -0.6284
vn -0.6834 -0.0683 -0.7268
vn -0.5536 0.0996 0.8268
vn 0.7549 0.3963 0.5226
vn 0.9702 -0.0085 -0.2421
vn 0.4135 0.5560 0.7211
vn 0.0800 0.9967 -0.0160
vn -0.3355 0.8611 0.3821
vn 0.3587 0.9078 0.2172
vn 0.0570 0.9697 0.2375
vn -0.9538 0.1031 0.2823
vn 0.3435 -0.3609 0.8671
vn -0.3020 0.4902 -0.8177
vn -0.6746 -0.5702 -0.4688
vn -0.8623 -0.4636 0.2039
vn 0.0771 0.1253 -0.9891
vn -0.9726 0.2323 -0.0001
vn 0.0773 0.8301 0.5522
vn 0.4506 0.7320 0.5110
vn -0.2921 0.8651 0.4078
vn 0.9889 -0.1431 0.0406
vn 0.5840 0.2559 0.7703
vn -0.8355 -0.1825 -0.5183
vn -0.2035 -0.8392 -0.5043
vn -0.7399 -0.5870 -0.3286
vn 0.8359 0.4416 0.3259
vn -0.5204 -0.7246 -0.4518
vn -0.1780 0.9748 0.1348
vn 0.7662 0.5853 0.2651
vn 0.6635 0.3530 0.6596
vn -0.4758 0.2524 -0.8425
vn 0.1441 0.1243 0.9817
vn -0.6178 -0.6483 0.4450
vn -0.2119 0.4364 0.8744
vn -0.7095 0.6092 0.3543
vn -0.3829 -0.8347 -0.3959
vn 0.2572 0.3898 0.8843
vn 0.5737 0.5920 0.5660
vn 0.2861 0.3144 0.9051
vn -0.4962 0.5900 -0.6370
vn -0.8404 0.3909 0.3755
vn 0.9592 -0.2718 0.0783
vn 0.5282 0.6948 0.4881
vn 0.2268 0.4221 -0.8777
vn -0.1844 -0.2996 0.9361
vn 0.5027 0.8550 0.1274
vn 0.2838 0.9588 0.0092
vn -0.0928 0.4873 0.8683
vn -0.3971 -0.1584 0.9040
vn 0.0431 0.7706 -0.6358
vn -0.0769 -0.5726 0.8162
vn 0.0051 0.1576 -0.9875
vn 0.9494 -0.2839 -0.1347
vn -1.0000 -0.0042 -0.0046
vn -0.1965 0.2027 -0.9593
vn 0.1073 -0.6031 0.7904
vn -0.9942 -0.0256 0.1044
vn 0.9429 -0.2479 -0.2225
vn 0.1757 -0.9578 -0.2274
vn 0.2102 -0.5359 0.8177
vn -0.9263 -0.1322 0.3528
vn -0.9555 -0.2861 0.0723
vn 0.9840 -0.0837 -0.1576
vn -0.1183 0.2849 -0.9512
vn -0.0393 -0.9992 -0.0000
vn 0.0629 -0.9225 0.3809
vn 0.3134 -0.0170 0.9495
vn 0.0595 -0.2126 -0.9753
vn 0.9913 -0.0666 0.1138
vn 0.5164 -0.1682 -0.8397
vn 0.4790 -0.4755 -0.7379
vn 0.5122 -0.4476 -0.7330
vn 0.4985 -0.4026 -0.7677
vn 0.9944 -0.0393 0.0981
vn 0.9757 -0.2017 0.0857
vn 0.9774 -0.1917 0.0889
vn 0.0721 -0.5039 -0.8607
vn 0.0939 -0.5061 -0.8574
vn 0.0511 -0.4434 -0.8949
vn 0.2418 0.3857 0.8904
vn 0.3096 0.1992 0.9298
vn 0.3385 0.0900 0.9366
vn -0.9317 -0.0624 0.3577
vn -0.9503 0.0534 0.3067
vn -0.9436 -0.0549 0.3266
vn -0.1747 -0.2987 -0.9382
vn -0.1030 0.0465 -0.9936
vn -0.1154 0.0295 -0.9929
vn 0.9103 0.2243 0.3480
vn 0.9882 -0.0761 0.1326
vn 0.9955 -0.0877 -0.0356
vn -0.9813 0.0124 -0.1919
vn -0.9956 -0.0562 0.0744
vn -0.9927 -0.0352 0.1156
vn -0.5446 0.1463 0.8258
vn -0.2908 -0.2064 0.9343
vn -0.1097 -0.1384 0.9843
vn 0.5970 -0.1125 0.7943
vn 0.3252 0.3944 -0.8595
vn -0.2299 -0.4418 -0.8672
vn -0.2325 -0.8016 -0.5509
vn -0.8593 -0.0985 -0.5020
vt 0.461701 0.809397
vt 0.301930 0.729761
vt 0.094158 0.499911
vt 0.498737 0.648456
vt 0.250869 0.553264
vt 0.714874 0.752530
vt 0.627854 0.740386
vt 0.227533 0.339544
vt 0.300362 0.438253
vt 0.625828 0.633709
vt 0.338991 0.679376
vt 0.653754 0.621457
vt 0.189641 0.785401
vt 0.531284 0.815038
vt 0.232114 0.729761
vt 0.806952 0.326283
vt 0.527824 0.712310
vt 0.703640 0.331352
vt 0.725736 0.123548
vt 0.557184 0.740386
vt 0.714874 0.681901
vt 0.693091 0.138725
vt 0.558638 0.706064
vt 0.944491 0.391302
vt 0.108931 0.369345
vt 0.090202 0.443431
vt 0.952837 0.467016
vt 0.108059 0.346292
vt 0.960024 0.371234
vt 0.653754 0.712739
vt 0.761990 0.055860
vt 0.265996 0.788213
vt 0.829683 0.188590
vt 0.886815 0.394232
vt 0.909606 0.471204
vt 0.826550 0.267021
vt 0.659457 0.749480
vt 0.206417 0.267620
vt 0.238389 0.812575
vt 0.882743 0.373659
vt 0.837846 0.166681
vt 0.102618 0.289588
vt 0.957957 0.321520
vt 0.918648 0.216117
vt 0.803322 0.012950
vt 0.106348 0.638847
vt 0.232551 0.755661
vt 0.798789 0.485160
vt 0.965752 0.239402
vt 0.153968 0.222285
vt 0.894228 0.312474
vt 0.856067 0.102710
vt 0.881967 0.351902
vt 0.842627 0.144082
vt 0.107159 0.331692
vt 0.958812 0.358201
vt 0.199778 0.246429
vt 0.138792 0.619338
vt 0.232114 0.797406
vt 0.967580 0.012950
vt 0.753483 0.682459
vt 0.843831 0.469074
vt 0.256421 0.022764
vt 0.824689 0.472884
vt 0.987050 0.016155
vt 0.832147 0.505580
vt 0.295109 0.018166
vt 0.782932 0.707368
vt 0.843831 0.503254
vt 0.076417 0.467161
vt 0.958695 0.494573
vt 0.833773 0.298242
vt 0.909847 0.503107
vt 0.076958 0.454690
vt 0.951531 0.482650
vt 0.837149 0.281767
vt 0.912926 0.487172
vt 0.064432 0.532285
vt 0.298790 0.687460
vt 0.825577 0.362572
vt 0.264894 0.686125
vt 0.056614 0.518895
vt 0.959622 0.549977
vt 0.837123 0.350740
vt 0.929664 0.555276
vt 0.051257 0.577890
vt 0.291936 0.641182
vt 0.824256 0.407314
vt 0.275162 0.640522
vt 0.035793 0.577862
vt 0.964581 0.612577
vt 0.838997 0.411720
vt 0.948088 0.615681
vt 0.039898 0.592711
vt 0.301778 0.620707
vt 0.403076 0.772170
vt 0.830596 0.428615
vt 0.403076 0.737417
vt 0.267017 0.619338
vt 0.012950 0.593438
vt 0.987050 0.637067
vt 0.428919 0.781443
vt 0.856067 0.440612
vt 0.428919 0.728949
vt 0.935424 0.646785
vt 0.945356 0.412724
vt 0.357115 0.854737
vt 0.331665 0.779032
vt 0.948027 0.441601
vt 0.799629 0.752473
vt 0.327972 0.853161
vt 0.906904 0.416128
vt 0.370069 0.779032
vt 0.684668 0.778429
vt 0.909575 0.445005
vt 0.655249 0.778999
vt 0.799629 0.791035
vt 0.330193 0.729131
vt 0.557184 0.775635
vt 0.363063 0.804932
vt 0.331684 0.807874
vt 0.754247 0.751428
vt 0.586563 0.768755
vt 0.566112 0.815056
vt 0.689281 0.828405
vt 0.370405 0.729131
vt 0.754247 0.791805
vt 0.657717 0.824383
vt 0.595492 0.808176
vt 0.327830 0.637821
vt 0.590400 0.642651
vt 0.164818 0.789976
vt 0.357235 0.619338
vt 0.642851 0.190721
vt 0.562581 0.649581
vt 0.406824 0.626953
vt 0.080449 0.619338
vt 0.646201 0.239681
vt 0.727583 0.656002
vt 0.597847 0.731399
vt 0.712829 0.722239
vt 0.658284 0.323708
vt 0.527919 0.666449
vt 0.661748 0.291537
vt 0.680225 0.245582
vt 0.377645 0.696957
vt 0.285191 0.477898
vt 0.483372 0.812325
vt 0.280072 0.728266
vt 0.924330 0.393087
vt 0.921760 0.373660
vt 0.678504 0.727397
vt 0.268491 0.812575
vt 0.930826 0.465310
vt 0.923786 0.327561
vt 0.941993 0.227167
vt 0.764056 0.466512
vt 0.919524 0.351927
vt 0.977463 0.013354
vt 0.833186 0.466512
vt 0.317617 0.012950
vt 0.798789 0.722800
vt 0.839639 0.522681
vt 0.934403 0.500152
vt 0.932138 0.484309
vt 0.281656 0.689101
vt 0.944784 0.554368
vt 0.283549 0.640852
vt 0.956335 0.614129
vt 0.284323 0.620942
vt 0.399765 0.754789
vt 0.961112 0.640376
vt 0.422297 0.755187
vt 0.926130 0.414426
vt 0.350867 0.779032
vt 0.928801 0.443303
vt 0.799629 0.771754
vt 0.350773 0.728949
vt 0.557184 0.796361
vt 0.753483 0.771844
vt 0.595492 0.787450
vt 0.985581 0.067358
vt 0.238180 0.070710
vt 0.259592 0.052321
vt 0.138792 0.821791
vt 0.953366 0.057503
vt 0.765454 0.639660
vt 0.120235 0.821584
vt 0.772730 0.660154
vt 0.283154 0.037949
vt 0.784440 0.682652
vt 0.128680 0.843910
vt 0.970110 0.058056
vt 0.758353 0.637393
vt 0.180368 0.432154
vt 0.759258 0.257498
vt 0.884976 0.446549
vt 0.828099 0.241547
vt 0.971226 0.428512
vt 0.101516 0.405509
vt 0.908240 0.430567
vt 0.669958 0.778714
vt 0.946692 0.427163
vt 0.342544 0.853949
vt 0.673120 0.826722
vt 0.582140 0.817526
vt 0.570535 0.766286
vt 0.348248 0.806122
vt 0.576699 0.792002
vt 0.653753 0.802281
vt 0.776512 0.794925
vt 0.776512 0.748700
vt 0.327830 0.829868
vt 0.363063 0.830170
vt 0.327830 0.753980
vt 0.373865 0.753980
vt 0.689281 0.803194
vt 0.351093 0.753886
vt 0.776117 0.771930
vt 0.671321 0.802907
vt 0.345899 0.829874
vt 0.457498 0.727404
vt 0.165986 0.548054
vt 0.260364 0.376248
vt 0.625887 0.695531
vt 0.520555 0.743605
vt 0.734596 0.339638
vt 0.406824 0.703049
vt 0.012950 0.651015
vt 0.277407 0.507014
vt 0.206214 0.619338
vt 0.706517 0.466512
vt 0.399765 0.822801
vt 0.181517 0.620770
vt 0.619265 0.470337
vt 0.422433 0.807343
vt 0.582936 0.466512
vt 0.458892 0.202188
vt 0.422433 0.843958
vt 0.727583 0.468029
vt 0.460639 0.221880
vt 0.402692 0.843997
vt 0.717439 0.778459
vt 0.429089 0.593438
vt 0.518160 0.466685
vt 0.070962 0.817001
vt 0.726094 0.791097
vt 0.457498 0.298878
vt 0.715181 0.783741
vt 0.523936 0.466512
vt 0.458951 0.311476
vt 0.719061 0.788282
vt 0.458165 0.306435
vt 0.058766 0.817583
vt 0.726094 0.778429
vt 0.431598 0.585369
vt 0.599953 0.261833
vt 0.080449 0.668491
vt 0.542336 0.274386
vt 0.076079 0.728305
vt 0.500395 0.287212
vt 0.064936 0.773359
vt 0.389801 0.564275
vt 0.039540 0.774208
vt 0.356388 0.547019
vt 0.031995 0.737396
vt 0.319737 0.531779
vt 0.030523 0.696843
vt 0.505723 0.512116
vt 0.384015 0.580847
vt 0.506522 0.550736
vt 0.346302 0.574833
vt 0.507607 0.604105
vt 0.294291 0.566034
vt 0.610540 0.298468
vt 0.545535 0.300686
vt 0.502363 0.302883
vt 0.504402 0.313331
vt 0.517745 0.511765
vt 0.548610 0.318269
vt 0.527842 0.556627
vt 0.609940 0.323717
vt 0.531284 0.618364
vt 0.660591 0.582499
vt 0.204501 0.743892
vt 0.668589 0.550878
vt 0.206214 0.710848
vt 0.668004 0.517120
vt 0.204545 0.678125
vt 0.623877 0.525891
vt 0.164692 0.675333
vt 0.610236 0.563455
vt 0.167167 0.712219
vt 0.605277 0.597358
vt 0.166352 0.745757
vt 0.511839 0.183186
vt 0.584607 0.521652
vt 0.552303 0.182624
vt 0.569857 0.561129
vt 0.598009 0.178631
vt 0.565182 0.606784
vt 0.592158 0.236754
vt 0.721184 0.600612
vt 0.550092 0.232946
vt 0.722606 0.558204
vt 0.518921 0.225772
vt 0.713819 0.525134
s 0
usemtl Material
f 89/196/1 7/19/1 13/33/1 90/198/1
f 8/22/2 7/19/2 89/196/2 58/145/2 54/138/2 53/134/2
f 6/18/3 56/142/3 57/144/3
f 3/8/4 106/224/4 4/9/4 59/147/4 88/195/4
f 6/17/5 107/226/5 5/14/5 60/148/5 1/1/5 105/222/5 2/4/5 56/143/5
f 61/150/6 13/34/6 16/40/6 62/151/6
f 5/16/7 14/36/7 31/76/7 29/72/7
f 88/195/8 1/3/8 10/26/8 91/200/8
f 67/158/9 21/53/9 20/51/9 65/155/9
f 13/33/10 7/19/10 12/31/10 16/41/10
f 3/8/11 9/25/11 11/28/11 15/38/11
f 55/141/12 3/6/12 15/37/12 63/152/12
f 66/156/13 19/49/13 17/43/13 65/155/13
f 23/57/14 22/55/14 17/42/14 19/50/14
f 83/184/15 82/183/15 25/63/15 26/67/15
f 15/38/16 11/28/16 22/55/16 23/57/16
f 62/151/17 16/40/17 21/53/17 67/158/17
f 69/163/18 26/66/18 25/64/18 68/160/18
f 87/193/19 84/186/19 24/60/19 68/159/19
f 86/190/20 83/184/20 26/67/20 69/161/20
f 84/187/21 85/189/21 27/68/21 24/61/21
f 70/164/22 29/73/22 31/77/22 71/165/22
f 70/164/23 28/71/23 34/83/23 73/167/23
f 10/26/24 1/3/24 28/70/24 30/74/24
f 64/154/25 10/27/25 30/75/25 71/165/25
f 34/82/26 32/78/26 36/86/26 38/90/26
f 60/149/27 5/15/27 33/81/27 72/166/27
f 5/16/28 29/72/28 35/84/28 33/80/28
f 28/70/29 1/3/29 32/78/29 34/82/29
f 37/88/30 39/92/30 43/103/30 41/97/30
f 73/167/31 34/83/31 38/91/31 75/169/31
f 33/80/32 35/84/32 39/92/32 37/88/32
f 72/166/33 33/81/33 37/89/33 74/168/33
f 76/171/34 41/98/34 43/104/34 77/173/34
f 74/168/35 37/89/35 41/99/35 76/170/35
f 38/90/36 36/86/36 40/94/36 42/100/36
f 75/169/37 38/91/37 42/101/37 77/172/37
f 102/219/38 97/211/38 51/127/38 81/180/38
f 91/199/39 10/27/39 45/109/39 93/203/39
f 90/197/40 13/34/40 46/112/40 92/201/40
f 61/150/41 9/24/41 44/106/41 78/174/41
f 64/154/42 14/35/42 47/115/42 79/176/42
f 96/209/43 94/206/43 50/124/43 80/179/43
f 101/218/44 99/215/44 48/118/44 80/178/44
f 104/221/45 98/213/45 49/121/45 95/208/45
f 103/220/46 100/217/46 50/125/46 94/205/46
f 8/23/47 53/135/47 52/131/47
f 8/23/48 52/131/48 4/10/48 106/225/48 3/7/48 55/140/48 7/20/48
f 54/138/49 58/145/49 89/196/49 5/16/49 107/227/49 6/18/49 57/144/49
f 100/216/50 101/218/50 80/178/50 50/126/50
f 95/207/51 96/209/51 80/179/51 48/119/51
f 10/27/52 64/154/52 79/176/52 45/109/52
f 13/34/53 61/150/53 78/174/53 46/112/53
f 98/212/54 102/219/54 81/180/54 49/122/54
f 39/93/55 75/169/55 77/172/55 43/105/55
f 36/87/56 74/168/56 76/170/56 40/95/56
f 40/96/57 76/171/57 77/173/57 42/102/57
f 32/79/58 72/166/58 74/168/58 36/87/58
f 35/85/59 73/167/59 75/169/59 39/93/59
f 1/2/60 60/149/60 72/166/60 32/79/60
f 14/35/61 64/154/61 71/165/61 31/77/61
f 29/73/62 70/164/62 73/167/62 35/85/62
f 28/71/63 70/164/63 71/165/63 30/75/63
f 85/189/64 86/191/64 69/162/64 27/68/64
f 82/182/65 87/193/65 68/159/65 25/65/65
f 27/69/66 69/163/66 68/160/66 24/62/66
f 11/29/67 62/151/67 67/158/67 22/56/67
f 18/44/68 66/156/68 65/155/68 20/51/68
f 7/21/69 55/141/69 63/152/69 12/30/69
f 22/56/70 67/158/70 65/155/70 17/43/70
f 9/24/71 61/150/71 62/151/71 11/29/71
f 19/49/72 66/156/72 87/193/72 82/182/72
f 12/31/73 18/45/73 20/52/73 21/54/73 16/41/73
f 66/157/74 18/48/74 84/187/74 87/194/74
f 23/57/75 19/50/75 82/183/75 83/184/75
f 49/123/76 81/181/76 96/209/76 95/207/76
f 97/210/77 103/220/77 94/205/77 51/128/77
f 99/214/78 104/221/78 95/208/78 48/120/78
f 81/181/79 51/129/79 94/206/79 96/209/79
f 14/35/80 90/197/80 92/201/80 47/115/80
f 9/24/81 91/199/81 93/203/81 44/106/81
f 3/8/82 88/195/82 91/200/82 9/25/82
f 5/16/83 89/196/83 90/198/83 14/36/83
f 44/107/84 93/204/84 104/221/84 99/214/84
f 47/116/85 92/202/85 103/220/85 97/210/85
f 45/110/86 79/177/86 102/219/86 98/212/86
f 46/113/87 78/175/87 101/218/87 100/216/87
f 92/202/88 46/114/88 100/217/88 103/220/88
f 93/204/89 45/111/89 98/213/89 104/221/89
f 78/175/90 44/108/90 99/215/90 101/218/90
f 79/177/91 47/117/91 97/211/91 102/219/91
f 59/146/92 4/11/92 52/130/92 53/133/92 54/136/92 108/228/92
f 136/291/93 110/234/93 109/231/93 135/289/93
f 121/264/94 120/262/94 114/246/94 117/254/94
f 139/297/95 111/237/95 110/235/95 136/290/95
f 135/288/96 109/232/96 112/240/96 144/307/96
f 144/306/97 112/241/97 111/238/97 139/296/97
f 111/239/98 112/242/98 109/233/98 110/236/98
f 117/255/99 114/247/99 116/252/99 115/249/99 113/243/99
f 124/270/100 121/263/100 117/256/100 113/244/100
f 120/261/101 129/277/101 116/253/101 114/248/101
f 130/279/102 124/269/102 113/245/102 115/250/102
f 129/277/103 130/278/103 115/251/103 116/253/103
f 57/144/104 56/142/104 132/282/104 127/275/104
f 127/275/105 132/282/105 131/280/105 128/276/105
f 128/276/106 131/280/106 130/278/106 129/277/106
f 56/143/107 2/4/107 126/273/107 132/283/107
f 132/283/108 126/273/108 125/271/108 131/281/108
f 131/281/109 125/271/109 124/269/109 130/279/109
f 54/138/110 57/144/110 127/275/110 118/257/110
f 118/257/111 127/275/111 128/276/111 119/259/111
f 119/259/112 128/276/112 129/277/112 120/261/112
f 2/5/113 108/230/113 123/267/113 126/274/113
f 126/274/114 123/267/114 122/265/114 125/272/114
f 125/272/115 122/265/115 121/263/115 124/270/115
f 108/229/116 54/137/116 118/258/116 123/268/116
f 123/268/117 118/258/117 119/260/117 122/266/117
f 122/266/118 119/260/118 120/262/118 121/264/118
f 54/138/119 142/302/119 141/300/119 53/134/119
f 142/302/120 143/304/120 140/298/120 141/300/120
f 143/304/121 144/306/121 139/296/121 140/298/121
f 4/12/122 133/284/122 142/303/122 54/139/122
f 133/284/123 134/286/123 143/305/123 142/303/123
f 134/286/124 135/288/124 144/307/124 143/305/124
f 53/135/125 141/301/125 138/294/125 52/131/125
f 141/301/126 140/299/126 137/292/126 138/294/126
f 140/299/127 139/297/127 136/290/127 137/292/127
f 52/132/128 138/295/128 133/285/128 4/13/128
f 138/295/129 137/293/129 134/287/129 133/285/129
f 137/293/130 136/291/130 135/289/130 134/287/130
f 105/223/131 1/3/131 88/195/131 59/147/131 108/230/131 2/5/131
f 86/192/132 85/188/132 83/185/132
f 83/185/133 85/188/133 18/46/133 23/58/133
f 63/153/134 15/39/134 23/59/134 18/47/134 12/32/134
f 84/187/135 18/48/135 85/189/135
l 52 106
