# Blender 3.3.1
# www.blender.org
mtllib monstruo_3_caminar512.mtl
o monstruo_grande
v 0.432557 1.995569 0.223364
v 0.518322 1.167490 0.114335
v -0.692231 1.809924 0.171853
v -0.313884 1.122941 0.200583
v 0.579244 2.279125 -0.127565
v 0.546240 1.588000 -0.232069
v -0.807847 2.046192 -0.235288
v -0.716967 1.753782 -0.307556
v -0.254755 2.404737 0.470770
v 0.295516 2.277414 0.424421
v -0.387416 2.375704 0.568072
v -1.180036 2.129847 -0.070165
v -0.242325 2.579169 0.117719
v 0.291712 2.421853 0.165801
v -1.033828 1.981635 0.068074
v -0.398376 2.661515 0.147560
v -0.740237 2.306840 0.588259
v -1.461067 2.057902 0.213156
v -1.173671 2.074046 0.398261
v -0.909198 2.652294 0.355686
v -0.576280 2.712769 0.229259
v -0.464711 2.330686 0.538932
v -1.162855 2.011098 0.079447
v -1.785081 0.796228 0.882061
v -1.658685 0.770270 0.923541
v -1.659588 0.589020 0.726586
v -1.736737 0.604865 0.701268
v 0.454405 2.188467 0.404117
v 0.545985 2.382178 0.142082
v 0.412025 2.302691 0.417586
v 0.423729 2.437758 0.190915
v 0.685667 1.868298 0.195460
v 0.788434 1.975618 0.018281
v 0.706553 1.950468 0.248011
v 0.780249 2.068690 0.093670
v 0.857079 1.659217 0.105179
v 0.932557 1.694596 0.026888
v 0.936560 1.604219 0.147283
v 1.009617 1.651626 0.070944
v 0.854066 1.503139 0.102823
v 1.010225 1.598153 -0.053053
v 0.951979 1.365919 0.204940
v 1.178831 1.508040 -0.037173
v -0.091347 2.443056 0.492157
v 0.117627 2.411248 0.474141
v -0.086873 2.549452 0.246960
v 0.112044 2.514897 0.231785
v -0.049053 2.760626 0.626925
v 0.158683 2.701273 0.591786
v -0.062693 2.864952 0.369940
v 0.145184 2.805593 0.335206
v -0.504719 1.168722 -0.026216
v -0.375503 1.210160 -0.228193
v -0.041653 1.274395 -0.334797
v -0.748683 1.859662 -0.044236
v 0.554597 1.168347 -0.121967
v 0.342432 1.167608 -0.259673
v 0.015275 1.520728 -0.330654
v -0.030191 1.143279 0.191726
v 0.482946 2.080295 0.105376
v -0.243893 2.466028 0.346677
v -0.394552 2.630889 0.416672
v -0.963093 2.043055 -0.045507
v 0.275023 2.407234 0.325945
v -0.748413 2.536740 0.564309
v -1.337774 2.185307 0.455963
v -0.547265 2.624344 0.412580
v -1.732033 0.783402 0.933825
v -1.689896 0.478570 0.614659
v 0.538217 2.296233 0.300938
v 0.421629 2.415112 0.326987
v 0.690970 1.906323 0.067605
v 0.785295 2.021255 0.199642
v 0.893702 1.680959 0.066484
v 0.972796 1.626921 0.108609
v 0.911502 1.558710 0.011139
v 1.030092 1.454030 0.060805
v -0.090527 2.495413 0.369012
v 0.113048 2.464032 0.352627
v -0.087304 2.813088 0.500224
v 0.183236 2.753114 0.461663
v -1.520342 1.086698 0.853404
v -1.590968 0.914350 0.794350
v -1.739959 1.101569 0.784281
v -1.709937 0.938782 0.755308
v -1.662195 0.758220 0.705257
v -1.651460 1.077633 0.872442
v -0.029072 1.774616 0.502908
v 0.132039 2.143018 -0.211928
v 0.111444 2.522766 0.052561
v 0.056640 2.272920 0.604707
v 0.009452 2.531426 0.238770
v 0.017163 2.429666 0.483472
v 0.039275 2.850928 0.314013
v 0.056864 2.715312 0.647878
v 0.049662 2.834535 0.501648
v 0.142967 2.668692 0.259709
v 0.155203 2.549714 0.552795
v -0.083125 2.593929 0.582681
v -0.096079 2.714111 0.288471
v -0.106970 2.653847 0.436397
v 0.164177 2.609351 0.405038
v 0.021704 2.699498 0.253799
v 0.037390 2.563804 0.587448
v 0.444807 1.683960 -0.013113
v -0.583297 1.511130 0.202551
v 0.552167 1.802695 -0.232530
v 0.161581 1.160841 0.201836
v -0.243913 0.070832 -0.267800
v -0.399960 0.061895 -0.160899
v -0.400336 0.095058 -0.409513
v -0.264363 0.090587 -0.411220
v 0.308803 -0.010816 0.234413
v 0.236367 -0.026104 0.159081
v 0.318688 -0.017131 0.196513
v 0.287495 -0.023119 0.170407
v 0.249617 -0.010187 0.244088
v 0.086876 0.837378 -0.083220
v 0.137005 0.575738 0.045842
v 0.177280 0.286565 0.139100
v 0.204811 0.300151 0.318293
v 0.182285 0.556806 0.340275
v 0.185380 0.834895 0.321012
v 0.327784 0.297143 0.297967
v 0.389876 0.556732 0.305592
v 0.475147 0.890160 0.256721
v 0.342686 0.859053 -0.047400
v 0.315355 0.577338 0.083292
v 0.283410 0.287399 0.162813
v 0.348319 0.291931 0.218122
v 0.425377 0.585994 0.173082
v 0.507002 0.887551 0.067621
v -0.218744 0.833865 0.252468
v -0.203846 0.553349 0.132405
v -0.208948 0.326335 0.041891
v -0.491743 0.339054 0.002198
v -0.486981 0.608536 0.062295
v -0.495378 0.862791 0.108223
v -0.495283 0.443974 -0.246299
v -0.489109 0.712729 -0.186620
v -0.485878 0.922441 -0.162013
v -0.092158 0.860579 -0.164990
v -0.144612 0.679351 -0.202937
v -0.200034 0.474189 -0.238708
vn -0.0444 0.5778 -0.8149
vn -0.0380 0.0865 -0.9955
vn 0.5334 -0.2047 -0.8207
vn -0.2827 -0.2604 0.9232
vn 0.9528 -0.0242 0.3025
vn 0.6539 0.7277 0.2071
vn 0.1044 0.9096 -0.4021
vn 0.5869 -0.2592 0.7670
vn -0.0044 0.8862 0.4633
vn -0.1158 0.5792 -0.8069
vn -0.1636 -0.5053 0.8473
vn -0.4726 -0.8287 -0.2999
vn -0.1765 -0.1848 0.9668
vn 0.2696 -0.9128 0.3067
vn 0.9403 -0.3027 0.1553
vn 0.0104 -0.8093 0.5873
vn 0.1847 0.9537 0.2375
vn 0.0104 -0.7275 0.6860
vn -0.6227 0.3201 0.7140
vn 0.9112 -0.0377 -0.4103
vn -0.8904 0.0694 -0.4498
vn 0.6221 0.7277 0.2888
vn 0.5754 0.1573 0.8026
vn -0.1935 -0.5336 0.8233
vn -0.0598 0.6125 0.7882
vn -0.4748 -0.5730 0.6680
vn -0.3937 -0.5162 -0.7606
vn 0.8089 0.5476 -0.2141
vn -0.1711 -0.6217 0.7643
vn 0.5107 0.7904 -0.3383
vn 0.5503 0.0955 0.8295
vn 0.7149 0.3942 -0.5776
vn -0.3964 -0.2844 -0.8729
vn -0.2518 -0.6211 -0.7422
vn -0.6364 0.1854 -0.7488
vn -0.5621 0.0975 0.8213
vn 0.7929 0.1543 0.5895
vn 0.9787 0.0220 -0.2043
vn 0.4358 0.5087 0.7425
vn 0.1689 0.9849 0.0371
vn -0.2438 0.8855 0.3955
vn 0.4421 0.8678 0.2269
vn 0.0177 0.9774 0.2106
vn -0.9651 0.0760 0.2508
vn 0.3272 -0.3168 0.8902
vn -0.2909 0.4458 -0.8465
vn -0.6771 -0.5036 -0.5365
vn -0.9150 -0.3652 0.1717
vn 0.1405 0.0928 -0.9857
vn -0.9805 0.1904 -0.0484
vn 0.0347 0.8485 0.5280
vn 0.5042 0.6918 0.5168
vn -0.2044 0.8849 0.4184
vn 0.9917 -0.1013 0.0790
vn 0.5848 0.0190 0.8110
vn -0.8285 0.0711 -0.5555
vn -0.3446 -0.7005 -0.6249
vn -0.7379 -0.5545 -0.3847
vn 0.8440 0.3806 0.3779
vn -0.5283 -0.7057 -0.4721
vn -0.0955 0.9884 0.1183
vn 0.7756 0.5605 0.2903
vn 0.6504 0.3273 0.6855
vn -0.4529 0.2425 -0.8579
vn 0.1432 0.1590 0.9768
vn -0.6591 -0.5900 0.4663
vn -0.2201 0.4116 0.8844
vn -0.6378 0.6678 0.3838
vn -0.4698 -0.7882 -0.3974
vn 0.3066 0.3114 0.8995
vn 0.6052 0.5186 0.6039
vn 0.3293 0.2724 0.9041
vn -0.4310 0.6763 -0.5973
vn -0.8178 0.4220 0.3914
vn 0.9452 -0.3226 0.0513
vn 0.4909 0.7267 0.4806
vn 0.2396 0.4000 -0.8847
vn -0.1987 -0.2759 0.9404
vn 0.4718 0.8737 0.1188
vn 0.3705 0.9280 0.0395
vn -0.0859 0.4967 0.8637
vn -0.4436 -0.1136 0.8890
vn 0.1551 0.7623 -0.6283
vn -0.0913 -0.5551 0.8268
vn 0.0226 0.1293 -0.9914
vn 0.9617 -0.2581 -0.0921
vn -0.9957 -0.0534 -0.0762
vn -0.1691 0.1666 -0.9714
vn 0.0809 -0.5665 0.8201
vn -0.9965 -0.0577 0.0611
vn 0.9610 -0.2179 -0.1704
vn 0.0799 -0.9705 -0.2275
vn 0.1091 -0.6533 0.7492
vn -0.9696 -0.1764 0.1694
vn -0.9649 -0.2549 -0.0632
vn 0.9924 -0.1031 -0.0677
vn -0.0124 0.4162 -0.9092
vn -0.0339 -0.9907 -0.1319
vn 0.0219 -0.9833 0.1809
vn 0.1549 -0.2087 0.9656
vn 0.2179 -0.0211 -0.9757
vn 0.9595 -0.1113 0.2588
vn 0.6470 -0.0094 -0.7625
vn 0.5054 -0.5135 -0.6935
vn 0.5832 -0.3961 -0.7093
vn 0.6263 -0.2727 -0.7303
vn 0.9852 -0.0662 0.1581
vn 0.9607 -0.2078 0.1840
vn 0.9485 -0.2232 0.2250
vn 0.0791 -0.5167 -0.8525
vn 0.1729 -0.4189 -0.8914
vn 0.2042 -0.2772 -0.9389
vn 0.1755 0.3869 0.9053
vn 0.1857 0.0823 0.9792
vn 0.1631 -0.0689 0.9842
vn -0.9529 -0.0444 0.3001
vn -0.9792 -0.0302 0.2006
vn -0.9842 -0.0936 0.1502
vn -0.1418 -0.2862 -0.9476
vn -0.0053 0.1587 -0.9873
vn -0.0124 0.1990 -0.9799
vn 0.8936 0.1857 0.4087
vn 0.9665 -0.1499 0.2082
vn 0.9877 -0.1507 0.0423
vn -0.9610 0.0735 -0.2666
vn -0.9998 -0.0086 -0.0169
vn -0.9997 0.0163 0.0182
vn -0.6016 0.1406 0.7863
vn -0.3799 -0.2893 0.8786
vn -0.2151 -0.2796 0.9357
vn 0.5365 -0.1793 0.8247
vn 0.3552 0.3358 -0.8724
vn -0.2680 -0.4121 -0.8708
vn -0.3048 -0.7647 -0.5677
vn -0.8504 -0.0639 -0.5222
vt 0.461701 0.809397
vt 0.301930 0.729761
vt 0.094158 0.499911
vt 0.498737 0.648456
vt 0.250869 0.553264
vt 0.714874 0.752530
vt 0.627854 0.740386
vt 0.227533 0.339544
vt 0.300362 0.438253
vt 0.625828 0.633709
vt 0.338991 0.679376
vt 0.653754 0.621457
vt 0.189641 0.785401
vt 0.531284 0.815038
vt 0.232114 0.729761
vt 0.806952 0.326283
vt 0.527824 0.712310
vt 0.703640 0.331352
vt 0.725736 0.123548
vt 0.557184 0.740386
vt 0.714874 0.681901
vt 0.693091 0.138725
vt 0.558638 0.706064
vt 0.944491 0.391302
vt 0.108931 0.369345
vt 0.090202 0.443431
vt 0.952837 0.467016
vt 0.108059 0.346292
vt 0.960024 0.371234
vt 0.653754 0.712739
vt 0.761990 0.055860
vt 0.265996 0.788213
vt 0.829683 0.188590
vt 0.886815 0.394232
vt 0.909606 0.471204
vt 0.826550 0.267021
vt 0.659457 0.749480
vt 0.206417 0.267620
vt 0.238389 0.812575
vt 0.882743 0.373659
vt 0.837846 0.166681
vt 0.102618 0.289588
vt 0.957957 0.321520
vt 0.918648 0.216117
vt 0.803322 0.012950
vt 0.106348 0.638847
vt 0.232551 0.755661
vt 0.798789 0.485160
vt 0.965752 0.239402
vt 0.153968 0.222285
vt 0.894228 0.312474
vt 0.856067 0.102710
vt 0.881967 0.351902
vt 0.842627 0.144082
vt 0.107159 0.331692
vt 0.958812 0.358201
vt 0.199778 0.246429
vt 0.138792 0.619338
vt 0.232114 0.797406
vt 0.967580 0.012950
vt 0.753483 0.682459
vt 0.843831 0.469074
vt 0.256421 0.022764
vt 0.824689 0.472884
vt 0.987050 0.016155
vt 0.832147 0.505580
vt 0.295109 0.018166
vt 0.782932 0.707368
vt 0.843831 0.503254
vt 0.076417 0.467161
vt 0.958695 0.494573
vt 0.833773 0.298242
vt 0.909847 0.503107
vt 0.076958 0.454690
vt 0.951531 0.482650
vt 0.837149 0.281767
vt 0.912926 0.487172
vt 0.064432 0.532285
vt 0.298790 0.687460
vt 0.825577 0.362572
vt 0.264894 0.686125
vt 0.056614 0.518895
vt 0.959622 0.549977
vt 0.837123 0.350740
vt 0.929664 0.555276
vt 0.051257 0.577890
vt 0.291936 0.641182
vt 0.824256 0.407314
vt 0.275162 0.640522
vt 0.035793 0.577862
vt 0.964581 0.612577
vt 0.838997 0.411720
vt 0.948088 0.615681
vt 0.039898 0.592711
vt 0.301778 0.620707
vt 0.403076 0.772170
vt 0.830596 0.428615
vt 0.403076 0.737417
vt 0.267017 0.619338
vt 0.012950 0.593438
vt 0.987050 0.637067
vt 0.428919 0.781443
vt 0.856067 0.440612
vt 0.428919 0.728949
vt 0.935424 0.646785
vt 0.945356 0.412724
vt 0.357115 0.854737
vt 0.331665 0.779032
vt 0.948027 0.441601
vt 0.799629 0.752473
vt 0.327972 0.853161
vt 0.906904 0.416128
vt 0.370069 0.779032
vt 0.684668 0.778429
vt 0.909575 0.445005
vt 0.655249 0.778999
vt 0.799629 0.791035
vt 0.330193 0.729131
vt 0.557184 0.775635
vt 0.363063 0.804932
vt 0.331684 0.807874
vt 0.754247 0.751428
vt 0.586563 0.768755
vt 0.566112 0.815056
vt 0.689281 0.828405
vt 0.370405 0.729131
vt 0.754247 0.791805
vt 0.657717 0.824383
vt 0.595492 0.808176
vt 0.327830 0.637821
vt 0.590400 0.642651
vt 0.164818 0.789976
vt 0.357235 0.619338
vt 0.642851 0.190721
vt 0.562581 0.649581
vt 0.406824 0.626953
vt 0.080449 0.619338
vt 0.646201 0.239681
vt 0.727583 0.656002
vt 0.597847 0.731399
vt 0.712829 0.722239
vt 0.658284 0.323708
vt 0.527919 0.666449
vt 0.661748 0.291537
vt 0.680225 0.245582
vt 0.377645 0.696957
vt 0.285191 0.477898
vt 0.483372 0.812325
vt 0.280072 0.728266
vt 0.924330 0.393087
vt 0.921760 0.373660
vt 0.678504 0.727397
vt 0.268491 0.812575
vt 0.930826 0.465310
vt 0.923786 0.327561
vt 0.941993 0.227167
vt 0.764056 0.466512
vt 0.919524 0.351927
vt 0.977463 0.013354
vt 0.833186 0.466512
vt 0.317617 0.012950
vt 0.798789 0.722800
vt 0.839639 0.522681
vt 0.934403 0.500152
vt 0.932138 0.484309
vt 0.281656 0.689101
vt 0.944784 0.554368
vt 0.283549 0.640852
vt 0.956335 0.614129
vt 0.284323 0.620942
vt 0.399765 0.754789
vt 0.961112 0.640376
vt 0.422297 0.755187
vt 0.926130 0.414426
vt 0.350867 0.779032
vt 0.928801 0.443303
vt 0.799629 0.771754
vt 0.350773 0.728949
vt 0.557184 0.796361
vt 0.753483 0.771844
vt 0.595492 0.787450
vt 0.985581 0.067358
vt 0.238180 0.070710
vt 0.259592 0.052321
vt 0.138792 0.821791
vt 0.953366 0.057503
vt 0.765454 0.639660
vt 0.120235 0.821584
vt 0.772730 0.660154
vt 0.283154 0.037949
vt 0.784440 0.682652
vt 0.128680 0.843910
vt 0.970110 0.058056
vt 0.758353 0.637393
vt 0.180368 0.432154
vt 0.759258 0.257498
vt 0.884976 0.446549
vt 0.828099 0.241547
vt 0.971226 0.428512
vt 0.101516 0.405509
vt 0.908240 0.430567
vt 0.669958 0.778714
vt 0.946692 0.427163
vt 0.342544 0.853949
vt 0.673120 0.826722
vt 0.582140 0.817526
vt 0.570535 0.766286
vt 0.348248 0.806122
vt 0.576699 0.792002
vt 0.653753 0.802281
vt 0.776512 0.794925
vt 0.776512 0.748700
vt 0.327830 0.829868
vt 0.363063 0.830170
vt 0.327830 0.753980
vt 0.373865 0.753980
vt 0.689281 0.803194
vt 0.351093 0.753886
vt 0.776117 0.771930
vt 0.671321 0.802907
vt 0.345899 0.829874
vt 0.457498 0.727404
vt 0.165986 0.548054
vt 0.260364 0.376248
vt 0.625887 0.695531
vt 0.520555 0.743605
vt 0.734596 0.339638
vt 0.406824 0.703049
vt 0.012950 0.651015
vt 0.277407 0.507014
vt 0.206214 0.619338
vt 0.706517 0.466512
vt 0.399765 0.822801
vt 0.181517 0.620770
vt 0.619265 0.470337
vt 0.422433 0.807343
vt 0.582936 0.466512
vt 0.458892 0.202188
vt 0.422433 0.843958
vt 0.727583 0.468029
vt 0.460639 0.221880
vt 0.402692 0.843997
vt 0.717439 0.778459
vt 0.429089 0.593438
vt 0.518160 0.466685
vt 0.070962 0.817001
vt 0.726094 0.791097
vt 0.457498 0.298878
vt 0.715181 0.783741
vt 0.523936 0.466512
vt 0.458951 0.311476
vt 0.719061 0.788282
vt 0.458165 0.306435
vt 0.058766 0.817583
vt 0.726094 0.778429
vt 0.431598 0.585369
vt 0.599953 0.261833
vt 0.080449 0.668491
vt 0.542336 0.274386
vt 0.076079 0.728305
vt 0.500395 0.287212
vt 0.064936 0.773359
vt 0.389801 0.564275
vt 0.039540 0.774208
vt 0.356388 0.547019
vt 0.031995 0.737396
vt 0.319737 0.531779
vt 0.030523 0.696843
vt 0.505723 0.512116
vt 0.384015 0.580847
vt 0.506522 0.550736
vt 0.346302 0.574833
vt 0.507607 0.604105
vt 0.294291 0.566034
vt 0.610540 0.298468
vt 0.545535 0.300686
vt 0.502363 0.302883
vt 0.504402 0.313331
vt 0.517745 0.511765
vt 0.548610 0.318269
vt 0.527842 0.556627
vt 0.609940 0.323717
vt 0.531284 0.618364
vt 0.660591 0.582499
vt 0.204501 0.743892
vt 0.668589 0.550878
vt 0.206214 0.710848
vt 0.668004 0.517120
vt 0.204545 0.678125
vt 0.623877 0.525891
vt 0.164692 0.675333
vt 0.610236 0.563455
vt 0.167167 0.712219
vt 0.605277 0.597358
vt 0.166352 0.745757
vt 0.511839 0.183186
vt 0.584607 0.521652
vt 0.552303 0.182624
vt 0.569857 0.561129
vt 0.598009 0.178631
vt 0.565182 0.606784
vt 0.592158 0.236754
vt 0.721184 0.600612
vt 0.550092 0.232946
vt 0.722606 0.558204
vt 0.518921 0.225772
vt 0.713819 0.525134
s 0
usemtl Material
f 89/196/1 7/19/1 13/33/1 90/198/1
f 8/22/2 7/19/2 89/196/2 58/145/2 54/138/2 53/134/2
f 6/18/3 56/142/3 57/144/3
f 3/8/4 106/224/4 4/9/4 59/147/4 88/195/4
f 6/17/5 107/226/5 5/14/5 60/148/5 1/1/5 105/222/5 2/4/5 56/143/5
f 61/150/6 13/34/6 16/40/6 62/151/6
f 5/16/7 14/36/7 31/76/7 29/72/7
f 88/195/8 1/3/8 10/26/8 91/200/8
f 67/158/9 21/53/9 20/51/9 65/155/9
f 13/33/10 7/19/10 12/31/10 16/41/10
f 3/8/11 9/25/11 11/28/11 15/38/11
f 55/141/12 3/6/12 15/37/12 63/152/12
f 66/156/13 19/49/13 17/43/13 65/155/13
f 23/57/14 22/55/14 17/42/14 19/50/14
f 83/184/15 82/183/15 25/63/15 26/67/15
f 15/38/16 11/28/16 22/55/16 23/57/16
f 62/151/17 16/40/17 21/53/17 67/158/17
f 69/163/18 26/66/18 25/64/18 68/160/18
f 87/193/19 84/186/19 24/60/19 68/159/19
f 86/190/20 83/184/20 26/67/20 69/161/20
f 84/187/21 85/189/21 27/68/21 24/61/21
f 70/164/22 29/73/22 31/77/22 71/165/22
f 70/164/23 28/71/23 34/83/23 73/167/23
f 10/26/24 1/3/24 28/70/24 30/74/24
f 64/154/25 10/27/25 30/75/25 71/165/25
f 34/82/26 32/78/26 36/86/26 38/90/26
f 60/149/27 5/15/27 33/81/27 72/166/27
f 5/16/28 29/72/28 35/84/28 33/80/28
f 28/70/29 1/3/29 32/78/29 34/82/29
f 37/88/30 39/92/30 43/103/30 41/97/30
f 73/167/31 34/83/31 38/91/31 75/169/31
f 33/80/32 35/84/32 39/92/32 37/88/32
f 72/166/33 33/81/33 37/89/33 74/168/33
f 76/171/34 41/98/34 43/104/34 77/173/34
f 74/168/35 37/89/35 41/99/35 76/170/35
f 38/90/36 36/86/36 40/94/36 42/100/36
f 75/169/37 38/91/37 42/101/37 77/172/37
f 102/219/38 97/211/38 51/127/38 81/180/38
f 91/199/39 10/27/39 45/109/39 93/203/39
f 90/197/40 13/34/40 46/112/40 92/201/40
f 61/150/41 9/24/41 44/106/41 78/174/41
f 64/154/42 14/35/42 47/115/42 79/176/42
f 96/209/43 94/206/43 50/124/43 80/179/43
f 101/218/44 99/215/44 48/118/44 80/178/44
f 104/221/45 98/213/45 49/121/45 95/208/45
f 103/220/46 100/217/46 50/125/46 94/205/46
f 8/23/47 53/135/47 52/131/47
f 8/23/48 52/131/48 4/10/48 106/225/48 3/7/48 55/140/48 7/20/48
f 54/138/49 58/145/49 89/196/49 5/16/49 107/227/49 6/18/49 57/144/49
f 100/216/50 101/218/50 80/178/50 50/126/50
f 95/207/51 96/209/51 80/179/51 48/119/51
f 10/27/52 64/154/52 79/176/52 45/109/52
f 13/34/53 61/150/53 78/174/53 46/112/53
f 98/212/54 102/219/54 81/180/54 49/122/54
f 39/93/55 75/169/55 77/172/55 43/105/55
f 36/87/56 74/168/56 76/170/56 40/95/56
f 40/96/57 76/171/57 77/173/57 42/102/57
f 32/79/58 72/166/58 74/168/58 36/87/58
f 35/85/59 73/167/59 75/169/59 39/93/59
f 1/2/60 60/149/60 72/166/60 32/79/60
f 14/35/61 64/154/61 71/165/61 31/77/61
f 29/73/62 70/164/62 73/167/62 35/85/62
f 28/71/63 70/164/63 71/165/63 30/75/63
f 85/189/64 86/191/64 69/162/64 27/68/64
f 82/182/65 87/193/65 68/159/65 25/65/65
f 27/69/66 69/163/66 68/160/66 24/62/66
f 11/29/67 62/151/67 67/158/67 22/56/67
f 18/44/68 66/156/68 65/155/68 20/51/68
f 7/21/69 55/141/69 63/152/69 12/30/69
f 22/56/70 67/158/70 65/155/70 17/43/70
f 9/24/71 61/150/71 62/151/71 11/29/71
f 19/49/72 66/156/72 87/193/72 82/182/72
f 12/31/73 18/45/73 20/52/73 21/54/73 16/41/73
f 66/157/74 18/48/74 84/187/74 87/194/74
f 23/57/75 19/50/75 82/183/75 83/184/75
f 49/123/76 81/181/76 96/209/76 95/207/76
f 97/210/77 103/220/77 94/205/77 51/128/77
f 99/214/78 104/221/78 95/208/78 48/120/78
f 81/181/79 51/129/79 94/206/79 96/209/79
f 14/35/80 90/197/80 92/201/80 47/115/80
f 9/24/81 91/199/81 93/203/81 44/106/81
f 3/8/82 88/195/82 91/200/82 9/25/82
f 5/16/83 89/196/83 90/198/83 14/36/83
f 44/107/84 93/204/84 104/221/84 99/214/84
f 47/116/85 92/202/85 103/220/85 97/210/85
f 45/110/86 79/177/86 102/219/86 98/212/86
f 46/113/87 78/175/87 101/218/87 100/216/87
f 92/202/88 46/114/88 100/217/88 103/220/88
f 93/204/89 45/111/89 98/213/89 104/221/89
f 78/175/90 44/108/90 99/215/90 101/218/90
f 79/177/91 47/117/91 97/211/91 102/219/91
f 59/146/92 4/11/92 52/130/92 53/133/92 54/136/92 108/228/92
f 136/291/93 110/234/93 109/231/93 135/289/93
f 121/264/94 120/262/94 114/246/94 117/254/94
f 139/297/95 111/237/95 110/235/95 136/290/95
f 135/288/96 109/232/96 112/240/96 144/307/96
f 144/306/97 112/241/97 111/238/97 139/296/97
f 111/239/98 112/242/98 109/233/98 110/236/98
f 117/255/99 114/247/99 116/252/99 115/249/99 113/243/99
f 124/270/100 121/263/100 117/256/100 113/244/100
f 120/261/101 129/277/101 116/253/101 114/248/101
f 130/279/102 124/269/102 113/245/102 115/250/102
f 129/277/103 130/278/103 115/251/103 116/253/103
f 57/144/104 56/142/104 132/282/104 127/275/104
f 127/275/105 132/282/105 131/280/105 128/276/105
f 128/276/106 131/280/106 130/278/106 129/277/106
f 56/143/107 2/4/107 126/273/107 132/283/107
f 132/283/108 126/273/108 125/271/108 131/281/108
f 131/281/109 125/271/109 124/269/109 130/279/109
f 54/138/110 57/144/110 127/275/110 118/257/110
f 118/257/111 127/275/111 128/276/111 119/259/111
f 119/259/112 128/276/112 129/277/112 120/261/112
f 2/5/113 108/230/113 123/267/113 126/274/113
f 126/274/114 123/267/114 122/265/114 125/272/114
f 125/272/115 122/265/115 121/263/115 124/270/115
f 108/229/116 54/137/116 118/258/116 123/268/116
f 123/268/117 118/258/117 119/260/117 122/266/117
f 122/266/118 119/260/118 120/262/118 121/264/118
f 54/138/119 142/302/119 141/300/119 53/134/119
f 142/302/120 143/304/120 140/298/120 141/300/120
f 143/304/121 144/306/121 139/296/121 140/298/121
f 4/12/122 133/284/122 142/303/122 54/139/122
f 133/284/123 134/286/123 143/305/123 142/303/123
f 134/286/124 135/288/124 144/307/124 143/305/124
f 53/135/125 141/301/125 138/294/125 52/131/125
f 141/301/126 140/299/126 137/292/126 138/294/126
f 140/299/127 139/297/127 136/290/127 137/292/127
f 52/132/128 138/295/128 133/285/128 4/13/128
f 138/295/129 137/293/129 134/287/129 133/285/129
f 137/293/130 136/291/130 135/289/130 134/287/130
f 105/223/131 1/3/131 88/195/131 59/147/131 108/230/131 2/5/131
f 86/192/132 85/188/132 83/185/132
f 83/185/133 85/188/133 18/46/133 23/58/133
f 63/153/134 15/39/134 23/59/134 18/47/134 12/32/134
f 84/187/135 18/48/135 85/189/135
l 52 106
