# Blender 3.3.1
# www.blender.org
mtllib monstruo_3_grande_caminar618.mtl
o monstruo_grande
v 0.326522 2.028492 0.212043
v 0.525681 1.208810 0.087003
v -0.736680 1.710595 0.216393
v -0.288571 1.098731 0.217919
v 0.442642 2.324869 -0.138355
v 0.505841 1.624227 -0.253411
v -0.892725 1.938242 -0.189760
v -0.773331 1.661228 -0.268035
v -0.370322 2.373622 0.491810
v 0.189415 2.295619 0.427337
v -0.497613 2.336473 0.597554
v -1.255536 1.972514 -0.020715
v -0.385047 2.539364 0.134059
v 0.162809 2.438543 0.170864
v -1.093008 1.838716 0.127998
v -0.548658 2.604783 0.164320
v -0.847266 2.238595 0.627404
v -1.534299 1.892988 0.256690
v -1.248679 1.938091 0.449339
v -1.049408 2.547154 0.368712
v -0.729234 2.637811 0.241540
v -0.573986 2.287983 0.576960
v -1.225970 1.857660 0.135514
v -1.800683 0.633086 0.945934
v -1.672651 0.613272 0.985750
v -1.663982 0.440114 0.781827
v -1.742129 0.452209 0.757524
v 0.350995 2.217592 0.396823
v 0.419360 2.420787 0.135308
v 0.303041 2.330149 0.415282
v 0.293828 2.467482 0.190380
v 0.578332 1.915079 0.169453
v 0.669916 2.021673 -0.013472
v 0.602650 1.994527 0.219958
v 0.663067 2.117762 0.064451
v 0.755373 1.697363 0.078869
v 0.819808 1.738808 -0.006160
v 0.844868 1.662997 0.123414
v 0.906204 1.713412 0.039391
v 0.781997 1.544028 0.093538
v 0.912929 1.646487 -0.078795
v 0.906062 1.439766 0.205706
v 1.097106 1.592966 -0.059456
v -0.208783 2.434053 0.505817
v 0.001496 2.410476 0.483244
v -0.218065 2.533286 0.259226
v -0.016046 2.510155 0.239738
v -0.151440 2.748194 0.648889
v 0.053119 2.683032 0.606215
v -0.168666 2.861091 0.395411
v 0.034681 2.796452 0.352019
v -0.499338 1.121646 0.007232
v -0.388641 1.160503 -0.205637
v -0.056642 1.274784 -0.332799
v -0.801771 1.756672 -0.001563
v 0.547479 1.210298 -0.151097
v 0.326696 1.204502 -0.274262
v -0.028415 1.526609 -0.323744
v -0.008711 1.147747 0.194103
v 0.366664 2.117832 0.093257
v -0.369213 2.432496 0.365891
v -0.534145 2.583283 0.436519
v -1.029435 1.908901 0.006597
v 0.153465 2.422756 0.331169
v -0.883375 2.464692 0.585926
v -1.424709 2.037909 0.496261
v -0.686382 2.561872 0.436519
v -1.746584 0.621505 0.996897
v -1.688343 0.332468 0.665791
v 0.424423 2.330647 0.292044
v 0.299084 2.443776 0.325781
v 0.577182 1.951111 0.043224
v 0.675777 2.068210 0.169131
v 0.786268 1.721149 0.036527
v 0.875384 1.687469 0.081058
v 0.826059 1.598489 -0.005889
v 0.963228 1.523863 0.049823
v -0.213447 2.483088 0.381218
v -0.008489 2.461248 0.360883
v -0.191177 2.805992 0.524998
v 0.075463 2.738616 0.476717
v -1.554255 0.940026 0.927446
v -1.614726 0.766130 0.862000
v -1.775045 0.944668 0.859865
v -1.735234 0.784779 0.824523
v -1.676995 0.609544 0.767181
v -1.684442 0.922263 0.946743
v -0.077752 1.759192 0.515583
v 0.013760 2.140227 -0.195617
v -0.025777 2.513491 0.059606
v -0.040903 2.269622 0.618011
v -0.118351 2.520613 0.247602
v -0.100135 2.421436 0.493930
v -0.069912 2.845408 0.335321
v -0.046641 2.698676 0.665492
v -0.053561 2.822746 0.523339
v 0.023426 2.662719 0.271237
v 0.042363 2.535586 0.561855
v -0.193062 2.584539 0.599844
v -0.213978 2.711290 0.307707
v -0.219496 2.649090 0.455492
v 0.048587 2.599025 0.415064
v -0.097112 2.695312 0.269019
v -0.073166 2.550307 0.600702
v 0.383281 1.724650 -0.032270
v -0.596030 1.436104 0.228881
v 0.484808 1.843865 -0.250791
v 0.179102 1.185522 0.197200
v -0.200001 -0.002979 -0.121441
v -0.344547 0.002483 0.000682
v -0.370045 0.003612 -0.249014
v -0.234874 -0.001726 -0.263564
v 0.356153 0.017710 0.318762
v 0.273865 -0.010823 0.258744
v 0.360565 0.004868 0.281503
v 0.326061 -0.005739 0.261754
v 0.299025 0.019770 0.336832
v 0.090916 0.854571 -0.085575
v 0.134677 0.576678 0.081659
v 0.199218 0.300045 0.203352
v 0.260492 0.334134 0.371158
v 0.235468 0.591486 0.368671
v 0.226984 0.865597 0.318618
v 0.377239 0.329566 0.327638
v 0.431764 0.588038 0.293858
v 0.504119 0.926145 0.218425
v 0.348217 0.889621 -0.071895
v 0.316743 0.583989 0.085971
v 0.307830 0.304260 0.205686
v 0.382065 0.315435 0.246392
v 0.441159 0.603121 0.153054
v 0.520340 0.924838 0.029070
v -0.172259 0.824199 0.281366
v -0.146559 0.543310 0.195286
v -0.142544 0.306599 0.143946
v -0.427759 0.297704 0.132941
v -0.438118 0.571761 0.147412
v -0.460727 0.826762 0.158430
v -0.463028 0.361048 -0.127187
v -0.471068 0.637585 -0.114708
v -0.476555 0.868049 -0.116681
v -0.080456 0.829137 -0.150118
v -0.128159 0.621742 -0.161922
v -0.171485 0.408212 -0.155652
vn -0.1290 0.5517 -0.8240
vn -0.0902 0.0929 -0.9916
vn 0.4839 -0.1638 -0.8597
vn -0.2117 -0.3141 0.9255
vn 0.9459 0.0862 0.3128
vn 0.5775 0.7988 0.1687
vn 0.0089 0.9188 -0.3946
vn 0.6597 -0.2098 0.7217
vn -0.1125 0.9071 0.4056
vn -0.2066 0.5401 -0.8159
vn -0.0633 -0.5013 0.8629
vn -0.3794 -0.8758 -0.2983
vn -0.1761 -0.1309 0.9756
vn 0.3704 -0.8505 0.3735
vn 0.9581 -0.2507 0.1388
vn 0.0628 -0.7408 0.6688
vn 0.0792 0.9778 0.1942
vn 0.0594 -0.7517 0.6568
vn -0.6354 0.2534 0.7295
vn 0.9088 0.0339 -0.4158
vn -0.8960 0.0321 -0.4429
vn 0.5841 0.7631 0.2767
vn 0.6150 0.1606 0.7720
vn -0.1162 -0.5612 0.8195
vn -0.0753 0.6011 0.7956
vn -0.3949 -0.5517 0.7346
vn -0.4252 -0.5147 -0.7445
vn 0.7752 0.5800 -0.2503
vn -0.1011 -0.6452 0.7573
vn 0.3476 0.8243 -0.4470
vn 0.5781 0.1508 0.8019
vn 0.6552 0.3914 -0.6462
vn -0.4437 -0.3116 -0.8403
vn -0.1442 -0.7438 -0.6527
vn -0.6831 -0.0318 -0.7296
vn -0.5534 0.0843 0.8287
vn 0.7615 0.3642 0.5362
vn 0.9701 -0.0091 -0.2423
vn 0.4098 0.5632 0.7176
vn 0.0795 0.9966 -0.0222
vn -0.3368 0.8630 0.3765
vn 0.3553 0.9105 0.2115
vn 0.0579 0.9694 0.2385
vn -0.9537 0.1036 0.2825
vn 0.3436 -0.3629 0.8662
vn -0.3018 0.4922 -0.8165
vn -0.6768 -0.5769 -0.4573
vn -0.8609 -0.4642 0.2082
vn 0.0726 0.1227 -0.9898
vn -0.9724 0.2333 0.0004
vn 0.0780 0.8293 0.5533
vn 0.4471 0.7374 0.5063
vn -0.2945 0.8670 0.4019
vn 0.9887 -0.1444 0.0400
vn 0.5873 0.2196 0.7790
vn -0.8379 -0.1488 -0.5252
vn -0.2192 -0.8185 -0.5311
vn -0.7482 -0.5725 -0.3352
vn 0.8429 0.4285 0.3253
vn -0.5267 -0.7198 -0.4521
vn -0.1826 0.9749 0.1277
vn 0.7689 0.5841 0.2599
vn 0.6644 0.3585 0.6558
vn -0.4730 0.2477 -0.8455
vn 0.1404 0.1293 0.9816
vn -0.6188 -0.6468 0.4459
vn -0.2139 0.4429 0.8707
vn -0.7118 0.6112 0.3459
vn -0.3818 -0.8374 -0.3910
vn 0.2518 0.3961 0.8830
vn 0.5720 0.5957 0.5639
vn 0.2817 0.3218 0.9039
vn -0.4930 0.5842 -0.6448
vn -0.8423 0.3927 0.3692
vn 0.9592 -0.2696 0.0853
vn 0.5288 0.6938 0.4889
vn 0.2271 0.4236 -0.8769
vn -0.1849 -0.3009 0.9356
vn 0.5032 0.8546 0.1280
vn 0.2809 0.9597 0.0026
vn -0.0942 0.4937 0.8645
vn -0.3979 -0.1545 0.9043
vn 0.0384 0.7673 -0.6402
vn -0.0783 -0.5739 0.8151
vn 0.0056 0.1586 -0.9873
vn 0.9489 -0.2856 -0.1345
vn -1.0000 -0.0039 -0.0050
vn -0.1958 0.2041 -0.9592
vn 0.1084 -0.6048 0.7889
vn -0.9942 -0.0251 0.1044
vn 0.9430 -0.2481 -0.2219
vn 0.1780 -0.9597 -0.2174
vn 0.2163 -0.5299 0.8200
vn -0.9188 -0.1541 0.3635
vn -0.9546 -0.2878 0.0774
vn 0.9836 -0.0816 -0.1611
vn -0.1234 0.2802 -0.9520
vn -0.0386 -0.9993 -0.0001
vn 0.0768 -0.9362 0.3430
vn 0.3315 -0.0557 0.9418
vn 0.0426 -0.1704 -0.9845
vn 0.9937 -0.0641 0.0921
vn 0.5014 -0.1284 -0.8556
vn 0.4726 -0.4767 -0.7412
vn 0.5039 -0.4264 -0.7512
vn 0.4869 -0.3576 -0.7969
vn 0.9954 -0.0368 0.0885
vn 0.9767 -0.2040 0.0673
vn 0.9799 -0.1894 0.0619
vn 0.0687 -0.5090 -0.8580
vn 0.0823 -0.4837 -0.8713
vn 0.0366 -0.3947 -0.9181
vn 0.2484 0.3840 0.8893
vn 0.3257 0.1571 0.9323
vn 0.3542 0.0454 0.9341
vn -0.9290 -0.0638 0.3644
vn -0.9458 0.0375 0.3227
vn -0.9365 -0.0775 0.3420
vn -0.1729 -0.3170 -0.9325
vn -0.1060 0.0325 -0.9938
vn -0.1194 0.0212 -0.9926
vn 0.9097 0.2341 0.3430
vn 0.9889 -0.0708 0.1307
vn 0.9958 -0.0831 -0.0388
vn -0.9818 0.0047 -0.1901
vn -0.9952 -0.0591 0.0786
vn -0.9920 -0.0390 0.1199
vn -0.5424 0.1631 0.8241
vn -0.2866 -0.1958 0.9378
vn -0.1051 -0.1300 0.9859
vn 0.6009 -0.1042 0.7925
vn 0.3279 0.3905 -0.8602
vn -0.2253 -0.4485 -0.8649
vn -0.2298 -0.8060 -0.5455
vn -0.8580 -0.1024 -0.5034
vt 0.882279 0.260085
vt 0.436089 0.649131
vt 0.117664 0.305524
vt 0.860974 0.338762
vt 0.079561 0.383885
vt 0.278417 0.728674
vt 0.111517 0.716819
vt 0.301243 0.337859
vt 0.232943 0.387386
vt 0.111517 0.662267
vt 0.671871 0.687525
vt 0.175114 0.511099
vt 0.930991 0.712692
vt 0.796001 0.259488
vt 0.522181 0.649131
vt 0.719621 0.316178
vt 0.801110 0.310020
vt 0.698705 0.366293
vt 0.510656 0.337024
vt 0.023033 0.717149
vt 0.367094 0.730187
vt 0.507246 0.358198
vt 0.018976 0.695717
vt 0.103380 0.570561
vt 0.268725 0.266033
vt 0.143950 0.273348
vt 0.098384 0.631539
vt 0.301351 0.259488
vt 0.128079 0.559933
vt 0.480438 0.333338
vt 0.348619 0.714075
vt 0.604958 0.268707
vt 0.031105 0.562973
vt 0.043818 0.625810
vt 0.721993 0.282954
vt 0.329365 0.336360
vt 0.302724 0.713315
vt 0.030374 0.549675
vt 0.582817 0.260846
vt 0.875347 0.642471
vt 0.380514 0.272320
vt 0.124895 0.517524
vt 0.813390 0.578569
vt 0.436089 0.332372
vt 0.956124 0.588845
vt 0.367094 0.692599
vt 0.367094 0.522797
vt 0.871643 0.594841
vt 0.398138 0.324445
vt 0.043891 0.509019
vt 0.796001 0.641153
vt 0.491075 0.268473
vt 0.032114 0.534706
vt 0.552485 0.259488
vt 0.331566 0.259909
vt 0.129819 0.544964
vt 0.339759 0.337186
vt 0.913298 0.588845
vt 0.317584 0.707220
vt 0.845734 0.463378
vt 0.311567 0.646434
vt 0.944558 0.353645
vt 0.398138 0.462439
vt 0.920230 0.354337
vt 0.870057 0.463781
vt 0.929709 0.374247
vt 0.357807 0.478584
vt 0.347994 0.663056
vt 0.944558 0.373825
vt 0.097076 0.285727
vt 0.229765 0.651022
vt 0.758050 0.297859
vt 0.168317 0.651042
vt 0.119329 0.272208
vt 0.094178 0.643292
vt 0.222768 0.636959
vt 0.746872 0.283208
vt 0.174541 0.636975
vt 0.045175 0.638147
vt 0.080672 0.327471
vt 0.442544 0.673801
vt 0.734592 0.339187
vt 0.484453 0.673801
vt 0.070725 0.319456
vt 0.218298 0.685110
vt 0.751374 0.331694
vt 0.180611 0.684911
vt 0.062412 0.356092
vt 0.455575 0.702696
vt 0.724658 0.367821
vt 0.476314 0.702696
vt 0.043357 0.357400
vt 0.210236 0.723455
vt 0.742364 0.370210
vt 0.189444 0.723462
vt 0.050281 0.367705
vt 0.444942 0.715336
vt 0.810526 0.722486
vt 0.728448 0.380153
vt 0.853695 0.722486
vt 0.487920 0.715336
vt 0.018975 0.371756
vt 0.232852 0.738567
vt 0.796001 0.739289
vt 0.758050 0.386241
vt 0.861207 0.739289
vt 0.167770 0.738589
vt 0.100634 0.583041
vt 0.712300 0.698974
vt 0.802197 0.701507
vt 0.098640 0.600731
vt 0.972705 0.287497
vt 0.747907 0.696578
vt 0.052045 0.577939
vt 0.849895 0.701507
vt 0.710445 0.675017
vt 0.050052 0.595630
vt 0.746553 0.677603
vt 0.924885 0.287497
vt 0.797725 0.671259
vt 0.981025 0.313792
vt 0.715147 0.730011
vt 0.752543 0.724602
vt 0.973919 0.259495
vt 0.967002 0.332143
vt 0.934252 0.306472
vt 0.715328 0.644023
vt 0.847669 0.671259
vt 0.923848 0.259495
vt 0.753088 0.649631
vt 0.920230 0.324823
vt 0.068284 0.665533
vt 0.630362 0.705721
vt 0.712055 0.621316
vt 0.966165 0.712391
vt 0.519769 0.388732
vt 0.031375 0.663704
vt 0.592215 0.695479
vt 0.581836 0.620019
vt 0.750017 0.621843
vt 0.569690 0.667298
vt 0.581066 0.387596
vt 0.531739 0.516092
vt 0.642835 0.625048
vt 0.273616 0.509019
vt 0.070982 0.710642
vt 0.316851 0.732164
vt 0.684917 0.393810
vt 0.816625 0.338063
vt 0.644803 0.392946
vt 0.602800 0.367236
vt 0.671871 0.661666
vt 0.181146 0.386242
vt 0.855113 0.259897
vt 0.463196 0.649131
vt 0.077903 0.567886
vt 0.078993 0.554271
vt 0.322237 0.720993
vt 0.070972 0.628379
vt 0.834014 0.651825
vt 0.084160 0.512738
vt 0.838315 0.596273
vt 0.320679 0.509019
vt 0.080733 0.539302
vt 0.857365 0.464048
vt 0.931678 0.351118
vt 0.335174 0.488977
vt 0.367094 0.673623
vt 0.939667 0.384854
vt 0.199177 0.651021
vt 0.069465 0.641494
vt 0.198664 0.632807
vt 0.464209 0.672968
vt 0.199604 0.684998
vt 0.465945 0.702696
vt 0.199840 0.723459
vt 0.466714 0.715004
vt 0.832520 0.720483
vt 0.200177 0.738589
vt 0.829423 0.735282
vt 0.076340 0.580490
vt 0.826046 0.701507
vt 0.074346 0.598181
vt 0.948795 0.287497
vt 0.823088 0.670800
vt 0.959731 0.307426
vt 0.948976 0.259488
vt 0.941524 0.331189
vt 0.875347 0.491894
vt 0.391834 0.432095
vt 0.377694 0.448634
vt 0.915590 0.478791
vt 0.834644 0.488373
vt 0.326937 0.619279
vt 0.938593 0.478810
vt 0.335216 0.632947
vt 0.358601 0.463790
vt 0.348787 0.648138
vt 0.927106 0.463378
vt 0.854274 0.489560
vt 0.315804 0.619182
vt 0.212520 0.321385
vt 0.644070 0.318501
vt 0.018976 0.592450
vt 0.663817 0.276029
vt 0.129819 0.597828
vt 0.224108 0.269832
vt 0.051049 0.586785
vt 0.728499 0.676310
vt 0.099637 0.591886
vt 0.730103 0.697776
vt 0.734390 0.646904
vt 0.920230 0.314550
vt 0.981025 0.324065
vt 0.732426 0.727384
vt 0.950683 0.319044
vt 0.753088 0.663662
vt 0.920230 0.273492
vt 0.977552 0.273492
vt 0.752543 0.710647
vt 0.709822 0.714522
vt 0.796001 0.686127
vt 0.853178 0.686127
vt 0.709822 0.659561
vt 0.824792 0.685890
vt 0.948939 0.273488
vt 0.731549 0.661651
vt 0.730449 0.712624
vt 0.878850 0.297575
vt 0.096711 0.342677
vt 0.285581 0.357771
vt 0.108549 0.696221
vt 0.804979 0.293594
vt 0.708839 0.350023
vt 0.668288 0.644023
vt 0.436089 0.526409
vt 0.145034 0.385321
vt 0.919159 0.607821
vt 0.247387 0.613831
vt 0.970304 0.416607
vt 0.947808 0.608020
vt 0.704660 0.516092
vt 0.970304 0.403829
vt 0.750017 0.516884
vt 0.618892 0.516092
vt 0.920230 0.404231
vt 0.273616 0.612878
vt 0.642836 0.516847
vt 0.938584 0.415207
vt 0.924281 0.443436
vt 0.075400 0.489812
vt 0.855524 0.444402
vt 0.531739 0.629156
vt 0.934913 0.435583
vt 0.576828 0.496673
vt 0.931440 0.443424
vt 0.848383 0.444289
vt 0.592622 0.497116
vt 0.934913 0.440184
vt 0.586164 0.496977
vt 0.517161 0.630156
vt 0.920230 0.438606
vt 0.085942 0.490043
vt 0.585376 0.420489
vt 0.510472 0.551446
vt 0.582586 0.444044
vt 0.504260 0.576063
vt 0.581388 0.469636
vt 0.508131 0.602400
vt 0.103684 0.463024
vt 0.477645 0.604263
vt 0.118194 0.440373
vt 0.454885 0.581958
vt 0.129418 0.415411
vt 0.438452 0.557360
vt 0.876897 0.417052
vt 0.081901 0.462161
vt 0.882279 0.393921
vt 0.081653 0.438865
vt 0.880271 0.363315
vt 0.079604 0.408162
vt 0.633117 0.418943
vt 0.615530 0.444447
vt 0.600997 0.469910
vt 0.614559 0.469949
vt 0.862035 0.416811
vt 0.638313 0.444473
vt 0.857648 0.390640
vt 0.666106 0.417503
vt 0.844696 0.362700
vt 0.167770 0.536691
vt 0.914144 0.688660
vt 0.182151 0.561697
vt 0.913298 0.663084
vt 0.189855 0.582503
vt 0.915415 0.641729
vt 0.680787 0.549268
vt 0.966165 0.641681
vt 0.684678 0.573659
vt 0.963812 0.665813
vt 0.684995 0.596421
vt 0.964308 0.688427
vt 0.584794 0.548886
vt 0.729850 0.550060
vt 0.578610 0.572959
vt 0.734888 0.574452
vt 0.569690 0.595426
vt 0.736445 0.597214
vt 0.642060 0.590920
vt 0.247172 0.543053
vt 0.641052 0.570535
vt 0.248998 0.562413
vt 0.635978 0.552556
vt 0.245738 0.579271
s 0
usemtl Material
f 89/203/1 7/19/1 13/32/1 90/205/1
f 8/22/2 7/19/2 89/203/2 58/151/2 54/142/2 53/136/2
f 6/18/3 56/148/3 57/150/3
f 3/8/4 106/231/4 4/9/4 59/153/4 88/202/4
f 6/17/5 107/233/5 5/14/5 60/154/5 1/1/5 105/229/5 2/4/5 56/149/5
f 61/156/6 13/33/6 16/38/6 62/157/6
f 5/16/7 14/35/7 31/77/7 29/72/7
f 88/202/8 1/3/8 10/26/8 91/207/8
f 67/164/9 21/53/9 20/50/9 65/161/9
f 13/32/10 7/19/10 12/30/10 16/39/10
f 3/8/11 9/25/11 11/28/11 15/36/11
f 55/147/12 3/6/12 15/37/12 63/158/12
f 66/162/13 19/48/13 17/40/13 65/160/13
f 23/57/14 22/55/14 17/41/14 19/49/14
f 83/191/15 82/190/15 25/63/15 26/67/15
f 15/36/16 11/28/16 22/55/16 23/57/16
f 62/157/17 16/38/17 21/53/17 67/164/17
f 69/169/18 26/66/18 25/64/18 68/166/18
f 87/200/19 84/193/19 24/60/19 68/165/19
f 86/197/20 83/191/20 26/67/20 69/167/20
f 84/194/21 85/196/21 27/68/21 24/61/21
f 70/170/22 29/73/22 31/78/22 71/172/22
f 70/170/23 28/71/23 34/85/23 73/174/23
f 10/26/24 1/3/24 28/70/24 30/74/24
f 64/159/25 10/27/25 30/75/25 71/171/25
f 34/84/26 32/80/26 36/88/26 38/92/26
f 60/155/27 5/15/27 33/83/27 72/173/27
f 5/16/28 29/72/28 35/86/28 33/82/28
f 28/70/29 1/3/29 32/80/29 34/84/29
f 37/90/30 39/94/30 43/105/30 41/99/30
f 73/174/31 34/85/31 38/93/31 75/176/31
f 33/82/32 35/86/32 39/94/32 37/90/32
f 72/173/33 33/83/33 37/91/33 74/175/33
f 76/178/34 41/100/34 43/106/34 77/180/34
f 74/175/35 37/91/35 41/101/35 76/177/35
f 38/92/36 36/88/36 40/96/36 42/102/36
f 75/176/37 38/93/37 42/103/37 77/179/37
f 102/226/38 97/218/38 51/129/38 81/187/38
f 91/206/39 10/27/39 45/111/39 93/210/39
f 90/204/40 13/33/40 46/114/40 92/208/40
f 61/156/41 9/24/41 44/108/41 78/181/41
f 64/159/42 14/34/42 47/117/42 79/183/42
f 96/216/43 94/213/43 50/126/43 80/186/43
f 101/225/44 99/222/44 48/120/44 80/185/44
f 104/228/45 98/220/45 49/123/45 95/215/45
f 103/227/46 100/224/46 50/127/46 94/212/46
f 8/23/47 53/137/47 52/132/47
f 8/23/48 52/132/48 4/10/48 106/232/48 3/7/48 55/146/48 7/20/48
f 54/142/49 58/151/49 89/203/49 5/16/49 107/234/49 6/18/49 57/150/49
f 100/223/50 101/225/50 80/185/50 50/128/50
f 95/214/51 96/216/51 80/186/51 48/121/51
f 10/27/52 64/159/52 79/183/52 45/111/52
f 13/33/53 61/156/53 78/181/53 46/114/53
f 98/219/54 102/226/54 81/187/54 49/124/54
f 39/95/55 75/176/55 77/179/55 43/107/55
f 36/89/56 74/175/56 76/177/56 40/97/56
f 40/98/57 76/178/57 77/180/57 42/104/57
f 32/81/58 72/173/58 74/175/58 36/89/58
f 35/87/59 73/174/59 75/176/59 39/95/59
f 1/2/60 60/155/60 72/173/60 32/81/60
f 14/34/61 64/159/61 71/171/61 31/79/61
f 29/73/62 70/170/62 73/174/62 35/87/62
f 28/71/63 70/170/63 71/172/63 30/76/63
f 85/196/64 86/198/64 69/168/64 27/68/64
f 82/189/65 87/200/65 68/165/65 25/65/65
f 27/69/66 69/169/66 68/166/66 24/62/66
f 11/29/67 62/157/67 67/164/67 22/56/67
f 18/43/68 66/162/68 65/160/68 20/51/68
f 7/21/69 55/147/69 63/158/69 12/31/69
f 22/56/70 67/164/70 65/161/70 17/42/70
f 9/24/71 61/156/71 62/157/71 11/29/71
f 19/48/72 66/162/72 87/200/72 82/189/72
f 12/30/73 18/44/73 20/52/73 21/54/73 16/39/73
f 66/163/74 18/47/74 84/194/74 87/201/74
f 23/57/75 19/49/75 82/190/75 83/191/75
f 49/125/76 81/188/76 96/216/76 95/214/76
f 97/217/77 103/227/77 94/212/77 51/130/77
f 99/221/78 104/228/78 95/215/78 48/122/78
f 81/188/79 51/131/79 94/213/79 96/216/79
f 14/34/80 90/204/80 92/208/80 47/117/80
f 9/24/81 91/206/81 93/210/81 44/108/81
f 3/8/82 88/202/82 91/207/82 9/25/82
f 5/16/83 89/203/83 90/205/83 14/35/83
f 44/109/84 93/211/84 104/228/84 99/221/84
f 47/118/85 92/209/85 103/227/85 97/217/85
f 45/112/86 79/184/86 102/226/86 98/219/86
f 46/115/87 78/182/87 101/225/87 100/223/87
f 92/209/88 46/116/88 100/224/88 103/227/88
f 93/211/89 45/113/89 98/220/89 104/228/89
f 78/182/90 44/110/90 99/222/90 101/225/90
f 79/184/91 47/119/91 97/218/91 102/226/91
f 59/152/92 4/11/92 52/133/92 53/138/92 54/141/92 108/235/92
f 136/298/93 110/241/93 109/238/93 135/296/93
f 121/271/94 120/269/94 114/253/94 117/261/94
f 139/304/95 111/244/95 110/242/95 136/297/95
f 135/295/96 109/239/96 112/247/96 144/314/96
f 144/313/97 112/248/97 111/245/97 139/303/97
f 111/246/98 112/249/98 109/240/98 110/243/98
f 117/262/99 114/254/99 116/259/99 115/256/99 113/250/99
f 124/277/100 121/270/100 117/263/100 113/251/100
f 120/268/101 129/284/101 116/260/101 114/255/101
f 130/286/102 124/276/102 113/252/102 115/257/102
f 129/284/103 130/285/103 115/258/103 116/260/103
f 57/150/104 56/148/104 132/289/104 127/282/104
f 127/282/105 132/289/105 131/287/105 128/283/105
f 128/283/106 131/287/106 130/285/106 129/284/106
f 56/149/107 2/4/107 126/280/107 132/290/107
f 132/290/108 126/280/108 125/278/108 131/288/108
f 131/288/109 125/278/109 124/276/109 130/286/109
f 54/142/110 57/150/110 127/282/110 118/264/110
f 118/264/111 127/282/111 128/283/111 119/266/111
f 119/266/112 128/283/112 129/284/112 120/268/112
f 2/5/113 108/237/113 123/274/113 126/281/113
f 126/281/114 123/274/114 122/272/114 125/279/114
f 125/279/115 122/272/115 121/270/115 124/277/115
f 108/236/116 54/143/116 118/265/116 123/275/116
f 123/275/117 118/265/117 119/267/117 122/273/117
f 122/273/118 119/267/118 120/269/118 121/271/118
f 54/144/119 142/309/119 141/307/119 53/139/119
f 142/309/120 143/311/120 140/305/120 141/307/120
f 143/311/121 144/313/121 139/303/121 140/305/121
f 4/12/122 133/291/122 142/310/122 54/145/122
f 133/291/123 134/293/123 143/312/123 142/310/123
f 134/293/124 135/295/124 144/314/124 143/312/124
f 53/140/125 141/308/125 138/301/125 52/134/125
f 141/308/126 140/306/126 137/299/126 138/301/126
f 140/306/127 139/304/127 136/297/127 137/299/127
f 52/135/128 138/302/128 133/292/128 4/13/128
f 138/302/129 137/300/129 134/294/129 133/292/129
f 137/300/130 136/298/130 135/296/130 134/294/130
f 105/230/131 1/3/131 88/202/131 59/153/131 108/237/131 2/5/131
f 86/199/132 85/195/132 83/192/132
f 83/192/133 85/195/133 18/45/133 23/58/133
f 63/158/134 15/37/134 23/59/134 18/46/134 12/31/134
f 84/194/135 18/47/135 85/196/135
l 52 106
