# Blender 3.3.1
# www.blender.org
mtllib monstruo_3_caminar589.mtl
o monstruo_grande
v 0.323181 2.047403 0.164978
v 0.523581 1.177876 0.071968
v -0.720908 1.763187 0.104624
v -0.298042 1.171612 0.219513
v 0.569912 2.315193 -0.137235
v 0.542327 1.644374 -0.252052
v -0.817560 1.944690 -0.347816
v -0.724565 1.643433 -0.377564
v -0.364219 2.425689 0.353502
v 0.195383 2.327981 0.368414
v -0.505554 2.401369 0.446258
v -1.188038 2.000200 -0.227401
v -0.329779 2.560438 -0.015007
v 0.210403 2.456441 0.102512
v -1.051927 1.882008 -0.039999
v -0.492413 2.631627 -0.012854
v -0.863442 2.321204 0.439803
v -1.502598 1.948811 0.013238
v -1.247830 2.013932 0.239302
v -1.018062 2.604617 0.125366
v -0.679021 2.674387 0.034696
v -0.582167 2.355828 0.422149
v -1.183666 1.902129 -0.056477
v -1.865761 0.753754 0.771974
v -1.744258 0.737977 0.829924
v -1.711835 0.544736 0.647578
v -1.785998 0.554366 0.612207
v 0.326303 2.235359 0.355509
v 0.483409 2.419011 0.124417
v 0.304852 2.356019 0.368303
v 0.341116 2.478813 0.142671
v 0.540328 1.913083 0.190901
v 0.719058 1.962629 0.061124
v 0.573410 1.977686 0.245823
v 0.696414 2.080299 0.119788
v 0.668487 1.655472 0.227269
v 0.772137 1.666467 0.183212
v 0.714675 1.617748 0.314499
v 0.818773 1.639314 0.268882
v 0.647462 1.506296 0.269114
v 0.864482 1.548481 0.178405
v 0.673825 1.409965 0.439025
v 0.998642 1.473025 0.294816
v -0.202344 2.479685 0.387878
v 0.008427 2.456246 0.387345
v -0.185125 2.562753 0.134309
v 0.016026 2.538811 0.138239
v -0.147433 2.793848 0.530864
v 0.058592 2.726200 0.501044
v -0.149822 2.900832 0.273951
v 0.054775 2.833705 0.242765
v -0.502510 1.146052 0.012329
v -0.388790 1.134639 -0.201484
v -0.039205 1.255100 -0.338131
v -0.763236 1.785266 -0.126683
v 0.544564 1.243984 -0.154811
v 0.326411 1.265818 -0.279221
v 0.011564 1.507930 -0.346779
v -0.021665 1.140618 0.196168
v 0.409332 2.125385 0.060385
v -0.345705 2.473525 0.224570
v -0.513157 2.633610 0.261178
v -0.975372 1.938352 -0.160289
v 0.177944 2.450544 0.260656
v -0.884043 2.541688 0.370143
v -1.425617 2.117959 0.251459
v -0.664977 2.616038 0.243325
v -1.818882 0.747410 0.830457
v -1.722565 0.425748 0.540936
v 0.436766 2.332716 0.276811
v 0.323105 2.463935 0.275662
v 0.598342 1.921959 0.077270
v 0.670429 2.033446 0.222640
v 0.720411 1.664760 0.204529
v 0.766559 1.627821 0.291464
v 0.745240 1.531307 0.201239
v 0.816746 1.449768 0.326645
v -0.195687 2.519793 0.259511
v 0.010187 2.499150 0.261795
v -0.179799 2.849023 0.403677
v 0.088269 2.778729 0.371488
v -1.614531 1.056838 0.754534
v -1.668578 0.877208 0.699839
v -1.824617 1.054540 0.658574
v -1.782942 0.892057 0.645294
v -1.720356 0.711775 0.614176
v -1.746368 1.041326 0.758434
v -0.097046 1.813682 0.458258
v 0.107408 2.142577 -0.264669
v 0.030630 2.527138 -0.040266
v -0.056761 2.321891 0.528530
v -0.088001 2.548959 0.134192
v -0.091409 2.464199 0.386880
v -0.048215 2.882817 0.219072
v -0.044136 2.743961 0.554355
v -0.042159 2.864720 0.409226
v 0.047942 2.697152 0.164629
v 0.047879 2.579224 0.459395
v -0.188288 2.629739 0.482661
v -0.190330 2.748014 0.184313
v -0.206122 2.690549 0.334857
v 0.063154 2.638405 0.311441
v -0.072075 2.730051 0.153532
v -0.068604 2.594560 0.491457
v 0.400586 1.730184 0.000579
v -0.604414 1.492719 0.154962
v 0.546314 1.869626 -0.251330
v 0.172744 1.118033 0.186066
v -0.194906 0.027318 0.058796
v -0.338993 0.034972 0.181536
v -0.365495 0.031223 -0.068607
v -0.230371 0.025937 -0.083612
v 0.397072 0.204277 -0.460862
v 0.327392 0.235521 -0.534208
v 0.408229 0.222227 -0.494392
v 0.378057 0.232278 -0.520537
v 0.337736 0.197385 -0.456024
v 0.098118 0.907182 -0.169678
v 0.176070 0.750602 -0.202176
v 0.242563 0.492117 -0.346582
v 0.278822 0.381134 -0.207080
v 0.239615 0.548990 -0.014338
v 0.222153 0.762924 0.163542
v 0.400398 0.403852 -0.222829
v 0.444380 0.591197 -0.033150
v 0.503392 0.863188 0.127831
v 0.351430 0.936256 -0.152045
v 0.355770 0.743030 -0.174143
v 0.349438 0.485819 -0.327782
v 0.416818 0.456815 -0.284060
v 0.469844 0.699759 -0.102235
v 0.521811 0.931879 -0.045783
v -0.174752 0.925201 0.356086
v -0.146552 0.621813 0.320328
v -0.140675 0.375646 0.301621
v -0.425692 0.363047 0.291040
v -0.437936 0.639999 0.267283
v -0.462287 0.895924 0.235178
v -0.459789 0.391875 0.023371
v -0.469427 0.665498 0.000663
v -0.476339 0.871298 -0.039904
v -0.079733 0.832320 -0.062435
v -0.126096 0.645408 -0.040864
v -0.168349 0.436624 -0.009901
vn -0.0241 0.4940 -0.8691
vn 0.0068 -0.0190 -0.9998
vn 0.4691 -0.2059 -0.8588
vn -0.3121 -0.2103 0.9265
vn 0.9008 0.0044 0.4342
vn 0.5787 0.7970 0.1731
vn 0.1559 0.9030 -0.4004
vn 0.5962 -0.2033 0.7766
vn -0.1293 0.9466 0.2954
vn -0.0900 0.4706 -0.8778
vn -0.1811 -0.4160 0.8912
vn -0.3718 -0.8977 -0.2364
vn -0.3106 -0.0215 0.9503
vn 0.2790 -0.8149 0.5081
vn 0.9283 -0.2363 0.2871
vn -0.0643 -0.6634 0.7455
vn 0.0839 0.9896 0.1167
vn -0.0371 -0.6802 0.7321
vn -0.7210 0.3281 0.6103
vn 0.9554 -0.0103 -0.2953
vn -0.8306 -0.0125 -0.5567
vn 0.5681 0.7266 0.3863
vn 0.3960 0.0725 0.9154
vn -0.3022 -0.5369 0.7877
vn -0.1492 0.6491 0.7459
vn -0.8181 -0.2706 0.5074
vn -0.2490 -0.4776 -0.8426
vn 0.8875 0.4605 -0.0160
vn -0.3924 -0.6115 0.6871
vn 0.7005 0.6487 -0.2974
vn 0.1937 0.2313 0.9534
vn 0.9594 0.1379 -0.2459
vn -0.0887 -0.4324 -0.8973
vn 0.0119 -0.8340 -0.5516
vn -0.2408 -0.0811 -0.9672
vn -0.8439 0.3398 0.4152
vn 0.4740 0.3465 0.8095
vn 0.9829 -0.0221 -0.1829
vn 0.3326 0.6017 0.7262
vn 0.0976 0.9919 -0.0818
vn -0.3488 0.8967 0.2724
vn 0.3511 0.9156 0.1958
vn 0.0542 0.9747 0.2171
vn -0.9667 0.1191 0.2267
vn 0.2939 -0.3488 0.8899
vn -0.2493 0.4797 -0.8413
vn -0.7208 -0.5974 -0.3515
vn -0.9009 -0.3798 0.2102
vn 0.1511 0.0802 -0.9853
vn -0.9685 0.2407 -0.0643
vn 0.0546 0.8415 0.5375
vn 0.4067 0.7578 0.5101
vn -0.3321 0.8960 0.2949
vn 0.9830 -0.1566 0.0962
vn 0.1766 0.2852 0.9421
vn -0.4929 -0.1241 -0.8612
vn -0.1264 -0.8677 -0.4807
vn -0.6418 -0.4975 -0.5836
vn 0.7181 0.3414 0.6065
vn -0.4837 -0.6552 -0.5803
vn -0.1376 0.9894 0.0467
vn 0.7458 0.4796 0.4624
vn 0.5802 0.2758 0.7663
vn -0.3560 0.1600 -0.9207
vn 0.0141 0.2295 0.9732
vn -0.6806 -0.5966 0.4252
vn -0.2930 0.5328 0.7939
vn -0.7320 0.6584 0.1750
vn -0.3614 -0.8707 -0.3336
vn 0.1457 0.4789 0.8657
vn 0.5190 0.6289 0.5789
vn 0.1610 0.3993 0.9026
vn -0.3841 0.5241 -0.7601
vn -0.8844 0.4142 0.2151
vn 0.9385 -0.2516 0.2363
vn 0.5076 0.7011 0.5008
vn 0.2837 0.4022 -0.8705
vn -0.2411 -0.2792 0.9295
vn 0.5025 0.8542 0.1334
vn 0.2922 0.9556 -0.0386
vn -0.1779 0.5582 0.8104
vn -0.4955 -0.0681 0.8660
vn 0.1655 0.7263 -0.6672
vn -0.1505 -0.5596 0.8150
vn 0.0900 0.1205 -0.9886
vn 0.9495 -0.3086 -0.0561
vn -0.9951 -0.0091 -0.0984
vn -0.1123 0.1880 -0.9757
vn 0.0562 -0.5803 0.8125
vn -0.9993 -0.0085 0.0373
vn 0.9623 -0.2433 -0.1219
vn 0.0548 -0.9940 -0.0949
vn 0.2318 -0.4406 0.8673
vn -0.9522 -0.3055 -0.0054
vn -0.9550 -0.2797 0.0982
vn 0.9849 -0.0889 -0.1487
vn -0.1287 0.2031 -0.9707
vn -0.0370 -0.9991 0.0189
vn 0.0690 -0.8936 -0.4434
vn 0.1949 -0.7598 0.6203
vn 0.1949 0.6138 -0.7650
vn 0.9724 -0.1799 0.1484
vn 0.6262 0.5116 -0.5884
vn 0.4713 -0.3032 -0.8282
vn 0.5397 0.0941 -0.8366
vn 0.6004 0.3951 -0.6953
vn 0.9955 -0.0466 0.0823
vn 0.9751 -0.2211 0.0149
vn 0.9715 -0.2360 0.0197
vn 0.1374 -0.3683 -0.9195
vn 0.0946 0.1752 -0.9800
vn 0.1628 0.5079 -0.8459
vn 0.2163 0.0579 0.9746
vn 0.2543 -0.5677 0.7830
vn 0.2130 -0.7172 0.6635
vn -0.9341 -0.1847 0.3054
vn -0.9401 -0.3154 0.1291
vn -0.9626 -0.2682 0.0374
vn -0.1243 -0.5167 -0.8471
vn -0.0969 -0.1460 -0.9845
vn -0.1125 -0.1024 -0.9884
vn 0.8951 0.3088 0.3215
vn 0.9878 -0.0409 0.1499
vn 0.9966 -0.0802 -0.0208
vn -0.9791 -0.0561 -0.1955
vn -0.9950 -0.0542 0.0836
vn -0.9925 -0.0294 0.1188
vn -0.5441 0.3670 0.7545
vn -0.2870 -0.0332 0.9573
vn -0.1097 0.0058 0.9940
vn 0.5159 -0.0736 0.8535
vn 0.4421 0.2994 -0.8455
vn -0.1041 -0.5251 -0.8447
vn -0.1617 -0.8605 -0.4831
vn -0.7841 -0.1519 -0.6018
vt 0.461701 0.809397
vt 0.301930 0.729761
vt 0.094158 0.499911
vt 0.498737 0.648456
vt 0.250869 0.553264
vt 0.714874 0.752530
vt 0.627854 0.740386
vt 0.227533 0.339544
vt 0.300362 0.438253
vt 0.625828 0.633709
vt 0.338991 0.679376
vt 0.653754 0.621457
vt 0.189641 0.785401
vt 0.531284 0.815038
vt 0.232114 0.729761
vt 0.806952 0.326283
vt 0.527824 0.712310
vt 0.703640 0.331352
vt 0.725736 0.123548
vt 0.557184 0.740386
vt 0.714874 0.681901
vt 0.693091 0.138725
vt 0.558638 0.706064
vt 0.944491 0.391302
vt 0.108931 0.369345
vt 0.090202 0.443431
vt 0.952837 0.467016
vt 0.108059 0.346292
vt 0.960024 0.371234
vt 0.653754 0.712739
vt 0.761990 0.055860
vt 0.265996 0.788213
vt 0.829683 0.188590
vt 0.886815 0.394232
vt 0.909606 0.471204
vt 0.826550 0.267021
vt 0.659457 0.749480
vt 0.206417 0.267620
vt 0.238389 0.812575
vt 0.882743 0.373659
vt 0.837846 0.166681
vt 0.102618 0.289588
vt 0.957957 0.321520
vt 0.918648 0.216117
vt 0.803322 0.012950
vt 0.106348 0.638847
vt 0.232551 0.755661
vt 0.798789 0.485160
vt 0.965752 0.239402
vt 0.153968 0.222285
vt 0.894228 0.312474
vt 0.856067 0.102710
vt 0.881967 0.351902
vt 0.842627 0.144082
vt 0.107159 0.331692
vt 0.958812 0.358201
vt 0.199778 0.246429
vt 0.138792 0.619338
vt 0.232114 0.797406
vt 0.967580 0.012950
vt 0.753483 0.682459
vt 0.843831 0.469074
vt 0.256421 0.022764
vt 0.824689 0.472884
vt 0.987050 0.016155
vt 0.832147 0.505580
vt 0.295109 0.018166
vt 0.782932 0.707368
vt 0.843831 0.503254
vt 0.076417 0.467161
vt 0.958695 0.494573
vt 0.833773 0.298242
vt 0.909847 0.503107
vt 0.076958 0.454690
vt 0.951531 0.482650
vt 0.837149 0.281767
vt 0.912926 0.487172
vt 0.064432 0.532285
vt 0.298790 0.687460
vt 0.825577 0.362572
vt 0.264894 0.686125
vt 0.056614 0.518895
vt 0.959622 0.549977
vt 0.837123 0.350740
vt 0.929664 0.555276
vt 0.051257 0.577890
vt 0.291936 0.641182
vt 0.824256 0.407314
vt 0.275162 0.640522
vt 0.035793 0.577862
vt 0.964581 0.612577
vt 0.838997 0.411720
vt 0.948088 0.615681
vt 0.039898 0.592711
vt 0.301778 0.620707
vt 0.403076 0.772170
vt 0.830596 0.428615
vt 0.403076 0.737417
vt 0.267017 0.619338
vt 0.012950 0.593438
vt 0.987050 0.637067
vt 0.428919 0.781443
vt 0.856067 0.440612
vt 0.428919 0.728949
vt 0.935424 0.646785
vt 0.945356 0.412724
vt 0.357115 0.854737
vt 0.331665 0.779032
vt 0.948027 0.441601
vt 0.799629 0.752473
vt 0.327972 0.853161
vt 0.906904 0.416128
vt 0.370069 0.779032
vt 0.684668 0.778429
vt 0.909575 0.445005
vt 0.655249 0.778999
vt 0.799629 0.791035
vt 0.330193 0.729131
vt 0.557184 0.775635
vt 0.363063 0.804932
vt 0.331684 0.807874
vt 0.754247 0.751428
vt 0.586563 0.768755
vt 0.566112 0.815056
vt 0.689281 0.828405
vt 0.370405 0.729131
vt 0.754247 0.791805
vt 0.657717 0.824383
vt 0.595492 0.808176
vt 0.327830 0.637821
vt 0.590400 0.642651
vt 0.164818 0.789976
vt 0.357235 0.619338
vt 0.642851 0.190721
vt 0.562581 0.649581
vt 0.406824 0.626953
vt 0.080449 0.619338
vt 0.646201 0.239681
vt 0.727583 0.656002
vt 0.597847 0.731399
vt 0.712829 0.722239
vt 0.658284 0.323708
vt 0.527919 0.666449
vt 0.661748 0.291537
vt 0.680225 0.245582
vt 0.377645 0.696957
vt 0.285191 0.477898
vt 0.483372 0.812325
vt 0.280072 0.728266
vt 0.924330 0.393087
vt 0.921760 0.373660
vt 0.678504 0.727397
vt 0.268491 0.812575
vt 0.930826 0.465310
vt 0.923786 0.327561
vt 0.941993 0.227167
vt 0.764056 0.466512
vt 0.919524 0.351927
vt 0.977463 0.013354
vt 0.833186 0.466512
vt 0.317617 0.012950
vt 0.798789 0.722800
vt 0.839639 0.522681
vt 0.934403 0.500152
vt 0.932138 0.484309
vt 0.281656 0.689101
vt 0.944784 0.554368
vt 0.283549 0.640852
vt 0.956335 0.614129
vt 0.284323 0.620942
vt 0.399765 0.754789
vt 0.961112 0.640376
vt 0.422297 0.755187
vt 0.926130 0.414426
vt 0.350867 0.779032
vt 0.928801 0.443303
vt 0.799629 0.771754
vt 0.350773 0.728949
vt 0.557184 0.796361
vt 0.753483 0.771844
vt 0.595492 0.787450
vt 0.985581 0.067358
vt 0.238180 0.070710
vt 0.259592 0.052321
vt 0.138792 0.821791
vt 0.953366 0.057503
vt 0.765454 0.639660
vt 0.120235 0.821584
vt 0.772730 0.660154
vt 0.283154 0.037949
vt 0.784440 0.682652
vt 0.128680 0.843910
vt 0.970110 0.058056
vt 0.758353 0.637393
vt 0.180368 0.432154
vt 0.759258 0.257498
vt 0.884976 0.446549
vt 0.828099 0.241547
vt 0.971226 0.428512
vt 0.101516 0.405509
vt 0.908240 0.430567
vt 0.669958 0.778714
vt 0.946692 0.427163
vt 0.342544 0.853949
vt 0.673120 0.826722
vt 0.582140 0.817526
vt 0.570535 0.766286
vt 0.348248 0.806122
vt 0.576699 0.792002
vt 0.653753 0.802281
vt 0.776512 0.794925
vt 0.776512 0.748700
vt 0.327830 0.829868
vt 0.363063 0.830170
vt 0.327830 0.753980
vt 0.373865 0.753980
vt 0.689281 0.803194
vt 0.351093 0.753886
vt 0.776117 0.771930
vt 0.671321 0.802907
vt 0.345899 0.829874
vt 0.457498 0.727404
vt 0.165986 0.548054
vt 0.260364 0.376248
vt 0.625887 0.695531
vt 0.520555 0.743605
vt 0.734596 0.339638
vt 0.406824 0.703049
vt 0.012950 0.651015
vt 0.277407 0.507014
vt 0.206214 0.619338
vt 0.706517 0.466512
vt 0.399765 0.822801
vt 0.181517 0.620770
vt 0.619265 0.470337
vt 0.422433 0.807343
vt 0.582936 0.466512
vt 0.458892 0.202188
vt 0.422433 0.843958
vt 0.727583 0.468029
vt 0.460639 0.221880
vt 0.402692 0.843997
vt 0.717439 0.778459
vt 0.429089 0.593438
vt 0.518160 0.466685
vt 0.070962 0.817001
vt 0.726094 0.791097
vt 0.457498 0.298878
vt 0.715181 0.783741
vt 0.523936 0.466512
vt 0.458951 0.311476
vt 0.719061 0.788282
vt 0.458165 0.306435
vt 0.058766 0.817583
vt 0.726094 0.778429
vt 0.431598 0.585369
vt 0.599953 0.261833
vt 0.080449 0.668491
vt 0.542336 0.274386
vt 0.076079 0.728305
vt 0.500395 0.287212
vt 0.064936 0.773359
vt 0.389801 0.564275
vt 0.039540 0.774208
vt 0.356388 0.547019
vt 0.031995 0.737396
vt 0.319737 0.531779
vt 0.030523 0.696843
vt 0.505723 0.512116
vt 0.384015 0.580847
vt 0.506522 0.550736
vt 0.346302 0.574833
vt 0.507607 0.604105
vt 0.294291 0.566034
vt 0.610540 0.298468
vt 0.545535 0.300686
vt 0.502363 0.302883
vt 0.504402 0.313331
vt 0.517745 0.511765
vt 0.548610 0.318269
vt 0.527842 0.556627
vt 0.609940 0.323717
vt 0.531284 0.618364
vt 0.660591 0.582499
vt 0.204501 0.743892
vt 0.668589 0.550878
vt 0.206214 0.710848
vt 0.668004 0.517120
vt 0.204545 0.678125
vt 0.623877 0.525891
vt 0.164692 0.675333
vt 0.610236 0.563455
vt 0.167167 0.712219
vt 0.605277 0.597358
vt 0.166352 0.745757
vt 0.511839 0.183186
vt 0.584607 0.521652
vt 0.552303 0.182624
vt 0.569857 0.561129
vt 0.598009 0.178631
vt 0.565182 0.606784
vt 0.592158 0.236754
vt 0.721184 0.600612
vt 0.550092 0.232946
vt 0.722606 0.558204
vt 0.518921 0.225772
vt 0.713819 0.525134
s 0
usemtl Material
f 89/196/1 7/19/1 13/33/1 90/198/1
f 8/22/2 7/19/2 89/196/2 58/145/2 54/138/2 53/134/2
f 6/18/3 56/142/3 57/144/3
f 3/8/4 106/224/4 4/9/4 59/147/4 88/195/4
f 6/17/5 107/226/5 5/14/5 60/148/5 1/1/5 105/222/5 2/4/5 56/143/5
f 61/150/6 13/34/6 16/40/6 62/151/6
f 5/16/7 14/36/7 31/76/7 29/72/7
f 88/195/8 1/3/8 10/26/8 91/200/8
f 67/158/9 21/53/9 20/51/9 65/155/9
f 13/33/10 7/19/10 12/31/10 16/41/10
f 3/8/11 9/25/11 11/28/11 15/38/11
f 55/141/12 3/6/12 15/37/12 63/152/12
f 66/156/13 19/49/13 17/43/13 65/155/13
f 23/57/14 22/55/14 17/42/14 19/50/14
f 83/184/15 82/183/15 25/63/15 26/67/15
f 15/38/16 11/28/16 22/55/16 23/57/16
f 62/151/17 16/40/17 21/53/17 67/158/17
f 69/163/18 26/66/18 25/64/18 68/160/18
f 87/193/19 84/186/19 24/60/19 68/159/19
f 86/190/20 83/184/20 26/67/20 69/161/20
f 84/187/21 85/189/21 27/68/21 24/61/21
f 70/164/22 29/73/22 31/77/22 71/165/22
f 70/164/23 28/71/23 34/83/23 73/167/23
f 10/26/24 1/3/24 28/70/24 30/74/24
f 64/154/25 10/27/25 30/75/25 71/165/25
f 34/82/26 32/78/26 36/86/26 38/90/26
f 60/149/27 5/15/27 33/81/27 72/166/27
f 5/16/28 29/72/28 35/84/28 33/80/28
f 28/70/29 1/3/29 32/78/29 34/82/29
f 37/88/30 39/92/30 43/103/30 41/97/30
f 73/167/31 34/83/31 38/91/31 75/169/31
f 33/80/32 35/84/32 39/92/32 37/88/32
f 72/166/33 33/81/33 37/89/33 74/168/33
f 76/171/34 41/98/34 43/104/34 77/173/34
f 74/168/35 37/89/35 41/99/35 76/170/35
f 38/90/36 36/86/36 40/94/36 42/100/36
f 75/169/37 38/91/37 42/101/37 77/172/37
f 102/219/38 97/211/38 51/127/38 81/180/38
f 91/199/39 10/27/39 45/109/39 93/203/39
f 90/197/40 13/34/40 46/112/40 92/201/40
f 61/150/41 9/24/41 44/106/41 78/174/41
f 64/154/42 14/35/42 47/115/42 79/176/42
f 96/209/43 94/206/43 50/124/43 80/179/43
f 101/218/44 99/215/44 48/118/44 80/178/44
f 104/221/45 98/213/45 49/121/45 95/208/45
f 103/220/46 100/217/46 50/125/46 94/205/46
f 8/23/47 53/135/47 52/131/47
f 8/23/48 52/131/48 4/10/48 106/225/48 3/7/48 55/140/48 7/20/48
f 54/138/49 58/145/49 89/196/49 5/16/49 107/227/49 6/18/49 57/144/49
f 100/216/50 101/218/50 80/178/50 50/126/50
f 95/207/51 96/209/51 80/179/51 48/119/51
f 10/27/52 64/154/52 79/176/52 45/109/52
f 13/34/53 61/150/53 78/174/53 46/112/53
f 98/212/54 102/219/54 81/180/54 49/122/54
f 39/93/55 75/169/55 77/172/55 43/105/55
f 36/87/56 74/168/56 76/170/56 40/95/56
f 40/96/57 76/171/57 77/173/57 42/102/57
f 32/79/58 72/166/58 74/168/58 36/87/58
f 35/85/59 73/167/59 75/169/59 39/93/59
f 1/2/60 60/149/60 72/166/60 32/79/60
f 14/35/61 64/154/61 71/165/61 31/77/61
f 29/73/62 70/164/62 73/167/62 35/85/62
f 28/71/63 70/164/63 71/165/63 30/75/63
f 85/189/64 86/191/64 69/162/64 27/68/64
f 82/182/65 87/193/65 68/159/65 25/65/65
f 27/69/66 69/163/66 68/160/66 24/62/66
f 11/29/67 62/151/67 67/158/67 22/56/67
f 18/44/68 66/156/68 65/155/68 20/51/68
f 7/21/69 55/141/69 63/152/69 12/30/69
f 22/56/70 67/158/70 65/155/70 17/43/70
f 9/24/71 61/150/71 62/151/71 11/29/71
f 19/49/72 66/156/72 87/193/72 82/182/72
f 12/31/73 18/45/73 20/52/73 21/54/73 16/41/73
f 66/157/74 18/48/74 84/187/74 87/194/74
f 23/57/75 19/50/75 82/183/75 83/184/75
f 49/123/76 81/181/76 96/209/76 95/207/76
f 97/210/77 103/220/77 94/205/77 51/128/77
f 99/214/78 104/221/78 95/208/78 48/120/78
f 81/181/79 51/129/79 94/206/79 96/209/79
f 14/35/80 90/197/80 92/201/80 47/115/80
f 9/24/81 91/199/81 93/203/81 44/106/81
f 3/8/82 88/195/82 91/200/82 9/25/82
f 5/16/83 89/196/83 90/198/83 14/36/83
f 44/107/84 93/204/84 104/221/84 99/214/84
f 47/116/85 92/202/85 103/220/85 97/210/85
f 45/110/86 79/177/86 102/219/86 98/212/86
f 46/113/87 78/175/87 101/218/87 100/216/87
f 92/202/88 46/114/88 100/217/88 103/220/88
f 93/204/89 45/111/89 98/213/89 104/221/89
f 78/175/90 44/108/90 99/215/90 101/218/90
f 79/177/91 47/117/91 97/211/91 102/219/91
f 59/146/92 4/11/92 52/130/92 53/133/92 54/136/92 108/228/92
f 136/291/93 110/234/93 109/231/93 135/289/93
f 121/264/94 120/262/94 114/246/94 117/254/94
f 139/297/95 111/237/95 110/235/95 136/290/95
f 135/288/96 109/232/96 112/240/96 144/307/96
f 144/306/97 112/241/97 111/238/97 139/296/97
f 111/239/98 112/242/98 109/233/98 110/236/98
f 117/255/99 114/247/99 116/252/99 115/249/99 113/243/99
f 124/270/100 121/263/100 117/256/100 113/244/100
f 120/261/101 129/277/101 116/253/101 114/248/101
f 130/279/102 124/269/102 113/245/102 115/250/102
f 129/277/103 130/278/103 115/251/103 116/253/103
f 57/144/104 56/142/104 132/282/104 127/275/104
f 127/275/105 132/282/105 131/280/105 128/276/105
f 128/276/106 131/280/106 130/278/106 129/277/106
f 56/143/107 2/4/107 126/273/107 132/283/107
f 132/283/108 126/273/108 125/271/108 131/281/108
f 131/281/109 125/271/109 124/269/109 130/279/109
f 54/138/110 57/144/110 127/275/110 118/257/110
f 118/257/111 127/275/111 128/276/111 119/259/111
f 119/259/112 128/276/112 129/277/112 120/261/112
f 2/5/113 108/230/113 123/267/113 126/274/113
f 126/274/114 123/267/114 122/265/114 125/272/114
f 125/272/115 122/265/115 121/263/115 124/270/115
f 108/229/116 54/137/116 118/258/116 123/268/116
f 123/268/117 118/258/117 119/260/117 122/266/117
f 122/266/118 119/260/118 120/262/118 121/264/118
f 54/138/119 142/302/119 141/300/119 53/134/119
f 142/302/120 143/304/120 140/298/120 141/300/120
f 143/304/121 144/306/121 139/296/121 140/298/121
f 4/12/122 133/284/122 142/303/122 54/139/122
f 133/284/123 134/286/123 143/305/123 142/303/123
f 134/286/124 135/288/124 144/307/124 143/305/124
f 53/135/125 141/301/125 138/294/125 52/131/125
f 141/301/126 140/299/126 137/292/126 138/294/126
f 140/299/127 139/297/127 136/290/127 137/292/127
f 52/132/128 138/295/128 133/285/128 4/13/128
f 138/295/129 137/293/129 134/287/129 133/285/129
f 137/293/130 136/291/130 135/289/130 134/287/130
f 105/223/131 1/3/131 88/195/131 59/147/131 108/230/131 2/5/131
f 86/192/132 85/188/132 83/185/132
f 83/185/133 85/188/133 18/46/133 23/58/133
f 63/153/134 15/39/134 23/59/134 18/47/134 12/32/134
f 84/187/135 18/48/135 85/189/135
l 52 106
