# Blender 3.3.1
# www.blender.org
mtllib monstruo_3_grande_caminar546.mtl
o monstruo_grande
v 0.590813 1.915711 0.422147
v 0.524109 1.095929 0.085045
v -0.565232 1.876901 0.151761
v -0.291801 1.219968 0.224494
v 0.907266 2.148775 0.152838
v 0.649359 1.517848 -0.222230
v -0.610545 2.092621 -0.288497
v -0.601626 1.774916 -0.338475
v -0.122453 2.409743 0.471435
v 0.401168 2.230659 0.528571
v -0.270960 2.398626 0.554893
v -0.939516 2.191760 -0.212286
v -0.048254 2.576410 0.123949
v 0.477353 2.348475 0.260651
v -0.832349 2.043416 -0.032545
v -0.196960 2.674895 0.131075
v -0.641160 2.363677 0.506531
v -1.273063 2.133719 -0.019042
v -1.037807 2.146745 0.229330
v -0.732807 2.706785 0.229824
v -0.378799 2.741733 0.177690
v -0.353728 2.364642 0.517998
v -0.957313 2.073828 -0.066071
v -1.766341 0.876045 0.538275
v -1.652709 0.847432 0.606387
v -1.603494 0.681644 0.402093
v -1.672853 0.699109 0.360520
v 0.513602 2.135051 0.549330
v 0.730810 2.295615 0.352078
v 0.505865 2.246347 0.545515
v 0.600014 2.355909 0.329497
v 0.785910 1.850780 0.576069
v 0.995993 1.861741 0.509635
v 0.796181 1.913347 0.601859
v 0.951038 1.998037 0.506815
v 0.876829 1.713166 0.832973
v 0.988497 1.692337 0.801048
v 0.916124 1.767494 0.915489
v 1.022870 1.746333 0.878996
v 0.850196 1.664885 0.979707
v 1.073210 1.622239 0.906164
v 0.862968 1.754150 1.154958
v 1.198087 1.684584 1.040355
v 0.044868 2.431932 0.515064
v 0.248856 2.382006 0.517323
v 0.082484 2.532088 0.269933
v 0.281333 2.474247 0.273935
v 0.100315 2.740501 0.657264
v 0.305585 2.667361 0.636622
v 0.112712 2.846893 0.400813
v 0.318773 2.773174 0.380004
v -0.498970 1.220254 0.027024
v -0.392499 1.198547 -0.189318
v -0.036319 1.280770 -0.332376
v -0.601083 1.922516 -0.078364
v 0.540397 1.138995 -0.152876
v 0.323334 1.163819 -0.272489
v 0.073092 1.518534 -0.316305
v -0.031254 1.131169 0.198027
v 0.705938 1.977911 0.341411
v -0.089502 2.467625 0.349754
v -0.230551 2.648518 0.399229
v -0.756229 2.104288 -0.124501
v 0.423396 2.351588 0.418441
v -0.627008 2.591891 0.472797
v -1.203953 2.266121 0.243925
v -0.382968 2.657729 0.373707
v -1.726680 0.859504 0.600012
v -1.604323 0.579903 0.278426
v 0.636017 2.234672 0.493765
v 0.558600 2.347634 0.459412
v 0.875233 1.813414 0.512089
v 0.889764 1.973408 0.604038
v 0.930735 1.702048 0.815004
v 0.969654 1.756382 0.897183
v 0.952879 1.626933 0.926709
v 1.014030 1.689521 1.067534
v 0.062137 2.482137 0.391311
v 0.262640 2.429254 0.394322
v 0.075011 2.796122 0.528677
v 0.343230 2.718022 0.508919
v -1.508467 1.168725 0.594130
v -1.559592 1.001120 0.507674
v -1.706082 1.188948 0.476684
v -1.666547 1.028051 0.443565
v -1.604586 0.851965 0.393152
v -1.640167 1.157809 0.580993
v 0.032109 1.746640 0.516085
v 0.337021 2.080694 -0.169314
v 0.301191 2.475808 0.096705
v 0.131676 2.264736 0.642395
v 0.175997 2.503762 0.270085
v 0.152960 2.407668 0.515256
v 0.217918 2.825962 0.351692
v 0.201130 2.687984 0.685349
v 0.212643 2.808205 0.540218
v 0.314471 2.634915 0.303043
v 0.294990 2.516815 0.595622
v 0.058649 2.577354 0.608560
v 0.077177 2.698747 0.314130
v 0.050121 2.639413 0.461057
v 0.319301 2.575466 0.449127
v 0.195999 2.675208 0.287965
v 0.176013 2.538656 0.622000
v 0.642984 1.570897 0.091230
v -0.531647 1.587712 0.184771
v 0.747305 1.707558 -0.159921
v 0.164472 1.081554 0.200791
v -0.287345 0.087655 -0.001754
v -0.418771 0.089933 0.134763
v -0.468765 0.111032 -0.110759
v -0.336163 0.101474 -0.139690
v 0.309676 -0.064691 -0.024163
v 0.236105 -0.077418 -0.099370
v 0.318973 -0.068988 -0.062422
v 0.287412 -0.074308 -0.088308
v 0.250638 -0.065730 -0.013722
v 0.071610 0.819640 -0.136010
v 0.140951 0.557151 -0.087284
v 0.176856 0.253983 -0.078230
v 0.202414 0.219093 0.098493
v 0.183310 0.460981 0.187863
v 0.190639 0.734068 0.243397
v 0.325573 0.219496 0.079095
v 0.391683 0.466900 0.156493
v 0.478804 0.798129 0.181323
v 0.327559 0.830979 -0.114209
v 0.319019 0.545986 -0.051077
v 0.282738 0.246845 -0.054126
v 0.347017 0.235376 0.000916
v 0.428559 0.529103 0.037539
v 0.499015 0.833398 -0.006899
v -0.185978 0.961069 0.361778
v -0.193338 0.652059 0.314736
v -0.212616 0.406892 0.277202
v -0.497076 0.423243 0.266352
v -0.481210 0.702977 0.263027
v -0.478039 0.963164 0.248926
v -0.526486 0.475120 0.000907
v -0.508078 0.748567 0.000490
v -0.501692 0.943393 -0.024720
v -0.112420 0.865399 -0.058608
v -0.168270 0.696159 -0.042092
v -0.231609 0.492578 -0.028739
vn 0.1071 0.5666 -0.8170
vn 0.0240 0.0578 -0.9980
vn 0.4380 -0.2822 -0.8535
vn -0.3756 -0.2089 0.9029
vn 0.8955 -0.3827 0.2271
vn 0.6935 0.6613 0.2860
vn 0.3282 0.8457 -0.4208
vn 0.2720 -0.2315 0.9340
vn -0.0462 0.9058 0.4211
vn 0.0798 0.5448 -0.8347
vn -0.3623 -0.4333 0.8252
vn -0.4879 -0.8088 -0.3284
vn -0.4015 -0.1256 0.9072
vn 0.1247 -0.9113 0.3925
vn 0.8837 -0.3105 0.3502
vn -0.1955 -0.7635 0.6155
vn 0.2298 0.9425 0.2428
vn -0.1357 -0.7774 0.6141
vn -0.7785 0.2622 0.5703
vn 0.9827 -0.0034 -0.1854
vn -0.7611 0.1003 -0.6409
vn 0.4999 0.7456 0.4407
vn -0.0011 0.3184 0.9480
vn -0.4923 -0.4125 0.7665
vn -0.2023 0.6857 0.6992
vn -0.9281 0.0519 0.3688
vn 0.0980 -0.7318 -0.6744
vn 0.8234 0.5516 0.1331
vn -0.5768 -0.4912 0.6527
vn 0.7451 0.1605 -0.6474
vn -0.2083 0.8077 0.5516
vn 0.9960 0.0748 -0.0491
vn 0.1525 -0.8888 -0.4322
vn 0.0329 -0.9182 0.3949
vn -0.1644 -0.8551 -0.4917
vn -0.8644 0.4928 -0.0999
vn 0.4230 0.8875 0.1828
vn 0.9917 -0.0401 -0.1223
vn 0.3265 0.5174 0.7910
vn 0.2817 0.9585 0.0442
vn -0.2010 0.9110 0.3601
vn 0.4737 0.8442 0.2508
vn 0.0695 0.9730 0.2202
vn -0.9743 0.1379 0.1782
vn 0.2397 -0.3444 0.9077
vn -0.1957 0.4706 -0.8604
vn -0.8375 -0.4002 -0.3720
vn -0.9661 -0.1621 0.2007
vn 0.2402 0.2020 -0.9495
vn -0.9593 0.2532 -0.1246
vn 0.0533 0.8414 0.5378
vn 0.4429 0.6933 0.5685
vn -0.1609 0.9081 0.3866
vn 0.9739 -0.1674 0.1533
vn 0.1157 0.9495 0.2915
vn -0.4328 -0.8106 -0.3945
vn -0.1086 -0.8859 0.4510
vn -0.4420 -0.8569 -0.2655
vn 0.3770 0.7955 0.4745
vn -0.1877 -0.8890 -0.4177
vn -0.0185 0.9998 0.0118
vn 0.4837 0.6746 0.5576
vn 0.3759 0.2924 0.8793
vn -0.2437 0.3054 -0.9205
vn -0.0936 0.0849 0.9920
vn -0.7376 -0.6259 0.2534
vn -0.2724 0.4696 0.8398
vn -0.6653 0.7179 0.2052
vn -0.4829 -0.7924 -0.3726
vn 0.1141 0.3240 0.9391
vn 0.5798 0.4648 0.6692
vn 0.1051 0.2757 0.9555
vn -0.2476 0.6696 -0.7002
vn -0.8717 0.4488 0.1967
vn 0.8969 -0.3398 0.2830
vn 0.5026 0.6890 0.5221
vn 0.3345 0.3878 -0.8589
vn -0.2872 -0.2684 0.9195
vn 0.5202 0.8387 0.1612
vn 0.4587 0.8866 0.0592
vn -0.1262 0.5587 0.8197
vn -0.5473 -0.0714 0.8339
vn 0.4293 0.6971 -0.5743
vn -0.2041 -0.5563 0.8055
vn 0.1208 0.1201 -0.9854
vn 0.9394 -0.3427 -0.0019
vn -0.9852 0.0075 -0.1710
vn -0.0753 0.1832 -0.9802
vn -0.0318 -0.5655 0.8241
vn -0.9995 0.0190 -0.0244
vn 0.9622 -0.2667 -0.0545
vn -0.0929 -0.9866 -0.1339
vn 0.2261 -0.5178 0.8251
vn -0.9715 -0.1978 0.1310
vn -0.9662 -0.2294 0.1174
vn 0.9725 -0.1459 -0.1813
vn -0.1352 0.2879 -0.9481
vn -0.0872 -0.9939 -0.0680
vn 0.0405 -0.9905 0.1311
vn 0.1545 -0.3422 0.9268
vn 0.2197 0.1038 -0.9700
vn 0.9607 -0.1396 0.2398
vn 0.6458 0.0940 -0.7577
vn 0.4432 -0.4065 -0.7989
vn 0.5502 -0.2208 -0.8053
vn 0.6283 -0.0730 -0.7746
vn 0.9911 -0.1169 0.0634
vn 0.9660 -0.2363 0.1046
vn 0.9425 -0.2916 0.1633
vn 0.0525 -0.4011 -0.9145
vn 0.1303 -0.1846 -0.9741
vn 0.2071 -0.0099 -0.9783
vn 0.2372 0.1977 0.9511
vn 0.2043 -0.1604 0.9657
vn 0.1490 -0.3318 0.9315
vn -0.9479 -0.0650 0.3119
vn -0.9714 -0.1151 0.2076
vn -0.9866 -0.1164 0.1145
vn -0.1977 -0.4976 -0.8446
vn -0.1203 -0.0927 -0.9884
vn -0.1136 -0.0092 -0.9935
vn 0.9256 0.2259 0.3036
vn 0.9813 -0.1382 0.1337
vn 0.9834 -0.1796 -0.0262
vn -0.9846 0.0414 -0.1699
vn -0.9950 0.0291 0.0952
vn -0.9912 0.0622 0.1171
vn -0.4777 0.4198 0.7717
vn -0.2769 -0.0504 0.9596
vn -0.1151 -0.0569 0.9917
vn 0.3446 -0.3850 0.8562
vn 0.5431 0.4021 -0.7371
vn -0.0477 -0.4113 -0.9103
vn -0.1529 -0.7665 -0.6238
vn -0.7196 -0.0341 -0.6935
vt 0.882279 0.260085
vt 0.436089 0.649131
vt 0.117664 0.305524
vt 0.860974 0.338762
vt 0.079561 0.383885
vt 0.278417 0.728674
vt 0.111517 0.716819
vt 0.301243 0.337859
vt 0.232943 0.387386
vt 0.111517 0.662267
vt 0.671871 0.687525
vt 0.175114 0.511099
vt 0.930991 0.712692
vt 0.796001 0.259488
vt 0.522181 0.649131
vt 0.719621 0.316178
vt 0.801110 0.310020
vt 0.698705 0.366293
vt 0.510656 0.337024
vt 0.023033 0.717149
vt 0.367094 0.730187
vt 0.507246 0.358198
vt 0.018976 0.695717
vt 0.103380 0.570561
vt 0.268725 0.266033
vt 0.143950 0.273348
vt 0.098384 0.631539
vt 0.301351 0.259488
vt 0.128079 0.559933
vt 0.480438 0.333338
vt 0.348619 0.714075
vt 0.604958 0.268707
vt 0.031105 0.562973
vt 0.043818 0.625810
vt 0.721993 0.282954
vt 0.329365 0.336360
vt 0.302724 0.713315
vt 0.030374 0.549675
vt 0.582817 0.260846
vt 0.875347 0.642471
vt 0.380514 0.272320
vt 0.124895 0.517524
vt 0.813390 0.578569
vt 0.436089 0.332372
vt 0.956124 0.588845
vt 0.367094 0.692599
vt 0.367094 0.522797
vt 0.871643 0.594841
vt 0.398138 0.324445
vt 0.043891 0.509019
vt 0.796001 0.641153
vt 0.491075 0.268473
vt 0.032114 0.534706
vt 0.552485 0.259488
vt 0.331566 0.259909
vt 0.129819 0.544964
vt 0.339759 0.337186
vt 0.913298 0.588845
vt 0.317584 0.707220
vt 0.845734 0.463378
vt 0.311567 0.646434
vt 0.944558 0.353645
vt 0.398138 0.462439
vt 0.920230 0.354337
vt 0.870057 0.463781
vt 0.929709 0.374247
vt 0.357807 0.478584
vt 0.347994 0.663056
vt 0.944558 0.373825
vt 0.097076 0.285727
vt 0.229765 0.651022
vt 0.758050 0.297859
vt 0.168317 0.651042
vt 0.119329 0.272208
vt 0.094178 0.643292
vt 0.222768 0.636959
vt 0.746872 0.283208
vt 0.174541 0.636975
vt 0.045175 0.638147
vt 0.080672 0.327471
vt 0.442544 0.673801
vt 0.734592 0.339187
vt 0.484453 0.673801
vt 0.070725 0.319456
vt 0.218298 0.685110
vt 0.751374 0.331694
vt 0.180611 0.684911
vt 0.062412 0.356092
vt 0.455575 0.702696
vt 0.724658 0.367821
vt 0.476314 0.702696
vt 0.043357 0.357400
vt 0.210236 0.723455
vt 0.742364 0.370210
vt 0.189444 0.723462
vt 0.050281 0.367705
vt 0.444942 0.715336
vt 0.810526 0.722486
vt 0.728448 0.380153
vt 0.853695 0.722486
vt 0.487920 0.715336
vt 0.018975 0.371756
vt 0.232852 0.738567
vt 0.796001 0.739289
vt 0.758050 0.386241
vt 0.861207 0.739289
vt 0.167770 0.738589
vt 0.100634 0.583041
vt 0.712300 0.698974
vt 0.802197 0.701507
vt 0.098640 0.600731
vt 0.972705 0.287497
vt 0.747907 0.696578
vt 0.052045 0.577939
vt 0.849895 0.701507
vt 0.710445 0.675017
vt 0.050052 0.595630
vt 0.746553 0.677603
vt 0.924885 0.287497
vt 0.797725 0.671259
vt 0.981025 0.313792
vt 0.715147 0.730011
vt 0.752543 0.724602
vt 0.973919 0.259495
vt 0.967002 0.332143
vt 0.934252 0.306472
vt 0.715328 0.644023
vt 0.847669 0.671259
vt 0.923848 0.259495
vt 0.753088 0.649631
vt 0.920230 0.324823
vt 0.068284 0.665533
vt 0.630362 0.705721
vt 0.712055 0.621316
vt 0.966165 0.712391
vt 0.519769 0.388732
vt 0.031375 0.663704
vt 0.592215 0.695479
vt 0.581836 0.620019
vt 0.750017 0.621843
vt 0.569690 0.667298
vt 0.581066 0.387596
vt 0.531739 0.516092
vt 0.642835 0.625048
vt 0.273616 0.509019
vt 0.070982 0.710642
vt 0.316851 0.732164
vt 0.684917 0.393810
vt 0.816625 0.338063
vt 0.644803 0.392946
vt 0.602800 0.367236
vt 0.671871 0.661666
vt 0.181146 0.386242
vt 0.855113 0.259897
vt 0.463196 0.649131
vt 0.077903 0.567886
vt 0.078993 0.554271
vt 0.322237 0.720993
vt 0.070972 0.628379
vt 0.834014 0.651825
vt 0.084160 0.512738
vt 0.838315 0.596273
vt 0.320679 0.509019
vt 0.080733 0.539302
vt 0.857365 0.464048
vt 0.931678 0.351118
vt 0.335174 0.488977
vt 0.367094 0.673623
vt 0.939667 0.384854
vt 0.199177 0.651021
vt 0.069465 0.641494
vt 0.198664 0.632807
vt 0.464209 0.672968
vt 0.199604 0.684998
vt 0.465945 0.702696
vt 0.199840 0.723459
vt 0.466714 0.715004
vt 0.832520 0.720483
vt 0.200177 0.738589
vt 0.829423 0.735282
vt 0.076340 0.580490
vt 0.826046 0.701507
vt 0.074346 0.598181
vt 0.948795 0.287497
vt 0.823088 0.670800
vt 0.959731 0.307426
vt 0.948976 0.259488
vt 0.941524 0.331189
vt 0.875347 0.491894
vt 0.391834 0.432095
vt 0.377694 0.448634
vt 0.915590 0.478791
vt 0.834644 0.488373
vt 0.326937 0.619279
vt 0.938593 0.478810
vt 0.335216 0.632947
vt 0.358601 0.463790
vt 0.348787 0.648138
vt 0.927106 0.463378
vt 0.854274 0.489560
vt 0.315804 0.619182
vt 0.212520 0.321385
vt 0.644070 0.318501
vt 0.018976 0.592450
vt 0.663817 0.276029
vt 0.129819 0.597828
vt 0.224108 0.269832
vt 0.051049 0.586785
vt 0.728499 0.676310
vt 0.099637 0.591886
vt 0.730103 0.697776
vt 0.734390 0.646904
vt 0.920230 0.314550
vt 0.981025 0.324065
vt 0.732426 0.727384
vt 0.950683 0.319044
vt 0.753088 0.663662
vt 0.920230 0.273492
vt 0.977552 0.273492
vt 0.752543 0.710647
vt 0.709822 0.714522
vt 0.796001 0.686127
vt 0.853178 0.686127
vt 0.709822 0.659561
vt 0.824792 0.685890
vt 0.948939 0.273488
vt 0.731549 0.661651
vt 0.730449 0.712624
vt 0.878850 0.297575
vt 0.096711 0.342677
vt 0.285581 0.357771
vt 0.108549 0.696221
vt 0.804979 0.293594
vt 0.708839 0.350023
vt 0.668288 0.644023
vt 0.436089 0.526409
vt 0.145034 0.385321
vt 0.919159 0.607821
vt 0.247387 0.613831
vt 0.970304 0.416607
vt 0.947808 0.608020
vt 0.704660 0.516092
vt 0.970304 0.403829
vt 0.750017 0.516884
vt 0.618892 0.516092
vt 0.920230 0.404231
vt 0.273616 0.612878
vt 0.642836 0.516847
vt 0.938584 0.415207
vt 0.924281 0.443436
vt 0.075400 0.489812
vt 0.855524 0.444402
vt 0.531739 0.629156
vt 0.934913 0.435583
vt 0.576828 0.496673
vt 0.931440 0.443424
vt 0.848383 0.444289
vt 0.592622 0.497116
vt 0.934913 0.440184
vt 0.586164 0.496977
vt 0.517161 0.630156
vt 0.920230 0.438606
vt 0.085942 0.490043
vt 0.585376 0.420489
vt 0.510472 0.551446
vt 0.582586 0.444044
vt 0.504260 0.576063
vt 0.581388 0.469636
vt 0.508131 0.602400
vt 0.103684 0.463024
vt 0.477645 0.604263
vt 0.118194 0.440373
vt 0.454885 0.581958
vt 0.129418 0.415411
vt 0.438452 0.557360
vt 0.876897 0.417052
vt 0.081901 0.462161
vt 0.882279 0.393921
vt 0.081653 0.438865
vt 0.880271 0.363315
vt 0.079604 0.408162
vt 0.633117 0.418943
vt 0.615530 0.444447
vt 0.600997 0.469910
vt 0.614559 0.469949
vt 0.862035 0.416811
vt 0.638313 0.444473
vt 0.857648 0.390640
vt 0.666106 0.417503
vt 0.844696 0.362700
vt 0.167770 0.536691
vt 0.914144 0.688660
vt 0.182151 0.561697
vt 0.913298 0.663084
vt 0.189855 0.582503
vt 0.915415 0.641729
vt 0.680787 0.549268
vt 0.966165 0.641681
vt 0.684678 0.573659
vt 0.963812 0.665813
vt 0.684995 0.596421
vt 0.964308 0.688427
vt 0.584794 0.548886
vt 0.729850 0.550060
vt 0.578610 0.572959
vt 0.734888 0.574452
vt 0.569690 0.595426
vt 0.736445 0.597214
vt 0.642060 0.590920
vt 0.247172 0.543053
vt 0.641052 0.570535
vt 0.248998 0.562413
vt 0.635978 0.552556
vt 0.245738 0.579271
s 0
usemtl Material
f 89/203/1 7/19/1 13/32/1 90/205/1
f 8/22/2 7/19/2 89/203/2 58/151/2 54/142/2 53/136/2
f 6/18/3 56/148/3 57/150/3
f 3/8/4 106/231/4 4/9/4 59/153/4 88/202/4
f 6/17/5 107/233/5 5/14/5 60/154/5 1/1/5 105/229/5 2/4/5 56/149/5
f 61/156/6 13/33/6 16/38/6 62/157/6
f 5/16/7 14/35/7 31/77/7 29/72/7
f 88/202/8 1/3/8 10/26/8 91/207/8
f 67/164/9 21/53/9 20/50/9 65/161/9
f 13/32/10 7/19/10 12/30/10 16/39/10
f 3/8/11 9/25/11 11/28/11 15/36/11
f 55/147/12 3/6/12 15/37/12 63/158/12
f 66/162/13 19/48/13 17/40/13 65/160/13
f 23/57/14 22/55/14 17/41/14 19/49/14
f 83/191/15 82/190/15 25/63/15 26/67/15
f 15/36/16 11/28/16 22/55/16 23/57/16
f 62/157/17 16/38/17 21/53/17 67/164/17
f 69/169/18 26/66/18 25/64/18 68/166/18
f 87/200/19 84/193/19 24/60/19 68/165/19
f 86/197/20 83/191/20 26/67/20 69/167/20
f 84/194/21 85/196/21 27/68/21 24/61/21
f 70/170/22 29/73/22 31/78/22 71/172/22
f 70/170/23 28/71/23 34/85/23 73/174/23
f 10/26/24 1/3/24 28/70/24 30/74/24
f 64/159/25 10/27/25 30/75/25 71/171/25
f 34/84/26 32/80/26 36/88/26 38/92/26
f 60/155/27 5/15/27 33/83/27 72/173/27
f 5/16/28 29/72/28 35/86/28 33/82/28
f 28/70/29 1/3/29 32/80/29 34/84/29
f 37/90/30 39/94/30 43/105/30 41/99/30
f 73/174/31 34/85/31 38/93/31 75/176/31
f 33/82/32 35/86/32 39/94/32 37/90/32
f 72/173/33 33/83/33 37/91/33 74/175/33
f 76/178/34 41/100/34 43/106/34 77/180/34
f 74/175/35 37/91/35 41/101/35 76/177/35
f 38/92/36 36/88/36 40/96/36 42/102/36
f 75/176/37 38/93/37 42/103/37 77/179/37
f 102/226/38 97/218/38 51/129/38 81/187/38
f 91/206/39 10/27/39 45/111/39 93/210/39
f 90/204/40 13/33/40 46/114/40 92/208/40
f 61/156/41 9/24/41 44/108/41 78/181/41
f 64/159/42 14/34/42 47/117/42 79/183/42
f 96/216/43 94/213/43 50/126/43 80/186/43
f 101/225/44 99/222/44 48/120/44 80/185/44
f 104/228/45 98/220/45 49/123/45 95/215/45
f 103/227/46 100/224/46 50/127/46 94/212/46
f 8/23/47 53/137/47 52/132/47
f 8/23/48 52/132/48 4/10/48 106/232/48 3/7/48 55/146/48 7/20/48
f 54/142/49 58/151/49 89/203/49 5/16/49 107/234/49 6/18/49 57/150/49
f 100/223/50 101/225/50 80/185/50 50/128/50
f 95/214/51 96/216/51 80/186/51 48/121/51
f 10/27/52 64/159/52 79/183/52 45/111/52
f 13/33/53 61/156/53 78/181/53 46/114/53
f 98/219/54 102/226/54 81/187/54 49/124/54
f 39/95/55 75/176/55 77/179/55 43/107/55
f 36/89/56 74/175/56 76/177/56 40/97/56
f 40/98/57 76/178/57 77/180/57 42/104/57
f 32/81/58 72/173/58 74/175/58 36/89/58
f 35/87/59 73/174/59 75/176/59 39/95/59
f 1/2/60 60/155/60 72/173/60 32/81/60
f 14/34/61 64/159/61 71/171/61 31/79/61
f 29/73/62 70/170/62 73/174/62 35/87/62
f 28/71/63 70/170/63 71/172/63 30/76/63
f 85/196/64 86/198/64 69/168/64 27/68/64
f 82/189/65 87/200/65 68/165/65 25/65/65
f 27/69/66 69/169/66 68/166/66 24/62/66
f 11/29/67 62/157/67 67/164/67 22/56/67
f 18/43/68 66/162/68 65/160/68 20/51/68
f 7/21/69 55/147/69 63/158/69 12/31/69
f 22/56/70 67/164/70 65/161/70 17/42/70
f 9/24/71 61/156/71 62/157/71 11/29/71
f 19/48/72 66/162/72 87/200/72 82/189/72
f 12/30/73 18/44/73 20/52/73 21/54/73 16/39/73
f 66/163/74 18/47/74 84/194/74 87/201/74
f 23/57/75 19/49/75 82/190/75 83/191/75
f 49/125/76 81/188/76 96/216/76 95/214/76
f 97/217/77 103/227/77 94/212/77 51/130/77
f 99/221/78 104/228/78 95/215/78 48/122/78
f 81/188/79 51/131/79 94/213/79 96/216/79
f 14/34/80 90/204/80 92/208/80 47/117/80
f 9/24/81 91/206/81 93/210/81 44/108/81
f 3/8/82 88/202/82 91/207/82 9/25/82
f 5/16/83 89/203/83 90/205/83 14/35/83
f 44/109/84 93/211/84 104/228/84 99/221/84
f 47/118/85 92/209/85 103/227/85 97/217/85
f 45/112/86 79/184/86 102/226/86 98/219/86
f 46/115/87 78/182/87 101/225/87 100/223/87
f 92/209/88 46/116/88 100/224/88 103/227/88
f 93/211/89 45/113/89 98/220/89 104/228/89
f 78/182/90 44/110/90 99/222/90 101/225/90
f 79/184/91 47/119/91 97/218/91 102/226/91
f 59/152/92 4/11/92 52/133/92 53/138/92 54/141/92 108/235/92
f 136/298/93 110/241/93 109/238/93 135/296/93
f 121/271/94 120/269/94 114/253/94 117/261/94
f 139/304/95 111/244/95 110/242/95 136/297/95
f 135/295/96 109/239/96 112/247/96 144/314/96
f 144/313/97 112/248/97 111/245/97 139/303/97
f 111/246/98 112/249/98 109/240/98 110/243/98
f 117/262/99 114/254/99 116/259/99 115/256/99 113/250/99
f 124/277/100 121/270/100 117/263/100 113/251/100
f 120/268/101 129/284/101 116/260/101 114/255/101
f 130/286/102 124/276/102 113/252/102 115/257/102
f 129/284/103 130/285/103 115/258/103 116/260/103
f 57/150/104 56/148/104 132/289/104 127/282/104
f 127/282/105 132/289/105 131/287/105 128/283/105
f 128/283/106 131/287/106 130/285/106 129/284/106
f 56/149/107 2/4/107 126/280/107 132/290/107
f 132/290/108 126/280/108 125/278/108 131/288/108
f 131/288/109 125/278/109 124/276/109 130/286/109
f 54/142/110 57/150/110 127/282/110 118/264/110
f 118/264/111 127/282/111 128/283/111 119/266/111
f 119/266/112 128/283/112 129/284/112 120/268/112
f 2/5/113 108/237/113 123/274/113 126/281/113
f 126/281/114 123/274/114 122/272/114 125/279/114
f 125/279/115 122/272/115 121/270/115 124/277/115
f 108/236/116 54/143/116 118/265/116 123/275/116
f 123/275/117 118/265/117 119/267/117 122/273/117
f 122/273/118 119/267/118 120/269/118 121/271/118
f 54/144/119 142/309/119 141/307/119 53/139/119
f 142/309/120 143/311/120 140/305/120 141/307/120
f 143/311/121 144/313/121 139/303/121 140/305/121
f 4/12/122 133/291/122 142/310/122 54/145/122
f 133/291/123 134/293/123 143/312/123 142/310/123
f 134/293/124 135/295/124 144/314/124 143/312/124
f 53/140/125 141/308/125 138/301/125 52/134/125
f 141/308/126 140/306/126 137/299/126 138/301/126
f 140/306/127 139/304/127 136/297/127 137/299/127
f 52/135/128 138/302/128 133/292/128 4/13/128
f 138/302/129 137/300/129 134/294/129 133/292/129
f 137/300/130 136/298/130 135/296/130 134/294/130
f 105/230/131 1/3/131 88/202/131 59/153/131 108/237/131 2/5/131
f 86/199/132 85/195/132 83/192/132
f 83/192/133 85/195/133 18/45/133 23/58/133
f 63/158/134 15/37/134 23/59/134 18/46/134 12/31/134
f 84/194/135 18/47/135 85/196/135
l 52 106
