# Blender 3.3.1
# www.blender.org
mtllib monstruo_3_grande_caminar586.mtl
o monstruo_grande
v 0.341827 2.040965 0.178469
v 0.523797 1.168214 0.066396
v -0.712188 1.773147 0.100585
v -0.300009 1.180948 0.219079
v 0.600440 2.304804 -0.117282
v 0.552381 1.641768 -0.243730
v -0.801512 1.951636 -0.353214
v -0.714360 1.647524 -0.382982
v -0.350067 2.430225 0.352519
v 0.207316 2.325560 0.375634
v -0.492525 2.408085 0.444140
v -1.172546 2.013117 -0.236877
v -0.310688 2.563984 -0.015885
v 0.229021 2.452825 0.108889
v -1.038103 1.893765 -0.046856
v -0.472361 2.637619 -0.015226
v -0.851034 2.331599 0.434105
v -1.490290 1.966275 0.001048
v -1.234994 2.025263 0.229038
v -0.999402 2.616000 0.117690
v -0.659147 2.682337 0.030099
v -0.569425 2.363776 0.419516
v -1.169906 1.914514 -0.065668
v -1.881880 0.771670 0.743484
v -1.760102 0.750293 0.799013
v -1.736904 0.561274 0.610925
v -1.811234 0.574322 0.577031
v 0.335630 2.231781 0.366145
v 0.501799 2.412856 0.139777
v 0.316285 2.352274 0.377453
v 0.359365 2.473390 0.152396
v 0.554823 1.913191 0.216671
v 0.742662 1.951030 0.099389
v 0.588044 1.975559 0.271785
v 0.716868 2.074721 0.150791
v 0.672262 1.653153 0.287686
v 0.778101 1.660757 0.248185
v 0.713078 1.631126 0.382765
v 0.819634 1.647377 0.341006
v 0.650754 1.512119 0.351907
v 0.872218 1.544063 0.268786
v 0.667064 1.445171 0.536558
v 0.999868 1.492483 0.405097
v -0.188821 2.480965 0.388388
v 0.021500 2.456145 0.389787
v -0.168731 2.563798 0.134379
v 0.032538 2.538861 0.140761
v -0.132891 2.795729 0.530451
v 0.072880 2.726651 0.502199
v -0.133075 2.901502 0.273066
v 0.071235 2.833014 0.243621
v -0.502892 1.152114 0.012225
v -0.387890 1.135452 -0.200402
v -0.037334 1.256416 -0.338045
v -0.752743 1.794440 -0.132148
v 0.544454 1.247907 -0.155438
v 0.326589 1.276621 -0.278627
v 0.018470 1.508632 -0.345121
v -0.023587 1.135660 0.193762
v 0.433213 2.117144 0.076334
v -0.329757 2.477676 0.223737
v -0.495418 2.640060 0.258714
v -0.961345 1.949261 -0.167539
v 0.193850 2.447986 0.266874
v -0.869202 2.552217 0.363397
v -1.411368 2.131655 0.240313
v -0.647360 2.624437 0.239395
v -1.834355 0.762154 0.801007
v -1.753207 0.445737 0.501239
v 0.448746 2.328705 0.291253
v 0.338466 2.459443 0.284984
v 0.620448 1.913641 0.109638
v 0.685916 2.030051 0.253162
v 0.725412 1.660093 0.267006
v 0.766238 1.638683 0.361766
v 0.752493 1.528362 0.287266
v 0.816612 1.469990 0.428579
v -0.180977 2.520896 0.259990
v 0.024794 2.499273 0.264314
v -0.164143 2.850497 0.402810
v 0.103637 2.778374 0.372652
v -1.620994 1.066707 0.730336
v -1.681815 0.890551 0.671601
v -1.832502 1.073904 0.637576
v -1.796437 0.910672 0.619335
v -1.740367 0.729373 0.582269
v -1.753199 1.055431 0.735932
v -0.090978 1.812695 0.459184
v 0.128157 2.138115 -0.260764
v 0.049246 2.526765 -0.037850
v -0.047671 2.323783 0.530679
v -0.072076 2.549711 0.135642
v -0.078127 2.464961 0.388336
v -0.031287 2.882639 0.219021
v -0.030054 2.745310 0.554802
v -0.026443 2.865358 0.409116
v 0.064200 2.696338 0.166334
v 0.061374 2.579432 0.461364
v -0.174547 2.631554 0.482832
v -0.173926 2.748647 0.183943
v -0.191112 2.691818 0.334700
v 0.077938 2.637983 0.313344
v -0.055670 2.729915 0.154198
v -0.055109 2.595728 0.492495
v 0.420232 1.712142 0.020656
v -0.601735 1.501683 0.150401
v 0.564562 1.863702 -0.237543
v 0.172196 1.104216 0.178388
v -0.198150 0.032874 0.082788
v -0.342510 0.040360 0.205259
v -0.368462 0.036768 -0.045057
v -0.233303 0.031613 -0.059782
v 0.388821 0.163549 -0.465402
v 0.316864 0.192069 -0.537598
v 0.398897 0.180471 -0.499800
v 0.367923 0.189549 -0.525351
v 0.329710 0.156545 -0.458588
v 0.093175 0.909612 -0.196472
v 0.161617 0.718099 -0.229164
v 0.232102 0.451838 -0.357742
v 0.277983 0.349908 -0.214232
v 0.240651 0.526617 -0.029185
v 0.222759 0.749234 0.137654
v 0.397913 0.375835 -0.236352
v 0.442298 0.574128 -0.060000
v 0.502179 0.854655 0.097981
v 0.348022 0.941928 -0.178392
v 0.342536 0.717184 -0.207296
v 0.339778 0.450174 -0.343238
v 0.409892 0.425900 -0.300959
v 0.460743 0.680580 -0.137523
v 0.519322 0.932320 -0.072595
v -0.177748 0.938199 0.363340
v -0.149944 0.634064 0.334658
v -0.144469 0.387221 0.321996
v -0.429491 0.374824 0.310974
v -0.441093 0.651639 0.280212
v -0.464730 0.906967 0.241596
v -0.462705 0.397833 0.042393
v -0.471673 0.670872 0.012965
v -0.477407 0.875729 -0.032846
v -0.081023 0.835083 -0.052638
v -0.128270 0.649006 -0.026866
v -0.171064 0.441207 0.008916
vn -0.0093 0.4913 -0.8710
vn 0.0154 -0.0192 -0.9997
vn 0.4616 -0.2029 -0.8636
vn -0.3224 -0.2079 0.9235
vn 0.9033 -0.0252 0.4283
vn 0.5882 0.7891 0.1771
vn 0.1772 0.8979 -0.4029
vn 0.5716 -0.2029 0.7951
vn -0.1238 0.9483 0.2922
vn -0.0743 0.4692 -0.8800
vn -0.1931 -0.4144 0.8894
vn -0.3811 -0.8946 -0.2334
vn -0.3208 -0.0188 0.9470
vn 0.2696 -0.8170 0.5098
vn 0.9242 -0.2747 0.2655
vn -0.0809 -0.6603 0.7467
vn 0.0938 0.9888 0.1157
vn -0.0486 -0.6988 0.7136
vn -0.7007 0.3345 0.6302
vn 0.9499 -0.0334 -0.3108
vn -0.8388 0.0302 -0.5435
vn 0.5602 0.7270 0.3969
vn 0.3508 0.0870 0.9324
vn -0.3278 -0.5278 0.7836
vn -0.1566 0.6543 0.7398
vn -0.8564 -0.2002 0.4759
vn -0.2051 -0.4990 -0.8420
vn 0.8870 0.4616 0.0110
vn -0.4176 -0.6053 0.6777
vn 0.7111 0.6084 -0.3526
vn 0.1181 0.3141 0.9420
vn 0.9777 0.1013 -0.1842
vn -0.0359 -0.4973 -0.8668
vn 0.0594 -0.9134 -0.4027
vn -0.1826 -0.2457 -0.9520
vn -0.8749 0.3805 0.2997
vn 0.4131 0.4847 0.7710
vn 0.9839 -0.0293 -0.1764
vn 0.3270 0.6033 0.7274
vn 0.1079 0.9912 -0.0766
vn -0.3362 0.9023 0.2698
vn 0.3586 0.9121 0.1986
vn 0.0588 0.9753 0.2130
vn -0.9671 0.1265 0.2205
vn 0.2860 -0.3458 0.8937
vn -0.2404 0.4772 -0.8453
vn -0.7292 -0.5891 -0.3482
vn -0.9082 -0.3638 0.2071
vn 0.1677 0.0869 -0.9820
vn -0.9665 0.2465 -0.0715
vn 0.0567 0.8437 0.5339
vn 0.4039 0.7552 0.5162
vn -0.3204 0.9014 0.2914
vn 0.9813 -0.1627 0.1027
vn 0.1090 0.4385 0.8921
vn -0.4320 -0.2749 -0.8590
vn -0.0807 -0.9369 -0.3403
vn -0.6068 -0.5273 -0.5948
vn 0.6774 0.3811 0.6292
vn -0.4521 -0.6726 -0.5858
vn -0.1244 0.9914 0.0401
vn 0.7213 0.4915 0.4881
vn 0.5584 0.2724 0.7836
vn -0.3644 0.1973 -0.9101
vn 0.0366 0.2015 0.9788
vn -0.6936 -0.5856 0.4195
vn -0.2927 0.5383 0.7902
vn -0.7277 0.6632 0.1749
vn -0.3701 -0.8685 -0.3297
vn 0.1391 0.4794 0.8665
vn 0.5227 0.6225 0.5825
vn 0.1682 0.3845 0.9077
vn -0.3707 0.5280 -0.7641
vn -0.8744 0.4315 0.2220
vn 0.9322 -0.2755 0.2349
vn 0.5089 0.7003 0.5006
vn 0.2919 0.3959 -0.8707
vn -0.2481 -0.2729 0.9295
vn 0.5070 0.8517 0.1328
vn 0.3032 0.9522 -0.0361
vn -0.1784 0.5675 0.8038
vn -0.5049 -0.0631 0.8609
vn 0.1940 0.7202 -0.6661
vn -0.1591 -0.5552 0.8164
vn 0.0988 0.1151 -0.9884
vn 0.9481 -0.3145 -0.0481
vn -0.9942 -0.0052 -0.1078
vn -0.1012 0.1855 -0.9774
vn 0.0452 -0.5759 0.8163
vn -0.9995 -0.0031 0.0304
vn 0.9625 -0.2476 -0.1110
vn 0.0291 -0.9954 -0.0916
vn 0.2318 -0.4266 0.8742
vn -0.9436 -0.3278 0.0465
vn -0.9559 -0.2765 0.0987
vn 0.9853 -0.0914 -0.1441
vn -0.1271 0.1919 -0.9732
vn -0.0364 -0.9992 0.0180
vn 0.0611 -0.9071 -0.4165
vn 0.2378 -0.7269 0.6443
vn 0.1496 0.5863 -0.7962
vn 0.9816 -0.1516 0.1161
vn 0.5905 0.4981 -0.6350
vn 0.4744 -0.2411 -0.8466
vn 0.5273 0.0954 -0.8443
vn 0.5604 0.3681 -0.7419
vn 0.9956 -0.0610 0.0715
vn 0.9774 -0.2107 -0.0162
vn 0.9800 -0.1990 -0.0094
vn 0.1437 -0.3023 -0.9423
vn 0.0789 0.1576 -0.9843
vn 0.1155 0.4531 -0.8839
vn 0.2345 -0.0032 0.9721
vn 0.2868 -0.5364 0.7938
vn 0.2671 -0.6713 0.6914
vn -0.9334 -0.1978 0.2994
vn -0.9417 -0.2835 0.1810
vn -0.9505 -0.2967 0.0923
vn -0.1191 -0.5336 -0.8373
vn -0.0934 -0.1697 -0.9811
vn -0.1095 -0.1260 -0.9860
vn 0.8936 0.3135 0.3211
vn 0.9871 -0.0401 0.1549
vn 0.9965 -0.0826 -0.0157
vn -0.9781 -0.0576 -0.1998
vn -0.9956 -0.0488 0.0806
vn -0.9929 -0.0244 0.1163
vn -0.5456 0.3890 0.7423
vn -0.2913 -0.0098 0.9566
vn -0.1126 0.0307 0.9932
vn 0.4934 -0.1024 0.8638
vn 0.4390 0.3083 -0.8440
vn -0.1128 -0.5111 -0.8521
vn -0.1665 -0.8592 -0.4838
vn -0.8017 -0.1115 -0.5873
vt 0.882279 0.260085
vt 0.436089 0.649131
vt 0.117664 0.305524
vt 0.860974 0.338762
vt 0.079561 0.383885
vt 0.278417 0.728674
vt 0.111517 0.716819
vt 0.301243 0.337859
vt 0.232943 0.387386
vt 0.111517 0.662267
vt 0.671871 0.687525
vt 0.175114 0.511099
vt 0.930991 0.712692
vt 0.796001 0.259488
vt 0.522181 0.649131
vt 0.719621 0.316178
vt 0.801110 0.310020
vt 0.698705 0.366293
vt 0.510656 0.337024
vt 0.023033 0.717149
vt 0.367094 0.730187
vt 0.507246 0.358198
vt 0.018976 0.695717
vt 0.103380 0.570561
vt 0.268725 0.266033
vt 0.143950 0.273348
vt 0.098384 0.631539
vt 0.301351 0.259488
vt 0.128079 0.559933
vt 0.480438 0.333338
vt 0.348619 0.714075
vt 0.604958 0.268707
vt 0.031105 0.562973
vt 0.043818 0.625810
vt 0.721993 0.282954
vt 0.329365 0.336360
vt 0.302724 0.713315
vt 0.030374 0.549675
vt 0.582817 0.260846
vt 0.875347 0.642471
vt 0.380514 0.272320
vt 0.124895 0.517524
vt 0.813390 0.578569
vt 0.436089 0.332372
vt 0.956124 0.588845
vt 0.367094 0.692599
vt 0.367094 0.522797
vt 0.871643 0.594841
vt 0.398138 0.324445
vt 0.043891 0.509019
vt 0.796001 0.641153
vt 0.491075 0.268473
vt 0.032114 0.534706
vt 0.552485 0.259488
vt 0.331566 0.259909
vt 0.129819 0.544964
vt 0.339759 0.337186
vt 0.913298 0.588845
vt 0.317584 0.707220
vt 0.845734 0.463378
vt 0.311567 0.646434
vt 0.944558 0.353645
vt 0.398138 0.462439
vt 0.920230 0.354337
vt 0.870057 0.463781
vt 0.929709 0.374247
vt 0.357807 0.478584
vt 0.347994 0.663056
vt 0.944558 0.373825
vt 0.097076 0.285727
vt 0.229765 0.651022
vt 0.758050 0.297859
vt 0.168317 0.651042
vt 0.119329 0.272208
vt 0.094178 0.643292
vt 0.222768 0.636959
vt 0.746872 0.283208
vt 0.174541 0.636975
vt 0.045175 0.638147
vt 0.080672 0.327471
vt 0.442544 0.673801
vt 0.734592 0.339187
vt 0.484453 0.673801
vt 0.070725 0.319456
vt 0.218298 0.685110
vt 0.751374 0.331694
vt 0.180611 0.684911
vt 0.062412 0.356092
vt 0.455575 0.702696
vt 0.724658 0.367821
vt 0.476314 0.702696
vt 0.043357 0.357400
vt 0.210236 0.723455
vt 0.742364 0.370210
vt 0.189444 0.723462
vt 0.050281 0.367705
vt 0.444942 0.715336
vt 0.810526 0.722486
vt 0.728448 0.380153
vt 0.853695 0.722486
vt 0.487920 0.715336
vt 0.018975 0.371756
vt 0.232852 0.738567
vt 0.796001 0.739289
vt 0.758050 0.386241
vt 0.861207 0.739289
vt 0.167770 0.738589
vt 0.100634 0.583041
vt 0.712300 0.698974
vt 0.802197 0.701507
vt 0.098640 0.600731
vt 0.972705 0.287497
vt 0.747907 0.696578
vt 0.052045 0.577939
vt 0.849895 0.701507
vt 0.710445 0.675017
vt 0.050052 0.595630
vt 0.746553 0.677603
vt 0.924885 0.287497
vt 0.797725 0.671259
vt 0.981025 0.313792
vt 0.715147 0.730011
vt 0.752543 0.724602
vt 0.973919 0.259495
vt 0.967002 0.332143
vt 0.934252 0.306472
vt 0.715328 0.644023
vt 0.847669 0.671259
vt 0.923848 0.259495
vt 0.753088 0.649631
vt 0.920230 0.324823
vt 0.068284 0.665533
vt 0.630362 0.705721
vt 0.712055 0.621316
vt 0.966165 0.712391
vt 0.519769 0.388732
vt 0.031375 0.663704
vt 0.592215 0.695479
vt 0.581836 0.620019
vt 0.750017 0.621843
vt 0.569690 0.667298
vt 0.581066 0.387596
vt 0.531739 0.516092
vt 0.642835 0.625048
vt 0.273616 0.509019
vt 0.070982 0.710642
vt 0.316851 0.732164
vt 0.684917 0.393810
vt 0.816625 0.338063
vt 0.644803 0.392946
vt 0.602800 0.367236
vt 0.671871 0.661666
vt 0.181146 0.386242
vt 0.855113 0.259897
vt 0.463196 0.649131
vt 0.077903 0.567886
vt 0.078993 0.554271
vt 0.322237 0.720993
vt 0.070972 0.628379
vt 0.834014 0.651825
vt 0.084160 0.512738
vt 0.838315 0.596273
vt 0.320679 0.509019
vt 0.080733 0.539302
vt 0.857365 0.464048
vt 0.931678 0.351118
vt 0.335174 0.488977
vt 0.367094 0.673623
vt 0.939667 0.384854
vt 0.199177 0.651021
vt 0.069465 0.641494
vt 0.198664 0.632807
vt 0.464209 0.672968
vt 0.199604 0.684998
vt 0.465945 0.702696
vt 0.199840 0.723459
vt 0.466714 0.715004
vt 0.832520 0.720483
vt 0.200177 0.738589
vt 0.829423 0.735282
vt 0.076340 0.580490
vt 0.826046 0.701507
vt 0.074346 0.598181
vt 0.948795 0.287497
vt 0.823088 0.670800
vt 0.959731 0.307426
vt 0.948976 0.259488
vt 0.941524 0.331189
vt 0.875347 0.491894
vt 0.391834 0.432095
vt 0.377694 0.448634
vt 0.915590 0.478791
vt 0.834644 0.488373
vt 0.326937 0.619279
vt 0.938593 0.478810
vt 0.335216 0.632947
vt 0.358601 0.463790
vt 0.348787 0.648138
vt 0.927106 0.463378
vt 0.854274 0.489560
vt 0.315804 0.619182
vt 0.212520 0.321385
vt 0.644070 0.318501
vt 0.018976 0.592450
vt 0.663817 0.276029
vt 0.129819 0.597828
vt 0.224108 0.269832
vt 0.051049 0.586785
vt 0.728499 0.676310
vt 0.099637 0.591886
vt 0.730103 0.697776
vt 0.734390 0.646904
vt 0.920230 0.314550
vt 0.981025 0.324065
vt 0.732426 0.727384
vt 0.950683 0.319044
vt 0.753088 0.663662
vt 0.920230 0.273492
vt 0.977552 0.273492
vt 0.752543 0.710647
vt 0.709822 0.714522
vt 0.796001 0.686127
vt 0.853178 0.686127
vt 0.709822 0.659561
vt 0.824792 0.685890
vt 0.948939 0.273488
vt 0.731549 0.661651
vt 0.730449 0.712624
vt 0.878850 0.297575
vt 0.096711 0.342677
vt 0.285581 0.357771
vt 0.108549 0.696221
vt 0.804979 0.293594
vt 0.708839 0.350023
vt 0.668288 0.644023
vt 0.436089 0.526409
vt 0.145034 0.385321
vt 0.919159 0.607821
vt 0.247387 0.613831
vt 0.970304 0.416607
vt 0.947808 0.608020
vt 0.704660 0.516092
vt 0.970304 0.403829
vt 0.750017 0.516884
vt 0.618892 0.516092
vt 0.920230 0.404231
vt 0.273616 0.612878
vt 0.642836 0.516847
vt 0.938584 0.415207
vt 0.924281 0.443436
vt 0.075400 0.489812
vt 0.855524 0.444402
vt 0.531739 0.629156
vt 0.934913 0.435583
vt 0.576828 0.496673
vt 0.931440 0.443424
vt 0.848383 0.444289
vt 0.592622 0.497116
vt 0.934913 0.440184
vt 0.586164 0.496977
vt 0.517161 0.630156
vt 0.920230 0.438606
vt 0.085942 0.490043
vt 0.585376 0.420489
vt 0.510472 0.551446
vt 0.582586 0.444044
vt 0.504260 0.576063
vt 0.581388 0.469636
vt 0.508131 0.602400
vt 0.103684 0.463024
vt 0.477645 0.604263
vt 0.118194 0.440373
vt 0.454885 0.581958
vt 0.129418 0.415411
vt 0.438452 0.557360
vt 0.876897 0.417052
vt 0.081901 0.462161
vt 0.882279 0.393921
vt 0.081653 0.438865
vt 0.880271 0.363315
vt 0.079604 0.408162
vt 0.633117 0.418943
vt 0.615530 0.444447
vt 0.600997 0.469910
vt 0.614559 0.469949
vt 0.862035 0.416811
vt 0.638313 0.444473
vt 0.857648 0.390640
vt 0.666106 0.417503
vt 0.844696 0.362700
vt 0.167770 0.536691
vt 0.914144 0.688660
vt 0.182151 0.561697
vt 0.913298 0.663084
vt 0.189855 0.582503
vt 0.915415 0.641729
vt 0.680787 0.549268
vt 0.966165 0.641681
vt 0.684678 0.573659
vt 0.963812 0.665813
vt 0.684995 0.596421
vt 0.964308 0.688427
vt 0.584794 0.548886
vt 0.729850 0.550060
vt 0.578610 0.572959
vt 0.734888 0.574452
vt 0.569690 0.595426
vt 0.736445 0.597214
vt 0.642060 0.590920
vt 0.247172 0.543053
vt 0.641052 0.570535
vt 0.248998 0.562413
vt 0.635978 0.552556
vt 0.245738 0.579271
s 0
usemtl Material
f 89/203/1 7/19/1 13/32/1 90/205/1
f 8/22/2 7/19/2 89/203/2 58/151/2 54/142/2 53/136/2
f 6/18/3 56/148/3 57/150/3
f 3/8/4 106/231/4 4/9/4 59/153/4 88/202/4
f 6/17/5 107/233/5 5/14/5 60/154/5 1/1/5 105/229/5 2/4/5 56/149/5
f 61/156/6 13/33/6 16/38/6 62/157/6
f 5/16/7 14/35/7 31/77/7 29/72/7
f 88/202/8 1/3/8 10/26/8 91/207/8
f 67/164/9 21/53/9 20/50/9 65/161/9
f 13/32/10 7/19/10 12/30/10 16/39/10
f 3/8/11 9/25/11 11/28/11 15/36/11
f 55/147/12 3/6/12 15/37/12 63/158/12
f 66/162/13 19/48/13 17/40/13 65/160/13
f 23/57/14 22/55/14 17/41/14 19/49/14
f 83/191/15 82/190/15 25/63/15 26/67/15
f 15/36/16 11/28/16 22/55/16 23/57/16
f 62/157/17 16/38/17 21/53/17 67/164/17
f 69/169/18 26/66/18 25/64/18 68/166/18
f 87/200/19 84/193/19 24/60/19 68/165/19
f 86/197/20 83/191/20 26/67/20 69/167/20
f 84/194/21 85/196/21 27/68/21 24/61/21
f 70/170/22 29/73/22 31/78/22 71/172/22
f 70/170/23 28/71/23 34/85/23 73/174/23
f 10/26/24 1/3/24 28/70/24 30/74/24
f 64/159/25 10/27/25 30/75/25 71/171/25
f 34/84/26 32/80/26 36/88/26 38/92/26
f 60/155/27 5/15/27 33/83/27 72/173/27
f 5/16/28 29/72/28 35/86/28 33/82/28
f 28/70/29 1/3/29 32/80/29 34/84/29
f 37/90/30 39/94/30 43/105/30 41/99/30
f 73/174/31 34/85/31 38/93/31 75/176/31
f 33/82/32 35/86/32 39/94/32 37/90/32
f 72/173/33 33/83/33 37/91/33 74/175/33
f 76/178/34 41/100/34 43/106/34 77/180/34
f 74/175/35 37/91/35 41/101/35 76/177/35
f 38/92/36 36/88/36 40/96/36 42/102/36
f 75/176/37 38/93/37 42/103/37 77/179/37
f 102/226/38 97/218/38 51/129/38 81/187/38
f 91/206/39 10/27/39 45/111/39 93/210/39
f 90/204/40 13/33/40 46/114/40 92/208/40
f 61/156/41 9/24/41 44/108/41 78/181/41
f 64/159/42 14/34/42 47/117/42 79/183/42
f 96/216/43 94/213/43 50/126/43 80/186/43
f 101/225/44 99/222/44 48/120/44 80/185/44
f 104/228/45 98/220/45 49/123/45 95/215/45
f 103/227/46 100/224/46 50/127/46 94/212/46
f 8/23/47 53/137/47 52/132/47
f 8/23/48 52/132/48 4/10/48 106/232/48 3/7/48 55/146/48 7/20/48
f 54/142/49 58/151/49 89/203/49 5/16/49 107/234/49 6/18/49 57/150/49
f 100/223/50 101/225/50 80/185/50 50/128/50
f 95/214/51 96/216/51 80/186/51 48/121/51
f 10/27/52 64/159/52 79/183/52 45/111/52
f 13/33/53 61/156/53 78/181/53 46/114/53
f 98/219/54 102/226/54 81/187/54 49/124/54
f 39/95/55 75/176/55 77/179/55 43/107/55
f 36/89/56 74/175/56 76/177/56 40/97/56
f 40/98/57 76/178/57 77/180/57 42/104/57
f 32/81/58 72/173/58 74/175/58 36/89/58
f 35/87/59 73/174/59 75/176/59 39/95/59
f 1/2/60 60/155/60 72/173/60 32/81/60
f 14/34/61 64/159/61 71/171/61 31/79/61
f 29/73/62 70/170/62 73/174/62 35/87/62
f 28/71/63 70/170/63 71/172/63 30/76/63
f 85/196/64 86/198/64 69/168/64 27/68/64
f 82/189/65 87/200/65 68/165/65 25/65/65
f 27/69/66 69/169/66 68/166/66 24/62/66
f 11/29/67 62/157/67 67/164/67 22/56/67
f 18/43/68 66/162/68 65/160/68 20/51/68
f 7/21/69 55/147/69 63/158/69 12/31/69
f 22/56/70 67/164/70 65/161/70 17/42/70
f 9/24/71 61/156/71 62/157/71 11/29/71
f 19/48/72 66/162/72 87/200/72 82/189/72
f 12/30/73 18/44/73 20/52/73 21/54/73 16/39/73
f 66/163/74 18/47/74 84/194/74 87/201/74
f 23/57/75 19/49/75 82/190/75 83/191/75
f 49/125/76 81/188/76 96/216/76 95/214/76
f 97/217/77 103/227/77 94/212/77 51/130/77
f 99/221/78 104/228/78 95/215/78 48/122/78
f 81/188/79 51/131/79 94/213/79 96/216/79
f 14/34/80 90/204/80 92/208/80 47/117/80
f 9/24/81 91/206/81 93/210/81 44/108/81
f 3/8/82 88/202/82 91/207/82 9/25/82
f 5/16/83 89/203/83 90/205/83 14/35/83
f 44/109/84 93/211/84 104/228/84 99/221/84
f 47/118/85 92/209/85 103/227/85 97/217/85
f 45/112/86 79/184/86 102/226/86 98/219/86
f 46/115/87 78/182/87 101/225/87 100/223/87
f 92/209/88 46/116/88 100/224/88 103/227/88
f 93/211/89 45/113/89 98/220/89 104/228/89
f 78/182/90 44/110/90 99/222/90 101/225/90
f 79/184/91 47/119/91 97/218/91 102/226/91
f 59/152/92 4/11/92 52/133/92 53/138/92 54/141/92 108/235/92
f 136/298/93 110/241/93 109/238/93 135/296/93
f 121/271/94 120/269/94 114/253/94 117/261/94
f 139/304/95 111/244/95 110/242/95 136/297/95
f 135/295/96 109/239/96 112/247/96 144/314/96
f 144/313/97 112/248/97 111/245/97 139/303/97
f 111/246/98 112/249/98 109/240/98 110/243/98
f 117/262/99 114/254/99 116/259/99 115/256/99 113/250/99
f 124/277/100 121/270/100 117/263/100 113/251/100
f 120/268/101 129/284/101 116/260/101 114/255/101
f 130/286/102 124/276/102 113/252/102 115/257/102
f 129/284/103 130/285/103 115/258/103 116/260/103
f 57/150/104 56/148/104 132/289/104 127/282/104
f 127/282/105 132/289/105 131/287/105 128/283/105
f 128/283/106 131/287/106 130/285/106 129/284/106
f 56/149/107 2/4/107 126/280/107 132/290/107
f 132/290/108 126/280/108 125/278/108 131/288/108
f 131/288/109 125/278/109 124/276/109 130/286/109
f 54/142/110 57/150/110 127/282/110 118/264/110
f 118/264/111 127/282/111 128/283/111 119/266/111
f 119/266/112 128/283/112 129/284/112 120/268/112
f 2/5/113 108/237/113 123/274/113 126/281/113
f 126/281/114 123/274/114 122/272/114 125/279/114
f 125/279/115 122/272/115 121/270/115 124/277/115
f 108/236/116 54/143/116 118/265/116 123/275/116
f 123/275/117 118/265/117 119/267/117 122/273/117
f 122/273/118 119/267/118 120/269/118 121/271/118
f 54/144/119 142/309/119 141/307/119 53/139/119
f 142/309/120 143/311/120 140/305/120 141/307/120
f 143/311/121 144/313/121 139/303/121 140/305/121
f 4/12/122 133/291/122 142/310/122 54/145/122
f 133/291/123 134/293/123 143/312/123 142/310/123
f 134/293/124 135/295/124 144/314/124 143/312/124
f 53/140/125 141/308/125 138/301/125 52/134/125
f 141/308/126 140/306/126 137/299/126 138/301/126
f 140/306/127 139/304/127 136/297/127 137/299/127
f 52/135/128 138/302/128 133/292/128 4/13/128
f 138/302/129 137/300/129 134/294/129 133/292/129
f 137/300/130 136/298/130 135/296/130 134/294/130
f 105/230/131 1/3/131 88/202/131 59/153/131 108/237/131 2/5/131
f 86/199/132 85/195/132 83/192/132
f 83/192/133 85/195/133 18/45/133 23/58/133
f 63/158/134 15/37/134 23/59/134 18/46/134 12/31/134
f 84/194/135 18/47/135 85/196/135
l 52 106
