# Blender 3.3.1
# www.blender.org
mtllib monstruo_3_caminar520.mtl
o monstruo_grande
v 0.487902 1.962161 0.288944
v 0.522075 1.145678 0.107116
v -0.647712 1.832439 0.164126
v -0.323052 1.155391 0.205140
v 0.696759 2.232492 -0.043363
v 0.574778 1.556918 -0.239465
v -0.733676 2.068696 -0.259713
v -0.664987 1.767383 -0.332930
v -0.210798 2.407316 0.476155
v 0.332370 2.253909 0.466682
v -0.350444 2.385751 0.570479
v -1.089143 2.151311 -0.126859
v -0.173777 2.583607 0.125960
v 0.358857 2.396241 0.205328
v -0.959642 2.002043 0.033008
v -0.327741 2.672076 0.146788
v -0.716134 2.336865 0.563987
v -1.395539 2.082701 0.118105
v -1.132977 2.106698 0.335169
v -0.853504 2.677218 0.303410
v -0.507926 2.728012 0.210851
v -0.431760 2.348815 0.541402
v -1.087492 2.033314 0.024817
v -1.771688 0.822005 0.761255
v -1.649961 0.798172 0.815887
v -1.627412 0.616302 0.620802
v -1.701711 0.630849 0.587456
v 0.478672 2.161012 0.463908
v 0.616919 2.345891 0.217287
v 0.446711 2.274081 0.470424
v 0.489602 2.406161 0.246578
v 0.736005 1.835124 0.314717
v 0.880141 1.931370 0.161469
v 0.750714 1.919175 0.368008
v 0.854746 2.030421 0.227047
v 0.932528 1.609861 0.289385
v 1.019599 1.650536 0.229118
v 1.002231 1.581542 0.363656
v 1.087238 1.631355 0.303074
v 0.957373 1.458609 0.320365
v 1.135889 1.559813 0.197662
v 1.038312 1.364888 0.473693
v 1.304203 1.516698 0.282553
v -0.043128 2.440207 0.506297
v 0.164175 2.398375 0.495099
v -0.025674 2.545739 0.261271
v 0.173368 2.500181 0.252838
v 0.011618 2.754888 0.643099
v 0.217311 2.687081 0.611413
v 0.006709 2.859811 0.385977
v 0.212802 2.791813 0.354638
v -0.507108 1.189060 -0.025409
v -0.372689 1.207329 -0.226916
v -0.037277 1.276062 -0.333013
v -0.692682 1.883070 -0.061609
v 0.543402 1.140124 -0.129511
v 0.325587 1.142352 -0.253779
v 0.036726 1.521142 -0.324426
v -0.032878 1.149192 0.204754
v 0.561249 2.042035 0.179557
v -0.191265 2.469047 0.353367
v -0.338303 2.640080 0.417563
v -0.884108 2.064598 -0.077349
v 0.328777 2.383966 0.365680
v -0.715180 2.565496 0.531235
v -1.300853 2.218534 0.371008
v -0.491834 2.640740 0.404970
v -1.724176 0.810181 0.818358
v -1.644110 0.505030 0.506849
v 0.579630 2.265612 0.375116
v 0.473114 2.384777 0.381919
v 0.774129 1.864218 0.192040
v 0.838707 1.987275 0.333820
v 0.975252 1.633433 0.259021
v 1.044703 1.605792 0.333125
v 1.031307 1.511225 0.239381
v 1.143094 1.445521 0.342700
v -0.035848 2.492481 0.382829
v 0.166747 2.450165 0.373064
v -0.022297 2.808934 0.515830
v 0.246247 2.737892 0.481759
v -1.509885 1.116514 0.759120
v -1.571275 0.942886 0.693817
v -1.721257 1.127726 0.667218
v -1.685849 0.965318 0.642395
v -1.630358 0.785371 0.598501
v -1.642123 1.105447 0.764344
v -0.013933 1.764479 0.509251
v 0.201227 2.126592 -0.195150
v 0.180640 2.507976 0.074524
v 0.080232 2.263210 0.624373
v 0.069804 2.522429 0.255622
v 0.065924 2.421667 0.500512
v 0.109192 2.841559 0.331654
v 0.115216 2.705259 0.665789
v 0.115390 2.824744 0.519597
v 0.207014 2.654580 0.279435
v 0.208231 2.535777 0.572253
v -0.028497 2.589921 0.597957
v -0.030773 2.710513 0.303509
v -0.047157 2.650835 0.451198
v 0.222487 2.594790 0.424697
v 0.087093 2.690751 0.270926
v 0.090564 2.554745 0.604841
v 0.511891 1.646230 -0.025068
v -0.568500 1.537349 0.190694
v 0.611682 1.763834 -0.227944
v 0.168177 1.153404 0.216470
v -0.257214 0.170202 -0.372919
v -0.408007 0.120584 -0.269337
v -0.420586 0.225033 -0.497519
v -0.284782 0.230214 -0.504002
v 0.305069 -0.001960 0.169932
v 0.231878 -0.019169 0.095314
v 0.314596 -0.008169 0.131959
v 0.283184 -0.015037 0.106248
v 0.245961 -0.002823 0.180241
v 0.071803 0.835841 -0.048735
v 0.131629 0.604810 0.043381
v 0.168888 0.306341 0.090377
v 0.199400 0.296034 0.269406
v 0.181826 0.547920 0.325141
v 0.189625 0.826052 0.342348
v 0.321977 0.293768 0.246728
v 0.388992 0.549980 0.288596
v 0.477603 0.875722 0.267619
v 0.327008 0.844767 -0.026243
v 0.310642 0.598753 0.076277
v 0.275393 0.302518 0.112252
v 0.341203 0.298737 0.166543
v 0.422455 0.594673 0.163667
v 0.498374 0.869301 0.077838
v -0.239126 0.867415 0.289486
v -0.232683 0.570758 0.138445
v -0.242225 0.355038 0.004172
v -0.522797 0.383580 -0.040230
v -0.511113 0.644725 0.068707
v -0.511634 0.895319 0.139714
v -0.514233 0.532400 -0.267412
v -0.500805 0.780236 -0.155736
v -0.494705 0.933810 -0.127528
v -0.103463 0.862431 -0.116635
v -0.157352 0.735770 -0.163994
v -0.218452 0.549713 -0.246144
vn 0.0163 0.5837 -0.8118
vn 0.0037 0.0876 -0.9962
vn 0.4768 -0.2576 -0.8404
vn -0.3291 -0.2455 0.9118
vn 0.9482 -0.1644 0.2718
vn 0.6718 0.6995 0.2436
vn 0.1934 0.8964 -0.3988
vn 0.4846 -0.2706 0.8318
vn -0.0317 0.8995 0.4358
vn -0.0500 0.5809 -0.8124
vn -0.2299 -0.4928 0.8392
vn -0.4778 -0.8184 -0.3191
vn -0.2830 -0.1473 0.9477
vn 0.2043 -0.9064 0.3696
vn 0.9234 -0.2873 0.2546
vn -0.0900 -0.7768 0.6233
vn 0.1983 0.9500 0.2414
vn -0.0506 -0.7251 0.6868
vn -0.6991 0.3125 0.6431
vn 0.9497 -0.0246 -0.3122
vn -0.8392 0.0539 -0.5411
vn 0.6026 0.7133 0.3579
vn 0.4117 0.1850 0.8923
vn -0.3076 -0.5085 0.8042
vn -0.1103 0.6212 0.7759
vn -0.5986 -0.5091 0.6185
vn -0.2388 -0.5581 -0.7947
vn 0.8361 0.5422 -0.0834
vn -0.3195 -0.5913 0.7405
vn 0.4517 0.8212 -0.3489
vn 0.3201 0.1972 0.9266
vn 0.8199 0.3533 -0.4505
vn -0.1705 -0.3554 -0.9190
vn 0.1134 -0.7776 -0.6184
vn -0.3949 -0.1005 -0.9132
vn -0.8078 0.0896 0.5827
vn 0.5174 0.4210 0.7450
vn 0.9829 -0.0170 -0.1836
vn 0.4053 0.4878 0.7732
vn 0.2201 0.9744 0.0462
vn -0.2274 0.8929 0.3886
vn 0.4573 0.8536 0.2493
vn 0.0545 0.9758 0.2118
vn -0.9656 0.1149 0.2334
vn 0.2985 -0.3304 0.8954
vn -0.2569 0.4573 -0.8514
vn -0.7137 -0.4707 -0.5188
vn -0.9434 -0.2936 0.1545
vn 0.1551 0.1271 -0.9797
vn -0.9710 0.2292 -0.0675
vn 0.0605 0.8462 0.5295
vn 0.4910 0.6763 0.5492
vn -0.1825 0.8916 0.4143
vn 0.9851 -0.1417 0.0973
vn 0.2751 0.2789 0.9201
vn -0.6000 -0.2095 -0.7720
vn 0.0039 -0.8481 -0.5298
vn -0.6162 -0.5854 -0.5270
vn 0.7145 0.4529 0.5333
vn -0.4307 -0.7196 -0.5447
vn -0.0604 0.9928 0.1035
vn 0.7101 0.5724 0.4101
vn 0.5691 0.2953 0.7674
vn -0.3641 0.2326 -0.9019
vn 0.0375 0.1644 0.9857
vn -0.6953 -0.5988 0.3974
vn -0.2224 0.4410 0.8695
vn -0.6642 0.6901 0.2873
vn -0.4666 -0.7875 -0.4026
vn 0.2145 0.3238 0.9215
vn 0.6033 0.4891 0.6300
vn 0.2235 0.2858 0.9319
vn -0.3585 0.6651 -0.6550
vn -0.8622 0.4122 0.2944
vn 0.9390 -0.3042 0.1603
vn 0.5120 0.7057 0.4897
vn 0.2734 0.3887 -0.8799
vn -0.2266 -0.2683 0.9363
vn 0.5053 0.8534 0.1280
vn 0.4077 0.9114 0.0565
vn -0.1016 0.5021 0.8588
vn -0.4866 -0.1044 0.8674
vn 0.2614 0.7498 -0.6078
vn -0.1339 -0.5519 0.8231
vn 0.0567 0.1197 -0.9912
vn 0.9498 -0.3058 -0.0664
vn -0.9944 -0.0148 -0.1043
vn -0.1397 0.1735 -0.9749
vn 0.0351 -0.5630 0.8257
vn -0.9992 -0.0091 0.0383
vn 0.9584 -0.2510 -0.1358
vn 0.0447 -0.9817 -0.1853
vn 0.1212 -0.7887 0.6026
vn -0.9669 -0.1923 0.1678
vn -0.9604 -0.2471 -0.1290
vn 0.9947 -0.0804 -0.0636
vn -0.0050 0.6141 -0.7892
vn 0.0134 -0.9086 -0.4174
vn 0.0472 -0.9820 0.1830
vn 0.1707 -0.2570 0.9512
vn 0.2034 0.0240 -0.9788
vn 0.9651 -0.1133 0.2360
vn 0.6345 0.0311 -0.7723
vn 0.4409 -0.5665 -0.6962
vn 0.5387 -0.3694 -0.7572
vn 0.6098 -0.1707 -0.7740
vn 0.9903 -0.0956 0.1005
vn 0.9613 -0.2392 0.1366
vn 0.9470 -0.2669 0.1786
vn 0.0208 -0.5678 -0.8229
vn 0.1201 -0.3656 -0.9230
vn 0.1821 -0.1353 -0.9739
vn 0.2258 0.4141 0.8818
vn 0.2221 -0.0294 0.9746
vn 0.1730 -0.2020 0.9640
vn -0.9450 0.0139 0.3268
vn -0.9697 -0.0644 0.2358
vn -0.9824 -0.1004 0.1574
vn -0.1212 -0.3869 -0.9141
vn 0.0431 0.2515 -0.9669
vn 0.0357 0.4025 -0.9147
vn 0.8848 0.2023 0.4197
vn 0.9481 -0.2157 0.2336
vn 0.9792 -0.1975 0.0470
vn -0.9516 0.0731 -0.2984
vn -0.9986 0.0252 -0.0464
vn -0.9986 0.0529 -0.0084
vn -0.6010 0.2443 0.7610
vn -0.4018 -0.3487 0.8467
vn -0.2557 -0.4302 0.8658
vn 0.5114 -0.2399 0.8252
vn 0.4397 0.3385 -0.8319
vn -0.1605 -0.4252 -0.8908
vn -0.2396 -0.7718 -0.5890
vn -0.7905 -0.0795 -0.6072
vt 0.461701 0.809397
vt 0.301930 0.729761
vt 0.094158 0.499911
vt 0.498737 0.648456
vt 0.250869 0.553264
vt 0.714874 0.752530
vt 0.627854 0.740386
vt 0.227533 0.339544
vt 0.300362 0.438253
vt 0.625828 0.633709
vt 0.338991 0.679376
vt 0.653754 0.621457
vt 0.189641 0.785401
vt 0.531284 0.815038
vt 0.232114 0.729761
vt 0.806952 0.326283
vt 0.527824 0.712310
vt 0.703640 0.331352
vt 0.725736 0.123548
vt 0.557184 0.740386
vt 0.714874 0.681901
vt 0.693091 0.138725
vt 0.558638 0.706064
vt 0.944491 0.391302
vt 0.108931 0.369345
vt 0.090202 0.443431
vt 0.952837 0.467016
vt 0.108059 0.346292
vt 0.960024 0.371234
vt 0.653754 0.712739
vt 0.761990 0.055860
vt 0.265996 0.788213
vt 0.829683 0.188590
vt 0.886815 0.394232
vt 0.909606 0.471204
vt 0.826550 0.267021
vt 0.659457 0.749480
vt 0.206417 0.267620
vt 0.238389 0.812575
vt 0.882743 0.373659
vt 0.837846 0.166681
vt 0.102618 0.289588
vt 0.957957 0.321520
vt 0.918648 0.216117
vt 0.803322 0.012950
vt 0.106348 0.638847
vt 0.232551 0.755661
vt 0.798789 0.485160
vt 0.965752 0.239402
vt 0.153968 0.222285
vt 0.894228 0.312474
vt 0.856067 0.102710
vt 0.881967 0.351902
vt 0.842627 0.144082
vt 0.107159 0.331692
vt 0.958812 0.358201
vt 0.199778 0.246429
vt 0.138792 0.619338
vt 0.232114 0.797406
vt 0.967580 0.012950
vt 0.753483 0.682459
vt 0.843831 0.469074
vt 0.256421 0.022764
vt 0.824689 0.472884
vt 0.987050 0.016155
vt 0.832147 0.505580
vt 0.295109 0.018166
vt 0.782932 0.707368
vt 0.843831 0.503254
vt 0.076417 0.467161
vt 0.958695 0.494573
vt 0.833773 0.298242
vt 0.909847 0.503107
vt 0.076958 0.454690
vt 0.951531 0.482650
vt 0.837149 0.281767
vt 0.912926 0.487172
vt 0.064432 0.532285
vt 0.298790 0.687460
vt 0.825577 0.362572
vt 0.264894 0.686125
vt 0.056614 0.518895
vt 0.959622 0.549977
vt 0.837123 0.350740
vt 0.929664 0.555276
vt 0.051257 0.577890
vt 0.291936 0.641182
vt 0.824256 0.407314
vt 0.275162 0.640522
vt 0.035793 0.577862
vt 0.964581 0.612577
vt 0.838997 0.411720
vt 0.948088 0.615681
vt 0.039898 0.592711
vt 0.301778 0.620707
vt 0.403076 0.772170
vt 0.830596 0.428615
vt 0.403076 0.737417
vt 0.267017 0.619338
vt 0.012950 0.593438
vt 0.987050 0.637067
vt 0.428919 0.781443
vt 0.856067 0.440612
vt 0.428919 0.728949
vt 0.935424 0.646785
vt 0.945356 0.412724
vt 0.357115 0.854737
vt 0.331665 0.779032
vt 0.948027 0.441601
vt 0.799629 0.752473
vt 0.327972 0.853161
vt 0.906904 0.416128
vt 0.370069 0.779032
vt 0.684668 0.778429
vt 0.909575 0.445005
vt 0.655249 0.778999
vt 0.799629 0.791035
vt 0.330193 0.729131
vt 0.557184 0.775635
vt 0.363063 0.804932
vt 0.331684 0.807874
vt 0.754247 0.751428
vt 0.586563 0.768755
vt 0.566112 0.815056
vt 0.689281 0.828405
vt 0.370405 0.729131
vt 0.754247 0.791805
vt 0.657717 0.824383
vt 0.595492 0.808176
vt 0.327830 0.637821
vt 0.590400 0.642651
vt 0.164818 0.789976
vt 0.357235 0.619338
vt 0.642851 0.190721
vt 0.562581 0.649581
vt 0.406824 0.626953
vt 0.080449 0.619338
vt 0.646201 0.239681
vt 0.727583 0.656002
vt 0.597847 0.731399
vt 0.712829 0.722239
vt 0.658284 0.323708
vt 0.527919 0.666449
vt 0.661748 0.291537
vt 0.680225 0.245582
vt 0.377645 0.696957
vt 0.285191 0.477898
vt 0.483372 0.812325
vt 0.280072 0.728266
vt 0.924330 0.393087
vt 0.921760 0.373660
vt 0.678504 0.727397
vt 0.268491 0.812575
vt 0.930826 0.465310
vt 0.923786 0.327561
vt 0.941993 0.227167
vt 0.764056 0.466512
vt 0.919524 0.351927
vt 0.977463 0.013354
vt 0.833186 0.466512
vt 0.317617 0.012950
vt 0.798789 0.722800
vt 0.839639 0.522681
vt 0.934403 0.500152
vt 0.932138 0.484309
vt 0.281656 0.689101
vt 0.944784 0.554368
vt 0.283549 0.640852
vt 0.956335 0.614129
vt 0.284323 0.620942
vt 0.399765 0.754789
vt 0.961112 0.640376
vt 0.422297 0.755187
vt 0.926130 0.414426
vt 0.350867 0.779032
vt 0.928801 0.443303
vt 0.799629 0.771754
vt 0.350773 0.728949
vt 0.557184 0.796361
vt 0.753483 0.771844
vt 0.595492 0.787450
vt 0.985581 0.067358
vt 0.238180 0.070710
vt 0.259592 0.052321
vt 0.138792 0.821791
vt 0.953366 0.057503
vt 0.765454 0.639660
vt 0.120235 0.821584
vt 0.772730 0.660154
vt 0.283154 0.037949
vt 0.784440 0.682652
vt 0.128680 0.843910
vt 0.970110 0.058056
vt 0.758353 0.637393
vt 0.180368 0.432154
vt 0.759258 0.257498
vt 0.884976 0.446549
vt 0.828099 0.241547
vt 0.971226 0.428512
vt 0.101516 0.405509
vt 0.908240 0.430567
vt 0.669958 0.778714
vt 0.946692 0.427163
vt 0.342544 0.853949
vt 0.673120 0.826722
vt 0.582140 0.817526
vt 0.570535 0.766286
vt 0.348248 0.806122
vt 0.576699 0.792002
vt 0.653753 0.802281
vt 0.776512 0.794925
vt 0.776512 0.748700
vt 0.327830 0.829868
vt 0.363063 0.830170
vt 0.327830 0.753980
vt 0.373865 0.753980
vt 0.689281 0.803194
vt 0.351093 0.753886
vt 0.776117 0.771930
vt 0.671321 0.802907
vt 0.345899 0.829874
vt 0.457498 0.727404
vt 0.165986 0.548054
vt 0.260364 0.376248
vt 0.625887 0.695531
vt 0.520555 0.743605
vt 0.734596 0.339638
vt 0.406824 0.703049
vt 0.012950 0.651015
vt 0.277407 0.507014
vt 0.206214 0.619338
vt 0.706517 0.466512
vt 0.399765 0.822801
vt 0.181517 0.620770
vt 0.619265 0.470337
vt 0.422433 0.807343
vt 0.582936 0.466512
vt 0.458892 0.202188
vt 0.422433 0.843958
vt 0.727583 0.468029
vt 0.460639 0.221880
vt 0.402692 0.843997
vt 0.717439 0.778459
vt 0.429089 0.593438
vt 0.518160 0.466685
vt 0.070962 0.817001
vt 0.726094 0.791097
vt 0.457498 0.298878
vt 0.715181 0.783741
vt 0.523936 0.466512
vt 0.458951 0.311476
vt 0.719061 0.788282
vt 0.458165 0.306435
vt 0.058766 0.817583
vt 0.726094 0.778429
vt 0.431598 0.585369
vt 0.599953 0.261833
vt 0.080449 0.668491
vt 0.542336 0.274386
vt 0.076079 0.728305
vt 0.500395 0.287212
vt 0.064936 0.773359
vt 0.389801 0.564275
vt 0.039540 0.774208
vt 0.356388 0.547019
vt 0.031995 0.737396
vt 0.319737 0.531779
vt 0.030523 0.696843
vt 0.505723 0.512116
vt 0.384015 0.580847
vt 0.506522 0.550736
vt 0.346302 0.574833
vt 0.507607 0.604105
vt 0.294291 0.566034
vt 0.610540 0.298468
vt 0.545535 0.300686
vt 0.502363 0.302883
vt 0.504402 0.313331
vt 0.517745 0.511765
vt 0.548610 0.318269
vt 0.527842 0.556627
vt 0.609940 0.323717
vt 0.531284 0.618364
vt 0.660591 0.582499
vt 0.204501 0.743892
vt 0.668589 0.550878
vt 0.206214 0.710848
vt 0.668004 0.517120
vt 0.204545 0.678125
vt 0.623877 0.525891
vt 0.164692 0.675333
vt 0.610236 0.563455
vt 0.167167 0.712219
vt 0.605277 0.597358
vt 0.166352 0.745757
vt 0.511839 0.183186
vt 0.584607 0.521652
vt 0.552303 0.182624
vt 0.569857 0.561129
vt 0.598009 0.178631
vt 0.565182 0.606784
vt 0.592158 0.236754
vt 0.721184 0.600612
vt 0.550092 0.232946
vt 0.722606 0.558204
vt 0.518921 0.225772
vt 0.713819 0.525134
s 0
usemtl Material
f 89/196/1 7/19/1 13/33/1 90/198/1
f 8/22/2 7/19/2 89/196/2 58/145/2 54/138/2 53/134/2
f 6/18/3 56/142/3 57/144/3
f 3/8/4 106/224/4 4/9/4 59/147/4 88/195/4
f 6/17/5 107/226/5 5/14/5 60/148/5 1/1/5 105/222/5 2/4/5 56/143/5
f 61/150/6 13/34/6 16/40/6 62/151/6
f 5/16/7 14/36/7 31/76/7 29/72/7
f 88/195/8 1/3/8 10/26/8 91/200/8
f 67/158/9 21/53/9 20/51/9 65/155/9
f 13/33/10 7/19/10 12/31/10 16/41/10
f 3/8/11 9/25/11 11/28/11 15/38/11
f 55/141/12 3/6/12 15/37/12 63/152/12
f 66/156/13 19/49/13 17/43/13 65/155/13
f 23/57/14 22/55/14 17/42/14 19/50/14
f 83/184/15 82/183/15 25/63/15 26/67/15
f 15/38/16 11/28/16 22/55/16 23/57/16
f 62/151/17 16/40/17 21/53/17 67/158/17
f 69/163/18 26/66/18 25/64/18 68/160/18
f 87/193/19 84/186/19 24/60/19 68/159/19
f 86/190/20 83/184/20 26/67/20 69/161/20
f 84/187/21 85/189/21 27/68/21 24/61/21
f 70/164/22 29/73/22 31/77/22 71/165/22
f 70/164/23 28/71/23 34/83/23 73/167/23
f 10/26/24 1/3/24 28/70/24 30/74/24
f 64/154/25 10/27/25 30/75/25 71/165/25
f 34/82/26 32/78/26 36/86/26 38/90/26
f 60/149/27 5/15/27 33/81/27 72/166/27
f 5/16/28 29/72/28 35/84/28 33/80/28
f 28/70/29 1/3/29 32/78/29 34/82/29
f 37/88/30 39/92/30 43/103/30 41/97/30
f 73/167/31 34/83/31 38/91/31 75/169/31
f 33/80/32 35/84/32 39/92/32 37/88/32
f 72/166/33 33/81/33 37/89/33 74/168/33
f 76/171/34 41/98/34 43/104/34 77/173/34
f 74/168/35 37/89/35 41/99/35 76/170/35
f 38/90/36 36/86/36 40/94/36 42/100/36
f 75/169/37 38/91/37 42/101/37 77/172/37
f 102/219/38 97/211/38 51/127/38 81/180/38
f 91/199/39 10/27/39 45/109/39 93/203/39
f 90/197/40 13/34/40 46/112/40 92/201/40
f 61/150/41 9/24/41 44/106/41 78/174/41
f 64/154/42 14/35/42 47/115/42 79/176/42
f 96/209/43 94/206/43 50/124/43 80/179/43
f 101/218/44 99/215/44 48/118/44 80/178/44
f 104/221/45 98/213/45 49/121/45 95/208/45
f 103/220/46 100/217/46 50/125/46 94/205/46
f 8/23/47 53/135/47 52/131/47
f 8/23/48 52/131/48 4/10/48 106/225/48 3/7/48 55/140/48 7/20/48
f 54/138/49 58/145/49 89/196/49 5/16/49 107/227/49 6/18/49 57/144/49
f 100/216/50 101/218/50 80/178/50 50/126/50
f 95/207/51 96/209/51 80/179/51 48/119/51
f 10/27/52 64/154/52 79/176/52 45/109/52
f 13/34/53 61/150/53 78/174/53 46/112/53
f 98/212/54 102/219/54 81/180/54 49/122/54
f 39/93/55 75/169/55 77/172/55 43/105/55
f 36/87/56 74/168/56 76/170/56 40/95/56
f 40/96/57 76/171/57 77/173/57 42/102/57
f 32/79/58 72/166/58 74/168/58 36/87/58
f 35/85/59 73/167/59 75/169/59 39/93/59
f 1/2/60 60/149/60 72/166/60 32/79/60
f 14/35/61 64/154/61 71/165/61 31/77/61
f 29/73/62 70/164/62 73/167/62 35/85/62
f 28/71/63 70/164/63 71/165/63 30/75/63
f 85/189/64 86/191/64 69/162/64 27/68/64
f 82/182/65 87/193/65 68/159/65 25/65/65
f 27/69/66 69/163/66 68/160/66 24/62/66
f 11/29/67 62/151/67 67/158/67 22/56/67
f 18/44/68 66/156/68 65/155/68 20/51/68
f 7/21/69 55/141/69 63/152/69 12/30/69
f 22/56/70 67/158/70 65/155/70 17/43/70
f 9/24/71 61/150/71 62/151/71 11/29/71
f 19/49/72 66/156/72 87/193/72 82/182/72
f 12/31/73 18/45/73 20/52/73 21/54/73 16/41/73
f 66/157/74 18/48/74 84/187/74 87/194/74
f 23/57/75 19/50/75 82/183/75 83/184/75
f 49/123/76 81/181/76 96/209/76 95/207/76
f 97/210/77 103/220/77 94/205/77 51/128/77
f 99/214/78 104/221/78 95/208/78 48/120/78
f 81/181/79 51/129/79 94/206/79 96/209/79
f 14/35/80 90/197/80 92/201/80 47/115/80
f 9/24/81 91/199/81 93/203/81 44/106/81
f 3/8/82 88/195/82 91/200/82 9/25/82
f 5/16/83 89/196/83 90/198/83 14/36/83
f 44/107/84 93/204/84 104/221/84 99/214/84
f 47/116/85 92/202/85 103/220/85 97/210/85
f 45/110/86 79/177/86 102/219/86 98/212/86
f 46/113/87 78/175/87 101/218/87 100/216/87
f 92/202/88 46/114/88 100/217/88 103/220/88
f 93/204/89 45/111/89 98/213/89 104/221/89
f 78/175/90 44/108/90 99/215/90 101/218/90
f 79/177/91 47/117/91 97/211/91 102/219/91
f 59/146/92 4/11/92 52/130/92 53/133/92 54/136/92 108/228/92
f 136/291/93 110/234/93 109/231/93 135/289/93
f 121/264/94 120/262/94 114/246/94 117/254/94
f 139/297/95 111/237/95 110/235/95 136/290/95
f 135/288/96 109/232/96 112/240/96 144/307/96
f 144/306/97 112/241/97 111/238/97 139/296/97
f 111/239/98 112/242/98 109/233/98 110/236/98
f 117/255/99 114/247/99 116/252/99 115/249/99 113/243/99
f 124/270/100 121/263/100 117/256/100 113/244/100
f 120/261/101 129/277/101 116/253/101 114/248/101
f 130/279/102 124/269/102 113/245/102 115/250/102
f 129/277/103 130/278/103 115/251/103 116/253/103
f 57/144/104 56/142/104 132/282/104 127/275/104
f 127/275/105 132/282/105 131/280/105 128/276/105
f 128/276/106 131/280/106 130/278/106 129/277/106
f 56/143/107 2/4/107 126/273/107 132/283/107
f 132/283/108 126/273/108 125/271/108 131/281/108
f 131/281/109 125/271/109 124/269/109 130/279/109
f 54/138/110 57/144/110 127/275/110 118/257/110
f 118/257/111 127/275/111 128/276/111 119/259/111
f 119/259/112 128/276/112 129/277/112 120/261/112
f 2/5/113 108/230/113 123/267/113 126/274/113
f 126/274/114 123/267/114 122/265/114 125/272/114
f 125/272/115 122/265/115 121/263/115 124/270/115
f 108/229/116 54/137/116 118/258/116 123/268/116
f 123/268/117 118/258/117 119/260/117 122/266/117
f 122/266/118 119/260/118 120/262/118 121/264/118
f 54/138/119 142/302/119 141/300/119 53/134/119
f 142/302/120 143/304/120 140/298/120 141/300/120
f 143/304/121 144/306/121 139/296/121 140/298/121
f 4/12/122 133/284/122 142/303/122 54/139/122
f 133/284/123 134/286/123 143/305/123 142/303/123
f 134/286/124 135/288/124 144/307/124 143/305/124
f 53/135/125 141/301/125 138/294/125 52/131/125
f 141/301/126 140/299/126 137/292/126 138/294/126
f 140/299/127 139/297/127 136/290/127 137/292/127
f 52/132/128 138/295/128 133/285/128 4/13/128
f 138/295/129 137/293/129 134/287/129 133/285/129
f 137/293/130 136/291/130 135/289/130 134/287/130
f 105/223/131 1/3/131 88/195/131 59/147/131 108/230/131 2/5/131
f 86/192/132 85/188/132 83/185/132
f 83/185/133 85/188/133 18/46/133 23/58/133
f 63/153/134 15/39/134 23/59/134 18/47/134 12/32/134
f 84/187/135 18/48/135 85/189/135
l 52 106
