# Blender 3.3.1
# www.blender.org
mtllib monstruo_3_grande_caminar665.mtl
o monstruo_grande
v 0.525492 1.958574 0.365675
v 0.521892 1.111948 0.081407
v -0.622941 1.815504 0.180826
v -0.301077 1.209590 0.234125
v 0.811028 2.236903 0.107975
v 0.624454 1.555156 -0.243186
v -0.715749 2.025779 -0.246693
v -0.660897 1.725218 -0.325321
v -0.212577 2.379083 0.503453
v 0.331324 2.249915 0.525634
v -0.350438 2.350841 0.594101
v -1.065071 2.062137 -0.099553
v -0.176519 2.563039 0.155483
v 0.381251 2.387879 0.263680
v -0.921335 1.932446 0.064119
v -0.337915 2.642308 0.173084
v -0.700787 2.276707 0.588168
v -1.363827 1.967073 0.154769
v -1.096992 2.008711 0.364102
v -0.866044 2.603503 0.325646
v -0.526312 2.684561 0.233899
v -0.422734 2.311967 0.564791
v -1.050370 1.942217 0.056698
v -1.665605 0.701125 0.811346
v -1.542518 0.683949 0.865429
v -1.504305 0.517412 0.659399
v -1.579434 0.527896 0.626388
v 0.452072 2.156664 0.528732
v 0.645346 2.348880 0.336256
v 0.436027 2.272455 0.537526
v 0.507012 2.401918 0.324788
v 0.731121 1.881317 0.482576
v 0.938951 1.909987 0.416451
v 0.745221 1.940050 0.522603
v 0.888852 2.043560 0.430420
v 0.827391 1.704501 0.707448
v 0.940163 1.700226 0.678350
v 0.858167 1.741549 0.802072
v 0.967833 1.739686 0.767524
v 0.801316 1.621072 0.837461
v 1.029643 1.617857 0.768816
v 0.799010 1.667987 1.028872
v 1.143093 1.658933 0.920229
v -0.047910 2.420725 0.536951
v 0.159879 2.384879 0.533296
v -0.024956 2.533034 0.295821
v 0.179735 2.491943 0.293615
v 0.008344 2.720330 0.703205
v 0.213495 2.649791 0.674064
v 0.016979 2.847833 0.456216
v 0.221591 2.777547 0.426189
v -0.506836 1.202736 0.032282
v -0.394867 1.169021 -0.178712
v -0.044918 1.279682 -0.330339
v -0.674441 1.860056 -0.050815
v 0.537978 1.143600 -0.156859
v 0.318928 1.171624 -0.275704
v 0.041287 1.529024 -0.315217
v -0.026089 1.145559 0.202288
v 0.632118 2.036058 0.283759
v -0.193284 2.443585 0.381916
v -0.350430 2.605994 0.444697
v -0.858649 2.010193 -0.057520
v 0.335668 2.377596 0.422044
v -0.720245 2.505513 0.555457
v -1.272386 2.112124 0.400393
v -0.503156 2.598726 0.428711
v -1.617480 0.689623 0.868001
v -1.511334 0.412665 0.538468
v 0.565949 2.266323 0.476553
v 0.474131 2.382914 0.454712
v 0.820921 1.857395 0.411725
v 0.837042 2.003192 0.527049
v 0.882591 1.702892 0.690528
v 0.913129 1.740103 0.784718
v 0.909066 1.606347 0.782998
v 0.958751 1.640005 0.937551
v -0.037310 2.476485 0.414929
v 0.167544 2.439973 0.412676
v -0.018623 2.786459 0.580046
v 0.248962 2.711519 0.550361
v -1.429060 1.015721 0.830226
v -1.475641 0.842165 0.753492
v -1.640379 1.016293 0.737955
v -1.591494 0.858331 0.702587
v -1.521149 0.686744 0.647850
v -1.559946 0.993492 0.833568
v 0.001248 1.743378 0.521920
v 0.248197 2.126652 -0.166328
v 0.191446 2.502301 0.114363
v 0.066209 2.253686 0.656509
v 0.072664 2.512758 0.292906
v 0.060666 2.401549 0.533507
v 0.120460 2.831596 0.403668
v 0.109595 2.665944 0.725587
v 0.119115 2.797944 0.590923
v 0.214735 2.647518 0.336879
v 0.201837 2.505291 0.620333
v -0.034235 2.561697 0.641149
v -0.023353 2.705551 0.355847
v -0.045557 2.635288 0.499002
v 0.223326 2.576130 0.478513
v 0.095522 2.686218 0.326387
v 0.083791 2.522608 0.650134
v 0.615418 1.619532 0.020858
v -0.554427 1.542906 0.196076
v 0.702747 1.763529 -0.198425
v 0.167829 1.115607 0.199899
v -0.295000 0.185182 -0.215732
v -0.434438 0.140039 -0.095505
v -0.469702 0.248652 -0.319764
v -0.335520 0.248444 -0.342271
v 0.251743 -0.033844 0.011313
v 0.180205 -0.045761 -0.066108
v 0.262209 -0.038113 -0.026664
v 0.231380 -0.043104 -0.053530
v 0.192303 -0.034401 0.019959
v 0.059351 0.844409 -0.119418
v 0.111303 0.591030 -0.062060
v 0.127440 0.287237 -0.046890
v 0.153265 0.255076 0.130315
v 0.150685 0.499770 0.213861
v 0.175964 0.773105 0.262472
v 0.275918 0.247224 0.109354
v 0.358771 0.491977 0.180063
v 0.466284 0.819525 0.194914
v 0.313786 0.844544 -0.099984
v 0.288783 0.569948 -0.027830
v 0.232998 0.274010 -0.023953
v 0.297204 0.259829 0.030538
v 0.398282 0.548767 0.059832
v 0.486199 0.844548 0.005329
v -0.209817 0.954536 0.389564
v -0.220742 0.628613 0.280627
v -0.240196 0.396909 0.161963
v -0.523172 0.423115 0.139151
v -0.504461 0.696419 0.228679
v -0.497381 0.957775 0.269342
v -0.534117 0.555854 -0.098696
v -0.514188 0.809236 -0.001652
v -0.511062 0.931682 0.005439
v -0.120691 0.855017 -0.010824
v -0.172813 0.761572 -0.033263
v -0.237755 0.573521 -0.103179
vn 0.0056 0.5971 -0.8022
vn -0.0095 0.0857 -0.9963
vn 0.4320 -0.2712 -0.8601
vn -0.3344 -0.2617 0.9054
vn 0.9247 -0.2927 0.2432
vn 0.6244 0.7343 0.2664
vn 0.2326 0.9030 -0.3611
vn 0.3910 -0.2613 0.8825
vn -0.1108 0.8952 0.4316
vn -0.1163 0.6067 -0.7864
vn -0.1609 -0.5505 0.8192
vn -0.3980 -0.8630 -0.3113
vn -0.2645 -0.1654 0.9501
vn 0.2886 -0.8844 0.3668
vn 0.9431 -0.2260 0.2440
vn 0.0061 -0.7998 0.6002
vn 0.1311 0.9598 0.2484
vn 0.0072 -0.7692 0.6389
vn -0.7229 0.2112 0.6579
vn 0.9496 0.0737 -0.3048
vn -0.8391 0.0195 -0.5436
vn 0.4762 0.7395 0.4758
vn 0.0761 0.1803 0.9807
vn -0.4243 -0.5249 0.7378
vn -0.2094 0.6256 0.7515
vn -0.9356 -0.0524 0.3491
vn 0.0816 -0.6215 -0.7792
vn 0.8099 0.5683 0.1453
vn -0.4954 -0.6063 0.6221
vn 0.7418 0.3704 -0.5591
vn -0.2326 0.6956 0.6797
vn 0.9904 0.1373 -0.0149
vn 0.2038 -0.8008 -0.5632
vn 0.1158 -0.9774 0.1770
vn -0.0637 -0.7334 -0.6768
vn -0.9075 0.4187 -0.0326
vn 0.3216 0.8567 0.4033
vn 0.9883 -0.0303 -0.1494
vn 0.3148 0.5206 0.7936
vn 0.1752 0.9836 0.0423
vn -0.2851 0.8729 0.3960
vn 0.4071 0.8695 0.2799
vn 0.0704 0.9516 0.2991
vn -0.9710 0.1232 0.2050
vn 0.2547 -0.4234 0.8694
vn -0.2109 0.5478 -0.8096
vn -0.8053 -0.4777 -0.3510
vn -0.9382 -0.2674 0.2198
vn 0.1731 0.2180 -0.9605
vn -0.9606 0.2673 -0.0762
vn 0.0581 0.7935 0.6058
vn 0.4031 0.6987 0.5911
vn -0.2468 0.8718 0.4232
vn 0.9760 -0.1830 0.1180
vn 0.0063 0.8625 0.5060
vn -0.3331 -0.7334 -0.5926
vn -0.0296 -0.9726 0.2306
vn -0.3955 -0.8194 -0.4150
vn 0.3624 0.7200 0.5918
vn -0.1963 -0.8188 -0.5395
vn -0.0989 0.9923 0.0739
vn 0.5101 0.6148 0.6015
vn 0.4214 0.2446 0.8733
vn -0.3788 0.2590 -0.8885
vn 0.0202 0.1035 0.9944
vn -0.6448 -0.6783 0.3525
vn -0.2610 0.4193 0.8695
vn -0.7143 0.6353 0.2935
vn -0.3914 -0.8446 -0.3652
vn 0.1914 0.3387 0.9212
vn 0.5680 0.5119 0.6444
vn 0.2069 0.3313 0.9205
vn -0.4150 0.6326 -0.6539
vn -0.8721 0.3856 0.3011
vn 0.9533 -0.2560 0.1601
vn 0.5080 0.6444 0.5716
vn 0.3189 0.4633 -0.8268
vn -0.2758 -0.3459 0.8968
vn 0.5193 0.8256 0.2208
vn 0.3803 0.9215 0.0781
vn -0.1354 0.5138 0.8471
vn -0.4990 -0.1430 0.8547
vn 0.3207 0.7622 -0.5623
vn -0.1780 -0.6194 0.7646
vn 0.1030 0.2087 -0.9725
vn 0.9432 -0.3280 -0.0526
vn -0.9928 0.0306 -0.1160
vn -0.0948 0.2660 -0.9593
vn 0.0045 -0.6454 0.7638
vn -0.9999 0.0125 0.0089
vn 0.9600 -0.2580 -0.1088
vn -0.0171 -0.9944 -0.1038
vn 0.1781 -0.7605 0.6244
vn -0.9771 -0.1706 0.1273
vn -0.9721 -0.2332 -0.0246
vn 0.9827 -0.0995 -0.1565
vn -0.0743 0.5894 -0.8044
vn -0.0740 -0.9018 -0.4258
vn 0.0282 -0.9912 0.1295
vn 0.1380 -0.3366 0.9315
vn 0.2259 0.0906 -0.9699
vn 0.9548 -0.1640 0.2479
vn 0.6526 0.0676 -0.7547
vn 0.4159 -0.4609 -0.7840
vn 0.5273 -0.2824 -0.8014
vn 0.6119 -0.1302 -0.7801
vn 0.9867 -0.1497 0.0632
vn 0.9508 -0.2914 0.1054
vn 0.9235 -0.3484 0.1606
vn 0.0286 -0.4492 -0.8930
vn 0.1089 -0.2316 -0.9667
vn 0.1927 -0.0439 -0.9803
vn 0.2545 0.2407 0.9366
vn 0.2081 -0.1481 0.9668
vn 0.1402 -0.3185 0.9375
vn -0.9419 -0.0182 0.3354
vn -0.9745 -0.0457 0.2198
vn -0.9904 -0.0499 0.1289
vn -0.1570 -0.5688 -0.8074
vn -0.0400 0.1454 -0.9886
vn -0.0359 0.3596 -0.9324
vn 0.9153 0.2445 0.3201
vn 0.9639 -0.1999 0.1756
vn 0.9816 -0.1901 -0.0162
vn -0.9777 0.0357 -0.2069
vn -0.9985 0.0202 0.0508
vn -0.9964 0.0485 0.0694
vn -0.4824 0.4787 0.7336
vn -0.3068 -0.2261 0.9245
vn -0.1808 -0.3631 0.9140
vn 0.4422 -0.3240 0.8364
vn 0.4131 0.4261 -0.8048
vn -0.1401 -0.4543 -0.8798
vn -0.1569 -0.7971 -0.5832
vn -0.8068 -0.1202 -0.5785
vt 0.882279 0.260085
vt 0.436089 0.649131
vt 0.117664 0.305524
vt 0.860974 0.338762
vt 0.079561 0.383885
vt 0.278417 0.728674
vt 0.111517 0.716819
vt 0.301243 0.337859
vt 0.232943 0.387386
vt 0.111517 0.662267
vt 0.671871 0.687525
vt 0.175114 0.511099
vt 0.930991 0.712692
vt 0.796001 0.259488
vt 0.522181 0.649131
vt 0.719621 0.316178
vt 0.801110 0.310020
vt 0.698705 0.366293
vt 0.510656 0.337024
vt 0.023033 0.717149
vt 0.367094 0.730187
vt 0.507246 0.358198
vt 0.018976 0.695717
vt 0.103380 0.570561
vt 0.268725 0.266033
vt 0.143950 0.273348
vt 0.098384 0.631539
vt 0.301351 0.259488
vt 0.128079 0.559933
vt 0.480438 0.333338
vt 0.348619 0.714075
vt 0.604958 0.268707
vt 0.031105 0.562973
vt 0.043818 0.625810
vt 0.721993 0.282954
vt 0.329365 0.336360
vt 0.302724 0.713315
vt 0.030374 0.549675
vt 0.582817 0.260846
vt 0.875347 0.642471
vt 0.380514 0.272320
vt 0.124895 0.517524
vt 0.813390 0.578569
vt 0.436089 0.332372
vt 0.956124 0.588845
vt 0.367094 0.692599
vt 0.367094 0.522797
vt 0.871643 0.594841
vt 0.398138 0.324445
vt 0.043891 0.509019
vt 0.796001 0.641153
vt 0.491075 0.268473
vt 0.032114 0.534706
vt 0.552485 0.259488
vt 0.331566 0.259909
vt 0.129819 0.544964
vt 0.339759 0.337186
vt 0.913298 0.588845
vt 0.317584 0.707220
vt 0.845734 0.463378
vt 0.311567 0.646434
vt 0.944558 0.353645
vt 0.398138 0.462439
vt 0.920230 0.354337
vt 0.870057 0.463781
vt 0.929709 0.374247
vt 0.357807 0.478584
vt 0.347994 0.663056
vt 0.944558 0.373825
vt 0.097076 0.285727
vt 0.229765 0.651022
vt 0.758050 0.297859
vt 0.168317 0.651042
vt 0.119329 0.272208
vt 0.094178 0.643292
vt 0.222768 0.636959
vt 0.746872 0.283208
vt 0.174541 0.636975
vt 0.045175 0.638147
vt 0.080672 0.327471
vt 0.442544 0.673801
vt 0.734592 0.339187
vt 0.484453 0.673801
vt 0.070725 0.319456
vt 0.218298 0.685110
vt 0.751374 0.331694
vt 0.180611 0.684911
vt 0.062412 0.356092
vt 0.455575 0.702696
vt 0.724658 0.367821
vt 0.476314 0.702696
vt 0.043357 0.357400
vt 0.210236 0.723455
vt 0.742364 0.370210
vt 0.189444 0.723462
vt 0.050281 0.367705
vt 0.444942 0.715336
vt 0.810526 0.722486
vt 0.728448 0.380153
vt 0.853695 0.722486
vt 0.487920 0.715336
vt 0.018975 0.371756
vt 0.232852 0.738567
vt 0.796001 0.739289
vt 0.758050 0.386241
vt 0.861207 0.739289
vt 0.167770 0.738589
vt 0.100634 0.583041
vt 0.712300 0.698974
vt 0.802197 0.701507
vt 0.098640 0.600731
vt 0.972705 0.287497
vt 0.747907 0.696578
vt 0.052045 0.577939
vt 0.849895 0.701507
vt 0.710445 0.675017
vt 0.050052 0.595630
vt 0.746553 0.677603
vt 0.924885 0.287497
vt 0.797725 0.671259
vt 0.981025 0.313792
vt 0.715147 0.730011
vt 0.752543 0.724602
vt 0.973919 0.259495
vt 0.967002 0.332143
vt 0.934252 0.306472
vt 0.715328 0.644023
vt 0.847669 0.671259
vt 0.923848 0.259495
vt 0.753088 0.649631
vt 0.920230 0.324823
vt 0.068284 0.665533
vt 0.630362 0.705721
vt 0.712055 0.621316
vt 0.966165 0.712391
vt 0.519769 0.388732
vt 0.031375 0.663704
vt 0.592215 0.695479
vt 0.581836 0.620019
vt 0.750017 0.621843
vt 0.569690 0.667298
vt 0.581066 0.387596
vt 0.531739 0.516092
vt 0.642835 0.625048
vt 0.273616 0.509019
vt 0.070982 0.710642
vt 0.316851 0.732164
vt 0.684917 0.393810
vt 0.816625 0.338063
vt 0.644803 0.392946
vt 0.602800 0.367236
vt 0.671871 0.661666
vt 0.181146 0.386242
vt 0.855113 0.259897
vt 0.463196 0.649131
vt 0.077903 0.567886
vt 0.078993 0.554271
vt 0.322237 0.720993
vt 0.070972 0.628379
vt 0.834014 0.651825
vt 0.084160 0.512738
vt 0.838315 0.596273
vt 0.320679 0.509019
vt 0.080733 0.539302
vt 0.857365 0.464048
vt 0.931678 0.351118
vt 0.335174 0.488977
vt 0.367094 0.673623
vt 0.939667 0.384854
vt 0.199177 0.651021
vt 0.069465 0.641494
vt 0.198664 0.632807
vt 0.464209 0.672968
vt 0.199604 0.684998
vt 0.465945 0.702696
vt 0.199840 0.723459
vt 0.466714 0.715004
vt 0.832520 0.720483
vt 0.200177 0.738589
vt 0.829423 0.735282
vt 0.076340 0.580490
vt 0.826046 0.701507
vt 0.074346 0.598181
vt 0.948795 0.287497
vt 0.823088 0.670800
vt 0.959731 0.307426
vt 0.948976 0.259488
vt 0.941524 0.331189
vt 0.875347 0.491894
vt 0.391834 0.432095
vt 0.377694 0.448634
vt 0.915590 0.478791
vt 0.834644 0.488373
vt 0.326937 0.619279
vt 0.938593 0.478810
vt 0.335216 0.632947
vt 0.358601 0.463790
vt 0.348787 0.648138
vt 0.927106 0.463378
vt 0.854274 0.489560
vt 0.315804 0.619182
vt 0.212520 0.321385
vt 0.644070 0.318501
vt 0.018976 0.592450
vt 0.663817 0.276029
vt 0.129819 0.597828
vt 0.224108 0.269832
vt 0.051049 0.586785
vt 0.728499 0.676310
vt 0.099637 0.591886
vt 0.730103 0.697776
vt 0.734390 0.646904
vt 0.920230 0.314550
vt 0.981025 0.324065
vt 0.732426 0.727384
vt 0.950683 0.319044
vt 0.753088 0.663662
vt 0.920230 0.273492
vt 0.977552 0.273492
vt 0.752543 0.710647
vt 0.709822 0.714522
vt 0.796001 0.686127
vt 0.853178 0.686127
vt 0.709822 0.659561
vt 0.824792 0.685890
vt 0.948939 0.273488
vt 0.731549 0.661651
vt 0.730449 0.712624
vt 0.878850 0.297575
vt 0.096711 0.342677
vt 0.285581 0.357771
vt 0.108549 0.696221
vt 0.804979 0.293594
vt 0.708839 0.350023
vt 0.668288 0.644023
vt 0.436089 0.526409
vt 0.145034 0.385321
vt 0.919159 0.607821
vt 0.247387 0.613831
vt 0.970304 0.416607
vt 0.947808 0.608020
vt 0.704660 0.516092
vt 0.970304 0.403829
vt 0.750017 0.516884
vt 0.618892 0.516092
vt 0.920230 0.404231
vt 0.273616 0.612878
vt 0.642836 0.516847
vt 0.938584 0.415207
vt 0.924281 0.443436
vt 0.075400 0.489812
vt 0.855524 0.444402
vt 0.531739 0.629156
vt 0.934913 0.435583
vt 0.576828 0.496673
vt 0.931440 0.443424
vt 0.848383 0.444289
vt 0.592622 0.497116
vt 0.934913 0.440184
vt 0.586164 0.496977
vt 0.517161 0.630156
vt 0.920230 0.438606
vt 0.085942 0.490043
vt 0.585376 0.420489
vt 0.510472 0.551446
vt 0.582586 0.444044
vt 0.504260 0.576063
vt 0.581388 0.469636
vt 0.508131 0.602400
vt 0.103684 0.463024
vt 0.477645 0.604263
vt 0.118194 0.440373
vt 0.454885 0.581958
vt 0.129418 0.415411
vt 0.438452 0.557360
vt 0.876897 0.417052
vt 0.081901 0.462161
vt 0.882279 0.393921
vt 0.081653 0.438865
vt 0.880271 0.363315
vt 0.079604 0.408162
vt 0.633117 0.418943
vt 0.615530 0.444447
vt 0.600997 0.469910
vt 0.614559 0.469949
vt 0.862035 0.416811
vt 0.638313 0.444473
vt 0.857648 0.390640
vt 0.666106 0.417503
vt 0.844696 0.362700
vt 0.167770 0.536691
vt 0.914144 0.688660
vt 0.182151 0.561697
vt 0.913298 0.663084
vt 0.189855 0.582503
vt 0.915415 0.641729
vt 0.680787 0.549268
vt 0.966165 0.641681
vt 0.684678 0.573659
vt 0.963812 0.665813
vt 0.684995 0.596421
vt 0.964308 0.688427
vt 0.584794 0.548886
vt 0.729850 0.550060
vt 0.578610 0.572959
vt 0.734888 0.574452
vt 0.569690 0.595426
vt 0.736445 0.597214
vt 0.642060 0.590920
vt 0.247172 0.543053
vt 0.641052 0.570535
vt 0.248998 0.562413
vt 0.635978 0.552556
vt 0.245738 0.579271
s 0
usemtl Material
f 89/203/1 7/19/1 13/32/1 90/205/1
f 8/22/2 7/19/2 89/203/2 58/151/2 54/142/2 53/136/2
f 6/18/3 56/148/3 57/150/3
f 3/8/4 106/231/4 4/9/4 59/153/4 88/202/4
f 6/17/5 107/233/5 5/14/5 60/154/5 1/1/5 105/229/5 2/4/5 56/149/5
f 61/156/6 13/33/6 16/38/6 62/157/6
f 5/16/7 14/35/7 31/77/7 29/72/7
f 88/202/8 1/3/8 10/26/8 91/207/8
f 67/164/9 21/53/9 20/50/9 65/161/9
f 13/32/10 7/19/10 12/30/10 16/39/10
f 3/8/11 9/25/11 11/28/11 15/36/11
f 55/147/12 3/6/12 15/37/12 63/158/12
f 66/162/13 19/48/13 17/40/13 65/160/13
f 23/57/14 22/55/14 17/41/14 19/49/14
f 83/191/15 82/190/15 25/63/15 26/67/15
f 15/36/16 11/28/16 22/55/16 23/57/16
f 62/157/17 16/38/17 21/53/17 67/164/17
f 69/169/18 26/66/18 25/64/18 68/166/18
f 87/200/19 84/193/19 24/60/19 68/165/19
f 86/197/20 83/191/20 26/67/20 69/167/20
f 84/194/21 85/196/21 27/68/21 24/61/21
f 70/170/22 29/73/22 31/78/22 71/172/22
f 70/170/23 28/71/23 34/85/23 73/174/23
f 10/26/24 1/3/24 28/70/24 30/74/24
f 64/159/25 10/27/25 30/75/25 71/171/25
f 34/84/26 32/80/26 36/88/26 38/92/26
f 60/155/27 5/15/27 33/83/27 72/173/27
f 5/16/28 29/72/28 35/86/28 33/82/28
f 28/70/29 1/3/29 32/80/29 34/84/29
f 37/90/30 39/94/30 43/105/30 41/99/30
f 73/174/31 34/85/31 38/93/31 75/176/31
f 33/82/32 35/86/32 39/94/32 37/90/32
f 72/173/33 33/83/33 37/91/33 74/175/33
f 76/178/34 41/100/34 43/106/34 77/180/34
f 74/175/35 37/91/35 41/101/35 76/177/35
f 38/92/36 36/88/36 40/96/36 42/102/36
f 75/176/37 38/93/37 42/103/37 77/179/37
f 102/226/38 97/218/38 51/129/38 81/187/38
f 91/206/39 10/27/39 45/111/39 93/210/39
f 90/204/40 13/33/40 46/114/40 92/208/40
f 61/156/41 9/24/41 44/108/41 78/181/41
f 64/159/42 14/34/42 47/117/42 79/183/42
f 96/216/43 94/213/43 50/126/43 80/186/43
f 101/225/44 99/222/44 48/120/44 80/185/44
f 104/228/45 98/220/45 49/123/45 95/215/45
f 103/227/46 100/224/46 50/127/46 94/212/46
f 8/23/47 53/137/47 52/132/47
f 8/23/48 52/132/48 4/10/48 106/232/48 3/7/48 55/146/48 7/20/48
f 54/142/49 58/151/49 89/203/49 5/16/49 107/234/49 6/18/49 57/150/49
f 100/223/50 101/225/50 80/185/50 50/128/50
f 95/214/51 96/216/51 80/186/51 48/121/51
f 10/27/52 64/159/52 79/183/52 45/111/52
f 13/33/53 61/156/53 78/181/53 46/114/53
f 98/219/54 102/226/54 81/187/54 49/124/54
f 39/95/55 75/176/55 77/179/55 43/107/55
f 36/89/56 74/175/56 76/177/56 40/97/56
f 40/98/57 76/178/57 77/180/57 42/104/57
f 32/81/58 72/173/58 74/175/58 36/89/58
f 35/87/59 73/174/59 75/176/59 39/95/59
f 1/2/60 60/155/60 72/173/60 32/81/60
f 14/34/61 64/159/61 71/171/61 31/79/61
f 29/73/62 70/170/62 73/174/62 35/87/62
f 28/71/63 70/170/63 71/172/63 30/76/63
f 85/196/64 86/198/64 69/168/64 27/68/64
f 82/189/65 87/200/65 68/165/65 25/65/65
f 27/69/66 69/169/66 68/166/66 24/62/66
f 11/29/67 62/157/67 67/164/67 22/56/67
f 18/43/68 66/162/68 65/160/68 20/51/68
f 7/21/69 55/147/69 63/158/69 12/31/69
f 22/56/70 67/164/70 65/161/70 17/42/70
f 9/24/71 61/156/71 62/157/71 11/29/71
f 19/48/72 66/162/72 87/200/72 82/189/72
f 12/30/73 18/44/73 20/52/73 21/54/73 16/39/73
f 66/163/74 18/47/74 84/194/74 87/201/74
f 23/57/75 19/49/75 82/190/75 83/191/75
f 49/125/76 81/188/76 96/216/76 95/214/76
f 97/217/77 103/227/77 94/212/77 51/130/77
f 99/221/78 104/228/78 95/215/78 48/122/78
f 81/188/79 51/131/79 94/213/79 96/216/79
f 14/34/80 90/204/80 92/208/80 47/117/80
f 9/24/81 91/206/81 93/210/81 44/108/81
f 3/8/82 88/202/82 91/207/82 9/25/82
f 5/16/83 89/203/83 90/205/83 14/35/83
f 44/109/84 93/211/84 104/228/84 99/221/84
f 47/118/85 92/209/85 103/227/85 97/217/85
f 45/112/86 79/184/86 102/226/86 98/219/86
f 46/115/87 78/182/87 101/225/87 100/223/87
f 92/209/88 46/116/88 100/224/88 103/227/88
f 93/211/89 45/113/89 98/220/89 104/228/89
f 78/182/90 44/110/90 99/222/90 101/225/90
f 79/184/91 47/119/91 97/218/91 102/226/91
f 59/152/92 4/11/92 52/133/92 53/138/92 54/141/92 108/235/92
f 136/298/93 110/241/93 109/238/93 135/296/93
f 121/271/94 120/269/94 114/253/94 117/261/94
f 139/304/95 111/244/95 110/242/95 136/297/95
f 135/295/96 109/239/96 112/247/96 144/314/96
f 144/313/97 112/248/97 111/245/97 139/303/97
f 111/246/98 112/249/98 109/240/98 110/243/98
f 117/262/99 114/254/99 116/259/99 115/256/99 113/250/99
f 124/277/100 121/270/100 117/263/100 113/251/100
f 120/268/101 129/284/101 116/260/101 114/255/101
f 130/286/102 124/276/102 113/252/102 115/257/102
f 129/284/103 130/285/103 115/258/103 116/260/103
f 57/150/104 56/148/104 132/289/104 127/282/104
f 127/282/105 132/289/105 131/287/105 128/283/105
f 128/283/106 131/287/106 130/285/106 129/284/106
f 56/149/107 2/4/107 126/280/107 132/290/107
f 132/290/108 126/280/108 125/278/108 131/288/108
f 131/288/109 125/278/109 124/276/109 130/286/109
f 54/142/110 57/150/110 127/282/110 118/264/110
f 118/264/111 127/282/111 128/283/111 119/266/111
f 119/266/112 128/283/112 129/284/112 120/268/112
f 2/5/113 108/237/113 123/274/113 126/281/113
f 126/281/114 123/274/114 122/272/114 125/279/114
f 125/279/115 122/272/115 121/270/115 124/277/115
f 108/236/116 54/143/116 118/265/116 123/275/116
f 123/275/117 118/265/117 119/267/117 122/273/117
f 122/273/118 119/267/118 120/269/118 121/271/118
f 54/144/119 142/309/119 141/307/119 53/139/119
f 142/309/120 143/311/120 140/305/120 141/307/120
f 143/311/121 144/313/121 139/303/121 140/305/121
f 4/12/122 133/291/122 142/310/122 54/145/122
f 133/291/123 134/293/123 143/312/123 142/310/123
f 134/293/124 135/295/124 144/314/124 143/312/124
f 53/140/125 141/308/125 138/301/125 52/134/125
f 141/308/126 140/306/126 137/299/126 138/301/126
f 140/306/127 139/304/127 136/297/127 137/299/127
f 52/135/128 138/302/128 133/292/128 4/13/128
f 138/302/129 137/300/129 134/294/129 133/292/129
f 137/300/130 136/298/130 135/296/130 134/294/130
f 105/230/131 1/3/131 88/202/131 59/153/131 108/237/131 2/5/131
f 86/199/132 85/195/132 83/192/132
f 83/192/133 85/195/133 18/45/133 23/58/133
f 63/158/134 15/37/134 23/59/134 18/46/134 12/31/134
f 84/194/135 18/47/135 85/196/135
l 52 106
