# Blender 3.3.1
# www.blender.org
mtllib monstruo_3_grande_caminar614.mtl
o monstruo_grande
v 0.317400 2.034591 0.196831
v 0.526647 1.213422 0.084229
v -0.738504 1.712165 0.204295
v -0.287616 1.105171 0.221197
v 0.436407 2.329286 -0.153423
v 0.501364 1.630945 -0.261022
v -0.892567 1.933378 -0.207512
v -0.773293 1.653513 -0.279032
v -0.378215 2.381307 0.470179
v 0.182790 2.303681 0.411969
v -0.507110 2.345562 0.574023
v -1.255375 1.970389 -0.045741
v -0.387161 2.542328 0.110252
v 0.156695 2.443133 0.153810
v -1.094413 1.839055 0.107884
v -0.550913 2.608102 0.136279
v -0.855730 2.248715 0.601105
v -1.537298 1.895315 0.227965
v -1.254537 1.944662 0.423915
v -1.055027 2.552459 0.334557
v -0.733085 2.641727 0.209898
v -0.582356 2.297279 0.553063
v -1.227533 1.858360 0.112457
v -1.809466 0.646627 0.935811
v -1.682016 0.628368 0.978161
v -1.668929 0.451250 0.777907
v -1.746721 0.462396 0.752058
v 0.343883 2.223801 0.381533
v 0.413751 2.425576 0.119527
v 0.296401 2.337894 0.399639
v 0.287622 2.472603 0.173355
v 0.567472 1.918170 0.152987
v 0.660753 2.025010 -0.029082
v 0.592964 1.997483 0.204221
v 0.654650 2.120314 0.048839
v 0.738095 1.700509 0.058459
v 0.805225 1.740610 -0.024866
v 0.825218 1.658953 0.101372
v 0.889600 1.709052 0.019379
v 0.755163 1.545396 0.066788
v 0.892616 1.646770 -0.101218
v 0.872495 1.429209 0.174389
v 1.072791 1.581045 -0.084659
v -0.216070 2.441414 0.486747
v -0.005465 2.418567 0.465367
v -0.223904 2.537837 0.238713
v -0.022451 2.515111 0.220689
v -0.158867 2.754502 0.630583
v 0.045835 2.689801 0.587892
v -0.176254 2.867658 0.377144
v 0.027208 2.803438 0.333495
v -0.498949 1.120759 0.011081
v -0.389038 1.153589 -0.203117
v -0.057018 1.270131 -0.333523
v -0.802383 1.754548 -0.014745
v 0.547372 1.217897 -0.154348
v 0.326376 1.210410 -0.276775
v -0.029123 1.523031 -0.328079
v -0.007888 1.148936 0.195704
v 0.358299 2.123619 0.077901
v -0.374877 2.438595 0.343631
v -0.541143 2.590126 0.409289
v -1.029834 1.906936 -0.013005
v 0.146660 2.429451 0.313984
v -0.891592 2.474009 0.555232
v -1.431438 2.044849 0.466661
v -0.693236 2.568634 0.406848
v -1.756172 0.636382 0.987897
v -1.690721 0.341179 0.663648
v 0.418249 2.335707 0.276478
v 0.292372 2.450600 0.308774
v 0.566573 1.955659 0.026467
v 0.666882 2.070614 0.153360
v 0.770458 1.723989 0.017081
v 0.857213 1.683206 0.059993
v 0.802562 1.601051 -0.030417
v 0.934838 1.515915 0.021957
v -0.220157 2.489127 0.361461
v -0.015189 2.467816 0.342413
v -0.198682 2.812369 0.506750
v 0.068084 2.745616 0.458371
v -1.564483 0.954597 0.915346
v -1.622863 0.779080 0.852376
v -1.784120 0.956608 0.844001
v -1.742823 0.796266 0.812515
v -1.682642 0.620276 0.759667
v -1.694876 0.936448 0.932804
v -0.082241 1.767811 0.507577
v 0.011481 2.139044 -0.207763
v -0.030505 2.515195 0.040579
v -0.048166 2.279413 0.602328
v -0.124544 2.525239 0.227921
v -0.106946 2.428367 0.475345
v -0.077470 2.852183 0.316841
v -0.053973 2.705174 0.647158
v -0.061099 2.829401 0.505152
v 0.016282 2.669440 0.252265
v 0.035280 2.542713 0.543209
v -0.200206 2.590963 0.581183
v -0.221150 2.717538 0.288447
v -0.226724 2.655516 0.436715
v 0.041462 2.606088 0.396334
v -0.104276 2.701716 0.249873
v -0.080208 2.556902 0.582138
v 0.373291 1.733065 -0.035886
v -0.597301 1.438474 0.223389
v 0.477981 1.851917 -0.260873
v 0.180689 1.183782 0.197607
v -0.192291 -0.003472 -0.094443
v -0.337064 0.001245 0.027482
v -0.362202 0.001048 -0.222319
v -0.226969 -0.003121 -0.236673
v 0.369312 0.019646 0.197750
v 0.287552 -0.003095 0.134516
v 0.373990 0.011215 0.159292
v 0.339685 0.002396 0.138330
v 0.312114 0.018724 0.215705
v 0.096219 0.863364 -0.088292
v 0.143108 0.603008 0.040214
v 0.208896 0.313729 0.117565
v 0.269841 0.324455 0.288600
v 0.243341 0.579495 0.321982
v 0.233323 0.857856 0.310626
v 0.386648 0.326651 0.245056
v 0.439818 0.588276 0.248952
v 0.509619 0.929053 0.213948
v 0.353025 0.899554 -0.075610
v 0.325104 0.610990 0.045221
v 0.317484 0.318211 0.120655
v 0.391622 0.324014 0.162641
v 0.449367 0.622088 0.114215
v 0.525095 0.933758 0.025149
v -0.169635 0.833630 0.293915
v -0.143559 0.549338 0.215226
v -0.138663 0.311209 0.168405
v -0.423780 0.300932 0.155997
v -0.435033 0.575627 0.165335
v -0.458387 0.830949 0.171717
v -0.457723 0.359526 -0.105617
v -0.466897 0.635927 -0.097924
v -0.475020 0.863668 -0.104352
v -0.078583 0.826095 -0.137436
v -0.123684 0.620446 -0.143136
v -0.166169 0.407246 -0.133273
vn -0.1224 0.5372 -0.8346
vn -0.0845 0.0749 -0.9936
vn 0.4820 -0.1684 -0.8598
vn -0.2167 -0.2986 0.9295
vn 0.9431 0.0966 0.3180
vn 0.5742 0.8014 0.1676
vn 0.0096 0.9173 -0.3980
vn 0.6645 -0.2002 0.7200
vn -0.1186 0.9135 0.3892
vn -0.1944 0.5217 -0.8307
vn -0.0771 -0.4815 0.8731
vn -0.3754 -0.8814 -0.2867
vn -0.1877 -0.1133 0.9757
vn 0.3663 -0.8427 0.3945
vn 0.9570 -0.2422 0.1598
vn 0.0461 -0.7221 0.6902
vn 0.0744 0.9805 0.1821
vn 0.0525 -0.7382 0.6726
vn -0.6490 0.2640 0.7135
vn 0.9155 0.0310 -0.4011
vn -0.8886 0.0180 -0.4584
vn 0.5844 0.7639 0.2738
vn 0.6179 0.1545 0.7710
vn -0.1213 -0.5575 0.8212
vn -0.0771 0.6110 0.7879
vn -0.4153 -0.5562 0.7198
vn -0.4297 -0.5089 -0.7459
vn 0.7803 0.5736 -0.2493
vn -0.1071 -0.6445 0.7571
vn 0.3964 0.8197 -0.4134
vn 0.5846 0.1236 0.8018
vn 0.6703 0.3885 -0.6322
vn -0.4452 -0.2921 -0.8464
vn -0.1894 -0.7047 -0.6837
vn -0.6812 0.0421 -0.7309
vn -0.5477 0.0844 0.8324
vn 0.7821 0.2944 0.5492
vn 0.9704 -0.0068 -0.2414
vn 0.4034 0.5760 0.7110
vn 0.0806 0.9961 -0.0352
vn -0.3421 0.8669 0.3625
vn 0.3520 0.9141 0.2012
vn 0.0562 0.9694 0.2391
vn -0.9540 0.1014 0.2821
vn 0.3446 -0.3643 0.8652
vn -0.3020 0.4942 -0.8152
vn -0.6791 -0.5886 -0.4387
vn -0.8608 -0.4612 0.2154
vn 0.0673 0.1116 -0.9915
vn -0.9729 0.2313 -0.0004
vn 0.0762 0.8288 0.5543
vn 0.4428 0.7453 0.4985
vn -0.3039 0.8708 0.3864
vn 0.9889 -0.1432 0.0400
vn 0.5991 0.1508 0.7863
vn -0.8452 -0.0749 -0.5292
vn -0.2688 -0.7811 -0.5636
vn -0.7590 -0.5533 -0.3432
vn 0.8536 0.4040 0.3288
vn -0.5360 -0.7117 -0.4542
vn -0.1845 0.9761 0.1145
vn 0.7747 0.5771 0.2585
vn 0.6662 0.3607 0.6527
vn -0.4600 0.2281 -0.8581
vn 0.1230 0.1496 0.9811
vn -0.6226 -0.6414 0.4483
vn -0.2282 0.4548 0.8609
vn -0.7172 0.6164 0.3251
vn -0.3764 -0.8447 -0.3805
vn 0.2412 0.4112 0.8790
vn 0.5617 0.6034 0.5660
vn 0.2672 0.3387 0.9022
vn -0.4848 0.5705 -0.6630
vn -0.8491 0.3963 0.3493
vn 0.9587 -0.2645 0.1046
vn 0.5274 0.6943 0.4897
vn 0.2273 0.4261 -0.8757
vn -0.1852 -0.3029 0.9349
vn 0.5014 0.8556 0.1285
vn 0.2773 0.9607 -0.0120
vn -0.1038 0.5041 0.8574
vn -0.4054 -0.1405 0.9033
vn 0.0317 0.7586 -0.6507
vn -0.0814 -0.5761 0.8133
vn 0.0087 0.1582 -0.9874
vn 0.9491 -0.2861 -0.1318
vn -0.9999 -0.0075 -0.0098
vn -0.1921 0.2055 -0.9596
vn 0.1107 -0.6055 0.7881
vn -0.9944 -0.0256 0.1022
vn 0.9450 -0.2446 -0.2172
vn 0.1748 -0.9643 -0.1987
vn 0.2177 -0.5160 0.8284
vn -0.9177 -0.2086 0.3380
vn -0.9532 -0.2925 0.0767
vn 0.9849 -0.0773 -0.1548
vn -0.1214 0.2681 -0.9557
vn -0.0297 -0.9996 0.0041
vn 0.0908 -0.9680 0.2339
vn 0.3311 -0.1686 0.9284
vn 0.0458 -0.0473 -0.9978
vn 0.9944 -0.0631 0.0852
vn 0.5036 -0.0160 -0.8638
vn 0.4725 -0.4725 -0.7440
vn 0.5045 -0.3613 -0.7842
vn 0.4899 -0.2304 -0.8408
vn 0.9962 -0.0232 0.0839
vn 0.9768 -0.2082 0.0508
vn 0.9808 -0.1913 0.0381
vn 0.0739 -0.5133 -0.8550
vn 0.0779 -0.4101 -0.9087
vn 0.0377 -0.2502 -0.9675
vn 0.2426 0.3707 0.8965
vn 0.3318 0.0385 0.9426
vn 0.3501 -0.0854 0.9328
vn -0.9272 -0.0818 0.3656
vn -0.9443 -0.0144 0.3287
vn -0.9350 -0.1319 0.3291
vn -0.1696 -0.3459 -0.9228
vn -0.1047 0.0073 -0.9945
vn -0.1142 0.0034 -0.9935
vn 0.9084 0.2486 0.3360
vn 0.9891 -0.0615 0.1340
vn 0.9963 -0.0804 -0.0319
vn -0.9822 -0.0071 -0.1878
vn -0.9948 -0.0648 0.0783
vn -0.9925 -0.0404 0.1153
vn -0.5402 0.1884 0.8202
vn -0.2865 -0.1748 0.9420
vn -0.1098 -0.1116 0.9877
vn 0.6019 -0.0844 0.7941
vn 0.3403 0.3753 -0.8622
vn -0.2100 -0.4650 -0.8600
vn -0.2206 -0.8154 -0.5352
vn -0.8477 -0.1167 -0.5175
vt 0.882279 0.260085
vt 0.436089 0.649131
vt 0.117664 0.305524
vt 0.860974 0.338762
vt 0.079561 0.383885
vt 0.278417 0.728674
vt 0.111517 0.716819
vt 0.301243 0.337859
vt 0.232943 0.387386
vt 0.111517 0.662267
vt 0.671871 0.687525
vt 0.175114 0.511099
vt 0.930991 0.712692
vt 0.796001 0.259488
vt 0.522181 0.649131
vt 0.719621 0.316178
vt 0.801110 0.310020
vt 0.698705 0.366293
vt 0.510656 0.337024
vt 0.023033 0.717149
vt 0.367094 0.730187
vt 0.507246 0.358198
vt 0.018976 0.695717
vt 0.103380 0.570561
vt 0.268725 0.266033
vt 0.143950 0.273348
vt 0.098384 0.631539
vt 0.301351 0.259488
vt 0.128079 0.559933
vt 0.480438 0.333338
vt 0.348619 0.714075
vt 0.604958 0.268707
vt 0.031105 0.562973
vt 0.043818 0.625810
vt 0.721993 0.282954
vt 0.329365 0.336360
vt 0.302724 0.713315
vt 0.030374 0.549675
vt 0.582817 0.260846
vt 0.875347 0.642471
vt 0.380514 0.272320
vt 0.124895 0.517524
vt 0.813390 0.578569
vt 0.436089 0.332372
vt 0.956124 0.588845
vt 0.367094 0.692599
vt 0.367094 0.522797
vt 0.871643 0.594841
vt 0.398138 0.324445
vt 0.043891 0.509019
vt 0.796001 0.641153
vt 0.491075 0.268473
vt 0.032114 0.534706
vt 0.552485 0.259488
vt 0.331566 0.259909
vt 0.129819 0.544964
vt 0.339759 0.337186
vt 0.913298 0.588845
vt 0.317584 0.707220
vt 0.845734 0.463378
vt 0.311567 0.646434
vt 0.944558 0.353645
vt 0.398138 0.462439
vt 0.920230 0.354337
vt 0.870057 0.463781
vt 0.929709 0.374247
vt 0.357807 0.478584
vt 0.347994 0.663056
vt 0.944558 0.373825
vt 0.097076 0.285727
vt 0.229765 0.651022
vt 0.758050 0.297859
vt 0.168317 0.651042
vt 0.119329 0.272208
vt 0.094178 0.643292
vt 0.222768 0.636959
vt 0.746872 0.283208
vt 0.174541 0.636975
vt 0.045175 0.638147
vt 0.080672 0.327471
vt 0.442544 0.673801
vt 0.734592 0.339187
vt 0.484453 0.673801
vt 0.070725 0.319456
vt 0.218298 0.685110
vt 0.751374 0.331694
vt 0.180611 0.684911
vt 0.062412 0.356092
vt 0.455575 0.702696
vt 0.724658 0.367821
vt 0.476314 0.702696
vt 0.043357 0.357400
vt 0.210236 0.723455
vt 0.742364 0.370210
vt 0.189444 0.723462
vt 0.050281 0.367705
vt 0.444942 0.715336
vt 0.810526 0.722486
vt 0.728448 0.380153
vt 0.853695 0.722486
vt 0.487920 0.715336
vt 0.018975 0.371756
vt 0.232852 0.738567
vt 0.796001 0.739289
vt 0.758050 0.386241
vt 0.861207 0.739289
vt 0.167770 0.738589
vt 0.100634 0.583041
vt 0.712300 0.698974
vt 0.802197 0.701507
vt 0.098640 0.600731
vt 0.972705 0.287497
vt 0.747907 0.696578
vt 0.052045 0.577939
vt 0.849895 0.701507
vt 0.710445 0.675017
vt 0.050052 0.595630
vt 0.746553 0.677603
vt 0.924885 0.287497
vt 0.797725 0.671259
vt 0.981025 0.313792
vt 0.715147 0.730011
vt 0.752543 0.724602
vt 0.973919 0.259495
vt 0.967002 0.332143
vt 0.934252 0.306472
vt 0.715328 0.644023
vt 0.847669 0.671259
vt 0.923848 0.259495
vt 0.753088 0.649631
vt 0.920230 0.324823
vt 0.068284 0.665533
vt 0.630362 0.705721
vt 0.712055 0.621316
vt 0.966165 0.712391
vt 0.519769 0.388732
vt 0.031375 0.663704
vt 0.592215 0.695479
vt 0.581836 0.620019
vt 0.750017 0.621843
vt 0.569690 0.667298
vt 0.581066 0.387596
vt 0.531739 0.516092
vt 0.642835 0.625048
vt 0.273616 0.509019
vt 0.070982 0.710642
vt 0.316851 0.732164
vt 0.684917 0.393810
vt 0.816625 0.338063
vt 0.644803 0.392946
vt 0.602800 0.367236
vt 0.671871 0.661666
vt 0.181146 0.386242
vt 0.855113 0.259897
vt 0.463196 0.649131
vt 0.077903 0.567886
vt 0.078993 0.554271
vt 0.322237 0.720993
vt 0.070972 0.628379
vt 0.834014 0.651825
vt 0.084160 0.512738
vt 0.838315 0.596273
vt 0.320679 0.509019
vt 0.080733 0.539302
vt 0.857365 0.464048
vt 0.931678 0.351118
vt 0.335174 0.488977
vt 0.367094 0.673623
vt 0.939667 0.384854
vt 0.199177 0.651021
vt 0.069465 0.641494
vt 0.198664 0.632807
vt 0.464209 0.672968
vt 0.199604 0.684998
vt 0.465945 0.702696
vt 0.199840 0.723459
vt 0.466714 0.715004
vt 0.832520 0.720483
vt 0.200177 0.738589
vt 0.829423 0.735282
vt 0.076340 0.580490
vt 0.826046 0.701507
vt 0.074346 0.598181
vt 0.948795 0.287497
vt 0.823088 0.670800
vt 0.959731 0.307426
vt 0.948976 0.259488
vt 0.941524 0.331189
vt 0.875347 0.491894
vt 0.391834 0.432095
vt 0.377694 0.448634
vt 0.915590 0.478791
vt 0.834644 0.488373
vt 0.326937 0.619279
vt 0.938593 0.478810
vt 0.335216 0.632947
vt 0.358601 0.463790
vt 0.348787 0.648138
vt 0.927106 0.463378
vt 0.854274 0.489560
vt 0.315804 0.619182
vt 0.212520 0.321385
vt 0.644070 0.318501
vt 0.018976 0.592450
vt 0.663817 0.276029
vt 0.129819 0.597828
vt 0.224108 0.269832
vt 0.051049 0.586785
vt 0.728499 0.676310
vt 0.099637 0.591886
vt 0.730103 0.697776
vt 0.734390 0.646904
vt 0.920230 0.314550
vt 0.981025 0.324065
vt 0.732426 0.727384
vt 0.950683 0.319044
vt 0.753088 0.663662
vt 0.920230 0.273492
vt 0.977552 0.273492
vt 0.752543 0.710647
vt 0.709822 0.714522
vt 0.796001 0.686127
vt 0.853178 0.686127
vt 0.709822 0.659561
vt 0.824792 0.685890
vt 0.948939 0.273488
vt 0.731549 0.661651
vt 0.730449 0.712624
vt 0.878850 0.297575
vt 0.096711 0.342677
vt 0.285581 0.357771
vt 0.108549 0.696221
vt 0.804979 0.293594
vt 0.708839 0.350023
vt 0.668288 0.644023
vt 0.436089 0.526409
vt 0.145034 0.385321
vt 0.919159 0.607821
vt 0.247387 0.613831
vt 0.970304 0.416607
vt 0.947808 0.608020
vt 0.704660 0.516092
vt 0.970304 0.403829
vt 0.750017 0.516884
vt 0.618892 0.516092
vt 0.920230 0.404231
vt 0.273616 0.612878
vt 0.642836 0.516847
vt 0.938584 0.415207
vt 0.924281 0.443436
vt 0.075400 0.489812
vt 0.855524 0.444402
vt 0.531739 0.629156
vt 0.934913 0.435583
vt 0.576828 0.496673
vt 0.931440 0.443424
vt 0.848383 0.444289
vt 0.592622 0.497116
vt 0.934913 0.440184
vt 0.586164 0.496977
vt 0.517161 0.630156
vt 0.920230 0.438606
vt 0.085942 0.490043
vt 0.585376 0.420489
vt 0.510472 0.551446
vt 0.582586 0.444044
vt 0.504260 0.576063
vt 0.581388 0.469636
vt 0.508131 0.602400
vt 0.103684 0.463024
vt 0.477645 0.604263
vt 0.118194 0.440373
vt 0.454885 0.581958
vt 0.129418 0.415411
vt 0.438452 0.557360
vt 0.876897 0.417052
vt 0.081901 0.462161
vt 0.882279 0.393921
vt 0.081653 0.438865
vt 0.880271 0.363315
vt 0.079604 0.408162
vt 0.633117 0.418943
vt 0.615530 0.444447
vt 0.600997 0.469910
vt 0.614559 0.469949
vt 0.862035 0.416811
vt 0.638313 0.444473
vt 0.857648 0.390640
vt 0.666106 0.417503
vt 0.844696 0.362700
vt 0.167770 0.536691
vt 0.914144 0.688660
vt 0.182151 0.561697
vt 0.913298 0.663084
vt 0.189855 0.582503
vt 0.915415 0.641729
vt 0.680787 0.549268
vt 0.966165 0.641681
vt 0.684678 0.573659
vt 0.963812 0.665813
vt 0.684995 0.596421
vt 0.964308 0.688427
vt 0.584794 0.548886
vt 0.729850 0.550060
vt 0.578610 0.572959
vt 0.734888 0.574452
vt 0.569690 0.595426
vt 0.736445 0.597214
vt 0.642060 0.590920
vt 0.247172 0.543053
vt 0.641052 0.570535
vt 0.248998 0.562413
vt 0.635978 0.552556
vt 0.245738 0.579271
s 0
usemtl Material
f 89/203/1 7/19/1 13/32/1 90/205/1
f 8/22/2 7/19/2 89/203/2 58/151/2 54/142/2 53/136/2
f 6/18/3 56/148/3 57/150/3
f 3/8/4 106/231/4 4/9/4 59/153/4 88/202/4
f 6/17/5 107/233/5 5/14/5 60/154/5 1/1/5 105/229/5 2/4/5 56/149/5
f 61/156/6 13/33/6 16/38/6 62/157/6
f 5/16/7 14/35/7 31/77/7 29/72/7
f 88/202/8 1/3/8 10/26/8 91/207/8
f 67/164/9 21/53/9 20/50/9 65/161/9
f 13/32/10 7/19/10 12/30/10 16/39/10
f 3/8/11 9/25/11 11/28/11 15/36/11
f 55/147/12 3/6/12 15/37/12 63/158/12
f 66/162/13 19/48/13 17/40/13 65/160/13
f 23/57/14 22/55/14 17/41/14 19/49/14
f 83/191/15 82/190/15 25/63/15 26/67/15
f 15/36/16 11/28/16 22/55/16 23/57/16
f 62/157/17 16/38/17 21/53/17 67/164/17
f 69/169/18 26/66/18 25/64/18 68/166/18
f 87/200/19 84/193/19 24/60/19 68/165/19
f 86/197/20 83/191/20 26/67/20 69/167/20
f 84/194/21 85/196/21 27/68/21 24/61/21
f 70/170/22 29/73/22 31/78/22 71/172/22
f 70/170/23 28/71/23 34/85/23 73/174/23
f 10/26/24 1/3/24 28/70/24 30/74/24
f 64/159/25 10/27/25 30/75/25 71/171/25
f 34/84/26 32/80/26 36/88/26 38/92/26
f 60/155/27 5/15/27 33/83/27 72/173/27
f 5/16/28 29/72/28 35/86/28 33/82/28
f 28/70/29 1/3/29 32/80/29 34/84/29
f 37/90/30 39/94/30 43/105/30 41/99/30
f 73/174/31 34/85/31 38/93/31 75/176/31
f 33/82/32 35/86/32 39/94/32 37/90/32
f 72/173/33 33/83/33 37/91/33 74/175/33
f 76/178/34 41/100/34 43/106/34 77/180/34
f 74/175/35 37/91/35 41/101/35 76/177/35
f 38/92/36 36/88/36 40/96/36 42/102/36
f 75/176/37 38/93/37 42/103/37 77/179/37
f 102/226/38 97/218/38 51/129/38 81/187/38
f 91/206/39 10/27/39 45/111/39 93/210/39
f 90/204/40 13/33/40 46/114/40 92/208/40
f 61/156/41 9/24/41 44/108/41 78/181/41
f 64/159/42 14/34/42 47/117/42 79/183/42
f 96/216/43 94/213/43 50/126/43 80/186/43
f 101/225/44 99/222/44 48/120/44 80/185/44
f 104/228/45 98/220/45 49/123/45 95/215/45
f 103/227/46 100/224/46 50/127/46 94/212/46
f 8/23/47 53/137/47 52/132/47
f 8/23/48 52/132/48 4/10/48 106/232/48 3/7/48 55/146/48 7/20/48
f 54/142/49 58/151/49 89/203/49 5/16/49 107/234/49 6/18/49 57/150/49
f 100/223/50 101/225/50 80/185/50 50/128/50
f 95/214/51 96/216/51 80/186/51 48/121/51
f 10/27/52 64/159/52 79/183/52 45/111/52
f 13/33/53 61/156/53 78/181/53 46/114/53
f 98/219/54 102/226/54 81/187/54 49/124/54
f 39/95/55 75/176/55 77/179/55 43/107/55
f 36/89/56 74/175/56 76/177/56 40/97/56
f 40/98/57 76/178/57 77/180/57 42/104/57
f 32/81/58 72/173/58 74/175/58 36/89/58
f 35/87/59 73/174/59 75/176/59 39/95/59
f 1/2/60 60/155/60 72/173/60 32/81/60
f 14/34/61 64/159/61 71/171/61 31/79/61
f 29/73/62 70/170/62 73/174/62 35/87/62
f 28/71/63 70/170/63 71/172/63 30/76/63
f 85/196/64 86/198/64 69/168/64 27/68/64
f 82/189/65 87/200/65 68/165/65 25/65/65
f 27/69/66 69/169/66 68/166/66 24/62/66
f 11/29/67 62/157/67 67/164/67 22/56/67
f 18/43/68 66/162/68 65/160/68 20/51/68
f 7/21/69 55/147/69 63/158/69 12/31/69
f 22/56/70 67/164/70 65/161/70 17/42/70
f 9/24/71 61/156/71 62/157/71 11/29/71
f 19/48/72 66/162/72 87/200/72 82/189/72
f 12/30/73 18/44/73 20/52/73 21/54/73 16/39/73
f 66/163/74 18/47/74 84/194/74 87/201/74
f 23/57/75 19/49/75 82/190/75 83/191/75
f 49/125/76 81/188/76 96/216/76 95/214/76
f 97/217/77 103/227/77 94/212/77 51/130/77
f 99/221/78 104/228/78 95/215/78 48/122/78
f 81/188/79 51/131/79 94/213/79 96/216/79
f 14/34/80 90/204/80 92/208/80 47/117/80
f 9/24/81 91/206/81 93/210/81 44/108/81
f 3/8/82 88/202/82 91/207/82 9/25/82
f 5/16/83 89/203/83 90/205/83 14/35/83
f 44/109/84 93/211/84 104/228/84 99/221/84
f 47/118/85 92/209/85 103/227/85 97/217/85
f 45/112/86 79/184/86 102/226/86 98/219/86
f 46/115/87 78/182/87 101/225/87 100/223/87
f 92/209/88 46/116/88 100/224/88 103/227/88
f 93/211/89 45/113/89 98/220/89 104/228/89
f 78/182/90 44/110/90 99/222/90 101/225/90
f 79/184/91 47/119/91 97/218/91 102/226/91
f 59/152/92 4/11/92 52/133/92 53/138/92 54/141/92 108/235/92
f 136/298/93 110/241/93 109/238/93 135/296/93
f 121/271/94 120/269/94 114/253/94 117/261/94
f 139/304/95 111/244/95 110/242/95 136/297/95
f 135/295/96 109/239/96 112/247/96 144/314/96
f 144/313/97 112/248/97 111/245/97 139/303/97
f 111/246/98 112/249/98 109/240/98 110/243/98
f 117/262/99 114/254/99 116/259/99 115/256/99 113/250/99
f 124/277/100 121/270/100 117/263/100 113/251/100
f 120/268/101 129/284/101 116/260/101 114/255/101
f 130/286/102 124/276/102 113/252/102 115/257/102
f 129/284/103 130/285/103 115/258/103 116/260/103
f 57/150/104 56/148/104 132/289/104 127/282/104
f 127/282/105 132/289/105 131/287/105 128/283/105
f 128/283/106 131/287/106 130/285/106 129/284/106
f 56/149/107 2/4/107 126/280/107 132/290/107
f 132/290/108 126/280/108 125/278/108 131/288/108
f 131/288/109 125/278/109 124/276/109 130/286/109
f 54/142/110 57/150/110 127/282/110 118/264/110
f 118/264/111 127/282/111 128/283/111 119/266/111
f 119/266/112 128/283/112 129/284/112 120/268/112
f 2/5/113 108/237/113 123/274/113 126/281/113
f 126/281/114 123/274/114 122/272/114 125/279/114
f 125/279/115 122/272/115 121/270/115 124/277/115
f 108/236/116 54/143/116 118/265/116 123/275/116
f 123/275/117 118/265/117 119/267/117 122/273/117
f 122/273/118 119/267/118 120/269/118 121/271/118
f 54/144/119 142/309/119 141/307/119 53/139/119
f 142/309/120 143/311/120 140/305/120 141/307/120
f 143/311/121 144/313/121 139/303/121 140/305/121
f 4/12/122 133/291/122 142/310/122 54/145/122
f 133/291/123 134/293/123 143/312/123 142/310/123
f 134/293/124 135/295/124 144/314/124 143/312/124
f 53/140/125 141/308/125 138/301/125 52/134/125
f 141/308/126 140/306/126 137/299/126 138/301/126
f 140/306/127 139/304/127 136/297/127 137/299/127
f 52/135/128 138/302/128 133/292/128 4/13/128
f 138/302/129 137/300/129 134/294/129 133/292/129
f 137/300/130 136/298/130 135/296/130 134/294/130
f 105/230/131 1/3/131 88/202/131 59/153/131 108/237/131 2/5/131
f 86/199/132 85/195/132 83/192/132
f 83/192/133 85/195/133 18/45/133 23/58/133
f 63/158/134 15/37/134 23/59/134 18/46/134 12/31/134
f 84/194/135 18/47/135 85/196/135
l 52 106
