# Blender 3.3.1
# www.blender.org
mtllib monstruo_3_grande_caminar581.mtl
o monstruo_grande
v 0.389528 2.027451 0.196391
v 0.524655 1.151888 0.057801
v -0.689898 1.800944 0.087678
v -0.297365 1.198964 0.219152
v 0.663110 2.287289 -0.089899
v 0.574597 1.629346 -0.232036
v -0.765276 1.974609 -0.370909
v -0.694055 1.664155 -0.393404
v -0.313108 2.438249 0.343772
v 0.239487 2.320019 0.379284
v -0.457260 2.419135 0.433457
v -1.136086 2.047648 -0.260786
v -0.265838 2.573900 -0.022923
v 0.273125 2.445043 0.111437
v -1.007003 1.925581 -0.067917
v -0.425340 2.651875 -0.023764
v -0.817247 2.351608 0.418507
v -1.458921 2.006636 -0.028886
v -1.205162 2.053772 0.205505
v -0.954209 2.642052 0.102607
v -0.611684 2.700628 0.019182
v -0.534890 2.377255 0.407612
v -1.138279 1.947618 -0.089711
v -1.897808 0.804656 0.673564
v -1.776841 0.776757 0.727959
v -1.760933 0.593995 0.533053
v -1.834768 0.611024 0.499852
v 0.364965 2.224078 0.376369
v 0.543591 2.402174 0.157453
v 0.347751 2.344091 0.384627
v 0.402474 2.462618 0.160807
v 0.597164 1.916578 0.257458
v 0.795634 1.935382 0.161121
v 0.629236 1.974961 0.310277
v 0.765268 2.069278 0.197567
v 0.691484 1.667385 0.392809
v 0.799813 1.666742 0.357525
v 0.726998 1.671754 0.492571
v 0.835584 1.677096 0.453968
v 0.665985 1.548165 0.491113
v 0.891153 1.558457 0.413969
v 0.671930 1.532776 0.687511
v 1.011595 1.547081 0.566261
v -0.151835 2.485276 0.382254
v 0.057672 2.457057 0.385918
v -0.127938 2.568416 0.128942
v 0.074103 2.538990 0.137110
v -0.097286 2.799722 0.523425
v 0.108713 2.730444 0.497414
v -0.094929 2.904288 0.265574
v 0.109996 2.835418 0.238457
v -0.501750 1.166277 0.016932
v -0.389556 1.142057 -0.196431
v -0.035099 1.256266 -0.338488
v -0.727972 1.819984 -0.145662
v 0.546087 1.251690 -0.154784
v 0.329486 1.290944 -0.276701
v 0.032464 1.506098 -0.346981
v -0.025718 1.128943 0.186919
v 0.488256 2.101031 0.098505
v -0.289927 2.486292 0.215711
v -0.451847 2.652553 0.249984
v -0.929177 1.979406 -0.186296
v 0.233624 2.442223 0.269105
v -0.829482 2.573093 0.348472
v -1.379014 2.164128 0.215589
v -0.603908 2.640972 0.228508
v -1.850598 0.791289 0.730578
v -1.781665 0.483222 0.419276
v 0.480823 2.321862 0.307269
v 0.376852 2.450116 0.292736
v 0.672087 1.901850 0.163164
v 0.726759 2.028741 0.299034
v 0.745731 1.669273 0.373776
v 0.781254 1.674039 0.473204
v 0.771162 1.547767 0.430035
v 0.827244 1.529662 0.585004
v -0.142031 2.525644 0.254035
v 0.063481 2.499686 0.260424
v -0.127334 2.853886 0.395239
v 0.140842 2.781455 0.367953
v -1.626135 1.090078 0.670485
v -1.693546 0.918564 0.605535
v -1.837383 1.108440 0.578400
v -1.807405 0.944824 0.554336
v -1.758171 0.763040 0.510546
v -1.758661 1.083526 0.676013
v -0.071355 1.818358 0.452943
v 0.172885 2.137026 -0.267129
v 0.092881 2.528112 -0.040630
v -0.020030 2.326604 0.525097
v -0.031523 2.552515 0.130998
v -0.041441 2.468118 0.383274
v 0.007663 2.885111 0.212647
v 0.005303 2.749388 0.548971
v 0.010307 2.868734 0.402750
v 0.104320 2.697912 0.161950
v 0.097831 2.582631 0.457275
v -0.138383 2.635426 0.476252
v -0.134313 2.751492 0.177219
v -0.153337 2.695136 0.327735
v 0.116031 2.640394 0.309202
v -0.015676 2.732208 0.148613
v -0.019161 2.599493 0.487171
v 0.462603 1.675179 0.053516
v -0.592630 1.526317 0.142980
v 0.604027 1.845564 -0.217574
v 0.170388 1.082166 0.162940
v -0.200743 0.044353 0.127297
v -0.345552 0.053192 0.249208
v -0.370576 0.046985 -0.001310
v -0.235366 0.041682 -0.015510
v 0.367697 0.071499 -0.431182
v 0.294164 0.091628 -0.504520
v 0.376919 0.081143 -0.468478
v 0.345298 0.087635 -0.493984
v 0.308835 0.070069 -0.420863
v 0.095635 0.916037 -0.244106
v 0.166669 0.668538 -0.279293
v 0.231017 0.383362 -0.368094
v 0.270389 0.297282 -0.212731
v 0.234488 0.495037 -0.050047
v 0.219876 0.735731 0.089835
v 0.391548 0.317035 -0.234525
v 0.438531 0.532637 -0.083344
v 0.501379 0.838624 0.054294
v 0.350478 0.950483 -0.219582
v 0.346894 0.664850 -0.252444
v 0.338224 0.380278 -0.350660
v 0.406562 0.358999 -0.304077
v 0.462383 0.632128 -0.176162
v 0.520624 0.930958 -0.111791
v -0.173361 0.960473 0.370753
v -0.150356 0.656816 0.357137
v -0.147530 0.409662 0.357040
v -0.432578 0.398751 0.344601
v -0.441209 0.674345 0.300316
v -0.462108 0.927645 0.253580
v -0.463575 0.410094 0.074661
v -0.470249 0.681696 0.031990
v -0.478482 0.887398 -0.020014
v -0.082536 0.842528 -0.043171
v -0.126792 0.655247 -0.005392
v -0.171324 0.449615 0.041403
vn 0.0128 0.4977 -0.8673
vn 0.0243 -0.0354 -0.9991
vn 0.4500 -0.2115 -0.8676
vn -0.3339 -0.1869 0.9239
vn 0.9104 -0.0814 0.4057
vn 0.6064 0.7719 0.1908
vn 0.2099 0.8902 -0.4043
vn 0.5201 -0.2003 0.8303
vn -0.1043 0.9487 0.2984
vn -0.0462 0.4739 -0.8793
vn -0.2205 -0.4116 0.8843
vn -0.3997 -0.8876 -0.2291
vn -0.3345 -0.0174 0.9422
vn 0.2486 -0.8286 0.5016
vn 0.9136 -0.3183 0.2529
vn -0.1049 -0.6670 0.7376
vn 0.1162 0.9854 0.1248
vn -0.0737 -0.7221 0.6878
vn -0.6873 0.3373 0.6433
vn 0.9476 -0.0573 -0.3143
vn -0.8377 0.0809 -0.5401
vn 0.5441 0.7311 0.4116
vn 0.2711 0.1243 0.9545
vn -0.3720 -0.5101 0.7755
vn -0.1683 0.6630 0.7295
vn -0.9016 -0.0678 0.4273
vn -0.1259 -0.5465 -0.8279
vn 0.8788 0.4749 0.0478
vn -0.4474 -0.5958 0.6670
vn 0.7348 0.4990 -0.4594
vn 0.0012 0.4766 0.8791
vn 0.9945 0.0484 -0.0930
vn 0.0293 -0.6274 -0.7782
vn 0.0754 -0.9875 -0.1381
vn -0.1367 -0.4913 -0.8602
vn -0.8884 0.4369 0.1406
vn 0.3724 0.6762 0.6357
vn 0.9862 -0.0287 -0.1632
vn 0.3234 0.5936 0.7369
vn 0.1319 0.9892 -0.0634
vn -0.3210 0.9073 0.2717
vn 0.3795 0.9026 0.2030
vn 0.0571 0.9762 0.2092
vn -0.9695 0.1269 0.2099
vn 0.2768 -0.3405 0.8986
vn -0.2316 0.4717 -0.8508
vn -0.7546 -0.5656 -0.3326
vn -0.9231 -0.3227 0.2092
vn 0.2068 0.0810 -0.9750
vn -0.9659 0.2448 -0.0840
vn 0.0520 0.8462 0.5303
vn 0.4100 0.7475 0.5227
vn -0.3026 0.9069 0.2933
vn 0.9803 -0.1605 0.1149
vn 0.0623 0.6611 0.7477
vn -0.3855 -0.4984 -0.7765
vn -0.0657 -0.9944 -0.0832
vn -0.5590 -0.6033 -0.5688
vn 0.6095 0.4699 0.6385
vn -0.3884 -0.7224 -0.5721
vn -0.1009 0.9944 0.0299
vn 0.6697 0.5269 0.5233
vn 0.5172 0.2729 0.8112
vn -0.3579 0.2438 -0.9014
vn 0.0453 0.1642 0.9854
vn -0.7144 -0.5743 0.3997
vn -0.2886 0.5398 0.7908
vn -0.7147 0.6769 0.1761
vn -0.3897 -0.8622 -0.3236
vn 0.1379 0.4706 0.8715
vn 0.5311 0.6039 0.5944
vn 0.1662 0.3519 0.9212
vn -0.3466 0.5443 -0.7639
vn -0.8631 0.4521 0.2250
vn 0.9197 -0.3115 0.2388
vn 0.5043 0.7026 0.5021
vn 0.3008 0.3909 -0.8699
vn -0.2570 -0.2684 0.9284
vn 0.5062 0.8518 0.1344
vn 0.3313 0.9433 -0.0227
vn -0.1793 0.5718 0.8006
vn -0.5175 -0.0514 0.8542
vn 0.2473 0.7185 -0.6501
vn -0.1701 -0.5522 0.8162
vn 0.1083 0.1092 -0.9881
vn 0.9484 -0.3155 -0.0325
vn -0.9925 -0.0076 -0.1220
vn -0.0914 0.1803 -0.9794
vn 0.0303 -0.5682 0.8223
vn -0.9998 -0.0026 0.0177
vn 0.9654 -0.2442 -0.0913
vn -0.0230 -0.9961 -0.0847
vn 0.2284 -0.3959 0.8894
vn -0.9613 -0.2560 0.1021
vn -0.9582 -0.2677 0.1005
vn 0.9860 -0.0999 -0.1338
vn -0.1218 0.1641 -0.9789
vn -0.0368 -0.9989 0.0281
vn -0.0184 -0.9694 -0.2448
vn 0.2075 -0.6325 0.7462
vn 0.1751 0.4422 -0.8797
vn 0.9734 -0.1889 0.1296
vn 0.6096 0.3575 -0.7075
vn 0.4910 -0.1337 -0.8609
vn 0.5503 0.0801 -0.8311
vn 0.5875 0.2448 -0.7713
vn 0.9949 -0.0721 0.0703
vn 0.9795 -0.2009 0.0142
vn 0.9735 -0.2256 0.0365
vn 0.1556 -0.1814 -0.9710
vn 0.1064 0.1391 -0.9845
vn 0.1516 0.3216 -0.9347
vn 0.2414 -0.1025 0.9650
vn 0.2528 -0.4556 0.8535
vn 0.2350 -0.5918 0.7711
vn -0.9338 -0.2368 0.2681
vn -0.9558 -0.2323 0.1801
vn -0.9629 -0.2513 0.0987
vn -0.1299 -0.5539 -0.8224
vn -0.1001 -0.2129 -0.9719
vn -0.1052 -0.1752 -0.9789
vn 0.8980 0.3155 0.3067
vn 0.9879 -0.0353 0.1510
vn 0.9957 -0.0923 -0.0056
vn -0.9810 -0.0573 -0.1854
vn -0.9953 -0.0446 0.0861
vn -0.9938 -0.0102 0.1105
vn -0.5325 0.4168 0.7367
vn -0.2882 0.0342 0.9570
vn -0.1181 0.0811 0.9897
vn 0.4437 -0.1526 0.8831
vn 0.4491 0.3224 -0.8333
vn -0.1138 -0.4820 -0.8687
vn -0.1734 -0.8537 -0.4910
vn -0.8045 -0.0605 -0.5909
vt 0.882279 0.260085
vt 0.436089 0.649131
vt 0.117664 0.305524
vt 0.860974 0.338762
vt 0.079561 0.383885
vt 0.278417 0.728674
vt 0.111517 0.716819
vt 0.301243 0.337859
vt 0.232943 0.387386
vt 0.111517 0.662267
vt 0.671871 0.687525
vt 0.175114 0.511099
vt 0.930991 0.712692
vt 0.796001 0.259488
vt 0.522181 0.649131
vt 0.719621 0.316178
vt 0.801110 0.310020
vt 0.698705 0.366293
vt 0.510656 0.337024
vt 0.023033 0.717149
vt 0.367094 0.730187
vt 0.507246 0.358198
vt 0.018976 0.695717
vt 0.103380 0.570561
vt 0.268725 0.266033
vt 0.143950 0.273348
vt 0.098384 0.631539
vt 0.301351 0.259488
vt 0.128079 0.559933
vt 0.480438 0.333338
vt 0.348619 0.714075
vt 0.604958 0.268707
vt 0.031105 0.562973
vt 0.043818 0.625810
vt 0.721993 0.282954
vt 0.329365 0.336360
vt 0.302724 0.713315
vt 0.030374 0.549675
vt 0.582817 0.260846
vt 0.875347 0.642471
vt 0.380514 0.272320
vt 0.124895 0.517524
vt 0.813390 0.578569
vt 0.436089 0.332372
vt 0.956124 0.588845
vt 0.367094 0.692599
vt 0.367094 0.522797
vt 0.871643 0.594841
vt 0.398138 0.324445
vt 0.043891 0.509019
vt 0.796001 0.641153
vt 0.491075 0.268473
vt 0.032114 0.534706
vt 0.552485 0.259488
vt 0.331566 0.259909
vt 0.129819 0.544964
vt 0.339759 0.337186
vt 0.913298 0.588845
vt 0.317584 0.707220
vt 0.845734 0.463378
vt 0.311567 0.646434
vt 0.944558 0.353645
vt 0.398138 0.462439
vt 0.920230 0.354337
vt 0.870057 0.463781
vt 0.929709 0.374247
vt 0.357807 0.478584
vt 0.347994 0.663056
vt 0.944558 0.373825
vt 0.097076 0.285727
vt 0.229765 0.651022
vt 0.758050 0.297859
vt 0.168317 0.651042
vt 0.119329 0.272208
vt 0.094178 0.643292
vt 0.222768 0.636959
vt 0.746872 0.283208
vt 0.174541 0.636975
vt 0.045175 0.638147
vt 0.080672 0.327471
vt 0.442544 0.673801
vt 0.734592 0.339187
vt 0.484453 0.673801
vt 0.070725 0.319456
vt 0.218298 0.685110
vt 0.751374 0.331694
vt 0.180611 0.684911
vt 0.062412 0.356092
vt 0.455575 0.702696
vt 0.724658 0.367821
vt 0.476314 0.702696
vt 0.043357 0.357400
vt 0.210236 0.723455
vt 0.742364 0.370210
vt 0.189444 0.723462
vt 0.050281 0.367705
vt 0.444942 0.715336
vt 0.810526 0.722486
vt 0.728448 0.380153
vt 0.853695 0.722486
vt 0.487920 0.715336
vt 0.018975 0.371756
vt 0.232852 0.738567
vt 0.796001 0.739289
vt 0.758050 0.386241
vt 0.861207 0.739289
vt 0.167770 0.738589
vt 0.100634 0.583041
vt 0.712300 0.698974
vt 0.802197 0.701507
vt 0.098640 0.600731
vt 0.972705 0.287497
vt 0.747907 0.696578
vt 0.052045 0.577939
vt 0.849895 0.701507
vt 0.710445 0.675017
vt 0.050052 0.595630
vt 0.746553 0.677603
vt 0.924885 0.287497
vt 0.797725 0.671259
vt 0.981025 0.313792
vt 0.715147 0.730011
vt 0.752543 0.724602
vt 0.973919 0.259495
vt 0.967002 0.332143
vt 0.934252 0.306472
vt 0.715328 0.644023
vt 0.847669 0.671259
vt 0.923848 0.259495
vt 0.753088 0.649631
vt 0.920230 0.324823
vt 0.068284 0.665533
vt 0.630362 0.705721
vt 0.712055 0.621316
vt 0.966165 0.712391
vt 0.519769 0.388732
vt 0.031375 0.663704
vt 0.592215 0.695479
vt 0.581836 0.620019
vt 0.750017 0.621843
vt 0.569690 0.667298
vt 0.581066 0.387596
vt 0.531739 0.516092
vt 0.642835 0.625048
vt 0.273616 0.509019
vt 0.070982 0.710642
vt 0.316851 0.732164
vt 0.684917 0.393810
vt 0.816625 0.338063
vt 0.644803 0.392946
vt 0.602800 0.367236
vt 0.671871 0.661666
vt 0.181146 0.386242
vt 0.855113 0.259897
vt 0.463196 0.649131
vt 0.077903 0.567886
vt 0.078993 0.554271
vt 0.322237 0.720993
vt 0.070972 0.628379
vt 0.834014 0.651825
vt 0.084160 0.512738
vt 0.838315 0.596273
vt 0.320679 0.509019
vt 0.080733 0.539302
vt 0.857365 0.464048
vt 0.931678 0.351118
vt 0.335174 0.488977
vt 0.367094 0.673623
vt 0.939667 0.384854
vt 0.199177 0.651021
vt 0.069465 0.641494
vt 0.198664 0.632807
vt 0.464209 0.672968
vt 0.199604 0.684998
vt 0.465945 0.702696
vt 0.199840 0.723459
vt 0.466714 0.715004
vt 0.832520 0.720483
vt 0.200177 0.738589
vt 0.829423 0.735282
vt 0.076340 0.580490
vt 0.826046 0.701507
vt 0.074346 0.598181
vt 0.948795 0.287497
vt 0.823088 0.670800
vt 0.959731 0.307426
vt 0.948976 0.259488
vt 0.941524 0.331189
vt 0.875347 0.491894
vt 0.391834 0.432095
vt 0.377694 0.448634
vt 0.915590 0.478791
vt 0.834644 0.488373
vt 0.326937 0.619279
vt 0.938593 0.478810
vt 0.335216 0.632947
vt 0.358601 0.463790
vt 0.348787 0.648138
vt 0.927106 0.463378
vt 0.854274 0.489560
vt 0.315804 0.619182
vt 0.212520 0.321385
vt 0.644070 0.318501
vt 0.018976 0.592450
vt 0.663817 0.276029
vt 0.129819 0.597828
vt 0.224108 0.269832
vt 0.051049 0.586785
vt 0.728499 0.676310
vt 0.099637 0.591886
vt 0.730103 0.697776
vt 0.734390 0.646904
vt 0.920230 0.314550
vt 0.981025 0.324065
vt 0.732426 0.727384
vt 0.950683 0.319044
vt 0.753088 0.663662
vt 0.920230 0.273492
vt 0.977552 0.273492
vt 0.752543 0.710647
vt 0.709822 0.714522
vt 0.796001 0.686127
vt 0.853178 0.686127
vt 0.709822 0.659561
vt 0.824792 0.685890
vt 0.948939 0.273488
vt 0.731549 0.661651
vt 0.730449 0.712624
vt 0.878850 0.297575
vt 0.096711 0.342677
vt 0.285581 0.357771
vt 0.108549 0.696221
vt 0.804979 0.293594
vt 0.708839 0.350023
vt 0.668288 0.644023
vt 0.436089 0.526409
vt 0.145034 0.385321
vt 0.919159 0.607821
vt 0.247387 0.613831
vt 0.970304 0.416607
vt 0.947808 0.608020
vt 0.704660 0.516092
vt 0.970304 0.403829
vt 0.750017 0.516884
vt 0.618892 0.516092
vt 0.920230 0.404231
vt 0.273616 0.612878
vt 0.642836 0.516847
vt 0.938584 0.415207
vt 0.924281 0.443436
vt 0.075400 0.489812
vt 0.855524 0.444402
vt 0.531739 0.629156
vt 0.934913 0.435583
vt 0.576828 0.496673
vt 0.931440 0.443424
vt 0.848383 0.444289
vt 0.592622 0.497116
vt 0.934913 0.440184
vt 0.586164 0.496977
vt 0.517161 0.630156
vt 0.920230 0.438606
vt 0.085942 0.490043
vt 0.585376 0.420489
vt 0.510472 0.551446
vt 0.582586 0.444044
vt 0.504260 0.576063
vt 0.581388 0.469636
vt 0.508131 0.602400
vt 0.103684 0.463024
vt 0.477645 0.604263
vt 0.118194 0.440373
vt 0.454885 0.581958
vt 0.129418 0.415411
vt 0.438452 0.557360
vt 0.876897 0.417052
vt 0.081901 0.462161
vt 0.882279 0.393921
vt 0.081653 0.438865
vt 0.880271 0.363315
vt 0.079604 0.408162
vt 0.633117 0.418943
vt 0.615530 0.444447
vt 0.600997 0.469910
vt 0.614559 0.469949
vt 0.862035 0.416811
vt 0.638313 0.444473
vt 0.857648 0.390640
vt 0.666106 0.417503
vt 0.844696 0.362700
vt 0.167770 0.536691
vt 0.914144 0.688660
vt 0.182151 0.561697
vt 0.913298 0.663084
vt 0.189855 0.582503
vt 0.915415 0.641729
vt 0.680787 0.549268
vt 0.966165 0.641681
vt 0.684678 0.573659
vt 0.963812 0.665813
vt 0.684995 0.596421
vt 0.964308 0.688427
vt 0.584794 0.548886
vt 0.729850 0.550060
vt 0.578610 0.572959
vt 0.734888 0.574452
vt 0.569690 0.595426
vt 0.736445 0.597214
vt 0.642060 0.590920
vt 0.247172 0.543053
vt 0.641052 0.570535
vt 0.248998 0.562413
vt 0.635978 0.552556
vt 0.245738 0.579271
s 0
usemtl Material
f 89/203/1 7/19/1 13/32/1 90/205/1
f 8/22/2 7/19/2 89/203/2 58/151/2 54/142/2 53/136/2
f 6/18/3 56/148/3 57/150/3
f 3/8/4 106/231/4 4/9/4 59/153/4 88/202/4
f 6/17/5 107/233/5 5/14/5 60/154/5 1/1/5 105/229/5 2/4/5 56/149/5
f 61/156/6 13/33/6 16/38/6 62/157/6
f 5/16/7 14/35/7 31/77/7 29/72/7
f 88/202/8 1/3/8 10/26/8 91/207/8
f 67/164/9 21/53/9 20/50/9 65/161/9
f 13/32/10 7/19/10 12/30/10 16/39/10
f 3/8/11 9/25/11 11/28/11 15/36/11
f 55/147/12 3/6/12 15/37/12 63/158/12
f 66/162/13 19/48/13 17/40/13 65/160/13
f 23/57/14 22/55/14 17/41/14 19/49/14
f 83/191/15 82/190/15 25/63/15 26/67/15
f 15/36/16 11/28/16 22/55/16 23/57/16
f 62/157/17 16/38/17 21/53/17 67/164/17
f 69/169/18 26/66/18 25/64/18 68/166/18
f 87/200/19 84/193/19 24/60/19 68/165/19
f 86/197/20 83/191/20 26/67/20 69/167/20
f 84/194/21 85/196/21 27/68/21 24/61/21
f 70/170/22 29/73/22 31/78/22 71/172/22
f 70/170/23 28/71/23 34/85/23 73/174/23
f 10/26/24 1/3/24 28/70/24 30/74/24
f 64/159/25 10/27/25 30/75/25 71/171/25
f 34/84/26 32/80/26 36/88/26 38/92/26
f 60/155/27 5/15/27 33/83/27 72/173/27
f 5/16/28 29/72/28 35/86/28 33/82/28
f 28/70/29 1/3/29 32/80/29 34/84/29
f 37/90/30 39/94/30 43/105/30 41/99/30
f 73/174/31 34/85/31 38/93/31 75/176/31
f 33/82/32 35/86/32 39/94/32 37/90/32
f 72/173/33 33/83/33 37/91/33 74/175/33
f 76/178/34 41/100/34 43/106/34 77/180/34
f 74/175/35 37/91/35 41/101/35 76/177/35
f 38/92/36 36/88/36 40/96/36 42/102/36
f 75/176/37 38/93/37 42/103/37 77/179/37
f 102/226/38 97/218/38 51/129/38 81/187/38
f 91/206/39 10/27/39 45/111/39 93/210/39
f 90/204/40 13/33/40 46/114/40 92/208/40
f 61/156/41 9/24/41 44/108/41 78/181/41
f 64/159/42 14/34/42 47/117/42 79/183/42
f 96/216/43 94/213/43 50/126/43 80/186/43
f 101/225/44 99/222/44 48/120/44 80/185/44
f 104/228/45 98/220/45 49/123/45 95/215/45
f 103/227/46 100/224/46 50/127/46 94/212/46
f 8/23/47 53/137/47 52/132/47
f 8/23/48 52/132/48 4/10/48 106/232/48 3/7/48 55/146/48 7/20/48
f 54/142/49 58/151/49 89/203/49 5/16/49 107/234/49 6/18/49 57/150/49
f 100/223/50 101/225/50 80/185/50 50/128/50
f 95/214/51 96/216/51 80/186/51 48/121/51
f 10/27/52 64/159/52 79/183/52 45/111/52
f 13/33/53 61/156/53 78/181/53 46/114/53
f 98/219/54 102/226/54 81/187/54 49/124/54
f 39/95/55 75/176/55 77/179/55 43/107/55
f 36/89/56 74/175/56 76/177/56 40/97/56
f 40/98/57 76/178/57 77/180/57 42/104/57
f 32/81/58 72/173/58 74/175/58 36/89/58
f 35/87/59 73/174/59 75/176/59 39/95/59
f 1/2/60 60/155/60 72/173/60 32/81/60
f 14/34/61 64/159/61 71/171/61 31/79/61
f 29/73/62 70/170/62 73/174/62 35/87/62
f 28/71/63 70/170/63 71/172/63 30/76/63
f 85/196/64 86/198/64 69/168/64 27/68/64
f 82/189/65 87/200/65 68/165/65 25/65/65
f 27/69/66 69/169/66 68/166/66 24/62/66
f 11/29/67 62/157/67 67/164/67 22/56/67
f 18/43/68 66/162/68 65/160/68 20/51/68
f 7/21/69 55/147/69 63/158/69 12/31/69
f 22/56/70 67/164/70 65/161/70 17/42/70
f 9/24/71 61/156/71 62/157/71 11/29/71
f 19/48/72 66/162/72 87/200/72 82/189/72
f 12/30/73 18/44/73 20/52/73 21/54/73 16/39/73
f 66/163/74 18/47/74 84/194/74 87/201/74
f 23/57/75 19/49/75 82/190/75 83/191/75
f 49/125/76 81/188/76 96/216/76 95/214/76
f 97/217/77 103/227/77 94/212/77 51/130/77
f 99/221/78 104/228/78 95/215/78 48/122/78
f 81/188/79 51/131/79 94/213/79 96/216/79
f 14/34/80 90/204/80 92/208/80 47/117/80
f 9/24/81 91/206/81 93/210/81 44/108/81
f 3/8/82 88/202/82 91/207/82 9/25/82
f 5/16/83 89/203/83 90/205/83 14/35/83
f 44/109/84 93/211/84 104/228/84 99/221/84
f 47/118/85 92/209/85 103/227/85 97/217/85
f 45/112/86 79/184/86 102/226/86 98/219/86
f 46/115/87 78/182/87 101/225/87 100/223/87
f 92/209/88 46/116/88 100/224/88 103/227/88
f 93/211/89 45/113/89 98/220/89 104/228/89
f 78/182/90 44/110/90 99/222/90 101/225/90
f 79/184/91 47/119/91 97/218/91 102/226/91
f 59/152/92 4/11/92 52/133/92 53/138/92 54/141/92 108/235/92
f 136/298/93 110/241/93 109/238/93 135/296/93
f 121/271/94 120/269/94 114/253/94 117/261/94
f 139/304/95 111/244/95 110/242/95 136/297/95
f 135/295/96 109/239/96 112/247/96 144/314/96
f 144/313/97 112/248/97 111/245/97 139/303/97
f 111/246/98 112/249/98 109/240/98 110/243/98
f 117/262/99 114/254/99 116/259/99 115/256/99 113/250/99
f 124/277/100 121/270/100 117/263/100 113/251/100
f 120/268/101 129/284/101 116/260/101 114/255/101
f 130/286/102 124/276/102 113/252/102 115/257/102
f 129/284/103 130/285/103 115/258/103 116/260/103
f 57/150/104 56/148/104 132/289/104 127/282/104
f 127/282/105 132/289/105 131/287/105 128/283/105
f 128/283/106 131/287/106 130/285/106 129/284/106
f 56/149/107 2/4/107 126/280/107 132/290/107
f 132/290/108 126/280/108 125/278/108 131/288/108
f 131/288/109 125/278/109 124/276/109 130/286/109
f 54/142/110 57/150/110 127/282/110 118/264/110
f 118/264/111 127/282/111 128/283/111 119/266/111
f 119/266/112 128/283/112 129/284/112 120/268/112
f 2/5/113 108/237/113 123/274/113 126/281/113
f 126/281/114 123/274/114 122/272/114 125/279/114
f 125/279/115 122/272/115 121/270/115 124/277/115
f 108/236/116 54/143/116 118/265/116 123/275/116
f 123/275/117 118/265/117 119/267/117 122/273/117
f 122/273/118 119/267/118 120/269/118 121/271/118
f 54/144/119 142/309/119 141/307/119 53/139/119
f 142/309/120 143/311/120 140/305/120 141/307/120
f 143/311/121 144/313/121 139/303/121 140/305/121
f 4/12/122 133/291/122 142/310/122 54/145/122
f 133/291/123 134/293/123 143/312/123 142/310/123
f 134/293/124 135/295/124 144/314/124 143/312/124
f 53/140/125 141/308/125 138/301/125 52/134/125
f 141/308/126 140/306/126 137/299/126 138/301/126
f 140/306/127 139/304/127 136/297/127 137/299/127
f 52/135/128 138/302/128 133/292/128 4/13/128
f 138/302/129 137/300/129 134/294/129 133/292/129
f 137/300/130 136/298/130 135/296/130 134/294/130
f 105/230/131 1/3/131 88/202/131 59/153/131 108/237/131 2/5/131
f 86/199/132 85/195/132 83/192/132
f 83/192/133 85/195/133 18/45/133 23/58/133
f 63/158/134 15/37/134 23/59/134 18/46/134 12/31/134
f 84/194/135 18/47/135 85/196/135
l 52 106
