# Blender 3.3.1
# www.blender.org
mtllib monstruo_3_grande_caminar612.mtl
o monstruo_grande
v 0.314979 2.035957 0.190406
v 0.526975 1.213933 0.083337
v -0.737583 1.713622 0.199386
v -0.288025 1.109827 0.222532
v 0.438311 2.328965 -0.159767
v 0.501086 1.632606 -0.263135
v -0.888665 1.930453 -0.217002
v -0.770429 1.649291 -0.285631
v -0.379725 2.385594 0.459642
v 0.181693 2.306931 0.404493
v -0.509564 2.351135 0.563460
v -1.251119 1.968503 -0.057719
v -0.386201 2.543770 0.098383
v 0.156611 2.444577 0.145364
v -1.091995 1.839007 0.100521
v -0.549896 2.609784 0.122268
v -0.859794 2.257128 0.589401
v -1.536026 1.896578 0.212814
v -1.256555 1.950121 0.412579
v -1.056016 2.556337 0.315382
v -0.732436 2.643757 0.192929
v -0.585256 2.303871 0.543338
v -1.225161 1.858773 0.102836
v -1.810998 0.653908 0.930161
v -1.683992 0.636396 0.974128
v -1.668620 0.456390 0.776631
v -1.746141 0.467080 0.749795
v 0.341696 2.225682 0.374666
v 0.414285 2.425850 0.112333
v 0.295224 2.340600 0.392111
v 0.287612 2.473569 0.164930
v 0.563591 1.916953 0.147110
v 0.660200 2.024416 -0.033067
v 0.590018 1.996562 0.199587
v 0.653819 2.118808 0.044515
v 0.730488 1.698966 0.049606
v 0.800598 1.738679 -0.031017
v 0.815083 1.652925 0.092883
v 0.882966 1.703217 0.013803
v 0.741702 1.543163 0.053303
v 0.886360 1.644640 -0.108565
v 0.852428 1.419434 0.159488
v 1.063561 1.571741 -0.090520
v -0.217913 2.445175 0.477100
v -0.007167 2.422553 0.456829
v -0.224485 2.540255 0.228342
v -0.023072 2.517816 0.211550
v -0.160206 2.758275 0.620939
v 0.044443 2.692966 0.578922
v -0.176585 2.871157 0.367290
v 0.026723 2.806376 0.324270
v -0.498798 1.121169 0.012109
v -0.388514 1.150459 -0.202358
v -0.056490 1.268373 -0.333846
v -0.800088 1.753762 -0.021207
v 0.547322 1.220326 -0.155265
v 0.326338 1.212721 -0.277564
v -0.027877 1.521361 -0.330153
v -0.008105 1.149609 0.196743
v 0.357324 2.124516 0.071511
v -0.375501 2.441921 0.332709
v -0.542139 2.594110 0.396081
v -1.026472 1.905470 -0.021666
v 0.146013 2.432080 0.305467
v -0.894852 2.481486 0.538974
v -1.434160 2.049944 0.451459
v -0.694318 2.572856 0.392623
v -1.758254 0.644477 0.982955
v -1.689099 0.344642 0.663766
v 0.417347 2.336576 0.269692
v 0.291832 2.452656 0.300387
v 0.564372 1.956006 0.020456
v 0.664918 2.069292 0.149070
v 0.764551 1.722470 0.009667
v 0.848808 1.677254 0.052948
v 0.793145 1.600022 -0.041110
v 0.921101 1.508471 0.011176
v -0.221505 2.492126 0.351493
v -0.016410 2.471278 0.333647
v -0.199504 2.816098 0.496920
v 0.067168 2.748590 0.449382
v -1.566071 0.961792 0.907813
v -1.623627 0.785317 0.846794
v -1.784930 0.962437 0.834062
v -1.743170 0.801799 0.805411
v -1.682280 0.625118 0.755781
v -1.696627 0.943769 0.924145
v -0.083670 1.772207 0.503406
v 0.014198 2.138590 -0.214031
v -0.029946 2.516539 0.031353
v -0.049848 2.284664 0.594504
v -0.125274 2.527820 0.218309
v -0.108702 2.431934 0.466253
v -0.077754 2.855336 0.307244
v -0.055496 2.708683 0.637879
v -0.061871 2.832755 0.495701
v 0.015636 2.672309 0.243082
v 0.033477 2.546025 0.534380
v -0.201925 2.594787 0.571573
v -0.221760 2.720862 0.278361
v -0.227897 2.659172 0.426897
v 0.040228 2.609178 0.387420
v -0.104863 2.704759 0.240241
v -0.081977 2.560422 0.572953
v 0.370700 1.735114 -0.036739
v -0.597705 1.440903 0.220103
v 0.477669 1.853731 -0.264085
v 0.181089 1.181685 0.198077
v -0.190870 -0.002517 -0.082878
v -0.334918 0.002858 0.039862
v -0.361483 0.002897 -0.209843
v -0.226352 -0.001944 -0.224932
v 0.369692 0.024193 0.130612
v 0.289009 0.007111 0.064296
v 0.375073 0.018100 0.091814
v 0.341099 0.011303 0.069600
v 0.312128 0.023281 0.147221
v 0.098442 0.867679 -0.089661
v 0.147911 0.619349 0.017114
v 0.213433 0.325493 0.068622
v 0.272634 0.322396 0.240588
v 0.245370 0.573875 0.294228
v 0.234992 0.852233 0.305332
v 0.389864 0.328213 0.198540
v 0.442636 0.589101 0.224763
v 0.511458 0.928529 0.212389
v 0.354894 0.903659 -0.076979
v 0.329838 0.627220 0.024075
v 0.321955 0.329807 0.073175
v 0.395661 0.332259 0.116236
v 0.453450 0.633256 0.094683
v 0.526852 0.936675 0.023978
v -0.168823 0.840227 0.300816
v -0.140309 0.554326 0.223444
v -0.134007 0.315472 0.177955
v -0.419150 0.303471 0.168868
v -0.432338 0.578371 0.176300
v -0.457496 0.834346 0.178612
v -0.456466 0.360026 -0.092789
v -0.467230 0.636169 -0.086903
v -0.474125 0.862068 -0.097662
v -0.077822 0.825658 -0.130188
v -0.124428 0.622300 -0.135170
v -0.165579 0.409280 -0.124136
vn -0.1189 0.5300 -0.8397
vn -0.0805 0.0665 -0.9945
vn 0.4816 -0.1709 -0.8596
vn -0.2200 -0.2915 0.9309
vn 0.9413 0.0977 0.3231
vn 0.5736 0.8024 0.1648
vn 0.0152 0.9160 -0.4009
vn 0.6646 -0.1965 0.7209
vn -0.1218 0.9194 0.3739
vn -0.1900 0.5129 -0.8372
vn -0.0798 -0.4727 0.8776
vn -0.3744 -0.8845 -0.2784
vn -0.1995 -0.0961 0.9752
vn 0.3599 -0.8360 0.4142
vn 0.9554 -0.2389 0.1735
vn 0.0331 -0.7080 0.7054
vn 0.0720 0.9824 0.1726
vn 0.0459 -0.7282 0.6838
vn -0.6570 0.2738 0.7024
vn 0.9197 0.0261 -0.3917
vn -0.8836 0.0104 -0.4681
vn 0.5858 0.7632 0.2726
vn 0.6141 0.1522 0.7744
vn -0.1275 -0.5533 0.8232
vn -0.0764 0.6172 0.7831
vn -0.4370 -0.5607 0.7033
vn -0.4262 -0.5063 -0.7497
vn 0.7855 0.5692 -0.2431
vn -0.1173 -0.6425 0.7573
vn 0.4332 0.8176 -0.3794
vn 0.5818 0.1009 0.8070
vn 0.6879 0.3876 -0.6136
vn -0.4374 -0.2725 -0.8570
vn -0.2003 -0.6753 -0.7098
vn -0.6636 0.0897 -0.7427
vn -0.5618 0.0786 0.8235
vn 0.7804 0.2481 0.5739
vn 0.9710 -0.0100 -0.2389
vn 0.4010 0.5821 0.7073
vn 0.0798 0.9960 -0.0411
vn -0.3431 0.8697 0.3548
vn 0.3546 0.9142 0.1962
vn 0.0582 0.9695 0.2379
vn -0.9544 0.1047 0.2795
vn 0.3413 -0.3646 0.8664
vn -0.2982 0.4947 -0.8163
vn -0.6804 -0.5928 -0.4308
vn -0.8623 -0.4574 0.2171
vn 0.0684 0.1060 -0.9920
vn -0.9721 0.2344 -0.0032
vn 0.0768 0.8293 0.5535
vn 0.4429 0.7474 0.4953
vn -0.3073 0.8733 0.3781
vn 0.9883 -0.1466 0.0424
vn 0.5874 0.1042 0.8026
vn -0.8360 -0.0269 -0.5481
vn -0.2849 -0.7527 -0.5935
vn -0.7642 -0.5348 -0.3606
vn 0.8578 0.3853 0.3400
vn -0.5399 -0.7044 -0.4609
vn -0.1807 0.9777 0.1066
vn 0.7767 0.5729 0.2616
vn 0.6664 0.3601 0.6529
vn -0.4510 0.2151 -0.8662
vn 0.1124 0.1640 0.9800
vn -0.6268 -0.6355 0.4509
vn -0.2289 0.4673 0.8540
vn -0.7219 0.6211 0.3053
vn -0.3742 -0.8492 -0.3726
vn 0.2312 0.4245 0.8754
vn 0.5593 0.6075 0.5640
vn 0.2540 0.3477 0.9025
vn -0.4777 0.5595 -0.6774
vn -0.8564 0.3937 0.3341
vn 0.9588 -0.2579 0.1187
vn 0.5279 0.6934 0.4904
vn 0.2310 0.4247 -0.8754
vn -0.1888 -0.3013 0.9346
vn 0.5033 0.8545 0.1286
vn 0.2790 0.9601 -0.0174
vn -0.1081 0.5107 0.8529
vn -0.4086 -0.1328 0.9030
vn 0.0345 0.7542 -0.6558
vn -0.0859 -0.5752 0.8135
vn 0.0126 0.1571 -0.9875
vn 0.9488 -0.2887 -0.1283
vn -0.9999 -0.0055 -0.0139
vn -0.1869 0.2054 -0.9607
vn 0.1081 -0.6055 0.7885
vn -0.9948 -0.0231 0.0993
vn 0.9456 -0.2464 -0.2123
vn 0.1712 -0.9671 -0.1881
vn 0.2273 -0.5120 0.8284
vn -0.9246 -0.2213 0.3100
vn -0.9525 -0.2920 0.0867
vn 0.9833 -0.0769 -0.1648
vn -0.1317 0.2650 -0.9552
vn -0.0346 -0.9994 0.0039
vn 0.0674 -0.9824 0.1741
vn 0.3173 -0.2355 0.9186
vn 0.0601 0.0213 -0.9980
vn 0.9925 -0.0793 0.0929
vn 0.5157 0.0367 -0.8560
vn 0.4721 -0.4711 -0.7451
vn 0.5067 -0.3228 -0.7994
vn 0.4981 -0.1554 -0.8531
vn 0.9964 -0.0182 0.0828
vn 0.9766 -0.2101 0.0459
vn 0.9806 -0.1932 0.0328
vn 0.0762 -0.5152 -0.8537
vn 0.0780 -0.3640 -0.9281
vn 0.0459 -0.1632 -0.9855
vn 0.2378 0.3614 0.9016
vn 0.3292 -0.0292 0.9438
vn 0.3394 -0.1613 0.9267
vn -0.9270 -0.0898 0.3643
vn -0.9446 -0.0484 0.3245
vn -0.9372 -0.1607 0.3096
vn -0.1660 -0.3625 -0.9171
vn -0.1089 -0.0033 -0.9940
vn -0.1245 -0.0027 -0.9922
vn 0.9070 0.2567 0.3337
vn 0.9898 -0.0585 0.1300
vn 0.9964 -0.0737 -0.0417
vn -0.9819 -0.0134 -0.1889
vn -0.9943 -0.0647 0.0847
vn -0.9909 -0.0461 0.1263
vn -0.5412 0.2029 0.8160
vn -0.2808 -0.1668 0.9451
vn -0.0986 -0.1057 0.9895
vn 0.6002 -0.0769 0.7962
vn 0.3491 0.3630 -0.8639
vn -0.1966 -0.4741 -0.8582
vn -0.2129 -0.8240 -0.5251
vn -0.8417 -0.1251 -0.5253
vt 0.882279 0.260085
vt 0.436089 0.649131
vt 0.117664 0.305524
vt 0.860974 0.338762
vt 0.079561 0.383885
vt 0.278417 0.728674
vt 0.111517 0.716819
vt 0.301243 0.337859
vt 0.232943 0.387386
vt 0.111517 0.662267
vt 0.671871 0.687525
vt 0.175114 0.511099
vt 0.930991 0.712692
vt 0.796001 0.259488
vt 0.522181 0.649131
vt 0.719621 0.316178
vt 0.801110 0.310020
vt 0.698705 0.366293
vt 0.510656 0.337024
vt 0.023033 0.717149
vt 0.367094 0.730187
vt 0.507246 0.358198
vt 0.018976 0.695717
vt 0.103380 0.570561
vt 0.268725 0.266033
vt 0.143950 0.273348
vt 0.098384 0.631539
vt 0.301351 0.259488
vt 0.128079 0.559933
vt 0.480438 0.333338
vt 0.348619 0.714075
vt 0.604958 0.268707
vt 0.031105 0.562973
vt 0.043818 0.625810
vt 0.721993 0.282954
vt 0.329365 0.336360
vt 0.302724 0.713315
vt 0.030374 0.549675
vt 0.582817 0.260846
vt 0.875347 0.642471
vt 0.380514 0.272320
vt 0.124895 0.517524
vt 0.813390 0.578569
vt 0.436089 0.332372
vt 0.956124 0.588845
vt 0.367094 0.692599
vt 0.367094 0.522797
vt 0.871643 0.594841
vt 0.398138 0.324445
vt 0.043891 0.509019
vt 0.796001 0.641153
vt 0.491075 0.268473
vt 0.032114 0.534706
vt 0.552485 0.259488
vt 0.331566 0.259909
vt 0.129819 0.544964
vt 0.339759 0.337186
vt 0.913298 0.588845
vt 0.317584 0.707220
vt 0.845734 0.463378
vt 0.311567 0.646434
vt 0.944558 0.353645
vt 0.398138 0.462439
vt 0.920230 0.354337
vt 0.870057 0.463781
vt 0.929709 0.374247
vt 0.357807 0.478584
vt 0.347994 0.663056
vt 0.944558 0.373825
vt 0.097076 0.285727
vt 0.229765 0.651022
vt 0.758050 0.297859
vt 0.168317 0.651042
vt 0.119329 0.272208
vt 0.094178 0.643292
vt 0.222768 0.636959
vt 0.746872 0.283208
vt 0.174541 0.636975
vt 0.045175 0.638147
vt 0.080672 0.327471
vt 0.442544 0.673801
vt 0.734592 0.339187
vt 0.484453 0.673801
vt 0.070725 0.319456
vt 0.218298 0.685110
vt 0.751374 0.331694
vt 0.180611 0.684911
vt 0.062412 0.356092
vt 0.455575 0.702696
vt 0.724658 0.367821
vt 0.476314 0.702696
vt 0.043357 0.357400
vt 0.210236 0.723455
vt 0.742364 0.370210
vt 0.189444 0.723462
vt 0.050281 0.367705
vt 0.444942 0.715336
vt 0.810526 0.722486
vt 0.728448 0.380153
vt 0.853695 0.722486
vt 0.487920 0.715336
vt 0.018975 0.371756
vt 0.232852 0.738567
vt 0.796001 0.739289
vt 0.758050 0.386241
vt 0.861207 0.739289
vt 0.167770 0.738589
vt 0.100634 0.583041
vt 0.712300 0.698974
vt 0.802197 0.701507
vt 0.098640 0.600731
vt 0.972705 0.287497
vt 0.747907 0.696578
vt 0.052045 0.577939
vt 0.849895 0.701507
vt 0.710445 0.675017
vt 0.050052 0.595630
vt 0.746553 0.677603
vt 0.924885 0.287497
vt 0.797725 0.671259
vt 0.981025 0.313792
vt 0.715147 0.730011
vt 0.752543 0.724602
vt 0.973919 0.259495
vt 0.967002 0.332143
vt 0.934252 0.306472
vt 0.715328 0.644023
vt 0.847669 0.671259
vt 0.923848 0.259495
vt 0.753088 0.649631
vt 0.920230 0.324823
vt 0.068284 0.665533
vt 0.630362 0.705721
vt 0.712055 0.621316
vt 0.966165 0.712391
vt 0.519769 0.388732
vt 0.031375 0.663704
vt 0.592215 0.695479
vt 0.581836 0.620019
vt 0.750017 0.621843
vt 0.569690 0.667298
vt 0.581066 0.387596
vt 0.531739 0.516092
vt 0.642835 0.625048
vt 0.273616 0.509019
vt 0.070982 0.710642
vt 0.316851 0.732164
vt 0.684917 0.393810
vt 0.816625 0.338063
vt 0.644803 0.392946
vt 0.602800 0.367236
vt 0.671871 0.661666
vt 0.181146 0.386242
vt 0.855113 0.259897
vt 0.463196 0.649131
vt 0.077903 0.567886
vt 0.078993 0.554271
vt 0.322237 0.720993
vt 0.070972 0.628379
vt 0.834014 0.651825
vt 0.084160 0.512738
vt 0.838315 0.596273
vt 0.320679 0.509019
vt 0.080733 0.539302
vt 0.857365 0.464048
vt 0.931678 0.351118
vt 0.335174 0.488977
vt 0.367094 0.673623
vt 0.939667 0.384854
vt 0.199177 0.651021
vt 0.069465 0.641494
vt 0.198664 0.632807
vt 0.464209 0.672968
vt 0.199604 0.684998
vt 0.465945 0.702696
vt 0.199840 0.723459
vt 0.466714 0.715004
vt 0.832520 0.720483
vt 0.200177 0.738589
vt 0.829423 0.735282
vt 0.076340 0.580490
vt 0.826046 0.701507
vt 0.074346 0.598181
vt 0.948795 0.287497
vt 0.823088 0.670800
vt 0.959731 0.307426
vt 0.948976 0.259488
vt 0.941524 0.331189
vt 0.875347 0.491894
vt 0.391834 0.432095
vt 0.377694 0.448634
vt 0.915590 0.478791
vt 0.834644 0.488373
vt 0.326937 0.619279
vt 0.938593 0.478810
vt 0.335216 0.632947
vt 0.358601 0.463790
vt 0.348787 0.648138
vt 0.927106 0.463378
vt 0.854274 0.489560
vt 0.315804 0.619182
vt 0.212520 0.321385
vt 0.644070 0.318501
vt 0.018976 0.592450
vt 0.663817 0.276029
vt 0.129819 0.597828
vt 0.224108 0.269832
vt 0.051049 0.586785
vt 0.728499 0.676310
vt 0.099637 0.591886
vt 0.730103 0.697776
vt 0.734390 0.646904
vt 0.920230 0.314550
vt 0.981025 0.324065
vt 0.732426 0.727384
vt 0.950683 0.319044
vt 0.753088 0.663662
vt 0.920230 0.273492
vt 0.977552 0.273492
vt 0.752543 0.710647
vt 0.709822 0.714522
vt 0.796001 0.686127
vt 0.853178 0.686127
vt 0.709822 0.659561
vt 0.824792 0.685890
vt 0.948939 0.273488
vt 0.731549 0.661651
vt 0.730449 0.712624
vt 0.878850 0.297575
vt 0.096711 0.342677
vt 0.285581 0.357771
vt 0.108549 0.696221
vt 0.804979 0.293594
vt 0.708839 0.350023
vt 0.668288 0.644023
vt 0.436089 0.526409
vt 0.145034 0.385321
vt 0.919159 0.607821
vt 0.247387 0.613831
vt 0.970304 0.416607
vt 0.947808 0.608020
vt 0.704660 0.516092
vt 0.970304 0.403829
vt 0.750017 0.516884
vt 0.618892 0.516092
vt 0.920230 0.404231
vt 0.273616 0.612878
vt 0.642836 0.516847
vt 0.938584 0.415207
vt 0.924281 0.443436
vt 0.075400 0.489812
vt 0.855524 0.444402
vt 0.531739 0.629156
vt 0.934913 0.435583
vt 0.576828 0.496673
vt 0.931440 0.443424
vt 0.848383 0.444289
vt 0.592622 0.497116
vt 0.934913 0.440184
vt 0.586164 0.496977
vt 0.517161 0.630156
vt 0.920230 0.438606
vt 0.085942 0.490043
vt 0.585376 0.420489
vt 0.510472 0.551446
vt 0.582586 0.444044
vt 0.504260 0.576063
vt 0.581388 0.469636
vt 0.508131 0.602400
vt 0.103684 0.463024
vt 0.477645 0.604263
vt 0.118194 0.440373
vt 0.454885 0.581958
vt 0.129418 0.415411
vt 0.438452 0.557360
vt 0.876897 0.417052
vt 0.081901 0.462161
vt 0.882279 0.393921
vt 0.081653 0.438865
vt 0.880271 0.363315
vt 0.079604 0.408162
vt 0.633117 0.418943
vt 0.615530 0.444447
vt 0.600997 0.469910
vt 0.614559 0.469949
vt 0.862035 0.416811
vt 0.638313 0.444473
vt 0.857648 0.390640
vt 0.666106 0.417503
vt 0.844696 0.362700
vt 0.167770 0.536691
vt 0.914144 0.688660
vt 0.182151 0.561697
vt 0.913298 0.663084
vt 0.189855 0.582503
vt 0.915415 0.641729
vt 0.680787 0.549268
vt 0.966165 0.641681
vt 0.684678 0.573659
vt 0.963812 0.665813
vt 0.684995 0.596421
vt 0.964308 0.688427
vt 0.584794 0.548886
vt 0.729850 0.550060
vt 0.578610 0.572959
vt 0.734888 0.574452
vt 0.569690 0.595426
vt 0.736445 0.597214
vt 0.642060 0.590920
vt 0.247172 0.543053
vt 0.641052 0.570535
vt 0.248998 0.562413
vt 0.635978 0.552556
vt 0.245738 0.579271
s 0
usemtl Material
f 89/203/1 7/19/1 13/32/1 90/205/1
f 8/22/2 7/19/2 89/203/2 58/151/2 54/142/2 53/136/2
f 6/18/3 56/148/3 57/150/3
f 3/8/4 106/231/4 4/9/4 59/153/4 88/202/4
f 6/17/5 107/233/5 5/14/5 60/154/5 1/1/5 105/229/5 2/4/5 56/149/5
f 61/156/6 13/33/6 16/38/6 62/157/6
f 5/16/7 14/35/7 31/77/7 29/72/7
f 88/202/8 1/3/8 10/26/8 91/207/8
f 67/164/9 21/53/9 20/50/9 65/161/9
f 13/32/10 7/19/10 12/30/10 16/39/10
f 3/8/11 9/25/11 11/28/11 15/36/11
f 55/147/12 3/6/12 15/37/12 63/158/12
f 66/162/13 19/48/13 17/40/13 65/160/13
f 23/57/14 22/55/14 17/41/14 19/49/14
f 83/191/15 82/190/15 25/63/15 26/67/15
f 15/36/16 11/28/16 22/55/16 23/57/16
f 62/157/17 16/38/17 21/53/17 67/164/17
f 69/169/18 26/66/18 25/64/18 68/166/18
f 87/200/19 84/193/19 24/60/19 68/165/19
f 86/197/20 83/191/20 26/67/20 69/167/20
f 84/194/21 85/196/21 27/68/21 24/61/21
f 70/170/22 29/73/22 31/78/22 71/172/22
f 70/170/23 28/71/23 34/85/23 73/174/23
f 10/26/24 1/3/24 28/70/24 30/74/24
f 64/159/25 10/27/25 30/75/25 71/171/25
f 34/84/26 32/80/26 36/88/26 38/92/26
f 60/155/27 5/15/27 33/83/27 72/173/27
f 5/16/28 29/72/28 35/86/28 33/82/28
f 28/70/29 1/3/29 32/80/29 34/84/29
f 37/90/30 39/94/30 43/105/30 41/99/30
f 73/174/31 34/85/31 38/93/31 75/176/31
f 33/82/32 35/86/32 39/94/32 37/90/32
f 72/173/33 33/83/33 37/91/33 74/175/33
f 76/178/34 41/100/34 43/106/34 77/180/34
f 74/175/35 37/91/35 41/101/35 76/177/35
f 38/92/36 36/88/36 40/96/36 42/102/36
f 75/176/37 38/93/37 42/103/37 77/179/37
f 102/226/38 97/218/38 51/129/38 81/187/38
f 91/206/39 10/27/39 45/111/39 93/210/39
f 90/204/40 13/33/40 46/114/40 92/208/40
f 61/156/41 9/24/41 44/108/41 78/181/41
f 64/159/42 14/34/42 47/117/42 79/183/42
f 96/216/43 94/213/43 50/126/43 80/186/43
f 101/225/44 99/222/44 48/120/44 80/185/44
f 104/228/45 98/220/45 49/123/45 95/215/45
f 103/227/46 100/224/46 50/127/46 94/212/46
f 8/23/47 53/137/47 52/132/47
f 8/23/48 52/132/48 4/10/48 106/232/48 3/7/48 55/146/48 7/20/48
f 54/142/49 58/151/49 89/203/49 5/16/49 107/234/49 6/18/49 57/150/49
f 100/223/50 101/225/50 80/185/50 50/128/50
f 95/214/51 96/216/51 80/186/51 48/121/51
f 10/27/52 64/159/52 79/183/52 45/111/52
f 13/33/53 61/156/53 78/181/53 46/114/53
f 98/219/54 102/226/54 81/187/54 49/124/54
f 39/95/55 75/176/55 77/179/55 43/107/55
f 36/89/56 74/175/56 76/177/56 40/97/56
f 40/98/57 76/178/57 77/180/57 42/104/57
f 32/81/58 72/173/58 74/175/58 36/89/58
f 35/87/59 73/174/59 75/176/59 39/95/59
f 1/2/60 60/155/60 72/173/60 32/81/60
f 14/34/61 64/159/61 71/171/61 31/79/61
f 29/73/62 70/170/62 73/174/62 35/87/62
f 28/71/63 70/170/63 71/172/63 30/76/63
f 85/196/64 86/198/64 69/168/64 27/68/64
f 82/189/65 87/200/65 68/165/65 25/65/65
f 27/69/66 69/169/66 68/166/66 24/62/66
f 11/29/67 62/157/67 67/164/67 22/56/67
f 18/43/68 66/162/68 65/160/68 20/51/68
f 7/21/69 55/147/69 63/158/69 12/31/69
f 22/56/70 67/164/70 65/161/70 17/42/70
f 9/24/71 61/156/71 62/157/71 11/29/71
f 19/48/72 66/162/72 87/200/72 82/189/72
f 12/30/73 18/44/73 20/52/73 21/54/73 16/39/73
f 66/163/74 18/47/74 84/194/74 87/201/74
f 23/57/75 19/49/75 82/190/75 83/191/75
f 49/125/76 81/188/76 96/216/76 95/214/76
f 97/217/77 103/227/77 94/212/77 51/130/77
f 99/221/78 104/228/78 95/215/78 48/122/78
f 81/188/79 51/131/79 94/213/79 96/216/79
f 14/34/80 90/204/80 92/208/80 47/117/80
f 9/24/81 91/206/81 93/210/81 44/108/81
f 3/8/82 88/202/82 91/207/82 9/25/82
f 5/16/83 89/203/83 90/205/83 14/35/83
f 44/109/84 93/211/84 104/228/84 99/221/84
f 47/118/85 92/209/85 103/227/85 97/217/85
f 45/112/86 79/184/86 102/226/86 98/219/86
f 46/115/87 78/182/87 101/225/87 100/223/87
f 92/209/88 46/116/88 100/224/88 103/227/88
f 93/211/89 45/113/89 98/220/89 104/228/89
f 78/182/90 44/110/90 99/222/90 101/225/90
f 79/184/91 47/119/91 97/218/91 102/226/91
f 59/152/92 4/11/92 52/133/92 53/138/92 54/141/92 108/235/92
f 136/298/93 110/241/93 109/238/93 135/296/93
f 121/271/94 120/269/94 114/253/94 117/261/94
f 139/304/95 111/244/95 110/242/95 136/297/95
f 135/295/96 109/239/96 112/247/96 144/314/96
f 144/313/97 112/248/97 111/245/97 139/303/97
f 111/246/98 112/249/98 109/240/98 110/243/98
f 117/262/99 114/254/99 116/259/99 115/256/99 113/250/99
f 124/277/100 121/270/100 117/263/100 113/251/100
f 120/268/101 129/284/101 116/260/101 114/255/101
f 130/286/102 124/276/102 113/252/102 115/257/102
f 129/284/103 130/285/103 115/258/103 116/260/103
f 57/150/104 56/148/104 132/289/104 127/282/104
f 127/282/105 132/289/105 131/287/105 128/283/105
f 128/283/106 131/287/106 130/285/106 129/284/106
f 56/149/107 2/4/107 126/280/107 132/290/107
f 132/290/108 126/280/108 125/278/108 131/288/108
f 131/288/109 125/278/109 124/276/109 130/286/109
f 54/142/110 57/150/110 127/282/110 118/264/110
f 118/264/111 127/282/111 128/283/111 119/266/111
f 119/266/112 128/283/112 129/284/112 120/268/112
f 2/5/113 108/237/113 123/274/113 126/281/113
f 126/281/114 123/274/114 122/272/114 125/279/114
f 125/279/115 122/272/115 121/270/115 124/277/115
f 108/236/116 54/143/116 118/265/116 123/275/116
f 123/275/117 118/265/117 119/267/117 122/273/117
f 122/273/118 119/267/118 120/269/118 121/271/118
f 54/144/119 142/309/119 141/307/119 53/139/119
f 142/309/120 143/311/120 140/305/120 141/307/120
f 143/311/121 144/313/121 139/303/121 140/305/121
f 4/12/122 133/291/122 142/310/122 54/145/122
f 133/291/123 134/293/123 143/312/123 142/310/123
f 134/293/124 135/295/124 144/314/124 143/312/124
f 53/140/125 141/308/125 138/301/125 52/134/125
f 141/308/126 140/306/126 137/299/126 138/301/126
f 140/306/127 139/304/127 136/297/127 137/299/127
f 52/135/128 138/302/128 133/292/128 4/13/128
f 138/302/129 137/300/129 134/294/129 133/292/129
f 137/300/130 136/298/130 135/296/130 134/294/130
f 105/230/131 1/3/131 88/202/131 59/153/131 108/237/131 2/5/131
f 86/199/132 85/195/132 83/192/132
f 83/192/133 85/195/133 18/45/133 23/58/133
f 63/158/134 15/37/134 23/59/134 18/46/134 12/31/134
f 84/194/135 18/47/135 85/196/135
l 52 106
