# Blender 3.3.1
# www.blender.org
mtllib monstruo_3_caminar547.mtl
o monstruo_grande
v 0.589688 1.915838 0.423567
v 0.524304 1.095423 0.082847
v -0.567060 1.875489 0.149866
v -0.292925 1.220813 0.224064
v 0.907809 2.149940 0.157465
v 0.650011 1.519374 -0.220913
v -0.611241 2.091830 -0.291281
v -0.601806 1.773332 -0.341481
v -0.125144 2.409064 0.469664
v 0.398722 2.230975 0.529548
v -0.274144 2.397326 0.552737
v -0.941502 2.189721 -0.214607
v -0.050214 2.575815 0.122320
v 0.476612 2.348869 0.262010
v -0.835304 2.041507 -0.033963
v -0.199253 2.673437 0.128583
v -0.644678 2.363551 0.504210
v -1.275685 2.132413 -0.021666
v -1.041334 2.146746 0.227412
v -0.735175 2.705669 0.225875
v -0.380880 2.739809 0.174223
v -0.357117 2.363518 0.515996
v -0.960196 2.072240 -0.067695
v -1.767387 0.875082 0.538953
v -1.653774 0.847126 0.607370
v -1.603840 0.680402 0.404016
v -1.673186 0.697466 0.362256
v 0.510934 2.134800 0.550765
v 0.729479 2.296172 0.355777
v 0.503241 2.246534 0.547176
v 0.598874 2.356182 0.331930
v 0.782826 1.852437 0.578568
v 0.993798 1.861659 0.516367
v 0.793521 1.913615 0.604580
v 0.949058 1.998494 0.511638
v 0.867054 1.719027 0.840076
v 0.979041 1.696787 0.810104
v 0.905826 1.773697 0.922622
v 1.012790 1.751148 0.887739
v 0.838007 1.672351 0.986876
v 1.061464 1.626877 0.916795
v 0.849414 1.763057 1.161480
v 1.185262 1.689034 1.051916
v 0.042411 2.432254 0.514039
v 0.246645 2.382962 0.517014
v 0.080740 2.532427 0.269173
v 0.279779 2.474906 0.273695
v 0.097908 2.740915 0.656758
v 0.303192 2.667713 0.636479
v 0.110852 2.847524 0.400410
v 0.316848 2.773795 0.379928
v -0.499130 1.219696 0.025662
v -0.391553 1.197293 -0.190041
v -0.035871 1.280676 -0.332404
v -0.602501 1.921022 -0.080781
v 0.539735 1.141229 -0.154383
v 0.322348 1.167325 -0.273088
v 0.073242 1.518505 -0.316595
v -0.031327 1.130595 0.198620
v 0.705589 1.978175 0.344015
v -0.092018 2.467027 0.348071
v -0.234084 2.647293 0.396909
v -0.758349 2.102189 -0.126756
v 0.421685 2.352005 0.419442
v -0.629891 2.591492 0.469454
v -1.207371 2.266068 0.241140
v -0.386374 2.655939 0.370838
v -1.727768 0.858969 0.600831
v -1.604230 0.578014 0.280881
v 0.633599 2.234726 0.496522
v 0.556582 2.347901 0.461462
v 0.872847 1.813845 0.517159
v 0.886904 1.973637 0.608188
v 0.921083 1.707196 0.822936
v 0.959473 1.761873 0.905120
v 0.940975 1.632874 0.935572
v 1.000927 1.696100 1.076627
v 0.059918 2.482297 0.390285
v 0.260704 2.430166 0.394009
v 0.072893 2.796659 0.528168
v 0.341087 2.718498 0.508884
v -1.510360 1.168730 0.593631
v -1.560925 1.000541 0.507984
v -1.707868 1.187816 0.475787
v -1.667861 1.026854 0.443588
v -1.605367 0.850671 0.394182
v -1.642013 1.157398 0.580371
v 0.030433 1.747668 0.515241
v 0.336992 2.081992 -0.169700
v 0.300281 2.476443 0.096638
v 0.128554 2.265151 0.641511
v 0.174174 2.504211 0.269435
v 0.150706 2.408214 0.514568
v 0.216083 2.826607 0.351451
v 0.198644 2.688334 0.685007
v 0.210506 2.808678 0.540005
v 0.312625 2.635629 0.302840
v 0.292550 2.517347 0.595308
v 0.056227 2.577828 0.607794
v 0.075362 2.699385 0.313488
v 0.047981 2.639981 0.460291
v 0.317149 2.576116 0.448892
v 0.194181 2.675877 0.287516
v 0.173581 2.539088 0.621467
v 0.644588 1.570750 0.093521
v -0.532973 1.587231 0.182928
v 0.748446 1.709316 -0.157540
v 0.164988 1.079623 0.200039
v -0.286876 0.080903 0.031707
v -0.420762 0.088635 0.165609
v -0.466198 0.100228 -0.081470
v -0.333098 0.089394 -0.107516
v 0.311279 -0.066826 -0.030998
v 0.237797 -0.079315 -0.106325
v 0.320619 -0.071018 -0.069258
v 0.289088 -0.076253 -0.095197
v 0.252230 -0.067871 -0.020628
v 0.071396 0.820959 -0.140703
v 0.142381 0.555178 -0.093880
v 0.178580 0.251854 -0.084640
v 0.203774 0.216843 0.092109
v 0.184300 0.458648 0.181625
v 0.191313 0.731696 0.237387
v 0.326975 0.217349 0.072982
v 0.392756 0.464687 0.150544
v 0.479321 0.796481 0.175408
v 0.327117 0.832823 -0.119544
v 0.320388 0.544082 -0.057380
v 0.284414 0.244771 -0.060311
v 0.348579 0.233305 -0.005137
v 0.429780 0.527129 0.031383
v 0.498904 0.834033 -0.012659
v -0.186982 0.963558 0.363190
v -0.192892 0.656572 0.324141
v -0.211653 0.411018 0.296624
v -0.496270 0.426299 0.285280
v -0.480897 0.705134 0.270849
v -0.478556 0.963928 0.248807
v -0.525860 0.467880 0.018131
v -0.508090 0.741531 0.006017
v -0.500967 0.941828 -0.025474
v -0.111509 0.864086 -0.057290
v -0.168188 0.688512 -0.035230
v -0.231052 0.484888 -0.012462
vn 0.1080 0.5674 -0.8163
vn 0.0269 0.0563 -0.9980
vn 0.4346 -0.2775 -0.8568
vn -0.3772 -0.2081 0.9025
vn 0.8954 -0.3839 0.2257
vn 0.6892 0.6647 0.2884
vn 0.3307 0.8472 -0.4158
vn 0.2670 -0.2312 0.9355
vn -0.0445 0.9072 0.4183
vn 0.0786 0.5463 -0.8339
vn -0.3601 -0.4350 0.8253
vn -0.4854 -0.8103 -0.3284
vn -0.4032 -0.1207 0.9071
vn 0.1209 -0.9099 0.3968
vn 0.8840 -0.3063 0.3531
vn -0.1982 -0.7609 0.6179
vn 0.2262 0.9433 0.2428
vn -0.1346 -0.7746 0.6180
vn -0.7800 0.2631 0.5678
vn 0.9829 -0.0018 -0.1840
vn -0.7604 0.0950 -0.6425
vn 0.4955 0.7456 0.4457
vn -0.0102 0.3143 0.9493
vn -0.4994 -0.4148 0.7606
vn -0.2067 0.6856 0.6981
vn -0.9340 0.0708 0.3501
vn 0.1068 -0.7316 -0.6733
vn 0.8220 0.5519 0.1403
vn -0.5800 -0.4948 0.6471
vn 0.7550 0.1463 -0.6392
vn -0.2177 0.8176 0.5330
vn 0.9972 0.0689 -0.0305
vn 0.1559 -0.8965 -0.4147
vn 0.0183 -0.9149 0.4032
vn -0.1651 -0.8577 -0.4870
vn -0.8578 0.5007 -0.1157
vn 0.4297 0.8847 0.1804
vn 0.9919 -0.0406 -0.1207
vn 0.3213 0.5166 0.7936
vn 0.2782 0.9596 0.0427
vn -0.2067 0.9105 0.3582
vn 0.4723 0.8446 0.2523
vn 0.0694 0.9728 0.2211
vn -0.9745 0.1384 0.1765
vn 0.2378 -0.3456 0.9077
vn -0.1942 0.4715 -0.8602
vn -0.8349 -0.4032 -0.3745
vn -0.9665 -0.1638 0.1975
vn 0.2437 0.2031 -0.9484
vn -0.9589 0.2541 -0.1262
vn 0.0525 0.8409 0.5387
vn 0.4405 0.6933 0.5703
vn -0.1674 0.9074 0.3855
vn 0.9735 -0.1684 0.1547
vn 0.1216 0.9509 0.2847
vn -0.4359 -0.8096 -0.3930
vn -0.1236 -0.8806 0.4574
vn -0.4422 -0.8584 -0.2600
vn 0.3677 0.8012 0.4721
vn -0.1828 -0.8903 -0.4171
vn -0.0177 0.9998 0.0119
vn 0.4778 0.6741 0.5633
vn 0.3693 0.2908 0.8826
vn -0.2432 0.2999 -0.9224
vn -0.0952 0.0899 0.9914
vn -0.7363 -0.6265 0.2556
vn -0.2742 0.4708 0.8385
vn -0.6642 0.7203 0.2000
vn -0.4787 -0.7923 -0.3782
vn 0.1136 0.3275 0.9380
vn 0.5751 0.4679 0.6711
vn 0.1025 0.2785 0.9550
vn -0.2460 0.6677 -0.7026
vn -0.8732 0.4474 0.1932
vn 0.8970 -0.3365 0.2865
vn 0.5018 0.6884 0.5237
vn 0.3363 0.3884 -0.8579
vn -0.2893 -0.2691 0.9186
vn 0.5201 0.8385 0.1628
vn 0.4572 0.8873 0.0606
vn -0.1317 0.5574 0.8197
vn -0.5486 -0.0716 0.8330
vn 0.4322 0.6978 -0.5712
vn -0.2056 -0.5568 0.8048
vn 0.1235 0.1203 -0.9850
vn 0.9394 -0.3429 -0.0001
vn -0.9848 0.0086 -0.1737
vn -0.0739 0.1838 -0.9802
vn -0.0330 -0.5664 0.8235
vn -0.9995 0.0201 -0.0258
vn 0.9626 -0.2661 -0.0516
vn -0.0942 -0.9867 -0.1326
vn 0.2208 -0.4867 0.8452
vn -0.9717 -0.1980 0.1289
vn -0.9678 -0.2222 0.1182
vn 0.9734 -0.1532 -0.1706
vn -0.1306 0.2518 -0.9589
vn -0.0878 -0.9957 -0.0309
vn 0.0400 -0.9909 0.1284
vn 0.1529 -0.3441 0.9264
vn 0.2215 0.1058 -0.9694
vn 0.9603 -0.1401 0.2412
vn 0.6472 0.0956 -0.7563
vn 0.4416 -0.3954 -0.8054
vn 0.5498 -0.2140 -0.8074
vn 0.6296 -0.0729 -0.7735
vn 0.9913 -0.1177 0.0585
vn 0.9671 -0.2327 0.1025
vn 0.9426 -0.2907 0.1646
vn 0.0557 -0.3914 -0.9185
vn 0.1300 -0.1767 -0.9756
vn 0.2089 -0.0102 -0.9779
vn 0.2408 0.1844 0.9529
vn 0.2039 -0.1603 0.9658
vn 0.1476 -0.3322 0.9316
vn -0.9476 -0.0682 0.3121
vn -0.9712 -0.1187 0.2067
vn -0.9867 -0.1173 0.1123
vn -0.1936 -0.4992 -0.8446
vn -0.1202 -0.1200 -0.9855
vn -0.1153 -0.0530 -0.9919
vn 0.9243 0.2292 0.3053
vn 0.9816 -0.1322 0.1375
vn 0.9837 -0.1785 -0.0205
vn -0.9839 0.0386 -0.1745
vn -0.9952 0.0313 0.0924
vn -0.9912 0.0650 0.1153
vn -0.4826 0.4227 0.7671
vn -0.2798 -0.0248 0.9598
vn -0.1141 -0.0174 0.9933
vn 0.3421 -0.3852 0.8571
vn 0.5431 0.3997 -0.7385
vn -0.0452 -0.4140 -0.9091
vn -0.1533 -0.7686 -0.6211
vn -0.7167 -0.0388 -0.6963
vt 0.461701 0.809397
vt 0.301930 0.729761
vt 0.094158 0.499911
vt 0.498737 0.648456
vt 0.250869 0.553264
vt 0.714874 0.752530
vt 0.627854 0.740386
vt 0.227533 0.339544
vt 0.300362 0.438253
vt 0.625828 0.633709
vt 0.338991 0.679376
vt 0.653754 0.621457
vt 0.189641 0.785401
vt 0.531284 0.815038
vt 0.232114 0.729761
vt 0.806952 0.326283
vt 0.527824 0.712310
vt 0.703640 0.331352
vt 0.725736 0.123548
vt 0.557184 0.740386
vt 0.714874 0.681901
vt 0.693091 0.138725
vt 0.558638 0.706064
vt 0.944491 0.391302
vt 0.108931 0.369345
vt 0.090202 0.443431
vt 0.952837 0.467016
vt 0.108059 0.346292
vt 0.960024 0.371234
vt 0.653754 0.712739
vt 0.761990 0.055860
vt 0.265996 0.788213
vt 0.829683 0.188590
vt 0.886815 0.394232
vt 0.909606 0.471204
vt 0.826550 0.267021
vt 0.659457 0.749480
vt 0.206417 0.267620
vt 0.238389 0.812575
vt 0.882743 0.373659
vt 0.837846 0.166681
vt 0.102618 0.289588
vt 0.957957 0.321520
vt 0.918648 0.216117
vt 0.803322 0.012950
vt 0.106348 0.638847
vt 0.232551 0.755661
vt 0.798789 0.485160
vt 0.965752 0.239402
vt 0.153968 0.222285
vt 0.894228 0.312474
vt 0.856067 0.102710
vt 0.881967 0.351902
vt 0.842627 0.144082
vt 0.107159 0.331692
vt 0.958812 0.358201
vt 0.199778 0.246429
vt 0.138792 0.619338
vt 0.232114 0.797406
vt 0.967580 0.012950
vt 0.753483 0.682459
vt 0.843831 0.469074
vt 0.256421 0.022764
vt 0.824689 0.472884
vt 0.987050 0.016155
vt 0.832147 0.505580
vt 0.295109 0.018166
vt 0.782932 0.707368
vt 0.843831 0.503254
vt 0.076417 0.467161
vt 0.958695 0.494573
vt 0.833773 0.298242
vt 0.909847 0.503107
vt 0.076958 0.454690
vt 0.951531 0.482650
vt 0.837149 0.281767
vt 0.912926 0.487172
vt 0.064432 0.532285
vt 0.298790 0.687460
vt 0.825577 0.362572
vt 0.264894 0.686125
vt 0.056614 0.518895
vt 0.959622 0.549977
vt 0.837123 0.350740
vt 0.929664 0.555276
vt 0.051257 0.577890
vt 0.291936 0.641182
vt 0.824256 0.407314
vt 0.275162 0.640522
vt 0.035793 0.577862
vt 0.964581 0.612577
vt 0.838997 0.411720
vt 0.948088 0.615681
vt 0.039898 0.592711
vt 0.301778 0.620707
vt 0.403076 0.772170
vt 0.830596 0.428615
vt 0.403076 0.737417
vt 0.267017 0.619338
vt 0.012950 0.593438
vt 0.987050 0.637067
vt 0.428919 0.781443
vt 0.856067 0.440612
vt 0.428919 0.728949
vt 0.935424 0.646785
vt 0.945356 0.412724
vt 0.357115 0.854737
vt 0.331665 0.779032
vt 0.948027 0.441601
vt 0.799629 0.752473
vt 0.327972 0.853161
vt 0.906904 0.416128
vt 0.370069 0.779032
vt 0.684668 0.778429
vt 0.909575 0.445005
vt 0.655249 0.778999
vt 0.799629 0.791035
vt 0.330193 0.729131
vt 0.557184 0.775635
vt 0.363063 0.804932
vt 0.331684 0.807874
vt 0.754247 0.751428
vt 0.586563 0.768755
vt 0.566112 0.815056
vt 0.689281 0.828405
vt 0.370405 0.729131
vt 0.754247 0.791805
vt 0.657717 0.824383
vt 0.595492 0.808176
vt 0.327830 0.637821
vt 0.590400 0.642651
vt 0.164818 0.789976
vt 0.357235 0.619338
vt 0.642851 0.190721
vt 0.562581 0.649581
vt 0.406824 0.626953
vt 0.080449 0.619338
vt 0.646201 0.239681
vt 0.727583 0.656002
vt 0.597847 0.731399
vt 0.712829 0.722239
vt 0.658284 0.323708
vt 0.527919 0.666449
vt 0.661748 0.291537
vt 0.680225 0.245582
vt 0.377645 0.696957
vt 0.285191 0.477898
vt 0.483372 0.812325
vt 0.280072 0.728266
vt 0.924330 0.393087
vt 0.921760 0.373660
vt 0.678504 0.727397
vt 0.268491 0.812575
vt 0.930826 0.465310
vt 0.923786 0.327561
vt 0.941993 0.227167
vt 0.764056 0.466512
vt 0.919524 0.351927
vt 0.977463 0.013354
vt 0.833186 0.466512
vt 0.317617 0.012950
vt 0.798789 0.722800
vt 0.839639 0.522681
vt 0.934403 0.500152
vt 0.932138 0.484309
vt 0.281656 0.689101
vt 0.944784 0.554368
vt 0.283549 0.640852
vt 0.956335 0.614129
vt 0.284323 0.620942
vt 0.399765 0.754789
vt 0.961112 0.640376
vt 0.422297 0.755187
vt 0.926130 0.414426
vt 0.350867 0.779032
vt 0.928801 0.443303
vt 0.799629 0.771754
vt 0.350773 0.728949
vt 0.557184 0.796361
vt 0.753483 0.771844
vt 0.595492 0.787450
vt 0.985581 0.067358
vt 0.238180 0.070710
vt 0.259592 0.052321
vt 0.138792 0.821791
vt 0.953366 0.057503
vt 0.765454 0.639660
vt 0.120235 0.821584
vt 0.772730 0.660154
vt 0.283154 0.037949
vt 0.784440 0.682652
vt 0.128680 0.843910
vt 0.970110 0.058056
vt 0.758353 0.637393
vt 0.180368 0.432154
vt 0.759258 0.257498
vt 0.884976 0.446549
vt 0.828099 0.241547
vt 0.971226 0.428512
vt 0.101516 0.405509
vt 0.908240 0.430567
vt 0.669958 0.778714
vt 0.946692 0.427163
vt 0.342544 0.853949
vt 0.673120 0.826722
vt 0.582140 0.817526
vt 0.570535 0.766286
vt 0.348248 0.806122
vt 0.576699 0.792002
vt 0.653753 0.802281
vt 0.776512 0.794925
vt 0.776512 0.748700
vt 0.327830 0.829868
vt 0.363063 0.830170
vt 0.327830 0.753980
vt 0.373865 0.753980
vt 0.689281 0.803194
vt 0.351093 0.753886
vt 0.776117 0.771930
vt 0.671321 0.802907
vt 0.345899 0.829874
vt 0.457498 0.727404
vt 0.165986 0.548054
vt 0.260364 0.376248
vt 0.625887 0.695531
vt 0.520555 0.743605
vt 0.734596 0.339638
vt 0.406824 0.703049
vt 0.012950 0.651015
vt 0.277407 0.507014
vt 0.206214 0.619338
vt 0.706517 0.466512
vt 0.399765 0.822801
vt 0.181517 0.620770
vt 0.619265 0.470337
vt 0.422433 0.807343
vt 0.582936 0.466512
vt 0.458892 0.202188
vt 0.422433 0.843958
vt 0.727583 0.468029
vt 0.460639 0.221880
vt 0.402692 0.843997
vt 0.717439 0.778459
vt 0.429089 0.593438
vt 0.518160 0.466685
vt 0.070962 0.817001
vt 0.726094 0.791097
vt 0.457498 0.298878
vt 0.715181 0.783741
vt 0.523936 0.466512
vt 0.458951 0.311476
vt 0.719061 0.788282
vt 0.458165 0.306435
vt 0.058766 0.817583
vt 0.726094 0.778429
vt 0.431598 0.585369
vt 0.599953 0.261833
vt 0.080449 0.668491
vt 0.542336 0.274386
vt 0.076079 0.728305
vt 0.500395 0.287212
vt 0.064936 0.773359
vt 0.389801 0.564275
vt 0.039540 0.774208
vt 0.356388 0.547019
vt 0.031995 0.737396
vt 0.319737 0.531779
vt 0.030523 0.696843
vt 0.505723 0.512116
vt 0.384015 0.580847
vt 0.506522 0.550736
vt 0.346302 0.574833
vt 0.507607 0.604105
vt 0.294291 0.566034
vt 0.610540 0.298468
vt 0.545535 0.300686
vt 0.502363 0.302883
vt 0.504402 0.313331
vt 0.517745 0.511765
vt 0.548610 0.318269
vt 0.527842 0.556627
vt 0.609940 0.323717
vt 0.531284 0.618364
vt 0.660591 0.582499
vt 0.204501 0.743892
vt 0.668589 0.550878
vt 0.206214 0.710848
vt 0.668004 0.517120
vt 0.204545 0.678125
vt 0.623877 0.525891
vt 0.164692 0.675333
vt 0.610236 0.563455
vt 0.167167 0.712219
vt 0.605277 0.597358
vt 0.166352 0.745757
vt 0.511839 0.183186
vt 0.584607 0.521652
vt 0.552303 0.182624
vt 0.569857 0.561129
vt 0.598009 0.178631
vt 0.565182 0.606784
vt 0.592158 0.236754
vt 0.721184 0.600612
vt 0.550092 0.232946
vt 0.722606 0.558204
vt 0.518921 0.225772
vt 0.713819 0.525134
s 0
usemtl Material
f 89/196/1 7/19/1 13/33/1 90/198/1
f 8/22/2 7/19/2 89/196/2 58/145/2 54/138/2 53/134/2
f 6/18/3 56/142/3 57/144/3
f 3/8/4 106/224/4 4/9/4 59/147/4 88/195/4
f 6/17/5 107/226/5 5/14/5 60/148/5 1/1/5 105/222/5 2/4/5 56/143/5
f 61/150/6 13/34/6 16/40/6 62/151/6
f 5/16/7 14/36/7 31/76/7 29/72/7
f 88/195/8 1/3/8 10/26/8 91/200/8
f 67/158/9 21/53/9 20/51/9 65/155/9
f 13/33/10 7/19/10 12/31/10 16/41/10
f 3/8/11 9/25/11 11/28/11 15/38/11
f 55/141/12 3/6/12 15/37/12 63/152/12
f 66/156/13 19/49/13 17/43/13 65/155/13
f 23/57/14 22/55/14 17/42/14 19/50/14
f 83/184/15 82/183/15 25/63/15 26/67/15
f 15/38/16 11/28/16 22/55/16 23/57/16
f 62/151/17 16/40/17 21/53/17 67/158/17
f 69/163/18 26/66/18 25/64/18 68/160/18
f 87/193/19 84/186/19 24/60/19 68/159/19
f 86/190/20 83/184/20 26/67/20 69/161/20
f 84/187/21 85/189/21 27/68/21 24/61/21
f 70/164/22 29/73/22 31/77/22 71/165/22
f 70/164/23 28/71/23 34/83/23 73/167/23
f 10/26/24 1/3/24 28/70/24 30/74/24
f 64/154/25 10/27/25 30/75/25 71/165/25
f 34/82/26 32/78/26 36/86/26 38/90/26
f 60/149/27 5/15/27 33/81/27 72/166/27
f 5/16/28 29/72/28 35/84/28 33/80/28
f 28/70/29 1/3/29 32/78/29 34/82/29
f 37/88/30 39/92/30 43/103/30 41/97/30
f 73/167/31 34/83/31 38/91/31 75/169/31
f 33/80/32 35/84/32 39/92/32 37/88/32
f 72/166/33 33/81/33 37/89/33 74/168/33
f 76/171/34 41/98/34 43/104/34 77/173/34
f 74/168/35 37/89/35 41/99/35 76/170/35
f 38/90/36 36/86/36 40/94/36 42/100/36
f 75/169/37 38/91/37 42/101/37 77/172/37
f 102/219/38 97/211/38 51/127/38 81/180/38
f 91/199/39 10/27/39 45/109/39 93/203/39
f 90/197/40 13/34/40 46/112/40 92/201/40
f 61/150/41 9/24/41 44/106/41 78/174/41
f 64/154/42 14/35/42 47/115/42 79/176/42
f 96/209/43 94/206/43 50/124/43 80/179/43
f 101/218/44 99/215/44 48/118/44 80/178/44
f 104/221/45 98/213/45 49/121/45 95/208/45
f 103/220/46 100/217/46 50/125/46 94/205/46
f 8/23/47 53/135/47 52/131/47
f 8/23/48 52/131/48 4/10/48 106/225/48 3/7/48 55/140/48 7/20/48
f 54/138/49 58/145/49 89/196/49 5/16/49 107/227/49 6/18/49 57/144/49
f 100/216/50 101/218/50 80/178/50 50/126/50
f 95/207/51 96/209/51 80/179/51 48/119/51
f 10/27/52 64/154/52 79/176/52 45/109/52
f 13/34/53 61/150/53 78/174/53 46/112/53
f 98/212/54 102/219/54 81/180/54 49/122/54
f 39/93/55 75/169/55 77/172/55 43/105/55
f 36/87/56 74/168/56 76/170/56 40/95/56
f 40/96/57 76/171/57 77/173/57 42/102/57
f 32/79/58 72/166/58 74/168/58 36/87/58
f 35/85/59 73/167/59 75/169/59 39/93/59
f 1/2/60 60/149/60 72/166/60 32/79/60
f 14/35/61 64/154/61 71/165/61 31/77/61
f 29/73/62 70/164/62 73/167/62 35/85/62
f 28/71/63 70/164/63 71/165/63 30/75/63
f 85/189/64 86/191/64 69/162/64 27/68/64
f 82/182/65 87/193/65 68/159/65 25/65/65
f 27/69/66 69/163/66 68/160/66 24/62/66
f 11/29/67 62/151/67 67/158/67 22/56/67
f 18/44/68 66/156/68 65/155/68 20/51/68
f 7/21/69 55/141/69 63/152/69 12/30/69
f 22/56/70 67/158/70 65/155/70 17/43/70
f 9/24/71 61/150/71 62/151/71 11/29/71
f 19/49/72 66/156/72 87/193/72 82/182/72
f 12/31/73 18/45/73 20/52/73 21/54/73 16/41/73
f 66/157/74 18/48/74 84/187/74 87/194/74
f 23/57/75 19/50/75 82/183/75 83/184/75
f 49/123/76 81/181/76 96/209/76 95/207/76
f 97/210/77 103/220/77 94/205/77 51/128/77
f 99/214/78 104/221/78 95/208/78 48/120/78
f 81/181/79 51/129/79 94/206/79 96/209/79
f 14/35/80 90/197/80 92/201/80 47/115/80
f 9/24/81 91/199/81 93/203/81 44/106/81
f 3/8/82 88/195/82 91/200/82 9/25/82
f 5/16/83 89/196/83 90/198/83 14/36/83
f 44/107/84 93/204/84 104/221/84 99/214/84
f 47/116/85 92/202/85 103/220/85 97/210/85
f 45/110/86 79/177/86 102/219/86 98/212/86
f 46/113/87 78/175/87 101/218/87 100/216/87
f 92/202/88 46/114/88 100/217/88 103/220/88
f 93/204/89 45/111/89 98/213/89 104/221/89
f 78/175/90 44/108/90 99/215/90 101/218/90
f 79/177/91 47/117/91 97/211/91 102/219/91
f 59/146/92 4/11/92 52/130/92 53/133/92 54/136/92 108/228/92
f 136/291/93 110/234/93 109/231/93 135/289/93
f 121/264/94 120/262/94 114/246/94 117/254/94
f 139/297/95 111/237/95 110/235/95 136/290/95
f 135/288/96 109/232/96 112/240/96 144/307/96
f 144/306/97 112/241/97 111/238/97 139/296/97
f 111/239/98 112/242/98 109/233/98 110/236/98
f 117/255/99 114/247/99 116/252/99 115/249/99 113/243/99
f 124/270/100 121/263/100 117/256/100 113/244/100
f 120/261/101 129/277/101 116/253/101 114/248/101
f 130/279/102 124/269/102 113/245/102 115/250/102
f 129/277/103 130/278/103 115/251/103 116/253/103
f 57/144/104 56/142/104 132/282/104 127/275/104
f 127/275/105 132/282/105 131/280/105 128/276/105
f 128/276/106 131/280/106 130/278/106 129/277/106
f 56/143/107 2/4/107 126/273/107 132/283/107
f 132/283/108 126/273/108 125/271/108 131/281/108
f 131/281/109 125/271/109 124/269/109 130/279/109
f 54/138/110 57/144/110 127/275/110 118/257/110
f 118/257/111 127/275/111 128/276/111 119/259/111
f 119/259/112 128/276/112 129/277/112 120/261/112
f 2/5/113 108/230/113 123/267/113 126/274/113
f 126/274/114 123/267/114 122/265/114 125/272/114
f 125/272/115 122/265/115 121/263/115 124/270/115
f 108/229/116 54/137/116 118/258/116 123/268/116
f 123/268/117 118/258/117 119/260/117 122/266/117
f 122/266/118 119/260/118 120/262/118 121/264/118
f 54/138/119 142/302/119 141/300/119 53/134/119
f 142/302/120 143/304/120 140/298/120 141/300/120
f 143/304/121 144/306/121 139/296/121 140/298/121
f 4/12/122 133/284/122 142/303/122 54/139/122
f 133/284/123 134/286/123 143/305/123 142/303/123
f 134/286/124 135/288/124 144/307/124 143/305/124
f 53/135/125 141/301/125 138/294/125 52/131/125
f 141/301/126 140/299/126 137/292/126 138/294/126
f 140/299/127 139/297/127 136/290/127 137/292/127
f 52/132/128 138/295/128 133/285/128 4/13/128
f 138/295/129 137/293/129 134/287/129 133/285/129
f 137/293/130 136/291/130 135/289/130 134/287/130
f 105/223/131 1/3/131 88/195/131 59/147/131 108/230/131 2/5/131
f 86/192/132 85/188/132 83/185/132
f 83/185/133 85/188/133 18/46/133 23/58/133
f 63/153/134 15/39/134 23/59/134 18/47/134 12/32/134
f 84/187/135 18/48/135 85/189/135
l 52 106
