# Blender 3.3.1
# www.blender.org
mtllib monstruo_3_grande_caminar629.mtl
o monstruo_grande
v 0.365332 2.017459 0.238740
v 0.514820 1.189594 0.119520
v -0.725838 1.736410 0.206217
v -0.301364 1.090755 0.196969
v 0.501518 2.312436 -0.106918
v 0.536198 1.600327 -0.224819
v -0.865644 1.964431 -0.196193
v -0.753720 1.695832 -0.272287
v -0.340187 2.375898 0.499819
v 0.217878 2.287124 0.446688
v -0.467557 2.339354 0.602605
v -1.233592 1.999754 -0.018061
v -0.348655 2.549621 0.144603
v 0.203566 2.433094 0.189521
v -1.071927 1.865021 0.125695
v -0.512267 2.618192 0.176126
v -0.811191 2.244745 0.634139
v -1.507595 1.913516 0.268956
v -1.218140 1.951427 0.457937
v -1.014806 2.561184 0.386741
v -0.694412 2.652061 0.255280
v -0.540727 2.292897 0.579915
v -1.202757 1.881310 0.139158
v -1.773201 0.637912 0.928828
v -1.644747 0.616022 0.966117
v -1.640778 0.447967 0.757827
v -1.719183 0.461328 0.735066
v 0.377974 2.207500 0.423607
v 0.461856 2.409908 0.166006
v 0.331924 2.319379 0.439389
v 0.334965 2.458242 0.215190
v 0.619672 1.907882 0.216407
v 0.724694 2.006447 0.037501
v 0.640178 1.985946 0.264859
v 0.710546 2.107069 0.112504
v 0.806481 1.690083 0.158434
v 0.877228 1.725709 0.075167
v 0.892586 1.660517 0.212178
v 0.959735 1.704551 0.129055
v 0.832686 1.538805 0.187737
v 0.975702 1.628435 0.017583
v 0.948598 1.445512 0.316986
v 1.158030 1.578437 0.054788
v -0.178049 2.431371 0.515588
v 0.031811 2.405458 0.495278
v -0.182805 2.535529 0.269492
v 0.020337 2.509966 0.253377
v -0.122589 2.743898 0.661913
v 0.082532 2.679718 0.620463
v -0.137877 2.858900 0.409337
v 0.066381 2.795136 0.367507
v -0.503587 1.138902 -0.020023
v -0.384544 1.194854 -0.224883
v -0.045467 1.279793 -0.333987
v -0.786856 1.785035 -0.008201
v 0.554970 1.186027 -0.116795
v 0.343665 1.184770 -0.256762
v -0.007135 1.528530 -0.321036
v -0.024324 1.142557 0.184464
v 0.412976 2.105777 0.121669
v -0.336788 2.437547 0.375244
v -0.499098 2.590107 0.447947
v -1.010070 1.938181 0.004190
v 0.188875 2.416013 0.349986
v -0.845768 2.472135 0.598414
v -1.392512 2.051328 0.510538
v -0.651308 2.571639 0.446608
v -1.718422 0.624599 0.978628
v -1.667890 0.343475 0.639539
v 0.457279 2.320596 0.323231
v 0.334685 2.433512 0.350735
v 0.628599 1.936983 0.090052
v 0.716611 2.058578 0.218510
v 0.840343 1.710673 0.116630
v 0.926039 1.681749 0.170296
v 0.883734 1.585371 0.087643
v 1.016756 1.517103 0.159286
v -0.180622 2.483217 0.391606
v 0.024624 2.458604 0.373776
v -0.161436 2.802616 0.538173
v 0.105939 2.736366 0.491773
v -1.524381 0.943122 0.914126
v -1.587398 0.771440 0.845323
v -1.746137 0.951308 0.850172
v -1.708304 0.792043 0.810224
v -1.652516 0.617815 0.747619
v -1.654406 0.925983 0.935022
v -0.069060 1.755195 0.518821
v 0.058930 2.140568 -0.187095
v 0.014564 2.516411 0.072963
v -0.019071 2.265301 0.628226
v -0.083109 2.522043 0.259902
v -0.069201 2.418376 0.504604
v -0.038266 2.844049 0.350229
v -0.017783 2.694560 0.679006
v -0.023863 2.819801 0.537844
v 0.057042 2.662004 0.285977
v 0.072742 2.532015 0.575082
v -0.163194 2.580471 0.611235
v -0.181135 2.710323 0.320139
v -0.188353 2.646367 0.467345
v 0.080356 2.596873 0.429124
v -0.063760 2.694785 0.282748
v -0.043262 2.546577 0.612796
v 0.417862 1.703735 -0.008715
v -0.596944 1.455399 0.218727
v 0.528968 1.819452 -0.221959
v 0.159569 1.179213 0.200054
v -0.229306 0.021801 -0.228853
v -0.377069 0.023075 -0.110541
v -0.395852 0.031227 -0.360449
v -0.260318 0.026956 -0.371564
v 0.305031 0.012267 0.339867
v 0.234835 -0.014265 0.265333
v 0.316086 0.002224 0.303113
v 0.285745 -0.007924 0.277223
v 0.245569 0.011486 0.348248
v 0.087753 0.846402 -0.083507
v 0.123543 0.571212 0.082267
v 0.163213 0.294307 0.212359
v 0.197879 0.328483 0.387554
v 0.178975 0.586254 0.379896
v 0.184279 0.860067 0.327813
v 0.319921 0.321232 0.363101
v 0.384905 0.578315 0.336898
v 0.473301 0.911734 0.258774
v 0.343701 0.873122 -0.045718
v 0.303048 0.574740 0.113855
v 0.270173 0.296334 0.231816
v 0.337248 0.306352 0.283714
v 0.416219 0.591871 0.198707
v 0.506818 0.905576 0.070334
v -0.193309 0.805916 0.230736
v -0.171444 0.535523 0.120185
v -0.173401 0.304989 0.050627
v -0.458739 0.305054 0.034468
v -0.461021 0.576494 0.070044
v -0.477354 0.829230 0.099899
v -0.487463 0.388510 -0.220067
v -0.487084 0.664222 -0.187005
v -0.482949 0.898639 -0.170204
v -0.087668 0.850299 -0.194948
v -0.143932 0.642119 -0.229692
v -0.194198 0.429342 -0.240433
vn -0.1023 0.5630 -0.8201
vn -0.0693 0.1139 -0.9911
vn 0.5431 -0.1887 -0.8182
vn -0.2377 -0.3213 0.9167
vn 0.9385 0.0384 0.3430
vn 0.5920 0.7834 0.1890
vn 0.0468 0.9189 -0.3917
vn 0.6156 -0.2298 0.7538
vn -0.0964 0.8984 0.4285
vn -0.2046 0.5656 -0.7989
vn -0.0631 -0.5292 0.8461
vn -0.3905 -0.8652 -0.3146
vn -0.1573 -0.1508 0.9760
vn 0.3745 -0.8635 0.3378
vn 0.9578 -0.2622 0.1174
vn 0.0860 -0.7734 0.6280
vn 0.0951 0.9717 0.2161
vn 0.0629 -0.7684 0.6368
vn -0.6217 0.2404 0.7455
vn 0.9025 0.0366 -0.4291
vn -0.9025 0.0508 -0.4277
vn 0.5813 0.7549 0.3037
vn 0.5634 0.1668 0.8092
vn -0.1605 -0.5586 0.8138
vn -0.0943 0.5973 0.7965
vn -0.4577 -0.5174 0.7230
vn -0.3740 -0.5270 -0.7632
vn 0.7879 0.5796 -0.2081
vn -0.1451 -0.6393 0.7552
vn 0.3785 0.7887 -0.4844
vn 0.4988 0.2071 0.8416
vn 0.7079 0.3684 -0.6026
vn -0.3668 -0.3716 -0.8529
vn -0.0918 -0.7958 -0.5986
vn -0.6257 -0.0978 -0.7739
vn -0.6138 0.1463 0.7758
vn 0.7178 0.4155 0.5587
vn 0.9731 -0.0029 -0.2302
vn 0.3995 0.5504 0.7331
vn 0.1012 0.9949 0.0049
vn -0.3142 0.8640 0.3935
vn 0.3682 0.9001 0.2330
vn 0.0526 0.9674 0.2477
vn -0.9567 0.0978 0.2743
vn 0.3360 -0.3674 0.8673
vn -0.2935 0.4972 -0.8165
vn -0.6585 -0.5353 -0.5289
vn -0.8796 -0.4421 0.1757
vn 0.1230 0.1242 -0.9846
vn -0.9734 0.2288 -0.0089
vn 0.0706 0.8249 0.5609
vn 0.4419 0.7235 0.5303
vn -0.2676 0.8692 0.4157
vn 0.9888 -0.1404 0.0496
vn 0.5268 0.2892 0.7993
vn -0.7958 -0.2009 -0.5713
vn -0.1752 -0.8618 -0.4760
vn -0.7069 -0.6090 -0.3598
vn 0.8060 0.4591 0.3735
vn -0.4894 -0.7355 -0.4685
vn -0.1629 0.9781 0.1299
vn 0.7491 0.5886 0.3039
vn 0.6363 0.3444 0.6903
vn -0.4838 0.2728 -0.8316
vn 0.1567 0.1034 0.9822
vn -0.6175 -0.6525 0.4393
vn -0.2153 0.4213 0.8810
vn -0.6998 0.6091 0.3732
vn -0.3916 -0.8328 -0.3913
vn 0.2737 0.3744 0.8860
vn 0.5804 0.5711 0.5805
vn 0.2993 0.2949 0.9075
vn -0.4992 0.6074 -0.6180
vn -0.8328 0.3892 0.3935
vn 0.9580 -0.2809 0.0575
vn 0.5223 0.6912 0.4994
vn 0.2353 0.4307 -0.8713
vn -0.1917 -0.3090 0.9315
vn 0.4998 0.8546 0.1410
vn 0.3017 0.9531 0.0244
vn -0.0930 0.4964 0.8631
vn -0.4182 -0.1553 0.8950
vn 0.0890 0.7698 -0.6321
vn -0.0859 -0.5819 0.8087
vn 0.0185 0.1651 -0.9861
vn 0.9508 -0.2839 -0.1237
vn -0.9997 -0.0094 -0.0228
vn -0.1792 0.2139 -0.9603
vn 0.0942 -0.6070 0.7891
vn -0.9955 -0.0273 0.0911
vn 0.9488 -0.2399 -0.2054
vn 0.1520 -0.9538 -0.2592
vn 0.1845 -0.5849 0.7899
vn -0.9611 -0.1787 0.2105
vn -0.9598 -0.2780 0.0399
vn 0.9855 -0.0890 -0.1443
vn -0.0972 0.3321 -0.9382
vn -0.0331 -0.9990 -0.0297
vn 0.0561 -0.9555 0.2898
vn 0.1742 -0.0888 0.9807
vn 0.1997 -0.1276 -0.9715
vn 0.9668 -0.0584 0.2488
vn 0.6326 -0.0878 -0.7695
vn 0.5174 -0.5061 -0.6901
vn 0.5774 -0.4456 -0.6841
vn 0.5957 -0.3740 -0.7109
vn 0.9834 -0.0575 0.1719
vn 0.9606 -0.2064 0.1860
vn 0.9541 -0.2091 0.2146
vn 0.0981 -0.5113 -0.8538
vn 0.1703 -0.4873 -0.8565
vn 0.1683 -0.4003 -0.9008
vn 0.1709 0.3983 0.9012
vn 0.2026 0.1753 0.9634
vn 0.2033 0.0461 0.9780
vn -0.9528 -0.0495 0.2994
vn -0.9776 0.0284 0.2084
vn -0.9796 -0.0577 0.1927
vn -0.1639 -0.2247 -0.9606
vn -0.0783 0.1259 -0.9890
vn -0.1010 0.0992 -0.9899
vn 0.9057 0.1767 0.3854
vn 0.9825 -0.1150 0.1463
vn 0.9933 -0.1116 -0.0298
vn -0.9743 0.0530 -0.2187
vn -0.9982 -0.0299 0.0510
vn -0.9947 -0.0161 0.1011
vn -0.5718 0.0818 0.8163
vn -0.3171 -0.2674 0.9099
vn -0.1265 -0.2034 0.9709
vn 0.5520 -0.1557 0.8192
vn 0.3180 0.4091 -0.8553
vn -0.2464 -0.4229 -0.8720
vn -0.2395 -0.7981 -0.5528
vn -0.8666 -0.0824 -0.4921
vt 0.882279 0.260085
vt 0.436089 0.649131
vt 0.117664 0.305524
vt 0.860974 0.338762
vt 0.079561 0.383885
vt 0.278417 0.728674
vt 0.111517 0.716819
vt 0.301243 0.337859
vt 0.232943 0.387386
vt 0.111517 0.662267
vt 0.671871 0.687525
vt 0.175114 0.511099
vt 0.930991 0.712692
vt 0.796001 0.259488
vt 0.522181 0.649131
vt 0.719621 0.316178
vt 0.801110 0.310020
vt 0.698705 0.366293
vt 0.510656 0.337024
vt 0.023033 0.717149
vt 0.367094 0.730187
vt 0.507246 0.358198
vt 0.018976 0.695717
vt 0.103380 0.570561
vt 0.268725 0.266033
vt 0.143950 0.273348
vt 0.098384 0.631539
vt 0.301351 0.259488
vt 0.128079 0.559933
vt 0.480438 0.333338
vt 0.348619 0.714075
vt 0.604958 0.268707
vt 0.031105 0.562973
vt 0.043818 0.625810
vt 0.721993 0.282954
vt 0.329365 0.336360
vt 0.302724 0.713315
vt 0.030374 0.549675
vt 0.582817 0.260846
vt 0.875347 0.642471
vt 0.380514 0.272320
vt 0.124895 0.517524
vt 0.813390 0.578569
vt 0.436089 0.332372
vt 0.956124 0.588845
vt 0.367094 0.692599
vt 0.367094 0.522797
vt 0.871643 0.594841
vt 0.398138 0.324445
vt 0.043891 0.509019
vt 0.796001 0.641153
vt 0.491075 0.268473
vt 0.032114 0.534706
vt 0.552485 0.259488
vt 0.331566 0.259909
vt 0.129819 0.544964
vt 0.339759 0.337186
vt 0.913298 0.588845
vt 0.317584 0.707220
vt 0.845734 0.463378
vt 0.311567 0.646434
vt 0.944558 0.353645
vt 0.398138 0.462439
vt 0.920230 0.354337
vt 0.870057 0.463781
vt 0.929709 0.374247
vt 0.357807 0.478584
vt 0.347994 0.663056
vt 0.944558 0.373825
vt 0.097076 0.285727
vt 0.229765 0.651022
vt 0.758050 0.297859
vt 0.168317 0.651042
vt 0.119329 0.272208
vt 0.094178 0.643292
vt 0.222768 0.636959
vt 0.746872 0.283208
vt 0.174541 0.636975
vt 0.045175 0.638147
vt 0.080672 0.327471
vt 0.442544 0.673801
vt 0.734592 0.339187
vt 0.484453 0.673801
vt 0.070725 0.319456
vt 0.218298 0.685110
vt 0.751374 0.331694
vt 0.180611 0.684911
vt 0.062412 0.356092
vt 0.455575 0.702696
vt 0.724658 0.367821
vt 0.476314 0.702696
vt 0.043357 0.357400
vt 0.210236 0.723455
vt 0.742364 0.370210
vt 0.189444 0.723462
vt 0.050281 0.367705
vt 0.444942 0.715336
vt 0.810526 0.722486
vt 0.728448 0.380153
vt 0.853695 0.722486
vt 0.487920 0.715336
vt 0.018975 0.371756
vt 0.232852 0.738567
vt 0.796001 0.739289
vt 0.758050 0.386241
vt 0.861207 0.739289
vt 0.167770 0.738589
vt 0.100634 0.583041
vt 0.712300 0.698974
vt 0.802197 0.701507
vt 0.098640 0.600731
vt 0.972705 0.287497
vt 0.747907 0.696578
vt 0.052045 0.577939
vt 0.849895 0.701507
vt 0.710445 0.675017
vt 0.050052 0.595630
vt 0.746553 0.677603
vt 0.924885 0.287497
vt 0.797725 0.671259
vt 0.981025 0.313792
vt 0.715147 0.730011
vt 0.752543 0.724602
vt 0.973919 0.259495
vt 0.967002 0.332143
vt 0.934252 0.306472
vt 0.715328 0.644023
vt 0.847669 0.671259
vt 0.923848 0.259495
vt 0.753088 0.649631
vt 0.920230 0.324823
vt 0.068284 0.665533
vt 0.630362 0.705721
vt 0.712055 0.621316
vt 0.966165 0.712391
vt 0.519769 0.388732
vt 0.031375 0.663704
vt 0.592215 0.695479
vt 0.581836 0.620019
vt 0.750017 0.621843
vt 0.569690 0.667298
vt 0.581066 0.387596
vt 0.531739 0.516092
vt 0.642835 0.625048
vt 0.273616 0.509019
vt 0.070982 0.710642
vt 0.316851 0.732164
vt 0.684917 0.393810
vt 0.816625 0.338063
vt 0.644803 0.392946
vt 0.602800 0.367236
vt 0.671871 0.661666
vt 0.181146 0.386242
vt 0.855113 0.259897
vt 0.463196 0.649131
vt 0.077903 0.567886
vt 0.078993 0.554271
vt 0.322237 0.720993
vt 0.070972 0.628379
vt 0.834014 0.651825
vt 0.084160 0.512738
vt 0.838315 0.596273
vt 0.320679 0.509019
vt 0.080733 0.539302
vt 0.857365 0.464048
vt 0.931678 0.351118
vt 0.335174 0.488977
vt 0.367094 0.673623
vt 0.939667 0.384854
vt 0.199177 0.651021
vt 0.069465 0.641494
vt 0.198664 0.632807
vt 0.464209 0.672968
vt 0.199604 0.684998
vt 0.465945 0.702696
vt 0.199840 0.723459
vt 0.466714 0.715004
vt 0.832520 0.720483
vt 0.200177 0.738589
vt 0.829423 0.735282
vt 0.076340 0.580490
vt 0.826046 0.701507
vt 0.074346 0.598181
vt 0.948795 0.287497
vt 0.823088 0.670800
vt 0.959731 0.307426
vt 0.948976 0.259488
vt 0.941524 0.331189
vt 0.875347 0.491894
vt 0.391834 0.432095
vt 0.377694 0.448634
vt 0.915590 0.478791
vt 0.834644 0.488373
vt 0.326937 0.619279
vt 0.938593 0.478810
vt 0.335216 0.632947
vt 0.358601 0.463790
vt 0.348787 0.648138
vt 0.927106 0.463378
vt 0.854274 0.489560
vt 0.315804 0.619182
vt 0.212520 0.321385
vt 0.644070 0.318501
vt 0.018976 0.592450
vt 0.663817 0.276029
vt 0.129819 0.597828
vt 0.224108 0.269832
vt 0.051049 0.586785
vt 0.728499 0.676310
vt 0.099637 0.591886
vt 0.730103 0.697776
vt 0.734390 0.646904
vt 0.920230 0.314550
vt 0.981025 0.324065
vt 0.732426 0.727384
vt 0.950683 0.319044
vt 0.753088 0.663662
vt 0.920230 0.273492
vt 0.977552 0.273492
vt 0.752543 0.710647
vt 0.709822 0.714522
vt 0.796001 0.686127
vt 0.853178 0.686127
vt 0.709822 0.659561
vt 0.824792 0.685890
vt 0.948939 0.273488
vt 0.731549 0.661651
vt 0.730449 0.712624
vt 0.878850 0.297575
vt 0.096711 0.342677
vt 0.285581 0.357771
vt 0.108549 0.696221
vt 0.804979 0.293594
vt 0.708839 0.350023
vt 0.668288 0.644023
vt 0.436089 0.526409
vt 0.145034 0.385321
vt 0.919159 0.607821
vt 0.247387 0.613831
vt 0.970304 0.416607
vt 0.947808 0.608020
vt 0.704660 0.516092
vt 0.970304 0.403829
vt 0.750017 0.516884
vt 0.618892 0.516092
vt 0.920230 0.404231
vt 0.273616 0.612878
vt 0.642836 0.516847
vt 0.938584 0.415207
vt 0.924281 0.443436
vt 0.075400 0.489812
vt 0.855524 0.444402
vt 0.531739 0.629156
vt 0.934913 0.435583
vt 0.576828 0.496673
vt 0.931440 0.443424
vt 0.848383 0.444289
vt 0.592622 0.497116
vt 0.934913 0.440184
vt 0.586164 0.496977
vt 0.517161 0.630156
vt 0.920230 0.438606
vt 0.085942 0.490043
vt 0.585376 0.420489
vt 0.510472 0.551446
vt 0.582586 0.444044
vt 0.504260 0.576063
vt 0.581388 0.469636
vt 0.508131 0.602400
vt 0.103684 0.463024
vt 0.477645 0.604263
vt 0.118194 0.440373
vt 0.454885 0.581958
vt 0.129418 0.415411
vt 0.438452 0.557360
vt 0.876897 0.417052
vt 0.081901 0.462161
vt 0.882279 0.393921
vt 0.081653 0.438865
vt 0.880271 0.363315
vt 0.079604 0.408162
vt 0.633117 0.418943
vt 0.615530 0.444447
vt 0.600997 0.469910
vt 0.614559 0.469949
vt 0.862035 0.416811
vt 0.638313 0.444473
vt 0.857648 0.390640
vt 0.666106 0.417503
vt 0.844696 0.362700
vt 0.167770 0.536691
vt 0.914144 0.688660
vt 0.182151 0.561697
vt 0.913298 0.663084
vt 0.189855 0.582503
vt 0.915415 0.641729
vt 0.680787 0.549268
vt 0.966165 0.641681
vt 0.684678 0.573659
vt 0.963812 0.665813
vt 0.684995 0.596421
vt 0.964308 0.688427
vt 0.584794 0.548886
vt 0.729850 0.550060
vt 0.578610 0.572959
vt 0.734888 0.574452
vt 0.569690 0.595426
vt 0.736445 0.597214
vt 0.642060 0.590920
vt 0.247172 0.543053
vt 0.641052 0.570535
vt 0.248998 0.562413
vt 0.635978 0.552556
vt 0.245738 0.579271
s 0
usemtl Material
f 89/203/1 7/19/1 13/32/1 90/205/1
f 8/22/2 7/19/2 89/203/2 58/151/2 54/142/2 53/136/2
f 6/18/3 56/148/3 57/150/3
f 3/8/4 106/231/4 4/9/4 59/153/4 88/202/4
f 6/17/5 107/233/5 5/14/5 60/154/5 1/1/5 105/229/5 2/4/5 56/149/5
f 61/156/6 13/33/6 16/38/6 62/157/6
f 5/16/7 14/35/7 31/77/7 29/72/7
f 88/202/8 1/3/8 10/26/8 91/207/8
f 67/164/9 21/53/9 20/50/9 65/161/9
f 13/32/10 7/19/10 12/30/10 16/39/10
f 3/8/11 9/25/11 11/28/11 15/36/11
f 55/147/12 3/6/12 15/37/12 63/158/12
f 66/162/13 19/48/13 17/40/13 65/160/13
f 23/57/14 22/55/14 17/41/14 19/49/14
f 83/191/15 82/190/15 25/63/15 26/67/15
f 15/36/16 11/28/16 22/55/16 23/57/16
f 62/157/17 16/38/17 21/53/17 67/164/17
f 69/169/18 26/66/18 25/64/18 68/166/18
f 87/200/19 84/193/19 24/60/19 68/165/19
f 86/197/20 83/191/20 26/67/20 69/167/20
f 84/194/21 85/196/21 27/68/21 24/61/21
f 70/170/22 29/73/22 31/78/22 71/172/22
f 70/170/23 28/71/23 34/85/23 73/174/23
f 10/26/24 1/3/24 28/70/24 30/74/24
f 64/159/25 10/27/25 30/75/25 71/171/25
f 34/84/26 32/80/26 36/88/26 38/92/26
f 60/155/27 5/15/27 33/83/27 72/173/27
f 5/16/28 29/72/28 35/86/28 33/82/28
f 28/70/29 1/3/29 32/80/29 34/84/29
f 37/90/30 39/94/30 43/105/30 41/99/30
f 73/174/31 34/85/31 38/93/31 75/176/31
f 33/82/32 35/86/32 39/94/32 37/90/32
f 72/173/33 33/83/33 37/91/33 74/175/33
f 76/178/34 41/100/34 43/106/34 77/180/34
f 74/175/35 37/91/35 41/101/35 76/177/35
f 38/92/36 36/88/36 40/96/36 42/102/36
f 75/176/37 38/93/37 42/103/37 77/179/37
f 102/226/38 97/218/38 51/129/38 81/187/38
f 91/206/39 10/27/39 45/111/39 93/210/39
f 90/204/40 13/33/40 46/114/40 92/208/40
f 61/156/41 9/24/41 44/108/41 78/181/41
f 64/159/42 14/34/42 47/117/42 79/183/42
f 96/216/43 94/213/43 50/126/43 80/186/43
f 101/225/44 99/222/44 48/120/44 80/185/44
f 104/228/45 98/220/45 49/123/45 95/215/45
f 103/227/46 100/224/46 50/127/46 94/212/46
f 8/23/47 53/137/47 52/132/47
f 8/23/48 52/132/48 4/10/48 106/232/48 3/7/48 55/146/48 7/20/48
f 54/142/49 58/151/49 89/203/49 5/16/49 107/234/49 6/18/49 57/150/49
f 100/223/50 101/225/50 80/185/50 50/128/50
f 95/214/51 96/216/51 80/186/51 48/121/51
f 10/27/52 64/159/52 79/183/52 45/111/52
f 13/33/53 61/156/53 78/181/53 46/114/53
f 98/219/54 102/226/54 81/187/54 49/124/54
f 39/95/55 75/176/55 77/179/55 43/107/55
f 36/89/56 74/175/56 76/177/56 40/97/56
f 40/98/57 76/178/57 77/180/57 42/104/57
f 32/81/58 72/173/58 74/175/58 36/89/58
f 35/87/59 73/174/59 75/176/59 39/95/59
f 1/2/60 60/155/60 72/173/60 32/81/60
f 14/34/61 64/159/61 71/171/61 31/79/61
f 29/73/62 70/170/62 73/174/62 35/87/62
f 28/71/63 70/170/63 71/172/63 30/76/63
f 85/196/64 86/198/64 69/168/64 27/68/64
f 82/189/65 87/200/65 68/165/65 25/65/65
f 27/69/66 69/169/66 68/166/66 24/62/66
f 11/29/67 62/157/67 67/164/67 22/56/67
f 18/43/68 66/162/68 65/160/68 20/51/68
f 7/21/69 55/147/69 63/158/69 12/31/69
f 22/56/70 67/164/70 65/161/70 17/42/70
f 9/24/71 61/156/71 62/157/71 11/29/71
f 19/48/72 66/162/72 87/200/72 82/189/72
f 12/30/73 18/44/73 20/52/73 21/54/73 16/39/73
f 66/163/74 18/47/74 84/194/74 87/201/74
f 23/57/75 19/49/75 82/190/75 83/191/75
f 49/125/76 81/188/76 96/216/76 95/214/76
f 97/217/77 103/227/77 94/212/77 51/130/77
f 99/221/78 104/228/78 95/215/78 48/122/78
f 81/188/79 51/131/79 94/213/79 96/216/79
f 14/34/80 90/204/80 92/208/80 47/117/80
f 9/24/81 91/206/81 93/210/81 44/108/81
f 3/8/82 88/202/82 91/207/82 9/25/82
f 5/16/83 89/203/83 90/205/83 14/35/83
f 44/109/84 93/211/84 104/228/84 99/221/84
f 47/118/85 92/209/85 103/227/85 97/217/85
f 45/112/86 79/184/86 102/226/86 98/219/86
f 46/115/87 78/182/87 101/225/87 100/223/87
f 92/209/88 46/116/88 100/224/88 103/227/88
f 93/211/89 45/113/89 98/220/89 104/228/89
f 78/182/90 44/110/90 99/222/90 101/225/90
f 79/184/91 47/119/91 97/218/91 102/226/91
f 59/152/92 4/11/92 52/133/92 53/138/92 54/141/92 108/235/92
f 136/298/93 110/241/93 109/238/93 135/296/93
f 121/271/94 120/269/94 114/253/94 117/261/94
f 139/304/95 111/244/95 110/242/95 136/297/95
f 135/295/96 109/239/96 112/247/96 144/314/96
f 144/313/97 112/248/97 111/245/97 139/303/97
f 111/246/98 112/249/98 109/240/98 110/243/98
f 117/262/99 114/254/99 116/259/99 115/256/99 113/250/99
f 124/277/100 121/270/100 117/263/100 113/251/100
f 120/268/101 129/284/101 116/260/101 114/255/101
f 130/286/102 124/276/102 113/252/102 115/257/102
f 129/284/103 130/285/103 115/258/103 116/260/103
f 57/150/104 56/148/104 132/289/104 127/282/104
f 127/282/105 132/289/105 131/287/105 128/283/105
f 128/283/106 131/287/106 130/285/106 129/284/106
f 56/149/107 2/4/107 126/280/107 132/290/107
f 132/290/108 126/280/108 125/278/108 131/288/108
f 131/288/109 125/278/109 124/276/109 130/286/109
f 54/142/110 57/150/110 127/282/110 118/264/110
f 118/264/111 127/282/111 128/283/111 119/266/111
f 119/266/112 128/283/112 129/284/112 120/268/112
f 2/5/113 108/237/113 123/274/113 126/281/113
f 126/281/114 123/274/114 122/272/114 125/279/114
f 125/279/115 122/272/115 121/270/115 124/277/115
f 108/236/116 54/143/116 118/265/116 123/275/116
f 123/275/117 118/265/117 119/267/117 122/273/117
f 122/273/118 119/267/118 120/269/118 121/271/118
f 54/144/119 142/309/119 141/307/119 53/139/119
f 142/309/120 143/311/120 140/305/120 141/307/120
f 143/311/121 144/313/121 139/303/121 140/305/121
f 4/12/122 133/291/122 142/310/122 54/145/122
f 133/291/123 134/293/123 143/312/123 142/310/123
f 134/293/124 135/295/124 144/314/124 143/312/124
f 53/140/125 141/308/125 138/301/125 52/134/125
f 141/308/126 140/306/126 137/299/126 138/301/126
f 140/306/127 139/304/127 136/297/127 137/299/127
f 52/135/128 138/302/128 133/292/128 4/13/128
f 138/302/129 137/300/129 134/294/129 133/292/129
f 137/300/130 136/298/130 135/296/130 134/294/130
f 105/230/131 1/3/131 88/202/131 59/153/131 108/237/131 2/5/131
f 86/199/132 85/195/132 83/192/132
f 83/192/133 85/195/133 18/45/133 23/58/133
f 63/158/134 15/37/134 23/59/134 18/46/134 12/31/134
f 84/194/135 18/47/135 85/196/135
l 52 106
