# Blender 3.3.1
# www.blender.org
mtllib monstruo_3_caminar647.mtl
o monstruo_grande
v 0.450330 1.986231 0.302176
v 0.516734 1.146706 0.112436
v -0.662852 1.790641 0.177264
v -0.321272 1.131731 0.198628
v 0.692859 2.263856 -0.000658
v 0.586014 1.565220 -0.241345
v -0.767527 2.006973 -0.246289
v -0.683427 1.737767 -0.314952
v -0.267002 2.386093 0.482333
v 0.286220 2.269372 0.482558
v -0.402006 2.355100 0.575704
v -1.125085 2.033271 -0.097809
v -0.243711 2.561325 0.128964
v 0.313333 2.413269 0.221670
v -0.974588 1.904989 0.061378
v -0.407268 2.635736 0.148139
v -0.748226 2.267817 0.579403
v -1.416795 1.939547 0.166238
v -1.142936 1.982574 0.370520
v -0.928484 2.586411 0.316892
v -0.595453 2.674131 0.213306
v -0.473256 2.311774 0.547756
v -1.104201 1.913978 0.059812
v -1.711818 0.679188 0.840807
v -1.586737 0.660685 0.889619
v -1.561346 0.488750 0.686057
v -1.637692 0.500046 0.656264
v 0.420236 2.181989 0.479402
v 0.581002 2.371767 0.253745
v 0.395590 2.294995 0.488355
v 0.443468 2.428588 0.269092
v 0.687127 1.867675 0.360081
v 0.859521 1.948029 0.232510
v 0.699304 1.945505 0.411574
v 0.821314 2.056349 0.287962
v 0.872464 1.640644 0.406589
v 0.971662 1.671545 0.360042
v 0.924855 1.622152 0.496572
v 1.022213 1.661446 0.448143
v 0.884055 1.495009 0.462377
v 1.087557 1.574942 0.365378
v 0.929013 1.422902 0.640208
v 1.233745 1.541687 0.487542
v -0.102858 2.433925 0.511820
v 0.106909 2.403944 0.504383
v -0.088372 2.540658 0.267294
v 0.115846 2.507559 0.262738
v -0.046746 2.738030 0.672042
v 0.158737 2.670733 0.637991
v -0.047869 2.861386 0.422761
v 0.156718 2.794494 0.387773
v -0.510261 1.181685 -0.027581
v -0.379390 1.213039 -0.229970
v -0.040612 1.277867 -0.333429
v -0.714368 1.837542 -0.045755
v 0.543391 1.143345 -0.125358
v 0.327653 1.152703 -0.254491
v 0.026637 1.525509 -0.321038
v -0.033098 1.145952 0.197074
v 0.536935 2.067004 0.202715
v -0.252232 2.447738 0.358716
v -0.413568 2.606409 0.420149
v -0.911933 1.984299 -0.053835
v 0.278790 2.399170 0.381593
v -0.775934 2.495694 0.542981
v -1.319577 2.083991 0.410059
v -0.566080 2.593449 0.407579
v -1.661374 0.667976 0.895468
v -1.576003 0.381453 0.568082
v 0.527847 2.288269 0.405460
v 0.421978 2.406645 0.402440
v 0.748120 1.884545 0.247840
v 0.791631 2.011948 0.391533
v 0.921345 1.659008 0.382490
v 0.973531 1.641126 0.472186
v 0.974729 1.534359 0.391505
v 1.060980 1.482352 0.523203
v -0.096867 2.486484 0.388005
v 0.109084 2.457362 0.382708
v -0.078552 2.801536 0.548657
v 0.189234 2.731055 0.512253
v -1.468480 0.989136 0.841449
v -1.521966 0.814890 0.771042
v -1.683828 0.991688 0.758555
v -1.639697 0.832306 0.725099
v -1.575353 0.658091 0.671287
v -1.599489 0.969720 0.851274
v -0.032779 1.758219 0.513401
v 0.178330 2.135841 -0.186193
v 0.123679 2.513639 0.082872
v 0.030112 2.265184 0.633387
v 0.009383 2.523492 0.262879
v 0.006832 2.417318 0.506671
v 0.054039 2.846152 0.367329
v 0.056115 2.685881 0.692304
v 0.059208 2.815701 0.555242
v 0.149404 2.663163 0.301130
v 0.147761 2.525637 0.587079
v -0.088423 2.577581 0.613800
v -0.088942 2.716245 0.325442
v -0.105446 2.648340 0.470702
v 0.163655 2.594412 0.443485
v 0.029280 2.698876 0.293003
v 0.030675 2.540874 0.620023
v 0.523759 1.658158 -0.024533
v -0.575343 1.511838 0.199466
v 0.627715 1.778501 -0.224503
v 0.161980 1.160618 0.212980
v -0.273355 0.184074 -0.454143
v -0.421651 0.120765 -0.354397
v -0.439663 0.254976 -0.566463
v -0.304054 0.261296 -0.575509
v 0.260638 0.008034 0.137098
v 0.189653 -0.005886 0.059623
v 0.271350 0.002647 0.099317
v 0.240701 -0.002986 0.072390
v 0.201172 0.007965 0.145382
v 0.063654 0.850757 -0.058861
v 0.109817 0.623442 0.026923
v 0.133866 0.322643 0.063281
v 0.160553 0.304876 0.242350
v 0.151794 0.555152 0.306749
v 0.170142 0.831978 0.334038
v 0.283355 0.298533 0.221761
v 0.359632 0.550450 0.274197
v 0.461324 0.874481 0.267445
v 0.318246 0.852998 -0.030229
v 0.287758 0.609444 0.062867
v 0.239707 0.313842 0.086887
v 0.304278 0.305543 0.142156
v 0.397578 0.598182 0.152114
v 0.487219 0.871124 0.078602
v -0.240111 0.837137 0.258200
v -0.239280 0.551639 0.091153
v -0.252700 0.342483 -0.053365
v -0.533467 0.375353 -0.092200
v -0.517887 0.632043 0.029302
v -0.514926 0.877897 0.115528
v -0.526504 0.537375 -0.311252
v -0.509206 0.779680 -0.188163
v -0.502326 0.935365 -0.149152
v -0.110865 0.859491 -0.149617
v -0.166340 0.732533 -0.203808
v -0.230316 0.550923 -0.293192
vn -0.0270 0.5776 -0.8159
vn -0.0137 0.1028 -0.9946
vn 0.4846 -0.2771 -0.8297
vn -0.3048 -0.2755 0.9117
vn 0.9321 -0.1696 0.3201
vn 0.6044 0.7613 0.2347
vn 0.1861 0.9056 -0.3810
vn 0.4887 -0.2546 0.8345
vn -0.1225 0.8994 0.4197
vn -0.1442 0.5838 -0.7990
vn -0.1405 -0.5268 0.8383
vn -0.3636 -0.8688 -0.3362
vn -0.2347 -0.1547 0.9597
vn 0.3308 -0.8699 0.3658
vn 0.9487 -0.2400 0.2060
vn 0.0447 -0.7885 0.6134
vn 0.1068 0.9689 0.2233
vn 0.0214 -0.7545 0.6559
vn -0.6884 0.2415 0.6839
vn 0.9358 0.0469 -0.3494
vn -0.8625 0.0242 -0.5055
vn 0.5458 0.7293 0.4127
vn 0.2984 0.1660 0.9399
vn -0.3270 -0.5298 0.7825
vn -0.1619 0.6119 0.7742
vn -0.7402 -0.4289 0.5177
vn -0.1295 -0.5565 -0.8207
vn 0.8360 0.5484 0.0222
vn -0.4016 -0.6027 0.6895
vn 0.5484 0.7561 -0.3572
vn 0.1192 0.2961 0.9477
vn 0.9097 0.3021 -0.2849
vn 0.0083 -0.4592 -0.8883
vn 0.1989 -0.8595 -0.4708
vn -0.2108 -0.2230 -0.9518
vn -0.9020 0.1845 0.3903
vn 0.3784 0.5150 0.7691
vn 0.9835 -0.0161 -0.1804
vn 0.3467 0.5285 0.7749
vn 0.1397 0.9901 0.0156
vn -0.3063 0.8738 0.3776
vn 0.3956 0.8806 0.2607
vn 0.0615 0.9578 0.2806
vn -0.9663 0.1102 0.2326
vn 0.2886 -0.4047 0.8677
vn -0.2451 0.5312 -0.8110
vn -0.6962 -0.4886 -0.5259
vn -0.9271 -0.3388 0.1600
vn 0.1511 0.1565 -0.9760
vn -0.9669 0.2500 -0.0505
vn 0.0611 0.8047 0.5906
vn 0.4259 0.7035 0.5689
vn -0.2694 0.8737 0.4051
vn 0.9821 -0.1656 0.0898
vn 0.1003 0.4030 0.9097
vn -0.4447 -0.3085 -0.8409
vn 0.0710 -0.9151 -0.3970
vn -0.5118 -0.6365 -0.5770
vn 0.6035 0.4976 0.6230
vn -0.3557 -0.7294 -0.5844
vn -0.1077 0.9890 0.1010
vn 0.6516 0.5722 0.4981
vn 0.5208 0.2730 0.8088
vn -0.4141 0.2466 -0.8762
vn 0.0680 0.1256 0.9897
vn -0.6412 -0.6565 0.3974
vn -0.2641 0.4279 0.8644
vn -0.7207 0.6189 0.3123
vn -0.3607 -0.8556 -0.3714
vn 0.2067 0.3637 0.9083
vn 0.5605 0.5481 0.6209
vn 0.2344 0.3286 0.9149
vn -0.4459 0.6136 -0.6517
vn -0.8621 0.3905 0.3230
vn 0.9552 -0.2649 0.1318
vn 0.5126 0.6632 0.5454
vn 0.2864 0.4544 -0.8435
vn -0.2429 -0.3355 0.9102
vn 0.5098 0.8389 0.1906
vn 0.3461 0.9370 0.0467
vn -0.1335 0.5079 0.8510
vn -0.4783 -0.1355 0.8677
vn 0.2462 0.7616 -0.5995
vn -0.1454 -0.6081 0.7804
vn 0.0778 0.1900 -0.9787
vn 0.9485 -0.3072 -0.0769
vn -0.9960 0.0101 -0.0890
vn -0.1242 0.2484 -0.9607
vn 0.0426 -0.6307 0.7749
vn -0.9992 -0.0045 0.0392
vn 0.9603 -0.2426 -0.1374
vn 0.0687 -0.9730 -0.2205
vn 0.1353 -0.8325 0.5372
vn -0.9753 -0.1726 0.1381
vn -0.9644 -0.2290 -0.1326
vn 0.9932 -0.0791 -0.0854
vn -0.0163 0.6845 -0.7288
vn 0.0018 -0.8444 -0.5357
vn 0.0240 -0.9871 0.1582
vn 0.1401 -0.2886 0.9471
vn 0.2273 0.0474 -0.9727
vn 0.9559 -0.1446 0.2556
vn 0.6536 0.0363 -0.7560
vn 0.4417 -0.5696 -0.6931
vn 0.5442 -0.3695 -0.7532
vn 0.6180 -0.1669 -0.7683
vn 0.9850 -0.1206 0.1232
vn 0.9468 -0.2827 0.1540
vn 0.9316 -0.3116 0.1873
vn 0.0316 -0.5628 -0.8260
vn 0.1291 -0.3484 -0.9284
vn 0.1960 -0.1066 -0.9748
vn 0.2139 0.3939 0.8939
vn 0.1997 -0.0733 0.9771
vn 0.1460 -0.2428 0.9590
vn -0.9486 0.0241 0.3156
vn -0.9769 -0.0293 0.2118
vn -0.9886 -0.0658 0.1356
vn -0.1383 -0.3182 -0.9379
vn 0.0306 0.3069 -0.9512
vn 0.0267 0.4438 -0.8957
vn 0.8947 0.1565 0.4183
vn 0.9499 -0.2358 0.2051
vn 0.9779 -0.2076 0.0232
vn -0.9561 0.1044 -0.2738
vn -0.9990 0.0338 -0.0297
vn -0.9981 0.0618 0.0081
vn -0.5878 0.1911 0.7861
vn -0.3933 -0.3943 0.8306
vn -0.2476 -0.4688 0.8479
vn 0.5083 -0.2298 0.8299
vn 0.3840 0.3990 -0.8327
vn -0.1683 -0.4546 -0.8746
vn -0.1619 -0.7986 -0.5797
vn -0.8258 -0.1127 -0.5526
vt 0.461701 0.809397
vt 0.301930 0.729761
vt 0.094158 0.499911
vt 0.498737 0.648456
vt 0.250869 0.553264
vt 0.714874 0.752530
vt 0.627854 0.740386
vt 0.227533 0.339544
vt 0.300362 0.438253
vt 0.625828 0.633709
vt 0.338991 0.679376
vt 0.653754 0.621457
vt 0.189641 0.785401
vt 0.531284 0.815038
vt 0.232114 0.729761
vt 0.806952 0.326283
vt 0.527824 0.712310
vt 0.703640 0.331352
vt 0.725736 0.123548
vt 0.557184 0.740386
vt 0.714874 0.681901
vt 0.693091 0.138725
vt 0.558638 0.706064
vt 0.944491 0.391302
vt 0.108931 0.369345
vt 0.090202 0.443431
vt 0.952837 0.467016
vt 0.108059 0.346292
vt 0.960024 0.371234
vt 0.653754 0.712739
vt 0.761990 0.055860
vt 0.265996 0.788213
vt 0.829683 0.188590
vt 0.886815 0.394232
vt 0.909606 0.471204
vt 0.826550 0.267021
vt 0.659457 0.749480
vt 0.206417 0.267620
vt 0.238389 0.812575
vt 0.882743 0.373659
vt 0.837846 0.166681
vt 0.102618 0.289588
vt 0.957957 0.321520
vt 0.918648 0.216117
vt 0.803322 0.012950
vt 0.106348 0.638847
vt 0.232551 0.755661
vt 0.798789 0.485160
vt 0.965752 0.239402
vt 0.153968 0.222285
vt 0.894228 0.312474
vt 0.856067 0.102710
vt 0.881967 0.351902
vt 0.842627 0.144082
vt 0.107159 0.331692
vt 0.958812 0.358201
vt 0.199778 0.246429
vt 0.138792 0.619338
vt 0.232114 0.797406
vt 0.967580 0.012950
vt 0.753483 0.682459
vt 0.843831 0.469074
vt 0.256421 0.022764
vt 0.824689 0.472884
vt 0.987050 0.016155
vt 0.832147 0.505580
vt 0.295109 0.018166
vt 0.782932 0.707368
vt 0.843831 0.503254
vt 0.076417 0.467161
vt 0.958695 0.494573
vt 0.833773 0.298242
vt 0.909847 0.503107
vt 0.076958 0.454690
vt 0.951531 0.482650
vt 0.837149 0.281767
vt 0.912926 0.487172
vt 0.064432 0.532285
vt 0.298790 0.687460
vt 0.825577 0.362572
vt 0.264894 0.686125
vt 0.056614 0.518895
vt 0.959622 0.549977
vt 0.837123 0.350740
vt 0.929664 0.555276
vt 0.051257 0.577890
vt 0.291936 0.641182
vt 0.824256 0.407314
vt 0.275162 0.640522
vt 0.035793 0.577862
vt 0.964581 0.612577
vt 0.838997 0.411720
vt 0.948088 0.615681
vt 0.039898 0.592711
vt 0.301778 0.620707
vt 0.403076 0.772170
vt 0.830596 0.428615
vt 0.403076 0.737417
vt 0.267017 0.619338
vt 0.012950 0.593438
vt 0.987050 0.637067
vt 0.428919 0.781443
vt 0.856067 0.440612
vt 0.428919 0.728949
vt 0.935424 0.646785
vt 0.945356 0.412724
vt 0.357115 0.854737
vt 0.331665 0.779032
vt 0.948027 0.441601
vt 0.799629 0.752473
vt 0.327972 0.853161
vt 0.906904 0.416128
vt 0.370069 0.779032
vt 0.684668 0.778429
vt 0.909575 0.445005
vt 0.655249 0.778999
vt 0.799629 0.791035
vt 0.330193 0.729131
vt 0.557184 0.775635
vt 0.363063 0.804932
vt 0.331684 0.807874
vt 0.754247 0.751428
vt 0.586563 0.768755
vt 0.566112 0.815056
vt 0.689281 0.828405
vt 0.370405 0.729131
vt 0.754247 0.791805
vt 0.657717 0.824383
vt 0.595492 0.808176
vt 0.327830 0.637821
vt 0.590400 0.642651
vt 0.164818 0.789976
vt 0.357235 0.619338
vt 0.642851 0.190721
vt 0.562581 0.649581
vt 0.406824 0.626953
vt 0.080449 0.619338
vt 0.646201 0.239681
vt 0.727583 0.656002
vt 0.597847 0.731399
vt 0.712829 0.722239
vt 0.658284 0.323708
vt 0.527919 0.666449
vt 0.661748 0.291537
vt 0.680225 0.245582
vt 0.377645 0.696957
vt 0.285191 0.477898
vt 0.483372 0.812325
vt 0.280072 0.728266
vt 0.924330 0.393087
vt 0.921760 0.373660
vt 0.678504 0.727397
vt 0.268491 0.812575
vt 0.930826 0.465310
vt 0.923786 0.327561
vt 0.941993 0.227167
vt 0.764056 0.466512
vt 0.919524 0.351927
vt 0.977463 0.013354
vt 0.833186 0.466512
vt 0.317617 0.012950
vt 0.798789 0.722800
vt 0.839639 0.522681
vt 0.934403 0.500152
vt 0.932138 0.484309
vt 0.281656 0.689101
vt 0.944784 0.554368
vt 0.283549 0.640852
vt 0.956335 0.614129
vt 0.284323 0.620942
vt 0.399765 0.754789
vt 0.961112 0.640376
vt 0.422297 0.755187
vt 0.926130 0.414426
vt 0.350867 0.779032
vt 0.928801 0.443303
vt 0.799629 0.771754
vt 0.350773 0.728949
vt 0.557184 0.796361
vt 0.753483 0.771844
vt 0.595492 0.787450
vt 0.985581 0.067358
vt 0.238180 0.070710
vt 0.259592 0.052321
vt 0.138792 0.821791
vt 0.953366 0.057503
vt 0.765454 0.639660
vt 0.120235 0.821584
vt 0.772730 0.660154
vt 0.283154 0.037949
vt 0.784440 0.682652
vt 0.128680 0.843910
vt 0.970110 0.058056
vt 0.758353 0.637393
vt 0.180368 0.432154
vt 0.759258 0.257498
vt 0.884976 0.446549
vt 0.828099 0.241547
vt 0.971226 0.428512
vt 0.101516 0.405509
vt 0.908240 0.430567
vt 0.669958 0.778714
vt 0.946692 0.427163
vt 0.342544 0.853949
vt 0.673120 0.826722
vt 0.582140 0.817526
vt 0.570535 0.766286
vt 0.348248 0.806122
vt 0.576699 0.792002
vt 0.653753 0.802281
vt 0.776512 0.794925
vt 0.776512 0.748700
vt 0.327830 0.829868
vt 0.363063 0.830170
vt 0.327830 0.753980
vt 0.373865 0.753980
vt 0.689281 0.803194
vt 0.351093 0.753886
vt 0.776117 0.771930
vt 0.671321 0.802907
vt 0.345899 0.829874
vt 0.457498 0.727404
vt 0.165986 0.548054
vt 0.260364 0.376248
vt 0.625887 0.695531
vt 0.520555 0.743605
vt 0.734596 0.339638
vt 0.406824 0.703049
vt 0.012950 0.651015
vt 0.277407 0.507014
vt 0.206214 0.619338
vt 0.706517 0.466512
vt 0.399765 0.822801
vt 0.181517 0.620770
vt 0.619265 0.470337
vt 0.422433 0.807343
vt 0.582936 0.466512
vt 0.458892 0.202188
vt 0.422433 0.843958
vt 0.727583 0.468029
vt 0.460639 0.221880
vt 0.402692 0.843997
vt 0.717439 0.778459
vt 0.429089 0.593438
vt 0.518160 0.466685
vt 0.070962 0.817001
vt 0.726094 0.791097
vt 0.457498 0.298878
vt 0.715181 0.783741
vt 0.523936 0.466512
vt 0.458951 0.311476
vt 0.719061 0.788282
vt 0.458165 0.306435
vt 0.058766 0.817583
vt 0.726094 0.778429
vt 0.431598 0.585369
vt 0.599953 0.261833
vt 0.080449 0.668491
vt 0.542336 0.274386
vt 0.076079 0.728305
vt 0.500395 0.287212
vt 0.064936 0.773359
vt 0.389801 0.564275
vt 0.039540 0.774208
vt 0.356388 0.547019
vt 0.031995 0.737396
vt 0.319737 0.531779
vt 0.030523 0.696843
vt 0.505723 0.512116
vt 0.384015 0.580847
vt 0.506522 0.550736
vt 0.346302 0.574833
vt 0.507607 0.604105
vt 0.294291 0.566034
vt 0.610540 0.298468
vt 0.545535 0.300686
vt 0.502363 0.302883
vt 0.504402 0.313331
vt 0.517745 0.511765
vt 0.548610 0.318269
vt 0.527842 0.556627
vt 0.609940 0.323717
vt 0.531284 0.618364
vt 0.660591 0.582499
vt 0.204501 0.743892
vt 0.668589 0.550878
vt 0.206214 0.710848
vt 0.668004 0.517120
vt 0.204545 0.678125
vt 0.623877 0.525891
vt 0.164692 0.675333
vt 0.610236 0.563455
vt 0.167167 0.712219
vt 0.605277 0.597358
vt 0.166352 0.745757
vt 0.511839 0.183186
vt 0.584607 0.521652
vt 0.552303 0.182624
vt 0.569857 0.561129
vt 0.598009 0.178631
vt 0.565182 0.606784
vt 0.592158 0.236754
vt 0.721184 0.600612
vt 0.550092 0.232946
vt 0.722606 0.558204
vt 0.518921 0.225772
vt 0.713819 0.525134
s 0
usemtl Material
f 89/196/1 7/19/1 13/33/1 90/198/1
f 8/22/2 7/19/2 89/196/2 58/145/2 54/138/2 53/134/2
f 6/18/3 56/142/3 57/144/3
f 3/8/4 106/224/4 4/9/4 59/147/4 88/195/4
f 6/17/5 107/226/5 5/14/5 60/148/5 1/1/5 105/222/5 2/4/5 56/143/5
f 61/150/6 13/34/6 16/40/6 62/151/6
f 5/16/7 14/36/7 31/76/7 29/72/7
f 88/195/8 1/3/8 10/26/8 91/200/8
f 67/158/9 21/53/9 20/51/9 65/155/9
f 13/33/10 7/19/10 12/31/10 16/41/10
f 3/8/11 9/25/11 11/28/11 15/38/11
f 55/141/12 3/6/12 15/37/12 63/152/12
f 66/156/13 19/49/13 17/43/13 65/155/13
f 23/57/14 22/55/14 17/42/14 19/50/14
f 83/184/15 82/183/15 25/63/15 26/67/15
f 15/38/16 11/28/16 22/55/16 23/57/16
f 62/151/17 16/40/17 21/53/17 67/158/17
f 69/163/18 26/66/18 25/64/18 68/160/18
f 87/193/19 84/186/19 24/60/19 68/159/19
f 86/190/20 83/184/20 26/67/20 69/161/20
f 84/187/21 85/189/21 27/68/21 24/61/21
f 70/164/22 29/73/22 31/77/22 71/165/22
f 70/164/23 28/71/23 34/83/23 73/167/23
f 10/26/24 1/3/24 28/70/24 30/74/24
f 64/154/25 10/27/25 30/75/25 71/165/25
f 34/82/26 32/78/26 36/86/26 38/90/26
f 60/149/27 5/15/27 33/81/27 72/166/27
f 5/16/28 29/72/28 35/84/28 33/80/28
f 28/70/29 1/3/29 32/78/29 34/82/29
f 37/88/30 39/92/30 43/103/30 41/97/30
f 73/167/31 34/83/31 38/91/31 75/169/31
f 33/80/32 35/84/32 39/92/32 37/88/32
f 72/166/33 33/81/33 37/89/33 74/168/33
f 76/171/34 41/98/34 43/104/34 77/173/34
f 74/168/35 37/89/35 41/99/35 76/170/35
f 38/90/36 36/86/36 40/94/36 42/100/36
f 75/169/37 38/91/37 42/101/37 77/172/37
f 102/219/38 97/211/38 51/127/38 81/180/38
f 91/199/39 10/27/39 45/109/39 93/203/39
f 90/197/40 13/34/40 46/112/40 92/201/40
f 61/150/41 9/24/41 44/106/41 78/174/41
f 64/154/42 14/35/42 47/115/42 79/176/42
f 96/209/43 94/206/43 50/124/43 80/179/43
f 101/218/44 99/215/44 48/118/44 80/178/44
f 104/221/45 98/213/45 49/121/45 95/208/45
f 103/220/46 100/217/46 50/125/46 94/205/46
f 8/23/47 53/135/47 52/131/47
f 8/23/48 52/131/48 4/10/48 106/225/48 3/7/48 55/140/48 7/20/48
f 54/138/49 58/145/49 89/196/49 5/16/49 107/227/49 6/18/49 57/144/49
f 100/216/50 101/218/50 80/178/50 50/126/50
f 95/207/51 96/209/51 80/179/51 48/119/51
f 10/27/52 64/154/52 79/176/52 45/109/52
f 13/34/53 61/150/53 78/174/53 46/112/53
f 98/212/54 102/219/54 81/180/54 49/122/54
f 39/93/55 75/169/55 77/172/55 43/105/55
f 36/87/56 74/168/56 76/170/56 40/95/56
f 40/96/57 76/171/57 77/173/57 42/102/57
f 32/79/58 72/166/58 74/168/58 36/87/58
f 35/85/59 73/167/59 75/169/59 39/93/59
f 1/2/60 60/149/60 72/166/60 32/79/60
f 14/35/61 64/154/61 71/165/61 31/77/61
f 29/73/62 70/164/62 73/167/62 35/85/62
f 28/71/63 70/164/63 71/165/63 30/75/63
f 85/189/64 86/191/64 69/162/64 27/68/64
f 82/182/65 87/193/65 68/159/65 25/65/65
f 27/69/66 69/163/66 68/160/66 24/62/66
f 11/29/67 62/151/67 67/158/67 22/56/67
f 18/44/68 66/156/68 65/155/68 20/51/68
f 7/21/69 55/141/69 63/152/69 12/30/69
f 22/56/70 67/158/70 65/155/70 17/43/70
f 9/24/71 61/150/71 62/151/71 11/29/71
f 19/49/72 66/156/72 87/193/72 82/182/72
f 12/31/73 18/45/73 20/52/73 21/54/73 16/41/73
f 66/157/74 18/48/74 84/187/74 87/194/74
f 23/57/75 19/50/75 82/183/75 83/184/75
f 49/123/76 81/181/76 96/209/76 95/207/76
f 97/210/77 103/220/77 94/205/77 51/128/77
f 99/214/78 104/221/78 95/208/78 48/120/78
f 81/181/79 51/129/79 94/206/79 96/209/79
f 14/35/80 90/197/80 92/201/80 47/115/80
f 9/24/81 91/199/81 93/203/81 44/106/81
f 3/8/82 88/195/82 91/200/82 9/25/82
f 5/16/83 89/196/83 90/198/83 14/36/83
f 44/107/84 93/204/84 104/221/84 99/214/84
f 47/116/85 92/202/85 103/220/85 97/210/85
f 45/110/86 79/177/86 102/219/86 98/212/86
f 46/113/87 78/175/87 101/218/87 100/216/87
f 92/202/88 46/114/88 100/217/88 103/220/88
f 93/204/89 45/111/89 98/213/89 104/221/89
f 78/175/90 44/108/90 99/215/90 101/218/90
f 79/177/91 47/117/91 97/211/91 102/219/91
f 59/146/92 4/11/92 52/130/92 53/133/92 54/136/92 108/228/92
f 136/291/93 110/234/93 109/231/93 135/289/93
f 121/264/94 120/262/94 114/246/94 117/254/94
f 139/297/95 111/237/95 110/235/95 136/290/95
f 135/288/96 109/232/96 112/240/96 144/307/96
f 144/306/97 112/241/97 111/238/97 139/296/97
f 111/239/98 112/242/98 109/233/98 110/236/98
f 117/255/99 114/247/99 116/252/99 115/249/99 113/243/99
f 124/270/100 121/263/100 117/256/100 113/244/100
f 120/261/101 129/277/101 116/253/101 114/248/101
f 130/279/102 124/269/102 113/245/102 115/250/102
f 129/277/103 130/278/103 115/251/103 116/253/103
f 57/144/104 56/142/104 132/282/104 127/275/104
f 127/275/105 132/282/105 131/280/105 128/276/105
f 128/276/106 131/280/106 130/278/106 129/277/106
f 56/143/107 2/4/107 126/273/107 132/283/107
f 132/283/108 126/273/108 125/271/108 131/281/108
f 131/281/109 125/271/109 124/269/109 130/279/109
f 54/138/110 57/144/110 127/275/110 118/257/110
f 118/257/111 127/275/111 128/276/111 119/259/111
f 119/259/112 128/276/112 129/277/112 120/261/112
f 2/5/113 108/230/113 123/267/113 126/274/113
f 126/274/114 123/267/114 122/265/114 125/272/114
f 125/272/115 122/265/115 121/263/115 124/270/115
f 108/229/116 54/137/116 118/258/116 123/268/116
f 123/268/117 118/258/117 119/260/117 122/266/117
f 122/266/118 119/260/118 120/262/118 121/264/118
f 54/138/119 142/302/119 141/300/119 53/134/119
f 142/302/120 143/304/120 140/298/120 141/300/120
f 143/304/121 144/306/121 139/296/121 140/298/121
f 4/12/122 133/284/122 142/303/122 54/139/122
f 133/284/123 134/286/123 143/305/123 142/303/123
f 134/286/124 135/288/124 144/307/124 143/305/124
f 53/135/125 141/301/125 138/294/125 52/131/125
f 141/301/126 140/299/126 137/292/126 138/294/126
f 140/299/127 139/297/127 136/290/127 137/292/127
f 52/132/128 138/295/128 133/285/128 4/13/128
f 138/295/129 137/293/129 134/287/129 133/285/129
f 137/293/130 136/291/130 135/289/130 134/287/130
f 105/223/131 1/3/131 88/195/131 59/147/131 108/230/131 2/5/131
f 86/192/132 85/188/132 83/185/132
f 83/185/133 85/188/133 18/46/133 23/58/133
f 63/153/134 15/39/134 23/59/134 18/47/134 12/32/134
f 84/187/135 18/48/135 85/189/135
l 52 106
