# Blender 3.3.1
# www.blender.org
mtllib monstruo_3_grande_caminar576.mtl
o monstruo_grande
v 0.435220 2.011359 0.237733
v 0.526880 1.139292 0.043261
v -0.671328 1.818765 0.092172
v -0.290374 1.211283 0.221278
v 0.720539 2.267251 -0.039764
v 0.592348 1.615210 -0.226999
v -0.736988 1.999779 -0.364719
v -0.680447 1.681309 -0.385951
v -0.279387 2.439321 0.359525
v 0.267499 2.309984 0.402889
v -0.425265 2.421732 0.448485
v -1.102224 2.084872 -0.263976
v -0.227095 2.579309 -0.004554
v 0.311765 2.432251 0.134113
v -0.982688 1.956673 -0.071791
v -0.384342 2.661422 -0.004097
v -0.790979 2.363859 0.425779
v -1.430782 2.046024 -0.044968
v -1.185164 2.085847 0.199015
v -0.913443 2.665375 0.114099
v -0.568228 2.715044 0.038785
v -0.506107 2.381226 0.420685
v -1.112407 1.982951 -0.096647
v -1.903485 0.835020 0.621882
v -1.785979 0.808718 0.684097
v -1.754683 0.626589 0.490466
v -1.826405 0.642643 0.452492
v 0.390058 2.214105 0.406336
v 0.579104 2.390353 0.195076
v 0.374428 2.332772 0.411369
v 0.439200 2.448977 0.189156
v 0.638120 1.920323 0.322441
v 0.843695 1.926853 0.249597
v 0.666549 1.975654 0.372204
v 0.808289 2.067200 0.268482
v 0.707277 1.700530 0.512426
v 0.818617 1.690546 0.486132
v 0.736301 1.722203 0.612121
v 0.847203 1.716794 0.581340
v 0.669963 1.602537 0.628807
v 0.899988 1.591180 0.567910
v 0.662292 1.623625 0.824615
v 1.009485 1.604149 0.727890
v -0.117012 2.482320 0.398312
v 0.091448 2.449953 0.403241
v -0.089399 2.567122 0.146112
v 0.112460 2.532050 0.154795
v -0.063495 2.797808 0.535864
v 0.142581 2.727602 0.513161
v -0.057530 2.899495 0.277016
v 0.147842 2.829548 0.253466
v -0.499735 1.177053 0.027710
v -0.394100 1.146521 -0.187967
v -0.035348 1.258940 -0.337888
v -0.707219 1.841199 -0.140302
v 0.541387 1.248323 -0.164268
v 0.322140 1.292954 -0.277723
v 0.040413 1.508131 -0.343002
v -0.022863 1.124053 0.185715
v 0.540262 2.082805 0.144992
v -0.254602 2.488761 0.232269
v -0.412589 2.658328 0.268744
v -0.901344 2.008626 -0.184324
v 0.268097 2.431476 0.291703
v -0.794734 2.586875 0.361169
v -1.356915 2.199669 0.205942
v -0.564978 2.650802 0.246472
v -1.859947 0.822205 0.681868
v -1.766305 0.515764 0.375453
v 0.507132 2.313957 0.342747
v 0.409195 2.437782 0.320395
v 0.720528 1.892913 0.242967
v 0.762411 2.030766 0.368327
v 0.762771 1.697126 0.497366
v 0.791759 1.719092 0.596670
v 0.778799 1.587404 0.576664
v 0.823701 1.596515 0.736003
v -0.105272 2.523623 0.270599
v 0.099553 2.492551 0.277846
v -0.091797 2.850617 0.406717
v 0.176623 2.776944 0.383657
v -1.636274 1.124244 0.637009
v -1.696824 0.951929 0.567576
v -1.841233 1.140103 0.531525
v -1.807426 0.976685 0.509018
v -1.752842 0.795701 0.468371
v -1.768771 1.115816 0.633790
v -0.054071 1.810969 0.459991
v 0.205156 2.128546 -0.255715
v 0.132177 2.522717 -0.022742
v 0.004367 2.322091 0.539894
v 0.006656 2.548648 0.148325
v -0.007181 2.464097 0.399916
v 0.045927 2.879440 0.225836
v 0.038610 2.747447 0.563229
v 0.045789 2.865120 0.415749
v 0.142999 2.691091 0.178692
v 0.132152 2.578688 0.474747
v -0.104298 2.633092 0.490250
v -0.095536 2.746712 0.190955
v -0.117071 2.691434 0.341125
v 0.152472 2.634876 0.326423
v 0.023348 2.726334 0.163812
v 0.014517 2.596856 0.502887
v 0.513796 1.642414 0.074854
v -0.583668 1.540446 0.145815
v 0.639672 1.825368 -0.200034
v 0.173696 1.068827 0.156988
v -0.208694 0.050057 0.181133
v -0.353520 0.062547 0.302745
v -0.378232 0.054055 0.052015
v -0.243095 0.046474 0.038156
v 0.367172 0.006273 -0.360203
v 0.292270 0.010167 -0.434956
v 0.375709 0.009216 -0.398746
v 0.343639 0.009809 -0.424527
v 0.308439 0.004712 -0.348978
v 0.088606 0.913433 -0.264141
v 0.168335 0.624594 -0.295727
v 0.227931 0.326466 -0.346472
v 0.263128 0.257854 -0.181665
v 0.229444 0.473528 -0.043058
v 0.218362 0.728812 0.068394
v 0.385013 0.272423 -0.203493
v 0.434981 0.502705 -0.079024
v 0.500490 0.827837 0.026499
v 0.342722 0.948749 -0.242969
v 0.348110 0.620021 -0.266094
v 0.334848 0.323182 -0.326933
v 0.401996 0.305885 -0.277085
v 0.462001 0.592997 -0.185417
v 0.515630 0.925168 -0.139498
v -0.162507 0.977001 0.377203
v -0.144791 0.675994 0.379161
v -0.145697 0.429565 0.395158
v -0.431099 0.421619 0.388177
v -0.436529 0.694340 0.326785
v -0.455022 0.943987 0.269673
v -0.466427 0.418123 0.118255
v -0.470607 0.686951 0.058302
v -0.480149 0.895808 -0.002762
v -0.085286 0.845416 -0.036711
v -0.128256 0.653889 0.015593
v -0.174344 0.451652 0.077794
vn 0.0317 0.5095 -0.8599
vn 0.0214 -0.0324 -0.9992
vn 0.4155 -0.2091 -0.8852
vn -0.3423 -0.1878 0.9206
vn 0.9248 -0.1520 0.3487
vn 0.6251 0.7527 0.2067
vn 0.2323 0.8804 -0.4135
vn 0.4624 -0.1991 0.8640
vn -0.0814 0.9445 0.3183
vn -0.0144 0.4844 -0.8747
vn -0.2524 -0.4139 0.8747
vn -0.4259 -0.8713 -0.2440
vn -0.3556 -0.0253 0.9343
vn 0.2087 -0.8469 0.4891
vn 0.8994 -0.3059 0.3122
vn -0.1334 -0.6831 0.7180
vn 0.1431 0.9791 0.1446
vn -0.1086 -0.7245 0.6807
vn -0.7322 0.3259 0.5980
vn 0.9669 -0.0434 -0.2513
vn -0.8015 0.0704 -0.5938
vn 0.5193 0.7425 0.4231
vn 0.1828 0.1704 0.9683
vn -0.4070 -0.4926 0.7693
vn -0.1863 0.6703 0.7184
vn -0.9388 0.0356 0.3425
vn -0.0346 -0.6023 -0.7975
vn 0.8616 0.5013 0.0800
vn -0.4727 -0.5869 0.6574
vn 0.7868 0.3824 -0.4845
vn -0.1147 0.6218 0.7747
vn 0.9994 0.0336 0.0107
vn 0.0970 -0.7454 -0.6595
vn 0.0398 -0.9980 0.0497
vn -0.0966 -0.6353 -0.7662
vn -0.8750 0.4841 -0.0068
vn 0.3601 0.7698 0.5270
vn 0.9884 -0.0322 -0.1486
vn 0.3186 0.5823 0.7479
vn 0.1608 0.9858 -0.0482
vn -0.2976 0.9121 0.2820
vn 0.3952 0.8947 0.2081
vn 0.0574 0.9782 0.1996
vn -0.9719 0.1310 0.1958
vn 0.2635 -0.3293 0.9067
vn -0.2194 0.4600 -0.8604
vn -0.7860 -0.5353 -0.3092
vn -0.9324 -0.2912 0.2139
vn 0.2228 0.1028 -0.9694
vn -0.9643 0.2448 -0.1012
vn 0.0483 0.8520 0.5214
vn 0.4119 0.7416 0.5295
vn -0.2733 0.9121 0.3056
vn 0.9785 -0.1593 0.1309
vn 0.0426 0.7855 0.6174
vn -0.3556 -0.6213 -0.6982
vn -0.1052 -0.9899 0.0952
vn -0.5082 -0.6889 -0.5168
vn 0.5256 0.5703 0.6313
vn -0.3139 -0.7801 -0.5412
vn -0.0910 0.9957 0.0180
vn 0.6062 0.5742 0.5503
vn 0.4720 0.2807 0.8357
vn -0.3012 0.2405 -0.9227
vn -0.0220 0.1628 0.9864
vn -0.7309 -0.5852 0.3512
vn -0.2811 0.5326 0.7983
vn -0.6979 0.6970 0.1647
vn -0.4156 -0.8448 -0.3372
vn 0.1354 0.4461 0.8847
vn 0.5414 0.5811 0.6075
vn 0.1291 0.3399 0.9316
vn -0.3148 0.5692 -0.7595
vn -0.8687 0.4563 0.1928
vn 0.9072 -0.3209 0.2722
vn 0.5002 0.7066 0.5005
vn 0.3128 0.3792 -0.8709
vn -0.2687 -0.2567 0.9284
vn 0.5076 0.8514 0.1326
vn 0.3560 0.9344 -0.0096
vn -0.1710 0.5765 0.7990
vn -0.5243 -0.0521 0.8499
vn 0.2917 0.7142 -0.6362
vn -0.1803 -0.5423 0.8206
vn 0.1164 0.0993 -0.9882
vn 0.9474 -0.3197 -0.0170
vn -0.9906 -0.0057 -0.1369
vn -0.0835 0.1683 -0.9822
vn 0.0121 -0.5570 0.8304
vn -1.0000 0.0008 0.0040
vn 0.9655 -0.2491 -0.0758
vn -0.0550 -0.9951 -0.0828
vn 0.2365 -0.3611 0.9020
vn -0.9622 -0.2417 0.1257
vn -0.9625 -0.2451 0.1166
vn 0.9829 -0.1200 -0.1394
vn -0.1329 0.1318 -0.9823
vn -0.0529 -0.9979 0.0385
vn 0.0143 -0.9979 -0.0633
vn 0.1987 -0.5112 0.8362
vn 0.1842 0.2982 -0.9366
vn 0.9725 -0.1600 0.1694
vn 0.6150 0.2510 -0.7475
vn 0.4715 -0.0820 -0.8781
vn 0.5456 0.0476 -0.8367
vn 0.6007 0.1306 -0.7888
vn 0.9961 -0.0814 0.0341
vn 0.9826 -0.1839 0.0254
vn 0.9687 -0.2368 0.0740
vn 0.1446 -0.1241 -0.9817
vn 0.1085 0.1026 -0.9888
vn 0.1710 0.1945 -0.9659
vn 0.2720 -0.1462 0.9511
vn 0.2386 -0.3596 0.9021
vn 0.2149 -0.5020 0.8377
vn -0.9322 -0.2352 0.2752
vn -0.9586 -0.2104 0.1919
vn -0.9701 -0.2166 0.1098
vn -0.1517 -0.5635 -0.8120
vn -0.1290 -0.2602 -0.9569
vn -0.1261 -0.2385 -0.9629
vn 0.9078 0.3091 0.2833
vn 0.9912 -0.0369 0.1268
vn 0.9941 -0.1072 -0.0177
vn -0.9866 -0.0520 -0.1544
vn -0.9932 -0.0319 0.1120
vn -0.9918 0.0110 0.1276
vn -0.5039 0.4445 0.7406
vn -0.2650 0.0856 0.9604
vn -0.0986 0.1459 0.9844
vn 0.4116 -0.2083 0.8872
vn 0.4983 0.3303 -0.8016
vn -0.0825 -0.4715 -0.8780
vn -0.1791 -0.8402 -0.5118
vn -0.7592 -0.0679 -0.6473
vt 0.882279 0.260085
vt 0.436089 0.649131
vt 0.117664 0.305524
vt 0.860974 0.338762
vt 0.079561 0.383885
vt 0.278417 0.728674
vt 0.111517 0.716819
vt 0.301243 0.337859
vt 0.232943 0.387386
vt 0.111517 0.662267
vt 0.671871 0.687525
vt 0.175114 0.511099
vt 0.930991 0.712692
vt 0.796001 0.259488
vt 0.522181 0.649131
vt 0.719621 0.316178
vt 0.801110 0.310020
vt 0.698705 0.366293
vt 0.510656 0.337024
vt 0.023033 0.717149
vt 0.367094 0.730187
vt 0.507246 0.358198
vt 0.018976 0.695717
vt 0.103380 0.570561
vt 0.268725 0.266033
vt 0.143950 0.273348
vt 0.098384 0.631539
vt 0.301351 0.259488
vt 0.128079 0.559933
vt 0.480438 0.333338
vt 0.348619 0.714075
vt 0.604958 0.268707
vt 0.031105 0.562973
vt 0.043818 0.625810
vt 0.721993 0.282954
vt 0.329365 0.336360
vt 0.302724 0.713315
vt 0.030374 0.549675
vt 0.582817 0.260846
vt 0.875347 0.642471
vt 0.380514 0.272320
vt 0.124895 0.517524
vt 0.813390 0.578569
vt 0.436089 0.332372
vt 0.956124 0.588845
vt 0.367094 0.692599
vt 0.367094 0.522797
vt 0.871643 0.594841
vt 0.398138 0.324445
vt 0.043891 0.509019
vt 0.796001 0.641153
vt 0.491075 0.268473
vt 0.032114 0.534706
vt 0.552485 0.259488
vt 0.331566 0.259909
vt 0.129819 0.544964
vt 0.339759 0.337186
vt 0.913298 0.588845
vt 0.317584 0.707220
vt 0.845734 0.463378
vt 0.311567 0.646434
vt 0.944558 0.353645
vt 0.398138 0.462439
vt 0.920230 0.354337
vt 0.870057 0.463781
vt 0.929709 0.374247
vt 0.357807 0.478584
vt 0.347994 0.663056
vt 0.944558 0.373825
vt 0.097076 0.285727
vt 0.229765 0.651022
vt 0.758050 0.297859
vt 0.168317 0.651042
vt 0.119329 0.272208
vt 0.094178 0.643292
vt 0.222768 0.636959
vt 0.746872 0.283208
vt 0.174541 0.636975
vt 0.045175 0.638147
vt 0.080672 0.327471
vt 0.442544 0.673801
vt 0.734592 0.339187
vt 0.484453 0.673801
vt 0.070725 0.319456
vt 0.218298 0.685110
vt 0.751374 0.331694
vt 0.180611 0.684911
vt 0.062412 0.356092
vt 0.455575 0.702696
vt 0.724658 0.367821
vt 0.476314 0.702696
vt 0.043357 0.357400
vt 0.210236 0.723455
vt 0.742364 0.370210
vt 0.189444 0.723462
vt 0.050281 0.367705
vt 0.444942 0.715336
vt 0.810526 0.722486
vt 0.728448 0.380153
vt 0.853695 0.722486
vt 0.487920 0.715336
vt 0.018975 0.371756
vt 0.232852 0.738567
vt 0.796001 0.739289
vt 0.758050 0.386241
vt 0.861207 0.739289
vt 0.167770 0.738589
vt 0.100634 0.583041
vt 0.712300 0.698974
vt 0.802197 0.701507
vt 0.098640 0.600731
vt 0.972705 0.287497
vt 0.747907 0.696578
vt 0.052045 0.577939
vt 0.849895 0.701507
vt 0.710445 0.675017
vt 0.050052 0.595630
vt 0.746553 0.677603
vt 0.924885 0.287497
vt 0.797725 0.671259
vt 0.981025 0.313792
vt 0.715147 0.730011
vt 0.752543 0.724602
vt 0.973919 0.259495
vt 0.967002 0.332143
vt 0.934252 0.306472
vt 0.715328 0.644023
vt 0.847669 0.671259
vt 0.923848 0.259495
vt 0.753088 0.649631
vt 0.920230 0.324823
vt 0.068284 0.665533
vt 0.630362 0.705721
vt 0.712055 0.621316
vt 0.966165 0.712391
vt 0.519769 0.388732
vt 0.031375 0.663704
vt 0.592215 0.695479
vt 0.581836 0.620019
vt 0.750017 0.621843
vt 0.569690 0.667298
vt 0.581066 0.387596
vt 0.531739 0.516092
vt 0.642835 0.625048
vt 0.273616 0.509019
vt 0.070982 0.710642
vt 0.316851 0.732164
vt 0.684917 0.393810
vt 0.816625 0.338063
vt 0.644803 0.392946
vt 0.602800 0.367236
vt 0.671871 0.661666
vt 0.181146 0.386242
vt 0.855113 0.259897
vt 0.463196 0.649131
vt 0.077903 0.567886
vt 0.078993 0.554271
vt 0.322237 0.720993
vt 0.070972 0.628379
vt 0.834014 0.651825
vt 0.084160 0.512738
vt 0.838315 0.596273
vt 0.320679 0.509019
vt 0.080733 0.539302
vt 0.857365 0.464048
vt 0.931678 0.351118
vt 0.335174 0.488977
vt 0.367094 0.673623
vt 0.939667 0.384854
vt 0.199177 0.651021
vt 0.069465 0.641494
vt 0.198664 0.632807
vt 0.464209 0.672968
vt 0.199604 0.684998
vt 0.465945 0.702696
vt 0.199840 0.723459
vt 0.466714 0.715004
vt 0.832520 0.720483
vt 0.200177 0.738589
vt 0.829423 0.735282
vt 0.076340 0.580490
vt 0.826046 0.701507
vt 0.074346 0.598181
vt 0.948795 0.287497
vt 0.823088 0.670800
vt 0.959731 0.307426
vt 0.948976 0.259488
vt 0.941524 0.331189
vt 0.875347 0.491894
vt 0.391834 0.432095
vt 0.377694 0.448634
vt 0.915590 0.478791
vt 0.834644 0.488373
vt 0.326937 0.619279
vt 0.938593 0.478810
vt 0.335216 0.632947
vt 0.358601 0.463790
vt 0.348787 0.648138
vt 0.927106 0.463378
vt 0.854274 0.489560
vt 0.315804 0.619182
vt 0.212520 0.321385
vt 0.644070 0.318501
vt 0.018976 0.592450
vt 0.663817 0.276029
vt 0.129819 0.597828
vt 0.224108 0.269832
vt 0.051049 0.586785
vt 0.728499 0.676310
vt 0.099637 0.591886
vt 0.730103 0.697776
vt 0.734390 0.646904
vt 0.920230 0.314550
vt 0.981025 0.324065
vt 0.732426 0.727384
vt 0.950683 0.319044
vt 0.753088 0.663662
vt 0.920230 0.273492
vt 0.977552 0.273492
vt 0.752543 0.710647
vt 0.709822 0.714522
vt 0.796001 0.686127
vt 0.853178 0.686127
vt 0.709822 0.659561
vt 0.824792 0.685890
vt 0.948939 0.273488
vt 0.731549 0.661651
vt 0.730449 0.712624
vt 0.878850 0.297575
vt 0.096711 0.342677
vt 0.285581 0.357771
vt 0.108549 0.696221
vt 0.804979 0.293594
vt 0.708839 0.350023
vt 0.668288 0.644023
vt 0.436089 0.526409
vt 0.145034 0.385321
vt 0.919159 0.607821
vt 0.247387 0.613831
vt 0.970304 0.416607
vt 0.947808 0.608020
vt 0.704660 0.516092
vt 0.970304 0.403829
vt 0.750017 0.516884
vt 0.618892 0.516092
vt 0.920230 0.404231
vt 0.273616 0.612878
vt 0.642836 0.516847
vt 0.938584 0.415207
vt 0.924281 0.443436
vt 0.075400 0.489812
vt 0.855524 0.444402
vt 0.531739 0.629156
vt 0.934913 0.435583
vt 0.576828 0.496673
vt 0.931440 0.443424
vt 0.848383 0.444289
vt 0.592622 0.497116
vt 0.934913 0.440184
vt 0.586164 0.496977
vt 0.517161 0.630156
vt 0.920230 0.438606
vt 0.085942 0.490043
vt 0.585376 0.420489
vt 0.510472 0.551446
vt 0.582586 0.444044
vt 0.504260 0.576063
vt 0.581388 0.469636
vt 0.508131 0.602400
vt 0.103684 0.463024
vt 0.477645 0.604263
vt 0.118194 0.440373
vt 0.454885 0.581958
vt 0.129418 0.415411
vt 0.438452 0.557360
vt 0.876897 0.417052
vt 0.081901 0.462161
vt 0.882279 0.393921
vt 0.081653 0.438865
vt 0.880271 0.363315
vt 0.079604 0.408162
vt 0.633117 0.418943
vt 0.615530 0.444447
vt 0.600997 0.469910
vt 0.614559 0.469949
vt 0.862035 0.416811
vt 0.638313 0.444473
vt 0.857648 0.390640
vt 0.666106 0.417503
vt 0.844696 0.362700
vt 0.167770 0.536691
vt 0.914144 0.688660
vt 0.182151 0.561697
vt 0.913298 0.663084
vt 0.189855 0.582503
vt 0.915415 0.641729
vt 0.680787 0.549268
vt 0.966165 0.641681
vt 0.684678 0.573659
vt 0.963812 0.665813
vt 0.684995 0.596421
vt 0.964308 0.688427
vt 0.584794 0.548886
vt 0.729850 0.550060
vt 0.578610 0.572959
vt 0.734888 0.574452
vt 0.569690 0.595426
vt 0.736445 0.597214
vt 0.642060 0.590920
vt 0.247172 0.543053
vt 0.641052 0.570535
vt 0.248998 0.562413
vt 0.635978 0.552556
vt 0.245738 0.579271
s 0
usemtl Material
f 89/203/1 7/19/1 13/32/1 90/205/1
f 8/22/2 7/19/2 89/203/2 58/151/2 54/142/2 53/136/2
f 6/18/3 56/148/3 57/150/3
f 3/8/4 106/231/4 4/9/4 59/153/4 88/202/4
f 6/17/5 107/233/5 5/14/5 60/154/5 1/1/5 105/229/5 2/4/5 56/149/5
f 61/156/6 13/33/6 16/38/6 62/157/6
f 5/16/7 14/35/7 31/77/7 29/72/7
f 88/202/8 1/3/8 10/26/8 91/207/8
f 67/164/9 21/53/9 20/50/9 65/161/9
f 13/32/10 7/19/10 12/30/10 16/39/10
f 3/8/11 9/25/11 11/28/11 15/36/11
f 55/147/12 3/6/12 15/37/12 63/158/12
f 66/162/13 19/48/13 17/40/13 65/160/13
f 23/57/14 22/55/14 17/41/14 19/49/14
f 83/191/15 82/190/15 25/63/15 26/67/15
f 15/36/16 11/28/16 22/55/16 23/57/16
f 62/157/17 16/38/17 21/53/17 67/164/17
f 69/169/18 26/66/18 25/64/18 68/166/18
f 87/200/19 84/193/19 24/60/19 68/165/19
f 86/197/20 83/191/20 26/67/20 69/167/20
f 84/194/21 85/196/21 27/68/21 24/61/21
f 70/170/22 29/73/22 31/78/22 71/172/22
f 70/170/23 28/71/23 34/85/23 73/174/23
f 10/26/24 1/3/24 28/70/24 30/74/24
f 64/159/25 10/27/25 30/75/25 71/171/25
f 34/84/26 32/80/26 36/88/26 38/92/26
f 60/155/27 5/15/27 33/83/27 72/173/27
f 5/16/28 29/72/28 35/86/28 33/82/28
f 28/70/29 1/3/29 32/80/29 34/84/29
f 37/90/30 39/94/30 43/105/30 41/99/30
f 73/174/31 34/85/31 38/93/31 75/176/31
f 33/82/32 35/86/32 39/94/32 37/90/32
f 72/173/33 33/83/33 37/91/33 74/175/33
f 76/178/34 41/100/34 43/106/34 77/180/34
f 74/175/35 37/91/35 41/101/35 76/177/35
f 38/92/36 36/88/36 40/96/36 42/102/36
f 75/176/37 38/93/37 42/103/37 77/179/37
f 102/226/38 97/218/38 51/129/38 81/187/38
f 91/206/39 10/27/39 45/111/39 93/210/39
f 90/204/40 13/33/40 46/114/40 92/208/40
f 61/156/41 9/24/41 44/108/41 78/181/41
f 64/159/42 14/34/42 47/117/42 79/183/42
f 96/216/43 94/213/43 50/126/43 80/186/43
f 101/225/44 99/222/44 48/120/44 80/185/44
f 104/228/45 98/220/45 49/123/45 95/215/45
f 103/227/46 100/224/46 50/127/46 94/212/46
f 8/23/47 53/137/47 52/132/47
f 8/23/48 52/132/48 4/10/48 106/232/48 3/7/48 55/146/48 7/20/48
f 54/142/49 58/151/49 89/203/49 5/16/49 107/234/49 6/18/49 57/150/49
f 100/223/50 101/225/50 80/185/50 50/128/50
f 95/214/51 96/216/51 80/186/51 48/121/51
f 10/27/52 64/159/52 79/183/52 45/111/52
f 13/33/53 61/156/53 78/181/53 46/114/53
f 98/219/54 102/226/54 81/187/54 49/124/54
f 39/95/55 75/176/55 77/179/55 43/107/55
f 36/89/56 74/175/56 76/177/56 40/97/56
f 40/98/57 76/178/57 77/180/57 42/104/57
f 32/81/58 72/173/58 74/175/58 36/89/58
f 35/87/59 73/174/59 75/176/59 39/95/59
f 1/2/60 60/155/60 72/173/60 32/81/60
f 14/34/61 64/159/61 71/171/61 31/79/61
f 29/73/62 70/170/62 73/174/62 35/87/62
f 28/71/63 70/170/63 71/172/63 30/76/63
f 85/196/64 86/198/64 69/168/64 27/68/64
f 82/189/65 87/200/65 68/165/65 25/65/65
f 27/69/66 69/169/66 68/166/66 24/62/66
f 11/29/67 62/157/67 67/164/67 22/56/67
f 18/43/68 66/162/68 65/160/68 20/51/68
f 7/21/69 55/147/69 63/158/69 12/31/69
f 22/56/70 67/164/70 65/161/70 17/42/70
f 9/24/71 61/156/71 62/157/71 11/29/71
f 19/48/72 66/162/72 87/200/72 82/189/72
f 12/30/73 18/44/73 20/52/73 21/54/73 16/39/73
f 66/163/74 18/47/74 84/194/74 87/201/74
f 23/57/75 19/49/75 82/190/75 83/191/75
f 49/125/76 81/188/76 96/216/76 95/214/76
f 97/217/77 103/227/77 94/212/77 51/130/77
f 99/221/78 104/228/78 95/215/78 48/122/78
f 81/188/79 51/131/79 94/213/79 96/216/79
f 14/34/80 90/204/80 92/208/80 47/117/80
f 9/24/81 91/206/81 93/210/81 44/108/81
f 3/8/82 88/202/82 91/207/82 9/25/82
f 5/16/83 89/203/83 90/205/83 14/35/83
f 44/109/84 93/211/84 104/228/84 99/221/84
f 47/118/85 92/209/85 103/227/85 97/217/85
f 45/112/86 79/184/86 102/226/86 98/219/86
f 46/115/87 78/182/87 101/225/87 100/223/87
f 92/209/88 46/116/88 100/224/88 103/227/88
f 93/211/89 45/113/89 98/220/89 104/228/89
f 78/182/90 44/110/90 99/222/90 101/225/90
f 79/184/91 47/119/91 97/218/91 102/226/91
f 59/152/92 4/11/92 52/133/92 53/138/92 54/141/92 108/235/92
f 136/298/93 110/241/93 109/238/93 135/296/93
f 121/271/94 120/269/94 114/253/94 117/261/94
f 139/304/95 111/244/95 110/242/95 136/297/95
f 135/295/96 109/239/96 112/247/96 144/314/96
f 144/313/97 112/248/97 111/245/97 139/303/97
f 111/246/98 112/249/98 109/240/98 110/243/98
f 117/262/99 114/254/99 116/259/99 115/256/99 113/250/99
f 124/277/100 121/270/100 117/263/100 113/251/100
f 120/268/101 129/284/101 116/260/101 114/255/101
f 130/286/102 124/276/102 113/252/102 115/257/102
f 129/284/103 130/285/103 115/258/103 116/260/103
f 57/150/104 56/148/104 132/289/104 127/282/104
f 127/282/105 132/289/105 131/287/105 128/283/105
f 128/283/106 131/287/106 130/285/106 129/284/106
f 56/149/107 2/4/107 126/280/107 132/290/107
f 132/290/108 126/280/108 125/278/108 131/288/108
f 131/288/109 125/278/109 124/276/109 130/286/109
f 54/142/110 57/150/110 127/282/110 118/264/110
f 118/264/111 127/282/111 128/283/111 119/266/111
f 119/266/112 128/283/112 129/284/112 120/268/112
f 2/5/113 108/237/113 123/274/113 126/281/113
f 126/281/114 123/274/114 122/272/114 125/279/114
f 125/279/115 122/272/115 121/270/115 124/277/115
f 108/236/116 54/143/116 118/265/116 123/275/116
f 123/275/117 118/265/117 119/267/117 122/273/117
f 122/273/118 119/267/118 120/269/118 121/271/118
f 54/144/119 142/309/119 141/307/119 53/139/119
f 142/309/120 143/311/120 140/305/120 141/307/120
f 143/311/121 144/313/121 139/303/121 140/305/121
f 4/12/122 133/291/122 142/310/122 54/145/122
f 133/291/123 134/293/123 143/312/123 142/310/123
f 134/293/124 135/295/124 144/314/124 143/312/124
f 53/140/125 141/308/125 138/301/125 52/134/125
f 141/308/126 140/306/126 137/299/126 138/301/126
f 140/306/127 139/304/127 136/297/127 137/299/127
f 52/135/128 138/302/128 133/292/128 4/13/128
f 138/302/129 137/300/129 134/294/129 133/292/129
f 137/300/130 136/298/130 135/296/130 134/294/130
f 105/230/131 1/3/131 88/202/131 59/153/131 108/237/131 2/5/131
f 86/199/132 85/195/132 83/192/132
f 83/192/133 85/195/133 18/45/133 23/58/133
f 63/158/134 15/37/134 23/59/134 18/46/134 12/31/134
f 84/194/135 18/47/135 85/196/135
l 52 106
