# Blender 3.3.1
# www.blender.org
mtllib monstruo_3_caminar576.mtl
o monstruo_grande
v 0.435220 2.011359 0.237733
v 0.526880 1.139292 0.043261
v -0.671328 1.818765 0.092172
v -0.290374 1.211283 0.221278
v 0.720539 2.267251 -0.039764
v 0.592348 1.615210 -0.226999
v -0.736988 1.999779 -0.364719
v -0.680447 1.681309 -0.385951
v -0.279387 2.439321 0.359525
v 0.267499 2.309984 0.402889
v -0.425265 2.421732 0.448485
v -1.102224 2.084872 -0.263976
v -0.227095 2.579309 -0.004554
v 0.311765 2.432251 0.134113
v -0.982688 1.956673 -0.071791
v -0.384342 2.661422 -0.004097
v -0.790979 2.363859 0.425779
v -1.430782 2.046024 -0.044968
v -1.185164 2.085847 0.199015
v -0.913443 2.665375 0.114099
v -0.568228 2.715044 0.038785
v -0.506107 2.381226 0.420685
v -1.112407 1.982951 -0.096647
v -1.903485 0.835020 0.621882
v -1.785979 0.808718 0.684097
v -1.754683 0.626589 0.490466
v -1.826405 0.642643 0.452492
v 0.390058 2.214105 0.406336
v 0.579104 2.390353 0.195076
v 0.374428 2.332772 0.411369
v 0.439200 2.448977 0.189156
v 0.638120 1.920323 0.322441
v 0.843695 1.926853 0.249597
v 0.666549 1.975654 0.372204
v 0.808289 2.067200 0.268482
v 0.707277 1.700530 0.512426
v 0.818617 1.690546 0.486132
v 0.736301 1.722203 0.612121
v 0.847203 1.716794 0.581340
v 0.669963 1.602537 0.628807
v 0.899988 1.591180 0.567910
v 0.662292 1.623625 0.824615
v 1.009485 1.604149 0.727890
v -0.117012 2.482320 0.398312
v 0.091448 2.449953 0.403241
v -0.089399 2.567122 0.146112
v 0.112460 2.532050 0.154795
v -0.063495 2.797808 0.535864
v 0.142581 2.727602 0.513161
v -0.057530 2.899495 0.277016
v 0.147842 2.829548 0.253466
v -0.499735 1.177053 0.027710
v -0.394100 1.146521 -0.187967
v -0.035348 1.258940 -0.337888
v -0.707219 1.841199 -0.140302
v 0.541387 1.248323 -0.164268
v 0.322140 1.292954 -0.277723
v 0.040413 1.508131 -0.343002
v -0.022863 1.124053 0.185715
v 0.540262 2.082805 0.144992
v -0.254602 2.488761 0.232269
v -0.412589 2.658328 0.268744
v -0.901344 2.008626 -0.184324
v 0.268097 2.431476 0.291703
v -0.794734 2.586875 0.361169
v -1.356915 2.199669 0.205942
v -0.564978 2.650802 0.246472
v -1.859947 0.822205 0.681868
v -1.766305 0.515764 0.375453
v 0.507132 2.313957 0.342747
v 0.409195 2.437782 0.320395
v 0.720528 1.892913 0.242967
v 0.762411 2.030766 0.368327
v 0.762771 1.697126 0.497366
v 0.791759 1.719092 0.596670
v 0.778799 1.587404 0.576664
v 0.823701 1.596515 0.736003
v -0.105272 2.523623 0.270599
v 0.099553 2.492551 0.277846
v -0.091797 2.850617 0.406717
v 0.176623 2.776944 0.383657
v -1.636274 1.124244 0.637009
v -1.696824 0.951929 0.567576
v -1.841233 1.140103 0.531525
v -1.807426 0.976685 0.509018
v -1.752842 0.795701 0.468371
v -1.768771 1.115816 0.633790
v -0.054071 1.810969 0.459991
v 0.205156 2.128546 -0.255715
v 0.132177 2.522717 -0.022742
v 0.004367 2.322091 0.539894
v 0.006656 2.548648 0.148325
v -0.007181 2.464097 0.399916
v 0.045927 2.879440 0.225836
v 0.038610 2.747447 0.563229
v 0.045789 2.865120 0.415749
v 0.142999 2.691091 0.178692
v 0.132152 2.578688 0.474747
v -0.104298 2.633092 0.490250
v -0.095536 2.746712 0.190955
v -0.117071 2.691434 0.341125
v 0.152472 2.634876 0.326423
v 0.023348 2.726334 0.163812
v 0.014517 2.596856 0.502887
v 0.513796 1.642414 0.074854
v -0.583668 1.540446 0.145815
v 0.639672 1.825368 -0.200034
v 0.173696 1.068827 0.156988
v -0.208694 0.050057 0.181133
v -0.353520 0.062547 0.302745
v -0.378232 0.054055 0.052015
v -0.243095 0.046474 0.038156
v 0.367172 0.006273 -0.360203
v 0.292270 0.010167 -0.434956
v 0.375709 0.009216 -0.398746
v 0.343639 0.009809 -0.424527
v 0.308439 0.004712 -0.348978
v 0.088606 0.913433 -0.264141
v 0.168335 0.624594 -0.295727
v 0.227931 0.326466 -0.346472
v 0.263128 0.257854 -0.181665
v 0.229444 0.473528 -0.043058
v 0.218362 0.728812 0.068394
v 0.385013 0.272423 -0.203493
v 0.434981 0.502705 -0.079024
v 0.500490 0.827837 0.026499
v 0.342722 0.948749 -0.242969
v 0.348110 0.620021 -0.266094
v 0.334848 0.323182 -0.326933
v 0.401996 0.305885 -0.277085
v 0.462001 0.592997 -0.185417
v 0.515630 0.925168 -0.139498
v -0.162507 0.977001 0.377203
v -0.144791 0.675994 0.379161
v -0.145697 0.429565 0.395158
v -0.431099 0.421619 0.388177
v -0.436529 0.694340 0.326785
v -0.455022 0.943987 0.269673
v -0.466427 0.418123 0.118255
v -0.470607 0.686951 0.058302
v -0.480149 0.895808 -0.002762
v -0.085286 0.845416 -0.036711
v -0.128256 0.653889 0.015593
v -0.174344 0.451652 0.077794
vn 0.0317 0.5095 -0.8599
vn 0.0214 -0.0324 -0.9992
vn 0.4155 -0.2091 -0.8852
vn -0.3423 -0.1878 0.9206
vn 0.9248 -0.1520 0.3487
vn 0.6251 0.7527 0.2067
vn 0.2323 0.8804 -0.4135
vn 0.4624 -0.1991 0.8640
vn -0.0814 0.9445 0.3183
vn -0.0144 0.4844 -0.8747
vn -0.2524 -0.4139 0.8747
vn -0.4259 -0.8713 -0.2440
vn -0.3556 -0.0253 0.9343
vn 0.2087 -0.8469 0.4891
vn 0.8994 -0.3059 0.3122
vn -0.1334 -0.6831 0.7180
vn 0.1431 0.9791 0.1446
vn -0.1086 -0.7245 0.6807
vn -0.7322 0.3259 0.5980
vn 0.9669 -0.0434 -0.2513
vn -0.8015 0.0704 -0.5938
vn 0.5193 0.7425 0.4231
vn 0.1828 0.1704 0.9683
vn -0.4070 -0.4926 0.7693
vn -0.1863 0.6703 0.7184
vn -0.9388 0.0356 0.3425
vn -0.0346 -0.6023 -0.7975
vn 0.8616 0.5013 0.0800
vn -0.4727 -0.5869 0.6574
vn 0.7868 0.3824 -0.4845
vn -0.1147 0.6218 0.7747
vn 0.9994 0.0336 0.0107
vn 0.0970 -0.7454 -0.6595
vn 0.0398 -0.9980 0.0497
vn -0.0966 -0.6353 -0.7662
vn -0.8750 0.4841 -0.0068
vn 0.3601 0.7698 0.5270
vn 0.9884 -0.0322 -0.1486
vn 0.3186 0.5823 0.7479
vn 0.1608 0.9858 -0.0482
vn -0.2976 0.9121 0.2820
vn 0.3952 0.8947 0.2081
vn 0.0574 0.9782 0.1996
vn -0.9719 0.1310 0.1958
vn 0.2635 -0.3293 0.9067
vn -0.2194 0.4600 -0.8604
vn -0.7860 -0.5353 -0.3092
vn -0.9324 -0.2912 0.2139
vn 0.2228 0.1028 -0.9694
vn -0.9643 0.2448 -0.1012
vn 0.0483 0.8520 0.5214
vn 0.4119 0.7416 0.5295
vn -0.2733 0.9121 0.3056
vn 0.9785 -0.1593 0.1309
vn 0.0426 0.7855 0.6174
vn -0.3556 -0.6213 -0.6982
vn -0.1052 -0.9899 0.0952
vn -0.5082 -0.6889 -0.5168
vn 0.5256 0.5703 0.6313
vn -0.3139 -0.7801 -0.5412
vn -0.0910 0.9957 0.0180
vn 0.6062 0.5742 0.5503
vn 0.4720 0.2807 0.8357
vn -0.3012 0.2405 -0.9227
vn -0.0220 0.1628 0.9864
vn -0.7309 -0.5852 0.3512
vn -0.2811 0.5326 0.7983
vn -0.6979 0.6970 0.1647
vn -0.4156 -0.8448 -0.3372
vn 0.1354 0.4461 0.8847
vn 0.5414 0.5811 0.6075
vn 0.1291 0.3399 0.9316
vn -0.3148 0.5692 -0.7595
vn -0.8687 0.4563 0.1928
vn 0.9072 -0.3209 0.2722
vn 0.5002 0.7066 0.5005
vn 0.3128 0.3792 -0.8709
vn -0.2687 -0.2567 0.9284
vn 0.5076 0.8514 0.1326
vn 0.3560 0.9344 -0.0096
vn -0.1710 0.5765 0.7990
vn -0.5243 -0.0521 0.8499
vn 0.2917 0.7142 -0.6362
vn -0.1803 -0.5423 0.8206
vn 0.1164 0.0993 -0.9882
vn 0.9474 -0.3197 -0.0170
vn -0.9906 -0.0057 -0.1369
vn -0.0835 0.1683 -0.9822
vn 0.0121 -0.5570 0.8304
vn -1.0000 0.0008 0.0040
vn 0.9655 -0.2491 -0.0758
vn -0.0550 -0.9951 -0.0828
vn 0.2365 -0.3611 0.9020
vn -0.9622 -0.2417 0.1257
vn -0.9625 -0.2451 0.1166
vn 0.9829 -0.1200 -0.1394
vn -0.1329 0.1318 -0.9823
vn -0.0529 -0.9979 0.0385
vn 0.0143 -0.9979 -0.0633
vn 0.1987 -0.5112 0.8362
vn 0.1842 0.2982 -0.9366
vn 0.9725 -0.1600 0.1694
vn 0.6150 0.2510 -0.7475
vn 0.4715 -0.0820 -0.8781
vn 0.5456 0.0476 -0.8367
vn 0.6007 0.1306 -0.7888
vn 0.9961 -0.0814 0.0341
vn 0.9826 -0.1839 0.0254
vn 0.9687 -0.2368 0.0740
vn 0.1446 -0.1241 -0.9817
vn 0.1085 0.1026 -0.9888
vn 0.1710 0.1945 -0.9659
vn 0.2720 -0.1462 0.9511
vn 0.2386 -0.3596 0.9021
vn 0.2149 -0.5020 0.8377
vn -0.9322 -0.2352 0.2752
vn -0.9586 -0.2104 0.1919
vn -0.9701 -0.2166 0.1098
vn -0.1517 -0.5635 -0.8120
vn -0.1290 -0.2602 -0.9569
vn -0.1261 -0.2385 -0.9629
vn 0.9078 0.3091 0.2833
vn 0.9912 -0.0369 0.1268
vn 0.9941 -0.1072 -0.0177
vn -0.9866 -0.0520 -0.1544
vn -0.9932 -0.0319 0.1120
vn -0.9918 0.0110 0.1276
vn -0.5039 0.4445 0.7406
vn -0.2650 0.0856 0.9604
vn -0.0986 0.1459 0.9844
vn 0.4116 -0.2083 0.8872
vn 0.4983 0.3303 -0.8016
vn -0.0825 -0.4715 -0.8780
vn -0.1791 -0.8402 -0.5118
vn -0.7592 -0.0679 -0.6473
vt 0.461701 0.809397
vt 0.301930 0.729761
vt 0.094158 0.499911
vt 0.498737 0.648456
vt 0.250869 0.553264
vt 0.714874 0.752530
vt 0.627854 0.740386
vt 0.227533 0.339544
vt 0.300362 0.438253
vt 0.625828 0.633709
vt 0.338991 0.679376
vt 0.653754 0.621457
vt 0.189641 0.785401
vt 0.531284 0.815038
vt 0.232114 0.729761
vt 0.806952 0.326283
vt 0.527824 0.712310
vt 0.703640 0.331352
vt 0.725736 0.123548
vt 0.557184 0.740386
vt 0.714874 0.681901
vt 0.693091 0.138725
vt 0.558638 0.706064
vt 0.944491 0.391302
vt 0.108931 0.369345
vt 0.090202 0.443431
vt 0.952837 0.467016
vt 0.108059 0.346292
vt 0.960024 0.371234
vt 0.653754 0.712739
vt 0.761990 0.055860
vt 0.265996 0.788213
vt 0.829683 0.188590
vt 0.886815 0.394232
vt 0.909606 0.471204
vt 0.826550 0.267021
vt 0.659457 0.749480
vt 0.206417 0.267620
vt 0.238389 0.812575
vt 0.882743 0.373659
vt 0.837846 0.166681
vt 0.102618 0.289588
vt 0.957957 0.321520
vt 0.918648 0.216117
vt 0.803322 0.012950
vt 0.106348 0.638847
vt 0.232551 0.755661
vt 0.798789 0.485160
vt 0.965752 0.239402
vt 0.153968 0.222285
vt 0.894228 0.312474
vt 0.856067 0.102710
vt 0.881967 0.351902
vt 0.842627 0.144082
vt 0.107159 0.331692
vt 0.958812 0.358201
vt 0.199778 0.246429
vt 0.138792 0.619338
vt 0.232114 0.797406
vt 0.967580 0.012950
vt 0.753483 0.682459
vt 0.843831 0.469074
vt 0.256421 0.022764
vt 0.824689 0.472884
vt 0.987050 0.016155
vt 0.832147 0.505580
vt 0.295109 0.018166
vt 0.782932 0.707368
vt 0.843831 0.503254
vt 0.076417 0.467161
vt 0.958695 0.494573
vt 0.833773 0.298242
vt 0.909847 0.503107
vt 0.076958 0.454690
vt 0.951531 0.482650
vt 0.837149 0.281767
vt 0.912926 0.487172
vt 0.064432 0.532285
vt 0.298790 0.687460
vt 0.825577 0.362572
vt 0.264894 0.686125
vt 0.056614 0.518895
vt 0.959622 0.549977
vt 0.837123 0.350740
vt 0.929664 0.555276
vt 0.051257 0.577890
vt 0.291936 0.641182
vt 0.824256 0.407314
vt 0.275162 0.640522
vt 0.035793 0.577862
vt 0.964581 0.612577
vt 0.838997 0.411720
vt 0.948088 0.615681
vt 0.039898 0.592711
vt 0.301778 0.620707
vt 0.403076 0.772170
vt 0.830596 0.428615
vt 0.403076 0.737417
vt 0.267017 0.619338
vt 0.012950 0.593438
vt 0.987050 0.637067
vt 0.428919 0.781443
vt 0.856067 0.440612
vt 0.428919 0.728949
vt 0.935424 0.646785
vt 0.945356 0.412724
vt 0.357115 0.854737
vt 0.331665 0.779032
vt 0.948027 0.441601
vt 0.799629 0.752473
vt 0.327972 0.853161
vt 0.906904 0.416128
vt 0.370069 0.779032
vt 0.684668 0.778429
vt 0.909575 0.445005
vt 0.655249 0.778999
vt 0.799629 0.791035
vt 0.330193 0.729131
vt 0.557184 0.775635
vt 0.363063 0.804932
vt 0.331684 0.807874
vt 0.754247 0.751428
vt 0.586563 0.768755
vt 0.566112 0.815056
vt 0.689281 0.828405
vt 0.370405 0.729131
vt 0.754247 0.791805
vt 0.657717 0.824383
vt 0.595492 0.808176
vt 0.327830 0.637821
vt 0.590400 0.642651
vt 0.164818 0.789976
vt 0.357235 0.619338
vt 0.642851 0.190721
vt 0.562581 0.649581
vt 0.406824 0.626953
vt 0.080449 0.619338
vt 0.646201 0.239681
vt 0.727583 0.656002
vt 0.597847 0.731399
vt 0.712829 0.722239
vt 0.658284 0.323708
vt 0.527919 0.666449
vt 0.661748 0.291537
vt 0.680225 0.245582
vt 0.377645 0.696957
vt 0.285191 0.477898
vt 0.483372 0.812325
vt 0.280072 0.728266
vt 0.924330 0.393087
vt 0.921760 0.373660
vt 0.678504 0.727397
vt 0.268491 0.812575
vt 0.930826 0.465310
vt 0.923786 0.327561
vt 0.941993 0.227167
vt 0.764056 0.466512
vt 0.919524 0.351927
vt 0.977463 0.013354
vt 0.833186 0.466512
vt 0.317617 0.012950
vt 0.798789 0.722800
vt 0.839639 0.522681
vt 0.934403 0.500152
vt 0.932138 0.484309
vt 0.281656 0.689101
vt 0.944784 0.554368
vt 0.283549 0.640852
vt 0.956335 0.614129
vt 0.284323 0.620942
vt 0.399765 0.754789
vt 0.961112 0.640376
vt 0.422297 0.755187
vt 0.926130 0.414426
vt 0.350867 0.779032
vt 0.928801 0.443303
vt 0.799629 0.771754
vt 0.350773 0.728949
vt 0.557184 0.796361
vt 0.753483 0.771844
vt 0.595492 0.787450
vt 0.985581 0.067358
vt 0.238180 0.070710
vt 0.259592 0.052321
vt 0.138792 0.821791
vt 0.953366 0.057503
vt 0.765454 0.639660
vt 0.120235 0.821584
vt 0.772730 0.660154
vt 0.283154 0.037949
vt 0.784440 0.682652
vt 0.128680 0.843910
vt 0.970110 0.058056
vt 0.758353 0.637393
vt 0.180368 0.432154
vt 0.759258 0.257498
vt 0.884976 0.446549
vt 0.828099 0.241547
vt 0.971226 0.428512
vt 0.101516 0.405509
vt 0.908240 0.430567
vt 0.669958 0.778714
vt 0.946692 0.427163
vt 0.342544 0.853949
vt 0.673120 0.826722
vt 0.582140 0.817526
vt 0.570535 0.766286
vt 0.348248 0.806122
vt 0.576699 0.792002
vt 0.653753 0.802281
vt 0.776512 0.794925
vt 0.776512 0.748700
vt 0.327830 0.829868
vt 0.363063 0.830170
vt 0.327830 0.753980
vt 0.373865 0.753980
vt 0.689281 0.803194
vt 0.351093 0.753886
vt 0.776117 0.771930
vt 0.671321 0.802907
vt 0.345899 0.829874
vt 0.457498 0.727404
vt 0.165986 0.548054
vt 0.260364 0.376248
vt 0.625887 0.695531
vt 0.520555 0.743605
vt 0.734596 0.339638
vt 0.406824 0.703049
vt 0.012950 0.651015
vt 0.277407 0.507014
vt 0.206214 0.619338
vt 0.706517 0.466512
vt 0.399765 0.822801
vt 0.181517 0.620770
vt 0.619265 0.470337
vt 0.422433 0.807343
vt 0.582936 0.466512
vt 0.458892 0.202188
vt 0.422433 0.843958
vt 0.727583 0.468029
vt 0.460639 0.221880
vt 0.402692 0.843997
vt 0.717439 0.778459
vt 0.429089 0.593438
vt 0.518160 0.466685
vt 0.070962 0.817001
vt 0.726094 0.791097
vt 0.457498 0.298878
vt 0.715181 0.783741
vt 0.523936 0.466512
vt 0.458951 0.311476
vt 0.719061 0.788282
vt 0.458165 0.306435
vt 0.058766 0.817583
vt 0.726094 0.778429
vt 0.431598 0.585369
vt 0.599953 0.261833
vt 0.080449 0.668491
vt 0.542336 0.274386
vt 0.076079 0.728305
vt 0.500395 0.287212
vt 0.064936 0.773359
vt 0.389801 0.564275
vt 0.039540 0.774208
vt 0.356388 0.547019
vt 0.031995 0.737396
vt 0.319737 0.531779
vt 0.030523 0.696843
vt 0.505723 0.512116
vt 0.384015 0.580847
vt 0.506522 0.550736
vt 0.346302 0.574833
vt 0.507607 0.604105
vt 0.294291 0.566034
vt 0.610540 0.298468
vt 0.545535 0.300686
vt 0.502363 0.302883
vt 0.504402 0.313331
vt 0.517745 0.511765
vt 0.548610 0.318269
vt 0.527842 0.556627
vt 0.609940 0.323717
vt 0.531284 0.618364
vt 0.660591 0.582499
vt 0.204501 0.743892
vt 0.668589 0.550878
vt 0.206214 0.710848
vt 0.668004 0.517120
vt 0.204545 0.678125
vt 0.623877 0.525891
vt 0.164692 0.675333
vt 0.610236 0.563455
vt 0.167167 0.712219
vt 0.605277 0.597358
vt 0.166352 0.745757
vt 0.511839 0.183186
vt 0.584607 0.521652
vt 0.552303 0.182624
vt 0.569857 0.561129
vt 0.598009 0.178631
vt 0.565182 0.606784
vt 0.592158 0.236754
vt 0.721184 0.600612
vt 0.550092 0.232946
vt 0.722606 0.558204
vt 0.518921 0.225772
vt 0.713819 0.525134
s 0
usemtl Material
f 89/196/1 7/19/1 13/33/1 90/198/1
f 8/22/2 7/19/2 89/196/2 58/145/2 54/138/2 53/134/2
f 6/18/3 56/142/3 57/144/3
f 3/8/4 106/224/4 4/9/4 59/147/4 88/195/4
f 6/17/5 107/226/5 5/14/5 60/148/5 1/1/5 105/222/5 2/4/5 56/143/5
f 61/150/6 13/34/6 16/40/6 62/151/6
f 5/16/7 14/36/7 31/76/7 29/72/7
f 88/195/8 1/3/8 10/26/8 91/200/8
f 67/158/9 21/53/9 20/51/9 65/155/9
f 13/33/10 7/19/10 12/31/10 16/41/10
f 3/8/11 9/25/11 11/28/11 15/38/11
f 55/141/12 3/6/12 15/37/12 63/152/12
f 66/156/13 19/49/13 17/43/13 65/155/13
f 23/57/14 22/55/14 17/42/14 19/50/14
f 83/184/15 82/183/15 25/63/15 26/67/15
f 15/38/16 11/28/16 22/55/16 23/57/16
f 62/151/17 16/40/17 21/53/17 67/158/17
f 69/163/18 26/66/18 25/64/18 68/160/18
f 87/193/19 84/186/19 24/60/19 68/159/19
f 86/190/20 83/184/20 26/67/20 69/161/20
f 84/187/21 85/189/21 27/68/21 24/61/21
f 70/164/22 29/73/22 31/77/22 71/165/22
f 70/164/23 28/71/23 34/83/23 73/167/23
f 10/26/24 1/3/24 28/70/24 30/74/24
f 64/154/25 10/27/25 30/75/25 71/165/25
f 34/82/26 32/78/26 36/86/26 38/90/26
f 60/149/27 5/15/27 33/81/27 72/166/27
f 5/16/28 29/72/28 35/84/28 33/80/28
f 28/70/29 1/3/29 32/78/29 34/82/29
f 37/88/30 39/92/30 43/103/30 41/97/30
f 73/167/31 34/83/31 38/91/31 75/169/31
f 33/80/32 35/84/32 39/92/32 37/88/32
f 72/166/33 33/81/33 37/89/33 74/168/33
f 76/171/34 41/98/34 43/104/34 77/173/34
f 74/168/35 37/89/35 41/99/35 76/170/35
f 38/90/36 36/86/36 40/94/36 42/100/36
f 75/169/37 38/91/37 42/101/37 77/172/37
f 102/219/38 97/211/38 51/127/38 81/180/38
f 91/199/39 10/27/39 45/109/39 93/203/39
f 90/197/40 13/34/40 46/112/40 92/201/40
f 61/150/41 9/24/41 44/106/41 78/174/41
f 64/154/42 14/35/42 47/115/42 79/176/42
f 96/209/43 94/206/43 50/124/43 80/179/43
f 101/218/44 99/215/44 48/118/44 80/178/44
f 104/221/45 98/213/45 49/121/45 95/208/45
f 103/220/46 100/217/46 50/125/46 94/205/46
f 8/23/47 53/135/47 52/131/47
f 8/23/48 52/131/48 4/10/48 106/225/48 3/7/48 55/140/48 7/20/48
f 54/138/49 58/145/49 89/196/49 5/16/49 107/227/49 6/18/49 57/144/49
f 100/216/50 101/218/50 80/178/50 50/126/50
f 95/207/51 96/209/51 80/179/51 48/119/51
f 10/27/52 64/154/52 79/176/52 45/109/52
f 13/34/53 61/150/53 78/174/53 46/112/53
f 98/212/54 102/219/54 81/180/54 49/122/54
f 39/93/55 75/169/55 77/172/55 43/105/55
f 36/87/56 74/168/56 76/170/56 40/95/56
f 40/96/57 76/171/57 77/173/57 42/102/57
f 32/79/58 72/166/58 74/168/58 36/87/58
f 35/85/59 73/167/59 75/169/59 39/93/59
f 1/2/60 60/149/60 72/166/60 32/79/60
f 14/35/61 64/154/61 71/165/61 31/77/61
f 29/73/62 70/164/62 73/167/62 35/85/62
f 28/71/63 70/164/63 71/165/63 30/75/63
f 85/189/64 86/191/64 69/162/64 27/68/64
f 82/182/65 87/193/65 68/159/65 25/65/65
f 27/69/66 69/163/66 68/160/66 24/62/66
f 11/29/67 62/151/67 67/158/67 22/56/67
f 18/44/68 66/156/68 65/155/68 20/51/68
f 7/21/69 55/141/69 63/152/69 12/30/69
f 22/56/70 67/158/70 65/155/70 17/43/70
f 9/24/71 61/150/71 62/151/71 11/29/71
f 19/49/72 66/156/72 87/193/72 82/182/72
f 12/31/73 18/45/73 20/52/73 21/54/73 16/41/73
f 66/157/74 18/48/74 84/187/74 87/194/74
f 23/57/75 19/50/75 82/183/75 83/184/75
f 49/123/76 81/181/76 96/209/76 95/207/76
f 97/210/77 103/220/77 94/205/77 51/128/77
f 99/214/78 104/221/78 95/208/78 48/120/78
f 81/181/79 51/129/79 94/206/79 96/209/79
f 14/35/80 90/197/80 92/201/80 47/115/80
f 9/24/81 91/199/81 93/203/81 44/106/81
f 3/8/82 88/195/82 91/200/82 9/25/82
f 5/16/83 89/196/83 90/198/83 14/36/83
f 44/107/84 93/204/84 104/221/84 99/214/84
f 47/116/85 92/202/85 103/220/85 97/210/85
f 45/110/86 79/177/86 102/219/86 98/212/86
f 46/113/87 78/175/87 101/218/87 100/216/87
f 92/202/88 46/114/88 100/217/88 103/220/88
f 93/204/89 45/111/89 98/213/89 104/221/89
f 78/175/90 44/108/90 99/215/90 101/218/90
f 79/177/91 47/117/91 97/211/91 102/219/91
f 59/146/92 4/11/92 52/130/92 53/133/92 54/136/92 108/228/92
f 136/291/93 110/234/93 109/231/93 135/289/93
f 121/264/94 120/262/94 114/246/94 117/254/94
f 139/297/95 111/237/95 110/235/95 136/290/95
f 135/288/96 109/232/96 112/240/96 144/307/96
f 144/306/97 112/241/97 111/238/97 139/296/97
f 111/239/98 112/242/98 109/233/98 110/236/98
f 117/255/99 114/247/99 116/252/99 115/249/99 113/243/99
f 124/270/100 121/263/100 117/256/100 113/244/100
f 120/261/101 129/277/101 116/253/101 114/248/101
f 130/279/102 124/269/102 113/245/102 115/250/102
f 129/277/103 130/278/103 115/251/103 116/253/103
f 57/144/104 56/142/104 132/282/104 127/275/104
f 127/275/105 132/282/105 131/280/105 128/276/105
f 128/276/106 131/280/106 130/278/106 129/277/106
f 56/143/107 2/4/107 126/273/107 132/283/107
f 132/283/108 126/273/108 125/271/108 131/281/108
f 131/281/109 125/271/109 124/269/109 130/279/109
f 54/138/110 57/144/110 127/275/110 118/257/110
f 118/257/111 127/275/111 128/276/111 119/259/111
f 119/259/112 128/276/112 129/277/112 120/261/112
f 2/5/113 108/230/113 123/267/113 126/274/113
f 126/274/114 123/267/114 122/265/114 125/272/114
f 125/272/115 122/265/115 121/263/115 124/270/115
f 108/229/116 54/137/116 118/258/116 123/268/116
f 123/268/117 118/258/117 119/260/117 122/266/117
f 122/266/118 119/260/118 120/262/118 121/264/118
f 54/138/119 142/302/119 141/300/119 53/134/119
f 142/302/120 143/304/120 140/298/120 141/300/120
f 143/304/121 144/306/121 139/296/121 140/298/121
f 4/12/122 133/284/122 142/303/122 54/139/122
f 133/284/123 134/286/123 143/305/123 142/303/123
f 134/286/124 135/288/124 144/307/124 143/305/124
f 53/135/125 141/301/125 138/294/125 52/131/125
f 141/301/126 140/299/126 137/292/126 138/294/126
f 140/299/127 139/297/127 136/290/127 137/292/127
f 52/132/128 138/295/128 133/285/128 4/13/128
f 138/295/129 137/293/129 134/287/129 133/285/129
f 137/293/130 136/291/130 135/289/130 134/287/130
f 105/223/131 1/3/131 88/195/131 59/147/131 108/230/131 2/5/131
f 86/192/132 85/188/132 83/185/132
f 83/185/133 85/188/133 18/46/133 23/58/133
f 63/153/134 15/39/134 23/59/134 18/47/134 12/32/134
f 84/187/135 18/48/135 85/189/135
l 52 106
