# Blender 3.3.1
# www.blender.org
mtllib monstruo_3_grande_caminar573.mtl
o monstruo_grande
v 0.455633 2.001004 0.262597
v 0.527080 1.133657 0.041796
v -0.663868 1.825691 0.097130
v -0.286910 1.212567 0.222507
v 0.750574 2.259654 -0.000558
v 0.603502 1.610987 -0.225171
v -0.727508 2.015694 -0.356754
v -0.676483 1.693701 -0.378495
v -0.265917 2.437919 0.374150
v 0.277076 2.301969 0.421471
v -0.412751 2.420743 0.461744
v -1.087708 2.106986 -0.263867
v -0.209548 2.583014 0.013011
v 0.327616 2.423534 0.152943
v -0.971975 1.974370 -0.074453
v -0.365223 2.668185 0.014629
v -0.780250 2.366911 0.432483
v -1.418382 2.067576 -0.051437
v -1.175956 2.102952 0.194224
v -0.895163 2.677630 0.126897
v -0.548373 2.724372 0.058056
v -0.494561 2.380891 0.431811
v -1.100845 2.003302 -0.101130
v -1.901219 0.853530 0.602995
v -1.785658 0.829136 0.669484
v -1.743734 0.648458 0.476504
v -1.814269 0.663348 0.435921
v 0.395742 2.204302 0.425900
v 0.592959 2.383081 0.225604
v 0.382529 2.323599 0.431452
v 0.453611 2.439717 0.211943
v 0.653874 1.920090 0.364755
v 0.862769 1.923832 0.306569
v 0.678503 1.973312 0.412309
v 0.824563 2.065994 0.317707
v 0.709157 1.720837 0.583845
v 0.821507 1.705583 0.560360
v 0.737860 1.754261 0.680459
v 0.848687 1.742009 0.652137
v 0.668059 1.639488 0.711345
v 0.898138 1.614345 0.655266
v 0.659239 1.685456 0.902796
v 1.006599 1.644636 0.813615
v -0.103307 2.478383 0.413297
v 0.104403 2.443812 0.418539
v -0.073414 2.564749 0.162263
v 0.127838 2.526268 0.170472
v -0.047743 2.794326 0.549541
v 0.157767 2.722048 0.528255
v -0.039309 2.895087 0.290444
v 0.165509 2.823094 0.268411
v -0.499663 1.181636 0.032914
v -0.397967 1.149946 -0.184354
v -0.036717 1.261675 -0.337445
v -0.699119 1.851935 -0.133915
v 0.540749 1.243530 -0.166368
v 0.321312 1.289611 -0.278454
v 0.041629 1.510793 -0.339751
v -0.022199 1.122060 0.184708
v 0.565009 2.072981 0.176538
v -0.239647 2.489085 0.247874
v -0.395075 2.660546 0.286514
v -0.889454 2.025498 -0.181070
v 0.281371 2.423487 0.310244
v -0.779912 2.591515 0.374628
v -1.346415 2.219048 0.201198
v -0.547533 2.655729 0.263303
v -1.859729 0.841262 0.664526
v -1.748967 0.537936 0.360732
v 0.513591 2.306460 0.369254
v 0.420833 2.428711 0.342081
v 0.740210 1.888101 0.295071
v 0.772799 2.029907 0.414959
v 0.764753 1.714123 0.569981
v 0.793345 1.747741 0.666214
v 0.776888 1.614970 0.662888
v 0.820609 1.643036 0.820333
v -0.090567 2.520198 0.285927
v 0.113683 2.486668 0.293258
v -0.074792 2.846972 0.420060
v 0.193038 2.770607 0.398831
v -1.640201 1.147577 0.629204
v -1.694882 0.974475 0.556918
v -1.841321 1.160450 0.516474
v -1.803652 0.997436 0.494336
v -1.744218 0.817669 0.455109
v -1.772303 1.136714 0.620978
v -0.047468 1.803669 0.466495
v 0.216652 2.124739 -0.245267
v 0.148052 2.518283 -0.006780
v 0.011921 2.316537 0.553331
v 0.021994 2.544509 0.163986
v 0.006013 2.459449 0.414897
v 0.064237 2.873894 0.240033
v 0.053710 2.743069 0.577659
v 0.062875 2.860170 0.429834
v 0.159730 2.684562 0.194183
v 0.146188 2.572942 0.490340
v -0.089847 2.629797 0.504330
v -0.078133 2.742705 0.205304
v -0.101216 2.687826 0.355038
v 0.167855 2.628561 0.342008
v 0.040558 2.721019 0.178676
v 0.028517 2.592481 0.517704
v 0.543917 1.630590 0.081679
v -0.579314 1.543880 0.150410
v 0.661207 1.819003 -0.190407
v 0.173313 1.066311 0.156567
v -0.219927 0.046271 0.218708
v -0.363521 0.064183 0.341113
v -0.390167 0.053819 0.090450
v -0.255393 0.042214 0.075860
v 0.359601 -0.018468 -0.315513
v 0.284062 -0.020949 -0.389750
v 0.367821 -0.017958 -0.354232
v 0.335556 -0.019689 -0.379729
v 0.300948 -0.020355 -0.303736
v 0.084789 0.908569 -0.266351
v 0.160529 0.603835 -0.288142
v 0.217556 0.301543 -0.320632
v 0.254231 0.242257 -0.152554
v 0.223466 0.465735 -0.026168
v 0.215234 0.727047 0.070591
v 0.375946 0.254722 -0.176529
v 0.428741 0.491390 -0.066615
v 0.497729 0.823043 0.024218
v 0.339349 0.942970 -0.245733
v 0.340588 0.599598 -0.260017
v 0.324686 0.298676 -0.302112
v 0.392292 0.283802 -0.252101
v 0.455188 0.576140 -0.179151
v 0.512664 0.919001 -0.142781
v -0.159346 0.978103 0.376837
v -0.144440 0.683229 0.388504
v -0.146585 0.438913 0.418488
v -0.432031 0.432968 0.416541
v -0.436881 0.701785 0.339868
v -0.454098 0.948241 0.274162
v -0.471785 0.416347 0.147437
v -0.475575 0.682101 0.071428
v -0.484617 0.898732 0.001499
v -0.090842 0.842462 -0.038959
v -0.134277 0.644148 0.024424
v -0.180224 0.445344 0.100629
vn 0.0424 0.5202 -0.8530
vn 0.0185 -0.0251 -0.9995
vn 0.4089 -0.2119 -0.8876
vn -0.3450 -0.1924 0.9187
vn 0.9275 -0.1909 0.3213
vn 0.6373 0.7376 0.2232
vn 0.2450 0.8812 -0.4043
vn 0.4322 -0.2021 0.8789
vn -0.0741 0.9377 0.3394
vn 0.0084 0.4911 -0.8711
vn -0.2794 -0.4132 0.8667
vn -0.4418 -0.8590 -0.2587
vn -0.3677 -0.0449 0.9289
vn 0.1853 -0.8603 0.4749
vn 0.8926 -0.2906 0.3446
vn -0.1527 -0.6953 0.7023
vn 0.1589 0.9734 0.1653
vn -0.1205 -0.7293 0.6735
vn -0.7593 0.3093 0.5725
vn 0.9763 -0.0244 -0.2149
vn -0.7801 0.0585 -0.6230
vn 0.4973 0.7462 0.4425
vn 0.1125 0.1819 0.9769
vn -0.4339 -0.4930 0.7541
vn -0.1957 0.6703 0.7158
vn -0.9503 0.0877 0.2988
vn 0.0294 -0.6229 -0.7818
vn 0.8469 0.5184 0.1186
vn -0.4994 -0.5901 0.6343
vn 0.8033 0.2985 -0.5153
vn -0.1781 0.6943 0.6973
vn 0.9980 0.0293 0.0561
vn 0.1272 -0.7985 -0.5884
vn 0.0114 -0.9843 0.1764
vn -0.1034 -0.7225 -0.6836
vn -0.8610 0.5024 -0.0790
vn 0.3768 0.8206 0.4296
vn 0.9888 -0.0422 -0.1432
vn 0.3145 0.5730 0.7568
vn 0.1831 0.9826 -0.0302
vn -0.2821 0.9140 0.2917
vn 0.4023 0.8904 0.2128
vn 0.0656 0.9782 0.1969
vn -0.9716 0.1410 0.1899
vn 0.2549 -0.3283 0.9095
vn -0.2111 0.4577 -0.8637
vn -0.8015 -0.5175 -0.2997
vn -0.9357 -0.2789 0.2162
vn 0.2268 0.1255 -0.9658
vn -0.9613 0.2534 -0.1081
vn 0.0536 0.8532 0.5188
vn 0.4125 0.7368 0.5357
vn -0.2512 0.9136 0.3198
vn 0.9762 -0.1679 0.1371
vn 0.0589 0.8560 0.5136
vn -0.3663 -0.6957 -0.6179
vn -0.1336 -0.9666 0.2185
vn -0.4815 -0.7350 -0.4775
vn 0.4646 0.6328 0.6195
vn -0.2590 -0.8059 -0.5324
vn -0.0854 0.9962 0.0148
vn 0.5560 0.5945 0.5808
vn 0.4414 0.2702 0.8556
vn -0.2709 0.2389 -0.9325
vn -0.0621 0.1581 0.9855
vn -0.7326 -0.6001 0.3213
vn -0.2820 0.5194 0.8066
vn -0.6894 0.7052 0.1658
vn -0.4296 -0.8326 -0.3495
vn 0.1306 0.4207 0.8978
vn 0.5462 0.5616 0.6215
vn 0.1148 0.3412 0.9330
vn -0.2973 0.5880 -0.7523
vn -0.8698 0.4599 0.1789
vn 0.9017 -0.3218 0.2888
vn 0.5041 0.7034 0.5011
vn 0.3209 0.3727 -0.8707
vn -0.2762 -0.2507 0.9278
vn 0.5151 0.8468 0.1330
vn 0.3681 0.9298 0.0001
vn -0.1656 0.5752 0.8011
vn -0.5288 -0.0589 0.8467
vn 0.3136 0.7155 -0.6243
vn -0.1868 -0.5370 0.8227
vn 0.1198 0.0953 -0.9882
vn 0.9442 -0.3291 -0.0117
vn -0.9895 0.0029 -0.1446
vn -0.0824 0.1633 -0.9831
vn 0.0011 -0.5545 0.8322
vn -1.0000 0.0096 -0.0015
vn 0.9633 -0.2592 -0.0701
vn -0.0630 -0.9941 -0.0888
vn 0.2465 -0.3308 0.9109
vn -0.9594 -0.2409 0.1466
vn -0.9655 -0.2226 0.1349
vn 0.9789 -0.1411 -0.1476
vn -0.1459 0.1038 -0.9838
vn -0.0813 -0.9955 0.0493
vn 0.0325 -0.9995 0.0034
vn 0.2078 -0.4567 0.8650
vn 0.1743 0.2397 -0.9551
vn 0.9747 -0.1417 0.1728
vn 0.6071 0.2089 -0.7667
vn 0.4675 -0.0809 -0.8803
vn 0.5401 0.0178 -0.8414
vn 0.5923 0.0769 -0.8021
vn 0.9956 -0.0898 0.0266
vn 0.9818 -0.1885 0.0235
vn 0.9682 -0.2381 0.0762
vn 0.1398 -0.1180 -0.9831
vn 0.1065 0.0679 -0.9920
vn 0.1621 0.1320 -0.9779
vn 0.2779 -0.1459 0.9495
vn 0.2419 -0.3151 0.9177
vn 0.2229 -0.4537 0.8628
vn -0.9331 -0.2262 0.2797
vn -0.9597 -0.1864 0.2104
vn -0.9704 -0.2020 0.1321
vn -0.1684 -0.5538 -0.8155
vn -0.1497 -0.2912 -0.9449
vn -0.1442 -0.2963 -0.9442
vn 0.9164 0.2923 0.2734
vn 0.9932 -0.0408 0.1093
vn 0.9930 -0.1146 -0.0287
vn -0.9898 -0.0374 -0.1376
vn -0.9915 -0.0184 0.1292
vn -0.9895 0.0248 0.1427
vn -0.4850 0.4530 0.7480
vn -0.2499 0.1225 0.9605
vn -0.0810 0.2024 0.9759
vn 0.3954 -0.2363 0.8876
vn 0.5218 0.3430 -0.7811
vn -0.0699 -0.4715 -0.8791
vn -0.1816 -0.8276 -0.5311
vn -0.7354 -0.0785 -0.6731
vt 0.882279 0.260085
vt 0.436089 0.649131
vt 0.117664 0.305524
vt 0.860974 0.338762
vt 0.079561 0.383885
vt 0.278417 0.728674
vt 0.111517 0.716819
vt 0.301243 0.337859
vt 0.232943 0.387386
vt 0.111517 0.662267
vt 0.671871 0.687525
vt 0.175114 0.511099
vt 0.930991 0.712692
vt 0.796001 0.259488
vt 0.522181 0.649131
vt 0.719621 0.316178
vt 0.801110 0.310020
vt 0.698705 0.366293
vt 0.510656 0.337024
vt 0.023033 0.717149
vt 0.367094 0.730187
vt 0.507246 0.358198
vt 0.018976 0.695717
vt 0.103380 0.570561
vt 0.268725 0.266033
vt 0.143950 0.273348
vt 0.098384 0.631539
vt 0.301351 0.259488
vt 0.128079 0.559933
vt 0.480438 0.333338
vt 0.348619 0.714075
vt 0.604958 0.268707
vt 0.031105 0.562973
vt 0.043818 0.625810
vt 0.721993 0.282954
vt 0.329365 0.336360
vt 0.302724 0.713315
vt 0.030374 0.549675
vt 0.582817 0.260846
vt 0.875347 0.642471
vt 0.380514 0.272320
vt 0.124895 0.517524
vt 0.813390 0.578569
vt 0.436089 0.332372
vt 0.956124 0.588845
vt 0.367094 0.692599
vt 0.367094 0.522797
vt 0.871643 0.594841
vt 0.398138 0.324445
vt 0.043891 0.509019
vt 0.796001 0.641153
vt 0.491075 0.268473
vt 0.032114 0.534706
vt 0.552485 0.259488
vt 0.331566 0.259909
vt 0.129819 0.544964
vt 0.339759 0.337186
vt 0.913298 0.588845
vt 0.317584 0.707220
vt 0.845734 0.463378
vt 0.311567 0.646434
vt 0.944558 0.353645
vt 0.398138 0.462439
vt 0.920230 0.354337
vt 0.870057 0.463781
vt 0.929709 0.374247
vt 0.357807 0.478584
vt 0.347994 0.663056
vt 0.944558 0.373825
vt 0.097076 0.285727
vt 0.229765 0.651022
vt 0.758050 0.297859
vt 0.168317 0.651042
vt 0.119329 0.272208
vt 0.094178 0.643292
vt 0.222768 0.636959
vt 0.746872 0.283208
vt 0.174541 0.636975
vt 0.045175 0.638147
vt 0.080672 0.327471
vt 0.442544 0.673801
vt 0.734592 0.339187
vt 0.484453 0.673801
vt 0.070725 0.319456
vt 0.218298 0.685110
vt 0.751374 0.331694
vt 0.180611 0.684911
vt 0.062412 0.356092
vt 0.455575 0.702696
vt 0.724658 0.367821
vt 0.476314 0.702696
vt 0.043357 0.357400
vt 0.210236 0.723455
vt 0.742364 0.370210
vt 0.189444 0.723462
vt 0.050281 0.367705
vt 0.444942 0.715336
vt 0.810526 0.722486
vt 0.728448 0.380153
vt 0.853695 0.722486
vt 0.487920 0.715336
vt 0.018975 0.371756
vt 0.232852 0.738567
vt 0.796001 0.739289
vt 0.758050 0.386241
vt 0.861207 0.739289
vt 0.167770 0.738589
vt 0.100634 0.583041
vt 0.712300 0.698974
vt 0.802197 0.701507
vt 0.098640 0.600731
vt 0.972705 0.287497
vt 0.747907 0.696578
vt 0.052045 0.577939
vt 0.849895 0.701507
vt 0.710445 0.675017
vt 0.050052 0.595630
vt 0.746553 0.677603
vt 0.924885 0.287497
vt 0.797725 0.671259
vt 0.981025 0.313792
vt 0.715147 0.730011
vt 0.752543 0.724602
vt 0.973919 0.259495
vt 0.967002 0.332143
vt 0.934252 0.306472
vt 0.715328 0.644023
vt 0.847669 0.671259
vt 0.923848 0.259495
vt 0.753088 0.649631
vt 0.920230 0.324823
vt 0.068284 0.665533
vt 0.630362 0.705721
vt 0.712055 0.621316
vt 0.966165 0.712391
vt 0.519769 0.388732
vt 0.031375 0.663704
vt 0.592215 0.695479
vt 0.581836 0.620019
vt 0.750017 0.621843
vt 0.569690 0.667298
vt 0.581066 0.387596
vt 0.531739 0.516092
vt 0.642835 0.625048
vt 0.273616 0.509019
vt 0.070982 0.710642
vt 0.316851 0.732164
vt 0.684917 0.393810
vt 0.816625 0.338063
vt 0.644803 0.392946
vt 0.602800 0.367236
vt 0.671871 0.661666
vt 0.181146 0.386242
vt 0.855113 0.259897
vt 0.463196 0.649131
vt 0.077903 0.567886
vt 0.078993 0.554271
vt 0.322237 0.720993
vt 0.070972 0.628379
vt 0.834014 0.651825
vt 0.084160 0.512738
vt 0.838315 0.596273
vt 0.320679 0.509019
vt 0.080733 0.539302
vt 0.857365 0.464048
vt 0.931678 0.351118
vt 0.335174 0.488977
vt 0.367094 0.673623
vt 0.939667 0.384854
vt 0.199177 0.651021
vt 0.069465 0.641494
vt 0.198664 0.632807
vt 0.464209 0.672968
vt 0.199604 0.684998
vt 0.465945 0.702696
vt 0.199840 0.723459
vt 0.466714 0.715004
vt 0.832520 0.720483
vt 0.200177 0.738589
vt 0.829423 0.735282
vt 0.076340 0.580490
vt 0.826046 0.701507
vt 0.074346 0.598181
vt 0.948795 0.287497
vt 0.823088 0.670800
vt 0.959731 0.307426
vt 0.948976 0.259488
vt 0.941524 0.331189
vt 0.875347 0.491894
vt 0.391834 0.432095
vt 0.377694 0.448634
vt 0.915590 0.478791
vt 0.834644 0.488373
vt 0.326937 0.619279
vt 0.938593 0.478810
vt 0.335216 0.632947
vt 0.358601 0.463790
vt 0.348787 0.648138
vt 0.927106 0.463378
vt 0.854274 0.489560
vt 0.315804 0.619182
vt 0.212520 0.321385
vt 0.644070 0.318501
vt 0.018976 0.592450
vt 0.663817 0.276029
vt 0.129819 0.597828
vt 0.224108 0.269832
vt 0.051049 0.586785
vt 0.728499 0.676310
vt 0.099637 0.591886
vt 0.730103 0.697776
vt 0.734390 0.646904
vt 0.920230 0.314550
vt 0.981025 0.324065
vt 0.732426 0.727384
vt 0.950683 0.319044
vt 0.753088 0.663662
vt 0.920230 0.273492
vt 0.977552 0.273492
vt 0.752543 0.710647
vt 0.709822 0.714522
vt 0.796001 0.686127
vt 0.853178 0.686127
vt 0.709822 0.659561
vt 0.824792 0.685890
vt 0.948939 0.273488
vt 0.731549 0.661651
vt 0.730449 0.712624
vt 0.878850 0.297575
vt 0.096711 0.342677
vt 0.285581 0.357771
vt 0.108549 0.696221
vt 0.804979 0.293594
vt 0.708839 0.350023
vt 0.668288 0.644023
vt 0.436089 0.526409
vt 0.145034 0.385321
vt 0.919159 0.607821
vt 0.247387 0.613831
vt 0.970304 0.416607
vt 0.947808 0.608020
vt 0.704660 0.516092
vt 0.970304 0.403829
vt 0.750017 0.516884
vt 0.618892 0.516092
vt 0.920230 0.404231
vt 0.273616 0.612878
vt 0.642836 0.516847
vt 0.938584 0.415207
vt 0.924281 0.443436
vt 0.075400 0.489812
vt 0.855524 0.444402
vt 0.531739 0.629156
vt 0.934913 0.435583
vt 0.576828 0.496673
vt 0.931440 0.443424
vt 0.848383 0.444289
vt 0.592622 0.497116
vt 0.934913 0.440184
vt 0.586164 0.496977
vt 0.517161 0.630156
vt 0.920230 0.438606
vt 0.085942 0.490043
vt 0.585376 0.420489
vt 0.510472 0.551446
vt 0.582586 0.444044
vt 0.504260 0.576063
vt 0.581388 0.469636
vt 0.508131 0.602400
vt 0.103684 0.463024
vt 0.477645 0.604263
vt 0.118194 0.440373
vt 0.454885 0.581958
vt 0.129418 0.415411
vt 0.438452 0.557360
vt 0.876897 0.417052
vt 0.081901 0.462161
vt 0.882279 0.393921
vt 0.081653 0.438865
vt 0.880271 0.363315
vt 0.079604 0.408162
vt 0.633117 0.418943
vt 0.615530 0.444447
vt 0.600997 0.469910
vt 0.614559 0.469949
vt 0.862035 0.416811
vt 0.638313 0.444473
vt 0.857648 0.390640
vt 0.666106 0.417503
vt 0.844696 0.362700
vt 0.167770 0.536691
vt 0.914144 0.688660
vt 0.182151 0.561697
vt 0.913298 0.663084
vt 0.189855 0.582503
vt 0.915415 0.641729
vt 0.680787 0.549268
vt 0.966165 0.641681
vt 0.684678 0.573659
vt 0.963812 0.665813
vt 0.684995 0.596421
vt 0.964308 0.688427
vt 0.584794 0.548886
vt 0.729850 0.550060
vt 0.578610 0.572959
vt 0.734888 0.574452
vt 0.569690 0.595426
vt 0.736445 0.597214
vt 0.642060 0.590920
vt 0.247172 0.543053
vt 0.641052 0.570535
vt 0.248998 0.562413
vt 0.635978 0.552556
vt 0.245738 0.579271
s 0
usemtl Material
f 89/203/1 7/19/1 13/32/1 90/205/1
f 8/22/2 7/19/2 89/203/2 58/151/2 54/142/2 53/136/2
f 6/18/3 56/148/3 57/150/3
f 3/8/4 106/231/4 4/9/4 59/153/4 88/202/4
f 6/17/5 107/233/5 5/14/5 60/154/5 1/1/5 105/229/5 2/4/5 56/149/5
f 61/156/6 13/33/6 16/38/6 62/157/6
f 5/16/7 14/35/7 31/77/7 29/72/7
f 88/202/8 1/3/8 10/26/8 91/207/8
f 67/164/9 21/53/9 20/50/9 65/161/9
f 13/32/10 7/19/10 12/30/10 16/39/10
f 3/8/11 9/25/11 11/28/11 15/36/11
f 55/147/12 3/6/12 15/37/12 63/158/12
f 66/162/13 19/48/13 17/40/13 65/160/13
f 23/57/14 22/55/14 17/41/14 19/49/14
f 83/191/15 82/190/15 25/63/15 26/67/15
f 15/36/16 11/28/16 22/55/16 23/57/16
f 62/157/17 16/38/17 21/53/17 67/164/17
f 69/169/18 26/66/18 25/64/18 68/166/18
f 87/200/19 84/193/19 24/60/19 68/165/19
f 86/197/20 83/191/20 26/67/20 69/167/20
f 84/194/21 85/196/21 27/68/21 24/61/21
f 70/170/22 29/73/22 31/78/22 71/172/22
f 70/170/23 28/71/23 34/85/23 73/174/23
f 10/26/24 1/3/24 28/70/24 30/74/24
f 64/159/25 10/27/25 30/75/25 71/171/25
f 34/84/26 32/80/26 36/88/26 38/92/26
f 60/155/27 5/15/27 33/83/27 72/173/27
f 5/16/28 29/72/28 35/86/28 33/82/28
f 28/70/29 1/3/29 32/80/29 34/84/29
f 37/90/30 39/94/30 43/105/30 41/99/30
f 73/174/31 34/85/31 38/93/31 75/176/31
f 33/82/32 35/86/32 39/94/32 37/90/32
f 72/173/33 33/83/33 37/91/33 74/175/33
f 76/178/34 41/100/34 43/106/34 77/180/34
f 74/175/35 37/91/35 41/101/35 76/177/35
f 38/92/36 36/88/36 40/96/36 42/102/36
f 75/176/37 38/93/37 42/103/37 77/179/37
f 102/226/38 97/218/38 51/129/38 81/187/38
f 91/206/39 10/27/39 45/111/39 93/210/39
f 90/204/40 13/33/40 46/114/40 92/208/40
f 61/156/41 9/24/41 44/108/41 78/181/41
f 64/159/42 14/34/42 47/117/42 79/183/42
f 96/216/43 94/213/43 50/126/43 80/186/43
f 101/225/44 99/222/44 48/120/44 80/185/44
f 104/228/45 98/220/45 49/123/45 95/215/45
f 103/227/46 100/224/46 50/127/46 94/212/46
f 8/23/47 53/137/47 52/132/47
f 8/23/48 52/132/48 4/10/48 106/232/48 3/7/48 55/146/48 7/20/48
f 54/142/49 58/151/49 89/203/49 5/16/49 107/234/49 6/18/49 57/150/49
f 100/223/50 101/225/50 80/185/50 50/128/50
f 95/214/51 96/216/51 80/186/51 48/121/51
f 10/27/52 64/159/52 79/183/52 45/111/52
f 13/33/53 61/156/53 78/181/53 46/114/53
f 98/219/54 102/226/54 81/187/54 49/124/54
f 39/95/55 75/176/55 77/179/55 43/107/55
f 36/89/56 74/175/56 76/177/56 40/97/56
f 40/98/57 76/178/57 77/180/57 42/104/57
f 32/81/58 72/173/58 74/175/58 36/89/58
f 35/87/59 73/174/59 75/176/59 39/95/59
f 1/2/60 60/155/60 72/173/60 32/81/60
f 14/34/61 64/159/61 71/171/61 31/79/61
f 29/73/62 70/170/62 73/174/62 35/87/62
f 28/71/63 70/170/63 71/172/63 30/76/63
f 85/196/64 86/198/64 69/168/64 27/68/64
f 82/189/65 87/200/65 68/165/65 25/65/65
f 27/69/66 69/169/66 68/166/66 24/62/66
f 11/29/67 62/157/67 67/164/67 22/56/67
f 18/43/68 66/162/68 65/160/68 20/51/68
f 7/21/69 55/147/69 63/158/69 12/31/69
f 22/56/70 67/164/70 65/161/70 17/42/70
f 9/24/71 61/156/71 62/157/71 11/29/71
f 19/48/72 66/162/72 87/200/72 82/189/72
f 12/30/73 18/44/73 20/52/73 21/54/73 16/39/73
f 66/163/74 18/47/74 84/194/74 87/201/74
f 23/57/75 19/49/75 82/190/75 83/191/75
f 49/125/76 81/188/76 96/216/76 95/214/76
f 97/217/77 103/227/77 94/212/77 51/130/77
f 99/221/78 104/228/78 95/215/78 48/122/78
f 81/188/79 51/131/79 94/213/79 96/216/79
f 14/34/80 90/204/80 92/208/80 47/117/80
f 9/24/81 91/206/81 93/210/81 44/108/81
f 3/8/82 88/202/82 91/207/82 9/25/82
f 5/16/83 89/203/83 90/205/83 14/35/83
f 44/109/84 93/211/84 104/228/84 99/221/84
f 47/118/85 92/209/85 103/227/85 97/217/85
f 45/112/86 79/184/86 102/226/86 98/219/86
f 46/115/87 78/182/87 101/225/87 100/223/87
f 92/209/88 46/116/88 100/224/88 103/227/88
f 93/211/89 45/113/89 98/220/89 104/228/89
f 78/182/90 44/110/90 99/222/90 101/225/90
f 79/184/91 47/119/91 97/218/91 102/226/91
f 59/152/92 4/11/92 52/133/92 53/138/92 54/141/92 108/235/92
f 136/298/93 110/241/93 109/238/93 135/296/93
f 121/271/94 120/269/94 114/253/94 117/261/94
f 139/304/95 111/244/95 110/242/95 136/297/95
f 135/295/96 109/239/96 112/247/96 144/314/96
f 144/313/97 112/248/97 111/245/97 139/303/97
f 111/246/98 112/249/98 109/240/98 110/243/98
f 117/262/99 114/254/99 116/259/99 115/256/99 113/250/99
f 124/277/100 121/270/100 117/263/100 113/251/100
f 120/268/101 129/284/101 116/260/101 114/255/101
f 130/286/102 124/276/102 113/252/102 115/257/102
f 129/284/103 130/285/103 115/258/103 116/260/103
f 57/150/104 56/148/104 132/289/104 127/282/104
f 127/282/105 132/289/105 131/287/105 128/283/105
f 128/283/106 131/287/106 130/285/106 129/284/106
f 56/149/107 2/4/107 126/280/107 132/290/107
f 132/290/108 126/280/108 125/278/108 131/288/108
f 131/288/109 125/278/109 124/276/109 130/286/109
f 54/142/110 57/150/110 127/282/110 118/264/110
f 118/264/111 127/282/111 128/283/111 119/266/111
f 119/266/112 128/283/112 129/284/112 120/268/112
f 2/5/113 108/237/113 123/274/113 126/281/113
f 126/281/114 123/274/114 122/272/114 125/279/114
f 125/279/115 122/272/115 121/270/115 124/277/115
f 108/236/116 54/143/116 118/265/116 123/275/116
f 123/275/117 118/265/117 119/267/117 122/273/117
f 122/273/118 119/267/118 120/269/118 121/271/118
f 54/144/119 142/309/119 141/307/119 53/139/119
f 142/309/120 143/311/120 140/305/120 141/307/120
f 143/311/121 144/313/121 139/303/121 140/305/121
f 4/12/122 133/291/122 142/310/122 54/145/122
f 133/291/123 134/293/123 143/312/123 142/310/123
f 134/293/124 135/295/124 144/314/124 143/312/124
f 53/140/125 141/308/125 138/301/125 52/134/125
f 141/308/126 140/306/126 137/299/126 138/301/126
f 140/306/127 139/304/127 136/297/127 137/299/127
f 52/135/128 138/302/128 133/292/128 4/13/128
f 138/302/129 137/300/129 134/294/129 133/292/129
f 137/300/130 136/298/130 135/296/130 134/294/130
f 105/230/131 1/3/131 88/202/131 59/153/131 108/237/131 2/5/131
f 86/199/132 85/195/132 83/192/132
f 83/192/133 85/195/133 18/45/133 23/58/133
f 63/158/134 15/37/134 23/59/134 18/46/134 12/31/134
f 84/194/135 18/47/135 85/196/135
l 52 106
