# Blender 3.3.1
# www.blender.org
mtllib monstruo_3_grande_caminar651.mtl
o monstruo_grande
v 0.474891 1.975972 0.318348
v 0.517379 1.137419 0.108792
v -0.648001 1.801883 0.175865
v -0.315484 1.151191 0.209703
v 0.733430 2.255332 0.029998
v 0.599659 1.561220 -0.242379
v -0.748766 2.012635 -0.250676
v -0.674232 1.737121 -0.319685
v -0.248664 2.385882 0.483820
v 0.301608 2.263953 0.493570
v -0.384545 2.355904 0.576104
v -1.103366 2.041240 -0.104669
v -0.221274 2.563389 0.131973
v 0.338177 2.404647 0.231407
v -0.954119 1.914651 0.056096
v -0.384084 2.639470 0.150338
v -0.731576 2.271327 0.575970
v -1.396608 1.945580 0.156462
v -1.125141 1.990108 0.361381
v -0.908226 2.591815 0.313333
v -0.572821 2.678828 0.213982
v -0.455714 2.313748 0.547499
v -1.083570 1.922629 0.052195
v -1.682568 0.681744 0.826074
v -1.557790 0.664382 0.876066
v -1.527723 0.495339 0.670728
v -1.603884 0.505937 0.640214
v 0.431966 2.172003 0.493510
v 0.605124 2.362165 0.278528
v 0.409930 2.287390 0.502140
v 0.467470 2.418289 0.284328
v 0.704608 1.864143 0.393922
v 0.890238 1.935178 0.283023
v 0.715396 1.938995 0.443528
v 0.845654 2.048820 0.329519
v 0.877792 1.641580 0.484682
v 0.981984 1.667882 0.446480
v 0.919823 1.632334 0.581324
v 1.022290 1.666502 0.540229
v 0.881660 1.502357 0.555856
v 1.095334 1.572028 0.474284
v 0.906104 1.448692 0.743917
v 1.226969 1.551526 0.614498
v -0.084877 2.432182 0.514845
v 0.124348 2.400710 0.508617
v -0.068335 2.540025 0.271223
v 0.136972 2.504515 0.267194
v -0.028873 2.734905 0.676952
v 0.176546 2.666765 0.644218
v -0.027328 2.859568 0.428321
v 0.177291 2.791787 0.394609
v -0.509673 1.187138 -0.011451
v -0.384362 1.203159 -0.218814
v -0.041560 1.277234 -0.333251
v -0.699570 1.846965 -0.049296
v 0.544081 1.141521 -0.129786
v 0.328805 1.154563 -0.259220
v 0.032172 1.525301 -0.320989
v -0.032368 1.145976 0.197414
v 0.568435 2.056428 0.224114
v -0.232330 2.448280 0.360784
v -0.392447 2.608217 0.422176
v -0.892252 1.993801 -0.059245
v 0.299319 2.392707 0.390532
v -0.757398 2.499422 0.540865
v -1.301757 2.091218 0.400129
v -0.545051 2.596918 0.408325
v -1.632583 0.670562 0.881160
v -1.539557 0.389309 0.551299
v 0.542873 2.278755 0.426842
v 0.441326 2.398202 0.416460
v 0.777431 1.872837 0.290251
v 0.808904 2.004736 0.431048
v 0.929219 1.657447 0.464367
v 0.971076 1.648760 0.560652
v 0.979963 1.534357 0.491782
v 1.050715 1.496028 0.636741
v -0.077689 2.485461 0.391434
v 0.128220 2.454269 0.387064
v -0.059360 2.799210 0.553648
v 0.208405 2.727570 0.519036
v -1.443632 0.995016 0.833235
v -1.493877 0.820922 0.760113
v -1.658045 0.995729 0.748087
v -1.611323 0.837264 0.713058
v -1.543942 0.664637 0.657862
v -1.574455 0.973659 0.841342
v -0.020430 1.756925 0.513442
v 0.202953 2.135551 -0.184117
v 0.145691 2.511882 0.087751
v 0.041503 2.265103 0.636183
v 0.029475 2.522146 0.267174
v 0.024427 2.414899 0.510155
v 0.075022 2.844099 0.373623
v 0.073562 2.682140 0.697775
v 0.078410 2.812655 0.561426
v 0.170259 2.660723 0.307069
v 0.165385 2.521924 0.592412
v -0.070799 2.575008 0.617541
v -0.068313 2.715176 0.330006
v -0.086266 2.646619 0.474689
v 0.182812 2.591316 0.449289
v 0.050149 2.697325 0.298341
v 0.048023 2.537642 0.624526
v 0.550398 1.648571 -0.014060
v -0.567722 1.524181 0.198993
v 0.652815 1.773406 -0.219110
v 0.161389 1.148962 0.209558
v -0.289625 0.235884 -0.466262
v -0.431475 0.163593 -0.363311
v -0.462475 0.318779 -0.559154
v -0.327736 0.325182 -0.576933
v 0.254720 -0.002392 0.106016
v 0.183808 -0.016276 0.028392
v 0.265490 -0.007666 0.068244
v 0.234876 -0.013314 0.041263
v 0.195230 -0.002635 0.114207
v 0.063010 0.847071 -0.073295
v 0.105118 0.616027 0.007171
v 0.127389 0.314271 0.036211
v 0.155753 0.291839 0.214516
v 0.149195 0.540450 0.285307
v 0.169535 0.816382 0.319397
v 0.278302 0.285288 0.192527
v 0.356632 0.535308 0.250512
v 0.460783 0.860071 0.253511
v 0.318330 0.848751 -0.044894
v 0.283286 0.600144 0.041219
v 0.233402 0.304269 0.058533
v 0.298470 0.294188 0.112915
v 0.393835 0.585985 0.129225
v 0.487108 0.863014 0.064833
v -0.231316 0.861575 0.290669
v -0.230264 0.570715 0.110762
v -0.244220 0.367527 -0.050694
v -0.527286 0.394861 -0.072379
v -0.513347 0.645639 0.067415
v -0.510834 0.893337 0.156205
v -0.536483 0.571881 -0.279722
v -0.519792 0.802936 -0.137820
v -0.507422 0.932498 -0.107684
v -0.116682 0.859348 -0.116163
v -0.177438 0.765336 -0.171056
v -0.240285 0.592862 -0.276181
vn -0.0178 0.5827 -0.8125
vn -0.0117 0.0953 -0.9954
vn 0.4810 -0.2860 -0.8288
vn -0.3110 -0.2644 0.9129
vn 0.9282 -0.2114 0.3062
vn 0.6108 0.7533 0.2439
vn 0.2087 0.9079 -0.3635
vn 0.4550 -0.2556 0.8530
vn -0.1233 0.8977 0.4231
vn -0.1343 0.5883 -0.7974
vn -0.1512 -0.5306 0.8340
vn -0.3674 -0.8701 -0.3286
vn -0.2442 -0.1607 0.9563
vn 0.3205 -0.8736 0.3662
vn 0.9496 -0.2293 0.2138
vn 0.0368 -0.7937 0.6072
vn 0.1130 0.9666 0.2299
vn 0.0247 -0.7622 0.6469
vn -0.6989 0.2233 0.6794
vn 0.9389 0.0642 -0.3382
vn -0.8571 0.0186 -0.5148
vn 0.5272 0.7297 0.4355
vn 0.2320 0.1649 0.9586
vn -0.3722 -0.5281 0.7633
vn -0.1770 0.6222 0.7626
vn -0.8048 -0.3759 0.4593
vn -0.0630 -0.5664 -0.8217
vn 0.8292 0.5544 0.0716
vn -0.4391 -0.6040 0.6651
vn 0.5929 0.7158 -0.3688
vn -0.0000 0.3742 0.9273
vn 0.9411 0.2774 -0.1934
vn 0.1070 -0.5330 -0.8393
vn 0.2399 -0.9030 -0.3565
vn -0.1073 -0.3180 -0.9420
vn -0.9373 0.2227 0.2681
vn 0.2974 0.5906 0.7502
vn 0.9851 -0.0195 -0.1711
vn 0.3348 0.5290 0.7798
vn 0.1500 0.9884 0.0233
vn -0.3028 0.8735 0.3811
vn 0.4029 0.8763 0.2641
vn 0.0640 0.9561 0.2861
vn -0.9677 0.1135 0.2250
vn 0.2795 -0.4106 0.8679
vn -0.2360 0.5365 -0.8103
vn -0.7304 -0.4870 -0.4790
vn -0.9322 -0.3140 0.1799
vn 0.1603 0.1700 -0.9723
vn -0.9653 0.2547 -0.0571
vn 0.0603 0.8013 0.5953
vn 0.4195 0.7033 0.5739
vn -0.2651 0.8732 0.4090
vn 0.9806 -0.1704 0.0975
vn 0.0044 0.4932 0.8699
vn -0.3531 -0.3927 -0.8492
vn 0.1043 -0.9506 -0.2924
vn -0.4450 -0.6815 -0.5809
vn 0.5259 0.5431 0.6546
vn -0.3084 -0.7430 -0.5940
vn -0.0954 0.9916 0.0877
vn 0.6126 0.5789 0.5382
vn 0.4883 0.2632 0.8320
vn -0.4078 0.2516 -0.8777
vn 0.0552 0.1143 0.9919
vn -0.6362 -0.6702 0.3821
vn -0.2657 0.4253 0.8652
vn -0.7219 0.6206 0.3063
vn -0.3645 -0.8597 -0.3578
vn 0.1991 0.3561 0.9130
vn 0.5623 0.5378 0.6282
vn 0.2258 0.3325 0.9157
vn -0.4380 0.6176 -0.6532
vn -0.8670 0.3832 0.3186
vn 0.9570 -0.2544 0.1390
vn 0.5114 0.6578 0.5530
vn 0.2951 0.4576 -0.8387
vn -0.2521 -0.3391 0.9063
vn 0.5125 0.8353 0.1993
vn 0.3608 0.9310 0.0558
vn -0.1362 0.5126 0.8477
vn -0.4855 -0.1355 0.8636
vn 0.2758 0.7634 -0.5841
vn -0.1544 -0.6120 0.7756
vn 0.0842 0.1957 -0.9770
vn 0.9476 -0.3120 -0.0687
vn -0.9953 0.0151 -0.0956
vn -0.1167 0.2535 -0.9603
vn 0.0321 -0.6353 0.7716
vn -0.9995 -0.0007 0.0307
vn 0.9615 -0.2444 -0.1255
vn 0.0426 -0.9805 -0.1919
vn 0.1799 -0.8697 0.4596
vn -0.9746 -0.1739 0.1410
vn -0.9687 -0.2301 -0.0930
vn 0.9868 -0.0554 -0.1522
vn -0.0692 0.7432 -0.6655
vn -0.0455 -0.7859 -0.6166
vn 0.0259 -0.9874 0.1558
vn 0.1460 -0.2987 0.9431
vn 0.2207 0.0574 -0.9736
vn 0.9576 -0.1470 0.2478
vn 0.6484 0.0430 -0.7601
vn 0.4435 -0.5477 -0.7094
vn 0.5411 -0.3509 -0.7642
vn 0.6097 -0.1520 -0.7779
vn 0.9845 -0.1278 0.1201
vn 0.9447 -0.2954 0.1425
vn 0.9313 -0.3219 0.1705
vn 0.0338 -0.5383 -0.8421
vn 0.1245 -0.3239 -0.9379
vn 0.1865 -0.0845 -0.9788
vn 0.2156 0.3615 0.9071
vn 0.2045 -0.1025 0.9735
vn 0.1542 -0.2678 0.9511
vn -0.9487 0.0130 0.3160
vn -0.9762 -0.0222 0.2156
vn -0.9877 -0.0626 0.1433
vn -0.1517 -0.3894 -0.9085
vn 0.0005 0.3553 -0.9347
vn -0.0259 0.5256 -0.8503
vn 0.9027 0.1768 0.3923
vn 0.9550 -0.2476 0.1631
vn 0.9838 -0.1759 -0.0355
vn -0.9635 0.0871 -0.2530
vn -0.9992 0.0330 0.0203
vn -0.9978 0.0280 0.0605
vn -0.5563 0.2575 0.7901
vn -0.3449 -0.4183 0.8403
vn -0.1911 -0.5346 0.8232
vn 0.4872 -0.2567 0.8347
vn 0.3876 0.4145 -0.8234
vn -0.1580 -0.4563 -0.8757
vn -0.1513 -0.8001 -0.5805
vn -0.8227 -0.1197 -0.5557
vt 0.882279 0.260085
vt 0.436089 0.649131
vt 0.117664 0.305524
vt 0.860974 0.338762
vt 0.079561 0.383885
vt 0.278417 0.728674
vt 0.111517 0.716819
vt 0.301243 0.337859
vt 0.232943 0.387386
vt 0.111517 0.662267
vt 0.671871 0.687525
vt 0.175114 0.511099
vt 0.930991 0.712692
vt 0.796001 0.259488
vt 0.522181 0.649131
vt 0.719621 0.316178
vt 0.801110 0.310020
vt 0.698705 0.366293
vt 0.510656 0.337024
vt 0.023033 0.717149
vt 0.367094 0.730187
vt 0.507246 0.358198
vt 0.018976 0.695717
vt 0.103380 0.570561
vt 0.268725 0.266033
vt 0.143950 0.273348
vt 0.098384 0.631539
vt 0.301351 0.259488
vt 0.128079 0.559933
vt 0.480438 0.333338
vt 0.348619 0.714075
vt 0.604958 0.268707
vt 0.031105 0.562973
vt 0.043818 0.625810
vt 0.721993 0.282954
vt 0.329365 0.336360
vt 0.302724 0.713315
vt 0.030374 0.549675
vt 0.582817 0.260846
vt 0.875347 0.642471
vt 0.380514 0.272320
vt 0.124895 0.517524
vt 0.813390 0.578569
vt 0.436089 0.332372
vt 0.956124 0.588845
vt 0.367094 0.692599
vt 0.367094 0.522797
vt 0.871643 0.594841
vt 0.398138 0.324445
vt 0.043891 0.509019
vt 0.796001 0.641153
vt 0.491075 0.268473
vt 0.032114 0.534706
vt 0.552485 0.259488
vt 0.331566 0.259909
vt 0.129819 0.544964
vt 0.339759 0.337186
vt 0.913298 0.588845
vt 0.317584 0.707220
vt 0.845734 0.463378
vt 0.311567 0.646434
vt 0.944558 0.353645
vt 0.398138 0.462439
vt 0.920230 0.354337
vt 0.870057 0.463781
vt 0.929709 0.374247
vt 0.357807 0.478584
vt 0.347994 0.663056
vt 0.944558 0.373825
vt 0.097076 0.285727
vt 0.229765 0.651022
vt 0.758050 0.297859
vt 0.168317 0.651042
vt 0.119329 0.272208
vt 0.094178 0.643292
vt 0.222768 0.636959
vt 0.746872 0.283208
vt 0.174541 0.636975
vt 0.045175 0.638147
vt 0.080672 0.327471
vt 0.442544 0.673801
vt 0.734592 0.339187
vt 0.484453 0.673801
vt 0.070725 0.319456
vt 0.218298 0.685110
vt 0.751374 0.331694
vt 0.180611 0.684911
vt 0.062412 0.356092
vt 0.455575 0.702696
vt 0.724658 0.367821
vt 0.476314 0.702696
vt 0.043357 0.357400
vt 0.210236 0.723455
vt 0.742364 0.370210
vt 0.189444 0.723462
vt 0.050281 0.367705
vt 0.444942 0.715336
vt 0.810526 0.722486
vt 0.728448 0.380153
vt 0.853695 0.722486
vt 0.487920 0.715336
vt 0.018975 0.371756
vt 0.232852 0.738567
vt 0.796001 0.739289
vt 0.758050 0.386241
vt 0.861207 0.739289
vt 0.167770 0.738589
vt 0.100634 0.583041
vt 0.712300 0.698974
vt 0.802197 0.701507
vt 0.098640 0.600731
vt 0.972705 0.287497
vt 0.747907 0.696578
vt 0.052045 0.577939
vt 0.849895 0.701507
vt 0.710445 0.675017
vt 0.050052 0.595630
vt 0.746553 0.677603
vt 0.924885 0.287497
vt 0.797725 0.671259
vt 0.981025 0.313792
vt 0.715147 0.730011
vt 0.752543 0.724602
vt 0.973919 0.259495
vt 0.967002 0.332143
vt 0.934252 0.306472
vt 0.715328 0.644023
vt 0.847669 0.671259
vt 0.923848 0.259495
vt 0.753088 0.649631
vt 0.920230 0.324823
vt 0.068284 0.665533
vt 0.630362 0.705721
vt 0.712055 0.621316
vt 0.966165 0.712391
vt 0.519769 0.388732
vt 0.031375 0.663704
vt 0.592215 0.695479
vt 0.581836 0.620019
vt 0.750017 0.621843
vt 0.569690 0.667298
vt 0.581066 0.387596
vt 0.531739 0.516092
vt 0.642835 0.625048
vt 0.273616 0.509019
vt 0.070982 0.710642
vt 0.316851 0.732164
vt 0.684917 0.393810
vt 0.816625 0.338063
vt 0.644803 0.392946
vt 0.602800 0.367236
vt 0.671871 0.661666
vt 0.181146 0.386242
vt 0.855113 0.259897
vt 0.463196 0.649131
vt 0.077903 0.567886
vt 0.078993 0.554271
vt 0.322237 0.720993
vt 0.070972 0.628379
vt 0.834014 0.651825
vt 0.084160 0.512738
vt 0.838315 0.596273
vt 0.320679 0.509019
vt 0.080733 0.539302
vt 0.857365 0.464048
vt 0.931678 0.351118
vt 0.335174 0.488977
vt 0.367094 0.673623
vt 0.939667 0.384854
vt 0.199177 0.651021
vt 0.069465 0.641494
vt 0.198664 0.632807
vt 0.464209 0.672968
vt 0.199604 0.684998
vt 0.465945 0.702696
vt 0.199840 0.723459
vt 0.466714 0.715004
vt 0.832520 0.720483
vt 0.200177 0.738589
vt 0.829423 0.735282
vt 0.076340 0.580490
vt 0.826046 0.701507
vt 0.074346 0.598181
vt 0.948795 0.287497
vt 0.823088 0.670800
vt 0.959731 0.307426
vt 0.948976 0.259488
vt 0.941524 0.331189
vt 0.875347 0.491894
vt 0.391834 0.432095
vt 0.377694 0.448634
vt 0.915590 0.478791
vt 0.834644 0.488373
vt 0.326937 0.619279
vt 0.938593 0.478810
vt 0.335216 0.632947
vt 0.358601 0.463790
vt 0.348787 0.648138
vt 0.927106 0.463378
vt 0.854274 0.489560
vt 0.315804 0.619182
vt 0.212520 0.321385
vt 0.644070 0.318501
vt 0.018976 0.592450
vt 0.663817 0.276029
vt 0.129819 0.597828
vt 0.224108 0.269832
vt 0.051049 0.586785
vt 0.728499 0.676310
vt 0.099637 0.591886
vt 0.730103 0.697776
vt 0.734390 0.646904
vt 0.920230 0.314550
vt 0.981025 0.324065
vt 0.732426 0.727384
vt 0.950683 0.319044
vt 0.753088 0.663662
vt 0.920230 0.273492
vt 0.977552 0.273492
vt 0.752543 0.710647
vt 0.709822 0.714522
vt 0.796001 0.686127
vt 0.853178 0.686127
vt 0.709822 0.659561
vt 0.824792 0.685890
vt 0.948939 0.273488
vt 0.731549 0.661651
vt 0.730449 0.712624
vt 0.878850 0.297575
vt 0.096711 0.342677
vt 0.285581 0.357771
vt 0.108549 0.696221
vt 0.804979 0.293594
vt 0.708839 0.350023
vt 0.668288 0.644023
vt 0.436089 0.526409
vt 0.145034 0.385321
vt 0.919159 0.607821
vt 0.247387 0.613831
vt 0.970304 0.416607
vt 0.947808 0.608020
vt 0.704660 0.516092
vt 0.970304 0.403829
vt 0.750017 0.516884
vt 0.618892 0.516092
vt 0.920230 0.404231
vt 0.273616 0.612878
vt 0.642836 0.516847
vt 0.938584 0.415207
vt 0.924281 0.443436
vt 0.075400 0.489812
vt 0.855524 0.444402
vt 0.531739 0.629156
vt 0.934913 0.435583
vt 0.576828 0.496673
vt 0.931440 0.443424
vt 0.848383 0.444289
vt 0.592622 0.497116
vt 0.934913 0.440184
vt 0.586164 0.496977
vt 0.517161 0.630156
vt 0.920230 0.438606
vt 0.085942 0.490043
vt 0.585376 0.420489
vt 0.510472 0.551446
vt 0.582586 0.444044
vt 0.504260 0.576063
vt 0.581388 0.469636
vt 0.508131 0.602400
vt 0.103684 0.463024
vt 0.477645 0.604263
vt 0.118194 0.440373
vt 0.454885 0.581958
vt 0.129418 0.415411
vt 0.438452 0.557360
vt 0.876897 0.417052
vt 0.081901 0.462161
vt 0.882279 0.393921
vt 0.081653 0.438865
vt 0.880271 0.363315
vt 0.079604 0.408162
vt 0.633117 0.418943
vt 0.615530 0.444447
vt 0.600997 0.469910
vt 0.614559 0.469949
vt 0.862035 0.416811
vt 0.638313 0.444473
vt 0.857648 0.390640
vt 0.666106 0.417503
vt 0.844696 0.362700
vt 0.167770 0.536691
vt 0.914144 0.688660
vt 0.182151 0.561697
vt 0.913298 0.663084
vt 0.189855 0.582503
vt 0.915415 0.641729
vt 0.680787 0.549268
vt 0.966165 0.641681
vt 0.684678 0.573659
vt 0.963812 0.665813
vt 0.684995 0.596421
vt 0.964308 0.688427
vt 0.584794 0.548886
vt 0.729850 0.550060
vt 0.578610 0.572959
vt 0.734888 0.574452
vt 0.569690 0.595426
vt 0.736445 0.597214
vt 0.642060 0.590920
vt 0.247172 0.543053
vt 0.641052 0.570535
vt 0.248998 0.562413
vt 0.635978 0.552556
vt 0.245738 0.579271
s 0
usemtl Material
f 89/203/1 7/19/1 13/32/1 90/205/1
f 8/22/2 7/19/2 89/203/2 58/151/2 54/142/2 53/136/2
f 6/18/3 56/148/3 57/150/3
f 3/8/4 106/231/4 4/9/4 59/153/4 88/202/4
f 6/17/5 107/233/5 5/14/5 60/154/5 1/1/5 105/229/5 2/4/5 56/149/5
f 61/156/6 13/33/6 16/38/6 62/157/6
f 5/16/7 14/35/7 31/77/7 29/72/7
f 88/202/8 1/3/8 10/26/8 91/207/8
f 67/164/9 21/53/9 20/50/9 65/161/9
f 13/32/10 7/19/10 12/30/10 16/39/10
f 3/8/11 9/25/11 11/28/11 15/36/11
f 55/147/12 3/6/12 15/37/12 63/158/12
f 66/162/13 19/48/13 17/40/13 65/160/13
f 23/57/14 22/55/14 17/41/14 19/49/14
f 83/191/15 82/190/15 25/63/15 26/67/15
f 15/36/16 11/28/16 22/55/16 23/57/16
f 62/157/17 16/38/17 21/53/17 67/164/17
f 69/169/18 26/66/18 25/64/18 68/166/18
f 87/200/19 84/193/19 24/60/19 68/165/19
f 86/197/20 83/191/20 26/67/20 69/167/20
f 84/194/21 85/196/21 27/68/21 24/61/21
f 70/170/22 29/73/22 31/78/22 71/172/22
f 70/170/23 28/71/23 34/85/23 73/174/23
f 10/26/24 1/3/24 28/70/24 30/74/24
f 64/159/25 10/27/25 30/75/25 71/171/25
f 34/84/26 32/80/26 36/88/26 38/92/26
f 60/155/27 5/15/27 33/83/27 72/173/27
f 5/16/28 29/72/28 35/86/28 33/82/28
f 28/70/29 1/3/29 32/80/29 34/84/29
f 37/90/30 39/94/30 43/105/30 41/99/30
f 73/174/31 34/85/31 38/93/31 75/176/31
f 33/82/32 35/86/32 39/94/32 37/90/32
f 72/173/33 33/83/33 37/91/33 74/175/33
f 76/178/34 41/100/34 43/106/34 77/180/34
f 74/175/35 37/91/35 41/101/35 76/177/35
f 38/92/36 36/88/36 40/96/36 42/102/36
f 75/176/37 38/93/37 42/103/37 77/179/37
f 102/226/38 97/218/38 51/129/38 81/187/38
f 91/206/39 10/27/39 45/111/39 93/210/39
f 90/204/40 13/33/40 46/114/40 92/208/40
f 61/156/41 9/24/41 44/108/41 78/181/41
f 64/159/42 14/34/42 47/117/42 79/183/42
f 96/216/43 94/213/43 50/126/43 80/186/43
f 101/225/44 99/222/44 48/120/44 80/185/44
f 104/228/45 98/220/45 49/123/45 95/215/45
f 103/227/46 100/224/46 50/127/46 94/212/46
f 8/23/47 53/137/47 52/132/47
f 8/23/48 52/132/48 4/10/48 106/232/48 3/7/48 55/146/48 7/20/48
f 54/142/49 58/151/49 89/203/49 5/16/49 107/234/49 6/18/49 57/150/49
f 100/223/50 101/225/50 80/185/50 50/128/50
f 95/214/51 96/216/51 80/186/51 48/121/51
f 10/27/52 64/159/52 79/183/52 45/111/52
f 13/33/53 61/156/53 78/181/53 46/114/53
f 98/219/54 102/226/54 81/187/54 49/124/54
f 39/95/55 75/176/55 77/179/55 43/107/55
f 36/89/56 74/175/56 76/177/56 40/97/56
f 40/98/57 76/178/57 77/180/57 42/104/57
f 32/81/58 72/173/58 74/175/58 36/89/58
f 35/87/59 73/174/59 75/176/59 39/95/59
f 1/2/60 60/155/60 72/173/60 32/81/60
f 14/34/61 64/159/61 71/171/61 31/79/61
f 29/73/62 70/170/62 73/174/62 35/87/62
f 28/71/63 70/170/63 71/172/63 30/76/63
f 85/196/64 86/198/64 69/168/64 27/68/64
f 82/189/65 87/200/65 68/165/65 25/65/65
f 27/69/66 69/169/66 68/166/66 24/62/66
f 11/29/67 62/157/67 67/164/67 22/56/67
f 18/43/68 66/162/68 65/160/68 20/51/68
f 7/21/69 55/147/69 63/158/69 12/31/69
f 22/56/70 67/164/70 65/161/70 17/42/70
f 9/24/71 61/156/71 62/157/71 11/29/71
f 19/48/72 66/162/72 87/200/72 82/189/72
f 12/30/73 18/44/73 20/52/73 21/54/73 16/39/73
f 66/163/74 18/47/74 84/194/74 87/201/74
f 23/57/75 19/49/75 82/190/75 83/191/75
f 49/125/76 81/188/76 96/216/76 95/214/76
f 97/217/77 103/227/77 94/212/77 51/130/77
f 99/221/78 104/228/78 95/215/78 48/122/78
f 81/188/79 51/131/79 94/213/79 96/216/79
f 14/34/80 90/204/80 92/208/80 47/117/80
f 9/24/81 91/206/81 93/210/81 44/108/81
f 3/8/82 88/202/82 91/207/82 9/25/82
f 5/16/83 89/203/83 90/205/83 14/35/83
f 44/109/84 93/211/84 104/228/84 99/221/84
f 47/118/85 92/209/85 103/227/85 97/217/85
f 45/112/86 79/184/86 102/226/86 98/219/86
f 46/115/87 78/182/87 101/225/87 100/223/87
f 92/209/88 46/116/88 100/224/88 103/227/88
f 93/211/89 45/113/89 98/220/89 104/228/89
f 78/182/90 44/110/90 99/222/90 101/225/90
f 79/184/91 47/119/91 97/218/91 102/226/91
f 59/152/92 4/11/92 52/133/92 53/138/92 54/141/92 108/235/92
f 136/298/93 110/241/93 109/238/93 135/296/93
f 121/271/94 120/269/94 114/253/94 117/261/94
f 139/304/95 111/244/95 110/242/95 136/297/95
f 135/295/96 109/239/96 112/247/96 144/314/96
f 144/313/97 112/248/97 111/245/97 139/303/97
f 111/246/98 112/249/98 109/240/98 110/243/98
f 117/262/99 114/254/99 116/259/99 115/256/99 113/250/99
f 124/277/100 121/270/100 117/263/100 113/251/100
f 120/268/101 129/284/101 116/260/101 114/255/101
f 130/286/102 124/276/102 113/252/102 115/257/102
f 129/284/103 130/285/103 115/258/103 116/260/103
f 57/150/104 56/148/104 132/289/104 127/282/104
f 127/282/105 132/289/105 131/287/105 128/283/105
f 128/283/106 131/287/106 130/285/106 129/284/106
f 56/149/107 2/4/107 126/280/107 132/290/107
f 132/290/108 126/280/108 125/278/108 131/288/108
f 131/288/109 125/278/109 124/276/109 130/286/109
f 54/142/110 57/150/110 127/282/110 118/264/110
f 118/264/111 127/282/111 128/283/111 119/266/111
f 119/266/112 128/283/112 129/284/112 120/268/112
f 2/5/113 108/237/113 123/274/113 126/281/113
f 126/281/114 123/274/114 122/272/114 125/279/114
f 125/279/115 122/272/115 121/270/115 124/277/115
f 108/236/116 54/143/116 118/265/116 123/275/116
f 123/275/117 118/265/117 119/267/117 122/273/117
f 122/273/118 119/267/118 120/269/118 121/271/118
f 54/144/119 142/309/119 141/307/119 53/139/119
f 142/309/120 143/311/120 140/305/120 141/307/120
f 143/311/121 144/313/121 139/303/121 140/305/121
f 4/12/122 133/291/122 142/310/122 54/145/122
f 133/291/123 134/293/123 143/312/123 142/310/123
f 134/293/124 135/295/124 144/314/124 143/312/124
f 53/140/125 141/308/125 138/301/125 52/134/125
f 141/308/126 140/306/126 137/299/126 138/301/126
f 140/306/127 139/304/127 136/297/127 137/299/127
f 52/135/128 138/302/128 133/292/128 4/13/128
f 138/302/129 137/300/129 134/294/129 133/292/129
f 137/300/130 136/298/130 135/296/130 134/294/130
f 105/230/131 1/3/131 88/202/131 59/153/131 108/237/131 2/5/131
f 86/199/132 85/195/132 83/192/132
f 83/192/133 85/195/133 18/45/133 23/58/133
f 63/158/134 15/37/134 23/59/134 18/46/134 12/31/134
f 84/194/135 18/47/135 85/196/135
l 52 106
