# Blender 3.3.1
# www.blender.org
mtllib monstruo_3_grande_caminar613.mtl
o monstruo_grande
v 0.315572 2.035232 0.193622
v 0.526497 1.214596 0.085108
v -0.738530 1.713220 0.201146
v -0.287618 1.107172 0.222043
v 0.436818 2.329246 -0.156482
v 0.501374 1.632522 -0.261725
v -0.891944 1.932248 -0.211861
v -0.772778 1.651770 -0.282019
v -0.379475 2.383509 0.465116
v 0.181650 2.305396 0.408369
v -0.508566 2.348230 0.568817
v -1.254634 1.969963 -0.052351
v -0.387815 2.542581 0.104429
v 0.156147 2.443716 0.149581
v -1.093928 1.839476 0.101983
v -0.551623 2.608501 0.129903
v -0.857314 2.250242 0.594723
v -1.537381 1.895382 0.220145
v -1.255227 1.945384 0.416702
v -1.056108 2.553216 0.326949
v -0.734007 2.642526 0.203248
v -0.583809 2.299394 0.547626
v -1.227107 1.858465 0.105811
v -1.812350 0.650507 0.934135
v -1.685108 0.632637 0.977269
v -1.670990 0.453848 0.778576
v -1.748654 0.464757 0.752249
v 0.342243 2.224608 0.378237
v 0.413585 2.425653 0.116169
v 0.295237 2.339293 0.396038
v 0.287144 2.472971 0.169223
v 0.565062 1.917436 0.149994
v 0.659794 2.024689 -0.031127
v 0.590874 1.996838 0.201871
v 0.653640 2.119475 0.046715
v 0.733961 1.699987 0.054031
v 0.802548 1.739687 -0.028167
v 0.819846 1.656186 0.097144
v 0.885929 1.706111 0.016364
v 0.747892 1.544487 0.060471
v 0.888872 1.645385 -0.104989
v 0.861954 1.424633 0.167565
v 1.067505 1.575816 -0.087720
v -0.217594 2.443191 0.481931
v -0.006950 2.420362 0.461095
v -0.224941 2.538951 0.233509
v -0.023407 2.516424 0.216118
v -0.160208 2.756256 0.625797
v 0.044471 2.691203 0.583532
v -0.176951 2.869287 0.372255
v 0.026438 2.804741 0.329023
v -0.498877 1.120778 0.011921
v -0.388943 1.151873 -0.202494
v -0.056940 1.269195 -0.333708
v -0.802059 1.754575 -0.018318
v 0.548194 1.220108 -0.153637
v 0.327737 1.212148 -0.277044
v -0.028955 1.522180 -0.329109
v -0.008290 1.148950 0.195507
v 0.357214 2.124059 0.074762
v -0.375915 2.440067 0.338256
v -0.542304 2.591957 0.402762
v -1.029253 1.906952 -0.018400
v 0.145757 2.430739 0.309710
v -0.893341 2.475441 0.548433
v -1.432378 2.045689 0.458599
v -0.694423 2.570362 0.400171
v -1.759313 0.640713 0.986569
v -1.692190 0.342817 0.665138
v 0.417316 2.336003 0.273285
v 0.291541 2.451629 0.304648
v 0.564883 1.955680 0.023459
v 0.665300 2.069777 0.151227
v 0.767151 1.723341 0.013251
v 0.852680 1.680335 0.056366
v 0.797244 1.600445 -0.035582
v 0.927351 1.512050 0.016829
v -0.221471 2.490553 0.356538
v -0.016434 2.469431 0.338050
v -0.199696 2.814114 0.501855
v 0.067031 2.746918 0.454018
v -1.567334 0.958357 0.912303
v -1.625363 0.782303 0.850519
v -1.786610 0.959702 0.839861
v -1.745128 0.799123 0.809921
v -1.684647 0.622712 0.758851
v -1.697809 0.940322 0.929266
v -0.083073 1.769924 0.505583
v 0.011828 2.138587 -0.210847
v -0.031070 2.515801 0.035838
v -0.049677 2.282248 0.598430
v -0.125594 2.526519 0.223165
v -0.108493 2.430007 0.470835
v -0.078121 2.853621 0.312140
v -0.055425 2.706770 0.642600
v -0.062083 2.830925 0.500507
v 0.015418 2.670738 0.247797
v 0.033711 2.544168 0.538915
v -0.201745 2.592743 0.576405
v -0.222014 2.719104 0.283429
v -0.227914 2.657232 0.431839
v 0.040247 2.607453 0.392010
v -0.105109 2.703131 0.245149
v -0.081786 2.558506 0.577614
v 0.370771 1.735012 -0.034998
v -0.597511 1.439610 0.221768
v 0.477736 1.853581 -0.262112
v 0.180143 1.182759 0.197297
v -0.192041 -0.003867 -0.087880
v -0.336252 0.001626 0.034676
v -0.362512 0.001569 -0.215027
v -0.227369 -0.003331 -0.229984
v 0.367916 0.021345 0.164020
v 0.286582 0.001571 0.099265
v 0.372892 0.014096 0.125363
v 0.338712 0.006343 0.103785
v 0.310547 0.020496 0.181356
v 0.098229 0.865566 -0.089899
v 0.144250 0.611147 0.028705
v 0.209726 0.319339 0.093254
v 0.270374 0.323200 0.264694
v 0.243822 0.576701 0.308217
v 0.233828 0.855294 0.308001
v 0.387252 0.327129 0.221466
v 0.440447 0.588599 0.236283
v 0.510231 0.929425 0.213712
v 0.355048 0.902151 -0.076261
v 0.326214 0.619038 0.034247
v 0.318295 0.323683 0.096712
v 0.392363 0.327794 0.139020
v 0.450336 0.627609 0.103801
v 0.526524 0.936047 0.025337
v -0.169326 0.836486 0.297507
v -0.143257 0.551129 0.220740
v -0.138188 0.312549 0.174979
v -0.423224 0.302290 0.162111
v -0.434643 0.577096 0.170126
v -0.458018 0.832442 0.175241
v -0.456737 0.359738 -0.099909
v -0.465961 0.636023 -0.093400
v -0.474549 0.862765 -0.101048
v -0.078022 0.825430 -0.133641
v -0.122646 0.620372 -0.137833
v -0.165134 0.407282 -0.127194
vn -0.1209 0.5336 -0.8370
vn -0.0829 0.0707 -0.9940
vn 0.4860 -0.1695 -0.8573
vn -0.2182 -0.2947 0.9304
vn 0.9413 0.0985 0.3228
vn 0.5740 0.8022 0.1645
vn 0.0126 0.9169 -0.3988
vn 0.6647 -0.1978 0.7204
vn -0.1216 0.9143 0.3864
vn -0.1911 0.5177 -0.8340
vn -0.0814 -0.4772 0.8750
vn -0.3739 -0.8829 -0.2840
vn -0.1910 -0.1119 0.9752
vn 0.3662 -0.8415 0.3973
vn 0.9562 -0.2406 0.1666
vn 0.0456 -0.7208 0.6917
vn 0.0740 0.9813 0.1776
vn 0.0493 -0.7325 0.6790
vn -0.6526 0.2698 0.7081
vn 0.9175 0.0279 -0.3968
vn -0.8863 0.0140 -0.4629
vn 0.5849 0.7636 0.2735
vn 0.6161 0.1526 0.7727
vn -0.1253 -0.5556 0.8220
vn -0.0772 0.6148 0.7849
vn -0.4262 -0.5595 0.7109
vn -0.4283 -0.5071 -0.7479
vn 0.7831 0.5712 -0.2459
vn -0.1125 -0.6439 0.7568
vn 0.4158 0.8173 -0.3989
vn 0.5834 0.1128 0.8043
vn 0.6788 0.3889 -0.6229
vn -0.4419 -0.2828 -0.8513
vn -0.1971 -0.6917 -0.6948
vn -0.6736 0.0649 -0.7362
vn -0.5534 0.0844 0.8286
vn 0.7827 0.2719 0.5598
vn 0.9708 -0.0086 -0.2398
vn 0.4017 0.5802 0.7085
vn 0.0788 0.9961 -0.0393
vn -0.3423 0.8686 0.3583
vn 0.3532 0.9142 0.1987
vn 0.0573 0.9694 0.2386
vn -0.9543 0.1033 0.2804
vn 0.3425 -0.3645 0.8660
vn -0.2996 0.4946 -0.8159
vn -0.6798 -0.5910 -0.4342
vn -0.8611 -0.4596 0.2173
vn 0.0681 0.1089 -0.9917
vn -0.9724 0.2331 -0.0020
vn 0.0764 0.8290 0.5539
vn 0.4420 0.7468 0.4970
vn -0.3061 0.8720 0.3820
vn 0.9886 -0.1450 0.0416
vn 0.5949 0.1289 0.7934
vn -0.8417 -0.0513 -0.5375
vn -0.2790 -0.7683 -0.5761
vn -0.7612 -0.5453 -0.3509
vn 0.8557 0.3952 0.3342
vn -0.5381 -0.7079 -0.4575
vn -0.1828 0.9770 0.1097
vn 0.7760 0.5745 0.2603
vn 0.6662 0.3604 0.6529
vn -0.4558 0.2207 -0.8623
vn 0.1181 0.1578 0.9804
vn -0.6247 -0.6378 0.4505
vn -0.2316 0.4579 0.8583
vn -0.7189 0.6164 0.3213
vn -0.3748 -0.8471 -0.3768
vn 0.2374 0.4134 0.8790
vn 0.5604 0.6065 0.5640
vn 0.2643 0.3433 0.9013
vn -0.4829 0.5683 -0.6662
vn -0.8505 0.3981 0.3438
vn 0.9583 -0.2641 0.1095
vn 0.5276 0.6937 0.4903
vn 0.2296 0.4254 -0.8754
vn -0.1874 -0.3021 0.9347
vn 0.5025 0.8549 0.1289
vn 0.2783 0.9604 -0.0151
vn -0.1053 0.5087 0.8545
vn -0.4074 -0.1372 0.9029
vn 0.0330 0.7563 -0.6534
vn -0.0841 -0.5758 0.8133
vn 0.0107 0.1582 -0.9874
vn 0.9490 -0.2874 -0.1300
vn -0.9999 -0.0060 -0.0114
vn -0.1888 0.2059 -0.9602
vn 0.1090 -0.6058 0.7882
vn -0.9946 -0.0244 0.1006
vn 0.9452 -0.2459 -0.2148
vn 0.1733 -0.9656 -0.1940
vn 0.2178 -0.5133 0.8301
vn -0.9206 -0.2143 0.3265
vn -0.9534 -0.2912 0.0787
vn 0.9847 -0.0793 -0.1550
vn -0.1212 0.2660 -0.9563
vn -0.0351 -0.9994 0.0043
vn 0.0776 -0.9760 0.2036
vn 0.3265 -0.2024 0.9233
vn 0.0503 -0.0129 -0.9987
vn 0.9936 -0.0722 0.0867
vn 0.5075 0.0098 -0.8616
vn 0.4766 -0.4703 -0.7427
vn 0.5071 -0.3427 -0.7908
vn 0.4916 -0.1938 -0.8490
vn 0.9959 -0.0188 0.0880
vn 0.9761 -0.2117 0.0495
vn 0.9806 -0.1930 0.0328
vn 0.0773 -0.5129 -0.8550
vn 0.0795 -0.3887 -0.9179
vn 0.0390 -0.2076 -0.9774
vn 0.2362 0.3660 0.9001
vn 0.3311 0.0028 0.9436
vn 0.3477 -0.1233 0.9295
vn -0.9276 -0.0890 0.3629
vn -0.9449 -0.0266 0.3263
vn -0.9353 -0.1454 0.3225
vn -0.1680 -0.3541 -0.9200
vn -0.1035 0.0007 -0.9946
vn -0.1122 -0.0008 -0.9937
vn 0.9078 0.2526 0.3348
vn 0.9889 -0.0598 0.1357
vn 0.9963 -0.0803 -0.0295
vn -0.9821 -0.0102 -0.1882
vn -0.9948 -0.0656 0.0773
vn -0.9927 -0.0402 0.1136
vn -0.5403 0.1957 0.8184
vn -0.2874 -0.1690 0.9428
vn -0.1117 -0.1071 0.9880
vn 0.5999 -0.0812 0.7959
vn 0.3445 0.3681 -0.8636
vn -0.2059 -0.4699 -0.8584
vn -0.2172 -0.8169 -0.5343
vn -0.8444 -0.1208 -0.5220
vt 0.882279 0.260085
vt 0.436089 0.649131
vt 0.117664 0.305524
vt 0.860974 0.338762
vt 0.079561 0.383885
vt 0.278417 0.728674
vt 0.111517 0.716819
vt 0.301243 0.337859
vt 0.232943 0.387386
vt 0.111517 0.662267
vt 0.671871 0.687525
vt 0.175114 0.511099
vt 0.930991 0.712692
vt 0.796001 0.259488
vt 0.522181 0.649131
vt 0.719621 0.316178
vt 0.801110 0.310020
vt 0.698705 0.366293
vt 0.510656 0.337024
vt 0.023033 0.717149
vt 0.367094 0.730187
vt 0.507246 0.358198
vt 0.018976 0.695717
vt 0.103380 0.570561
vt 0.268725 0.266033
vt 0.143950 0.273348
vt 0.098384 0.631539
vt 0.301351 0.259488
vt 0.128079 0.559933
vt 0.480438 0.333338
vt 0.348619 0.714075
vt 0.604958 0.268707
vt 0.031105 0.562973
vt 0.043818 0.625810
vt 0.721993 0.282954
vt 0.329365 0.336360
vt 0.302724 0.713315
vt 0.030374 0.549675
vt 0.582817 0.260846
vt 0.875347 0.642471
vt 0.380514 0.272320
vt 0.124895 0.517524
vt 0.813390 0.578569
vt 0.436089 0.332372
vt 0.956124 0.588845
vt 0.367094 0.692599
vt 0.367094 0.522797
vt 0.871643 0.594841
vt 0.398138 0.324445
vt 0.043891 0.509019
vt 0.796001 0.641153
vt 0.491075 0.268473
vt 0.032114 0.534706
vt 0.552485 0.259488
vt 0.331566 0.259909
vt 0.129819 0.544964
vt 0.339759 0.337186
vt 0.913298 0.588845
vt 0.317584 0.707220
vt 0.845734 0.463378
vt 0.311567 0.646434
vt 0.944558 0.353645
vt 0.398138 0.462439
vt 0.920230 0.354337
vt 0.870057 0.463781
vt 0.929709 0.374247
vt 0.357807 0.478584
vt 0.347994 0.663056
vt 0.944558 0.373825
vt 0.097076 0.285727
vt 0.229765 0.651022
vt 0.758050 0.297859
vt 0.168317 0.651042
vt 0.119329 0.272208
vt 0.094178 0.643292
vt 0.222768 0.636959
vt 0.746872 0.283208
vt 0.174541 0.636975
vt 0.045175 0.638147
vt 0.080672 0.327471
vt 0.442544 0.673801
vt 0.734592 0.339187
vt 0.484453 0.673801
vt 0.070725 0.319456
vt 0.218298 0.685110
vt 0.751374 0.331694
vt 0.180611 0.684911
vt 0.062412 0.356092
vt 0.455575 0.702696
vt 0.724658 0.367821
vt 0.476314 0.702696
vt 0.043357 0.357400
vt 0.210236 0.723455
vt 0.742364 0.370210
vt 0.189444 0.723462
vt 0.050281 0.367705
vt 0.444942 0.715336
vt 0.810526 0.722486
vt 0.728448 0.380153
vt 0.853695 0.722486
vt 0.487920 0.715336
vt 0.018975 0.371756
vt 0.232852 0.738567
vt 0.796001 0.739289
vt 0.758050 0.386241
vt 0.861207 0.739289
vt 0.167770 0.738589
vt 0.100634 0.583041
vt 0.712300 0.698974
vt 0.802197 0.701507
vt 0.098640 0.600731
vt 0.972705 0.287497
vt 0.747907 0.696578
vt 0.052045 0.577939
vt 0.849895 0.701507
vt 0.710445 0.675017
vt 0.050052 0.595630
vt 0.746553 0.677603
vt 0.924885 0.287497
vt 0.797725 0.671259
vt 0.981025 0.313792
vt 0.715147 0.730011
vt 0.752543 0.724602
vt 0.973919 0.259495
vt 0.967002 0.332143
vt 0.934252 0.306472
vt 0.715328 0.644023
vt 0.847669 0.671259
vt 0.923848 0.259495
vt 0.753088 0.649631
vt 0.920230 0.324823
vt 0.068284 0.665533
vt 0.630362 0.705721
vt 0.712055 0.621316
vt 0.966165 0.712391
vt 0.519769 0.388732
vt 0.031375 0.663704
vt 0.592215 0.695479
vt 0.581836 0.620019
vt 0.750017 0.621843
vt 0.569690 0.667298
vt 0.581066 0.387596
vt 0.531739 0.516092
vt 0.642835 0.625048
vt 0.273616 0.509019
vt 0.070982 0.710642
vt 0.316851 0.732164
vt 0.684917 0.393810
vt 0.816625 0.338063
vt 0.644803 0.392946
vt 0.602800 0.367236
vt 0.671871 0.661666
vt 0.181146 0.386242
vt 0.855113 0.259897
vt 0.463196 0.649131
vt 0.077903 0.567886
vt 0.078993 0.554271
vt 0.322237 0.720993
vt 0.070972 0.628379
vt 0.834014 0.651825
vt 0.084160 0.512738
vt 0.838315 0.596273
vt 0.320679 0.509019
vt 0.080733 0.539302
vt 0.857365 0.464048
vt 0.931678 0.351118
vt 0.335174 0.488977
vt 0.367094 0.673623
vt 0.939667 0.384854
vt 0.199177 0.651021
vt 0.069465 0.641494
vt 0.198664 0.632807
vt 0.464209 0.672968
vt 0.199604 0.684998
vt 0.465945 0.702696
vt 0.199840 0.723459
vt 0.466714 0.715004
vt 0.832520 0.720483
vt 0.200177 0.738589
vt 0.829423 0.735282
vt 0.076340 0.580490
vt 0.826046 0.701507
vt 0.074346 0.598181
vt 0.948795 0.287497
vt 0.823088 0.670800
vt 0.959731 0.307426
vt 0.948976 0.259488
vt 0.941524 0.331189
vt 0.875347 0.491894
vt 0.391834 0.432095
vt 0.377694 0.448634
vt 0.915590 0.478791
vt 0.834644 0.488373
vt 0.326937 0.619279
vt 0.938593 0.478810
vt 0.335216 0.632947
vt 0.358601 0.463790
vt 0.348787 0.648138
vt 0.927106 0.463378
vt 0.854274 0.489560
vt 0.315804 0.619182
vt 0.212520 0.321385
vt 0.644070 0.318501
vt 0.018976 0.592450
vt 0.663817 0.276029
vt 0.129819 0.597828
vt 0.224108 0.269832
vt 0.051049 0.586785
vt 0.728499 0.676310
vt 0.099637 0.591886
vt 0.730103 0.697776
vt 0.734390 0.646904
vt 0.920230 0.314550
vt 0.981025 0.324065
vt 0.732426 0.727384
vt 0.950683 0.319044
vt 0.753088 0.663662
vt 0.920230 0.273492
vt 0.977552 0.273492
vt 0.752543 0.710647
vt 0.709822 0.714522
vt 0.796001 0.686127
vt 0.853178 0.686127
vt 0.709822 0.659561
vt 0.824792 0.685890
vt 0.948939 0.273488
vt 0.731549 0.661651
vt 0.730449 0.712624
vt 0.878850 0.297575
vt 0.096711 0.342677
vt 0.285581 0.357771
vt 0.108549 0.696221
vt 0.804979 0.293594
vt 0.708839 0.350023
vt 0.668288 0.644023
vt 0.436089 0.526409
vt 0.145034 0.385321
vt 0.919159 0.607821
vt 0.247387 0.613831
vt 0.970304 0.416607
vt 0.947808 0.608020
vt 0.704660 0.516092
vt 0.970304 0.403829
vt 0.750017 0.516884
vt 0.618892 0.516092
vt 0.920230 0.404231
vt 0.273616 0.612878
vt 0.642836 0.516847
vt 0.938584 0.415207
vt 0.924281 0.443436
vt 0.075400 0.489812
vt 0.855524 0.444402
vt 0.531739 0.629156
vt 0.934913 0.435583
vt 0.576828 0.496673
vt 0.931440 0.443424
vt 0.848383 0.444289
vt 0.592622 0.497116
vt 0.934913 0.440184
vt 0.586164 0.496977
vt 0.517161 0.630156
vt 0.920230 0.438606
vt 0.085942 0.490043
vt 0.585376 0.420489
vt 0.510472 0.551446
vt 0.582586 0.444044
vt 0.504260 0.576063
vt 0.581388 0.469636
vt 0.508131 0.602400
vt 0.103684 0.463024
vt 0.477645 0.604263
vt 0.118194 0.440373
vt 0.454885 0.581958
vt 0.129418 0.415411
vt 0.438452 0.557360
vt 0.876897 0.417052
vt 0.081901 0.462161
vt 0.882279 0.393921
vt 0.081653 0.438865
vt 0.880271 0.363315
vt 0.079604 0.408162
vt 0.633117 0.418943
vt 0.615530 0.444447
vt 0.600997 0.469910
vt 0.614559 0.469949
vt 0.862035 0.416811
vt 0.638313 0.444473
vt 0.857648 0.390640
vt 0.666106 0.417503
vt 0.844696 0.362700
vt 0.167770 0.536691
vt 0.914144 0.688660
vt 0.182151 0.561697
vt 0.913298 0.663084
vt 0.189855 0.582503
vt 0.915415 0.641729
vt 0.680787 0.549268
vt 0.966165 0.641681
vt 0.684678 0.573659
vt 0.963812 0.665813
vt 0.684995 0.596421
vt 0.964308 0.688427
vt 0.584794 0.548886
vt 0.729850 0.550060
vt 0.578610 0.572959
vt 0.734888 0.574452
vt 0.569690 0.595426
vt 0.736445 0.597214
vt 0.642060 0.590920
vt 0.247172 0.543053
vt 0.641052 0.570535
vt 0.248998 0.562413
vt 0.635978 0.552556
vt 0.245738 0.579271
s 0
usemtl Material
f 89/203/1 7/19/1 13/32/1 90/205/1
f 8/22/2 7/19/2 89/203/2 58/151/2 54/142/2 53/136/2
f 6/18/3 56/148/3 57/150/3
f 3/8/4 106/231/4 4/9/4 59/153/4 88/202/4
f 6/17/5 107/233/5 5/14/5 60/154/5 1/1/5 105/229/5 2/4/5 56/149/5
f 61/156/6 13/33/6 16/38/6 62/157/6
f 5/16/7 14/35/7 31/77/7 29/72/7
f 88/202/8 1/3/8 10/26/8 91/207/8
f 67/164/9 21/53/9 20/50/9 65/161/9
f 13/32/10 7/19/10 12/30/10 16/39/10
f 3/8/11 9/25/11 11/28/11 15/36/11
f 55/147/12 3/6/12 15/37/12 63/158/12
f 66/162/13 19/48/13 17/40/13 65/160/13
f 23/57/14 22/55/14 17/41/14 19/49/14
f 83/191/15 82/190/15 25/63/15 26/67/15
f 15/36/16 11/28/16 22/55/16 23/57/16
f 62/157/17 16/38/17 21/53/17 67/164/17
f 69/169/18 26/66/18 25/64/18 68/166/18
f 87/200/19 84/193/19 24/60/19 68/165/19
f 86/197/20 83/191/20 26/67/20 69/167/20
f 84/194/21 85/196/21 27/68/21 24/61/21
f 70/170/22 29/73/22 31/78/22 71/172/22
f 70/170/23 28/71/23 34/85/23 73/174/23
f 10/26/24 1/3/24 28/70/24 30/74/24
f 64/159/25 10/27/25 30/75/25 71/171/25
f 34/84/26 32/80/26 36/88/26 38/92/26
f 60/155/27 5/15/27 33/83/27 72/173/27
f 5/16/28 29/72/28 35/86/28 33/82/28
f 28/70/29 1/3/29 32/80/29 34/84/29
f 37/90/30 39/94/30 43/105/30 41/99/30
f 73/174/31 34/85/31 38/93/31 75/176/31
f 33/82/32 35/86/32 39/94/32 37/90/32
f 72/173/33 33/83/33 37/91/33 74/175/33
f 76/178/34 41/100/34 43/106/34 77/180/34
f 74/175/35 37/91/35 41/101/35 76/177/35
f 38/92/36 36/88/36 40/96/36 42/102/36
f 75/176/37 38/93/37 42/103/37 77/179/37
f 102/226/38 97/218/38 51/129/38 81/187/38
f 91/206/39 10/27/39 45/111/39 93/210/39
f 90/204/40 13/33/40 46/114/40 92/208/40
f 61/156/41 9/24/41 44/108/41 78/181/41
f 64/159/42 14/34/42 47/117/42 79/183/42
f 96/216/43 94/213/43 50/126/43 80/186/43
f 101/225/44 99/222/44 48/120/44 80/185/44
f 104/228/45 98/220/45 49/123/45 95/215/45
f 103/227/46 100/224/46 50/127/46 94/212/46
f 8/23/47 53/137/47 52/132/47
f 8/23/48 52/132/48 4/10/48 106/232/48 3/7/48 55/146/48 7/20/48
f 54/142/49 58/151/49 89/203/49 5/16/49 107/234/49 6/18/49 57/150/49
f 100/223/50 101/225/50 80/185/50 50/128/50
f 95/214/51 96/216/51 80/186/51 48/121/51
f 10/27/52 64/159/52 79/183/52 45/111/52
f 13/33/53 61/156/53 78/181/53 46/114/53
f 98/219/54 102/226/54 81/187/54 49/124/54
f 39/95/55 75/176/55 77/179/55 43/107/55
f 36/89/56 74/175/56 76/177/56 40/97/56
f 40/98/57 76/178/57 77/180/57 42/104/57
f 32/81/58 72/173/58 74/175/58 36/89/58
f 35/87/59 73/174/59 75/176/59 39/95/59
f 1/2/60 60/155/60 72/173/60 32/81/60
f 14/34/61 64/159/61 71/171/61 31/79/61
f 29/73/62 70/170/62 73/174/62 35/87/62
f 28/71/63 70/170/63 71/172/63 30/76/63
f 85/196/64 86/198/64 69/168/64 27/68/64
f 82/189/65 87/200/65 68/165/65 25/65/65
f 27/69/66 69/169/66 68/166/66 24/62/66
f 11/29/67 62/157/67 67/164/67 22/56/67
f 18/43/68 66/162/68 65/160/68 20/51/68
f 7/21/69 55/147/69 63/158/69 12/31/69
f 22/56/70 67/164/70 65/161/70 17/42/70
f 9/24/71 61/156/71 62/157/71 11/29/71
f 19/48/72 66/162/72 87/200/72 82/189/72
f 12/30/73 18/44/73 20/52/73 21/54/73 16/39/73
f 66/163/74 18/47/74 84/194/74 87/201/74
f 23/57/75 19/49/75 82/190/75 83/191/75
f 49/125/76 81/188/76 96/216/76 95/214/76
f 97/217/77 103/227/77 94/212/77 51/130/77
f 99/221/78 104/228/78 95/215/78 48/122/78
f 81/188/79 51/131/79 94/213/79 96/216/79
f 14/34/80 90/204/80 92/208/80 47/117/80
f 9/24/81 91/206/81 93/210/81 44/108/81
f 3/8/82 88/202/82 91/207/82 9/25/82
f 5/16/83 89/203/83 90/205/83 14/35/83
f 44/109/84 93/211/84 104/228/84 99/221/84
f 47/118/85 92/209/85 103/227/85 97/217/85
f 45/112/86 79/184/86 102/226/86 98/219/86
f 46/115/87 78/182/87 101/225/87 100/223/87
f 92/209/88 46/116/88 100/224/88 103/227/88
f 93/211/89 45/113/89 98/220/89 104/228/89
f 78/182/90 44/110/90 99/222/90 101/225/90
f 79/184/91 47/119/91 97/218/91 102/226/91
f 59/152/92 4/11/92 52/133/92 53/138/92 54/141/92 108/235/92
f 136/298/93 110/241/93 109/238/93 135/296/93
f 121/271/94 120/269/94 114/253/94 117/261/94
f 139/304/95 111/244/95 110/242/95 136/297/95
f 135/295/96 109/239/96 112/247/96 144/314/96
f 144/313/97 112/248/97 111/245/97 139/303/97
f 111/246/98 112/249/98 109/240/98 110/243/98
f 117/262/99 114/254/99 116/259/99 115/256/99 113/250/99
f 124/277/100 121/270/100 117/263/100 113/251/100
f 120/268/101 129/284/101 116/260/101 114/255/101
f 130/286/102 124/276/102 113/252/102 115/257/102
f 129/284/103 130/285/103 115/258/103 116/260/103
f 57/150/104 56/148/104 132/289/104 127/282/104
f 127/282/105 132/289/105 131/287/105 128/283/105
f 128/283/106 131/287/106 130/285/106 129/284/106
f 56/149/107 2/4/107 126/280/107 132/290/107
f 132/290/108 126/280/108 125/278/108 131/288/108
f 131/288/109 125/278/109 124/276/109 130/286/109
f 54/142/110 57/150/110 127/282/110 118/264/110
f 118/264/111 127/282/111 128/283/111 119/266/111
f 119/266/112 128/283/112 129/284/112 120/268/112
f 2/5/113 108/237/113 123/274/113 126/281/113
f 126/281/114 123/274/114 122/272/114 125/279/114
f 125/279/115 122/272/115 121/270/115 124/277/115
f 108/236/116 54/143/116 118/265/116 123/275/116
f 123/275/117 118/265/117 119/267/117 122/273/117
f 122/273/118 119/267/118 120/269/118 121/271/118
f 54/144/119 142/309/119 141/307/119 53/139/119
f 142/309/120 143/311/120 140/305/120 141/307/120
f 143/311/121 144/313/121 139/303/121 140/305/121
f 4/12/122 133/291/122 142/310/122 54/145/122
f 133/291/123 134/293/123 143/312/123 142/310/123
f 134/293/124 135/295/124 144/314/124 143/312/124
f 53/140/125 141/308/125 138/301/125 52/134/125
f 141/308/126 140/306/126 137/299/126 138/301/126
f 140/306/127 139/304/127 136/297/127 137/299/127
f 52/135/128 138/302/128 133/292/128 4/13/128
f 138/302/129 137/300/129 134/294/129 133/292/129
f 137/300/130 136/298/130 135/296/130 134/294/130
f 105/230/131 1/3/131 88/202/131 59/153/131 108/237/131 2/5/131
f 86/199/132 85/195/132 83/192/132
f 83/192/133 85/195/133 18/45/133 23/58/133
f 63/158/134 15/37/134 23/59/134 18/46/134 12/31/134
f 84/194/135 18/47/135 85/196/135
l 52 106
