# Blender 3.3.1
# www.blender.org
mtllib monstruo_3_caminar523.mtl
o monstruo_grande
v 0.505757 1.951721 0.306293
v 0.523365 1.140550 0.104633
v -0.633189 1.842193 0.159655
v -0.321229 1.165163 0.208707
v 0.736860 2.215171 -0.017077
v 0.586411 1.548468 -0.245599
v -0.714005 2.080565 -0.265521
v -0.654074 1.773569 -0.336975
v -0.194758 2.408855 0.475107
v 0.345805 2.247719 0.475307
v -0.335909 2.388512 0.567312
v -1.062829 2.165051 -0.146938
v -0.151516 2.584107 0.125536
v 0.380731 2.387649 0.212871
v -0.936375 2.013200 0.014139
v -0.305184 2.674161 0.144826
v -0.703048 2.338391 0.550918
v -1.374290 2.093710 0.087183
v -1.115516 2.112680 0.308926
v -0.833046 2.682518 0.291757
v -0.485901 2.732101 0.207420
v -0.417725 2.350602 0.535566
v -1.063920 2.043890 0.000838
v -1.771246 0.827203 0.706230
v -1.650474 0.802046 0.762368
v -1.624241 0.625379 0.563009
v -1.697957 0.640735 0.528744
v 0.485138 2.153757 0.476599
v 0.639654 2.334248 0.237201
v 0.458551 2.266350 0.481259
v 0.510667 2.395991 0.258615
v 0.749654 1.826074 0.353804
v 0.908390 1.916391 0.212029
v 0.761245 1.911044 0.405551
v 0.876225 2.018867 0.270968
v 0.952797 1.599387 0.366277
v 1.043243 1.640533 0.311849
v 1.014408 1.584450 0.450998
v 1.103049 1.633613 0.395441
v 0.983143 1.454551 0.417120
v 1.168389 1.554833 0.304786
v 1.050058 1.384082 0.588587
v 1.327623 1.534657 0.413762
v -0.025218 2.439871 0.507419
v 0.181642 2.395079 0.497905
v -0.004061 2.544812 0.262270
v 0.194645 2.495688 0.255493
v 0.032125 2.752733 0.645522
v 0.237372 2.683131 0.614848
v 0.029732 2.858405 0.388632
v 0.235511 2.788496 0.358190
v -0.506669 1.193448 -0.019862
v -0.373954 1.205345 -0.222819
v -0.038266 1.275712 -0.332689
v -0.677272 1.893799 -0.066931
v 0.542397 1.136230 -0.133221
v 0.323967 1.139198 -0.255285
v 0.041209 1.520622 -0.323504
v -0.032538 1.149168 0.206008
v 0.587445 2.028911 0.200834
v -0.173067 2.470025 0.352406
v -0.319205 2.642653 0.414345
v -0.861438 2.077033 -0.090458
v 0.347155 2.377121 0.373380
v -0.700521 2.567482 0.521343
v -1.283357 2.225632 0.342796
v -0.472766 2.644511 0.399825
v -1.724736 0.813924 0.763837
v -1.638776 0.517123 0.445898
v 0.591508 2.256894 0.393632
v 0.490178 2.375874 0.393439
v 0.800611 1.849345 0.235676
v 0.852125 1.977950 0.377224
v 0.997327 1.622867 0.338570
v 1.058745 1.608502 0.423072
v 1.063141 1.503783 0.339858
v 1.165076 1.458147 0.462392
v -0.016055 2.492039 0.383883
v 0.186078 2.446268 0.375660
v -0.000546 2.807437 0.518208
v 0.267588 2.734007 0.485462
v -1.509828 1.121885 0.716462
v -1.569828 0.949980 0.645549
v -1.719586 1.135546 0.621197
v -1.683503 0.973659 0.592711
v -1.627011 0.794972 0.545101
v -1.642123 1.110574 0.719049
v -0.006187 1.762318 0.509777
v 0.221842 2.118637 -0.193236
v 0.203607 2.502362 0.077131
v 0.090984 2.262239 0.627147
v 0.091037 2.519812 0.257292
v 0.084040 2.419561 0.502344
v 0.132481 2.839308 0.334757
v 0.135130 2.702095 0.668678
v 0.137255 2.821974 0.522824
v 0.229122 2.651158 0.282504
v 0.227235 2.532022 0.575132
v -0.009160 2.588373 0.599630
v -0.008219 2.709671 0.305251
v -0.026311 2.649850 0.452862
v 0.242985 2.591129 0.427746
v 0.109645 2.688664 0.273294
v 0.109484 2.552008 0.607146
v 0.533418 1.635759 -0.022192
v -0.562466 1.546149 0.189072
v 0.634350 1.752570 -0.228675
v 0.169231 1.147747 0.217013
v -0.268174 0.205763 -0.405001
v -0.415630 0.145467 -0.302234
v -0.435453 0.275752 -0.516465
v -0.299931 0.280839 -0.527387
v 0.303251 -0.002717 0.143438
v 0.229972 -0.019512 0.068758
v 0.312735 -0.008826 0.105449
v 0.281290 -0.015556 0.079737
v 0.244146 -0.003512 0.153753
v 0.072668 0.833857 -0.048982
v 0.134927 0.609059 0.033156
v 0.169084 0.309065 0.068256
v 0.197806 0.292070 0.247087
v 0.181735 0.541917 0.311743
v 0.191618 0.819169 0.339085
v 0.320573 0.289593 0.225482
v 0.389442 0.543779 0.277432
v 0.479670 0.869135 0.265265
v 0.327684 0.841492 -0.027819
v 0.313563 0.600511 0.067080
v 0.275354 0.303590 0.090984
v 0.340607 0.297294 0.145712
v 0.424579 0.592618 0.155030
v 0.499508 0.864733 0.075384
v -0.236754 0.878807 0.301640
v -0.233833 0.578249 0.140822
v -0.246073 0.366516 -0.006100
v -0.526723 0.399016 -0.045376
v -0.512399 0.656370 0.077555
v -0.510578 0.904182 0.154856
v -0.519863 0.560580 -0.264594
v -0.503284 0.800418 -0.138477
v -0.496036 0.935867 -0.111071
v -0.105019 0.864392 -0.102187
v -0.160231 0.754191 -0.151519
v -0.223778 0.574690 -0.245949
vn 0.0347 0.5835 -0.8114
vn 0.0101 0.0827 -0.9965
vn 0.4656 -0.2787 -0.8400
vn -0.3385 -0.2353 0.9111
vn 0.9408 -0.2094 0.2663
vn 0.6755 0.6931 0.2517
vn 0.2210 0.8888 -0.4016
vn 0.4548 -0.2695 0.8488
vn -0.0385 0.8955 0.4433
vn -0.0225 0.5790 -0.8150
vn -0.2634 -0.4808 0.8364
vn -0.4781 -0.8145 -0.3285
vn -0.3057 -0.1595 0.9387
vn 0.1937 -0.9121 0.3613
vn 0.9191 -0.2932 0.2633
vn -0.1045 -0.7843 0.6115
vn 0.2047 0.9477 0.2447
vn -0.0618 -0.7429 0.6666
vn -0.7104 0.2948 0.6391
vn 0.9551 -0.0156 -0.2959
vn -0.8296 0.0673 -0.5543
vn 0.5929 0.7112 0.3777
vn 0.3445 0.2007 0.9171
vn -0.3415 -0.4954 0.7987
vn -0.1209 0.6275 0.7692
vn -0.6507 -0.4747 0.5927
vn -0.1756 -0.5801 -0.7954
vn 0.8395 0.5421 -0.0367
vn -0.3742 -0.5748 0.7277
vn 0.4403 0.8103 -0.3868
vn 0.2134 0.2644 0.9405
vn 0.8567 0.3359 -0.3914
vn -0.0701 -0.4128 -0.9081
vn 0.2378 -0.8302 -0.5043
vn -0.2762 -0.2313 -0.9329
vn -0.8781 0.0887 0.4701
vn 0.3928 0.5360 0.7473
vn 0.9840 -0.0249 -0.1763
vn 0.3988 0.4850 0.7783
vn 0.2351 0.9711 0.0411
vn -0.2207 0.8962 0.3848
vn 0.4656 0.8486 0.2512
vn 0.0624 0.9747 0.2146
vn -0.9660 0.1226 0.2276
vn 0.2902 -0.3357 0.8961
vn -0.2473 0.4622 -0.8516
vn -0.7300 -0.4612 -0.5044
vn -0.9494 -0.2701 0.1604
vn 0.1566 0.1402 -0.9777
vn -0.9686 0.2375 -0.0741
vn 0.0652 0.8441 0.5322
vn 0.4901 0.6726 0.5545
vn -0.1764 0.8943 0.4112
vn 0.9832 -0.1505 0.1035
vn 0.1401 0.3958 0.9076
vn -0.4845 -0.3361 -0.8076
vn 0.1235 -0.8967 -0.4250
vn -0.5466 -0.6244 -0.5580
vn 0.6454 0.5008 0.5767
vn -0.3883 -0.7324 -0.5594
vn -0.0486 0.9944 0.0943
vn 0.6791 0.5812 0.4484
vn 0.5416 0.2839 0.7912
vn -0.3483 0.2559 -0.9018
vn 0.0198 0.1385 0.9902
vn -0.7014 -0.6096 0.3692
vn -0.2376 0.4397 0.8662
vn -0.6670 0.6891 0.2832
vn -0.4668 -0.7841 -0.4089
vn 0.1935 0.3133 0.9297
vn 0.5989 0.4845 0.6376
vn 0.2073 0.2753 0.9388
vn -0.3398 0.6747 -0.6552
vn -0.8628 0.4179 0.2846
vn 0.9329 -0.3130 0.1781
vn 0.5156 0.6996 0.4946
vn 0.2830 0.3888 -0.8768
vn -0.2349 -0.2691 0.9340
vn 0.5124 0.8483 0.1333
vn 0.4214 0.9052 0.0550
vn -0.1030 0.5087 0.8547
vn -0.4984 -0.0992 0.8612
vn 0.2921 0.7408 -0.6050
vn -0.1464 -0.5534 0.8200
vn 0.0662 0.1205 -0.9905
vn 0.9465 -0.3172 -0.0589
vn -0.9936 -0.0051 -0.1132
vn -0.1307 0.1780 -0.9753
vn 0.0233 -0.5639 0.8255
vn -0.9995 0.0028 0.0307
vn 0.9578 -0.2584 -0.1257
vn 0.0298 -0.9844 -0.1736
vn 0.1343 -0.8294 0.5422
vn -0.9692 -0.1898 0.1569
vn -0.9647 -0.2308 -0.1265
vn 0.9927 -0.0810 -0.0893
vn -0.0170 0.6775 -0.7354
vn -0.0113 -0.8544 -0.5195
vn 0.0451 -0.9827 0.1797
vn 0.1638 -0.2746 0.9475
vn 0.2094 0.0378 -0.9771
vn 0.9632 -0.1217 0.2398
vn 0.6389 0.0409 -0.7682
vn 0.4338 -0.5666 -0.7006
vn 0.5368 -0.3537 -0.7659
vn 0.6153 -0.1460 -0.7747
vn 0.9912 -0.0955 0.0920
vn 0.9602 -0.2448 0.1342
vn 0.9427 -0.2821 0.1784
vn 0.0131 -0.5672 -0.8235
vn 0.1177 -0.3422 -0.9322
vn 0.1895 -0.0979 -0.9770
vn 0.2290 0.4082 0.8837
vn 0.2188 -0.0609 0.9739
vn 0.1616 -0.2385 0.9576
vn -0.9439 0.0106 0.3302
vn -0.9698 -0.0759 0.2318
vn -0.9847 -0.0977 0.1446
vn -0.1257 -0.4175 -0.8999
vn 0.0408 0.2885 -0.9566
vn 0.0309 0.4606 -0.8871
vn 0.8866 0.2129 0.4106
vn 0.9457 -0.2352 0.2244
vn 0.9781 -0.2063 0.0273
vn -0.9538 0.0646 -0.2935
vn -0.9988 0.0337 -0.0367
vn -0.9982 0.0595 0.0051
vn -0.5899 0.2711 0.7606
vn -0.3899 -0.3674 0.8444
vn -0.2485 -0.4724 0.8456
vn 0.4970 -0.2608 0.8276
vn 0.4539 0.3606 -0.8148
vn -0.1428 -0.4144 -0.8988
vn -0.2223 -0.7586 -0.6124
vn -0.7810 -0.0648 -0.6212
vt 0.461701 0.809397
vt 0.301930 0.729761
vt 0.094158 0.499911
vt 0.498737 0.648456
vt 0.250869 0.553264
vt 0.714874 0.752530
vt 0.627854 0.740386
vt 0.227533 0.339544
vt 0.300362 0.438253
vt 0.625828 0.633709
vt 0.338991 0.679376
vt 0.653754 0.621457
vt 0.189641 0.785401
vt 0.531284 0.815038
vt 0.232114 0.729761
vt 0.806952 0.326283
vt 0.527824 0.712310
vt 0.703640 0.331352
vt 0.725736 0.123548
vt 0.557184 0.740386
vt 0.714874 0.681901
vt 0.693091 0.138725
vt 0.558638 0.706064
vt 0.944491 0.391302
vt 0.108931 0.369345
vt 0.090202 0.443431
vt 0.952837 0.467016
vt 0.108059 0.346292
vt 0.960024 0.371234
vt 0.653754 0.712739
vt 0.761990 0.055860
vt 0.265996 0.788213
vt 0.829683 0.188590
vt 0.886815 0.394232
vt 0.909606 0.471204
vt 0.826550 0.267021
vt 0.659457 0.749480
vt 0.206417 0.267620
vt 0.238389 0.812575
vt 0.882743 0.373659
vt 0.837846 0.166681
vt 0.102618 0.289588
vt 0.957957 0.321520
vt 0.918648 0.216117
vt 0.803322 0.012950
vt 0.106348 0.638847
vt 0.232551 0.755661
vt 0.798789 0.485160
vt 0.965752 0.239402
vt 0.153968 0.222285
vt 0.894228 0.312474
vt 0.856067 0.102710
vt 0.881967 0.351902
vt 0.842627 0.144082
vt 0.107159 0.331692
vt 0.958812 0.358201
vt 0.199778 0.246429
vt 0.138792 0.619338
vt 0.232114 0.797406
vt 0.967580 0.012950
vt 0.753483 0.682459
vt 0.843831 0.469074
vt 0.256421 0.022764
vt 0.824689 0.472884
vt 0.987050 0.016155
vt 0.832147 0.505580
vt 0.295109 0.018166
vt 0.782932 0.707368
vt 0.843831 0.503254
vt 0.076417 0.467161
vt 0.958695 0.494573
vt 0.833773 0.298242
vt 0.909847 0.503107
vt 0.076958 0.454690
vt 0.951531 0.482650
vt 0.837149 0.281767
vt 0.912926 0.487172
vt 0.064432 0.532285
vt 0.298790 0.687460
vt 0.825577 0.362572
vt 0.264894 0.686125
vt 0.056614 0.518895
vt 0.959622 0.549977
vt 0.837123 0.350740
vt 0.929664 0.555276
vt 0.051257 0.577890
vt 0.291936 0.641182
vt 0.824256 0.407314
vt 0.275162 0.640522
vt 0.035793 0.577862
vt 0.964581 0.612577
vt 0.838997 0.411720
vt 0.948088 0.615681
vt 0.039898 0.592711
vt 0.301778 0.620707
vt 0.403076 0.772170
vt 0.830596 0.428615
vt 0.403076 0.737417
vt 0.267017 0.619338
vt 0.012950 0.593438
vt 0.987050 0.637067
vt 0.428919 0.781443
vt 0.856067 0.440612
vt 0.428919 0.728949
vt 0.935424 0.646785
vt 0.945356 0.412724
vt 0.357115 0.854737
vt 0.331665 0.779032
vt 0.948027 0.441601
vt 0.799629 0.752473
vt 0.327972 0.853161
vt 0.906904 0.416128
vt 0.370069 0.779032
vt 0.684668 0.778429
vt 0.909575 0.445005
vt 0.655249 0.778999
vt 0.799629 0.791035
vt 0.330193 0.729131
vt 0.557184 0.775635
vt 0.363063 0.804932
vt 0.331684 0.807874
vt 0.754247 0.751428
vt 0.586563 0.768755
vt 0.566112 0.815056
vt 0.689281 0.828405
vt 0.370405 0.729131
vt 0.754247 0.791805
vt 0.657717 0.824383
vt 0.595492 0.808176
vt 0.327830 0.637821
vt 0.590400 0.642651
vt 0.164818 0.789976
vt 0.357235 0.619338
vt 0.642851 0.190721
vt 0.562581 0.649581
vt 0.406824 0.626953
vt 0.080449 0.619338
vt 0.646201 0.239681
vt 0.727583 0.656002
vt 0.597847 0.731399
vt 0.712829 0.722239
vt 0.658284 0.323708
vt 0.527919 0.666449
vt 0.661748 0.291537
vt 0.680225 0.245582
vt 0.377645 0.696957
vt 0.285191 0.477898
vt 0.483372 0.812325
vt 0.280072 0.728266
vt 0.924330 0.393087
vt 0.921760 0.373660
vt 0.678504 0.727397
vt 0.268491 0.812575
vt 0.930826 0.465310
vt 0.923786 0.327561
vt 0.941993 0.227167
vt 0.764056 0.466512
vt 0.919524 0.351927
vt 0.977463 0.013354
vt 0.833186 0.466512
vt 0.317617 0.012950
vt 0.798789 0.722800
vt 0.839639 0.522681
vt 0.934403 0.500152
vt 0.932138 0.484309
vt 0.281656 0.689101
vt 0.944784 0.554368
vt 0.283549 0.640852
vt 0.956335 0.614129
vt 0.284323 0.620942
vt 0.399765 0.754789
vt 0.961112 0.640376
vt 0.422297 0.755187
vt 0.926130 0.414426
vt 0.350867 0.779032
vt 0.928801 0.443303
vt 0.799629 0.771754
vt 0.350773 0.728949
vt 0.557184 0.796361
vt 0.753483 0.771844
vt 0.595492 0.787450
vt 0.985581 0.067358
vt 0.238180 0.070710
vt 0.259592 0.052321
vt 0.138792 0.821791
vt 0.953366 0.057503
vt 0.765454 0.639660
vt 0.120235 0.821584
vt 0.772730 0.660154
vt 0.283154 0.037949
vt 0.784440 0.682652
vt 0.128680 0.843910
vt 0.970110 0.058056
vt 0.758353 0.637393
vt 0.180368 0.432154
vt 0.759258 0.257498
vt 0.884976 0.446549
vt 0.828099 0.241547
vt 0.971226 0.428512
vt 0.101516 0.405509
vt 0.908240 0.430567
vt 0.669958 0.778714
vt 0.946692 0.427163
vt 0.342544 0.853949
vt 0.673120 0.826722
vt 0.582140 0.817526
vt 0.570535 0.766286
vt 0.348248 0.806122
vt 0.576699 0.792002
vt 0.653753 0.802281
vt 0.776512 0.794925
vt 0.776512 0.748700
vt 0.327830 0.829868
vt 0.363063 0.830170
vt 0.327830 0.753980
vt 0.373865 0.753980
vt 0.689281 0.803194
vt 0.351093 0.753886
vt 0.776117 0.771930
vt 0.671321 0.802907
vt 0.345899 0.829874
vt 0.457498 0.727404
vt 0.165986 0.548054
vt 0.260364 0.376248
vt 0.625887 0.695531
vt 0.520555 0.743605
vt 0.734596 0.339638
vt 0.406824 0.703049
vt 0.012950 0.651015
vt 0.277407 0.507014
vt 0.206214 0.619338
vt 0.706517 0.466512
vt 0.399765 0.822801
vt 0.181517 0.620770
vt 0.619265 0.470337
vt 0.422433 0.807343
vt 0.582936 0.466512
vt 0.458892 0.202188
vt 0.422433 0.843958
vt 0.727583 0.468029
vt 0.460639 0.221880
vt 0.402692 0.843997
vt 0.717439 0.778459
vt 0.429089 0.593438
vt 0.518160 0.466685
vt 0.070962 0.817001
vt 0.726094 0.791097
vt 0.457498 0.298878
vt 0.715181 0.783741
vt 0.523936 0.466512
vt 0.458951 0.311476
vt 0.719061 0.788282
vt 0.458165 0.306435
vt 0.058766 0.817583
vt 0.726094 0.778429
vt 0.431598 0.585369
vt 0.599953 0.261833
vt 0.080449 0.668491
vt 0.542336 0.274386
vt 0.076079 0.728305
vt 0.500395 0.287212
vt 0.064936 0.773359
vt 0.389801 0.564275
vt 0.039540 0.774208
vt 0.356388 0.547019
vt 0.031995 0.737396
vt 0.319737 0.531779
vt 0.030523 0.696843
vt 0.505723 0.512116
vt 0.384015 0.580847
vt 0.506522 0.550736
vt 0.346302 0.574833
vt 0.507607 0.604105
vt 0.294291 0.566034
vt 0.610540 0.298468
vt 0.545535 0.300686
vt 0.502363 0.302883
vt 0.504402 0.313331
vt 0.517745 0.511765
vt 0.548610 0.318269
vt 0.527842 0.556627
vt 0.609940 0.323717
vt 0.531284 0.618364
vt 0.660591 0.582499
vt 0.204501 0.743892
vt 0.668589 0.550878
vt 0.206214 0.710848
vt 0.668004 0.517120
vt 0.204545 0.678125
vt 0.623877 0.525891
vt 0.164692 0.675333
vt 0.610236 0.563455
vt 0.167167 0.712219
vt 0.605277 0.597358
vt 0.166352 0.745757
vt 0.511839 0.183186
vt 0.584607 0.521652
vt 0.552303 0.182624
vt 0.569857 0.561129
vt 0.598009 0.178631
vt 0.565182 0.606784
vt 0.592158 0.236754
vt 0.721184 0.600612
vt 0.550092 0.232946
vt 0.722606 0.558204
vt 0.518921 0.225772
vt 0.713819 0.525134
s 0
usemtl Material
f 89/196/1 7/19/1 13/33/1 90/198/1
f 8/22/2 7/19/2 89/196/2 58/145/2 54/138/2 53/134/2
f 6/18/3 56/142/3 57/144/3
f 3/8/4 106/224/4 4/9/4 59/147/4 88/195/4
f 6/17/5 107/226/5 5/14/5 60/148/5 1/1/5 105/222/5 2/4/5 56/143/5
f 61/150/6 13/34/6 16/40/6 62/151/6
f 5/16/7 14/36/7 31/76/7 29/72/7
f 88/195/8 1/3/8 10/26/8 91/200/8
f 67/158/9 21/53/9 20/51/9 65/155/9
f 13/33/10 7/19/10 12/31/10 16/41/10
f 3/8/11 9/25/11 11/28/11 15/38/11
f 55/141/12 3/6/12 15/37/12 63/152/12
f 66/156/13 19/49/13 17/43/13 65/155/13
f 23/57/14 22/55/14 17/42/14 19/50/14
f 83/184/15 82/183/15 25/63/15 26/67/15
f 15/38/16 11/28/16 22/55/16 23/57/16
f 62/151/17 16/40/17 21/53/17 67/158/17
f 69/163/18 26/66/18 25/64/18 68/160/18
f 87/193/19 84/186/19 24/60/19 68/159/19
f 86/190/20 83/184/20 26/67/20 69/161/20
f 84/187/21 85/189/21 27/68/21 24/61/21
f 70/164/22 29/73/22 31/77/22 71/165/22
f 70/164/23 28/71/23 34/83/23 73/167/23
f 10/26/24 1/3/24 28/70/24 30/74/24
f 64/154/25 10/27/25 30/75/25 71/165/25
f 34/82/26 32/78/26 36/86/26 38/90/26
f 60/149/27 5/15/27 33/81/27 72/166/27
f 5/16/28 29/72/28 35/84/28 33/80/28
f 28/70/29 1/3/29 32/78/29 34/82/29
f 37/88/30 39/92/30 43/103/30 41/97/30
f 73/167/31 34/83/31 38/91/31 75/169/31
f 33/80/32 35/84/32 39/92/32 37/88/32
f 72/166/33 33/81/33 37/89/33 74/168/33
f 76/171/34 41/98/34 43/104/34 77/173/34
f 74/168/35 37/89/35 41/99/35 76/170/35
f 38/90/36 36/86/36 40/94/36 42/100/36
f 75/169/37 38/91/37 42/101/37 77/172/37
f 102/219/38 97/211/38 51/127/38 81/180/38
f 91/199/39 10/27/39 45/109/39 93/203/39
f 90/197/40 13/34/40 46/112/40 92/201/40
f 61/150/41 9/24/41 44/106/41 78/174/41
f 64/154/42 14/35/42 47/115/42 79/176/42
f 96/209/43 94/206/43 50/124/43 80/179/43
f 101/218/44 99/215/44 48/118/44 80/178/44
f 104/221/45 98/213/45 49/121/45 95/208/45
f 103/220/46 100/217/46 50/125/46 94/205/46
f 8/23/47 53/135/47 52/131/47
f 8/23/48 52/131/48 4/10/48 106/225/48 3/7/48 55/140/48 7/20/48
f 54/138/49 58/145/49 89/196/49 5/16/49 107/227/49 6/18/49 57/144/49
f 100/216/50 101/218/50 80/178/50 50/126/50
f 95/207/51 96/209/51 80/179/51 48/119/51
f 10/27/52 64/154/52 79/176/52 45/109/52
f 13/34/53 61/150/53 78/174/53 46/112/53
f 98/212/54 102/219/54 81/180/54 49/122/54
f 39/93/55 75/169/55 77/172/55 43/105/55
f 36/87/56 74/168/56 76/170/56 40/95/56
f 40/96/57 76/171/57 77/173/57 42/102/57
f 32/79/58 72/166/58 74/168/58 36/87/58
f 35/85/59 73/167/59 75/169/59 39/93/59
f 1/2/60 60/149/60 72/166/60 32/79/60
f 14/35/61 64/154/61 71/165/61 31/77/61
f 29/73/62 70/164/62 73/167/62 35/85/62
f 28/71/63 70/164/63 71/165/63 30/75/63
f 85/189/64 86/191/64 69/162/64 27/68/64
f 82/182/65 87/193/65 68/159/65 25/65/65
f 27/69/66 69/163/66 68/160/66 24/62/66
f 11/29/67 62/151/67 67/158/67 22/56/67
f 18/44/68 66/156/68 65/155/68 20/51/68
f 7/21/69 55/141/69 63/152/69 12/30/69
f 22/56/70 67/158/70 65/155/70 17/43/70
f 9/24/71 61/150/71 62/151/71 11/29/71
f 19/49/72 66/156/72 87/193/72 82/182/72
f 12/31/73 18/45/73 20/52/73 21/54/73 16/41/73
f 66/157/74 18/48/74 84/187/74 87/194/74
f 23/57/75 19/50/75 82/183/75 83/184/75
f 49/123/76 81/181/76 96/209/76 95/207/76
f 97/210/77 103/220/77 94/205/77 51/128/77
f 99/214/78 104/221/78 95/208/78 48/120/78
f 81/181/79 51/129/79 94/206/79 96/209/79
f 14/35/80 90/197/80 92/201/80 47/115/80
f 9/24/81 91/199/81 93/203/81 44/106/81
f 3/8/82 88/195/82 91/200/82 9/25/82
f 5/16/83 89/196/83 90/198/83 14/36/83
f 44/107/84 93/204/84 104/221/84 99/214/84
f 47/116/85 92/202/85 103/220/85 97/210/85
f 45/110/86 79/177/86 102/219/86 98/212/86
f 46/113/87 78/175/87 101/218/87 100/216/87
f 92/202/88 46/114/88 100/217/88 103/220/88
f 93/204/89 45/111/89 98/213/89 104/221/89
f 78/175/90 44/108/90 99/215/90 101/218/90
f 79/177/91 47/117/91 97/211/91 102/219/91
f 59/146/92 4/11/92 52/130/92 53/133/92 54/136/92 108/228/92
f 136/291/93 110/234/93 109/231/93 135/289/93
f 121/264/94 120/262/94 114/246/94 117/254/94
f 139/297/95 111/237/95 110/235/95 136/290/95
f 135/288/96 109/232/96 112/240/96 144/307/96
f 144/306/97 112/241/97 111/238/97 139/296/97
f 111/239/98 112/242/98 109/233/98 110/236/98
f 117/255/99 114/247/99 116/252/99 115/249/99 113/243/99
f 124/270/100 121/263/100 117/256/100 113/244/100
f 120/261/101 129/277/101 116/253/101 114/248/101
f 130/279/102 124/269/102 113/245/102 115/250/102
f 129/277/103 130/278/103 115/251/103 116/253/103
f 57/144/104 56/142/104 132/282/104 127/275/104
f 127/275/105 132/282/105 131/280/105 128/276/105
f 128/276/106 131/280/106 130/278/106 129/277/106
f 56/143/107 2/4/107 126/273/107 132/283/107
f 132/283/108 126/273/108 125/271/108 131/281/108
f 131/281/109 125/271/109 124/269/109 130/279/109
f 54/138/110 57/144/110 127/275/110 118/257/110
f 118/257/111 127/275/111 128/276/111 119/259/111
f 119/259/112 128/276/112 129/277/112 120/261/112
f 2/5/113 108/230/113 123/267/113 126/274/113
f 126/274/114 123/267/114 122/265/114 125/272/114
f 125/272/115 122/265/115 121/263/115 124/270/115
f 108/229/116 54/137/116 118/258/116 123/268/116
f 123/268/117 118/258/117 119/260/117 122/266/117
f 122/266/118 119/260/118 120/262/118 121/264/118
f 54/138/119 142/302/119 141/300/119 53/134/119
f 142/302/120 143/304/120 140/298/120 141/300/120
f 143/304/121 144/306/121 139/296/121 140/298/121
f 4/12/122 133/284/122 142/303/122 54/139/122
f 133/284/123 134/286/123 143/305/123 142/303/123
f 134/286/124 135/288/124 144/307/124 143/305/124
f 53/135/125 141/301/125 138/294/125 52/131/125
f 141/301/126 140/299/126 137/292/126 138/294/126
f 140/299/127 139/297/127 136/290/127 137/292/127
f 52/132/128 138/295/128 133/285/128 4/13/128
f 138/295/129 137/293/129 134/287/129 133/285/129
f 137/293/130 136/291/130 135/289/130 134/287/130
f 105/223/131 1/3/131 88/195/131 59/147/131 108/230/131 2/5/131
f 86/192/132 85/188/132 83/185/132
f 83/185/133 85/188/133 18/46/133 23/58/133
f 63/153/134 15/39/134 23/59/134 18/47/134 12/32/134
f 84/187/135 18/48/135 85/189/135
l 52 106
