# Blender 3.3.1
# www.blender.org
mtllib monstruo_3_caminar553.mtl
o monstruo_grande
v 0.578041 1.923163 0.417505
v 0.525275 1.094003 0.069835
v -0.578107 1.869285 0.142321
v -0.292366 1.221122 0.221647
v 0.902389 2.167736 0.173063
v 0.651023 1.536240 -0.214432
v -0.617722 2.082079 -0.301934
v -0.606302 1.763928 -0.347736
v -0.143204 2.410539 0.463265
v 0.381471 2.237486 0.530413
v -0.293386 2.398538 0.544317
v -0.953293 2.178922 -0.225625
v -0.064029 2.575245 0.115740
v 0.460859 2.355661 0.264194
v -0.848855 2.033839 -0.041477
v -0.213422 2.671936 0.118648
v -0.662422 2.365474 0.493537
v -1.289708 2.126665 -0.032455
v -1.056952 2.145339 0.217425
v -0.750407 2.703448 0.209142
v -0.395716 2.737518 0.160646
v -0.375446 2.365001 0.507565
v -0.973766 2.064801 -0.075821
v -1.790237 0.884342 0.551213
v -1.677813 0.857587 0.622031
v -1.625077 0.686429 0.423116
v -1.693698 0.702760 0.379891
v 0.490590 2.137972 0.547778
v 0.713106 2.306952 0.366210
v 0.484583 2.253181 0.548068
v 0.581763 2.364297 0.335801
v 0.763015 1.864110 0.576110
v 0.976332 1.870029 0.534537
v 0.773718 1.919563 0.605309
v 0.931706 2.008303 0.524148
v 0.816121 1.744860 0.849123
v 0.930084 1.716957 0.832693
v 0.848052 1.799772 0.934366
v 0.956987 1.771324 0.912284
v 0.768334 1.703538 0.992529
v 0.996075 1.646041 0.949284
v 0.764604 1.798099 1.165412
v 1.106440 1.705065 1.096339
v 0.022607 2.435091 0.510261
v 0.227226 2.388464 0.516538
v 0.063855 2.534020 0.265410
v 0.262639 2.479244 0.273116
v 0.077076 2.745013 0.653327
v 0.282507 2.671641 0.635268
v 0.092528 2.850989 0.396830
v 0.298362 2.777309 0.378557
v -0.499667 1.216847 0.025334
v -0.393465 1.192772 -0.190759
v -0.034320 1.280716 -0.332840
v -0.610985 1.912689 -0.088874
v 0.537162 1.159947 -0.161820
v 0.318529 1.193576 -0.275951
v 0.073606 1.519611 -0.315838
v -0.030387 1.122696 0.196924
v 0.696975 1.988363 0.345100
v -0.108606 2.467901 0.341828
v -0.252554 2.647584 0.387252
v -0.769841 2.092434 -0.135722
v 0.404089 2.358622 0.420393
v -0.647428 2.592957 0.455780
v -1.222914 2.265461 0.227799
v -0.404314 2.655245 0.358818
v -1.751660 0.869463 0.614050
v -1.623770 0.581429 0.302208
v 0.612916 2.240558 0.501578
v 0.538139 2.355620 0.463698
v 0.855579 1.822923 0.526022
v 0.865453 1.980189 0.616690
v 0.871114 1.730000 0.838519
v 0.902655 1.784912 0.923333
v 0.874277 1.657797 0.954100
v 0.921098 1.721694 1.099748
v 0.041098 2.484011 0.386254
v 0.242376 2.435335 0.393530
v 0.053378 2.800463 0.524361
v 0.321556 2.722198 0.507926
v -1.533323 1.178481 0.603732
v -1.582964 1.008617 0.520896
v -1.728848 1.195530 0.482460
v -1.688781 1.033800 0.454239
v -1.625983 0.856451 0.409623
v -1.664776 1.167181 0.588599
v 0.018238 1.749995 0.513599
v 0.333662 2.086839 -0.166727
v 0.286578 2.479705 0.096746
v 0.109850 2.269220 0.640132
v 0.156964 2.506901 0.267166
v 0.131062 2.412013 0.512485
v 0.197964 2.829958 0.348914
v 0.177493 2.692440 0.682703
v 0.190873 2.812429 0.537540
v 0.294600 2.639309 0.301791
v 0.271818 2.521621 0.594390
v 0.035547 2.581781 0.604249
v 0.057396 2.702383 0.309673
v 0.028634 2.643469 0.456432
v 0.297801 2.580117 0.448085
v 0.176319 2.679073 0.285043
v 0.152882 2.543092 0.619257
v 0.649859 1.574512 0.104788
v -0.539581 1.582886 0.176145
v 0.750427 1.729066 -0.147046
v 0.167341 1.065591 0.191969
v -0.274960 0.064099 0.217095
v -0.413816 0.099963 0.340958
v -0.449938 0.054988 0.096148
v -0.315884 0.040370 0.078062
v 0.319431 -0.081729 -0.074784
v 0.245760 -0.093456 -0.150059
v 0.328687 -0.085369 -0.113128
v 0.297099 -0.090351 -0.139059
v 0.260413 -0.083100 -0.064263
v 0.070105 0.831030 -0.176047
v 0.141656 0.539774 -0.137548
v 0.182623 0.235428 -0.124503
v 0.213029 0.201473 0.051632
v 0.192482 0.443334 0.140757
v 0.197051 0.716678 0.195313
v 0.335652 0.203666 0.029195
v 0.399787 0.451866 0.102983
v 0.483185 0.788426 0.131388
v 0.325714 0.848397 -0.158140
v 0.320727 0.531081 -0.105353
v 0.289135 0.229938 -0.103004
v 0.354918 0.219614 -0.049535
v 0.432637 0.515389 -0.019340
v 0.499322 0.842153 -0.053668
v -0.183587 0.970627 0.363967
v -0.187398 0.683692 0.371679
v -0.203418 0.444083 0.400557
v -0.488294 0.452660 0.385063
v -0.475902 0.718300 0.309216
v -0.475998 0.965105 0.250516
v -0.516613 0.435081 0.115374
v -0.502881 0.701885 0.037780
v -0.500339 0.933243 -0.026728
v -0.110172 0.854112 -0.058663
v -0.162276 0.645936 0.005934
v -0.221893 0.449169 0.082662
vn 0.1123 0.5644 -0.8178
vn 0.0358 0.0512 -0.9980
vn 0.4179 -0.2486 -0.8738
vn -0.3846 -0.2118 0.8984
vn 0.9000 -0.3768 0.2192
vn 0.6807 0.6711 0.2938
vn 0.3258 0.8588 -0.3955
vn 0.2710 -0.2341 0.9337
vn -0.0484 0.9127 0.4058
vn 0.0796 0.5420 -0.8366
vn -0.3591 -0.4343 0.8261
vn -0.4798 -0.8155 -0.3236
vn -0.4103 -0.1069 0.9057
vn 0.1147 -0.9030 0.4141
vn 0.8774 -0.3008 0.3737
vn -0.2071 -0.7485 0.6300
vn 0.2172 0.9466 0.2384
vn -0.1466 -0.7608 0.6322
vn -0.7882 0.2770 0.5496
vn 0.9857 -0.0081 -0.1681
vn -0.7498 0.0831 -0.6564
vn 0.4696 0.7475 0.4697
vn -0.0580 0.2805 0.9581
vn -0.5162 -0.4375 0.7363
vn -0.2162 0.6815 0.6991
vn -0.9619 0.1137 0.2487
vn 0.1571 -0.7168 -0.6794
vn 0.8082 0.5587 0.1862
vn -0.5934 -0.5273 0.6081
vn 0.8293 0.0962 -0.5504
vn -0.2652 0.8446 0.4651
vn 0.9954 0.0670 0.0685
vn 0.1789 -0.9157 -0.3599
vn -0.0724 -0.9051 0.4190
vn -0.1468 -0.8610 -0.4870
vn -0.8126 0.5384 -0.2230
vn 0.4513 0.8673 0.2101
vn 0.9927 -0.0426 -0.1127
vn 0.3071 0.5223 0.7956
vn 0.2678 0.9625 0.0436
vn -0.2182 0.9119 0.3476
vn 0.4606 0.8504 0.2542
vn 0.0677 0.9733 0.2194
vn -0.9758 0.1407 0.1675
vn 0.2290 -0.3443 0.9105
vn -0.1860 0.4703 -0.8627
vn -0.8353 -0.4115 -0.3647
vn -0.9658 -0.1745 0.1918
vn 0.2501 0.2139 -0.9443
vn -0.9572 0.2560 -0.1349
vn 0.0477 0.8421 0.5372
vn 0.4293 0.6982 0.5729
vn -0.1813 0.9084 0.3768
vn 0.9718 -0.1708 0.1629
vn 0.1366 0.9508 0.2779
vn -0.4294 -0.7976 -0.4236
vn -0.2192 -0.8614 0.4582
vn -0.4348 -0.8618 -0.2613
vn 0.3145 0.8184 0.4809
vn -0.1508 -0.8880 -0.4345
vn -0.0269 0.9996 0.0106
vn 0.4430 0.6663 0.5998
vn 0.3513 0.2696 0.8966
vn -0.2276 0.2807 -0.9324
vn -0.1109 0.1113 0.9876
vn -0.7420 -0.6191 0.2571
vn -0.2846 0.4776 0.8312
vn -0.6646 0.7247 0.1821
vn -0.4688 -0.7977 -0.3794
vn 0.1066 0.3395 0.9345
vn 0.5622 0.4762 0.6762
vn 0.0950 0.3010 0.9489
vn -0.2404 0.6561 -0.7154
vn -0.8734 0.4546 0.1749
vn 0.8935 -0.3330 0.3014
vn 0.4970 0.6893 0.5270
vn 0.3447 0.3862 -0.8556
vn -0.2986 -0.2667 0.9164
vn 0.5186 0.8388 0.1654
vn 0.4452 0.8932 0.0628
vn -0.1493 0.5597 0.8151
vn -0.5565 -0.0729 0.8276
vn 0.4273 0.7050 -0.5660
vn -0.2131 -0.5547 0.8043
vn 0.1350 0.1170 -0.9839
vn 0.9394 -0.3426 0.0095
vn -0.9825 0.0082 -0.1858
vn -0.0627 0.1815 -0.9814
vn -0.0387 -0.5658 0.8237
vn -0.9992 0.0200 -0.0344
vn 0.9634 -0.2650 -0.0408
vn -0.1056 -0.9850 -0.1363
vn 0.2086 -0.2893 0.9342
vn -0.9669 -0.2082 0.1476
vn -0.9691 -0.1992 0.1456
vn 0.9770 -0.1765 -0.1198
vn -0.1175 0.0340 -0.9925
vn -0.0814 -0.9781 0.1914
vn 0.0437 -0.9924 0.1149
vn 0.1741 -0.3461 0.9219
vn 0.2020 0.1144 -0.9727
vn 0.9661 -0.1323 0.2215
vn 0.6320 0.1039 -0.7680
vn 0.4391 -0.3080 -0.8440
vn 0.5376 -0.1715 -0.8256
vn 0.6089 -0.0747 -0.7897
vn 0.9924 -0.1183 0.0328
vn 0.9730 -0.2195 0.0713
vn 0.9516 -0.2746 0.1381
vn 0.0801 -0.3154 -0.9456
vn 0.1161 -0.1349 -0.9840
vn 0.1837 -0.0221 -0.9827
vn 0.2634 0.0903 0.9604
vn 0.2245 -0.1631 0.9607
vn 0.1800 -0.3247 0.9285
vn -0.9454 -0.0964 0.3112
vn -0.9667 -0.1211 0.2252
vn -0.9818 -0.1298 0.1383
vn -0.1915 -0.4916 -0.8495
vn -0.1322 -0.2642 -0.9554
vn -0.1159 -0.2972 -0.9478
vn 0.9256 0.2299 0.3006
vn 0.9858 -0.0907 0.1410
vn 0.9859 -0.1666 0.0175
vn -0.9854 0.0330 -0.1673
vn -0.9955 0.0284 0.0906
vn -0.9924 0.0765 0.0966
vn -0.4814 0.4313 0.7630
vn -0.2822 0.1204 0.9518
vn -0.1164 0.2078 0.9712
vn 0.3371 -0.3799 0.8614
vn 0.5559 0.3825 -0.7380
vn -0.0400 -0.4348 -0.8997
vn -0.1543 -0.7816 -0.6044
vn -0.7101 -0.0534 -0.7021
vt 0.461701 0.809397
vt 0.301930 0.729761
vt 0.094158 0.499911
vt 0.498737 0.648456
vt 0.250869 0.553264
vt 0.714874 0.752530
vt 0.627854 0.740386
vt 0.227533 0.339544
vt 0.300362 0.438253
vt 0.625828 0.633709
vt 0.338991 0.679376
vt 0.653754 0.621457
vt 0.189641 0.785401
vt 0.531284 0.815038
vt 0.232114 0.729761
vt 0.806952 0.326283
vt 0.527824 0.712310
vt 0.703640 0.331352
vt 0.725736 0.123548
vt 0.557184 0.740386
vt 0.714874 0.681901
vt 0.693091 0.138725
vt 0.558638 0.706064
vt 0.944491 0.391302
vt 0.108931 0.369345
vt 0.090202 0.443431
vt 0.952837 0.467016
vt 0.108059 0.346292
vt 0.960024 0.371234
vt 0.653754 0.712739
vt 0.761990 0.055860
vt 0.265996 0.788213
vt 0.829683 0.188590
vt 0.886815 0.394232
vt 0.909606 0.471204
vt 0.826550 0.267021
vt 0.659457 0.749480
vt 0.206417 0.267620
vt 0.238389 0.812575
vt 0.882743 0.373659
vt 0.837846 0.166681
vt 0.102618 0.289588
vt 0.957957 0.321520
vt 0.918648 0.216117
vt 0.803322 0.012950
vt 0.106348 0.638847
vt 0.232551 0.755661
vt 0.798789 0.485160
vt 0.965752 0.239402
vt 0.153968 0.222285
vt 0.894228 0.312474
vt 0.856067 0.102710
vt 0.881967 0.351902
vt 0.842627 0.144082
vt 0.107159 0.331692
vt 0.958812 0.358201
vt 0.199778 0.246429
vt 0.138792 0.619338
vt 0.232114 0.797406
vt 0.967580 0.012950
vt 0.753483 0.682459
vt 0.843831 0.469074
vt 0.256421 0.022764
vt 0.824689 0.472884
vt 0.987050 0.016155
vt 0.832147 0.505580
vt 0.295109 0.018166
vt 0.782932 0.707368
vt 0.843831 0.503254
vt 0.076417 0.467161
vt 0.958695 0.494573
vt 0.833773 0.298242
vt 0.909847 0.503107
vt 0.076958 0.454690
vt 0.951531 0.482650
vt 0.837149 0.281767
vt 0.912926 0.487172
vt 0.064432 0.532285
vt 0.298790 0.687460
vt 0.825577 0.362572
vt 0.264894 0.686125
vt 0.056614 0.518895
vt 0.959622 0.549977
vt 0.837123 0.350740
vt 0.929664 0.555276
vt 0.051257 0.577890
vt 0.291936 0.641182
vt 0.824256 0.407314
vt 0.275162 0.640522
vt 0.035793 0.577862
vt 0.964581 0.612577
vt 0.838997 0.411720
vt 0.948088 0.615681
vt 0.039898 0.592711
vt 0.301778 0.620707
vt 0.403076 0.772170
vt 0.830596 0.428615
vt 0.403076 0.737417
vt 0.267017 0.619338
vt 0.012950 0.593438
vt 0.987050 0.637067
vt 0.428919 0.781443
vt 0.856067 0.440612
vt 0.428919 0.728949
vt 0.935424 0.646785
vt 0.945356 0.412724
vt 0.357115 0.854737
vt 0.331665 0.779032
vt 0.948027 0.441601
vt 0.799629 0.752473
vt 0.327972 0.853161
vt 0.906904 0.416128
vt 0.370069 0.779032
vt 0.684668 0.778429
vt 0.909575 0.445005
vt 0.655249 0.778999
vt 0.799629 0.791035
vt 0.330193 0.729131
vt 0.557184 0.775635
vt 0.363063 0.804932
vt 0.331684 0.807874
vt 0.754247 0.751428
vt 0.586563 0.768755
vt 0.566112 0.815056
vt 0.689281 0.828405
vt 0.370405 0.729131
vt 0.754247 0.791805
vt 0.657717 0.824383
vt 0.595492 0.808176
vt 0.327830 0.637821
vt 0.590400 0.642651
vt 0.164818 0.789976
vt 0.357235 0.619338
vt 0.642851 0.190721
vt 0.562581 0.649581
vt 0.406824 0.626953
vt 0.080449 0.619338
vt 0.646201 0.239681
vt 0.727583 0.656002
vt 0.597847 0.731399
vt 0.712829 0.722239
vt 0.658284 0.323708
vt 0.527919 0.666449
vt 0.661748 0.291537
vt 0.680225 0.245582
vt 0.377645 0.696957
vt 0.285191 0.477898
vt 0.483372 0.812325
vt 0.280072 0.728266
vt 0.924330 0.393087
vt 0.921760 0.373660
vt 0.678504 0.727397
vt 0.268491 0.812575
vt 0.930826 0.465310
vt 0.923786 0.327561
vt 0.941993 0.227167
vt 0.764056 0.466512
vt 0.919524 0.351927
vt 0.977463 0.013354
vt 0.833186 0.466512
vt 0.317617 0.012950
vt 0.798789 0.722800
vt 0.839639 0.522681
vt 0.934403 0.500152
vt 0.932138 0.484309
vt 0.281656 0.689101
vt 0.944784 0.554368
vt 0.283549 0.640852
vt 0.956335 0.614129
vt 0.284323 0.620942
vt 0.399765 0.754789
vt 0.961112 0.640376
vt 0.422297 0.755187
vt 0.926130 0.414426
vt 0.350867 0.779032
vt 0.928801 0.443303
vt 0.799629 0.771754
vt 0.350773 0.728949
vt 0.557184 0.796361
vt 0.753483 0.771844
vt 0.595492 0.787450
vt 0.985581 0.067358
vt 0.238180 0.070710
vt 0.259592 0.052321
vt 0.138792 0.821791
vt 0.953366 0.057503
vt 0.765454 0.639660
vt 0.120235 0.821584
vt 0.772730 0.660154
vt 0.283154 0.037949
vt 0.784440 0.682652
vt 0.128680 0.843910
vt 0.970110 0.058056
vt 0.758353 0.637393
vt 0.180368 0.432154
vt 0.759258 0.257498
vt 0.884976 0.446549
vt 0.828099 0.241547
vt 0.971226 0.428512
vt 0.101516 0.405509
vt 0.908240 0.430567
vt 0.669958 0.778714
vt 0.946692 0.427163
vt 0.342544 0.853949
vt 0.673120 0.826722
vt 0.582140 0.817526
vt 0.570535 0.766286
vt 0.348248 0.806122
vt 0.576699 0.792002
vt 0.653753 0.802281
vt 0.776512 0.794925
vt 0.776512 0.748700
vt 0.327830 0.829868
vt 0.363063 0.830170
vt 0.327830 0.753980
vt 0.373865 0.753980
vt 0.689281 0.803194
vt 0.351093 0.753886
vt 0.776117 0.771930
vt 0.671321 0.802907
vt 0.345899 0.829874
vt 0.457498 0.727404
vt 0.165986 0.548054
vt 0.260364 0.376248
vt 0.625887 0.695531
vt 0.520555 0.743605
vt 0.734596 0.339638
vt 0.406824 0.703049
vt 0.012950 0.651015
vt 0.277407 0.507014
vt 0.206214 0.619338
vt 0.706517 0.466512
vt 0.399765 0.822801
vt 0.181517 0.620770
vt 0.619265 0.470337
vt 0.422433 0.807343
vt 0.582936 0.466512
vt 0.458892 0.202188
vt 0.422433 0.843958
vt 0.727583 0.468029
vt 0.460639 0.221880
vt 0.402692 0.843997
vt 0.717439 0.778459
vt 0.429089 0.593438
vt 0.518160 0.466685
vt 0.070962 0.817001
vt 0.726094 0.791097
vt 0.457498 0.298878
vt 0.715181 0.783741
vt 0.523936 0.466512
vt 0.458951 0.311476
vt 0.719061 0.788282
vt 0.458165 0.306435
vt 0.058766 0.817583
vt 0.726094 0.778429
vt 0.431598 0.585369
vt 0.599953 0.261833
vt 0.080449 0.668491
vt 0.542336 0.274386
vt 0.076079 0.728305
vt 0.500395 0.287212
vt 0.064936 0.773359
vt 0.389801 0.564275
vt 0.039540 0.774208
vt 0.356388 0.547019
vt 0.031995 0.737396
vt 0.319737 0.531779
vt 0.030523 0.696843
vt 0.505723 0.512116
vt 0.384015 0.580847
vt 0.506522 0.550736
vt 0.346302 0.574833
vt 0.507607 0.604105
vt 0.294291 0.566034
vt 0.610540 0.298468
vt 0.545535 0.300686
vt 0.502363 0.302883
vt 0.504402 0.313331
vt 0.517745 0.511765
vt 0.548610 0.318269
vt 0.527842 0.556627
vt 0.609940 0.323717
vt 0.531284 0.618364
vt 0.660591 0.582499
vt 0.204501 0.743892
vt 0.668589 0.550878
vt 0.206214 0.710848
vt 0.668004 0.517120
vt 0.204545 0.678125
vt 0.623877 0.525891
vt 0.164692 0.675333
vt 0.610236 0.563455
vt 0.167167 0.712219
vt 0.605277 0.597358
vt 0.166352 0.745757
vt 0.511839 0.183186
vt 0.584607 0.521652
vt 0.552303 0.182624
vt 0.569857 0.561129
vt 0.598009 0.178631
vt 0.565182 0.606784
vt 0.592158 0.236754
vt 0.721184 0.600612
vt 0.550092 0.232946
vt 0.722606 0.558204
vt 0.518921 0.225772
vt 0.713819 0.525134
s 0
usemtl Material
f 89/196/1 7/19/1 13/33/1 90/198/1
f 8/22/2 7/19/2 89/196/2 58/145/2 54/138/2 53/134/2
f 6/18/3 56/142/3 57/144/3
f 3/8/4 106/224/4 4/9/4 59/147/4 88/195/4
f 6/17/5 107/226/5 5/14/5 60/148/5 1/1/5 105/222/5 2/4/5 56/143/5
f 61/150/6 13/34/6 16/40/6 62/151/6
f 5/16/7 14/36/7 31/76/7 29/72/7
f 88/195/8 1/3/8 10/26/8 91/200/8
f 67/158/9 21/53/9 20/51/9 65/155/9
f 13/33/10 7/19/10 12/31/10 16/41/10
f 3/8/11 9/25/11 11/28/11 15/38/11
f 55/141/12 3/6/12 15/37/12 63/152/12
f 66/156/13 19/49/13 17/43/13 65/155/13
f 23/57/14 22/55/14 17/42/14 19/50/14
f 83/184/15 82/183/15 25/63/15 26/67/15
f 15/38/16 11/28/16 22/55/16 23/57/16
f 62/151/17 16/40/17 21/53/17 67/158/17
f 69/163/18 26/66/18 25/64/18 68/160/18
f 87/193/19 84/186/19 24/60/19 68/159/19
f 86/190/20 83/184/20 26/67/20 69/161/20
f 84/187/21 85/189/21 27/68/21 24/61/21
f 70/164/22 29/73/22 31/77/22 71/165/22
f 70/164/23 28/71/23 34/83/23 73/167/23
f 10/26/24 1/3/24 28/70/24 30/74/24
f 64/154/25 10/27/25 30/75/25 71/165/25
f 34/82/26 32/78/26 36/86/26 38/90/26
f 60/149/27 5/15/27 33/81/27 72/166/27
f 5/16/28 29/72/28 35/84/28 33/80/28
f 28/70/29 1/3/29 32/78/29 34/82/29
f 37/88/30 39/92/30 43/103/30 41/97/30
f 73/167/31 34/83/31 38/91/31 75/169/31
f 33/80/32 35/84/32 39/92/32 37/88/32
f 72/166/33 33/81/33 37/89/33 74/168/33
f 76/171/34 41/98/34 43/104/34 77/173/34
f 74/168/35 37/89/35 41/99/35 76/170/35
f 38/90/36 36/86/36 40/94/36 42/100/36
f 75/169/37 38/91/37 42/101/37 77/172/37
f 102/219/38 97/211/38 51/127/38 81/180/38
f 91/199/39 10/27/39 45/109/39 93/203/39
f 90/197/40 13/34/40 46/112/40 92/201/40
f 61/150/41 9/24/41 44/106/41 78/174/41
f 64/154/42 14/35/42 47/115/42 79/176/42
f 96/209/43 94/206/43 50/124/43 80/179/43
f 101/218/44 99/215/44 48/118/44 80/178/44
f 104/221/45 98/213/45 49/121/45 95/208/45
f 103/220/46 100/217/46 50/125/46 94/205/46
f 8/23/47 53/135/47 52/131/47
f 8/23/48 52/131/48 4/10/48 106/225/48 3/7/48 55/140/48 7/20/48
f 54/138/49 58/145/49 89/196/49 5/16/49 107/227/49 6/18/49 57/144/49
f 100/216/50 101/218/50 80/178/50 50/126/50
f 95/207/51 96/209/51 80/179/51 48/119/51
f 10/27/52 64/154/52 79/176/52 45/109/52
f 13/34/53 61/150/53 78/174/53 46/112/53
f 98/212/54 102/219/54 81/180/54 49/122/54
f 39/93/55 75/169/55 77/172/55 43/105/55
f 36/87/56 74/168/56 76/170/56 40/95/56
f 40/96/57 76/171/57 77/173/57 42/102/57
f 32/79/58 72/166/58 74/168/58 36/87/58
f 35/85/59 73/167/59 75/169/59 39/93/59
f 1/2/60 60/149/60 72/166/60 32/79/60
f 14/35/61 64/154/61 71/165/61 31/77/61
f 29/73/62 70/164/62 73/167/62 35/85/62
f 28/71/63 70/164/63 71/165/63 30/75/63
f 85/189/64 86/191/64 69/162/64 27/68/64
f 82/182/65 87/193/65 68/159/65 25/65/65
f 27/69/66 69/163/66 68/160/66 24/62/66
f 11/29/67 62/151/67 67/158/67 22/56/67
f 18/44/68 66/156/68 65/155/68 20/51/68
f 7/21/69 55/141/69 63/152/69 12/30/69
f 22/56/70 67/158/70 65/155/70 17/43/70
f 9/24/71 61/150/71 62/151/71 11/29/71
f 19/49/72 66/156/72 87/193/72 82/182/72
f 12/31/73 18/45/73 20/52/73 21/54/73 16/41/73
f 66/157/74 18/48/74 84/187/74 87/194/74
f 23/57/75 19/50/75 82/183/75 83/184/75
f 49/123/76 81/181/76 96/209/76 95/207/76
f 97/210/77 103/220/77 94/205/77 51/128/77
f 99/214/78 104/221/78 95/208/78 48/120/78
f 81/181/79 51/129/79 94/206/79 96/209/79
f 14/35/80 90/197/80 92/201/80 47/115/80
f 9/24/81 91/199/81 93/203/81 44/106/81
f 3/8/82 88/195/82 91/200/82 9/25/82
f 5/16/83 89/196/83 90/198/83 14/36/83
f 44/107/84 93/204/84 104/221/84 99/214/84
f 47/116/85 92/202/85 103/220/85 97/210/85
f 45/110/86 79/177/86 102/219/86 98/212/86
f 46/113/87 78/175/87 101/218/87 100/216/87
f 92/202/88 46/114/88 100/217/88 103/220/88
f 93/204/89 45/111/89 98/213/89 104/221/89
f 78/175/90 44/108/90 99/215/90 101/218/90
f 79/177/91 47/117/91 97/211/91 102/219/91
f 59/146/92 4/11/92 52/130/92 53/133/92 54/136/92 108/228/92
f 136/291/93 110/234/93 109/231/93 135/289/93
f 121/264/94 120/262/94 114/246/94 117/254/94
f 139/297/95 111/237/95 110/235/95 136/290/95
f 135/288/96 109/232/96 112/240/96 144/307/96
f 144/306/97 112/241/97 111/238/97 139/296/97
f 111/239/98 112/242/98 109/233/98 110/236/98
f 117/255/99 114/247/99 116/252/99 115/249/99 113/243/99
f 124/270/100 121/263/100 117/256/100 113/244/100
f 120/261/101 129/277/101 116/253/101 114/248/101
f 130/279/102 124/269/102 113/245/102 115/250/102
f 129/277/103 130/278/103 115/251/103 116/253/103
f 57/144/104 56/142/104 132/282/104 127/275/104
f 127/275/105 132/282/105 131/280/105 128/276/105
f 128/276/106 131/280/106 130/278/106 129/277/106
f 56/143/107 2/4/107 126/273/107 132/283/107
f 132/283/108 126/273/108 125/271/108 131/281/108
f 131/281/109 125/271/109 124/269/109 130/279/109
f 54/138/110 57/144/110 127/275/110 118/257/110
f 118/257/111 127/275/111 128/276/111 119/259/111
f 119/259/112 128/276/112 129/277/112 120/261/112
f 2/5/113 108/230/113 123/267/113 126/274/113
f 126/274/114 123/267/114 122/265/114 125/272/114
f 125/272/115 122/265/115 121/263/115 124/270/115
f 108/229/116 54/137/116 118/258/116 123/268/116
f 123/268/117 118/258/117 119/260/117 122/266/117
f 122/266/118 119/260/118 120/262/118 121/264/118
f 54/138/119 142/302/119 141/300/119 53/134/119
f 142/302/120 143/304/120 140/298/120 141/300/120
f 143/304/121 144/306/121 139/296/121 140/298/121
f 4/12/122 133/284/122 142/303/122 54/139/122
f 133/284/123 134/286/123 143/305/123 142/303/123
f 134/286/124 135/288/124 144/307/124 143/305/124
f 53/135/125 141/301/125 138/294/125 52/131/125
f 141/301/126 140/299/126 137/292/126 138/294/126
f 140/299/127 139/297/127 136/290/127 137/292/127
f 52/132/128 138/295/128 133/285/128 4/13/128
f 138/295/129 137/293/129 134/287/129 133/285/129
f 137/293/130 136/291/130 135/289/130 134/287/130
f 105/223/131 1/3/131 88/195/131 59/147/131 108/230/131 2/5/131
f 86/192/132 85/188/132 83/185/132
f 83/185/133 85/188/133 18/46/133 23/58/133
f 63/153/134 15/39/134 23/59/134 18/47/134 12/32/134
f 84/187/135 18/48/135 85/189/135
l 52 106
