# Blender 3.3.1
# www.blender.org
mtllib monstruo_3_caminar613.mtl
o monstruo_grande
v 0.315572 2.035232 0.193622
v 0.526497 1.214596 0.085108
v -0.738530 1.713220 0.201146
v -0.287618 1.107172 0.222043
v 0.436818 2.329246 -0.156482
v 0.501374 1.632522 -0.261725
v -0.891944 1.932248 -0.211861
v -0.772778 1.651770 -0.282019
v -0.379475 2.383509 0.465116
v 0.181650 2.305396 0.408369
v -0.508566 2.348230 0.568817
v -1.254634 1.969963 -0.052351
v -0.387815 2.542581 0.104429
v 0.156147 2.443716 0.149581
v -1.093928 1.839476 0.101983
v -0.551623 2.608501 0.129903
v -0.857314 2.250242 0.594723
v -1.537381 1.895382 0.220145
v -1.255227 1.945384 0.416702
v -1.056108 2.553216 0.326949
v -0.734007 2.642526 0.203248
v -0.583809 2.299394 0.547626
v -1.227107 1.858465 0.105811
v -1.812350 0.650507 0.934135
v -1.685108 0.632637 0.977269
v -1.670990 0.453848 0.778576
v -1.748654 0.464757 0.752249
v 0.342243 2.224608 0.378237
v 0.413585 2.425653 0.116169
v 0.295237 2.339293 0.396038
v 0.287144 2.472971 0.169223
v 0.565062 1.917436 0.149994
v 0.659794 2.024689 -0.031127
v 0.590874 1.996838 0.201871
v 0.653640 2.119475 0.046715
v 0.733961 1.699987 0.054031
v 0.802548 1.739687 -0.028167
v 0.819846 1.656186 0.097144
v 0.885929 1.706111 0.016364
v 0.747892 1.544487 0.060471
v 0.888872 1.645385 -0.104989
v 0.861954 1.424633 0.167565
v 1.067505 1.575816 -0.087720
v -0.217594 2.443191 0.481931
v -0.006950 2.420362 0.461095
v -0.224941 2.538951 0.233509
v -0.023407 2.516424 0.216118
v -0.160208 2.756256 0.625797
v 0.044471 2.691203 0.583532
v -0.176951 2.869287 0.372255
v 0.026438 2.804741 0.329023
v -0.498877 1.120778 0.011921
v -0.388943 1.151873 -0.202494
v -0.056940 1.269195 -0.333708
v -0.802059 1.754575 -0.018318
v 0.548194 1.220108 -0.153637
v 0.327737 1.212148 -0.277044
v -0.028955 1.522180 -0.329109
v -0.008290 1.148950 0.195507
v 0.357214 2.124059 0.074762
v -0.375915 2.440067 0.338256
v -0.542304 2.591957 0.402762
v -1.029253 1.906952 -0.018400
v 0.145757 2.430739 0.309710
v -0.893341 2.475441 0.548433
v -1.432378 2.045689 0.458599
v -0.694423 2.570362 0.400171
v -1.759313 0.640713 0.986569
v -1.692190 0.342817 0.665138
v 0.417316 2.336003 0.273285
v 0.291541 2.451629 0.304648
v 0.564883 1.955680 0.023459
v 0.665300 2.069777 0.151227
v 0.767151 1.723341 0.013251
v 0.852680 1.680335 0.056366
v 0.797244 1.600445 -0.035582
v 0.927351 1.512050 0.016829
v -0.221471 2.490553 0.356538
v -0.016434 2.469431 0.338050
v -0.199696 2.814114 0.501855
v 0.067031 2.746918 0.454018
v -1.567334 0.958357 0.912303
v -1.625363 0.782303 0.850519
v -1.786610 0.959702 0.839861
v -1.745128 0.799123 0.809921
v -1.684647 0.622712 0.758851
v -1.697809 0.940322 0.929266
v -0.083073 1.769924 0.505583
v 0.011828 2.138587 -0.210847
v -0.031070 2.515801 0.035838
v -0.049677 2.282248 0.598430
v -0.125594 2.526519 0.223165
v -0.108493 2.430007 0.470835
v -0.078121 2.853621 0.312140
v -0.055425 2.706770 0.642600
v -0.062083 2.830925 0.500507
v 0.015418 2.670738 0.247797
v 0.033711 2.544168 0.538915
v -0.201745 2.592743 0.576405
v -0.222014 2.719104 0.283429
v -0.227914 2.657232 0.431839
v 0.040247 2.607453 0.392010
v -0.105109 2.703131 0.245149
v -0.081786 2.558506 0.577614
v 0.370771 1.735012 -0.034998
v -0.597511 1.439610 0.221768
v 0.477736 1.853581 -0.262112
v 0.180143 1.182759 0.197297
v -0.192041 -0.003867 -0.087880
v -0.336252 0.001626 0.034676
v -0.362512 0.001569 -0.215027
v -0.227369 -0.003331 -0.229984
v 0.367916 0.021345 0.164020
v 0.286582 0.001571 0.099265
v 0.372892 0.014096 0.125363
v 0.338712 0.006343 0.103785
v 0.310547 0.020496 0.181356
v 0.098229 0.865566 -0.089899
v 0.144250 0.611147 0.028705
v 0.209726 0.319339 0.093254
v 0.270374 0.323200 0.264694
v 0.243822 0.576701 0.308217
v 0.233828 0.855294 0.308001
v 0.387252 0.327129 0.221466
v 0.440447 0.588599 0.236283
v 0.510231 0.929425 0.213712
v 0.355048 0.902151 -0.076261
v 0.326214 0.619038 0.034247
v 0.318295 0.323683 0.096712
v 0.392363 0.327794 0.139020
v 0.450336 0.627609 0.103801
v 0.526524 0.936047 0.025337
v -0.169326 0.836486 0.297507
v -0.143257 0.551129 0.220740
v -0.138188 0.312549 0.174979
v -0.423224 0.302290 0.162111
v -0.434643 0.577096 0.170126
v -0.458018 0.832442 0.175241
v -0.456737 0.359738 -0.099909
v -0.465961 0.636023 -0.093400
v -0.474549 0.862765 -0.101048
v -0.078022 0.825430 -0.133641
v -0.122646 0.620372 -0.137833
v -0.165134 0.407282 -0.127194
vn -0.1209 0.5336 -0.8370
vn -0.0829 0.0707 -0.9940
vn 0.4860 -0.1695 -0.8573
vn -0.2182 -0.2947 0.9304
vn 0.9413 0.0985 0.3228
vn 0.5740 0.8022 0.1645
vn 0.0126 0.9169 -0.3988
vn 0.6647 -0.1978 0.7204
vn -0.1216 0.9143 0.3864
vn -0.1911 0.5177 -0.8340
vn -0.0814 -0.4772 0.8750
vn -0.3739 -0.8829 -0.2840
vn -0.1910 -0.1119 0.9752
vn 0.3662 -0.8415 0.3973
vn 0.9562 -0.2406 0.1666
vn 0.0456 -0.7208 0.6917
vn 0.0740 0.9813 0.1776
vn 0.0493 -0.7325 0.6790
vn -0.6526 0.2698 0.7081
vn 0.9175 0.0279 -0.3968
vn -0.8863 0.0140 -0.4629
vn 0.5849 0.7636 0.2735
vn 0.6161 0.1526 0.7727
vn -0.1253 -0.5556 0.8220
vn -0.0772 0.6148 0.7849
vn -0.4262 -0.5595 0.7109
vn -0.4283 -0.5071 -0.7479
vn 0.7831 0.5712 -0.2459
vn -0.1125 -0.6439 0.7568
vn 0.4158 0.8173 -0.3989
vn 0.5834 0.1128 0.8043
vn 0.6788 0.3889 -0.6229
vn -0.4419 -0.2828 -0.8513
vn -0.1971 -0.6917 -0.6948
vn -0.6736 0.0649 -0.7362
vn -0.5534 0.0844 0.8286
vn 0.7827 0.2719 0.5598
vn 0.9708 -0.0086 -0.2398
vn 0.4017 0.5802 0.7085
vn 0.0788 0.9961 -0.0393
vn -0.3423 0.8686 0.3583
vn 0.3532 0.9142 0.1987
vn 0.0573 0.9694 0.2386
vn -0.9543 0.1033 0.2804
vn 0.3425 -0.3645 0.8660
vn -0.2996 0.4946 -0.8159
vn -0.6798 -0.5910 -0.4342
vn -0.8611 -0.4596 0.2173
vn 0.0681 0.1089 -0.9917
vn -0.9724 0.2331 -0.0020
vn 0.0764 0.8290 0.5539
vn 0.4420 0.7468 0.4970
vn -0.3061 0.8720 0.3820
vn 0.9886 -0.1450 0.0416
vn 0.5949 0.1289 0.7934
vn -0.8417 -0.0513 -0.5375
vn -0.2790 -0.7683 -0.5761
vn -0.7612 -0.5453 -0.3509
vn 0.8557 0.3952 0.3342
vn -0.5381 -0.7079 -0.4575
vn -0.1828 0.9770 0.1097
vn 0.7760 0.5745 0.2603
vn 0.6662 0.3604 0.6529
vn -0.4558 0.2207 -0.8623
vn 0.1181 0.1578 0.9804
vn -0.6247 -0.6378 0.4505
vn -0.2316 0.4579 0.8583
vn -0.7189 0.6164 0.3213
vn -0.3748 -0.8471 -0.3768
vn 0.2374 0.4134 0.8790
vn 0.5604 0.6065 0.5640
vn 0.2643 0.3433 0.9013
vn -0.4829 0.5683 -0.6662
vn -0.8505 0.3981 0.3438
vn 0.9583 -0.2641 0.1095
vn 0.5276 0.6937 0.4903
vn 0.2296 0.4254 -0.8754
vn -0.1874 -0.3021 0.9347
vn 0.5025 0.8549 0.1289
vn 0.2783 0.9604 -0.0151
vn -0.1053 0.5087 0.8545
vn -0.4074 -0.1372 0.9029
vn 0.0330 0.7563 -0.6534
vn -0.0841 -0.5758 0.8133
vn 0.0107 0.1582 -0.9874
vn 0.9490 -0.2874 -0.1300
vn -0.9999 -0.0060 -0.0114
vn -0.1888 0.2059 -0.9602
vn 0.1090 -0.6058 0.7882
vn -0.9946 -0.0244 0.1006
vn 0.9452 -0.2459 -0.2148
vn 0.1733 -0.9656 -0.1940
vn 0.2178 -0.5133 0.8301
vn -0.9206 -0.2143 0.3265
vn -0.9534 -0.2912 0.0787
vn 0.9847 -0.0793 -0.1550
vn -0.1212 0.2660 -0.9563
vn -0.0351 -0.9994 0.0043
vn 0.0776 -0.9760 0.2036
vn 0.3265 -0.2024 0.9233
vn 0.0503 -0.0129 -0.9987
vn 0.9936 -0.0722 0.0867
vn 0.5075 0.0098 -0.8616
vn 0.4766 -0.4703 -0.7427
vn 0.5071 -0.3427 -0.7908
vn 0.4916 -0.1938 -0.8490
vn 0.9959 -0.0188 0.0880
vn 0.9761 -0.2117 0.0495
vn 0.9806 -0.1930 0.0328
vn 0.0773 -0.5129 -0.8550
vn 0.0795 -0.3887 -0.9179
vn 0.0390 -0.2076 -0.9774
vn 0.2362 0.3660 0.9001
vn 0.3311 0.0028 0.9436
vn 0.3477 -0.1233 0.9295
vn -0.9276 -0.0890 0.3629
vn -0.9449 -0.0266 0.3263
vn -0.9353 -0.1454 0.3225
vn -0.1680 -0.3541 -0.9200
vn -0.1035 0.0007 -0.9946
vn -0.1122 -0.0008 -0.9937
vn 0.9078 0.2526 0.3348
vn 0.9889 -0.0598 0.1357
vn 0.9963 -0.0803 -0.0295
vn -0.9821 -0.0102 -0.1882
vn -0.9948 -0.0656 0.0773
vn -0.9927 -0.0402 0.1136
vn -0.5403 0.1957 0.8184
vn -0.2874 -0.1690 0.9428
vn -0.1117 -0.1071 0.9880
vn 0.5999 -0.0812 0.7959
vn 0.3445 0.3681 -0.8636
vn -0.2059 -0.4699 -0.8584
vn -0.2172 -0.8169 -0.5343
vn -0.8444 -0.1208 -0.5220
vt 0.461701 0.809397
vt 0.301930 0.729761
vt 0.094158 0.499911
vt 0.498737 0.648456
vt 0.250869 0.553264
vt 0.714874 0.752530
vt 0.627854 0.740386
vt 0.227533 0.339544
vt 0.300362 0.438253
vt 0.625828 0.633709
vt 0.338991 0.679376
vt 0.653754 0.621457
vt 0.189641 0.785401
vt 0.531284 0.815038
vt 0.232114 0.729761
vt 0.806952 0.326283
vt 0.527824 0.712310
vt 0.703640 0.331352
vt 0.725736 0.123548
vt 0.557184 0.740386
vt 0.714874 0.681901
vt 0.693091 0.138725
vt 0.558638 0.706064
vt 0.944491 0.391302
vt 0.108931 0.369345
vt 0.090202 0.443431
vt 0.952837 0.467016
vt 0.108059 0.346292
vt 0.960024 0.371234
vt 0.653754 0.712739
vt 0.761990 0.055860
vt 0.265996 0.788213
vt 0.829683 0.188590
vt 0.886815 0.394232
vt 0.909606 0.471204
vt 0.826550 0.267021
vt 0.659457 0.749480
vt 0.206417 0.267620
vt 0.238389 0.812575
vt 0.882743 0.373659
vt 0.837846 0.166681
vt 0.102618 0.289588
vt 0.957957 0.321520
vt 0.918648 0.216117
vt 0.803322 0.012950
vt 0.106348 0.638847
vt 0.232551 0.755661
vt 0.798789 0.485160
vt 0.965752 0.239402
vt 0.153968 0.222285
vt 0.894228 0.312474
vt 0.856067 0.102710
vt 0.881967 0.351902
vt 0.842627 0.144082
vt 0.107159 0.331692
vt 0.958812 0.358201
vt 0.199778 0.246429
vt 0.138792 0.619338
vt 0.232114 0.797406
vt 0.967580 0.012950
vt 0.753483 0.682459
vt 0.843831 0.469074
vt 0.256421 0.022764
vt 0.824689 0.472884
vt 0.987050 0.016155
vt 0.832147 0.505580
vt 0.295109 0.018166
vt 0.782932 0.707368
vt 0.843831 0.503254
vt 0.076417 0.467161
vt 0.958695 0.494573
vt 0.833773 0.298242
vt 0.909847 0.503107
vt 0.076958 0.454690
vt 0.951531 0.482650
vt 0.837149 0.281767
vt 0.912926 0.487172
vt 0.064432 0.532285
vt 0.298790 0.687460
vt 0.825577 0.362572
vt 0.264894 0.686125
vt 0.056614 0.518895
vt 0.959622 0.549977
vt 0.837123 0.350740
vt 0.929664 0.555276
vt 0.051257 0.577890
vt 0.291936 0.641182
vt 0.824256 0.407314
vt 0.275162 0.640522
vt 0.035793 0.577862
vt 0.964581 0.612577
vt 0.838997 0.411720
vt 0.948088 0.615681
vt 0.039898 0.592711
vt 0.301778 0.620707
vt 0.403076 0.772170
vt 0.830596 0.428615
vt 0.403076 0.737417
vt 0.267017 0.619338
vt 0.012950 0.593438
vt 0.987050 0.637067
vt 0.428919 0.781443
vt 0.856067 0.440612
vt 0.428919 0.728949
vt 0.935424 0.646785
vt 0.945356 0.412724
vt 0.357115 0.854737
vt 0.331665 0.779032
vt 0.948027 0.441601
vt 0.799629 0.752473
vt 0.327972 0.853161
vt 0.906904 0.416128
vt 0.370069 0.779032
vt 0.684668 0.778429
vt 0.909575 0.445005
vt 0.655249 0.778999
vt 0.799629 0.791035
vt 0.330193 0.729131
vt 0.557184 0.775635
vt 0.363063 0.804932
vt 0.331684 0.807874
vt 0.754247 0.751428
vt 0.586563 0.768755
vt 0.566112 0.815056
vt 0.689281 0.828405
vt 0.370405 0.729131
vt 0.754247 0.791805
vt 0.657717 0.824383
vt 0.595492 0.808176
vt 0.327830 0.637821
vt 0.590400 0.642651
vt 0.164818 0.789976
vt 0.357235 0.619338
vt 0.642851 0.190721
vt 0.562581 0.649581
vt 0.406824 0.626953
vt 0.080449 0.619338
vt 0.646201 0.239681
vt 0.727583 0.656002
vt 0.597847 0.731399
vt 0.712829 0.722239
vt 0.658284 0.323708
vt 0.527919 0.666449
vt 0.661748 0.291537
vt 0.680225 0.245582
vt 0.377645 0.696957
vt 0.285191 0.477898
vt 0.483372 0.812325
vt 0.280072 0.728266
vt 0.924330 0.393087
vt 0.921760 0.373660
vt 0.678504 0.727397
vt 0.268491 0.812575
vt 0.930826 0.465310
vt 0.923786 0.327561
vt 0.941993 0.227167
vt 0.764056 0.466512
vt 0.919524 0.351927
vt 0.977463 0.013354
vt 0.833186 0.466512
vt 0.317617 0.012950
vt 0.798789 0.722800
vt 0.839639 0.522681
vt 0.934403 0.500152
vt 0.932138 0.484309
vt 0.281656 0.689101
vt 0.944784 0.554368
vt 0.283549 0.640852
vt 0.956335 0.614129
vt 0.284323 0.620942
vt 0.399765 0.754789
vt 0.961112 0.640376
vt 0.422297 0.755187
vt 0.926130 0.414426
vt 0.350867 0.779032
vt 0.928801 0.443303
vt 0.799629 0.771754
vt 0.350773 0.728949
vt 0.557184 0.796361
vt 0.753483 0.771844
vt 0.595492 0.787450
vt 0.985581 0.067358
vt 0.238180 0.070710
vt 0.259592 0.052321
vt 0.138792 0.821791
vt 0.953366 0.057503
vt 0.765454 0.639660
vt 0.120235 0.821584
vt 0.772730 0.660154
vt 0.283154 0.037949
vt 0.784440 0.682652
vt 0.128680 0.843910
vt 0.970110 0.058056
vt 0.758353 0.637393
vt 0.180368 0.432154
vt 0.759258 0.257498
vt 0.884976 0.446549
vt 0.828099 0.241547
vt 0.971226 0.428512
vt 0.101516 0.405509
vt 0.908240 0.430567
vt 0.669958 0.778714
vt 0.946692 0.427163
vt 0.342544 0.853949
vt 0.673120 0.826722
vt 0.582140 0.817526
vt 0.570535 0.766286
vt 0.348248 0.806122
vt 0.576699 0.792002
vt 0.653753 0.802281
vt 0.776512 0.794925
vt 0.776512 0.748700
vt 0.327830 0.829868
vt 0.363063 0.830170
vt 0.327830 0.753980
vt 0.373865 0.753980
vt 0.689281 0.803194
vt 0.351093 0.753886
vt 0.776117 0.771930
vt 0.671321 0.802907
vt 0.345899 0.829874
vt 0.457498 0.727404
vt 0.165986 0.548054
vt 0.260364 0.376248
vt 0.625887 0.695531
vt 0.520555 0.743605
vt 0.734596 0.339638
vt 0.406824 0.703049
vt 0.012950 0.651015
vt 0.277407 0.507014
vt 0.206214 0.619338
vt 0.706517 0.466512
vt 0.399765 0.822801
vt 0.181517 0.620770
vt 0.619265 0.470337
vt 0.422433 0.807343
vt 0.582936 0.466512
vt 0.458892 0.202188
vt 0.422433 0.843958
vt 0.727583 0.468029
vt 0.460639 0.221880
vt 0.402692 0.843997
vt 0.717439 0.778459
vt 0.429089 0.593438
vt 0.518160 0.466685
vt 0.070962 0.817001
vt 0.726094 0.791097
vt 0.457498 0.298878
vt 0.715181 0.783741
vt 0.523936 0.466512
vt 0.458951 0.311476
vt 0.719061 0.788282
vt 0.458165 0.306435
vt 0.058766 0.817583
vt 0.726094 0.778429
vt 0.431598 0.585369
vt 0.599953 0.261833
vt 0.080449 0.668491
vt 0.542336 0.274386
vt 0.076079 0.728305
vt 0.500395 0.287212
vt 0.064936 0.773359
vt 0.389801 0.564275
vt 0.039540 0.774208
vt 0.356388 0.547019
vt 0.031995 0.737396
vt 0.319737 0.531779
vt 0.030523 0.696843
vt 0.505723 0.512116
vt 0.384015 0.580847
vt 0.506522 0.550736
vt 0.346302 0.574833
vt 0.507607 0.604105
vt 0.294291 0.566034
vt 0.610540 0.298468
vt 0.545535 0.300686
vt 0.502363 0.302883
vt 0.504402 0.313331
vt 0.517745 0.511765
vt 0.548610 0.318269
vt 0.527842 0.556627
vt 0.609940 0.323717
vt 0.531284 0.618364
vt 0.660591 0.582499
vt 0.204501 0.743892
vt 0.668589 0.550878
vt 0.206214 0.710848
vt 0.668004 0.517120
vt 0.204545 0.678125
vt 0.623877 0.525891
vt 0.164692 0.675333
vt 0.610236 0.563455
vt 0.167167 0.712219
vt 0.605277 0.597358
vt 0.166352 0.745757
vt 0.511839 0.183186
vt 0.584607 0.521652
vt 0.552303 0.182624
vt 0.569857 0.561129
vt 0.598009 0.178631
vt 0.565182 0.606784
vt 0.592158 0.236754
vt 0.721184 0.600612
vt 0.550092 0.232946
vt 0.722606 0.558204
vt 0.518921 0.225772
vt 0.713819 0.525134
s 0
usemtl Material
f 89/196/1 7/19/1 13/33/1 90/198/1
f 8/22/2 7/19/2 89/196/2 58/145/2 54/138/2 53/134/2
f 6/18/3 56/142/3 57/144/3
f 3/8/4 106/224/4 4/9/4 59/147/4 88/195/4
f 6/17/5 107/226/5 5/14/5 60/148/5 1/1/5 105/222/5 2/4/5 56/143/5
f 61/150/6 13/34/6 16/40/6 62/151/6
f 5/16/7 14/36/7 31/76/7 29/72/7
f 88/195/8 1/3/8 10/26/8 91/200/8
f 67/158/9 21/53/9 20/51/9 65/155/9
f 13/33/10 7/19/10 12/31/10 16/41/10
f 3/8/11 9/25/11 11/28/11 15/38/11
f 55/141/12 3/6/12 15/37/12 63/152/12
f 66/156/13 19/49/13 17/43/13 65/155/13
f 23/57/14 22/55/14 17/42/14 19/50/14
f 83/184/15 82/183/15 25/63/15 26/67/15
f 15/38/16 11/28/16 22/55/16 23/57/16
f 62/151/17 16/40/17 21/53/17 67/158/17
f 69/163/18 26/66/18 25/64/18 68/160/18
f 87/193/19 84/186/19 24/60/19 68/159/19
f 86/190/20 83/184/20 26/67/20 69/161/20
f 84/187/21 85/189/21 27/68/21 24/61/21
f 70/164/22 29/73/22 31/77/22 71/165/22
f 70/164/23 28/71/23 34/83/23 73/167/23
f 10/26/24 1/3/24 28/70/24 30/74/24
f 64/154/25 10/27/25 30/75/25 71/165/25
f 34/82/26 32/78/26 36/86/26 38/90/26
f 60/149/27 5/15/27 33/81/27 72/166/27
f 5/16/28 29/72/28 35/84/28 33/80/28
f 28/70/29 1/3/29 32/78/29 34/82/29
f 37/88/30 39/92/30 43/103/30 41/97/30
f 73/167/31 34/83/31 38/91/31 75/169/31
f 33/80/32 35/84/32 39/92/32 37/88/32
f 72/166/33 33/81/33 37/89/33 74/168/33
f 76/171/34 41/98/34 43/104/34 77/173/34
f 74/168/35 37/89/35 41/99/35 76/170/35
f 38/90/36 36/86/36 40/94/36 42/100/36
f 75/169/37 38/91/37 42/101/37 77/172/37
f 102/219/38 97/211/38 51/127/38 81/180/38
f 91/199/39 10/27/39 45/109/39 93/203/39
f 90/197/40 13/34/40 46/112/40 92/201/40
f 61/150/41 9/24/41 44/106/41 78/174/41
f 64/154/42 14/35/42 47/115/42 79/176/42
f 96/209/43 94/206/43 50/124/43 80/179/43
f 101/218/44 99/215/44 48/118/44 80/178/44
f 104/221/45 98/213/45 49/121/45 95/208/45
f 103/220/46 100/217/46 50/125/46 94/205/46
f 8/23/47 53/135/47 52/131/47
f 8/23/48 52/131/48 4/10/48 106/225/48 3/7/48 55/140/48 7/20/48
f 54/138/49 58/145/49 89/196/49 5/16/49 107/227/49 6/18/49 57/144/49
f 100/216/50 101/218/50 80/178/50 50/126/50
f 95/207/51 96/209/51 80/179/51 48/119/51
f 10/27/52 64/154/52 79/176/52 45/109/52
f 13/34/53 61/150/53 78/174/53 46/112/53
f 98/212/54 102/219/54 81/180/54 49/122/54
f 39/93/55 75/169/55 77/172/55 43/105/55
f 36/87/56 74/168/56 76/170/56 40/95/56
f 40/96/57 76/171/57 77/173/57 42/102/57
f 32/79/58 72/166/58 74/168/58 36/87/58
f 35/85/59 73/167/59 75/169/59 39/93/59
f 1/2/60 60/149/60 72/166/60 32/79/60
f 14/35/61 64/154/61 71/165/61 31/77/61
f 29/73/62 70/164/62 73/167/62 35/85/62
f 28/71/63 70/164/63 71/165/63 30/75/63
f 85/189/64 86/191/64 69/162/64 27/68/64
f 82/182/65 87/193/65 68/159/65 25/65/65
f 27/69/66 69/163/66 68/160/66 24/62/66
f 11/29/67 62/151/67 67/158/67 22/56/67
f 18/44/68 66/156/68 65/155/68 20/51/68
f 7/21/69 55/141/69 63/152/69 12/30/69
f 22/56/70 67/158/70 65/155/70 17/43/70
f 9/24/71 61/150/71 62/151/71 11/29/71
f 19/49/72 66/156/72 87/193/72 82/182/72
f 12/31/73 18/45/73 20/52/73 21/54/73 16/41/73
f 66/157/74 18/48/74 84/187/74 87/194/74
f 23/57/75 19/50/75 82/183/75 83/184/75
f 49/123/76 81/181/76 96/209/76 95/207/76
f 97/210/77 103/220/77 94/205/77 51/128/77
f 99/214/78 104/221/78 95/208/78 48/120/78
f 81/181/79 51/129/79 94/206/79 96/209/79
f 14/35/80 90/197/80 92/201/80 47/115/80
f 9/24/81 91/199/81 93/203/81 44/106/81
f 3/8/82 88/195/82 91/200/82 9/25/82
f 5/16/83 89/196/83 90/198/83 14/36/83
f 44/107/84 93/204/84 104/221/84 99/214/84
f 47/116/85 92/202/85 103/220/85 97/210/85
f 45/110/86 79/177/86 102/219/86 98/212/86
f 46/113/87 78/175/87 101/218/87 100/216/87
f 92/202/88 46/114/88 100/217/88 103/220/88
f 93/204/89 45/111/89 98/213/89 104/221/89
f 78/175/90 44/108/90 99/215/90 101/218/90
f 79/177/91 47/117/91 97/211/91 102/219/91
f 59/146/92 4/11/92 52/130/92 53/133/92 54/136/92 108/228/92
f 136/291/93 110/234/93 109/231/93 135/289/93
f 121/264/94 120/262/94 114/246/94 117/254/94
f 139/297/95 111/237/95 110/235/95 136/290/95
f 135/288/96 109/232/96 112/240/96 144/307/96
f 144/306/97 112/241/97 111/238/97 139/296/97
f 111/239/98 112/242/98 109/233/98 110/236/98
f 117/255/99 114/247/99 116/252/99 115/249/99 113/243/99
f 124/270/100 121/263/100 117/256/100 113/244/100
f 120/261/101 129/277/101 116/253/101 114/248/101
f 130/279/102 124/269/102 113/245/102 115/250/102
f 129/277/103 130/278/103 115/251/103 116/253/103
f 57/144/104 56/142/104 132/282/104 127/275/104
f 127/275/105 132/282/105 131/280/105 128/276/105
f 128/276/106 131/280/106 130/278/106 129/277/106
f 56/143/107 2/4/107 126/273/107 132/283/107
f 132/283/108 126/273/108 125/271/108 131/281/108
f 131/281/109 125/271/109 124/269/109 130/279/109
f 54/138/110 57/144/110 127/275/110 118/257/110
f 118/257/111 127/275/111 128/276/111 119/259/111
f 119/259/112 128/276/112 129/277/112 120/261/112
f 2/5/113 108/230/113 123/267/113 126/274/113
f 126/274/114 123/267/114 122/265/114 125/272/114
f 125/272/115 122/265/115 121/263/115 124/270/115
f 108/229/116 54/137/116 118/258/116 123/268/116
f 123/268/117 118/258/117 119/260/117 122/266/117
f 122/266/118 119/260/118 120/262/118 121/264/118
f 54/138/119 142/302/119 141/300/119 53/134/119
f 142/302/120 143/304/120 140/298/120 141/300/120
f 143/304/121 144/306/121 139/296/121 140/298/121
f 4/12/122 133/284/122 142/303/122 54/139/122
f 133/284/123 134/286/123 143/305/123 142/303/123
f 134/286/124 135/288/124 144/307/124 143/305/124
f 53/135/125 141/301/125 138/294/125 52/131/125
f 141/301/126 140/299/126 137/292/126 138/294/126
f 140/299/127 139/297/127 136/290/127 137/292/127
f 52/132/128 138/295/128 133/285/128 4/13/128
f 138/295/129 137/293/129 134/287/129 133/285/129
f 137/293/130 136/291/130 135/289/130 134/287/130
f 105/223/131 1/3/131 88/195/131 59/147/131 108/230/131 2/5/131
f 86/192/132 85/188/132 83/185/132
f 83/185/133 85/188/133 18/46/133 23/58/133
f 63/153/134 15/39/134 23/59/134 18/47/134 12/32/134
f 84/187/135 18/48/135 85/189/135
l 52 106
