# Blender 3.3.1
# www.blender.org
mtllib monstruo_3_grande_caminar655.mtl
o monstruo_grande
v 0.491031 1.970952 0.330082
v 0.518395 1.128924 0.101342
v -0.640096 1.807339 0.175983
v -0.306858 1.168318 0.219617
v 0.761676 2.251204 0.055619
v 0.609633 1.558933 -0.243386
v -0.740247 2.018752 -0.249953
v -0.673024 1.736356 -0.318320
v -0.238094 2.384656 0.488086
v 0.310342 2.260133 0.502123
v -0.374647 2.355103 0.579254
v -1.091660 2.049102 -0.106854
v -0.207373 2.563851 0.137448
v 0.351195 2.399853 0.240009
v -0.943751 1.921456 0.053775
v -0.369819 2.640932 0.155292
v -0.722218 2.272121 0.576020
v -1.385697 1.951036 0.151706
v -1.115983 1.995924 0.357035
v -0.896000 2.595275 0.314874
v -0.558794 2.681275 0.218380
v -0.445744 2.313268 0.549697
v -1.072878 1.929675 0.048551
v -1.666622 0.684341 0.815933
v -1.542394 0.667673 0.867506
v -1.508158 0.500211 0.661526
v -1.583983 0.510386 0.630048
v 0.435826 2.167036 0.502072
v 0.617811 2.358659 0.297161
v 0.417015 2.283048 0.511479
v 0.479318 2.413568 0.295781
v 0.712924 1.868612 0.422650
v 0.908611 1.928387 0.327344
v 0.723197 1.939430 0.469311
v 0.859682 2.048121 0.364240
v 0.867114 1.654228 0.558855
v 0.974934 1.674006 0.525317
v 0.901661 1.658619 0.658851
v 1.007622 1.684903 0.621345
v 0.862294 1.526848 0.649592
v 1.082928 1.580744 0.575429
v 0.871462 1.500889 0.844750
v 1.203438 1.579348 0.726790
v -0.073959 2.429498 0.520203
v 0.134927 2.396595 0.515017
v -0.055044 2.538627 0.277414
v 0.149978 2.501227 0.274005
v -0.017744 2.730897 0.684042
v 0.187554 2.661716 0.652759
v -0.013280 2.856788 0.436070
v 0.191266 2.787949 0.403779
v -0.509620 1.192595 0.008215
v -0.393486 1.192850 -0.204631
v -0.042955 1.277539 -0.332834
v -0.692050 1.852980 -0.049735
v 0.541988 1.140465 -0.137392
v 0.325605 1.158612 -0.264091
v 0.034497 1.526271 -0.319609
v -0.029324 1.146349 0.197899
v 0.590126 2.051115 0.241139
v -0.220577 2.447552 0.365467
v -0.379921 2.608300 0.426714
v -0.881847 2.001051 -0.060849
v 0.310250 2.388555 0.398937
v -0.746216 2.500498 0.542879
v -1.292417 2.096924 0.395698
v -0.532512 2.598086 0.411928
v -1.617297 0.673211 0.871622
v -1.517500 0.394862 0.541277
v 0.548300 2.274979 0.442038
v 0.450942 2.393834 0.426978
v 0.794510 1.867845 0.328833
v 0.816711 2.004589 0.463717
v 0.920308 1.666312 0.540422
v 0.954689 1.671152 0.640009
v 0.965817 1.547809 0.589286
v 1.024711 1.530097 0.743253
v -0.065518 2.483456 0.397238
v 0.140067 2.450577 0.393690
v -0.046773 2.795994 0.560802
v 0.220888 2.722943 0.528158
v -1.430391 0.999496 0.828331
v -1.478207 0.825475 0.753429
v -1.643595 0.999072 0.740431
v -1.595135 0.841163 0.704887
v -1.525594 0.669451 0.649516
v -1.561132 0.977022 0.834523
v -0.014336 1.753581 0.515121
v 0.216215 2.133035 -0.180318
v 0.159547 2.509250 0.094510
v 0.048679 2.262397 0.641312
v 0.042636 2.519896 0.273720
v 0.035101 2.411457 0.516023
v 0.089481 2.840984 0.382189
v 0.084195 2.677429 0.705493
v 0.090999 2.808590 0.569849
v 0.184178 2.657319 0.315393
v 0.176109 2.517148 0.600081
v -0.060022 2.571558 0.623491
v -0.054160 2.713196 0.336766
v -0.073814 2.643986 0.480896
v 0.195166 2.587136 0.457445
v 0.064429 2.694735 0.305951
v 0.058482 2.533446 0.631299
v 0.575189 1.639809 -0.007887
v -0.562583 1.530778 0.199210
v 0.672147 1.770538 -0.214104
v 0.162893 1.140211 0.207338
v -0.285976 0.255108 -0.427859
v -0.426400 0.179920 -0.325013
v -0.460419 0.332816 -0.522009
v -0.325818 0.342631 -0.539265
v 0.252339 -0.010476 0.076448
v 0.181432 -0.023725 -0.001310
v 0.263109 -0.015579 0.038658
v 0.232493 -0.020997 0.011633
v 0.192844 -0.010601 0.084594
v 0.060545 0.846960 -0.085554
v 0.106450 0.610806 -0.013036
v 0.126901 0.308230 0.009826
v 0.153541 0.281853 0.187862
v 0.147798 0.528937 0.263881
v 0.169441 0.803953 0.304029
v 0.276242 0.275034 0.166824
v 0.355609 0.523208 0.230591
v 0.460689 0.847585 0.238391
v 0.315459 0.846922 -0.059550
v 0.284251 0.593081 0.021869
v 0.232658 0.297133 0.032874
v 0.297175 0.285505 0.087602
v 0.394046 0.576291 0.110259
v 0.485291 0.856445 0.049170
v -0.220893 0.885498 0.321403
v -0.228276 0.585622 0.149882
v -0.244890 0.382181 -0.014036
v -0.527863 0.410994 -0.035316
v -0.511527 0.661682 0.108462
v -0.505887 0.911186 0.197998
v -0.536239 0.589503 -0.241330
v -0.518787 0.817938 -0.093907
v -0.514121 0.931835 -0.065658
v -0.123615 0.855905 -0.084836
v -0.176880 0.778053 -0.128966
v -0.239874 0.608872 -0.237873
vn -0.0101 0.5871 -0.8095
vn -0.0149 0.0887 -0.9959
vn 0.4659 -0.2873 -0.8369
vn -0.3157 -0.2609 0.9123
vn 0.9258 -0.2424 0.2902
vn 0.6145 0.7477 0.2516
vn 0.2171 0.9079 -0.3585
vn 0.4366 -0.2577 0.8619
vn -0.1214 0.8953 0.4287
vn -0.1253 0.5928 -0.7956
vn -0.1610 -0.5333 0.8304
vn -0.3718 -0.8676 -0.3301
vn -0.2499 -0.1681 0.9536
vn 0.3114 -0.8782 0.3631
vn 0.9485 -0.2230 0.2252
vn 0.0296 -0.7986 0.6012
vn 0.1185 0.9645 0.2361
vn 0.0222 -0.7661 0.6423
vn -0.7096 0.2131 0.6716
vn 0.9428 0.0741 -0.3250
vn -0.8503 0.0151 -0.5261
vn 0.5077 0.7321 0.4542
vn 0.1691 0.1671 0.9713
vn -0.3929 -0.5300 0.7515
vn -0.1859 0.6227 0.7601
vn -0.8574 -0.3018 0.4168
vn -0.0033 -0.5806 -0.8142
vn 0.8200 0.5619 0.1093
vn -0.4681 -0.6058 0.6433
vn 0.6376 0.6460 -0.4197
vn -0.1026 0.4694 0.8770
vn 0.9621 0.2438 -0.1221
vn 0.1738 -0.6166 -0.7679
vn 0.2429 -0.9488 -0.2021
vn -0.0442 -0.4491 -0.8924
vn -0.9488 0.2722 0.1604
vn 0.2557 0.6897 0.6775
vn 0.9864 -0.0243 -0.1627
vn 0.3290 0.5264 0.7840
vn 0.1585 0.9870 0.0275
vn -0.2980 0.8738 0.3843
vn 0.4053 0.8739 0.2683
vn 0.0671 0.9542 0.2915
vn -0.9690 0.1178 0.2171
vn 0.2695 -0.4165 0.8683
vn -0.2259 0.5417 -0.8096
vn -0.7684 -0.4830 -0.4198
vn -0.9329 -0.2980 0.2022
vn 0.1639 0.1848 -0.9690
vn -0.9633 0.2604 -0.0645
vn 0.0597 0.7979 0.5998
vn 0.4156 0.7013 0.5791
vn -0.2608 0.8728 0.4125
vn 0.9787 -0.1761 0.1054
vn -0.0478 0.6147 0.7873
vn -0.2987 -0.5081 -0.8078
vn 0.1022 -0.9844 -0.1431
vn -0.3992 -0.7312 -0.5531
vn 0.4558 0.5975 0.6597
vn -0.2618 -0.7634 -0.5905
vn -0.0960 0.9919 0.0832
vn 0.5720 0.5896 0.5703
vn 0.4646 0.2503 0.8494
vn -0.3979 0.2540 -0.8816
vn 0.0409 0.1084 0.9933
vn -0.6358 -0.6778 0.3692
vn -0.2697 0.4211 0.8660
vn -0.7210 0.6228 0.3038
vn -0.3699 -0.8577 -0.3572
vn 0.1958 0.3476 0.9170
vn 0.5621 0.5306 0.6345
vn 0.2192 0.3339 0.9168
vn -0.4320 0.6238 -0.6513
vn -0.8710 0.3774 0.3145
vn 0.9581 -0.2479 0.1436
vn 0.5103 0.6520 0.5607
vn 0.3048 0.4604 -0.8338
vn -0.2619 -0.3422 0.9024
vn 0.5156 0.8312 0.2080
vn 0.3677 0.9279 0.0611
vn -0.1370 0.5134 0.8471
vn -0.4907 -0.1371 0.8605
vn 0.2898 0.7632 -0.5775
vn -0.1641 -0.6151 0.7712
vn 0.0915 0.2015 -0.9752
vn 0.9460 -0.3180 -0.0626
vn -0.9944 0.0220 -0.1031
vn -0.1087 0.2586 -0.9598
vn 0.0221 -0.6402 0.7679
vn -0.9997 0.0048 0.0224
vn 0.9608 -0.2502 -0.1195
vn 0.0230 -0.9859 -0.1655
vn 0.1836 -0.8696 0.4584
vn -0.9764 -0.1709 0.1322
vn -0.9662 -0.2396 -0.0954
vn 0.9877 -0.0490 -0.1485
vn -0.0716 0.7426 -0.6659
vn -0.0225 -0.7911 -0.6113
vn 0.0229 -0.9884 0.1504
vn 0.1392 -0.3113 0.9401
vn 0.2266 0.0673 -0.9717
vn 0.9554 -0.1542 0.2518
vn 0.6528 0.0496 -0.7559
vn 0.4334 -0.5281 -0.7303
vn 0.5381 -0.3303 -0.7755
vn 0.6146 -0.1401 -0.7763
vn 0.9847 -0.1396 0.1042
vn 0.9460 -0.2954 0.1335
vn 0.9281 -0.3309 0.1707
vn 0.0314 -0.5168 -0.8555
vn 0.1214 -0.2942 -0.9480
vn 0.1934 -0.0655 -0.9789
vn 0.2269 0.3282 0.9169
vn 0.2018 -0.1204 0.9720
vn 0.1446 -0.2886 0.9465
vn -0.9467 0.0086 0.3221
vn -0.9763 -0.0328 0.2139
vn -0.9892 -0.0601 0.1335
vn -0.1693 -0.4478 -0.8780
vn -0.0128 0.3565 -0.9342
vn -0.0240 0.5451 -0.8380
vn 0.9144 0.1856 0.3599
vn 0.9589 -0.2402 0.1510
vn 0.9828 -0.1805 -0.0402
vn -0.9731 0.0782 -0.2169
vn -0.9991 0.0156 0.0392
vn -0.9975 0.0315 0.0640
vn -0.5113 0.3290 0.7939
vn -0.3207 -0.4003 0.8584
vn -0.1909 -0.5411 0.8190
vn 0.4740 -0.2754 0.8364
vn 0.3953 0.4230 -0.8154
vn -0.1508 -0.4564 -0.8769
vn -0.1482 -0.7957 -0.5873
vn -0.8185 -0.1250 -0.5607
vt 0.882279 0.260085
vt 0.436089 0.649131
vt 0.117664 0.305524
vt 0.860974 0.338762
vt 0.079561 0.383885
vt 0.278417 0.728674
vt 0.111517 0.716819
vt 0.301243 0.337859
vt 0.232943 0.387386
vt 0.111517 0.662267
vt 0.671871 0.687525
vt 0.175114 0.511099
vt 0.930991 0.712692
vt 0.796001 0.259488
vt 0.522181 0.649131
vt 0.719621 0.316178
vt 0.801110 0.310020
vt 0.698705 0.366293
vt 0.510656 0.337024
vt 0.023033 0.717149
vt 0.367094 0.730187
vt 0.507246 0.358198
vt 0.018976 0.695717
vt 0.103380 0.570561
vt 0.268725 0.266033
vt 0.143950 0.273348
vt 0.098384 0.631539
vt 0.301351 0.259488
vt 0.128079 0.559933
vt 0.480438 0.333338
vt 0.348619 0.714075
vt 0.604958 0.268707
vt 0.031105 0.562973
vt 0.043818 0.625810
vt 0.721993 0.282954
vt 0.329365 0.336360
vt 0.302724 0.713315
vt 0.030374 0.549675
vt 0.582817 0.260846
vt 0.875347 0.642471
vt 0.380514 0.272320
vt 0.124895 0.517524
vt 0.813390 0.578569
vt 0.436089 0.332372
vt 0.956124 0.588845
vt 0.367094 0.692599
vt 0.367094 0.522797
vt 0.871643 0.594841
vt 0.398138 0.324445
vt 0.043891 0.509019
vt 0.796001 0.641153
vt 0.491075 0.268473
vt 0.032114 0.534706
vt 0.552485 0.259488
vt 0.331566 0.259909
vt 0.129819 0.544964
vt 0.339759 0.337186
vt 0.913298 0.588845
vt 0.317584 0.707220
vt 0.845734 0.463378
vt 0.311567 0.646434
vt 0.944558 0.353645
vt 0.398138 0.462439
vt 0.920230 0.354337
vt 0.870057 0.463781
vt 0.929709 0.374247
vt 0.357807 0.478584
vt 0.347994 0.663056
vt 0.944558 0.373825
vt 0.097076 0.285727
vt 0.229765 0.651022
vt 0.758050 0.297859
vt 0.168317 0.651042
vt 0.119329 0.272208
vt 0.094178 0.643292
vt 0.222768 0.636959
vt 0.746872 0.283208
vt 0.174541 0.636975
vt 0.045175 0.638147
vt 0.080672 0.327471
vt 0.442544 0.673801
vt 0.734592 0.339187
vt 0.484453 0.673801
vt 0.070725 0.319456
vt 0.218298 0.685110
vt 0.751374 0.331694
vt 0.180611 0.684911
vt 0.062412 0.356092
vt 0.455575 0.702696
vt 0.724658 0.367821
vt 0.476314 0.702696
vt 0.043357 0.357400
vt 0.210236 0.723455
vt 0.742364 0.370210
vt 0.189444 0.723462
vt 0.050281 0.367705
vt 0.444942 0.715336
vt 0.810526 0.722486
vt 0.728448 0.380153
vt 0.853695 0.722486
vt 0.487920 0.715336
vt 0.018975 0.371756
vt 0.232852 0.738567
vt 0.796001 0.739289
vt 0.758050 0.386241
vt 0.861207 0.739289
vt 0.167770 0.738589
vt 0.100634 0.583041
vt 0.712300 0.698974
vt 0.802197 0.701507
vt 0.098640 0.600731
vt 0.972705 0.287497
vt 0.747907 0.696578
vt 0.052045 0.577939
vt 0.849895 0.701507
vt 0.710445 0.675017
vt 0.050052 0.595630
vt 0.746553 0.677603
vt 0.924885 0.287497
vt 0.797725 0.671259
vt 0.981025 0.313792
vt 0.715147 0.730011
vt 0.752543 0.724602
vt 0.973919 0.259495
vt 0.967002 0.332143
vt 0.934252 0.306472
vt 0.715328 0.644023
vt 0.847669 0.671259
vt 0.923848 0.259495
vt 0.753088 0.649631
vt 0.920230 0.324823
vt 0.068284 0.665533
vt 0.630362 0.705721
vt 0.712055 0.621316
vt 0.966165 0.712391
vt 0.519769 0.388732
vt 0.031375 0.663704
vt 0.592215 0.695479
vt 0.581836 0.620019
vt 0.750017 0.621843
vt 0.569690 0.667298
vt 0.581066 0.387596
vt 0.531739 0.516092
vt 0.642835 0.625048
vt 0.273616 0.509019
vt 0.070982 0.710642
vt 0.316851 0.732164
vt 0.684917 0.393810
vt 0.816625 0.338063
vt 0.644803 0.392946
vt 0.602800 0.367236
vt 0.671871 0.661666
vt 0.181146 0.386242
vt 0.855113 0.259897
vt 0.463196 0.649131
vt 0.077903 0.567886
vt 0.078993 0.554271
vt 0.322237 0.720993
vt 0.070972 0.628379
vt 0.834014 0.651825
vt 0.084160 0.512738
vt 0.838315 0.596273
vt 0.320679 0.509019
vt 0.080733 0.539302
vt 0.857365 0.464048
vt 0.931678 0.351118
vt 0.335174 0.488977
vt 0.367094 0.673623
vt 0.939667 0.384854
vt 0.199177 0.651021
vt 0.069465 0.641494
vt 0.198664 0.632807
vt 0.464209 0.672968
vt 0.199604 0.684998
vt 0.465945 0.702696
vt 0.199840 0.723459
vt 0.466714 0.715004
vt 0.832520 0.720483
vt 0.200177 0.738589
vt 0.829423 0.735282
vt 0.076340 0.580490
vt 0.826046 0.701507
vt 0.074346 0.598181
vt 0.948795 0.287497
vt 0.823088 0.670800
vt 0.959731 0.307426
vt 0.948976 0.259488
vt 0.941524 0.331189
vt 0.875347 0.491894
vt 0.391834 0.432095
vt 0.377694 0.448634
vt 0.915590 0.478791
vt 0.834644 0.488373
vt 0.326937 0.619279
vt 0.938593 0.478810
vt 0.335216 0.632947
vt 0.358601 0.463790
vt 0.348787 0.648138
vt 0.927106 0.463378
vt 0.854274 0.489560
vt 0.315804 0.619182
vt 0.212520 0.321385
vt 0.644070 0.318501
vt 0.018976 0.592450
vt 0.663817 0.276029
vt 0.129819 0.597828
vt 0.224108 0.269832
vt 0.051049 0.586785
vt 0.728499 0.676310
vt 0.099637 0.591886
vt 0.730103 0.697776
vt 0.734390 0.646904
vt 0.920230 0.314550
vt 0.981025 0.324065
vt 0.732426 0.727384
vt 0.950683 0.319044
vt 0.753088 0.663662
vt 0.920230 0.273492
vt 0.977552 0.273492
vt 0.752543 0.710647
vt 0.709822 0.714522
vt 0.796001 0.686127
vt 0.853178 0.686127
vt 0.709822 0.659561
vt 0.824792 0.685890
vt 0.948939 0.273488
vt 0.731549 0.661651
vt 0.730449 0.712624
vt 0.878850 0.297575
vt 0.096711 0.342677
vt 0.285581 0.357771
vt 0.108549 0.696221
vt 0.804979 0.293594
vt 0.708839 0.350023
vt 0.668288 0.644023
vt 0.436089 0.526409
vt 0.145034 0.385321
vt 0.919159 0.607821
vt 0.247387 0.613831
vt 0.970304 0.416607
vt 0.947808 0.608020
vt 0.704660 0.516092
vt 0.970304 0.403829
vt 0.750017 0.516884
vt 0.618892 0.516092
vt 0.920230 0.404231
vt 0.273616 0.612878
vt 0.642836 0.516847
vt 0.938584 0.415207
vt 0.924281 0.443436
vt 0.075400 0.489812
vt 0.855524 0.444402
vt 0.531739 0.629156
vt 0.934913 0.435583
vt 0.576828 0.496673
vt 0.931440 0.443424
vt 0.848383 0.444289
vt 0.592622 0.497116
vt 0.934913 0.440184
vt 0.586164 0.496977
vt 0.517161 0.630156
vt 0.920230 0.438606
vt 0.085942 0.490043
vt 0.585376 0.420489
vt 0.510472 0.551446
vt 0.582586 0.444044
vt 0.504260 0.576063
vt 0.581388 0.469636
vt 0.508131 0.602400
vt 0.103684 0.463024
vt 0.477645 0.604263
vt 0.118194 0.440373
vt 0.454885 0.581958
vt 0.129418 0.415411
vt 0.438452 0.557360
vt 0.876897 0.417052
vt 0.081901 0.462161
vt 0.882279 0.393921
vt 0.081653 0.438865
vt 0.880271 0.363315
vt 0.079604 0.408162
vt 0.633117 0.418943
vt 0.615530 0.444447
vt 0.600997 0.469910
vt 0.614559 0.469949
vt 0.862035 0.416811
vt 0.638313 0.444473
vt 0.857648 0.390640
vt 0.666106 0.417503
vt 0.844696 0.362700
vt 0.167770 0.536691
vt 0.914144 0.688660
vt 0.182151 0.561697
vt 0.913298 0.663084
vt 0.189855 0.582503
vt 0.915415 0.641729
vt 0.680787 0.549268
vt 0.966165 0.641681
vt 0.684678 0.573659
vt 0.963812 0.665813
vt 0.684995 0.596421
vt 0.964308 0.688427
vt 0.584794 0.548886
vt 0.729850 0.550060
vt 0.578610 0.572959
vt 0.734888 0.574452
vt 0.569690 0.595426
vt 0.736445 0.597214
vt 0.642060 0.590920
vt 0.247172 0.543053
vt 0.641052 0.570535
vt 0.248998 0.562413
vt 0.635978 0.552556
vt 0.245738 0.579271
s 0
usemtl Material
f 89/203/1 7/19/1 13/32/1 90/205/1
f 8/22/2 7/19/2 89/203/2 58/151/2 54/142/2 53/136/2
f 6/18/3 56/148/3 57/150/3
f 3/8/4 106/231/4 4/9/4 59/153/4 88/202/4
f 6/17/5 107/233/5 5/14/5 60/154/5 1/1/5 105/229/5 2/4/5 56/149/5
f 61/156/6 13/33/6 16/38/6 62/157/6
f 5/16/7 14/35/7 31/77/7 29/72/7
f 88/202/8 1/3/8 10/26/8 91/207/8
f 67/164/9 21/53/9 20/50/9 65/161/9
f 13/32/10 7/19/10 12/30/10 16/39/10
f 3/8/11 9/25/11 11/28/11 15/36/11
f 55/147/12 3/6/12 15/37/12 63/158/12
f 66/162/13 19/48/13 17/40/13 65/160/13
f 23/57/14 22/55/14 17/41/14 19/49/14
f 83/191/15 82/190/15 25/63/15 26/67/15
f 15/36/16 11/28/16 22/55/16 23/57/16
f 62/157/17 16/38/17 21/53/17 67/164/17
f 69/169/18 26/66/18 25/64/18 68/166/18
f 87/200/19 84/193/19 24/60/19 68/165/19
f 86/197/20 83/191/20 26/67/20 69/167/20
f 84/194/21 85/196/21 27/68/21 24/61/21
f 70/170/22 29/73/22 31/78/22 71/172/22
f 70/170/23 28/71/23 34/85/23 73/174/23
f 10/26/24 1/3/24 28/70/24 30/74/24
f 64/159/25 10/27/25 30/75/25 71/171/25
f 34/84/26 32/80/26 36/88/26 38/92/26
f 60/155/27 5/15/27 33/83/27 72/173/27
f 5/16/28 29/72/28 35/86/28 33/82/28
f 28/70/29 1/3/29 32/80/29 34/84/29
f 37/90/30 39/94/30 43/105/30 41/99/30
f 73/174/31 34/85/31 38/93/31 75/176/31
f 33/82/32 35/86/32 39/94/32 37/90/32
f 72/173/33 33/83/33 37/91/33 74/175/33
f 76/178/34 41/100/34 43/106/34 77/180/34
f 74/175/35 37/91/35 41/101/35 76/177/35
f 38/92/36 36/88/36 40/96/36 42/102/36
f 75/176/37 38/93/37 42/103/37 77/179/37
f 102/226/38 97/218/38 51/129/38 81/187/38
f 91/206/39 10/27/39 45/111/39 93/210/39
f 90/204/40 13/33/40 46/114/40 92/208/40
f 61/156/41 9/24/41 44/108/41 78/181/41
f 64/159/42 14/34/42 47/117/42 79/183/42
f 96/216/43 94/213/43 50/126/43 80/186/43
f 101/225/44 99/222/44 48/120/44 80/185/44
f 104/228/45 98/220/45 49/123/45 95/215/45
f 103/227/46 100/224/46 50/127/46 94/212/46
f 8/23/47 53/137/47 52/132/47
f 8/23/48 52/132/48 4/10/48 106/232/48 3/7/48 55/146/48 7/20/48
f 54/142/49 58/151/49 89/203/49 5/16/49 107/234/49 6/18/49 57/150/49
f 100/223/50 101/225/50 80/185/50 50/128/50
f 95/214/51 96/216/51 80/186/51 48/121/51
f 10/27/52 64/159/52 79/183/52 45/111/52
f 13/33/53 61/156/53 78/181/53 46/114/53
f 98/219/54 102/226/54 81/187/54 49/124/54
f 39/95/55 75/176/55 77/179/55 43/107/55
f 36/89/56 74/175/56 76/177/56 40/97/56
f 40/98/57 76/178/57 77/180/57 42/104/57
f 32/81/58 72/173/58 74/175/58 36/89/58
f 35/87/59 73/174/59 75/176/59 39/95/59
f 1/2/60 60/155/60 72/173/60 32/81/60
f 14/34/61 64/159/61 71/171/61 31/79/61
f 29/73/62 70/170/62 73/174/62 35/87/62
f 28/71/63 70/170/63 71/172/63 30/76/63
f 85/196/64 86/198/64 69/168/64 27/68/64
f 82/189/65 87/200/65 68/165/65 25/65/65
f 27/69/66 69/169/66 68/166/66 24/62/66
f 11/29/67 62/157/67 67/164/67 22/56/67
f 18/43/68 66/162/68 65/160/68 20/51/68
f 7/21/69 55/147/69 63/158/69 12/31/69
f 22/56/70 67/164/70 65/161/70 17/42/70
f 9/24/71 61/156/71 62/157/71 11/29/71
f 19/48/72 66/162/72 87/200/72 82/189/72
f 12/30/73 18/44/73 20/52/73 21/54/73 16/39/73
f 66/163/74 18/47/74 84/194/74 87/201/74
f 23/57/75 19/49/75 82/190/75 83/191/75
f 49/125/76 81/188/76 96/216/76 95/214/76
f 97/217/77 103/227/77 94/212/77 51/130/77
f 99/221/78 104/228/78 95/215/78 48/122/78
f 81/188/79 51/131/79 94/213/79 96/216/79
f 14/34/80 90/204/80 92/208/80 47/117/80
f 9/24/81 91/206/81 93/210/81 44/108/81
f 3/8/82 88/202/82 91/207/82 9/25/82
f 5/16/83 89/203/83 90/205/83 14/35/83
f 44/109/84 93/211/84 104/228/84 99/221/84
f 47/118/85 92/209/85 103/227/85 97/217/85
f 45/112/86 79/184/86 102/226/86 98/219/86
f 46/115/87 78/182/87 101/225/87 100/223/87
f 92/209/88 46/116/88 100/224/88 103/227/88
f 93/211/89 45/113/89 98/220/89 104/228/89
f 78/182/90 44/110/90 99/222/90 101/225/90
f 79/184/91 47/119/91 97/218/91 102/226/91
f 59/152/92 4/11/92 52/133/92 53/138/92 54/141/92 108/235/92
f 136/298/93 110/241/93 109/238/93 135/296/93
f 121/271/94 120/269/94 114/253/94 117/261/94
f 139/304/95 111/244/95 110/242/95 136/297/95
f 135/295/96 109/239/96 112/247/96 144/314/96
f 144/313/97 112/248/97 111/245/97 139/303/97
f 111/246/98 112/249/98 109/240/98 110/243/98
f 117/262/99 114/254/99 116/259/99 115/256/99 113/250/99
f 124/277/100 121/270/100 117/263/100 113/251/100
f 120/268/101 129/284/101 116/260/101 114/255/101
f 130/286/102 124/276/102 113/252/102 115/257/102
f 129/284/103 130/285/103 115/258/103 116/260/103
f 57/150/104 56/148/104 132/289/104 127/282/104
f 127/282/105 132/289/105 131/287/105 128/283/105
f 128/283/106 131/287/106 130/285/106 129/284/106
f 56/149/107 2/4/107 126/280/107 132/290/107
f 132/290/108 126/280/108 125/278/108 131/288/108
f 131/288/109 125/278/109 124/276/109 130/286/109
f 54/142/110 57/150/110 127/282/110 118/264/110
f 118/264/111 127/282/111 128/283/111 119/266/111
f 119/266/112 128/283/112 129/284/112 120/268/112
f 2/5/113 108/237/113 123/274/113 126/281/113
f 126/281/114 123/274/114 122/272/114 125/279/114
f 125/279/115 122/272/115 121/270/115 124/277/115
f 108/236/116 54/143/116 118/265/116 123/275/116
f 123/275/117 118/265/117 119/267/117 122/273/117
f 122/273/118 119/267/118 120/269/118 121/271/118
f 54/144/119 142/309/119 141/307/119 53/139/119
f 142/309/120 143/311/120 140/305/120 141/307/120
f 143/311/121 144/313/121 139/303/121 140/305/121
f 4/12/122 133/291/122 142/310/122 54/145/122
f 133/291/123 134/293/123 143/312/123 142/310/123
f 134/293/124 135/295/124 144/314/124 143/312/124
f 53/140/125 141/308/125 138/301/125 52/134/125
f 141/308/126 140/306/126 137/299/126 138/301/126
f 140/306/127 139/304/127 136/297/127 137/299/127
f 52/135/128 138/302/128 133/292/128 4/13/128
f 138/302/129 137/300/129 134/294/129 133/292/129
f 137/300/130 136/298/130 135/296/130 134/294/130
f 105/230/131 1/3/131 88/202/131 59/153/131 108/237/131 2/5/131
f 86/199/132 85/195/132 83/192/132
f 83/192/133 85/195/133 18/45/133 23/58/133
f 63/158/134 15/37/134 23/59/134 18/46/134 12/31/134
f 84/194/135 18/47/135 85/196/135
l 52 106
