# Blender 3.3.1
# www.blender.org
mtllib monstruo_3_grande_caminar538.mtl
o monstruo_grande
v 0.580278 1.918616 0.383772
v 0.526784 1.110022 0.086018
v -0.571629 1.875221 0.158061
v -0.288684 1.205022 0.226863
v 0.880228 2.152801 0.094339
v 0.633709 1.518846 -0.245970
v -0.633346 2.102183 -0.278799
v -0.617148 1.784505 -0.326284
v -0.126302 2.415097 0.465190
v 0.400279 2.233347 0.502532
v -0.272452 2.402921 0.553184
v -0.956304 2.199502 -0.201866
v -0.063471 2.583706 0.116739
v 0.466317 2.354409 0.233580
v -0.844862 2.046303 -0.027407
v -0.212485 2.681346 0.129028
v -0.645761 2.364579 0.511794
v -1.284519 2.134773 -0.006780
v -1.045920 2.146844 0.238989
v -0.745584 2.709759 0.240815
v -0.393002 2.747286 0.181368
v -0.357129 2.367982 0.517769
v -0.970060 2.077885 -0.059063
v -1.750171 0.857155 0.525606
v -1.634879 0.827747 0.590516
v -1.587965 0.669037 0.380151
v -1.658336 0.686987 0.340532
v 0.516843 2.136858 0.519540
v 0.722527 2.296970 0.308862
v 0.506929 2.248049 0.516108
v 0.591990 2.359635 0.296505
v 0.792339 1.832344 0.522099
v 0.992481 1.866389 0.423220
v 0.799093 1.906353 0.549667
v 0.946905 1.994510 0.440714
v 0.940949 1.654706 0.725311
v 1.046647 1.656368 0.675920
v 0.985246 1.697942 0.811653
v 1.087048 1.700937 0.758315
v 0.943811 1.576025 0.860830
v 1.156114 1.582903 0.752462
v 0.971870 1.631638 1.047818
v 1.291415 1.638427 0.880118
v 0.042238 2.437799 0.503421
v 0.246667 2.386922 0.499995
v 0.073344 2.539365 0.258293
v 0.272461 2.481012 0.256214
v 0.101333 2.746667 0.643927
v 0.305848 2.672642 0.619313
v 0.109234 2.853094 0.387358
v 0.314483 2.778529 0.362592
v -0.499785 1.215385 0.029977
v -0.396524 1.202983 -0.189023
v -0.042658 1.276863 -0.332832
v -0.612604 1.923717 -0.068788
v 0.539508 1.130369 -0.154278
v 0.319912 1.145498 -0.271474
v 0.059425 1.516984 -0.322993
v -0.024897 1.141338 0.200325
v 0.688455 1.982537 0.295328
v -0.097381 2.473552 0.342739
v -0.237569 2.653684 0.397321
v -0.770351 2.108974 -0.115510
v 0.418796 2.355697 0.393176
v -0.633769 2.593055 0.479763
v -1.213004 2.263503 0.258022
v -0.390960 2.662256 0.376467
v -1.709092 0.839149 0.585992
v -1.590163 0.571223 0.253370
v 0.637262 2.235219 0.456185
v 0.556197 2.349929 0.428371
v 0.875634 1.810508 0.436211
v 0.893913 1.967470 0.542234
v 0.992287 1.655697 0.698827
v 1.036288 1.699026 0.784865
v 1.041107 1.565338 0.788634
v 1.114680 1.609164 0.930600
v 0.056471 2.488627 0.379833
v 0.257089 2.435143 0.376909
v 0.073798 2.802440 0.515866
v 0.341247 2.723175 0.490935
v -1.494470 1.150929 0.585565
v -1.545474 0.985534 0.494886
v -1.694623 1.172468 0.472712
v -1.653991 1.013212 0.433790
v -1.591117 0.839530 0.376620
v -1.626280 1.138893 0.574701
v 0.034684 1.756543 0.507976
v 0.307131 2.090564 -0.191886
v 0.285902 2.484118 0.077945
v 0.135391 2.268240 0.627568
v 0.167072 2.510850 0.255585
v 0.150110 2.413462 0.500863
v 0.213327 2.831759 0.336290
v 0.202442 2.693702 0.670050
v 0.211678 2.813921 0.524754
v 0.307918 2.640511 0.285589
v 0.293955 2.522027 0.578436
v 0.058091 2.583635 0.596102
v 0.071130 2.705276 0.301756
v 0.046916 2.645828 0.448925
v 0.315540 2.580766 0.431527
v 0.189285 2.681316 0.273089
v 0.175492 2.544471 0.607177
v 0.624274 1.583992 0.037675
v -0.530937 1.580895 0.195942
v 0.723038 1.709855 -0.198607
v 0.170589 1.108689 0.207385
v -0.291546 0.169037 -0.244934
v -0.420297 0.128048 -0.112023
v -0.475288 0.221598 -0.338825
v -0.343219 0.223251 -0.371481
v 0.305122 -0.034490 0.025720
v 0.231467 -0.047807 -0.049347
v 0.314410 -0.039346 -0.012471
v 0.282820 -0.044840 -0.038301
v 0.246066 -0.035071 0.036142
v 0.069928 0.822365 -0.093212
v 0.139025 0.586891 -0.037914
v 0.173200 0.284640 -0.030979
v 0.201009 0.250791 0.145617
v 0.184684 0.493396 0.233584
v 0.194509 0.766800 0.287136
v 0.323884 0.250278 0.124492
v 0.392647 0.498229 0.200334
v 0.481975 0.823754 0.216641
v 0.325766 0.829340 -0.076292
v 0.317515 0.574952 -0.004434
v 0.279352 0.276997 -0.008300
v 0.344325 0.265491 0.045913
v 0.428205 0.558529 0.082645
v 0.499081 0.840458 0.026600
v -0.185929 0.932938 0.345201
v -0.198428 0.620343 0.230422
v -0.220229 0.390653 0.119032
v -0.504278 0.412544 0.111729
v -0.485450 0.685009 0.193080
v -0.479004 0.946136 0.238043
v -0.530791 0.539438 -0.127734
v -0.509696 0.796836 -0.041377
v -0.505465 0.946471 -0.029999
v -0.116670 0.870765 -0.071209
v -0.170098 0.753147 -0.092505
v -0.235459 0.561160 -0.149183
vn 0.0797 0.5712 -0.8169
vn -0.0042 0.0514 -0.9987
vn 0.4319 -0.3051 -0.8487
vn -0.3457 -0.2034 0.9160
vn 0.9055 -0.3583 0.2273
vn 0.6989 0.6630 0.2683
vn 0.3146 0.8505 -0.4216
vn 0.3192 -0.2342 0.9183
vn -0.0439 0.9015 0.4305
vn 0.0656 0.5422 -0.8377
vn -0.3542 -0.4235 0.8338
vn -0.4857 -0.8067 -0.3365
vn -0.3839 -0.1381 0.9130
vn 0.1399 -0.9144 0.3798
vn 0.8940 -0.3110 0.3227
vn -0.1849 -0.7651 0.6168
vn 0.2330 0.9422 0.2407
vn -0.1147 -0.7978 0.5918
vn -0.7698 0.2351 0.5934
vn 0.9787 0.0139 -0.2049
vn -0.7749 0.1115 -0.6222
vn 0.5350 0.7333 0.4197
vn 0.0821 0.3097 0.9473
vn -0.4598 -0.4173 0.7839
vn -0.1677 0.6790 0.7148
vn -0.8514 -0.1243 0.5095
vn 0.0275 -0.7066 -0.7071
vn 0.8331 0.5460 0.0891
vn -0.5448 -0.4871 0.6826
vn 0.6067 0.3894 -0.6930
vn -0.1209 0.6810 0.7223
vn 0.9686 0.1456 -0.2015
vn 0.1339 -0.7873 -0.6018
vn 0.2104 -0.9589 0.1903
vn -0.1359 -0.7675 -0.6265
vn -0.9256 0.3608 0.1145
vn 0.3281 0.8926 0.3091
vn 0.9888 -0.0444 -0.1426
vn 0.3592 0.5061 0.7841
vn 0.2807 0.9591 0.0371
vn -0.1929 0.9088 0.3698
vn 0.4896 0.8374 0.2431
vn 0.0778 0.9726 0.2193
vn -0.9700 0.1420 0.1973
vn 0.2557 -0.3455 0.9029
vn -0.2112 0.4712 -0.8563
vn -0.8358 -0.4047 -0.3712
vn -0.9596 -0.1765 0.2192
vn 0.2057 0.1799 -0.9619
vn -0.9605 0.2576 -0.1049
vn 0.0673 0.8409 0.5369
vn 0.4708 0.6823 0.5593
vn -0.1527 0.9051 0.3967
vn 0.9761 -0.1711 0.1341
vn 0.0364 0.8844 0.4653
vn -0.3810 -0.7794 -0.4973
vn 0.0775 -0.9607 0.2665
vn -0.4241 -0.8338 -0.3535
vn 0.4351 0.7359 0.5188
vn -0.2316 -0.8565 -0.4612
vn -0.0079 0.9996 0.0266
vn 0.5362 0.6555 0.5318
vn 0.4232 0.2892 0.8586
vn -0.2656 0.3312 -0.9054
vn -0.0745 0.0527 0.9958
vn -0.7254 -0.6421 0.2480
vn -0.2521 0.4636 0.8494
vn -0.6683 0.7087 0.2263
vn -0.4870 -0.7884 -0.3759
vn 0.1288 0.3170 0.9397
vn 0.5978 0.4646 0.6533
vn 0.1150 0.2536 0.9604
vn -0.2659 0.6755 -0.6877
vn -0.8751 0.4300 0.2221
vn 0.9067 -0.3330 0.2587
vn 0.5156 0.6867 0.5125
vn 0.3183 0.3869 -0.8655
vn -0.2701 -0.2672 0.9250
vn 0.5268 0.8364 0.1515
vn 0.4656 0.8835 0.0505
vn -0.1037 0.5499 0.8288
vn -0.5233 -0.0728 0.8490
vn 0.4067 0.7004 -0.5865
vn -0.1870 -0.5548 0.8107
vn 0.0968 0.1234 -0.9876
vn 0.9393 -0.3423 -0.0243
vn -0.9893 0.0146 -0.1453
vn -0.0995 0.1832 -0.9780
vn -0.0159 -0.5673 0.8234
vn -0.9998 0.0219 -0.0021
vn 0.9587 -0.2730 -0.0803
vn -0.0577 -0.9887 -0.1380
vn 0.2282 -0.7353 0.6381
vn -0.9712 -0.1916 0.1417
vn -0.9652 -0.2574 0.0470
vn 0.9729 -0.0868 -0.2143
vn -0.1343 0.5538 -0.8217
vn -0.0794 -0.9280 -0.3641
vn 0.0350 -0.9889 0.1443
vn 0.1613 -0.3318 0.9295
vn 0.2111 0.0919 -0.9731
vn 0.9623 -0.1414 0.2324
vn 0.6391 0.0809 -0.7649
vn 0.4206 -0.4955 -0.7599
vn 0.5319 -0.2699 -0.8027
vn 0.6179 -0.0738 -0.7828
vn 0.9916 -0.1149 0.0588
vn 0.9634 -0.2474 0.1030
vn 0.9421 -0.2979 0.1542
vn 0.0118 -0.4900 -0.8717
vn 0.1093 -0.2370 -0.9653
vn 0.1931 -0.0063 -0.9812
vn 0.2474 0.3003 0.9212
vn 0.2204 -0.1489 0.9640
vn 0.1574 -0.3279 0.9315
vn -0.9405 -0.0253 0.3390
vn -0.9674 -0.1119 0.2271
vn -0.9853 -0.1107 0.1301
vn -0.2130 -0.4810 -0.8504
vn -0.1015 0.1423 -0.9846
vn -0.0968 0.3187 -0.9429
vn 0.9300 0.2089 0.3025
vn 0.9765 -0.1848 0.1112
vn 0.9821 -0.1757 -0.0684
vn -0.9860 0.0558 -0.1569
vn -0.9946 0.0117 0.1030
vn -0.9916 0.0354 0.1241
vn -0.4654 0.3767 0.8009
vn -0.2655 -0.2505 0.9310
vn -0.1252 -0.3467 0.9296
vn 0.3971 -0.3542 0.8467
vn 0.5236 0.4314 -0.7347
vn -0.0585 -0.3882 -0.9197
vn -0.1557 -0.7502 -0.6426
vn -0.7367 -0.0228 -0.6758
vt 0.882279 0.260085
vt 0.436089 0.649131
vt 0.117664 0.305524
vt 0.860974 0.338762
vt 0.079561 0.383885
vt 0.278417 0.728674
vt 0.111517 0.716819
vt 0.301243 0.337859
vt 0.232943 0.387386
vt 0.111517 0.662267
vt 0.671871 0.687525
vt 0.175114 0.511099
vt 0.930991 0.712692
vt 0.796001 0.259488
vt 0.522181 0.649131
vt 0.719621 0.316178
vt 0.801110 0.310020
vt 0.698705 0.366293
vt 0.510656 0.337024
vt 0.023033 0.717149
vt 0.367094 0.730187
vt 0.507246 0.358198
vt 0.018976 0.695717
vt 0.103380 0.570561
vt 0.268725 0.266033
vt 0.143950 0.273348
vt 0.098384 0.631539
vt 0.301351 0.259488
vt 0.128079 0.559933
vt 0.480438 0.333338
vt 0.348619 0.714075
vt 0.604958 0.268707
vt 0.031105 0.562973
vt 0.043818 0.625810
vt 0.721993 0.282954
vt 0.329365 0.336360
vt 0.302724 0.713315
vt 0.030374 0.549675
vt 0.582817 0.260846
vt 0.875347 0.642471
vt 0.380514 0.272320
vt 0.124895 0.517524
vt 0.813390 0.578569
vt 0.436089 0.332372
vt 0.956124 0.588845
vt 0.367094 0.692599
vt 0.367094 0.522797
vt 0.871643 0.594841
vt 0.398138 0.324445
vt 0.043891 0.509019
vt 0.796001 0.641153
vt 0.491075 0.268473
vt 0.032114 0.534706
vt 0.552485 0.259488
vt 0.331566 0.259909
vt 0.129819 0.544964
vt 0.339759 0.337186
vt 0.913298 0.588845
vt 0.317584 0.707220
vt 0.845734 0.463378
vt 0.311567 0.646434
vt 0.944558 0.353645
vt 0.398138 0.462439
vt 0.920230 0.354337
vt 0.870057 0.463781
vt 0.929709 0.374247
vt 0.357807 0.478584
vt 0.347994 0.663056
vt 0.944558 0.373825
vt 0.097076 0.285727
vt 0.229765 0.651022
vt 0.758050 0.297859
vt 0.168317 0.651042
vt 0.119329 0.272208
vt 0.094178 0.643292
vt 0.222768 0.636959
vt 0.746872 0.283208
vt 0.174541 0.636975
vt 0.045175 0.638147
vt 0.080672 0.327471
vt 0.442544 0.673801
vt 0.734592 0.339187
vt 0.484453 0.673801
vt 0.070725 0.319456
vt 0.218298 0.685110
vt 0.751374 0.331694
vt 0.180611 0.684911
vt 0.062412 0.356092
vt 0.455575 0.702696
vt 0.724658 0.367821
vt 0.476314 0.702696
vt 0.043357 0.357400
vt 0.210236 0.723455
vt 0.742364 0.370210
vt 0.189444 0.723462
vt 0.050281 0.367705
vt 0.444942 0.715336
vt 0.810526 0.722486
vt 0.728448 0.380153
vt 0.853695 0.722486
vt 0.487920 0.715336
vt 0.018975 0.371756
vt 0.232852 0.738567
vt 0.796001 0.739289
vt 0.758050 0.386241
vt 0.861207 0.739289
vt 0.167770 0.738589
vt 0.100634 0.583041
vt 0.712300 0.698974
vt 0.802197 0.701507
vt 0.098640 0.600731
vt 0.972705 0.287497
vt 0.747907 0.696578
vt 0.052045 0.577939
vt 0.849895 0.701507
vt 0.710445 0.675017
vt 0.050052 0.595630
vt 0.746553 0.677603
vt 0.924885 0.287497
vt 0.797725 0.671259
vt 0.981025 0.313792
vt 0.715147 0.730011
vt 0.752543 0.724602
vt 0.973919 0.259495
vt 0.967002 0.332143
vt 0.934252 0.306472
vt 0.715328 0.644023
vt 0.847669 0.671259
vt 0.923848 0.259495
vt 0.753088 0.649631
vt 0.920230 0.324823
vt 0.068284 0.665533
vt 0.630362 0.705721
vt 0.712055 0.621316
vt 0.966165 0.712391
vt 0.519769 0.388732
vt 0.031375 0.663704
vt 0.592215 0.695479
vt 0.581836 0.620019
vt 0.750017 0.621843
vt 0.569690 0.667298
vt 0.581066 0.387596
vt 0.531739 0.516092
vt 0.642835 0.625048
vt 0.273616 0.509019
vt 0.070982 0.710642
vt 0.316851 0.732164
vt 0.684917 0.393810
vt 0.816625 0.338063
vt 0.644803 0.392946
vt 0.602800 0.367236
vt 0.671871 0.661666
vt 0.181146 0.386242
vt 0.855113 0.259897
vt 0.463196 0.649131
vt 0.077903 0.567886
vt 0.078993 0.554271
vt 0.322237 0.720993
vt 0.070972 0.628379
vt 0.834014 0.651825
vt 0.084160 0.512738
vt 0.838315 0.596273
vt 0.320679 0.509019
vt 0.080733 0.539302
vt 0.857365 0.464048
vt 0.931678 0.351118
vt 0.335174 0.488977
vt 0.367094 0.673623
vt 0.939667 0.384854
vt 0.199177 0.651021
vt 0.069465 0.641494
vt 0.198664 0.632807
vt 0.464209 0.672968
vt 0.199604 0.684998
vt 0.465945 0.702696
vt 0.199840 0.723459
vt 0.466714 0.715004
vt 0.832520 0.720483
vt 0.200177 0.738589
vt 0.829423 0.735282
vt 0.076340 0.580490
vt 0.826046 0.701507
vt 0.074346 0.598181
vt 0.948795 0.287497
vt 0.823088 0.670800
vt 0.959731 0.307426
vt 0.948976 0.259488
vt 0.941524 0.331189
vt 0.875347 0.491894
vt 0.391834 0.432095
vt 0.377694 0.448634
vt 0.915590 0.478791
vt 0.834644 0.488373
vt 0.326937 0.619279
vt 0.938593 0.478810
vt 0.335216 0.632947
vt 0.358601 0.463790
vt 0.348787 0.648138
vt 0.927106 0.463378
vt 0.854274 0.489560
vt 0.315804 0.619182
vt 0.212520 0.321385
vt 0.644070 0.318501
vt 0.018976 0.592450
vt 0.663817 0.276029
vt 0.129819 0.597828
vt 0.224108 0.269832
vt 0.051049 0.586785
vt 0.728499 0.676310
vt 0.099637 0.591886
vt 0.730103 0.697776
vt 0.734390 0.646904
vt 0.920230 0.314550
vt 0.981025 0.324065
vt 0.732426 0.727384
vt 0.950683 0.319044
vt 0.753088 0.663662
vt 0.920230 0.273492
vt 0.977552 0.273492
vt 0.752543 0.710647
vt 0.709822 0.714522
vt 0.796001 0.686127
vt 0.853178 0.686127
vt 0.709822 0.659561
vt 0.824792 0.685890
vt 0.948939 0.273488
vt 0.731549 0.661651
vt 0.730449 0.712624
vt 0.878850 0.297575
vt 0.096711 0.342677
vt 0.285581 0.357771
vt 0.108549 0.696221
vt 0.804979 0.293594
vt 0.708839 0.350023
vt 0.668288 0.644023
vt 0.436089 0.526409
vt 0.145034 0.385321
vt 0.919159 0.607821
vt 0.247387 0.613831
vt 0.970304 0.416607
vt 0.947808 0.608020
vt 0.704660 0.516092
vt 0.970304 0.403829
vt 0.750017 0.516884
vt 0.618892 0.516092
vt 0.920230 0.404231
vt 0.273616 0.612878
vt 0.642836 0.516847
vt 0.938584 0.415207
vt 0.924281 0.443436
vt 0.075400 0.489812
vt 0.855524 0.444402
vt 0.531739 0.629156
vt 0.934913 0.435583
vt 0.576828 0.496673
vt 0.931440 0.443424
vt 0.848383 0.444289
vt 0.592622 0.497116
vt 0.934913 0.440184
vt 0.586164 0.496977
vt 0.517161 0.630156
vt 0.920230 0.438606
vt 0.085942 0.490043
vt 0.585376 0.420489
vt 0.510472 0.551446
vt 0.582586 0.444044
vt 0.504260 0.576063
vt 0.581388 0.469636
vt 0.508131 0.602400
vt 0.103684 0.463024
vt 0.477645 0.604263
vt 0.118194 0.440373
vt 0.454885 0.581958
vt 0.129418 0.415411
vt 0.438452 0.557360
vt 0.876897 0.417052
vt 0.081901 0.462161
vt 0.882279 0.393921
vt 0.081653 0.438865
vt 0.880271 0.363315
vt 0.079604 0.408162
vt 0.633117 0.418943
vt 0.615530 0.444447
vt 0.600997 0.469910
vt 0.614559 0.469949
vt 0.862035 0.416811
vt 0.638313 0.444473
vt 0.857648 0.390640
vt 0.666106 0.417503
vt 0.844696 0.362700
vt 0.167770 0.536691
vt 0.914144 0.688660
vt 0.182151 0.561697
vt 0.913298 0.663084
vt 0.189855 0.582503
vt 0.915415 0.641729
vt 0.680787 0.549268
vt 0.966165 0.641681
vt 0.684678 0.573659
vt 0.963812 0.665813
vt 0.684995 0.596421
vt 0.964308 0.688427
vt 0.584794 0.548886
vt 0.729850 0.550060
vt 0.578610 0.572959
vt 0.734888 0.574452
vt 0.569690 0.595426
vt 0.736445 0.597214
vt 0.642060 0.590920
vt 0.247172 0.543053
vt 0.641052 0.570535
vt 0.248998 0.562413
vt 0.635978 0.552556
vt 0.245738 0.579271
s 0
usemtl Material
f 89/203/1 7/19/1 13/32/1 90/205/1
f 8/22/2 7/19/2 89/203/2 58/151/2 54/142/2 53/136/2
f 6/18/3 56/148/3 57/150/3
f 3/8/4 106/231/4 4/9/4 59/153/4 88/202/4
f 6/17/5 107/233/5 5/14/5 60/154/5 1/1/5 105/229/5 2/4/5 56/149/5
f 61/156/6 13/33/6 16/38/6 62/157/6
f 5/16/7 14/35/7 31/77/7 29/72/7
f 88/202/8 1/3/8 10/26/8 91/207/8
f 67/164/9 21/53/9 20/50/9 65/161/9
f 13/32/10 7/19/10 12/30/10 16/39/10
f 3/8/11 9/25/11 11/28/11 15/36/11
f 55/147/12 3/6/12 15/37/12 63/158/12
f 66/162/13 19/48/13 17/40/13 65/160/13
f 23/57/14 22/55/14 17/41/14 19/49/14
f 83/191/15 82/190/15 25/63/15 26/67/15
f 15/36/16 11/28/16 22/55/16 23/57/16
f 62/157/17 16/38/17 21/53/17 67/164/17
f 69/169/18 26/66/18 25/64/18 68/166/18
f 87/200/19 84/193/19 24/60/19 68/165/19
f 86/197/20 83/191/20 26/67/20 69/167/20
f 84/194/21 85/196/21 27/68/21 24/61/21
f 70/170/22 29/73/22 31/78/22 71/172/22
f 70/170/23 28/71/23 34/85/23 73/174/23
f 10/26/24 1/3/24 28/70/24 30/74/24
f 64/159/25 10/27/25 30/75/25 71/171/25
f 34/84/26 32/80/26 36/88/26 38/92/26
f 60/155/27 5/15/27 33/83/27 72/173/27
f 5/16/28 29/72/28 35/86/28 33/82/28
f 28/70/29 1/3/29 32/80/29 34/84/29
f 37/90/30 39/94/30 43/105/30 41/99/30
f 73/174/31 34/85/31 38/93/31 75/176/31
f 33/82/32 35/86/32 39/94/32 37/90/32
f 72/173/33 33/83/33 37/91/33 74/175/33
f 76/178/34 41/100/34 43/106/34 77/180/34
f 74/175/35 37/91/35 41/101/35 76/177/35
f 38/92/36 36/88/36 40/96/36 42/102/36
f 75/176/37 38/93/37 42/103/37 77/179/37
f 102/226/38 97/218/38 51/129/38 81/187/38
f 91/206/39 10/27/39 45/111/39 93/210/39
f 90/204/40 13/33/40 46/114/40 92/208/40
f 61/156/41 9/24/41 44/108/41 78/181/41
f 64/159/42 14/34/42 47/117/42 79/183/42
f 96/216/43 94/213/43 50/126/43 80/186/43
f 101/225/44 99/222/44 48/120/44 80/185/44
f 104/228/45 98/220/45 49/123/45 95/215/45
f 103/227/46 100/224/46 50/127/46 94/212/46
f 8/23/47 53/137/47 52/132/47
f 8/23/48 52/132/48 4/10/48 106/232/48 3/7/48 55/146/48 7/20/48
f 54/142/49 58/151/49 89/203/49 5/16/49 107/234/49 6/18/49 57/150/49
f 100/223/50 101/225/50 80/185/50 50/128/50
f 95/214/51 96/216/51 80/186/51 48/121/51
f 10/27/52 64/159/52 79/183/52 45/111/52
f 13/33/53 61/156/53 78/181/53 46/114/53
f 98/219/54 102/226/54 81/187/54 49/124/54
f 39/95/55 75/176/55 77/179/55 43/107/55
f 36/89/56 74/175/56 76/177/56 40/97/56
f 40/98/57 76/178/57 77/180/57 42/104/57
f 32/81/58 72/173/58 74/175/58 36/89/58
f 35/87/59 73/174/59 75/176/59 39/95/59
f 1/2/60 60/155/60 72/173/60 32/81/60
f 14/34/61 64/159/61 71/171/61 31/79/61
f 29/73/62 70/170/62 73/174/62 35/87/62
f 28/71/63 70/170/63 71/172/63 30/76/63
f 85/196/64 86/198/64 69/168/64 27/68/64
f 82/189/65 87/200/65 68/165/65 25/65/65
f 27/69/66 69/169/66 68/166/66 24/62/66
f 11/29/67 62/157/67 67/164/67 22/56/67
f 18/43/68 66/162/68 65/160/68 20/51/68
f 7/21/69 55/147/69 63/158/69 12/31/69
f 22/56/70 67/164/70 65/161/70 17/42/70
f 9/24/71 61/156/71 62/157/71 11/29/71
f 19/48/72 66/162/72 87/200/72 82/189/72
f 12/30/73 18/44/73 20/52/73 21/54/73 16/39/73
f 66/163/74 18/47/74 84/194/74 87/201/74
f 23/57/75 19/49/75 82/190/75 83/191/75
f 49/125/76 81/188/76 96/216/76 95/214/76
f 97/217/77 103/227/77 94/212/77 51/130/77
f 99/221/78 104/228/78 95/215/78 48/122/78
f 81/188/79 51/131/79 94/213/79 96/216/79
f 14/34/80 90/204/80 92/208/80 47/117/80
f 9/24/81 91/206/81 93/210/81 44/108/81
f 3/8/82 88/202/82 91/207/82 9/25/82
f 5/16/83 89/203/83 90/205/83 14/35/83
f 44/109/84 93/211/84 104/228/84 99/221/84
f 47/118/85 92/209/85 103/227/85 97/217/85
f 45/112/86 79/184/86 102/226/86 98/219/86
f 46/115/87 78/182/87 101/225/87 100/223/87
f 92/209/88 46/116/88 100/224/88 103/227/88
f 93/211/89 45/113/89 98/220/89 104/228/89
f 78/182/90 44/110/90 99/222/90 101/225/90
f 79/184/91 47/119/91 97/218/91 102/226/91
f 59/152/92 4/11/92 52/133/92 53/138/92 54/141/92 108/235/92
f 136/298/93 110/241/93 109/238/93 135/296/93
f 121/271/94 120/269/94 114/253/94 117/261/94
f 139/304/95 111/244/95 110/242/95 136/297/95
f 135/295/96 109/239/96 112/247/96 144/314/96
f 144/313/97 112/248/97 111/245/97 139/303/97
f 111/246/98 112/249/98 109/240/98 110/243/98
f 117/262/99 114/254/99 116/259/99 115/256/99 113/250/99
f 124/277/100 121/270/100 117/263/100 113/251/100
f 120/268/101 129/284/101 116/260/101 114/255/101
f 130/286/102 124/276/102 113/252/102 115/257/102
f 129/284/103 130/285/103 115/258/103 116/260/103
f 57/150/104 56/148/104 132/289/104 127/282/104
f 127/282/105 132/289/105 131/287/105 128/283/105
f 128/283/106 131/287/106 130/285/106 129/284/106
f 56/149/107 2/4/107 126/280/107 132/290/107
f 132/290/108 126/280/108 125/278/108 131/288/108
f 131/288/109 125/278/109 124/276/109 130/286/109
f 54/142/110 57/150/110 127/282/110 118/264/110
f 118/264/111 127/282/111 128/283/111 119/266/111
f 119/266/112 128/283/112 129/284/112 120/268/112
f 2/5/113 108/237/113 123/274/113 126/281/113
f 126/281/114 123/274/114 122/272/114 125/279/114
f 125/279/115 122/272/115 121/270/115 124/277/115
f 108/236/116 54/143/116 118/265/116 123/275/116
f 123/275/117 118/265/117 119/267/117 122/273/117
f 122/273/118 119/267/118 120/269/118 121/271/118
f 54/144/119 142/309/119 141/307/119 53/139/119
f 142/309/120 143/311/120 140/305/120 141/307/120
f 143/311/121 144/313/121 139/303/121 140/305/121
f 4/12/122 133/291/122 142/310/122 54/145/122
f 133/291/123 134/293/123 143/312/123 142/310/123
f 134/293/124 135/295/124 144/314/124 143/312/124
f 53/140/125 141/308/125 138/301/125 52/134/125
f 141/308/126 140/306/126 137/299/126 138/301/126
f 140/306/127 139/304/127 136/297/127 137/299/127
f 52/135/128 138/302/128 133/292/128 4/13/128
f 138/302/129 137/300/129 134/294/129 133/292/129
f 137/300/130 136/298/130 135/296/130 134/294/130
f 105/230/131 1/3/131 88/202/131 59/153/131 108/237/131 2/5/131
f 86/199/132 85/195/132 83/192/132
f 83/192/133 85/195/133 18/45/133 23/58/133
f 63/158/134 15/37/134 23/59/134 18/46/134 12/31/134
f 84/194/135 18/47/135 85/196/135
l 52 106
