# Blender 3.3.1
# www.blender.org
mtllib monstruo_3_grande_caminar632.mtl
o monstruo_grande
v 0.389876 2.007919 0.259485
v 0.511655 1.183576 0.129633
v -0.709788 1.744640 0.211781
v -0.304886 1.092009 0.194014
v 0.538109 2.299400 -0.086503
v 0.548256 1.591378 -0.218540
v -0.842773 1.964842 -0.191685
v -0.737488 1.701830 -0.267743
v -0.320679 2.378369 0.502535
v 0.237281 2.282260 0.459693
v -0.449617 2.343031 0.604157
v -1.208758 2.004287 -0.020011
v -0.323842 2.553529 0.147723
v 0.231923 2.427984 0.200182
v -1.049314 1.872249 0.128399
v -0.486573 2.623924 0.176947
v -0.794218 2.254830 0.633710
v -1.486241 1.921401 0.262471
v -1.199867 1.961549 0.455390
v -0.993060 2.569455 0.379898
v -0.669779 2.658093 0.251986
v -0.522590 2.299376 0.582059
v -1.180076 1.888485 0.138580
v -1.757259 0.649714 0.928238
v -1.629132 0.627901 0.966684
v -1.624192 0.457413 0.760400
v -1.702397 0.470728 0.736934
v 0.397111 2.199914 0.442440
v 0.491182 2.399147 0.185751
v 0.352084 2.312083 0.455634
v 0.364437 2.449658 0.230762
v 0.644529 1.896965 0.247267
v 0.756275 1.993302 0.071295
v 0.663586 1.975575 0.295716
v 0.739866 2.094639 0.144556
v 0.832199 1.678368 0.197955
v 0.906439 1.712488 0.117137
v 0.915843 1.648498 0.255273
v 0.986602 1.691053 0.174381
v 0.855679 1.527148 0.229710
v 1.006110 1.613723 0.064329
v 0.965544 1.434012 0.364245
v 1.186306 1.562204 0.109079
v -0.159055 2.430768 0.519475
v 0.050906 2.403996 0.499959
v -0.162730 2.535606 0.272631
v 0.042234 2.509811 0.258313
v -0.104624 2.742274 0.666827
v 0.100702 2.678251 0.626160
v -0.118624 2.858257 0.414652
v 0.085896 2.794634 0.373667
v -0.503861 1.146933 -0.024710
v -0.381762 1.205795 -0.226971
v -0.043815 1.281297 -0.333712
v -0.769553 1.792403 -0.002568
v 0.558442 1.176617 -0.105993
v 0.350944 1.174248 -0.251838
v -0.000164 1.529134 -0.318322
v -0.028686 1.140840 0.180281
v 0.442162 2.094739 0.143219
v -0.315138 2.440789 0.378450
v -0.477145 2.594345 0.449956
v -0.987450 1.944588 0.007473
v 0.213609 2.411599 0.361041
v -0.826892 2.481881 0.594661
v -1.374586 2.061706 0.504623
v -0.629489 2.577429 0.446331
v -1.702868 0.636830 0.978575
v -1.650778 0.351623 0.643151
v 0.480492 2.311671 0.343676
v 0.359994 2.425633 0.366522
v 0.658087 1.924702 0.121000
v 0.741971 2.047372 0.251247
v 0.867862 1.698199 0.157297
v 0.951107 1.668975 0.214515
v 0.911031 1.572195 0.131222
v 1.040477 1.503333 0.208618
v -0.160952 2.483367 0.395638
v 0.044738 2.457880 0.378559
v -0.142849 2.801471 0.543121
v 0.124783 2.735375 0.497835
v -1.507459 0.954031 0.911728
v -1.570489 0.781735 0.844491
v -1.728742 0.961976 0.846044
v -1.691087 0.802266 0.808305
v -1.635367 0.627163 0.748130
v -1.637675 0.937503 0.931908
v -0.055632 1.751024 0.522949
v 0.083055 2.133306 -0.180079
v 0.036616 2.515532 0.076829
v -0.004811 2.266401 0.634257
v -0.063131 2.522402 0.264124
v -0.050331 2.417437 0.508562
v -0.018673 2.843643 0.356054
v 0.000094 2.692869 0.684255
v -0.005276 2.818655 0.543549
v 0.077376 2.661774 0.291660
v 0.091222 2.530579 0.580185
v -0.144927 2.579017 0.615361
v -0.161465 2.710078 0.324366
v -0.169339 2.645518 0.471664
v 0.099578 2.596057 0.434565
v -0.043876 2.694689 0.287719
v -0.025033 2.545119 0.617359
v 0.434992 1.693721 0.001261
v -0.590649 1.463393 0.222414
v 0.549119 1.808196 -0.213416
v 0.153654 1.176472 0.198806
v -0.238223 0.035878 -0.262574
v -0.386905 0.033731 -0.145416
v -0.403735 0.048478 -0.395128
v -0.268110 0.044778 -0.405306
v 0.293396 0.010657 0.292925
v 0.223185 -0.010629 0.216791
v 0.304412 0.003567 0.255470
v 0.274070 -0.004800 0.228968
v 0.233951 0.008760 0.301401
v 0.087787 0.845177 -0.079150
v 0.118697 0.583047 0.071920
v 0.153721 0.299432 0.183931
v 0.182855 0.323155 0.361814
v 0.164739 0.581005 0.368671
v 0.172279 0.857372 0.332915
v 0.305603 0.316866 0.340888
v 0.371883 0.575260 0.332646
v 0.463620 0.908885 0.273748
v 0.343611 0.868308 -0.033526
v 0.297116 0.584190 0.109137
v 0.260046 0.299885 0.206848
v 0.325440 0.306585 0.261360
v 0.407546 0.596375 0.198284
v 0.503121 0.900817 0.087031
v -0.200126 0.804666 0.221763
v -0.179274 0.536461 0.102331
v -0.183081 0.308309 0.024910
v -0.468386 0.311543 0.007347
v -0.468077 0.581819 0.051896
v -0.482305 0.834144 0.088251
v -0.494889 0.403438 -0.244422
v -0.491733 0.677748 -0.202230
v -0.483919 0.909894 -0.179940
v -0.089316 0.857758 -0.201176
v -0.148585 0.653533 -0.243496
v -0.201119 0.442107 -0.262039
vn -0.0943 0.5539 -0.8272
vn -0.0682 0.1249 -0.9898
vn 0.5646 -0.2032 -0.8000
vn -0.2389 -0.3247 0.9151
vn 0.9393 0.0043 0.3431
vn 0.5974 0.7771 0.1981
vn 0.0803 0.9171 -0.3904
vn 0.5862 -0.2308 0.7766
vn -0.0965 0.9025 0.4198
vn -0.1918 0.5560 -0.8088
vn -0.0705 -0.5254 0.8479
vn -0.3930 -0.8649 -0.3123
vn -0.1708 -0.1386 0.9755
vn 0.3635 -0.8616 0.3542
vn 0.9562 -0.2635 0.1272
vn 0.0651 -0.7631 0.6429
vn 0.0965 0.9710 0.2188
vn 0.0562 -0.7611 0.6462
vn -0.6265 0.2509 0.7379
vn 0.9056 0.0290 -0.4231
vn -0.8993 0.0483 -0.4347
vn 0.5841 0.7484 0.3142
vn 0.5351 0.1735 0.8268
vn -0.1949 -0.5486 0.8131
vn -0.1057 0.6039 0.7900
vn -0.4878 -0.5098 0.7086
vn -0.3493 -0.5371 -0.7679
vn 0.7973 0.5737 -0.1877
vn -0.1746 -0.6301 0.7566
vn 0.4053 0.7802 -0.4764
vn 0.4694 0.2133 0.8568
vn 0.7319 0.3605 -0.5783
vn -0.3369 -0.3786 -0.8620
vn -0.0769 -0.8006 -0.5942
vn -0.5964 -0.0995 -0.7965
vn -0.6418 0.1602 0.7500
vn 0.7000 0.4139 0.5820
vn 0.9747 -0.0014 -0.2236
vn 0.3873 0.5589 0.7333
vn 0.1128 0.9935 0.0130
vn -0.3034 0.8661 0.3973
vn 0.3710 0.8974 0.2389
vn 0.0512 0.9664 0.2519
vn -0.9581 0.0966 0.2698
vn 0.3314 -0.3704 0.8678
vn -0.2880 0.5015 -0.8158
vn -0.6580 -0.5169 -0.5476
vn -0.8888 -0.4250 0.1717
vn 0.1339 0.1312 -0.9823
vn -0.9734 0.2287 -0.0127
vn 0.0678 0.8227 0.5644
vn 0.4296 0.7217 0.5427
vn -0.2553 0.8733 0.4149
vn 0.9886 -0.1402 0.0543
vn 0.4985 0.2919 0.8163
vn -0.7752 -0.1987 -0.5997
vn -0.1656 -0.8648 -0.4741
vn -0.6957 -0.6102 -0.3790
vn 0.7942 0.4595 0.3976
vn -0.4759 -0.7383 -0.4779
vn -0.1417 0.9823 0.1229
vn 0.7409 0.5885 0.3237
vn 0.6187 0.3400 0.7083
vn -0.4772 0.2645 -0.8381
vn 0.1502 0.1144 0.9820
vn -0.6224 -0.6456 0.4425
vn -0.2150 0.4266 0.8785
vn -0.7029 0.6157 0.3563
vn -0.3917 -0.8423 -0.3702
vn 0.2645 0.3798 0.8864
vn 0.5794 0.5632 0.5891
vn 0.2891 0.2995 0.9092
vn -0.4883 0.6013 -0.6324
vn -0.8389 0.3885 0.3813
vn 0.9581 -0.2780 0.0697
vn 0.5197 0.6893 0.5048
vn 0.2404 0.4343 -0.8681
vn -0.1963 -0.3124 0.9294
vn 0.4991 0.8540 0.1471
vn 0.3087 0.9509 0.0204
vn -0.0928 0.5101 0.8551
vn -0.4241 -0.1501 0.8931
vn 0.1206 0.7613 -0.6371
vn -0.0894 -0.5851 0.8060
vn 0.0257 0.1687 -0.9853
vn 0.9523 -0.2815 -0.1180
vn -0.9996 -0.0108 -0.0272
vn -0.1709 0.2188 -0.9607
vn 0.0876 -0.6088 0.7885
vn -0.9960 -0.0287 0.0851
vn 0.9522 -0.2354 -0.1946
vn 0.1378 -0.9530 -0.2700
vn 0.1758 -0.6099 0.7728
vn -0.9646 -0.1941 0.1785
vn -0.9614 -0.2742 0.0248
vn 0.9861 -0.0899 -0.1398
vn -0.0894 0.3600 -0.9286
vn -0.0307 -0.9979 -0.0565
vn 0.0647 -0.9744 0.2152
vn 0.1535 -0.1606 0.9750
vn 0.2197 -0.0573 -0.9739
vn 0.9613 -0.0758 0.2648
vn 0.6483 -0.0278 -0.7609
vn 0.5316 -0.5264 -0.6635
vn 0.5962 -0.4350 -0.6748
vn 0.6185 -0.3283 -0.7139
vn 0.9776 -0.0599 0.2019
vn 0.9513 -0.2223 0.2137
vn 0.9457 -0.2256 0.2340
vn 0.0985 -0.5230 -0.8466
vn 0.1907 -0.4691 -0.8623
vn 0.1961 -0.3403 -0.9196
vn 0.1403 0.4144 0.8992
vn 0.1752 0.1231 0.9768
vn 0.1696 -0.0132 0.9854
vn -0.9584 -0.0457 0.2816
vn -0.9833 0.0201 0.1808
vn -0.9851 -0.0658 0.1590
vn -0.1619 -0.2076 -0.9647
vn -0.0673 0.1562 -0.9854
vn -0.0942 0.1342 -0.9865
vn 0.9036 0.1645 0.3954
vn 0.9797 -0.1314 0.1512
vn 0.9922 -0.1210 -0.0281
vn -0.9710 0.0684 -0.2291
vn -0.9989 -0.0183 0.0423
vn -0.9954 -0.0089 0.0954
vn -0.5816 0.0677 0.8107
vn -0.3277 -0.2911 0.8988
vn -0.1339 -0.2345 0.9628
vn 0.5348 -0.1892 0.8235
vn 0.3252 0.3982 -0.8577
vn -0.2331 -0.4286 -0.8729
vn -0.2265 -0.8062 -0.5466
vn -0.8624 -0.0855 -0.4989
vt 0.882279 0.260085
vt 0.436089 0.649131
vt 0.117664 0.305524
vt 0.860974 0.338762
vt 0.079561 0.383885
vt 0.278417 0.728674
vt 0.111517 0.716819
vt 0.301243 0.337859
vt 0.232943 0.387386
vt 0.111517 0.662267
vt 0.671871 0.687525
vt 0.175114 0.511099
vt 0.930991 0.712692
vt 0.796001 0.259488
vt 0.522181 0.649131
vt 0.719621 0.316178
vt 0.801110 0.310020
vt 0.698705 0.366293
vt 0.510656 0.337024
vt 0.023033 0.717149
vt 0.367094 0.730187
vt 0.507246 0.358198
vt 0.018976 0.695717
vt 0.103380 0.570561
vt 0.268725 0.266033
vt 0.143950 0.273348
vt 0.098384 0.631539
vt 0.301351 0.259488
vt 0.128079 0.559933
vt 0.480438 0.333338
vt 0.348619 0.714075
vt 0.604958 0.268707
vt 0.031105 0.562973
vt 0.043818 0.625810
vt 0.721993 0.282954
vt 0.329365 0.336360
vt 0.302724 0.713315
vt 0.030374 0.549675
vt 0.582817 0.260846
vt 0.875347 0.642471
vt 0.380514 0.272320
vt 0.124895 0.517524
vt 0.813390 0.578569
vt 0.436089 0.332372
vt 0.956124 0.588845
vt 0.367094 0.692599
vt 0.367094 0.522797
vt 0.871643 0.594841
vt 0.398138 0.324445
vt 0.043891 0.509019
vt 0.796001 0.641153
vt 0.491075 0.268473
vt 0.032114 0.534706
vt 0.552485 0.259488
vt 0.331566 0.259909
vt 0.129819 0.544964
vt 0.339759 0.337186
vt 0.913298 0.588845
vt 0.317584 0.707220
vt 0.845734 0.463378
vt 0.311567 0.646434
vt 0.944558 0.353645
vt 0.398138 0.462439
vt 0.920230 0.354337
vt 0.870057 0.463781
vt 0.929709 0.374247
vt 0.357807 0.478584
vt 0.347994 0.663056
vt 0.944558 0.373825
vt 0.097076 0.285727
vt 0.229765 0.651022
vt 0.758050 0.297859
vt 0.168317 0.651042
vt 0.119329 0.272208
vt 0.094178 0.643292
vt 0.222768 0.636959
vt 0.746872 0.283208
vt 0.174541 0.636975
vt 0.045175 0.638147
vt 0.080672 0.327471
vt 0.442544 0.673801
vt 0.734592 0.339187
vt 0.484453 0.673801
vt 0.070725 0.319456
vt 0.218298 0.685110
vt 0.751374 0.331694
vt 0.180611 0.684911
vt 0.062412 0.356092
vt 0.455575 0.702696
vt 0.724658 0.367821
vt 0.476314 0.702696
vt 0.043357 0.357400
vt 0.210236 0.723455
vt 0.742364 0.370210
vt 0.189444 0.723462
vt 0.050281 0.367705
vt 0.444942 0.715336
vt 0.810526 0.722486
vt 0.728448 0.380153
vt 0.853695 0.722486
vt 0.487920 0.715336
vt 0.018975 0.371756
vt 0.232852 0.738567
vt 0.796001 0.739289
vt 0.758050 0.386241
vt 0.861207 0.739289
vt 0.167770 0.738589
vt 0.100634 0.583041
vt 0.712300 0.698974
vt 0.802197 0.701507
vt 0.098640 0.600731
vt 0.972705 0.287497
vt 0.747907 0.696578
vt 0.052045 0.577939
vt 0.849895 0.701507
vt 0.710445 0.675017
vt 0.050052 0.595630
vt 0.746553 0.677603
vt 0.924885 0.287497
vt 0.797725 0.671259
vt 0.981025 0.313792
vt 0.715147 0.730011
vt 0.752543 0.724602
vt 0.973919 0.259495
vt 0.967002 0.332143
vt 0.934252 0.306472
vt 0.715328 0.644023
vt 0.847669 0.671259
vt 0.923848 0.259495
vt 0.753088 0.649631
vt 0.920230 0.324823
vt 0.068284 0.665533
vt 0.630362 0.705721
vt 0.712055 0.621316
vt 0.966165 0.712391
vt 0.519769 0.388732
vt 0.031375 0.663704
vt 0.592215 0.695479
vt 0.581836 0.620019
vt 0.750017 0.621843
vt 0.569690 0.667298
vt 0.581066 0.387596
vt 0.531739 0.516092
vt 0.642835 0.625048
vt 0.273616 0.509019
vt 0.070982 0.710642
vt 0.316851 0.732164
vt 0.684917 0.393810
vt 0.816625 0.338063
vt 0.644803 0.392946
vt 0.602800 0.367236
vt 0.671871 0.661666
vt 0.181146 0.386242
vt 0.855113 0.259897
vt 0.463196 0.649131
vt 0.077903 0.567886
vt 0.078993 0.554271
vt 0.322237 0.720993
vt 0.070972 0.628379
vt 0.834014 0.651825
vt 0.084160 0.512738
vt 0.838315 0.596273
vt 0.320679 0.509019
vt 0.080733 0.539302
vt 0.857365 0.464048
vt 0.931678 0.351118
vt 0.335174 0.488977
vt 0.367094 0.673623
vt 0.939667 0.384854
vt 0.199177 0.651021
vt 0.069465 0.641494
vt 0.198664 0.632807
vt 0.464209 0.672968
vt 0.199604 0.684998
vt 0.465945 0.702696
vt 0.199840 0.723459
vt 0.466714 0.715004
vt 0.832520 0.720483
vt 0.200177 0.738589
vt 0.829423 0.735282
vt 0.076340 0.580490
vt 0.826046 0.701507
vt 0.074346 0.598181
vt 0.948795 0.287497
vt 0.823088 0.670800
vt 0.959731 0.307426
vt 0.948976 0.259488
vt 0.941524 0.331189
vt 0.875347 0.491894
vt 0.391834 0.432095
vt 0.377694 0.448634
vt 0.915590 0.478791
vt 0.834644 0.488373
vt 0.326937 0.619279
vt 0.938593 0.478810
vt 0.335216 0.632947
vt 0.358601 0.463790
vt 0.348787 0.648138
vt 0.927106 0.463378
vt 0.854274 0.489560
vt 0.315804 0.619182
vt 0.212520 0.321385
vt 0.644070 0.318501
vt 0.018976 0.592450
vt 0.663817 0.276029
vt 0.129819 0.597828
vt 0.224108 0.269832
vt 0.051049 0.586785
vt 0.728499 0.676310
vt 0.099637 0.591886
vt 0.730103 0.697776
vt 0.734390 0.646904
vt 0.920230 0.314550
vt 0.981025 0.324065
vt 0.732426 0.727384
vt 0.950683 0.319044
vt 0.753088 0.663662
vt 0.920230 0.273492
vt 0.977552 0.273492
vt 0.752543 0.710647
vt 0.709822 0.714522
vt 0.796001 0.686127
vt 0.853178 0.686127
vt 0.709822 0.659561
vt 0.824792 0.685890
vt 0.948939 0.273488
vt 0.731549 0.661651
vt 0.730449 0.712624
vt 0.878850 0.297575
vt 0.096711 0.342677
vt 0.285581 0.357771
vt 0.108549 0.696221
vt 0.804979 0.293594
vt 0.708839 0.350023
vt 0.668288 0.644023
vt 0.436089 0.526409
vt 0.145034 0.385321
vt 0.919159 0.607821
vt 0.247387 0.613831
vt 0.970304 0.416607
vt 0.947808 0.608020
vt 0.704660 0.516092
vt 0.970304 0.403829
vt 0.750017 0.516884
vt 0.618892 0.516092
vt 0.920230 0.404231
vt 0.273616 0.612878
vt 0.642836 0.516847
vt 0.938584 0.415207
vt 0.924281 0.443436
vt 0.075400 0.489812
vt 0.855524 0.444402
vt 0.531739 0.629156
vt 0.934913 0.435583
vt 0.576828 0.496673
vt 0.931440 0.443424
vt 0.848383 0.444289
vt 0.592622 0.497116
vt 0.934913 0.440184
vt 0.586164 0.496977
vt 0.517161 0.630156
vt 0.920230 0.438606
vt 0.085942 0.490043
vt 0.585376 0.420489
vt 0.510472 0.551446
vt 0.582586 0.444044
vt 0.504260 0.576063
vt 0.581388 0.469636
vt 0.508131 0.602400
vt 0.103684 0.463024
vt 0.477645 0.604263
vt 0.118194 0.440373
vt 0.454885 0.581958
vt 0.129418 0.415411
vt 0.438452 0.557360
vt 0.876897 0.417052
vt 0.081901 0.462161
vt 0.882279 0.393921
vt 0.081653 0.438865
vt 0.880271 0.363315
vt 0.079604 0.408162
vt 0.633117 0.418943
vt 0.615530 0.444447
vt 0.600997 0.469910
vt 0.614559 0.469949
vt 0.862035 0.416811
vt 0.638313 0.444473
vt 0.857648 0.390640
vt 0.666106 0.417503
vt 0.844696 0.362700
vt 0.167770 0.536691
vt 0.914144 0.688660
vt 0.182151 0.561697
vt 0.913298 0.663084
vt 0.189855 0.582503
vt 0.915415 0.641729
vt 0.680787 0.549268
vt 0.966165 0.641681
vt 0.684678 0.573659
vt 0.963812 0.665813
vt 0.684995 0.596421
vt 0.964308 0.688427
vt 0.584794 0.548886
vt 0.729850 0.550060
vt 0.578610 0.572959
vt 0.734888 0.574452
vt 0.569690 0.595426
vt 0.736445 0.597214
vt 0.642060 0.590920
vt 0.247172 0.543053
vt 0.641052 0.570535
vt 0.248998 0.562413
vt 0.635978 0.552556
vt 0.245738 0.579271
s 0
usemtl Material
f 89/203/1 7/19/1 13/32/1 90/205/1
f 8/22/2 7/19/2 89/203/2 58/151/2 54/142/2 53/136/2
f 6/18/3 56/148/3 57/150/3
f 3/8/4 106/231/4 4/9/4 59/153/4 88/202/4
f 6/17/5 107/233/5 5/14/5 60/154/5 1/1/5 105/229/5 2/4/5 56/149/5
f 61/156/6 13/33/6 16/38/6 62/157/6
f 5/16/7 14/35/7 31/77/7 29/72/7
f 88/202/8 1/3/8 10/26/8 91/207/8
f 67/164/9 21/53/9 20/50/9 65/161/9
f 13/32/10 7/19/10 12/30/10 16/39/10
f 3/8/11 9/25/11 11/28/11 15/36/11
f 55/147/12 3/6/12 15/37/12 63/158/12
f 66/162/13 19/48/13 17/40/13 65/160/13
f 23/57/14 22/55/14 17/41/14 19/49/14
f 83/191/15 82/190/15 25/63/15 26/67/15
f 15/36/16 11/28/16 22/55/16 23/57/16
f 62/157/17 16/38/17 21/53/17 67/164/17
f 69/169/18 26/66/18 25/64/18 68/166/18
f 87/200/19 84/193/19 24/60/19 68/165/19
f 86/197/20 83/191/20 26/67/20 69/167/20
f 84/194/21 85/196/21 27/68/21 24/61/21
f 70/170/22 29/73/22 31/78/22 71/172/22
f 70/170/23 28/71/23 34/85/23 73/174/23
f 10/26/24 1/3/24 28/70/24 30/74/24
f 64/159/25 10/27/25 30/75/25 71/171/25
f 34/84/26 32/80/26 36/88/26 38/92/26
f 60/155/27 5/15/27 33/83/27 72/173/27
f 5/16/28 29/72/28 35/86/28 33/82/28
f 28/70/29 1/3/29 32/80/29 34/84/29
f 37/90/30 39/94/30 43/105/30 41/99/30
f 73/174/31 34/85/31 38/93/31 75/176/31
f 33/82/32 35/86/32 39/94/32 37/90/32
f 72/173/33 33/83/33 37/91/33 74/175/33
f 76/178/34 41/100/34 43/106/34 77/180/34
f 74/175/35 37/91/35 41/101/35 76/177/35
f 38/92/36 36/88/36 40/96/36 42/102/36
f 75/176/37 38/93/37 42/103/37 77/179/37
f 102/226/38 97/218/38 51/129/38 81/187/38
f 91/206/39 10/27/39 45/111/39 93/210/39
f 90/204/40 13/33/40 46/114/40 92/208/40
f 61/156/41 9/24/41 44/108/41 78/181/41
f 64/159/42 14/34/42 47/117/42 79/183/42
f 96/216/43 94/213/43 50/126/43 80/186/43
f 101/225/44 99/222/44 48/120/44 80/185/44
f 104/228/45 98/220/45 49/123/45 95/215/45
f 103/227/46 100/224/46 50/127/46 94/212/46
f 8/23/47 53/137/47 52/132/47
f 8/23/48 52/132/48 4/10/48 106/232/48 3/7/48 55/146/48 7/20/48
f 54/142/49 58/151/49 89/203/49 5/16/49 107/234/49 6/18/49 57/150/49
f 100/223/50 101/225/50 80/185/50 50/128/50
f 95/214/51 96/216/51 80/186/51 48/121/51
f 10/27/52 64/159/52 79/183/52 45/111/52
f 13/33/53 61/156/53 78/181/53 46/114/53
f 98/219/54 102/226/54 81/187/54 49/124/54
f 39/95/55 75/176/55 77/179/55 43/107/55
f 36/89/56 74/175/56 76/177/56 40/97/56
f 40/98/57 76/178/57 77/180/57 42/104/57
f 32/81/58 72/173/58 74/175/58 36/89/58
f 35/87/59 73/174/59 75/176/59 39/95/59
f 1/2/60 60/155/60 72/173/60 32/81/60
f 14/34/61 64/159/61 71/171/61 31/79/61
f 29/73/62 70/170/62 73/174/62 35/87/62
f 28/71/63 70/170/63 71/172/63 30/76/63
f 85/196/64 86/198/64 69/168/64 27/68/64
f 82/189/65 87/200/65 68/165/65 25/65/65
f 27/69/66 69/169/66 68/166/66 24/62/66
f 11/29/67 62/157/67 67/164/67 22/56/67
f 18/43/68 66/162/68 65/160/68 20/51/68
f 7/21/69 55/147/69 63/158/69 12/31/69
f 22/56/70 67/164/70 65/161/70 17/42/70
f 9/24/71 61/156/71 62/157/71 11/29/71
f 19/48/72 66/162/72 87/200/72 82/189/72
f 12/30/73 18/44/73 20/52/73 21/54/73 16/39/73
f 66/163/74 18/47/74 84/194/74 87/201/74
f 23/57/75 19/49/75 82/190/75 83/191/75
f 49/125/76 81/188/76 96/216/76 95/214/76
f 97/217/77 103/227/77 94/212/77 51/130/77
f 99/221/78 104/228/78 95/215/78 48/122/78
f 81/188/79 51/131/79 94/213/79 96/216/79
f 14/34/80 90/204/80 92/208/80 47/117/80
f 9/24/81 91/206/81 93/210/81 44/108/81
f 3/8/82 88/202/82 91/207/82 9/25/82
f 5/16/83 89/203/83 90/205/83 14/35/83
f 44/109/84 93/211/84 104/228/84 99/221/84
f 47/118/85 92/209/85 103/227/85 97/217/85
f 45/112/86 79/184/86 102/226/86 98/219/86
f 46/115/87 78/182/87 101/225/87 100/223/87
f 92/209/88 46/116/88 100/224/88 103/227/88
f 93/211/89 45/113/89 98/220/89 104/228/89
f 78/182/90 44/110/90 99/222/90 101/225/90
f 79/184/91 47/119/91 97/218/91 102/226/91
f 59/152/92 4/11/92 52/133/92 53/138/92 54/141/92 108/235/92
f 136/298/93 110/241/93 109/238/93 135/296/93
f 121/271/94 120/269/94 114/253/94 117/261/94
f 139/304/95 111/244/95 110/242/95 136/297/95
f 135/295/96 109/239/96 112/247/96 144/314/96
f 144/313/97 112/248/97 111/245/97 139/303/97
f 111/246/98 112/249/98 109/240/98 110/243/98
f 117/262/99 114/254/99 116/259/99 115/256/99 113/250/99
f 124/277/100 121/270/100 117/263/100 113/251/100
f 120/268/101 129/284/101 116/260/101 114/255/101
f 130/286/102 124/276/102 113/252/102 115/257/102
f 129/284/103 130/285/103 115/258/103 116/260/103
f 57/150/104 56/148/104 132/289/104 127/282/104
f 127/282/105 132/289/105 131/287/105 128/283/105
f 128/283/106 131/287/106 130/285/106 129/284/106
f 56/149/107 2/4/107 126/280/107 132/290/107
f 132/290/108 126/280/108 125/278/108 131/288/108
f 131/288/109 125/278/109 124/276/109 130/286/109
f 54/142/110 57/150/110 127/282/110 118/264/110
f 118/264/111 127/282/111 128/283/111 119/266/111
f 119/266/112 128/283/112 129/284/112 120/268/112
f 2/5/113 108/237/113 123/274/113 126/281/113
f 126/281/114 123/274/114 122/272/114 125/279/114
f 125/279/115 122/272/115 121/270/115 124/277/115
f 108/236/116 54/143/116 118/265/116 123/275/116
f 123/275/117 118/265/117 119/267/117 122/273/117
f 122/273/118 119/267/118 120/269/118 121/271/118
f 54/144/119 142/309/119 141/307/119 53/139/119
f 142/309/120 143/311/120 140/305/120 141/307/120
f 143/311/121 144/313/121 139/303/121 140/305/121
f 4/12/122 133/291/122 142/310/122 54/145/122
f 133/291/123 134/293/123 143/312/123 142/310/123
f 134/293/124 135/295/124 144/314/124 143/312/124
f 53/140/125 141/308/125 138/301/125 52/134/125
f 141/308/126 140/306/126 137/299/126 138/301/126
f 140/306/127 139/304/127 136/297/127 137/299/127
f 52/135/128 138/302/128 133/292/128 4/13/128
f 138/302/129 137/300/129 134/294/129 133/292/129
f 137/300/130 136/298/130 135/296/130 134/294/130
f 105/230/131 1/3/131 88/202/131 59/153/131 108/237/131 2/5/131
f 86/199/132 85/195/132 83/192/132
f 83/192/133 85/195/133 18/45/133 23/58/133
f 63/158/134 15/37/134 23/59/134 18/46/134 12/31/134
f 84/194/135 18/47/135 85/196/135
l 52 106
