# Blender 3.3.1
# www.blender.org
mtllib monstruo_3_grande_caminar603.mtl
o monstruo_grande
v 0.307149 2.047168 0.167340
v 0.525527 1.208062 0.085706
v -0.734488 1.729509 0.163279
v -0.293373 1.133832 0.224030
v 0.473047 2.334313 -0.170770
v 0.510512 1.641519 -0.264897
v -0.866295 1.924724 -0.271623
v -0.754114 1.638798 -0.324607
v -0.382180 2.403493 0.408878
v 0.180665 2.320991 0.378638
v -0.516308 2.372767 0.510634
v -1.234003 1.969013 -0.124964
v -0.376745 2.549126 0.042548
v 0.168755 2.455745 0.116410
v -1.083250 1.848468 0.047841
v -0.540523 2.615477 0.058060
v -0.872646 2.285031 0.526464
v -1.531089 1.907993 0.135023
v -1.263044 1.973971 0.344720
v -1.054123 2.571876 0.229827
v -0.723939 2.651919 0.118915
v -0.593833 2.326305 0.490952
v -1.216528 1.868218 0.042097
v -1.819204 0.692329 0.893802
v -1.693912 0.678442 0.943595
v -1.669095 0.488768 0.756376
v -1.745570 0.497245 0.725984
v 0.331853 2.234543 0.355054
v 0.433215 2.430114 0.100137
v 0.293498 2.352571 0.370615
v 0.300543 2.482373 0.142861
v 0.546585 1.914337 0.140630
v 0.670834 2.013556 -0.026670
v 0.576171 1.990978 0.196682
v 0.660440 2.109191 0.048947
v 0.700726 1.688528 0.059095
v 0.786608 1.719180 -0.008196
v 0.770011 1.626197 0.108380
v 0.855367 1.669703 0.043201
v 0.686342 1.533261 0.050402
v 0.866868 1.619461 -0.081868
v 0.760193 1.385893 0.158444
v 1.025459 1.516382 -0.048644
v -0.221172 2.461853 0.431425
v -0.009988 2.440031 0.418433
v -0.220622 2.551437 0.179787
v -0.018180 2.530845 0.171376
v -0.165056 2.775395 0.575246
v 0.040254 2.709619 0.537390
v -0.176859 2.886339 0.320412
v 0.026960 2.821143 0.281422
v -0.500218 1.128797 0.011929
v -0.386805 1.141534 -0.202338
v -0.050494 1.260522 -0.335926
v -0.789379 1.759599 -0.063265
v 0.548897 1.229122 -0.151879
v 0.330250 1.226211 -0.278445
v -0.015288 1.513614 -0.340239
v -0.013832 1.150144 0.198571
v 0.363874 2.133485 0.052118
v -0.373914 2.455435 0.280348
v -0.542556 2.609601 0.333088
v -1.012562 1.909351 -0.076340
v 0.150501 2.445281 0.276103
v -0.902768 2.506555 0.463882
v -1.441783 2.073968 0.370978
v -0.694745 2.588412 0.325147
v -1.768535 0.686169 0.949054
v -1.684075 0.371194 0.648684
v 0.420493 2.340410 0.256975
v 0.296997 2.463417 0.277926
v 0.564304 1.953543 0.014053
v 0.660007 2.058825 0.153286
v 0.743319 1.708342 0.026024
v 0.812383 1.647041 0.075301
v 0.758759 1.586675 -0.031425
v 0.862043 1.471575 0.028347
v -0.221685 2.505907 0.304543
v -0.015718 2.486747 0.294238
v -0.202081 2.832306 0.450111
v 0.065231 2.764302 0.407816
v -1.576252 1.001272 0.865351
v -1.629793 0.821308 0.811259
v -1.791971 0.995671 0.783015
v -1.747722 0.834379 0.764392
v -1.683369 0.656056 0.726356
v -1.707197 0.982712 0.877416
v -0.090729 1.794195 0.481160
v 0.042234 2.142962 -0.243229
v -0.017837 2.524726 -0.009239
v -0.058535 2.303884 0.558588
v -0.121659 2.539832 0.173881
v -0.111265 2.448138 0.424175
v -0.077109 2.869956 0.262104
v -0.060708 2.725855 0.594430
v -0.064433 2.848851 0.451227
v 0.017551 2.686353 0.201203
v 0.029529 2.562780 0.493803
v -0.206259 2.611614 0.526199
v -0.220573 2.734901 0.230767
v -0.229615 2.674757 0.380392
v 0.039050 2.624673 0.346452
v -0.103062 2.718553 0.195344
v -0.086254 2.577187 0.530129
v 0.365209 1.748438 -0.033607
v -0.601558 1.459906 0.196045
v 0.491993 1.866849 -0.270101
v 0.177025 1.164336 0.198340
v -0.188220 0.007317 -0.028572
v -0.331878 0.013481 0.094637
v -0.359263 0.012381 -0.155134
v -0.224188 0.007308 -0.170643
v 0.376945 0.109807 -0.188671
v 0.304973 0.121257 -0.265462
v 0.387044 0.116896 -0.226327
v 0.356020 0.120132 -0.253185
v 0.317760 0.106858 -0.179986
v 0.109066 0.886948 -0.104479
v 0.177242 0.712784 -0.086490
v 0.234137 0.423837 -0.155605
v 0.271155 0.353172 0.007893
v 0.239057 0.567148 0.149477
v 0.229257 0.821060 0.264137
v 0.392787 0.368010 -0.015131
v 0.444426 0.598006 0.116772
v 0.511003 0.910567 0.205487
v 0.362673 0.917730 -0.085546
v 0.357111 0.709426 -0.059408
v 0.341237 0.420262 -0.137372
v 0.408942 0.402363 -0.088498
v 0.471572 0.684465 0.020197
v 0.531419 0.939452 0.020871
v -0.172996 0.872495 0.327427
v -0.141865 0.578552 0.264232
v -0.133736 0.336561 0.227192
v -0.418685 0.322774 0.217069
v -0.433603 0.598840 0.214103
v -0.460084 0.855931 0.202770
v -0.454775 0.369836 -0.047063
v -0.466843 0.645101 -0.050560
v -0.473338 0.862129 -0.074114
v -0.076765 0.826095 -0.099254
v -0.123657 0.630906 -0.095339
v -0.163941 0.419288 -0.078531
vn -0.0933 0.5067 -0.8570
vn -0.0496 0.0268 -0.9984
vn 0.4940 -0.1867 -0.8492
vn -0.2497 -0.2536 0.9345
vn 0.9237 0.0809 0.3746
vn 0.5681 0.8081 0.1560
vn 0.0643 0.9156 -0.3969
vn 0.6508 -0.1923 0.7345
vn -0.1298 0.9360 0.3271
vn -0.1610 0.4859 -0.8591
vn -0.1064 -0.4443 0.8896
vn -0.3654 -0.8969 -0.2491
vn -0.2458 -0.0503 0.9680
vn 0.3279 -0.8186 0.4716
vn 0.9497 -0.2195 0.2232
vn -0.0026 -0.6785 0.7346
vn 0.0668 0.9881 0.1387
vn 0.0248 -0.6918 0.7216
vn -0.6872 0.3023 0.6606
vn 0.9344 0.0159 -0.3559
vn -0.8642 -0.0230 -0.5026
vn 0.5881 0.7467 0.3107
vn 0.5624 0.1091 0.8196
vn -0.1876 -0.5500 0.8138
vn -0.1021 0.6286 0.7710
vn -0.5849 -0.5229 0.6200
vn -0.3885 -0.4761 -0.7889
vn 0.8327 0.5269 -0.1704
vn -0.2140 -0.6385 0.7392
vn 0.6019 0.7586 -0.2494
vn 0.4988 0.0369 0.8660
vn 0.8053 0.3324 -0.4909
vn -0.3421 -0.2382 -0.9090
vn -0.2039 -0.5807 -0.7881
vn -0.5267 0.2530 -0.8115
vn -0.6510 0.1183 0.7499
vn 0.7226 0.0744 0.6872
vn 0.9754 -0.0129 -0.2202
vn 0.3714 0.5984 0.7099
vn 0.0700 0.9954 -0.0655
vn -0.3532 0.8792 0.3197
vn 0.3438 0.9183 0.1965
vn 0.0550 0.9714 0.2311
vn -0.9590 0.1084 0.2618
vn 0.3259 -0.3593 0.8745
vn -0.2818 0.4907 -0.8245
vn -0.6875 -0.6062 -0.3999
vn -0.8742 -0.4338 0.2179
vn 0.0933 0.0842 -0.9921
vn -0.9715 0.2358 -0.0228
vn 0.0676 0.8334 0.5485
vn 0.4211 0.7549 0.5027
vn -0.3288 0.8811 0.3399
vn 0.9870 -0.1492 0.0601
vn 0.4793 -0.0495 0.8762
vn -0.7453 0.1522 -0.6491
vn -0.3157 -0.6531 -0.6883
vn -0.7561 -0.4671 -0.4583
vn 0.8488 0.3037 0.4327
vn -0.5465 -0.6625 -0.5122
vn -0.1667 0.9823 0.0857
vn 0.7867 0.5266 0.3221
vn 0.6468 0.3302 0.6875
vn -0.4178 0.1657 -0.8933
vn 0.0717 0.2150 0.9740
vn -0.6388 -0.6183 0.4579
vn -0.2482 0.5054 0.8264
vn -0.7324 0.6378 0.2384
vn -0.3619 -0.8683 -0.3394
vn 0.1933 0.4613 0.8659
vn 0.5414 0.6272 0.5599
vn 0.2128 0.3868 0.8973
vn -0.4451 0.5304 -0.7216
vn -0.8763 0.3917 0.2803
vn 0.9569 -0.2357 0.1699
vn 0.5198 0.6967 0.4943
vn 0.2486 0.4180 -0.8738
vn -0.2063 -0.2944 0.9331
vn 0.5015 0.8553 0.1303
vn 0.2721 0.9617 -0.0321
vn -0.1350 0.5332 0.8351
vn -0.4359 -0.1024 0.8942
vn 0.0675 0.7409 -0.6682
vn -0.1077 -0.5707 0.8141
vn 0.0414 0.1450 -0.9886
vn 0.9505 -0.2929 -0.1039
vn -0.9992 -0.0080 -0.0399
vn -0.1585 0.2015 -0.9666
vn 0.0924 -0.5974 0.7966
vn -0.9967 -0.0205 0.0792
vn 0.9529 -0.2432 -0.1811
vn 0.1377 -0.9803 -0.1415
vn 0.2309 -0.4872 0.8422
vn -0.9598 -0.2611 0.1028
vn -0.9520 -0.2920 0.0915
vn 0.9841 -0.0774 -0.1597
vn -0.1314 0.2440 -0.9608
vn -0.0360 -0.9993 0.0086
vn 0.0255 -0.9854 -0.1682
vn 0.1962 -0.5631 0.8028
vn 0.1867 0.3676 -0.9110
vn 0.9719 -0.1640 0.1686
vn 0.6198 0.3055 -0.7228
vn 0.4814 -0.4484 -0.7531
vn 0.5439 -0.1224 -0.8302
vn 0.5946 0.1747 -0.7848
vn 0.9947 -0.0030 0.1028
vn 0.9712 -0.2275 0.0710
vn 0.9662 -0.2483 0.0697
vn 0.1005 -0.5051 -0.8572
vn 0.1111 -0.0959 -0.9892
vn 0.1568 0.2539 -0.9544
vn 0.1953 0.2834 0.9389
vn 0.2554 -0.3493 0.9015
vn 0.2136 -0.5192 0.8276
vn -0.9324 -0.1368 0.3345
vn -0.9525 -0.2208 0.2095
vn -0.9678 -0.2214 0.1196
vn -0.1439 -0.4323 -0.8902
vn -0.0978 -0.0566 -0.9936
vn -0.1174 -0.0346 -0.9925
vn 0.8994 0.2840 0.3322
vn 0.9884 -0.0492 0.1435
vn 0.9971 -0.0693 -0.0320
vn -0.9790 -0.0338 -0.2010
vn -0.9948 -0.0634 0.0793
vn -0.9915 -0.0471 0.1217
vn -0.5505 0.2698 0.7901
vn -0.2877 -0.1195 0.9502
vn -0.1044 -0.0699 0.9921
vn 0.5773 -0.0528 0.8148
vn 0.3802 0.3221 -0.8670
vn -0.1526 -0.5121 -0.8452
vn -0.1840 -0.8517 -0.4906
vn -0.8168 -0.1601 -0.5542
vt 0.882279 0.260085
vt 0.436089 0.649131
vt 0.117664 0.305524
vt 0.860974 0.338762
vt 0.079561 0.383885
vt 0.278417 0.728674
vt 0.111517 0.716819
vt 0.301243 0.337859
vt 0.232943 0.387386
vt 0.111517 0.662267
vt 0.671871 0.687525
vt 0.175114 0.511099
vt 0.930991 0.712692
vt 0.796001 0.259488
vt 0.522181 0.649131
vt 0.719621 0.316178
vt 0.801110 0.310020
vt 0.698705 0.366293
vt 0.510656 0.337024
vt 0.023033 0.717149
vt 0.367094 0.730187
vt 0.507246 0.358198
vt 0.018976 0.695717
vt 0.103380 0.570561
vt 0.268725 0.266033
vt 0.143950 0.273348
vt 0.098384 0.631539
vt 0.301351 0.259488
vt 0.128079 0.559933
vt 0.480438 0.333338
vt 0.348619 0.714075
vt 0.604958 0.268707
vt 0.031105 0.562973
vt 0.043818 0.625810
vt 0.721993 0.282954
vt 0.329365 0.336360
vt 0.302724 0.713315
vt 0.030374 0.549675
vt 0.582817 0.260846
vt 0.875347 0.642471
vt 0.380514 0.272320
vt 0.124895 0.517524
vt 0.813390 0.578569
vt 0.436089 0.332372
vt 0.956124 0.588845
vt 0.367094 0.692599
vt 0.367094 0.522797
vt 0.871643 0.594841
vt 0.398138 0.324445
vt 0.043891 0.509019
vt 0.796001 0.641153
vt 0.491075 0.268473
vt 0.032114 0.534706
vt 0.552485 0.259488
vt 0.331566 0.259909
vt 0.129819 0.544964
vt 0.339759 0.337186
vt 0.913298 0.588845
vt 0.317584 0.707220
vt 0.845734 0.463378
vt 0.311567 0.646434
vt 0.944558 0.353645
vt 0.398138 0.462439
vt 0.920230 0.354337
vt 0.870057 0.463781
vt 0.929709 0.374247
vt 0.357807 0.478584
vt 0.347994 0.663056
vt 0.944558 0.373825
vt 0.097076 0.285727
vt 0.229765 0.651022
vt 0.758050 0.297859
vt 0.168317 0.651042
vt 0.119329 0.272208
vt 0.094178 0.643292
vt 0.222768 0.636959
vt 0.746872 0.283208
vt 0.174541 0.636975
vt 0.045175 0.638147
vt 0.080672 0.327471
vt 0.442544 0.673801
vt 0.734592 0.339187
vt 0.484453 0.673801
vt 0.070725 0.319456
vt 0.218298 0.685110
vt 0.751374 0.331694
vt 0.180611 0.684911
vt 0.062412 0.356092
vt 0.455575 0.702696
vt 0.724658 0.367821
vt 0.476314 0.702696
vt 0.043357 0.357400
vt 0.210236 0.723455
vt 0.742364 0.370210
vt 0.189444 0.723462
vt 0.050281 0.367705
vt 0.444942 0.715336
vt 0.810526 0.722486
vt 0.728448 0.380153
vt 0.853695 0.722486
vt 0.487920 0.715336
vt 0.018975 0.371756
vt 0.232852 0.738567
vt 0.796001 0.739289
vt 0.758050 0.386241
vt 0.861207 0.739289
vt 0.167770 0.738589
vt 0.100634 0.583041
vt 0.712300 0.698974
vt 0.802197 0.701507
vt 0.098640 0.600731
vt 0.972705 0.287497
vt 0.747907 0.696578
vt 0.052045 0.577939
vt 0.849895 0.701507
vt 0.710445 0.675017
vt 0.050052 0.595630
vt 0.746553 0.677603
vt 0.924885 0.287497
vt 0.797725 0.671259
vt 0.981025 0.313792
vt 0.715147 0.730011
vt 0.752543 0.724602
vt 0.973919 0.259495
vt 0.967002 0.332143
vt 0.934252 0.306472
vt 0.715328 0.644023
vt 0.847669 0.671259
vt 0.923848 0.259495
vt 0.753088 0.649631
vt 0.920230 0.324823
vt 0.068284 0.665533
vt 0.630362 0.705721
vt 0.712055 0.621316
vt 0.966165 0.712391
vt 0.519769 0.388732
vt 0.031375 0.663704
vt 0.592215 0.695479
vt 0.581836 0.620019
vt 0.750017 0.621843
vt 0.569690 0.667298
vt 0.581066 0.387596
vt 0.531739 0.516092
vt 0.642835 0.625048
vt 0.273616 0.509019
vt 0.070982 0.710642
vt 0.316851 0.732164
vt 0.684917 0.393810
vt 0.816625 0.338063
vt 0.644803 0.392946
vt 0.602800 0.367236
vt 0.671871 0.661666
vt 0.181146 0.386242
vt 0.855113 0.259897
vt 0.463196 0.649131
vt 0.077903 0.567886
vt 0.078993 0.554271
vt 0.322237 0.720993
vt 0.070972 0.628379
vt 0.834014 0.651825
vt 0.084160 0.512738
vt 0.838315 0.596273
vt 0.320679 0.509019
vt 0.080733 0.539302
vt 0.857365 0.464048
vt 0.931678 0.351118
vt 0.335174 0.488977
vt 0.367094 0.673623
vt 0.939667 0.384854
vt 0.199177 0.651021
vt 0.069465 0.641494
vt 0.198664 0.632807
vt 0.464209 0.672968
vt 0.199604 0.684998
vt 0.465945 0.702696
vt 0.199840 0.723459
vt 0.466714 0.715004
vt 0.832520 0.720483
vt 0.200177 0.738589
vt 0.829423 0.735282
vt 0.076340 0.580490
vt 0.826046 0.701507
vt 0.074346 0.598181
vt 0.948795 0.287497
vt 0.823088 0.670800
vt 0.959731 0.307426
vt 0.948976 0.259488
vt 0.941524 0.331189
vt 0.875347 0.491894
vt 0.391834 0.432095
vt 0.377694 0.448634
vt 0.915590 0.478791
vt 0.834644 0.488373
vt 0.326937 0.619279
vt 0.938593 0.478810
vt 0.335216 0.632947
vt 0.358601 0.463790
vt 0.348787 0.648138
vt 0.927106 0.463378
vt 0.854274 0.489560
vt 0.315804 0.619182
vt 0.212520 0.321385
vt 0.644070 0.318501
vt 0.018976 0.592450
vt 0.663817 0.276029
vt 0.129819 0.597828
vt 0.224108 0.269832
vt 0.051049 0.586785
vt 0.728499 0.676310
vt 0.099637 0.591886
vt 0.730103 0.697776
vt 0.734390 0.646904
vt 0.920230 0.314550
vt 0.981025 0.324065
vt 0.732426 0.727384
vt 0.950683 0.319044
vt 0.753088 0.663662
vt 0.920230 0.273492
vt 0.977552 0.273492
vt 0.752543 0.710647
vt 0.709822 0.714522
vt 0.796001 0.686127
vt 0.853178 0.686127
vt 0.709822 0.659561
vt 0.824792 0.685890
vt 0.948939 0.273488
vt 0.731549 0.661651
vt 0.730449 0.712624
vt 0.878850 0.297575
vt 0.096711 0.342677
vt 0.285581 0.357771
vt 0.108549 0.696221
vt 0.804979 0.293594
vt 0.708839 0.350023
vt 0.668288 0.644023
vt 0.436089 0.526409
vt 0.145034 0.385321
vt 0.919159 0.607821
vt 0.247387 0.613831
vt 0.970304 0.416607
vt 0.947808 0.608020
vt 0.704660 0.516092
vt 0.970304 0.403829
vt 0.750017 0.516884
vt 0.618892 0.516092
vt 0.920230 0.404231
vt 0.273616 0.612878
vt 0.642836 0.516847
vt 0.938584 0.415207
vt 0.924281 0.443436
vt 0.075400 0.489812
vt 0.855524 0.444402
vt 0.531739 0.629156
vt 0.934913 0.435583
vt 0.576828 0.496673
vt 0.931440 0.443424
vt 0.848383 0.444289
vt 0.592622 0.497116
vt 0.934913 0.440184
vt 0.586164 0.496977
vt 0.517161 0.630156
vt 0.920230 0.438606
vt 0.085942 0.490043
vt 0.585376 0.420489
vt 0.510472 0.551446
vt 0.582586 0.444044
vt 0.504260 0.576063
vt 0.581388 0.469636
vt 0.508131 0.602400
vt 0.103684 0.463024
vt 0.477645 0.604263
vt 0.118194 0.440373
vt 0.454885 0.581958
vt 0.129418 0.415411
vt 0.438452 0.557360
vt 0.876897 0.417052
vt 0.081901 0.462161
vt 0.882279 0.393921
vt 0.081653 0.438865
vt 0.880271 0.363315
vt 0.079604 0.408162
vt 0.633117 0.418943
vt 0.615530 0.444447
vt 0.600997 0.469910
vt 0.614559 0.469949
vt 0.862035 0.416811
vt 0.638313 0.444473
vt 0.857648 0.390640
vt 0.666106 0.417503
vt 0.844696 0.362700
vt 0.167770 0.536691
vt 0.914144 0.688660
vt 0.182151 0.561697
vt 0.913298 0.663084
vt 0.189855 0.582503
vt 0.915415 0.641729
vt 0.680787 0.549268
vt 0.966165 0.641681
vt 0.684678 0.573659
vt 0.963812 0.665813
vt 0.684995 0.596421
vt 0.964308 0.688427
vt 0.584794 0.548886
vt 0.729850 0.550060
vt 0.578610 0.572959
vt 0.734888 0.574452
vt 0.569690 0.595426
vt 0.736445 0.597214
vt 0.642060 0.590920
vt 0.247172 0.543053
vt 0.641052 0.570535
vt 0.248998 0.562413
vt 0.635978 0.552556
vt 0.245738 0.579271
s 0
usemtl Material
f 89/203/1 7/19/1 13/32/1 90/205/1
f 8/22/2 7/19/2 89/203/2 58/151/2 54/142/2 53/136/2
f 6/18/3 56/148/3 57/150/3
f 3/8/4 106/231/4 4/9/4 59/153/4 88/202/4
f 6/17/5 107/233/5 5/14/5 60/154/5 1/1/5 105/229/5 2/4/5 56/149/5
f 61/156/6 13/33/6 16/38/6 62/157/6
f 5/16/7 14/35/7 31/77/7 29/72/7
f 88/202/8 1/3/8 10/26/8 91/207/8
f 67/164/9 21/53/9 20/50/9 65/161/9
f 13/32/10 7/19/10 12/30/10 16/39/10
f 3/8/11 9/25/11 11/28/11 15/36/11
f 55/147/12 3/6/12 15/37/12 63/158/12
f 66/162/13 19/48/13 17/40/13 65/160/13
f 23/57/14 22/55/14 17/41/14 19/49/14
f 83/191/15 82/190/15 25/63/15 26/67/15
f 15/36/16 11/28/16 22/55/16 23/57/16
f 62/157/17 16/38/17 21/53/17 67/164/17
f 69/169/18 26/66/18 25/64/18 68/166/18
f 87/200/19 84/193/19 24/60/19 68/165/19
f 86/197/20 83/191/20 26/67/20 69/167/20
f 84/194/21 85/196/21 27/68/21 24/61/21
f 70/170/22 29/73/22 31/78/22 71/172/22
f 70/170/23 28/71/23 34/85/23 73/174/23
f 10/26/24 1/3/24 28/70/24 30/74/24
f 64/159/25 10/27/25 30/75/25 71/171/25
f 34/84/26 32/80/26 36/88/26 38/92/26
f 60/155/27 5/15/27 33/83/27 72/173/27
f 5/16/28 29/72/28 35/86/28 33/82/28
f 28/70/29 1/3/29 32/80/29 34/84/29
f 37/90/30 39/94/30 43/105/30 41/99/30
f 73/174/31 34/85/31 38/93/31 75/176/31
f 33/82/32 35/86/32 39/94/32 37/90/32
f 72/173/33 33/83/33 37/91/33 74/175/33
f 76/178/34 41/100/34 43/106/34 77/180/34
f 74/175/35 37/91/35 41/101/35 76/177/35
f 38/92/36 36/88/36 40/96/36 42/102/36
f 75/176/37 38/93/37 42/103/37 77/179/37
f 102/226/38 97/218/38 51/129/38 81/187/38
f 91/206/39 10/27/39 45/111/39 93/210/39
f 90/204/40 13/33/40 46/114/40 92/208/40
f 61/156/41 9/24/41 44/108/41 78/181/41
f 64/159/42 14/34/42 47/117/42 79/183/42
f 96/216/43 94/213/43 50/126/43 80/186/43
f 101/225/44 99/222/44 48/120/44 80/185/44
f 104/228/45 98/220/45 49/123/45 95/215/45
f 103/227/46 100/224/46 50/127/46 94/212/46
f 8/23/47 53/137/47 52/132/47
f 8/23/48 52/132/48 4/10/48 106/232/48 3/7/48 55/146/48 7/20/48
f 54/142/49 58/151/49 89/203/49 5/16/49 107/234/49 6/18/49 57/150/49
f 100/223/50 101/225/50 80/185/50 50/128/50
f 95/214/51 96/216/51 80/186/51 48/121/51
f 10/27/52 64/159/52 79/183/52 45/111/52
f 13/33/53 61/156/53 78/181/53 46/114/53
f 98/219/54 102/226/54 81/187/54 49/124/54
f 39/95/55 75/176/55 77/179/55 43/107/55
f 36/89/56 74/175/56 76/177/56 40/97/56
f 40/98/57 76/178/57 77/180/57 42/104/57
f 32/81/58 72/173/58 74/175/58 36/89/58
f 35/87/59 73/174/59 75/176/59 39/95/59
f 1/2/60 60/155/60 72/173/60 32/81/60
f 14/34/61 64/159/61 71/171/61 31/79/61
f 29/73/62 70/170/62 73/174/62 35/87/62
f 28/71/63 70/170/63 71/172/63 30/76/63
f 85/196/64 86/198/64 69/168/64 27/68/64
f 82/189/65 87/200/65 68/165/65 25/65/65
f 27/69/66 69/169/66 68/166/66 24/62/66
f 11/29/67 62/157/67 67/164/67 22/56/67
f 18/43/68 66/162/68 65/160/68 20/51/68
f 7/21/69 55/147/69 63/158/69 12/31/69
f 22/56/70 67/164/70 65/161/70 17/42/70
f 9/24/71 61/156/71 62/157/71 11/29/71
f 19/48/72 66/162/72 87/200/72 82/189/72
f 12/30/73 18/44/73 20/52/73 21/54/73 16/39/73
f 66/163/74 18/47/74 84/194/74 87/201/74
f 23/57/75 19/49/75 82/190/75 83/191/75
f 49/125/76 81/188/76 96/216/76 95/214/76
f 97/217/77 103/227/77 94/212/77 51/130/77
f 99/221/78 104/228/78 95/215/78 48/122/78
f 81/188/79 51/131/79 94/213/79 96/216/79
f 14/34/80 90/204/80 92/208/80 47/117/80
f 9/24/81 91/206/81 93/210/81 44/108/81
f 3/8/82 88/202/82 91/207/82 9/25/82
f 5/16/83 89/203/83 90/205/83 14/35/83
f 44/109/84 93/211/84 104/228/84 99/221/84
f 47/118/85 92/209/85 103/227/85 97/217/85
f 45/112/86 79/184/86 102/226/86 98/219/86
f 46/115/87 78/182/87 101/225/87 100/223/87
f 92/209/88 46/116/88 100/224/88 103/227/88
f 93/211/89 45/113/89 98/220/89 104/228/89
f 78/182/90 44/110/90 99/222/90 101/225/90
f 79/184/91 47/119/91 97/218/91 102/226/91
f 59/152/92 4/11/92 52/133/92 53/138/92 54/141/92 108/235/92
f 136/298/93 110/241/93 109/238/93 135/296/93
f 121/271/94 120/269/94 114/253/94 117/261/94
f 139/304/95 111/244/95 110/242/95 136/297/95
f 135/295/96 109/239/96 112/247/96 144/314/96
f 144/313/97 112/248/97 111/245/97 139/303/97
f 111/246/98 112/249/98 109/240/98 110/243/98
f 117/262/99 114/254/99 116/259/99 115/256/99 113/250/99
f 124/277/100 121/270/100 117/263/100 113/251/100
f 120/268/101 129/284/101 116/260/101 114/255/101
f 130/286/102 124/276/102 113/252/102 115/257/102
f 129/284/103 130/285/103 115/258/103 116/260/103
f 57/150/104 56/148/104 132/289/104 127/282/104
f 127/282/105 132/289/105 131/287/105 128/283/105
f 128/283/106 131/287/106 130/285/106 129/284/106
f 56/149/107 2/4/107 126/280/107 132/290/107
f 132/290/108 126/280/108 125/278/108 131/288/108
f 131/288/109 125/278/109 124/276/109 130/286/109
f 54/142/110 57/150/110 127/282/110 118/264/110
f 118/264/111 127/282/111 128/283/111 119/266/111
f 119/266/112 128/283/112 129/284/112 120/268/112
f 2/5/113 108/237/113 123/274/113 126/281/113
f 126/281/114 123/274/114 122/272/114 125/279/114
f 125/279/115 122/272/115 121/270/115 124/277/115
f 108/236/116 54/143/116 118/265/116 123/275/116
f 123/275/117 118/265/117 119/267/117 122/273/117
f 122/273/118 119/267/118 120/269/118 121/271/118
f 54/144/119 142/309/119 141/307/119 53/139/119
f 142/309/120 143/311/120 140/305/120 141/307/120
f 143/311/121 144/313/121 139/303/121 140/305/121
f 4/12/122 133/291/122 142/310/122 54/145/122
f 133/291/123 134/293/123 143/312/123 142/310/123
f 134/293/124 135/295/124 144/314/124 143/312/124
f 53/140/125 141/308/125 138/301/125 52/134/125
f 141/308/126 140/306/126 137/299/126 138/301/126
f 140/306/127 139/304/127 136/297/127 137/299/127
f 52/135/128 138/302/128 133/292/128 4/13/128
f 138/302/129 137/300/129 134/294/129 133/292/129
f 137/300/130 136/298/130 135/296/130 134/294/130
f 105/230/131 1/3/131 88/202/131 59/153/131 108/237/131 2/5/131
f 86/199/132 85/195/132 83/192/132
f 83/192/133 85/195/133 18/45/133 23/58/133
f 63/158/134 15/37/134 23/59/134 18/46/134 12/31/134
f 84/194/135 18/47/135 85/196/135
l 52 106
