# Blender 3.3.1
# www.blender.org
mtllib monstruo_3_grande_caminar658.mtl
o monstruo_grande
v 0.509980 1.966376 0.340752
v 0.519642 1.120764 0.094947
v -0.628151 1.815995 0.175629
v -0.302372 1.184350 0.226166
v 0.786328 2.245871 0.071244
v 0.616898 1.554454 -0.244367
v -0.724966 2.021266 -0.251646
v -0.665046 1.735611 -0.320508
v -0.222599 2.382512 0.490783
v 0.324614 2.256938 0.507666
v -0.359399 2.352652 0.581400
v -1.076807 2.054059 -0.108322
v -0.190859 2.563575 0.141219
v 0.368783 2.395931 0.245411
v -0.929373 1.928204 0.052046
v -0.353002 2.641190 0.159575
v -0.707281 2.270221 0.576361
v -1.371910 1.955647 0.149772
v -1.102012 1.998399 0.354431
v -0.879424 2.596394 0.317896
v -0.541839 2.681947 0.223073
v -0.430647 2.310808 0.551101
v -1.058735 1.935053 0.046289
v -1.657512 0.689280 0.811779
v -1.533648 0.672611 0.864221
v -1.497442 0.506336 0.657618
v -1.573045 0.516511 0.625608
v 0.448400 2.163716 0.509158
v 0.634685 2.354802 0.307977
v 0.430657 2.279546 0.517966
v 0.496341 2.409282 0.303049
v 0.726509 1.871753 0.442130
v 0.927310 1.921762 0.356221
v 0.737799 1.939563 0.486721
v 0.877123 2.046244 0.385604
v 0.863852 1.665438 0.608815
v 0.973694 1.678806 0.576998
v 0.894882 1.681848 0.708812
v 1.002812 1.700258 0.672588
v 0.851942 1.551015 0.714964
v 1.076509 1.589041 0.643167
v 0.853273 1.550270 0.912048
v 1.191496 1.604473 0.798269
v -0.058773 2.426965 0.523309
v 0.149841 2.393593 0.518530
v -0.039273 2.537075 0.281042
v 0.166330 2.498984 0.277945
v -0.003119 2.727655 0.688339
v 0.202260 2.658546 0.657431
v 0.002138 2.854423 0.440835
v 0.206844 2.785619 0.408937
v -0.508215 1.199317 0.019673
v -0.395983 1.187694 -0.194590
v -0.043795 1.277754 -0.332301
v -0.680500 1.859980 -0.051471
v 0.541048 1.138370 -0.143861
v 0.323969 1.159739 -0.268488
v 0.039253 1.526076 -0.319257
v -0.027943 1.146098 0.198772
v 0.611880 2.045500 0.253886
v -0.204724 2.446081 0.368551
v -0.363641 2.606922 0.430536
v -0.867799 2.007662 -0.062990
v 0.326277 2.385083 0.404169
v -0.730319 2.499046 0.545722
v -1.277997 2.100352 0.393721
v -0.516230 2.597221 0.415508
v -1.608593 0.677960 0.867787
v -1.505616 0.401616 0.536736
v 0.561553 2.272030 0.451566
v 0.466323 2.390022 0.433882
v 0.811969 1.863538 0.355368
v 0.830999 2.004055 0.484295
v 0.918039 1.673755 0.591054
v 0.948909 1.690506 0.690637
v 0.958156 1.561403 0.656624
v 1.010895 1.562263 0.813806
v -0.049908 2.481573 0.400610
v 0.155672 2.447912 0.397426
v -0.031766 2.793191 0.565242
v 0.236011 2.720187 0.533155
v -1.422099 1.004888 0.827693
v -1.468940 0.831167 0.751492
v -1.634609 1.004588 0.738258
v -1.585525 0.846856 0.702131
v -1.515169 0.675599 0.646380
v -1.552833 0.982091 0.832753
v -0.002787 1.751768 0.515795
v 0.236165 2.132244 -0.178254
v 0.176382 2.508114 0.098677
v 0.061647 2.260400 0.643826
v 0.058623 2.518244 0.277576
v 0.050142 2.408816 0.519278
v 0.105123 2.838782 0.387226
v 0.098746 2.674093 0.709908
v 0.105981 2.805730 0.574748
v 0.200128 2.655212 0.320058
v 0.191005 2.514075 0.604221
v -0.045206 2.568552 0.627110
v -0.038456 2.711238 0.340964
v -0.058510 2.641514 0.484746
v 0.210554 2.584548 0.461904
v 0.080314 2.692833 0.310447
v 0.073244 2.530370 0.635133
v 0.592755 1.630725 0.000835
v -0.556192 1.540959 0.198968
v 0.686500 1.764896 -0.210343
v 0.164174 1.130624 0.204586
v -0.293283 0.250153 -0.384743
v -0.431297 0.181923 -0.274137
v -0.469455 0.330232 -0.473856
v -0.335484 0.335621 -0.496968
v 0.253393 -0.019250 0.055513
v 0.182502 -0.032880 -0.022210
v 0.264162 -0.024166 0.017699
v 0.233560 -0.029775 -0.009301
v 0.193897 -0.019900 0.063723
v 0.060505 0.843927 -0.096573
v 0.110042 0.602993 -0.029669
v 0.128071 0.299978 -0.009737
v 0.152425 0.271458 0.168296
v 0.147510 0.517720 0.246992
v 0.170603 0.792113 0.290457
v 0.275317 0.263995 0.148636
v 0.355819 0.510811 0.215835
v 0.461955 0.835938 0.225692
v 0.315191 0.843284 -0.072042
v 0.287313 0.583679 0.006781
v 0.233488 0.287886 0.014434
v 0.297265 0.275192 0.069789
v 0.396043 0.565099 0.096010
v 0.485565 0.849607 0.036101
v -0.214673 0.908410 0.344769
v -0.225825 0.600247 0.186496
v -0.243403 0.391083 0.028229
v -0.525981 0.420881 0.007170
v -0.509042 0.675911 0.143680
v -0.501805 0.928544 0.225556
v -0.534558 0.593136 -0.204191
v -0.516510 0.825226 -0.062611
v -0.514896 0.934561 -0.037895
v -0.124809 0.856862 -0.059881
v -0.174881 0.782759 -0.097456
v -0.238207 0.611098 -0.202088
vn -0.0060 0.5913 -0.8064
vn -0.0150 0.0837 -0.9964
vn 0.4556 -0.2866 -0.8428
vn -0.3215 -0.2539 0.9122
vn 0.9250 -0.2650 0.2723
vn 0.6168 0.7440 0.2569
vn 0.2244 0.9063 -0.3581
vn 0.4194 -0.2578 0.8704
vn -0.1192 0.8920 0.4360
vn -0.1208 0.5980 -0.7923
vn -0.1639 -0.5414 0.8246
vn -0.3730 -0.8695 -0.3238
vn -0.2520 -0.1765 0.9515
vn 0.3070 -0.8831 0.3548
vn 0.9472 -0.2221 0.2314
vn 0.0362 -0.8102 0.5850
vn 0.1220 0.9623 0.2432
vn 0.0189 -0.7695 0.6384
vn -0.7150 0.2078 0.6676
vn 0.9451 0.0779 -0.3173
vn -0.8463 0.0161 -0.5324
vn 0.4980 0.7348 0.4604
vn 0.1366 0.1755 0.9750
vn -0.4050 -0.5258 0.7480
vn -0.1930 0.6249 0.7565
vn -0.8886 -0.2325 0.3955
vn 0.0271 -0.5951 -0.8032
vn 0.8158 0.5650 0.1232
vn -0.4795 -0.6031 0.6375
vn 0.6730 0.5705 -0.4708
vn -0.1549 0.5440 0.8247
vn 0.9736 0.2123 -0.0837
vn 0.1962 -0.6781 -0.7083
vn 0.2208 -0.9730 -0.0678
vn -0.0261 -0.5587 -0.8289
vn -0.9454 0.3143 0.0864
vn 0.2516 0.7648 0.5931
vn 0.9870 -0.0237 -0.1590
vn 0.3241 0.5255 0.7867
vn 0.1609 0.9864 0.0336
vn -0.2975 0.8722 0.3883
vn 0.4066 0.8722 0.2718
vn 0.0664 0.9532 0.2951
vn -0.9697 0.1170 0.2143
vn 0.2667 -0.4194 0.8678
vn -0.2231 0.5445 -0.8086
vn -0.7891 -0.4766 -0.3875
vn -0.9359 -0.2791 0.2150
vn 0.1688 0.1915 -0.9669
vn -0.9631 0.2606 -0.0665
vn 0.0581 0.7958 0.6028
vn 0.4116 0.7006 0.5829
vn -0.2591 0.8715 0.4163
vn 0.9784 -0.1763 0.1082
vn -0.0577 0.7124 0.6994
vn -0.2843 -0.6010 -0.7470
vn 0.0777 -0.9969 -0.0115
vn -0.3868 -0.7633 -0.5175
vn 0.4213 0.6379 0.6447
vn -0.2383 -0.7817 -0.5764
vn -0.0938 0.9924 0.0797
vn 0.5506 0.6000 0.5804
vn 0.4494 0.2497 0.8577
vn -0.3917 0.2578 -0.8833
vn 0.0329 0.1031 0.9941
vn -0.6371 -0.6812 0.3606
vn -0.2714 0.4150 0.8684
vn -0.7183 0.6241 0.3074
vn -0.3726 -0.8618 -0.3443
vn 0.1960 0.3383 0.9204
vn 0.5623 0.5249 0.6390
vn 0.2188 0.3344 0.9167
vn -0.4285 0.6307 -0.6470
vn -0.8695 0.3816 0.3136
vn 0.9569 -0.2511 0.1460
vn 0.5087 0.6499 0.5646
vn 0.3074 0.4632 -0.8312
vn -0.2647 -0.3453 0.9004
vn 0.5152 0.8303 0.2127
vn 0.3721 0.9257 0.0680
vn -0.1380 0.5132 0.8471
vn -0.4938 -0.1380 0.8585
vn 0.3027 0.7638 -0.5701
vn -0.1666 -0.6181 0.7683
vn 0.0940 0.2051 -0.9742
vn 0.9460 -0.3185 -0.0597
vn -0.9942 0.0222 -0.1053
vn -0.1054 0.2620 -0.9593
vn 0.0184 -0.6427 0.7659
vn -0.9998 0.0046 0.0190
vn 0.9616 -0.2492 -0.1152
vn 0.0009 -0.9895 -0.1443
vn 0.1808 -0.8578 0.4811
vn -0.9773 -0.1731 0.1222
vn -0.9702 -0.2317 -0.0704
vn 0.9840 -0.0664 -0.1655
vn -0.0728 0.7238 -0.6861
vn -0.0700 -0.8068 -0.5866
vn 0.0313 -0.9885 0.1478
vn 0.1315 -0.3185 0.9387
vn 0.2340 0.0736 -0.9695
vn 0.9534 -0.1546 0.2591
vn 0.6588 0.0569 -0.7501
vn 0.4285 -0.5096 -0.7462
vn 0.5386 -0.3154 -0.7813
vn 0.6215 -0.1375 -0.7713
vn 0.9852 -0.1440 0.0930
vn 0.9470 -0.2932 0.1310
vn 0.9238 -0.3394 0.1772
vn 0.0286 -0.4962 -0.8677
vn 0.1221 -0.2726 -0.9544
vn 0.2033 -0.0572 -0.9775
vn 0.2334 0.3020 0.9243
vn 0.1961 -0.1287 0.9721
vn 0.1320 -0.2998 0.9448
vn -0.9455 -0.0000 0.3255
vn -0.9771 -0.0406 0.2089
vn -0.9911 -0.0544 0.1212
vn -0.1754 -0.4912 -0.8532
vn -0.0198 0.3265 -0.9450
vn -0.0236 0.5240 -0.8514
vn 0.9185 0.2002 0.3410
vn 0.9607 -0.2319 0.1523
vn 0.9823 -0.1835 -0.0364
vn -0.9766 0.0689 -0.2035
vn -0.9988 0.0105 0.0472
vn -0.9973 0.0346 0.0649
vn -0.4907 0.3807 0.7838
vn -0.3107 -0.3655 0.8774
vn -0.1905 -0.5161 0.8351
vn 0.4616 -0.2940 0.8370
vn 0.4006 0.4283 -0.8100
vn -0.1490 -0.4565 -0.8772
vn -0.1445 -0.7961 -0.5877
vn -0.8156 -0.1244 -0.5651
vt 0.882279 0.260085
vt 0.436089 0.649131
vt 0.117664 0.305524
vt 0.860974 0.338762
vt 0.079561 0.383885
vt 0.278417 0.728674
vt 0.111517 0.716819
vt 0.301243 0.337859
vt 0.232943 0.387386
vt 0.111517 0.662267
vt 0.671871 0.687525
vt 0.175114 0.511099
vt 0.930991 0.712692
vt 0.796001 0.259488
vt 0.522181 0.649131
vt 0.719621 0.316178
vt 0.801110 0.310020
vt 0.698705 0.366293
vt 0.510656 0.337024
vt 0.023033 0.717149
vt 0.367094 0.730187
vt 0.507246 0.358198
vt 0.018976 0.695717
vt 0.103380 0.570561
vt 0.268725 0.266033
vt 0.143950 0.273348
vt 0.098384 0.631539
vt 0.301351 0.259488
vt 0.128079 0.559933
vt 0.480438 0.333338
vt 0.348619 0.714075
vt 0.604958 0.268707
vt 0.031105 0.562973
vt 0.043818 0.625810
vt 0.721993 0.282954
vt 0.329365 0.336360
vt 0.302724 0.713315
vt 0.030374 0.549675
vt 0.582817 0.260846
vt 0.875347 0.642471
vt 0.380514 0.272320
vt 0.124895 0.517524
vt 0.813390 0.578569
vt 0.436089 0.332372
vt 0.956124 0.588845
vt 0.367094 0.692599
vt 0.367094 0.522797
vt 0.871643 0.594841
vt 0.398138 0.324445
vt 0.043891 0.509019
vt 0.796001 0.641153
vt 0.491075 0.268473
vt 0.032114 0.534706
vt 0.552485 0.259488
vt 0.331566 0.259909
vt 0.129819 0.544964
vt 0.339759 0.337186
vt 0.913298 0.588845
vt 0.317584 0.707220
vt 0.845734 0.463378
vt 0.311567 0.646434
vt 0.944558 0.353645
vt 0.398138 0.462439
vt 0.920230 0.354337
vt 0.870057 0.463781
vt 0.929709 0.374247
vt 0.357807 0.478584
vt 0.347994 0.663056
vt 0.944558 0.373825
vt 0.097076 0.285727
vt 0.229765 0.651022
vt 0.758050 0.297859
vt 0.168317 0.651042
vt 0.119329 0.272208
vt 0.094178 0.643292
vt 0.222768 0.636959
vt 0.746872 0.283208
vt 0.174541 0.636975
vt 0.045175 0.638147
vt 0.080672 0.327471
vt 0.442544 0.673801
vt 0.734592 0.339187
vt 0.484453 0.673801
vt 0.070725 0.319456
vt 0.218298 0.685110
vt 0.751374 0.331694
vt 0.180611 0.684911
vt 0.062412 0.356092
vt 0.455575 0.702696
vt 0.724658 0.367821
vt 0.476314 0.702696
vt 0.043357 0.357400
vt 0.210236 0.723455
vt 0.742364 0.370210
vt 0.189444 0.723462
vt 0.050281 0.367705
vt 0.444942 0.715336
vt 0.810526 0.722486
vt 0.728448 0.380153
vt 0.853695 0.722486
vt 0.487920 0.715336
vt 0.018975 0.371756
vt 0.232852 0.738567
vt 0.796001 0.739289
vt 0.758050 0.386241
vt 0.861207 0.739289
vt 0.167770 0.738589
vt 0.100634 0.583041
vt 0.712300 0.698974
vt 0.802197 0.701507
vt 0.098640 0.600731
vt 0.972705 0.287497
vt 0.747907 0.696578
vt 0.052045 0.577939
vt 0.849895 0.701507
vt 0.710445 0.675017
vt 0.050052 0.595630
vt 0.746553 0.677603
vt 0.924885 0.287497
vt 0.797725 0.671259
vt 0.981025 0.313792
vt 0.715147 0.730011
vt 0.752543 0.724602
vt 0.973919 0.259495
vt 0.967002 0.332143
vt 0.934252 0.306472
vt 0.715328 0.644023
vt 0.847669 0.671259
vt 0.923848 0.259495
vt 0.753088 0.649631
vt 0.920230 0.324823
vt 0.068284 0.665533
vt 0.630362 0.705721
vt 0.712055 0.621316
vt 0.966165 0.712391
vt 0.519769 0.388732
vt 0.031375 0.663704
vt 0.592215 0.695479
vt 0.581836 0.620019
vt 0.750017 0.621843
vt 0.569690 0.667298
vt 0.581066 0.387596
vt 0.531739 0.516092
vt 0.642835 0.625048
vt 0.273616 0.509019
vt 0.070982 0.710642
vt 0.316851 0.732164
vt 0.684917 0.393810
vt 0.816625 0.338063
vt 0.644803 0.392946
vt 0.602800 0.367236
vt 0.671871 0.661666
vt 0.181146 0.386242
vt 0.855113 0.259897
vt 0.463196 0.649131
vt 0.077903 0.567886
vt 0.078993 0.554271
vt 0.322237 0.720993
vt 0.070972 0.628379
vt 0.834014 0.651825
vt 0.084160 0.512738
vt 0.838315 0.596273
vt 0.320679 0.509019
vt 0.080733 0.539302
vt 0.857365 0.464048
vt 0.931678 0.351118
vt 0.335174 0.488977
vt 0.367094 0.673623
vt 0.939667 0.384854
vt 0.199177 0.651021
vt 0.069465 0.641494
vt 0.198664 0.632807
vt 0.464209 0.672968
vt 0.199604 0.684998
vt 0.465945 0.702696
vt 0.199840 0.723459
vt 0.466714 0.715004
vt 0.832520 0.720483
vt 0.200177 0.738589
vt 0.829423 0.735282
vt 0.076340 0.580490
vt 0.826046 0.701507
vt 0.074346 0.598181
vt 0.948795 0.287497
vt 0.823088 0.670800
vt 0.959731 0.307426
vt 0.948976 0.259488
vt 0.941524 0.331189
vt 0.875347 0.491894
vt 0.391834 0.432095
vt 0.377694 0.448634
vt 0.915590 0.478791
vt 0.834644 0.488373
vt 0.326937 0.619279
vt 0.938593 0.478810
vt 0.335216 0.632947
vt 0.358601 0.463790
vt 0.348787 0.648138
vt 0.927106 0.463378
vt 0.854274 0.489560
vt 0.315804 0.619182
vt 0.212520 0.321385
vt 0.644070 0.318501
vt 0.018976 0.592450
vt 0.663817 0.276029
vt 0.129819 0.597828
vt 0.224108 0.269832
vt 0.051049 0.586785
vt 0.728499 0.676310
vt 0.099637 0.591886
vt 0.730103 0.697776
vt 0.734390 0.646904
vt 0.920230 0.314550
vt 0.981025 0.324065
vt 0.732426 0.727384
vt 0.950683 0.319044
vt 0.753088 0.663662
vt 0.920230 0.273492
vt 0.977552 0.273492
vt 0.752543 0.710647
vt 0.709822 0.714522
vt 0.796001 0.686127
vt 0.853178 0.686127
vt 0.709822 0.659561
vt 0.824792 0.685890
vt 0.948939 0.273488
vt 0.731549 0.661651
vt 0.730449 0.712624
vt 0.878850 0.297575
vt 0.096711 0.342677
vt 0.285581 0.357771
vt 0.108549 0.696221
vt 0.804979 0.293594
vt 0.708839 0.350023
vt 0.668288 0.644023
vt 0.436089 0.526409
vt 0.145034 0.385321
vt 0.919159 0.607821
vt 0.247387 0.613831
vt 0.970304 0.416607
vt 0.947808 0.608020
vt 0.704660 0.516092
vt 0.970304 0.403829
vt 0.750017 0.516884
vt 0.618892 0.516092
vt 0.920230 0.404231
vt 0.273616 0.612878
vt 0.642836 0.516847
vt 0.938584 0.415207
vt 0.924281 0.443436
vt 0.075400 0.489812
vt 0.855524 0.444402
vt 0.531739 0.629156
vt 0.934913 0.435583
vt 0.576828 0.496673
vt 0.931440 0.443424
vt 0.848383 0.444289
vt 0.592622 0.497116
vt 0.934913 0.440184
vt 0.586164 0.496977
vt 0.517161 0.630156
vt 0.920230 0.438606
vt 0.085942 0.490043
vt 0.585376 0.420489
vt 0.510472 0.551446
vt 0.582586 0.444044
vt 0.504260 0.576063
vt 0.581388 0.469636
vt 0.508131 0.602400
vt 0.103684 0.463024
vt 0.477645 0.604263
vt 0.118194 0.440373
vt 0.454885 0.581958
vt 0.129418 0.415411
vt 0.438452 0.557360
vt 0.876897 0.417052
vt 0.081901 0.462161
vt 0.882279 0.393921
vt 0.081653 0.438865
vt 0.880271 0.363315
vt 0.079604 0.408162
vt 0.633117 0.418943
vt 0.615530 0.444447
vt 0.600997 0.469910
vt 0.614559 0.469949
vt 0.862035 0.416811
vt 0.638313 0.444473
vt 0.857648 0.390640
vt 0.666106 0.417503
vt 0.844696 0.362700
vt 0.167770 0.536691
vt 0.914144 0.688660
vt 0.182151 0.561697
vt 0.913298 0.663084
vt 0.189855 0.582503
vt 0.915415 0.641729
vt 0.680787 0.549268
vt 0.966165 0.641681
vt 0.684678 0.573659
vt 0.963812 0.665813
vt 0.684995 0.596421
vt 0.964308 0.688427
vt 0.584794 0.548886
vt 0.729850 0.550060
vt 0.578610 0.572959
vt 0.734888 0.574452
vt 0.569690 0.595426
vt 0.736445 0.597214
vt 0.642060 0.590920
vt 0.247172 0.543053
vt 0.641052 0.570535
vt 0.248998 0.562413
vt 0.635978 0.552556
vt 0.245738 0.579271
s 0
usemtl Material
f 89/203/1 7/19/1 13/32/1 90/205/1
f 8/22/2 7/19/2 89/203/2 58/151/2 54/142/2 53/136/2
f 6/18/3 56/148/3 57/150/3
f 3/8/4 106/231/4 4/9/4 59/153/4 88/202/4
f 6/17/5 107/233/5 5/14/5 60/154/5 1/1/5 105/229/5 2/4/5 56/149/5
f 61/156/6 13/33/6 16/38/6 62/157/6
f 5/16/7 14/35/7 31/77/7 29/72/7
f 88/202/8 1/3/8 10/26/8 91/207/8
f 67/164/9 21/53/9 20/50/9 65/161/9
f 13/32/10 7/19/10 12/30/10 16/39/10
f 3/8/11 9/25/11 11/28/11 15/36/11
f 55/147/12 3/6/12 15/37/12 63/158/12
f 66/162/13 19/48/13 17/40/13 65/160/13
f 23/57/14 22/55/14 17/41/14 19/49/14
f 83/191/15 82/190/15 25/63/15 26/67/15
f 15/36/16 11/28/16 22/55/16 23/57/16
f 62/157/17 16/38/17 21/53/17 67/164/17
f 69/169/18 26/66/18 25/64/18 68/166/18
f 87/200/19 84/193/19 24/60/19 68/165/19
f 86/197/20 83/191/20 26/67/20 69/167/20
f 84/194/21 85/196/21 27/68/21 24/61/21
f 70/170/22 29/73/22 31/78/22 71/172/22
f 70/170/23 28/71/23 34/85/23 73/174/23
f 10/26/24 1/3/24 28/70/24 30/74/24
f 64/159/25 10/27/25 30/75/25 71/171/25
f 34/84/26 32/80/26 36/88/26 38/92/26
f 60/155/27 5/15/27 33/83/27 72/173/27
f 5/16/28 29/72/28 35/86/28 33/82/28
f 28/70/29 1/3/29 32/80/29 34/84/29
f 37/90/30 39/94/30 43/105/30 41/99/30
f 73/174/31 34/85/31 38/93/31 75/176/31
f 33/82/32 35/86/32 39/94/32 37/90/32
f 72/173/33 33/83/33 37/91/33 74/175/33
f 76/178/34 41/100/34 43/106/34 77/180/34
f 74/175/35 37/91/35 41/101/35 76/177/35
f 38/92/36 36/88/36 40/96/36 42/102/36
f 75/176/37 38/93/37 42/103/37 77/179/37
f 102/226/38 97/218/38 51/129/38 81/187/38
f 91/206/39 10/27/39 45/111/39 93/210/39
f 90/204/40 13/33/40 46/114/40 92/208/40
f 61/156/41 9/24/41 44/108/41 78/181/41
f 64/159/42 14/34/42 47/117/42 79/183/42
f 96/216/43 94/213/43 50/126/43 80/186/43
f 101/225/44 99/222/44 48/120/44 80/185/44
f 104/228/45 98/220/45 49/123/45 95/215/45
f 103/227/46 100/224/46 50/127/46 94/212/46
f 8/23/47 53/137/47 52/132/47
f 8/23/48 52/132/48 4/10/48 106/232/48 3/7/48 55/146/48 7/20/48
f 54/142/49 58/151/49 89/203/49 5/16/49 107/234/49 6/18/49 57/150/49
f 100/223/50 101/225/50 80/185/50 50/128/50
f 95/214/51 96/216/51 80/186/51 48/121/51
f 10/27/52 64/159/52 79/183/52 45/111/52
f 13/33/53 61/156/53 78/181/53 46/114/53
f 98/219/54 102/226/54 81/187/54 49/124/54
f 39/95/55 75/176/55 77/179/55 43/107/55
f 36/89/56 74/175/56 76/177/56 40/97/56
f 40/98/57 76/178/57 77/180/57 42/104/57
f 32/81/58 72/173/58 74/175/58 36/89/58
f 35/87/59 73/174/59 75/176/59 39/95/59
f 1/2/60 60/155/60 72/173/60 32/81/60
f 14/34/61 64/159/61 71/171/61 31/79/61
f 29/73/62 70/170/62 73/174/62 35/87/62
f 28/71/63 70/170/63 71/172/63 30/76/63
f 85/196/64 86/198/64 69/168/64 27/68/64
f 82/189/65 87/200/65 68/165/65 25/65/65
f 27/69/66 69/169/66 68/166/66 24/62/66
f 11/29/67 62/157/67 67/164/67 22/56/67
f 18/43/68 66/162/68 65/160/68 20/51/68
f 7/21/69 55/147/69 63/158/69 12/31/69
f 22/56/70 67/164/70 65/161/70 17/42/70
f 9/24/71 61/156/71 62/157/71 11/29/71
f 19/48/72 66/162/72 87/200/72 82/189/72
f 12/30/73 18/44/73 20/52/73 21/54/73 16/39/73
f 66/163/74 18/47/74 84/194/74 87/201/74
f 23/57/75 19/49/75 82/190/75 83/191/75
f 49/125/76 81/188/76 96/216/76 95/214/76
f 97/217/77 103/227/77 94/212/77 51/130/77
f 99/221/78 104/228/78 95/215/78 48/122/78
f 81/188/79 51/131/79 94/213/79 96/216/79
f 14/34/80 90/204/80 92/208/80 47/117/80
f 9/24/81 91/206/81 93/210/81 44/108/81
f 3/8/82 88/202/82 91/207/82 9/25/82
f 5/16/83 89/203/83 90/205/83 14/35/83
f 44/109/84 93/211/84 104/228/84 99/221/84
f 47/118/85 92/209/85 103/227/85 97/217/85
f 45/112/86 79/184/86 102/226/86 98/219/86
f 46/115/87 78/182/87 101/225/87 100/223/87
f 92/209/88 46/116/88 100/224/88 103/227/88
f 93/211/89 45/113/89 98/220/89 104/228/89
f 78/182/90 44/110/90 99/222/90 101/225/90
f 79/184/91 47/119/91 97/218/91 102/226/91
f 59/152/92 4/11/92 52/133/92 53/138/92 54/141/92 108/235/92
f 136/298/93 110/241/93 109/238/93 135/296/93
f 121/271/94 120/269/94 114/253/94 117/261/94
f 139/304/95 111/244/95 110/242/95 136/297/95
f 135/295/96 109/239/96 112/247/96 144/314/96
f 144/313/97 112/248/97 111/245/97 139/303/97
f 111/246/98 112/249/98 109/240/98 110/243/98
f 117/262/99 114/254/99 116/259/99 115/256/99 113/250/99
f 124/277/100 121/270/100 117/263/100 113/251/100
f 120/268/101 129/284/101 116/260/101 114/255/101
f 130/286/102 124/276/102 113/252/102 115/257/102
f 129/284/103 130/285/103 115/258/103 116/260/103
f 57/150/104 56/148/104 132/289/104 127/282/104
f 127/282/105 132/289/105 131/287/105 128/283/105
f 128/283/106 131/287/106 130/285/106 129/284/106
f 56/149/107 2/4/107 126/280/107 132/290/107
f 132/290/108 126/280/108 125/278/108 131/288/108
f 131/288/109 125/278/109 124/276/109 130/286/109
f 54/142/110 57/150/110 127/282/110 118/264/110
f 118/264/111 127/282/111 128/283/111 119/266/111
f 119/266/112 128/283/112 129/284/112 120/268/112
f 2/5/113 108/237/113 123/274/113 126/281/113
f 126/281/114 123/274/114 122/272/114 125/279/114
f 125/279/115 122/272/115 121/270/115 124/277/115
f 108/236/116 54/143/116 118/265/116 123/275/116
f 123/275/117 118/265/117 119/267/117 122/273/117
f 122/273/118 119/267/118 120/269/118 121/271/118
f 54/144/119 142/309/119 141/307/119 53/139/119
f 142/309/120 143/311/120 140/305/120 141/307/120
f 143/311/121 144/313/121 139/303/121 140/305/121
f 4/12/122 133/291/122 142/310/122 54/145/122
f 133/291/123 134/293/123 143/312/123 142/310/123
f 134/293/124 135/295/124 144/314/124 143/312/124
f 53/140/125 141/308/125 138/301/125 52/134/125
f 141/308/126 140/306/126 137/299/126 138/301/126
f 140/306/127 139/304/127 136/297/127 137/299/127
f 52/135/128 138/302/128 133/292/128 4/13/128
f 138/302/129 137/300/129 134/294/129 133/292/129
f 137/300/130 136/298/130 135/296/130 134/294/130
f 105/230/131 1/3/131 88/202/131 59/153/131 108/237/131 2/5/131
f 86/199/132 85/195/132 83/192/132
f 83/192/133 85/195/133 18/45/133 23/58/133
f 63/158/134 15/37/134 23/59/134 18/46/134 12/31/134
f 84/194/135 18/47/135 85/196/135
l 52 106
