# Blender 3.3.1
# www.blender.org
mtllib monstruo_3_grande_caminar591.mtl
o monstruo_grande
v 0.313736 2.049742 0.158596
v 0.523268 1.183962 0.076103
v -0.726333 1.757681 0.108168
v -0.297216 1.165974 0.219873
v 0.550488 2.320689 -0.148874
v 0.536295 1.645988 -0.254561
v -0.828007 1.940196 -0.342455
v -0.730850 1.641133 -0.373338
v -0.372326 2.423343 0.356077
v 0.188145 2.328416 0.364454
v -0.512545 2.398048 0.450126
v -1.198440 1.993258 -0.218433
v -0.342306 2.558827 -0.012538
v 0.198827 2.458325 0.099271
v -1.060492 1.875829 -0.033569
v -0.505400 2.629079 -0.008494
v -0.869989 2.314988 0.446543
v -1.510514 1.939513 0.024959
v -1.254856 2.006956 0.248886
v -1.029437 2.598538 0.134556
v -0.691802 2.670903 0.041343
v -0.589105 2.351703 0.426449
v -1.192323 1.895426 -0.048009
v -1.857172 0.743442 0.791035
v -1.735667 0.730626 0.849708
v -1.698282 0.536788 0.668953
v -1.772445 0.544612 0.633140
v 0.321404 2.236696 0.349691
v 0.471328 2.422335 0.114981
v 0.298043 2.357082 0.363109
v 0.329821 2.481332 0.137201
v 0.534357 1.913570 0.176943
v 0.705878 1.971107 0.039343
v 0.567023 1.979863 0.231748
v 0.685214 2.084950 0.102107
v 0.667508 1.659564 0.190710
v 0.769448 1.672329 0.143153
v 0.716999 1.612490 0.271230
v 0.819233 1.636910 0.222781
v 0.645117 1.507391 0.218446
v 0.858772 1.554966 0.121985
v 0.677561 1.393982 0.376338
v 0.996283 1.465451 0.222758
v -0.210645 2.478120 0.388940
v 0.000260 2.455128 0.386906
v -0.195751 2.561954 0.135494
v 0.005553 2.538980 0.138048
v -0.155864 2.792754 0.531479
v 0.050148 2.725494 0.500707
v -0.159659 2.899706 0.274601
v 0.044897 2.832993 0.242548
v -0.502502 1.142760 0.012260
v -0.389291 1.134307 -0.202039
v -0.040172 1.254746 -0.338143
v -0.769814 1.780091 -0.122208
v 0.545323 1.242457 -0.153021
v 0.327414 1.260048 -0.278885
v 0.007245 1.507697 -0.347447
v -0.020876 1.143244 0.196905
v 0.395957 2.129189 0.052343
v -0.355383 2.471416 0.227006
v -0.523284 2.630558 0.265518
v -0.984381 1.932564 -0.153888
v 0.168470 2.451404 0.257676
v -0.892600 2.535666 0.378298
v -1.433385 2.109958 0.262398
v -0.675195 2.612149 0.249231
v -1.810473 0.738503 0.849797
v -1.705979 0.416833 0.563136
v 0.429365 2.335016 0.268159
v 0.313959 2.465604 0.270548
v 0.586451 1.928148 0.059478
v 0.662781 2.037102 0.205345
v 0.718492 1.670093 0.166435
v 0.767911 1.623906 0.246698
v 0.740000 1.537366 0.148505
v 0.815680 1.442350 0.261345
v -0.205020 2.518653 0.260754
v 0.000930 2.498631 0.261533
v -0.188927 2.847852 0.404438
v 0.079119 2.778057 0.371041
v -1.612226 1.051572 0.772627
v -1.662234 0.870461 0.718983
v -1.821724 1.044352 0.675745
v -1.776599 0.882524 0.663759
v -1.710110 0.703367 0.634281
v -1.743729 1.033339 0.775980
v -0.100417 1.813567 0.458298
v 0.094037 2.144385 -0.266485
v 0.018420 2.528160 -0.040857
v -0.061988 2.320113 0.527927
v -0.098334 2.548694 0.134766
v -0.099799 2.463092 0.387274
v -0.058295 2.881907 0.219328
v -0.052365 2.743067 0.554494
v -0.051293 2.863810 0.409342
v 0.037834 2.696596 0.164508
v 0.039555 2.578393 0.459178
v -0.196617 2.628509 0.483550
v -0.200472 2.746883 0.185363
v -0.215278 2.689308 0.335892
v 0.053981 2.637686 0.311192
v -0.082292 2.729231 0.154030
v -0.076834 2.593586 0.491747
v 0.389908 1.737846 -0.008171
v -0.605828 1.487384 0.158140
v 0.535274 1.872238 -0.256725
v 0.172639 1.126409 0.189669
v -0.193859 0.024265 0.043846
v -0.337764 0.031675 0.166790
v -0.364630 0.028510 -0.083268
v -0.229529 0.023199 -0.098469
v 0.393655 0.215515 -0.447169
v 0.324189 0.247227 -0.520528
v 0.404928 0.233347 -0.480720
v 0.374823 0.243598 -0.506863
v 0.334271 0.209071 -0.442310
v 0.100906 0.905660 -0.155524
v 0.178444 0.762046 -0.184567
v 0.241995 0.504949 -0.332282
v 0.276135 0.392403 -0.193496
v 0.237978 0.559165 0.000402
v 0.222214 0.771851 0.179930
v 0.398065 0.413734 -0.208419
v 0.443513 0.599183 -0.016489
v 0.504062 0.869906 0.144067
v 0.353843 0.933769 -0.137695
v 0.357834 0.752405 -0.155810
v 0.348689 0.497176 -0.312966
v 0.415469 0.466983 -0.269128
v 0.470972 0.707614 -0.083686
v 0.523516 0.932965 -0.030962
v -0.174065 0.917321 0.351944
v -0.145273 0.614745 0.311455
v -0.138837 0.369068 0.289017
v -0.423866 0.356062 0.279334
v -0.436890 0.633087 0.259818
v -0.461854 0.889649 0.231233
v -0.459119 0.388445 0.012358
v -0.469532 0.662380 -0.006284
v -0.476519 0.868981 -0.044124
v -0.079888 0.830498 -0.067921
v -0.126346 0.643580 -0.049404
v -0.167926 0.434314 -0.021427
vn -0.0348 0.4953 -0.8680
vn 0.0006 -0.0177 -0.9998
vn 0.4772 -0.2044 -0.8547
vn -0.3051 -0.2129 0.9282
vn 0.9001 0.0236 0.4349
vn 0.5760 0.7999 0.1686
vn 0.1426 0.9059 -0.3987
vn 0.6090 -0.2015 0.7671
vn -0.1333 0.9447 0.2997
vn -0.1011 0.4719 -0.8758
vn -0.1716 -0.4189 0.8917
vn -0.3684 -0.8989 -0.2371
vn -0.3019 -0.0264 0.9530
vn 0.2875 -0.8146 0.5037
vn 0.9315 -0.2148 0.2935
vn -0.0500 -0.6681 0.7424
vn 0.0802 0.9898 0.1179
vn -0.0267 -0.6755 0.7369
vn -0.7305 0.3173 0.6047
vn 0.9569 0.0075 -0.2904
vn -0.8273 -0.0338 -0.5607
vn 0.5730 0.7275 0.3773
vn 0.4237 0.0717 0.9030
vn -0.2848 -0.5411 0.7913
vn -0.1421 0.6445 0.7512
vn -0.7907 -0.3153 0.5248
vn -0.2751 -0.4703 -0.8386
vn 0.8841 0.4658 -0.0371
vn -0.3707 -0.6159 0.6951
vn 0.6989 0.6641 -0.2657
vn 0.2468 0.1793 0.9523
vn 0.9446 0.1646 -0.2838
vn -0.1288 -0.3903 -0.9116
vn -0.0329 -0.7724 -0.6343
vn -0.2841 0.0240 -0.9585
vn -0.8146 0.3113 0.4895
vn 0.5208 0.2547 0.8148
vn 0.9819 -0.0205 -0.1882
vn 0.3383 0.6006 0.7244
vn 0.0900 0.9926 -0.0809
vn -0.3515 0.8942 0.2772
vn 0.3481 0.9165 0.1969
vn 0.0532 0.9747 0.2169
vn -0.9658 0.1173 0.2313
vn 0.2986 -0.3478 0.8888
vn -0.2541 0.4790 -0.8403
vn -0.7156 -0.6020 -0.3543
vn -0.8961 -0.3899 0.2121
vn 0.1443 0.0756 -0.9866
vn -0.9692 0.2390 -0.0591
vn 0.0555 0.8416 0.5372
vn 0.4083 0.7573 0.5097
vn -0.3349 0.8933 0.2996
vn 0.9837 -0.1545 0.0915
vn 0.2287 0.1853 0.9557
vn -0.5370 -0.0274 -0.8431
vn -0.1695 -0.8125 -0.5578
vn -0.6670 -0.4798 -0.5700
vn 0.7465 0.3173 0.5849
vn -0.4984 -0.6509 -0.5727
vn -0.1429 0.9883 0.0541
vn 0.7570 0.4802 0.4432
vn 0.5929 0.2803 0.7549
vn -0.3545 0.1458 -0.9236
vn 0.0043 0.2367 0.9716
vn -0.6703 -0.6076 0.4261
vn -0.2894 0.5288 0.7979
vn -0.7344 0.6543 0.1803
vn -0.3589 -0.8720 -0.3329
vn 0.1512 0.4761 0.8663
vn 0.5213 0.6309 0.5746
vn 0.1601 0.4066 0.8995
vn -0.3943 0.5234 -0.7554
vn -0.8876 0.4071 0.2155
vn 0.9419 -0.2406 0.2345
vn 0.5085 0.7022 0.4984
vn 0.2786 0.4025 -0.8720
vn -0.2359 -0.2793 0.9308
vn 0.5015 0.8552 0.1312
vn 0.2867 0.9573 -0.0373
vn -0.1739 0.5531 0.8148
vn -0.4885 -0.0720 0.8696
vn 0.1486 0.7289 -0.6682
vn -0.1443 -0.5595 0.8162
vn 0.0838 0.1218 -0.9890
vn 0.9502 -0.3055 -0.0624
vn -0.9958 -0.0101 -0.0906
vn -0.1180 0.1881 -0.9750
vn 0.0614 -0.5806 0.8119
vn -0.9990 -0.0111 0.0431
vn 0.9612 -0.2430 -0.1303
vn 0.0700 -0.9927 -0.0980
vn 0.2335 -0.4499 0.8620
vn -0.9556 -0.2944 -0.0097
vn -0.9544 -0.2819 0.0987
vn 0.9844 -0.0866 -0.1531
vn -0.1314 0.2113 -0.9686
vn -0.0373 -0.9992 0.0167
vn 0.0621 -0.8945 -0.4427
vn 0.1845 -0.7640 0.6182
vn 0.2044 0.6134 -0.7628
vn 0.9699 -0.1910 0.1510
vn 0.6337 0.5067 -0.5845
vn 0.4733 -0.3341 -0.8151
vn 0.5420 0.0810 -0.8364
vn 0.6084 0.3959 -0.6879
vn 0.9951 -0.0378 0.0908
vn 0.9724 -0.2320 0.0241
vn 0.9679 -0.2501 0.0234
vn 0.1342 -0.4012 -0.9061
vn 0.0986 0.1671 -0.9810
vn 0.1724 0.5172 -0.8383
vn 0.2069 0.0942 0.9738
vn 0.2469 -0.5728 0.7817
vn 0.1999 -0.7255 0.6585
vn -0.9347 -0.1776 0.3078
vn -0.9405 -0.3174 0.1215
vn -0.9662 -0.2561 0.0301
vn -0.1273 -0.5062 -0.8530
vn -0.0994 -0.1313 -0.9863
vn -0.1162 -0.0880 -0.9893
vn 0.8964 0.3040 0.3226
vn 0.9883 -0.0422 0.1463
vn 0.9967 -0.0773 -0.0259
vn -0.9796 -0.0530 -0.1940
vn -0.9947 -0.0563 0.0860
vn -0.9919 -0.0337 0.1224
vn -0.5433 0.3550 0.7608
vn -0.2841 -0.0477 0.9576
vn -0.1058 -0.0095 0.9943
vn 0.5256 -0.0598 0.8486
vn 0.4402 0.3025 -0.8454
vn -0.1035 -0.5312 -0.8409
vn -0.1616 -0.8608 -0.4827
vn -0.7760 -0.1714 -0.6069
vt 0.882279 0.260085
vt 0.436089 0.649131
vt 0.117664 0.305524
vt 0.860974 0.338762
vt 0.079561 0.383885
vt 0.278417 0.728674
vt 0.111517 0.716819
vt 0.301243 0.337859
vt 0.232943 0.387386
vt 0.111517 0.662267
vt 0.671871 0.687525
vt 0.175114 0.511099
vt 0.930991 0.712692
vt 0.796001 0.259488
vt 0.522181 0.649131
vt 0.719621 0.316178
vt 0.801110 0.310020
vt 0.698705 0.366293
vt 0.510656 0.337024
vt 0.023033 0.717149
vt 0.367094 0.730187
vt 0.507246 0.358198
vt 0.018976 0.695717
vt 0.103380 0.570561
vt 0.268725 0.266033
vt 0.143950 0.273348
vt 0.098384 0.631539
vt 0.301351 0.259488
vt 0.128079 0.559933
vt 0.480438 0.333338
vt 0.348619 0.714075
vt 0.604958 0.268707
vt 0.031105 0.562973
vt 0.043818 0.625810
vt 0.721993 0.282954
vt 0.329365 0.336360
vt 0.302724 0.713315
vt 0.030374 0.549675
vt 0.582817 0.260846
vt 0.875347 0.642471
vt 0.380514 0.272320
vt 0.124895 0.517524
vt 0.813390 0.578569
vt 0.436089 0.332372
vt 0.956124 0.588845
vt 0.367094 0.692599
vt 0.367094 0.522797
vt 0.871643 0.594841
vt 0.398138 0.324445
vt 0.043891 0.509019
vt 0.796001 0.641153
vt 0.491075 0.268473
vt 0.032114 0.534706
vt 0.552485 0.259488
vt 0.331566 0.259909
vt 0.129819 0.544964
vt 0.339759 0.337186
vt 0.913298 0.588845
vt 0.317584 0.707220
vt 0.845734 0.463378
vt 0.311567 0.646434
vt 0.944558 0.353645
vt 0.398138 0.462439
vt 0.920230 0.354337
vt 0.870057 0.463781
vt 0.929709 0.374247
vt 0.357807 0.478584
vt 0.347994 0.663056
vt 0.944558 0.373825
vt 0.097076 0.285727
vt 0.229765 0.651022
vt 0.758050 0.297859
vt 0.168317 0.651042
vt 0.119329 0.272208
vt 0.094178 0.643292
vt 0.222768 0.636959
vt 0.746872 0.283208
vt 0.174541 0.636975
vt 0.045175 0.638147
vt 0.080672 0.327471
vt 0.442544 0.673801
vt 0.734592 0.339187
vt 0.484453 0.673801
vt 0.070725 0.319456
vt 0.218298 0.685110
vt 0.751374 0.331694
vt 0.180611 0.684911
vt 0.062412 0.356092
vt 0.455575 0.702696
vt 0.724658 0.367821
vt 0.476314 0.702696
vt 0.043357 0.357400
vt 0.210236 0.723455
vt 0.742364 0.370210
vt 0.189444 0.723462
vt 0.050281 0.367705
vt 0.444942 0.715336
vt 0.810526 0.722486
vt 0.728448 0.380153
vt 0.853695 0.722486
vt 0.487920 0.715336
vt 0.018975 0.371756
vt 0.232852 0.738567
vt 0.796001 0.739289
vt 0.758050 0.386241
vt 0.861207 0.739289
vt 0.167770 0.738589
vt 0.100634 0.583041
vt 0.712300 0.698974
vt 0.802197 0.701507
vt 0.098640 0.600731
vt 0.972705 0.287497
vt 0.747907 0.696578
vt 0.052045 0.577939
vt 0.849895 0.701507
vt 0.710445 0.675017
vt 0.050052 0.595630
vt 0.746553 0.677603
vt 0.924885 0.287497
vt 0.797725 0.671259
vt 0.981025 0.313792
vt 0.715147 0.730011
vt 0.752543 0.724602
vt 0.973919 0.259495
vt 0.967002 0.332143
vt 0.934252 0.306472
vt 0.715328 0.644023
vt 0.847669 0.671259
vt 0.923848 0.259495
vt 0.753088 0.649631
vt 0.920230 0.324823
vt 0.068284 0.665533
vt 0.630362 0.705721
vt 0.712055 0.621316
vt 0.966165 0.712391
vt 0.519769 0.388732
vt 0.031375 0.663704
vt 0.592215 0.695479
vt 0.581836 0.620019
vt 0.750017 0.621843
vt 0.569690 0.667298
vt 0.581066 0.387596
vt 0.531739 0.516092
vt 0.642835 0.625048
vt 0.273616 0.509019
vt 0.070982 0.710642
vt 0.316851 0.732164
vt 0.684917 0.393810
vt 0.816625 0.338063
vt 0.644803 0.392946
vt 0.602800 0.367236
vt 0.671871 0.661666
vt 0.181146 0.386242
vt 0.855113 0.259897
vt 0.463196 0.649131
vt 0.077903 0.567886
vt 0.078993 0.554271
vt 0.322237 0.720993
vt 0.070972 0.628379
vt 0.834014 0.651825
vt 0.084160 0.512738
vt 0.838315 0.596273
vt 0.320679 0.509019
vt 0.080733 0.539302
vt 0.857365 0.464048
vt 0.931678 0.351118
vt 0.335174 0.488977
vt 0.367094 0.673623
vt 0.939667 0.384854
vt 0.199177 0.651021
vt 0.069465 0.641494
vt 0.198664 0.632807
vt 0.464209 0.672968
vt 0.199604 0.684998
vt 0.465945 0.702696
vt 0.199840 0.723459
vt 0.466714 0.715004
vt 0.832520 0.720483
vt 0.200177 0.738589
vt 0.829423 0.735282
vt 0.076340 0.580490
vt 0.826046 0.701507
vt 0.074346 0.598181
vt 0.948795 0.287497
vt 0.823088 0.670800
vt 0.959731 0.307426
vt 0.948976 0.259488
vt 0.941524 0.331189
vt 0.875347 0.491894
vt 0.391834 0.432095
vt 0.377694 0.448634
vt 0.915590 0.478791
vt 0.834644 0.488373
vt 0.326937 0.619279
vt 0.938593 0.478810
vt 0.335216 0.632947
vt 0.358601 0.463790
vt 0.348787 0.648138
vt 0.927106 0.463378
vt 0.854274 0.489560
vt 0.315804 0.619182
vt 0.212520 0.321385
vt 0.644070 0.318501
vt 0.018976 0.592450
vt 0.663817 0.276029
vt 0.129819 0.597828
vt 0.224108 0.269832
vt 0.051049 0.586785
vt 0.728499 0.676310
vt 0.099637 0.591886
vt 0.730103 0.697776
vt 0.734390 0.646904
vt 0.920230 0.314550
vt 0.981025 0.324065
vt 0.732426 0.727384
vt 0.950683 0.319044
vt 0.753088 0.663662
vt 0.920230 0.273492
vt 0.977552 0.273492
vt 0.752543 0.710647
vt 0.709822 0.714522
vt 0.796001 0.686127
vt 0.853178 0.686127
vt 0.709822 0.659561
vt 0.824792 0.685890
vt 0.948939 0.273488
vt 0.731549 0.661651
vt 0.730449 0.712624
vt 0.878850 0.297575
vt 0.096711 0.342677
vt 0.285581 0.357771
vt 0.108549 0.696221
vt 0.804979 0.293594
vt 0.708839 0.350023
vt 0.668288 0.644023
vt 0.436089 0.526409
vt 0.145034 0.385321
vt 0.919159 0.607821
vt 0.247387 0.613831
vt 0.970304 0.416607
vt 0.947808 0.608020
vt 0.704660 0.516092
vt 0.970304 0.403829
vt 0.750017 0.516884
vt 0.618892 0.516092
vt 0.920230 0.404231
vt 0.273616 0.612878
vt 0.642836 0.516847
vt 0.938584 0.415207
vt 0.924281 0.443436
vt 0.075400 0.489812
vt 0.855524 0.444402
vt 0.531739 0.629156
vt 0.934913 0.435583
vt 0.576828 0.496673
vt 0.931440 0.443424
vt 0.848383 0.444289
vt 0.592622 0.497116
vt 0.934913 0.440184
vt 0.586164 0.496977
vt 0.517161 0.630156
vt 0.920230 0.438606
vt 0.085942 0.490043
vt 0.585376 0.420489
vt 0.510472 0.551446
vt 0.582586 0.444044
vt 0.504260 0.576063
vt 0.581388 0.469636
vt 0.508131 0.602400
vt 0.103684 0.463024
vt 0.477645 0.604263
vt 0.118194 0.440373
vt 0.454885 0.581958
vt 0.129418 0.415411
vt 0.438452 0.557360
vt 0.876897 0.417052
vt 0.081901 0.462161
vt 0.882279 0.393921
vt 0.081653 0.438865
vt 0.880271 0.363315
vt 0.079604 0.408162
vt 0.633117 0.418943
vt 0.615530 0.444447
vt 0.600997 0.469910
vt 0.614559 0.469949
vt 0.862035 0.416811
vt 0.638313 0.444473
vt 0.857648 0.390640
vt 0.666106 0.417503
vt 0.844696 0.362700
vt 0.167770 0.536691
vt 0.914144 0.688660
vt 0.182151 0.561697
vt 0.913298 0.663084
vt 0.189855 0.582503
vt 0.915415 0.641729
vt 0.680787 0.549268
vt 0.966165 0.641681
vt 0.684678 0.573659
vt 0.963812 0.665813
vt 0.684995 0.596421
vt 0.964308 0.688427
vt 0.584794 0.548886
vt 0.729850 0.550060
vt 0.578610 0.572959
vt 0.734888 0.574452
vt 0.569690 0.595426
vt 0.736445 0.597214
vt 0.642060 0.590920
vt 0.247172 0.543053
vt 0.641052 0.570535
vt 0.248998 0.562413
vt 0.635978 0.552556
vt 0.245738 0.579271
s 0
usemtl Material
f 89/203/1 7/19/1 13/32/1 90/205/1
f 8/22/2 7/19/2 89/203/2 58/151/2 54/142/2 53/136/2
f 6/18/3 56/148/3 57/150/3
f 3/8/4 106/231/4 4/9/4 59/153/4 88/202/4
f 6/17/5 107/233/5 5/14/5 60/154/5 1/1/5 105/229/5 2/4/5 56/149/5
f 61/156/6 13/33/6 16/38/6 62/157/6
f 5/16/7 14/35/7 31/77/7 29/72/7
f 88/202/8 1/3/8 10/26/8 91/207/8
f 67/164/9 21/53/9 20/50/9 65/161/9
f 13/32/10 7/19/10 12/30/10 16/39/10
f 3/8/11 9/25/11 11/28/11 15/36/11
f 55/147/12 3/6/12 15/37/12 63/158/12
f 66/162/13 19/48/13 17/40/13 65/160/13
f 23/57/14 22/55/14 17/41/14 19/49/14
f 83/191/15 82/190/15 25/63/15 26/67/15
f 15/36/16 11/28/16 22/55/16 23/57/16
f 62/157/17 16/38/17 21/53/17 67/164/17
f 69/169/18 26/66/18 25/64/18 68/166/18
f 87/200/19 84/193/19 24/60/19 68/165/19
f 86/197/20 83/191/20 26/67/20 69/167/20
f 84/194/21 85/196/21 27/68/21 24/61/21
f 70/170/22 29/73/22 31/78/22 71/172/22
f 70/170/23 28/71/23 34/85/23 73/174/23
f 10/26/24 1/3/24 28/70/24 30/74/24
f 64/159/25 10/27/25 30/75/25 71/171/25
f 34/84/26 32/80/26 36/88/26 38/92/26
f 60/155/27 5/15/27 33/83/27 72/173/27
f 5/16/28 29/72/28 35/86/28 33/82/28
f 28/70/29 1/3/29 32/80/29 34/84/29
f 37/90/30 39/94/30 43/105/30 41/99/30
f 73/174/31 34/85/31 38/93/31 75/176/31
f 33/82/32 35/86/32 39/94/32 37/90/32
f 72/173/33 33/83/33 37/91/33 74/175/33
f 76/178/34 41/100/34 43/106/34 77/180/34
f 74/175/35 37/91/35 41/101/35 76/177/35
f 38/92/36 36/88/36 40/96/36 42/102/36
f 75/176/37 38/93/37 42/103/37 77/179/37
f 102/226/38 97/218/38 51/129/38 81/187/38
f 91/206/39 10/27/39 45/111/39 93/210/39
f 90/204/40 13/33/40 46/114/40 92/208/40
f 61/156/41 9/24/41 44/108/41 78/181/41
f 64/159/42 14/34/42 47/117/42 79/183/42
f 96/216/43 94/213/43 50/126/43 80/186/43
f 101/225/44 99/222/44 48/120/44 80/185/44
f 104/228/45 98/220/45 49/123/45 95/215/45
f 103/227/46 100/224/46 50/127/46 94/212/46
f 8/23/47 53/137/47 52/132/47
f 8/23/48 52/132/48 4/10/48 106/232/48 3/7/48 55/146/48 7/20/48
f 54/142/49 58/151/49 89/203/49 5/16/49 107/234/49 6/18/49 57/150/49
f 100/223/50 101/225/50 80/185/50 50/128/50
f 95/214/51 96/216/51 80/186/51 48/121/51
f 10/27/52 64/159/52 79/183/52 45/111/52
f 13/33/53 61/156/53 78/181/53 46/114/53
f 98/219/54 102/226/54 81/187/54 49/124/54
f 39/95/55 75/176/55 77/179/55 43/107/55
f 36/89/56 74/175/56 76/177/56 40/97/56
f 40/98/57 76/178/57 77/180/57 42/104/57
f 32/81/58 72/173/58 74/175/58 36/89/58
f 35/87/59 73/174/59 75/176/59 39/95/59
f 1/2/60 60/155/60 72/173/60 32/81/60
f 14/34/61 64/159/61 71/171/61 31/79/61
f 29/73/62 70/170/62 73/174/62 35/87/62
f 28/71/63 70/170/63 71/172/63 30/76/63
f 85/196/64 86/198/64 69/168/64 27/68/64
f 82/189/65 87/200/65 68/165/65 25/65/65
f 27/69/66 69/169/66 68/166/66 24/62/66
f 11/29/67 62/157/67 67/164/67 22/56/67
f 18/43/68 66/162/68 65/160/68 20/51/68
f 7/21/69 55/147/69 63/158/69 12/31/69
f 22/56/70 67/164/70 65/161/70 17/42/70
f 9/24/71 61/156/71 62/157/71 11/29/71
f 19/48/72 66/162/72 87/200/72 82/189/72
f 12/30/73 18/44/73 20/52/73 21/54/73 16/39/73
f 66/163/74 18/47/74 84/194/74 87/201/74
f 23/57/75 19/49/75 82/190/75 83/191/75
f 49/125/76 81/188/76 96/216/76 95/214/76
f 97/217/77 103/227/77 94/212/77 51/130/77
f 99/221/78 104/228/78 95/215/78 48/122/78
f 81/188/79 51/131/79 94/213/79 96/216/79
f 14/34/80 90/204/80 92/208/80 47/117/80
f 9/24/81 91/206/81 93/210/81 44/108/81
f 3/8/82 88/202/82 91/207/82 9/25/82
f 5/16/83 89/203/83 90/205/83 14/35/83
f 44/109/84 93/211/84 104/228/84 99/221/84
f 47/118/85 92/209/85 103/227/85 97/217/85
f 45/112/86 79/184/86 102/226/86 98/219/86
f 46/115/87 78/182/87 101/225/87 100/223/87
f 92/209/88 46/116/88 100/224/88 103/227/88
f 93/211/89 45/113/89 98/220/89 104/228/89
f 78/182/90 44/110/90 99/222/90 101/225/90
f 79/184/91 47/119/91 97/218/91 102/226/91
f 59/152/92 4/11/92 52/133/92 53/138/92 54/141/92 108/235/92
f 136/298/93 110/241/93 109/238/93 135/296/93
f 121/271/94 120/269/94 114/253/94 117/261/94
f 139/304/95 111/244/95 110/242/95 136/297/95
f 135/295/96 109/239/96 112/247/96 144/314/96
f 144/313/97 112/248/97 111/245/97 139/303/97
f 111/246/98 112/249/98 109/240/98 110/243/98
f 117/262/99 114/254/99 116/259/99 115/256/99 113/250/99
f 124/277/100 121/270/100 117/263/100 113/251/100
f 120/268/101 129/284/101 116/260/101 114/255/101
f 130/286/102 124/276/102 113/252/102 115/257/102
f 129/284/103 130/285/103 115/258/103 116/260/103
f 57/150/104 56/148/104 132/289/104 127/282/104
f 127/282/105 132/289/105 131/287/105 128/283/105
f 128/283/106 131/287/106 130/285/106 129/284/106
f 56/149/107 2/4/107 126/280/107 132/290/107
f 132/290/108 126/280/108 125/278/108 131/288/108
f 131/288/109 125/278/109 124/276/109 130/286/109
f 54/142/110 57/150/110 127/282/110 118/264/110
f 118/264/111 127/282/111 128/283/111 119/266/111
f 119/266/112 128/283/112 129/284/112 120/268/112
f 2/5/113 108/237/113 123/274/113 126/281/113
f 126/281/114 123/274/114 122/272/114 125/279/114
f 125/279/115 122/272/115 121/270/115 124/277/115
f 108/236/116 54/143/116 118/265/116 123/275/116
f 123/275/117 118/265/117 119/267/117 122/273/117
f 122/273/118 119/267/118 120/269/118 121/271/118
f 54/144/119 142/309/119 141/307/119 53/139/119
f 142/309/120 143/311/120 140/305/120 141/307/120
f 143/311/121 144/313/121 139/303/121 140/305/121
f 4/12/122 133/291/122 142/310/122 54/145/122
f 133/291/123 134/293/123 143/312/123 142/310/123
f 134/293/124 135/295/124 144/314/124 143/312/124
f 53/140/125 141/308/125 138/301/125 52/134/125
f 141/308/126 140/306/126 137/299/126 138/301/126
f 140/306/127 139/304/127 136/297/127 137/299/127
f 52/135/128 138/302/128 133/292/128 4/13/128
f 138/302/129 137/300/129 134/294/129 133/292/129
f 137/300/130 136/298/130 135/296/130 134/294/130
f 105/230/131 1/3/131 88/202/131 59/153/131 108/237/131 2/5/131
f 86/199/132 85/195/132 83/192/132
f 83/192/133 85/195/133 18/45/133 23/58/133
f 63/158/134 15/37/134 23/59/134 18/46/134 12/31/134
f 84/194/135 18/47/135 85/196/135
l 52 106
