# Blender 3.3.1
# www.blender.org
mtllib monstruo_3_grande_caminar585.mtl
o monstruo_grande
v 0.349582 2.038970 0.181651
v 0.523838 1.165652 0.065511
v -0.709019 1.777168 0.098220
v -0.299804 1.184225 0.218863
v 0.611407 2.301433 -0.112350
v 0.556417 1.640460 -0.240045
v -0.795924 1.955955 -0.356520
v -0.711373 1.650056 -0.385138
v -0.344287 2.431801 0.350615
v 0.212373 2.324829 0.376284
v -0.487241 2.410271 0.441897
v -1.166560 2.019005 -0.241297
v -0.303044 2.565899 -0.017522
v 0.236303 2.451560 0.109280
v -1.033367 1.898724 -0.050081
v -0.464394 2.640100 -0.017490
v -0.846392 2.336400 0.430891
v -1.485510 1.973602 -0.004782
v -1.230805 2.031025 0.224677
v -0.991971 2.620914 0.113310
v -0.651016 2.685376 0.026762
v -0.564443 2.366804 0.417277
v -1.165030 1.920070 -0.069731
v -1.886208 0.778028 0.730307
v -1.764539 0.754950 0.785392
v -1.743729 0.567171 0.595788
v -1.817992 0.581258 0.562166
v 0.340031 2.230897 0.368020
v 0.508767 2.411255 0.143046
v 0.321178 2.351183 0.378761
v 0.366398 2.471875 0.153938
v 0.561319 1.914316 0.224459
v 0.751539 1.947685 0.110829
v 0.594618 1.975768 0.279019
v 0.724989 2.073730 0.159522
v 0.674266 1.654522 0.308672
v 0.780413 1.660862 0.269488
v 0.714449 1.638166 0.405211
v 0.821206 1.652621 0.363473
v 0.653128 1.517185 0.380665
v 0.874851 1.545615 0.297480
v 0.668332 1.460924 0.568941
v 1.001907 1.502941 0.437636
v -0.182433 2.482025 0.387000
v 0.027837 2.456499 0.388819
v -0.161454 2.564849 0.133095
v 0.039848 2.538718 0.139777
v -0.127944 2.796021 0.529454
v 0.078157 2.727768 0.501609
v -0.127876 2.902085 0.272169
v 0.076952 2.834305 0.243064
v -0.502810 1.154336 0.012796
v -0.388153 1.136073 -0.199870
v -0.036494 1.256471 -0.338176
v -0.749018 1.798331 -0.134762
v 0.545120 1.249941 -0.154323
v 0.327756 1.280720 -0.277899
v 0.020972 1.508324 -0.345332
v -0.024279 1.133988 0.192117
v 0.442482 2.114554 0.080266
v -0.323334 2.479383 0.221981
v -0.488486 2.642372 0.256610
v -0.956239 1.953920 -0.170830
v 0.200281 2.447152 0.267249
v -0.863151 2.556891 0.359362
v -1.406659 2.138024 0.235258
v -0.640431 2.627454 0.236691
v -1.838659 0.767569 0.787646
v -1.761479 0.452669 0.485245
v 0.453791 2.327866 0.294252
v 0.344592 2.458153 0.286420
v 0.628884 1.911506 0.119656
v 0.692524 2.029913 0.261794
v 0.727538 1.660665 0.288024
v 0.767732 1.644878 0.384237
v 0.755293 1.530420 0.316011
v 0.818608 1.480586 0.460911
v -0.174070 2.522154 0.258602
v 0.031636 2.499273 0.263267
v -0.159109 2.850808 0.401800
v 0.109098 2.779718 0.372164
v -1.622283 1.070421 0.718860
v -1.685070 0.895373 0.658897
v -1.833910 1.080479 0.626580
v -1.799589 0.917094 0.607049
v -1.745498 0.735515 0.568447
v -1.754586 1.060482 0.724668
v -0.088768 1.813633 0.458064
v 0.135039 2.137233 -0.261805
v 0.056945 2.526417 -0.038635
v -0.043444 2.324350 0.529642
v -0.064786 2.550181 0.134428
v -0.071630 2.465660 0.387106
v -0.025736 2.883636 0.218295
v -0.024970 2.745972 0.553991
v -0.021482 2.866193 0.408445
v 0.070835 2.697374 0.165559
v 0.067496 2.580457 0.460526
v -0.168754 2.631837 0.481538
v -0.167564 2.749281 0.182746
v -0.185107 2.692233 0.333409
v 0.084280 2.639098 0.312569
v -0.049122 2.730788 0.153199
v -0.049263 2.596376 0.491452
v 0.426669 1.705808 0.028529
v -0.600712 1.505351 0.148578
v 0.571422 1.861273 -0.232369
v 0.171612 1.099614 0.175168
v -0.198690 0.034695 0.091435
v -0.343124 0.042464 0.213813
v -0.368919 0.038568 -0.036548
v -0.233754 0.033291 -0.051186
v 0.379199 0.145285 -0.465547
v 0.306427 0.175204 -0.536202
v 0.388884 0.161317 -0.500480
v 0.357571 0.171098 -0.525313
v 0.320164 0.140477 -0.456998
v 0.094160 0.911202 -0.206965
v 0.161305 0.707819 -0.239856
v 0.231191 0.437861 -0.361098
v 0.277170 0.339038 -0.215476
v 0.240292 0.519803 -0.034297
v 0.222869 0.746046 0.127643
v 0.397090 0.364356 -0.238344
v 0.441949 0.566364 -0.066926
v 0.502382 0.851970 0.088666
v 0.349152 0.944559 -0.187273
v 0.342237 0.707128 -0.218002
v 0.338860 0.436387 -0.346747
v 0.409017 0.412979 -0.304052
v 0.460484 0.671704 -0.147549
v 0.520083 0.933054 -0.080765
v -0.177240 0.942539 0.364995
v -0.150324 0.638262 0.339423
v -0.145332 0.391253 0.329174
v -0.430335 0.379157 0.317527
v -0.441350 0.655806 0.284144
v -0.464441 0.910722 0.243912
v -0.462785 0.399941 0.048586
v -0.471269 0.672726 0.016633
v -0.477555 0.877467 -0.030355
v -0.081181 0.836221 -0.050420
v -0.127792 0.649997 -0.022295
v -0.170981 0.442568 0.015518
vn -0.0044 0.4917 -0.8707
vn 0.0176 -0.0219 -0.9996
vn 0.4621 -0.2029 -0.8633
vn -0.3248 -0.2052 0.9233
vn 0.9035 -0.0340 0.4272
vn 0.5906 0.7866 0.1801
vn 0.1827 0.8958 -0.4052
vn 0.5623 -0.2030 0.8016
vn -0.1196 0.9494 0.2905
vn -0.0695 0.4698 -0.8800
vn -0.1970 -0.4135 0.8889
vn -0.3848 -0.8931 -0.2332
vn -0.3249 -0.0151 0.9456
vn 0.2640 -0.8175 0.5118
vn 0.9218 -0.2863 0.2613
vn -0.0889 -0.6578 0.7480
vn 0.0970 0.9885 0.1164
vn -0.0543 -0.7038 0.7083
vn -0.6959 0.3370 0.6341
vn 0.9488 -0.0409 -0.3132
vn -0.8396 0.0431 -0.5414
vn 0.5571 0.7278 0.3999
vn 0.3359 0.0938 0.9372
vn -0.3353 -0.5246 0.7826
vn -0.1599 0.6558 0.7378
vn -0.8650 -0.1709 0.4717
vn -0.1914 -0.5082 -0.8397
vn 0.8862 0.4629 0.0175
vn -0.4240 -0.6029 0.6758
vn 0.7108 0.5913 -0.3810
vn 0.0961 0.3469 0.9330
vn 0.9817 0.0866 -0.1695
vn -0.0242 -0.5237 -0.8516
vn 0.0678 -0.9348 -0.3486
vn -0.1747 -0.3007 -0.9376
vn -0.8797 0.3909 0.2707
vn 0.4037 0.5304 0.7455
vn 0.9847 -0.0245 -0.1726
vn 0.3260 0.6014 0.7294
vn 0.1141 0.9905 -0.0765
vn -0.3334 0.9032 0.2702
vn 0.3619 0.9108 0.1988
vn 0.0547 0.9753 0.2142
vn -0.9683 0.1220 0.2178
vn 0.2851 -0.3456 0.8940
vn -0.2399 0.4770 -0.8456
vn -0.7334 -0.5856 -0.3451
vn -0.9107 -0.3574 0.2071
vn 0.1766 0.0859 -0.9805
vn -0.9674 0.2420 -0.0748
vn 0.0522 0.8433 0.5349
vn 0.4051 0.7544 0.5166
vn -0.3168 0.9027 0.2910
vn 0.9817 -0.1580 0.1059
vn 0.0990 0.4893 0.8665
vn -0.4232 -0.3263 -0.8453
vn -0.0720 -0.9552 -0.2872
vn -0.5987 -0.5405 -0.5911
vn 0.6658 0.3973 0.6315
vn -0.4408 -0.6819 -0.5837
vn -0.1219 0.9918 0.0376
vn 0.7122 0.4974 0.4953
vn 0.5507 0.2723 0.7890
vn -0.3643 0.2082 -0.9077
vn 0.0408 0.1935 0.9803
vn -0.6988 -0.5816 0.4165
vn -0.2911 0.5405 0.7894
vn -0.7254 0.6664 0.1723
vn -0.3733 -0.8664 -0.3317
vn 0.1378 0.4804 0.8661
vn 0.5235 0.6196 0.5849
vn 0.1676 0.3785 0.9103
vn -0.3653 0.5292 -0.7659
vn -0.8726 0.4348 0.2225
vn 0.9301 -0.2820 0.2354
vn 0.5050 0.7017 0.5026
vn 0.2929 0.3980 -0.8694
vn -0.2495 -0.2751 0.9285
vn 0.5035 0.8534 0.1351
vn 0.3084 0.9506 -0.0360
vn -0.1781 0.5692 0.8027
vn -0.5075 -0.0604 0.8595
vn 0.2034 0.7190 -0.6646
vn -0.1608 -0.5570 0.8148
vn 0.1011 0.1159 -0.9881
vn 0.9491 -0.3118 -0.0442
vn -0.9937 -0.0088 -0.1117
vn -0.0996 0.1858 -0.9775
vn 0.0436 -0.5753 0.8168
vn -0.9996 -0.0059 0.0267
vn 0.9641 -0.2433 -0.1066
vn 0.0197 -0.9957 -0.0904
vn 0.2305 -0.4209 0.8774
vn -0.9493 -0.3066 0.0700
vn -0.9565 -0.2747 0.0983
vn 0.9856 -0.0933 -0.1413
vn -0.1252 0.1869 -0.9744
vn -0.0372 -0.9991 0.0192
vn 0.0180 -0.9149 -0.4033
vn 0.2358 -0.7193 0.6535
vn 0.1486 0.5685 -0.8092
vn 0.9802 -0.1702 0.1011
vn 0.5901 0.4730 -0.6543
vn 0.4801 -0.2164 -0.8501
vn 0.5307 0.0939 -0.8423
vn 0.5601 0.3472 -0.7521
vn 0.9954 -0.0622 0.0733
vn 0.9778 -0.2089 -0.0140
vn 0.9797 -0.2001 -0.0066
vn 0.1483 -0.2761 -0.9496
vn 0.0824 0.1534 -0.9847
vn 0.1156 0.4285 -0.8961
vn 0.2354 -0.0250 0.9716
vn 0.2852 -0.5225 0.8036
vn 0.2684 -0.6557 0.7057
vn -0.9336 -0.2081 0.2918
vn -0.9445 -0.2704 0.1864
vn -0.9511 -0.2922 0.0998
vn -0.1197 -0.5383 -0.8342
vn -0.0935 -0.1785 -0.9795
vn -0.1074 -0.1353 -0.9850
vn 0.8939 0.3145 0.3193
vn 0.9871 -0.0388 0.1554
vn 0.9963 -0.0845 -0.0125
vn -0.9785 -0.0584 -0.1979
vn -0.9956 -0.0483 0.0805
vn -0.9932 -0.0217 0.1140
vn -0.5438 0.3952 0.7403
vn -0.2917 -0.0010 0.9565
vn -0.1149 0.0403 0.9926
vn 0.4828 -0.1120 0.8685
vn 0.4403 0.3103 -0.8425
vn -0.1132 -0.5055 -0.8553
vn -0.1685 -0.8583 -0.4846
vn -0.8052 -0.0992 -0.5847
vt 0.882279 0.260085
vt 0.436089 0.649131
vt 0.117664 0.305524
vt 0.860974 0.338762
vt 0.079561 0.383885
vt 0.278417 0.728674
vt 0.111517 0.716819
vt 0.301243 0.337859
vt 0.232943 0.387386
vt 0.111517 0.662267
vt 0.671871 0.687525
vt 0.175114 0.511099
vt 0.930991 0.712692
vt 0.796001 0.259488
vt 0.522181 0.649131
vt 0.719621 0.316178
vt 0.801110 0.310020
vt 0.698705 0.366293
vt 0.510656 0.337024
vt 0.023033 0.717149
vt 0.367094 0.730187
vt 0.507246 0.358198
vt 0.018976 0.695717
vt 0.103380 0.570561
vt 0.268725 0.266033
vt 0.143950 0.273348
vt 0.098384 0.631539
vt 0.301351 0.259488
vt 0.128079 0.559933
vt 0.480438 0.333338
vt 0.348619 0.714075
vt 0.604958 0.268707
vt 0.031105 0.562973
vt 0.043818 0.625810
vt 0.721993 0.282954
vt 0.329365 0.336360
vt 0.302724 0.713315
vt 0.030374 0.549675
vt 0.582817 0.260846
vt 0.875347 0.642471
vt 0.380514 0.272320
vt 0.124895 0.517524
vt 0.813390 0.578569
vt 0.436089 0.332372
vt 0.956124 0.588845
vt 0.367094 0.692599
vt 0.367094 0.522797
vt 0.871643 0.594841
vt 0.398138 0.324445
vt 0.043891 0.509019
vt 0.796001 0.641153
vt 0.491075 0.268473
vt 0.032114 0.534706
vt 0.552485 0.259488
vt 0.331566 0.259909
vt 0.129819 0.544964
vt 0.339759 0.337186
vt 0.913298 0.588845
vt 0.317584 0.707220
vt 0.845734 0.463378
vt 0.311567 0.646434
vt 0.944558 0.353645
vt 0.398138 0.462439
vt 0.920230 0.354337
vt 0.870057 0.463781
vt 0.929709 0.374247
vt 0.357807 0.478584
vt 0.347994 0.663056
vt 0.944558 0.373825
vt 0.097076 0.285727
vt 0.229765 0.651022
vt 0.758050 0.297859
vt 0.168317 0.651042
vt 0.119329 0.272208
vt 0.094178 0.643292
vt 0.222768 0.636959
vt 0.746872 0.283208
vt 0.174541 0.636975
vt 0.045175 0.638147
vt 0.080672 0.327471
vt 0.442544 0.673801
vt 0.734592 0.339187
vt 0.484453 0.673801
vt 0.070725 0.319456
vt 0.218298 0.685110
vt 0.751374 0.331694
vt 0.180611 0.684911
vt 0.062412 0.356092
vt 0.455575 0.702696
vt 0.724658 0.367821
vt 0.476314 0.702696
vt 0.043357 0.357400
vt 0.210236 0.723455
vt 0.742364 0.370210
vt 0.189444 0.723462
vt 0.050281 0.367705
vt 0.444942 0.715336
vt 0.810526 0.722486
vt 0.728448 0.380153
vt 0.853695 0.722486
vt 0.487920 0.715336
vt 0.018975 0.371756
vt 0.232852 0.738567
vt 0.796001 0.739289
vt 0.758050 0.386241
vt 0.861207 0.739289
vt 0.167770 0.738589
vt 0.100634 0.583041
vt 0.712300 0.698974
vt 0.802197 0.701507
vt 0.098640 0.600731
vt 0.972705 0.287497
vt 0.747907 0.696578
vt 0.052045 0.577939
vt 0.849895 0.701507
vt 0.710445 0.675017
vt 0.050052 0.595630
vt 0.746553 0.677603
vt 0.924885 0.287497
vt 0.797725 0.671259
vt 0.981025 0.313792
vt 0.715147 0.730011
vt 0.752543 0.724602
vt 0.973919 0.259495
vt 0.967002 0.332143
vt 0.934252 0.306472
vt 0.715328 0.644023
vt 0.847669 0.671259
vt 0.923848 0.259495
vt 0.753088 0.649631
vt 0.920230 0.324823
vt 0.068284 0.665533
vt 0.630362 0.705721
vt 0.712055 0.621316
vt 0.966165 0.712391
vt 0.519769 0.388732
vt 0.031375 0.663704
vt 0.592215 0.695479
vt 0.581836 0.620019
vt 0.750017 0.621843
vt 0.569690 0.667298
vt 0.581066 0.387596
vt 0.531739 0.516092
vt 0.642835 0.625048
vt 0.273616 0.509019
vt 0.070982 0.710642
vt 0.316851 0.732164
vt 0.684917 0.393810
vt 0.816625 0.338063
vt 0.644803 0.392946
vt 0.602800 0.367236
vt 0.671871 0.661666
vt 0.181146 0.386242
vt 0.855113 0.259897
vt 0.463196 0.649131
vt 0.077903 0.567886
vt 0.078993 0.554271
vt 0.322237 0.720993
vt 0.070972 0.628379
vt 0.834014 0.651825
vt 0.084160 0.512738
vt 0.838315 0.596273
vt 0.320679 0.509019
vt 0.080733 0.539302
vt 0.857365 0.464048
vt 0.931678 0.351118
vt 0.335174 0.488977
vt 0.367094 0.673623
vt 0.939667 0.384854
vt 0.199177 0.651021
vt 0.069465 0.641494
vt 0.198664 0.632807
vt 0.464209 0.672968
vt 0.199604 0.684998
vt 0.465945 0.702696
vt 0.199840 0.723459
vt 0.466714 0.715004
vt 0.832520 0.720483
vt 0.200177 0.738589
vt 0.829423 0.735282
vt 0.076340 0.580490
vt 0.826046 0.701507
vt 0.074346 0.598181
vt 0.948795 0.287497
vt 0.823088 0.670800
vt 0.959731 0.307426
vt 0.948976 0.259488
vt 0.941524 0.331189
vt 0.875347 0.491894
vt 0.391834 0.432095
vt 0.377694 0.448634
vt 0.915590 0.478791
vt 0.834644 0.488373
vt 0.326937 0.619279
vt 0.938593 0.478810
vt 0.335216 0.632947
vt 0.358601 0.463790
vt 0.348787 0.648138
vt 0.927106 0.463378
vt 0.854274 0.489560
vt 0.315804 0.619182
vt 0.212520 0.321385
vt 0.644070 0.318501
vt 0.018976 0.592450
vt 0.663817 0.276029
vt 0.129819 0.597828
vt 0.224108 0.269832
vt 0.051049 0.586785
vt 0.728499 0.676310
vt 0.099637 0.591886
vt 0.730103 0.697776
vt 0.734390 0.646904
vt 0.920230 0.314550
vt 0.981025 0.324065
vt 0.732426 0.727384
vt 0.950683 0.319044
vt 0.753088 0.663662
vt 0.920230 0.273492
vt 0.977552 0.273492
vt 0.752543 0.710647
vt 0.709822 0.714522
vt 0.796001 0.686127
vt 0.853178 0.686127
vt 0.709822 0.659561
vt 0.824792 0.685890
vt 0.948939 0.273488
vt 0.731549 0.661651
vt 0.730449 0.712624
vt 0.878850 0.297575
vt 0.096711 0.342677
vt 0.285581 0.357771
vt 0.108549 0.696221
vt 0.804979 0.293594
vt 0.708839 0.350023
vt 0.668288 0.644023
vt 0.436089 0.526409
vt 0.145034 0.385321
vt 0.919159 0.607821
vt 0.247387 0.613831
vt 0.970304 0.416607
vt 0.947808 0.608020
vt 0.704660 0.516092
vt 0.970304 0.403829
vt 0.750017 0.516884
vt 0.618892 0.516092
vt 0.920230 0.404231
vt 0.273616 0.612878
vt 0.642836 0.516847
vt 0.938584 0.415207
vt 0.924281 0.443436
vt 0.075400 0.489812
vt 0.855524 0.444402
vt 0.531739 0.629156
vt 0.934913 0.435583
vt 0.576828 0.496673
vt 0.931440 0.443424
vt 0.848383 0.444289
vt 0.592622 0.497116
vt 0.934913 0.440184
vt 0.586164 0.496977
vt 0.517161 0.630156
vt 0.920230 0.438606
vt 0.085942 0.490043
vt 0.585376 0.420489
vt 0.510472 0.551446
vt 0.582586 0.444044
vt 0.504260 0.576063
vt 0.581388 0.469636
vt 0.508131 0.602400
vt 0.103684 0.463024
vt 0.477645 0.604263
vt 0.118194 0.440373
vt 0.454885 0.581958
vt 0.129418 0.415411
vt 0.438452 0.557360
vt 0.876897 0.417052
vt 0.081901 0.462161
vt 0.882279 0.393921
vt 0.081653 0.438865
vt 0.880271 0.363315
vt 0.079604 0.408162
vt 0.633117 0.418943
vt 0.615530 0.444447
vt 0.600997 0.469910
vt 0.614559 0.469949
vt 0.862035 0.416811
vt 0.638313 0.444473
vt 0.857648 0.390640
vt 0.666106 0.417503
vt 0.844696 0.362700
vt 0.167770 0.536691
vt 0.914144 0.688660
vt 0.182151 0.561697
vt 0.913298 0.663084
vt 0.189855 0.582503
vt 0.915415 0.641729
vt 0.680787 0.549268
vt 0.966165 0.641681
vt 0.684678 0.573659
vt 0.963812 0.665813
vt 0.684995 0.596421
vt 0.964308 0.688427
vt 0.584794 0.548886
vt 0.729850 0.550060
vt 0.578610 0.572959
vt 0.734888 0.574452
vt 0.569690 0.595426
vt 0.736445 0.597214
vt 0.642060 0.590920
vt 0.247172 0.543053
vt 0.641052 0.570535
vt 0.248998 0.562413
vt 0.635978 0.552556
vt 0.245738 0.579271
s 0
usemtl Material
f 89/203/1 7/19/1 13/32/1 90/205/1
f 8/22/2 7/19/2 89/203/2 58/151/2 54/142/2 53/136/2
f 6/18/3 56/148/3 57/150/3
f 3/8/4 106/231/4 4/9/4 59/153/4 88/202/4
f 6/17/5 107/233/5 5/14/5 60/154/5 1/1/5 105/229/5 2/4/5 56/149/5
f 61/156/6 13/33/6 16/38/6 62/157/6
f 5/16/7 14/35/7 31/77/7 29/72/7
f 88/202/8 1/3/8 10/26/8 91/207/8
f 67/164/9 21/53/9 20/50/9 65/161/9
f 13/32/10 7/19/10 12/30/10 16/39/10
f 3/8/11 9/25/11 11/28/11 15/36/11
f 55/147/12 3/6/12 15/37/12 63/158/12
f 66/162/13 19/48/13 17/40/13 65/160/13
f 23/57/14 22/55/14 17/41/14 19/49/14
f 83/191/15 82/190/15 25/63/15 26/67/15
f 15/36/16 11/28/16 22/55/16 23/57/16
f 62/157/17 16/38/17 21/53/17 67/164/17
f 69/169/18 26/66/18 25/64/18 68/166/18
f 87/200/19 84/193/19 24/60/19 68/165/19
f 86/197/20 83/191/20 26/67/20 69/167/20
f 84/194/21 85/196/21 27/68/21 24/61/21
f 70/170/22 29/73/22 31/78/22 71/172/22
f 70/170/23 28/71/23 34/85/23 73/174/23
f 10/26/24 1/3/24 28/70/24 30/74/24
f 64/159/25 10/27/25 30/75/25 71/171/25
f 34/84/26 32/80/26 36/88/26 38/92/26
f 60/155/27 5/15/27 33/83/27 72/173/27
f 5/16/28 29/72/28 35/86/28 33/82/28
f 28/70/29 1/3/29 32/80/29 34/84/29
f 37/90/30 39/94/30 43/105/30 41/99/30
f 73/174/31 34/85/31 38/93/31 75/176/31
f 33/82/32 35/86/32 39/94/32 37/90/32
f 72/173/33 33/83/33 37/91/33 74/175/33
f 76/178/34 41/100/34 43/106/34 77/180/34
f 74/175/35 37/91/35 41/101/35 76/177/35
f 38/92/36 36/88/36 40/96/36 42/102/36
f 75/176/37 38/93/37 42/103/37 77/179/37
f 102/226/38 97/218/38 51/129/38 81/187/38
f 91/206/39 10/27/39 45/111/39 93/210/39
f 90/204/40 13/33/40 46/114/40 92/208/40
f 61/156/41 9/24/41 44/108/41 78/181/41
f 64/159/42 14/34/42 47/117/42 79/183/42
f 96/216/43 94/213/43 50/126/43 80/186/43
f 101/225/44 99/222/44 48/120/44 80/185/44
f 104/228/45 98/220/45 49/123/45 95/215/45
f 103/227/46 100/224/46 50/127/46 94/212/46
f 8/23/47 53/137/47 52/132/47
f 8/23/48 52/132/48 4/10/48 106/232/48 3/7/48 55/146/48 7/20/48
f 54/142/49 58/151/49 89/203/49 5/16/49 107/234/49 6/18/49 57/150/49
f 100/223/50 101/225/50 80/185/50 50/128/50
f 95/214/51 96/216/51 80/186/51 48/121/51
f 10/27/52 64/159/52 79/183/52 45/111/52
f 13/33/53 61/156/53 78/181/53 46/114/53
f 98/219/54 102/226/54 81/187/54 49/124/54
f 39/95/55 75/176/55 77/179/55 43/107/55
f 36/89/56 74/175/56 76/177/56 40/97/56
f 40/98/57 76/178/57 77/180/57 42/104/57
f 32/81/58 72/173/58 74/175/58 36/89/58
f 35/87/59 73/174/59 75/176/59 39/95/59
f 1/2/60 60/155/60 72/173/60 32/81/60
f 14/34/61 64/159/61 71/171/61 31/79/61
f 29/73/62 70/170/62 73/174/62 35/87/62
f 28/71/63 70/170/63 71/172/63 30/76/63
f 85/196/64 86/198/64 69/168/64 27/68/64
f 82/189/65 87/200/65 68/165/65 25/65/65
f 27/69/66 69/169/66 68/166/66 24/62/66
f 11/29/67 62/157/67 67/164/67 22/56/67
f 18/43/68 66/162/68 65/160/68 20/51/68
f 7/21/69 55/147/69 63/158/69 12/31/69
f 22/56/70 67/164/70 65/161/70 17/42/70
f 9/24/71 61/156/71 62/157/71 11/29/71
f 19/48/72 66/162/72 87/200/72 82/189/72
f 12/30/73 18/44/73 20/52/73 21/54/73 16/39/73
f 66/163/74 18/47/74 84/194/74 87/201/74
f 23/57/75 19/49/75 82/190/75 83/191/75
f 49/125/76 81/188/76 96/216/76 95/214/76
f 97/217/77 103/227/77 94/212/77 51/130/77
f 99/221/78 104/228/78 95/215/78 48/122/78
f 81/188/79 51/131/79 94/213/79 96/216/79
f 14/34/80 90/204/80 92/208/80 47/117/80
f 9/24/81 91/206/81 93/210/81 44/108/81
f 3/8/82 88/202/82 91/207/82 9/25/82
f 5/16/83 89/203/83 90/205/83 14/35/83
f 44/109/84 93/211/84 104/228/84 99/221/84
f 47/118/85 92/209/85 103/227/85 97/217/85
f 45/112/86 79/184/86 102/226/86 98/219/86
f 46/115/87 78/182/87 101/225/87 100/223/87
f 92/209/88 46/116/88 100/224/88 103/227/88
f 93/211/89 45/113/89 98/220/89 104/228/89
f 78/182/90 44/110/90 99/222/90 101/225/90
f 79/184/91 47/119/91 97/218/91 102/226/91
f 59/152/92 4/11/92 52/133/92 53/138/92 54/141/92 108/235/92
f 136/298/93 110/241/93 109/238/93 135/296/93
f 121/271/94 120/269/94 114/253/94 117/261/94
f 139/304/95 111/244/95 110/242/95 136/297/95
f 135/295/96 109/239/96 112/247/96 144/314/96
f 144/313/97 112/248/97 111/245/97 139/303/97
f 111/246/98 112/249/98 109/240/98 110/243/98
f 117/262/99 114/254/99 116/259/99 115/256/99 113/250/99
f 124/277/100 121/270/100 117/263/100 113/251/100
f 120/268/101 129/284/101 116/260/101 114/255/101
f 130/286/102 124/276/102 113/252/102 115/257/102
f 129/284/103 130/285/103 115/258/103 116/260/103
f 57/150/104 56/148/104 132/289/104 127/282/104
f 127/282/105 132/289/105 131/287/105 128/283/105
f 128/283/106 131/287/106 130/285/106 129/284/106
f 56/149/107 2/4/107 126/280/107 132/290/107
f 132/290/108 126/280/108 125/278/108 131/288/108
f 131/288/109 125/278/109 124/276/109 130/286/109
f 54/142/110 57/150/110 127/282/110 118/264/110
f 118/264/111 127/282/111 128/283/111 119/266/111
f 119/266/112 128/283/112 129/284/112 120/268/112
f 2/5/113 108/237/113 123/274/113 126/281/113
f 126/281/114 123/274/114 122/272/114 125/279/114
f 125/279/115 122/272/115 121/270/115 124/277/115
f 108/236/116 54/143/116 118/265/116 123/275/116
f 123/275/117 118/265/117 119/267/117 122/273/117
f 122/273/118 119/267/118 120/269/118 121/271/118
f 54/144/119 142/309/119 141/307/119 53/139/119
f 142/309/120 143/311/120 140/305/120 141/307/120
f 143/311/121 144/313/121 139/303/121 140/305/121
f 4/12/122 133/291/122 142/310/122 54/145/122
f 133/291/123 134/293/123 143/312/123 142/310/123
f 134/293/124 135/295/124 144/314/124 143/312/124
f 53/140/125 141/308/125 138/301/125 52/134/125
f 141/308/126 140/306/126 137/299/126 138/301/126
f 140/306/127 139/304/127 136/297/127 137/299/127
f 52/135/128 138/302/128 133/292/128 4/13/128
f 138/302/129 137/300/129 134/294/129 133/292/129
f 137/300/130 136/298/130 135/296/130 134/294/130
f 105/230/131 1/3/131 88/202/131 59/153/131 108/237/131 2/5/131
f 86/199/132 85/195/132 83/192/132
f 83/192/133 85/195/133 18/45/133 23/58/133
f 63/158/134 15/37/134 23/59/134 18/46/134 12/31/134
f 84/194/135 18/47/135 85/196/135
l 52 106
