# Blender 3.3.1
# www.blender.org
mtllib monstruo_3_grande_caminar568.mtl
o monstruo_grande
v 0.491615 1.982228 0.313861
v 0.527881 1.123811 0.041619
v -0.646624 1.837734 0.111079
v -0.274986 1.207129 0.223265
v 0.798233 2.242299 0.068465
v 0.617968 1.601821 -0.225364
v -0.710278 2.042927 -0.335355
v -0.670935 1.722676 -0.353388
v -0.238560 2.434262 0.403289
v 0.297722 2.288635 0.458188
v -0.386210 2.417837 0.488510
v -1.061480 2.141710 -0.259823
v -0.177274 2.582316 0.045012
v 0.358588 2.404928 0.188876
v -0.947819 2.001743 -0.077986
v -0.331338 2.671820 0.049260
v -0.756008 2.362443 0.446499
v -1.393683 2.096905 -0.054077
v -1.151397 2.122319 0.187255
v -0.862135 2.690127 0.156495
v -0.513534 2.733418 0.096879
v -0.469402 2.375093 0.453272
v -1.075909 2.033020 -0.107322
v -1.879562 0.877718 0.588874
v -1.765086 0.854869 0.657748
v -1.714332 0.678495 0.462916
v -1.784205 0.692442 0.420877
v 0.411674 2.187690 0.465531
v 0.619265 2.368040 0.279208
v 0.401251 2.308500 0.470386
v 0.481898 2.421323 0.253602
v 0.683181 1.915924 0.442211
v 0.894625 1.920231 0.402173
v 0.700309 1.966918 0.484089
v 0.851531 2.061719 0.401304
v 0.722443 1.753985 0.685701
v 0.836874 1.731967 0.674581
v 0.744482 1.788297 0.783673
v 0.856394 1.769049 0.765615
v 0.665033 1.678910 0.810533
v 0.898116 1.639905 0.776791
v 0.642235 1.730395 0.999409
v 0.992813 1.665860 0.942764
v -0.074647 2.469071 0.442691
v 0.131781 2.430390 0.448983
v -0.040428 2.557952 0.192955
v 0.159819 2.513514 0.201461
v -0.020780 2.782294 0.580892
v 0.184831 2.709544 0.562370
v -0.007867 2.884693 0.322649
v 0.197442 2.811998 0.303360
v -0.498893 1.192130 0.045839
v -0.411253 1.164609 -0.177907
v -0.040757 1.268703 -0.336525
v -0.682649 1.873064 -0.115605
v 0.537877 1.228340 -0.172525
v 0.317213 1.272999 -0.281179
v 0.044471 1.516186 -0.331487
v -0.018993 1.116934 0.183407
v 0.606085 2.054365 0.236878
v -0.210628 2.486064 0.277611
v -0.361918 2.660700 0.317835
v -0.865707 2.054873 -0.170297
v 0.307981 2.408178 0.345354
v -0.751098 2.589776 0.403252
v -1.319597 2.241987 0.198991
v -0.514613 2.659160 0.294343
v -1.839281 0.865369 0.651188
v -1.714202 0.569856 0.345258
v 0.529868 2.292519 0.417335
v 0.444746 2.412528 0.382032
v 0.774038 1.878482 0.385269
v 0.791930 2.026580 0.494719
v 0.778645 1.743480 0.677216
v 0.800482 1.777989 0.774625
v 0.775940 1.646445 0.772602
v 0.807239 1.675923 0.932726
v -0.059652 2.512489 0.316121
v 0.143466 2.473516 0.324028
v -0.045643 2.835839 0.451342
v 0.222453 2.758713 0.433828
v -1.626205 1.177211 0.626232
v -1.675070 1.004143 0.549815
v -1.824821 1.187896 0.509292
v -1.782819 1.025649 0.484989
v -1.718268 0.847988 0.444286
v -1.757782 1.163450 0.614617
v -0.033322 1.786385 0.482617
v 0.239603 2.111185 -0.219210
v 0.180830 2.505878 0.023953
v 0.029602 2.308482 0.581009
v 0.054378 2.535070 0.194993
v 0.033944 2.448159 0.444697
v 0.096701 2.863458 0.273783
v 0.080072 2.730559 0.610270
v 0.091890 2.848567 0.463357
v 0.192637 2.673448 0.227874
v 0.173951 2.560245 0.523255
v -0.062337 2.618277 0.534093
v -0.044836 2.733455 0.236284
v -0.071024 2.677437 0.385121
v 0.198189 2.616623 0.375612
v 0.074064 2.711025 0.211155
v 0.055516 2.580401 0.548986
v 0.591767 1.614673 0.090815
v -0.568033 1.550333 0.163901
v 0.691993 1.805531 -0.175929
v 0.174164 1.064807 0.162920
v -0.245571 0.040738 0.291159
v -0.380864 0.091399 0.413666
v -0.420152 0.047706 0.168594
v -0.288100 0.019538 0.151846
v 0.347058 -0.048363 -0.241103
v 0.272001 -0.055373 -0.315570
v 0.355562 -0.050387 -0.279714
v 0.323465 -0.053648 -0.305285
v 0.288296 -0.049274 -0.229656
v 0.077890 0.891327 -0.252522
v 0.153574 0.576628 -0.257033
v 0.207064 0.271531 -0.267953
v 0.243394 0.223627 -0.096209
v 0.215722 0.455726 0.014362
v 0.210983 0.723221 0.092711
v 0.365198 0.232856 -0.121175
v 0.421225 0.475909 -0.028476
v 0.493973 0.813239 0.038078
v 0.332521 0.922381 -0.235178
v 0.333660 0.572056 -0.229192
v 0.314194 0.268609 -0.249436
v 0.381727 0.256399 -0.198612
v 0.448236 0.552710 -0.147303
v 0.507195 0.901260 -0.133795
v -0.149171 0.964873 0.362184
v -0.146315 0.687507 0.392561
v -0.150902 0.450899 0.445708
v -0.435620 0.450036 0.445458
v -0.439264 0.707490 0.345388
v -0.450103 0.948848 0.274865
v -0.478410 0.408846 0.179617
v -0.481756 0.668182 0.077331
v -0.497812 0.906732 0.000853
v -0.107657 0.834856 -0.061326
v -0.141928 0.621118 0.028103
v -0.187039 0.429202 0.129205
vn 0.0647 0.5311 -0.8448
vn 0.0070 -0.0056 -1.0000
vn 0.3970 -0.2115 -0.8931
vn -0.3498 -0.2065 0.9138
vn 0.9309 -0.2536 0.2628
vn 0.6551 0.7173 0.2373
vn 0.2628 0.8780 -0.3999
vn 0.3775 -0.2049 0.9031
vn -0.0683 0.9226 0.3796
vn 0.0495 0.4992 -0.8651
vn -0.3306 -0.4059 0.8520
vn -0.4506 -0.8414 -0.2984
vn -0.3828 -0.0967 0.9187
vn 0.1586 -0.8861 0.4355
vn 0.8907 -0.2758 0.3615
vn -0.1623 -0.7326 0.6610
vn 0.1865 0.9640 0.1893
vn -0.1195 -0.7432 0.6584
vn -0.7789 0.2815 0.5604
vn 0.9815 0.0017 -0.1915
vn -0.7663 0.0515 -0.6404
vn 0.4639 0.7572 0.4598
vn 0.0127 0.2072 0.9782
vn -0.4761 -0.4841 0.7342
vn -0.2112 0.6814 0.7008
vn -0.9723 0.0994 0.2117
vn 0.1214 -0.6564 -0.7446
vn 0.8188 0.5493 0.1669
vn -0.5367 -0.5881 0.6051
vn 0.8637 0.2407 -0.4429
vn -0.2621 0.7652 0.5880
vn 0.9893 0.0645 0.1309
vn 0.1834 -0.8604 -0.4755
vn -0.0617 -0.9798 0.1904
vn -0.0673 -0.7307 -0.6794
vn -0.8168 0.5522 -0.1673
vn 0.3889 0.8069 0.4446
vn 0.9911 -0.0427 -0.1258
vn 0.3056 0.5699 0.7628
vn 0.2133 0.9767 -0.0217
vn -0.2537 0.9184 0.3035
vn 0.4173 0.8826 0.2164
vn 0.0654 0.9767 0.2044
vn -0.9745 0.1411 0.1745
vn 0.2392 -0.3340 0.9117
vn -0.1959 0.4627 -0.8646
vn -0.8378 -0.4747 -0.2698
vn -0.9386 -0.2552 0.2322
vn 0.2239 0.1730 -0.9591
vn -0.9590 0.2546 -0.1248
vn 0.0479 0.8497 0.5250
vn 0.4104 0.7345 0.5404
vn -0.2219 0.9167 0.3324
vn 0.9736 -0.1687 0.1536
vn 0.0658 0.8633 0.5004
vn -0.3530 -0.6880 -0.6341
vn -0.2139 -0.9504 0.2257
vn -0.4418 -0.7994 -0.4071
vn 0.3646 0.7167 0.5945
vn -0.1839 -0.8456 -0.5011
vn -0.0778 0.9970 -0.0045
vn 0.4816 0.6288 0.6104
vn 0.3956 0.2680 0.8784
vn -0.2540 0.2483 -0.9348
vn -0.0893 0.1399 0.9861
vn -0.7258 -0.6221 0.2936
vn -0.2964 0.4980 0.8150
vn -0.6784 0.7103 0.1877
vn -0.4448 -0.8203 -0.3595
vn 0.1211 0.3732 0.9198
vn 0.5524 0.5404 0.6347
vn 0.1204 0.3396 0.9328
vn -0.2761 0.6264 -0.7289
vn -0.8645 0.4682 0.1828
vn 0.8986 -0.3253 0.2945
vn 0.4981 0.6987 0.5135
vn 0.3356 0.3779 -0.8629
vn -0.2914 -0.2558 0.9218
vn 0.5156 0.8441 0.1473
vn 0.3934 0.9193 0.0070
vn -0.1508 0.5871 0.7953
vn -0.5374 -0.0673 0.8407
vn 0.3473 0.7101 -0.6124
vn -0.2017 -0.5426 0.8154
vn 0.1297 0.1047 -0.9860
vn 0.9421 -0.3352 0.0018
vn -0.9868 0.0077 -0.1619
vn -0.0703 0.1695 -0.9830
vn -0.0161 -0.5603 0.8281
vn -0.9998 0.0123 -0.0183
vn 0.9630 -0.2638 -0.0560
vn -0.0761 -0.9901 -0.1178
vn 0.2449 -0.2404 0.9393
vn -0.9613 -0.2243 0.1599
vn -0.9695 -0.1631 0.1828
vn 0.9671 -0.2072 -0.1474
vn -0.1568 -0.0062 -0.9876
vn -0.1794 -0.9631 0.2008
vn 0.0285 -0.9973 0.0683
vn 0.2027 -0.3991 0.8942
vn 0.1772 0.1746 -0.9686
vn 0.9733 -0.1365 0.1846
vn 0.6099 0.1529 -0.7775
vn 0.4500 -0.1208 -0.8848
vn 0.5314 -0.0349 -0.8464
vn 0.5902 0.0117 -0.8071
vn 0.9949 -0.1002 0.0098
vn 0.9811 -0.1916 0.0272
vn 0.9658 -0.2434 0.0898
vn 0.1251 -0.1521 -0.9804
vn 0.1028 0.0097 -0.9947
vn 0.1606 0.0594 -0.9852
vn 0.2879 -0.1063 0.9517
vn 0.2437 -0.2518 0.9366
vn 0.2203 -0.3947 0.8920
vn -0.9340 -0.1962 0.2984
vn -0.9599 -0.1649 0.2267
vn -0.9725 -0.1803 0.1474
vn -0.2218 -0.5001 -0.8371
vn -0.1948 -0.3309 -0.9234
vn -0.1596 -0.3933 -0.9054
vn 0.9403 0.2335 0.2474
vn 0.9965 -0.0467 0.0697
vn 0.9916 -0.1258 -0.0300
vn -0.9967 0.0090 -0.0812
vn -0.9863 -0.0048 0.1648
vn -0.9875 0.0457 0.1508
vn -0.4241 0.4451 0.7887
vn -0.2161 0.1809 0.9595
vn -0.0684 0.2956 0.9528
vn 0.3750 -0.2868 0.8815
vn 0.5322 0.3680 -0.7624
vn -0.0701 -0.4686 -0.8806
vn -0.1746 -0.7976 -0.5773
vn -0.7215 -0.0838 -0.6874
vt 0.882279 0.260085
vt 0.436089 0.649131
vt 0.117664 0.305524
vt 0.860974 0.338762
vt 0.079561 0.383885
vt 0.278417 0.728674
vt 0.111517 0.716819
vt 0.301243 0.337859
vt 0.232943 0.387386
vt 0.111517 0.662267
vt 0.671871 0.687525
vt 0.175114 0.511099
vt 0.930991 0.712692
vt 0.796001 0.259488
vt 0.522181 0.649131
vt 0.719621 0.316178
vt 0.801110 0.310020
vt 0.698705 0.366293
vt 0.510656 0.337024
vt 0.023033 0.717149
vt 0.367094 0.730187
vt 0.507246 0.358198
vt 0.018976 0.695717
vt 0.103380 0.570561
vt 0.268725 0.266033
vt 0.143950 0.273348
vt 0.098384 0.631539
vt 0.301351 0.259488
vt 0.128079 0.559933
vt 0.480438 0.333338
vt 0.348619 0.714075
vt 0.604958 0.268707
vt 0.031105 0.562973
vt 0.043818 0.625810
vt 0.721993 0.282954
vt 0.329365 0.336360
vt 0.302724 0.713315
vt 0.030374 0.549675
vt 0.582817 0.260846
vt 0.875347 0.642471
vt 0.380514 0.272320
vt 0.124895 0.517524
vt 0.813390 0.578569
vt 0.436089 0.332372
vt 0.956124 0.588845
vt 0.367094 0.692599
vt 0.367094 0.522797
vt 0.871643 0.594841
vt 0.398138 0.324445
vt 0.043891 0.509019
vt 0.796001 0.641153
vt 0.491075 0.268473
vt 0.032114 0.534706
vt 0.552485 0.259488
vt 0.331566 0.259909
vt 0.129819 0.544964
vt 0.339759 0.337186
vt 0.913298 0.588845
vt 0.317584 0.707220
vt 0.845734 0.463378
vt 0.311567 0.646434
vt 0.944558 0.353645
vt 0.398138 0.462439
vt 0.920230 0.354337
vt 0.870057 0.463781
vt 0.929709 0.374247
vt 0.357807 0.478584
vt 0.347994 0.663056
vt 0.944558 0.373825
vt 0.097076 0.285727
vt 0.229765 0.651022
vt 0.758050 0.297859
vt 0.168317 0.651042
vt 0.119329 0.272208
vt 0.094178 0.643292
vt 0.222768 0.636959
vt 0.746872 0.283208
vt 0.174541 0.636975
vt 0.045175 0.638147
vt 0.080672 0.327471
vt 0.442544 0.673801
vt 0.734592 0.339187
vt 0.484453 0.673801
vt 0.070725 0.319456
vt 0.218298 0.685110
vt 0.751374 0.331694
vt 0.180611 0.684911
vt 0.062412 0.356092
vt 0.455575 0.702696
vt 0.724658 0.367821
vt 0.476314 0.702696
vt 0.043357 0.357400
vt 0.210236 0.723455
vt 0.742364 0.370210
vt 0.189444 0.723462
vt 0.050281 0.367705
vt 0.444942 0.715336
vt 0.810526 0.722486
vt 0.728448 0.380153
vt 0.853695 0.722486
vt 0.487920 0.715336
vt 0.018975 0.371756
vt 0.232852 0.738567
vt 0.796001 0.739289
vt 0.758050 0.386241
vt 0.861207 0.739289
vt 0.167770 0.738589
vt 0.100634 0.583041
vt 0.712300 0.698974
vt 0.802197 0.701507
vt 0.098640 0.600731
vt 0.972705 0.287497
vt 0.747907 0.696578
vt 0.052045 0.577939
vt 0.849895 0.701507
vt 0.710445 0.675017
vt 0.050052 0.595630
vt 0.746553 0.677603
vt 0.924885 0.287497
vt 0.797725 0.671259
vt 0.981025 0.313792
vt 0.715147 0.730011
vt 0.752543 0.724602
vt 0.973919 0.259495
vt 0.967002 0.332143
vt 0.934252 0.306472
vt 0.715328 0.644023
vt 0.847669 0.671259
vt 0.923848 0.259495
vt 0.753088 0.649631
vt 0.920230 0.324823
vt 0.068284 0.665533
vt 0.630362 0.705721
vt 0.712055 0.621316
vt 0.966165 0.712391
vt 0.519769 0.388732
vt 0.031375 0.663704
vt 0.592215 0.695479
vt 0.581836 0.620019
vt 0.750017 0.621843
vt 0.569690 0.667298
vt 0.581066 0.387596
vt 0.531739 0.516092
vt 0.642835 0.625048
vt 0.273616 0.509019
vt 0.070982 0.710642
vt 0.316851 0.732164
vt 0.684917 0.393810
vt 0.816625 0.338063
vt 0.644803 0.392946
vt 0.602800 0.367236
vt 0.671871 0.661666
vt 0.181146 0.386242
vt 0.855113 0.259897
vt 0.463196 0.649131
vt 0.077903 0.567886
vt 0.078993 0.554271
vt 0.322237 0.720993
vt 0.070972 0.628379
vt 0.834014 0.651825
vt 0.084160 0.512738
vt 0.838315 0.596273
vt 0.320679 0.509019
vt 0.080733 0.539302
vt 0.857365 0.464048
vt 0.931678 0.351118
vt 0.335174 0.488977
vt 0.367094 0.673623
vt 0.939667 0.384854
vt 0.199177 0.651021
vt 0.069465 0.641494
vt 0.198664 0.632807
vt 0.464209 0.672968
vt 0.199604 0.684998
vt 0.465945 0.702696
vt 0.199840 0.723459
vt 0.466714 0.715004
vt 0.832520 0.720483
vt 0.200177 0.738589
vt 0.829423 0.735282
vt 0.076340 0.580490
vt 0.826046 0.701507
vt 0.074346 0.598181
vt 0.948795 0.287497
vt 0.823088 0.670800
vt 0.959731 0.307426
vt 0.948976 0.259488
vt 0.941524 0.331189
vt 0.875347 0.491894
vt 0.391834 0.432095
vt 0.377694 0.448634
vt 0.915590 0.478791
vt 0.834644 0.488373
vt 0.326937 0.619279
vt 0.938593 0.478810
vt 0.335216 0.632947
vt 0.358601 0.463790
vt 0.348787 0.648138
vt 0.927106 0.463378
vt 0.854274 0.489560
vt 0.315804 0.619182
vt 0.212520 0.321385
vt 0.644070 0.318501
vt 0.018976 0.592450
vt 0.663817 0.276029
vt 0.129819 0.597828
vt 0.224108 0.269832
vt 0.051049 0.586785
vt 0.728499 0.676310
vt 0.099637 0.591886
vt 0.730103 0.697776
vt 0.734390 0.646904
vt 0.920230 0.314550
vt 0.981025 0.324065
vt 0.732426 0.727384
vt 0.950683 0.319044
vt 0.753088 0.663662
vt 0.920230 0.273492
vt 0.977552 0.273492
vt 0.752543 0.710647
vt 0.709822 0.714522
vt 0.796001 0.686127
vt 0.853178 0.686127
vt 0.709822 0.659561
vt 0.824792 0.685890
vt 0.948939 0.273488
vt 0.731549 0.661651
vt 0.730449 0.712624
vt 0.878850 0.297575
vt 0.096711 0.342677
vt 0.285581 0.357771
vt 0.108549 0.696221
vt 0.804979 0.293594
vt 0.708839 0.350023
vt 0.668288 0.644023
vt 0.436089 0.526409
vt 0.145034 0.385321
vt 0.919159 0.607821
vt 0.247387 0.613831
vt 0.970304 0.416607
vt 0.947808 0.608020
vt 0.704660 0.516092
vt 0.970304 0.403829
vt 0.750017 0.516884
vt 0.618892 0.516092
vt 0.920230 0.404231
vt 0.273616 0.612878
vt 0.642836 0.516847
vt 0.938584 0.415207
vt 0.924281 0.443436
vt 0.075400 0.489812
vt 0.855524 0.444402
vt 0.531739 0.629156
vt 0.934913 0.435583
vt 0.576828 0.496673
vt 0.931440 0.443424
vt 0.848383 0.444289
vt 0.592622 0.497116
vt 0.934913 0.440184
vt 0.586164 0.496977
vt 0.517161 0.630156
vt 0.920230 0.438606
vt 0.085942 0.490043
vt 0.585376 0.420489
vt 0.510472 0.551446
vt 0.582586 0.444044
vt 0.504260 0.576063
vt 0.581388 0.469636
vt 0.508131 0.602400
vt 0.103684 0.463024
vt 0.477645 0.604263
vt 0.118194 0.440373
vt 0.454885 0.581958
vt 0.129418 0.415411
vt 0.438452 0.557360
vt 0.876897 0.417052
vt 0.081901 0.462161
vt 0.882279 0.393921
vt 0.081653 0.438865
vt 0.880271 0.363315
vt 0.079604 0.408162
vt 0.633117 0.418943
vt 0.615530 0.444447
vt 0.600997 0.469910
vt 0.614559 0.469949
vt 0.862035 0.416811
vt 0.638313 0.444473
vt 0.857648 0.390640
vt 0.666106 0.417503
vt 0.844696 0.362700
vt 0.167770 0.536691
vt 0.914144 0.688660
vt 0.182151 0.561697
vt 0.913298 0.663084
vt 0.189855 0.582503
vt 0.915415 0.641729
vt 0.680787 0.549268
vt 0.966165 0.641681
vt 0.684678 0.573659
vt 0.963812 0.665813
vt 0.684995 0.596421
vt 0.964308 0.688427
vt 0.584794 0.548886
vt 0.729850 0.550060
vt 0.578610 0.572959
vt 0.734888 0.574452
vt 0.569690 0.595426
vt 0.736445 0.597214
vt 0.642060 0.590920
vt 0.247172 0.543053
vt 0.641052 0.570535
vt 0.248998 0.562413
vt 0.635978 0.552556
vt 0.245738 0.579271
s 0
usemtl Material
f 89/203/1 7/19/1 13/32/1 90/205/1
f 8/22/2 7/19/2 89/203/2 58/151/2 54/142/2 53/136/2
f 6/18/3 56/148/3 57/150/3
f 3/8/4 106/231/4 4/9/4 59/153/4 88/202/4
f 6/17/5 107/233/5 5/14/5 60/154/5 1/1/5 105/229/5 2/4/5 56/149/5
f 61/156/6 13/33/6 16/38/6 62/157/6
f 5/16/7 14/35/7 31/77/7 29/72/7
f 88/202/8 1/3/8 10/26/8 91/207/8
f 67/164/9 21/53/9 20/50/9 65/161/9
f 13/32/10 7/19/10 12/30/10 16/39/10
f 3/8/11 9/25/11 11/28/11 15/36/11
f 55/147/12 3/6/12 15/37/12 63/158/12
f 66/162/13 19/48/13 17/40/13 65/160/13
f 23/57/14 22/55/14 17/41/14 19/49/14
f 83/191/15 82/190/15 25/63/15 26/67/15
f 15/36/16 11/28/16 22/55/16 23/57/16
f 62/157/17 16/38/17 21/53/17 67/164/17
f 69/169/18 26/66/18 25/64/18 68/166/18
f 87/200/19 84/193/19 24/60/19 68/165/19
f 86/197/20 83/191/20 26/67/20 69/167/20
f 84/194/21 85/196/21 27/68/21 24/61/21
f 70/170/22 29/73/22 31/78/22 71/172/22
f 70/170/23 28/71/23 34/85/23 73/174/23
f 10/26/24 1/3/24 28/70/24 30/74/24
f 64/159/25 10/27/25 30/75/25 71/171/25
f 34/84/26 32/80/26 36/88/26 38/92/26
f 60/155/27 5/15/27 33/83/27 72/173/27
f 5/16/28 29/72/28 35/86/28 33/82/28
f 28/70/29 1/3/29 32/80/29 34/84/29
f 37/90/30 39/94/30 43/105/30 41/99/30
f 73/174/31 34/85/31 38/93/31 75/176/31
f 33/82/32 35/86/32 39/94/32 37/90/32
f 72/173/33 33/83/33 37/91/33 74/175/33
f 76/178/34 41/100/34 43/106/34 77/180/34
f 74/175/35 37/91/35 41/101/35 76/177/35
f 38/92/36 36/88/36 40/96/36 42/102/36
f 75/176/37 38/93/37 42/103/37 77/179/37
f 102/226/38 97/218/38 51/129/38 81/187/38
f 91/206/39 10/27/39 45/111/39 93/210/39
f 90/204/40 13/33/40 46/114/40 92/208/40
f 61/156/41 9/24/41 44/108/41 78/181/41
f 64/159/42 14/34/42 47/117/42 79/183/42
f 96/216/43 94/213/43 50/126/43 80/186/43
f 101/225/44 99/222/44 48/120/44 80/185/44
f 104/228/45 98/220/45 49/123/45 95/215/45
f 103/227/46 100/224/46 50/127/46 94/212/46
f 8/23/47 53/137/47 52/132/47
f 8/23/48 52/132/48 4/10/48 106/232/48 3/7/48 55/146/48 7/20/48
f 54/142/49 58/151/49 89/203/49 5/16/49 107/234/49 6/18/49 57/150/49
f 100/223/50 101/225/50 80/185/50 50/128/50
f 95/214/51 96/216/51 80/186/51 48/121/51
f 10/27/52 64/159/52 79/183/52 45/111/52
f 13/33/53 61/156/53 78/181/53 46/114/53
f 98/219/54 102/226/54 81/187/54 49/124/54
f 39/95/55 75/176/55 77/179/55 43/107/55
f 36/89/56 74/175/56 76/177/56 40/97/56
f 40/98/57 76/178/57 77/180/57 42/104/57
f 32/81/58 72/173/58 74/175/58 36/89/58
f 35/87/59 73/174/59 75/176/59 39/95/59
f 1/2/60 60/155/60 72/173/60 32/81/60
f 14/34/61 64/159/61 71/171/61 31/79/61
f 29/73/62 70/170/62 73/174/62 35/87/62
f 28/71/63 70/170/63 71/172/63 30/76/63
f 85/196/64 86/198/64 69/168/64 27/68/64
f 82/189/65 87/200/65 68/165/65 25/65/65
f 27/69/66 69/169/66 68/166/66 24/62/66
f 11/29/67 62/157/67 67/164/67 22/56/67
f 18/43/68 66/162/68 65/160/68 20/51/68
f 7/21/69 55/147/69 63/158/69 12/31/69
f 22/56/70 67/164/70 65/161/70 17/42/70
f 9/24/71 61/156/71 62/157/71 11/29/71
f 19/48/72 66/162/72 87/200/72 82/189/72
f 12/30/73 18/44/73 20/52/73 21/54/73 16/39/73
f 66/163/74 18/47/74 84/194/74 87/201/74
f 23/57/75 19/49/75 82/190/75 83/191/75
f 49/125/76 81/188/76 96/216/76 95/214/76
f 97/217/77 103/227/77 94/212/77 51/130/77
f 99/221/78 104/228/78 95/215/78 48/122/78
f 81/188/79 51/131/79 94/213/79 96/216/79
f 14/34/80 90/204/80 92/208/80 47/117/80
f 9/24/81 91/206/81 93/210/81 44/108/81
f 3/8/82 88/202/82 91/207/82 9/25/82
f 5/16/83 89/203/83 90/205/83 14/35/83
f 44/109/84 93/211/84 104/228/84 99/221/84
f 47/118/85 92/209/85 103/227/85 97/217/85
f 45/112/86 79/184/86 102/226/86 98/219/86
f 46/115/87 78/182/87 101/225/87 100/223/87
f 92/209/88 46/116/88 100/224/88 103/227/88
f 93/211/89 45/113/89 98/220/89 104/228/89
f 78/182/90 44/110/90 99/222/90 101/225/90
f 79/184/91 47/119/91 97/218/91 102/226/91
f 59/152/92 4/11/92 52/133/92 53/138/92 54/141/92 108/235/92
f 136/298/93 110/241/93 109/238/93 135/296/93
f 121/271/94 120/269/94 114/253/94 117/261/94
f 139/304/95 111/244/95 110/242/95 136/297/95
f 135/295/96 109/239/96 112/247/96 144/314/96
f 144/313/97 112/248/97 111/245/97 139/303/97
f 111/246/98 112/249/98 109/240/98 110/243/98
f 117/262/99 114/254/99 116/259/99 115/256/99 113/250/99
f 124/277/100 121/270/100 117/263/100 113/251/100
f 120/268/101 129/284/101 116/260/101 114/255/101
f 130/286/102 124/276/102 113/252/102 115/257/102
f 129/284/103 130/285/103 115/258/103 116/260/103
f 57/150/104 56/148/104 132/289/104 127/282/104
f 127/282/105 132/289/105 131/287/105 128/283/105
f 128/283/106 131/287/106 130/285/106 129/284/106
f 56/149/107 2/4/107 126/280/107 132/290/107
f 132/290/108 126/280/108 125/278/108 131/288/108
f 131/288/109 125/278/109 124/276/109 130/286/109
f 54/142/110 57/150/110 127/282/110 118/264/110
f 118/264/111 127/282/111 128/283/111 119/266/111
f 119/266/112 128/283/112 129/284/112 120/268/112
f 2/5/113 108/237/113 123/274/113 126/281/113
f 126/281/114 123/274/114 122/272/114 125/279/114
f 125/279/115 122/272/115 121/270/115 124/277/115
f 108/236/116 54/143/116 118/265/116 123/275/116
f 123/275/117 118/265/117 119/267/117 122/273/117
f 122/273/118 119/267/118 120/269/118 121/271/118
f 54/144/119 142/309/119 141/307/119 53/139/119
f 142/309/120 143/311/120 140/305/120 141/307/120
f 143/311/121 144/313/121 139/303/121 140/305/121
f 4/12/122 133/291/122 142/310/122 54/145/122
f 133/291/123 134/293/123 143/312/123 142/310/123
f 134/293/124 135/295/124 144/314/124 143/312/124
f 53/140/125 141/308/125 138/301/125 52/134/125
f 141/308/126 140/306/126 137/299/126 138/301/126
f 140/306/127 139/304/127 136/297/127 137/299/127
f 52/135/128 138/302/128 133/292/128 4/13/128
f 138/302/129 137/300/129 134/294/129 133/292/129
f 137/300/130 136/298/130 135/296/130 134/294/130
f 105/230/131 1/3/131 88/202/131 59/153/131 108/237/131 2/5/131
f 86/199/132 85/195/132 83/192/132
f 83/192/133 85/195/133 18/45/133 23/58/133
f 63/158/134 15/37/134 23/59/134 18/46/134 12/31/134
f 84/194/135 18/47/135 85/196/135
l 52 106
