# Blender 3.3.1
# www.blender.org
mtllib monstruo_3_caminar663.mtl
o monstruo_grande
v 0.520741 1.960931 0.361230
v 0.521129 1.114305 0.085491
v -0.624925 1.814412 0.179665
v -0.301974 1.202947 0.232165
v 0.803666 2.238575 0.099018
v 0.622152 1.554450 -0.243147
v -0.718847 2.024375 -0.247800
v -0.662229 1.727591 -0.324543
v -0.216357 2.379590 0.500441
v 0.328590 2.251960 0.521761
v -0.354035 2.350755 0.591075
v -1.068505 2.058533 -0.101491
v -0.181330 2.562768 0.151994
v 0.377198 2.390196 0.259672
v -0.924108 1.929646 0.061728
v -0.343101 2.641332 0.169571
v -0.703897 2.274658 0.585421
v -1.366582 1.962473 0.153409
v -1.099443 2.005070 0.362165
v -0.870813 2.600683 0.323032
v -0.531608 2.682949 0.230693
v -0.426124 2.311203 0.561666
v -1.053159 1.938705 0.054645
v -1.662955 0.695996 0.811213
v -1.539729 0.679412 0.865164
v -1.500797 0.513368 0.658870
v -1.576011 0.523491 0.625941
v 0.450427 2.159336 0.525079
v 0.641747 2.350727 0.329473
v 0.433673 2.274774 0.533412
v 0.503339 2.404156 0.319907
v 0.729319 1.879451 0.474171
v 0.935659 1.913455 0.402443
v 0.742762 1.940922 0.515265
v 0.885249 2.044914 0.420154
v 0.836766 1.693473 0.684576
v 0.949005 1.694216 0.654785
v 0.866806 1.725492 0.781186
v 0.976388 1.729354 0.746194
v 0.814015 1.601268 0.809123
v 1.042081 1.609727 0.739644
v 0.811127 1.636034 1.003100
v 1.154797 1.644892 0.893142
v -0.052002 2.422168 0.533665
v 0.156082 2.387435 0.530035
v -0.029494 2.533924 0.292292
v 0.175257 2.493917 0.290075
v 0.004838 2.721970 0.700107
v 0.209888 2.651321 0.670529
v 0.013028 2.849609 0.453151
v 0.217386 2.779298 0.422632
v -0.507485 1.201656 0.028534
v -0.395110 1.173289 -0.183295
v -0.044545 1.279218 -0.330812
v -0.676513 1.859171 -0.050978
v 0.538565 1.141709 -0.153105
v 0.319998 1.167990 -0.273450
v 0.040492 1.528413 -0.316061
v -0.026739 1.146130 0.201774
v 0.626097 2.038640 0.277551
v -0.197441 2.443846 0.378717
v -0.355371 2.605627 0.441146
v -0.861509 2.008189 -0.058621
v 0.332202 2.379798 0.418149
v -0.724348 2.503382 0.552683
v -1.275151 2.107994 0.398684
v -0.508037 2.597521 0.425271
v -1.614718 0.684677 0.867810
v -1.507366 0.408751 0.537802
v 0.564104 2.268556 0.470987
v 0.471077 2.385147 0.450153
v 0.818299 1.859389 0.398848
v 0.835010 2.004417 0.517556
v 0.891870 1.694680 0.667443
v 0.921703 1.726907 0.763622
v 0.921917 1.593459 0.753544
v 0.971242 1.618981 0.909761
v -0.041792 2.477439 0.411391
v 0.163334 2.442372 0.409289
v -0.022323 2.788192 0.577040
v 0.245089 2.713147 0.546773
v -1.428101 1.011843 0.830318
v -1.473809 0.838142 0.753386
v -1.639508 1.011443 0.738251
v -1.589794 0.853751 0.702606
v -1.518569 0.682622 0.647570
v -1.558862 0.988900 0.833745
v -0.000859 1.745270 0.520675
v 0.243797 2.127494 -0.168970
v 0.186928 2.503687 0.110781
v 0.063853 2.255384 0.653688
v 0.068005 2.514072 0.289275
v 0.056688 2.403324 0.530165
v 0.116271 2.833352 0.400332
v 0.106098 2.667507 0.722262
v 0.115442 2.799583 0.587660
v 0.210182 2.649403 0.333221
v 0.197883 2.507096 0.616718
v -0.038056 2.563396 0.637986
v -0.027794 2.707229 0.352591
v -0.049688 2.637007 0.495841
v 0.219071 2.578006 0.474860
v 0.090940 2.687961 0.322897
v 0.080022 2.524258 0.646759
v 0.609276 1.621765 0.016568
v -0.555344 1.541679 0.196540
v 0.697972 1.763099 -0.200961
v 0.166777 1.120380 0.201729
v -0.295037 0.207996 -0.272049
v -0.434112 0.154480 -0.154872
v -0.470156 0.277492 -0.371440
v -0.336012 0.279313 -0.394103
v 0.251229 -0.029550 0.024175
v 0.179936 -0.041443 -0.053459
v 0.261811 -0.033955 -0.013754
v 0.231062 -0.038916 -0.040714
v 0.191766 -0.029887 0.032618
v 0.059291 0.844475 -0.111976
v 0.111168 0.594953 -0.052063
v 0.127721 0.291375 -0.035729
v 0.152672 0.260170 0.141769
v 0.149339 0.505294 0.224019
v 0.174007 0.778913 0.271328
v 0.275442 0.252374 0.121482
v 0.357577 0.497659 0.191495
v 0.464678 0.824241 0.204649
v 0.313669 0.844017 -0.091153
v 0.288500 0.574258 -0.016831
v 0.233174 0.278405 -0.012183
v 0.297117 0.264595 0.042712
v 0.397574 0.553729 0.071501
v 0.485561 0.845740 0.014911
v -0.212229 0.941940 0.378661
v -0.223132 0.620007 0.252761
v -0.242029 0.395219 0.119294
v -0.524892 0.422747 0.097179
v -0.506662 0.690643 0.204003
v -0.499474 0.949834 0.258202
v -0.535054 0.570130 -0.131984
v -0.515621 0.816643 -0.018168
v -0.512574 0.932109 -0.005402
v -0.122318 0.855132 -0.022397
v -0.174174 0.770760 -0.050935
v -0.238682 0.588038 -0.134281
vn 0.0030 0.5954 -0.8034
vn -0.0101 0.0859 -0.9963
vn 0.4381 -0.2754 -0.8557
vn -0.3315 -0.2606 0.9068
vn 0.9251 -0.2852 0.2507
vn 0.6209 0.7379 0.2644
vn 0.2305 0.9027 -0.3633
vn 0.3964 -0.2596 0.8806
vn -0.1137 0.8951 0.4311
vn -0.1189 0.6050 -0.7873
vn -0.1598 -0.5487 0.8206
vn -0.3900 -0.8649 -0.3161
vn -0.2623 -0.1660 0.9506
vn 0.2931 -0.8832 0.3662
vn 0.9445 -0.2213 0.2428
vn 0.0128 -0.8010 0.5985
vn 0.1271 0.9608 0.2466
vn 0.0119 -0.7701 0.6379
vn -0.7234 0.2064 0.6589
vn 0.9489 0.0792 -0.3055
vn -0.8397 0.0157 -0.5429
vn 0.4816 0.7396 0.4701
vn 0.0928 0.1829 0.9787
vn -0.4181 -0.5233 0.7425
vn -0.2068 0.6257 0.7522
vn -0.9261 -0.1036 0.3628
vn 0.0666 -0.6173 -0.7839
vn 0.8115 0.5682 0.1365
vn -0.4906 -0.6032 0.6288
vn 0.7260 0.4281 -0.5382
vn -0.2152 0.6577 0.7218
vn 0.9870 0.1577 -0.0325
vn 0.2056 -0.7711 -0.6026
vn 0.1480 -0.9823 0.1151
vn -0.0460 -0.6929 -0.7196
vn -0.9206 0.3904 -0.0037
vn 0.2959 0.8397 0.4553
vn 0.9879 -0.0312 -0.1522
vn 0.3151 0.5221 0.7926
vn 0.1706 0.9846 0.0394
vn -0.2888 0.8730 0.3932
vn 0.4065 0.8705 0.2775
vn 0.0716 0.9515 0.2993
vn -0.9704 0.1241 0.2074
vn 0.2565 -0.4246 0.8683
vn -0.2127 0.5489 -0.8084
vn -0.8009 -0.4779 -0.3609
vn -0.9376 -0.2714 0.2175
vn 0.1725 0.2115 -0.9620
vn -0.9605 0.2686 -0.0735
vn 0.0598 0.7931 0.6062
vn 0.4047 0.6993 0.5893
vn -0.2506 0.8715 0.4215
vn 0.9761 -0.1846 0.1150
vn -0.0188 0.8291 0.5588
vn -0.3125 -0.7051 -0.6366
vn 0.0027 -0.9856 0.1693
vn -0.3901 -0.8070 -0.4434
vn 0.3782 0.6989 0.6070
vn -0.2074 -0.8107 -0.5475
vn -0.0983 0.9923 0.0748
vn 0.5210 0.6132 0.5937
vn 0.4277 0.2492 0.8689
vn -0.3810 0.2582 -0.8878
vn 0.0206 0.1022 0.9945
vn -0.6408 -0.6822 0.3521
vn -0.2639 0.4190 0.8688
vn -0.7161 0.6329 0.2944
vn -0.3849 -0.8487 -0.3628
vn 0.1916 0.3404 0.9206
vn 0.5653 0.5164 0.6432
vn 0.2069 0.3333 0.9198
vn -0.4184 0.6308 -0.6535
vn -0.8727 0.3836 0.3022
vn 0.9543 -0.2528 0.1593
vn 0.5095 0.6437 0.5710
vn 0.3174 0.4638 -0.8271
vn -0.2743 -0.3464 0.8971
vn 0.5202 0.8253 0.2199
vn 0.3770 0.9232 0.0748
vn -0.1369 0.5142 0.8467
vn -0.4979 -0.1419 0.8555
vn 0.3166 0.7617 -0.5653
vn -0.1762 -0.6195 0.7649
vn 0.1019 0.2088 -0.9726
vn 0.9432 -0.3276 -0.0549
vn -0.9930 0.0312 -0.1143
vn -0.0969 0.2663 -0.9590
vn 0.0076 -0.6466 0.7628
vn -0.9999 0.0128 0.0116
vn 0.9599 -0.2577 -0.1103
vn -0.0107 -0.9935 -0.1136
vn 0.1788 -0.7980 0.5755
vn -0.9779 -0.1686 0.1239
vn -0.9715 -0.2337 -0.0410
vn 0.9832 -0.0877 -0.1602
vn -0.0737 0.6394 -0.7653
vn -0.0712 -0.8720 -0.4842
vn 0.0245 -0.9909 0.1323
vn 0.1335 -0.3334 0.9333
vn 0.2304 0.0867 -0.9692
vn 0.9535 -0.1647 0.2525
vn 0.6560 0.0639 -0.7520
vn 0.4183 -0.4769 -0.7731
vn 0.5308 -0.2923 -0.7955
vn 0.6164 -0.1321 -0.7763
vn 0.9862 -0.1493 0.0712
vn 0.9498 -0.2916 0.1137
vn 0.9231 -0.3463 0.1674
vn 0.0280 -0.4644 -0.8852
vn 0.1132 -0.2432 -0.9634
vn 0.1979 -0.0471 -0.9791
vn 0.2488 0.2595 0.9331
vn 0.2034 -0.1422 0.9687
vn 0.1353 -0.3136 0.9399
vn -0.9429 -0.0112 0.3329
vn -0.9755 -0.0455 0.2154
vn -0.9909 -0.0509 0.1244
vn -0.1603 -0.5514 -0.8187
vn -0.0311 0.2105 -0.9771
vn -0.0313 0.4222 -0.9059
vn 0.9156 0.2334 0.3273
vn 0.9620 -0.2133 0.1702
vn 0.9818 -0.1882 -0.0239
vn -0.9770 0.0447 -0.2083
vn -0.9986 0.0184 0.0495
vn -0.9967 0.0435 0.0686
vn -0.4850 0.4552 0.7467
vn -0.3078 -0.2729 0.9115
vn -0.1840 -0.4196 0.8889
vn 0.4463 -0.3170 0.8368
vn 0.4101 0.4294 -0.8046
vn -0.1400 -0.4557 -0.8790
vn -0.1528 -0.7970 -0.5844
vn -0.8068 -0.1238 -0.5777
vt 0.461701 0.809397
vt 0.301930 0.729761
vt 0.094158 0.499911
vt 0.498737 0.648456
vt 0.250869 0.553264
vt 0.714874 0.752530
vt 0.627854 0.740386
vt 0.227533 0.339544
vt 0.300362 0.438253
vt 0.625828 0.633709
vt 0.338991 0.679376
vt 0.653754 0.621457
vt 0.189641 0.785401
vt 0.531284 0.815038
vt 0.232114 0.729761
vt 0.806952 0.326283
vt 0.527824 0.712310
vt 0.703640 0.331352
vt 0.725736 0.123548
vt 0.557184 0.740386
vt 0.714874 0.681901
vt 0.693091 0.138725
vt 0.558638 0.706064
vt 0.944491 0.391302
vt 0.108931 0.369345
vt 0.090202 0.443431
vt 0.952837 0.467016
vt 0.108059 0.346292
vt 0.960024 0.371234
vt 0.653754 0.712739
vt 0.761990 0.055860
vt 0.265996 0.788213
vt 0.829683 0.188590
vt 0.886815 0.394232
vt 0.909606 0.471204
vt 0.826550 0.267021
vt 0.659457 0.749480
vt 0.206417 0.267620
vt 0.238389 0.812575
vt 0.882743 0.373659
vt 0.837846 0.166681
vt 0.102618 0.289588
vt 0.957957 0.321520
vt 0.918648 0.216117
vt 0.803322 0.012950
vt 0.106348 0.638847
vt 0.232551 0.755661
vt 0.798789 0.485160
vt 0.965752 0.239402
vt 0.153968 0.222285
vt 0.894228 0.312474
vt 0.856067 0.102710
vt 0.881967 0.351902
vt 0.842627 0.144082
vt 0.107159 0.331692
vt 0.958812 0.358201
vt 0.199778 0.246429
vt 0.138792 0.619338
vt 0.232114 0.797406
vt 0.967580 0.012950
vt 0.753483 0.682459
vt 0.843831 0.469074
vt 0.256421 0.022764
vt 0.824689 0.472884
vt 0.987050 0.016155
vt 0.832147 0.505580
vt 0.295109 0.018166
vt 0.782932 0.707368
vt 0.843831 0.503254
vt 0.076417 0.467161
vt 0.958695 0.494573
vt 0.833773 0.298242
vt 0.909847 0.503107
vt 0.076958 0.454690
vt 0.951531 0.482650
vt 0.837149 0.281767
vt 0.912926 0.487172
vt 0.064432 0.532285
vt 0.298790 0.687460
vt 0.825577 0.362572
vt 0.264894 0.686125
vt 0.056614 0.518895
vt 0.959622 0.549977
vt 0.837123 0.350740
vt 0.929664 0.555276
vt 0.051257 0.577890
vt 0.291936 0.641182
vt 0.824256 0.407314
vt 0.275162 0.640522
vt 0.035793 0.577862
vt 0.964581 0.612577
vt 0.838997 0.411720
vt 0.948088 0.615681
vt 0.039898 0.592711
vt 0.301778 0.620707
vt 0.403076 0.772170
vt 0.830596 0.428615
vt 0.403076 0.737417
vt 0.267017 0.619338
vt 0.012950 0.593438
vt 0.987050 0.637067
vt 0.428919 0.781443
vt 0.856067 0.440612
vt 0.428919 0.728949
vt 0.935424 0.646785
vt 0.945356 0.412724
vt 0.357115 0.854737
vt 0.331665 0.779032
vt 0.948027 0.441601
vt 0.799629 0.752473
vt 0.327972 0.853161
vt 0.906904 0.416128
vt 0.370069 0.779032
vt 0.684668 0.778429
vt 0.909575 0.445005
vt 0.655249 0.778999
vt 0.799629 0.791035
vt 0.330193 0.729131
vt 0.557184 0.775635
vt 0.363063 0.804932
vt 0.331684 0.807874
vt 0.754247 0.751428
vt 0.586563 0.768755
vt 0.566112 0.815056
vt 0.689281 0.828405
vt 0.370405 0.729131
vt 0.754247 0.791805
vt 0.657717 0.824383
vt 0.595492 0.808176
vt 0.327830 0.637821
vt 0.590400 0.642651
vt 0.164818 0.789976
vt 0.357235 0.619338
vt 0.642851 0.190721
vt 0.562581 0.649581
vt 0.406824 0.626953
vt 0.080449 0.619338
vt 0.646201 0.239681
vt 0.727583 0.656002
vt 0.597847 0.731399
vt 0.712829 0.722239
vt 0.658284 0.323708
vt 0.527919 0.666449
vt 0.661748 0.291537
vt 0.680225 0.245582
vt 0.377645 0.696957
vt 0.285191 0.477898
vt 0.483372 0.812325
vt 0.280072 0.728266
vt 0.924330 0.393087
vt 0.921760 0.373660
vt 0.678504 0.727397
vt 0.268491 0.812575
vt 0.930826 0.465310
vt 0.923786 0.327561
vt 0.941993 0.227167
vt 0.764056 0.466512
vt 0.919524 0.351927
vt 0.977463 0.013354
vt 0.833186 0.466512
vt 0.317617 0.012950
vt 0.798789 0.722800
vt 0.839639 0.522681
vt 0.934403 0.500152
vt 0.932138 0.484309
vt 0.281656 0.689101
vt 0.944784 0.554368
vt 0.283549 0.640852
vt 0.956335 0.614129
vt 0.284323 0.620942
vt 0.399765 0.754789
vt 0.961112 0.640376
vt 0.422297 0.755187
vt 0.926130 0.414426
vt 0.350867 0.779032
vt 0.928801 0.443303
vt 0.799629 0.771754
vt 0.350773 0.728949
vt 0.557184 0.796361
vt 0.753483 0.771844
vt 0.595492 0.787450
vt 0.985581 0.067358
vt 0.238180 0.070710
vt 0.259592 0.052321
vt 0.138792 0.821791
vt 0.953366 0.057503
vt 0.765454 0.639660
vt 0.120235 0.821584
vt 0.772730 0.660154
vt 0.283154 0.037949
vt 0.784440 0.682652
vt 0.128680 0.843910
vt 0.970110 0.058056
vt 0.758353 0.637393
vt 0.180368 0.432154
vt 0.759258 0.257498
vt 0.884976 0.446549
vt 0.828099 0.241547
vt 0.971226 0.428512
vt 0.101516 0.405509
vt 0.908240 0.430567
vt 0.669958 0.778714
vt 0.946692 0.427163
vt 0.342544 0.853949
vt 0.673120 0.826722
vt 0.582140 0.817526
vt 0.570535 0.766286
vt 0.348248 0.806122
vt 0.576699 0.792002
vt 0.653753 0.802281
vt 0.776512 0.794925
vt 0.776512 0.748700
vt 0.327830 0.829868
vt 0.363063 0.830170
vt 0.327830 0.753980
vt 0.373865 0.753980
vt 0.689281 0.803194
vt 0.351093 0.753886
vt 0.776117 0.771930
vt 0.671321 0.802907
vt 0.345899 0.829874
vt 0.457498 0.727404
vt 0.165986 0.548054
vt 0.260364 0.376248
vt 0.625887 0.695531
vt 0.520555 0.743605
vt 0.734596 0.339638
vt 0.406824 0.703049
vt 0.012950 0.651015
vt 0.277407 0.507014
vt 0.206214 0.619338
vt 0.706517 0.466512
vt 0.399765 0.822801
vt 0.181517 0.620770
vt 0.619265 0.470337
vt 0.422433 0.807343
vt 0.582936 0.466512
vt 0.458892 0.202188
vt 0.422433 0.843958
vt 0.727583 0.468029
vt 0.460639 0.221880
vt 0.402692 0.843997
vt 0.717439 0.778459
vt 0.429089 0.593438
vt 0.518160 0.466685
vt 0.070962 0.817001
vt 0.726094 0.791097
vt 0.457498 0.298878
vt 0.715181 0.783741
vt 0.523936 0.466512
vt 0.458951 0.311476
vt 0.719061 0.788282
vt 0.458165 0.306435
vt 0.058766 0.817583
vt 0.726094 0.778429
vt 0.431598 0.585369
vt 0.599953 0.261833
vt 0.080449 0.668491
vt 0.542336 0.274386
vt 0.076079 0.728305
vt 0.500395 0.287212
vt 0.064936 0.773359
vt 0.389801 0.564275
vt 0.039540 0.774208
vt 0.356388 0.547019
vt 0.031995 0.737396
vt 0.319737 0.531779
vt 0.030523 0.696843
vt 0.505723 0.512116
vt 0.384015 0.580847
vt 0.506522 0.550736
vt 0.346302 0.574833
vt 0.507607 0.604105
vt 0.294291 0.566034
vt 0.610540 0.298468
vt 0.545535 0.300686
vt 0.502363 0.302883
vt 0.504402 0.313331
vt 0.517745 0.511765
vt 0.548610 0.318269
vt 0.527842 0.556627
vt 0.609940 0.323717
vt 0.531284 0.618364
vt 0.660591 0.582499
vt 0.204501 0.743892
vt 0.668589 0.550878
vt 0.206214 0.710848
vt 0.668004 0.517120
vt 0.204545 0.678125
vt 0.623877 0.525891
vt 0.164692 0.675333
vt 0.610236 0.563455
vt 0.167167 0.712219
vt 0.605277 0.597358
vt 0.166352 0.745757
vt 0.511839 0.183186
vt 0.584607 0.521652
vt 0.552303 0.182624
vt 0.569857 0.561129
vt 0.598009 0.178631
vt 0.565182 0.606784
vt 0.592158 0.236754
vt 0.721184 0.600612
vt 0.550092 0.232946
vt 0.722606 0.558204
vt 0.518921 0.225772
vt 0.713819 0.525134
s 0
usemtl Material
f 89/196/1 7/19/1 13/33/1 90/198/1
f 8/22/2 7/19/2 89/196/2 58/145/2 54/138/2 53/134/2
f 6/18/3 56/142/3 57/144/3
f 3/8/4 106/224/4 4/9/4 59/147/4 88/195/4
f 6/17/5 107/226/5 5/14/5 60/148/5 1/1/5 105/222/5 2/4/5 56/143/5
f 61/150/6 13/34/6 16/40/6 62/151/6
f 5/16/7 14/36/7 31/76/7 29/72/7
f 88/195/8 1/3/8 10/26/8 91/200/8
f 67/158/9 21/53/9 20/51/9 65/155/9
f 13/33/10 7/19/10 12/31/10 16/41/10
f 3/8/11 9/25/11 11/28/11 15/38/11
f 55/141/12 3/6/12 15/37/12 63/152/12
f 66/156/13 19/49/13 17/43/13 65/155/13
f 23/57/14 22/55/14 17/42/14 19/50/14
f 83/184/15 82/183/15 25/63/15 26/67/15
f 15/38/16 11/28/16 22/55/16 23/57/16
f 62/151/17 16/40/17 21/53/17 67/158/17
f 69/163/18 26/66/18 25/64/18 68/160/18
f 87/193/19 84/186/19 24/60/19 68/159/19
f 86/190/20 83/184/20 26/67/20 69/161/20
f 84/187/21 85/189/21 27/68/21 24/61/21
f 70/164/22 29/73/22 31/77/22 71/165/22
f 70/164/23 28/71/23 34/83/23 73/167/23
f 10/26/24 1/3/24 28/70/24 30/74/24
f 64/154/25 10/27/25 30/75/25 71/165/25
f 34/82/26 32/78/26 36/86/26 38/90/26
f 60/149/27 5/15/27 33/81/27 72/166/27
f 5/16/28 29/72/28 35/84/28 33/80/28
f 28/70/29 1/3/29 32/78/29 34/82/29
f 37/88/30 39/92/30 43/103/30 41/97/30
f 73/167/31 34/83/31 38/91/31 75/169/31
f 33/80/32 35/84/32 39/92/32 37/88/32
f 72/166/33 33/81/33 37/89/33 74/168/33
f 76/171/34 41/98/34 43/104/34 77/173/34
f 74/168/35 37/89/35 41/99/35 76/170/35
f 38/90/36 36/86/36 40/94/36 42/100/36
f 75/169/37 38/91/37 42/101/37 77/172/37
f 102/219/38 97/211/38 51/127/38 81/180/38
f 91/199/39 10/27/39 45/109/39 93/203/39
f 90/197/40 13/34/40 46/112/40 92/201/40
f 61/150/41 9/24/41 44/106/41 78/174/41
f 64/154/42 14/35/42 47/115/42 79/176/42
f 96/209/43 94/206/43 50/124/43 80/179/43
f 101/218/44 99/215/44 48/118/44 80/178/44
f 104/221/45 98/213/45 49/121/45 95/208/45
f 103/220/46 100/217/46 50/125/46 94/205/46
f 8/23/47 53/135/47 52/131/47
f 8/23/48 52/131/48 4/10/48 106/225/48 3/7/48 55/140/48 7/20/48
f 54/138/49 58/145/49 89/196/49 5/16/49 107/227/49 6/18/49 57/144/49
f 100/216/50 101/218/50 80/178/50 50/126/50
f 95/207/51 96/209/51 80/179/51 48/119/51
f 10/27/52 64/154/52 79/176/52 45/109/52
f 13/34/53 61/150/53 78/174/53 46/112/53
f 98/212/54 102/219/54 81/180/54 49/122/54
f 39/93/55 75/169/55 77/172/55 43/105/55
f 36/87/56 74/168/56 76/170/56 40/95/56
f 40/96/57 76/171/57 77/173/57 42/102/57
f 32/79/58 72/166/58 74/168/58 36/87/58
f 35/85/59 73/167/59 75/169/59 39/93/59
f 1/2/60 60/149/60 72/166/60 32/79/60
f 14/35/61 64/154/61 71/165/61 31/77/61
f 29/73/62 70/164/62 73/167/62 35/85/62
f 28/71/63 70/164/63 71/165/63 30/75/63
f 85/189/64 86/191/64 69/162/64 27/68/64
f 82/182/65 87/193/65 68/159/65 25/65/65
f 27/69/66 69/163/66 68/160/66 24/62/66
f 11/29/67 62/151/67 67/158/67 22/56/67
f 18/44/68 66/156/68 65/155/68 20/51/68
f 7/21/69 55/141/69 63/152/69 12/30/69
f 22/56/70 67/158/70 65/155/70 17/43/70
f 9/24/71 61/150/71 62/151/71 11/29/71
f 19/49/72 66/156/72 87/193/72 82/182/72
f 12/31/73 18/45/73 20/52/73 21/54/73 16/41/73
f 66/157/74 18/48/74 84/187/74 87/194/74
f 23/57/75 19/50/75 82/183/75 83/184/75
f 49/123/76 81/181/76 96/209/76 95/207/76
f 97/210/77 103/220/77 94/205/77 51/128/77
f 99/214/78 104/221/78 95/208/78 48/120/78
f 81/181/79 51/129/79 94/206/79 96/209/79
f 14/35/80 90/197/80 92/201/80 47/115/80
f 9/24/81 91/199/81 93/203/81 44/106/81
f 3/8/82 88/195/82 91/200/82 9/25/82
f 5/16/83 89/196/83 90/198/83 14/36/83
f 44/107/84 93/204/84 104/221/84 99/214/84
f 47/116/85 92/202/85 103/220/85 97/210/85
f 45/110/86 79/177/86 102/219/86 98/212/86
f 46/113/87 78/175/87 101/218/87 100/216/87
f 92/202/88 46/114/88 100/217/88 103/220/88
f 93/204/89 45/111/89 98/213/89 104/221/89
f 78/175/90 44/108/90 99/215/90 101/218/90
f 79/177/91 47/117/91 97/211/91 102/219/91
f 59/146/92 4/11/92 52/130/92 53/133/92 54/136/92 108/228/92
f 136/291/93 110/234/93 109/231/93 135/289/93
f 121/264/94 120/262/94 114/246/94 117/254/94
f 139/297/95 111/237/95 110/235/95 136/290/95
f 135/288/96 109/232/96 112/240/96 144/307/96
f 144/306/97 112/241/97 111/238/97 139/296/97
f 111/239/98 112/242/98 109/233/98 110/236/98
f 117/255/99 114/247/99 116/252/99 115/249/99 113/243/99
f 124/270/100 121/263/100 117/256/100 113/244/100
f 120/261/101 129/277/101 116/253/101 114/248/101
f 130/279/102 124/269/102 113/245/102 115/250/102
f 129/277/103 130/278/103 115/251/103 116/253/103
f 57/144/104 56/142/104 132/282/104 127/275/104
f 127/275/105 132/282/105 131/280/105 128/276/105
f 128/276/106 131/280/106 130/278/106 129/277/106
f 56/143/107 2/4/107 126/273/107 132/283/107
f 132/283/108 126/273/108 125/271/108 131/281/108
f 131/281/109 125/271/109 124/269/109 130/279/109
f 54/138/110 57/144/110 127/275/110 118/257/110
f 118/257/111 127/275/111 128/276/111 119/259/111
f 119/259/112 128/276/112 129/277/112 120/261/112
f 2/5/113 108/230/113 123/267/113 126/274/113
f 126/274/114 123/267/114 122/265/114 125/272/114
f 125/272/115 122/265/115 121/263/115 124/270/115
f 108/229/116 54/137/116 118/258/116 123/268/116
f 123/268/117 118/258/117 119/260/117 122/266/117
f 122/266/118 119/260/118 120/262/118 121/264/118
f 54/138/119 142/302/119 141/300/119 53/134/119
f 142/302/120 143/304/120 140/298/120 141/300/120
f 143/304/121 144/306/121 139/296/121 140/298/121
f 4/12/122 133/284/122 142/303/122 54/139/122
f 133/284/123 134/286/123 143/305/123 142/303/123
f 134/286/124 135/288/124 144/307/124 143/305/124
f 53/135/125 141/301/125 138/294/125 52/131/125
f 141/301/126 140/299/126 137/292/126 138/294/126
f 140/299/127 139/297/127 136/290/127 137/292/127
f 52/132/128 138/295/128 133/285/128 4/13/128
f 138/295/129 137/293/129 134/287/129 133/285/129
f 137/293/130 136/291/130 135/289/130 134/287/130
f 105/223/131 1/3/131 88/195/131 59/147/131 108/230/131 2/5/131
f 86/192/132 85/188/132 83/185/132
f 83/185/133 85/188/133 18/46/133 23/58/133
f 63/153/134 15/39/134 23/59/134 18/47/134 12/32/134
f 84/187/135 18/48/135 85/189/135
l 52 106
