# Blender 3.3.1
# www.blender.org
mtllib monstruo_3_caminar515.mtl
o monstruo_grande
v 0.455251 1.983285 0.249610
v 0.519464 1.159545 0.113675
v -0.675481 1.820384 0.165577
v -0.318853 1.134177 0.201145
v 0.620099 2.261483 -0.098500
v 0.555288 1.575912 -0.234380
v -0.779323 2.055882 -0.246744
v -0.696482 1.760797 -0.319151
v -0.238580 2.405416 0.473019
v 0.310047 2.268181 0.441337
v -0.374135 2.378568 0.567681
v -1.146545 2.139715 -0.096238
v -0.215047 2.581352 0.121492
v 0.316979 2.412956 0.181850
v -1.005815 1.992094 0.048197
v -0.370514 2.666159 0.147665
v -0.730455 2.314378 0.575484
v -1.437361 2.067799 0.173678
v -1.157875 2.085520 0.368466
v -0.888245 2.660634 0.335943
v -0.550181 2.719126 0.223496
v -0.451967 2.335519 0.537011
v -1.134733 2.021177 0.052616
v -1.784895 0.814834 0.848210
v -1.660454 0.790475 0.896079
v -1.651354 0.605022 0.703290
v -1.727309 0.619890 0.674072
v 0.466591 2.178837 0.428074
v 0.572061 2.369193 0.168812
v 0.426379 2.291802 0.438488
v 0.448653 2.426566 0.212393
v 0.707360 1.857393 0.238656
v 0.824498 1.960006 0.067542
v 0.727123 1.940288 0.291175
v 0.809956 2.055645 0.139576
v 0.887145 1.641212 0.167998
v 0.967523 1.678355 0.096458
v 0.964805 1.593515 0.221177
v 1.042833 1.642135 0.150804
v 0.894275 1.485252 0.173181
v 1.059915 1.583068 0.030071
v 0.988590 1.359520 0.292094
v 1.231677 1.506108 0.069160
v -0.073327 2.441734 0.498756
v 0.135266 2.406248 0.483553
v -0.063489 2.547948 0.253515
v 0.135354 2.509535 0.241303
v -0.025885 2.758687 0.633973
v 0.181084 2.696024 0.600074
v -0.036402 2.862931 0.376792
v 0.170780 2.800222 0.343332
v -0.505800 1.176818 -0.028239
v -0.373348 1.210464 -0.229392
v -0.039560 1.274935 -0.334137
v -0.727591 1.870402 -0.053573
v 0.550721 1.156620 -0.122932
v 0.336635 1.156025 -0.256016
v 0.024168 1.521183 -0.327845
v -0.032142 1.145524 0.196730
v 0.512525 2.066284 0.133148
v -0.223723 2.467147 0.349585
v -0.373440 2.634158 0.416812
v -0.933546 2.053806 -0.062207
v 0.295638 2.398602 0.342240
v -0.735732 2.544311 0.551628
v -1.323487 2.197798 0.419336
v -0.526399 2.630124 0.408777
v -1.734260 0.803420 0.902652
v -1.675910 0.492019 0.592507
v 0.555551 2.285679 0.328298
v 0.441738 2.403836 0.348584
v 0.723558 1.892097 0.111110
v 0.808774 2.010216 0.246483
v 0.926321 1.663734 0.132445
v 1.003635 1.616931 0.185567
v 0.957984 1.540580 0.085584
v 1.076616 1.446420 0.153026
v -0.069917 2.494079 0.375447
v 0.133418 2.458835 0.361874
v -0.062586 2.811605 0.507004
v 0.207199 2.747317 0.470052
v -1.520426 1.106081 0.825577
v -1.587441 0.932111 0.767070
v -1.736615 1.118252 0.746097
v -1.704569 0.955038 0.722014
v -1.653729 0.773706 0.678183
v -1.652247 1.096702 0.838689
v -0.023641 1.769878 0.506432
v 0.158712 2.136384 -0.203719
v 0.138259 2.517496 0.062456
v 0.065985 2.268240 0.613732
v 0.032426 2.527998 0.246505
v 0.035630 2.426546 0.491315
v 0.065718 2.847221 0.321451
v 0.079183 2.711731 0.655573
v 0.074692 2.830889 0.509183
v 0.167142 2.663173 0.268256
v 0.175347 2.544477 0.561302
v -0.062371 2.592535 0.589659
v -0.071451 2.712571 0.295205
v -0.084362 2.652664 0.443129
v 0.186242 2.603746 0.413559
v 0.046357 2.695980 0.261324
v 0.057641 2.560489 0.595187
v 0.469319 1.668617 -0.015897
v -0.578233 1.521996 0.196601
v 0.571829 1.787303 -0.230828
v 0.163458 1.159073 0.208461
v -0.244895 0.105934 -0.308967
v -0.400756 0.081554 -0.204069
v -0.401800 0.137605 -0.448626
v -0.265754 0.138324 -0.450131
v 0.309665 -0.004772 0.210206
v 0.237352 -0.022463 0.134999
v 0.319627 -0.010801 0.172291
v 0.288528 -0.017854 0.146274
v 0.250464 -0.006109 0.220015
v 0.079819 0.836873 -0.066308
v 0.130259 0.589495 0.048640
v 0.170488 0.295764 0.122072
v 0.201744 0.299316 0.301188
v 0.181546 0.554496 0.337759
v 0.186287 0.833200 0.333814
v 0.324257 0.296676 0.278201
v 0.388341 0.555489 0.299623
v 0.475215 0.886151 0.264217
v 0.335930 0.853286 -0.035582
v 0.309354 0.587973 0.082211
v 0.277092 0.294700 0.143657
v 0.343136 0.295763 0.197785
v 0.421242 0.591369 0.169932
v 0.502999 0.880909 0.075168
v -0.228669 0.844584 0.264203
v -0.216283 0.558056 0.131779
v -0.222693 0.335327 0.023854
v -0.504504 0.353887 -0.020414
v -0.497174 0.620627 0.059349
v -0.502825 0.874259 0.116169
v -0.501335 0.476189 -0.261417
v -0.492786 0.737938 -0.180782
v -0.488734 0.927509 -0.153046
v -0.095965 0.861546 -0.148732
v -0.148516 0.700495 -0.191321
v -0.205858 0.501923 -0.245796
vn -0.0176 0.5803 -0.8142
vn -0.0183 0.0890 -0.9959
vn 0.5148 -0.2255 -0.8271
vn -0.3048 -0.2544 0.9178
vn 0.9560 -0.0726 0.2843
vn 0.6602 0.7163 0.2260
vn 0.1343 0.9040 -0.4059
vn 0.5488 -0.2639 0.7932
vn -0.0182 0.8867 0.4621
vn -0.0862 0.5809 -0.8094
vn -0.1968 -0.5009 0.8428
vn -0.4737 -0.8249 -0.3086
vn -0.2164 -0.1837 0.9589
vn 0.2469 -0.9141 0.3217
vn 0.9334 -0.2941 0.2055
vn -0.0204 -0.8070 0.5901
vn 0.1897 0.9509 0.2445
vn -0.0183 -0.7125 0.7014
vn -0.6566 0.3319 0.6773
vn 0.9295 -0.0415 -0.3665
vn -0.8688 0.0549 -0.4920
vn 0.6181 0.7230 0.3087
vn 0.5266 0.1721 0.8325
vn -0.2294 -0.5237 0.8204
vn -0.0779 0.6131 0.7861
vn -0.5165 -0.5475 0.6584
vn -0.3444 -0.5344 -0.7719
vn 0.8172 0.5482 -0.1778
vn -0.2131 -0.6096 0.7635
vn 0.4927 0.8072 -0.3252
vn 0.4801 0.1271 0.8680
vn 0.7534 0.3763 -0.5392
vn -0.3228 -0.3071 -0.8953
vn -0.1284 -0.6720 -0.7294
vn -0.5648 0.1037 -0.8187
vn -0.6550 0.0944 0.7497
vn 0.7110 0.2330 0.6635
vn 0.9803 0.0066 -0.1973
vn 0.4254 0.4988 0.7552
vn 0.1894 0.9809 0.0437
vn -0.2395 0.8879 0.3928
vn 0.4477 0.8623 0.2367
vn 0.0320 0.9772 0.2097
vn -0.9652 0.0915 0.2449
vn 0.3169 -0.3208 0.8925
vn -0.2785 0.4491 -0.8490
vn -0.6876 -0.4910 -0.5349
vn -0.9270 -0.3379 0.1630
vn 0.1446 0.1047 -0.9839
vn -0.9771 0.2055 -0.0552
vn 0.0451 0.8485 0.5273
vn 0.5001 0.6844 0.5305
vn -0.1970 0.8871 0.4175
vn 0.9895 -0.1170 0.0853
vn 0.4886 0.0942 0.8674
vn -0.7643 -0.0099 -0.6448
vn -0.2282 -0.7486 -0.6225
vn -0.7056 -0.5589 -0.4357
vn 0.8081 0.4019 0.4307
vn -0.4973 -0.7133 -0.4938
vn -0.0825 0.9898 0.1159
vn 0.7555 0.5686 0.3254
vn 0.6235 0.3208 0.7130
vn -0.4135 0.2214 -0.8832
vn 0.0968 0.1808 0.9787
vn -0.6775 -0.5835 0.4479
vn -0.2322 0.4151 0.8796
vn -0.6485 0.6737 0.3545
vn -0.4667 -0.7893 -0.3990
vn 0.2721 0.3059 0.9124
vn 0.6002 0.5061 0.6194
vn 0.2951 0.2860 0.9117
vn -0.4043 0.6772 -0.6148
vn -0.8336 0.4256 0.3521
vn 0.9431 -0.3192 0.0927
vn 0.4995 0.7194 0.4827
vn 0.2521 0.3943 -0.8837
vn -0.2086 -0.2718 0.9395
vn 0.4849 0.8662 0.1207
vn 0.3836 0.9223 0.0473
vn -0.0958 0.4953 0.8634
vn -0.4642 -0.1108 0.8788
vn 0.1943 0.7576 -0.6232
vn -0.1071 -0.5529 0.8264
vn 0.0360 0.1237 -0.9917
vn 0.9575 -0.2764 -0.0826
vn -0.9954 -0.0393 -0.0879
vn -0.1574 0.1682 -0.9731
vn 0.0636 -0.5639 0.8234
vn -0.9979 -0.0383 0.0528
vn 0.9602 -0.2306 -0.1575
vn 0.0681 -0.9746 -0.2131
vn 0.1065 -0.7047 0.7014
vn -0.9641 -0.1980 0.1769
vn -0.9607 -0.2593 -0.0994
vn 0.9946 -0.0896 -0.0531
vn -0.0013 0.4870 -0.8734
vn 0.0023 -0.9747 -0.2236
vn 0.0542 -0.9819 0.1815
vn 0.1714 -0.2261 0.9589
vn 0.2039 0.0012 -0.9790
vn 0.9656 -0.0976 0.2411
vn 0.6355 0.0161 -0.7719
vn 0.4816 -0.5398 -0.6904
vn 0.5623 -0.3893 -0.7295
vn 0.6103 -0.2294 -0.7583
vn 0.9873 -0.0775 0.1384
vn 0.9604 -0.2273 0.1610
vn 0.9508 -0.2416 0.1941
vn 0.0562 -0.5432 -0.8377
vn 0.1472 -0.4032 -0.9032
vn 0.1831 -0.2178 -0.9587
vn 0.1943 0.4045 0.8937
vn 0.2090 0.0317 0.9774
vn 0.1804 -0.1255 0.9755
vn -0.9506 -0.0175 0.3099
vn -0.9746 -0.0347 0.2211
vn -0.9813 -0.0968 0.1665
vn -0.1303 -0.3205 -0.9382
vn 0.0189 0.1937 -0.9809
vn 0.0128 0.2799 -0.9599
vn 0.8884 0.1903 0.4177
vn 0.9591 -0.1735 0.2236
vn 0.9842 -0.1691 0.0523
vn -0.9559 0.0766 -0.2837
vn -0.9994 0.0031 -0.0352
vn -0.9995 0.0302 -0.0006
vn -0.6068 0.1761 0.7751
vn -0.3951 -0.3155 0.8628
vn -0.2378 -0.3419 0.9091
vn 0.5265 -0.2036 0.8255
vn 0.3940 0.3188 -0.8620
vn -0.2291 -0.4268 -0.8748
vn -0.2796 -0.7647 -0.5806
vn -0.8237 -0.0789 -0.5615
vt 0.461701 0.809397
vt 0.301930 0.729761
vt 0.094158 0.499911
vt 0.498737 0.648456
vt 0.250869 0.553264
vt 0.714874 0.752530
vt 0.627854 0.740386
vt 0.227533 0.339544
vt 0.300362 0.438253
vt 0.625828 0.633709
vt 0.338991 0.679376
vt 0.653754 0.621457
vt 0.189641 0.785401
vt 0.531284 0.815038
vt 0.232114 0.729761
vt 0.806952 0.326283
vt 0.527824 0.712310
vt 0.703640 0.331352
vt 0.725736 0.123548
vt 0.557184 0.740386
vt 0.714874 0.681901
vt 0.693091 0.138725
vt 0.558638 0.706064
vt 0.944491 0.391302
vt 0.108931 0.369345
vt 0.090202 0.443431
vt 0.952837 0.467016
vt 0.108059 0.346292
vt 0.960024 0.371234
vt 0.653754 0.712739
vt 0.761990 0.055860
vt 0.265996 0.788213
vt 0.829683 0.188590
vt 0.886815 0.394232
vt 0.909606 0.471204
vt 0.826550 0.267021
vt 0.659457 0.749480
vt 0.206417 0.267620
vt 0.238389 0.812575
vt 0.882743 0.373659
vt 0.837846 0.166681
vt 0.102618 0.289588
vt 0.957957 0.321520
vt 0.918648 0.216117
vt 0.803322 0.012950
vt 0.106348 0.638847
vt 0.232551 0.755661
vt 0.798789 0.485160
vt 0.965752 0.239402
vt 0.153968 0.222285
vt 0.894228 0.312474
vt 0.856067 0.102710
vt 0.881967 0.351902
vt 0.842627 0.144082
vt 0.107159 0.331692
vt 0.958812 0.358201
vt 0.199778 0.246429
vt 0.138792 0.619338
vt 0.232114 0.797406
vt 0.967580 0.012950
vt 0.753483 0.682459
vt 0.843831 0.469074
vt 0.256421 0.022764
vt 0.824689 0.472884
vt 0.987050 0.016155
vt 0.832147 0.505580
vt 0.295109 0.018166
vt 0.782932 0.707368
vt 0.843831 0.503254
vt 0.076417 0.467161
vt 0.958695 0.494573
vt 0.833773 0.298242
vt 0.909847 0.503107
vt 0.076958 0.454690
vt 0.951531 0.482650
vt 0.837149 0.281767
vt 0.912926 0.487172
vt 0.064432 0.532285
vt 0.298790 0.687460
vt 0.825577 0.362572
vt 0.264894 0.686125
vt 0.056614 0.518895
vt 0.959622 0.549977
vt 0.837123 0.350740
vt 0.929664 0.555276
vt 0.051257 0.577890
vt 0.291936 0.641182
vt 0.824256 0.407314
vt 0.275162 0.640522
vt 0.035793 0.577862
vt 0.964581 0.612577
vt 0.838997 0.411720
vt 0.948088 0.615681
vt 0.039898 0.592711
vt 0.301778 0.620707
vt 0.403076 0.772170
vt 0.830596 0.428615
vt 0.403076 0.737417
vt 0.267017 0.619338
vt 0.012950 0.593438
vt 0.987050 0.637067
vt 0.428919 0.781443
vt 0.856067 0.440612
vt 0.428919 0.728949
vt 0.935424 0.646785
vt 0.945356 0.412724
vt 0.357115 0.854737
vt 0.331665 0.779032
vt 0.948027 0.441601
vt 0.799629 0.752473
vt 0.327972 0.853161
vt 0.906904 0.416128
vt 0.370069 0.779032
vt 0.684668 0.778429
vt 0.909575 0.445005
vt 0.655249 0.778999
vt 0.799629 0.791035
vt 0.330193 0.729131
vt 0.557184 0.775635
vt 0.363063 0.804932
vt 0.331684 0.807874
vt 0.754247 0.751428
vt 0.586563 0.768755
vt 0.566112 0.815056
vt 0.689281 0.828405
vt 0.370405 0.729131
vt 0.754247 0.791805
vt 0.657717 0.824383
vt 0.595492 0.808176
vt 0.327830 0.637821
vt 0.590400 0.642651
vt 0.164818 0.789976
vt 0.357235 0.619338
vt 0.642851 0.190721
vt 0.562581 0.649581
vt 0.406824 0.626953
vt 0.080449 0.619338
vt 0.646201 0.239681
vt 0.727583 0.656002
vt 0.597847 0.731399
vt 0.712829 0.722239
vt 0.658284 0.323708
vt 0.527919 0.666449
vt 0.661748 0.291537
vt 0.680225 0.245582
vt 0.377645 0.696957
vt 0.285191 0.477898
vt 0.483372 0.812325
vt 0.280072 0.728266
vt 0.924330 0.393087
vt 0.921760 0.373660
vt 0.678504 0.727397
vt 0.268491 0.812575
vt 0.930826 0.465310
vt 0.923786 0.327561
vt 0.941993 0.227167
vt 0.764056 0.466512
vt 0.919524 0.351927
vt 0.977463 0.013354
vt 0.833186 0.466512
vt 0.317617 0.012950
vt 0.798789 0.722800
vt 0.839639 0.522681
vt 0.934403 0.500152
vt 0.932138 0.484309
vt 0.281656 0.689101
vt 0.944784 0.554368
vt 0.283549 0.640852
vt 0.956335 0.614129
vt 0.284323 0.620942
vt 0.399765 0.754789
vt 0.961112 0.640376
vt 0.422297 0.755187
vt 0.926130 0.414426
vt 0.350867 0.779032
vt 0.928801 0.443303
vt 0.799629 0.771754
vt 0.350773 0.728949
vt 0.557184 0.796361
vt 0.753483 0.771844
vt 0.595492 0.787450
vt 0.985581 0.067358
vt 0.238180 0.070710
vt 0.259592 0.052321
vt 0.138792 0.821791
vt 0.953366 0.057503
vt 0.765454 0.639660
vt 0.120235 0.821584
vt 0.772730 0.660154
vt 0.283154 0.037949
vt 0.784440 0.682652
vt 0.128680 0.843910
vt 0.970110 0.058056
vt 0.758353 0.637393
vt 0.180368 0.432154
vt 0.759258 0.257498
vt 0.884976 0.446549
vt 0.828099 0.241547
vt 0.971226 0.428512
vt 0.101516 0.405509
vt 0.908240 0.430567
vt 0.669958 0.778714
vt 0.946692 0.427163
vt 0.342544 0.853949
vt 0.673120 0.826722
vt 0.582140 0.817526
vt 0.570535 0.766286
vt 0.348248 0.806122
vt 0.576699 0.792002
vt 0.653753 0.802281
vt 0.776512 0.794925
vt 0.776512 0.748700
vt 0.327830 0.829868
vt 0.363063 0.830170
vt 0.327830 0.753980
vt 0.373865 0.753980
vt 0.689281 0.803194
vt 0.351093 0.753886
vt 0.776117 0.771930
vt 0.671321 0.802907
vt 0.345899 0.829874
vt 0.457498 0.727404
vt 0.165986 0.548054
vt 0.260364 0.376248
vt 0.625887 0.695531
vt 0.520555 0.743605
vt 0.734596 0.339638
vt 0.406824 0.703049
vt 0.012950 0.651015
vt 0.277407 0.507014
vt 0.206214 0.619338
vt 0.706517 0.466512
vt 0.399765 0.822801
vt 0.181517 0.620770
vt 0.619265 0.470337
vt 0.422433 0.807343
vt 0.582936 0.466512
vt 0.458892 0.202188
vt 0.422433 0.843958
vt 0.727583 0.468029
vt 0.460639 0.221880
vt 0.402692 0.843997
vt 0.717439 0.778459
vt 0.429089 0.593438
vt 0.518160 0.466685
vt 0.070962 0.817001
vt 0.726094 0.791097
vt 0.457498 0.298878
vt 0.715181 0.783741
vt 0.523936 0.466512
vt 0.458951 0.311476
vt 0.719061 0.788282
vt 0.458165 0.306435
vt 0.058766 0.817583
vt 0.726094 0.778429
vt 0.431598 0.585369
vt 0.599953 0.261833
vt 0.080449 0.668491
vt 0.542336 0.274386
vt 0.076079 0.728305
vt 0.500395 0.287212
vt 0.064936 0.773359
vt 0.389801 0.564275
vt 0.039540 0.774208
vt 0.356388 0.547019
vt 0.031995 0.737396
vt 0.319737 0.531779
vt 0.030523 0.696843
vt 0.505723 0.512116
vt 0.384015 0.580847
vt 0.506522 0.550736
vt 0.346302 0.574833
vt 0.507607 0.604105
vt 0.294291 0.566034
vt 0.610540 0.298468
vt 0.545535 0.300686
vt 0.502363 0.302883
vt 0.504402 0.313331
vt 0.517745 0.511765
vt 0.548610 0.318269
vt 0.527842 0.556627
vt 0.609940 0.323717
vt 0.531284 0.618364
vt 0.660591 0.582499
vt 0.204501 0.743892
vt 0.668589 0.550878
vt 0.206214 0.710848
vt 0.668004 0.517120
vt 0.204545 0.678125
vt 0.623877 0.525891
vt 0.164692 0.675333
vt 0.610236 0.563455
vt 0.167167 0.712219
vt 0.605277 0.597358
vt 0.166352 0.745757
vt 0.511839 0.183186
vt 0.584607 0.521652
vt 0.552303 0.182624
vt 0.569857 0.561129
vt 0.598009 0.178631
vt 0.565182 0.606784
vt 0.592158 0.236754
vt 0.721184 0.600612
vt 0.550092 0.232946
vt 0.722606 0.558204
vt 0.518921 0.225772
vt 0.713819 0.525134
s 0
usemtl Material
f 89/196/1 7/19/1 13/33/1 90/198/1
f 8/22/2 7/19/2 89/196/2 58/145/2 54/138/2 53/134/2
f 6/18/3 56/142/3 57/144/3
f 3/8/4 106/224/4 4/9/4 59/147/4 88/195/4
f 6/17/5 107/226/5 5/14/5 60/148/5 1/1/5 105/222/5 2/4/5 56/143/5
f 61/150/6 13/34/6 16/40/6 62/151/6
f 5/16/7 14/36/7 31/76/7 29/72/7
f 88/195/8 1/3/8 10/26/8 91/200/8
f 67/158/9 21/53/9 20/51/9 65/155/9
f 13/33/10 7/19/10 12/31/10 16/41/10
f 3/8/11 9/25/11 11/28/11 15/38/11
f 55/141/12 3/6/12 15/37/12 63/152/12
f 66/156/13 19/49/13 17/43/13 65/155/13
f 23/57/14 22/55/14 17/42/14 19/50/14
f 83/184/15 82/183/15 25/63/15 26/67/15
f 15/38/16 11/28/16 22/55/16 23/57/16
f 62/151/17 16/40/17 21/53/17 67/158/17
f 69/163/18 26/66/18 25/64/18 68/160/18
f 87/193/19 84/186/19 24/60/19 68/159/19
f 86/190/20 83/184/20 26/67/20 69/161/20
f 84/187/21 85/189/21 27/68/21 24/61/21
f 70/164/22 29/73/22 31/77/22 71/165/22
f 70/164/23 28/71/23 34/83/23 73/167/23
f 10/26/24 1/3/24 28/70/24 30/74/24
f 64/154/25 10/27/25 30/75/25 71/165/25
f 34/82/26 32/78/26 36/86/26 38/90/26
f 60/149/27 5/15/27 33/81/27 72/166/27
f 5/16/28 29/72/28 35/84/28 33/80/28
f 28/70/29 1/3/29 32/78/29 34/82/29
f 37/88/30 39/92/30 43/103/30 41/97/30
f 73/167/31 34/83/31 38/91/31 75/169/31
f 33/80/32 35/84/32 39/92/32 37/88/32
f 72/166/33 33/81/33 37/89/33 74/168/33
f 76/171/34 41/98/34 43/104/34 77/173/34
f 74/168/35 37/89/35 41/99/35 76/170/35
f 38/90/36 36/86/36 40/94/36 42/100/36
f 75/169/37 38/91/37 42/101/37 77/172/37
f 102/219/38 97/211/38 51/127/38 81/180/38
f 91/199/39 10/27/39 45/109/39 93/203/39
f 90/197/40 13/34/40 46/112/40 92/201/40
f 61/150/41 9/24/41 44/106/41 78/174/41
f 64/154/42 14/35/42 47/115/42 79/176/42
f 96/209/43 94/206/43 50/124/43 80/179/43
f 101/218/44 99/215/44 48/118/44 80/178/44
f 104/221/45 98/213/45 49/121/45 95/208/45
f 103/220/46 100/217/46 50/125/46 94/205/46
f 8/23/47 53/135/47 52/131/47
f 8/23/48 52/131/48 4/10/48 106/225/48 3/7/48 55/140/48 7/20/48
f 54/138/49 58/145/49 89/196/49 5/16/49 107/227/49 6/18/49 57/144/49
f 100/216/50 101/218/50 80/178/50 50/126/50
f 95/207/51 96/209/51 80/179/51 48/119/51
f 10/27/52 64/154/52 79/176/52 45/109/52
f 13/34/53 61/150/53 78/174/53 46/112/53
f 98/212/54 102/219/54 81/180/54 49/122/54
f 39/93/55 75/169/55 77/172/55 43/105/55
f 36/87/56 74/168/56 76/170/56 40/95/56
f 40/96/57 76/171/57 77/173/57 42/102/57
f 32/79/58 72/166/58 74/168/58 36/87/58
f 35/85/59 73/167/59 75/169/59 39/93/59
f 1/2/60 60/149/60 72/166/60 32/79/60
f 14/35/61 64/154/61 71/165/61 31/77/61
f 29/73/62 70/164/62 73/167/62 35/85/62
f 28/71/63 70/164/63 71/165/63 30/75/63
f 85/189/64 86/191/64 69/162/64 27/68/64
f 82/182/65 87/193/65 68/159/65 25/65/65
f 27/69/66 69/163/66 68/160/66 24/62/66
f 11/29/67 62/151/67 67/158/67 22/56/67
f 18/44/68 66/156/68 65/155/68 20/51/68
f 7/21/69 55/141/69 63/152/69 12/30/69
f 22/56/70 67/158/70 65/155/70 17/43/70
f 9/24/71 61/150/71 62/151/71 11/29/71
f 19/49/72 66/156/72 87/193/72 82/182/72
f 12/31/73 18/45/73 20/52/73 21/54/73 16/41/73
f 66/157/74 18/48/74 84/187/74 87/194/74
f 23/57/75 19/50/75 82/183/75 83/184/75
f 49/123/76 81/181/76 96/209/76 95/207/76
f 97/210/77 103/220/77 94/205/77 51/128/77
f 99/214/78 104/221/78 95/208/78 48/120/78
f 81/181/79 51/129/79 94/206/79 96/209/79
f 14/35/80 90/197/80 92/201/80 47/115/80
f 9/24/81 91/199/81 93/203/81 44/106/81
f 3/8/82 88/195/82 91/200/82 9/25/82
f 5/16/83 89/196/83 90/198/83 14/36/83
f 44/107/84 93/204/84 104/221/84 99/214/84
f 47/116/85 92/202/85 103/220/85 97/210/85
f 45/110/86 79/177/86 102/219/86 98/212/86
f 46/113/87 78/175/87 101/218/87 100/216/87
f 92/202/88 46/114/88 100/217/88 103/220/88
f 93/204/89 45/111/89 98/213/89 104/221/89
f 78/175/90 44/108/90 99/215/90 101/218/90
f 79/177/91 47/117/91 97/211/91 102/219/91
f 59/146/92 4/11/92 52/130/92 53/133/92 54/136/92 108/228/92
f 136/291/93 110/234/93 109/231/93 135/289/93
f 121/264/94 120/262/94 114/246/94 117/254/94
f 139/297/95 111/237/95 110/235/95 136/290/95
f 135/288/96 109/232/96 112/240/96 144/307/96
f 144/306/97 112/241/97 111/238/97 139/296/97
f 111/239/98 112/242/98 109/233/98 110/236/98
f 117/255/99 114/247/99 116/252/99 115/249/99 113/243/99
f 124/270/100 121/263/100 117/256/100 113/244/100
f 120/261/101 129/277/101 116/253/101 114/248/101
f 130/279/102 124/269/102 113/245/102 115/250/102
f 129/277/103 130/278/103 115/251/103 116/253/103
f 57/144/104 56/142/104 132/282/104 127/275/104
f 127/275/105 132/282/105 131/280/105 128/276/105
f 128/276/106 131/280/106 130/278/106 129/277/106
f 56/143/107 2/4/107 126/273/107 132/283/107
f 132/283/108 126/273/108 125/271/108 131/281/108
f 131/281/109 125/271/109 124/269/109 130/279/109
f 54/138/110 57/144/110 127/275/110 118/257/110
f 118/257/111 127/275/111 128/276/111 119/259/111
f 119/259/112 128/276/112 129/277/112 120/261/112
f 2/5/113 108/230/113 123/267/113 126/274/113
f 126/274/114 123/267/114 122/265/114 125/272/114
f 125/272/115 122/265/115 121/263/115 124/270/115
f 108/229/116 54/137/116 118/258/116 123/268/116
f 123/268/117 118/258/117 119/260/117 122/266/117
f 122/266/118 119/260/118 120/262/118 121/264/118
f 54/138/119 142/302/119 141/300/119 53/134/119
f 142/302/120 143/304/120 140/298/120 141/300/120
f 143/304/121 144/306/121 139/296/121 140/298/121
f 4/12/122 133/284/122 142/303/122 54/139/122
f 133/284/123 134/286/123 143/305/123 142/303/123
f 134/286/124 135/288/124 144/307/124 143/305/124
f 53/135/125 141/301/125 138/294/125 52/131/125
f 141/301/126 140/299/126 137/292/126 138/294/126
f 140/299/127 139/297/127 136/290/127 137/292/127
f 52/132/128 138/295/128 133/285/128 4/13/128
f 138/295/129 137/293/129 134/287/129 133/285/129
f 137/293/130 136/291/130 135/289/130 134/287/130
f 105/223/131 1/3/131 88/195/131 59/147/131 108/230/131 2/5/131
f 86/192/132 85/188/132 83/185/132
f 83/185/133 85/188/133 18/46/133 23/58/133
f 63/153/134 15/39/134 23/59/134 18/47/134 12/32/134
f 84/187/135 18/48/135 85/189/135
l 52 106
