# Blender 3.3.1
# www.blender.org
mtllib monstruo_3_caminar617.mtl
o monstruo_grande
v 0.324425 2.029843 0.208298
v 0.526386 1.209943 0.084905
v -0.736225 1.710263 0.214981
v -0.287423 1.100264 0.219426
v 0.442082 2.326652 -0.141094
v 0.504456 1.626053 -0.256293
v -0.892348 1.936799 -0.192316
v -0.773512 1.658882 -0.269038
v -0.371458 2.374935 0.487318
v 0.188773 2.297066 0.424681
v -0.499457 2.338190 0.592007
v -1.254592 1.971921 -0.025701
v -0.383485 2.539939 0.129231
v 0.161912 2.439460 0.168041
v -1.092493 1.838547 0.124562
v -0.546951 2.605625 0.157624
v -0.848227 2.241695 0.621221
v -1.534035 1.894047 0.250531
v -1.249185 1.940464 0.444033
v -1.049319 2.548870 0.360069
v -0.728273 2.638769 0.233326
v -0.575105 2.290211 0.571225
v -1.225484 1.857964 0.131047
v -1.800544 0.635964 0.942586
v -1.672604 0.616447 0.982847
v -1.662890 0.443157 0.779084
v -1.740981 0.455070 0.754510
v 0.349629 2.218390 0.393699
v 0.418903 2.421858 0.132770
v 0.302248 2.331506 0.412430
v 0.292971 2.468550 0.187494
v 0.576108 1.915355 0.165681
v 0.667924 2.022236 -0.016976
v 0.600351 1.994551 0.216314
v 0.661430 2.118045 0.061257
v 0.752172 1.698222 0.074572
v 0.816980 1.739327 -0.010390
v 0.841356 1.662068 0.118275
v 0.902998 1.712407 0.034424
v 0.776498 1.544374 0.087606
v 0.908192 1.646579 -0.084345
v 0.899557 1.437132 0.198059
v 1.091476 1.589962 -0.066684
v -0.209876 2.435549 0.502602
v 0.000540 2.412420 0.480320
v -0.218733 2.533844 0.255863
v -0.017084 2.510839 0.236422
v -0.151984 2.749143 0.646332
v 0.052477 2.683754 0.603535
v -0.169062 2.862542 0.393021
v 0.034104 2.797688 0.349354
v -0.498920 1.121073 0.009523
v -0.389065 1.158426 -0.204025
v -0.057308 1.274079 -0.332792
v -0.801381 1.755584 -0.003038
v 0.546999 1.211570 -0.153266
v 0.325703 1.205276 -0.275345
v -0.029186 1.526042 -0.324386
v -0.007684 1.148360 0.194692
v 0.365008 2.119308 0.089812
v -0.369251 2.433613 0.361354
v -0.534653 2.584632 0.430296
v -1.028763 1.907949 0.003403
v 0.152580 2.424038 0.328291
v -0.883973 2.467540 0.578184
v -1.425352 2.040374 0.489842
v -0.686800 2.563385 0.429073
v -1.746591 0.624534 0.993739
v -1.686638 0.335374 0.663047
v 0.423557 2.331296 0.289307
v 0.298213 2.445067 0.322802
v 0.574963 1.951728 0.039439
v 0.673846 2.068086 0.165789
v 0.783216 1.721926 0.032291
v 0.872012 1.686480 0.075986
v 0.820845 1.599120 -0.011536
v 0.957154 1.521859 0.042676
v -0.214410 2.484020 0.377784
v -0.009512 2.462609 0.357713
v -0.191632 2.807239 0.522552
v 0.074871 2.739583 0.474083
v -1.554695 0.943404 0.924695
v -1.614583 0.769333 0.859177
v -1.775267 0.947557 0.856381
v -1.735004 0.787703 0.821283
v -1.676208 0.612549 0.764267
v -1.684909 0.925383 0.943570
v -0.077618 1.760590 0.514369
v 0.013118 2.140336 -0.197555
v -0.026501 2.513256 0.056476
v -0.041518 2.271179 0.615622
v -0.119308 2.521069 0.244137
v -0.101150 2.422756 0.490797
v -0.070400 2.846797 0.332770
v -0.047260 2.699435 0.662841
v -0.053990 2.823788 0.520926
v 0.022566 2.664000 0.268159
v 0.041421 2.536654 0.558784
v -0.193898 2.585707 0.596897
v -0.214693 2.712750 0.304767
v -0.220278 2.650488 0.452572
v 0.047697 2.600240 0.412012
v -0.097919 2.696659 0.265969
v -0.074026 2.551274 0.597740
v 0.381112 1.727334 -0.036097
v -0.595587 1.436084 0.229005
v 0.483090 1.846238 -0.254187
v 0.180356 1.185644 0.197254
v -0.197440 -0.003448 -0.113711
v -0.341896 0.001799 0.008535
v -0.367593 0.002819 -0.241169
v -0.232424 -0.002285 -0.255821
v 0.361429 0.017793 0.291763
v 0.278937 -0.009841 0.231573
v 0.365683 0.005915 0.254169
v 0.331123 -0.004455 0.234385
v 0.304401 0.018974 0.310245
v 0.091895 0.856619 -0.085154
v 0.137484 0.582731 0.072874
v 0.202680 0.302772 0.184602
v 0.264095 0.331730 0.353323
v 0.238589 0.588986 0.358901
v 0.229537 0.864510 0.317443
v 0.380799 0.328745 0.309552
v 0.434832 0.588422 0.284072
v 0.506226 0.927332 0.216983
v 0.349042 0.891736 -0.072593
v 0.319544 0.590297 0.077019
v 0.311295 0.307128 0.186946
v 0.385557 0.317166 0.227899
v 0.444023 0.607738 0.144409
v 0.521556 0.926902 0.027609
v -0.170168 0.826654 0.285112
v -0.144306 0.544867 0.200867
v -0.140001 0.307742 0.150768
v -0.425224 0.298225 0.140373
v -0.436035 0.572457 0.153470
v -0.459076 0.827543 0.163207
v -0.461103 0.360243 -0.120042
v -0.469679 0.636737 -0.108862
v -0.475969 0.866500 -0.112136
v -0.079861 0.828311 -0.146669
v -0.126840 0.621308 -0.156732
v -0.169707 0.407818 -0.149323
vn -0.1279 0.5487 -0.8262
vn -0.0904 0.0890 -0.9919
vn 0.4800 -0.1649 -0.8616
vn -0.2112 -0.3109 0.9267
vn 0.9456 0.0867 0.3135
vn 0.5769 0.7987 0.1711
vn 0.0090 0.9195 -0.3930
vn 0.6627 -0.2089 0.7191
vn -0.1127 0.9093 0.4006
vn -0.2022 0.5340 -0.8210
vn -0.0680 -0.4946 0.8665
vn -0.3793 -0.8770 -0.2950
vn -0.1787 -0.1246 0.9760
vn 0.3683 -0.8482 0.3806
vn 0.9581 -0.2486 0.1422
vn 0.0538 -0.7326 0.6785
vn 0.0779 0.9782 0.1923
vn 0.0588 -0.7511 0.6576
vn -0.6383 0.2526 0.7272
vn 0.9101 0.0354 -0.4128
vn -0.8946 0.0300 -0.4459
vn 0.5844 0.7623 0.2781
vn 0.6153 0.1556 0.7728
vn -0.1175 -0.5625 0.8184
vn -0.0745 0.6022 0.7948
vn -0.3981 -0.5538 0.7313
vn -0.4268 -0.5107 -0.7464
vn 0.7778 0.5776 -0.2478
vn -0.1047 -0.6467 0.7555
vn 0.3576 0.8233 -0.4407
vn 0.5788 0.1449 0.8025
vn 0.6571 0.3917 -0.6440
vn -0.4439 -0.3084 -0.8413
vn -0.1593 -0.7344 -0.6597
vn -0.6864 -0.0130 -0.7271
vn -0.5474 0.0847 0.8325
vn 0.7699 0.3472 0.5354
vn 0.9701 -0.0102 -0.2426
vn 0.4085 0.5651 0.7168
vn 0.0817 0.9964 -0.0241
vn -0.3403 0.8636 0.3721
vn 0.3537 0.9119 0.2084
vn 0.0595 0.9689 0.2400
vn -0.9535 0.1047 0.2828
vn 0.3435 -0.3658 0.8650
vn -0.3016 0.4949 -0.8150
vn -0.6787 -0.5799 -0.4506
vn -0.8605 -0.4633 0.2117
vn 0.0687 0.1212 -0.9902
vn -0.9720 0.2350 0.0010
vn 0.0792 0.8282 0.5549
vn 0.4471 0.7392 0.5036
vn -0.2985 0.8674 0.3982
vn 0.9884 -0.1466 0.0392
vn 0.5948 0.2027 0.7779
vn -0.8430 -0.1307 -0.5219
vn -0.2347 -0.8098 -0.5377
vn -0.7493 -0.5704 -0.3363
vn 0.8448 0.4234 0.3273
vn -0.5294 -0.7168 -0.4539
vn -0.1830 0.9750 0.1258
vn 0.7712 0.5802 0.2619
vn 0.6660 0.3561 0.6555
vn -0.4706 0.2461 -0.8473
vn 0.1368 0.1303 0.9820
vn -0.6189 -0.6477 0.4443
vn -0.2193 0.4456 0.8680
vn -0.7127 0.6137 0.3397
vn -0.3809 -0.8387 -0.3891
vn 0.2500 0.4009 0.8813
vn 0.5680 0.5963 0.5673
vn 0.2778 0.3255 0.9038
vn -0.4901 0.5798 -0.6509
vn -0.8440 0.3927 0.3652
vn 0.9594 -0.2676 0.0896
vn 0.5300 0.6921 0.4901
vn 0.2277 0.4254 -0.8759
vn -0.1856 -0.3027 0.9348
vn 0.5045 0.8537 0.1291
vn 0.2783 0.9605 -0.0017
vn -0.0984 0.4934 0.8642
vn -0.3994 -0.1512 0.9042
vn 0.0348 0.7665 -0.6413
vn -0.0798 -0.5754 0.8139
vn 0.0063 0.1597 -0.9871
vn 0.9484 -0.2871 -0.1345
vn -1.0000 -0.0031 -0.0060
vn -0.1966 0.2054 -0.9587
vn 0.1095 -0.6069 0.7872
vn -0.9943 -0.0239 0.1042
vn 0.9430 -0.2486 -0.2213
vn 0.1782 -0.9606 -0.2133
vn 0.2191 -0.5265 0.8215
vn -0.9170 -0.1687 0.3614
vn -0.9541 -0.2888 0.0795
vn 0.9835 -0.0804 -0.1623
vn -0.1257 0.2774 -0.9525
vn -0.0369 -0.9993 0.0002
vn 0.0858 -0.9439 0.3190
vn 0.3345 -0.0804 0.9390
vn 0.0404 -0.1433 -0.9888
vn 0.9943 -0.0615 0.0872
vn 0.4993 -0.1019 -0.8604
vn 0.4694 -0.4778 -0.7425
vn 0.5020 -0.4128 -0.7600
vn 0.4866 -0.3294 -0.8091
vn 0.9959 -0.0339 0.0836
vn 0.9771 -0.2040 0.0611
vn 0.9803 -0.1895 0.0552
vn 0.0667 -0.5119 -0.8564
vn 0.0790 -0.4683 -0.8800
vn 0.0357 -0.3629 -0.9311
vn 0.2502 0.3835 0.8890
vn 0.3292 0.1318 0.9350
vn 0.3545 0.0164 0.9349
vn -0.9276 -0.0661 0.3676
vn -0.9447 0.0248 0.3270
vn -0.9356 -0.0905 0.3414
vn -0.1740 -0.3246 -0.9297
vn -0.1090 0.0256 -0.9937
vn -0.1215 0.0161 -0.9925
vn 0.9101 0.2384 0.3389
vn 0.9894 -0.0675 0.1284
vn 0.9959 -0.0814 -0.0404
vn -0.9824 0.0007 -0.1867
vn -0.9948 -0.0613 0.0817
vn -0.9917 -0.0403 0.1222
vn -0.5395 0.1696 0.8247
vn -0.2834 -0.1904 0.9399
vn -0.1028 -0.1250 0.9868
vn 0.6048 -0.0987 0.7902
vn 0.3300 0.3905 -0.8594
vn -0.2217 -0.4518 -0.8642
vn -0.2280 -0.8087 -0.5422
vn -0.8567 -0.1049 -0.5050
vt 0.461701 0.809397
vt 0.301930 0.729761
vt 0.094158 0.499911
vt 0.498737 0.648456
vt 0.250869 0.553264
vt 0.714874 0.752530
vt 0.627854 0.740386
vt 0.227533 0.339544
vt 0.300362 0.438253
vt 0.625828 0.633709
vt 0.338991 0.679376
vt 0.653754 0.621457
vt 0.189641 0.785401
vt 0.531284 0.815038
vt 0.232114 0.729761
vt 0.806952 0.326283
vt 0.527824 0.712310
vt 0.703640 0.331352
vt 0.725736 0.123548
vt 0.557184 0.740386
vt 0.714874 0.681901
vt 0.693091 0.138725
vt 0.558638 0.706064
vt 0.944491 0.391302
vt 0.108931 0.369345
vt 0.090202 0.443431
vt 0.952837 0.467016
vt 0.108059 0.346292
vt 0.960024 0.371234
vt 0.653754 0.712739
vt 0.761990 0.055860
vt 0.265996 0.788213
vt 0.829683 0.188590
vt 0.886815 0.394232
vt 0.909606 0.471204
vt 0.826550 0.267021
vt 0.659457 0.749480
vt 0.206417 0.267620
vt 0.238389 0.812575
vt 0.882743 0.373659
vt 0.837846 0.166681
vt 0.102618 0.289588
vt 0.957957 0.321520
vt 0.918648 0.216117
vt 0.803322 0.012950
vt 0.106348 0.638847
vt 0.232551 0.755661
vt 0.798789 0.485160
vt 0.965752 0.239402
vt 0.153968 0.222285
vt 0.894228 0.312474
vt 0.856067 0.102710
vt 0.881967 0.351902
vt 0.842627 0.144082
vt 0.107159 0.331692
vt 0.958812 0.358201
vt 0.199778 0.246429
vt 0.138792 0.619338
vt 0.232114 0.797406
vt 0.967580 0.012950
vt 0.753483 0.682459
vt 0.843831 0.469074
vt 0.256421 0.022764
vt 0.824689 0.472884
vt 0.987050 0.016155
vt 0.832147 0.505580
vt 0.295109 0.018166
vt 0.782932 0.707368
vt 0.843831 0.503254
vt 0.076417 0.467161
vt 0.958695 0.494573
vt 0.833773 0.298242
vt 0.909847 0.503107
vt 0.076958 0.454690
vt 0.951531 0.482650
vt 0.837149 0.281767
vt 0.912926 0.487172
vt 0.064432 0.532285
vt 0.298790 0.687460
vt 0.825577 0.362572
vt 0.264894 0.686125
vt 0.056614 0.518895
vt 0.959622 0.549977
vt 0.837123 0.350740
vt 0.929664 0.555276
vt 0.051257 0.577890
vt 0.291936 0.641182
vt 0.824256 0.407314
vt 0.275162 0.640522
vt 0.035793 0.577862
vt 0.964581 0.612577
vt 0.838997 0.411720
vt 0.948088 0.615681
vt 0.039898 0.592711
vt 0.301778 0.620707
vt 0.403076 0.772170
vt 0.830596 0.428615
vt 0.403076 0.737417
vt 0.267017 0.619338
vt 0.012950 0.593438
vt 0.987050 0.637067
vt 0.428919 0.781443
vt 0.856067 0.440612
vt 0.428919 0.728949
vt 0.935424 0.646785
vt 0.945356 0.412724
vt 0.357115 0.854737
vt 0.331665 0.779032
vt 0.948027 0.441601
vt 0.799629 0.752473
vt 0.327972 0.853161
vt 0.906904 0.416128
vt 0.370069 0.779032
vt 0.684668 0.778429
vt 0.909575 0.445005
vt 0.655249 0.778999
vt 0.799629 0.791035
vt 0.330193 0.729131
vt 0.557184 0.775635
vt 0.363063 0.804932
vt 0.331684 0.807874
vt 0.754247 0.751428
vt 0.586563 0.768755
vt 0.566112 0.815056
vt 0.689281 0.828405
vt 0.370405 0.729131
vt 0.754247 0.791805
vt 0.657717 0.824383
vt 0.595492 0.808176
vt 0.327830 0.637821
vt 0.590400 0.642651
vt 0.164818 0.789976
vt 0.357235 0.619338
vt 0.642851 0.190721
vt 0.562581 0.649581
vt 0.406824 0.626953
vt 0.080449 0.619338
vt 0.646201 0.239681
vt 0.727583 0.656002
vt 0.597847 0.731399
vt 0.712829 0.722239
vt 0.658284 0.323708
vt 0.527919 0.666449
vt 0.661748 0.291537
vt 0.680225 0.245582
vt 0.377645 0.696957
vt 0.285191 0.477898
vt 0.483372 0.812325
vt 0.280072 0.728266
vt 0.924330 0.393087
vt 0.921760 0.373660
vt 0.678504 0.727397
vt 0.268491 0.812575
vt 0.930826 0.465310
vt 0.923786 0.327561
vt 0.941993 0.227167
vt 0.764056 0.466512
vt 0.919524 0.351927
vt 0.977463 0.013354
vt 0.833186 0.466512
vt 0.317617 0.012950
vt 0.798789 0.722800
vt 0.839639 0.522681
vt 0.934403 0.500152
vt 0.932138 0.484309
vt 0.281656 0.689101
vt 0.944784 0.554368
vt 0.283549 0.640852
vt 0.956335 0.614129
vt 0.284323 0.620942
vt 0.399765 0.754789
vt 0.961112 0.640376
vt 0.422297 0.755187
vt 0.926130 0.414426
vt 0.350867 0.779032
vt 0.928801 0.443303
vt 0.799629 0.771754
vt 0.350773 0.728949
vt 0.557184 0.796361
vt 0.753483 0.771844
vt 0.595492 0.787450
vt 0.985581 0.067358
vt 0.238180 0.070710
vt 0.259592 0.052321
vt 0.138792 0.821791
vt 0.953366 0.057503
vt 0.765454 0.639660
vt 0.120235 0.821584
vt 0.772730 0.660154
vt 0.283154 0.037949
vt 0.784440 0.682652
vt 0.128680 0.843910
vt 0.970110 0.058056
vt 0.758353 0.637393
vt 0.180368 0.432154
vt 0.759258 0.257498
vt 0.884976 0.446549
vt 0.828099 0.241547
vt 0.971226 0.428512
vt 0.101516 0.405509
vt 0.908240 0.430567
vt 0.669958 0.778714
vt 0.946692 0.427163
vt 0.342544 0.853949
vt 0.673120 0.826722
vt 0.582140 0.817526
vt 0.570535 0.766286
vt 0.348248 0.806122
vt 0.576699 0.792002
vt 0.653753 0.802281
vt 0.776512 0.794925
vt 0.776512 0.748700
vt 0.327830 0.829868
vt 0.363063 0.830170
vt 0.327830 0.753980
vt 0.373865 0.753980
vt 0.689281 0.803194
vt 0.351093 0.753886
vt 0.776117 0.771930
vt 0.671321 0.802907
vt 0.345899 0.829874
vt 0.457498 0.727404
vt 0.165986 0.548054
vt 0.260364 0.376248
vt 0.625887 0.695531
vt 0.520555 0.743605
vt 0.734596 0.339638
vt 0.406824 0.703049
vt 0.012950 0.651015
vt 0.277407 0.507014
vt 0.206214 0.619338
vt 0.706517 0.466512
vt 0.399765 0.822801
vt 0.181517 0.620770
vt 0.619265 0.470337
vt 0.422433 0.807343
vt 0.582936 0.466512
vt 0.458892 0.202188
vt 0.422433 0.843958
vt 0.727583 0.468029
vt 0.460639 0.221880
vt 0.402692 0.843997
vt 0.717439 0.778459
vt 0.429089 0.593438
vt 0.518160 0.466685
vt 0.070962 0.817001
vt 0.726094 0.791097
vt 0.457498 0.298878
vt 0.715181 0.783741
vt 0.523936 0.466512
vt 0.458951 0.311476
vt 0.719061 0.788282
vt 0.458165 0.306435
vt 0.058766 0.817583
vt 0.726094 0.778429
vt 0.431598 0.585369
vt 0.599953 0.261833
vt 0.080449 0.668491
vt 0.542336 0.274386
vt 0.076079 0.728305
vt 0.500395 0.287212
vt 0.064936 0.773359
vt 0.389801 0.564275
vt 0.039540 0.774208
vt 0.356388 0.547019
vt 0.031995 0.737396
vt 0.319737 0.531779
vt 0.030523 0.696843
vt 0.505723 0.512116
vt 0.384015 0.580847
vt 0.506522 0.550736
vt 0.346302 0.574833
vt 0.507607 0.604105
vt 0.294291 0.566034
vt 0.610540 0.298468
vt 0.545535 0.300686
vt 0.502363 0.302883
vt 0.504402 0.313331
vt 0.517745 0.511765
vt 0.548610 0.318269
vt 0.527842 0.556627
vt 0.609940 0.323717
vt 0.531284 0.618364
vt 0.660591 0.582499
vt 0.204501 0.743892
vt 0.668589 0.550878
vt 0.206214 0.710848
vt 0.668004 0.517120
vt 0.204545 0.678125
vt 0.623877 0.525891
vt 0.164692 0.675333
vt 0.610236 0.563455
vt 0.167167 0.712219
vt 0.605277 0.597358
vt 0.166352 0.745757
vt 0.511839 0.183186
vt 0.584607 0.521652
vt 0.552303 0.182624
vt 0.569857 0.561129
vt 0.598009 0.178631
vt 0.565182 0.606784
vt 0.592158 0.236754
vt 0.721184 0.600612
vt 0.550092 0.232946
vt 0.722606 0.558204
vt 0.518921 0.225772
vt 0.713819 0.525134
s 0
usemtl Material
f 89/196/1 7/19/1 13/33/1 90/198/1
f 8/22/2 7/19/2 89/196/2 58/145/2 54/138/2 53/134/2
f 6/18/3 56/142/3 57/144/3
f 3/8/4 106/224/4 4/9/4 59/147/4 88/195/4
f 6/17/5 107/226/5 5/14/5 60/148/5 1/1/5 105/222/5 2/4/5 56/143/5
f 61/150/6 13/34/6 16/40/6 62/151/6
f 5/16/7 14/36/7 31/76/7 29/72/7
f 88/195/8 1/3/8 10/26/8 91/200/8
f 67/158/9 21/53/9 20/51/9 65/155/9
f 13/33/10 7/19/10 12/31/10 16/41/10
f 3/8/11 9/25/11 11/28/11 15/38/11
f 55/141/12 3/6/12 15/37/12 63/152/12
f 66/156/13 19/49/13 17/43/13 65/155/13
f 23/57/14 22/55/14 17/42/14 19/50/14
f 83/184/15 82/183/15 25/63/15 26/67/15
f 15/38/16 11/28/16 22/55/16 23/57/16
f 62/151/17 16/40/17 21/53/17 67/158/17
f 69/163/18 26/66/18 25/64/18 68/160/18
f 87/193/19 84/186/19 24/60/19 68/159/19
f 86/190/20 83/184/20 26/67/20 69/161/20
f 84/187/21 85/189/21 27/68/21 24/61/21
f 70/164/22 29/73/22 31/77/22 71/165/22
f 70/164/23 28/71/23 34/83/23 73/167/23
f 10/26/24 1/3/24 28/70/24 30/74/24
f 64/154/25 10/27/25 30/75/25 71/165/25
f 34/82/26 32/78/26 36/86/26 38/90/26
f 60/149/27 5/15/27 33/81/27 72/166/27
f 5/16/28 29/72/28 35/84/28 33/80/28
f 28/70/29 1/3/29 32/78/29 34/82/29
f 37/88/30 39/92/30 43/103/30 41/97/30
f 73/167/31 34/83/31 38/91/31 75/169/31
f 33/80/32 35/84/32 39/92/32 37/88/32
f 72/166/33 33/81/33 37/89/33 74/168/33
f 76/171/34 41/98/34 43/104/34 77/173/34
f 74/168/35 37/89/35 41/99/35 76/170/35
f 38/90/36 36/86/36 40/94/36 42/100/36
f 75/169/37 38/91/37 42/101/37 77/172/37
f 102/219/38 97/211/38 51/127/38 81/180/38
f 91/199/39 10/27/39 45/109/39 93/203/39
f 90/197/40 13/34/40 46/112/40 92/201/40
f 61/150/41 9/24/41 44/106/41 78/174/41
f 64/154/42 14/35/42 47/115/42 79/176/42
f 96/209/43 94/206/43 50/124/43 80/179/43
f 101/218/44 99/215/44 48/118/44 80/178/44
f 104/221/45 98/213/45 49/121/45 95/208/45
f 103/220/46 100/217/46 50/125/46 94/205/46
f 8/23/47 53/135/47 52/131/47
f 8/23/48 52/131/48 4/10/48 106/225/48 3/7/48 55/140/48 7/20/48
f 54/138/49 58/145/49 89/196/49 5/16/49 107/227/49 6/18/49 57/144/49
f 100/216/50 101/218/50 80/178/50 50/126/50
f 95/207/51 96/209/51 80/179/51 48/119/51
f 10/27/52 64/154/52 79/176/52 45/109/52
f 13/34/53 61/150/53 78/174/53 46/112/53
f 98/212/54 102/219/54 81/180/54 49/122/54
f 39/93/55 75/169/55 77/172/55 43/105/55
f 36/87/56 74/168/56 76/170/56 40/95/56
f 40/96/57 76/171/57 77/173/57 42/102/57
f 32/79/58 72/166/58 74/168/58 36/87/58
f 35/85/59 73/167/59 75/169/59 39/93/59
f 1/2/60 60/149/60 72/166/60 32/79/60
f 14/35/61 64/154/61 71/165/61 31/77/61
f 29/73/62 70/164/62 73/167/62 35/85/62
f 28/71/63 70/164/63 71/165/63 30/75/63
f 85/189/64 86/191/64 69/162/64 27/68/64
f 82/182/65 87/193/65 68/159/65 25/65/65
f 27/69/66 69/163/66 68/160/66 24/62/66
f 11/29/67 62/151/67 67/158/67 22/56/67
f 18/44/68 66/156/68 65/155/68 20/51/68
f 7/21/69 55/141/69 63/152/69 12/30/69
f 22/56/70 67/158/70 65/155/70 17/43/70
f 9/24/71 61/150/71 62/151/71 11/29/71
f 19/49/72 66/156/72 87/193/72 82/182/72
f 12/31/73 18/45/73 20/52/73 21/54/73 16/41/73
f 66/157/74 18/48/74 84/187/74 87/194/74
f 23/57/75 19/50/75 82/183/75 83/184/75
f 49/123/76 81/181/76 96/209/76 95/207/76
f 97/210/77 103/220/77 94/205/77 51/128/77
f 99/214/78 104/221/78 95/208/78 48/120/78
f 81/181/79 51/129/79 94/206/79 96/209/79
f 14/35/80 90/197/80 92/201/80 47/115/80
f 9/24/81 91/199/81 93/203/81 44/106/81
f 3/8/82 88/195/82 91/200/82 9/25/82
f 5/16/83 89/196/83 90/198/83 14/36/83
f 44/107/84 93/204/84 104/221/84 99/214/84
f 47/116/85 92/202/85 103/220/85 97/210/85
f 45/110/86 79/177/86 102/219/86 98/212/86
f 46/113/87 78/175/87 101/218/87 100/216/87
f 92/202/88 46/114/88 100/217/88 103/220/88
f 93/204/89 45/111/89 98/213/89 104/221/89
f 78/175/90 44/108/90 99/215/90 101/218/90
f 79/177/91 47/117/91 97/211/91 102/219/91
f 59/146/92 4/11/92 52/130/92 53/133/92 54/136/92 108/228/92
f 136/291/93 110/234/93 109/231/93 135/289/93
f 121/264/94 120/262/94 114/246/94 117/254/94
f 139/297/95 111/237/95 110/235/95 136/290/95
f 135/288/96 109/232/96 112/240/96 144/307/96
f 144/306/97 112/241/97 111/238/97 139/296/97
f 111/239/98 112/242/98 109/233/98 110/236/98
f 117/255/99 114/247/99 116/252/99 115/249/99 113/243/99
f 124/270/100 121/263/100 117/256/100 113/244/100
f 120/261/101 129/277/101 116/253/101 114/248/101
f 130/279/102 124/269/102 113/245/102 115/250/102
f 129/277/103 130/278/103 115/251/103 116/253/103
f 57/144/104 56/142/104 132/282/104 127/275/104
f 127/275/105 132/282/105 131/280/105 128/276/105
f 128/276/106 131/280/106 130/278/106 129/277/106
f 56/143/107 2/4/107 126/273/107 132/283/107
f 132/283/108 126/273/108 125/271/108 131/281/108
f 131/281/109 125/271/109 124/269/109 130/279/109
f 54/138/110 57/144/110 127/275/110 118/257/110
f 118/257/111 127/275/111 128/276/111 119/259/111
f 119/259/112 128/276/112 129/277/112 120/261/112
f 2/5/113 108/230/113 123/267/113 126/274/113
f 126/274/114 123/267/114 122/265/114 125/272/114
f 125/272/115 122/265/115 121/263/115 124/270/115
f 108/229/116 54/137/116 118/258/116 123/268/116
f 123/268/117 118/258/117 119/260/117 122/266/117
f 122/266/118 119/260/118 120/262/118 121/264/118
f 54/138/119 142/302/119 141/300/119 53/134/119
f 142/302/120 143/304/120 140/298/120 141/300/120
f 143/304/121 144/306/121 139/296/121 140/298/121
f 4/12/122 133/284/122 142/303/122 54/139/122
f 133/284/123 134/286/123 143/305/123 142/303/123
f 134/286/124 135/288/124 144/307/124 143/305/124
f 53/135/125 141/301/125 138/294/125 52/131/125
f 141/301/126 140/299/126 137/292/126 138/294/126
f 140/299/127 139/297/127 136/290/127 137/292/127
f 52/132/128 138/295/128 133/285/128 4/13/128
f 138/295/129 137/293/129 134/287/129 133/285/129
f 137/293/130 136/291/130 135/289/130 134/287/130
f 105/223/131 1/3/131 88/195/131 59/147/131 108/230/131 2/5/131
f 86/192/132 85/188/132 83/185/132
f 83/185/133 85/188/133 18/46/133 23/58/133
f 63/153/134 15/39/134 23/59/134 18/47/134 12/32/134
f 84/187/135 18/48/135 85/189/135
l 52 106
