# Blender 3.3.1
# www.blender.org
mtllib monstruo_3_grande_caminar622.mtl
o monstruo_grande
v 0.338275 2.023513 0.221313
v 0.523272 1.202467 0.094220
v -0.734558 1.717592 0.216327
v -0.292403 1.093586 0.211500
v 0.456695 2.321245 -0.127850
v 0.514025 1.617401 -0.244863
v -0.888023 1.947256 -0.185470
v -0.769558 1.673577 -0.265697
v -0.361237 2.370930 0.501176
v 0.197877 2.290075 0.435783
v -0.487504 2.332534 0.606475
v -1.252441 1.980842 -0.011237
v -0.377443 2.541988 0.145640
v 0.173759 2.436378 0.180343
v -1.088968 1.846143 0.132243
v -0.541093 2.607831 0.178728
v -0.834417 2.232778 0.637924
v -1.527446 1.895885 0.270668
v -1.238776 1.936208 0.460097
v -1.040029 2.546973 0.389068
v -0.721576 2.640185 0.259162
v -0.562850 2.283890 0.584779
v -1.221124 1.863380 0.143346
v -1.792031 0.627314 0.945474
v -1.663823 0.606920 0.984421
v -1.656633 0.435406 0.779056
v -1.734888 0.447855 0.755284
v 0.359635 2.212323 0.406569
v 0.430235 2.416622 0.146344
v 0.311810 2.323936 0.424910
v 0.305149 2.463614 0.201173
v 0.591518 1.912853 0.183191
v 0.684967 2.017065 0.000415
v 0.614495 1.991678 0.232733
v 0.676173 2.114809 0.077862
v 0.773671 1.695421 0.102691
v 0.838346 1.735180 0.016658
v 0.863329 1.665334 0.149988
v 0.924648 1.713367 0.064606
v 0.803795 1.543613 0.124717
v 0.934650 1.641459 -0.050454
v 0.928699 1.447637 0.243174
v 1.119822 1.593393 -0.026095
v -0.199907 2.430583 0.514422
v 0.010227 2.406282 0.491460
v -0.209280 2.532563 0.268590
v -0.006496 2.509107 0.249125
v -0.142613 2.745668 0.656978
v 0.061929 2.680463 0.614287
v -0.159941 2.858269 0.403463
v 0.043461 2.793611 0.360353
v -0.500663 1.125938 -0.001503
v -0.387278 1.171782 -0.211715
v -0.053881 1.276961 -0.333011
v -0.799360 1.765497 0.000476
v 0.549446 1.203439 -0.143308
v 0.330688 1.199893 -0.270677
v -0.023579 1.528122 -0.322187
v -0.012563 1.145140 0.191364
v 0.379457 2.113008 0.102942
v -0.360662 2.431668 0.376105
v -0.524519 2.581991 0.450034
v -1.026612 1.918285 0.011692
v 0.163793 2.418766 0.340748
v -0.871135 2.459849 0.602135
v -1.414117 2.035765 0.511445
v -0.676687 2.560983 0.450825
v -1.737676 0.615211 0.996042
v -1.681854 0.328755 0.662287
v 0.433748 2.326187 0.302914
v 0.309585 2.438405 0.336561
v 0.592238 1.946285 0.057051
v 0.687911 2.065377 0.182857
v 0.804590 1.718072 0.059712
v 0.893858 1.688617 0.106976
v 0.847970 1.594602 0.023515
v 0.986078 1.525997 0.084406
v -0.204602 2.481012 0.390334
v 0.000537 2.458617 0.369702
v -0.182411 2.803314 0.533037
v 0.084236 2.735852 0.484832
v -1.545078 0.933898 0.928114
v -1.606266 0.760660 0.861596
v -1.766209 0.939537 0.861843
v -1.726941 0.779855 0.824938
v -1.669379 0.604976 0.765857
v -1.675194 0.916240 0.947987
v -0.074237 1.756013 0.518341
v 0.023918 2.141925 -0.190690
v -0.016317 2.515057 0.068886
v -0.033605 2.264384 0.624755
v -0.109421 2.519905 0.257026
v -0.091357 2.418415 0.502341
v -0.061154 2.842575 0.343593
v -0.037804 2.696175 0.673593
v -0.044796 2.820072 0.531291
v 0.032401 2.660081 0.280149
v 0.051199 2.532591 0.570339
v -0.184226 2.581809 0.608279
v -0.205190 2.708721 0.316500
v -0.210686 2.646313 0.464031
v 0.057409 2.596112 0.423672
v -0.088282 2.692788 0.277903
v -0.064345 2.547647 0.609045
v 0.394237 1.717053 -0.024809
v -0.596236 1.440332 0.228015
v 0.496538 1.836717 -0.241606
v 0.174444 1.183390 0.196725
v -0.208880 0.001618 -0.154735
v -0.354507 0.006495 -0.033889
v -0.377787 0.008042 -0.283697
v -0.242482 0.003056 -0.297083
v 0.331067 0.018188 0.388532
v 0.251106 -0.011911 0.326282
v 0.336940 0.002964 0.352385
v 0.303174 -0.007960 0.331584
v 0.273224 0.022818 0.403530
v 0.089084 0.847924 -0.088212
v 0.129288 0.560943 0.099755
v 0.185714 0.293748 0.247719
v 0.240538 0.340312 0.414742
v 0.218680 0.596885 0.391194
v 0.215468 0.866300 0.319642
v 0.358886 0.331343 0.376558
v 0.417918 0.585415 0.324189
v 0.496196 0.919780 0.225680
v 0.346337 0.881530 -0.068733
v 0.311139 0.566873 0.110864
v 0.294167 0.297168 0.254190
v 0.366824 0.310853 0.296928
v 0.433082 0.589677 0.181218
v 0.516568 0.916088 0.036025
v -0.179238 0.815107 0.263570
v -0.154849 0.538522 0.170059
v -0.152618 0.303727 0.113905
v -0.437875 0.297552 0.100572
v -0.445733 0.570869 0.120657
v -0.466289 0.825074 0.137641
v -0.470567 0.366381 -0.158254
v -0.476035 0.643172 -0.140510
v -0.478703 0.877086 -0.136120
v -0.082781 0.835134 -0.166627
v -0.132926 0.625299 -0.185567
v -0.178391 0.411564 -0.183595
vn -0.1266 0.5608 -0.8182
vn -0.0875 0.1035 -0.9908
vn 0.4982 -0.1661 -0.8510
vn -0.2171 -0.3191 0.9225
vn 0.9456 0.0738 0.3170
vn 0.5818 0.7939 0.1768
vn 0.0193 0.9208 -0.3895
vn 0.6492 -0.2181 0.7287
vn -0.1070 0.8985 0.4258
vn -0.2115 0.5547 -0.8047
vn -0.0594 -0.5176 0.8535
vn -0.3827 -0.8710 -0.3080
vn -0.1614 -0.1512 0.9752
vn 0.3779 -0.8588 0.3459
vn 0.9583 -0.2538 0.1314
vn 0.0827 -0.7626 0.6416
vn 0.0844 0.9741 0.2098
vn 0.0615 -0.7571 0.6504
vn -0.6307 0.2487 0.7351
vn 0.9066 0.0354 -0.4206
vn -0.8984 0.0376 -0.4376
vn 0.5858 0.7589 0.2846
vn 0.6044 0.1630 0.7798
vn -0.1237 -0.5641 0.8164
vn -0.0757 0.5932 0.8015
vn -0.4018 -0.5404 0.7393
vn -0.4139 -0.5186 -0.7482
vn 0.7755 0.5829 -0.2424
vn -0.1057 -0.6458 0.7561
vn 0.3362 0.8115 -0.4779
vn 0.5581 0.1781 0.8105
vn 0.6615 0.3862 -0.6428
vn -0.4270 -0.3372 -0.8390
vn -0.1166 -0.7760 -0.6199
vn -0.6718 -0.0819 -0.7362
vn -0.5673 0.1080 0.8164
vn 0.7446 0.4068 0.5293
vn 0.9702 -0.0092 -0.2423
vn 0.4120 0.5530 0.7242
vn 0.0845 0.9964 -0.0057
vn -0.3291 0.8603 0.3893
vn 0.3604 0.9057 0.2233
vn 0.0576 0.9696 0.2378
vn -0.9535 0.1039 0.2829
vn 0.3433 -0.3606 0.8672
vn -0.3015 0.4900 -0.8179
vn -0.6701 -0.5626 -0.4842
vn -0.8654 -0.4605 0.1975
vn 0.0856 0.1265 -0.9883
vn -0.9725 0.2330 0.0005
vn 0.0782 0.8300 0.5522
vn 0.4488 0.7284 0.5176
vn -0.2820 0.8651 0.4148
vn 0.9888 -0.1438 0.0402
vn 0.5704 0.2690 0.7761
vn -0.8262 -0.1934 -0.5291
vn -0.1916 -0.8468 -0.4962
vn -0.7341 -0.5916 -0.3335
vn 0.8305 0.4469 0.3324
vn -0.5147 -0.7273 -0.4539
vn -0.1732 0.9752 0.1379
vn 0.7628 0.5877 0.2698
vn 0.6588 0.3518 0.6650
vn -0.4771 0.2555 -0.8409
vn 0.1460 0.1210 0.9818
vn -0.6176 -0.6491 0.4441
vn -0.2110 0.4250 0.8803
vn -0.7059 0.6048 0.3687
vn -0.3862 -0.8340 -0.3940
vn 0.2656 0.3779 0.8869
vn 0.5775 0.5848 0.5696
vn 0.2935 0.3074 0.9052
vn -0.5014 0.5989 -0.6244
vn -0.8366 0.3913 0.3834
vn 0.9586 -0.2763 0.0685
vn 0.5289 0.6944 0.4879
vn 0.2269 0.4215 -0.8780
vn -0.1839 -0.2993 0.9363
vn 0.5034 0.8546 0.1276
vn 0.2869 0.9578 0.0160
vn -0.0895 0.4872 0.8687
vn -0.3998 -0.1614 0.9023
vn 0.0526 0.7718 -0.6337
vn -0.0756 -0.5724 0.8165
vn 0.0056 0.1572 -0.9875
vn 0.9492 -0.2841 -0.1349
vn -1.0000 -0.0041 -0.0048
vn -0.1952 0.2032 -0.9595
vn 0.1052 -0.6025 0.7911
vn -0.9942 -0.0252 0.1046
vn 0.9431 -0.2477 -0.2218
vn 0.1707 -0.9568 -0.2352
vn 0.2047 -0.5437 0.8139
vn -0.9366 -0.1115 0.3321
vn -0.9561 -0.2856 0.0657
vn 0.9845 -0.0840 -0.1538
vn -0.1135 0.2917 -0.9498
vn -0.0362 -0.9993 -0.0024
vn 0.0335 -0.9149 0.4024
vn 0.2892 0.0034 0.9573
vn 0.0819 -0.2372 -0.9680
vn 0.9870 -0.0764 0.1413
vn 0.5357 -0.1962 -0.8213
vn 0.4846 -0.4758 -0.7340
vn 0.5211 -0.4605 -0.7186
vn 0.5127 -0.4290 -0.7437
vn 0.9931 -0.0453 0.1085
vn 0.9742 -0.2002 0.1037
vn 0.9745 -0.1928 0.1152
vn 0.0762 -0.4996 -0.8629
vn 0.1058 -0.5178 -0.8490
vn 0.0684 -0.4719 -0.8790
vn 0.2344 0.3842 0.8930
vn 0.2920 0.2255 0.9295
vn 0.3190 0.1166 0.9405
vn -0.9352 -0.0586 0.3491
vn -0.9551 0.0607 0.2900
vn -0.9509 -0.0417 0.3066
vn -0.1720 -0.2820 -0.9439
vn -0.0965 0.0626 -0.9934
vn -0.1118 0.0410 -0.9929
vn 0.9090 0.2147 0.3572
vn 0.9870 -0.0840 0.1373
vn 0.9952 -0.0919 -0.0333
vn -0.9796 0.0217 -0.2000
vn -0.9964 -0.0504 0.0679
vn -0.9932 -0.0317 0.1117
vn -0.5522 0.1311 0.8233
vn -0.2979 -0.2187 0.9292
vn -0.1137 -0.1496 0.9822
vn 0.5890 -0.1226 0.7988
vn 0.3240 0.3968 -0.8588
vn -0.2371 -0.4356 -0.8684
vn -0.2361 -0.7975 -0.5551
vn -0.8598 -0.0955 -0.5017
vt 0.882279 0.260085
vt 0.436089 0.649131
vt 0.117664 0.305524
vt 0.860974 0.338762
vt 0.079561 0.383885
vt 0.278417 0.728674
vt 0.111517 0.716819
vt 0.301243 0.337859
vt 0.232943 0.387386
vt 0.111517 0.662267
vt 0.671871 0.687525
vt 0.175114 0.511099
vt 0.930991 0.712692
vt 0.796001 0.259488
vt 0.522181 0.649131
vt 0.719621 0.316178
vt 0.801110 0.310020
vt 0.698705 0.366293
vt 0.510656 0.337024
vt 0.023033 0.717149
vt 0.367094 0.730187
vt 0.507246 0.358198
vt 0.018976 0.695717
vt 0.103380 0.570561
vt 0.268725 0.266033
vt 0.143950 0.273348
vt 0.098384 0.631539
vt 0.301351 0.259488
vt 0.128079 0.559933
vt 0.480438 0.333338
vt 0.348619 0.714075
vt 0.604958 0.268707
vt 0.031105 0.562973
vt 0.043818 0.625810
vt 0.721993 0.282954
vt 0.329365 0.336360
vt 0.302724 0.713315
vt 0.030374 0.549675
vt 0.582817 0.260846
vt 0.875347 0.642471
vt 0.380514 0.272320
vt 0.124895 0.517524
vt 0.813390 0.578569
vt 0.436089 0.332372
vt 0.956124 0.588845
vt 0.367094 0.692599
vt 0.367094 0.522797
vt 0.871643 0.594841
vt 0.398138 0.324445
vt 0.043891 0.509019
vt 0.796001 0.641153
vt 0.491075 0.268473
vt 0.032114 0.534706
vt 0.552485 0.259488
vt 0.331566 0.259909
vt 0.129819 0.544964
vt 0.339759 0.337186
vt 0.913298 0.588845
vt 0.317584 0.707220
vt 0.845734 0.463378
vt 0.311567 0.646434
vt 0.944558 0.353645
vt 0.398138 0.462439
vt 0.920230 0.354337
vt 0.870057 0.463781
vt 0.929709 0.374247
vt 0.357807 0.478584
vt 0.347994 0.663056
vt 0.944558 0.373825
vt 0.097076 0.285727
vt 0.229765 0.651022
vt 0.758050 0.297859
vt 0.168317 0.651042
vt 0.119329 0.272208
vt 0.094178 0.643292
vt 0.222768 0.636959
vt 0.746872 0.283208
vt 0.174541 0.636975
vt 0.045175 0.638147
vt 0.080672 0.327471
vt 0.442544 0.673801
vt 0.734592 0.339187
vt 0.484453 0.673801
vt 0.070725 0.319456
vt 0.218298 0.685110
vt 0.751374 0.331694
vt 0.180611 0.684911
vt 0.062412 0.356092
vt 0.455575 0.702696
vt 0.724658 0.367821
vt 0.476314 0.702696
vt 0.043357 0.357400
vt 0.210236 0.723455
vt 0.742364 0.370210
vt 0.189444 0.723462
vt 0.050281 0.367705
vt 0.444942 0.715336
vt 0.810526 0.722486
vt 0.728448 0.380153
vt 0.853695 0.722486
vt 0.487920 0.715336
vt 0.018975 0.371756
vt 0.232852 0.738567
vt 0.796001 0.739289
vt 0.758050 0.386241
vt 0.861207 0.739289
vt 0.167770 0.738589
vt 0.100634 0.583041
vt 0.712300 0.698974
vt 0.802197 0.701507
vt 0.098640 0.600731
vt 0.972705 0.287497
vt 0.747907 0.696578
vt 0.052045 0.577939
vt 0.849895 0.701507
vt 0.710445 0.675017
vt 0.050052 0.595630
vt 0.746553 0.677603
vt 0.924885 0.287497
vt 0.797725 0.671259
vt 0.981025 0.313792
vt 0.715147 0.730011
vt 0.752543 0.724602
vt 0.973919 0.259495
vt 0.967002 0.332143
vt 0.934252 0.306472
vt 0.715328 0.644023
vt 0.847669 0.671259
vt 0.923848 0.259495
vt 0.753088 0.649631
vt 0.920230 0.324823
vt 0.068284 0.665533
vt 0.630362 0.705721
vt 0.712055 0.621316
vt 0.966165 0.712391
vt 0.519769 0.388732
vt 0.031375 0.663704
vt 0.592215 0.695479
vt 0.581836 0.620019
vt 0.750017 0.621843
vt 0.569690 0.667298
vt 0.581066 0.387596
vt 0.531739 0.516092
vt 0.642835 0.625048
vt 0.273616 0.509019
vt 0.070982 0.710642
vt 0.316851 0.732164
vt 0.684917 0.393810
vt 0.816625 0.338063
vt 0.644803 0.392946
vt 0.602800 0.367236
vt 0.671871 0.661666
vt 0.181146 0.386242
vt 0.855113 0.259897
vt 0.463196 0.649131
vt 0.077903 0.567886
vt 0.078993 0.554271
vt 0.322237 0.720993
vt 0.070972 0.628379
vt 0.834014 0.651825
vt 0.084160 0.512738
vt 0.838315 0.596273
vt 0.320679 0.509019
vt 0.080733 0.539302
vt 0.857365 0.464048
vt 0.931678 0.351118
vt 0.335174 0.488977
vt 0.367094 0.673623
vt 0.939667 0.384854
vt 0.199177 0.651021
vt 0.069465 0.641494
vt 0.198664 0.632807
vt 0.464209 0.672968
vt 0.199604 0.684998
vt 0.465945 0.702696
vt 0.199840 0.723459
vt 0.466714 0.715004
vt 0.832520 0.720483
vt 0.200177 0.738589
vt 0.829423 0.735282
vt 0.076340 0.580490
vt 0.826046 0.701507
vt 0.074346 0.598181
vt 0.948795 0.287497
vt 0.823088 0.670800
vt 0.959731 0.307426
vt 0.948976 0.259488
vt 0.941524 0.331189
vt 0.875347 0.491894
vt 0.391834 0.432095
vt 0.377694 0.448634
vt 0.915590 0.478791
vt 0.834644 0.488373
vt 0.326937 0.619279
vt 0.938593 0.478810
vt 0.335216 0.632947
vt 0.358601 0.463790
vt 0.348787 0.648138
vt 0.927106 0.463378
vt 0.854274 0.489560
vt 0.315804 0.619182
vt 0.212520 0.321385
vt 0.644070 0.318501
vt 0.018976 0.592450
vt 0.663817 0.276029
vt 0.129819 0.597828
vt 0.224108 0.269832
vt 0.051049 0.586785
vt 0.728499 0.676310
vt 0.099637 0.591886
vt 0.730103 0.697776
vt 0.734390 0.646904
vt 0.920230 0.314550
vt 0.981025 0.324065
vt 0.732426 0.727384
vt 0.950683 0.319044
vt 0.753088 0.663662
vt 0.920230 0.273492
vt 0.977552 0.273492
vt 0.752543 0.710647
vt 0.709822 0.714522
vt 0.796001 0.686127
vt 0.853178 0.686127
vt 0.709822 0.659561
vt 0.824792 0.685890
vt 0.948939 0.273488
vt 0.731549 0.661651
vt 0.730449 0.712624
vt 0.878850 0.297575
vt 0.096711 0.342677
vt 0.285581 0.357771
vt 0.108549 0.696221
vt 0.804979 0.293594
vt 0.708839 0.350023
vt 0.668288 0.644023
vt 0.436089 0.526409
vt 0.145034 0.385321
vt 0.919159 0.607821
vt 0.247387 0.613831
vt 0.970304 0.416607
vt 0.947808 0.608020
vt 0.704660 0.516092
vt 0.970304 0.403829
vt 0.750017 0.516884
vt 0.618892 0.516092
vt 0.920230 0.404231
vt 0.273616 0.612878
vt 0.642836 0.516847
vt 0.938584 0.415207
vt 0.924281 0.443436
vt 0.075400 0.489812
vt 0.855524 0.444402
vt 0.531739 0.629156
vt 0.934913 0.435583
vt 0.576828 0.496673
vt 0.931440 0.443424
vt 0.848383 0.444289
vt 0.592622 0.497116
vt 0.934913 0.440184
vt 0.586164 0.496977
vt 0.517161 0.630156
vt 0.920230 0.438606
vt 0.085942 0.490043
vt 0.585376 0.420489
vt 0.510472 0.551446
vt 0.582586 0.444044
vt 0.504260 0.576063
vt 0.581388 0.469636
vt 0.508131 0.602400
vt 0.103684 0.463024
vt 0.477645 0.604263
vt 0.118194 0.440373
vt 0.454885 0.581958
vt 0.129418 0.415411
vt 0.438452 0.557360
vt 0.876897 0.417052
vt 0.081901 0.462161
vt 0.882279 0.393921
vt 0.081653 0.438865
vt 0.880271 0.363315
vt 0.079604 0.408162
vt 0.633117 0.418943
vt 0.615530 0.444447
vt 0.600997 0.469910
vt 0.614559 0.469949
vt 0.862035 0.416811
vt 0.638313 0.444473
vt 0.857648 0.390640
vt 0.666106 0.417503
vt 0.844696 0.362700
vt 0.167770 0.536691
vt 0.914144 0.688660
vt 0.182151 0.561697
vt 0.913298 0.663084
vt 0.189855 0.582503
vt 0.915415 0.641729
vt 0.680787 0.549268
vt 0.966165 0.641681
vt 0.684678 0.573659
vt 0.963812 0.665813
vt 0.684995 0.596421
vt 0.964308 0.688427
vt 0.584794 0.548886
vt 0.729850 0.550060
vt 0.578610 0.572959
vt 0.734888 0.574452
vt 0.569690 0.595426
vt 0.736445 0.597214
vt 0.642060 0.590920
vt 0.247172 0.543053
vt 0.641052 0.570535
vt 0.248998 0.562413
vt 0.635978 0.552556
vt 0.245738 0.579271
s 0
usemtl Material
f 89/203/1 7/19/1 13/32/1 90/205/1
f 8/22/2 7/19/2 89/203/2 58/151/2 54/142/2 53/136/2
f 6/18/3 56/148/3 57/150/3
f 3/8/4 106/231/4 4/9/4 59/153/4 88/202/4
f 6/17/5 107/233/5 5/14/5 60/154/5 1/1/5 105/229/5 2/4/5 56/149/5
f 61/156/6 13/33/6 16/38/6 62/157/6
f 5/16/7 14/35/7 31/77/7 29/72/7
f 88/202/8 1/3/8 10/26/8 91/207/8
f 67/164/9 21/53/9 20/50/9 65/161/9
f 13/32/10 7/19/10 12/30/10 16/39/10
f 3/8/11 9/25/11 11/28/11 15/36/11
f 55/147/12 3/6/12 15/37/12 63/158/12
f 66/162/13 19/48/13 17/40/13 65/160/13
f 23/57/14 22/55/14 17/41/14 19/49/14
f 83/191/15 82/190/15 25/63/15 26/67/15
f 15/36/16 11/28/16 22/55/16 23/57/16
f 62/157/17 16/38/17 21/53/17 67/164/17
f 69/169/18 26/66/18 25/64/18 68/166/18
f 87/200/19 84/193/19 24/60/19 68/165/19
f 86/197/20 83/191/20 26/67/20 69/167/20
f 84/194/21 85/196/21 27/68/21 24/61/21
f 70/170/22 29/73/22 31/78/22 71/172/22
f 70/170/23 28/71/23 34/85/23 73/174/23
f 10/26/24 1/3/24 28/70/24 30/74/24
f 64/159/25 10/27/25 30/75/25 71/171/25
f 34/84/26 32/80/26 36/88/26 38/92/26
f 60/155/27 5/15/27 33/83/27 72/173/27
f 5/16/28 29/72/28 35/86/28 33/82/28
f 28/70/29 1/3/29 32/80/29 34/84/29
f 37/90/30 39/94/30 43/105/30 41/99/30
f 73/174/31 34/85/31 38/93/31 75/176/31
f 33/82/32 35/86/32 39/94/32 37/90/32
f 72/173/33 33/83/33 37/91/33 74/175/33
f 76/178/34 41/100/34 43/106/34 77/180/34
f 74/175/35 37/91/35 41/101/35 76/177/35
f 38/92/36 36/88/36 40/96/36 42/102/36
f 75/176/37 38/93/37 42/103/37 77/179/37
f 102/226/38 97/218/38 51/129/38 81/187/38
f 91/206/39 10/27/39 45/111/39 93/210/39
f 90/204/40 13/33/40 46/114/40 92/208/40
f 61/156/41 9/24/41 44/108/41 78/181/41
f 64/159/42 14/34/42 47/117/42 79/183/42
f 96/216/43 94/213/43 50/126/43 80/186/43
f 101/225/44 99/222/44 48/120/44 80/185/44
f 104/228/45 98/220/45 49/123/45 95/215/45
f 103/227/46 100/224/46 50/127/46 94/212/46
f 8/23/47 53/137/47 52/132/47
f 8/23/48 52/132/48 4/10/48 106/232/48 3/7/48 55/146/48 7/20/48
f 54/142/49 58/151/49 89/203/49 5/16/49 107/234/49 6/18/49 57/150/49
f 100/223/50 101/225/50 80/185/50 50/128/50
f 95/214/51 96/216/51 80/186/51 48/121/51
f 10/27/52 64/159/52 79/183/52 45/111/52
f 13/33/53 61/156/53 78/181/53 46/114/53
f 98/219/54 102/226/54 81/187/54 49/124/54
f 39/95/55 75/176/55 77/179/55 43/107/55
f 36/89/56 74/175/56 76/177/56 40/97/56
f 40/98/57 76/178/57 77/180/57 42/104/57
f 32/81/58 72/173/58 74/175/58 36/89/58
f 35/87/59 73/174/59 75/176/59 39/95/59
f 1/2/60 60/155/60 72/173/60 32/81/60
f 14/34/61 64/159/61 71/171/61 31/79/61
f 29/73/62 70/170/62 73/174/62 35/87/62
f 28/71/63 70/170/63 71/172/63 30/76/63
f 85/196/64 86/198/64 69/168/64 27/68/64
f 82/189/65 87/200/65 68/165/65 25/65/65
f 27/69/66 69/169/66 68/166/66 24/62/66
f 11/29/67 62/157/67 67/164/67 22/56/67
f 18/43/68 66/162/68 65/160/68 20/51/68
f 7/21/69 55/147/69 63/158/69 12/31/69
f 22/56/70 67/164/70 65/161/70 17/42/70
f 9/24/71 61/156/71 62/157/71 11/29/71
f 19/48/72 66/162/72 87/200/72 82/189/72
f 12/30/73 18/44/73 20/52/73 21/54/73 16/39/73
f 66/163/74 18/47/74 84/194/74 87/201/74
f 23/57/75 19/49/75 82/190/75 83/191/75
f 49/125/76 81/188/76 96/216/76 95/214/76
f 97/217/77 103/227/77 94/212/77 51/130/77
f 99/221/78 104/228/78 95/215/78 48/122/78
f 81/188/79 51/131/79 94/213/79 96/216/79
f 14/34/80 90/204/80 92/208/80 47/117/80
f 9/24/81 91/206/81 93/210/81 44/108/81
f 3/8/82 88/202/82 91/207/82 9/25/82
f 5/16/83 89/203/83 90/205/83 14/35/83
f 44/109/84 93/211/84 104/228/84 99/221/84
f 47/118/85 92/209/85 103/227/85 97/217/85
f 45/112/86 79/184/86 102/226/86 98/219/86
f 46/115/87 78/182/87 101/225/87 100/223/87
f 92/209/88 46/116/88 100/224/88 103/227/88
f 93/211/89 45/113/89 98/220/89 104/228/89
f 78/182/90 44/110/90 99/222/90 101/225/90
f 79/184/91 47/119/91 97/218/91 102/226/91
f 59/152/92 4/11/92 52/133/92 53/138/92 54/141/92 108/235/92
f 136/298/93 110/241/93 109/238/93 135/296/93
f 121/271/94 120/269/94 114/253/94 117/261/94
f 139/304/95 111/244/95 110/242/95 136/297/95
f 135/295/96 109/239/96 112/247/96 144/314/96
f 144/313/97 112/248/97 111/245/97 139/303/97
f 111/246/98 112/249/98 109/240/98 110/243/98
f 117/262/99 114/254/99 116/259/99 115/256/99 113/250/99
f 124/277/100 121/270/100 117/263/100 113/251/100
f 120/268/101 129/284/101 116/260/101 114/255/101
f 130/286/102 124/276/102 113/252/102 115/257/102
f 129/284/103 130/285/103 115/258/103 116/260/103
f 57/150/104 56/148/104 132/289/104 127/282/104
f 127/282/105 132/289/105 131/287/105 128/283/105
f 128/283/106 131/287/106 130/285/106 129/284/106
f 56/149/107 2/4/107 126/280/107 132/290/107
f 132/290/108 126/280/108 125/278/108 131/288/108
f 131/288/109 125/278/109 124/276/109 130/286/109
f 54/142/110 57/150/110 127/282/110 118/264/110
f 118/264/111 127/282/111 128/283/111 119/266/111
f 119/266/112 128/283/112 129/284/112 120/268/112
f 2/5/113 108/237/113 123/274/113 126/281/113
f 126/281/114 123/274/114 122/272/114 125/279/114
f 125/279/115 122/272/115 121/270/115 124/277/115
f 108/236/116 54/143/116 118/265/116 123/275/116
f 123/275/117 118/265/117 119/267/117 122/273/117
f 122/273/118 119/267/118 120/269/118 121/271/118
f 54/144/119 142/309/119 141/307/119 53/139/119
f 142/309/120 143/311/120 140/305/120 141/307/120
f 143/311/121 144/313/121 139/303/121 140/305/121
f 4/12/122 133/291/122 142/310/122 54/145/122
f 133/291/123 134/293/123 143/312/123 142/310/123
f 134/293/124 135/295/124 144/314/124 143/312/124
f 53/140/125 141/308/125 138/301/125 52/134/125
f 141/308/126 140/306/126 137/299/126 138/301/126
f 140/306/127 139/304/127 136/297/127 137/299/127
f 52/135/128 138/302/128 133/292/128 4/13/128
f 138/302/129 137/300/129 134/294/129 133/292/129
f 137/300/130 136/298/130 135/296/130 134/294/130
f 105/230/131 1/3/131 88/202/131 59/153/131 108/237/131 2/5/131
f 86/199/132 85/195/132 83/192/132
f 83/192/133 85/195/133 18/45/133 23/58/133
f 63/158/134 15/37/134 23/59/134 18/46/134 12/31/134
f 84/194/135 18/47/135 85/196/135
l 52 106
