# Blender 3.3.1
# www.blender.org
mtllib monstruo_3_grande_caminar611.mtl
o monstruo_grande
v 0.313689 2.037800 0.188196
v 0.526680 1.214725 0.084999
v -0.737770 1.715596 0.194941
v -0.287145 1.111886 0.222933
v 0.439574 2.329483 -0.162105
v 0.501683 1.633591 -0.263103
v -0.887693 1.930353 -0.222465
v -0.770265 1.648700 -0.288312
v -0.380579 2.387648 0.454273
v 0.181021 2.309212 0.401301
v -0.510717 2.353328 0.557637
v -1.250780 1.969350 -0.065844
v -0.386043 2.544132 0.092354
v 0.156726 2.446016 0.141695
v -1.092006 1.840644 0.092636
v -0.549867 2.610210 0.115710
v -0.861013 2.257992 0.581935
v -1.536437 1.897701 0.204057
v -1.257310 1.951493 0.403662
v -1.056460 2.557322 0.307562
v -0.732568 2.644647 0.186254
v -0.586363 2.305247 0.536970
v -1.225230 1.860057 0.094413
v -1.812813 0.658693 0.927781
v -1.685955 0.641727 0.972385
v -1.669410 0.460453 0.776147
v -1.746840 0.470809 0.748922
v 0.340615 2.227834 0.372135
v 0.414833 2.427038 0.109588
v 0.294507 2.342932 0.389155
v 0.287669 2.475128 0.161571
v 0.561586 1.917294 0.145530
v 0.659816 2.024629 -0.033958
v 0.588405 1.997027 0.198380
v 0.653397 2.118770 0.043381
v 0.726717 1.699019 0.047301
v 0.798137 1.738298 -0.032220
v 0.810103 1.650810 0.090509
v 0.879496 1.700990 0.012644
v 0.735000 1.543007 0.048831
v 0.882787 1.644093 -0.110459
v 0.842617 1.415743 0.154029
v 1.058401 1.567622 -0.092239
v -0.218913 2.447066 0.472061
v -0.008125 2.424550 0.452629
v -0.224611 2.541454 0.222902
v -0.023225 2.519239 0.207068
v -0.161090 2.760066 0.616093
v 0.043575 2.694445 0.574649
v -0.176623 2.872918 0.362366
v 0.026653 2.807844 0.319888
v -0.498881 1.121818 0.013739
v -0.389745 1.149559 -0.201523
v -0.056116 1.267470 -0.334162
v -0.799847 1.754862 -0.025620
v 0.548291 1.222089 -0.153776
v 0.328019 1.214078 -0.277312
v -0.026881 1.520520 -0.331181
v -0.008566 1.149375 0.196032
v 0.356842 2.125960 0.069273
v -0.376022 2.443348 0.327078
v -0.542935 2.595710 0.389241
v -1.026191 1.906753 -0.028380
v 0.145505 2.433986 0.301781
v -0.895923 2.482417 0.531817
v -1.434941 2.051647 0.442145
v -0.695081 2.574251 0.385482
v -1.760269 0.649716 0.980852
v -1.689200 0.347922 0.663939
v 0.417056 2.338106 0.267170
v 0.291356 2.454669 0.297079
v 0.563188 1.956815 0.018741
v 0.663867 2.069412 0.148005
v 0.761512 1.722427 0.007957
v 0.844571 1.675071 0.051171
v 0.788193 1.600231 -0.044383
v 0.914037 1.505580 0.007508
v -0.222123 2.493638 0.346287
v -0.016966 2.473033 0.329325
v -0.199963 2.817924 0.491957
v 0.066713 2.750023 0.445150
v -1.568409 0.966915 0.904407
v -1.625362 0.789926 0.844319
v -1.786960 0.966663 0.829781
v -1.744765 0.805894 0.802337
v -1.683319 0.629012 0.754126
v -1.698996 0.948738 0.920321
v -0.084647 1.774386 0.501332
v 0.016029 2.138295 -0.216929
v -0.029306 2.517191 0.026731
v -0.051081 2.287243 0.590640
v -0.125410 2.529117 0.213384
v -0.109665 2.433686 0.461627
v -0.077694 2.856934 0.302564
v -0.056500 2.710322 0.633330
v -0.062302 2.834375 0.491111
v 0.015541 2.673784 0.238657
v 0.032446 2.547601 0.530096
v -0.202955 2.596634 0.566622
v -0.221846 2.722569 0.273175
v -0.228459 2.660996 0.421833
v 0.039677 2.610697 0.383125
v -0.104886 2.706323 0.235431
v -0.083040 2.562099 0.568354
v 0.368314 1.737245 -0.034621
v -0.598005 1.442829 0.217941
v 0.478140 1.855011 -0.264491
v 0.180141 1.180259 0.198056
v -0.189362 -0.002224 -0.076421
v -0.333369 0.003284 0.046366
v -0.360024 0.003041 -0.203349
v -0.224898 -0.001810 -0.218479
v 0.369859 0.028776 0.095149
v 0.290239 0.014716 0.026879
v 0.375864 0.023859 0.056279
v 0.342231 0.018149 0.033262
v 0.312016 0.027969 0.110690
v 0.101942 0.869883 -0.091573
v 0.154327 0.629564 0.002664
v 0.217648 0.333894 0.040836
v 0.272224 0.322859 0.214005
v 0.244135 0.571767 0.278177
v 0.234128 0.849379 0.301532
v 0.390549 0.330141 0.175397
v 0.443409 0.589651 0.215005
v 0.511920 0.928283 0.214261
v 0.357926 0.905965 -0.076596
v 0.336025 0.636664 0.014259
v 0.326022 0.337615 0.048468
v 0.398555 0.337863 0.093542
v 0.457823 0.639404 0.087968
v 0.528872 0.938501 0.025978
v -0.167328 0.842951 0.302814
v -0.139340 0.556541 0.227735
v -0.132807 0.317371 0.183582
v -0.417921 0.304940 0.174485
v -0.431458 0.579966 0.180565
v -0.456667 0.836173 0.182214
v -0.455242 0.360172 -0.087504
v -0.466566 0.636299 -0.082868
v -0.474812 0.861888 -0.094181
v -0.078508 0.825364 -0.128433
v -0.123771 0.622560 -0.131260
v -0.164413 0.409651 -0.119012
vn -0.1158 0.5269 -0.8420
vn -0.0784 0.0616 -0.9950
vn 0.4866 -0.1724 -0.8564
vn -0.2227 -0.2874 0.9316
vn 0.9393 0.0989 0.3286
vn 0.5728 0.8033 0.1631
vn 0.0170 0.9148 -0.4036
vn 0.6637 -0.1946 0.7222
vn -0.1236 0.9195 0.3733
vn -0.1853 0.5099 -0.8400
vn -0.0860 -0.4692 0.8789
vn -0.3723 -0.8857 -0.2773
vn -0.2023 -0.0975 0.9745
vn 0.3585 -0.8363 0.4148
vn 0.9552 -0.2358 0.1790
vn 0.0338 -0.7097 0.7037
vn 0.0719 0.9829 0.1697
vn 0.0445 -0.7236 0.6888
vn -0.6603 0.2771 0.6980
vn 0.9213 0.0253 -0.3881
vn -0.8817 0.0056 -0.4717
vn 0.5855 0.7633 0.2731
vn 0.6122 0.1510 0.7762
vn -0.1303 -0.5510 0.8242
vn -0.0793 0.6196 0.7809
vn -0.4470 -0.5608 0.6969
vn -0.4249 -0.5054 -0.7510
vn 0.7887 0.5659 -0.2404
vn -0.1232 -0.6407 0.7579
vn 0.4504 0.8150 -0.3646
vn 0.5801 0.0915 0.8094
vn 0.6960 0.3852 -0.6060
vn -0.4336 -0.2653 -0.8612
vn -0.2075 -0.6610 -0.7211
vn -0.6558 0.1130 -0.7464
vn -0.5664 0.0774 0.8205
vn 0.7805 0.2254 0.5831
vn 0.9716 -0.0117 -0.2365
vn 0.3974 0.5857 0.7064
vn 0.0783 0.9959 -0.0452
vn -0.3439 0.8712 0.3504
vn 0.3529 0.9151 0.1950
vn 0.0590 0.9695 0.2378
vn -0.9550 0.1064 0.2769
vn 0.3385 -0.3651 0.8672
vn -0.2952 0.4954 -0.8170
vn -0.6836 -0.5947 -0.4232
vn -0.8628 -0.4551 0.2203
vn 0.0708 0.1032 -0.9921
vn -0.9717 0.2361 -0.0057
vn 0.0765 0.8293 0.5535
vn 0.4400 0.7493 0.4950
vn -0.3095 0.8744 0.3737
vn 0.9879 -0.1484 0.0448
vn 0.5832 0.0818 0.8082
vn -0.8322 -0.0033 -0.5544
vn -0.2944 -0.7388 -0.6062
vn -0.7664 -0.5269 -0.3675
vn 0.8598 0.3765 0.3449
vn -0.5421 -0.7012 -0.4631
vn -0.1816 0.9780 0.1029
vn 0.7783 0.5702 0.2631
vn 0.6651 0.3608 0.6539
vn -0.4478 0.2084 -0.8695
vn 0.1080 0.1707 0.9794
vn -0.6274 -0.6337 0.4525
vn -0.2343 0.4683 0.8519
vn -0.7224 0.6214 0.3032
vn -0.3722 -0.8516 -0.3691
vn 0.2283 0.4245 0.8762
vn 0.5566 0.6105 0.5635
vn 0.2528 0.3528 0.9009
vn -0.4756 0.5594 -0.6789
vn -0.8569 0.3960 0.3301
vn 0.9586 -0.2573 0.1224
vn 0.5276 0.6927 0.4916
vn 0.2341 0.4244 -0.8747
vn -0.1919 -0.3009 0.9341
vn 0.5042 0.8538 0.1296
vn 0.2777 0.9604 -0.0203
vn -0.1105 0.5147 0.8502
vn -0.4119 -0.1296 0.9020
vn 0.0355 0.7515 -0.6588
vn -0.0894 -0.5751 0.8132
vn 0.0162 0.1568 -0.9875
vn 0.9486 -0.2905 -0.1256
vn -0.9998 -0.0042 -0.0168
vn -0.1830 0.2059 -0.9613
vn 0.1057 -0.6058 0.7885
vn -0.9951 -0.0217 0.0967
vn 0.9460 -0.2477 -0.2093
vn 0.1681 -0.9683 -0.1845
vn 0.2282 -0.5084 0.8303
vn -0.9336 -0.2242 0.2793
vn -0.9523 -0.2923 0.0876
vn 0.9834 -0.0766 -0.1645
vn -0.1321 0.2618 -0.9560
vn -0.0346 -0.9994 0.0051
vn 0.0538 -0.9882 0.1437
vn 0.2941 -0.2726 0.9161
vn 0.0844 0.0572 -0.9948
vn 0.9894 -0.0913 0.1127
vn 0.5362 0.0642 -0.8416
vn 0.4779 -0.4691 -0.7427
vn 0.5184 -0.3001 -0.8008
vn 0.5193 -0.1160 -0.8467
vn 0.9959 -0.0112 0.0895
vn 0.9764 -0.2080 0.0576
vn 0.9788 -0.1987 0.0504
vn 0.0819 -0.5144 -0.8536
vn 0.0900 -0.3352 -0.9378
vn 0.0700 -0.1143 -0.9910
vn 0.2262 0.3562 0.9066
vn 0.3120 -0.0644 0.9479
vn 0.3134 -0.2046 0.9273
vn -0.9283 -0.1002 0.3580
vn -0.9491 -0.0724 0.3066
vn -0.9451 -0.1719 0.2778
vn -0.1681 -0.3676 -0.9147
vn -0.1118 -0.0100 -0.9937
vn -0.1247 -0.0080 -0.9922
vn 0.9084 0.2570 0.3299
vn 0.9903 -0.0553 0.1274
vn 0.9965 -0.0723 -0.0414
vn -0.9829 -0.0148 -0.1835
vn -0.9939 -0.0673 0.0878
vn -0.9908 -0.0472 0.1266
vn -0.5367 0.2093 0.8174
vn -0.2779 -0.1611 0.9470
vn -0.0984 -0.1006 0.9901
vn 0.5968 -0.0748 0.7989
vn 0.3520 0.3580 -0.8649
vn -0.1942 -0.4792 -0.8560
vn -0.2100 -0.8245 -0.5254
vn -0.8387 -0.1298 -0.5289
vt 0.882279 0.260085
vt 0.436089 0.649131
vt 0.117664 0.305524
vt 0.860974 0.338762
vt 0.079561 0.383885
vt 0.278417 0.728674
vt 0.111517 0.716819
vt 0.301243 0.337859
vt 0.232943 0.387386
vt 0.111517 0.662267
vt 0.671871 0.687525
vt 0.175114 0.511099
vt 0.930991 0.712692
vt 0.796001 0.259488
vt 0.522181 0.649131
vt 0.719621 0.316178
vt 0.801110 0.310020
vt 0.698705 0.366293
vt 0.510656 0.337024
vt 0.023033 0.717149
vt 0.367094 0.730187
vt 0.507246 0.358198
vt 0.018976 0.695717
vt 0.103380 0.570561
vt 0.268725 0.266033
vt 0.143950 0.273348
vt 0.098384 0.631539
vt 0.301351 0.259488
vt 0.128079 0.559933
vt 0.480438 0.333338
vt 0.348619 0.714075
vt 0.604958 0.268707
vt 0.031105 0.562973
vt 0.043818 0.625810
vt 0.721993 0.282954
vt 0.329365 0.336360
vt 0.302724 0.713315
vt 0.030374 0.549675
vt 0.582817 0.260846
vt 0.875347 0.642471
vt 0.380514 0.272320
vt 0.124895 0.517524
vt 0.813390 0.578569
vt 0.436089 0.332372
vt 0.956124 0.588845
vt 0.367094 0.692599
vt 0.367094 0.522797
vt 0.871643 0.594841
vt 0.398138 0.324445
vt 0.043891 0.509019
vt 0.796001 0.641153
vt 0.491075 0.268473
vt 0.032114 0.534706
vt 0.552485 0.259488
vt 0.331566 0.259909
vt 0.129819 0.544964
vt 0.339759 0.337186
vt 0.913298 0.588845
vt 0.317584 0.707220
vt 0.845734 0.463378
vt 0.311567 0.646434
vt 0.944558 0.353645
vt 0.398138 0.462439
vt 0.920230 0.354337
vt 0.870057 0.463781
vt 0.929709 0.374247
vt 0.357807 0.478584
vt 0.347994 0.663056
vt 0.944558 0.373825
vt 0.097076 0.285727
vt 0.229765 0.651022
vt 0.758050 0.297859
vt 0.168317 0.651042
vt 0.119329 0.272208
vt 0.094178 0.643292
vt 0.222768 0.636959
vt 0.746872 0.283208
vt 0.174541 0.636975
vt 0.045175 0.638147
vt 0.080672 0.327471
vt 0.442544 0.673801
vt 0.734592 0.339187
vt 0.484453 0.673801
vt 0.070725 0.319456
vt 0.218298 0.685110
vt 0.751374 0.331694
vt 0.180611 0.684911
vt 0.062412 0.356092
vt 0.455575 0.702696
vt 0.724658 0.367821
vt 0.476314 0.702696
vt 0.043357 0.357400
vt 0.210236 0.723455
vt 0.742364 0.370210
vt 0.189444 0.723462
vt 0.050281 0.367705
vt 0.444942 0.715336
vt 0.810526 0.722486
vt 0.728448 0.380153
vt 0.853695 0.722486
vt 0.487920 0.715336
vt 0.018975 0.371756
vt 0.232852 0.738567
vt 0.796001 0.739289
vt 0.758050 0.386241
vt 0.861207 0.739289
vt 0.167770 0.738589
vt 0.100634 0.583041
vt 0.712300 0.698974
vt 0.802197 0.701507
vt 0.098640 0.600731
vt 0.972705 0.287497
vt 0.747907 0.696578
vt 0.052045 0.577939
vt 0.849895 0.701507
vt 0.710445 0.675017
vt 0.050052 0.595630
vt 0.746553 0.677603
vt 0.924885 0.287497
vt 0.797725 0.671259
vt 0.981025 0.313792
vt 0.715147 0.730011
vt 0.752543 0.724602
vt 0.973919 0.259495
vt 0.967002 0.332143
vt 0.934252 0.306472
vt 0.715328 0.644023
vt 0.847669 0.671259
vt 0.923848 0.259495
vt 0.753088 0.649631
vt 0.920230 0.324823
vt 0.068284 0.665533
vt 0.630362 0.705721
vt 0.712055 0.621316
vt 0.966165 0.712391
vt 0.519769 0.388732
vt 0.031375 0.663704
vt 0.592215 0.695479
vt 0.581836 0.620019
vt 0.750017 0.621843
vt 0.569690 0.667298
vt 0.581066 0.387596
vt 0.531739 0.516092
vt 0.642835 0.625048
vt 0.273616 0.509019
vt 0.070982 0.710642
vt 0.316851 0.732164
vt 0.684917 0.393810
vt 0.816625 0.338063
vt 0.644803 0.392946
vt 0.602800 0.367236
vt 0.671871 0.661666
vt 0.181146 0.386242
vt 0.855113 0.259897
vt 0.463196 0.649131
vt 0.077903 0.567886
vt 0.078993 0.554271
vt 0.322237 0.720993
vt 0.070972 0.628379
vt 0.834014 0.651825
vt 0.084160 0.512738
vt 0.838315 0.596273
vt 0.320679 0.509019
vt 0.080733 0.539302
vt 0.857365 0.464048
vt 0.931678 0.351118
vt 0.335174 0.488977
vt 0.367094 0.673623
vt 0.939667 0.384854
vt 0.199177 0.651021
vt 0.069465 0.641494
vt 0.198664 0.632807
vt 0.464209 0.672968
vt 0.199604 0.684998
vt 0.465945 0.702696
vt 0.199840 0.723459
vt 0.466714 0.715004
vt 0.832520 0.720483
vt 0.200177 0.738589
vt 0.829423 0.735282
vt 0.076340 0.580490
vt 0.826046 0.701507
vt 0.074346 0.598181
vt 0.948795 0.287497
vt 0.823088 0.670800
vt 0.959731 0.307426
vt 0.948976 0.259488
vt 0.941524 0.331189
vt 0.875347 0.491894
vt 0.391834 0.432095
vt 0.377694 0.448634
vt 0.915590 0.478791
vt 0.834644 0.488373
vt 0.326937 0.619279
vt 0.938593 0.478810
vt 0.335216 0.632947
vt 0.358601 0.463790
vt 0.348787 0.648138
vt 0.927106 0.463378
vt 0.854274 0.489560
vt 0.315804 0.619182
vt 0.212520 0.321385
vt 0.644070 0.318501
vt 0.018976 0.592450
vt 0.663817 0.276029
vt 0.129819 0.597828
vt 0.224108 0.269832
vt 0.051049 0.586785
vt 0.728499 0.676310
vt 0.099637 0.591886
vt 0.730103 0.697776
vt 0.734390 0.646904
vt 0.920230 0.314550
vt 0.981025 0.324065
vt 0.732426 0.727384
vt 0.950683 0.319044
vt 0.753088 0.663662
vt 0.920230 0.273492
vt 0.977552 0.273492
vt 0.752543 0.710647
vt 0.709822 0.714522
vt 0.796001 0.686127
vt 0.853178 0.686127
vt 0.709822 0.659561
vt 0.824792 0.685890
vt 0.948939 0.273488
vt 0.731549 0.661651
vt 0.730449 0.712624
vt 0.878850 0.297575
vt 0.096711 0.342677
vt 0.285581 0.357771
vt 0.108549 0.696221
vt 0.804979 0.293594
vt 0.708839 0.350023
vt 0.668288 0.644023
vt 0.436089 0.526409
vt 0.145034 0.385321
vt 0.919159 0.607821
vt 0.247387 0.613831
vt 0.970304 0.416607
vt 0.947808 0.608020
vt 0.704660 0.516092
vt 0.970304 0.403829
vt 0.750017 0.516884
vt 0.618892 0.516092
vt 0.920230 0.404231
vt 0.273616 0.612878
vt 0.642836 0.516847
vt 0.938584 0.415207
vt 0.924281 0.443436
vt 0.075400 0.489812
vt 0.855524 0.444402
vt 0.531739 0.629156
vt 0.934913 0.435583
vt 0.576828 0.496673
vt 0.931440 0.443424
vt 0.848383 0.444289
vt 0.592622 0.497116
vt 0.934913 0.440184
vt 0.586164 0.496977
vt 0.517161 0.630156
vt 0.920230 0.438606
vt 0.085942 0.490043
vt 0.585376 0.420489
vt 0.510472 0.551446
vt 0.582586 0.444044
vt 0.504260 0.576063
vt 0.581388 0.469636
vt 0.508131 0.602400
vt 0.103684 0.463024
vt 0.477645 0.604263
vt 0.118194 0.440373
vt 0.454885 0.581958
vt 0.129418 0.415411
vt 0.438452 0.557360
vt 0.876897 0.417052
vt 0.081901 0.462161
vt 0.882279 0.393921
vt 0.081653 0.438865
vt 0.880271 0.363315
vt 0.079604 0.408162
vt 0.633117 0.418943
vt 0.615530 0.444447
vt 0.600997 0.469910
vt 0.614559 0.469949
vt 0.862035 0.416811
vt 0.638313 0.444473
vt 0.857648 0.390640
vt 0.666106 0.417503
vt 0.844696 0.362700
vt 0.167770 0.536691
vt 0.914144 0.688660
vt 0.182151 0.561697
vt 0.913298 0.663084
vt 0.189855 0.582503
vt 0.915415 0.641729
vt 0.680787 0.549268
vt 0.966165 0.641681
vt 0.684678 0.573659
vt 0.963812 0.665813
vt 0.684995 0.596421
vt 0.964308 0.688427
vt 0.584794 0.548886
vt 0.729850 0.550060
vt 0.578610 0.572959
vt 0.734888 0.574452
vt 0.569690 0.595426
vt 0.736445 0.597214
vt 0.642060 0.590920
vt 0.247172 0.543053
vt 0.641052 0.570535
vt 0.248998 0.562413
vt 0.635978 0.552556
vt 0.245738 0.579271
s 0
usemtl Material
f 89/203/1 7/19/1 13/32/1 90/205/1
f 8/22/2 7/19/2 89/203/2 58/151/2 54/142/2 53/136/2
f 6/18/3 56/148/3 57/150/3
f 3/8/4 106/231/4 4/9/4 59/153/4 88/202/4
f 6/17/5 107/233/5 5/14/5 60/154/5 1/1/5 105/229/5 2/4/5 56/149/5
f 61/156/6 13/33/6 16/38/6 62/157/6
f 5/16/7 14/35/7 31/77/7 29/72/7
f 88/202/8 1/3/8 10/26/8 91/207/8
f 67/164/9 21/53/9 20/50/9 65/161/9
f 13/32/10 7/19/10 12/30/10 16/39/10
f 3/8/11 9/25/11 11/28/11 15/36/11
f 55/147/12 3/6/12 15/37/12 63/158/12
f 66/162/13 19/48/13 17/40/13 65/160/13
f 23/57/14 22/55/14 17/41/14 19/49/14
f 83/191/15 82/190/15 25/63/15 26/67/15
f 15/36/16 11/28/16 22/55/16 23/57/16
f 62/157/17 16/38/17 21/53/17 67/164/17
f 69/169/18 26/66/18 25/64/18 68/166/18
f 87/200/19 84/193/19 24/60/19 68/165/19
f 86/197/20 83/191/20 26/67/20 69/167/20
f 84/194/21 85/196/21 27/68/21 24/61/21
f 70/170/22 29/73/22 31/78/22 71/172/22
f 70/170/23 28/71/23 34/85/23 73/174/23
f 10/26/24 1/3/24 28/70/24 30/74/24
f 64/159/25 10/27/25 30/75/25 71/171/25
f 34/84/26 32/80/26 36/88/26 38/92/26
f 60/155/27 5/15/27 33/83/27 72/173/27
f 5/16/28 29/72/28 35/86/28 33/82/28
f 28/70/29 1/3/29 32/80/29 34/84/29
f 37/90/30 39/94/30 43/105/30 41/99/30
f 73/174/31 34/85/31 38/93/31 75/176/31
f 33/82/32 35/86/32 39/94/32 37/90/32
f 72/173/33 33/83/33 37/91/33 74/175/33
f 76/178/34 41/100/34 43/106/34 77/180/34
f 74/175/35 37/91/35 41/101/35 76/177/35
f 38/92/36 36/88/36 40/96/36 42/102/36
f 75/176/37 38/93/37 42/103/37 77/179/37
f 102/226/38 97/218/38 51/129/38 81/187/38
f 91/206/39 10/27/39 45/111/39 93/210/39
f 90/204/40 13/33/40 46/114/40 92/208/40
f 61/156/41 9/24/41 44/108/41 78/181/41
f 64/159/42 14/34/42 47/117/42 79/183/42
f 96/216/43 94/213/43 50/126/43 80/186/43
f 101/225/44 99/222/44 48/120/44 80/185/44
f 104/228/45 98/220/45 49/123/45 95/215/45
f 103/227/46 100/224/46 50/127/46 94/212/46
f 8/23/47 53/137/47 52/132/47
f 8/23/48 52/132/48 4/10/48 106/232/48 3/7/48 55/146/48 7/20/48
f 54/142/49 58/151/49 89/203/49 5/16/49 107/234/49 6/18/49 57/150/49
f 100/223/50 101/225/50 80/185/50 50/128/50
f 95/214/51 96/216/51 80/186/51 48/121/51
f 10/27/52 64/159/52 79/183/52 45/111/52
f 13/33/53 61/156/53 78/181/53 46/114/53
f 98/219/54 102/226/54 81/187/54 49/124/54
f 39/95/55 75/176/55 77/179/55 43/107/55
f 36/89/56 74/175/56 76/177/56 40/97/56
f 40/98/57 76/178/57 77/180/57 42/104/57
f 32/81/58 72/173/58 74/175/58 36/89/58
f 35/87/59 73/174/59 75/176/59 39/95/59
f 1/2/60 60/155/60 72/173/60 32/81/60
f 14/34/61 64/159/61 71/171/61 31/79/61
f 29/73/62 70/170/62 73/174/62 35/87/62
f 28/71/63 70/170/63 71/172/63 30/76/63
f 85/196/64 86/198/64 69/168/64 27/68/64
f 82/189/65 87/200/65 68/165/65 25/65/65
f 27/69/66 69/169/66 68/166/66 24/62/66
f 11/29/67 62/157/67 67/164/67 22/56/67
f 18/43/68 66/162/68 65/160/68 20/51/68
f 7/21/69 55/147/69 63/158/69 12/31/69
f 22/56/70 67/164/70 65/161/70 17/42/70
f 9/24/71 61/156/71 62/157/71 11/29/71
f 19/48/72 66/162/72 87/200/72 82/189/72
f 12/30/73 18/44/73 20/52/73 21/54/73 16/39/73
f 66/163/74 18/47/74 84/194/74 87/201/74
f 23/57/75 19/49/75 82/190/75 83/191/75
f 49/125/76 81/188/76 96/216/76 95/214/76
f 97/217/77 103/227/77 94/212/77 51/130/77
f 99/221/78 104/228/78 95/215/78 48/122/78
f 81/188/79 51/131/79 94/213/79 96/216/79
f 14/34/80 90/204/80 92/208/80 47/117/80
f 9/24/81 91/206/81 93/210/81 44/108/81
f 3/8/82 88/202/82 91/207/82 9/25/82
f 5/16/83 89/203/83 90/205/83 14/35/83
f 44/109/84 93/211/84 104/228/84 99/221/84
f 47/118/85 92/209/85 103/227/85 97/217/85
f 45/112/86 79/184/86 102/226/86 98/219/86
f 46/115/87 78/182/87 101/225/87 100/223/87
f 92/209/88 46/116/88 100/224/88 103/227/88
f 93/211/89 45/113/89 98/220/89 104/228/89
f 78/182/90 44/110/90 99/222/90 101/225/90
f 79/184/91 47/119/91 97/218/91 102/226/91
f 59/152/92 4/11/92 52/133/92 53/138/92 54/141/92 108/235/92
f 136/298/93 110/241/93 109/238/93 135/296/93
f 121/271/94 120/269/94 114/253/94 117/261/94
f 139/304/95 111/244/95 110/242/95 136/297/95
f 135/295/96 109/239/96 112/247/96 144/314/96
f 144/313/97 112/248/97 111/245/97 139/303/97
f 111/246/98 112/249/98 109/240/98 110/243/98
f 117/262/99 114/254/99 116/259/99 115/256/99 113/250/99
f 124/277/100 121/270/100 117/263/100 113/251/100
f 120/268/101 129/284/101 116/260/101 114/255/101
f 130/286/102 124/276/102 113/252/102 115/257/102
f 129/284/103 130/285/103 115/258/103 116/260/103
f 57/150/104 56/148/104 132/289/104 127/282/104
f 127/282/105 132/289/105 131/287/105 128/283/105
f 128/283/106 131/287/106 130/285/106 129/284/106
f 56/149/107 2/4/107 126/280/107 132/290/107
f 132/290/108 126/280/108 125/278/108 131/288/108
f 131/288/109 125/278/109 124/276/109 130/286/109
f 54/142/110 57/150/110 127/282/110 118/264/110
f 118/264/111 127/282/111 128/283/111 119/266/111
f 119/266/112 128/283/112 129/284/112 120/268/112
f 2/5/113 108/237/113 123/274/113 126/281/113
f 126/281/114 123/274/114 122/272/114 125/279/114
f 125/279/115 122/272/115 121/270/115 124/277/115
f 108/236/116 54/143/116 118/265/116 123/275/116
f 123/275/117 118/265/117 119/267/117 122/273/117
f 122/273/118 119/267/118 120/269/118 121/271/118
f 54/144/119 142/309/119 141/307/119 53/139/119
f 142/309/120 143/311/120 140/305/120 141/307/120
f 143/311/121 144/313/121 139/303/121 140/305/121
f 4/12/122 133/291/122 142/310/122 54/145/122
f 133/291/123 134/293/123 143/312/123 142/310/123
f 134/293/124 135/295/124 144/314/124 143/312/124
f 53/140/125 141/308/125 138/301/125 52/134/125
f 141/308/126 140/306/126 137/299/126 138/301/126
f 140/306/127 139/304/127 136/297/127 137/299/127
f 52/135/128 138/302/128 133/292/128 4/13/128
f 138/302/129 137/300/129 134/294/129 133/292/129
f 137/300/130 136/298/130 135/296/130 134/294/130
f 105/230/131 1/3/131 88/202/131 59/153/131 108/237/131 2/5/131
f 86/199/132 85/195/132 83/192/132
f 83/192/133 85/195/133 18/45/133 23/58/133
f 63/158/134 15/37/134 23/59/134 18/46/134 12/31/134
f 84/194/135 18/47/135 85/196/135
l 52 106
