# Blender 3.3.1
# www.blender.org
mtllib monstruo_3_caminar502.mtl
o monstruo_grande
v 0.370840 2.024154 0.172959
v 0.522877 1.186509 0.090885
v -0.722762 1.773834 0.216714
v -0.293646 1.102535 0.215991
v 0.483020 2.323192 -0.177816
v 0.519332 1.621739 -0.246235
v -0.875993 2.002472 -0.171451
v -0.765619 1.718448 -0.256229
v -0.291466 2.392098 0.491668
v 0.259268 2.293148 0.398201
v -0.415116 2.354886 0.597021
v -1.253715 2.089351 0.029769
v -0.313820 2.570493 0.140380
v 0.226556 2.442429 0.146026
v -1.092772 1.944386 0.149981
v -0.469395 2.646202 0.184218
v -0.758778 2.273599 0.648250
v -1.506795 2.013778 0.339880
v -1.202825 2.031784 0.498925
v -0.958051 2.618244 0.440183
v -0.641033 2.689649 0.282009
v -0.491814 2.306412 0.572480
v -1.221636 1.973560 0.176664
v -1.739775 0.724665 0.998919
v -1.609092 0.701927 1.026764
v -1.623962 0.526720 0.824961
v -1.703727 0.540598 0.807965
v 0.416165 2.208531 0.358682
v 0.480564 2.412325 0.096610
v 0.373901 2.323207 0.381307
v 0.359927 2.464003 0.158808
v 0.617782 1.893726 0.110087
v 0.697450 2.009772 -0.073511
v 0.645088 1.973388 0.163702
v 0.702199 2.098228 0.007341
v 0.774181 1.686349 -0.014165
v 0.836488 1.727023 -0.101334
v 0.860467 1.632696 0.014235
v 0.920351 1.684413 -0.070233
v 0.775197 1.530349 -0.021164
v 0.904157 1.634502 -0.194855
v 0.890619 1.393458 0.061193
v 1.075947 1.549605 -0.206295
v -0.134825 2.438759 0.497632
v 0.073943 2.413663 0.468009
v -0.150542 2.545517 0.253634
v 0.050529 2.521090 0.227581
v -0.098026 2.759401 0.628154
v 0.109702 2.703804 0.587292
v -0.120804 2.863078 0.371674
v 0.086775 2.807647 0.331273
v -0.498638 1.143787 -0.000485
v -0.381852 1.193236 -0.208170
v -0.057019 1.274963 -0.333658
v -0.793623 1.821898 0.008438
v 0.558953 1.201054 -0.145779
v 0.344768 1.202372 -0.283658
v -0.017905 1.522957 -0.331339
v -0.015104 1.137912 0.183075
v 0.408476 2.113311 0.054269
v -0.292745 2.455592 0.368035
v -0.444803 2.612182 0.451868
v -1.027704 2.004212 0.029256
v 0.223527 2.423302 0.305914
v -0.775638 2.503486 0.629073
v -1.363427 2.137766 0.574226
v -0.596385 2.598824 0.459257
v -1.681420 0.712166 1.044708
v -1.661803 0.418665 0.712988
v 0.489679 2.319173 0.251384
v 0.370205 2.438163 0.293463
v 0.606604 1.938532 -0.014738
v 0.718567 2.045552 0.109770
v 0.804169 1.710407 -0.057014
v 0.890071 1.657638 -0.028492
v 0.817173 1.590321 -0.118295
v 0.944541 1.488100 -0.089721
v -0.142622 2.491920 0.375517
v 0.060777 2.467947 0.347542
v -0.140747 2.810972 0.502520
v 0.129621 2.755916 0.456506
v -1.488650 1.024966 0.953793
v -1.559307 0.852087 0.896348
v -1.714554 1.034382 0.907239
v -1.682311 0.873487 0.870138
v -1.634092 0.696286 0.809628
v -1.616841 1.010744 0.985437
v -0.027776 1.774604 0.504437
v 0.059245 2.155562 -0.216743
v 0.034221 2.530885 0.047221
v 0.036757 2.272867 0.599234
v -0.052021 2.532771 0.239836
v -0.028723 2.429349 0.483194
v -0.020468 2.850924 0.313136
v 0.009244 2.716061 0.646188
v -0.004210 2.834920 0.500104
v 0.083823 2.671533 0.255838
v 0.108239 2.552045 0.548325
v -0.130091 2.591810 0.585287
v -0.155834 2.711240 0.292195
v -0.159380 2.651097 0.440001
v 0.111418 2.611974 0.400387
v -0.038544 2.699498 0.253784
v -0.009043 2.564064 0.586495
v 0.387909 1.721723 -0.016016
v -0.584487 1.476625 0.237988
v 0.502178 1.844100 -0.248795
v 0.169452 1.162608 0.177574
v -0.211612 0.003840 -0.133176
v -0.366568 0.007520 -0.024372
v -0.369488 0.009138 -0.275453
v -0.233507 0.005290 -0.277866
v 0.329598 -0.005669 0.363506
v 0.254043 -0.040017 0.297923
v 0.337872 -0.022695 0.328673
v 0.305594 -0.035138 0.306400
v 0.270897 -0.001045 0.374535
v 0.098126 0.837812 -0.132339
v 0.141203 0.533452 0.050231
v 0.191676 0.265846 0.202879
v 0.232155 0.312640 0.373916
v 0.207325 0.568873 0.349612
v 0.204650 0.838537 0.278987
v 0.353315 0.306094 0.345243
v 0.411480 0.561070 0.297906
v 0.490465 0.896814 0.204476
v 0.356005 0.873529 -0.099994
v 0.321603 0.542283 0.075393
v 0.299199 0.271326 0.217991
v 0.367952 0.286161 0.266425
v 0.437359 0.566435 0.154998
v 0.520532 0.902840 0.015387
v -0.187222 0.820082 0.258886
v -0.169552 0.549155 0.177368
v -0.170809 0.313708 0.132856
v -0.454912 0.312062 0.101395
v -0.456599 0.586154 0.110043
v -0.471421 0.838340 0.127132
v -0.469081 0.372518 -0.161529
v -0.470281 0.651514 -0.155655
v -0.477270 0.897533 -0.146969
v -0.081681 0.847409 -0.169636
v -0.125565 0.625612 -0.181182
v -0.174902 0.411171 -0.169647
vn -0.1378 0.5720 -0.8086
vn -0.1113 0.0906 -0.9897
vn 0.5347 -0.1483 -0.8320
vn -0.2020 -0.2814 0.9381
vn 0.9422 0.0732 0.3269
vn 0.6374 0.7521 0.1674
vn 0.0370 0.9267 -0.3741
vn 0.6900 -0.2422 0.6821
vn 0.0218 0.8775 0.4791
vn -0.1955 0.5660 -0.8009
vn -0.0735 -0.5186 0.8518
vn -0.4708 -0.8407 -0.2674
vn -0.0741 -0.2023 0.9765
vn 0.3243 -0.9094 0.2603
vn 0.9604 -0.2740 0.0511
vn 0.0822 -0.8116 0.5784
vn 0.1677 0.9557 0.2421
vn 0.1023 -0.7469 0.6570
vn -0.5577 0.2765 0.7826
vn 0.8662 0.0066 -0.4997
vn -0.9327 0.0513 -0.3569
vn 0.6317 0.7310 0.2582
vn 0.6671 0.1131 0.7364
vn -0.1006 -0.5680 0.8168
vn -0.0110 0.5910 0.8066
vn -0.3710 -0.6040 0.7054
vn -0.4923 -0.4690 -0.7333
vn 0.7922 0.5438 -0.2770
vn -0.0957 -0.6539 0.7505
vn 0.4357 0.8146 -0.3829
vn 0.6568 0.0517 0.7523
vn 0.6208 0.4186 -0.6628
vn -0.5221 -0.2314 -0.8209
vn -0.3396 -0.6086 -0.7171
vn -0.7444 0.1848 -0.6417
vn -0.4394 0.0560 0.8965
vn 0.8655 0.1626 0.4738
vn 0.9706 0.0383 -0.2376
vn 0.4621 0.5363 0.7063
vn 0.1265 0.9910 0.0430
vn -0.2539 0.8701 0.4224
vn 0.4031 0.8886 0.2191
vn 0.0053 0.9778 0.2096
vn -0.9586 0.0587 0.2788
vn 0.3582 -0.3094 0.8809
vn -0.3246 0.4401 -0.8372
vn -0.6733 -0.5384 -0.5068
vn -0.8762 -0.4313 0.2150
vn 0.0904 0.0930 -0.9916
vn -0.9845 0.1751 -0.0124
vn 0.0339 0.8498 0.5260
vn 0.4967 0.7091 0.5005
vn -0.2008 0.8758 0.4389
vn 0.9954 -0.0821 0.0495
vn 0.6955 0.0144 0.7184
vn -0.9019 0.0600 -0.4277
vn -0.4123 -0.6930 -0.5914
vn -0.7927 -0.5275 -0.3056
vn 0.8905 0.3567 0.2825
vn -0.5932 -0.6764 -0.4366
vn -0.1277 0.9800 0.1528
vn 0.8140 0.5362 0.2234
vn 0.7122 0.3200 0.6248
vn -0.5442 0.2520 -0.8002
vn 0.2354 0.1347 0.9625
vn -0.5899 -0.6264 0.5096
vn -0.1722 0.3843 0.9070
vn -0.6126 0.6445 0.4575
vn -0.4817 -0.8002 -0.3572
vn 0.3884 0.3103 0.8677
vn 0.6229 0.5369 0.5690
vn 0.4058 0.2538 0.8780
vn -0.5015 0.6706 -0.5466
vn -0.7846 0.3941 0.4786
vn 0.9526 -0.3016 -0.0409
vn 0.4907 0.7362 0.4661
vn 0.2036 0.4033 -0.8921
vn -0.1661 -0.2775 0.9463
vn 0.4586 0.8824 0.1046
vn 0.3154 0.9487 0.0230
vn -0.0414 0.4903 0.8706
vn -0.3708 -0.1394 0.9182
vn 0.0417 0.7743 -0.6315
vn -0.0414 -0.5500 0.8341
vn -0.0211 0.1349 -0.9906
vn 0.9647 -0.2276 -0.1327
vn -0.9979 -0.0643 -0.0109
vn -0.2153 0.1575 -0.9638
vn 0.1251 -0.5705 0.8117
vn -0.9911 -0.0873 0.1008
vn 0.9516 -0.2092 -0.2253
vn 0.1077 -0.9629 -0.2475
vn 0.1454 -0.5239 0.8393
vn -0.9581 -0.1159 0.2619
vn -0.9627 -0.2706 -0.0007
vn 0.9922 -0.0965 -0.0790
vn -0.0458 0.2749 -0.9604
vn -0.0282 -0.9996 -0.0060
vn 0.0162 -0.8921 0.4516
vn 0.2175 0.0347 0.9754
vn 0.1584 -0.2670 -0.9506
vn 0.9750 -0.0566 0.2150
vn 0.5981 -0.2122 -0.7728
vn 0.5241 -0.4277 -0.7365
vn 0.5693 -0.4307 -0.7003
vn 0.5757 -0.4194 -0.7019
vn 0.9873 -0.0484 0.1510
vn 0.9710 -0.1797 0.1575
vn 0.9665 -0.1746 0.1881
vn 0.0879 -0.4320 -0.8976
vn 0.1620 -0.4825 -0.8608
vn 0.1452 -0.4698 -0.8708
vn 0.1917 0.3252 0.9260
vn 0.2206 0.2291 0.9481
vn 0.2431 0.1191 0.9627
vn -0.9394 -0.1051 0.3264
vn -0.9717 0.0261 0.2347
vn -0.9710 -0.0616 0.2308
vn -0.1831 -0.2644 -0.9469
vn -0.0600 0.0479 -0.9971
vn -0.0525 -0.0063 -0.9986
vn 0.9088 0.2098 0.3607
vn 0.9809 -0.0853 0.1751
vn 0.9930 -0.1139 0.0300
vn -0.9757 0.0432 -0.2149
vn -0.9987 -0.0451 0.0257
vn -0.9987 -0.0066 0.0511
vn -0.5678 0.1076 0.8161
vn -0.3395 -0.1946 0.9203
vn -0.1757 -0.1023 0.9791
vn 0.5907 -0.1321 0.7960
vn 0.2551 0.3739 -0.8917
vn -0.3454 -0.3927 -0.8524
vn -0.3485 -0.7722 -0.5312
vn -0.8886 -0.0737 -0.4526
vt 0.461701 0.809397
vt 0.301930 0.729761
vt 0.094158 0.499911
vt 0.498737 0.648456
vt 0.250869 0.553264
vt 0.714874 0.752530
vt 0.627854 0.740386
vt 0.227533 0.339544
vt 0.300362 0.438253
vt 0.625828 0.633709
vt 0.338991 0.679376
vt 0.653754 0.621457
vt 0.189641 0.785401
vt 0.531284 0.815038
vt 0.232114 0.729761
vt 0.806952 0.326283
vt 0.527824 0.712310
vt 0.703640 0.331352
vt 0.725736 0.123548
vt 0.557184 0.740386
vt 0.714874 0.681901
vt 0.693091 0.138725
vt 0.558638 0.706064
vt 0.944491 0.391302
vt 0.108931 0.369345
vt 0.090202 0.443431
vt 0.952837 0.467016
vt 0.108059 0.346292
vt 0.960024 0.371234
vt 0.653754 0.712739
vt 0.761990 0.055860
vt 0.265996 0.788213
vt 0.829683 0.188590
vt 0.886815 0.394232
vt 0.909606 0.471204
vt 0.826550 0.267021
vt 0.659457 0.749480
vt 0.206417 0.267620
vt 0.238389 0.812575
vt 0.882743 0.373659
vt 0.837846 0.166681
vt 0.102618 0.289588
vt 0.957957 0.321520
vt 0.918648 0.216117
vt 0.803322 0.012950
vt 0.106348 0.638847
vt 0.232551 0.755661
vt 0.798789 0.485160
vt 0.965752 0.239402
vt 0.153968 0.222285
vt 0.894228 0.312474
vt 0.856067 0.102710
vt 0.881967 0.351902
vt 0.842627 0.144082
vt 0.107159 0.331692
vt 0.958812 0.358201
vt 0.199778 0.246429
vt 0.138792 0.619338
vt 0.232114 0.797406
vt 0.967580 0.012950
vt 0.753483 0.682459
vt 0.843831 0.469074
vt 0.256421 0.022764
vt 0.824689 0.472884
vt 0.987050 0.016155
vt 0.832147 0.505580
vt 0.295109 0.018166
vt 0.782932 0.707368
vt 0.843831 0.503254
vt 0.076417 0.467161
vt 0.958695 0.494573
vt 0.833773 0.298242
vt 0.909847 0.503107
vt 0.076958 0.454690
vt 0.951531 0.482650
vt 0.837149 0.281767
vt 0.912926 0.487172
vt 0.064432 0.532285
vt 0.298790 0.687460
vt 0.825577 0.362572
vt 0.264894 0.686125
vt 0.056614 0.518895
vt 0.959622 0.549977
vt 0.837123 0.350740
vt 0.929664 0.555276
vt 0.051257 0.577890
vt 0.291936 0.641182
vt 0.824256 0.407314
vt 0.275162 0.640522
vt 0.035793 0.577862
vt 0.964581 0.612577
vt 0.838997 0.411720
vt 0.948088 0.615681
vt 0.039898 0.592711
vt 0.301778 0.620707
vt 0.403076 0.772170
vt 0.830596 0.428615
vt 0.403076 0.737417
vt 0.267017 0.619338
vt 0.012950 0.593438
vt 0.987050 0.637067
vt 0.428919 0.781443
vt 0.856067 0.440612
vt 0.428919 0.728949
vt 0.935424 0.646785
vt 0.945356 0.412724
vt 0.357115 0.854737
vt 0.331665 0.779032
vt 0.948027 0.441601
vt 0.799629 0.752473
vt 0.327972 0.853161
vt 0.906904 0.416128
vt 0.370069 0.779032
vt 0.684668 0.778429
vt 0.909575 0.445005
vt 0.655249 0.778999
vt 0.799629 0.791035
vt 0.330193 0.729131
vt 0.557184 0.775635
vt 0.363063 0.804932
vt 0.331684 0.807874
vt 0.754247 0.751428
vt 0.586563 0.768755
vt 0.566112 0.815056
vt 0.689281 0.828405
vt 0.370405 0.729131
vt 0.754247 0.791805
vt 0.657717 0.824383
vt 0.595492 0.808176
vt 0.327830 0.637821
vt 0.590400 0.642651
vt 0.164818 0.789976
vt 0.357235 0.619338
vt 0.642851 0.190721
vt 0.562581 0.649581
vt 0.406824 0.626953
vt 0.080449 0.619338
vt 0.646201 0.239681
vt 0.727583 0.656002
vt 0.597847 0.731399
vt 0.712829 0.722239
vt 0.658284 0.323708
vt 0.527919 0.666449
vt 0.661748 0.291537
vt 0.680225 0.245582
vt 0.377645 0.696957
vt 0.285191 0.477898
vt 0.483372 0.812325
vt 0.280072 0.728266
vt 0.924330 0.393087
vt 0.921760 0.373660
vt 0.678504 0.727397
vt 0.268491 0.812575
vt 0.930826 0.465310
vt 0.923786 0.327561
vt 0.941993 0.227167
vt 0.764056 0.466512
vt 0.919524 0.351927
vt 0.977463 0.013354
vt 0.833186 0.466512
vt 0.317617 0.012950
vt 0.798789 0.722800
vt 0.839639 0.522681
vt 0.934403 0.500152
vt 0.932138 0.484309
vt 0.281656 0.689101
vt 0.944784 0.554368
vt 0.283549 0.640852
vt 0.956335 0.614129
vt 0.284323 0.620942
vt 0.399765 0.754789
vt 0.961112 0.640376
vt 0.422297 0.755187
vt 0.926130 0.414426
vt 0.350867 0.779032
vt 0.928801 0.443303
vt 0.799629 0.771754
vt 0.350773 0.728949
vt 0.557184 0.796361
vt 0.753483 0.771844
vt 0.595492 0.787450
vt 0.985581 0.067358
vt 0.238180 0.070710
vt 0.259592 0.052321
vt 0.138792 0.821791
vt 0.953366 0.057503
vt 0.765454 0.639660
vt 0.120235 0.821584
vt 0.772730 0.660154
vt 0.283154 0.037949
vt 0.784440 0.682652
vt 0.128680 0.843910
vt 0.970110 0.058056
vt 0.758353 0.637393
vt 0.180368 0.432154
vt 0.759258 0.257498
vt 0.884976 0.446549
vt 0.828099 0.241547
vt 0.971226 0.428512
vt 0.101516 0.405509
vt 0.908240 0.430567
vt 0.669958 0.778714
vt 0.946692 0.427163
vt 0.342544 0.853949
vt 0.673120 0.826722
vt 0.582140 0.817526
vt 0.570535 0.766286
vt 0.348248 0.806122
vt 0.576699 0.792002
vt 0.653753 0.802281
vt 0.776512 0.794925
vt 0.776512 0.748700
vt 0.327830 0.829868
vt 0.363063 0.830170
vt 0.327830 0.753980
vt 0.373865 0.753980
vt 0.689281 0.803194
vt 0.351093 0.753886
vt 0.776117 0.771930
vt 0.671321 0.802907
vt 0.345899 0.829874
vt 0.457498 0.727404
vt 0.165986 0.548054
vt 0.260364 0.376248
vt 0.625887 0.695531
vt 0.520555 0.743605
vt 0.734596 0.339638
vt 0.406824 0.703049
vt 0.012950 0.651015
vt 0.277407 0.507014
vt 0.206214 0.619338
vt 0.706517 0.466512
vt 0.399765 0.822801
vt 0.181517 0.620770
vt 0.619265 0.470337
vt 0.422433 0.807343
vt 0.582936 0.466512
vt 0.458892 0.202188
vt 0.422433 0.843958
vt 0.727583 0.468029
vt 0.460639 0.221880
vt 0.402692 0.843997
vt 0.717439 0.778459
vt 0.429089 0.593438
vt 0.518160 0.466685
vt 0.070962 0.817001
vt 0.726094 0.791097
vt 0.457498 0.298878
vt 0.715181 0.783741
vt 0.523936 0.466512
vt 0.458951 0.311476
vt 0.719061 0.788282
vt 0.458165 0.306435
vt 0.058766 0.817583
vt 0.726094 0.778429
vt 0.431598 0.585369
vt 0.599953 0.261833
vt 0.080449 0.668491
vt 0.542336 0.274386
vt 0.076079 0.728305
vt 0.500395 0.287212
vt 0.064936 0.773359
vt 0.389801 0.564275
vt 0.039540 0.774208
vt 0.356388 0.547019
vt 0.031995 0.737396
vt 0.319737 0.531779
vt 0.030523 0.696843
vt 0.505723 0.512116
vt 0.384015 0.580847
vt 0.506522 0.550736
vt 0.346302 0.574833
vt 0.507607 0.604105
vt 0.294291 0.566034
vt 0.610540 0.298468
vt 0.545535 0.300686
vt 0.502363 0.302883
vt 0.504402 0.313331
vt 0.517745 0.511765
vt 0.548610 0.318269
vt 0.527842 0.556627
vt 0.609940 0.323717
vt 0.531284 0.618364
vt 0.660591 0.582499
vt 0.204501 0.743892
vt 0.668589 0.550878
vt 0.206214 0.710848
vt 0.668004 0.517120
vt 0.204545 0.678125
vt 0.623877 0.525891
vt 0.164692 0.675333
vt 0.610236 0.563455
vt 0.167167 0.712219
vt 0.605277 0.597358
vt 0.166352 0.745757
vt 0.511839 0.183186
vt 0.584607 0.521652
vt 0.552303 0.182624
vt 0.569857 0.561129
vt 0.598009 0.178631
vt 0.565182 0.606784
vt 0.592158 0.236754
vt 0.721184 0.600612
vt 0.550092 0.232946
vt 0.722606 0.558204
vt 0.518921 0.225772
vt 0.713819 0.525134
s 0
usemtl Material
f 89/196/1 7/19/1 13/33/1 90/198/1
f 8/22/2 7/19/2 89/196/2 58/145/2 54/138/2 53/134/2
f 6/18/3 56/142/3 57/144/3
f 3/8/4 106/224/4 4/9/4 59/147/4 88/195/4
f 6/17/5 107/226/5 5/14/5 60/148/5 1/1/5 105/222/5 2/4/5 56/143/5
f 61/150/6 13/34/6 16/40/6 62/151/6
f 5/16/7 14/36/7 31/76/7 29/72/7
f 88/195/8 1/3/8 10/26/8 91/200/8
f 67/158/9 21/53/9 20/51/9 65/155/9
f 13/33/10 7/19/10 12/31/10 16/41/10
f 3/8/11 9/25/11 11/28/11 15/38/11
f 55/141/12 3/6/12 15/37/12 63/152/12
f 66/156/13 19/49/13 17/43/13 65/155/13
f 23/57/14 22/55/14 17/42/14 19/50/14
f 83/184/15 82/183/15 25/63/15 26/67/15
f 15/38/16 11/28/16 22/55/16 23/57/16
f 62/151/17 16/40/17 21/53/17 67/158/17
f 69/163/18 26/66/18 25/64/18 68/160/18
f 87/193/19 84/186/19 24/60/19 68/159/19
f 86/190/20 83/184/20 26/67/20 69/161/20
f 84/187/21 85/189/21 27/68/21 24/61/21
f 70/164/22 29/73/22 31/77/22 71/165/22
f 70/164/23 28/71/23 34/83/23 73/167/23
f 10/26/24 1/3/24 28/70/24 30/74/24
f 64/154/25 10/27/25 30/75/25 71/165/25
f 34/82/26 32/78/26 36/86/26 38/90/26
f 60/149/27 5/15/27 33/81/27 72/166/27
f 5/16/28 29/72/28 35/84/28 33/80/28
f 28/70/29 1/3/29 32/78/29 34/82/29
f 37/88/30 39/92/30 43/103/30 41/97/30
f 73/167/31 34/83/31 38/91/31 75/169/31
f 33/80/32 35/84/32 39/92/32 37/88/32
f 72/166/33 33/81/33 37/89/33 74/168/33
f 76/171/34 41/98/34 43/104/34 77/173/34
f 74/168/35 37/89/35 41/99/35 76/170/35
f 38/90/36 36/86/36 40/94/36 42/100/36
f 75/169/37 38/91/37 42/101/37 77/172/37
f 102/219/38 97/211/38 51/127/38 81/180/38
f 91/199/39 10/27/39 45/109/39 93/203/39
f 90/197/40 13/34/40 46/112/40 92/201/40
f 61/150/41 9/24/41 44/106/41 78/174/41
f 64/154/42 14/35/42 47/115/42 79/176/42
f 96/209/43 94/206/43 50/124/43 80/179/43
f 101/218/44 99/215/44 48/118/44 80/178/44
f 104/221/45 98/213/45 49/121/45 95/208/45
f 103/220/46 100/217/46 50/125/46 94/205/46
f 8/23/47 53/135/47 52/131/47
f 8/23/48 52/131/48 4/10/48 106/225/48 3/7/48 55/140/48 7/20/48
f 54/138/49 58/145/49 89/196/49 5/16/49 107/227/49 6/18/49 57/144/49
f 100/216/50 101/218/50 80/178/50 50/126/50
f 95/207/51 96/209/51 80/179/51 48/119/51
f 10/27/52 64/154/52 79/176/52 45/109/52
f 13/34/53 61/150/53 78/174/53 46/112/53
f 98/212/54 102/219/54 81/180/54 49/122/54
f 39/93/55 75/169/55 77/172/55 43/105/55
f 36/87/56 74/168/56 76/170/56 40/95/56
f 40/96/57 76/171/57 77/173/57 42/102/57
f 32/79/58 72/166/58 74/168/58 36/87/58
f 35/85/59 73/167/59 75/169/59 39/93/59
f 1/2/60 60/149/60 72/166/60 32/79/60
f 14/35/61 64/154/61 71/165/61 31/77/61
f 29/73/62 70/164/62 73/167/62 35/85/62
f 28/71/63 70/164/63 71/165/63 30/75/63
f 85/189/64 86/191/64 69/162/64 27/68/64
f 82/182/65 87/193/65 68/159/65 25/65/65
f 27/69/66 69/163/66 68/160/66 24/62/66
f 11/29/67 62/151/67 67/158/67 22/56/67
f 18/44/68 66/156/68 65/155/68 20/51/68
f 7/21/69 55/141/69 63/152/69 12/30/69
f 22/56/70 67/158/70 65/155/70 17/43/70
f 9/24/71 61/150/71 62/151/71 11/29/71
f 19/49/72 66/156/72 87/193/72 82/182/72
f 12/31/73 18/45/73 20/52/73 21/54/73 16/41/73
f 66/157/74 18/48/74 84/187/74 87/194/74
f 23/57/75 19/50/75 82/183/75 83/184/75
f 49/123/76 81/181/76 96/209/76 95/207/76
f 97/210/77 103/220/77 94/205/77 51/128/77
f 99/214/78 104/221/78 95/208/78 48/120/78
f 81/181/79 51/129/79 94/206/79 96/209/79
f 14/35/80 90/197/80 92/201/80 47/115/80
f 9/24/81 91/199/81 93/203/81 44/106/81
f 3/8/82 88/195/82 91/200/82 9/25/82
f 5/16/83 89/196/83 90/198/83 14/36/83
f 44/107/84 93/204/84 104/221/84 99/214/84
f 47/116/85 92/202/85 103/220/85 97/210/85
f 45/110/86 79/177/86 102/219/86 98/212/86
f 46/113/87 78/175/87 101/218/87 100/216/87
f 92/202/88 46/114/88 100/217/88 103/220/88
f 93/204/89 45/111/89 98/213/89 104/221/89
f 78/175/90 44/108/90 99/215/90 101/218/90
f 79/177/91 47/117/91 97/211/91 102/219/91
f 59/146/92 4/11/92 52/130/92 53/133/92 54/136/92 108/228/92
f 136/291/93 110/234/93 109/231/93 135/289/93
f 121/264/94 120/262/94 114/246/94 117/254/94
f 139/297/95 111/237/95 110/235/95 136/290/95
f 135/288/96 109/232/96 112/240/96 144/307/96
f 144/306/97 112/241/97 111/238/97 139/296/97
f 111/239/98 112/242/98 109/233/98 110/236/98
f 117/255/99 114/247/99 116/252/99 115/249/99 113/243/99
f 124/270/100 121/263/100 117/256/100 113/244/100
f 120/261/101 129/277/101 116/253/101 114/248/101
f 130/279/102 124/269/102 113/245/102 115/250/102
f 129/277/103 130/278/103 115/251/103 116/253/103
f 57/144/104 56/142/104 132/282/104 127/275/104
f 127/275/105 132/282/105 131/280/105 128/276/105
f 128/276/106 131/280/106 130/278/106 129/277/106
f 56/143/107 2/4/107 126/273/107 132/283/107
f 132/283/108 126/273/108 125/271/108 131/281/108
f 131/281/109 125/271/109 124/269/109 130/279/109
f 54/138/110 57/144/110 127/275/110 118/257/110
f 118/257/111 127/275/111 128/276/111 119/259/111
f 119/259/112 128/276/112 129/277/112 120/261/112
f 2/5/113 108/230/113 123/267/113 126/274/113
f 126/274/114 123/267/114 122/265/114 125/272/114
f 125/272/115 122/265/115 121/263/115 124/270/115
f 108/229/116 54/137/116 118/258/116 123/268/116
f 123/268/117 118/258/117 119/260/117 122/266/117
f 122/266/118 119/260/118 120/262/118 121/264/118
f 54/138/119 142/302/119 141/300/119 53/134/119
f 142/302/120 143/304/120 140/298/120 141/300/120
f 143/304/121 144/306/121 139/296/121 140/298/121
f 4/12/122 133/284/122 142/303/122 54/139/122
f 133/284/123 134/286/123 143/305/123 142/303/123
f 134/286/124 135/288/124 144/307/124 143/305/124
f 53/135/125 141/301/125 138/294/125 52/131/125
f 141/301/126 140/299/126 137/292/126 138/294/126
f 140/299/127 139/297/127 136/290/127 137/292/127
f 52/132/128 138/295/128 133/285/128 4/13/128
f 138/295/129 137/293/129 134/287/129 133/285/129
f 137/293/130 136/291/130 135/289/130 134/287/130
f 105/223/131 1/3/131 88/195/131 59/147/131 108/230/131 2/5/131
f 86/192/132 85/188/132 83/185/132
f 83/185/133 85/188/133 18/46/133 23/58/133
f 63/153/134 15/39/134 23/59/134 18/47/134 12/32/134
f 84/187/135 18/48/135 85/189/135
l 52 106
