# Blender 3.3.1
# www.blender.org
mtllib monstruo_3_caminar510.mtl
o monstruo_grande
v 0.413147 2.005542 0.210205
v 0.517288 1.173129 0.115162
v -0.707310 1.799417 0.175393
v -0.311315 1.115609 0.200180
v 0.549634 2.291158 -0.141716
v 0.540694 1.596139 -0.227503
v -0.830632 2.039101 -0.224960
v -0.733234 1.747293 -0.299134
v -0.270300 2.401963 0.472014
v 0.281997 2.284080 0.417008
v -0.401537 2.369870 0.569398
v -1.207036 2.122537 -0.049543
v -0.263105 2.577473 0.118790
v 0.270909 2.428542 0.159328
v -1.057935 1.972515 0.083476
v -0.420101 2.657390 0.150587
v -0.749539 2.298249 0.598082
v -1.480920 2.050649 0.243620
v -1.187805 2.064400 0.421676
v -0.925892 2.644225 0.372073
v -0.597127 2.706390 0.235722
v -0.477369 2.323651 0.540589
v -1.186606 2.002705 0.100591
v -1.788048 0.778426 0.903125
v -1.660193 0.753189 0.940363
v -1.663815 0.578043 0.737992
v -1.741854 0.593447 0.715263
v 0.441572 2.196684 0.392104
v 0.524897 2.392456 0.128922
v 0.398216 2.311177 0.407637
v 0.402741 2.446802 0.181147
v 0.664589 1.876998 0.171350
v 0.761383 1.987345 -0.007407
v 0.687527 1.958794 0.224778
v 0.756337 2.078681 0.069375
v 0.830305 1.670129 0.069460
v 0.903854 1.705833 -0.010456
v 0.909751 1.611897 0.106940
v 0.981231 1.659858 0.029416
v 0.823079 1.514346 0.062547
v 0.976104 1.610313 -0.096011
v 0.920964 1.371622 0.156848
v 1.142607 1.515372 -0.089097
v -0.107073 2.442602 0.490667
v 0.102454 2.414154 0.470877
v -0.105147 2.549189 0.245118
v 0.093048 2.517551 0.228452
v -0.066176 2.759805 0.626583
v 0.141767 2.702104 0.589953
v -0.082012 2.865571 0.370272
v 0.125862 2.807956 0.333908
v -0.504413 1.162211 -0.025068
v -0.377042 1.207347 -0.227486
v -0.042369 1.275050 -0.335020
v -0.766458 1.850412 -0.037534
v 0.557041 1.177873 -0.120812
v 0.346331 1.177920 -0.261644
v 0.009033 1.521444 -0.330521
v -0.029305 1.140656 0.188515
v 0.459656 2.091328 0.091461
v -0.261365 2.463891 0.348048
v -0.414127 2.625891 0.419800
v -0.987620 2.034194 -0.032785
v 0.257023 2.413563 0.319378
v -0.759596 2.528270 0.575042
v -1.350472 2.175646 0.484360
v -0.566248 2.616952 0.417091
v -1.733418 0.764855 0.953020
v -1.695544 0.470600 0.623559
v 0.522293 2.304955 0.287114
v 0.403680 2.423936 0.317048
v 0.665258 1.917697 0.043884
v 0.764812 2.030039 0.174496
v 0.866082 1.692105 0.030113
v 0.945155 1.634859 0.067654
v 0.878617 1.571250 -0.029488
v 0.996125 1.462135 0.012632
v -0.107724 2.494842 0.367287
v 0.096034 2.466953 0.349415
v -0.105483 2.812766 0.500414
v 0.165164 2.754959 0.459961
v -1.528513 1.073732 0.876347
v -1.598177 0.902184 0.813913
v -1.750206 1.087656 0.813681
v -1.718519 0.925937 0.778864
v -1.669504 0.747754 0.721985
v -1.658913 1.062045 0.898620
v -0.036788 1.774686 0.503357
v 0.110767 2.143022 -0.212497
v 0.091094 2.523981 0.048852
v 0.046658 2.274812 0.602301
v -0.008981 2.532260 0.236111
v 0.001615 2.430379 0.480845
v 0.019561 2.852593 0.313590
v 0.040163 2.715099 0.646683
v 0.031339 2.835151 0.501223
v 0.123801 2.671583 0.257361
v 0.138974 2.551111 0.549965
v -0.099435 2.593163 0.581452
v -0.115029 2.714728 0.287664
v -0.124625 2.653682 0.435584
v 0.146574 2.611649 0.402429
v 0.002483 2.701213 0.252222
v 0.021368 2.563872 0.585418
v 0.425874 1.695490 -0.006506
v -0.588903 1.500983 0.205146
v 0.539048 1.813352 -0.229281
v 0.160294 1.160722 0.197569
v -0.242999 0.050236 -0.242324
v -0.398250 0.048448 -0.133981
v -0.400184 0.071523 -0.383750
v -0.264333 0.064474 -0.386267
v 0.312832 -0.013863 0.258956
v 0.239590 -0.031007 0.184877
v 0.322310 -0.020926 0.221079
v 0.290844 -0.027571 0.195475
v 0.253758 -0.013242 0.269330
v 0.090204 0.837329 -0.096272
v 0.133997 0.562693 0.047909
v 0.177708 0.278178 0.157094
v 0.209379 0.300435 0.334713
v 0.185858 0.557737 0.344946
v 0.186846 0.834596 0.312358
v 0.331852 0.297047 0.311617
v 0.392388 0.556579 0.304866
v 0.475902 0.891901 0.247356
v 0.346628 0.863480 -0.058414
v 0.313063 0.566898 0.081903
v 0.284350 0.280630 0.178183
v 0.350522 0.288116 0.231645
v 0.424873 0.580006 0.169151
v 0.509569 0.892295 0.058790
v -0.213427 0.827582 0.247395
v -0.196706 0.550360 0.135051
v -0.200776 0.320846 0.055455
v -0.484126 0.329956 0.019383
v -0.481222 0.600924 0.066966
v -0.491447 0.855224 0.105237
v -0.492270 0.424118 -0.233201
v -0.487687 0.696399 -0.186769
v -0.484630 0.917144 -0.165631
v -0.090390 0.857943 -0.172570
v -0.143167 0.665358 -0.207079
v -0.197277 0.456872 -0.231259
vn -0.0586 0.5730 -0.8175
vn -0.0484 0.0890 -0.9949
vn 0.5458 -0.1870 -0.8168
vn -0.2716 -0.2684 0.9242
vn 0.9468 0.0090 0.3217
vn 0.6441 0.7371 0.2046
vn 0.0814 0.9118 -0.4025
vn 0.6121 -0.2562 0.7481
vn 0.0084 0.8837 0.4679
vn -0.1353 0.5785 -0.8044
vn -0.1399 -0.5109 0.8482
vn -0.4718 -0.8292 -0.2998
vn -0.1458 -0.1866 0.9716
vn 0.2842 -0.9130 0.2927
vn 0.9486 -0.2926 0.1205
vn 0.0301 -0.8108 0.5846
vn 0.1766 0.9542 0.2416
vn 0.0399 -0.7479 0.6626
vn -0.6070 0.2881 0.7406
vn 0.9001 -0.0109 -0.4356
vn -0.9033 0.0691 -0.4234
vn 0.6219 0.7320 0.2782
vn 0.6034 0.1469 0.7838
vn -0.1675 -0.5407 0.8244
vn -0.0518 0.6101 0.7906
vn -0.4583 -0.5862 0.6681
vn -0.4209 -0.5048 -0.7536
vn 0.8030 0.5478 -0.2349
vn -0.1478 -0.6297 0.7626
vn 0.5189 0.7876 -0.3323
vn 0.5833 0.0715 0.8091
vn 0.6993 0.4031 -0.5903
vn -0.4296 -0.2622 -0.8641
vn -0.2946 -0.5906 -0.7512
vn -0.6573 0.2250 -0.7193
vn -0.5294 0.0863 0.8440
vn 0.8174 0.1161 0.5643
vn 0.9769 0.0293 -0.2115
vn 0.4376 0.5180 0.7350
vn 0.1601 0.9865 0.0334
vn -0.2472 0.8829 0.3992
vn 0.4321 0.8744 0.2208
vn 0.0122 0.9763 0.2163
vn -0.9640 0.0683 0.2570
vn 0.3349 -0.3208 0.8860
vn -0.2993 0.4503 -0.8412
vn -0.6702 -0.5132 -0.5361
vn -0.9053 -0.3873 0.1744
vn 0.1385 0.0902 -0.9862
vn -0.9819 0.1848 -0.0411
vn 0.0318 0.8456 0.5329
vn 0.5020 0.6988 0.5095
vn -0.2045 0.8834 0.4216
vn 0.9928 -0.0959 0.0717
vn 0.6139 -0.0207 0.7891
vn -0.8458 0.1093 -0.5222
vn -0.3852 -0.6720 -0.6324
vn -0.7554 -0.5417 -0.3686
vn 0.8613 0.3651 0.3534
vn -0.5481 -0.6966 -0.4629
vn -0.1099 0.9865 0.1213
vn 0.7871 0.5549 0.2694
vn 0.6658 0.3317 0.6683
vn -0.4798 0.2614 -0.8375
vn 0.1676 0.1314 0.9771
vn -0.6373 -0.6142 0.4654
vn -0.2201 0.4014 0.8891
vn -0.6268 0.6652 0.4057
vn -0.4723 -0.7825 -0.4058
vn 0.3349 0.3123 0.8890
vn 0.5997 0.5258 0.6031
vn 0.3500 0.2632 0.8990
vn -0.4492 0.6777 -0.5821
vn -0.8041 0.4221 0.4186
vn 0.9455 -0.3243 0.0284
vn 0.4885 0.7271 0.4823
vn 0.2318 0.4078 -0.8831
vn -0.1918 -0.2831 0.9397
vn 0.4661 0.8764 0.1209
vn 0.3545 0.9346 0.0296
vn -0.0803 0.5001 0.8622
vn -0.4328 -0.1164 0.8940
vn 0.1218 0.7612 -0.6370
vn -0.0802 -0.5596 0.8249
vn 0.0158 0.1360 -0.9906
vn 0.9629 -0.2502 -0.1012
vn -0.9959 -0.0584 -0.0698
vn -0.1773 0.1708 -0.9692
vn 0.0934 -0.5726 0.8145
vn -0.9955 -0.0649 0.0684
vn 0.9604 -0.2117 -0.1810
vn 0.0897 -0.9674 -0.2368
vn 0.1171 -0.6228 0.7736
vn -0.9647 -0.1764 0.1957
vn -0.9668 -0.2524 -0.0395
vn 0.9909 -0.1093 -0.0792
vn -0.0238 0.3787 -0.9252
vn -0.0527 -0.9944 -0.0911
vn 0.0281 -0.9792 0.2012
vn 0.1747 -0.1760 0.9688
vn 0.1983 -0.0495 -0.9789
vn 0.9648 -0.0984 0.2438
vn 0.6317 -0.0307 -0.7746
vn 0.5212 -0.4878 -0.7003
vn 0.5851 -0.4033 -0.7036
vn 0.6116 -0.3090 -0.7283
vn 0.9837 -0.0610 0.1694
vn 0.9622 -0.2029 0.1814
vn 0.9550 -0.2069 0.2126
vn 0.0951 -0.4918 -0.8655
vn 0.1760 -0.4363 -0.8824
vn 0.1862 -0.3284 -0.9260
vn 0.1690 0.3677 0.9144
vn 0.1933 0.1167 0.9742
vn 0.1883 -0.0201 0.9819
vn -0.9533 -0.0618 0.2955
vn -0.9785 -0.0100 0.2058
vn -0.9803 -0.0895 0.1758
vn -0.1463 -0.2696 -0.9518
vn -0.0199 0.1360 -0.9905
vn -0.0288 0.1487 -0.9885
vn 0.8961 0.1836 0.4042
vn 0.9705 -0.1366 0.1988
vn 0.9896 -0.1395 0.0341
vn -0.9638 0.0699 -0.2574
vn -0.9999 -0.0145 -0.0050
vn -0.9995 0.0082 0.0319
vn -0.5978 0.1249 0.7918
vn -0.3698 -0.2706 0.8888
vn -0.1994 -0.2387 0.9504
vn 0.5412 -0.1647 0.8246
vn 0.3262 0.3677 -0.8708
vn -0.2951 -0.4006 -0.8674
vn -0.3269 -0.7609 -0.5604
vn -0.8601 -0.0594 -0.5067
vt 0.461701 0.809397
vt 0.301930 0.729761
vt 0.094158 0.499911
vt 0.498737 0.648456
vt 0.250869 0.553264
vt 0.714874 0.752530
vt 0.627854 0.740386
vt 0.227533 0.339544
vt 0.300362 0.438253
vt 0.625828 0.633709
vt 0.338991 0.679376
vt 0.653754 0.621457
vt 0.189641 0.785401
vt 0.531284 0.815038
vt 0.232114 0.729761
vt 0.806952 0.326283
vt 0.527824 0.712310
vt 0.703640 0.331352
vt 0.725736 0.123548
vt 0.557184 0.740386
vt 0.714874 0.681901
vt 0.693091 0.138725
vt 0.558638 0.706064
vt 0.944491 0.391302
vt 0.108931 0.369345
vt 0.090202 0.443431
vt 0.952837 0.467016
vt 0.108059 0.346292
vt 0.960024 0.371234
vt 0.653754 0.712739
vt 0.761990 0.055860
vt 0.265996 0.788213
vt 0.829683 0.188590
vt 0.886815 0.394232
vt 0.909606 0.471204
vt 0.826550 0.267021
vt 0.659457 0.749480
vt 0.206417 0.267620
vt 0.238389 0.812575
vt 0.882743 0.373659
vt 0.837846 0.166681
vt 0.102618 0.289588
vt 0.957957 0.321520
vt 0.918648 0.216117
vt 0.803322 0.012950
vt 0.106348 0.638847
vt 0.232551 0.755661
vt 0.798789 0.485160
vt 0.965752 0.239402
vt 0.153968 0.222285
vt 0.894228 0.312474
vt 0.856067 0.102710
vt 0.881967 0.351902
vt 0.842627 0.144082
vt 0.107159 0.331692
vt 0.958812 0.358201
vt 0.199778 0.246429
vt 0.138792 0.619338
vt 0.232114 0.797406
vt 0.967580 0.012950
vt 0.753483 0.682459
vt 0.843831 0.469074
vt 0.256421 0.022764
vt 0.824689 0.472884
vt 0.987050 0.016155
vt 0.832147 0.505580
vt 0.295109 0.018166
vt 0.782932 0.707368
vt 0.843831 0.503254
vt 0.076417 0.467161
vt 0.958695 0.494573
vt 0.833773 0.298242
vt 0.909847 0.503107
vt 0.076958 0.454690
vt 0.951531 0.482650
vt 0.837149 0.281767
vt 0.912926 0.487172
vt 0.064432 0.532285
vt 0.298790 0.687460
vt 0.825577 0.362572
vt 0.264894 0.686125
vt 0.056614 0.518895
vt 0.959622 0.549977
vt 0.837123 0.350740
vt 0.929664 0.555276
vt 0.051257 0.577890
vt 0.291936 0.641182
vt 0.824256 0.407314
vt 0.275162 0.640522
vt 0.035793 0.577862
vt 0.964581 0.612577
vt 0.838997 0.411720
vt 0.948088 0.615681
vt 0.039898 0.592711
vt 0.301778 0.620707
vt 0.403076 0.772170
vt 0.830596 0.428615
vt 0.403076 0.737417
vt 0.267017 0.619338
vt 0.012950 0.593438
vt 0.987050 0.637067
vt 0.428919 0.781443
vt 0.856067 0.440612
vt 0.428919 0.728949
vt 0.935424 0.646785
vt 0.945356 0.412724
vt 0.357115 0.854737
vt 0.331665 0.779032
vt 0.948027 0.441601
vt 0.799629 0.752473
vt 0.327972 0.853161
vt 0.906904 0.416128
vt 0.370069 0.779032
vt 0.684668 0.778429
vt 0.909575 0.445005
vt 0.655249 0.778999
vt 0.799629 0.791035
vt 0.330193 0.729131
vt 0.557184 0.775635
vt 0.363063 0.804932
vt 0.331684 0.807874
vt 0.754247 0.751428
vt 0.586563 0.768755
vt 0.566112 0.815056
vt 0.689281 0.828405
vt 0.370405 0.729131
vt 0.754247 0.791805
vt 0.657717 0.824383
vt 0.595492 0.808176
vt 0.327830 0.637821
vt 0.590400 0.642651
vt 0.164818 0.789976
vt 0.357235 0.619338
vt 0.642851 0.190721
vt 0.562581 0.649581
vt 0.406824 0.626953
vt 0.080449 0.619338
vt 0.646201 0.239681
vt 0.727583 0.656002
vt 0.597847 0.731399
vt 0.712829 0.722239
vt 0.658284 0.323708
vt 0.527919 0.666449
vt 0.661748 0.291537
vt 0.680225 0.245582
vt 0.377645 0.696957
vt 0.285191 0.477898
vt 0.483372 0.812325
vt 0.280072 0.728266
vt 0.924330 0.393087
vt 0.921760 0.373660
vt 0.678504 0.727397
vt 0.268491 0.812575
vt 0.930826 0.465310
vt 0.923786 0.327561
vt 0.941993 0.227167
vt 0.764056 0.466512
vt 0.919524 0.351927
vt 0.977463 0.013354
vt 0.833186 0.466512
vt 0.317617 0.012950
vt 0.798789 0.722800
vt 0.839639 0.522681
vt 0.934403 0.500152
vt 0.932138 0.484309
vt 0.281656 0.689101
vt 0.944784 0.554368
vt 0.283549 0.640852
vt 0.956335 0.614129
vt 0.284323 0.620942
vt 0.399765 0.754789
vt 0.961112 0.640376
vt 0.422297 0.755187
vt 0.926130 0.414426
vt 0.350867 0.779032
vt 0.928801 0.443303
vt 0.799629 0.771754
vt 0.350773 0.728949
vt 0.557184 0.796361
vt 0.753483 0.771844
vt 0.595492 0.787450
vt 0.985581 0.067358
vt 0.238180 0.070710
vt 0.259592 0.052321
vt 0.138792 0.821791
vt 0.953366 0.057503
vt 0.765454 0.639660
vt 0.120235 0.821584
vt 0.772730 0.660154
vt 0.283154 0.037949
vt 0.784440 0.682652
vt 0.128680 0.843910
vt 0.970110 0.058056
vt 0.758353 0.637393
vt 0.180368 0.432154
vt 0.759258 0.257498
vt 0.884976 0.446549
vt 0.828099 0.241547
vt 0.971226 0.428512
vt 0.101516 0.405509
vt 0.908240 0.430567
vt 0.669958 0.778714
vt 0.946692 0.427163
vt 0.342544 0.853949
vt 0.673120 0.826722
vt 0.582140 0.817526
vt 0.570535 0.766286
vt 0.348248 0.806122
vt 0.576699 0.792002
vt 0.653753 0.802281
vt 0.776512 0.794925
vt 0.776512 0.748700
vt 0.327830 0.829868
vt 0.363063 0.830170
vt 0.327830 0.753980
vt 0.373865 0.753980
vt 0.689281 0.803194
vt 0.351093 0.753886
vt 0.776117 0.771930
vt 0.671321 0.802907
vt 0.345899 0.829874
vt 0.457498 0.727404
vt 0.165986 0.548054
vt 0.260364 0.376248
vt 0.625887 0.695531
vt 0.520555 0.743605
vt 0.734596 0.339638
vt 0.406824 0.703049
vt 0.012950 0.651015
vt 0.277407 0.507014
vt 0.206214 0.619338
vt 0.706517 0.466512
vt 0.399765 0.822801
vt 0.181517 0.620770
vt 0.619265 0.470337
vt 0.422433 0.807343
vt 0.582936 0.466512
vt 0.458892 0.202188
vt 0.422433 0.843958
vt 0.727583 0.468029
vt 0.460639 0.221880
vt 0.402692 0.843997
vt 0.717439 0.778459
vt 0.429089 0.593438
vt 0.518160 0.466685
vt 0.070962 0.817001
vt 0.726094 0.791097
vt 0.457498 0.298878
vt 0.715181 0.783741
vt 0.523936 0.466512
vt 0.458951 0.311476
vt 0.719061 0.788282
vt 0.458165 0.306435
vt 0.058766 0.817583
vt 0.726094 0.778429
vt 0.431598 0.585369
vt 0.599953 0.261833
vt 0.080449 0.668491
vt 0.542336 0.274386
vt 0.076079 0.728305
vt 0.500395 0.287212
vt 0.064936 0.773359
vt 0.389801 0.564275
vt 0.039540 0.774208
vt 0.356388 0.547019
vt 0.031995 0.737396
vt 0.319737 0.531779
vt 0.030523 0.696843
vt 0.505723 0.512116
vt 0.384015 0.580847
vt 0.506522 0.550736
vt 0.346302 0.574833
vt 0.507607 0.604105
vt 0.294291 0.566034
vt 0.610540 0.298468
vt 0.545535 0.300686
vt 0.502363 0.302883
vt 0.504402 0.313331
vt 0.517745 0.511765
vt 0.548610 0.318269
vt 0.527842 0.556627
vt 0.609940 0.323717
vt 0.531284 0.618364
vt 0.660591 0.582499
vt 0.204501 0.743892
vt 0.668589 0.550878
vt 0.206214 0.710848
vt 0.668004 0.517120
vt 0.204545 0.678125
vt 0.623877 0.525891
vt 0.164692 0.675333
vt 0.610236 0.563455
vt 0.167167 0.712219
vt 0.605277 0.597358
vt 0.166352 0.745757
vt 0.511839 0.183186
vt 0.584607 0.521652
vt 0.552303 0.182624
vt 0.569857 0.561129
vt 0.598009 0.178631
vt 0.565182 0.606784
vt 0.592158 0.236754
vt 0.721184 0.600612
vt 0.550092 0.232946
vt 0.722606 0.558204
vt 0.518921 0.225772
vt 0.713819 0.525134
s 0
usemtl Material
f 89/196/1 7/19/1 13/33/1 90/198/1
f 8/22/2 7/19/2 89/196/2 58/145/2 54/138/2 53/134/2
f 6/18/3 56/142/3 57/144/3
f 3/8/4 106/224/4 4/9/4 59/147/4 88/195/4
f 6/17/5 107/226/5 5/14/5 60/148/5 1/1/5 105/222/5 2/4/5 56/143/5
f 61/150/6 13/34/6 16/40/6 62/151/6
f 5/16/7 14/36/7 31/76/7 29/72/7
f 88/195/8 1/3/8 10/26/8 91/200/8
f 67/158/9 21/53/9 20/51/9 65/155/9
f 13/33/10 7/19/10 12/31/10 16/41/10
f 3/8/11 9/25/11 11/28/11 15/38/11
f 55/141/12 3/6/12 15/37/12 63/152/12
f 66/156/13 19/49/13 17/43/13 65/155/13
f 23/57/14 22/55/14 17/42/14 19/50/14
f 83/184/15 82/183/15 25/63/15 26/67/15
f 15/38/16 11/28/16 22/55/16 23/57/16
f 62/151/17 16/40/17 21/53/17 67/158/17
f 69/163/18 26/66/18 25/64/18 68/160/18
f 87/193/19 84/186/19 24/60/19 68/159/19
f 86/190/20 83/184/20 26/67/20 69/161/20
f 84/187/21 85/189/21 27/68/21 24/61/21
f 70/164/22 29/73/22 31/77/22 71/165/22
f 70/164/23 28/71/23 34/83/23 73/167/23
f 10/26/24 1/3/24 28/70/24 30/74/24
f 64/154/25 10/27/25 30/75/25 71/165/25
f 34/82/26 32/78/26 36/86/26 38/90/26
f 60/149/27 5/15/27 33/81/27 72/166/27
f 5/16/28 29/72/28 35/84/28 33/80/28
f 28/70/29 1/3/29 32/78/29 34/82/29
f 37/88/30 39/92/30 43/103/30 41/97/30
f 73/167/31 34/83/31 38/91/31 75/169/31
f 33/80/32 35/84/32 39/92/32 37/88/32
f 72/166/33 33/81/33 37/89/33 74/168/33
f 76/171/34 41/98/34 43/104/34 77/173/34
f 74/168/35 37/89/35 41/99/35 76/170/35
f 38/90/36 36/86/36 40/94/36 42/100/36
f 75/169/37 38/91/37 42/101/37 77/172/37
f 102/219/38 97/211/38 51/127/38 81/180/38
f 91/199/39 10/27/39 45/109/39 93/203/39
f 90/197/40 13/34/40 46/112/40 92/201/40
f 61/150/41 9/24/41 44/106/41 78/174/41
f 64/154/42 14/35/42 47/115/42 79/176/42
f 96/209/43 94/206/43 50/124/43 80/179/43
f 101/218/44 99/215/44 48/118/44 80/178/44
f 104/221/45 98/213/45 49/121/45 95/208/45
f 103/220/46 100/217/46 50/125/46 94/205/46
f 8/23/47 53/135/47 52/131/47
f 8/23/48 52/131/48 4/10/48 106/225/48 3/7/48 55/140/48 7/20/48
f 54/138/49 58/145/49 89/196/49 5/16/49 107/227/49 6/18/49 57/144/49
f 100/216/50 101/218/50 80/178/50 50/126/50
f 95/207/51 96/209/51 80/179/51 48/119/51
f 10/27/52 64/154/52 79/176/52 45/109/52
f 13/34/53 61/150/53 78/174/53 46/112/53
f 98/212/54 102/219/54 81/180/54 49/122/54
f 39/93/55 75/169/55 77/172/55 43/105/55
f 36/87/56 74/168/56 76/170/56 40/95/56
f 40/96/57 76/171/57 77/173/57 42/102/57
f 32/79/58 72/166/58 74/168/58 36/87/58
f 35/85/59 73/167/59 75/169/59 39/93/59
f 1/2/60 60/149/60 72/166/60 32/79/60
f 14/35/61 64/154/61 71/165/61 31/77/61
f 29/73/62 70/164/62 73/167/62 35/85/62
f 28/71/63 70/164/63 71/165/63 30/75/63
f 85/189/64 86/191/64 69/162/64 27/68/64
f 82/182/65 87/193/65 68/159/65 25/65/65
f 27/69/66 69/163/66 68/160/66 24/62/66
f 11/29/67 62/151/67 67/158/67 22/56/67
f 18/44/68 66/156/68 65/155/68 20/51/68
f 7/21/69 55/141/69 63/152/69 12/30/69
f 22/56/70 67/158/70 65/155/70 17/43/70
f 9/24/71 61/150/71 62/151/71 11/29/71
f 19/49/72 66/156/72 87/193/72 82/182/72
f 12/31/73 18/45/73 20/52/73 21/54/73 16/41/73
f 66/157/74 18/48/74 84/187/74 87/194/74
f 23/57/75 19/50/75 82/183/75 83/184/75
f 49/123/76 81/181/76 96/209/76 95/207/76
f 97/210/77 103/220/77 94/205/77 51/128/77
f 99/214/78 104/221/78 95/208/78 48/120/78
f 81/181/79 51/129/79 94/206/79 96/209/79
f 14/35/80 90/197/80 92/201/80 47/115/80
f 9/24/81 91/199/81 93/203/81 44/106/81
f 3/8/82 88/195/82 91/200/82 9/25/82
f 5/16/83 89/196/83 90/198/83 14/36/83
f 44/107/84 93/204/84 104/221/84 99/214/84
f 47/116/85 92/202/85 103/220/85 97/210/85
f 45/110/86 79/177/86 102/219/86 98/212/86
f 46/113/87 78/175/87 101/218/87 100/216/87
f 92/202/88 46/114/88 100/217/88 103/220/88
f 93/204/89 45/111/89 98/213/89 104/221/89
f 78/175/90 44/108/90 99/215/90 101/218/90
f 79/177/91 47/117/91 97/211/91 102/219/91
f 59/146/92 4/11/92 52/130/92 53/133/92 54/136/92 108/228/92
f 136/291/93 110/234/93 109/231/93 135/289/93
f 121/264/94 120/262/94 114/246/94 117/254/94
f 139/297/95 111/237/95 110/235/95 136/290/95
f 135/288/96 109/232/96 112/240/96 144/307/96
f 144/306/97 112/241/97 111/238/97 139/296/97
f 111/239/98 112/242/98 109/233/98 110/236/98
f 117/255/99 114/247/99 116/252/99 115/249/99 113/243/99
f 124/270/100 121/263/100 117/256/100 113/244/100
f 120/261/101 129/277/101 116/253/101 114/248/101
f 130/279/102 124/269/102 113/245/102 115/250/102
f 129/277/103 130/278/103 115/251/103 116/253/103
f 57/144/104 56/142/104 132/282/104 127/275/104
f 127/275/105 132/282/105 131/280/105 128/276/105
f 128/276/106 131/280/106 130/278/106 129/277/106
f 56/143/107 2/4/107 126/273/107 132/283/107
f 132/283/108 126/273/108 125/271/108 131/281/108
f 131/281/109 125/271/109 124/269/109 130/279/109
f 54/138/110 57/144/110 127/275/110 118/257/110
f 118/257/111 127/275/111 128/276/111 119/259/111
f 119/259/112 128/276/112 129/277/112 120/261/112
f 2/5/113 108/230/113 123/267/113 126/274/113
f 126/274/114 123/267/114 122/265/114 125/272/114
f 125/272/115 122/265/115 121/263/115 124/270/115
f 108/229/116 54/137/116 118/258/116 123/268/116
f 123/268/117 118/258/117 119/260/117 122/266/117
f 122/266/118 119/260/118 120/262/118 121/264/118
f 54/138/119 142/302/119 141/300/119 53/134/119
f 142/302/120 143/304/120 140/298/120 141/300/120
f 143/304/121 144/306/121 139/296/121 140/298/121
f 4/12/122 133/284/122 142/303/122 54/139/122
f 133/284/123 134/286/123 143/305/123 142/303/123
f 134/286/124 135/288/124 144/307/124 143/305/124
f 53/135/125 141/301/125 138/294/125 52/131/125
f 141/301/126 140/299/126 137/292/126 138/294/126
f 140/299/127 139/297/127 136/290/127 137/292/127
f 52/132/128 138/295/128 133/285/128 4/13/128
f 138/295/129 137/293/129 134/287/129 133/285/129
f 137/293/130 136/291/130 135/289/130 134/287/130
f 105/223/131 1/3/131 88/195/131 59/147/131 108/230/131 2/5/131
f 86/192/132 85/188/132 83/185/132
f 83/185/133 85/188/133 18/46/133 23/58/133
f 63/153/134 15/39/134 23/59/134 18/47/134 12/32/134
f 84/187/135 18/48/135 85/189/135
l 52 106
