# Blender 3.3.1
# www.blender.org
mtllib monstruo_3_grande_caminar553.mtl
o monstruo_grande
v 0.578041 1.923163 0.417505
v 0.525275 1.094003 0.069835
v -0.578107 1.869285 0.142321
v -0.292366 1.221122 0.221647
v 0.902389 2.167736 0.173063
v 0.651023 1.536240 -0.214432
v -0.617722 2.082079 -0.301934
v -0.606302 1.763928 -0.347736
v -0.143204 2.410539 0.463265
v 0.381471 2.237486 0.530413
v -0.293386 2.398538 0.544317
v -0.953293 2.178922 -0.225625
v -0.064029 2.575245 0.115740
v 0.460859 2.355661 0.264194
v -0.848855 2.033839 -0.041477
v -0.213422 2.671936 0.118648
v -0.662422 2.365474 0.493537
v -1.289708 2.126665 -0.032455
v -1.056952 2.145339 0.217425
v -0.750407 2.703448 0.209142
v -0.395716 2.737518 0.160646
v -0.375446 2.365001 0.507565
v -0.973766 2.064801 -0.075821
v -1.790237 0.884342 0.551213
v -1.677813 0.857587 0.622031
v -1.625077 0.686429 0.423116
v -1.693698 0.702760 0.379891
v 0.490590 2.137972 0.547778
v 0.713106 2.306952 0.366210
v 0.484583 2.253181 0.548068
v 0.581763 2.364297 0.335801
v 0.763015 1.864110 0.576110
v 0.976332 1.870029 0.534537
v 0.773718 1.919563 0.605309
v 0.931706 2.008303 0.524148
v 0.816121 1.744860 0.849123
v 0.930084 1.716957 0.832693
v 0.848052 1.799772 0.934366
v 0.956987 1.771324 0.912284
v 0.768334 1.703538 0.992529
v 0.996075 1.646041 0.949284
v 0.764604 1.798099 1.165412
v 1.106440 1.705065 1.096339
v 0.022607 2.435091 0.510261
v 0.227226 2.388464 0.516538
v 0.063855 2.534020 0.265410
v 0.262639 2.479244 0.273116
v 0.077076 2.745013 0.653327
v 0.282507 2.671641 0.635268
v 0.092528 2.850989 0.396830
v 0.298362 2.777309 0.378557
v -0.499667 1.216847 0.025334
v -0.393465 1.192772 -0.190759
v -0.034320 1.280716 -0.332840
v -0.610985 1.912689 -0.088874
v 0.537162 1.159947 -0.161820
v 0.318529 1.193576 -0.275951
v 0.073606 1.519611 -0.315838
v -0.030387 1.122696 0.196924
v 0.696975 1.988363 0.345100
v -0.108606 2.467901 0.341828
v -0.252554 2.647584 0.387252
v -0.769841 2.092434 -0.135722
v 0.404089 2.358622 0.420393
v -0.647428 2.592957 0.455780
v -1.222914 2.265461 0.227799
v -0.404314 2.655245 0.358818
v -1.751660 0.869463 0.614050
v -1.623770 0.581429 0.302208
v 0.612916 2.240558 0.501578
v 0.538139 2.355620 0.463698
v 0.855579 1.822923 0.526022
v 0.865453 1.980189 0.616690
v 0.871114 1.730000 0.838519
v 0.902655 1.784912 0.923333
v 0.874277 1.657797 0.954100
v 0.921098 1.721694 1.099748
v 0.041098 2.484011 0.386254
v 0.242376 2.435335 0.393530
v 0.053378 2.800463 0.524361
v 0.321556 2.722198 0.507926
v -1.533323 1.178481 0.603732
v -1.582964 1.008617 0.520896
v -1.728848 1.195530 0.482460
v -1.688781 1.033800 0.454239
v -1.625983 0.856451 0.409623
v -1.664776 1.167181 0.588599
v 0.018238 1.749995 0.513599
v 0.333662 2.086839 -0.166727
v 0.286578 2.479705 0.096746
v 0.109850 2.269220 0.640132
v 0.156964 2.506901 0.267166
v 0.131062 2.412013 0.512485
v 0.197964 2.829958 0.348914
v 0.177493 2.692440 0.682703
v 0.190873 2.812429 0.537540
v 0.294600 2.639309 0.301791
v 0.271818 2.521621 0.594390
v 0.035547 2.581781 0.604249
v 0.057396 2.702383 0.309673
v 0.028634 2.643469 0.456432
v 0.297801 2.580117 0.448085
v 0.176319 2.679073 0.285043
v 0.152882 2.543092 0.619257
v 0.649859 1.574512 0.104788
v -0.539581 1.582886 0.176145
v 0.750427 1.729066 -0.147046
v 0.167341 1.065591 0.191969
v -0.274960 0.064099 0.217095
v -0.413816 0.099963 0.340958
v -0.449938 0.054988 0.096148
v -0.315884 0.040370 0.078062
v 0.319431 -0.081729 -0.074784
v 0.245760 -0.093456 -0.150059
v 0.328687 -0.085369 -0.113128
v 0.297099 -0.090351 -0.139059
v 0.260413 -0.083100 -0.064263
v 0.070105 0.831030 -0.176047
v 0.141656 0.539774 -0.137548
v 0.182623 0.235428 -0.124503
v 0.213029 0.201473 0.051632
v 0.192482 0.443334 0.140757
v 0.197051 0.716678 0.195313
v 0.335652 0.203666 0.029195
v 0.399787 0.451866 0.102983
v 0.483185 0.788426 0.131388
v 0.325714 0.848397 -0.158140
v 0.320727 0.531081 -0.105353
v 0.289135 0.229938 -0.103004
v 0.354918 0.219614 -0.049535
v 0.432637 0.515389 -0.019340
v 0.499322 0.842153 -0.053668
v -0.183587 0.970627 0.363967
v -0.187398 0.683692 0.371679
v -0.203418 0.444083 0.400557
v -0.488294 0.452660 0.385063
v -0.475902 0.718300 0.309216
v -0.475998 0.965105 0.250516
v -0.516613 0.435081 0.115374
v -0.502881 0.701885 0.037780
v -0.500339 0.933243 -0.026728
v -0.110172 0.854112 -0.058663
v -0.162276 0.645936 0.005934
v -0.221893 0.449169 0.082662
vn 0.1123 0.5644 -0.8178
vn 0.0358 0.0512 -0.9980
vn 0.4179 -0.2486 -0.8738
vn -0.3846 -0.2118 0.8984
vn 0.9000 -0.3768 0.2192
vn 0.6807 0.6711 0.2938
vn 0.3258 0.8588 -0.3955
vn 0.2710 -0.2341 0.9337
vn -0.0484 0.9127 0.4058
vn 0.0796 0.5420 -0.8366
vn -0.3591 -0.4343 0.8261
vn -0.4798 -0.8155 -0.3236
vn -0.4103 -0.1069 0.9057
vn 0.1147 -0.9030 0.4141
vn 0.8774 -0.3008 0.3737
vn -0.2071 -0.7485 0.6300
vn 0.2172 0.9466 0.2384
vn -0.1466 -0.7608 0.6322
vn -0.7882 0.2770 0.5496
vn 0.9857 -0.0081 -0.1681
vn -0.7498 0.0831 -0.6564
vn 0.4696 0.7475 0.4697
vn -0.0580 0.2805 0.9581
vn -0.5162 -0.4375 0.7363
vn -0.2162 0.6815 0.6991
vn -0.9619 0.1137 0.2487
vn 0.1571 -0.7168 -0.6794
vn 0.8082 0.5587 0.1862
vn -0.5934 -0.5273 0.6081
vn 0.8293 0.0962 -0.5504
vn -0.2652 0.8446 0.4651
vn 0.9954 0.0670 0.0685
vn 0.1789 -0.9157 -0.3599
vn -0.0724 -0.9051 0.4190
vn -0.1468 -0.8610 -0.4870
vn -0.8126 0.5384 -0.2230
vn 0.4513 0.8673 0.2101
vn 0.9927 -0.0426 -0.1127
vn 0.3071 0.5223 0.7956
vn 0.2678 0.9625 0.0436
vn -0.2182 0.9119 0.3476
vn 0.4606 0.8504 0.2542
vn 0.0677 0.9733 0.2194
vn -0.9758 0.1407 0.1675
vn 0.2290 -0.3443 0.9105
vn -0.1860 0.4703 -0.8627
vn -0.8353 -0.4115 -0.3647
vn -0.9658 -0.1745 0.1918
vn 0.2501 0.2139 -0.9443
vn -0.9572 0.2560 -0.1349
vn 0.0477 0.8421 0.5372
vn 0.4293 0.6982 0.5729
vn -0.1813 0.9084 0.3768
vn 0.9718 -0.1708 0.1629
vn 0.1366 0.9508 0.2779
vn -0.4294 -0.7976 -0.4236
vn -0.2192 -0.8614 0.4582
vn -0.4348 -0.8618 -0.2613
vn 0.3145 0.8184 0.4809
vn -0.1508 -0.8880 -0.4345
vn -0.0269 0.9996 0.0106
vn 0.4430 0.6663 0.5998
vn 0.3513 0.2696 0.8966
vn -0.2276 0.2807 -0.9324
vn -0.1109 0.1113 0.9876
vn -0.7420 -0.6191 0.2571
vn -0.2846 0.4776 0.8312
vn -0.6646 0.7247 0.1821
vn -0.4688 -0.7977 -0.3794
vn 0.1066 0.3395 0.9345
vn 0.5622 0.4762 0.6762
vn 0.0950 0.3010 0.9489
vn -0.2404 0.6561 -0.7154
vn -0.8734 0.4546 0.1749
vn 0.8935 -0.3330 0.3014
vn 0.4970 0.6893 0.5270
vn 0.3447 0.3862 -0.8556
vn -0.2986 -0.2667 0.9164
vn 0.5186 0.8388 0.1654
vn 0.4452 0.8932 0.0628
vn -0.1493 0.5597 0.8151
vn -0.5565 -0.0729 0.8276
vn 0.4273 0.7050 -0.5660
vn -0.2131 -0.5547 0.8043
vn 0.1350 0.1170 -0.9839
vn 0.9394 -0.3426 0.0095
vn -0.9825 0.0082 -0.1858
vn -0.0627 0.1815 -0.9814
vn -0.0387 -0.5658 0.8237
vn -0.9992 0.0200 -0.0344
vn 0.9634 -0.2650 -0.0408
vn -0.1056 -0.9850 -0.1363
vn 0.2086 -0.2893 0.9342
vn -0.9669 -0.2082 0.1476
vn -0.9691 -0.1992 0.1456
vn 0.9770 -0.1765 -0.1198
vn -0.1175 0.0340 -0.9925
vn -0.0814 -0.9781 0.1914
vn 0.0437 -0.9924 0.1149
vn 0.1741 -0.3461 0.9219
vn 0.2020 0.1144 -0.9727
vn 0.9661 -0.1323 0.2215
vn 0.6320 0.1039 -0.7680
vn 0.4391 -0.3080 -0.8440
vn 0.5376 -0.1715 -0.8256
vn 0.6089 -0.0747 -0.7897
vn 0.9924 -0.1183 0.0328
vn 0.9730 -0.2195 0.0713
vn 0.9516 -0.2746 0.1381
vn 0.0801 -0.3154 -0.9456
vn 0.1161 -0.1349 -0.9840
vn 0.1837 -0.0221 -0.9827
vn 0.2634 0.0903 0.9604
vn 0.2245 -0.1631 0.9607
vn 0.1800 -0.3247 0.9285
vn -0.9454 -0.0964 0.3112
vn -0.9667 -0.1211 0.2252
vn -0.9818 -0.1298 0.1383
vn -0.1915 -0.4916 -0.8495
vn -0.1322 -0.2642 -0.9554
vn -0.1159 -0.2972 -0.9478
vn 0.9256 0.2299 0.3006
vn 0.9858 -0.0907 0.1410
vn 0.9859 -0.1666 0.0175
vn -0.9854 0.0330 -0.1673
vn -0.9955 0.0284 0.0906
vn -0.9924 0.0765 0.0966
vn -0.4814 0.4313 0.7630
vn -0.2822 0.1204 0.9518
vn -0.1164 0.2078 0.9712
vn 0.3371 -0.3799 0.8614
vn 0.5559 0.3825 -0.7380
vn -0.0400 -0.4348 -0.8997
vn -0.1543 -0.7816 -0.6044
vn -0.7101 -0.0534 -0.7021
vt 0.882279 0.260085
vt 0.436089 0.649131
vt 0.117664 0.305524
vt 0.860974 0.338762
vt 0.079561 0.383885
vt 0.278417 0.728674
vt 0.111517 0.716819
vt 0.301243 0.337859
vt 0.232943 0.387386
vt 0.111517 0.662267
vt 0.671871 0.687525
vt 0.175114 0.511099
vt 0.930991 0.712692
vt 0.796001 0.259488
vt 0.522181 0.649131
vt 0.719621 0.316178
vt 0.801110 0.310020
vt 0.698705 0.366293
vt 0.510656 0.337024
vt 0.023033 0.717149
vt 0.367094 0.730187
vt 0.507246 0.358198
vt 0.018976 0.695717
vt 0.103380 0.570561
vt 0.268725 0.266033
vt 0.143950 0.273348
vt 0.098384 0.631539
vt 0.301351 0.259488
vt 0.128079 0.559933
vt 0.480438 0.333338
vt 0.348619 0.714075
vt 0.604958 0.268707
vt 0.031105 0.562973
vt 0.043818 0.625810
vt 0.721993 0.282954
vt 0.329365 0.336360
vt 0.302724 0.713315
vt 0.030374 0.549675
vt 0.582817 0.260846
vt 0.875347 0.642471
vt 0.380514 0.272320
vt 0.124895 0.517524
vt 0.813390 0.578569
vt 0.436089 0.332372
vt 0.956124 0.588845
vt 0.367094 0.692599
vt 0.367094 0.522797
vt 0.871643 0.594841
vt 0.398138 0.324445
vt 0.043891 0.509019
vt 0.796001 0.641153
vt 0.491075 0.268473
vt 0.032114 0.534706
vt 0.552485 0.259488
vt 0.331566 0.259909
vt 0.129819 0.544964
vt 0.339759 0.337186
vt 0.913298 0.588845
vt 0.317584 0.707220
vt 0.845734 0.463378
vt 0.311567 0.646434
vt 0.944558 0.353645
vt 0.398138 0.462439
vt 0.920230 0.354337
vt 0.870057 0.463781
vt 0.929709 0.374247
vt 0.357807 0.478584
vt 0.347994 0.663056
vt 0.944558 0.373825
vt 0.097076 0.285727
vt 0.229765 0.651022
vt 0.758050 0.297859
vt 0.168317 0.651042
vt 0.119329 0.272208
vt 0.094178 0.643292
vt 0.222768 0.636959
vt 0.746872 0.283208
vt 0.174541 0.636975
vt 0.045175 0.638147
vt 0.080672 0.327471
vt 0.442544 0.673801
vt 0.734592 0.339187
vt 0.484453 0.673801
vt 0.070725 0.319456
vt 0.218298 0.685110
vt 0.751374 0.331694
vt 0.180611 0.684911
vt 0.062412 0.356092
vt 0.455575 0.702696
vt 0.724658 0.367821
vt 0.476314 0.702696
vt 0.043357 0.357400
vt 0.210236 0.723455
vt 0.742364 0.370210
vt 0.189444 0.723462
vt 0.050281 0.367705
vt 0.444942 0.715336
vt 0.810526 0.722486
vt 0.728448 0.380153
vt 0.853695 0.722486
vt 0.487920 0.715336
vt 0.018975 0.371756
vt 0.232852 0.738567
vt 0.796001 0.739289
vt 0.758050 0.386241
vt 0.861207 0.739289
vt 0.167770 0.738589
vt 0.100634 0.583041
vt 0.712300 0.698974
vt 0.802197 0.701507
vt 0.098640 0.600731
vt 0.972705 0.287497
vt 0.747907 0.696578
vt 0.052045 0.577939
vt 0.849895 0.701507
vt 0.710445 0.675017
vt 0.050052 0.595630
vt 0.746553 0.677603
vt 0.924885 0.287497
vt 0.797725 0.671259
vt 0.981025 0.313792
vt 0.715147 0.730011
vt 0.752543 0.724602
vt 0.973919 0.259495
vt 0.967002 0.332143
vt 0.934252 0.306472
vt 0.715328 0.644023
vt 0.847669 0.671259
vt 0.923848 0.259495
vt 0.753088 0.649631
vt 0.920230 0.324823
vt 0.068284 0.665533
vt 0.630362 0.705721
vt 0.712055 0.621316
vt 0.966165 0.712391
vt 0.519769 0.388732
vt 0.031375 0.663704
vt 0.592215 0.695479
vt 0.581836 0.620019
vt 0.750017 0.621843
vt 0.569690 0.667298
vt 0.581066 0.387596
vt 0.531739 0.516092
vt 0.642835 0.625048
vt 0.273616 0.509019
vt 0.070982 0.710642
vt 0.316851 0.732164
vt 0.684917 0.393810
vt 0.816625 0.338063
vt 0.644803 0.392946
vt 0.602800 0.367236
vt 0.671871 0.661666
vt 0.181146 0.386242
vt 0.855113 0.259897
vt 0.463196 0.649131
vt 0.077903 0.567886
vt 0.078993 0.554271
vt 0.322237 0.720993
vt 0.070972 0.628379
vt 0.834014 0.651825
vt 0.084160 0.512738
vt 0.838315 0.596273
vt 0.320679 0.509019
vt 0.080733 0.539302
vt 0.857365 0.464048
vt 0.931678 0.351118
vt 0.335174 0.488977
vt 0.367094 0.673623
vt 0.939667 0.384854
vt 0.199177 0.651021
vt 0.069465 0.641494
vt 0.198664 0.632807
vt 0.464209 0.672968
vt 0.199604 0.684998
vt 0.465945 0.702696
vt 0.199840 0.723459
vt 0.466714 0.715004
vt 0.832520 0.720483
vt 0.200177 0.738589
vt 0.829423 0.735282
vt 0.076340 0.580490
vt 0.826046 0.701507
vt 0.074346 0.598181
vt 0.948795 0.287497
vt 0.823088 0.670800
vt 0.959731 0.307426
vt 0.948976 0.259488
vt 0.941524 0.331189
vt 0.875347 0.491894
vt 0.391834 0.432095
vt 0.377694 0.448634
vt 0.915590 0.478791
vt 0.834644 0.488373
vt 0.326937 0.619279
vt 0.938593 0.478810
vt 0.335216 0.632947
vt 0.358601 0.463790
vt 0.348787 0.648138
vt 0.927106 0.463378
vt 0.854274 0.489560
vt 0.315804 0.619182
vt 0.212520 0.321385
vt 0.644070 0.318501
vt 0.018976 0.592450
vt 0.663817 0.276029
vt 0.129819 0.597828
vt 0.224108 0.269832
vt 0.051049 0.586785
vt 0.728499 0.676310
vt 0.099637 0.591886
vt 0.730103 0.697776
vt 0.734390 0.646904
vt 0.920230 0.314550
vt 0.981025 0.324065
vt 0.732426 0.727384
vt 0.950683 0.319044
vt 0.753088 0.663662
vt 0.920230 0.273492
vt 0.977552 0.273492
vt 0.752543 0.710647
vt 0.709822 0.714522
vt 0.796001 0.686127
vt 0.853178 0.686127
vt 0.709822 0.659561
vt 0.824792 0.685890
vt 0.948939 0.273488
vt 0.731549 0.661651
vt 0.730449 0.712624
vt 0.878850 0.297575
vt 0.096711 0.342677
vt 0.285581 0.357771
vt 0.108549 0.696221
vt 0.804979 0.293594
vt 0.708839 0.350023
vt 0.668288 0.644023
vt 0.436089 0.526409
vt 0.145034 0.385321
vt 0.919159 0.607821
vt 0.247387 0.613831
vt 0.970304 0.416607
vt 0.947808 0.608020
vt 0.704660 0.516092
vt 0.970304 0.403829
vt 0.750017 0.516884
vt 0.618892 0.516092
vt 0.920230 0.404231
vt 0.273616 0.612878
vt 0.642836 0.516847
vt 0.938584 0.415207
vt 0.924281 0.443436
vt 0.075400 0.489812
vt 0.855524 0.444402
vt 0.531739 0.629156
vt 0.934913 0.435583
vt 0.576828 0.496673
vt 0.931440 0.443424
vt 0.848383 0.444289
vt 0.592622 0.497116
vt 0.934913 0.440184
vt 0.586164 0.496977
vt 0.517161 0.630156
vt 0.920230 0.438606
vt 0.085942 0.490043
vt 0.585376 0.420489
vt 0.510472 0.551446
vt 0.582586 0.444044
vt 0.504260 0.576063
vt 0.581388 0.469636
vt 0.508131 0.602400
vt 0.103684 0.463024
vt 0.477645 0.604263
vt 0.118194 0.440373
vt 0.454885 0.581958
vt 0.129418 0.415411
vt 0.438452 0.557360
vt 0.876897 0.417052
vt 0.081901 0.462161
vt 0.882279 0.393921
vt 0.081653 0.438865
vt 0.880271 0.363315
vt 0.079604 0.408162
vt 0.633117 0.418943
vt 0.615530 0.444447
vt 0.600997 0.469910
vt 0.614559 0.469949
vt 0.862035 0.416811
vt 0.638313 0.444473
vt 0.857648 0.390640
vt 0.666106 0.417503
vt 0.844696 0.362700
vt 0.167770 0.536691
vt 0.914144 0.688660
vt 0.182151 0.561697
vt 0.913298 0.663084
vt 0.189855 0.582503
vt 0.915415 0.641729
vt 0.680787 0.549268
vt 0.966165 0.641681
vt 0.684678 0.573659
vt 0.963812 0.665813
vt 0.684995 0.596421
vt 0.964308 0.688427
vt 0.584794 0.548886
vt 0.729850 0.550060
vt 0.578610 0.572959
vt 0.734888 0.574452
vt 0.569690 0.595426
vt 0.736445 0.597214
vt 0.642060 0.590920
vt 0.247172 0.543053
vt 0.641052 0.570535
vt 0.248998 0.562413
vt 0.635978 0.552556
vt 0.245738 0.579271
s 0
usemtl Material
f 89/203/1 7/19/1 13/32/1 90/205/1
f 8/22/2 7/19/2 89/203/2 58/151/2 54/142/2 53/136/2
f 6/18/3 56/148/3 57/150/3
f 3/8/4 106/231/4 4/9/4 59/153/4 88/202/4
f 6/17/5 107/233/5 5/14/5 60/154/5 1/1/5 105/229/5 2/4/5 56/149/5
f 61/156/6 13/33/6 16/38/6 62/157/6
f 5/16/7 14/35/7 31/77/7 29/72/7
f 88/202/8 1/3/8 10/26/8 91/207/8
f 67/164/9 21/53/9 20/50/9 65/161/9
f 13/32/10 7/19/10 12/30/10 16/39/10
f 3/8/11 9/25/11 11/28/11 15/36/11
f 55/147/12 3/6/12 15/37/12 63/158/12
f 66/162/13 19/48/13 17/40/13 65/160/13
f 23/57/14 22/55/14 17/41/14 19/49/14
f 83/191/15 82/190/15 25/63/15 26/67/15
f 15/36/16 11/28/16 22/55/16 23/57/16
f 62/157/17 16/38/17 21/53/17 67/164/17
f 69/169/18 26/66/18 25/64/18 68/166/18
f 87/200/19 84/193/19 24/60/19 68/165/19
f 86/197/20 83/191/20 26/67/20 69/167/20
f 84/194/21 85/196/21 27/68/21 24/61/21
f 70/170/22 29/73/22 31/78/22 71/172/22
f 70/170/23 28/71/23 34/85/23 73/174/23
f 10/26/24 1/3/24 28/70/24 30/74/24
f 64/159/25 10/27/25 30/75/25 71/171/25
f 34/84/26 32/80/26 36/88/26 38/92/26
f 60/155/27 5/15/27 33/83/27 72/173/27
f 5/16/28 29/72/28 35/86/28 33/82/28
f 28/70/29 1/3/29 32/80/29 34/84/29
f 37/90/30 39/94/30 43/105/30 41/99/30
f 73/174/31 34/85/31 38/93/31 75/176/31
f 33/82/32 35/86/32 39/94/32 37/90/32
f 72/173/33 33/83/33 37/91/33 74/175/33
f 76/178/34 41/100/34 43/106/34 77/180/34
f 74/175/35 37/91/35 41/101/35 76/177/35
f 38/92/36 36/88/36 40/96/36 42/102/36
f 75/176/37 38/93/37 42/103/37 77/179/37
f 102/226/38 97/218/38 51/129/38 81/187/38
f 91/206/39 10/27/39 45/111/39 93/210/39
f 90/204/40 13/33/40 46/114/40 92/208/40
f 61/156/41 9/24/41 44/108/41 78/181/41
f 64/159/42 14/34/42 47/117/42 79/183/42
f 96/216/43 94/213/43 50/126/43 80/186/43
f 101/225/44 99/222/44 48/120/44 80/185/44
f 104/228/45 98/220/45 49/123/45 95/215/45
f 103/227/46 100/224/46 50/127/46 94/212/46
f 8/23/47 53/137/47 52/132/47
f 8/23/48 52/132/48 4/10/48 106/232/48 3/7/48 55/146/48 7/20/48
f 54/142/49 58/151/49 89/203/49 5/16/49 107/234/49 6/18/49 57/150/49
f 100/223/50 101/225/50 80/185/50 50/128/50
f 95/214/51 96/216/51 80/186/51 48/121/51
f 10/27/52 64/159/52 79/183/52 45/111/52
f 13/33/53 61/156/53 78/181/53 46/114/53
f 98/219/54 102/226/54 81/187/54 49/124/54
f 39/95/55 75/176/55 77/179/55 43/107/55
f 36/89/56 74/175/56 76/177/56 40/97/56
f 40/98/57 76/178/57 77/180/57 42/104/57
f 32/81/58 72/173/58 74/175/58 36/89/58
f 35/87/59 73/174/59 75/176/59 39/95/59
f 1/2/60 60/155/60 72/173/60 32/81/60
f 14/34/61 64/159/61 71/171/61 31/79/61
f 29/73/62 70/170/62 73/174/62 35/87/62
f 28/71/63 70/170/63 71/172/63 30/76/63
f 85/196/64 86/198/64 69/168/64 27/68/64
f 82/189/65 87/200/65 68/165/65 25/65/65
f 27/69/66 69/169/66 68/166/66 24/62/66
f 11/29/67 62/157/67 67/164/67 22/56/67
f 18/43/68 66/162/68 65/160/68 20/51/68
f 7/21/69 55/147/69 63/158/69 12/31/69
f 22/56/70 67/164/70 65/161/70 17/42/70
f 9/24/71 61/156/71 62/157/71 11/29/71
f 19/48/72 66/162/72 87/200/72 82/189/72
f 12/30/73 18/44/73 20/52/73 21/54/73 16/39/73
f 66/163/74 18/47/74 84/194/74 87/201/74
f 23/57/75 19/49/75 82/190/75 83/191/75
f 49/125/76 81/188/76 96/216/76 95/214/76
f 97/217/77 103/227/77 94/212/77 51/130/77
f 99/221/78 104/228/78 95/215/78 48/122/78
f 81/188/79 51/131/79 94/213/79 96/216/79
f 14/34/80 90/204/80 92/208/80 47/117/80
f 9/24/81 91/206/81 93/210/81 44/108/81
f 3/8/82 88/202/82 91/207/82 9/25/82
f 5/16/83 89/203/83 90/205/83 14/35/83
f 44/109/84 93/211/84 104/228/84 99/221/84
f 47/118/85 92/209/85 103/227/85 97/217/85
f 45/112/86 79/184/86 102/226/86 98/219/86
f 46/115/87 78/182/87 101/225/87 100/223/87
f 92/209/88 46/116/88 100/224/88 103/227/88
f 93/211/89 45/113/89 98/220/89 104/228/89
f 78/182/90 44/110/90 99/222/90 101/225/90
f 79/184/91 47/119/91 97/218/91 102/226/91
f 59/152/92 4/11/92 52/133/92 53/138/92 54/141/92 108/235/92
f 136/298/93 110/241/93 109/238/93 135/296/93
f 121/271/94 120/269/94 114/253/94 117/261/94
f 139/304/95 111/244/95 110/242/95 136/297/95
f 135/295/96 109/239/96 112/247/96 144/314/96
f 144/313/97 112/248/97 111/245/97 139/303/97
f 111/246/98 112/249/98 109/240/98 110/243/98
f 117/262/99 114/254/99 116/259/99 115/256/99 113/250/99
f 124/277/100 121/270/100 117/263/100 113/251/100
f 120/268/101 129/284/101 116/260/101 114/255/101
f 130/286/102 124/276/102 113/252/102 115/257/102
f 129/284/103 130/285/103 115/258/103 116/260/103
f 57/150/104 56/148/104 132/289/104 127/282/104
f 127/282/105 132/289/105 131/287/105 128/283/105
f 128/283/106 131/287/106 130/285/106 129/284/106
f 56/149/107 2/4/107 126/280/107 132/290/107
f 132/290/108 126/280/108 125/278/108 131/288/108
f 131/288/109 125/278/109 124/276/109 130/286/109
f 54/142/110 57/150/110 127/282/110 118/264/110
f 118/264/111 127/282/111 128/283/111 119/266/111
f 119/266/112 128/283/112 129/284/112 120/268/112
f 2/5/113 108/237/113 123/274/113 126/281/113
f 126/281/114 123/274/114 122/272/114 125/279/114
f 125/279/115 122/272/115 121/270/115 124/277/115
f 108/236/116 54/143/116 118/265/116 123/275/116
f 123/275/117 118/265/117 119/267/117 122/273/117
f 122/273/118 119/267/118 120/269/118 121/271/118
f 54/144/119 142/309/119 141/307/119 53/139/119
f 142/309/120 143/311/120 140/305/120 141/307/120
f 143/311/121 144/313/121 139/303/121 140/305/121
f 4/12/122 133/291/122 142/310/122 54/145/122
f 133/291/123 134/293/123 143/312/123 142/310/123
f 134/293/124 135/295/124 144/314/124 143/312/124
f 53/140/125 141/308/125 138/301/125 52/134/125
f 141/308/126 140/306/126 137/299/126 138/301/126
f 140/306/127 139/304/127 136/297/127 137/299/127
f 52/135/128 138/302/128 133/292/128 4/13/128
f 138/302/129 137/300/129 134/294/129 133/292/129
f 137/300/130 136/298/130 135/296/130 134/294/130
f 105/230/131 1/3/131 88/202/131 59/153/131 108/237/131 2/5/131
f 86/199/132 85/195/132 83/192/132
f 83/192/133 85/195/133 18/45/133 23/58/133
f 63/158/134 15/37/134 23/59/134 18/46/134 12/31/134
f 84/194/135 18/47/135 85/196/135
l 52 106
