# Blender 3.3.1
# www.blender.org
mtllib monstruo_3_grande_caminar617.mtl
o monstruo_grande
v 0.324425 2.029843 0.208298
v 0.526386 1.209943 0.084905
v -0.736225 1.710263 0.214981
v -0.287423 1.100264 0.219426
v 0.442082 2.326652 -0.141094
v 0.504456 1.626053 -0.256293
v -0.892348 1.936799 -0.192316
v -0.773512 1.658882 -0.269038
v -0.371458 2.374935 0.487318
v 0.188773 2.297066 0.424681
v -0.499457 2.338190 0.592007
v -1.254592 1.971921 -0.025701
v -0.383485 2.539939 0.129231
v 0.161912 2.439460 0.168041
v -1.092493 1.838547 0.124562
v -0.546951 2.605625 0.157624
v -0.848227 2.241695 0.621221
v -1.534035 1.894047 0.250531
v -1.249185 1.940464 0.444033
v -1.049319 2.548870 0.360069
v -0.728273 2.638769 0.233326
v -0.575105 2.290211 0.571225
v -1.225484 1.857964 0.131047
v -1.800544 0.635964 0.942586
v -1.672604 0.616447 0.982847
v -1.662890 0.443157 0.779084
v -1.740981 0.455070 0.754510
v 0.349629 2.218390 0.393699
v 0.418903 2.421858 0.132770
v 0.302248 2.331506 0.412430
v 0.292971 2.468550 0.187494
v 0.576108 1.915355 0.165681
v 0.667924 2.022236 -0.016976
v 0.600351 1.994551 0.216314
v 0.661430 2.118045 0.061257
v 0.752172 1.698222 0.074572
v 0.816980 1.739327 -0.010390
v 0.841356 1.662068 0.118275
v 0.902998 1.712407 0.034424
v 0.776498 1.544374 0.087606
v 0.908192 1.646579 -0.084345
v 0.899557 1.437132 0.198059
v 1.091476 1.589962 -0.066684
v -0.209876 2.435549 0.502602
v 0.000540 2.412420 0.480320
v -0.218733 2.533844 0.255863
v -0.017084 2.510839 0.236422
v -0.151984 2.749143 0.646332
v 0.052477 2.683754 0.603535
v -0.169062 2.862542 0.393021
v 0.034104 2.797688 0.349354
v -0.498920 1.121073 0.009523
v -0.389065 1.158426 -0.204025
v -0.057308 1.274079 -0.332792
v -0.801381 1.755584 -0.003038
v 0.546999 1.211570 -0.153266
v 0.325703 1.205276 -0.275345
v -0.029186 1.526042 -0.324386
v -0.007684 1.148360 0.194692
v 0.365008 2.119308 0.089812
v -0.369251 2.433613 0.361354
v -0.534653 2.584632 0.430296
v -1.028763 1.907949 0.003403
v 0.152580 2.424038 0.328291
v -0.883973 2.467540 0.578184
v -1.425352 2.040374 0.489842
v -0.686800 2.563385 0.429073
v -1.746591 0.624534 0.993739
v -1.686638 0.335374 0.663047
v 0.423557 2.331296 0.289307
v 0.298213 2.445067 0.322802
v 0.574963 1.951728 0.039439
v 0.673846 2.068086 0.165789
v 0.783216 1.721926 0.032291
v 0.872012 1.686480 0.075986
v 0.820845 1.599120 -0.011536
v 0.957154 1.521859 0.042676
v -0.214410 2.484020 0.377784
v -0.009512 2.462609 0.357713
v -0.191632 2.807239 0.522552
v 0.074871 2.739583 0.474083
v -1.554695 0.943404 0.924695
v -1.614583 0.769333 0.859177
v -1.775267 0.947557 0.856381
v -1.735004 0.787703 0.821283
v -1.676208 0.612549 0.764267
v -1.684909 0.925383 0.943570
v -0.077618 1.760590 0.514369
v 0.013118 2.140336 -0.197555
v -0.026501 2.513256 0.056476
v -0.041518 2.271179 0.615622
v -0.119308 2.521069 0.244137
v -0.101150 2.422756 0.490797
v -0.070400 2.846797 0.332770
v -0.047260 2.699435 0.662841
v -0.053990 2.823788 0.520926
v 0.022566 2.664000 0.268159
v 0.041421 2.536654 0.558784
v -0.193898 2.585707 0.596897
v -0.214693 2.712750 0.304767
v -0.220278 2.650488 0.452572
v 0.047697 2.600240 0.412012
v -0.097919 2.696659 0.265969
v -0.074026 2.551274 0.597740
v 0.381112 1.727334 -0.036097
v -0.595587 1.436084 0.229005
v 0.483090 1.846238 -0.254187
v 0.180356 1.185644 0.197254
v -0.197440 -0.003448 -0.113711
v -0.341896 0.001799 0.008535
v -0.367593 0.002819 -0.241169
v -0.232424 -0.002285 -0.255821
v 0.361429 0.017793 0.291763
v 0.278937 -0.009841 0.231573
v 0.365683 0.005915 0.254169
v 0.331123 -0.004455 0.234385
v 0.304401 0.018974 0.310245
v 0.091895 0.856619 -0.085154
v 0.137484 0.582731 0.072874
v 0.202680 0.302772 0.184602
v 0.264095 0.331730 0.353323
v 0.238589 0.588986 0.358901
v 0.229537 0.864510 0.317443
v 0.380799 0.328745 0.309552
v 0.434832 0.588422 0.284072
v 0.506226 0.927332 0.216983
v 0.349042 0.891736 -0.072593
v 0.319544 0.590297 0.077019
v 0.311295 0.307128 0.186946
v 0.385557 0.317166 0.227899
v 0.444023 0.607738 0.144409
v 0.521556 0.926902 0.027609
v -0.170168 0.826654 0.285112
v -0.144306 0.544867 0.200867
v -0.140001 0.307742 0.150768
v -0.425224 0.298225 0.140373
v -0.436035 0.572457 0.153470
v -0.459076 0.827543 0.163207
v -0.461103 0.360243 -0.120042
v -0.469679 0.636737 -0.108862
v -0.475969 0.866500 -0.112136
v -0.079861 0.828311 -0.146669
v -0.126840 0.621308 -0.156732
v -0.169707 0.407818 -0.149323
vn -0.1279 0.5487 -0.8262
vn -0.0904 0.0890 -0.9919
vn 0.4800 -0.1649 -0.8616
vn -0.2112 -0.3109 0.9267
vn 0.9456 0.0867 0.3135
vn 0.5769 0.7987 0.1711
vn 0.0090 0.9195 -0.3930
vn 0.6627 -0.2089 0.7191
vn -0.1127 0.9093 0.4006
vn -0.2022 0.5340 -0.8210
vn -0.0680 -0.4946 0.8665
vn -0.3793 -0.8770 -0.2950
vn -0.1787 -0.1246 0.9760
vn 0.3683 -0.8482 0.3806
vn 0.9581 -0.2486 0.1422
vn 0.0538 -0.7326 0.6785
vn 0.0779 0.9782 0.1923
vn 0.0588 -0.7511 0.6576
vn -0.6383 0.2526 0.7272
vn 0.9101 0.0354 -0.4128
vn -0.8946 0.0300 -0.4459
vn 0.5844 0.7623 0.2781
vn 0.6153 0.1556 0.7728
vn -0.1175 -0.5625 0.8184
vn -0.0745 0.6022 0.7948
vn -0.3981 -0.5538 0.7313
vn -0.4268 -0.5107 -0.7464
vn 0.7778 0.5776 -0.2478
vn -0.1047 -0.6467 0.7555
vn 0.3576 0.8233 -0.4407
vn 0.5788 0.1449 0.8025
vn 0.6571 0.3917 -0.6440
vn -0.4439 -0.3084 -0.8413
vn -0.1593 -0.7344 -0.6597
vn -0.6864 -0.0130 -0.7271
vn -0.5474 0.0847 0.8325
vn 0.7699 0.3472 0.5354
vn 0.9701 -0.0102 -0.2426
vn 0.4085 0.5651 0.7168
vn 0.0817 0.9964 -0.0241
vn -0.3403 0.8636 0.3721
vn 0.3537 0.9119 0.2084
vn 0.0595 0.9689 0.2400
vn -0.9535 0.1047 0.2828
vn 0.3435 -0.3658 0.8650
vn -0.3016 0.4949 -0.8150
vn -0.6787 -0.5799 -0.4506
vn -0.8605 -0.4633 0.2117
vn 0.0687 0.1212 -0.9902
vn -0.9720 0.2350 0.0010
vn 0.0792 0.8282 0.5549
vn 0.4471 0.7392 0.5036
vn -0.2985 0.8674 0.3982
vn 0.9884 -0.1466 0.0392
vn 0.5948 0.2027 0.7779
vn -0.8430 -0.1307 -0.5219
vn -0.2347 -0.8098 -0.5377
vn -0.7493 -0.5704 -0.3363
vn 0.8448 0.4234 0.3273
vn -0.5294 -0.7168 -0.4539
vn -0.1830 0.9750 0.1258
vn 0.7712 0.5802 0.2619
vn 0.6660 0.3561 0.6555
vn -0.4706 0.2461 -0.8473
vn 0.1368 0.1303 0.9820
vn -0.6189 -0.6477 0.4443
vn -0.2193 0.4456 0.8680
vn -0.7127 0.6137 0.3397
vn -0.3809 -0.8387 -0.3891
vn 0.2500 0.4009 0.8813
vn 0.5680 0.5963 0.5673
vn 0.2778 0.3255 0.9038
vn -0.4901 0.5798 -0.6509
vn -0.8440 0.3927 0.3652
vn 0.9594 -0.2676 0.0896
vn 0.5300 0.6921 0.4901
vn 0.2277 0.4254 -0.8759
vn -0.1856 -0.3027 0.9348
vn 0.5045 0.8537 0.1291
vn 0.2783 0.9605 -0.0017
vn -0.0984 0.4934 0.8642
vn -0.3994 -0.1512 0.9042
vn 0.0348 0.7665 -0.6413
vn -0.0798 -0.5754 0.8139
vn 0.0063 0.1597 -0.9871
vn 0.9484 -0.2871 -0.1345
vn -1.0000 -0.0031 -0.0060
vn -0.1966 0.2054 -0.9587
vn 0.1095 -0.6069 0.7872
vn -0.9943 -0.0239 0.1042
vn 0.9430 -0.2486 -0.2213
vn 0.1782 -0.9606 -0.2133
vn 0.2191 -0.5265 0.8215
vn -0.9170 -0.1687 0.3614
vn -0.9541 -0.2888 0.0795
vn 0.9835 -0.0804 -0.1623
vn -0.1257 0.2774 -0.9525
vn -0.0369 -0.9993 0.0002
vn 0.0858 -0.9439 0.3190
vn 0.3345 -0.0804 0.9390
vn 0.0404 -0.1433 -0.9888
vn 0.9943 -0.0615 0.0872
vn 0.4993 -0.1019 -0.8604
vn 0.4694 -0.4778 -0.7425
vn 0.5020 -0.4128 -0.7600
vn 0.4866 -0.3294 -0.8091
vn 0.9959 -0.0339 0.0836
vn 0.9771 -0.2040 0.0611
vn 0.9803 -0.1895 0.0552
vn 0.0667 -0.5119 -0.8564
vn 0.0790 -0.4683 -0.8800
vn 0.0357 -0.3629 -0.9311
vn 0.2502 0.3835 0.8890
vn 0.3292 0.1318 0.9350
vn 0.3545 0.0164 0.9349
vn -0.9276 -0.0661 0.3676
vn -0.9447 0.0248 0.3270
vn -0.9356 -0.0905 0.3414
vn -0.1740 -0.3246 -0.9297
vn -0.1090 0.0256 -0.9937
vn -0.1215 0.0161 -0.9925
vn 0.9101 0.2384 0.3389
vn 0.9894 -0.0675 0.1284
vn 0.9959 -0.0814 -0.0404
vn -0.9824 0.0007 -0.1867
vn -0.9948 -0.0613 0.0817
vn -0.9917 -0.0403 0.1222
vn -0.5395 0.1696 0.8247
vn -0.2834 -0.1904 0.9399
vn -0.1028 -0.1250 0.9868
vn 0.6048 -0.0987 0.7902
vn 0.3300 0.3905 -0.8594
vn -0.2217 -0.4518 -0.8642
vn -0.2280 -0.8087 -0.5422
vn -0.8567 -0.1049 -0.5050
vt 0.882279 0.260085
vt 0.436089 0.649131
vt 0.117664 0.305524
vt 0.860974 0.338762
vt 0.079561 0.383885
vt 0.278417 0.728674
vt 0.111517 0.716819
vt 0.301243 0.337859
vt 0.232943 0.387386
vt 0.111517 0.662267
vt 0.671871 0.687525
vt 0.175114 0.511099
vt 0.930991 0.712692
vt 0.796001 0.259488
vt 0.522181 0.649131
vt 0.719621 0.316178
vt 0.801110 0.310020
vt 0.698705 0.366293
vt 0.510656 0.337024
vt 0.023033 0.717149
vt 0.367094 0.730187
vt 0.507246 0.358198
vt 0.018976 0.695717
vt 0.103380 0.570561
vt 0.268725 0.266033
vt 0.143950 0.273348
vt 0.098384 0.631539
vt 0.301351 0.259488
vt 0.128079 0.559933
vt 0.480438 0.333338
vt 0.348619 0.714075
vt 0.604958 0.268707
vt 0.031105 0.562973
vt 0.043818 0.625810
vt 0.721993 0.282954
vt 0.329365 0.336360
vt 0.302724 0.713315
vt 0.030374 0.549675
vt 0.582817 0.260846
vt 0.875347 0.642471
vt 0.380514 0.272320
vt 0.124895 0.517524
vt 0.813390 0.578569
vt 0.436089 0.332372
vt 0.956124 0.588845
vt 0.367094 0.692599
vt 0.367094 0.522797
vt 0.871643 0.594841
vt 0.398138 0.324445
vt 0.043891 0.509019
vt 0.796001 0.641153
vt 0.491075 0.268473
vt 0.032114 0.534706
vt 0.552485 0.259488
vt 0.331566 0.259909
vt 0.129819 0.544964
vt 0.339759 0.337186
vt 0.913298 0.588845
vt 0.317584 0.707220
vt 0.845734 0.463378
vt 0.311567 0.646434
vt 0.944558 0.353645
vt 0.398138 0.462439
vt 0.920230 0.354337
vt 0.870057 0.463781
vt 0.929709 0.374247
vt 0.357807 0.478584
vt 0.347994 0.663056
vt 0.944558 0.373825
vt 0.097076 0.285727
vt 0.229765 0.651022
vt 0.758050 0.297859
vt 0.168317 0.651042
vt 0.119329 0.272208
vt 0.094178 0.643292
vt 0.222768 0.636959
vt 0.746872 0.283208
vt 0.174541 0.636975
vt 0.045175 0.638147
vt 0.080672 0.327471
vt 0.442544 0.673801
vt 0.734592 0.339187
vt 0.484453 0.673801
vt 0.070725 0.319456
vt 0.218298 0.685110
vt 0.751374 0.331694
vt 0.180611 0.684911
vt 0.062412 0.356092
vt 0.455575 0.702696
vt 0.724658 0.367821
vt 0.476314 0.702696
vt 0.043357 0.357400
vt 0.210236 0.723455
vt 0.742364 0.370210
vt 0.189444 0.723462
vt 0.050281 0.367705
vt 0.444942 0.715336
vt 0.810526 0.722486
vt 0.728448 0.380153
vt 0.853695 0.722486
vt 0.487920 0.715336
vt 0.018975 0.371756
vt 0.232852 0.738567
vt 0.796001 0.739289
vt 0.758050 0.386241
vt 0.861207 0.739289
vt 0.167770 0.738589
vt 0.100634 0.583041
vt 0.712300 0.698974
vt 0.802197 0.701507
vt 0.098640 0.600731
vt 0.972705 0.287497
vt 0.747907 0.696578
vt 0.052045 0.577939
vt 0.849895 0.701507
vt 0.710445 0.675017
vt 0.050052 0.595630
vt 0.746553 0.677603
vt 0.924885 0.287497
vt 0.797725 0.671259
vt 0.981025 0.313792
vt 0.715147 0.730011
vt 0.752543 0.724602
vt 0.973919 0.259495
vt 0.967002 0.332143
vt 0.934252 0.306472
vt 0.715328 0.644023
vt 0.847669 0.671259
vt 0.923848 0.259495
vt 0.753088 0.649631
vt 0.920230 0.324823
vt 0.068284 0.665533
vt 0.630362 0.705721
vt 0.712055 0.621316
vt 0.966165 0.712391
vt 0.519769 0.388732
vt 0.031375 0.663704
vt 0.592215 0.695479
vt 0.581836 0.620019
vt 0.750017 0.621843
vt 0.569690 0.667298
vt 0.581066 0.387596
vt 0.531739 0.516092
vt 0.642835 0.625048
vt 0.273616 0.509019
vt 0.070982 0.710642
vt 0.316851 0.732164
vt 0.684917 0.393810
vt 0.816625 0.338063
vt 0.644803 0.392946
vt 0.602800 0.367236
vt 0.671871 0.661666
vt 0.181146 0.386242
vt 0.855113 0.259897
vt 0.463196 0.649131
vt 0.077903 0.567886
vt 0.078993 0.554271
vt 0.322237 0.720993
vt 0.070972 0.628379
vt 0.834014 0.651825
vt 0.084160 0.512738
vt 0.838315 0.596273
vt 0.320679 0.509019
vt 0.080733 0.539302
vt 0.857365 0.464048
vt 0.931678 0.351118
vt 0.335174 0.488977
vt 0.367094 0.673623
vt 0.939667 0.384854
vt 0.199177 0.651021
vt 0.069465 0.641494
vt 0.198664 0.632807
vt 0.464209 0.672968
vt 0.199604 0.684998
vt 0.465945 0.702696
vt 0.199840 0.723459
vt 0.466714 0.715004
vt 0.832520 0.720483
vt 0.200177 0.738589
vt 0.829423 0.735282
vt 0.076340 0.580490
vt 0.826046 0.701507
vt 0.074346 0.598181
vt 0.948795 0.287497
vt 0.823088 0.670800
vt 0.959731 0.307426
vt 0.948976 0.259488
vt 0.941524 0.331189
vt 0.875347 0.491894
vt 0.391834 0.432095
vt 0.377694 0.448634
vt 0.915590 0.478791
vt 0.834644 0.488373
vt 0.326937 0.619279
vt 0.938593 0.478810
vt 0.335216 0.632947
vt 0.358601 0.463790
vt 0.348787 0.648138
vt 0.927106 0.463378
vt 0.854274 0.489560
vt 0.315804 0.619182
vt 0.212520 0.321385
vt 0.644070 0.318501
vt 0.018976 0.592450
vt 0.663817 0.276029
vt 0.129819 0.597828
vt 0.224108 0.269832
vt 0.051049 0.586785
vt 0.728499 0.676310
vt 0.099637 0.591886
vt 0.730103 0.697776
vt 0.734390 0.646904
vt 0.920230 0.314550
vt 0.981025 0.324065
vt 0.732426 0.727384
vt 0.950683 0.319044
vt 0.753088 0.663662
vt 0.920230 0.273492
vt 0.977552 0.273492
vt 0.752543 0.710647
vt 0.709822 0.714522
vt 0.796001 0.686127
vt 0.853178 0.686127
vt 0.709822 0.659561
vt 0.824792 0.685890
vt 0.948939 0.273488
vt 0.731549 0.661651
vt 0.730449 0.712624
vt 0.878850 0.297575
vt 0.096711 0.342677
vt 0.285581 0.357771
vt 0.108549 0.696221
vt 0.804979 0.293594
vt 0.708839 0.350023
vt 0.668288 0.644023
vt 0.436089 0.526409
vt 0.145034 0.385321
vt 0.919159 0.607821
vt 0.247387 0.613831
vt 0.970304 0.416607
vt 0.947808 0.608020
vt 0.704660 0.516092
vt 0.970304 0.403829
vt 0.750017 0.516884
vt 0.618892 0.516092
vt 0.920230 0.404231
vt 0.273616 0.612878
vt 0.642836 0.516847
vt 0.938584 0.415207
vt 0.924281 0.443436
vt 0.075400 0.489812
vt 0.855524 0.444402
vt 0.531739 0.629156
vt 0.934913 0.435583
vt 0.576828 0.496673
vt 0.931440 0.443424
vt 0.848383 0.444289
vt 0.592622 0.497116
vt 0.934913 0.440184
vt 0.586164 0.496977
vt 0.517161 0.630156
vt 0.920230 0.438606
vt 0.085942 0.490043
vt 0.585376 0.420489
vt 0.510472 0.551446
vt 0.582586 0.444044
vt 0.504260 0.576063
vt 0.581388 0.469636
vt 0.508131 0.602400
vt 0.103684 0.463024
vt 0.477645 0.604263
vt 0.118194 0.440373
vt 0.454885 0.581958
vt 0.129418 0.415411
vt 0.438452 0.557360
vt 0.876897 0.417052
vt 0.081901 0.462161
vt 0.882279 0.393921
vt 0.081653 0.438865
vt 0.880271 0.363315
vt 0.079604 0.408162
vt 0.633117 0.418943
vt 0.615530 0.444447
vt 0.600997 0.469910
vt 0.614559 0.469949
vt 0.862035 0.416811
vt 0.638313 0.444473
vt 0.857648 0.390640
vt 0.666106 0.417503
vt 0.844696 0.362700
vt 0.167770 0.536691
vt 0.914144 0.688660
vt 0.182151 0.561697
vt 0.913298 0.663084
vt 0.189855 0.582503
vt 0.915415 0.641729
vt 0.680787 0.549268
vt 0.966165 0.641681
vt 0.684678 0.573659
vt 0.963812 0.665813
vt 0.684995 0.596421
vt 0.964308 0.688427
vt 0.584794 0.548886
vt 0.729850 0.550060
vt 0.578610 0.572959
vt 0.734888 0.574452
vt 0.569690 0.595426
vt 0.736445 0.597214
vt 0.642060 0.590920
vt 0.247172 0.543053
vt 0.641052 0.570535
vt 0.248998 0.562413
vt 0.635978 0.552556
vt 0.245738 0.579271
s 0
usemtl Material
f 89/203/1 7/19/1 13/32/1 90/205/1
f 8/22/2 7/19/2 89/203/2 58/151/2 54/142/2 53/136/2
f 6/18/3 56/148/3 57/150/3
f 3/8/4 106/231/4 4/9/4 59/153/4 88/202/4
f 6/17/5 107/233/5 5/14/5 60/154/5 1/1/5 105/229/5 2/4/5 56/149/5
f 61/156/6 13/33/6 16/38/6 62/157/6
f 5/16/7 14/35/7 31/77/7 29/72/7
f 88/202/8 1/3/8 10/26/8 91/207/8
f 67/164/9 21/53/9 20/50/9 65/161/9
f 13/32/10 7/19/10 12/30/10 16/39/10
f 3/8/11 9/25/11 11/28/11 15/36/11
f 55/147/12 3/6/12 15/37/12 63/158/12
f 66/162/13 19/48/13 17/40/13 65/160/13
f 23/57/14 22/55/14 17/41/14 19/49/14
f 83/191/15 82/190/15 25/63/15 26/67/15
f 15/36/16 11/28/16 22/55/16 23/57/16
f 62/157/17 16/38/17 21/53/17 67/164/17
f 69/169/18 26/66/18 25/64/18 68/166/18
f 87/200/19 84/193/19 24/60/19 68/165/19
f 86/197/20 83/191/20 26/67/20 69/167/20
f 84/194/21 85/196/21 27/68/21 24/61/21
f 70/170/22 29/73/22 31/78/22 71/172/22
f 70/170/23 28/71/23 34/85/23 73/174/23
f 10/26/24 1/3/24 28/70/24 30/74/24
f 64/159/25 10/27/25 30/75/25 71/171/25
f 34/84/26 32/80/26 36/88/26 38/92/26
f 60/155/27 5/15/27 33/83/27 72/173/27
f 5/16/28 29/72/28 35/86/28 33/82/28
f 28/70/29 1/3/29 32/80/29 34/84/29
f 37/90/30 39/94/30 43/105/30 41/99/30
f 73/174/31 34/85/31 38/93/31 75/176/31
f 33/82/32 35/86/32 39/94/32 37/90/32
f 72/173/33 33/83/33 37/91/33 74/175/33
f 76/178/34 41/100/34 43/106/34 77/180/34
f 74/175/35 37/91/35 41/101/35 76/177/35
f 38/92/36 36/88/36 40/96/36 42/102/36
f 75/176/37 38/93/37 42/103/37 77/179/37
f 102/226/38 97/218/38 51/129/38 81/187/38
f 91/206/39 10/27/39 45/111/39 93/210/39
f 90/204/40 13/33/40 46/114/40 92/208/40
f 61/156/41 9/24/41 44/108/41 78/181/41
f 64/159/42 14/34/42 47/117/42 79/183/42
f 96/216/43 94/213/43 50/126/43 80/186/43
f 101/225/44 99/222/44 48/120/44 80/185/44
f 104/228/45 98/220/45 49/123/45 95/215/45
f 103/227/46 100/224/46 50/127/46 94/212/46
f 8/23/47 53/137/47 52/132/47
f 8/23/48 52/132/48 4/10/48 106/232/48 3/7/48 55/146/48 7/20/48
f 54/142/49 58/151/49 89/203/49 5/16/49 107/234/49 6/18/49 57/150/49
f 100/223/50 101/225/50 80/185/50 50/128/50
f 95/214/51 96/216/51 80/186/51 48/121/51
f 10/27/52 64/159/52 79/183/52 45/111/52
f 13/33/53 61/156/53 78/181/53 46/114/53
f 98/219/54 102/226/54 81/187/54 49/124/54
f 39/95/55 75/176/55 77/179/55 43/107/55
f 36/89/56 74/175/56 76/177/56 40/97/56
f 40/98/57 76/178/57 77/180/57 42/104/57
f 32/81/58 72/173/58 74/175/58 36/89/58
f 35/87/59 73/174/59 75/176/59 39/95/59
f 1/2/60 60/155/60 72/173/60 32/81/60
f 14/34/61 64/159/61 71/171/61 31/79/61
f 29/73/62 70/170/62 73/174/62 35/87/62
f 28/71/63 70/170/63 71/172/63 30/76/63
f 85/196/64 86/198/64 69/168/64 27/68/64
f 82/189/65 87/200/65 68/165/65 25/65/65
f 27/69/66 69/169/66 68/166/66 24/62/66
f 11/29/67 62/157/67 67/164/67 22/56/67
f 18/43/68 66/162/68 65/160/68 20/51/68
f 7/21/69 55/147/69 63/158/69 12/31/69
f 22/56/70 67/164/70 65/161/70 17/42/70
f 9/24/71 61/156/71 62/157/71 11/29/71
f 19/48/72 66/162/72 87/200/72 82/189/72
f 12/30/73 18/44/73 20/52/73 21/54/73 16/39/73
f 66/163/74 18/47/74 84/194/74 87/201/74
f 23/57/75 19/49/75 82/190/75 83/191/75
f 49/125/76 81/188/76 96/216/76 95/214/76
f 97/217/77 103/227/77 94/212/77 51/130/77
f 99/221/78 104/228/78 95/215/78 48/122/78
f 81/188/79 51/131/79 94/213/79 96/216/79
f 14/34/80 90/204/80 92/208/80 47/117/80
f 9/24/81 91/206/81 93/210/81 44/108/81
f 3/8/82 88/202/82 91/207/82 9/25/82
f 5/16/83 89/203/83 90/205/83 14/35/83
f 44/109/84 93/211/84 104/228/84 99/221/84
f 47/118/85 92/209/85 103/227/85 97/217/85
f 45/112/86 79/184/86 102/226/86 98/219/86
f 46/115/87 78/182/87 101/225/87 100/223/87
f 92/209/88 46/116/88 100/224/88 103/227/88
f 93/211/89 45/113/89 98/220/89 104/228/89
f 78/182/90 44/110/90 99/222/90 101/225/90
f 79/184/91 47/119/91 97/218/91 102/226/91
f 59/152/92 4/11/92 52/133/92 53/138/92 54/141/92 108/235/92
f 136/298/93 110/241/93 109/238/93 135/296/93
f 121/271/94 120/269/94 114/253/94 117/261/94
f 139/304/95 111/244/95 110/242/95 136/297/95
f 135/295/96 109/239/96 112/247/96 144/314/96
f 144/313/97 112/248/97 111/245/97 139/303/97
f 111/246/98 112/249/98 109/240/98 110/243/98
f 117/262/99 114/254/99 116/259/99 115/256/99 113/250/99
f 124/277/100 121/270/100 117/263/100 113/251/100
f 120/268/101 129/284/101 116/260/101 114/255/101
f 130/286/102 124/276/102 113/252/102 115/257/102
f 129/284/103 130/285/103 115/258/103 116/260/103
f 57/150/104 56/148/104 132/289/104 127/282/104
f 127/282/105 132/289/105 131/287/105 128/283/105
f 128/283/106 131/287/106 130/285/106 129/284/106
f 56/149/107 2/4/107 126/280/107 132/290/107
f 132/290/108 126/280/108 125/278/108 131/288/108
f 131/288/109 125/278/109 124/276/109 130/286/109
f 54/142/110 57/150/110 127/282/110 118/264/110
f 118/264/111 127/282/111 128/283/111 119/266/111
f 119/266/112 128/283/112 129/284/112 120/268/112
f 2/5/113 108/237/113 123/274/113 126/281/113
f 126/281/114 123/274/114 122/272/114 125/279/114
f 125/279/115 122/272/115 121/270/115 124/277/115
f 108/236/116 54/143/116 118/265/116 123/275/116
f 123/275/117 118/265/117 119/267/117 122/273/117
f 122/273/118 119/267/118 120/269/118 121/271/118
f 54/144/119 142/309/119 141/307/119 53/139/119
f 142/309/120 143/311/120 140/305/120 141/307/120
f 143/311/121 144/313/121 139/303/121 140/305/121
f 4/12/122 133/291/122 142/310/122 54/145/122
f 133/291/123 134/293/123 143/312/123 142/310/123
f 134/293/124 135/295/124 144/314/124 143/312/124
f 53/140/125 141/308/125 138/301/125 52/134/125
f 141/308/126 140/306/126 137/299/126 138/301/126
f 140/306/127 139/304/127 136/297/127 137/299/127
f 52/135/128 138/302/128 133/292/128 4/13/128
f 138/302/129 137/300/129 134/294/129 133/292/129
f 137/300/130 136/298/130 135/296/130 134/294/130
f 105/230/131 1/3/131 88/202/131 59/153/131 108/237/131 2/5/131
f 86/199/132 85/195/132 83/192/132
f 83/192/133 85/195/133 18/45/133 23/58/133
f 63/158/134 15/37/134 23/59/134 18/46/134 12/31/134
f 84/194/135 18/47/135 85/196/135
l 52 106
