# Blender 3.3.1
# www.blender.org
mtllib monstruo_3_caminar577.mtl
o monstruo_grande
v 0.427027 2.014637 0.229597
v 0.526633 1.141589 0.044545
v -0.674701 1.816400 0.089039
v -0.292440 1.209438 0.220715
v 0.708575 2.270076 -0.052619
v 0.588114 1.617481 -0.228070
v -0.742006 1.995064 -0.368280
v -0.682581 1.677901 -0.389509
v -0.285560 2.439630 0.354049
v 0.262596 2.312645 0.396637
v -0.431049 2.421554 0.442873
v -1.108971 2.078096 -0.265733
v -0.234045 2.578711 -0.010556
v 0.305111 2.434973 0.127746
v -0.987202 1.951183 -0.073692
v -0.391831 2.659872 -0.010494
v -0.795006 2.361084 0.421971
v -1.436247 2.038786 -0.043509
v -1.188285 2.079037 0.198286
v -0.920913 2.660878 0.110085
v -0.576399 2.712513 0.032588
v -0.510910 2.380474 0.415290
v -1.117324 1.976317 -0.097686
v -1.905062 0.829873 0.628800
v -1.786828 0.802622 0.689203
v -1.759673 0.620718 0.494737
v -1.831840 0.637352 0.457869
v 0.386788 2.216973 0.399909
v 0.572846 2.392614 0.185139
v 0.370087 2.335705 0.404759
v 0.432990 2.451752 0.181638
v 0.631330 1.920597 0.308494
v 0.835195 1.927819 0.229965
v 0.661099 1.976270 0.358735
v 0.801084 2.067581 0.251913
v 0.704398 1.694167 0.487220
v 0.815211 1.685120 0.459404
v 0.734465 1.711020 0.587497
v 0.845081 1.707068 0.555314
v 0.668176 1.590730 0.599114
v 0.897611 1.582246 0.535422
v 0.662530 1.602419 0.795776
v 1.008695 1.587403 0.694670
v -0.123435 2.483442 0.393099
v 0.085270 2.451786 0.397920
v -0.096419 2.568032 0.140621
v 0.105628 2.534128 0.149414
v -0.069612 2.799278 0.530715
v 0.136426 2.729066 0.507683
v -0.064097 2.900931 0.271851
v 0.141153 2.831035 0.248003
v -0.500119 1.174924 0.024695
v -0.392416 1.145600 -0.190188
v -0.035142 1.257869 -0.338049
v -0.711134 1.837722 -0.143602
v 0.541942 1.250011 -0.163203
v 0.322951 1.294029 -0.277628
v 0.039234 1.507219 -0.344343
v -0.023417 1.124855 0.186133
v 0.530381 2.086120 0.134717
v -0.261006 2.488766 0.226640
v -0.419934 2.657560 0.262437
v -0.906759 2.003552 -0.187389
v 0.262119 2.434045 0.285328
v -0.800740 2.583963 0.356566
v -1.360419 2.192395 0.206320
v -0.572196 2.649073 0.240229
v -1.860726 0.816623 0.688103
v -1.773770 0.510235 0.379671
v 0.503458 2.316139 0.334021
v 0.403757 2.440632 0.313174
v 0.711734 1.894836 0.225408
v 0.757279 2.030914 0.352556
v 0.759713 1.691438 0.471464
v 0.789760 1.708622 0.571347
v 0.776457 1.578050 0.545192
v 0.822995 1.579494 0.704315
v -0.111984 2.524629 0.265360
v 0.093033 2.494550 0.272562
v -0.098125 2.852072 0.401610
v 0.170218 2.778411 0.378130
v -1.635661 1.117216 0.640572
v -1.698426 0.945478 0.571677
v -1.842052 1.134648 0.538123
v -1.809712 0.971127 0.514824
v -1.756992 0.789863 0.472980
v -1.768246 1.109707 0.639305
v -0.057066 1.813615 0.457519
v 0.199455 2.130244 -0.259705
v 0.125215 2.524687 -0.028248
v -0.000096 2.324104 0.534934
v -0.000244 2.550217 0.143042
v -0.013478 2.465561 0.394722
v 0.039207 2.880889 0.220523
v 0.032538 2.748918 0.557919
v 0.039476 2.866575 0.410414
v 0.136120 2.692709 0.173263
v 0.125835 2.580202 0.469336
v -0.110547 2.634516 0.485188
v -0.102457 2.748054 0.185772
v -0.123605 2.692825 0.336082
v 0.145881 2.636432 0.320994
v 0.016402 2.727814 0.158535
v 0.008322 2.598316 0.497637
v 0.503006 1.646952 0.072764
v -0.585505 1.538702 0.144054
v 0.631565 1.828388 -0.203671
v 0.173509 1.070558 0.157260
v -0.207157 0.049388 0.168973
v -0.351819 0.061515 0.290804
v -0.376915 0.053206 0.040172
v -0.241789 0.045852 0.026086
v 0.361894 0.015072 -0.377556
v 0.286884 0.024335 -0.451635
v 0.370327 0.019111 -0.416026
v 0.338186 0.021800 -0.441568
v 0.303261 0.015214 -0.366012
v 0.089230 0.915009 -0.262476
v 0.167040 0.631875 -0.295731
v 0.228411 0.335778 -0.353352
v 0.265576 0.264152 -0.190274
v 0.231451 0.476754 -0.047104
v 0.219372 0.729676 0.069510
v 0.387143 0.280125 -0.212879
v 0.436355 0.508237 -0.083961
v 0.501041 0.830136 0.027994
v 0.343605 0.950669 -0.241284
v 0.347089 0.628082 -0.267590
v 0.335479 0.332925 -0.334837
v 0.403204 0.315178 -0.285936
v 0.461829 0.600405 -0.188275
v 0.516354 0.927445 -0.137562
v -0.165396 0.974515 0.376298
v -0.146044 0.672470 0.374471
v -0.145996 0.425702 0.386534
v -0.431317 0.417069 0.378419
v -0.437577 0.690542 0.321107
v -0.456789 0.940988 0.265981
v -0.465766 0.417068 0.108436
v -0.470473 0.686604 0.052619
v -0.479242 0.894212 -0.006682
v -0.084076 0.845562 -0.037312
v -0.127841 0.655197 0.011125
v -0.173648 0.452038 0.069503
vn 0.0286 0.5064 -0.8618
vn 0.0233 -0.0348 -0.9991
vn 0.4196 -0.2087 -0.8834
vn -0.3417 -0.1849 0.9214
vn 0.9238 -0.1370 0.3576
vn 0.6206 0.7571 0.2039
vn 0.2283 0.8809 -0.4146
vn 0.4716 -0.1972 0.8595
vn -0.0858 0.9450 0.3156
vn -0.0204 0.4821 -0.8759
vn -0.2467 -0.4132 0.8766
vn -0.4204 -0.8751 -0.2396
vn -0.3497 -0.0252 0.9365
vn 0.2189 -0.8442 0.4893
vn 0.9018 -0.3128 0.2981
vn -0.1252 -0.6819 0.7206
vn 0.1373 0.9805 0.1410
vn -0.1034 -0.7252 0.6807
vn -0.7211 0.3297 0.6093
vn 0.9628 -0.0494 -0.2657
vn -0.8097 0.0772 -0.5817
vn 0.5260 0.7415 0.4166
vn 0.2066 0.1659 0.9643
vn -0.3998 -0.4926 0.7730
vn -0.1836 0.6710 0.7184
vn -0.9325 0.0211 0.3605
vn -0.0582 -0.5946 -0.8019
vn 0.8662 0.4953 0.0662
vn -0.4628 -0.5868 0.6645
vn 0.7816 0.4046 -0.4748
vn -0.0869 0.5937 0.8000
vn 0.9994 0.0323 -0.0084
vn 0.0793 -0.7247 -0.6845
vn 0.0395 -0.9992 0.0012
vn -0.1053 -0.5983 -0.7943
vn -0.8745 0.4844 0.0254
vn 0.3663 0.7435 0.5595
vn 0.9880 -0.0326 -0.1508
vn 0.3193 0.5858 0.7449
vn 0.1539 0.9868 -0.0513
vn -0.3032 0.9110 0.2797
vn 0.3931 0.8959 0.2071
vn 0.0577 0.9782 0.1994
vn -0.9714 0.1314 0.1976
vn 0.2650 -0.3293 0.9063
vn -0.2206 0.4603 -0.8599
vn -0.7783 -0.5426 -0.3160
vn -0.9311 -0.2965 0.2124
vn 0.2213 0.0957 -0.9705
vn -0.9644 0.2453 -0.0988
vn 0.0492 0.8520 0.5212
vn 0.4108 0.7432 0.5281
vn -0.2805 0.9109 0.3026
vn 0.9787 -0.1598 0.1289
vn 0.0497 0.7550 0.6538
vn -0.3635 -0.5868 -0.7236
vn -0.1052 -0.9933 0.0488
vn -0.5243 -0.6687 -0.5272
vn 0.5509 0.5451 0.6320
vn -0.3327 -0.7718 -0.5419
vn -0.0919 0.9956 0.0185
vn 0.6224 0.5671 0.5395
vn 0.4814 0.2849 0.8289
vn -0.3133 0.2447 -0.9176
vn -0.0063 0.1608 0.9870
vn -0.7297 -0.5809 0.3608
vn -0.2847 0.5330 0.7968
vn -0.7011 0.6926 0.1698
vn -0.4103 -0.8487 -0.3339
vn 0.1375 0.4504 0.8822
vn 0.5382 0.5863 0.6055
vn 0.1388 0.3401 0.9301
vn -0.3222 0.5654 -0.7593
vn -0.8661 0.4575 0.2015
vn 0.9093 -0.3226 0.2631
vn 0.5010 0.7067 0.4996
vn 0.3112 0.3791 -0.8714
vn -0.2671 -0.2565 0.9289
vn 0.5077 0.8514 0.1316
vn 0.3526 0.9357 -0.0109
vn -0.1743 0.5760 0.7986
vn -0.5239 -0.0507 0.8503
vn 0.2850 0.7141 -0.6394
vn -0.1786 -0.5422 0.8210
vn 0.1150 0.0995 -0.9884
vn 0.9476 -0.3190 -0.0191
vn -0.9909 -0.0056 -0.1343
vn -0.0834 0.1690 -0.9821
vn 0.0142 -0.5575 0.8301
vn -1.0000 0.0009 0.0061
vn 0.9654 -0.2490 -0.0780
vn -0.0506 -0.9953 -0.0821
vn 0.2348 -0.3691 0.8992
vn -0.9640 -0.2303 0.1328
vn -0.9616 -0.2497 0.1140
vn 0.9835 -0.1162 -0.1389
vn -0.1308 0.1389 -0.9816
vn -0.0511 -0.9980 0.0378
vn -0.0218 -0.9948 -0.0994
vn 0.2024 -0.5373 0.8187
vn 0.1787 0.3235 -0.9292
vn 0.9721 -0.1798 0.1505
vn 0.6107 0.2612 -0.7475
vn 0.4736 -0.0851 -0.8766
vn 0.5433 0.0566 -0.8376
vn 0.5934 0.1527 -0.7903
vn 0.9961 -0.0799 0.0377
vn 0.9825 -0.1851 0.0185
vn 0.9710 -0.2311 0.0616
vn 0.1458 -0.1291 -0.9808
vn 0.1041 0.1112 -0.9883
vn 0.1615 0.2169 -0.9627
vn 0.2702 -0.1438 0.9520
vn 0.2462 -0.3775 0.8927
vn 0.2256 -0.5174 0.8255
vn -0.9318 -0.2369 0.2749
vn -0.9570 -0.2149 0.1947
vn -0.9673 -0.2265 0.1139
vn -0.1452 -0.5636 -0.8132
vn -0.1210 -0.2495 -0.9608
vn -0.1213 -0.2231 -0.9672
vn 0.9047 0.3130 0.2891
vn 0.9903 -0.0364 0.1337
vn 0.9945 -0.1035 -0.0152
vn -0.9850 -0.0550 -0.1637
vn -0.9939 -0.0345 0.1049
vn -0.9923 0.0058 0.1241
vn -0.5128 0.4384 0.7381
vn -0.2714 0.0736 0.9596
vn -0.1030 0.1303 0.9861
vn 0.4164 -0.1984 0.8873
vn 0.4886 0.3287 -0.8082
vn -0.0912 -0.4717 -0.8771
vn -0.1787 -0.8425 -0.5081
vn -0.7707 -0.0621 -0.6342
vt 0.461701 0.809397
vt 0.301930 0.729761
vt 0.094158 0.499911
vt 0.498737 0.648456
vt 0.250869 0.553264
vt 0.714874 0.752530
vt 0.627854 0.740386
vt 0.227533 0.339544
vt 0.300362 0.438253
vt 0.625828 0.633709
vt 0.338991 0.679376
vt 0.653754 0.621457
vt 0.189641 0.785401
vt 0.531284 0.815038
vt 0.232114 0.729761
vt 0.806952 0.326283
vt 0.527824 0.712310
vt 0.703640 0.331352
vt 0.725736 0.123548
vt 0.557184 0.740386
vt 0.714874 0.681901
vt 0.693091 0.138725
vt 0.558638 0.706064
vt 0.944491 0.391302
vt 0.108931 0.369345
vt 0.090202 0.443431
vt 0.952837 0.467016
vt 0.108059 0.346292
vt 0.960024 0.371234
vt 0.653754 0.712739
vt 0.761990 0.055860
vt 0.265996 0.788213
vt 0.829683 0.188590
vt 0.886815 0.394232
vt 0.909606 0.471204
vt 0.826550 0.267021
vt 0.659457 0.749480
vt 0.206417 0.267620
vt 0.238389 0.812575
vt 0.882743 0.373659
vt 0.837846 0.166681
vt 0.102618 0.289588
vt 0.957957 0.321520
vt 0.918648 0.216117
vt 0.803322 0.012950
vt 0.106348 0.638847
vt 0.232551 0.755661
vt 0.798789 0.485160
vt 0.965752 0.239402
vt 0.153968 0.222285
vt 0.894228 0.312474
vt 0.856067 0.102710
vt 0.881967 0.351902
vt 0.842627 0.144082
vt 0.107159 0.331692
vt 0.958812 0.358201
vt 0.199778 0.246429
vt 0.138792 0.619338
vt 0.232114 0.797406
vt 0.967580 0.012950
vt 0.753483 0.682459
vt 0.843831 0.469074
vt 0.256421 0.022764
vt 0.824689 0.472884
vt 0.987050 0.016155
vt 0.832147 0.505580
vt 0.295109 0.018166
vt 0.782932 0.707368
vt 0.843831 0.503254
vt 0.076417 0.467161
vt 0.958695 0.494573
vt 0.833773 0.298242
vt 0.909847 0.503107
vt 0.076958 0.454690
vt 0.951531 0.482650
vt 0.837149 0.281767
vt 0.912926 0.487172
vt 0.064432 0.532285
vt 0.298790 0.687460
vt 0.825577 0.362572
vt 0.264894 0.686125
vt 0.056614 0.518895
vt 0.959622 0.549977
vt 0.837123 0.350740
vt 0.929664 0.555276
vt 0.051257 0.577890
vt 0.291936 0.641182
vt 0.824256 0.407314
vt 0.275162 0.640522
vt 0.035793 0.577862
vt 0.964581 0.612577
vt 0.838997 0.411720
vt 0.948088 0.615681
vt 0.039898 0.592711
vt 0.301778 0.620707
vt 0.403076 0.772170
vt 0.830596 0.428615
vt 0.403076 0.737417
vt 0.267017 0.619338
vt 0.012950 0.593438
vt 0.987050 0.637067
vt 0.428919 0.781443
vt 0.856067 0.440612
vt 0.428919 0.728949
vt 0.935424 0.646785
vt 0.945356 0.412724
vt 0.357115 0.854737
vt 0.331665 0.779032
vt 0.948027 0.441601
vt 0.799629 0.752473
vt 0.327972 0.853161
vt 0.906904 0.416128
vt 0.370069 0.779032
vt 0.684668 0.778429
vt 0.909575 0.445005
vt 0.655249 0.778999
vt 0.799629 0.791035
vt 0.330193 0.729131
vt 0.557184 0.775635
vt 0.363063 0.804932
vt 0.331684 0.807874
vt 0.754247 0.751428
vt 0.586563 0.768755
vt 0.566112 0.815056
vt 0.689281 0.828405
vt 0.370405 0.729131
vt 0.754247 0.791805
vt 0.657717 0.824383
vt 0.595492 0.808176
vt 0.327830 0.637821
vt 0.590400 0.642651
vt 0.164818 0.789976
vt 0.357235 0.619338
vt 0.642851 0.190721
vt 0.562581 0.649581
vt 0.406824 0.626953
vt 0.080449 0.619338
vt 0.646201 0.239681
vt 0.727583 0.656002
vt 0.597847 0.731399
vt 0.712829 0.722239
vt 0.658284 0.323708
vt 0.527919 0.666449
vt 0.661748 0.291537
vt 0.680225 0.245582
vt 0.377645 0.696957
vt 0.285191 0.477898
vt 0.483372 0.812325
vt 0.280072 0.728266
vt 0.924330 0.393087
vt 0.921760 0.373660
vt 0.678504 0.727397
vt 0.268491 0.812575
vt 0.930826 0.465310
vt 0.923786 0.327561
vt 0.941993 0.227167
vt 0.764056 0.466512
vt 0.919524 0.351927
vt 0.977463 0.013354
vt 0.833186 0.466512
vt 0.317617 0.012950
vt 0.798789 0.722800
vt 0.839639 0.522681
vt 0.934403 0.500152
vt 0.932138 0.484309
vt 0.281656 0.689101
vt 0.944784 0.554368
vt 0.283549 0.640852
vt 0.956335 0.614129
vt 0.284323 0.620942
vt 0.399765 0.754789
vt 0.961112 0.640376
vt 0.422297 0.755187
vt 0.926130 0.414426
vt 0.350867 0.779032
vt 0.928801 0.443303
vt 0.799629 0.771754
vt 0.350773 0.728949
vt 0.557184 0.796361
vt 0.753483 0.771844
vt 0.595492 0.787450
vt 0.985581 0.067358
vt 0.238180 0.070710
vt 0.259592 0.052321
vt 0.138792 0.821791
vt 0.953366 0.057503
vt 0.765454 0.639660
vt 0.120235 0.821584
vt 0.772730 0.660154
vt 0.283154 0.037949
vt 0.784440 0.682652
vt 0.128680 0.843910
vt 0.970110 0.058056
vt 0.758353 0.637393
vt 0.180368 0.432154
vt 0.759258 0.257498
vt 0.884976 0.446549
vt 0.828099 0.241547
vt 0.971226 0.428512
vt 0.101516 0.405509
vt 0.908240 0.430567
vt 0.669958 0.778714
vt 0.946692 0.427163
vt 0.342544 0.853949
vt 0.673120 0.826722
vt 0.582140 0.817526
vt 0.570535 0.766286
vt 0.348248 0.806122
vt 0.576699 0.792002
vt 0.653753 0.802281
vt 0.776512 0.794925
vt 0.776512 0.748700
vt 0.327830 0.829868
vt 0.363063 0.830170
vt 0.327830 0.753980
vt 0.373865 0.753980
vt 0.689281 0.803194
vt 0.351093 0.753886
vt 0.776117 0.771930
vt 0.671321 0.802907
vt 0.345899 0.829874
vt 0.457498 0.727404
vt 0.165986 0.548054
vt 0.260364 0.376248
vt 0.625887 0.695531
vt 0.520555 0.743605
vt 0.734596 0.339638
vt 0.406824 0.703049
vt 0.012950 0.651015
vt 0.277407 0.507014
vt 0.206214 0.619338
vt 0.706517 0.466512
vt 0.399765 0.822801
vt 0.181517 0.620770
vt 0.619265 0.470337
vt 0.422433 0.807343
vt 0.582936 0.466512
vt 0.458892 0.202188
vt 0.422433 0.843958
vt 0.727583 0.468029
vt 0.460639 0.221880
vt 0.402692 0.843997
vt 0.717439 0.778459
vt 0.429089 0.593438
vt 0.518160 0.466685
vt 0.070962 0.817001
vt 0.726094 0.791097
vt 0.457498 0.298878
vt 0.715181 0.783741
vt 0.523936 0.466512
vt 0.458951 0.311476
vt 0.719061 0.788282
vt 0.458165 0.306435
vt 0.058766 0.817583
vt 0.726094 0.778429
vt 0.431598 0.585369
vt 0.599953 0.261833
vt 0.080449 0.668491
vt 0.542336 0.274386
vt 0.076079 0.728305
vt 0.500395 0.287212
vt 0.064936 0.773359
vt 0.389801 0.564275
vt 0.039540 0.774208
vt 0.356388 0.547019
vt 0.031995 0.737396
vt 0.319737 0.531779
vt 0.030523 0.696843
vt 0.505723 0.512116
vt 0.384015 0.580847
vt 0.506522 0.550736
vt 0.346302 0.574833
vt 0.507607 0.604105
vt 0.294291 0.566034
vt 0.610540 0.298468
vt 0.545535 0.300686
vt 0.502363 0.302883
vt 0.504402 0.313331
vt 0.517745 0.511765
vt 0.548610 0.318269
vt 0.527842 0.556627
vt 0.609940 0.323717
vt 0.531284 0.618364
vt 0.660591 0.582499
vt 0.204501 0.743892
vt 0.668589 0.550878
vt 0.206214 0.710848
vt 0.668004 0.517120
vt 0.204545 0.678125
vt 0.623877 0.525891
vt 0.164692 0.675333
vt 0.610236 0.563455
vt 0.167167 0.712219
vt 0.605277 0.597358
vt 0.166352 0.745757
vt 0.511839 0.183186
vt 0.584607 0.521652
vt 0.552303 0.182624
vt 0.569857 0.561129
vt 0.598009 0.178631
vt 0.565182 0.606784
vt 0.592158 0.236754
vt 0.721184 0.600612
vt 0.550092 0.232946
vt 0.722606 0.558204
vt 0.518921 0.225772
vt 0.713819 0.525134
s 0
usemtl Material
f 89/196/1 7/19/1 13/33/1 90/198/1
f 8/22/2 7/19/2 89/196/2 58/145/2 54/138/2 53/134/2
f 6/18/3 56/142/3 57/144/3
f 3/8/4 106/224/4 4/9/4 59/147/4 88/195/4
f 6/17/5 107/226/5 5/14/5 60/148/5 1/1/5 105/222/5 2/4/5 56/143/5
f 61/150/6 13/34/6 16/40/6 62/151/6
f 5/16/7 14/36/7 31/76/7 29/72/7
f 88/195/8 1/3/8 10/26/8 91/200/8
f 67/158/9 21/53/9 20/51/9 65/155/9
f 13/33/10 7/19/10 12/31/10 16/41/10
f 3/8/11 9/25/11 11/28/11 15/38/11
f 55/141/12 3/6/12 15/37/12 63/152/12
f 66/156/13 19/49/13 17/43/13 65/155/13
f 23/57/14 22/55/14 17/42/14 19/50/14
f 83/184/15 82/183/15 25/63/15 26/67/15
f 15/38/16 11/28/16 22/55/16 23/57/16
f 62/151/17 16/40/17 21/53/17 67/158/17
f 69/163/18 26/66/18 25/64/18 68/160/18
f 87/193/19 84/186/19 24/60/19 68/159/19
f 86/190/20 83/184/20 26/67/20 69/161/20
f 84/187/21 85/189/21 27/68/21 24/61/21
f 70/164/22 29/73/22 31/77/22 71/165/22
f 70/164/23 28/71/23 34/83/23 73/167/23
f 10/26/24 1/3/24 28/70/24 30/74/24
f 64/154/25 10/27/25 30/75/25 71/165/25
f 34/82/26 32/78/26 36/86/26 38/90/26
f 60/149/27 5/15/27 33/81/27 72/166/27
f 5/16/28 29/72/28 35/84/28 33/80/28
f 28/70/29 1/3/29 32/78/29 34/82/29
f 37/88/30 39/92/30 43/103/30 41/97/30
f 73/167/31 34/83/31 38/91/31 75/169/31
f 33/80/32 35/84/32 39/92/32 37/88/32
f 72/166/33 33/81/33 37/89/33 74/168/33
f 76/171/34 41/98/34 43/104/34 77/173/34
f 74/168/35 37/89/35 41/99/35 76/170/35
f 38/90/36 36/86/36 40/94/36 42/100/36
f 75/169/37 38/91/37 42/101/37 77/172/37
f 102/219/38 97/211/38 51/127/38 81/180/38
f 91/199/39 10/27/39 45/109/39 93/203/39
f 90/197/40 13/34/40 46/112/40 92/201/40
f 61/150/41 9/24/41 44/106/41 78/174/41
f 64/154/42 14/35/42 47/115/42 79/176/42
f 96/209/43 94/206/43 50/124/43 80/179/43
f 101/218/44 99/215/44 48/118/44 80/178/44
f 104/221/45 98/213/45 49/121/45 95/208/45
f 103/220/46 100/217/46 50/125/46 94/205/46
f 8/23/47 53/135/47 52/131/47
f 8/23/48 52/131/48 4/10/48 106/225/48 3/7/48 55/140/48 7/20/48
f 54/138/49 58/145/49 89/196/49 5/16/49 107/227/49 6/18/49 57/144/49
f 100/216/50 101/218/50 80/178/50 50/126/50
f 95/207/51 96/209/51 80/179/51 48/119/51
f 10/27/52 64/154/52 79/176/52 45/109/52
f 13/34/53 61/150/53 78/174/53 46/112/53
f 98/212/54 102/219/54 81/180/54 49/122/54
f 39/93/55 75/169/55 77/172/55 43/105/55
f 36/87/56 74/168/56 76/170/56 40/95/56
f 40/96/57 76/171/57 77/173/57 42/102/57
f 32/79/58 72/166/58 74/168/58 36/87/58
f 35/85/59 73/167/59 75/169/59 39/93/59
f 1/2/60 60/149/60 72/166/60 32/79/60
f 14/35/61 64/154/61 71/165/61 31/77/61
f 29/73/62 70/164/62 73/167/62 35/85/62
f 28/71/63 70/164/63 71/165/63 30/75/63
f 85/189/64 86/191/64 69/162/64 27/68/64
f 82/182/65 87/193/65 68/159/65 25/65/65
f 27/69/66 69/163/66 68/160/66 24/62/66
f 11/29/67 62/151/67 67/158/67 22/56/67
f 18/44/68 66/156/68 65/155/68 20/51/68
f 7/21/69 55/141/69 63/152/69 12/30/69
f 22/56/70 67/158/70 65/155/70 17/43/70
f 9/24/71 61/150/71 62/151/71 11/29/71
f 19/49/72 66/156/72 87/193/72 82/182/72
f 12/31/73 18/45/73 20/52/73 21/54/73 16/41/73
f 66/157/74 18/48/74 84/187/74 87/194/74
f 23/57/75 19/50/75 82/183/75 83/184/75
f 49/123/76 81/181/76 96/209/76 95/207/76
f 97/210/77 103/220/77 94/205/77 51/128/77
f 99/214/78 104/221/78 95/208/78 48/120/78
f 81/181/79 51/129/79 94/206/79 96/209/79
f 14/35/80 90/197/80 92/201/80 47/115/80
f 9/24/81 91/199/81 93/203/81 44/106/81
f 3/8/82 88/195/82 91/200/82 9/25/82
f 5/16/83 89/196/83 90/198/83 14/36/83
f 44/107/84 93/204/84 104/221/84 99/214/84
f 47/116/85 92/202/85 103/220/85 97/210/85
f 45/110/86 79/177/86 102/219/86 98/212/86
f 46/113/87 78/175/87 101/218/87 100/216/87
f 92/202/88 46/114/88 100/217/88 103/220/88
f 93/204/89 45/111/89 98/213/89 104/221/89
f 78/175/90 44/108/90 99/215/90 101/218/90
f 79/177/91 47/117/91 97/211/91 102/219/91
f 59/146/92 4/11/92 52/130/92 53/133/92 54/136/92 108/228/92
f 136/291/93 110/234/93 109/231/93 135/289/93
f 121/264/94 120/262/94 114/246/94 117/254/94
f 139/297/95 111/237/95 110/235/95 136/290/95
f 135/288/96 109/232/96 112/240/96 144/307/96
f 144/306/97 112/241/97 111/238/97 139/296/97
f 111/239/98 112/242/98 109/233/98 110/236/98
f 117/255/99 114/247/99 116/252/99 115/249/99 113/243/99
f 124/270/100 121/263/100 117/256/100 113/244/100
f 120/261/101 129/277/101 116/253/101 114/248/101
f 130/279/102 124/269/102 113/245/102 115/250/102
f 129/277/103 130/278/103 115/251/103 116/253/103
f 57/144/104 56/142/104 132/282/104 127/275/104
f 127/275/105 132/282/105 131/280/105 128/276/105
f 128/276/106 131/280/106 130/278/106 129/277/106
f 56/143/107 2/4/107 126/273/107 132/283/107
f 132/283/108 126/273/108 125/271/108 131/281/108
f 131/281/109 125/271/109 124/269/109 130/279/109
f 54/138/110 57/144/110 127/275/110 118/257/110
f 118/257/111 127/275/111 128/276/111 119/259/111
f 119/259/112 128/276/112 129/277/112 120/261/112
f 2/5/113 108/230/113 123/267/113 126/274/113
f 126/274/114 123/267/114 122/265/114 125/272/114
f 125/272/115 122/265/115 121/263/115 124/270/115
f 108/229/116 54/137/116 118/258/116 123/268/116
f 123/268/117 118/258/117 119/260/117 122/266/117
f 122/266/118 119/260/118 120/262/118 121/264/118
f 54/138/119 142/302/119 141/300/119 53/134/119
f 142/302/120 143/304/120 140/298/120 141/300/120
f 143/304/121 144/306/121 139/296/121 140/298/121
f 4/12/122 133/284/122 142/303/122 54/139/122
f 133/284/123 134/286/123 143/305/123 142/303/123
f 134/286/124 135/288/124 144/307/124 143/305/124
f 53/135/125 141/301/125 138/294/125 52/131/125
f 141/301/126 140/299/126 137/292/126 138/294/126
f 140/299/127 139/297/127 136/290/127 137/292/127
f 52/132/128 138/295/128 133/285/128 4/13/128
f 138/295/129 137/293/129 134/287/129 133/285/129
f 137/293/130 136/291/130 135/289/130 134/287/130
f 105/223/131 1/3/131 88/195/131 59/147/131 108/230/131 2/5/131
f 86/192/132 85/188/132 83/185/132
f 83/185/133 85/188/133 18/46/133 23/58/133
f 63/153/134 15/39/134 23/59/134 18/47/134 12/32/134
f 84/187/135 18/48/135 85/189/135
l 52 106
