# Blender 3.3.1
# www.blender.org
mtllib monstruo_3_caminar543.mtl
o monstruo_grande
v 0.588523 1.916958 0.413387
v 0.524628 1.100721 0.087421
v -0.566272 1.877642 0.153835
v -0.289253 1.215327 0.225590
v 0.898195 2.145799 0.131074
v 0.643912 1.515893 -0.228985
v -0.617392 2.097631 -0.285128
v -0.606921 1.779801 -0.333176
v -0.121885 2.412038 0.469187
v 0.402425 2.231897 0.519331
v -0.269481 2.400666 0.554651
v -0.943509 2.196276 -0.209092
v -0.052254 2.579437 0.121211
v 0.475479 2.349710 0.250431
v -0.835002 2.045866 -0.031425
v -0.201118 2.677748 0.130657
v -0.641398 2.364484 0.508479
v -1.275374 2.135544 -0.015753
v -1.039181 2.147632 0.232066
v -0.735658 2.708714 0.234145
v -0.382281 2.744448 0.179658
v -0.353321 2.366304 0.518271
v -0.960009 2.076654 -0.064365
v -1.759316 0.869218 0.529720
v -1.645028 0.840369 0.596626
v -1.596225 0.677791 0.389672
v -1.665983 0.695400 0.348835
v 0.517292 2.137711 0.540844
v 0.729845 2.295019 0.335145
v 0.508084 2.247663 0.535419
v 0.599240 2.356609 0.317116
v 0.789841 1.846887 0.561686
v 0.996878 1.862451 0.481658
v 0.800078 1.913578 0.587084
v 0.952109 1.997161 0.484593
v 0.901066 1.693548 0.802870
v 1.010520 1.679315 0.762656
v 0.943498 1.744766 0.885801
v 1.048367 1.730822 0.841178
v 0.886685 1.635556 0.947804
v 1.105564 1.607663 0.857436
v 0.907429 1.715013 1.126971
v 1.236695 1.668391 0.986654
v 0.046115 2.434151 0.510430
v 0.250101 2.383437 0.510561
v 0.081480 2.534877 0.265248
v 0.280453 2.476283 0.266985
v 0.102584 2.742791 0.651702
v 0.307640 2.669393 0.629867
v 0.113568 2.848986 0.395132
v 0.319459 2.774979 0.373155
v -0.499078 1.219545 0.029815
v -0.395296 1.200679 -0.188230
v -0.038462 1.279212 -0.332712
v -0.603923 1.924436 -0.074875
v 0.540890 1.135320 -0.151849
v 0.323457 1.156360 -0.271843
v 0.068759 1.517715 -0.318960
v -0.029231 1.134781 0.198076
v 0.700877 1.978419 0.328050
v -0.090595 2.470116 0.347139
v -0.231060 2.650873 0.398822
v -0.759472 2.107627 -0.121479
v 0.423590 2.352798 0.409005
v -0.627947 2.592836 0.475625
v -1.205649 2.266116 0.248214
v -0.383943 2.660003 0.375293
v -1.719116 0.852060 0.590939
v -1.597293 0.577799 0.264587
v 0.639087 2.235981 0.480234
v 0.559634 2.348505 0.448097
v 0.876722 1.813120 0.489073
v 0.894301 1.973464 0.584201
v 0.954006 1.686064 0.780779
v 0.996093 1.737319 0.863388
v 0.987089 1.605720 0.885983
v 1.054881 1.662896 1.026066
v 0.062426 2.484707 0.386769
v 0.262846 2.430954 0.387526
v 0.076566 2.798349 0.523231
v 0.344598 2.719892 0.501915
v -1.502883 1.162710 0.587906
v -1.553571 0.996019 0.499449
v -1.701453 1.183357 0.472110
v -1.661143 1.023172 0.436475
v -1.598442 0.848211 0.383147
v -1.634602 1.151146 0.575536
v 0.033717 1.750406 0.513115
v 0.327142 2.082684 -0.178178
v 0.297898 2.478406 0.089280
v 0.134389 2.266649 0.636469
v 0.175175 2.506277 0.264408
v 0.154064 2.409717 0.509588
v 0.218485 2.827897 0.345439
v 0.203506 2.690175 0.679213
v 0.214280 2.810277 0.533927
v 0.314495 2.636686 0.296261
v 0.296738 2.518675 0.589028
v 0.060501 2.579631 0.603433
v 0.077342 2.700945 0.308986
v 0.051162 2.641639 0.456008
v 0.320201 2.577237 0.442361
v 0.195989 2.677211 0.282036
v 0.177858 2.540807 0.616138
v 0.634875 1.573346 0.079048
v -0.530589 1.586459 0.188842
v 0.738456 1.704899 -0.171320
v 0.165637 1.091090 0.203377
v -0.290632 0.112408 -0.098427
v -0.420696 0.098677 0.038726
v -0.473119 0.148286 -0.202123
v -0.340826 0.142238 -0.233323
v 0.306324 -0.054312 -0.005804
v 0.232815 -0.067032 -0.081076
v 0.315662 -0.058869 -0.044020
v 0.284117 -0.064155 -0.069933
v 0.247265 -0.054965 0.004533
v 0.071925 0.819640 -0.120677
v 0.141021 0.567862 -0.069281
v 0.175346 0.265058 -0.061317
v 0.200271 0.230211 0.115506
v 0.182132 0.472274 0.204603
v 0.190669 0.745373 0.259905
v 0.323481 0.229987 0.096429
v 0.390658 0.477313 0.174189
v 0.479058 0.806684 0.196547
v 0.327807 0.829345 -0.099294
v 0.318936 0.555964 -0.032756
v 0.281129 0.257422 -0.036928
v 0.345206 0.245687 0.018292
v 0.428179 0.538888 0.056099
v 0.499289 0.835093 0.007505
v -0.184069 0.951275 0.355974
v -0.194375 0.638469 0.283282
v -0.215119 0.396740 0.216318
v -0.499448 0.415567 0.207735
v -0.482109 0.695376 0.237957
v -0.477275 0.958121 0.247134
v -0.528750 0.497751 -0.050013
v -0.509093 0.767939 -0.015635
v -0.503920 0.945828 -0.024399
v -0.115107 0.867945 -0.063639
v -0.169620 0.718502 -0.063308
v -0.233793 0.517048 -0.077710
vn 0.0982 0.5676 -0.8174
vn 0.0123 0.0545 -0.9984
vn 0.4404 -0.2913 -0.8492
vn -0.3650 -0.2066 0.9078
vn 0.8989 -0.3737 0.2286
vn 0.6966 0.6612 0.2785
vn 0.3247 0.8415 -0.4317
vn 0.2821 -0.2281 0.9319
vn -0.0455 0.9039 0.4253
vn 0.0755 0.5445 -0.8353
vn -0.3604 -0.4299 0.8278
vn -0.4869 -0.8075 -0.3329
vn -0.3963 -0.1311 0.9087
vn 0.1298 -0.9131 0.3866
vn 0.8881 -0.3098 0.3396
vn -0.1906 -0.7662 0.6137
vn 0.2323 0.9421 0.2419
vn -0.1266 -0.7868 0.6040
vn -0.7761 0.2492 0.5793
vn 0.9813 0.0054 -0.1923
vn -0.7662 0.1045 -0.6341
vn 0.5156 0.7443 0.4245
vn 0.0354 0.3303 0.9432
vn -0.4774 -0.4040 0.7803
vn -0.1925 0.6874 0.7003
vn -0.9026 0.0078 0.4304
vn 0.0643 -0.7329 -0.6772
vn 0.8303 0.5476 0.1036
vn -0.5619 -0.4782 0.6750
vn 0.6904 0.2301 -0.6859
vn -0.1700 0.7717 0.6129
vn 0.9902 0.0852 -0.1106
vn 0.1371 -0.8617 -0.4885
vn 0.0994 -0.9364 0.3366
vn -0.1638 -0.8331 -0.5283
vn -0.8900 0.4558 -0.0127
vn 0.3950 0.8947 0.2086
vn 0.9909 -0.0412 -0.1284
vn 0.3377 0.5149 0.7879
vn 0.2829 0.9583 0.0404
vn -0.1959 0.9103 0.3645
vn 0.4807 0.8413 0.2470
vn 0.0720 0.9730 0.2192
vn -0.9731 0.1389 0.1839
vn 0.2447 -0.3437 0.9066
vn -0.2005 0.4698 -0.8597
vn -0.8409 -0.3988 -0.3657
vn -0.9637 -0.1650 0.2101
vn 0.2319 0.1916 -0.9537
vn -0.9599 0.2540 -0.1189
vn 0.0576 0.8417 0.5369
vn 0.4523 0.6907 0.5642
vn -0.1555 0.9073 0.3908
vn 0.9747 -0.1678 0.1478
vn 0.0936 0.9356 0.3404
vn -0.4228 -0.8060 -0.4142
vn -0.0384 -0.9148 0.4022
vn -0.4454 -0.8476 -0.2884
vn 0.4128 0.7727 0.4821
vn -0.2087 -0.8840 -0.4182
vn -0.0151 0.9998 0.0125
vn 0.5073 0.6747 0.5361
vn 0.3928 0.3031 0.8682
vn -0.2521 0.3168 -0.9144
vn -0.0871 0.0704 0.9937
vn -0.7319 -0.6340 0.2497
vn -0.2634 0.4674 0.8439
vn -0.6664 0.7144 0.2132
vn -0.4854 -0.7906 -0.3732
vn 0.1184 0.3204 0.9398
vn 0.5882 0.4640 0.6624
vn 0.1075 0.2660 0.9580
vn -0.2535 0.6730 -0.6948
vn -0.8729 0.4423 0.2061
vn 0.8999 -0.3380 0.2753
vn 0.5066 0.6888 0.5186
vn 0.3293 0.3869 -0.8613
vn -0.2817 -0.2672 0.9215
vn 0.5222 0.8381 0.1576
vn 0.4636 0.8843 0.0561
vn -0.1157 0.5576 0.8220
vn -0.5388 -0.0710 0.8394
vn 0.4253 0.6947 -0.5800
vn -0.1984 -0.5553 0.8076
vn 0.1122 0.1210 -0.9863
vn 0.9393 -0.3429 -0.0087
vn -0.9867 0.0097 -0.1622
vn -0.0832 0.1825 -0.9797
vn -0.0271 -0.5655 0.8243
vn -0.9997 0.0197 -0.0175
vn 0.9610 -0.2692 -0.0629
vn -0.0821 -0.9875 -0.1345
vn 0.2280 -0.6096 0.7592
vn -0.9728 -0.1920 0.1293
vn -0.9660 -0.2405 0.0948
vn 0.9716 -0.1262 -0.2002
vn -0.1374 0.3956 -0.9081
vn -0.0886 -0.9791 -0.1828
vn 0.0347 -0.9900 0.1366
vn 0.1506 -0.3397 0.9284
vn 0.2224 0.0989 -0.9699
vn 0.9595 -0.1438 0.2424
vn 0.6479 0.0877 -0.7567
vn 0.4393 -0.4404 -0.7830
vn 0.5487 -0.2390 -0.8011
vn 0.6302 -0.0738 -0.7729
vn 0.9911 -0.1149 0.0675
vn 0.9641 -0.2412 0.1106
vn 0.9402 -0.2969 0.1670
vn 0.0403 -0.4341 -0.8999
vn 0.1285 -0.2032 -0.9707
vn 0.2094 -0.0074 -0.9778
vn 0.2352 0.2366 0.9427
vn 0.2034 -0.1573 0.9664
vn 0.1439 -0.3322 0.9322
vn -0.9465 -0.0531 0.3182
vn -0.9715 -0.1136 0.2078
vn -0.9874 -0.1118 0.1123
vn -0.2079 -0.4917 -0.8456
vn -0.1195 -0.0058 -0.9928
vn -0.1114 0.1218 -0.9863
vn 0.9292 0.2164 0.2995
vn 0.9803 -0.1563 0.1206
vn 0.9826 -0.1797 -0.0469
vn -0.9862 0.0488 -0.1585
vn -0.9943 0.0225 0.1041
vn -0.9908 0.0520 0.1248
vn -0.4666 0.4069 0.7853
vn -0.2675 -0.1288 0.9549
vn -0.1152 -0.1738 0.9780
vn 0.3558 -0.3773 0.8550
vn 0.5353 0.4159 -0.7351
vn -0.0506 -0.4012 -0.9146
vn -0.1527 -0.7592 -0.6327
vn -0.7242 -0.0290 -0.6890
vt 0.461701 0.809397
vt 0.301930 0.729761
vt 0.094158 0.499911
vt 0.498737 0.648456
vt 0.250869 0.553264
vt 0.714874 0.752530
vt 0.627854 0.740386
vt 0.227533 0.339544
vt 0.300362 0.438253
vt 0.625828 0.633709
vt 0.338991 0.679376
vt 0.653754 0.621457
vt 0.189641 0.785401
vt 0.531284 0.815038
vt 0.232114 0.729761
vt 0.806952 0.326283
vt 0.527824 0.712310
vt 0.703640 0.331352
vt 0.725736 0.123548
vt 0.557184 0.740386
vt 0.714874 0.681901
vt 0.693091 0.138725
vt 0.558638 0.706064
vt 0.944491 0.391302
vt 0.108931 0.369345
vt 0.090202 0.443431
vt 0.952837 0.467016
vt 0.108059 0.346292
vt 0.960024 0.371234
vt 0.653754 0.712739
vt 0.761990 0.055860
vt 0.265996 0.788213
vt 0.829683 0.188590
vt 0.886815 0.394232
vt 0.909606 0.471204
vt 0.826550 0.267021
vt 0.659457 0.749480
vt 0.206417 0.267620
vt 0.238389 0.812575
vt 0.882743 0.373659
vt 0.837846 0.166681
vt 0.102618 0.289588
vt 0.957957 0.321520
vt 0.918648 0.216117
vt 0.803322 0.012950
vt 0.106348 0.638847
vt 0.232551 0.755661
vt 0.798789 0.485160
vt 0.965752 0.239402
vt 0.153968 0.222285
vt 0.894228 0.312474
vt 0.856067 0.102710
vt 0.881967 0.351902
vt 0.842627 0.144082
vt 0.107159 0.331692
vt 0.958812 0.358201
vt 0.199778 0.246429
vt 0.138792 0.619338
vt 0.232114 0.797406
vt 0.967580 0.012950
vt 0.753483 0.682459
vt 0.843831 0.469074
vt 0.256421 0.022764
vt 0.824689 0.472884
vt 0.987050 0.016155
vt 0.832147 0.505580
vt 0.295109 0.018166
vt 0.782932 0.707368
vt 0.843831 0.503254
vt 0.076417 0.467161
vt 0.958695 0.494573
vt 0.833773 0.298242
vt 0.909847 0.503107
vt 0.076958 0.454690
vt 0.951531 0.482650
vt 0.837149 0.281767
vt 0.912926 0.487172
vt 0.064432 0.532285
vt 0.298790 0.687460
vt 0.825577 0.362572
vt 0.264894 0.686125
vt 0.056614 0.518895
vt 0.959622 0.549977
vt 0.837123 0.350740
vt 0.929664 0.555276
vt 0.051257 0.577890
vt 0.291936 0.641182
vt 0.824256 0.407314
vt 0.275162 0.640522
vt 0.035793 0.577862
vt 0.964581 0.612577
vt 0.838997 0.411720
vt 0.948088 0.615681
vt 0.039898 0.592711
vt 0.301778 0.620707
vt 0.403076 0.772170
vt 0.830596 0.428615
vt 0.403076 0.737417
vt 0.267017 0.619338
vt 0.012950 0.593438
vt 0.987050 0.637067
vt 0.428919 0.781443
vt 0.856067 0.440612
vt 0.428919 0.728949
vt 0.935424 0.646785
vt 0.945356 0.412724
vt 0.357115 0.854737
vt 0.331665 0.779032
vt 0.948027 0.441601
vt 0.799629 0.752473
vt 0.327972 0.853161
vt 0.906904 0.416128
vt 0.370069 0.779032
vt 0.684668 0.778429
vt 0.909575 0.445005
vt 0.655249 0.778999
vt 0.799629 0.791035
vt 0.330193 0.729131
vt 0.557184 0.775635
vt 0.363063 0.804932
vt 0.331684 0.807874
vt 0.754247 0.751428
vt 0.586563 0.768755
vt 0.566112 0.815056
vt 0.689281 0.828405
vt 0.370405 0.729131
vt 0.754247 0.791805
vt 0.657717 0.824383
vt 0.595492 0.808176
vt 0.327830 0.637821
vt 0.590400 0.642651
vt 0.164818 0.789976
vt 0.357235 0.619338
vt 0.642851 0.190721
vt 0.562581 0.649581
vt 0.406824 0.626953
vt 0.080449 0.619338
vt 0.646201 0.239681
vt 0.727583 0.656002
vt 0.597847 0.731399
vt 0.712829 0.722239
vt 0.658284 0.323708
vt 0.527919 0.666449
vt 0.661748 0.291537
vt 0.680225 0.245582
vt 0.377645 0.696957
vt 0.285191 0.477898
vt 0.483372 0.812325
vt 0.280072 0.728266
vt 0.924330 0.393087
vt 0.921760 0.373660
vt 0.678504 0.727397
vt 0.268491 0.812575
vt 0.930826 0.465310
vt 0.923786 0.327561
vt 0.941993 0.227167
vt 0.764056 0.466512
vt 0.919524 0.351927
vt 0.977463 0.013354
vt 0.833186 0.466512
vt 0.317617 0.012950
vt 0.798789 0.722800
vt 0.839639 0.522681
vt 0.934403 0.500152
vt 0.932138 0.484309
vt 0.281656 0.689101
vt 0.944784 0.554368
vt 0.283549 0.640852
vt 0.956335 0.614129
vt 0.284323 0.620942
vt 0.399765 0.754789
vt 0.961112 0.640376
vt 0.422297 0.755187
vt 0.926130 0.414426
vt 0.350867 0.779032
vt 0.928801 0.443303
vt 0.799629 0.771754
vt 0.350773 0.728949
vt 0.557184 0.796361
vt 0.753483 0.771844
vt 0.595492 0.787450
vt 0.985581 0.067358
vt 0.238180 0.070710
vt 0.259592 0.052321
vt 0.138792 0.821791
vt 0.953366 0.057503
vt 0.765454 0.639660
vt 0.120235 0.821584
vt 0.772730 0.660154
vt 0.283154 0.037949
vt 0.784440 0.682652
vt 0.128680 0.843910
vt 0.970110 0.058056
vt 0.758353 0.637393
vt 0.180368 0.432154
vt 0.759258 0.257498
vt 0.884976 0.446549
vt 0.828099 0.241547
vt 0.971226 0.428512
vt 0.101516 0.405509
vt 0.908240 0.430567
vt 0.669958 0.778714
vt 0.946692 0.427163
vt 0.342544 0.853949
vt 0.673120 0.826722
vt 0.582140 0.817526
vt 0.570535 0.766286
vt 0.348248 0.806122
vt 0.576699 0.792002
vt 0.653753 0.802281
vt 0.776512 0.794925
vt 0.776512 0.748700
vt 0.327830 0.829868
vt 0.363063 0.830170
vt 0.327830 0.753980
vt 0.373865 0.753980
vt 0.689281 0.803194
vt 0.351093 0.753886
vt 0.776117 0.771930
vt 0.671321 0.802907
vt 0.345899 0.829874
vt 0.457498 0.727404
vt 0.165986 0.548054
vt 0.260364 0.376248
vt 0.625887 0.695531
vt 0.520555 0.743605
vt 0.734596 0.339638
vt 0.406824 0.703049
vt 0.012950 0.651015
vt 0.277407 0.507014
vt 0.206214 0.619338
vt 0.706517 0.466512
vt 0.399765 0.822801
vt 0.181517 0.620770
vt 0.619265 0.470337
vt 0.422433 0.807343
vt 0.582936 0.466512
vt 0.458892 0.202188
vt 0.422433 0.843958
vt 0.727583 0.468029
vt 0.460639 0.221880
vt 0.402692 0.843997
vt 0.717439 0.778459
vt 0.429089 0.593438
vt 0.518160 0.466685
vt 0.070962 0.817001
vt 0.726094 0.791097
vt 0.457498 0.298878
vt 0.715181 0.783741
vt 0.523936 0.466512
vt 0.458951 0.311476
vt 0.719061 0.788282
vt 0.458165 0.306435
vt 0.058766 0.817583
vt 0.726094 0.778429
vt 0.431598 0.585369
vt 0.599953 0.261833
vt 0.080449 0.668491
vt 0.542336 0.274386
vt 0.076079 0.728305
vt 0.500395 0.287212
vt 0.064936 0.773359
vt 0.389801 0.564275
vt 0.039540 0.774208
vt 0.356388 0.547019
vt 0.031995 0.737396
vt 0.319737 0.531779
vt 0.030523 0.696843
vt 0.505723 0.512116
vt 0.384015 0.580847
vt 0.506522 0.550736
vt 0.346302 0.574833
vt 0.507607 0.604105
vt 0.294291 0.566034
vt 0.610540 0.298468
vt 0.545535 0.300686
vt 0.502363 0.302883
vt 0.504402 0.313331
vt 0.517745 0.511765
vt 0.548610 0.318269
vt 0.527842 0.556627
vt 0.609940 0.323717
vt 0.531284 0.618364
vt 0.660591 0.582499
vt 0.204501 0.743892
vt 0.668589 0.550878
vt 0.206214 0.710848
vt 0.668004 0.517120
vt 0.204545 0.678125
vt 0.623877 0.525891
vt 0.164692 0.675333
vt 0.610236 0.563455
vt 0.167167 0.712219
vt 0.605277 0.597358
vt 0.166352 0.745757
vt 0.511839 0.183186
vt 0.584607 0.521652
vt 0.552303 0.182624
vt 0.569857 0.561129
vt 0.598009 0.178631
vt 0.565182 0.606784
vt 0.592158 0.236754
vt 0.721184 0.600612
vt 0.550092 0.232946
vt 0.722606 0.558204
vt 0.518921 0.225772
vt 0.713819 0.525134
s 0
usemtl Material
f 89/196/1 7/19/1 13/33/1 90/198/1
f 8/22/2 7/19/2 89/196/2 58/145/2 54/138/2 53/134/2
f 6/18/3 56/142/3 57/144/3
f 3/8/4 106/224/4 4/9/4 59/147/4 88/195/4
f 6/17/5 107/226/5 5/14/5 60/148/5 1/1/5 105/222/5 2/4/5 56/143/5
f 61/150/6 13/34/6 16/40/6 62/151/6
f 5/16/7 14/36/7 31/76/7 29/72/7
f 88/195/8 1/3/8 10/26/8 91/200/8
f 67/158/9 21/53/9 20/51/9 65/155/9
f 13/33/10 7/19/10 12/31/10 16/41/10
f 3/8/11 9/25/11 11/28/11 15/38/11
f 55/141/12 3/6/12 15/37/12 63/152/12
f 66/156/13 19/49/13 17/43/13 65/155/13
f 23/57/14 22/55/14 17/42/14 19/50/14
f 83/184/15 82/183/15 25/63/15 26/67/15
f 15/38/16 11/28/16 22/55/16 23/57/16
f 62/151/17 16/40/17 21/53/17 67/158/17
f 69/163/18 26/66/18 25/64/18 68/160/18
f 87/193/19 84/186/19 24/60/19 68/159/19
f 86/190/20 83/184/20 26/67/20 69/161/20
f 84/187/21 85/189/21 27/68/21 24/61/21
f 70/164/22 29/73/22 31/77/22 71/165/22
f 70/164/23 28/71/23 34/83/23 73/167/23
f 10/26/24 1/3/24 28/70/24 30/74/24
f 64/154/25 10/27/25 30/75/25 71/165/25
f 34/82/26 32/78/26 36/86/26 38/90/26
f 60/149/27 5/15/27 33/81/27 72/166/27
f 5/16/28 29/72/28 35/84/28 33/80/28
f 28/70/29 1/3/29 32/78/29 34/82/29
f 37/88/30 39/92/30 43/103/30 41/97/30
f 73/167/31 34/83/31 38/91/31 75/169/31
f 33/80/32 35/84/32 39/92/32 37/88/32
f 72/166/33 33/81/33 37/89/33 74/168/33
f 76/171/34 41/98/34 43/104/34 77/173/34
f 74/168/35 37/89/35 41/99/35 76/170/35
f 38/90/36 36/86/36 40/94/36 42/100/36
f 75/169/37 38/91/37 42/101/37 77/172/37
f 102/219/38 97/211/38 51/127/38 81/180/38
f 91/199/39 10/27/39 45/109/39 93/203/39
f 90/197/40 13/34/40 46/112/40 92/201/40
f 61/150/41 9/24/41 44/106/41 78/174/41
f 64/154/42 14/35/42 47/115/42 79/176/42
f 96/209/43 94/206/43 50/124/43 80/179/43
f 101/218/44 99/215/44 48/118/44 80/178/44
f 104/221/45 98/213/45 49/121/45 95/208/45
f 103/220/46 100/217/46 50/125/46 94/205/46
f 8/23/47 53/135/47 52/131/47
f 8/23/48 52/131/48 4/10/48 106/225/48 3/7/48 55/140/48 7/20/48
f 54/138/49 58/145/49 89/196/49 5/16/49 107/227/49 6/18/49 57/144/49
f 100/216/50 101/218/50 80/178/50 50/126/50
f 95/207/51 96/209/51 80/179/51 48/119/51
f 10/27/52 64/154/52 79/176/52 45/109/52
f 13/34/53 61/150/53 78/174/53 46/112/53
f 98/212/54 102/219/54 81/180/54 49/122/54
f 39/93/55 75/169/55 77/172/55 43/105/55
f 36/87/56 74/168/56 76/170/56 40/95/56
f 40/96/57 76/171/57 77/173/57 42/102/57
f 32/79/58 72/166/58 74/168/58 36/87/58
f 35/85/59 73/167/59 75/169/59 39/93/59
f 1/2/60 60/149/60 72/166/60 32/79/60
f 14/35/61 64/154/61 71/165/61 31/77/61
f 29/73/62 70/164/62 73/167/62 35/85/62
f 28/71/63 70/164/63 71/165/63 30/75/63
f 85/189/64 86/191/64 69/162/64 27/68/64
f 82/182/65 87/193/65 68/159/65 25/65/65
f 27/69/66 69/163/66 68/160/66 24/62/66
f 11/29/67 62/151/67 67/158/67 22/56/67
f 18/44/68 66/156/68 65/155/68 20/51/68
f 7/21/69 55/141/69 63/152/69 12/30/69
f 22/56/70 67/158/70 65/155/70 17/43/70
f 9/24/71 61/150/71 62/151/71 11/29/71
f 19/49/72 66/156/72 87/193/72 82/182/72
f 12/31/73 18/45/73 20/52/73 21/54/73 16/41/73
f 66/157/74 18/48/74 84/187/74 87/194/74
f 23/57/75 19/50/75 82/183/75 83/184/75
f 49/123/76 81/181/76 96/209/76 95/207/76
f 97/210/77 103/220/77 94/205/77 51/128/77
f 99/214/78 104/221/78 95/208/78 48/120/78
f 81/181/79 51/129/79 94/206/79 96/209/79
f 14/35/80 90/197/80 92/201/80 47/115/80
f 9/24/81 91/199/81 93/203/81 44/106/81
f 3/8/82 88/195/82 91/200/82 9/25/82
f 5/16/83 89/196/83 90/198/83 14/36/83
f 44/107/84 93/204/84 104/221/84 99/214/84
f 47/116/85 92/202/85 103/220/85 97/210/85
f 45/110/86 79/177/86 102/219/86 98/212/86
f 46/113/87 78/175/87 101/218/87 100/216/87
f 92/202/88 46/114/88 100/217/88 103/220/88
f 93/204/89 45/111/89 98/213/89 104/221/89
f 78/175/90 44/108/90 99/215/90 101/218/90
f 79/177/91 47/117/91 97/211/91 102/219/91
f 59/146/92 4/11/92 52/130/92 53/133/92 54/136/92 108/228/92
f 136/291/93 110/234/93 109/231/93 135/289/93
f 121/264/94 120/262/94 114/246/94 117/254/94
f 139/297/95 111/237/95 110/235/95 136/290/95
f 135/288/96 109/232/96 112/240/96 144/307/96
f 144/306/97 112/241/97 111/238/97 139/296/97
f 111/239/98 112/242/98 109/233/98 110/236/98
f 117/255/99 114/247/99 116/252/99 115/249/99 113/243/99
f 124/270/100 121/263/100 117/256/100 113/244/100
f 120/261/101 129/277/101 116/253/101 114/248/101
f 130/279/102 124/269/102 113/245/102 115/250/102
f 129/277/103 130/278/103 115/251/103 116/253/103
f 57/144/104 56/142/104 132/282/104 127/275/104
f 127/275/105 132/282/105 131/280/105 128/276/105
f 128/276/106 131/280/106 130/278/106 129/277/106
f 56/143/107 2/4/107 126/273/107 132/283/107
f 132/283/108 126/273/108 125/271/108 131/281/108
f 131/281/109 125/271/109 124/269/109 130/279/109
f 54/138/110 57/144/110 127/275/110 118/257/110
f 118/257/111 127/275/111 128/276/111 119/259/111
f 119/259/112 128/276/112 129/277/112 120/261/112
f 2/5/113 108/230/113 123/267/113 126/274/113
f 126/274/114 123/267/114 122/265/114 125/272/114
f 125/272/115 122/265/115 121/263/115 124/270/115
f 108/229/116 54/137/116 118/258/116 123/268/116
f 123/268/117 118/258/117 119/260/117 122/266/117
f 122/266/118 119/260/118 120/262/118 121/264/118
f 54/138/119 142/302/119 141/300/119 53/134/119
f 142/302/120 143/304/120 140/298/120 141/300/120
f 143/304/121 144/306/121 139/296/121 140/298/121
f 4/12/122 133/284/122 142/303/122 54/139/122
f 133/284/123 134/286/123 143/305/123 142/303/123
f 134/286/124 135/288/124 144/307/124 143/305/124
f 53/135/125 141/301/125 138/294/125 52/131/125
f 141/301/126 140/299/126 137/292/126 138/294/126
f 140/299/127 139/297/127 136/290/127 137/292/127
f 52/132/128 138/295/128 133/285/128 4/13/128
f 138/295/129 137/293/129 134/287/129 133/285/129
f 137/293/130 136/291/130 135/289/130 134/287/130
f 105/223/131 1/3/131 88/195/131 59/147/131 108/230/131 2/5/131
f 86/192/132 85/188/132 83/185/132
f 83/185/133 85/188/133 18/46/133 23/58/133
f 63/153/134 15/39/134 23/59/134 18/47/134 12/32/134
f 84/187/135 18/48/135 85/189/135
l 52 106
