# Blender 3.3.1
# www.blender.org
mtllib monstruo_3_caminar582.mtl
o monstruo_grande
v 0.379116 2.029079 0.192563
v 0.524148 1.154627 0.060588
v -0.694624 1.794624 0.091281
v -0.298245 1.195511 0.218986
v 0.650132 2.290438 -0.094700
v 0.570276 1.632903 -0.232432
v -0.772345 1.968546 -0.366492
v -0.697778 1.659921 -0.390880
v -0.321266 2.436835 0.346173
v 0.232383 2.320212 0.379414
v -0.465212 2.417500 0.436222
v -1.143378 2.039396 -0.254859
v -0.275050 2.571922 -0.020944
v 0.263702 2.446238 0.111989
v -1.013202 1.918183 -0.061637
v -0.434873 2.649177 -0.021904
v -0.824913 2.349119 0.422315
v -1.465401 1.998019 -0.021805
v -1.211422 2.048143 0.211469
v -0.963756 2.637008 0.104872
v -0.621428 2.696966 0.020761
v -0.542648 2.375722 0.410899
v -1.144601 1.940098 -0.083169
v -1.893838 0.797188 0.689190
v -1.772398 0.770215 0.742996
v -1.756679 0.586542 0.548933
v -1.830802 0.603006 0.516091
v 0.358181 2.224117 0.374760
v 0.534607 2.403261 0.154909
v 0.340837 2.344399 0.383990
v 0.393391 2.463895 0.160172
v 0.587986 1.914603 0.249206
v 0.784560 1.937065 0.148564
v 0.620158 1.973599 0.302489
v 0.754955 2.069067 0.188398
v 0.687535 1.662479 0.372391
v 0.795473 1.663194 0.336174
v 0.723955 1.662040 0.471882
v 0.832235 1.669097 0.432543
v 0.662651 1.538774 0.465094
v 0.887302 1.552495 0.386505
v 0.670348 1.514024 0.660472
v 1.008927 1.533471 0.536923
v -0.160167 2.484429 0.384263
v 0.049558 2.456738 0.387635
v -0.136939 2.567281 0.130678
v 0.065087 2.538851 0.138801
v -0.105393 2.799040 0.525368
v 0.100562 2.729743 0.499062
v -0.103403 2.903638 0.267526
v 0.101406 2.834786 0.240107
v -0.502245 1.163625 0.015809
v -0.389353 1.140566 -0.197302
v -0.035151 1.256735 -0.338406
v -0.732886 1.814032 -0.142173
v 0.546339 1.251519 -0.153517
v 0.329934 1.289163 -0.276545
v 0.029985 1.507047 -0.346060
v -0.025833 1.129755 0.187665
v 0.476520 2.103370 0.094029
v -0.298440 2.484730 0.217992
v -0.461034 2.650389 0.252126
v -0.935540 1.972203 -0.181222
v 0.225247 2.442792 0.269753
v -0.838247 2.570107 0.350994
v -1.385777 2.157496 0.221365
v -0.613074 2.638165 0.230815
v -1.846215 0.784366 0.745986
v -1.777498 0.475077 0.435850
v 0.473615 2.321838 0.304865
v 0.368831 2.450844 0.292205
v 0.661196 1.902769 0.152303
v 0.717854 2.027451 0.289994
v 0.741610 1.665157 0.352988
v 0.778038 1.665147 0.452147
v 0.767267 1.541096 0.403102
v 0.824715 1.515517 0.556508
v -0.150688 2.524643 0.255973
v 0.054924 2.499469 0.262133
v -0.135612 2.853226 0.397231
v 0.132488 2.780784 0.369560
v -1.623726 1.084037 0.683017
v -1.690604 0.911835 0.619350
v -1.835623 1.100781 0.592088
v -1.804907 0.937222 0.568706
v -1.754961 0.755481 0.525547
v -1.756180 1.076806 0.689377
v -0.076019 1.816467 0.454989
v 0.163937 2.136822 -0.264316
v 0.083466 2.527628 -0.039167
v -0.026189 2.325704 0.527327
v -0.040458 2.551806 0.132704
v -0.049713 2.467463 0.385149
v -0.000946 2.884466 0.214447
v -0.002775 2.748691 0.550764
v 0.002040 2.868057 0.404554
v 0.095513 2.697396 0.163590
v 0.089550 2.582005 0.458908
v -0.146608 2.634733 0.478222
v -0.143093 2.750765 0.179103
v -0.161801 2.694442 0.329730
v 0.107507 2.639810 0.310812
v -0.024504 2.731563 0.150363
v -0.027354 2.598810 0.488974
v 0.453238 1.682047 0.048552
v -0.594688 1.520865 0.144516
v 0.595987 1.850081 -0.219626
v 0.170074 1.085760 0.165470
v -0.200363 0.042223 0.117855
v -0.345072 0.050574 0.239904
v -0.370298 0.045381 -0.010594
v -0.235099 0.040115 -0.024911
v 0.370754 0.088579 -0.441489
v 0.297301 0.110543 -0.514396
v 0.380066 0.100059 -0.478249
v 0.348495 0.107088 -0.503686
v 0.311825 0.085578 -0.431680
v 0.095177 0.915128 -0.236486
v 0.162709 0.676780 -0.270530
v 0.228562 0.394983 -0.367156
v 0.270897 0.306013 -0.214229
v 0.235262 0.499883 -0.046877
v 0.220176 0.737382 0.098315
v 0.391546 0.327460 -0.237219
v 0.438331 0.540220 -0.081570
v 0.501103 0.841337 0.061823
v 0.350306 0.949322 -0.212588
v 0.343291 0.674281 -0.245981
v 0.336020 0.392615 -0.351245
v 0.405194 0.371046 -0.306051
v 0.460023 0.641211 -0.171726
v 0.520405 0.931390 -0.104717
v -0.174943 0.956325 0.369608
v -0.150578 0.652573 0.352656
v -0.146790 0.405394 0.349789
v -0.431842 0.393838 0.338149
v -0.441594 0.669826 0.296799
v -0.463334 0.923907 0.251438
v -0.463788 0.407715 0.068506
v -0.471445 0.679693 0.028742
v -0.478930 0.885150 -0.022252
v -0.082939 0.840899 -0.044605
v -0.128050 0.654512 -0.009664
v -0.171777 0.448413 0.034679
vn 0.0089 0.4950 -0.8688
vn 0.0230 -0.0307 -0.9993
vn 0.4559 -0.2077 -0.8655
vn -0.3318 -0.1933 0.9233
vn 0.9079 -0.0689 0.4136
vn 0.6033 0.7750 0.1882
vn 0.2052 0.8928 -0.4010
vn 0.5316 -0.2020 0.8226
vn -0.1086 0.9498 0.2936
vn -0.0520 0.4715 -0.8803
vn -0.2133 -0.4120 0.8859
vn -0.3962 -0.8891 -0.2291
vn -0.3330 -0.0139 0.9428
vn 0.2524 -0.8241 0.5072
vn 0.9168 -0.3121 0.2490
vn -0.1039 -0.6608 0.7433
vn 0.1113 0.9863 0.1214
vn -0.0657 -0.7190 0.6919
vn -0.6853 0.3370 0.6456
vn 0.9460 -0.0539 -0.3197
vn -0.8413 0.0736 -0.5355
vn 0.5490 0.7281 0.4105
vn 0.2866 0.1141 0.9512
vn -0.3648 -0.5151 0.7756
vn -0.1631 0.6599 0.7334
vn -0.8940 -0.0952 0.4379
vn -0.1413 -0.5348 -0.8331
vn 0.8808 0.4716 0.0427
vn -0.4423 -0.5991 0.6674
vn 0.7313 0.5198 -0.4417
vn 0.0227 0.4458 0.8948
vn 0.9921 0.0585 -0.1113
vn 0.0174 -0.6026 -0.7979
vn 0.0724 -0.9798 -0.1865
vn -0.1449 -0.4496 -0.8814
vn -0.8861 0.4314 0.1694
vn 0.3797 0.6444 0.6637
vn 0.9858 -0.0291 -0.1652
vn 0.3256 0.5951 0.7348
vn 0.1277 0.9897 -0.0654
vn -0.3236 0.9067 0.2707
vn 0.3764 0.9040 0.2028
vn 0.0575 0.9762 0.2092
vn -0.9691 0.1271 0.2114
vn 0.2781 -0.3409 0.8980
vn -0.2327 0.4722 -0.8502
vn -0.7498 -0.5703 -0.3355
vn -0.9202 -0.3316 0.2081
vn 0.2001 0.0832 -0.9762
vn -0.9660 0.2453 -0.0821
vn 0.0529 0.8461 0.5304
vn 0.4099 0.7476 0.5225
vn -0.3055 0.9064 0.2919
vn 0.9805 -0.1610 0.1131
vn 0.0705 0.6244 0.7779
vn -0.3937 -0.4600 -0.7959
vn -0.0687 -0.9891 -0.1299
vn -0.5678 -0.5890 -0.5751
vn 0.6221 0.4527 0.6388
vn -0.4009 -0.7113 -0.5773
vn -0.1024 0.9942 0.0343
vn 0.6802 0.5181 0.5186
vn 0.5264 0.2690 0.8066
vn -0.3647 0.2372 -0.9004
vn 0.0503 0.1695 0.9843
vn -0.7089 -0.5761 0.4069
vn -0.2880 0.5420 0.7895
vn -0.7180 0.6741 0.1735
vn -0.3859 -0.8642 -0.3228
vn 0.1366 0.4756 0.8690
vn 0.5297 0.6074 0.5920
vn 0.1678 0.3579 0.9186
vn -0.3507 0.5382 -0.7664
vn -0.8652 0.4476 0.2261
vn 0.9226 -0.3038 0.2375
vn 0.5051 0.7024 0.5015
vn 0.2996 0.3911 -0.8702
vn -0.2557 -0.2685 0.9287
vn 0.5065 0.8518 0.1337
vn 0.3262 0.9449 -0.0259
vn -0.1794 0.5708 0.8013
vn -0.5153 -0.0537 0.8553
vn 0.2368 0.7187 -0.6537
vn -0.1685 -0.5520 0.8167
vn 0.1075 0.1093 -0.9882
vn 0.9485 -0.3149 -0.0348
vn -0.9928 -0.0072 -0.1194
vn -0.0925 0.1806 -0.9792
vn 0.0324 -0.5687 0.8219
vn -0.9998 -0.0027 0.0197
vn 0.9650 -0.2448 -0.0943
vn -0.0133 -0.9961 -0.0868
vn 0.2305 -0.4031 0.8856
vn -0.9559 -0.2774 0.0965
vn -0.9576 -0.2700 0.1007
vn 0.9857 -0.0975 -0.1373
vn -0.1243 0.1710 -0.9774
vn -0.0368 -0.9990 0.0242
vn 0.0021 -0.9577 -0.2878
vn 0.2212 -0.6543 0.7232
vn 0.1624 0.4772 -0.8636
vn 0.9769 -0.1768 0.1202
vn 0.6001 0.3929 -0.6968
vn 0.4909 -0.1507 -0.8581
vn 0.5447 0.0833 -0.8345
vn 0.5754 0.2704 -0.7719
vn 0.9948 -0.0711 0.0735
vn 0.9787 -0.2051 0.0036
vn 0.9760 -0.2171 0.0195
vn 0.1553 -0.2011 -0.9672
vn 0.0993 0.1411 -0.9850
vn 0.1362 0.3467 -0.9280
vn 0.2389 -0.0866 0.9672
vn 0.2647 -0.4735 0.8401
vn 0.2502 -0.6064 0.7548
vn -0.9343 -0.2306 0.2720
vn -0.9535 -0.2361 0.1874
vn -0.9587 -0.2636 0.1064
vn -0.1270 -0.5504 -0.8252
vn -0.0992 -0.2041 -0.9739
vn -0.1075 -0.1644 -0.9805
vn 0.8972 0.3140 0.3104
vn 0.9879 -0.0363 0.1510
vn 0.9960 -0.0886 -0.0095
vn -0.9804 -0.0563 -0.1888
vn -0.9953 -0.0453 0.0859
vn -0.9934 -0.0148 0.1135
vn -0.5349 0.4132 0.7370
vn -0.2882 0.0249 0.9573
vn -0.1154 0.0699 0.9909
vn 0.4525 -0.1436 0.8801
vn 0.4423 0.3205 -0.8376
vn -0.1146 -0.4872 -0.8657
vn -0.1720 -0.8565 -0.4866
vn -0.8074 -0.0678 -0.5861
vt 0.461701 0.809397
vt 0.301930 0.729761
vt 0.094158 0.499911
vt 0.498737 0.648456
vt 0.250869 0.553264
vt 0.714874 0.752530
vt 0.627854 0.740386
vt 0.227533 0.339544
vt 0.300362 0.438253
vt 0.625828 0.633709
vt 0.338991 0.679376
vt 0.653754 0.621457
vt 0.189641 0.785401
vt 0.531284 0.815038
vt 0.232114 0.729761
vt 0.806952 0.326283
vt 0.527824 0.712310
vt 0.703640 0.331352
vt 0.725736 0.123548
vt 0.557184 0.740386
vt 0.714874 0.681901
vt 0.693091 0.138725
vt 0.558638 0.706064
vt 0.944491 0.391302
vt 0.108931 0.369345
vt 0.090202 0.443431
vt 0.952837 0.467016
vt 0.108059 0.346292
vt 0.960024 0.371234
vt 0.653754 0.712739
vt 0.761990 0.055860
vt 0.265996 0.788213
vt 0.829683 0.188590
vt 0.886815 0.394232
vt 0.909606 0.471204
vt 0.826550 0.267021
vt 0.659457 0.749480
vt 0.206417 0.267620
vt 0.238389 0.812575
vt 0.882743 0.373659
vt 0.837846 0.166681
vt 0.102618 0.289588
vt 0.957957 0.321520
vt 0.918648 0.216117
vt 0.803322 0.012950
vt 0.106348 0.638847
vt 0.232551 0.755661
vt 0.798789 0.485160
vt 0.965752 0.239402
vt 0.153968 0.222285
vt 0.894228 0.312474
vt 0.856067 0.102710
vt 0.881967 0.351902
vt 0.842627 0.144082
vt 0.107159 0.331692
vt 0.958812 0.358201
vt 0.199778 0.246429
vt 0.138792 0.619338
vt 0.232114 0.797406
vt 0.967580 0.012950
vt 0.753483 0.682459
vt 0.843831 0.469074
vt 0.256421 0.022764
vt 0.824689 0.472884
vt 0.987050 0.016155
vt 0.832147 0.505580
vt 0.295109 0.018166
vt 0.782932 0.707368
vt 0.843831 0.503254
vt 0.076417 0.467161
vt 0.958695 0.494573
vt 0.833773 0.298242
vt 0.909847 0.503107
vt 0.076958 0.454690
vt 0.951531 0.482650
vt 0.837149 0.281767
vt 0.912926 0.487172
vt 0.064432 0.532285
vt 0.298790 0.687460
vt 0.825577 0.362572
vt 0.264894 0.686125
vt 0.056614 0.518895
vt 0.959622 0.549977
vt 0.837123 0.350740
vt 0.929664 0.555276
vt 0.051257 0.577890
vt 0.291936 0.641182
vt 0.824256 0.407314
vt 0.275162 0.640522
vt 0.035793 0.577862
vt 0.964581 0.612577
vt 0.838997 0.411720
vt 0.948088 0.615681
vt 0.039898 0.592711
vt 0.301778 0.620707
vt 0.403076 0.772170
vt 0.830596 0.428615
vt 0.403076 0.737417
vt 0.267017 0.619338
vt 0.012950 0.593438
vt 0.987050 0.637067
vt 0.428919 0.781443
vt 0.856067 0.440612
vt 0.428919 0.728949
vt 0.935424 0.646785
vt 0.945356 0.412724
vt 0.357115 0.854737
vt 0.331665 0.779032
vt 0.948027 0.441601
vt 0.799629 0.752473
vt 0.327972 0.853161
vt 0.906904 0.416128
vt 0.370069 0.779032
vt 0.684668 0.778429
vt 0.909575 0.445005
vt 0.655249 0.778999
vt 0.799629 0.791035
vt 0.330193 0.729131
vt 0.557184 0.775635
vt 0.363063 0.804932
vt 0.331684 0.807874
vt 0.754247 0.751428
vt 0.586563 0.768755
vt 0.566112 0.815056
vt 0.689281 0.828405
vt 0.370405 0.729131
vt 0.754247 0.791805
vt 0.657717 0.824383
vt 0.595492 0.808176
vt 0.327830 0.637821
vt 0.590400 0.642651
vt 0.164818 0.789976
vt 0.357235 0.619338
vt 0.642851 0.190721
vt 0.562581 0.649581
vt 0.406824 0.626953
vt 0.080449 0.619338
vt 0.646201 0.239681
vt 0.727583 0.656002
vt 0.597847 0.731399
vt 0.712829 0.722239
vt 0.658284 0.323708
vt 0.527919 0.666449
vt 0.661748 0.291537
vt 0.680225 0.245582
vt 0.377645 0.696957
vt 0.285191 0.477898
vt 0.483372 0.812325
vt 0.280072 0.728266
vt 0.924330 0.393087
vt 0.921760 0.373660
vt 0.678504 0.727397
vt 0.268491 0.812575
vt 0.930826 0.465310
vt 0.923786 0.327561
vt 0.941993 0.227167
vt 0.764056 0.466512
vt 0.919524 0.351927
vt 0.977463 0.013354
vt 0.833186 0.466512
vt 0.317617 0.012950
vt 0.798789 0.722800
vt 0.839639 0.522681
vt 0.934403 0.500152
vt 0.932138 0.484309
vt 0.281656 0.689101
vt 0.944784 0.554368
vt 0.283549 0.640852
vt 0.956335 0.614129
vt 0.284323 0.620942
vt 0.399765 0.754789
vt 0.961112 0.640376
vt 0.422297 0.755187
vt 0.926130 0.414426
vt 0.350867 0.779032
vt 0.928801 0.443303
vt 0.799629 0.771754
vt 0.350773 0.728949
vt 0.557184 0.796361
vt 0.753483 0.771844
vt 0.595492 0.787450
vt 0.985581 0.067358
vt 0.238180 0.070710
vt 0.259592 0.052321
vt 0.138792 0.821791
vt 0.953366 0.057503
vt 0.765454 0.639660
vt 0.120235 0.821584
vt 0.772730 0.660154
vt 0.283154 0.037949
vt 0.784440 0.682652
vt 0.128680 0.843910
vt 0.970110 0.058056
vt 0.758353 0.637393
vt 0.180368 0.432154
vt 0.759258 0.257498
vt 0.884976 0.446549
vt 0.828099 0.241547
vt 0.971226 0.428512
vt 0.101516 0.405509
vt 0.908240 0.430567
vt 0.669958 0.778714
vt 0.946692 0.427163
vt 0.342544 0.853949
vt 0.673120 0.826722
vt 0.582140 0.817526
vt 0.570535 0.766286
vt 0.348248 0.806122
vt 0.576699 0.792002
vt 0.653753 0.802281
vt 0.776512 0.794925
vt 0.776512 0.748700
vt 0.327830 0.829868
vt 0.363063 0.830170
vt 0.327830 0.753980
vt 0.373865 0.753980
vt 0.689281 0.803194
vt 0.351093 0.753886
vt 0.776117 0.771930
vt 0.671321 0.802907
vt 0.345899 0.829874
vt 0.457498 0.727404
vt 0.165986 0.548054
vt 0.260364 0.376248
vt 0.625887 0.695531
vt 0.520555 0.743605
vt 0.734596 0.339638
vt 0.406824 0.703049
vt 0.012950 0.651015
vt 0.277407 0.507014
vt 0.206214 0.619338
vt 0.706517 0.466512
vt 0.399765 0.822801
vt 0.181517 0.620770
vt 0.619265 0.470337
vt 0.422433 0.807343
vt 0.582936 0.466512
vt 0.458892 0.202188
vt 0.422433 0.843958
vt 0.727583 0.468029
vt 0.460639 0.221880
vt 0.402692 0.843997
vt 0.717439 0.778459
vt 0.429089 0.593438
vt 0.518160 0.466685
vt 0.070962 0.817001
vt 0.726094 0.791097
vt 0.457498 0.298878
vt 0.715181 0.783741
vt 0.523936 0.466512
vt 0.458951 0.311476
vt 0.719061 0.788282
vt 0.458165 0.306435
vt 0.058766 0.817583
vt 0.726094 0.778429
vt 0.431598 0.585369
vt 0.599953 0.261833
vt 0.080449 0.668491
vt 0.542336 0.274386
vt 0.076079 0.728305
vt 0.500395 0.287212
vt 0.064936 0.773359
vt 0.389801 0.564275
vt 0.039540 0.774208
vt 0.356388 0.547019
vt 0.031995 0.737396
vt 0.319737 0.531779
vt 0.030523 0.696843
vt 0.505723 0.512116
vt 0.384015 0.580847
vt 0.506522 0.550736
vt 0.346302 0.574833
vt 0.507607 0.604105
vt 0.294291 0.566034
vt 0.610540 0.298468
vt 0.545535 0.300686
vt 0.502363 0.302883
vt 0.504402 0.313331
vt 0.517745 0.511765
vt 0.548610 0.318269
vt 0.527842 0.556627
vt 0.609940 0.323717
vt 0.531284 0.618364
vt 0.660591 0.582499
vt 0.204501 0.743892
vt 0.668589 0.550878
vt 0.206214 0.710848
vt 0.668004 0.517120
vt 0.204545 0.678125
vt 0.623877 0.525891
vt 0.164692 0.675333
vt 0.610236 0.563455
vt 0.167167 0.712219
vt 0.605277 0.597358
vt 0.166352 0.745757
vt 0.511839 0.183186
vt 0.584607 0.521652
vt 0.552303 0.182624
vt 0.569857 0.561129
vt 0.598009 0.178631
vt 0.565182 0.606784
vt 0.592158 0.236754
vt 0.721184 0.600612
vt 0.550092 0.232946
vt 0.722606 0.558204
vt 0.518921 0.225772
vt 0.713819 0.525134
s 0
usemtl Material
f 89/196/1 7/19/1 13/33/1 90/198/1
f 8/22/2 7/19/2 89/196/2 58/145/2 54/138/2 53/134/2
f 6/18/3 56/142/3 57/144/3
f 3/8/4 106/224/4 4/9/4 59/147/4 88/195/4
f 6/17/5 107/226/5 5/14/5 60/148/5 1/1/5 105/222/5 2/4/5 56/143/5
f 61/150/6 13/34/6 16/40/6 62/151/6
f 5/16/7 14/36/7 31/76/7 29/72/7
f 88/195/8 1/3/8 10/26/8 91/200/8
f 67/158/9 21/53/9 20/51/9 65/155/9
f 13/33/10 7/19/10 12/31/10 16/41/10
f 3/8/11 9/25/11 11/28/11 15/38/11
f 55/141/12 3/6/12 15/37/12 63/152/12
f 66/156/13 19/49/13 17/43/13 65/155/13
f 23/57/14 22/55/14 17/42/14 19/50/14
f 83/184/15 82/183/15 25/63/15 26/67/15
f 15/38/16 11/28/16 22/55/16 23/57/16
f 62/151/17 16/40/17 21/53/17 67/158/17
f 69/163/18 26/66/18 25/64/18 68/160/18
f 87/193/19 84/186/19 24/60/19 68/159/19
f 86/190/20 83/184/20 26/67/20 69/161/20
f 84/187/21 85/189/21 27/68/21 24/61/21
f 70/164/22 29/73/22 31/77/22 71/165/22
f 70/164/23 28/71/23 34/83/23 73/167/23
f 10/26/24 1/3/24 28/70/24 30/74/24
f 64/154/25 10/27/25 30/75/25 71/165/25
f 34/82/26 32/78/26 36/86/26 38/90/26
f 60/149/27 5/15/27 33/81/27 72/166/27
f 5/16/28 29/72/28 35/84/28 33/80/28
f 28/70/29 1/3/29 32/78/29 34/82/29
f 37/88/30 39/92/30 43/103/30 41/97/30
f 73/167/31 34/83/31 38/91/31 75/169/31
f 33/80/32 35/84/32 39/92/32 37/88/32
f 72/166/33 33/81/33 37/89/33 74/168/33
f 76/171/34 41/98/34 43/104/34 77/173/34
f 74/168/35 37/89/35 41/99/35 76/170/35
f 38/90/36 36/86/36 40/94/36 42/100/36
f 75/169/37 38/91/37 42/101/37 77/172/37
f 102/219/38 97/211/38 51/127/38 81/180/38
f 91/199/39 10/27/39 45/109/39 93/203/39
f 90/197/40 13/34/40 46/112/40 92/201/40
f 61/150/41 9/24/41 44/106/41 78/174/41
f 64/154/42 14/35/42 47/115/42 79/176/42
f 96/209/43 94/206/43 50/124/43 80/179/43
f 101/218/44 99/215/44 48/118/44 80/178/44
f 104/221/45 98/213/45 49/121/45 95/208/45
f 103/220/46 100/217/46 50/125/46 94/205/46
f 8/23/47 53/135/47 52/131/47
f 8/23/48 52/131/48 4/10/48 106/225/48 3/7/48 55/140/48 7/20/48
f 54/138/49 58/145/49 89/196/49 5/16/49 107/227/49 6/18/49 57/144/49
f 100/216/50 101/218/50 80/178/50 50/126/50
f 95/207/51 96/209/51 80/179/51 48/119/51
f 10/27/52 64/154/52 79/176/52 45/109/52
f 13/34/53 61/150/53 78/174/53 46/112/53
f 98/212/54 102/219/54 81/180/54 49/122/54
f 39/93/55 75/169/55 77/172/55 43/105/55
f 36/87/56 74/168/56 76/170/56 40/95/56
f 40/96/57 76/171/57 77/173/57 42/102/57
f 32/79/58 72/166/58 74/168/58 36/87/58
f 35/85/59 73/167/59 75/169/59 39/93/59
f 1/2/60 60/149/60 72/166/60 32/79/60
f 14/35/61 64/154/61 71/165/61 31/77/61
f 29/73/62 70/164/62 73/167/62 35/85/62
f 28/71/63 70/164/63 71/165/63 30/75/63
f 85/189/64 86/191/64 69/162/64 27/68/64
f 82/182/65 87/193/65 68/159/65 25/65/65
f 27/69/66 69/163/66 68/160/66 24/62/66
f 11/29/67 62/151/67 67/158/67 22/56/67
f 18/44/68 66/156/68 65/155/68 20/51/68
f 7/21/69 55/141/69 63/152/69 12/30/69
f 22/56/70 67/158/70 65/155/70 17/43/70
f 9/24/71 61/150/71 62/151/71 11/29/71
f 19/49/72 66/156/72 87/193/72 82/182/72
f 12/31/73 18/45/73 20/52/73 21/54/73 16/41/73
f 66/157/74 18/48/74 84/187/74 87/194/74
f 23/57/75 19/50/75 82/183/75 83/184/75
f 49/123/76 81/181/76 96/209/76 95/207/76
f 97/210/77 103/220/77 94/205/77 51/128/77
f 99/214/78 104/221/78 95/208/78 48/120/78
f 81/181/79 51/129/79 94/206/79 96/209/79
f 14/35/80 90/197/80 92/201/80 47/115/80
f 9/24/81 91/199/81 93/203/81 44/106/81
f 3/8/82 88/195/82 91/200/82 9/25/82
f 5/16/83 89/196/83 90/198/83 14/36/83
f 44/107/84 93/204/84 104/221/84 99/214/84
f 47/116/85 92/202/85 103/220/85 97/210/85
f 45/110/86 79/177/86 102/219/86 98/212/86
f 46/113/87 78/175/87 101/218/87 100/216/87
f 92/202/88 46/114/88 100/217/88 103/220/88
f 93/204/89 45/111/89 98/213/89 104/221/89
f 78/175/90 44/108/90 99/215/90 101/218/90
f 79/177/91 47/117/91 97/211/91 102/219/91
f 59/146/92 4/11/92 52/130/92 53/133/92 54/136/92 108/228/92
f 136/291/93 110/234/93 109/231/93 135/289/93
f 121/264/94 120/262/94 114/246/94 117/254/94
f 139/297/95 111/237/95 110/235/95 136/290/95
f 135/288/96 109/232/96 112/240/96 144/307/96
f 144/306/97 112/241/97 111/238/97 139/296/97
f 111/239/98 112/242/98 109/233/98 110/236/98
f 117/255/99 114/247/99 116/252/99 115/249/99 113/243/99
f 124/270/100 121/263/100 117/256/100 113/244/100
f 120/261/101 129/277/101 116/253/101 114/248/101
f 130/279/102 124/269/102 113/245/102 115/250/102
f 129/277/103 130/278/103 115/251/103 116/253/103
f 57/144/104 56/142/104 132/282/104 127/275/104
f 127/275/105 132/282/105 131/280/105 128/276/105
f 128/276/106 131/280/106 130/278/106 129/277/106
f 56/143/107 2/4/107 126/273/107 132/283/107
f 132/283/108 126/273/108 125/271/108 131/281/108
f 131/281/109 125/271/109 124/269/109 130/279/109
f 54/138/110 57/144/110 127/275/110 118/257/110
f 118/257/111 127/275/111 128/276/111 119/259/111
f 119/259/112 128/276/112 129/277/112 120/261/112
f 2/5/113 108/230/113 123/267/113 126/274/113
f 126/274/114 123/267/114 122/265/114 125/272/114
f 125/272/115 122/265/115 121/263/115 124/270/115
f 108/229/116 54/137/116 118/258/116 123/268/116
f 123/268/117 118/258/117 119/260/117 122/266/117
f 122/266/118 119/260/118 120/262/118 121/264/118
f 54/138/119 142/302/119 141/300/119 53/134/119
f 142/302/120 143/304/120 140/298/120 141/300/120
f 143/304/121 144/306/121 139/296/121 140/298/121
f 4/12/122 133/284/122 142/303/122 54/139/122
f 133/284/123 134/286/123 143/305/123 142/303/123
f 134/286/124 135/288/124 144/307/124 143/305/124
f 53/135/125 141/301/125 138/294/125 52/131/125
f 141/301/126 140/299/126 137/292/126 138/294/126
f 140/299/127 139/297/127 136/290/127 137/292/127
f 52/132/128 138/295/128 133/285/128 4/13/128
f 138/295/129 137/293/129 134/287/129 133/285/129
f 137/293/130 136/291/130 135/289/130 134/287/130
f 105/223/131 1/3/131 88/195/131 59/147/131 108/230/131 2/5/131
f 86/192/132 85/188/132 83/185/132
f 83/185/133 85/188/133 18/46/133 23/58/133
f 63/153/134 15/39/134 23/59/134 18/47/134 12/32/134
f 84/187/135 18/48/135 85/189/135
l 52 106
