# Blender 3.3.1
# www.blender.org
mtllib monstruo_3_grande_caminar638.mtl
o monstruo_grande
v 0.409598 2.003589 0.265650
v 0.511288 1.174594 0.132937
v -0.693175 1.768032 0.186274
v -0.312698 1.100489 0.187231
v 0.597061 2.289019 -0.066221
v 0.561143 1.583787 -0.226344
v -0.812859 1.991892 -0.227956
v -0.716464 1.726373 -0.292453
v -0.300969 2.383653 0.484482
v 0.255918 2.279552 0.459332
v -0.432837 2.349904 0.581707
v -1.174421 2.020570 -0.069360
v -0.291302 2.558941 0.130494
v 0.262304 2.426082 0.200121
v -1.019839 1.889998 0.082429
v -0.454913 2.630679 0.154782
v -0.777844 2.259313 0.597222
v -1.459091 1.930693 0.204127
v -1.178772 1.971421 0.402724
v -0.968203 2.577455 0.341270
v -0.640684 2.666900 0.226091
v -0.504825 2.305208 0.555825
v -1.149793 1.901914 0.087926
v -1.753449 0.675958 0.894102
v -1.627597 0.656704 0.940587
v -1.610583 0.476887 0.743052
v -1.687400 0.488640 0.714680
v 0.405022 2.196424 0.447881
v 0.526249 2.391923 0.201054
v 0.368557 2.308440 0.459060
v 0.393794 2.445536 0.236174
v 0.660650 1.885649 0.280142
v 0.793886 1.978159 0.117377
v 0.676571 1.964464 0.329917
v 0.771230 2.080544 0.187103
v 0.851871 1.663229 0.257157
v 0.935044 1.696732 0.185577
v 0.927956 1.635580 0.325171
v 1.007904 1.677433 0.252952
v 0.872850 1.512953 0.294755
v 1.041803 1.598093 0.147774
v 0.965859 1.423927 0.443979
v 1.215661 1.550176 0.216078
v -0.137351 2.435282 0.508668
v 0.072783 2.408041 0.494987
v -0.131983 2.540777 0.263428
v 0.071234 2.511711 0.252979
v -0.081765 2.745307 0.660197
v 0.123704 2.680033 0.622335
v -0.091058 2.862857 0.408418
v 0.113477 2.798024 0.370003
v -0.507120 1.162335 -0.034172
v -0.380910 1.219243 -0.234470
v -0.040310 1.278004 -0.334645
v -0.748543 1.815225 -0.030121
v 0.554427 1.162675 -0.102897
v 0.345822 1.159888 -0.245724
v 0.012443 1.525567 -0.323327
v -0.033289 1.144197 0.184057
v 0.475441 2.087882 0.155054
v -0.291027 2.445542 0.360486
v -0.453099 2.601346 0.426834
v -0.957369 1.965465 -0.031811
v 0.237716 2.409708 0.360589
v -0.808606 2.487141 0.561629
v -1.354755 2.072859 0.447238
v -0.605548 2.585897 0.418948
v -1.701910 0.665738 0.947930
v -1.630231 0.365631 0.629555
v 0.499094 2.305498 0.357790
v 0.383021 2.421592 0.371296
v 0.689866 1.911304 0.156240
v 0.761259 2.033904 0.293634
v 0.892134 1.682762 0.220914
v 0.967858 1.655746 0.288768
v 0.939702 1.556845 0.203118
v 1.059084 1.491252 0.297636
v -0.135728 2.487111 0.384639
v 0.070015 2.461223 0.373249
v -0.117635 2.805509 0.536271
v 0.150099 2.737804 0.494653
v -1.504128 0.980655 0.877369
v -1.562735 0.805064 0.814820
v -1.721336 0.984216 0.799418
v -1.681192 0.823187 0.771067
v -1.621619 0.645819 0.722295
v -1.635213 0.964310 0.891023
v -0.051437 1.761265 0.512701
v 0.120641 2.142385 -0.192743
v 0.073105 2.518353 0.073178
v 0.008734 2.266437 0.625934
v -0.033802 2.525323 0.256282
v -0.027744 2.421108 0.500821
v 0.009583 2.847816 0.351035
v 0.022313 2.695039 0.678949
v 0.020034 2.821688 0.538935
v 0.105417 2.665313 0.287007
v 0.113536 2.533226 0.575281
v -0.122623 2.582788 0.606922
v -0.132812 2.715364 0.316505
v -0.144348 2.650137 0.463000
v 0.124697 2.599251 0.430046
v -0.015165 2.699092 0.281380
v -0.002914 2.547966 0.610737
v 0.462796 1.685960 -0.016860
v -0.587204 1.485362 0.207875
v 0.575977 1.799901 -0.221806
v 0.152879 1.176883 0.207833
v -0.254610 0.079624 -0.348699
v -0.404485 0.061448 -0.234363
v -0.418877 0.105697 -0.480793
v -0.283118 0.105230 -0.489770
v 0.269760 0.016774 0.215992
v 0.198163 0.002554 0.139429
v 0.280118 0.010994 0.178143
v 0.249233 0.005343 0.151552
v 0.210411 0.017209 0.224879
v 0.079689 0.850557 -0.057624
v 0.113706 0.616982 0.058828
v 0.142683 0.322212 0.128896
v 0.168139 0.323069 0.308949
v 0.153551 0.578310 0.347693
v 0.165834 0.856811 0.347017
v 0.291226 0.317363 0.289932
v 0.361520 0.574544 0.316874
v 0.458335 0.905097 0.289971
v 0.334797 0.864745 -0.014289
v 0.291381 0.610853 0.098471
v 0.248466 0.318044 0.153911
v 0.312704 0.316768 0.210168
v 0.400203 0.610940 0.190022
v 0.495998 0.894596 0.103701
v -0.216252 0.807763 0.211775
v -0.200762 0.539208 0.071781
v -0.208098 0.318065 -0.029754
v -0.492817 0.329452 -0.053367
v -0.487199 0.595562 0.019086
v -0.495757 0.847304 0.075697
v -0.510694 0.446801 -0.295564
v -0.502569 0.713321 -0.224140
v -0.491819 0.927744 -0.189500
v -0.098257 0.866317 -0.205350
v -0.159203 0.684052 -0.259208
v -0.215692 0.479918 -0.302472
vn -0.0624 0.5726 -0.8175
vn -0.0409 0.1055 -0.9936
vn 0.5502 -0.2430 -0.7989
vn -0.2699 -0.2984 0.9155
vn 0.9361 -0.0548 0.3475
vn 0.5989 0.7709 0.2167
vn 0.1194 0.9122 -0.3919
vn 0.5535 -0.2463 0.7956
vn -0.1120 0.8982 0.4251
vn -0.1690 0.5745 -0.8008
vn -0.1129 -0.5234 0.8446
vn -0.3754 -0.8663 -0.3295
vn -0.2020 -0.1531 0.9673
vn 0.3494 -0.8677 0.3537
vn 0.9485 -0.2517 0.1923
vn 0.0650 -0.7842 0.6171
vn 0.1012 0.9698 0.2221
vn 0.0226 -0.7301 0.6830
vn -0.6673 0.2810 0.6898
vn 0.9277 0.0148 -0.3730
vn -0.8739 0.0232 -0.4855
vn 0.5737 0.7387 0.3539
vn 0.4543 0.1649 0.8755
vn -0.2409 -0.5429 0.8045
vn -0.1271 0.6022 0.7882
vn -0.5702 -0.4909 0.6587
vn -0.2793 -0.5373 -0.7958
vn 0.8243 0.5554 -0.1097
vn -0.2684 -0.6191 0.7380
vn 0.4529 0.7758 -0.4393
vn 0.3655 0.2245 0.9033
vn 0.7964 0.3419 -0.4988
vn -0.2349 -0.3902 -0.8903
vn 0.0076 -0.8138 -0.5811
vn -0.4916 -0.1244 -0.8619
vn -0.7331 0.1658 0.6596
vn 0.6162 0.4345 0.6569
vn 0.9781 -0.0076 -0.2078
vn 0.3763 0.5316 0.7589
vn 0.1223 0.9924 0.0149
vn -0.3121 0.8690 0.3839
vn 0.3850 0.8892 0.2472
vn 0.0546 0.9647 0.2578
vn -0.9613 0.1026 0.2556
vn 0.3158 -0.3792 0.8698
vn -0.2736 0.5072 -0.8173
vn -0.6608 -0.5011 -0.5588
vn -0.9071 -0.3894 0.1597
vn 0.1489 0.1237 -0.9811
vn -0.9714 0.2357 -0.0296
vn 0.0649 0.8189 0.5703
vn 0.4402 0.7105 0.5490
vn -0.2702 0.8705 0.4114
vn 0.9864 -0.1495 0.0679
vn 0.3881 0.3146 0.8662
vn -0.6910 -0.2208 -0.6883
vn -0.0948 -0.8759 -0.4731
vn -0.6502 -0.6093 -0.4540
vn 0.7450 0.4604 0.4827
vn -0.4436 -0.7288 -0.5215
vn -0.1315 0.9842 0.1185
vn 0.7196 0.5736 0.3914
vn 0.5868 0.3115 0.7474
vn -0.4306 0.2226 -0.8747
vn 0.0947 0.1606 0.9825
vn -0.6440 -0.6281 0.4368
vn -0.2446 0.4228 0.8726
vn -0.7121 0.6162 0.3366
vn -0.3712 -0.8439 -0.3872
vn 0.2366 0.3664 0.8999
vn 0.5683 0.5574 0.6053
vn 0.2617 0.3225 0.9097
vn -0.4685 0.6110 -0.6381
vn -0.8525 0.3971 0.3400
vn 0.9550 -0.2773 0.1051
vn 0.5169 0.6825 0.5168
vn 0.2573 0.4374 -0.8617
vn -0.2137 -0.3170 0.9240
vn 0.5027 0.8497 0.1590
vn 0.3241 0.9453 0.0383
vn -0.1193 0.4947 0.8609
vn -0.4516 -0.1411 0.8810
vn 0.1721 0.7681 -0.6167
vn -0.1121 -0.5903 0.7993
vn 0.0459 0.1704 -0.9843
vn 0.9510 -0.2924 -0.1007
vn -0.9982 -0.0049 -0.0592
vn -0.1555 0.2239 -0.9621
vn 0.0713 -0.6126 0.7872
vn -0.9976 -0.0183 0.0667
vn 0.9561 -0.2381 -0.1710
vn 0.1158 -0.9577 -0.2634
vn 0.1588 -0.6869 0.7092
vn -0.9743 -0.1697 0.1483
vn -0.9627 -0.2694 -0.0255
vn 0.9890 -0.0819 -0.1234
vn -0.0674 0.4588 -0.8860
vn -0.0149 -0.9843 -0.1758
vn 0.0198 -0.9857 0.1671
vn 0.1385 -0.2453 0.9595
vn 0.2305 0.0079 -0.9731
vn 0.9551 -0.1316 0.2656
vn 0.6565 0.0082 -0.7542
vn 0.5076 -0.5671 -0.6487
vn 0.5870 -0.4105 -0.6978
vn 0.6303 -0.2353 -0.7399
vn 0.9788 -0.0734 0.1913
vn 0.9435 -0.2574 0.2088
vn 0.9359 -0.2706 0.2256
vn 0.0776 -0.5659 -0.8208
vn 0.1783 -0.4215 -0.8891
vn 0.2103 -0.2090 -0.9550
vn 0.1491 0.4358 0.8876
vn 0.1717 0.0138 0.9851
vn 0.1434 -0.1412 0.9795
vn -0.9594 -0.0139 0.2816
vn -0.9839 -0.0009 0.1787
vn -0.9887 -0.0708 0.1320
vn -0.1536 -0.2028 -0.9671
vn -0.0397 0.2244 -0.9737
vn -0.0651 0.2447 -0.9674
vn 0.9016 0.1388 0.4097
vn 0.9725 -0.1676 0.1618
vn 0.9896 -0.1428 -0.0169
vn -0.9656 0.0969 -0.2414
vn -0.9997 0.0003 0.0226
vn -0.9974 0.0064 0.0714
vn -0.5906 0.0730 0.8037
vn -0.3491 -0.3453 0.8711
vn -0.1632 -0.3279 0.9305
vn 0.5233 -0.1900 0.8307
vn 0.3712 0.3600 -0.8559
vn -0.1969 -0.4535 -0.8692
vn -0.1954 -0.7978 -0.5704
vn -0.8317 -0.1116 -0.5438
vt 0.882279 0.260085
vt 0.436089 0.649131
vt 0.117664 0.305524
vt 0.860974 0.338762
vt 0.079561 0.383885
vt 0.278417 0.728674
vt 0.111517 0.716819
vt 0.301243 0.337859
vt 0.232943 0.387386
vt 0.111517 0.662267
vt 0.671871 0.687525
vt 0.175114 0.511099
vt 0.930991 0.712692
vt 0.796001 0.259488
vt 0.522181 0.649131
vt 0.719621 0.316178
vt 0.801110 0.310020
vt 0.698705 0.366293
vt 0.510656 0.337024
vt 0.023033 0.717149
vt 0.367094 0.730187
vt 0.507246 0.358198
vt 0.018976 0.695717
vt 0.103380 0.570561
vt 0.268725 0.266033
vt 0.143950 0.273348
vt 0.098384 0.631539
vt 0.301351 0.259488
vt 0.128079 0.559933
vt 0.480438 0.333338
vt 0.348619 0.714075
vt 0.604958 0.268707
vt 0.031105 0.562973
vt 0.043818 0.625810
vt 0.721993 0.282954
vt 0.329365 0.336360
vt 0.302724 0.713315
vt 0.030374 0.549675
vt 0.582817 0.260846
vt 0.875347 0.642471
vt 0.380514 0.272320
vt 0.124895 0.517524
vt 0.813390 0.578569
vt 0.436089 0.332372
vt 0.956124 0.588845
vt 0.367094 0.692599
vt 0.367094 0.522797
vt 0.871643 0.594841
vt 0.398138 0.324445
vt 0.043891 0.509019
vt 0.796001 0.641153
vt 0.491075 0.268473
vt 0.032114 0.534706
vt 0.552485 0.259488
vt 0.331566 0.259909
vt 0.129819 0.544964
vt 0.339759 0.337186
vt 0.913298 0.588845
vt 0.317584 0.707220
vt 0.845734 0.463378
vt 0.311567 0.646434
vt 0.944558 0.353645
vt 0.398138 0.462439
vt 0.920230 0.354337
vt 0.870057 0.463781
vt 0.929709 0.374247
vt 0.357807 0.478584
vt 0.347994 0.663056
vt 0.944558 0.373825
vt 0.097076 0.285727
vt 0.229765 0.651022
vt 0.758050 0.297859
vt 0.168317 0.651042
vt 0.119329 0.272208
vt 0.094178 0.643292
vt 0.222768 0.636959
vt 0.746872 0.283208
vt 0.174541 0.636975
vt 0.045175 0.638147
vt 0.080672 0.327471
vt 0.442544 0.673801
vt 0.734592 0.339187
vt 0.484453 0.673801
vt 0.070725 0.319456
vt 0.218298 0.685110
vt 0.751374 0.331694
vt 0.180611 0.684911
vt 0.062412 0.356092
vt 0.455575 0.702696
vt 0.724658 0.367821
vt 0.476314 0.702696
vt 0.043357 0.357400
vt 0.210236 0.723455
vt 0.742364 0.370210
vt 0.189444 0.723462
vt 0.050281 0.367705
vt 0.444942 0.715336
vt 0.810526 0.722486
vt 0.728448 0.380153
vt 0.853695 0.722486
vt 0.487920 0.715336
vt 0.018975 0.371756
vt 0.232852 0.738567
vt 0.796001 0.739289
vt 0.758050 0.386241
vt 0.861207 0.739289
vt 0.167770 0.738589
vt 0.100634 0.583041
vt 0.712300 0.698974
vt 0.802197 0.701507
vt 0.098640 0.600731
vt 0.972705 0.287497
vt 0.747907 0.696578
vt 0.052045 0.577939
vt 0.849895 0.701507
vt 0.710445 0.675017
vt 0.050052 0.595630
vt 0.746553 0.677603
vt 0.924885 0.287497
vt 0.797725 0.671259
vt 0.981025 0.313792
vt 0.715147 0.730011
vt 0.752543 0.724602
vt 0.973919 0.259495
vt 0.967002 0.332143
vt 0.934252 0.306472
vt 0.715328 0.644023
vt 0.847669 0.671259
vt 0.923848 0.259495
vt 0.753088 0.649631
vt 0.920230 0.324823
vt 0.068284 0.665533
vt 0.630362 0.705721
vt 0.712055 0.621316
vt 0.966165 0.712391
vt 0.519769 0.388732
vt 0.031375 0.663704
vt 0.592215 0.695479
vt 0.581836 0.620019
vt 0.750017 0.621843
vt 0.569690 0.667298
vt 0.581066 0.387596
vt 0.531739 0.516092
vt 0.642835 0.625048
vt 0.273616 0.509019
vt 0.070982 0.710642
vt 0.316851 0.732164
vt 0.684917 0.393810
vt 0.816625 0.338063
vt 0.644803 0.392946
vt 0.602800 0.367236
vt 0.671871 0.661666
vt 0.181146 0.386242
vt 0.855113 0.259897
vt 0.463196 0.649131
vt 0.077903 0.567886
vt 0.078993 0.554271
vt 0.322237 0.720993
vt 0.070972 0.628379
vt 0.834014 0.651825
vt 0.084160 0.512738
vt 0.838315 0.596273
vt 0.320679 0.509019
vt 0.080733 0.539302
vt 0.857365 0.464048
vt 0.931678 0.351118
vt 0.335174 0.488977
vt 0.367094 0.673623
vt 0.939667 0.384854
vt 0.199177 0.651021
vt 0.069465 0.641494
vt 0.198664 0.632807
vt 0.464209 0.672968
vt 0.199604 0.684998
vt 0.465945 0.702696
vt 0.199840 0.723459
vt 0.466714 0.715004
vt 0.832520 0.720483
vt 0.200177 0.738589
vt 0.829423 0.735282
vt 0.076340 0.580490
vt 0.826046 0.701507
vt 0.074346 0.598181
vt 0.948795 0.287497
vt 0.823088 0.670800
vt 0.959731 0.307426
vt 0.948976 0.259488
vt 0.941524 0.331189
vt 0.875347 0.491894
vt 0.391834 0.432095
vt 0.377694 0.448634
vt 0.915590 0.478791
vt 0.834644 0.488373
vt 0.326937 0.619279
vt 0.938593 0.478810
vt 0.335216 0.632947
vt 0.358601 0.463790
vt 0.348787 0.648138
vt 0.927106 0.463378
vt 0.854274 0.489560
vt 0.315804 0.619182
vt 0.212520 0.321385
vt 0.644070 0.318501
vt 0.018976 0.592450
vt 0.663817 0.276029
vt 0.129819 0.597828
vt 0.224108 0.269832
vt 0.051049 0.586785
vt 0.728499 0.676310
vt 0.099637 0.591886
vt 0.730103 0.697776
vt 0.734390 0.646904
vt 0.920230 0.314550
vt 0.981025 0.324065
vt 0.732426 0.727384
vt 0.950683 0.319044
vt 0.753088 0.663662
vt 0.920230 0.273492
vt 0.977552 0.273492
vt 0.752543 0.710647
vt 0.709822 0.714522
vt 0.796001 0.686127
vt 0.853178 0.686127
vt 0.709822 0.659561
vt 0.824792 0.685890
vt 0.948939 0.273488
vt 0.731549 0.661651
vt 0.730449 0.712624
vt 0.878850 0.297575
vt 0.096711 0.342677
vt 0.285581 0.357771
vt 0.108549 0.696221
vt 0.804979 0.293594
vt 0.708839 0.350023
vt 0.668288 0.644023
vt 0.436089 0.526409
vt 0.145034 0.385321
vt 0.919159 0.607821
vt 0.247387 0.613831
vt 0.970304 0.416607
vt 0.947808 0.608020
vt 0.704660 0.516092
vt 0.970304 0.403829
vt 0.750017 0.516884
vt 0.618892 0.516092
vt 0.920230 0.404231
vt 0.273616 0.612878
vt 0.642836 0.516847
vt 0.938584 0.415207
vt 0.924281 0.443436
vt 0.075400 0.489812
vt 0.855524 0.444402
vt 0.531739 0.629156
vt 0.934913 0.435583
vt 0.576828 0.496673
vt 0.931440 0.443424
vt 0.848383 0.444289
vt 0.592622 0.497116
vt 0.934913 0.440184
vt 0.586164 0.496977
vt 0.517161 0.630156
vt 0.920230 0.438606
vt 0.085942 0.490043
vt 0.585376 0.420489
vt 0.510472 0.551446
vt 0.582586 0.444044
vt 0.504260 0.576063
vt 0.581388 0.469636
vt 0.508131 0.602400
vt 0.103684 0.463024
vt 0.477645 0.604263
vt 0.118194 0.440373
vt 0.454885 0.581958
vt 0.129418 0.415411
vt 0.438452 0.557360
vt 0.876897 0.417052
vt 0.081901 0.462161
vt 0.882279 0.393921
vt 0.081653 0.438865
vt 0.880271 0.363315
vt 0.079604 0.408162
vt 0.633117 0.418943
vt 0.615530 0.444447
vt 0.600997 0.469910
vt 0.614559 0.469949
vt 0.862035 0.416811
vt 0.638313 0.444473
vt 0.857648 0.390640
vt 0.666106 0.417503
vt 0.844696 0.362700
vt 0.167770 0.536691
vt 0.914144 0.688660
vt 0.182151 0.561697
vt 0.913298 0.663084
vt 0.189855 0.582503
vt 0.915415 0.641729
vt 0.680787 0.549268
vt 0.966165 0.641681
vt 0.684678 0.573659
vt 0.963812 0.665813
vt 0.684995 0.596421
vt 0.964308 0.688427
vt 0.584794 0.548886
vt 0.729850 0.550060
vt 0.578610 0.572959
vt 0.734888 0.574452
vt 0.569690 0.595426
vt 0.736445 0.597214
vt 0.642060 0.590920
vt 0.247172 0.543053
vt 0.641052 0.570535
vt 0.248998 0.562413
vt 0.635978 0.552556
vt 0.245738 0.579271
s 0
usemtl Material
f 89/203/1 7/19/1 13/32/1 90/205/1
f 8/22/2 7/19/2 89/203/2 58/151/2 54/142/2 53/136/2
f 6/18/3 56/148/3 57/150/3
f 3/8/4 106/231/4 4/9/4 59/153/4 88/202/4
f 6/17/5 107/233/5 5/14/5 60/154/5 1/1/5 105/229/5 2/4/5 56/149/5
f 61/156/6 13/33/6 16/38/6 62/157/6
f 5/16/7 14/35/7 31/77/7 29/72/7
f 88/202/8 1/3/8 10/26/8 91/207/8
f 67/164/9 21/53/9 20/50/9 65/161/9
f 13/32/10 7/19/10 12/30/10 16/39/10
f 3/8/11 9/25/11 11/28/11 15/36/11
f 55/147/12 3/6/12 15/37/12 63/158/12
f 66/162/13 19/48/13 17/40/13 65/160/13
f 23/57/14 22/55/14 17/41/14 19/49/14
f 83/191/15 82/190/15 25/63/15 26/67/15
f 15/36/16 11/28/16 22/55/16 23/57/16
f 62/157/17 16/38/17 21/53/17 67/164/17
f 69/169/18 26/66/18 25/64/18 68/166/18
f 87/200/19 84/193/19 24/60/19 68/165/19
f 86/197/20 83/191/20 26/67/20 69/167/20
f 84/194/21 85/196/21 27/68/21 24/61/21
f 70/170/22 29/73/22 31/78/22 71/172/22
f 70/170/23 28/71/23 34/85/23 73/174/23
f 10/26/24 1/3/24 28/70/24 30/74/24
f 64/159/25 10/27/25 30/75/25 71/171/25
f 34/84/26 32/80/26 36/88/26 38/92/26
f 60/155/27 5/15/27 33/83/27 72/173/27
f 5/16/28 29/72/28 35/86/28 33/82/28
f 28/70/29 1/3/29 32/80/29 34/84/29
f 37/90/30 39/94/30 43/105/30 41/99/30
f 73/174/31 34/85/31 38/93/31 75/176/31
f 33/82/32 35/86/32 39/94/32 37/90/32
f 72/173/33 33/83/33 37/91/33 74/175/33
f 76/178/34 41/100/34 43/106/34 77/180/34
f 74/175/35 37/91/35 41/101/35 76/177/35
f 38/92/36 36/88/36 40/96/36 42/102/36
f 75/176/37 38/93/37 42/103/37 77/179/37
f 102/226/38 97/218/38 51/129/38 81/187/38
f 91/206/39 10/27/39 45/111/39 93/210/39
f 90/204/40 13/33/40 46/114/40 92/208/40
f 61/156/41 9/24/41 44/108/41 78/181/41
f 64/159/42 14/34/42 47/117/42 79/183/42
f 96/216/43 94/213/43 50/126/43 80/186/43
f 101/225/44 99/222/44 48/120/44 80/185/44
f 104/228/45 98/220/45 49/123/45 95/215/45
f 103/227/46 100/224/46 50/127/46 94/212/46
f 8/23/47 53/137/47 52/132/47
f 8/23/48 52/132/48 4/10/48 106/232/48 3/7/48 55/146/48 7/20/48
f 54/142/49 58/151/49 89/203/49 5/16/49 107/234/49 6/18/49 57/150/49
f 100/223/50 101/225/50 80/185/50 50/128/50
f 95/214/51 96/216/51 80/186/51 48/121/51
f 10/27/52 64/159/52 79/183/52 45/111/52
f 13/33/53 61/156/53 78/181/53 46/114/53
f 98/219/54 102/226/54 81/187/54 49/124/54
f 39/95/55 75/176/55 77/179/55 43/107/55
f 36/89/56 74/175/56 76/177/56 40/97/56
f 40/98/57 76/178/57 77/180/57 42/104/57
f 32/81/58 72/173/58 74/175/58 36/89/58
f 35/87/59 73/174/59 75/176/59 39/95/59
f 1/2/60 60/155/60 72/173/60 32/81/60
f 14/34/61 64/159/61 71/171/61 31/79/61
f 29/73/62 70/170/62 73/174/62 35/87/62
f 28/71/63 70/170/63 71/172/63 30/76/63
f 85/196/64 86/198/64 69/168/64 27/68/64
f 82/189/65 87/200/65 68/165/65 25/65/65
f 27/69/66 69/169/66 68/166/66 24/62/66
f 11/29/67 62/157/67 67/164/67 22/56/67
f 18/43/68 66/162/68 65/160/68 20/51/68
f 7/21/69 55/147/69 63/158/69 12/31/69
f 22/56/70 67/164/70 65/161/70 17/42/70
f 9/24/71 61/156/71 62/157/71 11/29/71
f 19/48/72 66/162/72 87/200/72 82/189/72
f 12/30/73 18/44/73 20/52/73 21/54/73 16/39/73
f 66/163/74 18/47/74 84/194/74 87/201/74
f 23/57/75 19/49/75 82/190/75 83/191/75
f 49/125/76 81/188/76 96/216/76 95/214/76
f 97/217/77 103/227/77 94/212/77 51/130/77
f 99/221/78 104/228/78 95/215/78 48/122/78
f 81/188/79 51/131/79 94/213/79 96/216/79
f 14/34/80 90/204/80 92/208/80 47/117/80
f 9/24/81 91/206/81 93/210/81 44/108/81
f 3/8/82 88/202/82 91/207/82 9/25/82
f 5/16/83 89/203/83 90/205/83 14/35/83
f 44/109/84 93/211/84 104/228/84 99/221/84
f 47/118/85 92/209/85 103/227/85 97/217/85
f 45/112/86 79/184/86 102/226/86 98/219/86
f 46/115/87 78/182/87 101/225/87 100/223/87
f 92/209/88 46/116/88 100/224/88 103/227/88
f 93/211/89 45/113/89 98/220/89 104/228/89
f 78/182/90 44/110/90 99/222/90 101/225/90
f 79/184/91 47/119/91 97/218/91 102/226/91
f 59/152/92 4/11/92 52/133/92 53/138/92 54/141/92 108/235/92
f 136/298/93 110/241/93 109/238/93 135/296/93
f 121/271/94 120/269/94 114/253/94 117/261/94
f 139/304/95 111/244/95 110/242/95 136/297/95
f 135/295/96 109/239/96 112/247/96 144/314/96
f 144/313/97 112/248/97 111/245/97 139/303/97
f 111/246/98 112/249/98 109/240/98 110/243/98
f 117/262/99 114/254/99 116/259/99 115/256/99 113/250/99
f 124/277/100 121/270/100 117/263/100 113/251/100
f 120/268/101 129/284/101 116/260/101 114/255/101
f 130/286/102 124/276/102 113/252/102 115/257/102
f 129/284/103 130/285/103 115/258/103 116/260/103
f 57/150/104 56/148/104 132/289/104 127/282/104
f 127/282/105 132/289/105 131/287/105 128/283/105
f 128/283/106 131/287/106 130/285/106 129/284/106
f 56/149/107 2/4/107 126/280/107 132/290/107
f 132/290/108 126/280/108 125/278/108 131/288/108
f 131/288/109 125/278/109 124/276/109 130/286/109
f 54/142/110 57/150/110 127/282/110 118/264/110
f 118/264/111 127/282/111 128/283/111 119/266/111
f 119/266/112 128/283/112 129/284/112 120/268/112
f 2/5/113 108/237/113 123/274/113 126/281/113
f 126/281/114 123/274/114 122/272/114 125/279/114
f 125/279/115 122/272/115 121/270/115 124/277/115
f 108/236/116 54/143/116 118/265/116 123/275/116
f 123/275/117 118/265/117 119/267/117 122/273/117
f 122/273/118 119/267/118 120/269/118 121/271/118
f 54/144/119 142/309/119 141/307/119 53/139/119
f 142/309/120 143/311/120 140/305/120 141/307/120
f 143/311/121 144/313/121 139/303/121 140/305/121
f 4/12/122 133/291/122 142/310/122 54/145/122
f 133/291/123 134/293/123 143/312/123 142/310/123
f 134/293/124 135/295/124 144/314/124 143/312/124
f 53/140/125 141/308/125 138/301/125 52/134/125
f 141/308/126 140/306/126 137/299/126 138/301/126
f 140/306/127 139/304/127 136/297/127 137/299/127
f 52/135/128 138/302/128 133/292/128 4/13/128
f 138/302/129 137/300/129 134/294/129 133/292/129
f 137/300/130 136/298/130 135/296/130 134/294/130
f 105/230/131 1/3/131 88/202/131 59/153/131 108/237/131 2/5/131
f 86/199/132 85/195/132 83/192/132
f 83/192/133 85/195/133 18/45/133 23/58/133
f 63/158/134 15/37/134 23/59/134 18/46/134 12/31/134
f 84/194/135 18/47/135 85/196/135
l 52 106
