# Blender 3.3.1
# www.blender.org
mtllib monstruo_3_caminar563.mtl
o monstruo_grande
v 0.531256 1.958091 0.361233
v 0.527847 1.109575 0.048974
v -0.616247 1.853956 0.122568
v -0.279822 1.209697 0.221390
v 0.848431 2.215484 0.125114
v 0.634097 1.579946 -0.216641
v -0.668347 2.060287 -0.321983
v -0.642903 1.743265 -0.348373
v -0.198030 2.424493 0.430465
v 0.333144 2.267674 0.493538
v -0.347021 2.409609 0.511895
v -1.013454 2.160040 -0.250378
v -0.126518 2.580039 0.077496
v 0.402720 2.385318 0.225998
v -0.903063 2.019388 -0.069253
v -0.278268 2.673336 0.080483
v -0.714432 2.360888 0.462858
v -1.347655 2.111503 -0.049922
v -1.108397 2.132438 0.193001
v -0.812891 2.696124 0.178886
v -0.461533 2.736978 0.126026
v -0.428432 2.369645 0.474195
v -1.029934 2.049576 -0.100786
v -1.842559 0.886540 0.573037
v -1.729585 0.862745 0.644038
v -1.674949 0.688529 0.448316
v -1.743904 0.703053 0.404979
v 0.443418 2.166279 0.503678
v 0.659512 2.344380 0.325151
v 0.435884 2.285684 0.508056
v 0.524612 2.398510 0.294498
v 0.716937 1.896977 0.506444
v 0.929654 1.901169 0.473452
v 0.730426 1.948029 0.543285
v 0.885684 2.041634 0.466054
v 0.751519 1.759725 0.767854
v 0.866081 1.733303 0.758775
v 0.775367 1.803084 0.861812
v 0.886249 1.777885 0.845682
v 0.691989 1.700136 0.899877
v 0.923387 1.649215 0.869889
v 0.672253 1.771488 1.082534
v 1.019801 1.688132 1.032128
v -0.034671 2.455007 0.474347
v 0.171002 2.413867 0.481832
v 0.003460 2.547779 0.226882
v 0.203072 2.499821 0.235965
v 0.018861 2.767433 0.614513
v 0.224414 2.694218 0.597210
v 0.034064 2.871016 0.356924
v 0.239490 2.797791 0.339063
v -0.499085 1.202643 0.038232
v -0.406451 1.180015 -0.184181
v -0.037945 1.275514 -0.335205
v -0.650732 1.892506 -0.104441
v 0.537103 1.204578 -0.170656
v 0.316795 1.246297 -0.279963
v 0.058146 1.519023 -0.323493
v -0.022698 1.114435 0.187324
v 0.648997 2.028159 0.289469
v -0.166166 2.478810 0.306868
v -0.314295 2.655859 0.348255
v -0.822909 2.074360 -0.158693
v 0.348824 2.388198 0.382059
v -0.705851 2.589031 0.425472
v -1.275591 2.253149 0.205314
v -0.466372 2.658279 0.321500
v -1.803613 0.873424 0.636039
v -1.672470 0.581238 0.329455
v 0.563213 2.271194 0.459793
v 0.484124 2.389487 0.422124
v 0.809446 1.856669 0.456804
v 0.821217 2.008485 0.557428
v 0.807326 1.746306 0.760360
v 0.830882 1.789769 0.853761
v 0.801364 1.659744 0.865257
v 0.834685 1.704212 1.021464
v -0.017869 2.500348 0.348785
v 0.184547 2.458459 0.357639
v -0.004875 2.821648 0.485030
v 0.263209 2.743826 0.469275
v -1.589692 1.185228 0.619134
v -1.637141 1.013111 0.539736
v -1.785764 1.197544 0.498336
v -1.743475 1.035506 0.472906
v -1.678292 0.858229 0.431544
v -1.721011 1.171787 0.604597
v -0.010716 1.769637 0.497602
v 0.284686 2.102972 -0.192550
v 0.226352 2.495703 0.059261
v 0.062760 2.291990 0.609876
v 0.097339 2.523423 0.229130
v 0.073660 2.433553 0.477022
v 0.139092 2.849744 0.308930
v 0.119349 2.715292 0.644412
v 0.132596 2.833951 0.498147
v 0.235270 2.659511 0.263179
v 0.213550 2.544744 0.557480
v -0.022692 2.603702 0.566733
v -0.002115 2.720720 0.270242
v -0.029979 2.663713 0.418103
v 0.239177 2.601854 0.410425
v 0.116834 2.697924 0.245844
v 0.094890 2.565431 0.582279
v 0.623877 1.597405 0.102137
v -0.555419 1.565378 0.169647
v 0.721188 1.779213 -0.156684
v 0.172704 1.058950 0.172263
v -0.234376 0.071568 0.376426
v -0.378374 0.126284 0.486727
v -0.404613 0.033552 0.254349
v -0.269658 0.020015 0.243612
v 0.336561 -0.072591 -0.175885
v 0.261994 -0.082002 -0.250595
v 0.345348 -0.075378 -0.214401
v 0.313439 -0.079517 -0.240088
v 0.277694 -0.073815 -0.164747
v 0.074992 0.866595 -0.231813
v 0.148413 0.551191 -0.218419
v 0.196731 0.245409 -0.213938
v 0.232312 0.205747 -0.039965
v 0.208408 0.443607 0.058590
v 0.208005 0.714795 0.123175
v 0.354247 0.211720 -0.065280
v 0.414329 0.458315 0.014965
v 0.491723 0.798865 0.063129
v 0.330060 0.893917 -0.215291
v 0.328390 0.545343 -0.190354
v 0.303816 0.241696 -0.195236
v 0.371147 0.231007 -0.143805
v 0.442680 0.528526 -0.107562
v 0.504923 0.877214 -0.113505
v -0.160177 0.964225 0.355770
v -0.161373 0.705193 0.402561
v -0.169642 0.480854 0.479449
v -0.454939 0.476826 0.467475
v -0.452275 0.720685 0.342289
v -0.458844 0.952460 0.260044
v -0.485536 0.408047 0.206688
v -0.484399 0.658126 0.075133
v -0.499858 0.914214 -0.017386
v -0.109363 0.837388 -0.069980
v -0.143094 0.608014 0.042240
v -0.192009 0.425667 0.166443
vn 0.0883 0.5473 -0.8323
vn 0.0195 0.0204 -0.9996
vn 0.4016 -0.2129 -0.8907
vn -0.3671 -0.2102 0.9061
vn 0.9212 -0.3117 0.2328
vn 0.6667 0.6956 0.2676
vn 0.2899 0.8740 -0.3901
vn 0.3301 -0.2204 0.9179
vn -0.0644 0.9146 0.3993
vn 0.0719 0.5150 -0.8542
vn -0.3554 -0.4147 0.8377
vn -0.4612 -0.8306 -0.3120
vn -0.3961 -0.1146 0.9110
vn 0.1407 -0.8979 0.4171
vn 0.8825 -0.2811 0.3769
vn -0.1768 -0.7498 0.6376
vn 0.2004 0.9556 0.2161
vn -0.1342 -0.7504 0.6472
vn -0.7900 0.2761 0.5474
vn 0.9853 0.0025 -0.1707
vn -0.7528 0.0600 -0.6556
vn 0.4558 0.7534 0.4739
vn -0.0426 0.2292 0.9724
vn -0.5001 -0.4712 0.7265
vn -0.2159 0.6790 0.7017
vn -0.9741 0.1196 0.1918
vn 0.1619 -0.6793 -0.7158
vn 0.8068 0.5574 0.1960
vn -0.5690 -0.5719 0.5909
vn 0.8711 0.1644 -0.4627
vn -0.2834 0.8142 0.5067
vn 0.9881 0.0679 0.1377
vn 0.1914 -0.8955 -0.4018
vn -0.0969 -0.9525 0.2889
vn -0.0929 -0.7919 -0.6035
vn -0.7962 0.5629 -0.2216
vn 0.4217 0.8326 0.3590
vn 0.9922 -0.0440 -0.1165
vn 0.3020 0.5499 0.7787
vn 0.2368 0.9715 0.0131
vn -0.2410 0.9164 0.3195
vn 0.4328 0.8707 0.2335
vn 0.0663 0.9755 0.2098
vn -0.9755 0.1425 0.1673
vn 0.2306 -0.3378 0.9125
vn -0.1881 0.4652 -0.8650
vn -0.8427 -0.4430 -0.3059
vn -0.9511 -0.2195 0.2175
vn 0.2383 0.1982 -0.9508
vn -0.9574 0.2566 -0.1329
vn 0.0461 0.8472 0.5293
vn 0.4158 0.7198 0.5559
vn -0.2060 0.9135 0.3508
vn 0.9720 -0.1710 0.1614
vn 0.1010 0.9066 0.4096
vn -0.3822 -0.7355 -0.5594
vn -0.2484 -0.9135 0.3222
vn -0.4335 -0.8343 -0.3407
vn 0.3172 0.7742 0.5478
vn -0.1523 -0.8662 -0.4760
vn -0.0573 0.9984 0.0026
vn 0.4466 0.6443 0.6208
vn 0.3680 0.2592 0.8930
vn -0.2339 0.2593 -0.9370
vn -0.1099 0.1288 0.9856
vn -0.7325 -0.6244 0.2711
vn -0.3043 0.4827 0.8212
vn -0.6731 0.7145 0.1910
vn -0.4552 -0.8140 -0.3608
vn 0.1123 0.3486 0.9305
vn 0.5515 0.5113 0.6591
vn 0.1117 0.3303 0.9372
vn -0.2589 0.6444 -0.7195
vn -0.8658 0.4678 0.1777
vn 0.8951 -0.3300 0.2998
vn 0.4960 0.6950 0.5206
vn 0.3433 0.3801 -0.8589
vn -0.2988 -0.2590 0.9185
vn 0.5168 0.8418 0.1560
vn 0.4121 0.9105 0.0331
vn -0.1568 0.5743 0.8035
vn -0.5504 -0.0722 0.8318
vn 0.3831 0.7121 -0.5884
vn -0.2098 -0.5463 0.8108
vn 0.1362 0.1084 -0.9847
vn 0.9412 -0.3378 0.0093
vn -0.9843 0.0074 -0.1766
vn -0.0641 0.1725 -0.9829
vn -0.0286 -0.5621 0.8265
vn -0.9995 0.0146 -0.0291
vn 0.9634 -0.2642 -0.0449
vn -0.0963 -0.9857 -0.1383
vn 0.2104 -0.1039 0.9721
vn -0.9620 -0.2188 0.1634
vn -0.9654 -0.1936 0.1747
vn 0.9818 -0.1688 -0.0865
vn -0.1152 -0.1574 -0.9808
vn -0.0631 -0.9245 0.3759
vn 0.0379 -0.9952 0.0906
vn 0.1978 -0.3693 0.9080
vn 0.1804 0.1431 -0.9731
vn 0.9720 -0.1313 0.1948
vn 0.6138 0.1275 -0.7791
vn 0.4446 -0.1700 -0.8794
vn 0.5290 -0.0859 -0.8443
vn 0.5900 -0.0392 -0.8064
vn 0.9944 -0.1053 0.0103
vn 0.9790 -0.2006 0.0364
vn 0.9615 -0.2546 0.1031
vn 0.1140 -0.1961 -0.9739
vn 0.1041 -0.0461 -0.9935
vn 0.1610 0.0069 -0.9869
vn 0.2855 -0.0514 0.9570
vn 0.2422 -0.2053 0.9483
vn 0.2138 -0.3522 0.9112
vn -0.9385 -0.1628 0.3044
vn -0.9615 -0.1416 0.2355
vn -0.9753 -0.1565 0.1556
vn -0.2174 -0.4731 -0.8538
vn -0.1718 -0.3773 -0.9100
vn -0.1244 -0.4944 -0.8603
vn 0.9382 0.2216 0.2658
vn 0.9944 -0.0390 0.0985
vn 0.9915 -0.1281 0.0230
vn -0.9942 0.0230 -0.1055
vn -0.9912 0.0027 0.1326
vn -0.9928 0.0611 0.1028
vn -0.4410 0.4256 0.7902
vn -0.2466 0.2439 0.9379
vn -0.1065 0.3961 0.9120
vn 0.3558 -0.3320 0.8736
vn 0.5485 0.3759 -0.7468
vn -0.0582 -0.4602 -0.8859
vn -0.1615 -0.7893 -0.5923
vn -0.7127 -0.0766 -0.6972
vt 0.461701 0.809397
vt 0.301930 0.729761
vt 0.094158 0.499911
vt 0.498737 0.648456
vt 0.250869 0.553264
vt 0.714874 0.752530
vt 0.627854 0.740386
vt 0.227533 0.339544
vt 0.300362 0.438253
vt 0.625828 0.633709
vt 0.338991 0.679376
vt 0.653754 0.621457
vt 0.189641 0.785401
vt 0.531284 0.815038
vt 0.232114 0.729761
vt 0.806952 0.326283
vt 0.527824 0.712310
vt 0.703640 0.331352
vt 0.725736 0.123548
vt 0.557184 0.740386
vt 0.714874 0.681901
vt 0.693091 0.138725
vt 0.558638 0.706064
vt 0.944491 0.391302
vt 0.108931 0.369345
vt 0.090202 0.443431
vt 0.952837 0.467016
vt 0.108059 0.346292
vt 0.960024 0.371234
vt 0.653754 0.712739
vt 0.761990 0.055860
vt 0.265996 0.788213
vt 0.829683 0.188590
vt 0.886815 0.394232
vt 0.909606 0.471204
vt 0.826550 0.267021
vt 0.659457 0.749480
vt 0.206417 0.267620
vt 0.238389 0.812575
vt 0.882743 0.373659
vt 0.837846 0.166681
vt 0.102618 0.289588
vt 0.957957 0.321520
vt 0.918648 0.216117
vt 0.803322 0.012950
vt 0.106348 0.638847
vt 0.232551 0.755661
vt 0.798789 0.485160
vt 0.965752 0.239402
vt 0.153968 0.222285
vt 0.894228 0.312474
vt 0.856067 0.102710
vt 0.881967 0.351902
vt 0.842627 0.144082
vt 0.107159 0.331692
vt 0.958812 0.358201
vt 0.199778 0.246429
vt 0.138792 0.619338
vt 0.232114 0.797406
vt 0.967580 0.012950
vt 0.753483 0.682459
vt 0.843831 0.469074
vt 0.256421 0.022764
vt 0.824689 0.472884
vt 0.987050 0.016155
vt 0.832147 0.505580
vt 0.295109 0.018166
vt 0.782932 0.707368
vt 0.843831 0.503254
vt 0.076417 0.467161
vt 0.958695 0.494573
vt 0.833773 0.298242
vt 0.909847 0.503107
vt 0.076958 0.454690
vt 0.951531 0.482650
vt 0.837149 0.281767
vt 0.912926 0.487172
vt 0.064432 0.532285
vt 0.298790 0.687460
vt 0.825577 0.362572
vt 0.264894 0.686125
vt 0.056614 0.518895
vt 0.959622 0.549977
vt 0.837123 0.350740
vt 0.929664 0.555276
vt 0.051257 0.577890
vt 0.291936 0.641182
vt 0.824256 0.407314
vt 0.275162 0.640522
vt 0.035793 0.577862
vt 0.964581 0.612577
vt 0.838997 0.411720
vt 0.948088 0.615681
vt 0.039898 0.592711
vt 0.301778 0.620707
vt 0.403076 0.772170
vt 0.830596 0.428615
vt 0.403076 0.737417
vt 0.267017 0.619338
vt 0.012950 0.593438
vt 0.987050 0.637067
vt 0.428919 0.781443
vt 0.856067 0.440612
vt 0.428919 0.728949
vt 0.935424 0.646785
vt 0.945356 0.412724
vt 0.357115 0.854737
vt 0.331665 0.779032
vt 0.948027 0.441601
vt 0.799629 0.752473
vt 0.327972 0.853161
vt 0.906904 0.416128
vt 0.370069 0.779032
vt 0.684668 0.778429
vt 0.909575 0.445005
vt 0.655249 0.778999
vt 0.799629 0.791035
vt 0.330193 0.729131
vt 0.557184 0.775635
vt 0.363063 0.804932
vt 0.331684 0.807874
vt 0.754247 0.751428
vt 0.586563 0.768755
vt 0.566112 0.815056
vt 0.689281 0.828405
vt 0.370405 0.729131
vt 0.754247 0.791805
vt 0.657717 0.824383
vt 0.595492 0.808176
vt 0.327830 0.637821
vt 0.590400 0.642651
vt 0.164818 0.789976
vt 0.357235 0.619338
vt 0.642851 0.190721
vt 0.562581 0.649581
vt 0.406824 0.626953
vt 0.080449 0.619338
vt 0.646201 0.239681
vt 0.727583 0.656002
vt 0.597847 0.731399
vt 0.712829 0.722239
vt 0.658284 0.323708
vt 0.527919 0.666449
vt 0.661748 0.291537
vt 0.680225 0.245582
vt 0.377645 0.696957
vt 0.285191 0.477898
vt 0.483372 0.812325
vt 0.280072 0.728266
vt 0.924330 0.393087
vt 0.921760 0.373660
vt 0.678504 0.727397
vt 0.268491 0.812575
vt 0.930826 0.465310
vt 0.923786 0.327561
vt 0.941993 0.227167
vt 0.764056 0.466512
vt 0.919524 0.351927
vt 0.977463 0.013354
vt 0.833186 0.466512
vt 0.317617 0.012950
vt 0.798789 0.722800
vt 0.839639 0.522681
vt 0.934403 0.500152
vt 0.932138 0.484309
vt 0.281656 0.689101
vt 0.944784 0.554368
vt 0.283549 0.640852
vt 0.956335 0.614129
vt 0.284323 0.620942
vt 0.399765 0.754789
vt 0.961112 0.640376
vt 0.422297 0.755187
vt 0.926130 0.414426
vt 0.350867 0.779032
vt 0.928801 0.443303
vt 0.799629 0.771754
vt 0.350773 0.728949
vt 0.557184 0.796361
vt 0.753483 0.771844
vt 0.595492 0.787450
vt 0.985581 0.067358
vt 0.238180 0.070710
vt 0.259592 0.052321
vt 0.138792 0.821791
vt 0.953366 0.057503
vt 0.765454 0.639660
vt 0.120235 0.821584
vt 0.772730 0.660154
vt 0.283154 0.037949
vt 0.784440 0.682652
vt 0.128680 0.843910
vt 0.970110 0.058056
vt 0.758353 0.637393
vt 0.180368 0.432154
vt 0.759258 0.257498
vt 0.884976 0.446549
vt 0.828099 0.241547
vt 0.971226 0.428512
vt 0.101516 0.405509
vt 0.908240 0.430567
vt 0.669958 0.778714
vt 0.946692 0.427163
vt 0.342544 0.853949
vt 0.673120 0.826722
vt 0.582140 0.817526
vt 0.570535 0.766286
vt 0.348248 0.806122
vt 0.576699 0.792002
vt 0.653753 0.802281
vt 0.776512 0.794925
vt 0.776512 0.748700
vt 0.327830 0.829868
vt 0.363063 0.830170
vt 0.327830 0.753980
vt 0.373865 0.753980
vt 0.689281 0.803194
vt 0.351093 0.753886
vt 0.776117 0.771930
vt 0.671321 0.802907
vt 0.345899 0.829874
vt 0.457498 0.727404
vt 0.165986 0.548054
vt 0.260364 0.376248
vt 0.625887 0.695531
vt 0.520555 0.743605
vt 0.734596 0.339638
vt 0.406824 0.703049
vt 0.012950 0.651015
vt 0.277407 0.507014
vt 0.206214 0.619338
vt 0.706517 0.466512
vt 0.399765 0.822801
vt 0.181517 0.620770
vt 0.619265 0.470337
vt 0.422433 0.807343
vt 0.582936 0.466512
vt 0.458892 0.202188
vt 0.422433 0.843958
vt 0.727583 0.468029
vt 0.460639 0.221880
vt 0.402692 0.843997
vt 0.717439 0.778459
vt 0.429089 0.593438
vt 0.518160 0.466685
vt 0.070962 0.817001
vt 0.726094 0.791097
vt 0.457498 0.298878
vt 0.715181 0.783741
vt 0.523936 0.466512
vt 0.458951 0.311476
vt 0.719061 0.788282
vt 0.458165 0.306435
vt 0.058766 0.817583
vt 0.726094 0.778429
vt 0.431598 0.585369
vt 0.599953 0.261833
vt 0.080449 0.668491
vt 0.542336 0.274386
vt 0.076079 0.728305
vt 0.500395 0.287212
vt 0.064936 0.773359
vt 0.389801 0.564275
vt 0.039540 0.774208
vt 0.356388 0.547019
vt 0.031995 0.737396
vt 0.319737 0.531779
vt 0.030523 0.696843
vt 0.505723 0.512116
vt 0.384015 0.580847
vt 0.506522 0.550736
vt 0.346302 0.574833
vt 0.507607 0.604105
vt 0.294291 0.566034
vt 0.610540 0.298468
vt 0.545535 0.300686
vt 0.502363 0.302883
vt 0.504402 0.313331
vt 0.517745 0.511765
vt 0.548610 0.318269
vt 0.527842 0.556627
vt 0.609940 0.323717
vt 0.531284 0.618364
vt 0.660591 0.582499
vt 0.204501 0.743892
vt 0.668589 0.550878
vt 0.206214 0.710848
vt 0.668004 0.517120
vt 0.204545 0.678125
vt 0.623877 0.525891
vt 0.164692 0.675333
vt 0.610236 0.563455
vt 0.167167 0.712219
vt 0.605277 0.597358
vt 0.166352 0.745757
vt 0.511839 0.183186
vt 0.584607 0.521652
vt 0.552303 0.182624
vt 0.569857 0.561129
vt 0.598009 0.178631
vt 0.565182 0.606784
vt 0.592158 0.236754
vt 0.721184 0.600612
vt 0.550092 0.232946
vt 0.722606 0.558204
vt 0.518921 0.225772
vt 0.713819 0.525134
s 0
usemtl Material
f 89/196/1 7/19/1 13/33/1 90/198/1
f 8/22/2 7/19/2 89/196/2 58/145/2 54/138/2 53/134/2
f 6/18/3 56/142/3 57/144/3
f 3/8/4 106/224/4 4/9/4 59/147/4 88/195/4
f 6/17/5 107/226/5 5/14/5 60/148/5 1/1/5 105/222/5 2/4/5 56/143/5
f 61/150/6 13/34/6 16/40/6 62/151/6
f 5/16/7 14/36/7 31/76/7 29/72/7
f 88/195/8 1/3/8 10/26/8 91/200/8
f 67/158/9 21/53/9 20/51/9 65/155/9
f 13/33/10 7/19/10 12/31/10 16/41/10
f 3/8/11 9/25/11 11/28/11 15/38/11
f 55/141/12 3/6/12 15/37/12 63/152/12
f 66/156/13 19/49/13 17/43/13 65/155/13
f 23/57/14 22/55/14 17/42/14 19/50/14
f 83/184/15 82/183/15 25/63/15 26/67/15
f 15/38/16 11/28/16 22/55/16 23/57/16
f 62/151/17 16/40/17 21/53/17 67/158/17
f 69/163/18 26/66/18 25/64/18 68/160/18
f 87/193/19 84/186/19 24/60/19 68/159/19
f 86/190/20 83/184/20 26/67/20 69/161/20
f 84/187/21 85/189/21 27/68/21 24/61/21
f 70/164/22 29/73/22 31/77/22 71/165/22
f 70/164/23 28/71/23 34/83/23 73/167/23
f 10/26/24 1/3/24 28/70/24 30/74/24
f 64/154/25 10/27/25 30/75/25 71/165/25
f 34/82/26 32/78/26 36/86/26 38/90/26
f 60/149/27 5/15/27 33/81/27 72/166/27
f 5/16/28 29/72/28 35/84/28 33/80/28
f 28/70/29 1/3/29 32/78/29 34/82/29
f 37/88/30 39/92/30 43/103/30 41/97/30
f 73/167/31 34/83/31 38/91/31 75/169/31
f 33/80/32 35/84/32 39/92/32 37/88/32
f 72/166/33 33/81/33 37/89/33 74/168/33
f 76/171/34 41/98/34 43/104/34 77/173/34
f 74/168/35 37/89/35 41/99/35 76/170/35
f 38/90/36 36/86/36 40/94/36 42/100/36
f 75/169/37 38/91/37 42/101/37 77/172/37
f 102/219/38 97/211/38 51/127/38 81/180/38
f 91/199/39 10/27/39 45/109/39 93/203/39
f 90/197/40 13/34/40 46/112/40 92/201/40
f 61/150/41 9/24/41 44/106/41 78/174/41
f 64/154/42 14/35/42 47/115/42 79/176/42
f 96/209/43 94/206/43 50/124/43 80/179/43
f 101/218/44 99/215/44 48/118/44 80/178/44
f 104/221/45 98/213/45 49/121/45 95/208/45
f 103/220/46 100/217/46 50/125/46 94/205/46
f 8/23/47 53/135/47 52/131/47
f 8/23/48 52/131/48 4/10/48 106/225/48 3/7/48 55/140/48 7/20/48
f 54/138/49 58/145/49 89/196/49 5/16/49 107/227/49 6/18/49 57/144/49
f 100/216/50 101/218/50 80/178/50 50/126/50
f 95/207/51 96/209/51 80/179/51 48/119/51
f 10/27/52 64/154/52 79/176/52 45/109/52
f 13/34/53 61/150/53 78/174/53 46/112/53
f 98/212/54 102/219/54 81/180/54 49/122/54
f 39/93/55 75/169/55 77/172/55 43/105/55
f 36/87/56 74/168/56 76/170/56 40/95/56
f 40/96/57 76/171/57 77/173/57 42/102/57
f 32/79/58 72/166/58 74/168/58 36/87/58
f 35/85/59 73/167/59 75/169/59 39/93/59
f 1/2/60 60/149/60 72/166/60 32/79/60
f 14/35/61 64/154/61 71/165/61 31/77/61
f 29/73/62 70/164/62 73/167/62 35/85/62
f 28/71/63 70/164/63 71/165/63 30/75/63
f 85/189/64 86/191/64 69/162/64 27/68/64
f 82/182/65 87/193/65 68/159/65 25/65/65
f 27/69/66 69/163/66 68/160/66 24/62/66
f 11/29/67 62/151/67 67/158/67 22/56/67
f 18/44/68 66/156/68 65/155/68 20/51/68
f 7/21/69 55/141/69 63/152/69 12/30/69
f 22/56/70 67/158/70 65/155/70 17/43/70
f 9/24/71 61/150/71 62/151/71 11/29/71
f 19/49/72 66/156/72 87/193/72 82/182/72
f 12/31/73 18/45/73 20/52/73 21/54/73 16/41/73
f 66/157/74 18/48/74 84/187/74 87/194/74
f 23/57/75 19/50/75 82/183/75 83/184/75
f 49/123/76 81/181/76 96/209/76 95/207/76
f 97/210/77 103/220/77 94/205/77 51/128/77
f 99/214/78 104/221/78 95/208/78 48/120/78
f 81/181/79 51/129/79 94/206/79 96/209/79
f 14/35/80 90/197/80 92/201/80 47/115/80
f 9/24/81 91/199/81 93/203/81 44/106/81
f 3/8/82 88/195/82 91/200/82 9/25/82
f 5/16/83 89/196/83 90/198/83 14/36/83
f 44/107/84 93/204/84 104/221/84 99/214/84
f 47/116/85 92/202/85 103/220/85 97/210/85
f 45/110/86 79/177/86 102/219/86 98/212/86
f 46/113/87 78/175/87 101/218/87 100/216/87
f 92/202/88 46/114/88 100/217/88 103/220/88
f 93/204/89 45/111/89 98/213/89 104/221/89
f 78/175/90 44/108/90 99/215/90 101/218/90
f 79/177/91 47/117/91 97/211/91 102/219/91
f 59/146/92 4/11/92 52/130/92 53/133/92 54/136/92 108/228/92
f 136/291/93 110/234/93 109/231/93 135/289/93
f 121/264/94 120/262/94 114/246/94 117/254/94
f 139/297/95 111/237/95 110/235/95 136/290/95
f 135/288/96 109/232/96 112/240/96 144/307/96
f 144/306/97 112/241/97 111/238/97 139/296/97
f 111/239/98 112/242/98 109/233/98 110/236/98
f 117/255/99 114/247/99 116/252/99 115/249/99 113/243/99
f 124/270/100 121/263/100 117/256/100 113/244/100
f 120/261/101 129/277/101 116/253/101 114/248/101
f 130/279/102 124/269/102 113/245/102 115/250/102
f 129/277/103 130/278/103 115/251/103 116/253/103
f 57/144/104 56/142/104 132/282/104 127/275/104
f 127/275/105 132/282/105 131/280/105 128/276/105
f 128/276/106 131/280/106 130/278/106 129/277/106
f 56/143/107 2/4/107 126/273/107 132/283/107
f 132/283/108 126/273/108 125/271/108 131/281/108
f 131/281/109 125/271/109 124/269/109 130/279/109
f 54/138/110 57/144/110 127/275/110 118/257/110
f 118/257/111 127/275/111 128/276/111 119/259/111
f 119/259/112 128/276/112 129/277/112 120/261/112
f 2/5/113 108/230/113 123/267/113 126/274/113
f 126/274/114 123/267/114 122/265/114 125/272/114
f 125/272/115 122/265/115 121/263/115 124/270/115
f 108/229/116 54/137/116 118/258/116 123/268/116
f 123/268/117 118/258/117 119/260/117 122/266/117
f 122/266/118 119/260/118 120/262/118 121/264/118
f 54/138/119 142/302/119 141/300/119 53/134/119
f 142/302/120 143/304/120 140/298/120 141/300/120
f 143/304/121 144/306/121 139/296/121 140/298/121
f 4/12/122 133/284/122 142/303/122 54/139/122
f 133/284/123 134/286/123 143/305/123 142/303/123
f 134/286/124 135/288/124 144/307/124 143/305/124
f 53/135/125 141/301/125 138/294/125 52/131/125
f 141/301/126 140/299/126 137/292/126 138/294/126
f 140/299/127 139/297/127 136/290/127 137/292/127
f 52/132/128 138/295/128 133/285/128 4/13/128
f 138/295/129 137/293/129 134/287/129 133/285/129
f 137/293/130 136/291/130 135/289/130 134/287/130
f 105/223/131 1/3/131 88/195/131 59/147/131 108/230/131 2/5/131
f 86/192/132 85/188/132 83/185/132
f 83/185/133 85/188/133 18/46/133 23/58/133
f 63/153/134 15/39/134 23/59/134 18/47/134 12/32/134
f 84/187/135 18/48/135 85/189/135
l 52 106
