# Blender 3.3.1
# www.blender.org
mtllib monstruo_3_caminar592.mtl
o monstruo_grande
v 0.309910 2.050881 0.157363
v 0.523021 1.186741 0.078789
v -0.728321 1.754760 0.111141
v -0.297196 1.163378 0.220076
v 0.542542 2.323415 -0.152007
v 0.533993 1.646725 -0.255369
v -0.832067 1.938225 -0.338888
v -0.733121 1.640126 -0.371012
v -0.375385 2.421566 0.358590
v 0.185476 2.328490 0.364421
v -0.515209 2.395678 0.453228
v -1.202546 1.989982 -0.212561
v -0.347185 2.558127 -0.009834
v 0.194567 2.459003 0.099544
v -1.064062 1.872660 -0.028273
v -0.510436 2.627786 -0.005081
v -0.872662 2.312597 0.451265
v -1.513689 1.935547 0.031823
v -1.257935 2.004118 0.255371
v -1.033817 2.595792 0.139761
v -0.696638 2.668893 0.045324
v -0.591839 2.349514 0.429977
v -1.195927 1.892295 -0.041963
v -1.853825 0.738621 0.800514
v -1.732253 0.726853 0.859269
v -1.693726 0.532183 0.679652
v -1.767930 0.539365 0.643790
v 0.319875 2.237161 0.348946
v 0.466896 2.423735 0.112957
v 0.295585 2.357520 0.362728
v 0.325666 2.482378 0.136761
v 0.532310 1.912868 0.171695
v 0.700215 1.975364 0.031104
v 0.564347 1.980235 0.226906
v 0.680484 2.086726 0.095915
v 0.668738 1.661965 0.173939
v 0.770002 1.675546 0.125015
v 0.719224 1.610757 0.251190
v 0.820779 1.636288 0.201790
v 0.644981 1.509002 0.195217
v 0.857496 1.558684 0.096754
v 0.679178 1.388177 0.347125
v 0.995609 1.462837 0.190359
v -0.213785 2.476908 0.390879
v -0.002831 2.454223 0.388133
v -0.199909 2.561351 0.137617
v 0.001472 2.538798 0.139432
v -0.158917 2.791929 0.533135
v 0.047058 2.724738 0.501973
v -0.163266 2.898823 0.276261
v 0.041224 2.832206 0.243876
v -0.502453 1.141241 0.011869
v -0.389047 1.134277 -0.202410
v -0.040692 1.254665 -0.338110
v -0.772339 1.777545 -0.119007
v 0.546224 1.241792 -0.151416
v 0.328751 1.257381 -0.278506
v 0.005342 1.507812 -0.347517
v -0.020833 1.144177 0.196876
v 0.390405 2.130965 0.050567
v -0.359096 2.470052 0.229583
v -0.527337 2.628571 0.269182
v -0.987963 1.929580 -0.149188
v 0.164852 2.451602 0.257989
v -0.895863 2.533189 0.383039
v -1.436736 2.106547 0.269241
v -0.679243 2.609800 0.253419
v -1.807104 0.734296 0.859307
v -1.700715 0.411568 0.574538
v 0.426878 2.335815 0.266313
v 0.310489 2.466302 0.270208
v 0.581633 1.930682 0.052785
v 0.659615 2.038221 0.199179
v 0.719371 1.672968 0.149129
v 0.769769 1.622683 0.226149
v 0.738803 1.541016 0.124750
v 0.815545 1.440107 0.231596
v -0.208613 2.517724 0.262816
v -0.002631 2.498081 0.262867
v -0.192251 2.846985 0.406146
v 0.075747 2.777283 0.372261
v -1.610671 1.048054 0.780321
v -1.659621 0.866345 0.727734
v -1.820114 1.039050 0.683469
v -1.774049 0.877421 0.672432
v -1.706517 0.698484 0.644007
v -1.742066 1.029078 0.783772
v -0.101276 1.813016 0.459000
v 0.088623 2.145609 -0.266212
v 0.013582 2.528616 -0.039604
v -0.064026 2.318905 0.528916
v -0.102379 2.548323 0.136550
v -0.102984 2.462191 0.388877
v -0.062029 2.881069 0.220844
v -0.055355 2.742285 0.555957
v -0.054613 2.862996 0.410777
v 0.033975 2.695915 0.165917
v 0.036440 2.577575 0.460535
v -0.199704 2.627617 0.485361
v -0.204310 2.746017 0.187288
v -0.218700 2.688396 0.337767
v 0.050520 2.636912 0.312539
v -0.086178 2.728467 0.155712
v -0.079891 2.592765 0.493304
v 0.384594 1.741796 -0.010732
v -0.606273 1.484762 0.160199
v 0.530779 1.873608 -0.258491
v 0.172256 1.129930 0.190866
v -0.193454 0.022911 0.037049
v -0.337256 0.030055 0.160125
v -0.364347 0.027245 -0.089883
v -0.229259 0.022030 -0.105224
v 0.390967 0.214793 -0.435725
v 0.321662 0.246127 -0.509425
v 0.402341 0.232243 -0.469438
v 0.372292 0.242386 -0.495699
v 0.331553 0.208683 -0.430842
v 0.101640 0.904215 -0.149914
v 0.175081 0.762602 -0.175554
v 0.238931 0.505143 -0.322442
v 0.275459 0.393758 -0.183318
v 0.238150 0.561471 0.009923
v 0.222716 0.775185 0.188255
v 0.397047 0.415931 -0.199729
v 0.443057 0.602956 -0.009289
v 0.504283 0.873866 0.150937
v 0.354987 0.932799 -0.131694
v 0.354831 0.754445 -0.148446
v 0.345872 0.498312 -0.304252
v 0.413364 0.468919 -0.260966
v 0.469008 0.710977 -0.077078
v 0.524289 0.934115 -0.024514
v -0.174376 0.913715 0.350317
v -0.145770 0.611316 0.308144
v -0.139444 0.365852 0.284087
v -0.424431 0.353099 0.273334
v -0.437214 0.630151 0.255637
v -0.461956 0.886738 0.228967
v -0.458762 0.387157 0.006470
v -0.468906 0.661208 -0.010382
v -0.476158 0.867984 -0.046581
v -0.079419 0.829797 -0.069934
v -0.125570 0.642533 -0.052499
v -0.167419 0.433061 -0.025985
vn -0.0399 0.4967 -0.8670
vn -0.0024 -0.0157 -0.9999
vn 0.4830 -0.2040 -0.8515
vn -0.3010 -0.2152 0.9290
vn 0.8995 0.0314 0.4358
vn 0.5741 0.8013 0.1684
vn 0.1371 0.9077 -0.3967
vn 0.6139 -0.2015 0.7632
vn -0.1337 0.9443 0.3006
vn -0.1071 0.4732 -0.8744
vn -0.1654 -0.4210 0.8918
vn -0.3671 -0.8993 -0.2377
vn -0.2984 -0.0260 0.9541
vn 0.2901 -0.8139 0.5034
vn 0.9327 -0.2077 0.2948
vn -0.0467 -0.6677 0.7429
vn 0.0776 0.9898 0.1196
vn -0.0228 -0.6713 0.7408
vn -0.7324 0.3166 0.6028
vn 0.9568 0.0114 -0.2904
vn -0.8271 -0.0419 -0.5605
vn 0.5746 0.7278 0.3745
vn 0.4360 0.0691 0.8973
vn -0.2781 -0.5434 0.7920
vn -0.1409 0.6426 0.7531
vn -0.7780 -0.3428 0.5265
vn -0.2863 -0.4653 -0.8376
vn 0.8828 0.4676 -0.0448
vn -0.3623 -0.6185 0.6973
vn 0.7016 0.6679 -0.2482
vn 0.2704 0.1534 0.9504
vn 0.9367 0.1828 -0.2985
vn -0.1459 -0.3677 -0.9184
vn -0.0548 -0.7413 -0.6689
vn -0.3012 0.0717 -0.9509
vn -0.8006 0.2982 0.5197
vn 0.5403 0.2114 0.8145
vn 0.9814 -0.0203 -0.1907
vn 0.3395 0.6000 0.7243
vn 0.0869 0.9931 -0.0788
vn -0.3535 0.8924 0.2805
vn 0.3458 0.9172 0.1980
vn 0.0532 0.9748 0.2167
vn -0.9653 0.1171 0.2334
vn 0.3003 -0.3473 0.8884
vn -0.2561 0.4785 -0.8399
vn -0.7125 -0.6038 -0.3575
vn -0.8941 -0.3946 0.2118
vn 0.1414 0.0748 -0.9871
vn -0.9694 0.2388 -0.0567
vn 0.0563 0.8418 0.5369
vn 0.4076 0.7575 0.5099
vn -0.3363 0.8917 0.3031
vn 0.9840 -0.1541 0.0894
vn 0.2502 0.1389 0.9582
vn -0.5541 0.0175 -0.8323
vn -0.1909 -0.7843 -0.5903
vn -0.6757 -0.4737 -0.5649
vn 0.7573 0.3074 0.5761
vn -0.5058 -0.6464 -0.5713
vn -0.1461 0.9876 0.0570
vn 0.7625 0.4786 0.4353
vn 0.5977 0.2823 0.7504
vn -0.3552 0.1384 -0.9245
vn 0.0029 0.2424 0.9702
vn -0.6668 -0.6090 0.4296
vn -0.2864 0.5272 0.8000
vn -0.7350 0.6533 0.1813
vn -0.3580 -0.8720 -0.3339
vn 0.1540 0.4761 0.8658
vn 0.5218 0.6310 0.5741
vn 0.1599 0.4078 0.8990
vn -0.3982 0.5223 -0.7541
vn -0.8893 0.4032 0.2159
vn 0.9433 -0.2362 0.2333
vn 0.5092 0.7025 0.4973
vn 0.2764 0.4023 -0.8728
vn -0.2338 -0.2790 0.9314
vn 0.5014 0.8554 0.1301
vn 0.2838 0.9582 -0.0353
vn -0.1729 0.5500 0.8171
vn -0.4848 -0.0746 0.8715
vn 0.1418 0.7310 -0.6674
vn -0.1412 -0.5591 0.8170
vn 0.0808 0.1222 -0.9892
vn 0.9503 -0.3045 -0.0654
vn -0.9961 -0.0101 -0.0871
vn -0.1209 0.1878 -0.9747
vn 0.0635 -0.5808 0.8116
vn -0.9989 -0.0117 0.0458
vn 0.9606 -0.2435 -0.1342
vn 0.0766 -0.9921 -0.0998
vn 0.2313 -0.4539 0.8605
vn -0.9545 -0.2981 -0.0003
vn -0.9542 -0.2832 0.0963
vn 0.9847 -0.0858 -0.1514
vn -0.1290 0.2150 -0.9680
vn -0.0367 -0.9992 0.0153
vn 0.0580 -0.8991 -0.4340
vn 0.1918 -0.7571 0.6245
vn 0.1967 0.6073 -0.7697
vn 0.9717 -0.1858 0.1456
vn 0.6276 0.5024 -0.5947
vn 0.4766 -0.3465 -0.8079
vn 0.5391 0.0705 -0.8393
vn 0.5984 0.3969 -0.6959
vn 0.9948 -0.0343 0.0962
vn 0.9712 -0.2374 0.0193
vn 0.9700 -0.2427 0.0148
vn 0.1333 -0.4137 -0.9006
vn 0.0958 0.1523 -0.9837
vn 0.1600 0.5138 -0.8428
vn 0.2026 0.1110 0.9730
vn 0.2550 -0.5698 0.7812
vn 0.2125 -0.7199 0.6608
vn -0.9349 -0.1742 0.3091
vn -0.9405 -0.3121 0.1339
vn -0.9638 -0.2632 0.0423
vn -0.1273 -0.5017 -0.8556
vn -0.0969 -0.1248 -0.9874
vn -0.1129 -0.0814 -0.9903
vn 0.8961 0.3032 0.3242
vn 0.9880 -0.0429 0.1486
vn 0.9967 -0.0779 -0.0230
vn -0.9793 -0.0524 -0.1956
vn -0.9949 -0.0574 0.0830
vn -0.9923 -0.0338 0.1188
vn -0.5447 0.3489 0.7626
vn -0.2865 -0.0539 0.9566
vn -0.1092 -0.0161 0.9939
vn 0.5292 -0.0555 0.8467
vn 0.4385 0.3001 -0.8472
vn -0.1029 -0.5327 -0.8400
vn -0.1620 -0.8613 -0.4816
vn -0.7727 -0.1786 -0.6091
vt 0.461701 0.809397
vt 0.301930 0.729761
vt 0.094158 0.499911
vt 0.498737 0.648456
vt 0.250869 0.553264
vt 0.714874 0.752530
vt 0.627854 0.740386
vt 0.227533 0.339544
vt 0.300362 0.438253
vt 0.625828 0.633709
vt 0.338991 0.679376
vt 0.653754 0.621457
vt 0.189641 0.785401
vt 0.531284 0.815038
vt 0.232114 0.729761
vt 0.806952 0.326283
vt 0.527824 0.712310
vt 0.703640 0.331352
vt 0.725736 0.123548
vt 0.557184 0.740386
vt 0.714874 0.681901
vt 0.693091 0.138725
vt 0.558638 0.706064
vt 0.944491 0.391302
vt 0.108931 0.369345
vt 0.090202 0.443431
vt 0.952837 0.467016
vt 0.108059 0.346292
vt 0.960024 0.371234
vt 0.653754 0.712739
vt 0.761990 0.055860
vt 0.265996 0.788213
vt 0.829683 0.188590
vt 0.886815 0.394232
vt 0.909606 0.471204
vt 0.826550 0.267021
vt 0.659457 0.749480
vt 0.206417 0.267620
vt 0.238389 0.812575
vt 0.882743 0.373659
vt 0.837846 0.166681
vt 0.102618 0.289588
vt 0.957957 0.321520
vt 0.918648 0.216117
vt 0.803322 0.012950
vt 0.106348 0.638847
vt 0.232551 0.755661
vt 0.798789 0.485160
vt 0.965752 0.239402
vt 0.153968 0.222285
vt 0.894228 0.312474
vt 0.856067 0.102710
vt 0.881967 0.351902
vt 0.842627 0.144082
vt 0.107159 0.331692
vt 0.958812 0.358201
vt 0.199778 0.246429
vt 0.138792 0.619338
vt 0.232114 0.797406
vt 0.967580 0.012950
vt 0.753483 0.682459
vt 0.843831 0.469074
vt 0.256421 0.022764
vt 0.824689 0.472884
vt 0.987050 0.016155
vt 0.832147 0.505580
vt 0.295109 0.018166
vt 0.782932 0.707368
vt 0.843831 0.503254
vt 0.076417 0.467161
vt 0.958695 0.494573
vt 0.833773 0.298242
vt 0.909847 0.503107
vt 0.076958 0.454690
vt 0.951531 0.482650
vt 0.837149 0.281767
vt 0.912926 0.487172
vt 0.064432 0.532285
vt 0.298790 0.687460
vt 0.825577 0.362572
vt 0.264894 0.686125
vt 0.056614 0.518895
vt 0.959622 0.549977
vt 0.837123 0.350740
vt 0.929664 0.555276
vt 0.051257 0.577890
vt 0.291936 0.641182
vt 0.824256 0.407314
vt 0.275162 0.640522
vt 0.035793 0.577862
vt 0.964581 0.612577
vt 0.838997 0.411720
vt 0.948088 0.615681
vt 0.039898 0.592711
vt 0.301778 0.620707
vt 0.403076 0.772170
vt 0.830596 0.428615
vt 0.403076 0.737417
vt 0.267017 0.619338
vt 0.012950 0.593438
vt 0.987050 0.637067
vt 0.428919 0.781443
vt 0.856067 0.440612
vt 0.428919 0.728949
vt 0.935424 0.646785
vt 0.945356 0.412724
vt 0.357115 0.854737
vt 0.331665 0.779032
vt 0.948027 0.441601
vt 0.799629 0.752473
vt 0.327972 0.853161
vt 0.906904 0.416128
vt 0.370069 0.779032
vt 0.684668 0.778429
vt 0.909575 0.445005
vt 0.655249 0.778999
vt 0.799629 0.791035
vt 0.330193 0.729131
vt 0.557184 0.775635
vt 0.363063 0.804932
vt 0.331684 0.807874
vt 0.754247 0.751428
vt 0.586563 0.768755
vt 0.566112 0.815056
vt 0.689281 0.828405
vt 0.370405 0.729131
vt 0.754247 0.791805
vt 0.657717 0.824383
vt 0.595492 0.808176
vt 0.327830 0.637821
vt 0.590400 0.642651
vt 0.164818 0.789976
vt 0.357235 0.619338
vt 0.642851 0.190721
vt 0.562581 0.649581
vt 0.406824 0.626953
vt 0.080449 0.619338
vt 0.646201 0.239681
vt 0.727583 0.656002
vt 0.597847 0.731399
vt 0.712829 0.722239
vt 0.658284 0.323708
vt 0.527919 0.666449
vt 0.661748 0.291537
vt 0.680225 0.245582
vt 0.377645 0.696957
vt 0.285191 0.477898
vt 0.483372 0.812325
vt 0.280072 0.728266
vt 0.924330 0.393087
vt 0.921760 0.373660
vt 0.678504 0.727397
vt 0.268491 0.812575
vt 0.930826 0.465310
vt 0.923786 0.327561
vt 0.941993 0.227167
vt 0.764056 0.466512
vt 0.919524 0.351927
vt 0.977463 0.013354
vt 0.833186 0.466512
vt 0.317617 0.012950
vt 0.798789 0.722800
vt 0.839639 0.522681
vt 0.934403 0.500152
vt 0.932138 0.484309
vt 0.281656 0.689101
vt 0.944784 0.554368
vt 0.283549 0.640852
vt 0.956335 0.614129
vt 0.284323 0.620942
vt 0.399765 0.754789
vt 0.961112 0.640376
vt 0.422297 0.755187
vt 0.926130 0.414426
vt 0.350867 0.779032
vt 0.928801 0.443303
vt 0.799629 0.771754
vt 0.350773 0.728949
vt 0.557184 0.796361
vt 0.753483 0.771844
vt 0.595492 0.787450
vt 0.985581 0.067358
vt 0.238180 0.070710
vt 0.259592 0.052321
vt 0.138792 0.821791
vt 0.953366 0.057503
vt 0.765454 0.639660
vt 0.120235 0.821584
vt 0.772730 0.660154
vt 0.283154 0.037949
vt 0.784440 0.682652
vt 0.128680 0.843910
vt 0.970110 0.058056
vt 0.758353 0.637393
vt 0.180368 0.432154
vt 0.759258 0.257498
vt 0.884976 0.446549
vt 0.828099 0.241547
vt 0.971226 0.428512
vt 0.101516 0.405509
vt 0.908240 0.430567
vt 0.669958 0.778714
vt 0.946692 0.427163
vt 0.342544 0.853949
vt 0.673120 0.826722
vt 0.582140 0.817526
vt 0.570535 0.766286
vt 0.348248 0.806122
vt 0.576699 0.792002
vt 0.653753 0.802281
vt 0.776512 0.794925
vt 0.776512 0.748700
vt 0.327830 0.829868
vt 0.363063 0.830170
vt 0.327830 0.753980
vt 0.373865 0.753980
vt 0.689281 0.803194
vt 0.351093 0.753886
vt 0.776117 0.771930
vt 0.671321 0.802907
vt 0.345899 0.829874
vt 0.457498 0.727404
vt 0.165986 0.548054
vt 0.260364 0.376248
vt 0.625887 0.695531
vt 0.520555 0.743605
vt 0.734596 0.339638
vt 0.406824 0.703049
vt 0.012950 0.651015
vt 0.277407 0.507014
vt 0.206214 0.619338
vt 0.706517 0.466512
vt 0.399765 0.822801
vt 0.181517 0.620770
vt 0.619265 0.470337
vt 0.422433 0.807343
vt 0.582936 0.466512
vt 0.458892 0.202188
vt 0.422433 0.843958
vt 0.727583 0.468029
vt 0.460639 0.221880
vt 0.402692 0.843997
vt 0.717439 0.778459
vt 0.429089 0.593438
vt 0.518160 0.466685
vt 0.070962 0.817001
vt 0.726094 0.791097
vt 0.457498 0.298878
vt 0.715181 0.783741
vt 0.523936 0.466512
vt 0.458951 0.311476
vt 0.719061 0.788282
vt 0.458165 0.306435
vt 0.058766 0.817583
vt 0.726094 0.778429
vt 0.431598 0.585369
vt 0.599953 0.261833
vt 0.080449 0.668491
vt 0.542336 0.274386
vt 0.076079 0.728305
vt 0.500395 0.287212
vt 0.064936 0.773359
vt 0.389801 0.564275
vt 0.039540 0.774208
vt 0.356388 0.547019
vt 0.031995 0.737396
vt 0.319737 0.531779
vt 0.030523 0.696843
vt 0.505723 0.512116
vt 0.384015 0.580847
vt 0.506522 0.550736
vt 0.346302 0.574833
vt 0.507607 0.604105
vt 0.294291 0.566034
vt 0.610540 0.298468
vt 0.545535 0.300686
vt 0.502363 0.302883
vt 0.504402 0.313331
vt 0.517745 0.511765
vt 0.548610 0.318269
vt 0.527842 0.556627
vt 0.609940 0.323717
vt 0.531284 0.618364
vt 0.660591 0.582499
vt 0.204501 0.743892
vt 0.668589 0.550878
vt 0.206214 0.710848
vt 0.668004 0.517120
vt 0.204545 0.678125
vt 0.623877 0.525891
vt 0.164692 0.675333
vt 0.610236 0.563455
vt 0.167167 0.712219
vt 0.605277 0.597358
vt 0.166352 0.745757
vt 0.511839 0.183186
vt 0.584607 0.521652
vt 0.552303 0.182624
vt 0.569857 0.561129
vt 0.598009 0.178631
vt 0.565182 0.606784
vt 0.592158 0.236754
vt 0.721184 0.600612
vt 0.550092 0.232946
vt 0.722606 0.558204
vt 0.518921 0.225772
vt 0.713819 0.525134
s 0
usemtl Material
f 89/196/1 7/19/1 13/33/1 90/198/1
f 8/22/2 7/19/2 89/196/2 58/145/2 54/138/2 53/134/2
f 6/18/3 56/142/3 57/144/3
f 3/8/4 106/224/4 4/9/4 59/147/4 88/195/4
f 6/17/5 107/226/5 5/14/5 60/148/5 1/1/5 105/222/5 2/4/5 56/143/5
f 61/150/6 13/34/6 16/40/6 62/151/6
f 5/16/7 14/36/7 31/76/7 29/72/7
f 88/195/8 1/3/8 10/26/8 91/200/8
f 67/158/9 21/53/9 20/51/9 65/155/9
f 13/33/10 7/19/10 12/31/10 16/41/10
f 3/8/11 9/25/11 11/28/11 15/38/11
f 55/141/12 3/6/12 15/37/12 63/152/12
f 66/156/13 19/49/13 17/43/13 65/155/13
f 23/57/14 22/55/14 17/42/14 19/50/14
f 83/184/15 82/183/15 25/63/15 26/67/15
f 15/38/16 11/28/16 22/55/16 23/57/16
f 62/151/17 16/40/17 21/53/17 67/158/17
f 69/163/18 26/66/18 25/64/18 68/160/18
f 87/193/19 84/186/19 24/60/19 68/159/19
f 86/190/20 83/184/20 26/67/20 69/161/20
f 84/187/21 85/189/21 27/68/21 24/61/21
f 70/164/22 29/73/22 31/77/22 71/165/22
f 70/164/23 28/71/23 34/83/23 73/167/23
f 10/26/24 1/3/24 28/70/24 30/74/24
f 64/154/25 10/27/25 30/75/25 71/165/25
f 34/82/26 32/78/26 36/86/26 38/90/26
f 60/149/27 5/15/27 33/81/27 72/166/27
f 5/16/28 29/72/28 35/84/28 33/80/28
f 28/70/29 1/3/29 32/78/29 34/82/29
f 37/88/30 39/92/30 43/103/30 41/97/30
f 73/167/31 34/83/31 38/91/31 75/169/31
f 33/80/32 35/84/32 39/92/32 37/88/32
f 72/166/33 33/81/33 37/89/33 74/168/33
f 76/171/34 41/98/34 43/104/34 77/173/34
f 74/168/35 37/89/35 41/99/35 76/170/35
f 38/90/36 36/86/36 40/94/36 42/100/36
f 75/169/37 38/91/37 42/101/37 77/172/37
f 102/219/38 97/211/38 51/127/38 81/180/38
f 91/199/39 10/27/39 45/109/39 93/203/39
f 90/197/40 13/34/40 46/112/40 92/201/40
f 61/150/41 9/24/41 44/106/41 78/174/41
f 64/154/42 14/35/42 47/115/42 79/176/42
f 96/209/43 94/206/43 50/124/43 80/179/43
f 101/218/44 99/215/44 48/118/44 80/178/44
f 104/221/45 98/213/45 49/121/45 95/208/45
f 103/220/46 100/217/46 50/125/46 94/205/46
f 8/23/47 53/135/47 52/131/47
f 8/23/48 52/131/48 4/10/48 106/225/48 3/7/48 55/140/48 7/20/48
f 54/138/49 58/145/49 89/196/49 5/16/49 107/227/49 6/18/49 57/144/49
f 100/216/50 101/218/50 80/178/50 50/126/50
f 95/207/51 96/209/51 80/179/51 48/119/51
f 10/27/52 64/154/52 79/176/52 45/109/52
f 13/34/53 61/150/53 78/174/53 46/112/53
f 98/212/54 102/219/54 81/180/54 49/122/54
f 39/93/55 75/169/55 77/172/55 43/105/55
f 36/87/56 74/168/56 76/170/56 40/95/56
f 40/96/57 76/171/57 77/173/57 42/102/57
f 32/79/58 72/166/58 74/168/58 36/87/58
f 35/85/59 73/167/59 75/169/59 39/93/59
f 1/2/60 60/149/60 72/166/60 32/79/60
f 14/35/61 64/154/61 71/165/61 31/77/61
f 29/73/62 70/164/62 73/167/62 35/85/62
f 28/71/63 70/164/63 71/165/63 30/75/63
f 85/189/64 86/191/64 69/162/64 27/68/64
f 82/182/65 87/193/65 68/159/65 25/65/65
f 27/69/66 69/163/66 68/160/66 24/62/66
f 11/29/67 62/151/67 67/158/67 22/56/67
f 18/44/68 66/156/68 65/155/68 20/51/68
f 7/21/69 55/141/69 63/152/69 12/30/69
f 22/56/70 67/158/70 65/155/70 17/43/70
f 9/24/71 61/150/71 62/151/71 11/29/71
f 19/49/72 66/156/72 87/193/72 82/182/72
f 12/31/73 18/45/73 20/52/73 21/54/73 16/41/73
f 66/157/74 18/48/74 84/187/74 87/194/74
f 23/57/75 19/50/75 82/183/75 83/184/75
f 49/123/76 81/181/76 96/209/76 95/207/76
f 97/210/77 103/220/77 94/205/77 51/128/77
f 99/214/78 104/221/78 95/208/78 48/120/78
f 81/181/79 51/129/79 94/206/79 96/209/79
f 14/35/80 90/197/80 92/201/80 47/115/80
f 9/24/81 91/199/81 93/203/81 44/106/81
f 3/8/82 88/195/82 91/200/82 9/25/82
f 5/16/83 89/196/83 90/198/83 14/36/83
f 44/107/84 93/204/84 104/221/84 99/214/84
f 47/116/85 92/202/85 103/220/85 97/210/85
f 45/110/86 79/177/86 102/219/86 98/212/86
f 46/113/87 78/175/87 101/218/87 100/216/87
f 92/202/88 46/114/88 100/217/88 103/220/88
f 93/204/89 45/111/89 98/213/89 104/221/89
f 78/175/90 44/108/90 99/215/90 101/218/90
f 79/177/91 47/117/91 97/211/91 102/219/91
f 59/146/92 4/11/92 52/130/92 53/133/92 54/136/92 108/228/92
f 136/291/93 110/234/93 109/231/93 135/289/93
f 121/264/94 120/262/94 114/246/94 117/254/94
f 139/297/95 111/237/95 110/235/95 136/290/95
f 135/288/96 109/232/96 112/240/96 144/307/96
f 144/306/97 112/241/97 111/238/97 139/296/97
f 111/239/98 112/242/98 109/233/98 110/236/98
f 117/255/99 114/247/99 116/252/99 115/249/99 113/243/99
f 124/270/100 121/263/100 117/256/100 113/244/100
f 120/261/101 129/277/101 116/253/101 114/248/101
f 130/279/102 124/269/102 113/245/102 115/250/102
f 129/277/103 130/278/103 115/251/103 116/253/103
f 57/144/104 56/142/104 132/282/104 127/275/104
f 127/275/105 132/282/105 131/280/105 128/276/105
f 128/276/106 131/280/106 130/278/106 129/277/106
f 56/143/107 2/4/107 126/273/107 132/283/107
f 132/283/108 126/273/108 125/271/108 131/281/108
f 131/281/109 125/271/109 124/269/109 130/279/109
f 54/138/110 57/144/110 127/275/110 118/257/110
f 118/257/111 127/275/111 128/276/111 119/259/111
f 119/259/112 128/276/112 129/277/112 120/261/112
f 2/5/113 108/230/113 123/267/113 126/274/113
f 126/274/114 123/267/114 122/265/114 125/272/114
f 125/272/115 122/265/115 121/263/115 124/270/115
f 108/229/116 54/137/116 118/258/116 123/268/116
f 123/268/117 118/258/117 119/260/117 122/266/117
f 122/266/118 119/260/118 120/262/118 121/264/118
f 54/138/119 142/302/119 141/300/119 53/134/119
f 142/302/120 143/304/120 140/298/120 141/300/120
f 143/304/121 144/306/121 139/296/121 140/298/121
f 4/12/122 133/284/122 142/303/122 54/139/122
f 133/284/123 134/286/123 143/305/123 142/303/123
f 134/286/124 135/288/124 144/307/124 143/305/124
f 53/135/125 141/301/125 138/294/125 52/131/125
f 141/301/126 140/299/126 137/292/126 138/294/126
f 140/299/127 139/297/127 136/290/127 137/292/127
f 52/132/128 138/295/128 133/285/128 4/13/128
f 138/295/129 137/293/129 134/287/129 133/285/129
f 137/293/130 136/291/130 135/289/130 134/287/130
f 105/223/131 1/3/131 88/195/131 59/147/131 108/230/131 2/5/131
f 86/192/132 85/188/132 83/185/132
f 83/185/133 85/188/133 18/46/133 23/58/133
f 63/153/134 15/39/134 23/59/134 18/47/134 12/32/134
f 84/187/135 18/48/135 85/189/135
l 52 106
