# Blender 3.3.1
# www.blender.org
mtllib monstruo_3_grande_caminar595.mtl
o monstruo_grande
v 0.302206 2.051615 0.153957
v 0.523247 1.194921 0.082947
v -0.733237 1.746324 0.121102
v -0.298076 1.155076 0.220900
v 0.518242 2.328586 -0.163434
v 0.526256 1.647349 -0.257979
v -0.844879 1.933320 -0.325282
v -0.740177 1.637757 -0.363137
v -0.382337 2.416721 0.367594
v 0.179751 2.327112 0.363635
v -0.520853 2.389518 0.463212
v -1.214528 1.981858 -0.193381
v -0.358602 2.555572 -0.000264
v 0.181727 2.459473 0.099914
v -1.072851 1.864201 -0.012252
v -0.522062 2.624075 0.006129
v -0.876486 2.304753 0.465967
v -1.521562 1.925395 0.055383
v -1.263018 1.995066 0.275268
v -1.043836 2.588133 0.157890
v -0.708265 2.663718 0.058840
v -0.596714 2.343229 0.440576
v -1.204904 1.883788 -0.023488
v -1.844808 0.726210 0.827190
v -1.722678 0.715252 0.884936
v -1.684317 0.520891 0.704947
v -1.758862 0.527580 0.669701
v 0.317537 2.237436 0.345145
v 0.452743 2.426788 0.103689
v 0.290348 2.357074 0.359702
v 0.313100 2.483922 0.133390
v 0.529323 1.912535 0.156172
v 0.686359 1.987542 0.007342
v 0.560946 1.982861 0.212474
v 0.669212 2.093067 0.076572
v 0.671586 1.668255 0.127411
v 0.769847 1.686406 0.074313
v 0.726243 1.608714 0.195161
v 0.824821 1.639651 0.142752
v 0.647878 1.513955 0.132881
v 0.854697 1.574283 0.027971
v 0.690308 1.376859 0.267969
v 0.997160 1.468148 0.101275
v -0.220700 2.473416 0.398609
v -0.009460 2.451142 0.393310
v -0.210162 2.559060 0.145966
v -0.008862 2.537118 0.144960
v -0.165797 2.788063 0.541425
v 0.040100 2.721425 0.508599
v -0.172085 2.896021 0.285047
v 0.032326 2.829944 0.250971
v -0.502165 1.136374 0.009738
v -0.386976 1.134391 -0.203760
v -0.042564 1.255430 -0.337700
v -0.779788 1.770560 -0.108249
v 0.547438 1.239612 -0.149850
v 0.330095 1.249089 -0.278169
v -0.001076 1.508711 -0.346825
v -0.019774 1.146796 0.198187
v 0.376578 2.133774 0.044856
v -0.367512 2.466057 0.238734
v -0.536313 2.623290 0.280705
v -0.998079 1.921844 -0.134354
v 0.155735 2.450793 0.258826
v -0.901949 2.525488 0.398984
v -1.442229 2.096528 0.291978
v -0.688140 2.603707 0.266294
v -1.797575 0.722187 0.885594
v -1.691357 0.400259 0.599857
v 0.420049 2.337893 0.258212
v 0.301648 2.466660 0.267359
v 0.570273 1.938914 0.033758
v 0.653745 2.043577 0.180206
v 0.720713 1.681828 0.100933
v 0.775258 1.623296 0.168534
v 0.737474 1.553519 0.060767
v 0.819775 1.441194 0.150754
v -0.216920 2.514952 0.270889
v -0.010984 2.495600 0.268252
v -0.200095 2.843580 0.414895
v 0.067829 2.774562 0.378904
v -1.603931 1.037290 0.805084
v -1.652082 0.855266 0.752848
v -1.814087 1.026904 0.710026
v -1.767035 0.865579 0.698496
v -1.698529 0.687112 0.669459
v -1.735162 1.017422 0.809614
v -0.102276 1.809730 0.462755
v 0.071302 2.146764 -0.263989
v 0.000194 2.528124 -0.034374
v -0.066266 2.314576 0.533847
v -0.112326 2.546338 0.143504
v -0.109999 2.459015 0.395420
v -0.071188 2.878705 0.228876
v -0.061983 2.738537 0.563344
v -0.062462 2.859853 0.418667
v 0.024624 2.693992 0.172363
v 0.029634 2.574375 0.466548
v -0.206506 2.623875 0.493281
v -0.213637 2.743511 0.195895
v -0.226642 2.685245 0.346112
v 0.042520 2.634355 0.318679
v -0.095642 2.726348 0.163285
v -0.086607 2.589227 0.500234
v 0.373337 1.748386 -0.020034
v -0.607012 1.476640 0.167366
v 0.517059 1.874531 -0.263555
v 0.173000 1.140819 0.194341
v -0.192181 0.018227 0.017690
v -0.335896 0.024792 0.140874
v -0.363169 0.023003 -0.109065
v -0.228088 0.017890 -0.124513
v 0.379503 0.201127 -0.392942
v 0.309783 0.232270 -0.466256
v 0.390713 0.216922 -0.427511
v 0.360473 0.227204 -0.453479
v 0.320090 0.197365 -0.386571
v 0.104705 0.900404 -0.133610
v 0.174067 0.760956 -0.150579
v 0.235715 0.498233 -0.288270
v 0.273487 0.392219 -0.145336
v 0.238301 0.567310 0.041660
v 0.224889 0.787761 0.211764
v 0.394928 0.413566 -0.163804
v 0.443071 0.607813 0.019039
v 0.506371 0.885269 0.169800
v 0.358179 0.929545 -0.115245
v 0.354013 0.753748 -0.124731
v 0.342793 0.491933 -0.270908
v 0.410685 0.464131 -0.227199
v 0.468754 0.713066 -0.052693
v 0.526967 0.936940 -0.007879
v -0.176525 0.902542 0.345526
v -0.145489 0.601747 0.296304
v -0.137987 0.357071 0.267810
v -0.422953 0.343585 0.257596
v -0.436993 0.620510 0.244579
v -0.462943 0.877386 0.221059
v -0.458203 0.381783 -0.008443
v -0.469227 0.656131 -0.020969
v -0.474701 0.864681 -0.054935
v -0.077961 0.828027 -0.075813
v -0.125928 0.639392 -0.063782
v -0.167130 0.429242 -0.040946
vn -0.0545 0.5002 -0.8642
vn -0.0119 -0.0072 -0.9999
vn 0.4918 -0.1992 -0.8476
vn -0.2895 -0.2225 0.9310
vn 0.9019 0.0529 0.4287
vn 0.5706 0.8041 0.1671
vn 0.1153 0.9106 -0.3968
vn 0.6305 -0.2000 0.7500
vn -0.1346 0.9424 0.3063
vn -0.1218 0.4750 -0.8715
vn -0.1510 -0.4249 0.8926
vn -0.3657 -0.8995 -0.2389
vn -0.2835 -0.0306 0.9585
vn 0.3017 -0.8135 0.4972
vn 0.9365 -0.2014 0.2870
vn -0.0354 -0.6677 0.7436
vn 0.0728 0.9896 0.1239
vn -0.0122 -0.6716 0.7408
vn -0.7294 0.3114 0.6091
vn 0.9543 0.0179 -0.2983
vn -0.8314 -0.0472 -0.5536
vn 0.5807 0.7312 0.3579
vn 0.4737 0.0749 0.8775
vn -0.2493 -0.5477 0.7987
vn -0.1273 0.6362 0.7609
vn -0.7336 -0.4055 0.5454
vn -0.3182 -0.4615 -0.8281
vn 0.8732 0.4813 -0.0770
vn -0.3265 -0.6252 0.7090
vn 0.6896 0.6917 -0.2144
vn 0.3413 0.0891 0.9357
vn 0.9100 0.2271 -0.3470
vn -0.1997 -0.3073 -0.9304
vn -0.1009 -0.6602 -0.7443
vn -0.3551 0.1800 -0.9173
vn -0.7648 0.2394 0.5981
vn 0.5908 0.1183 0.7981
vn 0.9800 -0.0175 -0.1982
vn 0.3508 0.5967 0.7217
vn 0.0814 0.9938 -0.0756
vn -0.3586 0.8878 0.2884
vn 0.3446 0.9177 0.1976
vn 0.0527 0.9740 0.2204
vn -0.9640 0.1139 0.2404
vn 0.3071 -0.3503 0.8848
vn -0.2633 0.4814 -0.8360
vn -0.7003 -0.6092 -0.3722
vn -0.8882 -0.4083 0.2108
vn 0.1298 0.0729 -0.9889
vn -0.9703 0.2371 -0.0484
vn 0.0582 0.8396 0.5400
vn 0.4143 0.7559 0.5069
vn -0.3410 0.8871 0.3111
vn 0.9850 -0.1519 0.0822
vn 0.3094 0.0305 0.9504
vn -0.6038 0.1117 -0.7893
vn -0.2331 -0.7132 -0.6611
vn -0.7038 -0.4528 -0.5473
vn 0.7907 0.2846 0.5421
vn -0.5218 -0.6426 -0.5611
vn -0.1536 0.9858 0.0677
vn 0.7738 0.4868 0.4053
vn 0.6159 0.2911 0.7321
vn -0.3638 0.1362 -0.9215
vn 0.0092 0.2422 0.9702
vn -0.6590 -0.6136 0.4349
vn -0.2818 0.5208 0.8058
vn -0.7358 0.6490 0.1933
vn -0.3568 -0.8706 -0.3387
vn 0.1650 0.4738 0.8650
vn 0.5234 0.6310 0.5727
vn 0.1688 0.4087 0.8969
vn -0.4117 0.5215 -0.7473
vn -0.8889 0.3978 0.2272
vn 0.9477 -0.2312 0.2201
vn 0.5111 0.7014 0.4967
vn 0.2690 0.4067 -0.8731
vn -0.2269 -0.2834 0.9318
vn 0.5005 0.8558 0.1303
vn 0.2785 0.9598 -0.0341
vn -0.1681 0.5392 0.8252
vn -0.4736 -0.0811 0.8770
vn 0.1170 0.7354 -0.6674
vn -0.1329 -0.5623 0.8162
vn 0.0704 0.1281 -0.9893
vn 0.9508 -0.3005 -0.0754
vn -0.9971 -0.0105 -0.0755
vn -0.1316 0.1908 -0.9728
vn 0.0720 -0.5852 0.8077
vn -0.9984 -0.0146 0.0539
vn 0.9587 -0.2433 -0.1474
vn 0.0975 -0.9894 -0.1072
vn 0.2326 -0.4649 0.8543
vn -0.9598 -0.2791 0.0306
vn -0.9533 -0.2867 0.0953
vn 0.9845 -0.0821 -0.1551
vn -0.1310 0.2251 -0.9655
vn -0.0363 -0.9993 0.0113
vn 0.0162 -0.9157 -0.4016
vn 0.1914 -0.7357 0.6497
vn 0.1934 0.5740 -0.7957
vn 0.9710 -0.1987 0.1327
vn 0.6253 0.4656 -0.6262
vn 0.4801 -0.3812 -0.7900
vn 0.5370 0.0307 -0.8430
vn 0.5923 0.3693 -0.7161
vn 0.9944 -0.0220 0.1033
vn 0.9692 -0.2449 0.0257
vn 0.9695 -0.2446 0.0152
vn 0.1264 -0.4485 -0.8848
vn 0.0958 0.1029 -0.9901
vn 0.1526 0.4817 -0.8630
vn 0.1958 0.1625 0.9671
vn 0.2599 -0.5413 0.7996
vn 0.2180 -0.6944 0.6858
vn -0.9347 -0.1643 0.3151
vn -0.9424 -0.2969 0.1541
vn -0.9639 -0.2590 0.0618
vn -0.1251 -0.4871 -0.8643
vn -0.0928 -0.1047 -0.9902
vn -0.1145 -0.0652 -0.9913
vn 0.8942 0.3015 0.3310
vn 0.9874 -0.0457 0.1514
vn 0.9969 -0.0735 -0.0264
vn -0.9775 -0.0500 -0.2050
vn -0.9953 -0.0575 0.0784
vn -0.9919 -0.0395 0.1204
vn -0.5531 0.3288 0.7654
vn -0.2901 -0.0736 0.9542
vn -0.1071 -0.0339 0.9937
vn 0.5433 -0.0447 0.8383
vn 0.4294 0.3032 -0.8507
vn -0.1118 -0.5330 -0.8387
vn -0.1673 -0.8600 -0.4820
vn -0.7782 -0.1841 -0.6004
vt 0.882279 0.260085
vt 0.436089 0.649131
vt 0.117664 0.305524
vt 0.860974 0.338762
vt 0.079561 0.383885
vt 0.278417 0.728674
vt 0.111517 0.716819
vt 0.301243 0.337859
vt 0.232943 0.387386
vt 0.111517 0.662267
vt 0.671871 0.687525
vt 0.175114 0.511099
vt 0.930991 0.712692
vt 0.796001 0.259488
vt 0.522181 0.649131
vt 0.719621 0.316178
vt 0.801110 0.310020
vt 0.698705 0.366293
vt 0.510656 0.337024
vt 0.023033 0.717149
vt 0.367094 0.730187
vt 0.507246 0.358198
vt 0.018976 0.695717
vt 0.103380 0.570561
vt 0.268725 0.266033
vt 0.143950 0.273348
vt 0.098384 0.631539
vt 0.301351 0.259488
vt 0.128079 0.559933
vt 0.480438 0.333338
vt 0.348619 0.714075
vt 0.604958 0.268707
vt 0.031105 0.562973
vt 0.043818 0.625810
vt 0.721993 0.282954
vt 0.329365 0.336360
vt 0.302724 0.713315
vt 0.030374 0.549675
vt 0.582817 0.260846
vt 0.875347 0.642471
vt 0.380514 0.272320
vt 0.124895 0.517524
vt 0.813390 0.578569
vt 0.436089 0.332372
vt 0.956124 0.588845
vt 0.367094 0.692599
vt 0.367094 0.522797
vt 0.871643 0.594841
vt 0.398138 0.324445
vt 0.043891 0.509019
vt 0.796001 0.641153
vt 0.491075 0.268473
vt 0.032114 0.534706
vt 0.552485 0.259488
vt 0.331566 0.259909
vt 0.129819 0.544964
vt 0.339759 0.337186
vt 0.913298 0.588845
vt 0.317584 0.707220
vt 0.845734 0.463378
vt 0.311567 0.646434
vt 0.944558 0.353645
vt 0.398138 0.462439
vt 0.920230 0.354337
vt 0.870057 0.463781
vt 0.929709 0.374247
vt 0.357807 0.478584
vt 0.347994 0.663056
vt 0.944558 0.373825
vt 0.097076 0.285727
vt 0.229765 0.651022
vt 0.758050 0.297859
vt 0.168317 0.651042
vt 0.119329 0.272208
vt 0.094178 0.643292
vt 0.222768 0.636959
vt 0.746872 0.283208
vt 0.174541 0.636975
vt 0.045175 0.638147
vt 0.080672 0.327471
vt 0.442544 0.673801
vt 0.734592 0.339187
vt 0.484453 0.673801
vt 0.070725 0.319456
vt 0.218298 0.685110
vt 0.751374 0.331694
vt 0.180611 0.684911
vt 0.062412 0.356092
vt 0.455575 0.702696
vt 0.724658 0.367821
vt 0.476314 0.702696
vt 0.043357 0.357400
vt 0.210236 0.723455
vt 0.742364 0.370210
vt 0.189444 0.723462
vt 0.050281 0.367705
vt 0.444942 0.715336
vt 0.810526 0.722486
vt 0.728448 0.380153
vt 0.853695 0.722486
vt 0.487920 0.715336
vt 0.018975 0.371756
vt 0.232852 0.738567
vt 0.796001 0.739289
vt 0.758050 0.386241
vt 0.861207 0.739289
vt 0.167770 0.738589
vt 0.100634 0.583041
vt 0.712300 0.698974
vt 0.802197 0.701507
vt 0.098640 0.600731
vt 0.972705 0.287497
vt 0.747907 0.696578
vt 0.052045 0.577939
vt 0.849895 0.701507
vt 0.710445 0.675017
vt 0.050052 0.595630
vt 0.746553 0.677603
vt 0.924885 0.287497
vt 0.797725 0.671259
vt 0.981025 0.313792
vt 0.715147 0.730011
vt 0.752543 0.724602
vt 0.973919 0.259495
vt 0.967002 0.332143
vt 0.934252 0.306472
vt 0.715328 0.644023
vt 0.847669 0.671259
vt 0.923848 0.259495
vt 0.753088 0.649631
vt 0.920230 0.324823
vt 0.068284 0.665533
vt 0.630362 0.705721
vt 0.712055 0.621316
vt 0.966165 0.712391
vt 0.519769 0.388732
vt 0.031375 0.663704
vt 0.592215 0.695479
vt 0.581836 0.620019
vt 0.750017 0.621843
vt 0.569690 0.667298
vt 0.581066 0.387596
vt 0.531739 0.516092
vt 0.642835 0.625048
vt 0.273616 0.509019
vt 0.070982 0.710642
vt 0.316851 0.732164
vt 0.684917 0.393810
vt 0.816625 0.338063
vt 0.644803 0.392946
vt 0.602800 0.367236
vt 0.671871 0.661666
vt 0.181146 0.386242
vt 0.855113 0.259897
vt 0.463196 0.649131
vt 0.077903 0.567886
vt 0.078993 0.554271
vt 0.322237 0.720993
vt 0.070972 0.628379
vt 0.834014 0.651825
vt 0.084160 0.512738
vt 0.838315 0.596273
vt 0.320679 0.509019
vt 0.080733 0.539302
vt 0.857365 0.464048
vt 0.931678 0.351118
vt 0.335174 0.488977
vt 0.367094 0.673623
vt 0.939667 0.384854
vt 0.199177 0.651021
vt 0.069465 0.641494
vt 0.198664 0.632807
vt 0.464209 0.672968
vt 0.199604 0.684998
vt 0.465945 0.702696
vt 0.199840 0.723459
vt 0.466714 0.715004
vt 0.832520 0.720483
vt 0.200177 0.738589
vt 0.829423 0.735282
vt 0.076340 0.580490
vt 0.826046 0.701507
vt 0.074346 0.598181
vt 0.948795 0.287497
vt 0.823088 0.670800
vt 0.959731 0.307426
vt 0.948976 0.259488
vt 0.941524 0.331189
vt 0.875347 0.491894
vt 0.391834 0.432095
vt 0.377694 0.448634
vt 0.915590 0.478791
vt 0.834644 0.488373
vt 0.326937 0.619279
vt 0.938593 0.478810
vt 0.335216 0.632947
vt 0.358601 0.463790
vt 0.348787 0.648138
vt 0.927106 0.463378
vt 0.854274 0.489560
vt 0.315804 0.619182
vt 0.212520 0.321385
vt 0.644070 0.318501
vt 0.018976 0.592450
vt 0.663817 0.276029
vt 0.129819 0.597828
vt 0.224108 0.269832
vt 0.051049 0.586785
vt 0.728499 0.676310
vt 0.099637 0.591886
vt 0.730103 0.697776
vt 0.734390 0.646904
vt 0.920230 0.314550
vt 0.981025 0.324065
vt 0.732426 0.727384
vt 0.950683 0.319044
vt 0.753088 0.663662
vt 0.920230 0.273492
vt 0.977552 0.273492
vt 0.752543 0.710647
vt 0.709822 0.714522
vt 0.796001 0.686127
vt 0.853178 0.686127
vt 0.709822 0.659561
vt 0.824792 0.685890
vt 0.948939 0.273488
vt 0.731549 0.661651
vt 0.730449 0.712624
vt 0.878850 0.297575
vt 0.096711 0.342677
vt 0.285581 0.357771
vt 0.108549 0.696221
vt 0.804979 0.293594
vt 0.708839 0.350023
vt 0.668288 0.644023
vt 0.436089 0.526409
vt 0.145034 0.385321
vt 0.919159 0.607821
vt 0.247387 0.613831
vt 0.970304 0.416607
vt 0.947808 0.608020
vt 0.704660 0.516092
vt 0.970304 0.403829
vt 0.750017 0.516884
vt 0.618892 0.516092
vt 0.920230 0.404231
vt 0.273616 0.612878
vt 0.642836 0.516847
vt 0.938584 0.415207
vt 0.924281 0.443436
vt 0.075400 0.489812
vt 0.855524 0.444402
vt 0.531739 0.629156
vt 0.934913 0.435583
vt 0.576828 0.496673
vt 0.931440 0.443424
vt 0.848383 0.444289
vt 0.592622 0.497116
vt 0.934913 0.440184
vt 0.586164 0.496977
vt 0.517161 0.630156
vt 0.920230 0.438606
vt 0.085942 0.490043
vt 0.585376 0.420489
vt 0.510472 0.551446
vt 0.582586 0.444044
vt 0.504260 0.576063
vt 0.581388 0.469636
vt 0.508131 0.602400
vt 0.103684 0.463024
vt 0.477645 0.604263
vt 0.118194 0.440373
vt 0.454885 0.581958
vt 0.129418 0.415411
vt 0.438452 0.557360
vt 0.876897 0.417052
vt 0.081901 0.462161
vt 0.882279 0.393921
vt 0.081653 0.438865
vt 0.880271 0.363315
vt 0.079604 0.408162
vt 0.633117 0.418943
vt 0.615530 0.444447
vt 0.600997 0.469910
vt 0.614559 0.469949
vt 0.862035 0.416811
vt 0.638313 0.444473
vt 0.857648 0.390640
vt 0.666106 0.417503
vt 0.844696 0.362700
vt 0.167770 0.536691
vt 0.914144 0.688660
vt 0.182151 0.561697
vt 0.913298 0.663084
vt 0.189855 0.582503
vt 0.915415 0.641729
vt 0.680787 0.549268
vt 0.966165 0.641681
vt 0.684678 0.573659
vt 0.963812 0.665813
vt 0.684995 0.596421
vt 0.964308 0.688427
vt 0.584794 0.548886
vt 0.729850 0.550060
vt 0.578610 0.572959
vt 0.734888 0.574452
vt 0.569690 0.595426
vt 0.736445 0.597214
vt 0.642060 0.590920
vt 0.247172 0.543053
vt 0.641052 0.570535
vt 0.248998 0.562413
vt 0.635978 0.552556
vt 0.245738 0.579271
s 0
usemtl Material
f 89/203/1 7/19/1 13/32/1 90/205/1
f 8/22/2 7/19/2 89/203/2 58/151/2 54/142/2 53/136/2
f 6/18/3 56/148/3 57/150/3
f 3/8/4 106/231/4 4/9/4 59/153/4 88/202/4
f 6/17/5 107/233/5 5/14/5 60/154/5 1/1/5 105/229/5 2/4/5 56/149/5
f 61/156/6 13/33/6 16/38/6 62/157/6
f 5/16/7 14/35/7 31/77/7 29/72/7
f 88/202/8 1/3/8 10/26/8 91/207/8
f 67/164/9 21/53/9 20/50/9 65/161/9
f 13/32/10 7/19/10 12/30/10 16/39/10
f 3/8/11 9/25/11 11/28/11 15/36/11
f 55/147/12 3/6/12 15/37/12 63/158/12
f 66/162/13 19/48/13 17/40/13 65/160/13
f 23/57/14 22/55/14 17/41/14 19/49/14
f 83/191/15 82/190/15 25/63/15 26/67/15
f 15/36/16 11/28/16 22/55/16 23/57/16
f 62/157/17 16/38/17 21/53/17 67/164/17
f 69/169/18 26/66/18 25/64/18 68/166/18
f 87/200/19 84/193/19 24/60/19 68/165/19
f 86/197/20 83/191/20 26/67/20 69/167/20
f 84/194/21 85/196/21 27/68/21 24/61/21
f 70/170/22 29/73/22 31/78/22 71/172/22
f 70/170/23 28/71/23 34/85/23 73/174/23
f 10/26/24 1/3/24 28/70/24 30/74/24
f 64/159/25 10/27/25 30/75/25 71/171/25
f 34/84/26 32/80/26 36/88/26 38/92/26
f 60/155/27 5/15/27 33/83/27 72/173/27
f 5/16/28 29/72/28 35/86/28 33/82/28
f 28/70/29 1/3/29 32/80/29 34/84/29
f 37/90/30 39/94/30 43/105/30 41/99/30
f 73/174/31 34/85/31 38/93/31 75/176/31
f 33/82/32 35/86/32 39/94/32 37/90/32
f 72/173/33 33/83/33 37/91/33 74/175/33
f 76/178/34 41/100/34 43/106/34 77/180/34
f 74/175/35 37/91/35 41/101/35 76/177/35
f 38/92/36 36/88/36 40/96/36 42/102/36
f 75/176/37 38/93/37 42/103/37 77/179/37
f 102/226/38 97/218/38 51/129/38 81/187/38
f 91/206/39 10/27/39 45/111/39 93/210/39
f 90/204/40 13/33/40 46/114/40 92/208/40
f 61/156/41 9/24/41 44/108/41 78/181/41
f 64/159/42 14/34/42 47/117/42 79/183/42
f 96/216/43 94/213/43 50/126/43 80/186/43
f 101/225/44 99/222/44 48/120/44 80/185/44
f 104/228/45 98/220/45 49/123/45 95/215/45
f 103/227/46 100/224/46 50/127/46 94/212/46
f 8/23/47 53/137/47 52/132/47
f 8/23/48 52/132/48 4/10/48 106/232/48 3/7/48 55/146/48 7/20/48
f 54/142/49 58/151/49 89/203/49 5/16/49 107/234/49 6/18/49 57/150/49
f 100/223/50 101/225/50 80/185/50 50/128/50
f 95/214/51 96/216/51 80/186/51 48/121/51
f 10/27/52 64/159/52 79/183/52 45/111/52
f 13/33/53 61/156/53 78/181/53 46/114/53
f 98/219/54 102/226/54 81/187/54 49/124/54
f 39/95/55 75/176/55 77/179/55 43/107/55
f 36/89/56 74/175/56 76/177/56 40/97/56
f 40/98/57 76/178/57 77/180/57 42/104/57
f 32/81/58 72/173/58 74/175/58 36/89/58
f 35/87/59 73/174/59 75/176/59 39/95/59
f 1/2/60 60/155/60 72/173/60 32/81/60
f 14/34/61 64/159/61 71/171/61 31/79/61
f 29/73/62 70/170/62 73/174/62 35/87/62
f 28/71/63 70/170/63 71/172/63 30/76/63
f 85/196/64 86/198/64 69/168/64 27/68/64
f 82/189/65 87/200/65 68/165/65 25/65/65
f 27/69/66 69/169/66 68/166/66 24/62/66
f 11/29/67 62/157/67 67/164/67 22/56/67
f 18/43/68 66/162/68 65/160/68 20/51/68
f 7/21/69 55/147/69 63/158/69 12/31/69
f 22/56/70 67/164/70 65/161/70 17/42/70
f 9/24/71 61/156/71 62/157/71 11/29/71
f 19/48/72 66/162/72 87/200/72 82/189/72
f 12/30/73 18/44/73 20/52/73 21/54/73 16/39/73
f 66/163/74 18/47/74 84/194/74 87/201/74
f 23/57/75 19/49/75 82/190/75 83/191/75
f 49/125/76 81/188/76 96/216/76 95/214/76
f 97/217/77 103/227/77 94/212/77 51/130/77
f 99/221/78 104/228/78 95/215/78 48/122/78
f 81/188/79 51/131/79 94/213/79 96/216/79
f 14/34/80 90/204/80 92/208/80 47/117/80
f 9/24/81 91/206/81 93/210/81 44/108/81
f 3/8/82 88/202/82 91/207/82 9/25/82
f 5/16/83 89/203/83 90/205/83 14/35/83
f 44/109/84 93/211/84 104/228/84 99/221/84
f 47/118/85 92/209/85 103/227/85 97/217/85
f 45/112/86 79/184/86 102/226/86 98/219/86
f 46/115/87 78/182/87 101/225/87 100/223/87
f 92/209/88 46/116/88 100/224/88 103/227/88
f 93/211/89 45/113/89 98/220/89 104/228/89
f 78/182/90 44/110/90 99/222/90 101/225/90
f 79/184/91 47/119/91 97/218/91 102/226/91
f 59/152/92 4/11/92 52/133/92 53/138/92 54/141/92 108/235/92
f 136/298/93 110/241/93 109/238/93 135/296/93
f 121/271/94 120/269/94 114/253/94 117/261/94
f 139/304/95 111/244/95 110/242/95 136/297/95
f 135/295/96 109/239/96 112/247/96 144/314/96
f 144/313/97 112/248/97 111/245/97 139/303/97
f 111/246/98 112/249/98 109/240/98 110/243/98
f 117/262/99 114/254/99 116/259/99 115/256/99 113/250/99
f 124/277/100 121/270/100 117/263/100 113/251/100
f 120/268/101 129/284/101 116/260/101 114/255/101
f 130/286/102 124/276/102 113/252/102 115/257/102
f 129/284/103 130/285/103 115/258/103 116/260/103
f 57/150/104 56/148/104 132/289/104 127/282/104
f 127/282/105 132/289/105 131/287/105 128/283/105
f 128/283/106 131/287/106 130/285/106 129/284/106
f 56/149/107 2/4/107 126/280/107 132/290/107
f 132/290/108 126/280/108 125/278/108 131/288/108
f 131/288/109 125/278/109 124/276/109 130/286/109
f 54/142/110 57/150/110 127/282/110 118/264/110
f 118/264/111 127/282/111 128/283/111 119/266/111
f 119/266/112 128/283/112 129/284/112 120/268/112
f 2/5/113 108/237/113 123/274/113 126/281/113
f 126/281/114 123/274/114 122/272/114 125/279/114
f 125/279/115 122/272/115 121/270/115 124/277/115
f 108/236/116 54/143/116 118/265/116 123/275/116
f 123/275/117 118/265/117 119/267/117 122/273/117
f 122/273/118 119/267/118 120/269/118 121/271/118
f 54/144/119 142/309/119 141/307/119 53/139/119
f 142/309/120 143/311/120 140/305/120 141/307/120
f 143/311/121 144/313/121 139/303/121 140/305/121
f 4/12/122 133/291/122 142/310/122 54/145/122
f 133/291/123 134/293/123 143/312/123 142/310/123
f 134/293/124 135/295/124 144/314/124 143/312/124
f 53/140/125 141/308/125 138/301/125 52/134/125
f 141/308/126 140/306/126 137/299/126 138/301/126
f 140/306/127 139/304/127 136/297/127 137/299/127
f 52/135/128 138/302/128 133/292/128 4/13/128
f 138/302/129 137/300/129 134/294/129 133/292/129
f 137/300/130 136/298/130 135/296/130 134/294/130
f 105/230/131 1/3/131 88/202/131 59/153/131 108/237/131 2/5/131
f 86/199/132 85/195/132 83/192/132
f 83/192/133 85/195/133 18/45/133 23/58/133
f 63/158/134 15/37/134 23/59/134 18/46/134 12/31/134
f 84/194/135 18/47/135 85/196/135
l 52 106
