# Blender 3.3.1
# www.blender.org
mtllib monstruo_3_grande_caminar634.mtl
o monstruo_grande
v 0.401211 2.006235 0.266035
v 0.509970 1.180354 0.135648
v -0.701297 1.753728 0.206920
v -0.308073 1.094784 0.190664
v 0.561031 2.294311 -0.078102
v 0.554502 1.587518 -0.217773
v -0.828158 1.971267 -0.200626
v -0.727115 1.709678 -0.273547
v -0.309752 2.380026 0.499726
v 0.247671 2.281643 0.461793
v -0.439408 2.344990 0.601077
v -1.194048 2.008668 -0.030734
v -0.310473 2.556510 0.145346
v 0.246827 2.427662 0.202008
v -1.035961 1.878356 0.119987
v -0.473425 2.627390 0.174201
v -0.785575 2.258275 0.627647
v -1.474290 1.925278 0.250175
v -1.189578 1.965738 0.444694
v -0.981435 2.573081 0.371526
v -0.656899 2.661622 0.247594
v -0.512916 2.302146 0.578966
v -1.166732 1.893010 0.128715
v -1.751134 0.657542 0.921491
v -1.623280 0.636030 0.961001
v -1.616577 0.464713 0.755455
v -1.694615 0.477844 0.731340
v 0.405082 2.199466 0.447618
v 0.507370 2.396271 0.192356
v 0.362124 2.311133 0.459367
v 0.379200 2.448232 0.234676
v 0.655328 1.892728 0.261842
v 0.772802 1.987816 0.088814
v 0.673416 1.971927 0.310593
v 0.754974 2.089353 0.160825
v 0.844113 1.672845 0.218699
v 0.920807 1.706673 0.140162
v 0.925844 1.643704 0.279082
v 0.999202 1.685850 0.200312
v 0.866983 1.521951 0.252422
v 1.022639 1.607713 0.091529
v 0.972469 1.430240 0.391369
v 1.201439 1.557228 0.142923
v -0.148044 2.431655 0.517383
v 0.061850 2.404773 0.499381
v -0.149389 2.537259 0.270536
v 0.055636 2.511005 0.257940
v -0.093110 2.743222 0.665414
v 0.112212 2.678761 0.625420
v -0.105989 2.859394 0.413272
v 0.098480 2.795375 0.373047
v -0.504612 1.153442 -0.029457
v -0.380383 1.213101 -0.230201
v -0.042021 1.280614 -0.334039
v -0.759486 1.800590 -0.008318
v 0.559425 1.171566 -0.099921
v 0.353763 1.167869 -0.247964
v 0.006276 1.528130 -0.319142
v -0.031951 1.140429 0.179254
v 0.457452 2.091676 0.150824
v -0.303464 2.442889 0.375887
v -0.465277 2.596793 0.447358
v -0.974030 1.951334 -0.000360
v 0.226180 2.411216 0.362864
v -0.817533 2.485425 0.588498
v -1.364522 2.066452 0.492168
v -0.617788 2.580475 0.442914
v -1.697114 0.644924 0.972293
v -1.642150 0.358418 0.638438
v 0.491796 2.309956 0.350550
v 0.372419 2.424361 0.370451
v 0.672939 1.919827 0.135906
v 0.753642 2.042883 0.267863
v 0.881071 1.692494 0.179131
v 0.962419 1.663988 0.239396
v 0.925536 1.566429 0.155540
v 1.052471 1.498618 0.237864
v -0.149073 2.484437 0.393462
v 0.056808 2.458987 0.378103
v -0.130771 2.802584 0.541615
v 0.136832 2.735923 0.497252
v -1.501553 0.962073 0.905650
v -1.563877 0.789434 0.838635
v -1.722343 0.969546 0.838263
v -1.684218 0.809682 0.801447
v -1.627846 0.634399 0.742411
v -1.631901 0.945479 0.924903
v -0.050849 1.753028 0.521111
v 0.101413 2.134229 -0.181704
v 0.052384 2.517165 0.076552
v 0.003455 2.266989 0.632981
v -0.050010 2.523804 0.262872
v -0.039129 2.418330 0.507122
v -0.005903 2.844606 0.355056
v 0.011435 2.693569 0.683174
v 0.006839 2.819457 0.542532
v 0.090075 2.662655 0.291097
v 0.102403 2.531159 0.579434
v -0.133688 2.580049 0.613687
v -0.148715 2.711400 0.322717
v -0.157453 2.646689 0.469939
v 0.111462 2.596769 0.433948
v -0.031084 2.695802 0.286610
v -0.013830 2.545912 0.616104
v 0.443586 1.690454 0.003166
v -0.588395 1.472306 0.218985
v 0.560293 1.803628 -0.212376
v 0.150660 1.174630 0.200435
v -0.244627 0.048953 -0.290492
v -0.393612 0.043039 -0.173823
v -0.409824 0.064686 -0.423065
v -0.274163 0.061755 -0.433001
v 0.281474 0.009269 0.266170
v 0.209428 -0.008773 0.190944
v 0.291594 0.002686 0.228376
v 0.260579 -0.004414 0.202301
v 0.222202 0.008600 0.275741
v 0.086865 0.844507 -0.073446
v 0.113352 0.592089 0.068053
v 0.146878 0.304366 0.166583
v 0.175757 0.320633 0.345347
v 0.158653 0.578053 0.362786
v 0.167364 0.855626 0.338458
v 0.298521 0.314713 0.324404
v 0.365783 0.573314 0.327499
v 0.459292 0.907160 0.282337
v 0.342813 0.865690 -0.025181
v 0.291655 0.591183 0.105664
v 0.253164 0.303451 0.189695
v 0.318475 0.307636 0.244556
v 0.401872 0.599630 0.195488
v 0.500974 0.898268 0.096756
v -0.205703 0.805529 0.215391
v -0.185949 0.538156 0.089203
v -0.191078 0.312003 0.004976
v -0.476288 0.317773 -0.013949
v -0.474074 0.586979 0.038351
v -0.486579 0.839064 0.080207
v -0.500680 0.416884 -0.263215
v -0.495510 0.689507 -0.212994
v -0.485483 0.918105 -0.186696
v -0.091325 0.862931 -0.205353
v -0.152339 0.663631 -0.252796
v -0.206509 0.453814 -0.278223
vn -0.0851 0.5569 -0.8262
vn -0.0600 0.1233 -0.9906
vn 0.5728 -0.2172 -0.7904
vn -0.2478 -0.3195 0.9146
vn 0.9379 -0.0159 0.3466
vn 0.5990 0.7744 0.2037
vn 0.0955 0.9140 -0.3943
vn 0.5716 -0.2346 0.7863
vn -0.1006 0.9024 0.4190
vn -0.1878 0.5618 -0.8057
vn -0.0759 -0.5296 0.8449
vn -0.3892 -0.8661 -0.3136
vn -0.1816 -0.1393 0.9734
vn 0.3577 -0.8624 0.3581
vn 0.9555 -0.2619 0.1355
vn 0.0644 -0.7687 0.6364
vn 0.0972 0.9703 0.2216
vn 0.0521 -0.7584 0.6497
vn -0.6323 0.2532 0.7322
vn 0.9088 0.0283 -0.4163
vn -0.8960 0.0455 -0.4417
vn 0.5825 0.7456 0.3238
vn 0.5125 0.1760 0.8405
vn -0.2100 -0.5426 0.8133
vn -0.1145 0.6046 0.7883
vn -0.5091 -0.5048 0.6972
vn -0.3302 -0.5408 -0.7736
vn 0.8065 0.5668 -0.1684
vn -0.2022 -0.6227 0.7558
vn 0.4188 0.7779 -0.4685
vn 0.4445 0.2162 0.8693
vn 0.7488 0.3547 -0.5598
vn -0.3124 -0.3807 -0.8703
vn -0.0538 -0.8058 -0.5898
vn -0.5693 -0.1086 -0.8149
vn -0.6676 0.1637 0.7263
vn 0.6782 0.4208 0.6024
vn 0.9755 -0.0037 -0.2199
vn 0.3814 0.5551 0.7392
vn 0.1164 0.9930 0.0183
vn -0.2999 0.8669 0.3983
vn 0.3736 0.8950 0.2439
vn 0.0524 0.9661 0.2527
vn -0.9587 0.0989 0.2667
vn 0.3274 -0.3715 0.8688
vn -0.2837 0.5025 -0.8167
vn -0.6571 -0.5075 -0.5574
vn -0.8962 -0.4112 0.1667
vn 0.1425 0.1288 -0.9814
vn -0.9728 0.2310 -0.0165
vn 0.0677 0.8222 0.5652
vn 0.4274 0.7188 0.5484
vn -0.2503 0.8739 0.4167
vn 0.9880 -0.1431 0.0574
vn 0.4692 0.3001 0.8305
vn -0.7535 -0.2060 -0.6243
vn -0.1464 -0.8690 -0.4727
vn -0.6860 -0.6089 -0.3982
vn 0.7832 0.4594 0.4191
vn -0.4678 -0.7373 -0.4874
vn -0.1365 0.9832 0.1210
vn 0.7359 0.5855 0.3400
vn 0.6074 0.3353 0.7202
vn -0.4711 0.2605 -0.8427
vn 0.1425 0.1186 0.9827
vn -0.6250 -0.6445 0.4404
vn -0.2150 0.4271 0.8783
vn -0.7057 0.6167 0.3489
vn -0.3865 -0.8466 -0.3658
vn 0.2550 0.3776 0.8902
vn 0.5796 0.5591 0.5929
vn 0.2829 0.3053 0.9093
vn -0.4823 0.6026 -0.6358
vn -0.8411 0.3920 0.3727
vn 0.9573 -0.2780 0.0794
vn 0.5195 0.6878 0.5070
vn 0.2449 0.4340 -0.8670
vn -0.2002 -0.3125 0.9286
vn 0.5005 0.8528 0.1494
vn 0.3130 0.9494 0.0266
vn -0.0957 0.5114 0.8540
vn -0.4308 -0.1475 0.8903
vn 0.1402 0.7602 -0.6344
vn -0.0939 -0.5855 0.8052
vn 0.0321 0.1679 -0.9853
vn 0.9519 -0.2847 -0.1135
vn -0.9993 -0.0094 -0.0352
vn -0.1645 0.2202 -0.9615
vn 0.0820 -0.6087 0.7892
vn -0.9964 -0.0258 0.0808
vn 0.9535 -0.2359 -0.1875
vn 0.1263 -0.9539 -0.2723
vn 0.1705 -0.6313 0.7565
vn -0.9675 -0.1814 0.1761
vn -0.9621 -0.2726 0.0123
vn 0.9867 -0.0888 -0.1365
vn -0.0838 0.3858 -0.9188
vn -0.0271 -0.9961 -0.0844
vn 0.0451 -0.9799 0.1943
vn 0.1568 -0.1931 0.9686
vn 0.2145 -0.0339 -0.9761
vn 0.9611 -0.1005 0.2574
vn 0.6443 -0.0160 -0.7646
vn 0.5361 -0.5385 -0.6501
vn 0.5992 -0.4281 -0.6765
vn 0.6200 -0.2971 -0.7262
vn 0.9751 -0.0605 0.2135
vn 0.9462 -0.2384 0.2186
vn 0.9438 -0.2392 0.2279
vn 0.0980 -0.5341 -0.8397
vn 0.1930 -0.4576 -0.8679
vn 0.1974 -0.2980 -0.9339
vn 0.1292 0.4236 0.8966
vn 0.1720 0.0828 0.9816
vn 0.1660 -0.0553 0.9846
vn -0.9611 -0.0410 0.2733
vn -0.9843 0.0218 0.1753
vn -0.9856 -0.0685 0.1547
vn -0.1584 -0.1993 -0.9671
vn -0.0582 0.1789 -0.9821
vn -0.0873 0.1648 -0.9825
vn 0.9020 0.1551 0.4029
vn 0.9773 -0.1441 0.1551
vn 0.9914 -0.1283 -0.0260
vn -0.9685 0.0790 -0.2361
vn -0.9993 -0.0102 0.0356
vn -0.9960 -0.0034 0.0898
vn -0.5881 0.0622 0.8064
vn -0.3357 -0.3087 0.8899
vn -0.1411 -0.2611 0.9549
vn 0.5242 -0.1983 0.8282
vn 0.3313 0.3951 -0.8568
vn -0.2251 -0.4342 -0.8723
vn -0.2161 -0.8082 -0.5479
vn -0.8583 -0.0883 -0.5055
vt 0.882279 0.260085
vt 0.436089 0.649131
vt 0.117664 0.305524
vt 0.860974 0.338762
vt 0.079561 0.383885
vt 0.278417 0.728674
vt 0.111517 0.716819
vt 0.301243 0.337859
vt 0.232943 0.387386
vt 0.111517 0.662267
vt 0.671871 0.687525
vt 0.175114 0.511099
vt 0.930991 0.712692
vt 0.796001 0.259488
vt 0.522181 0.649131
vt 0.719621 0.316178
vt 0.801110 0.310020
vt 0.698705 0.366293
vt 0.510656 0.337024
vt 0.023033 0.717149
vt 0.367094 0.730187
vt 0.507246 0.358198
vt 0.018976 0.695717
vt 0.103380 0.570561
vt 0.268725 0.266033
vt 0.143950 0.273348
vt 0.098384 0.631539
vt 0.301351 0.259488
vt 0.128079 0.559933
vt 0.480438 0.333338
vt 0.348619 0.714075
vt 0.604958 0.268707
vt 0.031105 0.562973
vt 0.043818 0.625810
vt 0.721993 0.282954
vt 0.329365 0.336360
vt 0.302724 0.713315
vt 0.030374 0.549675
vt 0.582817 0.260846
vt 0.875347 0.642471
vt 0.380514 0.272320
vt 0.124895 0.517524
vt 0.813390 0.578569
vt 0.436089 0.332372
vt 0.956124 0.588845
vt 0.367094 0.692599
vt 0.367094 0.522797
vt 0.871643 0.594841
vt 0.398138 0.324445
vt 0.043891 0.509019
vt 0.796001 0.641153
vt 0.491075 0.268473
vt 0.032114 0.534706
vt 0.552485 0.259488
vt 0.331566 0.259909
vt 0.129819 0.544964
vt 0.339759 0.337186
vt 0.913298 0.588845
vt 0.317584 0.707220
vt 0.845734 0.463378
vt 0.311567 0.646434
vt 0.944558 0.353645
vt 0.398138 0.462439
vt 0.920230 0.354337
vt 0.870057 0.463781
vt 0.929709 0.374247
vt 0.357807 0.478584
vt 0.347994 0.663056
vt 0.944558 0.373825
vt 0.097076 0.285727
vt 0.229765 0.651022
vt 0.758050 0.297859
vt 0.168317 0.651042
vt 0.119329 0.272208
vt 0.094178 0.643292
vt 0.222768 0.636959
vt 0.746872 0.283208
vt 0.174541 0.636975
vt 0.045175 0.638147
vt 0.080672 0.327471
vt 0.442544 0.673801
vt 0.734592 0.339187
vt 0.484453 0.673801
vt 0.070725 0.319456
vt 0.218298 0.685110
vt 0.751374 0.331694
vt 0.180611 0.684911
vt 0.062412 0.356092
vt 0.455575 0.702696
vt 0.724658 0.367821
vt 0.476314 0.702696
vt 0.043357 0.357400
vt 0.210236 0.723455
vt 0.742364 0.370210
vt 0.189444 0.723462
vt 0.050281 0.367705
vt 0.444942 0.715336
vt 0.810526 0.722486
vt 0.728448 0.380153
vt 0.853695 0.722486
vt 0.487920 0.715336
vt 0.018975 0.371756
vt 0.232852 0.738567
vt 0.796001 0.739289
vt 0.758050 0.386241
vt 0.861207 0.739289
vt 0.167770 0.738589
vt 0.100634 0.583041
vt 0.712300 0.698974
vt 0.802197 0.701507
vt 0.098640 0.600731
vt 0.972705 0.287497
vt 0.747907 0.696578
vt 0.052045 0.577939
vt 0.849895 0.701507
vt 0.710445 0.675017
vt 0.050052 0.595630
vt 0.746553 0.677603
vt 0.924885 0.287497
vt 0.797725 0.671259
vt 0.981025 0.313792
vt 0.715147 0.730011
vt 0.752543 0.724602
vt 0.973919 0.259495
vt 0.967002 0.332143
vt 0.934252 0.306472
vt 0.715328 0.644023
vt 0.847669 0.671259
vt 0.923848 0.259495
vt 0.753088 0.649631
vt 0.920230 0.324823
vt 0.068284 0.665533
vt 0.630362 0.705721
vt 0.712055 0.621316
vt 0.966165 0.712391
vt 0.519769 0.388732
vt 0.031375 0.663704
vt 0.592215 0.695479
vt 0.581836 0.620019
vt 0.750017 0.621843
vt 0.569690 0.667298
vt 0.581066 0.387596
vt 0.531739 0.516092
vt 0.642835 0.625048
vt 0.273616 0.509019
vt 0.070982 0.710642
vt 0.316851 0.732164
vt 0.684917 0.393810
vt 0.816625 0.338063
vt 0.644803 0.392946
vt 0.602800 0.367236
vt 0.671871 0.661666
vt 0.181146 0.386242
vt 0.855113 0.259897
vt 0.463196 0.649131
vt 0.077903 0.567886
vt 0.078993 0.554271
vt 0.322237 0.720993
vt 0.070972 0.628379
vt 0.834014 0.651825
vt 0.084160 0.512738
vt 0.838315 0.596273
vt 0.320679 0.509019
vt 0.080733 0.539302
vt 0.857365 0.464048
vt 0.931678 0.351118
vt 0.335174 0.488977
vt 0.367094 0.673623
vt 0.939667 0.384854
vt 0.199177 0.651021
vt 0.069465 0.641494
vt 0.198664 0.632807
vt 0.464209 0.672968
vt 0.199604 0.684998
vt 0.465945 0.702696
vt 0.199840 0.723459
vt 0.466714 0.715004
vt 0.832520 0.720483
vt 0.200177 0.738589
vt 0.829423 0.735282
vt 0.076340 0.580490
vt 0.826046 0.701507
vt 0.074346 0.598181
vt 0.948795 0.287497
vt 0.823088 0.670800
vt 0.959731 0.307426
vt 0.948976 0.259488
vt 0.941524 0.331189
vt 0.875347 0.491894
vt 0.391834 0.432095
vt 0.377694 0.448634
vt 0.915590 0.478791
vt 0.834644 0.488373
vt 0.326937 0.619279
vt 0.938593 0.478810
vt 0.335216 0.632947
vt 0.358601 0.463790
vt 0.348787 0.648138
vt 0.927106 0.463378
vt 0.854274 0.489560
vt 0.315804 0.619182
vt 0.212520 0.321385
vt 0.644070 0.318501
vt 0.018976 0.592450
vt 0.663817 0.276029
vt 0.129819 0.597828
vt 0.224108 0.269832
vt 0.051049 0.586785
vt 0.728499 0.676310
vt 0.099637 0.591886
vt 0.730103 0.697776
vt 0.734390 0.646904
vt 0.920230 0.314550
vt 0.981025 0.324065
vt 0.732426 0.727384
vt 0.950683 0.319044
vt 0.753088 0.663662
vt 0.920230 0.273492
vt 0.977552 0.273492
vt 0.752543 0.710647
vt 0.709822 0.714522
vt 0.796001 0.686127
vt 0.853178 0.686127
vt 0.709822 0.659561
vt 0.824792 0.685890
vt 0.948939 0.273488
vt 0.731549 0.661651
vt 0.730449 0.712624
vt 0.878850 0.297575
vt 0.096711 0.342677
vt 0.285581 0.357771
vt 0.108549 0.696221
vt 0.804979 0.293594
vt 0.708839 0.350023
vt 0.668288 0.644023
vt 0.436089 0.526409
vt 0.145034 0.385321
vt 0.919159 0.607821
vt 0.247387 0.613831
vt 0.970304 0.416607
vt 0.947808 0.608020
vt 0.704660 0.516092
vt 0.970304 0.403829
vt 0.750017 0.516884
vt 0.618892 0.516092
vt 0.920230 0.404231
vt 0.273616 0.612878
vt 0.642836 0.516847
vt 0.938584 0.415207
vt 0.924281 0.443436
vt 0.075400 0.489812
vt 0.855524 0.444402
vt 0.531739 0.629156
vt 0.934913 0.435583
vt 0.576828 0.496673
vt 0.931440 0.443424
vt 0.848383 0.444289
vt 0.592622 0.497116
vt 0.934913 0.440184
vt 0.586164 0.496977
vt 0.517161 0.630156
vt 0.920230 0.438606
vt 0.085942 0.490043
vt 0.585376 0.420489
vt 0.510472 0.551446
vt 0.582586 0.444044
vt 0.504260 0.576063
vt 0.581388 0.469636
vt 0.508131 0.602400
vt 0.103684 0.463024
vt 0.477645 0.604263
vt 0.118194 0.440373
vt 0.454885 0.581958
vt 0.129418 0.415411
vt 0.438452 0.557360
vt 0.876897 0.417052
vt 0.081901 0.462161
vt 0.882279 0.393921
vt 0.081653 0.438865
vt 0.880271 0.363315
vt 0.079604 0.408162
vt 0.633117 0.418943
vt 0.615530 0.444447
vt 0.600997 0.469910
vt 0.614559 0.469949
vt 0.862035 0.416811
vt 0.638313 0.444473
vt 0.857648 0.390640
vt 0.666106 0.417503
vt 0.844696 0.362700
vt 0.167770 0.536691
vt 0.914144 0.688660
vt 0.182151 0.561697
vt 0.913298 0.663084
vt 0.189855 0.582503
vt 0.915415 0.641729
vt 0.680787 0.549268
vt 0.966165 0.641681
vt 0.684678 0.573659
vt 0.963812 0.665813
vt 0.684995 0.596421
vt 0.964308 0.688427
vt 0.584794 0.548886
vt 0.729850 0.550060
vt 0.578610 0.572959
vt 0.734888 0.574452
vt 0.569690 0.595426
vt 0.736445 0.597214
vt 0.642060 0.590920
vt 0.247172 0.543053
vt 0.641052 0.570535
vt 0.248998 0.562413
vt 0.635978 0.552556
vt 0.245738 0.579271
s 0
usemtl Material
f 89/203/1 7/19/1 13/32/1 90/205/1
f 8/22/2 7/19/2 89/203/2 58/151/2 54/142/2 53/136/2
f 6/18/3 56/148/3 57/150/3
f 3/8/4 106/231/4 4/9/4 59/153/4 88/202/4
f 6/17/5 107/233/5 5/14/5 60/154/5 1/1/5 105/229/5 2/4/5 56/149/5
f 61/156/6 13/33/6 16/38/6 62/157/6
f 5/16/7 14/35/7 31/77/7 29/72/7
f 88/202/8 1/3/8 10/26/8 91/207/8
f 67/164/9 21/53/9 20/50/9 65/161/9
f 13/32/10 7/19/10 12/30/10 16/39/10
f 3/8/11 9/25/11 11/28/11 15/36/11
f 55/147/12 3/6/12 15/37/12 63/158/12
f 66/162/13 19/48/13 17/40/13 65/160/13
f 23/57/14 22/55/14 17/41/14 19/49/14
f 83/191/15 82/190/15 25/63/15 26/67/15
f 15/36/16 11/28/16 22/55/16 23/57/16
f 62/157/17 16/38/17 21/53/17 67/164/17
f 69/169/18 26/66/18 25/64/18 68/166/18
f 87/200/19 84/193/19 24/60/19 68/165/19
f 86/197/20 83/191/20 26/67/20 69/167/20
f 84/194/21 85/196/21 27/68/21 24/61/21
f 70/170/22 29/73/22 31/78/22 71/172/22
f 70/170/23 28/71/23 34/85/23 73/174/23
f 10/26/24 1/3/24 28/70/24 30/74/24
f 64/159/25 10/27/25 30/75/25 71/171/25
f 34/84/26 32/80/26 36/88/26 38/92/26
f 60/155/27 5/15/27 33/83/27 72/173/27
f 5/16/28 29/72/28 35/86/28 33/82/28
f 28/70/29 1/3/29 32/80/29 34/84/29
f 37/90/30 39/94/30 43/105/30 41/99/30
f 73/174/31 34/85/31 38/93/31 75/176/31
f 33/82/32 35/86/32 39/94/32 37/90/32
f 72/173/33 33/83/33 37/91/33 74/175/33
f 76/178/34 41/100/34 43/106/34 77/180/34
f 74/175/35 37/91/35 41/101/35 76/177/35
f 38/92/36 36/88/36 40/96/36 42/102/36
f 75/176/37 38/93/37 42/103/37 77/179/37
f 102/226/38 97/218/38 51/129/38 81/187/38
f 91/206/39 10/27/39 45/111/39 93/210/39
f 90/204/40 13/33/40 46/114/40 92/208/40
f 61/156/41 9/24/41 44/108/41 78/181/41
f 64/159/42 14/34/42 47/117/42 79/183/42
f 96/216/43 94/213/43 50/126/43 80/186/43
f 101/225/44 99/222/44 48/120/44 80/185/44
f 104/228/45 98/220/45 49/123/45 95/215/45
f 103/227/46 100/224/46 50/127/46 94/212/46
f 8/23/47 53/137/47 52/132/47
f 8/23/48 52/132/48 4/10/48 106/232/48 3/7/48 55/146/48 7/20/48
f 54/142/49 58/151/49 89/203/49 5/16/49 107/234/49 6/18/49 57/150/49
f 100/223/50 101/225/50 80/185/50 50/128/50
f 95/214/51 96/216/51 80/186/51 48/121/51
f 10/27/52 64/159/52 79/183/52 45/111/52
f 13/33/53 61/156/53 78/181/53 46/114/53
f 98/219/54 102/226/54 81/187/54 49/124/54
f 39/95/55 75/176/55 77/179/55 43/107/55
f 36/89/56 74/175/56 76/177/56 40/97/56
f 40/98/57 76/178/57 77/180/57 42/104/57
f 32/81/58 72/173/58 74/175/58 36/89/58
f 35/87/59 73/174/59 75/176/59 39/95/59
f 1/2/60 60/155/60 72/173/60 32/81/60
f 14/34/61 64/159/61 71/171/61 31/79/61
f 29/73/62 70/170/62 73/174/62 35/87/62
f 28/71/63 70/170/63 71/172/63 30/76/63
f 85/196/64 86/198/64 69/168/64 27/68/64
f 82/189/65 87/200/65 68/165/65 25/65/65
f 27/69/66 69/169/66 68/166/66 24/62/66
f 11/29/67 62/157/67 67/164/67 22/56/67
f 18/43/68 66/162/68 65/160/68 20/51/68
f 7/21/69 55/147/69 63/158/69 12/31/69
f 22/56/70 67/164/70 65/161/70 17/42/70
f 9/24/71 61/156/71 62/157/71 11/29/71
f 19/48/72 66/162/72 87/200/72 82/189/72
f 12/30/73 18/44/73 20/52/73 21/54/73 16/39/73
f 66/163/74 18/47/74 84/194/74 87/201/74
f 23/57/75 19/49/75 82/190/75 83/191/75
f 49/125/76 81/188/76 96/216/76 95/214/76
f 97/217/77 103/227/77 94/212/77 51/130/77
f 99/221/78 104/228/78 95/215/78 48/122/78
f 81/188/79 51/131/79 94/213/79 96/216/79
f 14/34/80 90/204/80 92/208/80 47/117/80
f 9/24/81 91/206/81 93/210/81 44/108/81
f 3/8/82 88/202/82 91/207/82 9/25/82
f 5/16/83 89/203/83 90/205/83 14/35/83
f 44/109/84 93/211/84 104/228/84 99/221/84
f 47/118/85 92/209/85 103/227/85 97/217/85
f 45/112/86 79/184/86 102/226/86 98/219/86
f 46/115/87 78/182/87 101/225/87 100/223/87
f 92/209/88 46/116/88 100/224/88 103/227/88
f 93/211/89 45/113/89 98/220/89 104/228/89
f 78/182/90 44/110/90 99/222/90 101/225/90
f 79/184/91 47/119/91 97/218/91 102/226/91
f 59/152/92 4/11/92 52/133/92 53/138/92 54/141/92 108/235/92
f 136/298/93 110/241/93 109/238/93 135/296/93
f 121/271/94 120/269/94 114/253/94 117/261/94
f 139/304/95 111/244/95 110/242/95 136/297/95
f 135/295/96 109/239/96 112/247/96 144/314/96
f 144/313/97 112/248/97 111/245/97 139/303/97
f 111/246/98 112/249/98 109/240/98 110/243/98
f 117/262/99 114/254/99 116/259/99 115/256/99 113/250/99
f 124/277/100 121/270/100 117/263/100 113/251/100
f 120/268/101 129/284/101 116/260/101 114/255/101
f 130/286/102 124/276/102 113/252/102 115/257/102
f 129/284/103 130/285/103 115/258/103 116/260/103
f 57/150/104 56/148/104 132/289/104 127/282/104
f 127/282/105 132/289/105 131/287/105 128/283/105
f 128/283/106 131/287/106 130/285/106 129/284/106
f 56/149/107 2/4/107 126/280/107 132/290/107
f 132/290/108 126/280/108 125/278/108 131/288/108
f 131/288/109 125/278/109 124/276/109 130/286/109
f 54/142/110 57/150/110 127/282/110 118/264/110
f 118/264/111 127/282/111 128/283/111 119/266/111
f 119/266/112 128/283/112 129/284/112 120/268/112
f 2/5/113 108/237/113 123/274/113 126/281/113
f 126/281/114 123/274/114 122/272/114 125/279/114
f 125/279/115 122/272/115 121/270/115 124/277/115
f 108/236/116 54/143/116 118/265/116 123/275/116
f 123/275/117 118/265/117 119/267/117 122/273/117
f 122/273/118 119/267/118 120/269/118 121/271/118
f 54/144/119 142/309/119 141/307/119 53/139/119
f 142/309/120 143/311/120 140/305/120 141/307/120
f 143/311/121 144/313/121 139/303/121 140/305/121
f 4/12/122 133/291/122 142/310/122 54/145/122
f 133/291/123 134/293/123 143/312/123 142/310/123
f 134/293/124 135/295/124 144/314/124 143/312/124
f 53/140/125 141/308/125 138/301/125 52/134/125
f 141/308/126 140/306/126 137/299/126 138/301/126
f 140/306/127 139/304/127 136/297/127 137/299/127
f 52/135/128 138/302/128 133/292/128 4/13/128
f 138/302/129 137/300/129 134/294/129 133/292/129
f 137/300/130 136/298/130 135/296/130 134/294/130
f 105/230/131 1/3/131 88/202/131 59/153/131 108/237/131 2/5/131
f 86/199/132 85/195/132 83/192/132
f 83/192/133 85/195/133 18/45/133 23/58/133
f 63/158/134 15/37/134 23/59/134 18/46/134 12/31/134
f 84/194/135 18/47/135 85/196/135
l 52 106
