# Blender 3.3.1
# www.blender.org
mtllib monstruo_3_grande_caminar551.mtl
o monstruo_grande
v 0.584134 1.920183 0.424777
v 0.524501 1.092430 0.074632
v -0.572491 1.871758 0.145794
v -0.294171 1.222104 0.222250
v 0.906997 2.160372 0.172551
v 0.651303 1.529360 -0.215460
v -0.612328 2.085272 -0.297308
v -0.602067 1.767054 -0.346530
v -0.134767 2.408762 0.467962
v 0.389227 2.234435 0.533924
v -0.284649 2.396861 0.549560
v -0.946354 2.182575 -0.220839
v -0.056684 2.574102 0.120546
v 0.468937 2.352645 0.267423
v -0.841497 2.036414 -0.037782
v -0.205929 2.671295 0.124623
v -0.654241 2.363561 0.498923
v -1.282459 2.128729 -0.028140
v -1.049205 2.144964 0.221668
v -0.742469 2.703365 0.216885
v -0.387972 2.737267 0.167799
v -0.367085 2.363179 0.512628
v -0.966447 2.067105 -0.072131
v -1.783958 0.882046 0.546560
v -1.671131 0.854450 0.616408
v -1.620236 0.684635 0.415869
v -1.689102 0.701480 0.373235
v 0.499681 2.136812 0.553515
v 0.721314 2.302740 0.367183
v 0.492813 2.250444 0.552077
v 0.590100 2.361073 0.338952
v 0.772070 1.859684 0.582132
v 0.984794 1.867230 0.534748
v 0.782362 1.917236 0.610265
v 0.939814 2.004517 0.525160
v 0.834660 1.738678 0.851070
v 0.948741 1.712736 0.833161
v 0.866384 1.793145 0.936632
v 0.975651 1.766761 0.913294
v 0.788744 1.694956 0.994338
v 1.017211 1.641749 0.948460
v 0.784876 1.787497 1.168308
v 1.127620 1.700925 1.095441
v 0.031295 2.432808 0.514004
v 0.235710 2.385679 0.519584
v 0.071999 2.532007 0.269185
v 0.270750 2.476612 0.276229
v 0.086699 2.742028 0.657707
v 0.291940 2.668318 0.638873
v 0.101660 2.848720 0.401464
v 0.307320 2.774681 0.382368
v -0.499510 1.218276 0.023700
v -0.391105 1.194412 -0.191339
v -0.034364 1.281110 -0.332498
v -0.605948 1.916008 -0.085771
v 0.537917 1.152155 -0.159121
v 0.319883 1.183852 -0.275004
v 0.074778 1.519482 -0.315146
v -0.031630 1.125159 0.197924
v 0.702295 1.984000 0.349839
v -0.100563 2.466316 0.346492
v -0.243821 2.646274 0.393033
v -0.763232 2.095907 -0.131930
v 0.412151 2.355605 0.423896
v -0.639210 2.591272 0.462477
v -1.215058 2.265113 0.233197
v -0.395752 2.654337 0.365288
v -1.744996 0.866591 0.609020
v -1.620049 0.580537 0.294176
v 0.622368 2.238352 0.504438
v 0.546396 2.352503 0.467341
v 0.864187 1.819165 0.529182
v 0.874843 1.977748 0.619093
v 0.889787 1.724846 0.839852
v 0.921132 1.779316 0.924993
v 0.895108 1.651412 0.954543
v 0.942063 1.714439 1.100526
v 0.049517 2.481896 0.389971
v 0.250671 2.432616 0.396565
v 0.062755 2.797898 0.528968
v 0.330746 2.719170 0.511553
v -1.525859 1.175069 0.599511
v -1.576545 1.005967 0.515754
v -1.722164 1.193545 0.479641
v -1.682742 1.031940 0.450011
v -1.620751 0.854755 0.403647
v -1.657444 1.164248 0.585193
v 0.023484 1.747325 0.515794
v 0.338130 2.083728 -0.164571
v 0.294104 2.477137 0.099706
v 0.117660 2.266402 0.643277
v 0.165060 2.504552 0.270499
v 0.139637 2.409376 0.515768
v 0.206939 2.827613 0.353162
v 0.187096 2.689178 0.686656
v 0.200308 2.809564 0.541806
v 0.303095 2.636838 0.305192
v 0.280880 2.518467 0.597552
v 0.044741 2.579047 0.608252
v 0.066046 2.700402 0.313912
v 0.037552 2.641165 0.460610
v 0.306578 2.577289 0.451315
v 0.184854 2.676891 0.288852
v 0.162033 2.540073 0.622836
v 0.649163 1.571431 0.104680
v -0.536851 1.585155 0.178168
v 0.750919 1.720954 -0.148331
v 0.165848 1.068906 0.194761
v -0.278268 0.066424 0.159712
v -0.416053 0.092688 0.287152
v -0.454385 0.065281 0.040105
v -0.320467 0.052608 0.019690
v 0.316946 -0.078754 -0.059644
v 0.243467 -0.090893 -0.135035
v 0.326290 -0.082491 -0.097956
v 0.294768 -0.087633 -0.123933
v 0.257907 -0.080239 -0.049239
v 0.069797 0.826475 -0.164940
v 0.141448 0.542559 -0.123268
v 0.180972 0.238528 -0.110857
v 0.209141 0.204471 0.065628
v 0.188625 0.446436 0.154476
v 0.193777 0.719765 0.209054
v 0.332031 0.206107 0.044651
v 0.396416 0.454115 0.119492
v 0.480730 0.788905 0.146236
v 0.325451 0.841537 -0.145598
v 0.320093 0.533113 -0.089128
v 0.287208 0.232567 -0.088095
v 0.352303 0.221956 -0.033846
v 0.430933 0.517102 -0.001863
v 0.498322 0.837364 -0.039999
v -0.187178 0.969913 0.365206
v -0.191597 0.675321 0.359226
v -0.208808 0.432544 0.370756
v -0.493503 0.443409 0.354129
v -0.479425 0.714612 0.296844
v -0.478343 0.965727 0.248919
v -0.520070 0.444109 0.083573
v -0.504237 0.714491 0.026046
v -0.499678 0.936412 -0.027678
v -0.109541 0.858006 -0.056265
v -0.163592 0.658989 -0.005873
v -0.225039 0.458925 0.053839
vn 0.1131 0.5659 -0.8167
vn 0.0359 0.0559 -0.9978
vn 0.4241 -0.2572 -0.8683
vn -0.3847 -0.2113 0.8985
vn 0.8979 -0.3816 0.2195
vn 0.6839 0.6683 0.2927
vn 0.3285 0.8537 -0.4040
vn 0.2648 -0.2337 0.9356
vn -0.0471 0.9105 0.4109
vn 0.0803 0.5451 -0.8345
vn -0.3600 -0.4367 0.8245
vn -0.4821 -0.8134 -0.3254
vn -0.4093 -0.1126 0.9054
vn 0.1164 -0.9061 0.4068
vn 0.8791 -0.3060 0.3655
vn -0.2034 -0.7549 0.6235
vn 0.2206 0.9452 0.2406
vn -0.1444 -0.7651 0.6275
vn -0.7837 0.2751 0.5569
vn 0.9845 -0.0096 -0.1749
vn -0.7540 0.0900 -0.6507
vn 0.4771 0.7479 0.4616
vn -0.0425 0.2936 0.9550
vn -0.5109 -0.4285 0.7452
vn -0.2177 0.6830 0.6973
vn -0.9589 0.0846 0.2710
vn 0.1428 -0.7237 -0.6752
vn 0.8126 0.5573 0.1707
vn -0.5896 -0.5153 0.6219
vn 0.8229 0.1172 -0.5560
vn -0.2567 0.8385 0.4806
vn 0.9960 0.0776 0.0447
vn 0.1802 -0.9117 -0.3693
vn -0.0538 -0.9110 0.4089
vn -0.1381 -0.8581 -0.4945
vn -0.8232 0.5273 -0.2103
vn 0.4387 0.8722 0.2163
vn 0.9923 -0.0440 -0.1154
vn 0.3075 0.5213 0.7961
vn 0.2715 0.9614 0.0445
vn -0.2136 0.9119 0.3505
vn 0.4618 0.8498 0.2542
vn 0.0702 0.9725 0.2220
vn -0.9751 0.1420 0.1705
vn 0.2309 -0.3475 0.9088
vn -0.1875 0.4733 -0.8607
vn -0.8326 -0.4082 -0.3744
vn -0.9672 -0.1687 0.1902
vn 0.2492 0.2128 -0.9448
vn -0.9571 0.2581 -0.1317
vn 0.0507 0.8405 0.5395
vn 0.4298 0.6977 0.5732
vn -0.1755 0.9082 0.3800
vn 0.9719 -0.1730 0.1598
vn 0.1232 0.9498 0.2875
vn -0.4197 -0.7997 -0.4293
vn -0.2012 -0.8700 0.4501
vn -0.4309 -0.8653 -0.2559
vn 0.3233 0.8180 0.4758
vn -0.1615 -0.8895 -0.4275
vn -0.0256 0.9996 0.0106
vn 0.4551 0.6698 0.5868
vn 0.3542 0.2798 0.8923
vn -0.2331 0.2882 -0.9287
vn -0.1038 0.1042 0.9891
vn -0.7420 -0.6189 0.2575
vn -0.2820 0.4749 0.8336
vn -0.6642 0.7233 0.1889
vn -0.4722 -0.7955 -0.3798
vn 0.1078 0.3344 0.9362
vn 0.5662 0.4729 0.6751
vn 0.0983 0.2917 0.9514
vn -0.2409 0.6613 -0.7104
vn -0.8721 0.4544 0.1814
vn 0.8936 -0.3372 0.2964
vn 0.4998 0.6869 0.5277
vn 0.3432 0.3881 -0.8553
vn -0.2967 -0.2689 0.9163
vn 0.5207 0.8374 0.1663
vn 0.4468 0.8925 0.0618
vn -0.1435 0.5596 0.8162
vn -0.5554 -0.0730 0.8284
vn 0.4303 0.7021 -0.5674
vn -0.2121 -0.5565 0.8033
vn 0.1331 0.1191 -0.9839
vn 0.9386 -0.3449 0.0063
vn -0.9831 0.0107 -0.1830
vn -0.0656 0.1842 -0.9807
vn -0.0376 -0.5678 0.8223
vn -0.9993 0.0219 -0.0316
vn 0.9628 -0.2667 -0.0437
vn -0.1040 -0.9854 -0.1350
vn 0.2085 -0.3516 0.9126
vn -0.9685 -0.2069 0.1389
vn -0.9687 -0.2101 0.1323
vn 0.9773 -0.1675 -0.1296
vn -0.1160 0.1021 -0.9880
vn -0.0759 -0.9897 0.1212
vn 0.0458 -0.9919 0.1181
vn 0.1653 -0.3457 0.9237
vn 0.2107 0.1124 -0.9711
vn 0.9639 -0.1331 0.2306
vn 0.6389 0.1031 -0.7624
vn 0.4404 -0.3375 -0.8320
vn 0.5433 -0.1861 -0.8187
vn 0.6181 -0.0750 -0.7825
vn 0.9918 -0.1207 0.0421
vn 0.9711 -0.2234 0.0836
vn 0.9485 -0.2792 0.1499
vn 0.0724 -0.3395 -0.9378
vn 0.1228 -0.1488 -0.9812
vn 0.1948 -0.0197 -0.9806
vn 0.2547 0.1201 0.9595
vn 0.2153 -0.1605 0.9633
vn 0.1667 -0.3258 0.9306
vn -0.9468 -0.0854 0.3104
vn -0.9687 -0.1206 0.2169
vn -0.9839 -0.1260 0.1271
vn -0.1871 -0.4968 -0.8474
vn -0.1209 -0.2225 -0.9674
vn -0.1083 -0.2236 -0.9686
vn 0.9228 0.2336 0.3063
vn 0.9835 -0.1031 0.1489
vn 0.9849 -0.1726 0.0145
vn -0.9835 0.0330 -0.1778
vn -0.9962 0.0296 0.0824
vn -0.9927 0.0748 0.0943
vn -0.4885 0.4299 0.7594
vn -0.2898 0.0763 0.9540
vn -0.1234 0.1391 0.9826
vn 0.3356 -0.3859 0.8594
vn 0.5520 0.3865 -0.7389
vn -0.0420 -0.4267 -0.9034
vn -0.1536 -0.7767 -0.6108
vn -0.7123 -0.0454 -0.7004
vt 0.882279 0.260085
vt 0.436089 0.649131
vt 0.117664 0.305524
vt 0.860974 0.338762
vt 0.079561 0.383885
vt 0.278417 0.728674
vt 0.111517 0.716819
vt 0.301243 0.337859
vt 0.232943 0.387386
vt 0.111517 0.662267
vt 0.671871 0.687525
vt 0.175114 0.511099
vt 0.930991 0.712692
vt 0.796001 0.259488
vt 0.522181 0.649131
vt 0.719621 0.316178
vt 0.801110 0.310020
vt 0.698705 0.366293
vt 0.510656 0.337024
vt 0.023033 0.717149
vt 0.367094 0.730187
vt 0.507246 0.358198
vt 0.018976 0.695717
vt 0.103380 0.570561
vt 0.268725 0.266033
vt 0.143950 0.273348
vt 0.098384 0.631539
vt 0.301351 0.259488
vt 0.128079 0.559933
vt 0.480438 0.333338
vt 0.348619 0.714075
vt 0.604958 0.268707
vt 0.031105 0.562973
vt 0.043818 0.625810
vt 0.721993 0.282954
vt 0.329365 0.336360
vt 0.302724 0.713315
vt 0.030374 0.549675
vt 0.582817 0.260846
vt 0.875347 0.642471
vt 0.380514 0.272320
vt 0.124895 0.517524
vt 0.813390 0.578569
vt 0.436089 0.332372
vt 0.956124 0.588845
vt 0.367094 0.692599
vt 0.367094 0.522797
vt 0.871643 0.594841
vt 0.398138 0.324445
vt 0.043891 0.509019
vt 0.796001 0.641153
vt 0.491075 0.268473
vt 0.032114 0.534706
vt 0.552485 0.259488
vt 0.331566 0.259909
vt 0.129819 0.544964
vt 0.339759 0.337186
vt 0.913298 0.588845
vt 0.317584 0.707220
vt 0.845734 0.463378
vt 0.311567 0.646434
vt 0.944558 0.353645
vt 0.398138 0.462439
vt 0.920230 0.354337
vt 0.870057 0.463781
vt 0.929709 0.374247
vt 0.357807 0.478584
vt 0.347994 0.663056
vt 0.944558 0.373825
vt 0.097076 0.285727
vt 0.229765 0.651022
vt 0.758050 0.297859
vt 0.168317 0.651042
vt 0.119329 0.272208
vt 0.094178 0.643292
vt 0.222768 0.636959
vt 0.746872 0.283208
vt 0.174541 0.636975
vt 0.045175 0.638147
vt 0.080672 0.327471
vt 0.442544 0.673801
vt 0.734592 0.339187
vt 0.484453 0.673801
vt 0.070725 0.319456
vt 0.218298 0.685110
vt 0.751374 0.331694
vt 0.180611 0.684911
vt 0.062412 0.356092
vt 0.455575 0.702696
vt 0.724658 0.367821
vt 0.476314 0.702696
vt 0.043357 0.357400
vt 0.210236 0.723455
vt 0.742364 0.370210
vt 0.189444 0.723462
vt 0.050281 0.367705
vt 0.444942 0.715336
vt 0.810526 0.722486
vt 0.728448 0.380153
vt 0.853695 0.722486
vt 0.487920 0.715336
vt 0.018975 0.371756
vt 0.232852 0.738567
vt 0.796001 0.739289
vt 0.758050 0.386241
vt 0.861207 0.739289
vt 0.167770 0.738589
vt 0.100634 0.583041
vt 0.712300 0.698974
vt 0.802197 0.701507
vt 0.098640 0.600731
vt 0.972705 0.287497
vt 0.747907 0.696578
vt 0.052045 0.577939
vt 0.849895 0.701507
vt 0.710445 0.675017
vt 0.050052 0.595630
vt 0.746553 0.677603
vt 0.924885 0.287497
vt 0.797725 0.671259
vt 0.981025 0.313792
vt 0.715147 0.730011
vt 0.752543 0.724602
vt 0.973919 0.259495
vt 0.967002 0.332143
vt 0.934252 0.306472
vt 0.715328 0.644023
vt 0.847669 0.671259
vt 0.923848 0.259495
vt 0.753088 0.649631
vt 0.920230 0.324823
vt 0.068284 0.665533
vt 0.630362 0.705721
vt 0.712055 0.621316
vt 0.966165 0.712391
vt 0.519769 0.388732
vt 0.031375 0.663704
vt 0.592215 0.695479
vt 0.581836 0.620019
vt 0.750017 0.621843
vt 0.569690 0.667298
vt 0.581066 0.387596
vt 0.531739 0.516092
vt 0.642835 0.625048
vt 0.273616 0.509019
vt 0.070982 0.710642
vt 0.316851 0.732164
vt 0.684917 0.393810
vt 0.816625 0.338063
vt 0.644803 0.392946
vt 0.602800 0.367236
vt 0.671871 0.661666
vt 0.181146 0.386242
vt 0.855113 0.259897
vt 0.463196 0.649131
vt 0.077903 0.567886
vt 0.078993 0.554271
vt 0.322237 0.720993
vt 0.070972 0.628379
vt 0.834014 0.651825
vt 0.084160 0.512738
vt 0.838315 0.596273
vt 0.320679 0.509019
vt 0.080733 0.539302
vt 0.857365 0.464048
vt 0.931678 0.351118
vt 0.335174 0.488977
vt 0.367094 0.673623
vt 0.939667 0.384854
vt 0.199177 0.651021
vt 0.069465 0.641494
vt 0.198664 0.632807
vt 0.464209 0.672968
vt 0.199604 0.684998
vt 0.465945 0.702696
vt 0.199840 0.723459
vt 0.466714 0.715004
vt 0.832520 0.720483
vt 0.200177 0.738589
vt 0.829423 0.735282
vt 0.076340 0.580490
vt 0.826046 0.701507
vt 0.074346 0.598181
vt 0.948795 0.287497
vt 0.823088 0.670800
vt 0.959731 0.307426
vt 0.948976 0.259488
vt 0.941524 0.331189
vt 0.875347 0.491894
vt 0.391834 0.432095
vt 0.377694 0.448634
vt 0.915590 0.478791
vt 0.834644 0.488373
vt 0.326937 0.619279
vt 0.938593 0.478810
vt 0.335216 0.632947
vt 0.358601 0.463790
vt 0.348787 0.648138
vt 0.927106 0.463378
vt 0.854274 0.489560
vt 0.315804 0.619182
vt 0.212520 0.321385
vt 0.644070 0.318501
vt 0.018976 0.592450
vt 0.663817 0.276029
vt 0.129819 0.597828
vt 0.224108 0.269832
vt 0.051049 0.586785
vt 0.728499 0.676310
vt 0.099637 0.591886
vt 0.730103 0.697776
vt 0.734390 0.646904
vt 0.920230 0.314550
vt 0.981025 0.324065
vt 0.732426 0.727384
vt 0.950683 0.319044
vt 0.753088 0.663662
vt 0.920230 0.273492
vt 0.977552 0.273492
vt 0.752543 0.710647
vt 0.709822 0.714522
vt 0.796001 0.686127
vt 0.853178 0.686127
vt 0.709822 0.659561
vt 0.824792 0.685890
vt 0.948939 0.273488
vt 0.731549 0.661651
vt 0.730449 0.712624
vt 0.878850 0.297575
vt 0.096711 0.342677
vt 0.285581 0.357771
vt 0.108549 0.696221
vt 0.804979 0.293594
vt 0.708839 0.350023
vt 0.668288 0.644023
vt 0.436089 0.526409
vt 0.145034 0.385321
vt 0.919159 0.607821
vt 0.247387 0.613831
vt 0.970304 0.416607
vt 0.947808 0.608020
vt 0.704660 0.516092
vt 0.970304 0.403829
vt 0.750017 0.516884
vt 0.618892 0.516092
vt 0.920230 0.404231
vt 0.273616 0.612878
vt 0.642836 0.516847
vt 0.938584 0.415207
vt 0.924281 0.443436
vt 0.075400 0.489812
vt 0.855524 0.444402
vt 0.531739 0.629156
vt 0.934913 0.435583
vt 0.576828 0.496673
vt 0.931440 0.443424
vt 0.848383 0.444289
vt 0.592622 0.497116
vt 0.934913 0.440184
vt 0.586164 0.496977
vt 0.517161 0.630156
vt 0.920230 0.438606
vt 0.085942 0.490043
vt 0.585376 0.420489
vt 0.510472 0.551446
vt 0.582586 0.444044
vt 0.504260 0.576063
vt 0.581388 0.469636
vt 0.508131 0.602400
vt 0.103684 0.463024
vt 0.477645 0.604263
vt 0.118194 0.440373
vt 0.454885 0.581958
vt 0.129418 0.415411
vt 0.438452 0.557360
vt 0.876897 0.417052
vt 0.081901 0.462161
vt 0.882279 0.393921
vt 0.081653 0.438865
vt 0.880271 0.363315
vt 0.079604 0.408162
vt 0.633117 0.418943
vt 0.615530 0.444447
vt 0.600997 0.469910
vt 0.614559 0.469949
vt 0.862035 0.416811
vt 0.638313 0.444473
vt 0.857648 0.390640
vt 0.666106 0.417503
vt 0.844696 0.362700
vt 0.167770 0.536691
vt 0.914144 0.688660
vt 0.182151 0.561697
vt 0.913298 0.663084
vt 0.189855 0.582503
vt 0.915415 0.641729
vt 0.680787 0.549268
vt 0.966165 0.641681
vt 0.684678 0.573659
vt 0.963812 0.665813
vt 0.684995 0.596421
vt 0.964308 0.688427
vt 0.584794 0.548886
vt 0.729850 0.550060
vt 0.578610 0.572959
vt 0.734888 0.574452
vt 0.569690 0.595426
vt 0.736445 0.597214
vt 0.642060 0.590920
vt 0.247172 0.543053
vt 0.641052 0.570535
vt 0.248998 0.562413
vt 0.635978 0.552556
vt 0.245738 0.579271
s 0
usemtl Material
f 89/203/1 7/19/1 13/32/1 90/205/1
f 8/22/2 7/19/2 89/203/2 58/151/2 54/142/2 53/136/2
f 6/18/3 56/148/3 57/150/3
f 3/8/4 106/231/4 4/9/4 59/153/4 88/202/4
f 6/17/5 107/233/5 5/14/5 60/154/5 1/1/5 105/229/5 2/4/5 56/149/5
f 61/156/6 13/33/6 16/38/6 62/157/6
f 5/16/7 14/35/7 31/77/7 29/72/7
f 88/202/8 1/3/8 10/26/8 91/207/8
f 67/164/9 21/53/9 20/50/9 65/161/9
f 13/32/10 7/19/10 12/30/10 16/39/10
f 3/8/11 9/25/11 11/28/11 15/36/11
f 55/147/12 3/6/12 15/37/12 63/158/12
f 66/162/13 19/48/13 17/40/13 65/160/13
f 23/57/14 22/55/14 17/41/14 19/49/14
f 83/191/15 82/190/15 25/63/15 26/67/15
f 15/36/16 11/28/16 22/55/16 23/57/16
f 62/157/17 16/38/17 21/53/17 67/164/17
f 69/169/18 26/66/18 25/64/18 68/166/18
f 87/200/19 84/193/19 24/60/19 68/165/19
f 86/197/20 83/191/20 26/67/20 69/167/20
f 84/194/21 85/196/21 27/68/21 24/61/21
f 70/170/22 29/73/22 31/78/22 71/172/22
f 70/170/23 28/71/23 34/85/23 73/174/23
f 10/26/24 1/3/24 28/70/24 30/74/24
f 64/159/25 10/27/25 30/75/25 71/171/25
f 34/84/26 32/80/26 36/88/26 38/92/26
f 60/155/27 5/15/27 33/83/27 72/173/27
f 5/16/28 29/72/28 35/86/28 33/82/28
f 28/70/29 1/3/29 32/80/29 34/84/29
f 37/90/30 39/94/30 43/105/30 41/99/30
f 73/174/31 34/85/31 38/93/31 75/176/31
f 33/82/32 35/86/32 39/94/32 37/90/32
f 72/173/33 33/83/33 37/91/33 74/175/33
f 76/178/34 41/100/34 43/106/34 77/180/34
f 74/175/35 37/91/35 41/101/35 76/177/35
f 38/92/36 36/88/36 40/96/36 42/102/36
f 75/176/37 38/93/37 42/103/37 77/179/37
f 102/226/38 97/218/38 51/129/38 81/187/38
f 91/206/39 10/27/39 45/111/39 93/210/39
f 90/204/40 13/33/40 46/114/40 92/208/40
f 61/156/41 9/24/41 44/108/41 78/181/41
f 64/159/42 14/34/42 47/117/42 79/183/42
f 96/216/43 94/213/43 50/126/43 80/186/43
f 101/225/44 99/222/44 48/120/44 80/185/44
f 104/228/45 98/220/45 49/123/45 95/215/45
f 103/227/46 100/224/46 50/127/46 94/212/46
f 8/23/47 53/137/47 52/132/47
f 8/23/48 52/132/48 4/10/48 106/232/48 3/7/48 55/146/48 7/20/48
f 54/142/49 58/151/49 89/203/49 5/16/49 107/234/49 6/18/49 57/150/49
f 100/223/50 101/225/50 80/185/50 50/128/50
f 95/214/51 96/216/51 80/186/51 48/121/51
f 10/27/52 64/159/52 79/183/52 45/111/52
f 13/33/53 61/156/53 78/181/53 46/114/53
f 98/219/54 102/226/54 81/187/54 49/124/54
f 39/95/55 75/176/55 77/179/55 43/107/55
f 36/89/56 74/175/56 76/177/56 40/97/56
f 40/98/57 76/178/57 77/180/57 42/104/57
f 32/81/58 72/173/58 74/175/58 36/89/58
f 35/87/59 73/174/59 75/176/59 39/95/59
f 1/2/60 60/155/60 72/173/60 32/81/60
f 14/34/61 64/159/61 71/171/61 31/79/61
f 29/73/62 70/170/62 73/174/62 35/87/62
f 28/71/63 70/170/63 71/172/63 30/76/63
f 85/196/64 86/198/64 69/168/64 27/68/64
f 82/189/65 87/200/65 68/165/65 25/65/65
f 27/69/66 69/169/66 68/166/66 24/62/66
f 11/29/67 62/157/67 67/164/67 22/56/67
f 18/43/68 66/162/68 65/160/68 20/51/68
f 7/21/69 55/147/69 63/158/69 12/31/69
f 22/56/70 67/164/70 65/161/70 17/42/70
f 9/24/71 61/156/71 62/157/71 11/29/71
f 19/48/72 66/162/72 87/200/72 82/189/72
f 12/30/73 18/44/73 20/52/73 21/54/73 16/39/73
f 66/163/74 18/47/74 84/194/74 87/201/74
f 23/57/75 19/49/75 82/190/75 83/191/75
f 49/125/76 81/188/76 96/216/76 95/214/76
f 97/217/77 103/227/77 94/212/77 51/130/77
f 99/221/78 104/228/78 95/215/78 48/122/78
f 81/188/79 51/131/79 94/213/79 96/216/79
f 14/34/80 90/204/80 92/208/80 47/117/80
f 9/24/81 91/206/81 93/210/81 44/108/81
f 3/8/82 88/202/82 91/207/82 9/25/82
f 5/16/83 89/203/83 90/205/83 14/35/83
f 44/109/84 93/211/84 104/228/84 99/221/84
f 47/118/85 92/209/85 103/227/85 97/217/85
f 45/112/86 79/184/86 102/226/86 98/219/86
f 46/115/87 78/182/87 101/225/87 100/223/87
f 92/209/88 46/116/88 100/224/88 103/227/88
f 93/211/89 45/113/89 98/220/89 104/228/89
f 78/182/90 44/110/90 99/222/90 101/225/90
f 79/184/91 47/119/91 97/218/91 102/226/91
f 59/152/92 4/11/92 52/133/92 53/138/92 54/141/92 108/235/92
f 136/298/93 110/241/93 109/238/93 135/296/93
f 121/271/94 120/269/94 114/253/94 117/261/94
f 139/304/95 111/244/95 110/242/95 136/297/95
f 135/295/96 109/239/96 112/247/96 144/314/96
f 144/313/97 112/248/97 111/245/97 139/303/97
f 111/246/98 112/249/98 109/240/98 110/243/98
f 117/262/99 114/254/99 116/259/99 115/256/99 113/250/99
f 124/277/100 121/270/100 117/263/100 113/251/100
f 120/268/101 129/284/101 116/260/101 114/255/101
f 130/286/102 124/276/102 113/252/102 115/257/102
f 129/284/103 130/285/103 115/258/103 116/260/103
f 57/150/104 56/148/104 132/289/104 127/282/104
f 127/282/105 132/289/105 131/287/105 128/283/105
f 128/283/106 131/287/106 130/285/106 129/284/106
f 56/149/107 2/4/107 126/280/107 132/290/107
f 132/290/108 126/280/108 125/278/108 131/288/108
f 131/288/109 125/278/109 124/276/109 130/286/109
f 54/142/110 57/150/110 127/282/110 118/264/110
f 118/264/111 127/282/111 128/283/111 119/266/111
f 119/266/112 128/283/112 129/284/112 120/268/112
f 2/5/113 108/237/113 123/274/113 126/281/113
f 126/281/114 123/274/114 122/272/114 125/279/114
f 125/279/115 122/272/115 121/270/115 124/277/115
f 108/236/116 54/143/116 118/265/116 123/275/116
f 123/275/117 118/265/117 119/267/117 122/273/117
f 122/273/118 119/267/118 120/269/118 121/271/118
f 54/144/119 142/309/119 141/307/119 53/139/119
f 142/309/120 143/311/120 140/305/120 141/307/120
f 143/311/121 144/313/121 139/303/121 140/305/121
f 4/12/122 133/291/122 142/310/122 54/145/122
f 133/291/123 134/293/123 143/312/123 142/310/123
f 134/293/124 135/295/124 144/314/124 143/312/124
f 53/140/125 141/308/125 138/301/125 52/134/125
f 141/308/126 140/306/126 137/299/126 138/301/126
f 140/306/127 139/304/127 136/297/127 137/299/127
f 52/135/128 138/302/128 133/292/128 4/13/128
f 138/302/129 137/300/129 134/294/129 133/292/129
f 137/300/130 136/298/130 135/296/130 134/294/130
f 105/230/131 1/3/131 88/202/131 59/153/131 108/237/131 2/5/131
f 86/199/132 85/195/132 83/192/132
f 83/192/133 85/195/133 18/45/133 23/58/133
f 63/158/134 15/37/134 23/59/134 18/46/134 12/31/134
f 84/194/135 18/47/135 85/196/135
l 52 106
