# Blender 3.3.1
# www.blender.org
mtllib monstruo_3_grande_caminar520.mtl
o monstruo_grande
v 0.487902 1.962161 0.288944
v 0.522075 1.145678 0.107116
v -0.647712 1.832439 0.164126
v -0.323052 1.155391 0.205140
v 0.696759 2.232492 -0.043363
v 0.574778 1.556918 -0.239465
v -0.733676 2.068696 -0.259713
v -0.664987 1.767383 -0.332930
v -0.210798 2.407316 0.476155
v 0.332370 2.253909 0.466682
v -0.350444 2.385751 0.570479
v -1.089143 2.151311 -0.126859
v -0.173777 2.583607 0.125960
v 0.358857 2.396241 0.205328
v -0.959642 2.002043 0.033008
v -0.327741 2.672076 0.146788
v -0.716134 2.336865 0.563987
v -1.395539 2.082701 0.118105
v -1.132977 2.106698 0.335169
v -0.853504 2.677218 0.303410
v -0.507926 2.728012 0.210851
v -0.431760 2.348815 0.541402
v -1.087492 2.033314 0.024817
v -1.771688 0.822005 0.761255
v -1.649961 0.798172 0.815887
v -1.627412 0.616302 0.620802
v -1.701711 0.630849 0.587456
v 0.478672 2.161012 0.463908
v 0.616919 2.345891 0.217287
v 0.446711 2.274081 0.470424
v 0.489602 2.406161 0.246578
v 0.736005 1.835124 0.314717
v 0.880141 1.931370 0.161469
v 0.750714 1.919175 0.368008
v 0.854746 2.030421 0.227047
v 0.932528 1.609861 0.289385
v 1.019599 1.650536 0.229118
v 1.002231 1.581542 0.363656
v 1.087238 1.631355 0.303074
v 0.957373 1.458609 0.320365
v 1.135889 1.559813 0.197662
v 1.038312 1.364888 0.473693
v 1.304203 1.516698 0.282553
v -0.043128 2.440207 0.506297
v 0.164175 2.398375 0.495099
v -0.025674 2.545739 0.261271
v 0.173368 2.500181 0.252838
v 0.011618 2.754888 0.643099
v 0.217311 2.687081 0.611413
v 0.006709 2.859811 0.385977
v 0.212802 2.791813 0.354638
v -0.507108 1.189060 -0.025409
v -0.372689 1.207329 -0.226916
v -0.037277 1.276062 -0.333013
v -0.692682 1.883070 -0.061609
v 0.543402 1.140124 -0.129511
v 0.325587 1.142352 -0.253779
v 0.036726 1.521142 -0.324426
v -0.032878 1.149192 0.204754
v 0.561249 2.042035 0.179557
v -0.191265 2.469047 0.353367
v -0.338303 2.640080 0.417563
v -0.884108 2.064598 -0.077349
v 0.328777 2.383966 0.365680
v -0.715180 2.565496 0.531235
v -1.300853 2.218534 0.371008
v -0.491834 2.640740 0.404970
v -1.724176 0.810181 0.818358
v -1.644110 0.505030 0.506849
v 0.579630 2.265612 0.375116
v 0.473114 2.384777 0.381919
v 0.774129 1.864218 0.192040
v 0.838707 1.987275 0.333820
v 0.975252 1.633433 0.259021
v 1.044703 1.605792 0.333125
v 1.031307 1.511225 0.239381
v 1.143094 1.445521 0.342700
v -0.035848 2.492481 0.382829
v 0.166747 2.450165 0.373064
v -0.022297 2.808934 0.515830
v 0.246247 2.737892 0.481759
v -1.509885 1.116514 0.759120
v -1.571275 0.942886 0.693817
v -1.721257 1.127726 0.667218
v -1.685849 0.965318 0.642395
v -1.630358 0.785371 0.598501
v -1.642123 1.105447 0.764344
v -0.013933 1.764479 0.509251
v 0.201227 2.126592 -0.195150
v 0.180640 2.507976 0.074524
v 0.080232 2.263210 0.624373
v 0.069804 2.522429 0.255622
v 0.065924 2.421667 0.500512
v 0.109192 2.841559 0.331654
v 0.115216 2.705259 0.665789
v 0.115390 2.824744 0.519597
v 0.207014 2.654580 0.279435
v 0.208231 2.535777 0.572253
v -0.028497 2.589921 0.597957
v -0.030773 2.710513 0.303509
v -0.047157 2.650835 0.451198
v 0.222487 2.594790 0.424697
v 0.087093 2.690751 0.270926
v 0.090564 2.554745 0.604841
v 0.511891 1.646230 -0.025068
v -0.568500 1.537349 0.190694
v 0.611682 1.763834 -0.227944
v 0.168177 1.153404 0.216470
v -0.257214 0.170202 -0.372919
v -0.408007 0.120584 -0.269337
v -0.420586 0.225033 -0.497519
v -0.284782 0.230214 -0.504002
v 0.305069 -0.001960 0.169932
v 0.231878 -0.019169 0.095314
v 0.314596 -0.008169 0.131959
v 0.283184 -0.015037 0.106248
v 0.245961 -0.002823 0.180241
v 0.071803 0.835841 -0.048735
v 0.131629 0.604810 0.043381
v 0.168888 0.306341 0.090377
v 0.199400 0.296034 0.269406
v 0.181826 0.547920 0.325141
v 0.189625 0.826052 0.342348
v 0.321977 0.293768 0.246728
v 0.388992 0.549980 0.288596
v 0.477603 0.875722 0.267619
v 0.327008 0.844767 -0.026243
v 0.310642 0.598753 0.076277
v 0.275393 0.302518 0.112252
v 0.341203 0.298737 0.166543
v 0.422455 0.594673 0.163667
v 0.498374 0.869301 0.077838
v -0.239126 0.867415 0.289486
v -0.232683 0.570758 0.138445
v -0.242225 0.355038 0.004172
v -0.522797 0.383580 -0.040230
v -0.511113 0.644725 0.068707
v -0.511634 0.895319 0.139714
v -0.514233 0.532400 -0.267412
v -0.500805 0.780236 -0.155736
v -0.494705 0.933810 -0.127528
v -0.103463 0.862431 -0.116635
v -0.157352 0.735770 -0.163994
v -0.218452 0.549713 -0.246144
vn 0.0163 0.5837 -0.8118
vn 0.0037 0.0876 -0.9962
vn 0.4768 -0.2576 -0.8404
vn -0.3291 -0.2455 0.9118
vn 0.9482 -0.1644 0.2718
vn 0.6718 0.6995 0.2436
vn 0.1934 0.8964 -0.3988
vn 0.4846 -0.2706 0.8318
vn -0.0317 0.8995 0.4358
vn -0.0500 0.5809 -0.8124
vn -0.2299 -0.4928 0.8392
vn -0.4778 -0.8184 -0.3191
vn -0.2830 -0.1473 0.9477
vn 0.2043 -0.9064 0.3696
vn 0.9234 -0.2873 0.2546
vn -0.0900 -0.7768 0.6233
vn 0.1983 0.9500 0.2414
vn -0.0506 -0.7251 0.6868
vn -0.6991 0.3125 0.6431
vn 0.9497 -0.0246 -0.3122
vn -0.8392 0.0539 -0.5411
vn 0.6026 0.7133 0.3579
vn 0.4117 0.1850 0.8923
vn -0.3076 -0.5085 0.8042
vn -0.1103 0.6212 0.7759
vn -0.5986 -0.5091 0.6185
vn -0.2388 -0.5581 -0.7947
vn 0.8361 0.5422 -0.0834
vn -0.3195 -0.5913 0.7405
vn 0.4517 0.8212 -0.3489
vn 0.3201 0.1972 0.9266
vn 0.8199 0.3533 -0.4505
vn -0.1705 -0.3554 -0.9190
vn 0.1134 -0.7776 -0.6184
vn -0.3949 -0.1005 -0.9132
vn -0.8078 0.0896 0.5827
vn 0.5174 0.4210 0.7450
vn 0.9829 -0.0170 -0.1836
vn 0.4053 0.4878 0.7732
vn 0.2201 0.9744 0.0462
vn -0.2274 0.8929 0.3886
vn 0.4573 0.8536 0.2493
vn 0.0545 0.9758 0.2118
vn -0.9656 0.1149 0.2334
vn 0.2985 -0.3304 0.8954
vn -0.2569 0.4573 -0.8514
vn -0.7137 -0.4707 -0.5188
vn -0.9434 -0.2936 0.1545
vn 0.1551 0.1271 -0.9797
vn -0.9710 0.2292 -0.0675
vn 0.0605 0.8462 0.5295
vn 0.4910 0.6763 0.5492
vn -0.1825 0.8916 0.4143
vn 0.9851 -0.1417 0.0973
vn 0.2751 0.2789 0.9201
vn -0.6000 -0.2095 -0.7720
vn 0.0039 -0.8481 -0.5298
vn -0.6162 -0.5854 -0.5270
vn 0.7145 0.4529 0.5333
vn -0.4307 -0.7196 -0.5447
vn -0.0604 0.9928 0.1035
vn 0.7101 0.5724 0.4101
vn 0.5691 0.2953 0.7674
vn -0.3641 0.2326 -0.9019
vn 0.0375 0.1644 0.9857
vn -0.6953 -0.5988 0.3974
vn -0.2224 0.4410 0.8695
vn -0.6642 0.6901 0.2873
vn -0.4666 -0.7875 -0.4026
vn 0.2145 0.3238 0.9215
vn 0.6033 0.4891 0.6300
vn 0.2235 0.2858 0.9319
vn -0.3585 0.6651 -0.6550
vn -0.8622 0.4122 0.2944
vn 0.9390 -0.3042 0.1603
vn 0.5120 0.7057 0.4897
vn 0.2734 0.3887 -0.8799
vn -0.2266 -0.2683 0.9363
vn 0.5053 0.8534 0.1280
vn 0.4077 0.9114 0.0565
vn -0.1016 0.5021 0.8588
vn -0.4866 -0.1044 0.8674
vn 0.2614 0.7498 -0.6078
vn -0.1339 -0.5519 0.8231
vn 0.0567 0.1197 -0.9912
vn 0.9498 -0.3058 -0.0664
vn -0.9944 -0.0148 -0.1043
vn -0.1397 0.1735 -0.9749
vn 0.0351 -0.5630 0.8257
vn -0.9992 -0.0091 0.0383
vn 0.9584 -0.2510 -0.1358
vn 0.0447 -0.9817 -0.1853
vn 0.1212 -0.7887 0.6026
vn -0.9669 -0.1923 0.1678
vn -0.9604 -0.2471 -0.1290
vn 0.9947 -0.0804 -0.0636
vn -0.0050 0.6141 -0.7892
vn 0.0134 -0.9086 -0.4174
vn 0.0472 -0.9820 0.1830
vn 0.1707 -0.2570 0.9512
vn 0.2034 0.0240 -0.9788
vn 0.9651 -0.1133 0.2360
vn 0.6345 0.0311 -0.7723
vn 0.4409 -0.5665 -0.6962
vn 0.5387 -0.3694 -0.7572
vn 0.6098 -0.1707 -0.7740
vn 0.9903 -0.0956 0.1005
vn 0.9613 -0.2392 0.1366
vn 0.9470 -0.2669 0.1786
vn 0.0208 -0.5678 -0.8229
vn 0.1201 -0.3656 -0.9230
vn 0.1821 -0.1353 -0.9739
vn 0.2258 0.4141 0.8818
vn 0.2221 -0.0294 0.9746
vn 0.1730 -0.2020 0.9640
vn -0.9450 0.0139 0.3268
vn -0.9697 -0.0644 0.2358
vn -0.9824 -0.1004 0.1574
vn -0.1212 -0.3869 -0.9141
vn 0.0431 0.2515 -0.9669
vn 0.0357 0.4025 -0.9147
vn 0.8848 0.2023 0.4197
vn 0.9481 -0.2157 0.2336
vn 0.9792 -0.1975 0.0470
vn -0.9516 0.0731 -0.2984
vn -0.9986 0.0252 -0.0464
vn -0.9986 0.0529 -0.0084
vn -0.6010 0.2443 0.7610
vn -0.4018 -0.3487 0.8467
vn -0.2557 -0.4302 0.8658
vn 0.5114 -0.2399 0.8252
vn 0.4397 0.3385 -0.8319
vn -0.1605 -0.4252 -0.8908
vn -0.2396 -0.7718 -0.5890
vn -0.7905 -0.0795 -0.6072
vt 0.882279 0.260085
vt 0.436089 0.649131
vt 0.117664 0.305524
vt 0.860974 0.338762
vt 0.079561 0.383885
vt 0.278417 0.728674
vt 0.111517 0.716819
vt 0.301243 0.337859
vt 0.232943 0.387386
vt 0.111517 0.662267
vt 0.671871 0.687525
vt 0.175114 0.511099
vt 0.930991 0.712692
vt 0.796001 0.259488
vt 0.522181 0.649131
vt 0.719621 0.316178
vt 0.801110 0.310020
vt 0.698705 0.366293
vt 0.510656 0.337024
vt 0.023033 0.717149
vt 0.367094 0.730187
vt 0.507246 0.358198
vt 0.018976 0.695717
vt 0.103380 0.570561
vt 0.268725 0.266033
vt 0.143950 0.273348
vt 0.098384 0.631539
vt 0.301351 0.259488
vt 0.128079 0.559933
vt 0.480438 0.333338
vt 0.348619 0.714075
vt 0.604958 0.268707
vt 0.031105 0.562973
vt 0.043818 0.625810
vt 0.721993 0.282954
vt 0.329365 0.336360
vt 0.302724 0.713315
vt 0.030374 0.549675
vt 0.582817 0.260846
vt 0.875347 0.642471
vt 0.380514 0.272320
vt 0.124895 0.517524
vt 0.813390 0.578569
vt 0.436089 0.332372
vt 0.956124 0.588845
vt 0.367094 0.692599
vt 0.367094 0.522797
vt 0.871643 0.594841
vt 0.398138 0.324445
vt 0.043891 0.509019
vt 0.796001 0.641153
vt 0.491075 0.268473
vt 0.032114 0.534706
vt 0.552485 0.259488
vt 0.331566 0.259909
vt 0.129819 0.544964
vt 0.339759 0.337186
vt 0.913298 0.588845
vt 0.317584 0.707220
vt 0.845734 0.463378
vt 0.311567 0.646434
vt 0.944558 0.353645
vt 0.398138 0.462439
vt 0.920230 0.354337
vt 0.870057 0.463781
vt 0.929709 0.374247
vt 0.357807 0.478584
vt 0.347994 0.663056
vt 0.944558 0.373825
vt 0.097076 0.285727
vt 0.229765 0.651022
vt 0.758050 0.297859
vt 0.168317 0.651042
vt 0.119329 0.272208
vt 0.094178 0.643292
vt 0.222768 0.636959
vt 0.746872 0.283208
vt 0.174541 0.636975
vt 0.045175 0.638147
vt 0.080672 0.327471
vt 0.442544 0.673801
vt 0.734592 0.339187
vt 0.484453 0.673801
vt 0.070725 0.319456
vt 0.218298 0.685110
vt 0.751374 0.331694
vt 0.180611 0.684911
vt 0.062412 0.356092
vt 0.455575 0.702696
vt 0.724658 0.367821
vt 0.476314 0.702696
vt 0.043357 0.357400
vt 0.210236 0.723455
vt 0.742364 0.370210
vt 0.189444 0.723462
vt 0.050281 0.367705
vt 0.444942 0.715336
vt 0.810526 0.722486
vt 0.728448 0.380153
vt 0.853695 0.722486
vt 0.487920 0.715336
vt 0.018975 0.371756
vt 0.232852 0.738567
vt 0.796001 0.739289
vt 0.758050 0.386241
vt 0.861207 0.739289
vt 0.167770 0.738589
vt 0.100634 0.583041
vt 0.712300 0.698974
vt 0.802197 0.701507
vt 0.098640 0.600731
vt 0.972705 0.287497
vt 0.747907 0.696578
vt 0.052045 0.577939
vt 0.849895 0.701507
vt 0.710445 0.675017
vt 0.050052 0.595630
vt 0.746553 0.677603
vt 0.924885 0.287497
vt 0.797725 0.671259
vt 0.981025 0.313792
vt 0.715147 0.730011
vt 0.752543 0.724602
vt 0.973919 0.259495
vt 0.967002 0.332143
vt 0.934252 0.306472
vt 0.715328 0.644023
vt 0.847669 0.671259
vt 0.923848 0.259495
vt 0.753088 0.649631
vt 0.920230 0.324823
vt 0.068284 0.665533
vt 0.630362 0.705721
vt 0.712055 0.621316
vt 0.966165 0.712391
vt 0.519769 0.388732
vt 0.031375 0.663704
vt 0.592215 0.695479
vt 0.581836 0.620019
vt 0.750017 0.621843
vt 0.569690 0.667298
vt 0.581066 0.387596
vt 0.531739 0.516092
vt 0.642835 0.625048
vt 0.273616 0.509019
vt 0.070982 0.710642
vt 0.316851 0.732164
vt 0.684917 0.393810
vt 0.816625 0.338063
vt 0.644803 0.392946
vt 0.602800 0.367236
vt 0.671871 0.661666
vt 0.181146 0.386242
vt 0.855113 0.259897
vt 0.463196 0.649131
vt 0.077903 0.567886
vt 0.078993 0.554271
vt 0.322237 0.720993
vt 0.070972 0.628379
vt 0.834014 0.651825
vt 0.084160 0.512738
vt 0.838315 0.596273
vt 0.320679 0.509019
vt 0.080733 0.539302
vt 0.857365 0.464048
vt 0.931678 0.351118
vt 0.335174 0.488977
vt 0.367094 0.673623
vt 0.939667 0.384854
vt 0.199177 0.651021
vt 0.069465 0.641494
vt 0.198664 0.632807
vt 0.464209 0.672968
vt 0.199604 0.684998
vt 0.465945 0.702696
vt 0.199840 0.723459
vt 0.466714 0.715004
vt 0.832520 0.720483
vt 0.200177 0.738589
vt 0.829423 0.735282
vt 0.076340 0.580490
vt 0.826046 0.701507
vt 0.074346 0.598181
vt 0.948795 0.287497
vt 0.823088 0.670800
vt 0.959731 0.307426
vt 0.948976 0.259488
vt 0.941524 0.331189
vt 0.875347 0.491894
vt 0.391834 0.432095
vt 0.377694 0.448634
vt 0.915590 0.478791
vt 0.834644 0.488373
vt 0.326937 0.619279
vt 0.938593 0.478810
vt 0.335216 0.632947
vt 0.358601 0.463790
vt 0.348787 0.648138
vt 0.927106 0.463378
vt 0.854274 0.489560
vt 0.315804 0.619182
vt 0.212520 0.321385
vt 0.644070 0.318501
vt 0.018976 0.592450
vt 0.663817 0.276029
vt 0.129819 0.597828
vt 0.224108 0.269832
vt 0.051049 0.586785
vt 0.728499 0.676310
vt 0.099637 0.591886
vt 0.730103 0.697776
vt 0.734390 0.646904
vt 0.920230 0.314550
vt 0.981025 0.324065
vt 0.732426 0.727384
vt 0.950683 0.319044
vt 0.753088 0.663662
vt 0.920230 0.273492
vt 0.977552 0.273492
vt 0.752543 0.710647
vt 0.709822 0.714522
vt 0.796001 0.686127
vt 0.853178 0.686127
vt 0.709822 0.659561
vt 0.824792 0.685890
vt 0.948939 0.273488
vt 0.731549 0.661651
vt 0.730449 0.712624
vt 0.878850 0.297575
vt 0.096711 0.342677
vt 0.285581 0.357771
vt 0.108549 0.696221
vt 0.804979 0.293594
vt 0.708839 0.350023
vt 0.668288 0.644023
vt 0.436089 0.526409
vt 0.145034 0.385321
vt 0.919159 0.607821
vt 0.247387 0.613831
vt 0.970304 0.416607
vt 0.947808 0.608020
vt 0.704660 0.516092
vt 0.970304 0.403829
vt 0.750017 0.516884
vt 0.618892 0.516092
vt 0.920230 0.404231
vt 0.273616 0.612878
vt 0.642836 0.516847
vt 0.938584 0.415207
vt 0.924281 0.443436
vt 0.075400 0.489812
vt 0.855524 0.444402
vt 0.531739 0.629156
vt 0.934913 0.435583
vt 0.576828 0.496673
vt 0.931440 0.443424
vt 0.848383 0.444289
vt 0.592622 0.497116
vt 0.934913 0.440184
vt 0.586164 0.496977
vt 0.517161 0.630156
vt 0.920230 0.438606
vt 0.085942 0.490043
vt 0.585376 0.420489
vt 0.510472 0.551446
vt 0.582586 0.444044
vt 0.504260 0.576063
vt 0.581388 0.469636
vt 0.508131 0.602400
vt 0.103684 0.463024
vt 0.477645 0.604263
vt 0.118194 0.440373
vt 0.454885 0.581958
vt 0.129418 0.415411
vt 0.438452 0.557360
vt 0.876897 0.417052
vt 0.081901 0.462161
vt 0.882279 0.393921
vt 0.081653 0.438865
vt 0.880271 0.363315
vt 0.079604 0.408162
vt 0.633117 0.418943
vt 0.615530 0.444447
vt 0.600997 0.469910
vt 0.614559 0.469949
vt 0.862035 0.416811
vt 0.638313 0.444473
vt 0.857648 0.390640
vt 0.666106 0.417503
vt 0.844696 0.362700
vt 0.167770 0.536691
vt 0.914144 0.688660
vt 0.182151 0.561697
vt 0.913298 0.663084
vt 0.189855 0.582503
vt 0.915415 0.641729
vt 0.680787 0.549268
vt 0.966165 0.641681
vt 0.684678 0.573659
vt 0.963812 0.665813
vt 0.684995 0.596421
vt 0.964308 0.688427
vt 0.584794 0.548886
vt 0.729850 0.550060
vt 0.578610 0.572959
vt 0.734888 0.574452
vt 0.569690 0.595426
vt 0.736445 0.597214
vt 0.642060 0.590920
vt 0.247172 0.543053
vt 0.641052 0.570535
vt 0.248998 0.562413
vt 0.635978 0.552556
vt 0.245738 0.579271
s 0
usemtl Material
f 89/203/1 7/19/1 13/32/1 90/205/1
f 8/22/2 7/19/2 89/203/2 58/151/2 54/142/2 53/136/2
f 6/18/3 56/148/3 57/150/3
f 3/8/4 106/231/4 4/9/4 59/153/4 88/202/4
f 6/17/5 107/233/5 5/14/5 60/154/5 1/1/5 105/229/5 2/4/5 56/149/5
f 61/156/6 13/33/6 16/38/6 62/157/6
f 5/16/7 14/35/7 31/77/7 29/72/7
f 88/202/8 1/3/8 10/26/8 91/207/8
f 67/164/9 21/53/9 20/50/9 65/161/9
f 13/32/10 7/19/10 12/30/10 16/39/10
f 3/8/11 9/25/11 11/28/11 15/36/11
f 55/147/12 3/6/12 15/37/12 63/158/12
f 66/162/13 19/48/13 17/40/13 65/160/13
f 23/57/14 22/55/14 17/41/14 19/49/14
f 83/191/15 82/190/15 25/63/15 26/67/15
f 15/36/16 11/28/16 22/55/16 23/57/16
f 62/157/17 16/38/17 21/53/17 67/164/17
f 69/169/18 26/66/18 25/64/18 68/166/18
f 87/200/19 84/193/19 24/60/19 68/165/19
f 86/197/20 83/191/20 26/67/20 69/167/20
f 84/194/21 85/196/21 27/68/21 24/61/21
f 70/170/22 29/73/22 31/78/22 71/172/22
f 70/170/23 28/71/23 34/85/23 73/174/23
f 10/26/24 1/3/24 28/70/24 30/74/24
f 64/159/25 10/27/25 30/75/25 71/171/25
f 34/84/26 32/80/26 36/88/26 38/92/26
f 60/155/27 5/15/27 33/83/27 72/173/27
f 5/16/28 29/72/28 35/86/28 33/82/28
f 28/70/29 1/3/29 32/80/29 34/84/29
f 37/90/30 39/94/30 43/105/30 41/99/30
f 73/174/31 34/85/31 38/93/31 75/176/31
f 33/82/32 35/86/32 39/94/32 37/90/32
f 72/173/33 33/83/33 37/91/33 74/175/33
f 76/178/34 41/100/34 43/106/34 77/180/34
f 74/175/35 37/91/35 41/101/35 76/177/35
f 38/92/36 36/88/36 40/96/36 42/102/36
f 75/176/37 38/93/37 42/103/37 77/179/37
f 102/226/38 97/218/38 51/129/38 81/187/38
f 91/206/39 10/27/39 45/111/39 93/210/39
f 90/204/40 13/33/40 46/114/40 92/208/40
f 61/156/41 9/24/41 44/108/41 78/181/41
f 64/159/42 14/34/42 47/117/42 79/183/42
f 96/216/43 94/213/43 50/126/43 80/186/43
f 101/225/44 99/222/44 48/120/44 80/185/44
f 104/228/45 98/220/45 49/123/45 95/215/45
f 103/227/46 100/224/46 50/127/46 94/212/46
f 8/23/47 53/137/47 52/132/47
f 8/23/48 52/132/48 4/10/48 106/232/48 3/7/48 55/146/48 7/20/48
f 54/142/49 58/151/49 89/203/49 5/16/49 107/234/49 6/18/49 57/150/49
f 100/223/50 101/225/50 80/185/50 50/128/50
f 95/214/51 96/216/51 80/186/51 48/121/51
f 10/27/52 64/159/52 79/183/52 45/111/52
f 13/33/53 61/156/53 78/181/53 46/114/53
f 98/219/54 102/226/54 81/187/54 49/124/54
f 39/95/55 75/176/55 77/179/55 43/107/55
f 36/89/56 74/175/56 76/177/56 40/97/56
f 40/98/57 76/178/57 77/180/57 42/104/57
f 32/81/58 72/173/58 74/175/58 36/89/58
f 35/87/59 73/174/59 75/176/59 39/95/59
f 1/2/60 60/155/60 72/173/60 32/81/60
f 14/34/61 64/159/61 71/171/61 31/79/61
f 29/73/62 70/170/62 73/174/62 35/87/62
f 28/71/63 70/170/63 71/172/63 30/76/63
f 85/196/64 86/198/64 69/168/64 27/68/64
f 82/189/65 87/200/65 68/165/65 25/65/65
f 27/69/66 69/169/66 68/166/66 24/62/66
f 11/29/67 62/157/67 67/164/67 22/56/67
f 18/43/68 66/162/68 65/160/68 20/51/68
f 7/21/69 55/147/69 63/158/69 12/31/69
f 22/56/70 67/164/70 65/161/70 17/42/70
f 9/24/71 61/156/71 62/157/71 11/29/71
f 19/48/72 66/162/72 87/200/72 82/189/72
f 12/30/73 18/44/73 20/52/73 21/54/73 16/39/73
f 66/163/74 18/47/74 84/194/74 87/201/74
f 23/57/75 19/49/75 82/190/75 83/191/75
f 49/125/76 81/188/76 96/216/76 95/214/76
f 97/217/77 103/227/77 94/212/77 51/130/77
f 99/221/78 104/228/78 95/215/78 48/122/78
f 81/188/79 51/131/79 94/213/79 96/216/79
f 14/34/80 90/204/80 92/208/80 47/117/80
f 9/24/81 91/206/81 93/210/81 44/108/81
f 3/8/82 88/202/82 91/207/82 9/25/82
f 5/16/83 89/203/83 90/205/83 14/35/83
f 44/109/84 93/211/84 104/228/84 99/221/84
f 47/118/85 92/209/85 103/227/85 97/217/85
f 45/112/86 79/184/86 102/226/86 98/219/86
f 46/115/87 78/182/87 101/225/87 100/223/87
f 92/209/88 46/116/88 100/224/88 103/227/88
f 93/211/89 45/113/89 98/220/89 104/228/89
f 78/182/90 44/110/90 99/222/90 101/225/90
f 79/184/91 47/119/91 97/218/91 102/226/91
f 59/152/92 4/11/92 52/133/92 53/138/92 54/141/92 108/235/92
f 136/298/93 110/241/93 109/238/93 135/296/93
f 121/271/94 120/269/94 114/253/94 117/261/94
f 139/304/95 111/244/95 110/242/95 136/297/95
f 135/295/96 109/239/96 112/247/96 144/314/96
f 144/313/97 112/248/97 111/245/97 139/303/97
f 111/246/98 112/249/98 109/240/98 110/243/98
f 117/262/99 114/254/99 116/259/99 115/256/99 113/250/99
f 124/277/100 121/270/100 117/263/100 113/251/100
f 120/268/101 129/284/101 116/260/101 114/255/101
f 130/286/102 124/276/102 113/252/102 115/257/102
f 129/284/103 130/285/103 115/258/103 116/260/103
f 57/150/104 56/148/104 132/289/104 127/282/104
f 127/282/105 132/289/105 131/287/105 128/283/105
f 128/283/106 131/287/106 130/285/106 129/284/106
f 56/149/107 2/4/107 126/280/107 132/290/107
f 132/290/108 126/280/108 125/278/108 131/288/108
f 131/288/109 125/278/109 124/276/109 130/286/109
f 54/142/110 57/150/110 127/282/110 118/264/110
f 118/264/111 127/282/111 128/283/111 119/266/111
f 119/266/112 128/283/112 129/284/112 120/268/112
f 2/5/113 108/237/113 123/274/113 126/281/113
f 126/281/114 123/274/114 122/272/114 125/279/114
f 125/279/115 122/272/115 121/270/115 124/277/115
f 108/236/116 54/143/116 118/265/116 123/275/116
f 123/275/117 118/265/117 119/267/117 122/273/117
f 122/273/118 119/267/118 120/269/118 121/271/118
f 54/144/119 142/309/119 141/307/119 53/139/119
f 142/309/120 143/311/120 140/305/120 141/307/120
f 143/311/121 144/313/121 139/303/121 140/305/121
f 4/12/122 133/291/122 142/310/122 54/145/122
f 133/291/123 134/293/123 143/312/123 142/310/123
f 134/293/124 135/295/124 144/314/124 143/312/124
f 53/140/125 141/308/125 138/301/125 52/134/125
f 141/308/126 140/306/126 137/299/126 138/301/126
f 140/306/127 139/304/127 136/297/127 137/299/127
f 52/135/128 138/302/128 133/292/128 4/13/128
f 138/302/129 137/300/129 134/294/129 133/292/129
f 137/300/130 136/298/130 135/296/130 134/294/130
f 105/230/131 1/3/131 88/202/131 59/153/131 108/237/131 2/5/131
f 86/199/132 85/195/132 83/192/132
f 83/192/133 85/195/133 18/45/133 23/58/133
f 63/158/134 15/37/134 23/59/134 18/46/134 12/31/134
f 84/194/135 18/47/135 85/196/135
l 52 106
