# Blender 3.3.1
# www.blender.org
mtllib monstruo_3_caminar539.mtl
o monstruo_grande
v 0.583232 1.918184 0.388457
v 0.526671 1.108093 0.085554
v -0.569108 1.876084 0.156868
v -0.287865 1.207328 0.226981
v 0.886680 2.151621 0.102441
v 0.636579 1.517817 -0.243896
v -0.629120 2.101662 -0.280221
v -0.614892 1.784028 -0.327072
v -0.123913 2.414198 0.464826
v 0.402471 2.233194 0.505587
v -0.270422 2.401857 0.552056
v -0.952194 2.198475 -0.204773
v -0.059802 2.582086 0.116332
v 0.470320 2.353347 0.236549
v -0.841319 2.045847 -0.029992
v -0.208999 2.679416 0.127762
v -0.643375 2.362889 0.509340
v -1.281229 2.133976 -0.010635
v -1.043094 2.145557 0.235657
v -0.742262 2.708190 0.238196
v -0.389678 2.745470 0.179654
v -0.354912 2.366431 0.516116
v -0.966522 2.076896 -0.062066
v -1.751848 0.858502 0.523690
v -1.636840 0.829292 0.589190
v -1.589209 0.669623 0.379713
v -1.659407 0.687452 0.339734
v 0.518148 2.136688 0.523229
v 0.726341 2.296484 0.315026
v 0.508812 2.248028 0.519796
v 0.595627 2.359032 0.300773
v 0.792706 1.834105 0.530316
v 0.994663 1.864500 0.435311
v 0.799762 1.906489 0.556861
v 0.949118 1.993894 0.450107
v 0.934701 1.662928 0.743518
v 1.041304 1.661055 0.695515
v 0.978760 1.708504 0.828795
v 1.081210 1.707633 0.776731
v 0.934390 1.589290 0.881882
v 1.148117 1.588267 0.776136
v 0.961242 1.651241 1.067045
v 1.282872 1.645815 0.903329
v 0.045351 2.437120 0.504104
v 0.249788 2.386296 0.501062
v 0.076839 2.538468 0.258894
v 0.276013 2.479883 0.257255
v 0.102748 2.745435 0.645103
v 0.307706 2.672623 0.620557
v 0.110259 2.852172 0.388634
v 0.316094 2.778713 0.363880
v -0.499298 1.216462 0.031020
v -0.396667 1.202842 -0.188169
v -0.042080 1.277145 -0.332851
v -0.609820 1.924333 -0.070085
v 0.539653 1.130875 -0.154598
v 0.320303 1.147075 -0.272020
v 0.061308 1.516892 -0.322502
v -0.025270 1.140087 0.199893
v 0.692697 1.981520 0.301360
v -0.094554 2.472391 0.342363
v -0.235240 2.652408 0.395859
v -0.766765 2.108750 -0.117652
v 0.421700 2.355110 0.395879
v -0.631287 2.591394 0.477467
v -1.210094 2.262664 0.254219
v -0.388516 2.660679 0.374397
v -1.711026 0.840730 0.584319
v -1.590977 0.571255 0.253356
v 0.639259 2.234916 0.461356
v 0.558755 2.349704 0.432273
v 0.877206 1.809595 0.447457
v 0.894679 1.967205 0.551013
v 0.986390 1.661987 0.717674
v 1.030136 1.707638 0.802644
v 1.032331 1.574113 0.811383
v 1.105006 1.621767 0.952576
v 0.059871 2.488022 0.380505
v 0.260441 2.434160 0.377893
v 0.074979 2.801180 0.517081
v 0.342958 2.723459 0.492234
v -1.496161 1.152342 0.583381
v -1.546931 0.986589 0.493225
v -1.695849 1.173566 0.469641
v -1.655181 1.014081 0.431576
v -1.592215 0.840101 0.375421
v -1.627936 1.140359 0.572043
v 0.035928 1.755667 0.508517
v 0.312411 2.089157 -0.189983
v 0.289917 2.482599 0.079125
v 0.136843 2.268119 0.628582
v 0.170630 2.509859 0.256372
v 0.153455 2.412733 0.501732
v 0.214633 2.831445 0.337571
v 0.204143 2.693030 0.671243
v 0.212784 2.813452 0.526078
v 0.310523 2.640468 0.286698
v 0.296817 2.521900 0.579475
v 0.060565 2.582276 0.597057
v 0.073390 2.704248 0.302731
v 0.049227 2.644568 0.449904
v 0.318251 2.580787 0.432605
v 0.191733 2.680805 0.274128
v 0.178131 2.543720 0.608188
v 0.627464 1.582850 0.043192
v -0.530032 1.582699 0.194965
v 0.727640 1.708864 -0.194652
v 0.170019 1.105058 0.206556
v -0.292459 0.156690 -0.218882
v -0.419905 0.121199 -0.083177
v -0.477009 0.206913 -0.312522
v -0.345316 0.206632 -0.346703
v 0.306122 -0.038213 0.018178
v 0.232532 -0.051308 -0.056968
v 0.315429 -0.043042 -0.020011
v 0.283856 -0.048449 -0.045870
v 0.247063 -0.038700 0.028550
v 0.071087 0.821507 -0.098468
v 0.142410 0.583771 -0.045214
v 0.175702 0.281395 -0.038687
v 0.201160 0.246908 0.138134
v 0.184299 0.489266 0.226678
v 0.194106 0.762470 0.281246
v 0.324295 0.246155 0.118593
v 0.392782 0.493660 0.195966
v 0.481935 0.820043 0.212990
v 0.326658 0.828912 -0.080706
v 0.320428 0.571341 -0.009674
v 0.281545 0.273415 -0.014673
v 0.345785 0.261571 0.040334
v 0.430004 0.554361 0.078622
v 0.499601 0.839016 0.022912
v -0.184084 0.936674 0.347345
v -0.196787 0.623370 0.240744
v -0.218672 0.390809 0.137430
v -0.502668 0.412458 0.130370
v -0.483955 0.686926 0.202228
v -0.477532 0.948664 0.240807
v -0.530115 0.531289 -0.113088
v -0.508948 0.791716 -0.036260
v -0.504897 0.946685 -0.027886
v -0.116179 0.870583 -0.069986
v -0.169476 0.746660 -0.087340
v -0.234887 0.552345 -0.136181
vn 0.0830 0.5705 -0.8171
vn -0.0023 0.0511 -0.9987
vn 0.4320 -0.3042 -0.8490
vn -0.3487 -0.2025 0.9151
vn 0.9027 -0.3647 0.2283
vn 0.6965 0.6648 0.2699
vn 0.3179 0.8492 -0.4216
vn 0.3120 -0.2339 0.9208
vn -0.0446 0.9016 0.4303
vn 0.0686 0.5417 -0.8378
vn -0.3572 -0.4230 0.8328
vn -0.4827 -0.8082 -0.3375
vn -0.3862 -0.1380 0.9120
vn 0.1391 -0.9148 0.3792
vn 0.8924 -0.3102 0.3276
vn -0.1831 -0.7679 0.6138
vn 0.2317 0.9427 0.2403
vn -0.1177 -0.7952 0.5949
vn -0.7719 0.2383 0.5894
vn 0.9795 0.0122 -0.2010
vn -0.7723 0.1093 -0.6258
vn 0.5298 0.7346 0.4238
vn 0.0694 0.3097 0.9483
vn -0.4662 -0.4161 0.7807
vn -0.1742 0.6812 0.7111
vn -0.8625 -0.0971 0.4967
vn 0.0366 -0.7102 -0.7030
vn 0.8330 0.5446 0.0975
vn -0.5528 -0.4858 0.6771
vn 0.6229 0.3527 -0.6983
vn -0.1357 0.7042 0.6969
vn 0.9736 0.1326 -0.1859
vn 0.1383 -0.8067 -0.5745
vn 0.1898 -0.9551 0.2277
vn -0.1412 -0.7866 -0.6011
vn -0.9198 0.3821 0.0893
vn 0.3415 0.8971 0.2803
vn 0.9893 -0.0381 -0.1407
vn 0.3543 0.5083 0.7849
vn 0.2801 0.9594 0.0339
vn -0.1963 0.9089 0.3680
vn 0.4869 0.8389 0.2434
vn 0.0722 0.9728 0.2202
vn -0.9711 0.1356 0.1962
vn 0.2570 -0.3449 0.9028
vn -0.2129 0.4709 -0.8561
vn -0.8383 -0.4026 -0.3675
vn -0.9602 -0.1725 0.2197
vn 0.2099 0.1826 -0.9605
vn -0.9620 0.2514 -0.1065
vn 0.0621 0.8408 0.5378
vn 0.4665 0.6852 0.5594
vn -0.1574 0.9056 0.3938
vn 0.9769 -0.1650 0.1354
vn 0.0476 0.9001 0.4331
vn -0.3898 -0.7900 -0.4732
vn 0.0558 -0.9515 0.3026
vn -0.4242 -0.8415 -0.3345
vn 0.4240 0.7483 0.5102
vn -0.2266 -0.8610 -0.4553
vn -0.0099 0.9997 0.0231
vn 0.5298 0.6561 0.5375
vn 0.4154 0.2891 0.8625
vn -0.2617 0.3275 -0.9079
vn -0.0785 0.0571 0.9953
vn -0.7269 -0.6404 0.2480
vn -0.2576 0.4642 0.8475
vn -0.6680 0.7095 0.2246
vn -0.4846 -0.7899 -0.3759
vn 0.1269 0.3173 0.9398
vn 0.5938 0.4672 0.6551
vn 0.1131 0.2555 0.9602
vn -0.2635 0.6758 -0.6884
vn -0.8744 0.4332 0.2184
vn 0.9049 -0.3350 0.2627
vn 0.5112 0.6891 0.5136
vn 0.3173 0.3896 -0.8646
vn -0.2695 -0.2699 0.9244
vn 0.5220 0.8391 0.1528
vn 0.4649 0.8839 0.0498
vn -0.1072 0.5514 0.8274
vn -0.5264 -0.0716 0.8472
vn 0.4107 0.6992 -0.5851
vn -0.1868 -0.5572 0.8091
vn 0.0982 0.1241 -0.9874
vn 0.9406 -0.3389 -0.0222
vn -0.9890 0.0087 -0.1478
vn -0.0983 0.1840 -0.9780
vn -0.0147 -0.5671 0.8235
vn -0.9998 0.0175 -0.0044
vn 0.9605 -0.2674 -0.0775
vn -0.0636 -0.9885 -0.1369
vn 0.2308 -0.7135 0.6615
vn -0.9730 -0.1891 0.1325
vn -0.9650 -0.2548 0.0623
vn 0.9713 -0.0958 -0.2176
vn -0.1382 0.5254 -0.8395
vn -0.0885 -0.9399 -0.3298
vn 0.0330 -0.9891 0.1432
vn 0.1522 -0.3352 0.9298
vn 0.2200 0.0933 -0.9710
vn 0.9598 -0.1448 0.2407
vn 0.6460 0.0820 -0.7589
vn 0.4233 -0.4858 -0.7647
vn 0.5378 -0.2625 -0.8012
vn 0.6271 -0.0739 -0.7755
vn 0.9917 -0.1136 0.0596
vn 0.9638 -0.2435 0.1090
vn 0.9393 -0.3008 0.1649
vn 0.0163 -0.4800 -0.8771
vn 0.1162 -0.2273 -0.9669
vn 0.2050 -0.0044 -0.9787
vn 0.2447 0.2887 0.9256
vn 0.2113 -0.1502 0.9658
vn 0.1449 -0.3311 0.9324
vn -0.9416 -0.0321 0.3352
vn -0.9690 -0.1172 0.2176
vn -0.9872 -0.1085 0.1170
vn -0.2145 -0.4830 -0.8489
vn -0.1076 0.1132 -0.9877
vn -0.1008 0.2828 -0.9539
vn 0.9306 0.2103 0.2995
vn 0.9775 -0.1791 0.1111
vn 0.9819 -0.1773 -0.0658
vn -0.9866 0.0541 -0.1539
vn -0.9944 0.0131 0.1053
vn -0.9913 0.0389 0.1259
vn -0.4631 0.3823 0.7996
vn -0.2638 -0.2279 0.9373
vn -0.1221 -0.3154 0.9411
vn 0.3911 -0.3585 0.8477
vn 0.5269 0.4277 -0.7344
vn -0.0559 -0.3906 -0.9189
vn -0.1524 -0.7503 -0.6433
vn -0.7322 -0.0243 -0.6806
vt 0.461701 0.809397
vt 0.301930 0.729761
vt 0.094158 0.499911
vt 0.498737 0.648456
vt 0.250869 0.553264
vt 0.714874 0.752530
vt 0.627854 0.740386
vt 0.227533 0.339544
vt 0.300362 0.438253
vt 0.625828 0.633709
vt 0.338991 0.679376
vt 0.653754 0.621457
vt 0.189641 0.785401
vt 0.531284 0.815038
vt 0.232114 0.729761
vt 0.806952 0.326283
vt 0.527824 0.712310
vt 0.703640 0.331352
vt 0.725736 0.123548
vt 0.557184 0.740386
vt 0.714874 0.681901
vt 0.693091 0.138725
vt 0.558638 0.706064
vt 0.944491 0.391302
vt 0.108931 0.369345
vt 0.090202 0.443431
vt 0.952837 0.467016
vt 0.108059 0.346292
vt 0.960024 0.371234
vt 0.653754 0.712739
vt 0.761990 0.055860
vt 0.265996 0.788213
vt 0.829683 0.188590
vt 0.886815 0.394232
vt 0.909606 0.471204
vt 0.826550 0.267021
vt 0.659457 0.749480
vt 0.206417 0.267620
vt 0.238389 0.812575
vt 0.882743 0.373659
vt 0.837846 0.166681
vt 0.102618 0.289588
vt 0.957957 0.321520
vt 0.918648 0.216117
vt 0.803322 0.012950
vt 0.106348 0.638847
vt 0.232551 0.755661
vt 0.798789 0.485160
vt 0.965752 0.239402
vt 0.153968 0.222285
vt 0.894228 0.312474
vt 0.856067 0.102710
vt 0.881967 0.351902
vt 0.842627 0.144082
vt 0.107159 0.331692
vt 0.958812 0.358201
vt 0.199778 0.246429
vt 0.138792 0.619338
vt 0.232114 0.797406
vt 0.967580 0.012950
vt 0.753483 0.682459
vt 0.843831 0.469074
vt 0.256421 0.022764
vt 0.824689 0.472884
vt 0.987050 0.016155
vt 0.832147 0.505580
vt 0.295109 0.018166
vt 0.782932 0.707368
vt 0.843831 0.503254
vt 0.076417 0.467161
vt 0.958695 0.494573
vt 0.833773 0.298242
vt 0.909847 0.503107
vt 0.076958 0.454690
vt 0.951531 0.482650
vt 0.837149 0.281767
vt 0.912926 0.487172
vt 0.064432 0.532285
vt 0.298790 0.687460
vt 0.825577 0.362572
vt 0.264894 0.686125
vt 0.056614 0.518895
vt 0.959622 0.549977
vt 0.837123 0.350740
vt 0.929664 0.555276
vt 0.051257 0.577890
vt 0.291936 0.641182
vt 0.824256 0.407314
vt 0.275162 0.640522
vt 0.035793 0.577862
vt 0.964581 0.612577
vt 0.838997 0.411720
vt 0.948088 0.615681
vt 0.039898 0.592711
vt 0.301778 0.620707
vt 0.403076 0.772170
vt 0.830596 0.428615
vt 0.403076 0.737417
vt 0.267017 0.619338
vt 0.012950 0.593438
vt 0.987050 0.637067
vt 0.428919 0.781443
vt 0.856067 0.440612
vt 0.428919 0.728949
vt 0.935424 0.646785
vt 0.945356 0.412724
vt 0.357115 0.854737
vt 0.331665 0.779032
vt 0.948027 0.441601
vt 0.799629 0.752473
vt 0.327972 0.853161
vt 0.906904 0.416128
vt 0.370069 0.779032
vt 0.684668 0.778429
vt 0.909575 0.445005
vt 0.655249 0.778999
vt 0.799629 0.791035
vt 0.330193 0.729131
vt 0.557184 0.775635
vt 0.363063 0.804932
vt 0.331684 0.807874
vt 0.754247 0.751428
vt 0.586563 0.768755
vt 0.566112 0.815056
vt 0.689281 0.828405
vt 0.370405 0.729131
vt 0.754247 0.791805
vt 0.657717 0.824383
vt 0.595492 0.808176
vt 0.327830 0.637821
vt 0.590400 0.642651
vt 0.164818 0.789976
vt 0.357235 0.619338
vt 0.642851 0.190721
vt 0.562581 0.649581
vt 0.406824 0.626953
vt 0.080449 0.619338
vt 0.646201 0.239681
vt 0.727583 0.656002
vt 0.597847 0.731399
vt 0.712829 0.722239
vt 0.658284 0.323708
vt 0.527919 0.666449
vt 0.661748 0.291537
vt 0.680225 0.245582
vt 0.377645 0.696957
vt 0.285191 0.477898
vt 0.483372 0.812325
vt 0.280072 0.728266
vt 0.924330 0.393087
vt 0.921760 0.373660
vt 0.678504 0.727397
vt 0.268491 0.812575
vt 0.930826 0.465310
vt 0.923786 0.327561
vt 0.941993 0.227167
vt 0.764056 0.466512
vt 0.919524 0.351927
vt 0.977463 0.013354
vt 0.833186 0.466512
vt 0.317617 0.012950
vt 0.798789 0.722800
vt 0.839639 0.522681
vt 0.934403 0.500152
vt 0.932138 0.484309
vt 0.281656 0.689101
vt 0.944784 0.554368
vt 0.283549 0.640852
vt 0.956335 0.614129
vt 0.284323 0.620942
vt 0.399765 0.754789
vt 0.961112 0.640376
vt 0.422297 0.755187
vt 0.926130 0.414426
vt 0.350867 0.779032
vt 0.928801 0.443303
vt 0.799629 0.771754
vt 0.350773 0.728949
vt 0.557184 0.796361
vt 0.753483 0.771844
vt 0.595492 0.787450
vt 0.985581 0.067358
vt 0.238180 0.070710
vt 0.259592 0.052321
vt 0.138792 0.821791
vt 0.953366 0.057503
vt 0.765454 0.639660
vt 0.120235 0.821584
vt 0.772730 0.660154
vt 0.283154 0.037949
vt 0.784440 0.682652
vt 0.128680 0.843910
vt 0.970110 0.058056
vt 0.758353 0.637393
vt 0.180368 0.432154
vt 0.759258 0.257498
vt 0.884976 0.446549
vt 0.828099 0.241547
vt 0.971226 0.428512
vt 0.101516 0.405509
vt 0.908240 0.430567
vt 0.669958 0.778714
vt 0.946692 0.427163
vt 0.342544 0.853949
vt 0.673120 0.826722
vt 0.582140 0.817526
vt 0.570535 0.766286
vt 0.348248 0.806122
vt 0.576699 0.792002
vt 0.653753 0.802281
vt 0.776512 0.794925
vt 0.776512 0.748700
vt 0.327830 0.829868
vt 0.363063 0.830170
vt 0.327830 0.753980
vt 0.373865 0.753980
vt 0.689281 0.803194
vt 0.351093 0.753886
vt 0.776117 0.771930
vt 0.671321 0.802907
vt 0.345899 0.829874
vt 0.457498 0.727404
vt 0.165986 0.548054
vt 0.260364 0.376248
vt 0.625887 0.695531
vt 0.520555 0.743605
vt 0.734596 0.339638
vt 0.406824 0.703049
vt 0.012950 0.651015
vt 0.277407 0.507014
vt 0.206214 0.619338
vt 0.706517 0.466512
vt 0.399765 0.822801
vt 0.181517 0.620770
vt 0.619265 0.470337
vt 0.422433 0.807343
vt 0.582936 0.466512
vt 0.458892 0.202188
vt 0.422433 0.843958
vt 0.727583 0.468029
vt 0.460639 0.221880
vt 0.402692 0.843997
vt 0.717439 0.778459
vt 0.429089 0.593438
vt 0.518160 0.466685
vt 0.070962 0.817001
vt 0.726094 0.791097
vt 0.457498 0.298878
vt 0.715181 0.783741
vt 0.523936 0.466512
vt 0.458951 0.311476
vt 0.719061 0.788282
vt 0.458165 0.306435
vt 0.058766 0.817583
vt 0.726094 0.778429
vt 0.431598 0.585369
vt 0.599953 0.261833
vt 0.080449 0.668491
vt 0.542336 0.274386
vt 0.076079 0.728305
vt 0.500395 0.287212
vt 0.064936 0.773359
vt 0.389801 0.564275
vt 0.039540 0.774208
vt 0.356388 0.547019
vt 0.031995 0.737396
vt 0.319737 0.531779
vt 0.030523 0.696843
vt 0.505723 0.512116
vt 0.384015 0.580847
vt 0.506522 0.550736
vt 0.346302 0.574833
vt 0.507607 0.604105
vt 0.294291 0.566034
vt 0.610540 0.298468
vt 0.545535 0.300686
vt 0.502363 0.302883
vt 0.504402 0.313331
vt 0.517745 0.511765
vt 0.548610 0.318269
vt 0.527842 0.556627
vt 0.609940 0.323717
vt 0.531284 0.618364
vt 0.660591 0.582499
vt 0.204501 0.743892
vt 0.668589 0.550878
vt 0.206214 0.710848
vt 0.668004 0.517120
vt 0.204545 0.678125
vt 0.623877 0.525891
vt 0.164692 0.675333
vt 0.610236 0.563455
vt 0.167167 0.712219
vt 0.605277 0.597358
vt 0.166352 0.745757
vt 0.511839 0.183186
vt 0.584607 0.521652
vt 0.552303 0.182624
vt 0.569857 0.561129
vt 0.598009 0.178631
vt 0.565182 0.606784
vt 0.592158 0.236754
vt 0.721184 0.600612
vt 0.550092 0.232946
vt 0.722606 0.558204
vt 0.518921 0.225772
vt 0.713819 0.525134
s 0
usemtl Material
f 89/196/1 7/19/1 13/33/1 90/198/1
f 8/22/2 7/19/2 89/196/2 58/145/2 54/138/2 53/134/2
f 6/18/3 56/142/3 57/144/3
f 3/8/4 106/224/4 4/9/4 59/147/4 88/195/4
f 6/17/5 107/226/5 5/14/5 60/148/5 1/1/5 105/222/5 2/4/5 56/143/5
f 61/150/6 13/34/6 16/40/6 62/151/6
f 5/16/7 14/36/7 31/76/7 29/72/7
f 88/195/8 1/3/8 10/26/8 91/200/8
f 67/158/9 21/53/9 20/51/9 65/155/9
f 13/33/10 7/19/10 12/31/10 16/41/10
f 3/8/11 9/25/11 11/28/11 15/38/11
f 55/141/12 3/6/12 15/37/12 63/152/12
f 66/156/13 19/49/13 17/43/13 65/155/13
f 23/57/14 22/55/14 17/42/14 19/50/14
f 83/184/15 82/183/15 25/63/15 26/67/15
f 15/38/16 11/28/16 22/55/16 23/57/16
f 62/151/17 16/40/17 21/53/17 67/158/17
f 69/163/18 26/66/18 25/64/18 68/160/18
f 87/193/19 84/186/19 24/60/19 68/159/19
f 86/190/20 83/184/20 26/67/20 69/161/20
f 84/187/21 85/189/21 27/68/21 24/61/21
f 70/164/22 29/73/22 31/77/22 71/165/22
f 70/164/23 28/71/23 34/83/23 73/167/23
f 10/26/24 1/3/24 28/70/24 30/74/24
f 64/154/25 10/27/25 30/75/25 71/165/25
f 34/82/26 32/78/26 36/86/26 38/90/26
f 60/149/27 5/15/27 33/81/27 72/166/27
f 5/16/28 29/72/28 35/84/28 33/80/28
f 28/70/29 1/3/29 32/78/29 34/82/29
f 37/88/30 39/92/30 43/103/30 41/97/30
f 73/167/31 34/83/31 38/91/31 75/169/31
f 33/80/32 35/84/32 39/92/32 37/88/32
f 72/166/33 33/81/33 37/89/33 74/168/33
f 76/171/34 41/98/34 43/104/34 77/173/34
f 74/168/35 37/89/35 41/99/35 76/170/35
f 38/90/36 36/86/36 40/94/36 42/100/36
f 75/169/37 38/91/37 42/101/37 77/172/37
f 102/219/38 97/211/38 51/127/38 81/180/38
f 91/199/39 10/27/39 45/109/39 93/203/39
f 90/197/40 13/34/40 46/112/40 92/201/40
f 61/150/41 9/24/41 44/106/41 78/174/41
f 64/154/42 14/35/42 47/115/42 79/176/42
f 96/209/43 94/206/43 50/124/43 80/179/43
f 101/218/44 99/215/44 48/118/44 80/178/44
f 104/221/45 98/213/45 49/121/45 95/208/45
f 103/220/46 100/217/46 50/125/46 94/205/46
f 8/23/47 53/135/47 52/131/47
f 8/23/48 52/131/48 4/10/48 106/225/48 3/7/48 55/140/48 7/20/48
f 54/138/49 58/145/49 89/196/49 5/16/49 107/227/49 6/18/49 57/144/49
f 100/216/50 101/218/50 80/178/50 50/126/50
f 95/207/51 96/209/51 80/179/51 48/119/51
f 10/27/52 64/154/52 79/176/52 45/109/52
f 13/34/53 61/150/53 78/174/53 46/112/53
f 98/212/54 102/219/54 81/180/54 49/122/54
f 39/93/55 75/169/55 77/172/55 43/105/55
f 36/87/56 74/168/56 76/170/56 40/95/56
f 40/96/57 76/171/57 77/173/57 42/102/57
f 32/79/58 72/166/58 74/168/58 36/87/58
f 35/85/59 73/167/59 75/169/59 39/93/59
f 1/2/60 60/149/60 72/166/60 32/79/60
f 14/35/61 64/154/61 71/165/61 31/77/61
f 29/73/62 70/164/62 73/167/62 35/85/62
f 28/71/63 70/164/63 71/165/63 30/75/63
f 85/189/64 86/191/64 69/162/64 27/68/64
f 82/182/65 87/193/65 68/159/65 25/65/65
f 27/69/66 69/163/66 68/160/66 24/62/66
f 11/29/67 62/151/67 67/158/67 22/56/67
f 18/44/68 66/156/68 65/155/68 20/51/68
f 7/21/69 55/141/69 63/152/69 12/30/69
f 22/56/70 67/158/70 65/155/70 17/43/70
f 9/24/71 61/150/71 62/151/71 11/29/71
f 19/49/72 66/156/72 87/193/72 82/182/72
f 12/31/73 18/45/73 20/52/73 21/54/73 16/41/73
f 66/157/74 18/48/74 84/187/74 87/194/74
f 23/57/75 19/50/75 82/183/75 83/184/75
f 49/123/76 81/181/76 96/209/76 95/207/76
f 97/210/77 103/220/77 94/205/77 51/128/77
f 99/214/78 104/221/78 95/208/78 48/120/78
f 81/181/79 51/129/79 94/206/79 96/209/79
f 14/35/80 90/197/80 92/201/80 47/115/80
f 9/24/81 91/199/81 93/203/81 44/106/81
f 3/8/82 88/195/82 91/200/82 9/25/82
f 5/16/83 89/196/83 90/198/83 14/36/83
f 44/107/84 93/204/84 104/221/84 99/214/84
f 47/116/85 92/202/85 103/220/85 97/210/85
f 45/110/86 79/177/86 102/219/86 98/212/86
f 46/113/87 78/175/87 101/218/87 100/216/87
f 92/202/88 46/114/88 100/217/88 103/220/88
f 93/204/89 45/111/89 98/213/89 104/221/89
f 78/175/90 44/108/90 99/215/90 101/218/90
f 79/177/91 47/117/91 97/211/91 102/219/91
f 59/146/92 4/11/92 52/130/92 53/133/92 54/136/92 108/228/92
f 136/291/93 110/234/93 109/231/93 135/289/93
f 121/264/94 120/262/94 114/246/94 117/254/94
f 139/297/95 111/237/95 110/235/95 136/290/95
f 135/288/96 109/232/96 112/240/96 144/307/96
f 144/306/97 112/241/97 111/238/97 139/296/97
f 111/239/98 112/242/98 109/233/98 110/236/98
f 117/255/99 114/247/99 116/252/99 115/249/99 113/243/99
f 124/270/100 121/263/100 117/256/100 113/244/100
f 120/261/101 129/277/101 116/253/101 114/248/101
f 130/279/102 124/269/102 113/245/102 115/250/102
f 129/277/103 130/278/103 115/251/103 116/253/103
f 57/144/104 56/142/104 132/282/104 127/275/104
f 127/275/105 132/282/105 131/280/105 128/276/105
f 128/276/106 131/280/106 130/278/106 129/277/106
f 56/143/107 2/4/107 126/273/107 132/283/107
f 132/283/108 126/273/108 125/271/108 131/281/108
f 131/281/109 125/271/109 124/269/109 130/279/109
f 54/138/110 57/144/110 127/275/110 118/257/110
f 118/257/111 127/275/111 128/276/111 119/259/111
f 119/259/112 128/276/112 129/277/112 120/261/112
f 2/5/113 108/230/113 123/267/113 126/274/113
f 126/274/114 123/267/114 122/265/114 125/272/114
f 125/272/115 122/265/115 121/263/115 124/270/115
f 108/229/116 54/137/116 118/258/116 123/268/116
f 123/268/117 118/258/117 119/260/117 122/266/117
f 122/266/118 119/260/118 120/262/118 121/264/118
f 54/138/119 142/302/119 141/300/119 53/134/119
f 142/302/120 143/304/120 140/298/120 141/300/120
f 143/304/121 144/306/121 139/296/121 140/298/121
f 4/12/122 133/284/122 142/303/122 54/139/122
f 133/284/123 134/286/123 143/305/123 142/303/123
f 134/286/124 135/288/124 144/307/124 143/305/124
f 53/135/125 141/301/125 138/294/125 52/131/125
f 141/301/126 140/299/126 137/292/126 138/294/126
f 140/299/127 139/297/127 136/290/127 137/292/127
f 52/132/128 138/295/128 133/285/128 4/13/128
f 138/295/129 137/293/129 134/287/129 133/285/129
f 137/293/130 136/291/130 135/289/130 134/287/130
f 105/223/131 1/3/131 88/195/131 59/147/131 108/230/131 2/5/131
f 86/192/132 85/188/132 83/185/132
f 83/185/133 85/188/133 18/46/133 23/58/133
f 63/153/134 15/39/134 23/59/134 18/47/134 12/32/134
f 84/187/135 18/48/135 85/189/135
l 52 106
