# Blender 3.3.1
# www.blender.org
mtllib monstruo_3_grande_caminar512.mtl
o monstruo_grande
v 0.432557 1.995569 0.223364
v 0.518322 1.167490 0.114335
v -0.692231 1.809924 0.171853
v -0.313884 1.122941 0.200583
v 0.579244 2.279125 -0.127565
v 0.546240 1.588000 -0.232069
v -0.807847 2.046192 -0.235288
v -0.716967 1.753782 -0.307556
v -0.254755 2.404737 0.470770
v 0.295516 2.277414 0.424421
v -0.387416 2.375704 0.568072
v -1.180036 2.129847 -0.070165
v -0.242325 2.579169 0.117719
v 0.291712 2.421853 0.165801
v -1.033828 1.981635 0.068074
v -0.398376 2.661515 0.147560
v -0.740237 2.306840 0.588259
v -1.461067 2.057902 0.213156
v -1.173671 2.074046 0.398261
v -0.909198 2.652294 0.355686
v -0.576280 2.712769 0.229259
v -0.464711 2.330686 0.538932
v -1.162855 2.011098 0.079447
v -1.785081 0.796228 0.882061
v -1.658685 0.770270 0.923541
v -1.659588 0.589020 0.726586
v -1.736737 0.604865 0.701268
v 0.454405 2.188467 0.404117
v 0.545985 2.382178 0.142082
v 0.412025 2.302691 0.417586
v 0.423729 2.437758 0.190915
v 0.685667 1.868298 0.195460
v 0.788434 1.975618 0.018281
v 0.706553 1.950468 0.248011
v 0.780249 2.068690 0.093670
v 0.857079 1.659217 0.105179
v 0.932557 1.694596 0.026888
v 0.936560 1.604219 0.147283
v 1.009617 1.651626 0.070944
v 0.854066 1.503139 0.102823
v 1.010225 1.598153 -0.053053
v 0.951979 1.365919 0.204940
v 1.178831 1.508040 -0.037173
v -0.091347 2.443056 0.492157
v 0.117627 2.411248 0.474141
v -0.086873 2.549452 0.246960
v 0.112044 2.514897 0.231785
v -0.049053 2.760626 0.626925
v 0.158683 2.701273 0.591786
v -0.062693 2.864952 0.369940
v 0.145184 2.805593 0.335206
v -0.504719 1.168722 -0.026216
v -0.375503 1.210160 -0.228193
v -0.041653 1.274395 -0.334797
v -0.748683 1.859662 -0.044236
v 0.554597 1.168347 -0.121967
v 0.342432 1.167608 -0.259673
v 0.015275 1.520728 -0.330654
v -0.030191 1.143279 0.191726
v 0.482946 2.080295 0.105376
v -0.243893 2.466028 0.346677
v -0.394552 2.630889 0.416672
v -0.963093 2.043055 -0.045507
v 0.275023 2.407234 0.325945
v -0.748413 2.536740 0.564309
v -1.337774 2.185307 0.455963
v -0.547265 2.624344 0.412580
v -1.732033 0.783402 0.933825
v -1.689896 0.478570 0.614659
v 0.538217 2.296233 0.300938
v 0.421629 2.415112 0.326987
v 0.690970 1.906323 0.067605
v 0.785295 2.021255 0.199642
v 0.893702 1.680959 0.066484
v 0.972796 1.626921 0.108609
v 0.911502 1.558710 0.011139
v 1.030092 1.454030 0.060805
v -0.090527 2.495413 0.369012
v 0.113048 2.464032 0.352627
v -0.087304 2.813088 0.500224
v 0.183236 2.753114 0.461663
v -1.520342 1.086698 0.853404
v -1.590968 0.914350 0.794350
v -1.739959 1.101569 0.784281
v -1.709937 0.938782 0.755308
v -1.662195 0.758220 0.705257
v -1.651460 1.077633 0.872442
v -0.029072 1.774616 0.502908
v 0.132039 2.143018 -0.211928
v 0.111444 2.522766 0.052561
v 0.056640 2.272920 0.604707
v 0.009452 2.531426 0.238770
v 0.017163 2.429666 0.483472
v 0.039275 2.850928 0.314013
v 0.056864 2.715312 0.647878
v 0.049662 2.834535 0.501648
v 0.142967 2.668692 0.259709
v 0.155203 2.549714 0.552795
v -0.083125 2.593929 0.582681
v -0.096079 2.714111 0.288471
v -0.106970 2.653847 0.436397
v 0.164177 2.609351 0.405038
v 0.021704 2.699498 0.253799
v 0.037390 2.563804 0.587448
v 0.444807 1.683960 -0.013113
v -0.583297 1.511130 0.202551
v 0.552167 1.802695 -0.232530
v 0.161581 1.160841 0.201836
v -0.243913 0.070832 -0.267800
v -0.399960 0.061895 -0.160899
v -0.400336 0.095058 -0.409513
v -0.264363 0.090587 -0.411220
v 0.308803 -0.010816 0.234413
v 0.236367 -0.026104 0.159081
v 0.318688 -0.017131 0.196513
v 0.287495 -0.023119 0.170407
v 0.249617 -0.010187 0.244088
v 0.086876 0.837378 -0.083220
v 0.137005 0.575738 0.045842
v 0.177280 0.286565 0.139100
v 0.204811 0.300151 0.318293
v 0.182285 0.556806 0.340275
v 0.185380 0.834895 0.321012
v 0.327784 0.297143 0.297967
v 0.389876 0.556732 0.305592
v 0.475147 0.890160 0.256721
v 0.342686 0.859053 -0.047400
v 0.315355 0.577338 0.083292
v 0.283410 0.287399 0.162813
v 0.348319 0.291931 0.218122
v 0.425377 0.585994 0.173082
v 0.507002 0.887551 0.067621
v -0.218744 0.833865 0.252468
v -0.203846 0.553349 0.132405
v -0.208948 0.326335 0.041891
v -0.491743 0.339054 0.002198
v -0.486981 0.608536 0.062295
v -0.495378 0.862791 0.108223
v -0.495283 0.443974 -0.246299
v -0.489109 0.712729 -0.186620
v -0.485878 0.922441 -0.162013
v -0.092158 0.860579 -0.164990
v -0.144612 0.679351 -0.202937
v -0.200034 0.474189 -0.238708
vn -0.0444 0.5778 -0.8149
vn -0.0380 0.0865 -0.9955
vn 0.5334 -0.2047 -0.8207
vn -0.2827 -0.2604 0.9232
vn 0.9528 -0.0242 0.3025
vn 0.6539 0.7277 0.2071
vn 0.1044 0.9096 -0.4021
vn 0.5869 -0.2592 0.7670
vn -0.0044 0.8862 0.4633
vn -0.1158 0.5792 -0.8069
vn -0.1636 -0.5053 0.8473
vn -0.4726 -0.8287 -0.2999
vn -0.1765 -0.1848 0.9668
vn 0.2696 -0.9128 0.3067
vn 0.9403 -0.3027 0.1553
vn 0.0104 -0.8093 0.5873
vn 0.1847 0.9537 0.2375
vn 0.0104 -0.7275 0.6860
vn -0.6227 0.3201 0.7140
vn 0.9112 -0.0377 -0.4103
vn -0.8904 0.0694 -0.4498
vn 0.6221 0.7277 0.2888
vn 0.5754 0.1573 0.8026
vn -0.1935 -0.5336 0.8233
vn -0.0598 0.6125 0.7882
vn -0.4748 -0.5730 0.6680
vn -0.3937 -0.5162 -0.7606
vn 0.8089 0.5476 -0.2141
vn -0.1711 -0.6217 0.7643
vn 0.5107 0.7904 -0.3383
vn 0.5503 0.0955 0.8295
vn 0.7149 0.3942 -0.5776
vn -0.3964 -0.2844 -0.8729
vn -0.2518 -0.6211 -0.7422
vn -0.6364 0.1854 -0.7488
vn -0.5621 0.0975 0.8213
vn 0.7929 0.1543 0.5895
vn 0.9787 0.0220 -0.2043
vn 0.4358 0.5087 0.7425
vn 0.1689 0.9849 0.0371
vn -0.2438 0.8855 0.3955
vn 0.4421 0.8678 0.2269
vn 0.0177 0.9774 0.2106
vn -0.9651 0.0760 0.2508
vn 0.3272 -0.3168 0.8902
vn -0.2909 0.4458 -0.8465
vn -0.6771 -0.5036 -0.5365
vn -0.9150 -0.3652 0.1717
vn 0.1405 0.0928 -0.9857
vn -0.9805 0.1904 -0.0484
vn 0.0347 0.8485 0.5280
vn 0.5042 0.6918 0.5168
vn -0.2044 0.8849 0.4184
vn 0.9917 -0.1013 0.0790
vn 0.5848 0.0190 0.8110
vn -0.8285 0.0711 -0.5555
vn -0.3446 -0.7005 -0.6249
vn -0.7379 -0.5545 -0.3847
vn 0.8440 0.3806 0.3779
vn -0.5283 -0.7057 -0.4721
vn -0.0955 0.9884 0.1183
vn 0.7756 0.5605 0.2903
vn 0.6504 0.3273 0.6855
vn -0.4529 0.2425 -0.8579
vn 0.1432 0.1590 0.9768
vn -0.6591 -0.5900 0.4663
vn -0.2201 0.4116 0.8844
vn -0.6378 0.6678 0.3838
vn -0.4698 -0.7882 -0.3974
vn 0.3066 0.3114 0.8995
vn 0.6052 0.5186 0.6039
vn 0.3293 0.2724 0.9041
vn -0.4310 0.6763 -0.5973
vn -0.8178 0.4220 0.3914
vn 0.9452 -0.3226 0.0513
vn 0.4909 0.7267 0.4806
vn 0.2396 0.4000 -0.8847
vn -0.1987 -0.2759 0.9404
vn 0.4718 0.8737 0.1188
vn 0.3705 0.9280 0.0395
vn -0.0859 0.4967 0.8637
vn -0.4436 -0.1136 0.8890
vn 0.1551 0.7623 -0.6283
vn -0.0913 -0.5551 0.8268
vn 0.0226 0.1293 -0.9914
vn 0.9617 -0.2581 -0.0921
vn -0.9957 -0.0534 -0.0762
vn -0.1691 0.1666 -0.9714
vn 0.0809 -0.5665 0.8201
vn -0.9965 -0.0577 0.0611
vn 0.9610 -0.2179 -0.1704
vn 0.0799 -0.9705 -0.2275
vn 0.1091 -0.6533 0.7492
vn -0.9696 -0.1764 0.1694
vn -0.9649 -0.2549 -0.0632
vn 0.9924 -0.1031 -0.0677
vn -0.0124 0.4162 -0.9092
vn -0.0339 -0.9907 -0.1319
vn 0.0219 -0.9833 0.1809
vn 0.1549 -0.2087 0.9656
vn 0.2179 -0.0211 -0.9757
vn 0.9595 -0.1113 0.2588
vn 0.6470 -0.0094 -0.7625
vn 0.5054 -0.5135 -0.6935
vn 0.5832 -0.3961 -0.7093
vn 0.6263 -0.2727 -0.7303
vn 0.9852 -0.0662 0.1581
vn 0.9607 -0.2078 0.1840
vn 0.9485 -0.2232 0.2250
vn 0.0791 -0.5167 -0.8525
vn 0.1729 -0.4189 -0.8914
vn 0.2042 -0.2772 -0.9389
vn 0.1755 0.3869 0.9053
vn 0.1857 0.0823 0.9792
vn 0.1631 -0.0689 0.9842
vn -0.9529 -0.0444 0.3001
vn -0.9792 -0.0302 0.2006
vn -0.9842 -0.0936 0.1502
vn -0.1418 -0.2862 -0.9476
vn -0.0053 0.1587 -0.9873
vn -0.0124 0.1990 -0.9799
vn 0.8936 0.1857 0.4087
vn 0.9665 -0.1499 0.2082
vn 0.9877 -0.1507 0.0423
vn -0.9610 0.0735 -0.2666
vn -0.9998 -0.0086 -0.0169
vn -0.9997 0.0163 0.0182
vn -0.6016 0.1406 0.7863
vn -0.3799 -0.2893 0.8786
vn -0.2151 -0.2796 0.9357
vn 0.5365 -0.1793 0.8247
vn 0.3552 0.3358 -0.8724
vn -0.2680 -0.4121 -0.8708
vn -0.3048 -0.7647 -0.5677
vn -0.8504 -0.0639 -0.5222
vt 0.882279 0.260085
vt 0.436089 0.649131
vt 0.117664 0.305524
vt 0.860974 0.338762
vt 0.079561 0.383885
vt 0.278417 0.728674
vt 0.111517 0.716819
vt 0.301243 0.337859
vt 0.232943 0.387386
vt 0.111517 0.662267
vt 0.671871 0.687525
vt 0.175114 0.511099
vt 0.930991 0.712692
vt 0.796001 0.259488
vt 0.522181 0.649131
vt 0.719621 0.316178
vt 0.801110 0.310020
vt 0.698705 0.366293
vt 0.510656 0.337024
vt 0.023033 0.717149
vt 0.367094 0.730187
vt 0.507246 0.358198
vt 0.018976 0.695717
vt 0.103380 0.570561
vt 0.268725 0.266033
vt 0.143950 0.273348
vt 0.098384 0.631539
vt 0.301351 0.259488
vt 0.128079 0.559933
vt 0.480438 0.333338
vt 0.348619 0.714075
vt 0.604958 0.268707
vt 0.031105 0.562973
vt 0.043818 0.625810
vt 0.721993 0.282954
vt 0.329365 0.336360
vt 0.302724 0.713315
vt 0.030374 0.549675
vt 0.582817 0.260846
vt 0.875347 0.642471
vt 0.380514 0.272320
vt 0.124895 0.517524
vt 0.813390 0.578569
vt 0.436089 0.332372
vt 0.956124 0.588845
vt 0.367094 0.692599
vt 0.367094 0.522797
vt 0.871643 0.594841
vt 0.398138 0.324445
vt 0.043891 0.509019
vt 0.796001 0.641153
vt 0.491075 0.268473
vt 0.032114 0.534706
vt 0.552485 0.259488
vt 0.331566 0.259909
vt 0.129819 0.544964
vt 0.339759 0.337186
vt 0.913298 0.588845
vt 0.317584 0.707220
vt 0.845734 0.463378
vt 0.311567 0.646434
vt 0.944558 0.353645
vt 0.398138 0.462439
vt 0.920230 0.354337
vt 0.870057 0.463781
vt 0.929709 0.374247
vt 0.357807 0.478584
vt 0.347994 0.663056
vt 0.944558 0.373825
vt 0.097076 0.285727
vt 0.229765 0.651022
vt 0.758050 0.297859
vt 0.168317 0.651042
vt 0.119329 0.272208
vt 0.094178 0.643292
vt 0.222768 0.636959
vt 0.746872 0.283208
vt 0.174541 0.636975
vt 0.045175 0.638147
vt 0.080672 0.327471
vt 0.442544 0.673801
vt 0.734592 0.339187
vt 0.484453 0.673801
vt 0.070725 0.319456
vt 0.218298 0.685110
vt 0.751374 0.331694
vt 0.180611 0.684911
vt 0.062412 0.356092
vt 0.455575 0.702696
vt 0.724658 0.367821
vt 0.476314 0.702696
vt 0.043357 0.357400
vt 0.210236 0.723455
vt 0.742364 0.370210
vt 0.189444 0.723462
vt 0.050281 0.367705
vt 0.444942 0.715336
vt 0.810526 0.722486
vt 0.728448 0.380153
vt 0.853695 0.722486
vt 0.487920 0.715336
vt 0.018975 0.371756
vt 0.232852 0.738567
vt 0.796001 0.739289
vt 0.758050 0.386241
vt 0.861207 0.739289
vt 0.167770 0.738589
vt 0.100634 0.583041
vt 0.712300 0.698974
vt 0.802197 0.701507
vt 0.098640 0.600731
vt 0.972705 0.287497
vt 0.747907 0.696578
vt 0.052045 0.577939
vt 0.849895 0.701507
vt 0.710445 0.675017
vt 0.050052 0.595630
vt 0.746553 0.677603
vt 0.924885 0.287497
vt 0.797725 0.671259
vt 0.981025 0.313792
vt 0.715147 0.730011
vt 0.752543 0.724602
vt 0.973919 0.259495
vt 0.967002 0.332143
vt 0.934252 0.306472
vt 0.715328 0.644023
vt 0.847669 0.671259
vt 0.923848 0.259495
vt 0.753088 0.649631
vt 0.920230 0.324823
vt 0.068284 0.665533
vt 0.630362 0.705721
vt 0.712055 0.621316
vt 0.966165 0.712391
vt 0.519769 0.388732
vt 0.031375 0.663704
vt 0.592215 0.695479
vt 0.581836 0.620019
vt 0.750017 0.621843
vt 0.569690 0.667298
vt 0.581066 0.387596
vt 0.531739 0.516092
vt 0.642835 0.625048
vt 0.273616 0.509019
vt 0.070982 0.710642
vt 0.316851 0.732164
vt 0.684917 0.393810
vt 0.816625 0.338063
vt 0.644803 0.392946
vt 0.602800 0.367236
vt 0.671871 0.661666
vt 0.181146 0.386242
vt 0.855113 0.259897
vt 0.463196 0.649131
vt 0.077903 0.567886
vt 0.078993 0.554271
vt 0.322237 0.720993
vt 0.070972 0.628379
vt 0.834014 0.651825
vt 0.084160 0.512738
vt 0.838315 0.596273
vt 0.320679 0.509019
vt 0.080733 0.539302
vt 0.857365 0.464048
vt 0.931678 0.351118
vt 0.335174 0.488977
vt 0.367094 0.673623
vt 0.939667 0.384854
vt 0.199177 0.651021
vt 0.069465 0.641494
vt 0.198664 0.632807
vt 0.464209 0.672968
vt 0.199604 0.684998
vt 0.465945 0.702696
vt 0.199840 0.723459
vt 0.466714 0.715004
vt 0.832520 0.720483
vt 0.200177 0.738589
vt 0.829423 0.735282
vt 0.076340 0.580490
vt 0.826046 0.701507
vt 0.074346 0.598181
vt 0.948795 0.287497
vt 0.823088 0.670800
vt 0.959731 0.307426
vt 0.948976 0.259488
vt 0.941524 0.331189
vt 0.875347 0.491894
vt 0.391834 0.432095
vt 0.377694 0.448634
vt 0.915590 0.478791
vt 0.834644 0.488373
vt 0.326937 0.619279
vt 0.938593 0.478810
vt 0.335216 0.632947
vt 0.358601 0.463790
vt 0.348787 0.648138
vt 0.927106 0.463378
vt 0.854274 0.489560
vt 0.315804 0.619182
vt 0.212520 0.321385
vt 0.644070 0.318501
vt 0.018976 0.592450
vt 0.663817 0.276029
vt 0.129819 0.597828
vt 0.224108 0.269832
vt 0.051049 0.586785
vt 0.728499 0.676310
vt 0.099637 0.591886
vt 0.730103 0.697776
vt 0.734390 0.646904
vt 0.920230 0.314550
vt 0.981025 0.324065
vt 0.732426 0.727384
vt 0.950683 0.319044
vt 0.753088 0.663662
vt 0.920230 0.273492
vt 0.977552 0.273492
vt 0.752543 0.710647
vt 0.709822 0.714522
vt 0.796001 0.686127
vt 0.853178 0.686127
vt 0.709822 0.659561
vt 0.824792 0.685890
vt 0.948939 0.273488
vt 0.731549 0.661651
vt 0.730449 0.712624
vt 0.878850 0.297575
vt 0.096711 0.342677
vt 0.285581 0.357771
vt 0.108549 0.696221
vt 0.804979 0.293594
vt 0.708839 0.350023
vt 0.668288 0.644023
vt 0.436089 0.526409
vt 0.145034 0.385321
vt 0.919159 0.607821
vt 0.247387 0.613831
vt 0.970304 0.416607
vt 0.947808 0.608020
vt 0.704660 0.516092
vt 0.970304 0.403829
vt 0.750017 0.516884
vt 0.618892 0.516092
vt 0.920230 0.404231
vt 0.273616 0.612878
vt 0.642836 0.516847
vt 0.938584 0.415207
vt 0.924281 0.443436
vt 0.075400 0.489812
vt 0.855524 0.444402
vt 0.531739 0.629156
vt 0.934913 0.435583
vt 0.576828 0.496673
vt 0.931440 0.443424
vt 0.848383 0.444289
vt 0.592622 0.497116
vt 0.934913 0.440184
vt 0.586164 0.496977
vt 0.517161 0.630156
vt 0.920230 0.438606
vt 0.085942 0.490043
vt 0.585376 0.420489
vt 0.510472 0.551446
vt 0.582586 0.444044
vt 0.504260 0.576063
vt 0.581388 0.469636
vt 0.508131 0.602400
vt 0.103684 0.463024
vt 0.477645 0.604263
vt 0.118194 0.440373
vt 0.454885 0.581958
vt 0.129418 0.415411
vt 0.438452 0.557360
vt 0.876897 0.417052
vt 0.081901 0.462161
vt 0.882279 0.393921
vt 0.081653 0.438865
vt 0.880271 0.363315
vt 0.079604 0.408162
vt 0.633117 0.418943
vt 0.615530 0.444447
vt 0.600997 0.469910
vt 0.614559 0.469949
vt 0.862035 0.416811
vt 0.638313 0.444473
vt 0.857648 0.390640
vt 0.666106 0.417503
vt 0.844696 0.362700
vt 0.167770 0.536691
vt 0.914144 0.688660
vt 0.182151 0.561697
vt 0.913298 0.663084
vt 0.189855 0.582503
vt 0.915415 0.641729
vt 0.680787 0.549268
vt 0.966165 0.641681
vt 0.684678 0.573659
vt 0.963812 0.665813
vt 0.684995 0.596421
vt 0.964308 0.688427
vt 0.584794 0.548886
vt 0.729850 0.550060
vt 0.578610 0.572959
vt 0.734888 0.574452
vt 0.569690 0.595426
vt 0.736445 0.597214
vt 0.642060 0.590920
vt 0.247172 0.543053
vt 0.641052 0.570535
vt 0.248998 0.562413
vt 0.635978 0.552556
vt 0.245738 0.579271
s 0
usemtl Material
f 89/203/1 7/19/1 13/32/1 90/205/1
f 8/22/2 7/19/2 89/203/2 58/151/2 54/142/2 53/136/2
f 6/18/3 56/148/3 57/150/3
f 3/8/4 106/231/4 4/9/4 59/153/4 88/202/4
f 6/17/5 107/233/5 5/14/5 60/154/5 1/1/5 105/229/5 2/4/5 56/149/5
f 61/156/6 13/33/6 16/38/6 62/157/6
f 5/16/7 14/35/7 31/77/7 29/72/7
f 88/202/8 1/3/8 10/26/8 91/207/8
f 67/164/9 21/53/9 20/50/9 65/161/9
f 13/32/10 7/19/10 12/30/10 16/39/10
f 3/8/11 9/25/11 11/28/11 15/36/11
f 55/147/12 3/6/12 15/37/12 63/158/12
f 66/162/13 19/48/13 17/40/13 65/160/13
f 23/57/14 22/55/14 17/41/14 19/49/14
f 83/191/15 82/190/15 25/63/15 26/67/15
f 15/36/16 11/28/16 22/55/16 23/57/16
f 62/157/17 16/38/17 21/53/17 67/164/17
f 69/169/18 26/66/18 25/64/18 68/166/18
f 87/200/19 84/193/19 24/60/19 68/165/19
f 86/197/20 83/191/20 26/67/20 69/167/20
f 84/194/21 85/196/21 27/68/21 24/61/21
f 70/170/22 29/73/22 31/78/22 71/172/22
f 70/170/23 28/71/23 34/85/23 73/174/23
f 10/26/24 1/3/24 28/70/24 30/74/24
f 64/159/25 10/27/25 30/75/25 71/171/25
f 34/84/26 32/80/26 36/88/26 38/92/26
f 60/155/27 5/15/27 33/83/27 72/173/27
f 5/16/28 29/72/28 35/86/28 33/82/28
f 28/70/29 1/3/29 32/80/29 34/84/29
f 37/90/30 39/94/30 43/105/30 41/99/30
f 73/174/31 34/85/31 38/93/31 75/176/31
f 33/82/32 35/86/32 39/94/32 37/90/32
f 72/173/33 33/83/33 37/91/33 74/175/33
f 76/178/34 41/100/34 43/106/34 77/180/34
f 74/175/35 37/91/35 41/101/35 76/177/35
f 38/92/36 36/88/36 40/96/36 42/102/36
f 75/176/37 38/93/37 42/103/37 77/179/37
f 102/226/38 97/218/38 51/129/38 81/187/38
f 91/206/39 10/27/39 45/111/39 93/210/39
f 90/204/40 13/33/40 46/114/40 92/208/40
f 61/156/41 9/24/41 44/108/41 78/181/41
f 64/159/42 14/34/42 47/117/42 79/183/42
f 96/216/43 94/213/43 50/126/43 80/186/43
f 101/225/44 99/222/44 48/120/44 80/185/44
f 104/228/45 98/220/45 49/123/45 95/215/45
f 103/227/46 100/224/46 50/127/46 94/212/46
f 8/23/47 53/137/47 52/132/47
f 8/23/48 52/132/48 4/10/48 106/232/48 3/7/48 55/146/48 7/20/48
f 54/142/49 58/151/49 89/203/49 5/16/49 107/234/49 6/18/49 57/150/49
f 100/223/50 101/225/50 80/185/50 50/128/50
f 95/214/51 96/216/51 80/186/51 48/121/51
f 10/27/52 64/159/52 79/183/52 45/111/52
f 13/33/53 61/156/53 78/181/53 46/114/53
f 98/219/54 102/226/54 81/187/54 49/124/54
f 39/95/55 75/176/55 77/179/55 43/107/55
f 36/89/56 74/175/56 76/177/56 40/97/56
f 40/98/57 76/178/57 77/180/57 42/104/57
f 32/81/58 72/173/58 74/175/58 36/89/58
f 35/87/59 73/174/59 75/176/59 39/95/59
f 1/2/60 60/155/60 72/173/60 32/81/60
f 14/34/61 64/159/61 71/171/61 31/79/61
f 29/73/62 70/170/62 73/174/62 35/87/62
f 28/71/63 70/170/63 71/172/63 30/76/63
f 85/196/64 86/198/64 69/168/64 27/68/64
f 82/189/65 87/200/65 68/165/65 25/65/65
f 27/69/66 69/169/66 68/166/66 24/62/66
f 11/29/67 62/157/67 67/164/67 22/56/67
f 18/43/68 66/162/68 65/160/68 20/51/68
f 7/21/69 55/147/69 63/158/69 12/31/69
f 22/56/70 67/164/70 65/161/70 17/42/70
f 9/24/71 61/156/71 62/157/71 11/29/71
f 19/48/72 66/162/72 87/200/72 82/189/72
f 12/30/73 18/44/73 20/52/73 21/54/73 16/39/73
f 66/163/74 18/47/74 84/194/74 87/201/74
f 23/57/75 19/49/75 82/190/75 83/191/75
f 49/125/76 81/188/76 96/216/76 95/214/76
f 97/217/77 103/227/77 94/212/77 51/130/77
f 99/221/78 104/228/78 95/215/78 48/122/78
f 81/188/79 51/131/79 94/213/79 96/216/79
f 14/34/80 90/204/80 92/208/80 47/117/80
f 9/24/81 91/206/81 93/210/81 44/108/81
f 3/8/82 88/202/82 91/207/82 9/25/82
f 5/16/83 89/203/83 90/205/83 14/35/83
f 44/109/84 93/211/84 104/228/84 99/221/84
f 47/118/85 92/209/85 103/227/85 97/217/85
f 45/112/86 79/184/86 102/226/86 98/219/86
f 46/115/87 78/182/87 101/225/87 100/223/87
f 92/209/88 46/116/88 100/224/88 103/227/88
f 93/211/89 45/113/89 98/220/89 104/228/89
f 78/182/90 44/110/90 99/222/90 101/225/90
f 79/184/91 47/119/91 97/218/91 102/226/91
f 59/152/92 4/11/92 52/133/92 53/138/92 54/141/92 108/235/92
f 136/298/93 110/241/93 109/238/93 135/296/93
f 121/271/94 120/269/94 114/253/94 117/261/94
f 139/304/95 111/244/95 110/242/95 136/297/95
f 135/295/96 109/239/96 112/247/96 144/314/96
f 144/313/97 112/248/97 111/245/97 139/303/97
f 111/246/98 112/249/98 109/240/98 110/243/98
f 117/262/99 114/254/99 116/259/99 115/256/99 113/250/99
f 124/277/100 121/270/100 117/263/100 113/251/100
f 120/268/101 129/284/101 116/260/101 114/255/101
f 130/286/102 124/276/102 113/252/102 115/257/102
f 129/284/103 130/285/103 115/258/103 116/260/103
f 57/150/104 56/148/104 132/289/104 127/282/104
f 127/282/105 132/289/105 131/287/105 128/283/105
f 128/283/106 131/287/106 130/285/106 129/284/106
f 56/149/107 2/4/107 126/280/107 132/290/107
f 132/290/108 126/280/108 125/278/108 131/288/108
f 131/288/109 125/278/109 124/276/109 130/286/109
f 54/142/110 57/150/110 127/282/110 118/264/110
f 118/264/111 127/282/111 128/283/111 119/266/111
f 119/266/112 128/283/112 129/284/112 120/268/112
f 2/5/113 108/237/113 123/274/113 126/281/113
f 126/281/114 123/274/114 122/272/114 125/279/114
f 125/279/115 122/272/115 121/270/115 124/277/115
f 108/236/116 54/143/116 118/265/116 123/275/116
f 123/275/117 118/265/117 119/267/117 122/273/117
f 122/273/118 119/267/118 120/269/118 121/271/118
f 54/144/119 142/309/119 141/307/119 53/139/119
f 142/309/120 143/311/120 140/305/120 141/307/120
f 143/311/121 144/313/121 139/303/121 140/305/121
f 4/12/122 133/291/122 142/310/122 54/145/122
f 133/291/123 134/293/123 143/312/123 142/310/123
f 134/293/124 135/295/124 144/314/124 143/312/124
f 53/140/125 141/308/125 138/301/125 52/134/125
f 141/308/126 140/306/126 137/299/126 138/301/126
f 140/306/127 139/304/127 136/297/127 137/299/127
f 52/135/128 138/302/128 133/292/128 4/13/128
f 138/302/129 137/300/129 134/294/129 133/292/129
f 137/300/130 136/298/130 135/296/130 134/294/130
f 105/230/131 1/3/131 88/202/131 59/153/131 108/237/131 2/5/131
f 86/199/132 85/195/132 83/192/132
f 83/192/133 85/195/133 18/45/133 23/58/133
f 63/158/134 15/37/134 23/59/134 18/46/134 12/31/134
f 84/194/135 18/47/135 85/196/135
l 52 106
