# Blender 3.3.1
# www.blender.org
mtllib monstruo_3_grande_caminar569.mtl
o monstruo_grande
v 0.487271 1.984560 0.301631
v 0.528039 1.124853 0.040712
v -0.647404 1.836991 0.109300
v -0.276670 1.209224 0.224141
v 0.792444 2.246175 0.055272
v 0.616035 1.603973 -0.226563
v -0.711156 2.036801 -0.338803
v -0.670544 1.716569 -0.357617
v -0.240918 2.435147 0.397673
v 0.296510 2.290793 0.451000
v -0.388357 2.418851 0.483145
v -1.063742 2.135483 -0.261053
v -0.180479 2.582275 0.038905
v 0.355244 2.407434 0.181657
v -0.949286 1.997812 -0.078021
v -0.334459 2.671308 0.042517
v -0.757388 2.363104 0.443202
v -1.395486 2.091988 -0.054388
v -1.152884 2.118858 0.187398
v -0.865295 2.688211 0.150871
v -0.516997 2.732279 0.089581
v -0.471075 2.376363 0.448652
v -1.077630 2.028298 -0.107179
v -1.880120 0.873324 0.590403
v -1.765380 0.850353 0.658795
v -1.715764 0.673724 0.463901
v -1.785798 0.687746 0.422156
v 0.410868 2.188982 0.456921
v 0.617032 2.369720 0.269455
v 0.400351 2.310483 0.462550
v 0.479291 2.423550 0.245324
v 0.680408 1.914400 0.425602
v 0.891597 1.919443 0.383025
v 0.698306 1.965529 0.468217
v 0.848956 2.060606 0.384349
v 0.723428 1.748668 0.665898
v 0.837809 1.727685 0.653796
v 0.745663 1.782021 0.764144
v 0.857675 1.763956 0.745294
v 0.667319 1.671628 0.790116
v 0.900573 1.635010 0.754693
v 0.645017 1.720708 0.979690
v 0.995862 1.659951 0.920569
v -0.077598 2.471129 0.437291
v 0.129013 2.432794 0.443172
v -0.044876 2.559246 0.187389
v 0.156003 2.515571 0.195397
v -0.024063 2.784716 0.574960
v 0.181614 2.712253 0.556050
v -0.011930 2.886734 0.316522
v 0.193457 2.814310 0.296820
v -0.498492 1.190349 0.044461
v -0.408161 1.161763 -0.178114
v -0.040543 1.267551 -0.336648
v -0.683702 1.869776 -0.118334
v 0.538753 1.230671 -0.172237
v 0.318295 1.275740 -0.281543
v 0.044013 1.515095 -0.333288
v -0.019213 1.118059 0.183513
v 0.601079 2.056800 0.223627
v -0.213157 2.486679 0.271859
v -0.364883 2.661030 0.311535
v -0.867619 2.050109 -0.172395
v 0.305723 2.410391 0.338162
v -0.753395 2.590118 0.397743
v -1.321483 2.238004 0.198537
v -0.517539 2.659074 0.288067
v -1.839586 0.860966 0.652551
v -1.716324 0.564981 0.346341
v 0.529170 2.293321 0.408095
v 0.443057 2.414633 0.373875
v 0.770869 1.877797 0.367058
v 0.790586 2.024627 0.478203
v 0.779662 1.738758 0.657006
v 0.801705 1.772316 0.754700
v 0.778315 1.640592 0.751263
v 0.810157 1.668482 0.911564
v -0.063119 2.514294 0.310644
v 0.140170 2.475657 0.318082
v -0.049323 2.838022 0.445388
v 0.218856 2.761280 0.427331
v -1.626121 1.172442 0.626382
v -1.675598 0.999385 0.550336
v -1.825236 1.183297 0.510245
v -1.783595 1.021007 0.485963
v -1.719510 0.843206 0.445136
v -1.757770 1.158883 0.615357
v -0.032731 1.789769 0.479585
v 0.237974 2.115235 -0.224512
v 0.176115 2.508251 0.018020
v 0.029025 2.310489 0.575793
v 0.050328 2.536864 0.189216
v 0.030953 2.450456 0.439171
v 0.092563 2.865575 0.267415
v 0.076939 2.733182 0.604172
v 0.088219 2.850980 0.457049
v 0.188700 2.675604 0.221525
v 0.170893 2.562887 0.517169
v -0.065468 2.620579 0.528508
v -0.049122 2.735240 0.230472
v -0.074602 2.679490 0.379456
v 0.194686 2.619044 0.369362
v 0.069879 2.713010 0.205066
v 0.052472 2.582896 0.543176
v 0.584547 1.617998 0.086015
v -0.568763 1.550452 0.162711
v 0.687761 1.808762 -0.180204
v 0.174158 1.064360 0.160726
v -0.237965 0.042466 0.278704
v -0.376012 0.083754 0.401741
v -0.411615 0.047428 0.154831
v -0.278475 0.024823 0.138275
v 0.351190 -0.043369 -0.256277
v 0.276188 -0.050081 -0.330816
v 0.359706 -0.044986 -0.294903
v 0.327631 -0.048183 -0.320502
v 0.292432 -0.044705 -0.244845
v 0.079956 0.894313 -0.256669
v 0.157544 0.581526 -0.265488
v 0.210862 0.276686 -0.280301
v 0.245298 0.226374 -0.108858
v 0.216709 0.456961 0.004606
v 0.211441 0.723354 0.086589
v 0.367375 0.235786 -0.132383
v 0.422717 0.477478 -0.035723
v 0.494746 0.814051 0.034801
v 0.334433 0.925700 -0.238226
v 0.337322 0.576393 -0.235925
v 0.317797 0.273374 -0.260679
v 0.384764 0.260374 -0.209305
v 0.451028 0.555829 -0.153177
v 0.508648 0.903776 -0.136261
v -0.149747 0.968879 0.366584
v -0.145573 0.687437 0.394559
v -0.151002 0.449287 0.443830
v -0.436006 0.447826 0.441838
v -0.438172 0.707660 0.345610
v -0.449514 0.949463 0.276199
v -0.476632 0.411175 0.174903
v -0.478546 0.671718 0.077209
v -0.493689 0.905323 0.002346
v -0.102552 0.836936 -0.055363
v -0.138234 0.625685 0.030045
v -0.184820 0.432556 0.126661
vn 0.0587 0.5298 -0.8461
vn 0.0078 -0.0098 -0.9999
vn 0.3989 -0.2124 -0.8921
vn -0.3469 -0.2019 0.9159
vn 0.9305 -0.2452 0.2722
vn 0.6534 0.7199 0.2340
vn 0.2594 0.8813 -0.3950
vn 0.3907 -0.2055 0.8973
vn -0.0697 0.9251 0.3733
vn 0.0442 0.4952 -0.8676
vn -0.3241 -0.4050 0.8549
vn -0.4510 -0.8452 -0.2869
vn -0.3796 -0.0892 0.9208
vn 0.1642 -0.8823 0.4412
vn 0.8918 -0.2769 0.3578
vn -0.1601 -0.7269 0.6678
vn 0.1830 0.9656 0.1846
vn -0.1178 -0.7424 0.6595
vn -0.7761 0.2833 0.5634
vn 0.9806 -0.0000 -0.1958
vn -0.7690 0.0521 -0.6371
vn 0.4701 0.7538 0.4591
vn 0.0295 0.1950 0.9804
vn -0.4727 -0.4883 0.7336
vn -0.2053 0.6808 0.7031
vn -0.9708 0.0903 0.2224
vn 0.1092 -0.6459 -0.7556
vn 0.8230 0.5435 0.1651
vn -0.5319 -0.5913 0.6062
vn 0.8591 0.2534 -0.4447
vn -0.2542 0.7568 0.6022
vn 0.9907 0.0642 0.1203
vn 0.1807 -0.8534 -0.4890
vn -0.0523 -0.9824 0.1795
vn -0.0660 -0.7237 -0.6869
vn -0.8225 0.5468 -0.1568
vn 0.3840 0.8051 0.4521
vn 0.9909 -0.0413 -0.1280
vn 0.3096 0.5712 0.7602
vn 0.2077 0.9779 -0.0235
vn -0.2613 0.9173 0.3004
vn 0.4163 0.8836 0.2144
vn 0.0645 0.9771 0.2027
vn -0.9743 0.1398 0.1766
vn 0.2419 -0.3323 0.9116
vn -0.1988 0.4612 -0.8648
vn -0.8315 -0.4824 -0.2755
vn -0.9384 -0.2570 0.2308
vn 0.2228 0.1640 -0.9610
vn -0.9597 0.2532 -0.1220
vn 0.0478 0.8506 0.5236
vn 0.4126 0.7354 0.5375
vn -0.2301 0.9160 0.3285
vn 0.9743 -0.1669 0.1515
vn 0.0608 0.8580 0.5100
vn -0.3502 -0.6836 -0.6403
vn -0.2044 -0.9548 0.2156
vn -0.4425 -0.7955 -0.4140
vn 0.3701 0.7096 0.5996
vn -0.1966 -0.8360 -0.5122
vn -0.0768 0.9970 -0.0023
vn 0.4952 0.6183 0.6103
vn 0.4052 0.2643 0.8752
vn -0.2577 0.2479 -0.9339
vn -0.0848 0.1410 0.9864
vn -0.7255 -0.6207 0.2973
vn -0.2950 0.5017 0.8132
vn -0.6804 0.7091 0.1851
vn -0.4441 -0.8241 -0.3517
vn 0.1230 0.3807 0.9165
vn 0.5518 0.5439 0.6322
vn 0.1200 0.3402 0.9327
vn -0.2796 0.6196 -0.7334
vn -0.8650 0.4672 0.1831
vn 0.8991 -0.3247 0.2935
vn 0.4983 0.7003 0.5112
vn 0.3326 0.3771 -0.8644
vn -0.2888 -0.2549 0.9228
vn 0.5147 0.8451 0.1447
vn 0.3909 0.9204 0.0063
vn -0.1545 0.5843 0.7967
vn -0.5349 -0.0657 0.8423
vn 0.3405 0.7139 -0.6119
vn -0.1992 -0.5417 0.8166
vn 0.1266 0.1035 -0.9865
vn 0.9431 -0.3325 0.0001
vn -0.9877 0.0058 -0.1565
vn -0.0733 0.1677 -0.9831
vn -0.0130 -0.5590 0.8291
vn -0.9998 0.0100 -0.0157
vn 0.9633 -0.2620 -0.0584
vn -0.0752 -0.9910 -0.1111
vn 0.2433 -0.2575 0.9351
vn -0.9622 -0.2277 0.1497
vn -0.9689 -0.1804 0.1694
vn 0.9715 -0.1884 -0.1437
vn -0.1507 0.0164 -0.9884
vn -0.1452 -0.9756 0.1645
vn 0.0338 -0.9977 0.0589
vn 0.1966 -0.4097 0.8908
vn 0.1841 0.1856 -0.9652
vn 0.9720 -0.1369 0.1907
vn 0.6154 0.1639 -0.7710
vn 0.4540 -0.1129 -0.8838
vn 0.5373 -0.0245 -0.8431
vn 0.5986 0.0224 -0.8007
vn 0.9951 -0.0983 0.0137
vn 0.9812 -0.1900 0.0329
vn 0.9645 -0.2458 0.0966
vn 0.1269 -0.1433 -0.9815
vn 0.1085 0.0230 -0.9938
vn 0.1707 0.0734 -0.9826
vn 0.2840 -0.1152 0.9519
vn 0.2359 -0.2628 0.9356
vn 0.2101 -0.4073 0.8888
vn -0.9339 -0.2039 0.2938
vn -0.9612 -0.1714 0.2162
vn -0.9742 -0.1813 0.1347
vn -0.2117 -0.5134 -0.8316
vn -0.1839 -0.3256 -0.9274
vn -0.1526 -0.3764 -0.9138
vn 0.9354 0.2490 0.2510
vn 0.9958 -0.0452 0.0802
vn 0.9915 -0.1276 -0.0238
vn -0.9957 -0.0032 -0.0921
vn -0.9879 -0.0079 0.1552
vn -0.9886 0.0457 0.1434
vn -0.4369 0.4471 0.7805
vn -0.2253 0.1718 0.9590
vn -0.0753 0.2801 0.9570
vn 0.3818 -0.2773 0.8817
vn 0.5294 0.3665 -0.7651
vn -0.0701 -0.4692 -0.8803
vn -0.1748 -0.8046 -0.5675
vn -0.7239 -0.0833 -0.6849
vt 0.882279 0.260085
vt 0.436089 0.649131
vt 0.117664 0.305524
vt 0.860974 0.338762
vt 0.079561 0.383885
vt 0.278417 0.728674
vt 0.111517 0.716819
vt 0.301243 0.337859
vt 0.232943 0.387386
vt 0.111517 0.662267
vt 0.671871 0.687525
vt 0.175114 0.511099
vt 0.930991 0.712692
vt 0.796001 0.259488
vt 0.522181 0.649131
vt 0.719621 0.316178
vt 0.801110 0.310020
vt 0.698705 0.366293
vt 0.510656 0.337024
vt 0.023033 0.717149
vt 0.367094 0.730187
vt 0.507246 0.358198
vt 0.018976 0.695717
vt 0.103380 0.570561
vt 0.268725 0.266033
vt 0.143950 0.273348
vt 0.098384 0.631539
vt 0.301351 0.259488
vt 0.128079 0.559933
vt 0.480438 0.333338
vt 0.348619 0.714075
vt 0.604958 0.268707
vt 0.031105 0.562973
vt 0.043818 0.625810
vt 0.721993 0.282954
vt 0.329365 0.336360
vt 0.302724 0.713315
vt 0.030374 0.549675
vt 0.582817 0.260846
vt 0.875347 0.642471
vt 0.380514 0.272320
vt 0.124895 0.517524
vt 0.813390 0.578569
vt 0.436089 0.332372
vt 0.956124 0.588845
vt 0.367094 0.692599
vt 0.367094 0.522797
vt 0.871643 0.594841
vt 0.398138 0.324445
vt 0.043891 0.509019
vt 0.796001 0.641153
vt 0.491075 0.268473
vt 0.032114 0.534706
vt 0.552485 0.259488
vt 0.331566 0.259909
vt 0.129819 0.544964
vt 0.339759 0.337186
vt 0.913298 0.588845
vt 0.317584 0.707220
vt 0.845734 0.463378
vt 0.311567 0.646434
vt 0.944558 0.353645
vt 0.398138 0.462439
vt 0.920230 0.354337
vt 0.870057 0.463781
vt 0.929709 0.374247
vt 0.357807 0.478584
vt 0.347994 0.663056
vt 0.944558 0.373825
vt 0.097076 0.285727
vt 0.229765 0.651022
vt 0.758050 0.297859
vt 0.168317 0.651042
vt 0.119329 0.272208
vt 0.094178 0.643292
vt 0.222768 0.636959
vt 0.746872 0.283208
vt 0.174541 0.636975
vt 0.045175 0.638147
vt 0.080672 0.327471
vt 0.442544 0.673801
vt 0.734592 0.339187
vt 0.484453 0.673801
vt 0.070725 0.319456
vt 0.218298 0.685110
vt 0.751374 0.331694
vt 0.180611 0.684911
vt 0.062412 0.356092
vt 0.455575 0.702696
vt 0.724658 0.367821
vt 0.476314 0.702696
vt 0.043357 0.357400
vt 0.210236 0.723455
vt 0.742364 0.370210
vt 0.189444 0.723462
vt 0.050281 0.367705
vt 0.444942 0.715336
vt 0.810526 0.722486
vt 0.728448 0.380153
vt 0.853695 0.722486
vt 0.487920 0.715336
vt 0.018975 0.371756
vt 0.232852 0.738567
vt 0.796001 0.739289
vt 0.758050 0.386241
vt 0.861207 0.739289
vt 0.167770 0.738589
vt 0.100634 0.583041
vt 0.712300 0.698974
vt 0.802197 0.701507
vt 0.098640 0.600731
vt 0.972705 0.287497
vt 0.747907 0.696578
vt 0.052045 0.577939
vt 0.849895 0.701507
vt 0.710445 0.675017
vt 0.050052 0.595630
vt 0.746553 0.677603
vt 0.924885 0.287497
vt 0.797725 0.671259
vt 0.981025 0.313792
vt 0.715147 0.730011
vt 0.752543 0.724602
vt 0.973919 0.259495
vt 0.967002 0.332143
vt 0.934252 0.306472
vt 0.715328 0.644023
vt 0.847669 0.671259
vt 0.923848 0.259495
vt 0.753088 0.649631
vt 0.920230 0.324823
vt 0.068284 0.665533
vt 0.630362 0.705721
vt 0.712055 0.621316
vt 0.966165 0.712391
vt 0.519769 0.388732
vt 0.031375 0.663704
vt 0.592215 0.695479
vt 0.581836 0.620019
vt 0.750017 0.621843
vt 0.569690 0.667298
vt 0.581066 0.387596
vt 0.531739 0.516092
vt 0.642835 0.625048
vt 0.273616 0.509019
vt 0.070982 0.710642
vt 0.316851 0.732164
vt 0.684917 0.393810
vt 0.816625 0.338063
vt 0.644803 0.392946
vt 0.602800 0.367236
vt 0.671871 0.661666
vt 0.181146 0.386242
vt 0.855113 0.259897
vt 0.463196 0.649131
vt 0.077903 0.567886
vt 0.078993 0.554271
vt 0.322237 0.720993
vt 0.070972 0.628379
vt 0.834014 0.651825
vt 0.084160 0.512738
vt 0.838315 0.596273
vt 0.320679 0.509019
vt 0.080733 0.539302
vt 0.857365 0.464048
vt 0.931678 0.351118
vt 0.335174 0.488977
vt 0.367094 0.673623
vt 0.939667 0.384854
vt 0.199177 0.651021
vt 0.069465 0.641494
vt 0.198664 0.632807
vt 0.464209 0.672968
vt 0.199604 0.684998
vt 0.465945 0.702696
vt 0.199840 0.723459
vt 0.466714 0.715004
vt 0.832520 0.720483
vt 0.200177 0.738589
vt 0.829423 0.735282
vt 0.076340 0.580490
vt 0.826046 0.701507
vt 0.074346 0.598181
vt 0.948795 0.287497
vt 0.823088 0.670800
vt 0.959731 0.307426
vt 0.948976 0.259488
vt 0.941524 0.331189
vt 0.875347 0.491894
vt 0.391834 0.432095
vt 0.377694 0.448634
vt 0.915590 0.478791
vt 0.834644 0.488373
vt 0.326937 0.619279
vt 0.938593 0.478810
vt 0.335216 0.632947
vt 0.358601 0.463790
vt 0.348787 0.648138
vt 0.927106 0.463378
vt 0.854274 0.489560
vt 0.315804 0.619182
vt 0.212520 0.321385
vt 0.644070 0.318501
vt 0.018976 0.592450
vt 0.663817 0.276029
vt 0.129819 0.597828
vt 0.224108 0.269832
vt 0.051049 0.586785
vt 0.728499 0.676310
vt 0.099637 0.591886
vt 0.730103 0.697776
vt 0.734390 0.646904
vt 0.920230 0.314550
vt 0.981025 0.324065
vt 0.732426 0.727384
vt 0.950683 0.319044
vt 0.753088 0.663662
vt 0.920230 0.273492
vt 0.977552 0.273492
vt 0.752543 0.710647
vt 0.709822 0.714522
vt 0.796001 0.686127
vt 0.853178 0.686127
vt 0.709822 0.659561
vt 0.824792 0.685890
vt 0.948939 0.273488
vt 0.731549 0.661651
vt 0.730449 0.712624
vt 0.878850 0.297575
vt 0.096711 0.342677
vt 0.285581 0.357771
vt 0.108549 0.696221
vt 0.804979 0.293594
vt 0.708839 0.350023
vt 0.668288 0.644023
vt 0.436089 0.526409
vt 0.145034 0.385321
vt 0.919159 0.607821
vt 0.247387 0.613831
vt 0.970304 0.416607
vt 0.947808 0.608020
vt 0.704660 0.516092
vt 0.970304 0.403829
vt 0.750017 0.516884
vt 0.618892 0.516092
vt 0.920230 0.404231
vt 0.273616 0.612878
vt 0.642836 0.516847
vt 0.938584 0.415207
vt 0.924281 0.443436
vt 0.075400 0.489812
vt 0.855524 0.444402
vt 0.531739 0.629156
vt 0.934913 0.435583
vt 0.576828 0.496673
vt 0.931440 0.443424
vt 0.848383 0.444289
vt 0.592622 0.497116
vt 0.934913 0.440184
vt 0.586164 0.496977
vt 0.517161 0.630156
vt 0.920230 0.438606
vt 0.085942 0.490043
vt 0.585376 0.420489
vt 0.510472 0.551446
vt 0.582586 0.444044
vt 0.504260 0.576063
vt 0.581388 0.469636
vt 0.508131 0.602400
vt 0.103684 0.463024
vt 0.477645 0.604263
vt 0.118194 0.440373
vt 0.454885 0.581958
vt 0.129418 0.415411
vt 0.438452 0.557360
vt 0.876897 0.417052
vt 0.081901 0.462161
vt 0.882279 0.393921
vt 0.081653 0.438865
vt 0.880271 0.363315
vt 0.079604 0.408162
vt 0.633117 0.418943
vt 0.615530 0.444447
vt 0.600997 0.469910
vt 0.614559 0.469949
vt 0.862035 0.416811
vt 0.638313 0.444473
vt 0.857648 0.390640
vt 0.666106 0.417503
vt 0.844696 0.362700
vt 0.167770 0.536691
vt 0.914144 0.688660
vt 0.182151 0.561697
vt 0.913298 0.663084
vt 0.189855 0.582503
vt 0.915415 0.641729
vt 0.680787 0.549268
vt 0.966165 0.641681
vt 0.684678 0.573659
vt 0.963812 0.665813
vt 0.684995 0.596421
vt 0.964308 0.688427
vt 0.584794 0.548886
vt 0.729850 0.550060
vt 0.578610 0.572959
vt 0.734888 0.574452
vt 0.569690 0.595426
vt 0.736445 0.597214
vt 0.642060 0.590920
vt 0.247172 0.543053
vt 0.641052 0.570535
vt 0.248998 0.562413
vt 0.635978 0.552556
vt 0.245738 0.579271
s 0
usemtl Material
f 89/203/1 7/19/1 13/32/1 90/205/1
f 8/22/2 7/19/2 89/203/2 58/151/2 54/142/2 53/136/2
f 6/18/3 56/148/3 57/150/3
f 3/8/4 106/231/4 4/9/4 59/153/4 88/202/4
f 6/17/5 107/233/5 5/14/5 60/154/5 1/1/5 105/229/5 2/4/5 56/149/5
f 61/156/6 13/33/6 16/38/6 62/157/6
f 5/16/7 14/35/7 31/77/7 29/72/7
f 88/202/8 1/3/8 10/26/8 91/207/8
f 67/164/9 21/53/9 20/50/9 65/161/9
f 13/32/10 7/19/10 12/30/10 16/39/10
f 3/8/11 9/25/11 11/28/11 15/36/11
f 55/147/12 3/6/12 15/37/12 63/158/12
f 66/162/13 19/48/13 17/40/13 65/160/13
f 23/57/14 22/55/14 17/41/14 19/49/14
f 83/191/15 82/190/15 25/63/15 26/67/15
f 15/36/16 11/28/16 22/55/16 23/57/16
f 62/157/17 16/38/17 21/53/17 67/164/17
f 69/169/18 26/66/18 25/64/18 68/166/18
f 87/200/19 84/193/19 24/60/19 68/165/19
f 86/197/20 83/191/20 26/67/20 69/167/20
f 84/194/21 85/196/21 27/68/21 24/61/21
f 70/170/22 29/73/22 31/78/22 71/172/22
f 70/170/23 28/71/23 34/85/23 73/174/23
f 10/26/24 1/3/24 28/70/24 30/74/24
f 64/159/25 10/27/25 30/75/25 71/171/25
f 34/84/26 32/80/26 36/88/26 38/92/26
f 60/155/27 5/15/27 33/83/27 72/173/27
f 5/16/28 29/72/28 35/86/28 33/82/28
f 28/70/29 1/3/29 32/80/29 34/84/29
f 37/90/30 39/94/30 43/105/30 41/99/30
f 73/174/31 34/85/31 38/93/31 75/176/31
f 33/82/32 35/86/32 39/94/32 37/90/32
f 72/173/33 33/83/33 37/91/33 74/175/33
f 76/178/34 41/100/34 43/106/34 77/180/34
f 74/175/35 37/91/35 41/101/35 76/177/35
f 38/92/36 36/88/36 40/96/36 42/102/36
f 75/176/37 38/93/37 42/103/37 77/179/37
f 102/226/38 97/218/38 51/129/38 81/187/38
f 91/206/39 10/27/39 45/111/39 93/210/39
f 90/204/40 13/33/40 46/114/40 92/208/40
f 61/156/41 9/24/41 44/108/41 78/181/41
f 64/159/42 14/34/42 47/117/42 79/183/42
f 96/216/43 94/213/43 50/126/43 80/186/43
f 101/225/44 99/222/44 48/120/44 80/185/44
f 104/228/45 98/220/45 49/123/45 95/215/45
f 103/227/46 100/224/46 50/127/46 94/212/46
f 8/23/47 53/137/47 52/132/47
f 8/23/48 52/132/48 4/10/48 106/232/48 3/7/48 55/146/48 7/20/48
f 54/142/49 58/151/49 89/203/49 5/16/49 107/234/49 6/18/49 57/150/49
f 100/223/50 101/225/50 80/185/50 50/128/50
f 95/214/51 96/216/51 80/186/51 48/121/51
f 10/27/52 64/159/52 79/183/52 45/111/52
f 13/33/53 61/156/53 78/181/53 46/114/53
f 98/219/54 102/226/54 81/187/54 49/124/54
f 39/95/55 75/176/55 77/179/55 43/107/55
f 36/89/56 74/175/56 76/177/56 40/97/56
f 40/98/57 76/178/57 77/180/57 42/104/57
f 32/81/58 72/173/58 74/175/58 36/89/58
f 35/87/59 73/174/59 75/176/59 39/95/59
f 1/2/60 60/155/60 72/173/60 32/81/60
f 14/34/61 64/159/61 71/171/61 31/79/61
f 29/73/62 70/170/62 73/174/62 35/87/62
f 28/71/63 70/170/63 71/172/63 30/76/63
f 85/196/64 86/198/64 69/168/64 27/68/64
f 82/189/65 87/200/65 68/165/65 25/65/65
f 27/69/66 69/169/66 68/166/66 24/62/66
f 11/29/67 62/157/67 67/164/67 22/56/67
f 18/43/68 66/162/68 65/160/68 20/51/68
f 7/21/69 55/147/69 63/158/69 12/31/69
f 22/56/70 67/164/70 65/161/70 17/42/70
f 9/24/71 61/156/71 62/157/71 11/29/71
f 19/48/72 66/162/72 87/200/72 82/189/72
f 12/30/73 18/44/73 20/52/73 21/54/73 16/39/73
f 66/163/74 18/47/74 84/194/74 87/201/74
f 23/57/75 19/49/75 82/190/75 83/191/75
f 49/125/76 81/188/76 96/216/76 95/214/76
f 97/217/77 103/227/77 94/212/77 51/130/77
f 99/221/78 104/228/78 95/215/78 48/122/78
f 81/188/79 51/131/79 94/213/79 96/216/79
f 14/34/80 90/204/80 92/208/80 47/117/80
f 9/24/81 91/206/81 93/210/81 44/108/81
f 3/8/82 88/202/82 91/207/82 9/25/82
f 5/16/83 89/203/83 90/205/83 14/35/83
f 44/109/84 93/211/84 104/228/84 99/221/84
f 47/118/85 92/209/85 103/227/85 97/217/85
f 45/112/86 79/184/86 102/226/86 98/219/86
f 46/115/87 78/182/87 101/225/87 100/223/87
f 92/209/88 46/116/88 100/224/88 103/227/88
f 93/211/89 45/113/89 98/220/89 104/228/89
f 78/182/90 44/110/90 99/222/90 101/225/90
f 79/184/91 47/119/91 97/218/91 102/226/91
f 59/152/92 4/11/92 52/133/92 53/138/92 54/141/92 108/235/92
f 136/298/93 110/241/93 109/238/93 135/296/93
f 121/271/94 120/269/94 114/253/94 117/261/94
f 139/304/95 111/244/95 110/242/95 136/297/95
f 135/295/96 109/239/96 112/247/96 144/314/96
f 144/313/97 112/248/97 111/245/97 139/303/97
f 111/246/98 112/249/98 109/240/98 110/243/98
f 117/262/99 114/254/99 116/259/99 115/256/99 113/250/99
f 124/277/100 121/270/100 117/263/100 113/251/100
f 120/268/101 129/284/101 116/260/101 114/255/101
f 130/286/102 124/276/102 113/252/102 115/257/102
f 129/284/103 130/285/103 115/258/103 116/260/103
f 57/150/104 56/148/104 132/289/104 127/282/104
f 127/282/105 132/289/105 131/287/105 128/283/105
f 128/283/106 131/287/106 130/285/106 129/284/106
f 56/149/107 2/4/107 126/280/107 132/290/107
f 132/290/108 126/280/108 125/278/108 131/288/108
f 131/288/109 125/278/109 124/276/109 130/286/109
f 54/142/110 57/150/110 127/282/110 118/264/110
f 118/264/111 127/282/111 128/283/111 119/266/111
f 119/266/112 128/283/112 129/284/112 120/268/112
f 2/5/113 108/237/113 123/274/113 126/281/113
f 126/281/114 123/274/114 122/272/114 125/279/114
f 125/279/115 122/272/115 121/270/115 124/277/115
f 108/236/116 54/143/116 118/265/116 123/275/116
f 123/275/117 118/265/117 119/267/117 122/273/117
f 122/273/118 119/267/118 120/269/118 121/271/118
f 54/144/119 142/309/119 141/307/119 53/139/119
f 142/309/120 143/311/120 140/305/120 141/307/120
f 143/311/121 144/313/121 139/303/121 140/305/121
f 4/12/122 133/291/122 142/310/122 54/145/122
f 133/291/123 134/293/123 143/312/123 142/310/123
f 134/293/124 135/295/124 144/314/124 143/312/124
f 53/140/125 141/308/125 138/301/125 52/134/125
f 141/308/126 140/306/126 137/299/126 138/301/126
f 140/306/127 139/304/127 136/297/127 137/299/127
f 52/135/128 138/302/128 133/292/128 4/13/128
f 138/302/129 137/300/129 134/294/129 133/292/129
f 137/300/130 136/298/130 135/296/130 134/294/130
f 105/230/131 1/3/131 88/202/131 59/153/131 108/237/131 2/5/131
f 86/199/132 85/195/132 83/192/132
f 83/192/133 85/195/133 18/45/133 23/58/133
f 63/158/134 15/37/134 23/59/134 18/46/134 12/31/134
f 84/194/135 18/47/135 85/196/135
l 52 106
