# Blender 3.3.1
# www.blender.org
mtllib monstruo_3_caminar542.mtl
o monstruo_grande
v 0.588407 1.916605 0.404625
v 0.525016 1.102180 0.087365
v -0.566104 1.877726 0.153910
v -0.288805 1.213806 0.226178
v 0.897994 2.149042 0.125358
v 0.643220 1.517362 -0.233062
v -0.619495 2.098503 -0.284289
v -0.608404 1.781083 -0.331917
v -0.121494 2.412111 0.467367
v 0.403591 2.231745 0.516050
v -0.268917 2.400204 0.552702
v -0.945253 2.196920 -0.209136
v -0.052763 2.579325 0.119302
v 0.475589 2.350507 0.247361
v -0.835985 2.046146 -0.032663
v -0.201768 2.677101 0.128801
v -0.640552 2.362567 0.507186
v -1.276294 2.135093 -0.015383
v -1.039203 2.146468 0.231601
v -0.736168 2.707668 0.234561
v -0.382965 2.743701 0.178709
v -0.352600 2.365049 0.515998
v -0.961119 2.076805 -0.065297
v -1.757859 0.866700 0.525676
v -1.643559 0.837412 0.592369
v -1.594902 0.676028 0.384448
v -1.664667 0.693905 0.343741
v 0.517916 2.135814 0.535581
v 0.730428 2.295428 0.331947
v 0.509235 2.246939 0.531692
v 0.599731 2.357092 0.313966
v 0.791321 1.842367 0.553221
v 0.997377 1.861823 0.469991
v 0.800042 1.909610 0.578248
v 0.952058 1.995134 0.476395
v 0.910319 1.687653 0.789460
v 1.019417 1.675509 0.747488
v 0.953504 1.736888 0.873176
v 1.057839 1.725163 0.826675
v 0.898468 1.625499 0.932861
v 1.116367 1.602244 0.838718
v 0.921126 1.700056 1.113892
v 1.248720 1.660196 0.967701
v 0.047496 2.434866 0.508778
v 0.251677 2.383980 0.507962
v 0.081481 2.535581 0.263560
v 0.280673 2.476761 0.264288
v 0.102612 2.742939 0.650169
v 0.308042 2.670867 0.627451
v 0.111987 2.849511 0.393676
v 0.318419 2.776701 0.370734
v -0.499040 1.219234 0.030386
v -0.395580 1.201449 -0.187958
v -0.039337 1.278621 -0.332776
v -0.604750 1.924882 -0.074215
v 0.540884 1.133827 -0.152119
v 0.323165 1.153640 -0.271956
v 0.067174 1.517410 -0.319930
v -0.028434 1.136106 0.198328
v 0.700481 1.979048 0.320168
v -0.090484 2.470113 0.345220
v -0.231370 2.650498 0.396751
v -0.760732 2.108282 -0.121646
v 0.424444 2.353039 0.406045
v -0.627466 2.591021 0.475127
v -1.205731 2.264749 0.248837
v -0.384254 2.659128 0.373470
v -1.717644 0.849168 0.586778
v -1.596059 0.576770 0.258781
v 0.639768 2.234502 0.476341
v 0.560627 2.348334 0.444789
v 0.877976 1.810560 0.478766
v 0.894475 1.969753 0.575864
v 0.963009 1.681241 0.766445
v 1.005833 1.730521 0.849825
v 0.998216 1.598267 0.868817
v 1.067538 1.652052 1.009493
v 0.063354 2.485646 0.385147
v 0.263755 2.431311 0.384777
v 0.075745 2.798485 0.521868
v 0.344259 2.721708 0.499388
v -1.501282 1.159740 0.585481
v -1.552073 0.993591 0.496069
v -1.699878 1.181135 0.469928
v -1.659657 1.021157 0.433296
v -1.597050 0.846484 0.378921
v -1.633011 1.148303 0.573093
v 0.035387 1.751678 0.511773
v 0.325105 2.085011 -0.181120
v 0.296887 2.478997 0.086563
v 0.136120 2.266556 0.634512
v 0.175368 2.506873 0.262138
v 0.155658 2.410383 0.507496
v 0.216984 2.829089 0.343502
v 0.203971 2.690929 0.677225
v 0.213421 2.811272 0.532045
v 0.314158 2.638174 0.293636
v 0.298114 2.520005 0.586391
v 0.061498 2.579648 0.601859
v 0.076627 2.701392 0.307459
v 0.051293 2.641796 0.454531
v 0.320701 2.578754 0.439650
v 0.195372 2.678224 0.279941
v 0.179070 2.541484 0.614058
v 0.634905 1.576999 0.066906
v -0.529942 1.586202 0.190368
v 0.737629 1.707549 -0.177967
v 0.166323 1.094283 0.203960
v -0.295909 0.121333 -0.130204
v -0.423844 0.105337 0.008661
v -0.479454 0.164567 -0.229265
v -0.347881 0.156925 -0.263053
v 0.304746 -0.050975 0.000238
v 0.231450 -0.063443 -0.075289
v 0.314202 -0.055694 -0.037927
v 0.282724 -0.060854 -0.063950
v 0.245649 -0.051237 0.010344
v 0.071612 0.819731 -0.115453
v 0.140743 0.571594 -0.063387
v 0.174920 0.268914 -0.056007
v 0.199999 0.234032 0.120792
v 0.182110 0.476098 0.209932
v 0.190882 0.749186 0.265253
v 0.323189 0.233730 0.101586
v 0.390603 0.481063 0.179450
v 0.479237 0.809561 0.201015
v 0.327516 0.828768 -0.094591
v 0.318690 0.559584 -0.027095
v 0.280715 0.261207 -0.031723
v 0.344843 0.249424 0.023428
v 0.428019 0.542498 0.061628
v 0.499184 0.835579 0.011742
v -0.184027 0.948087 0.354266
v -0.194862 0.634658 0.272495
v -0.215682 0.394666 0.195671
v -0.499787 0.414552 0.188383
v -0.482556 0.693317 0.229580
v -0.477336 0.956313 0.246095
v -0.529625 0.506465 -0.066026
v -0.509685 0.774569 -0.020395
v -0.504277 0.946505 -0.024691
v -0.115594 0.868933 -0.064825
v -0.170333 0.726328 -0.069808
v -0.234740 0.526199 -0.093428
vn 0.0945 0.5688 -0.8170
vn 0.0088 0.0533 -0.9985
vn 0.4397 -0.2963 -0.8479
vn -0.3608 -0.2043 0.9100
vn 0.8988 -0.3739 0.2289
vn 0.6950 0.6635 0.2772
vn 0.3233 0.8467 -0.4227
vn 0.2919 -0.2322 0.9278
vn -0.0445 0.9026 0.4282
vn 0.0752 0.5429 -0.8364
vn -0.3613 -0.4271 0.8289
vn -0.4841 -0.8085 -0.3345
vn -0.3925 -0.1348 0.9098
vn 0.1329 -0.9145 0.3821
vn 0.8881 -0.3121 0.3375
vn -0.1864 -0.7691 0.6113
vn 0.2315 0.9423 0.2419
vn -0.1267 -0.7903 0.5995
vn -0.7757 0.2461 0.5811
vn 0.9812 0.0061 -0.1926
vn -0.7664 0.1086 -0.6331
vn 0.5169 0.7397 0.4310
vn 0.0380 0.3161 0.9480
vn -0.4788 -0.4128 0.7749
vn -0.1882 0.6841 0.7047
vn -0.8943 -0.0189 0.4471
vn 0.0622 -0.7226 -0.6885
vn 0.8299 0.5465 0.1118
vn -0.5641 -0.4854 0.6680
vn 0.6785 0.2556 -0.6887
vn -0.1681 0.7596 0.6283
vn 0.9867 0.0979 -0.1298
vn 0.1415 -0.8526 -0.5030
vn 0.1121 -0.9449 0.3076
vn -0.1628 -0.8192 -0.5500
vn -0.8938 0.4484 0.0126
vn 0.3907 0.8918 0.2282
vn 0.9908 -0.0342 -0.1311
vn 0.3420 0.5124 0.7877
vn 0.2817 0.9588 0.0364
vn -0.1997 0.9095 0.3645
vn 0.4809 0.8414 0.2466
vn 0.0669 0.9732 0.2199
vn -0.9734 0.1318 0.1872
vn 0.2503 -0.3432 0.9053
vn -0.2066 0.4694 -0.8585
vn -0.8406 -0.3995 -0.3658
vn -0.9629 -0.1658 0.2131
vn 0.2255 0.1899 -0.9556
vn -0.9620 0.2472 -0.1159
vn 0.0543 0.8414 0.5377
vn 0.4556 0.6896 0.5630
vn -0.1603 0.9069 0.3896
vn 0.9763 -0.1609 0.1447
vn 0.0908 0.9263 0.3656
vn -0.4221 -0.7976 -0.4309
vn -0.0253 -0.9260 0.3767
vn -0.4371 -0.8510 -0.2911
vn 0.4058 0.7723 0.4888
vn -0.2105 -0.8769 -0.4322
vn -0.0141 0.9998 0.0171
vn 0.5098 0.6653 0.5454
vn 0.3968 0.2920 0.8702
vn -0.2523 0.3222 -0.9124
vn -0.0867 0.0646 0.9941
vn -0.7321 -0.6352 0.2462
vn -0.2662 0.4656 0.8440
vn -0.6661 0.7132 0.2182
vn -0.4844 -0.7913 -0.3731
vn 0.1220 0.3184 0.9401
vn 0.5868 0.4665 0.6618
vn 0.1097 0.2627 0.9586
vn -0.2562 0.6750 -0.6919
vn -0.8726 0.4408 0.2102
vn 0.9011 -0.3388 0.2705
vn 0.5042 0.6914 0.5174
vn 0.3239 0.3900 -0.8620
vn -0.2767 -0.2703 0.9222
vn 0.5177 0.8411 0.1567
vn 0.4633 0.8846 0.0534
vn -0.1159 0.5546 0.8240
vn -0.5364 -0.0709 0.8410
vn 0.4204 0.6977 -0.5800
vn -0.1938 -0.5577 0.8071
vn 0.1081 0.1224 -0.9866
vn 0.9412 -0.3377 -0.0118
vn -0.9874 0.0038 -0.1582
vn -0.0886 0.1832 -0.9791
vn -0.0216 -0.5654 0.8246
vn -0.9998 0.0145 -0.0148
vn 0.9623 -0.2637 -0.0663
vn -0.0788 -0.9878 -0.1346
vn 0.2285 -0.6391 0.7344
vn -0.9736 -0.1883 0.1294
vn -0.9668 -0.2373 0.0950
vn 0.9687 -0.1270 -0.2134
vn -0.1402 0.4299 -0.8919
vn -0.1122 -0.9700 -0.2155
vn 0.0280 -0.9898 0.1393
vn 0.1493 -0.3381 0.9292
vn 0.2231 0.0963 -0.9700
vn 0.9590 -0.1467 0.2426
vn 0.6483 0.0833 -0.7568
vn 0.4367 -0.4521 -0.7778
vn 0.5468 -0.2449 -0.8006
vn 0.6295 -0.0729 -0.7736
vn 0.9911 -0.1151 0.0673
vn 0.9637 -0.2427 0.1109
vn 0.9401 -0.2977 0.1662
vn 0.0347 -0.4454 -0.8946
vn 0.1263 -0.2094 -0.9696
vn 0.2084 -0.0058 -0.9780
vn 0.2361 0.2498 0.9391
vn 0.2048 -0.1566 0.9662
vn 0.1443 -0.3326 0.9320
vn -0.9457 -0.0479 0.3216
vn -0.9711 -0.1138 0.2096
vn -0.9873 -0.1114 0.1135
vn -0.2103 -0.4903 -0.8458
vn -0.1178 0.0247 -0.9927
vn -0.1113 0.1650 -0.9800
vn 0.9298 0.2146 0.2991
vn 0.9797 -0.1631 0.1169
vn 0.9826 -0.1779 -0.0544
vn -0.9863 0.0507 -0.1571
vn -0.9941 0.0213 0.1061
vn -0.9907 0.0470 0.1280
vn -0.4653 0.4017 0.7888
vn -0.2653 -0.1549 0.9516
vn -0.1144 -0.2124 0.9705
vn 0.3669 -0.3717 0.8528
vn 0.5352 0.4200 -0.7329
vn -0.0529 -0.3976 -0.9160
vn -0.1522 -0.7562 -0.6364
vn -0.7274 -0.0259 -0.6857
vt 0.461701 0.809397
vt 0.301930 0.729761
vt 0.094158 0.499911
vt 0.498737 0.648456
vt 0.250869 0.553264
vt 0.714874 0.752530
vt 0.627854 0.740386
vt 0.227533 0.339544
vt 0.300362 0.438253
vt 0.625828 0.633709
vt 0.338991 0.679376
vt 0.653754 0.621457
vt 0.189641 0.785401
vt 0.531284 0.815038
vt 0.232114 0.729761
vt 0.806952 0.326283
vt 0.527824 0.712310
vt 0.703640 0.331352
vt 0.725736 0.123548
vt 0.557184 0.740386
vt 0.714874 0.681901
vt 0.693091 0.138725
vt 0.558638 0.706064
vt 0.944491 0.391302
vt 0.108931 0.369345
vt 0.090202 0.443431
vt 0.952837 0.467016
vt 0.108059 0.346292
vt 0.960024 0.371234
vt 0.653754 0.712739
vt 0.761990 0.055860
vt 0.265996 0.788213
vt 0.829683 0.188590
vt 0.886815 0.394232
vt 0.909606 0.471204
vt 0.826550 0.267021
vt 0.659457 0.749480
vt 0.206417 0.267620
vt 0.238389 0.812575
vt 0.882743 0.373659
vt 0.837846 0.166681
vt 0.102618 0.289588
vt 0.957957 0.321520
vt 0.918648 0.216117
vt 0.803322 0.012950
vt 0.106348 0.638847
vt 0.232551 0.755661
vt 0.798789 0.485160
vt 0.965752 0.239402
vt 0.153968 0.222285
vt 0.894228 0.312474
vt 0.856067 0.102710
vt 0.881967 0.351902
vt 0.842627 0.144082
vt 0.107159 0.331692
vt 0.958812 0.358201
vt 0.199778 0.246429
vt 0.138792 0.619338
vt 0.232114 0.797406
vt 0.967580 0.012950
vt 0.753483 0.682459
vt 0.843831 0.469074
vt 0.256421 0.022764
vt 0.824689 0.472884
vt 0.987050 0.016155
vt 0.832147 0.505580
vt 0.295109 0.018166
vt 0.782932 0.707368
vt 0.843831 0.503254
vt 0.076417 0.467161
vt 0.958695 0.494573
vt 0.833773 0.298242
vt 0.909847 0.503107
vt 0.076958 0.454690
vt 0.951531 0.482650
vt 0.837149 0.281767
vt 0.912926 0.487172
vt 0.064432 0.532285
vt 0.298790 0.687460
vt 0.825577 0.362572
vt 0.264894 0.686125
vt 0.056614 0.518895
vt 0.959622 0.549977
vt 0.837123 0.350740
vt 0.929664 0.555276
vt 0.051257 0.577890
vt 0.291936 0.641182
vt 0.824256 0.407314
vt 0.275162 0.640522
vt 0.035793 0.577862
vt 0.964581 0.612577
vt 0.838997 0.411720
vt 0.948088 0.615681
vt 0.039898 0.592711
vt 0.301778 0.620707
vt 0.403076 0.772170
vt 0.830596 0.428615
vt 0.403076 0.737417
vt 0.267017 0.619338
vt 0.012950 0.593438
vt 0.987050 0.637067
vt 0.428919 0.781443
vt 0.856067 0.440612
vt 0.428919 0.728949
vt 0.935424 0.646785
vt 0.945356 0.412724
vt 0.357115 0.854737
vt 0.331665 0.779032
vt 0.948027 0.441601
vt 0.799629 0.752473
vt 0.327972 0.853161
vt 0.906904 0.416128
vt 0.370069 0.779032
vt 0.684668 0.778429
vt 0.909575 0.445005
vt 0.655249 0.778999
vt 0.799629 0.791035
vt 0.330193 0.729131
vt 0.557184 0.775635
vt 0.363063 0.804932
vt 0.331684 0.807874
vt 0.754247 0.751428
vt 0.586563 0.768755
vt 0.566112 0.815056
vt 0.689281 0.828405
vt 0.370405 0.729131
vt 0.754247 0.791805
vt 0.657717 0.824383
vt 0.595492 0.808176
vt 0.327830 0.637821
vt 0.590400 0.642651
vt 0.164818 0.789976
vt 0.357235 0.619338
vt 0.642851 0.190721
vt 0.562581 0.649581
vt 0.406824 0.626953
vt 0.080449 0.619338
vt 0.646201 0.239681
vt 0.727583 0.656002
vt 0.597847 0.731399
vt 0.712829 0.722239
vt 0.658284 0.323708
vt 0.527919 0.666449
vt 0.661748 0.291537
vt 0.680225 0.245582
vt 0.377645 0.696957
vt 0.285191 0.477898
vt 0.483372 0.812325
vt 0.280072 0.728266
vt 0.924330 0.393087
vt 0.921760 0.373660
vt 0.678504 0.727397
vt 0.268491 0.812575
vt 0.930826 0.465310
vt 0.923786 0.327561
vt 0.941993 0.227167
vt 0.764056 0.466512
vt 0.919524 0.351927
vt 0.977463 0.013354
vt 0.833186 0.466512
vt 0.317617 0.012950
vt 0.798789 0.722800
vt 0.839639 0.522681
vt 0.934403 0.500152
vt 0.932138 0.484309
vt 0.281656 0.689101
vt 0.944784 0.554368
vt 0.283549 0.640852
vt 0.956335 0.614129
vt 0.284323 0.620942
vt 0.399765 0.754789
vt 0.961112 0.640376
vt 0.422297 0.755187
vt 0.926130 0.414426
vt 0.350867 0.779032
vt 0.928801 0.443303
vt 0.799629 0.771754
vt 0.350773 0.728949
vt 0.557184 0.796361
vt 0.753483 0.771844
vt 0.595492 0.787450
vt 0.985581 0.067358
vt 0.238180 0.070710
vt 0.259592 0.052321
vt 0.138792 0.821791
vt 0.953366 0.057503
vt 0.765454 0.639660
vt 0.120235 0.821584
vt 0.772730 0.660154
vt 0.283154 0.037949
vt 0.784440 0.682652
vt 0.128680 0.843910
vt 0.970110 0.058056
vt 0.758353 0.637393
vt 0.180368 0.432154
vt 0.759258 0.257498
vt 0.884976 0.446549
vt 0.828099 0.241547
vt 0.971226 0.428512
vt 0.101516 0.405509
vt 0.908240 0.430567
vt 0.669958 0.778714
vt 0.946692 0.427163
vt 0.342544 0.853949
vt 0.673120 0.826722
vt 0.582140 0.817526
vt 0.570535 0.766286
vt 0.348248 0.806122
vt 0.576699 0.792002
vt 0.653753 0.802281
vt 0.776512 0.794925
vt 0.776512 0.748700
vt 0.327830 0.829868
vt 0.363063 0.830170
vt 0.327830 0.753980
vt 0.373865 0.753980
vt 0.689281 0.803194
vt 0.351093 0.753886
vt 0.776117 0.771930
vt 0.671321 0.802907
vt 0.345899 0.829874
vt 0.457498 0.727404
vt 0.165986 0.548054
vt 0.260364 0.376248
vt 0.625887 0.695531
vt 0.520555 0.743605
vt 0.734596 0.339638
vt 0.406824 0.703049
vt 0.012950 0.651015
vt 0.277407 0.507014
vt 0.206214 0.619338
vt 0.706517 0.466512
vt 0.399765 0.822801
vt 0.181517 0.620770
vt 0.619265 0.470337
vt 0.422433 0.807343
vt 0.582936 0.466512
vt 0.458892 0.202188
vt 0.422433 0.843958
vt 0.727583 0.468029
vt 0.460639 0.221880
vt 0.402692 0.843997
vt 0.717439 0.778459
vt 0.429089 0.593438
vt 0.518160 0.466685
vt 0.070962 0.817001
vt 0.726094 0.791097
vt 0.457498 0.298878
vt 0.715181 0.783741
vt 0.523936 0.466512
vt 0.458951 0.311476
vt 0.719061 0.788282
vt 0.458165 0.306435
vt 0.058766 0.817583
vt 0.726094 0.778429
vt 0.431598 0.585369
vt 0.599953 0.261833
vt 0.080449 0.668491
vt 0.542336 0.274386
vt 0.076079 0.728305
vt 0.500395 0.287212
vt 0.064936 0.773359
vt 0.389801 0.564275
vt 0.039540 0.774208
vt 0.356388 0.547019
vt 0.031995 0.737396
vt 0.319737 0.531779
vt 0.030523 0.696843
vt 0.505723 0.512116
vt 0.384015 0.580847
vt 0.506522 0.550736
vt 0.346302 0.574833
vt 0.507607 0.604105
vt 0.294291 0.566034
vt 0.610540 0.298468
vt 0.545535 0.300686
vt 0.502363 0.302883
vt 0.504402 0.313331
vt 0.517745 0.511765
vt 0.548610 0.318269
vt 0.527842 0.556627
vt 0.609940 0.323717
vt 0.531284 0.618364
vt 0.660591 0.582499
vt 0.204501 0.743892
vt 0.668589 0.550878
vt 0.206214 0.710848
vt 0.668004 0.517120
vt 0.204545 0.678125
vt 0.623877 0.525891
vt 0.164692 0.675333
vt 0.610236 0.563455
vt 0.167167 0.712219
vt 0.605277 0.597358
vt 0.166352 0.745757
vt 0.511839 0.183186
vt 0.584607 0.521652
vt 0.552303 0.182624
vt 0.569857 0.561129
vt 0.598009 0.178631
vt 0.565182 0.606784
vt 0.592158 0.236754
vt 0.721184 0.600612
vt 0.550092 0.232946
vt 0.722606 0.558204
vt 0.518921 0.225772
vt 0.713819 0.525134
s 0
usemtl Material
f 89/196/1 7/19/1 13/33/1 90/198/1
f 8/22/2 7/19/2 89/196/2 58/145/2 54/138/2 53/134/2
f 6/18/3 56/142/3 57/144/3
f 3/8/4 106/224/4 4/9/4 59/147/4 88/195/4
f 6/17/5 107/226/5 5/14/5 60/148/5 1/1/5 105/222/5 2/4/5 56/143/5
f 61/150/6 13/34/6 16/40/6 62/151/6
f 5/16/7 14/36/7 31/76/7 29/72/7
f 88/195/8 1/3/8 10/26/8 91/200/8
f 67/158/9 21/53/9 20/51/9 65/155/9
f 13/33/10 7/19/10 12/31/10 16/41/10
f 3/8/11 9/25/11 11/28/11 15/38/11
f 55/141/12 3/6/12 15/37/12 63/152/12
f 66/156/13 19/49/13 17/43/13 65/155/13
f 23/57/14 22/55/14 17/42/14 19/50/14
f 83/184/15 82/183/15 25/63/15 26/67/15
f 15/38/16 11/28/16 22/55/16 23/57/16
f 62/151/17 16/40/17 21/53/17 67/158/17
f 69/163/18 26/66/18 25/64/18 68/160/18
f 87/193/19 84/186/19 24/60/19 68/159/19
f 86/190/20 83/184/20 26/67/20 69/161/20
f 84/187/21 85/189/21 27/68/21 24/61/21
f 70/164/22 29/73/22 31/77/22 71/165/22
f 70/164/23 28/71/23 34/83/23 73/167/23
f 10/26/24 1/3/24 28/70/24 30/74/24
f 64/154/25 10/27/25 30/75/25 71/165/25
f 34/82/26 32/78/26 36/86/26 38/90/26
f 60/149/27 5/15/27 33/81/27 72/166/27
f 5/16/28 29/72/28 35/84/28 33/80/28
f 28/70/29 1/3/29 32/78/29 34/82/29
f 37/88/30 39/92/30 43/103/30 41/97/30
f 73/167/31 34/83/31 38/91/31 75/169/31
f 33/80/32 35/84/32 39/92/32 37/88/32
f 72/166/33 33/81/33 37/89/33 74/168/33
f 76/171/34 41/98/34 43/104/34 77/173/34
f 74/168/35 37/89/35 41/99/35 76/170/35
f 38/90/36 36/86/36 40/94/36 42/100/36
f 75/169/37 38/91/37 42/101/37 77/172/37
f 102/219/38 97/211/38 51/127/38 81/180/38
f 91/199/39 10/27/39 45/109/39 93/203/39
f 90/197/40 13/34/40 46/112/40 92/201/40
f 61/150/41 9/24/41 44/106/41 78/174/41
f 64/154/42 14/35/42 47/115/42 79/176/42
f 96/209/43 94/206/43 50/124/43 80/179/43
f 101/218/44 99/215/44 48/118/44 80/178/44
f 104/221/45 98/213/45 49/121/45 95/208/45
f 103/220/46 100/217/46 50/125/46 94/205/46
f 8/23/47 53/135/47 52/131/47
f 8/23/48 52/131/48 4/10/48 106/225/48 3/7/48 55/140/48 7/20/48
f 54/138/49 58/145/49 89/196/49 5/16/49 107/227/49 6/18/49 57/144/49
f 100/216/50 101/218/50 80/178/50 50/126/50
f 95/207/51 96/209/51 80/179/51 48/119/51
f 10/27/52 64/154/52 79/176/52 45/109/52
f 13/34/53 61/150/53 78/174/53 46/112/53
f 98/212/54 102/219/54 81/180/54 49/122/54
f 39/93/55 75/169/55 77/172/55 43/105/55
f 36/87/56 74/168/56 76/170/56 40/95/56
f 40/96/57 76/171/57 77/173/57 42/102/57
f 32/79/58 72/166/58 74/168/58 36/87/58
f 35/85/59 73/167/59 75/169/59 39/93/59
f 1/2/60 60/149/60 72/166/60 32/79/60
f 14/35/61 64/154/61 71/165/61 31/77/61
f 29/73/62 70/164/62 73/167/62 35/85/62
f 28/71/63 70/164/63 71/165/63 30/75/63
f 85/189/64 86/191/64 69/162/64 27/68/64
f 82/182/65 87/193/65 68/159/65 25/65/65
f 27/69/66 69/163/66 68/160/66 24/62/66
f 11/29/67 62/151/67 67/158/67 22/56/67
f 18/44/68 66/156/68 65/155/68 20/51/68
f 7/21/69 55/141/69 63/152/69 12/30/69
f 22/56/70 67/158/70 65/155/70 17/43/70
f 9/24/71 61/150/71 62/151/71 11/29/71
f 19/49/72 66/156/72 87/193/72 82/182/72
f 12/31/73 18/45/73 20/52/73 21/54/73 16/41/73
f 66/157/74 18/48/74 84/187/74 87/194/74
f 23/57/75 19/50/75 82/183/75 83/184/75
f 49/123/76 81/181/76 96/209/76 95/207/76
f 97/210/77 103/220/77 94/205/77 51/128/77
f 99/214/78 104/221/78 95/208/78 48/120/78
f 81/181/79 51/129/79 94/206/79 96/209/79
f 14/35/80 90/197/80 92/201/80 47/115/80
f 9/24/81 91/199/81 93/203/81 44/106/81
f 3/8/82 88/195/82 91/200/82 9/25/82
f 5/16/83 89/196/83 90/198/83 14/36/83
f 44/107/84 93/204/84 104/221/84 99/214/84
f 47/116/85 92/202/85 103/220/85 97/210/85
f 45/110/86 79/177/86 102/219/86 98/212/86
f 46/113/87 78/175/87 101/218/87 100/216/87
f 92/202/88 46/114/88 100/217/88 103/220/88
f 93/204/89 45/111/89 98/213/89 104/221/89
f 78/175/90 44/108/90 99/215/90 101/218/90
f 79/177/91 47/117/91 97/211/91 102/219/91
f 59/146/92 4/11/92 52/130/92 53/133/92 54/136/92 108/228/92
f 136/291/93 110/234/93 109/231/93 135/289/93
f 121/264/94 120/262/94 114/246/94 117/254/94
f 139/297/95 111/237/95 110/235/95 136/290/95
f 135/288/96 109/232/96 112/240/96 144/307/96
f 144/306/97 112/241/97 111/238/97 139/296/97
f 111/239/98 112/242/98 109/233/98 110/236/98
f 117/255/99 114/247/99 116/252/99 115/249/99 113/243/99
f 124/270/100 121/263/100 117/256/100 113/244/100
f 120/261/101 129/277/101 116/253/101 114/248/101
f 130/279/102 124/269/102 113/245/102 115/250/102
f 129/277/103 130/278/103 115/251/103 116/253/103
f 57/144/104 56/142/104 132/282/104 127/275/104
f 127/275/105 132/282/105 131/280/105 128/276/105
f 128/276/106 131/280/106 130/278/106 129/277/106
f 56/143/107 2/4/107 126/273/107 132/283/107
f 132/283/108 126/273/108 125/271/108 131/281/108
f 131/281/109 125/271/109 124/269/109 130/279/109
f 54/138/110 57/144/110 127/275/110 118/257/110
f 118/257/111 127/275/111 128/276/111 119/259/111
f 119/259/112 128/276/112 129/277/112 120/261/112
f 2/5/113 108/230/113 123/267/113 126/274/113
f 126/274/114 123/267/114 122/265/114 125/272/114
f 125/272/115 122/265/115 121/263/115 124/270/115
f 108/229/116 54/137/116 118/258/116 123/268/116
f 123/268/117 118/258/117 119/260/117 122/266/117
f 122/266/118 119/260/118 120/262/118 121/264/118
f 54/138/119 142/302/119 141/300/119 53/134/119
f 142/302/120 143/304/120 140/298/120 141/300/120
f 143/304/121 144/306/121 139/296/121 140/298/121
f 4/12/122 133/284/122 142/303/122 54/139/122
f 133/284/123 134/286/123 143/305/123 142/303/123
f 134/286/124 135/288/124 144/307/124 143/305/124
f 53/135/125 141/301/125 138/294/125 52/131/125
f 141/301/126 140/299/126 137/292/126 138/294/126
f 140/299/127 139/297/127 136/290/127 137/292/127
f 52/132/128 138/295/128 133/285/128 4/13/128
f 138/295/129 137/293/129 134/287/129 133/285/129
f 137/293/130 136/291/130 135/289/130 134/287/130
f 105/223/131 1/3/131 88/195/131 59/147/131 108/230/131 2/5/131
f 86/192/132 85/188/132 83/185/132
f 83/185/133 85/188/133 18/46/133 23/58/133
f 63/153/134 15/39/134 23/59/134 18/47/134 12/32/134
f 84/187/135 18/48/135 85/189/135
l 52 106
