# Blender 3.3.1
# www.blender.org
mtllib monstruo_3_caminar527.mtl
o monstruo_grande
v 0.536794 1.936944 0.331959
v 0.525930 1.131670 0.097571
v -0.608284 1.856639 0.161092
v -0.310890 1.178707 0.216637
v 0.791674 2.190086 0.016503
v 0.601793 1.535891 -0.251494
v -0.683689 2.090516 -0.268079
v -0.639642 1.778777 -0.332730
v -0.166042 2.412740 0.472889
v 0.369040 2.239950 0.483765
v -0.308703 2.396364 0.563652
v -1.021157 2.182053 -0.166049
v -0.115315 2.586009 0.123975
v 0.413951 2.374696 0.218882
v -0.898779 2.029492 -0.000731
v -0.266616 2.680170 0.141209
v -0.677799 2.350241 0.537795
v -1.337787 2.111407 0.054062
v -1.085369 2.128015 0.283092
v -0.797680 2.695831 0.275847
v -0.447762 2.741683 0.200619
v -0.391117 2.359781 0.530360
v -1.025551 2.060538 -0.021221
v -1.750651 0.834996 0.635717
v -1.631270 0.807931 0.693906
v -1.598304 0.641129 0.487185
v -1.671170 0.657649 0.451668
v 0.500248 2.145398 0.490835
v 0.672657 2.318099 0.258808
v 0.479767 2.256605 0.492022
v 0.543006 2.381047 0.269986
v 0.773959 1.818730 0.408556
v 0.947980 1.899484 0.280374
v 0.781865 1.905146 0.456403
v 0.908526 2.007280 0.328695
v 0.976446 1.593051 0.470916
v 1.070433 1.632093 0.420839
v 1.026823 1.597080 0.564023
v 1.119558 1.642280 0.512123
v 1.007145 1.461385 0.549923
v 1.200031 1.554003 0.444764
v 1.053847 1.425831 0.738070
v 1.344342 1.565071 0.575272
v 0.003369 2.439949 0.506860
v 0.209084 2.391493 0.498639
v 0.027057 2.543291 0.261633
v 0.225985 2.489599 0.255593
v 0.060583 2.750039 0.646218
v 0.265703 2.679392 0.617123
v 0.061220 2.856726 0.389668
v 0.267170 2.785506 0.360506
v -0.504589 1.200212 -0.002867
v -0.380586 1.204464 -0.211483
v -0.040926 1.275941 -0.332432
v -0.652080 1.906922 -0.065853
v 0.540999 1.130898 -0.141402
v 0.321325 1.135346 -0.260197
v 0.046819 1.519355 -0.323254
v -0.028789 1.148715 0.205564
v 0.627787 2.010156 0.231183
v -0.141406 2.473049 0.350343
v -0.284050 2.649395 0.410114
v -0.825416 2.092469 -0.098585
v 0.376683 2.367627 0.379827
v -0.671972 2.579266 0.508462
v -1.253145 2.241589 0.312836
v -0.437672 2.654725 0.393501
v -1.705631 0.819271 0.693889
v -1.608838 0.538490 0.364711
v 0.611748 2.246779 0.413680
v 0.517940 2.363752 0.404371
v 0.838326 1.833411 0.297425
v 0.874729 1.971079 0.434178
v 1.022961 1.614875 0.445150
v 1.073225 1.619322 0.538018
v 1.094197 1.502743 0.475730
v 1.180876 1.485984 0.616066
v 0.014216 2.491863 0.383247
v 0.215359 2.441269 0.375858
v 0.029375 2.805423 0.518833
v 0.297520 2.730534 0.488097
v -1.491803 1.130448 0.667131
v -1.548570 0.961755 0.586510
v -1.699002 1.147597 0.566995
v -1.660936 0.987229 0.531741
v -1.601843 0.811363 0.477279
v -1.624032 1.118218 0.665529
v 0.011807 1.759703 0.509570
v 0.252863 2.108186 -0.193704
v 0.235170 2.495063 0.077247
v 0.111303 2.262755 0.628270
v 0.121873 2.516382 0.256804
v 0.111908 2.417407 0.502181
v 0.164600 2.837128 0.336429
v 0.163087 2.698726 0.670103
v 0.167209 2.819159 0.524749
v 0.261040 2.647698 0.283846
v 0.255443 2.528420 0.576450
v 0.019033 2.586316 0.599239
v 0.023594 2.708481 0.305031
v 0.003726 2.648458 0.452456
v 0.272952 2.587635 0.429233
v 0.141695 2.686489 0.273811
v 0.137245 2.549077 0.607709
v 0.567726 1.615640 -0.012080
v -0.549753 1.559218 0.193843
v 0.665242 1.734203 -0.225735
v 0.171795 1.138328 0.215168
v -0.276690 0.243155 -0.414254
v -0.417620 0.173639 -0.308181
v -0.450644 0.315738 -0.513176
v -0.315958 0.324532 -0.530314
v 0.303848 -0.006353 0.106956
v 0.230252 -0.022175 0.032338
v 0.313167 -0.012033 0.068872
v 0.281612 -0.018436 0.043211
v 0.244783 -0.007220 0.117473
v 0.073222 0.829744 -0.053487
v 0.139443 0.610094 0.017189
v 0.171149 0.308917 0.038898
v 0.198612 0.284471 0.217075
v 0.183866 0.531585 0.291769
v 0.195504 0.807414 0.330459
v 0.321496 0.281988 0.196143
v 0.391977 0.533536 0.259009
v 0.483244 0.858008 0.256519
v 0.328233 0.835839 -0.035140
v 0.317797 0.599029 0.051399
v 0.277243 0.301781 0.062052
v 0.342097 0.292789 0.116878
v 0.428285 0.586990 0.139337
v 0.501087 0.856909 0.066401
v -0.220069 0.895534 0.317224
v -0.219762 0.593804 0.148079
v -0.235071 0.386223 -0.008807
v -0.518271 0.413157 -0.030490
v -0.503015 0.667073 0.103764
v -0.500773 0.916285 0.183782
v -0.527831 0.584338 -0.242308
v -0.509893 0.817832 -0.104643
v -0.499418 0.939125 -0.080894
v -0.108617 0.869885 -0.088304
v -0.167527 0.779538 -0.137729
v -0.231552 0.605185 -0.240108
vn 0.0505 0.5796 -0.8133
vn 0.0044 0.0724 -0.9974
vn 0.4496 -0.2965 -0.8426
vn -0.3389 -0.2218 0.9143
vn 0.9315 -0.2683 0.2455
vn 0.6900 0.6766 0.2570
vn 0.2549 0.8758 -0.4098
vn 0.4108 -0.2586 0.8743
vn -0.0422 0.8960 0.4420
vn 0.0128 0.5640 -0.8257
vn -0.3022 -0.4565 0.8369
vn -0.4883 -0.8092 -0.3266
vn -0.3334 -0.1587 0.9293
vn 0.1753 -0.9144 0.3648
vn 0.9137 -0.2997 0.2743
vn -0.1374 -0.7769 0.6145
vn 0.2198 0.9445 0.2443
vn -0.0744 -0.7742 0.6286
vn -0.7293 0.2594 0.6331
vn 0.9629 0.0043 -0.2699
vn -0.8146 0.0886 -0.5731
vn 0.5791 0.7152 0.3912
vn 0.2552 0.2441 0.9356
vn -0.3799 -0.4675 0.7982
vn -0.1309 0.6419 0.7555
vn -0.7128 -0.4182 0.5631
vn -0.0964 -0.6236 -0.7758
vn 0.8352 0.5498 0.0093
vn -0.4348 -0.5449 0.7170
vn 0.4487 0.7635 -0.4645
vn 0.0934 0.3602 0.9282
vn 0.8955 0.3074 -0.3218
vn 0.0333 -0.4942 -0.8687
vn 0.3450 -0.8850 -0.3128
vn -0.1425 -0.4087 -0.9015
vn -0.9369 0.1011 0.3347
vn 0.2602 0.6813 0.6842
vn 0.9860 -0.0284 -0.1646
vn 0.3923 0.4875 0.7800
vn 0.2601 0.9647 0.0412
vn -0.2060 0.9013 0.3812
vn 0.4781 0.8427 0.2474
vn 0.0665 0.9736 0.2185
vn -0.9678 0.1257 0.2181
vn 0.2805 -0.3413 0.8972
vn -0.2370 0.4676 -0.8516
vn -0.7663 -0.4437 -0.4646
vn -0.9548 -0.2343 0.1830
vn 0.1655 0.1541 -0.9741
vn -0.9668 0.2417 -0.0835
vn 0.0651 0.8416 0.5361
vn 0.4897 0.6717 0.5558
vn -0.1607 0.8993 0.4068
vn 0.9814 -0.1547 0.1134
vn -0.0039 0.5527 0.8334
vn -0.3530 -0.5024 -0.7893
vn 0.2257 -0.9437 -0.2419
vn -0.4723 -0.6780 -0.5633
vn 0.5670 0.5644 0.6000
vn -0.3262 -0.7644 -0.5562
vn -0.0303 0.9967 0.0758
vn 0.6299 0.6098 0.4810
vn 0.5051 0.2820 0.8156
vn -0.3255 0.2964 -0.8979
vn -0.0082 0.0913 0.9958
vn -0.7067 -0.6308 0.3204
vn -0.2413 0.4469 0.8614
vn -0.6695 0.6930 0.2674
vn -0.4792 -0.7855 -0.3917
vn 0.1692 0.3099 0.9356
vn 0.6036 0.4715 0.6429
vn 0.1781 0.2640 0.9479
vn -0.3142 0.6771 -0.6654
vn -0.8680 0.4165 0.2702
vn 0.9272 -0.3159 0.2012
vn 0.5152 0.6948 0.5019
vn 0.2936 0.3915 -0.8721
vn -0.2455 -0.2720 0.9305
vn 0.5163 0.8447 0.1412
vn 0.4412 0.8960 0.0502
vn -0.0981 0.5211 0.8478
vn -0.5062 -0.0897 0.8577
vn 0.3331 0.7274 -0.5999
vn -0.1604 -0.5566 0.8152
vn 0.0754 0.1238 -0.9894
vn 0.9447 -0.3245 -0.0478
vn -0.9927 -0.0007 -0.1210
vn -0.1234 0.1818 -0.9756
vn 0.0109 -0.5657 0.8245
vn -0.9998 0.0068 0.0193
vn 0.9587 -0.2618 -0.1115
vn 0.0041 -0.9871 -0.1603
vn 0.1834 -0.8509 0.4924
vn -0.9707 -0.1893 0.1480
vn -0.9656 -0.2454 -0.0858
vn 0.9877 -0.0524 -0.1470
vn -0.0732 0.7131 -0.6972
vn -0.0202 -0.8227 -0.5681
vn 0.0445 -0.9848 0.1680
vn 0.1600 -0.2984 0.9409
vn 0.2121 0.0587 -0.9755
vn 0.9620 -0.1309 0.2396
vn 0.6407 0.0567 -0.7657
vn 0.4231 -0.5613 -0.7113
vn 0.5316 -0.3325 -0.7790
vn 0.6186 -0.1170 -0.7770
vn 0.9922 -0.0984 0.0765
vn 0.9603 -0.2491 0.1258
vn 0.9392 -0.2966 0.1729
vn -0.0004 -0.5600 -0.8285
vn 0.1109 -0.3115 -0.9438
vn 0.1939 -0.0558 -0.9794
vn 0.2377 0.3951 0.8874
vn 0.2191 -0.0961 0.9710
vn 0.1533 -0.2787 0.9481
vn -0.9407 0.0052 0.3392
vn -0.9686 -0.0918 0.2311
vn -0.9862 -0.0966 0.1346
vn -0.1533 -0.4488 -0.8804
vn -0.0041 0.3280 -0.9447
vn -0.0276 0.5111 -0.8590
vn 0.9005 0.2184 0.3762
vn 0.9560 -0.2383 0.1712
vn 0.9830 -0.1803 -0.0351
vn -0.9659 0.0564 -0.2526
vn -0.9994 0.0281 0.0220
vn -0.9974 0.0323 0.0638
vn -0.5516 0.3018 0.7776
vn -0.3353 -0.3872 0.8589
vn -0.1885 -0.5150 0.8362
vn 0.4709 -0.2962 0.8310
vn 0.4732 0.4018 -0.7840
vn -0.1158 -0.3999 -0.9092
vn -0.1987 -0.7540 -0.6261
vn -0.7748 -0.0453 -0.6306
vt 0.461701 0.809397
vt 0.301930 0.729761
vt 0.094158 0.499911
vt 0.498737 0.648456
vt 0.250869 0.553264
vt 0.714874 0.752530
vt 0.627854 0.740386
vt 0.227533 0.339544
vt 0.300362 0.438253
vt 0.625828 0.633709
vt 0.338991 0.679376
vt 0.653754 0.621457
vt 0.189641 0.785401
vt 0.531284 0.815038
vt 0.232114 0.729761
vt 0.806952 0.326283
vt 0.527824 0.712310
vt 0.703640 0.331352
vt 0.725736 0.123548
vt 0.557184 0.740386
vt 0.714874 0.681901
vt 0.693091 0.138725
vt 0.558638 0.706064
vt 0.944491 0.391302
vt 0.108931 0.369345
vt 0.090202 0.443431
vt 0.952837 0.467016
vt 0.108059 0.346292
vt 0.960024 0.371234
vt 0.653754 0.712739
vt 0.761990 0.055860
vt 0.265996 0.788213
vt 0.829683 0.188590
vt 0.886815 0.394232
vt 0.909606 0.471204
vt 0.826550 0.267021
vt 0.659457 0.749480
vt 0.206417 0.267620
vt 0.238389 0.812575
vt 0.882743 0.373659
vt 0.837846 0.166681
vt 0.102618 0.289588
vt 0.957957 0.321520
vt 0.918648 0.216117
vt 0.803322 0.012950
vt 0.106348 0.638847
vt 0.232551 0.755661
vt 0.798789 0.485160
vt 0.965752 0.239402
vt 0.153968 0.222285
vt 0.894228 0.312474
vt 0.856067 0.102710
vt 0.881967 0.351902
vt 0.842627 0.144082
vt 0.107159 0.331692
vt 0.958812 0.358201
vt 0.199778 0.246429
vt 0.138792 0.619338
vt 0.232114 0.797406
vt 0.967580 0.012950
vt 0.753483 0.682459
vt 0.843831 0.469074
vt 0.256421 0.022764
vt 0.824689 0.472884
vt 0.987050 0.016155
vt 0.832147 0.505580
vt 0.295109 0.018166
vt 0.782932 0.707368
vt 0.843831 0.503254
vt 0.076417 0.467161
vt 0.958695 0.494573
vt 0.833773 0.298242
vt 0.909847 0.503107
vt 0.076958 0.454690
vt 0.951531 0.482650
vt 0.837149 0.281767
vt 0.912926 0.487172
vt 0.064432 0.532285
vt 0.298790 0.687460
vt 0.825577 0.362572
vt 0.264894 0.686125
vt 0.056614 0.518895
vt 0.959622 0.549977
vt 0.837123 0.350740
vt 0.929664 0.555276
vt 0.051257 0.577890
vt 0.291936 0.641182
vt 0.824256 0.407314
vt 0.275162 0.640522
vt 0.035793 0.577862
vt 0.964581 0.612577
vt 0.838997 0.411720
vt 0.948088 0.615681
vt 0.039898 0.592711
vt 0.301778 0.620707
vt 0.403076 0.772170
vt 0.830596 0.428615
vt 0.403076 0.737417
vt 0.267017 0.619338
vt 0.012950 0.593438
vt 0.987050 0.637067
vt 0.428919 0.781443
vt 0.856067 0.440612
vt 0.428919 0.728949
vt 0.935424 0.646785
vt 0.945356 0.412724
vt 0.357115 0.854737
vt 0.331665 0.779032
vt 0.948027 0.441601
vt 0.799629 0.752473
vt 0.327972 0.853161
vt 0.906904 0.416128
vt 0.370069 0.779032
vt 0.684668 0.778429
vt 0.909575 0.445005
vt 0.655249 0.778999
vt 0.799629 0.791035
vt 0.330193 0.729131
vt 0.557184 0.775635
vt 0.363063 0.804932
vt 0.331684 0.807874
vt 0.754247 0.751428
vt 0.586563 0.768755
vt 0.566112 0.815056
vt 0.689281 0.828405
vt 0.370405 0.729131
vt 0.754247 0.791805
vt 0.657717 0.824383
vt 0.595492 0.808176
vt 0.327830 0.637821
vt 0.590400 0.642651
vt 0.164818 0.789976
vt 0.357235 0.619338
vt 0.642851 0.190721
vt 0.562581 0.649581
vt 0.406824 0.626953
vt 0.080449 0.619338
vt 0.646201 0.239681
vt 0.727583 0.656002
vt 0.597847 0.731399
vt 0.712829 0.722239
vt 0.658284 0.323708
vt 0.527919 0.666449
vt 0.661748 0.291537
vt 0.680225 0.245582
vt 0.377645 0.696957
vt 0.285191 0.477898
vt 0.483372 0.812325
vt 0.280072 0.728266
vt 0.924330 0.393087
vt 0.921760 0.373660
vt 0.678504 0.727397
vt 0.268491 0.812575
vt 0.930826 0.465310
vt 0.923786 0.327561
vt 0.941993 0.227167
vt 0.764056 0.466512
vt 0.919524 0.351927
vt 0.977463 0.013354
vt 0.833186 0.466512
vt 0.317617 0.012950
vt 0.798789 0.722800
vt 0.839639 0.522681
vt 0.934403 0.500152
vt 0.932138 0.484309
vt 0.281656 0.689101
vt 0.944784 0.554368
vt 0.283549 0.640852
vt 0.956335 0.614129
vt 0.284323 0.620942
vt 0.399765 0.754789
vt 0.961112 0.640376
vt 0.422297 0.755187
vt 0.926130 0.414426
vt 0.350867 0.779032
vt 0.928801 0.443303
vt 0.799629 0.771754
vt 0.350773 0.728949
vt 0.557184 0.796361
vt 0.753483 0.771844
vt 0.595492 0.787450
vt 0.985581 0.067358
vt 0.238180 0.070710
vt 0.259592 0.052321
vt 0.138792 0.821791
vt 0.953366 0.057503
vt 0.765454 0.639660
vt 0.120235 0.821584
vt 0.772730 0.660154
vt 0.283154 0.037949
vt 0.784440 0.682652
vt 0.128680 0.843910
vt 0.970110 0.058056
vt 0.758353 0.637393
vt 0.180368 0.432154
vt 0.759258 0.257498
vt 0.884976 0.446549
vt 0.828099 0.241547
vt 0.971226 0.428512
vt 0.101516 0.405509
vt 0.908240 0.430567
vt 0.669958 0.778714
vt 0.946692 0.427163
vt 0.342544 0.853949
vt 0.673120 0.826722
vt 0.582140 0.817526
vt 0.570535 0.766286
vt 0.348248 0.806122
vt 0.576699 0.792002
vt 0.653753 0.802281
vt 0.776512 0.794925
vt 0.776512 0.748700
vt 0.327830 0.829868
vt 0.363063 0.830170
vt 0.327830 0.753980
vt 0.373865 0.753980
vt 0.689281 0.803194
vt 0.351093 0.753886
vt 0.776117 0.771930
vt 0.671321 0.802907
vt 0.345899 0.829874
vt 0.457498 0.727404
vt 0.165986 0.548054
vt 0.260364 0.376248
vt 0.625887 0.695531
vt 0.520555 0.743605
vt 0.734596 0.339638
vt 0.406824 0.703049
vt 0.012950 0.651015
vt 0.277407 0.507014
vt 0.206214 0.619338
vt 0.706517 0.466512
vt 0.399765 0.822801
vt 0.181517 0.620770
vt 0.619265 0.470337
vt 0.422433 0.807343
vt 0.582936 0.466512
vt 0.458892 0.202188
vt 0.422433 0.843958
vt 0.727583 0.468029
vt 0.460639 0.221880
vt 0.402692 0.843997
vt 0.717439 0.778459
vt 0.429089 0.593438
vt 0.518160 0.466685
vt 0.070962 0.817001
vt 0.726094 0.791097
vt 0.457498 0.298878
vt 0.715181 0.783741
vt 0.523936 0.466512
vt 0.458951 0.311476
vt 0.719061 0.788282
vt 0.458165 0.306435
vt 0.058766 0.817583
vt 0.726094 0.778429
vt 0.431598 0.585369
vt 0.599953 0.261833
vt 0.080449 0.668491
vt 0.542336 0.274386
vt 0.076079 0.728305
vt 0.500395 0.287212
vt 0.064936 0.773359
vt 0.389801 0.564275
vt 0.039540 0.774208
vt 0.356388 0.547019
vt 0.031995 0.737396
vt 0.319737 0.531779
vt 0.030523 0.696843
vt 0.505723 0.512116
vt 0.384015 0.580847
vt 0.506522 0.550736
vt 0.346302 0.574833
vt 0.507607 0.604105
vt 0.294291 0.566034
vt 0.610540 0.298468
vt 0.545535 0.300686
vt 0.502363 0.302883
vt 0.504402 0.313331
vt 0.517745 0.511765
vt 0.548610 0.318269
vt 0.527842 0.556627
vt 0.609940 0.323717
vt 0.531284 0.618364
vt 0.660591 0.582499
vt 0.204501 0.743892
vt 0.668589 0.550878
vt 0.206214 0.710848
vt 0.668004 0.517120
vt 0.204545 0.678125
vt 0.623877 0.525891
vt 0.164692 0.675333
vt 0.610236 0.563455
vt 0.167167 0.712219
vt 0.605277 0.597358
vt 0.166352 0.745757
vt 0.511839 0.183186
vt 0.584607 0.521652
vt 0.552303 0.182624
vt 0.569857 0.561129
vt 0.598009 0.178631
vt 0.565182 0.606784
vt 0.592158 0.236754
vt 0.721184 0.600612
vt 0.550092 0.232946
vt 0.722606 0.558204
vt 0.518921 0.225772
vt 0.713819 0.525134
s 0
usemtl Material
f 89/196/1 7/19/1 13/33/1 90/198/1
f 8/22/2 7/19/2 89/196/2 58/145/2 54/138/2 53/134/2
f 6/18/3 56/142/3 57/144/3
f 3/8/4 106/224/4 4/9/4 59/147/4 88/195/4
f 6/17/5 107/226/5 5/14/5 60/148/5 1/1/5 105/222/5 2/4/5 56/143/5
f 61/150/6 13/34/6 16/40/6 62/151/6
f 5/16/7 14/36/7 31/76/7 29/72/7
f 88/195/8 1/3/8 10/26/8 91/200/8
f 67/158/9 21/53/9 20/51/9 65/155/9
f 13/33/10 7/19/10 12/31/10 16/41/10
f 3/8/11 9/25/11 11/28/11 15/38/11
f 55/141/12 3/6/12 15/37/12 63/152/12
f 66/156/13 19/49/13 17/43/13 65/155/13
f 23/57/14 22/55/14 17/42/14 19/50/14
f 83/184/15 82/183/15 25/63/15 26/67/15
f 15/38/16 11/28/16 22/55/16 23/57/16
f 62/151/17 16/40/17 21/53/17 67/158/17
f 69/163/18 26/66/18 25/64/18 68/160/18
f 87/193/19 84/186/19 24/60/19 68/159/19
f 86/190/20 83/184/20 26/67/20 69/161/20
f 84/187/21 85/189/21 27/68/21 24/61/21
f 70/164/22 29/73/22 31/77/22 71/165/22
f 70/164/23 28/71/23 34/83/23 73/167/23
f 10/26/24 1/3/24 28/70/24 30/74/24
f 64/154/25 10/27/25 30/75/25 71/165/25
f 34/82/26 32/78/26 36/86/26 38/90/26
f 60/149/27 5/15/27 33/81/27 72/166/27
f 5/16/28 29/72/28 35/84/28 33/80/28
f 28/70/29 1/3/29 32/78/29 34/82/29
f 37/88/30 39/92/30 43/103/30 41/97/30
f 73/167/31 34/83/31 38/91/31 75/169/31
f 33/80/32 35/84/32 39/92/32 37/88/32
f 72/166/33 33/81/33 37/89/33 74/168/33
f 76/171/34 41/98/34 43/104/34 77/173/34
f 74/168/35 37/89/35 41/99/35 76/170/35
f 38/90/36 36/86/36 40/94/36 42/100/36
f 75/169/37 38/91/37 42/101/37 77/172/37
f 102/219/38 97/211/38 51/127/38 81/180/38
f 91/199/39 10/27/39 45/109/39 93/203/39
f 90/197/40 13/34/40 46/112/40 92/201/40
f 61/150/41 9/24/41 44/106/41 78/174/41
f 64/154/42 14/35/42 47/115/42 79/176/42
f 96/209/43 94/206/43 50/124/43 80/179/43
f 101/218/44 99/215/44 48/118/44 80/178/44
f 104/221/45 98/213/45 49/121/45 95/208/45
f 103/220/46 100/217/46 50/125/46 94/205/46
f 8/23/47 53/135/47 52/131/47
f 8/23/48 52/131/48 4/10/48 106/225/48 3/7/48 55/140/48 7/20/48
f 54/138/49 58/145/49 89/196/49 5/16/49 107/227/49 6/18/49 57/144/49
f 100/216/50 101/218/50 80/178/50 50/126/50
f 95/207/51 96/209/51 80/179/51 48/119/51
f 10/27/52 64/154/52 79/176/52 45/109/52
f 13/34/53 61/150/53 78/174/53 46/112/53
f 98/212/54 102/219/54 81/180/54 49/122/54
f 39/93/55 75/169/55 77/172/55 43/105/55
f 36/87/56 74/168/56 76/170/56 40/95/56
f 40/96/57 76/171/57 77/173/57 42/102/57
f 32/79/58 72/166/58 74/168/58 36/87/58
f 35/85/59 73/167/59 75/169/59 39/93/59
f 1/2/60 60/149/60 72/166/60 32/79/60
f 14/35/61 64/154/61 71/165/61 31/77/61
f 29/73/62 70/164/62 73/167/62 35/85/62
f 28/71/63 70/164/63 71/165/63 30/75/63
f 85/189/64 86/191/64 69/162/64 27/68/64
f 82/182/65 87/193/65 68/159/65 25/65/65
f 27/69/66 69/163/66 68/160/66 24/62/66
f 11/29/67 62/151/67 67/158/67 22/56/67
f 18/44/68 66/156/68 65/155/68 20/51/68
f 7/21/69 55/141/69 63/152/69 12/30/69
f 22/56/70 67/158/70 65/155/70 17/43/70
f 9/24/71 61/150/71 62/151/71 11/29/71
f 19/49/72 66/156/72 87/193/72 82/182/72
f 12/31/73 18/45/73 20/52/73 21/54/73 16/41/73
f 66/157/74 18/48/74 84/187/74 87/194/74
f 23/57/75 19/50/75 82/183/75 83/184/75
f 49/123/76 81/181/76 96/209/76 95/207/76
f 97/210/77 103/220/77 94/205/77 51/128/77
f 99/214/78 104/221/78 95/208/78 48/120/78
f 81/181/79 51/129/79 94/206/79 96/209/79
f 14/35/80 90/197/80 92/201/80 47/115/80
f 9/24/81 91/199/81 93/203/81 44/106/81
f 3/8/82 88/195/82 91/200/82 9/25/82
f 5/16/83 89/196/83 90/198/83 14/36/83
f 44/107/84 93/204/84 104/221/84 99/214/84
f 47/116/85 92/202/85 103/220/85 97/210/85
f 45/110/86 79/177/86 102/219/86 98/212/86
f 46/113/87 78/175/87 101/218/87 100/216/87
f 92/202/88 46/114/88 100/217/88 103/220/88
f 93/204/89 45/111/89 98/213/89 104/221/89
f 78/175/90 44/108/90 99/215/90 101/218/90
f 79/177/91 47/117/91 97/211/91 102/219/91
f 59/146/92 4/11/92 52/130/92 53/133/92 54/136/92 108/228/92
f 136/291/93 110/234/93 109/231/93 135/289/93
f 121/264/94 120/262/94 114/246/94 117/254/94
f 139/297/95 111/237/95 110/235/95 136/290/95
f 135/288/96 109/232/96 112/240/96 144/307/96
f 144/306/97 112/241/97 111/238/97 139/296/97
f 111/239/98 112/242/98 109/233/98 110/236/98
f 117/255/99 114/247/99 116/252/99 115/249/99 113/243/99
f 124/270/100 121/263/100 117/256/100 113/244/100
f 120/261/101 129/277/101 116/253/101 114/248/101
f 130/279/102 124/269/102 113/245/102 115/250/102
f 129/277/103 130/278/103 115/251/103 116/253/103
f 57/144/104 56/142/104 132/282/104 127/275/104
f 127/275/105 132/282/105 131/280/105 128/276/105
f 128/276/106 131/280/106 130/278/106 129/277/106
f 56/143/107 2/4/107 126/273/107 132/283/107
f 132/283/108 126/273/108 125/271/108 131/281/108
f 131/281/109 125/271/109 124/269/109 130/279/109
f 54/138/110 57/144/110 127/275/110 118/257/110
f 118/257/111 127/275/111 128/276/111 119/259/111
f 119/259/112 128/276/112 129/277/112 120/261/112
f 2/5/113 108/230/113 123/267/113 126/274/113
f 126/274/114 123/267/114 122/265/114 125/272/114
f 125/272/115 122/265/115 121/263/115 124/270/115
f 108/229/116 54/137/116 118/258/116 123/268/116
f 123/268/117 118/258/117 119/260/117 122/266/117
f 122/266/118 119/260/118 120/262/118 121/264/118
f 54/138/119 142/302/119 141/300/119 53/134/119
f 142/302/120 143/304/120 140/298/120 141/300/120
f 143/304/121 144/306/121 139/296/121 140/298/121
f 4/12/122 133/284/122 142/303/122 54/139/122
f 133/284/123 134/286/123 143/305/123 142/303/123
f 134/286/124 135/288/124 144/307/124 143/305/124
f 53/135/125 141/301/125 138/294/125 52/131/125
f 141/301/126 140/299/126 137/292/126 138/294/126
f 140/299/127 139/297/127 136/290/127 137/292/127
f 52/132/128 138/295/128 133/285/128 4/13/128
f 138/295/129 137/293/129 134/287/129 133/285/129
f 137/293/130 136/291/130 135/289/130 134/287/130
f 105/223/131 1/3/131 88/195/131 59/147/131 108/230/131 2/5/131
f 86/192/132 85/188/132 83/185/132
f 83/185/133 85/188/133 18/46/133 23/58/133
f 63/153/134 15/39/134 23/59/134 18/47/134 12/32/134
f 84/187/135 18/48/135 85/189/135
l 52 106
