# Blender 3.3.1
# www.blender.org
mtllib monstruo_3_caminar604.mtl
o monstruo_grande
v 0.308555 2.047502 0.168340
v 0.526140 1.209279 0.085274
v -0.733617 1.728976 0.167452
v -0.292431 1.131573 0.224076
v 0.470214 2.335576 -0.170876
v 0.509526 1.640068 -0.266245
v -0.867139 1.925221 -0.266042
v -0.755014 1.639997 -0.320312
v -0.380370 2.402100 0.414001
v 0.182208 2.320681 0.380421
v -0.513978 2.371053 0.516251
v -1.234311 1.969066 -0.117935
v -0.376665 2.548984 0.048131
v 0.168350 2.455561 0.118551
v -1.082564 1.848131 0.053535
v -0.540414 2.615322 0.064731
v -0.870045 2.282658 0.533216
v -1.530192 1.906998 0.143280
v -1.260936 1.971880 0.351801
v -1.053133 2.570686 0.238726
v -0.723642 2.651534 0.126689
v -0.591513 2.324525 0.496672
v -1.215890 1.867635 0.048528
v -1.817046 0.689822 0.899727
v -1.691581 0.675374 0.948921
v -1.668295 0.486029 0.761172
v -1.744875 0.494849 0.731146
v 0.334017 2.234920 0.355869
v 0.432370 2.431125 0.100186
v 0.294989 2.352699 0.371762
v 0.300022 2.482825 0.144073
v 0.549313 1.915172 0.139321
v 0.670026 2.016582 -0.029403
v 0.578285 1.992367 0.195277
v 0.660407 2.111339 0.046763
v 0.705206 1.691452 0.053972
v 0.789393 1.723487 -0.014955
v 0.776296 1.630055 0.101854
v 0.859755 1.674766 0.035069
v 0.692802 1.536006 0.045439
v 0.869512 1.624798 -0.090271
v 0.770775 1.389608 0.151891
v 1.030122 1.523873 -0.060219
v -0.219163 2.460494 0.435893
v -0.008095 2.438430 0.421860
v -0.219790 2.550718 0.184468
v -0.017460 2.529932 0.175044
v -0.163266 2.773980 0.579544
v 0.042053 2.708630 0.541006
v -0.176078 2.885005 0.324810
v 0.027837 2.820196 0.285183
v -0.499768 1.128129 0.012219
v -0.386878 1.142934 -0.202231
v -0.051273 1.261113 -0.335710
v -0.789417 1.759671 -0.058579
v 0.548817 1.227470 -0.152617
v 0.329801 1.223161 -0.278353
v -0.016198 1.514208 -0.339414
v -0.012896 1.150382 0.198685
v 0.363726 2.134096 0.052816
v -0.372702 2.454481 0.285604
v -0.541060 2.608490 0.339663
v -1.012624 1.909449 -0.070423
v 0.151058 2.444859 0.278295
v -0.900739 2.504478 0.471830
v -1.439587 2.071844 0.379365
v -0.693301 2.587322 0.332385
v -1.766150 0.683356 0.954736
v -1.684185 0.368750 0.653289
v 0.421373 2.341269 0.257058
v 0.297433 2.463674 0.279169
v 0.564766 1.955159 0.012693
v 0.661251 2.060836 0.151075
v 0.746872 1.711884 0.020090
v 0.817723 1.651502 0.067972
v 0.762865 1.590464 -0.037740
v 0.868874 1.476767 0.019907
v -0.220137 2.505021 0.309173
v -0.014316 2.485392 0.297810
v -0.200805 2.830864 0.454550
v 0.066547 2.763389 0.411389
v -1.573113 0.997953 0.870859
v -1.627547 0.818303 0.816612
v -1.789214 0.993278 0.789493
v -1.745639 0.831902 0.770309
v -1.682102 0.653435 0.731587
v -1.704069 0.979836 0.883477
v -0.088572 1.792442 0.483220
v 0.041044 2.143267 -0.240714
v -0.018047 2.524441 -0.005556
v -0.055863 2.302442 0.561813
v -0.120660 2.539090 0.178136
v -0.109321 2.446834 0.428151
v -0.076408 2.868849 0.266217
v -0.058758 2.724643 0.598375
v -0.063188 2.847684 0.455232
v 0.018445 2.685411 0.204955
v 0.031589 2.561646 0.497417
v -0.204238 2.610140 0.530600
v -0.219702 2.733645 0.235376
v -0.228144 2.673345 0.384932
v 0.040552 2.623630 0.350086
v -0.102208 2.717493 0.199558
v -0.084188 2.575933 0.534109
v 0.365179 1.748825 -0.036702
v -0.600621 1.458945 0.199033
v 0.490539 1.865559 -0.271468
v 0.177992 1.166621 0.198832
v -0.187298 0.006540 -0.034626
v -0.331018 0.012504 0.088520
v -0.358291 0.011427 -0.161241
v -0.223204 0.006519 -0.176698
v 0.375612 0.096278 -0.155960
v 0.302946 0.105440 -0.232359
v 0.385348 0.101733 -0.193981
v 0.354064 0.104236 -0.220602
v 0.316528 0.094346 -0.146511
v 0.109795 0.884560 -0.101293
v 0.179220 0.703987 -0.077359
v 0.235798 0.412372 -0.134589
v 0.272377 0.347855 0.031523
v 0.240299 0.567050 0.164890
v 0.230632 0.825109 0.269896
v 0.394077 0.361649 0.008214
v 0.445828 0.596264 0.131205
v 0.512296 0.913417 0.208809
v 0.363323 0.915896 -0.082653
v 0.359027 0.701409 -0.049785
v 0.342854 0.409335 -0.116015
v 0.410432 0.393195 -0.066360
v 0.473313 0.679194 0.030928
v 0.532272 0.939464 0.023284
v -0.171588 0.869260 0.324490
v -0.140945 0.575994 0.259924
v -0.133187 0.334329 0.221940
v -0.418146 0.320884 0.211415
v -0.432645 0.596821 0.209655
v -0.458892 0.853567 0.200209
v -0.453869 0.369072 -0.052522
v -0.465591 0.644428 -0.054918
v -0.472649 0.862281 -0.076716
v -0.076049 0.826634 -0.102837
v -0.122360 0.630182 -0.099585
v -0.162940 0.418353 -0.083432
vn -0.0969 0.5091 -0.8552
vn -0.0534 0.0305 -0.9981
vn 0.4918 -0.1873 -0.8503
vn -0.2462 -0.2565 0.9346
vn 0.9258 0.0817 0.3691
vn 0.5689 0.8075 0.1560
vn 0.0571 0.9159 -0.3973
vn 0.6543 -0.1931 0.7311
vn -0.1295 0.9345 0.3317
vn -0.1644 0.4886 -0.8569
vn -0.1032 -0.4473 0.8884
vn -0.3662 -0.8962 -0.2504
vn -0.2413 -0.0552 0.9689
vn 0.3313 -0.8204 0.4661
vn 0.9499 -0.2234 0.2184
vn 0.0022 -0.6823 0.7311
vn 0.0674 0.9876 0.1418
vn 0.0256 -0.6935 0.7200
vn -0.6831 0.3033 0.6643
vn 0.9328 0.0133 -0.3601
vn -0.8666 -0.0187 -0.4987
vn 0.5876 0.7487 0.3069
vn 0.5692 0.1118 0.8145
vn -0.1795 -0.5511 0.8149
vn -0.0999 0.6273 0.7723
vn -0.5669 -0.5338 0.6275
vn -0.3939 -0.4770 -0.7857
vn 0.8288 0.5306 -0.1775
vn -0.2047 -0.6396 0.7409
vn 0.5869 0.7668 -0.2600
vn 0.5112 0.0384 0.8586
vn 0.7910 0.3436 -0.5061
vn -0.3552 -0.2365 -0.9044
vn -0.2113 -0.5830 -0.7845
vn -0.5460 0.2461 -0.8009
vn -0.6378 0.1088 0.7625
vn 0.7348 0.0840 0.6731
vn 0.9747 -0.0106 -0.2231
vn 0.3747 0.5978 0.7087
vn 0.0704 0.9955 -0.0629
vn -0.3518 0.8781 0.3243
vn 0.3431 0.9185 0.1968
vn 0.0538 0.9714 0.2314
vn -0.9585 0.1061 0.2647
vn 0.3292 -0.3586 0.8735
vn -0.2852 0.4901 -0.8237
vn -0.6869 -0.6046 -0.4033
vn -0.8734 -0.4349 0.2190
vn 0.0886 0.0854 -0.9924
vn -0.9722 0.2335 -0.0198
vn 0.0677 0.8333 0.5486
vn 0.4220 0.7551 0.5017
vn -0.3265 0.8804 0.3440
vn 0.9875 -0.1466 0.0575
vn 0.4970 -0.0435 0.8667
vn -0.7599 0.1422 -0.6343
vn -0.3200 -0.6570 -0.6826
vn -0.7581 -0.4739 -0.4481
vn 0.8514 0.3108 0.4226
vn -0.5480 -0.6650 -0.5074
vn -0.1710 0.9814 0.0878
vn 0.7872 0.5299 0.3154
vn 0.6500 0.3330 0.6831
vn -0.4213 0.1692 -0.8910
vn 0.0769 0.2125 0.9741
vn -0.6389 -0.6170 0.4594
vn -0.2449 0.5021 0.8294
vn -0.7317 0.6360 0.2452
vn -0.3630 -0.8676 -0.3399
vn 0.1966 0.4576 0.8672
vn 0.5442 0.6252 0.5595
vn 0.2179 0.3836 0.8974
vn -0.4487 0.5332 -0.7172
vn -0.8744 0.3921 0.2857
vn 0.9573 -0.2382 0.1640
vn 0.5199 0.6976 0.4930
vn 0.2450 0.4187 -0.8744
vn -0.2027 -0.2951 0.9337
vn 0.5002 0.8562 0.1294
vn 0.2718 0.9619 -0.0301
vn -0.1314 0.5311 0.8370
vn -0.4322 -0.1052 0.8956
vn 0.0613 0.7424 -0.6671
vn -0.1039 -0.5712 0.8142
vn 0.0371 0.1460 -0.9886
vn 0.9506 -0.2913 -0.1073
vn -0.9993 -0.0096 -0.0357
vn -0.1621 0.2017 -0.9659
vn 0.0953 -0.5973 0.7963
vn -0.9964 -0.0224 0.0822
vn 0.9522 -0.2423 -0.1859
vn 0.1411 -0.9791 -0.1461
vn 0.2295 -0.4898 0.8411
vn -0.9616 -0.2485 0.1169
vn -0.9520 -0.2924 0.0899
vn 0.9843 -0.0771 -0.1589
vn -0.1302 0.2461 -0.9605
vn -0.0348 -0.9994 0.0084
vn 0.0130 -0.9916 -0.1286
vn 0.1955 -0.5332 0.8231
vn 0.1863 0.3298 -0.9255
vn 0.9713 -0.1654 0.1707
vn 0.6194 0.2722 -0.7363
vn 0.4805 -0.4545 -0.7500
vn 0.5451 -0.1431 -0.8261
vn 0.5963 0.1419 -0.7901
vn 0.9950 -0.0004 0.1002
vn 0.9723 -0.2206 0.0774
vn 0.9657 -0.2467 0.0806
vn 0.0970 -0.5100 -0.8547
vn 0.1133 -0.1231 -0.9859
vn 0.1592 0.2148 -0.9636
vn 0.1972 0.2972 0.9342
vn 0.2539 -0.3154 0.9144
vn 0.2116 -0.4876 0.8470
vn -0.9318 -0.1338 0.3374
vn -0.9534 -0.2116 0.2150
vn -0.9685 -0.2149 0.1256
vn -0.1468 -0.4250 -0.8932
vn -0.0985 -0.0508 -0.9938
vn -0.1166 -0.0309 -0.9927
vn 0.8999 0.2828 0.3319
vn 0.9885 -0.0495 0.1427
vn 0.9970 -0.0706 -0.0314
vn -0.9794 -0.0333 -0.1992
vn -0.9948 -0.0646 0.0791
vn -0.9916 -0.0463 0.1205
vn -0.5495 0.2609 0.7937
vn -0.2874 -0.1249 0.9496
vn -0.1055 -0.0739 0.9917
vn 0.5825 -0.0534 0.8111
vn 0.3775 0.3227 -0.8680
vn -0.1572 -0.5093 -0.8461
vn -0.1857 -0.8498 -0.4932
vn -0.8206 -0.1562 -0.5498
vt 0.461701 0.809397
vt 0.301930 0.729761
vt 0.094158 0.499911
vt 0.498737 0.648456
vt 0.250869 0.553264
vt 0.714874 0.752530
vt 0.627854 0.740386
vt 0.227533 0.339544
vt 0.300362 0.438253
vt 0.625828 0.633709
vt 0.338991 0.679376
vt 0.653754 0.621457
vt 0.189641 0.785401
vt 0.531284 0.815038
vt 0.232114 0.729761
vt 0.806952 0.326283
vt 0.527824 0.712310
vt 0.703640 0.331352
vt 0.725736 0.123548
vt 0.557184 0.740386
vt 0.714874 0.681901
vt 0.693091 0.138725
vt 0.558638 0.706064
vt 0.944491 0.391302
vt 0.108931 0.369345
vt 0.090202 0.443431
vt 0.952837 0.467016
vt 0.108059 0.346292
vt 0.960024 0.371234
vt 0.653754 0.712739
vt 0.761990 0.055860
vt 0.265996 0.788213
vt 0.829683 0.188590
vt 0.886815 0.394232
vt 0.909606 0.471204
vt 0.826550 0.267021
vt 0.659457 0.749480
vt 0.206417 0.267620
vt 0.238389 0.812575
vt 0.882743 0.373659
vt 0.837846 0.166681
vt 0.102618 0.289588
vt 0.957957 0.321520
vt 0.918648 0.216117
vt 0.803322 0.012950
vt 0.106348 0.638847
vt 0.232551 0.755661
vt 0.798789 0.485160
vt 0.965752 0.239402
vt 0.153968 0.222285
vt 0.894228 0.312474
vt 0.856067 0.102710
vt 0.881967 0.351902
vt 0.842627 0.144082
vt 0.107159 0.331692
vt 0.958812 0.358201
vt 0.199778 0.246429
vt 0.138792 0.619338
vt 0.232114 0.797406
vt 0.967580 0.012950
vt 0.753483 0.682459
vt 0.843831 0.469074
vt 0.256421 0.022764
vt 0.824689 0.472884
vt 0.987050 0.016155
vt 0.832147 0.505580
vt 0.295109 0.018166
vt 0.782932 0.707368
vt 0.843831 0.503254
vt 0.076417 0.467161
vt 0.958695 0.494573
vt 0.833773 0.298242
vt 0.909847 0.503107
vt 0.076958 0.454690
vt 0.951531 0.482650
vt 0.837149 0.281767
vt 0.912926 0.487172
vt 0.064432 0.532285
vt 0.298790 0.687460
vt 0.825577 0.362572
vt 0.264894 0.686125
vt 0.056614 0.518895
vt 0.959622 0.549977
vt 0.837123 0.350740
vt 0.929664 0.555276
vt 0.051257 0.577890
vt 0.291936 0.641182
vt 0.824256 0.407314
vt 0.275162 0.640522
vt 0.035793 0.577862
vt 0.964581 0.612577
vt 0.838997 0.411720
vt 0.948088 0.615681
vt 0.039898 0.592711
vt 0.301778 0.620707
vt 0.403076 0.772170
vt 0.830596 0.428615
vt 0.403076 0.737417
vt 0.267017 0.619338
vt 0.012950 0.593438
vt 0.987050 0.637067
vt 0.428919 0.781443
vt 0.856067 0.440612
vt 0.428919 0.728949
vt 0.935424 0.646785
vt 0.945356 0.412724
vt 0.357115 0.854737
vt 0.331665 0.779032
vt 0.948027 0.441601
vt 0.799629 0.752473
vt 0.327972 0.853161
vt 0.906904 0.416128
vt 0.370069 0.779032
vt 0.684668 0.778429
vt 0.909575 0.445005
vt 0.655249 0.778999
vt 0.799629 0.791035
vt 0.330193 0.729131
vt 0.557184 0.775635
vt 0.363063 0.804932
vt 0.331684 0.807874
vt 0.754247 0.751428
vt 0.586563 0.768755
vt 0.566112 0.815056
vt 0.689281 0.828405
vt 0.370405 0.729131
vt 0.754247 0.791805
vt 0.657717 0.824383
vt 0.595492 0.808176
vt 0.327830 0.637821
vt 0.590400 0.642651
vt 0.164818 0.789976
vt 0.357235 0.619338
vt 0.642851 0.190721
vt 0.562581 0.649581
vt 0.406824 0.626953
vt 0.080449 0.619338
vt 0.646201 0.239681
vt 0.727583 0.656002
vt 0.597847 0.731399
vt 0.712829 0.722239
vt 0.658284 0.323708
vt 0.527919 0.666449
vt 0.661748 0.291537
vt 0.680225 0.245582
vt 0.377645 0.696957
vt 0.285191 0.477898
vt 0.483372 0.812325
vt 0.280072 0.728266
vt 0.924330 0.393087
vt 0.921760 0.373660
vt 0.678504 0.727397
vt 0.268491 0.812575
vt 0.930826 0.465310
vt 0.923786 0.327561
vt 0.941993 0.227167
vt 0.764056 0.466512
vt 0.919524 0.351927
vt 0.977463 0.013354
vt 0.833186 0.466512
vt 0.317617 0.012950
vt 0.798789 0.722800
vt 0.839639 0.522681
vt 0.934403 0.500152
vt 0.932138 0.484309
vt 0.281656 0.689101
vt 0.944784 0.554368
vt 0.283549 0.640852
vt 0.956335 0.614129
vt 0.284323 0.620942
vt 0.399765 0.754789
vt 0.961112 0.640376
vt 0.422297 0.755187
vt 0.926130 0.414426
vt 0.350867 0.779032
vt 0.928801 0.443303
vt 0.799629 0.771754
vt 0.350773 0.728949
vt 0.557184 0.796361
vt 0.753483 0.771844
vt 0.595492 0.787450
vt 0.985581 0.067358
vt 0.238180 0.070710
vt 0.259592 0.052321
vt 0.138792 0.821791
vt 0.953366 0.057503
vt 0.765454 0.639660
vt 0.120235 0.821584
vt 0.772730 0.660154
vt 0.283154 0.037949
vt 0.784440 0.682652
vt 0.128680 0.843910
vt 0.970110 0.058056
vt 0.758353 0.637393
vt 0.180368 0.432154
vt 0.759258 0.257498
vt 0.884976 0.446549
vt 0.828099 0.241547
vt 0.971226 0.428512
vt 0.101516 0.405509
vt 0.908240 0.430567
vt 0.669958 0.778714
vt 0.946692 0.427163
vt 0.342544 0.853949
vt 0.673120 0.826722
vt 0.582140 0.817526
vt 0.570535 0.766286
vt 0.348248 0.806122
vt 0.576699 0.792002
vt 0.653753 0.802281
vt 0.776512 0.794925
vt 0.776512 0.748700
vt 0.327830 0.829868
vt 0.363063 0.830170
vt 0.327830 0.753980
vt 0.373865 0.753980
vt 0.689281 0.803194
vt 0.351093 0.753886
vt 0.776117 0.771930
vt 0.671321 0.802907
vt 0.345899 0.829874
vt 0.457498 0.727404
vt 0.165986 0.548054
vt 0.260364 0.376248
vt 0.625887 0.695531
vt 0.520555 0.743605
vt 0.734596 0.339638
vt 0.406824 0.703049
vt 0.012950 0.651015
vt 0.277407 0.507014
vt 0.206214 0.619338
vt 0.706517 0.466512
vt 0.399765 0.822801
vt 0.181517 0.620770
vt 0.619265 0.470337
vt 0.422433 0.807343
vt 0.582936 0.466512
vt 0.458892 0.202188
vt 0.422433 0.843958
vt 0.727583 0.468029
vt 0.460639 0.221880
vt 0.402692 0.843997
vt 0.717439 0.778459
vt 0.429089 0.593438
vt 0.518160 0.466685
vt 0.070962 0.817001
vt 0.726094 0.791097
vt 0.457498 0.298878
vt 0.715181 0.783741
vt 0.523936 0.466512
vt 0.458951 0.311476
vt 0.719061 0.788282
vt 0.458165 0.306435
vt 0.058766 0.817583
vt 0.726094 0.778429
vt 0.431598 0.585369
vt 0.599953 0.261833
vt 0.080449 0.668491
vt 0.542336 0.274386
vt 0.076079 0.728305
vt 0.500395 0.287212
vt 0.064936 0.773359
vt 0.389801 0.564275
vt 0.039540 0.774208
vt 0.356388 0.547019
vt 0.031995 0.737396
vt 0.319737 0.531779
vt 0.030523 0.696843
vt 0.505723 0.512116
vt 0.384015 0.580847
vt 0.506522 0.550736
vt 0.346302 0.574833
vt 0.507607 0.604105
vt 0.294291 0.566034
vt 0.610540 0.298468
vt 0.545535 0.300686
vt 0.502363 0.302883
vt 0.504402 0.313331
vt 0.517745 0.511765
vt 0.548610 0.318269
vt 0.527842 0.556627
vt 0.609940 0.323717
vt 0.531284 0.618364
vt 0.660591 0.582499
vt 0.204501 0.743892
vt 0.668589 0.550878
vt 0.206214 0.710848
vt 0.668004 0.517120
vt 0.204545 0.678125
vt 0.623877 0.525891
vt 0.164692 0.675333
vt 0.610236 0.563455
vt 0.167167 0.712219
vt 0.605277 0.597358
vt 0.166352 0.745757
vt 0.511839 0.183186
vt 0.584607 0.521652
vt 0.552303 0.182624
vt 0.569857 0.561129
vt 0.598009 0.178631
vt 0.565182 0.606784
vt 0.592158 0.236754
vt 0.721184 0.600612
vt 0.550092 0.232946
vt 0.722606 0.558204
vt 0.518921 0.225772
vt 0.713819 0.525134
s 0
usemtl Material
f 89/196/1 7/19/1 13/33/1 90/198/1
f 8/22/2 7/19/2 89/196/2 58/145/2 54/138/2 53/134/2
f 6/18/3 56/142/3 57/144/3
f 3/8/4 106/224/4 4/9/4 59/147/4 88/195/4
f 6/17/5 107/226/5 5/14/5 60/148/5 1/1/5 105/222/5 2/4/5 56/143/5
f 61/150/6 13/34/6 16/40/6 62/151/6
f 5/16/7 14/36/7 31/76/7 29/72/7
f 88/195/8 1/3/8 10/26/8 91/200/8
f 67/158/9 21/53/9 20/51/9 65/155/9
f 13/33/10 7/19/10 12/31/10 16/41/10
f 3/8/11 9/25/11 11/28/11 15/38/11
f 55/141/12 3/6/12 15/37/12 63/152/12
f 66/156/13 19/49/13 17/43/13 65/155/13
f 23/57/14 22/55/14 17/42/14 19/50/14
f 83/184/15 82/183/15 25/63/15 26/67/15
f 15/38/16 11/28/16 22/55/16 23/57/16
f 62/151/17 16/40/17 21/53/17 67/158/17
f 69/163/18 26/66/18 25/64/18 68/160/18
f 87/193/19 84/186/19 24/60/19 68/159/19
f 86/190/20 83/184/20 26/67/20 69/161/20
f 84/187/21 85/189/21 27/68/21 24/61/21
f 70/164/22 29/73/22 31/77/22 71/165/22
f 70/164/23 28/71/23 34/83/23 73/167/23
f 10/26/24 1/3/24 28/70/24 30/74/24
f 64/154/25 10/27/25 30/75/25 71/165/25
f 34/82/26 32/78/26 36/86/26 38/90/26
f 60/149/27 5/15/27 33/81/27 72/166/27
f 5/16/28 29/72/28 35/84/28 33/80/28
f 28/70/29 1/3/29 32/78/29 34/82/29
f 37/88/30 39/92/30 43/103/30 41/97/30
f 73/167/31 34/83/31 38/91/31 75/169/31
f 33/80/32 35/84/32 39/92/32 37/88/32
f 72/166/33 33/81/33 37/89/33 74/168/33
f 76/171/34 41/98/34 43/104/34 77/173/34
f 74/168/35 37/89/35 41/99/35 76/170/35
f 38/90/36 36/86/36 40/94/36 42/100/36
f 75/169/37 38/91/37 42/101/37 77/172/37
f 102/219/38 97/211/38 51/127/38 81/180/38
f 91/199/39 10/27/39 45/109/39 93/203/39
f 90/197/40 13/34/40 46/112/40 92/201/40
f 61/150/41 9/24/41 44/106/41 78/174/41
f 64/154/42 14/35/42 47/115/42 79/176/42
f 96/209/43 94/206/43 50/124/43 80/179/43
f 101/218/44 99/215/44 48/118/44 80/178/44
f 104/221/45 98/213/45 49/121/45 95/208/45
f 103/220/46 100/217/46 50/125/46 94/205/46
f 8/23/47 53/135/47 52/131/47
f 8/23/48 52/131/48 4/10/48 106/225/48 3/7/48 55/140/48 7/20/48
f 54/138/49 58/145/49 89/196/49 5/16/49 107/227/49 6/18/49 57/144/49
f 100/216/50 101/218/50 80/178/50 50/126/50
f 95/207/51 96/209/51 80/179/51 48/119/51
f 10/27/52 64/154/52 79/176/52 45/109/52
f 13/34/53 61/150/53 78/174/53 46/112/53
f 98/212/54 102/219/54 81/180/54 49/122/54
f 39/93/55 75/169/55 77/172/55 43/105/55
f 36/87/56 74/168/56 76/170/56 40/95/56
f 40/96/57 76/171/57 77/173/57 42/102/57
f 32/79/58 72/166/58 74/168/58 36/87/58
f 35/85/59 73/167/59 75/169/59 39/93/59
f 1/2/60 60/149/60 72/166/60 32/79/60
f 14/35/61 64/154/61 71/165/61 31/77/61
f 29/73/62 70/164/62 73/167/62 35/85/62
f 28/71/63 70/164/63 71/165/63 30/75/63
f 85/189/64 86/191/64 69/162/64 27/68/64
f 82/182/65 87/193/65 68/159/65 25/65/65
f 27/69/66 69/163/66 68/160/66 24/62/66
f 11/29/67 62/151/67 67/158/67 22/56/67
f 18/44/68 66/156/68 65/155/68 20/51/68
f 7/21/69 55/141/69 63/152/69 12/30/69
f 22/56/70 67/158/70 65/155/70 17/43/70
f 9/24/71 61/150/71 62/151/71 11/29/71
f 19/49/72 66/156/72 87/193/72 82/182/72
f 12/31/73 18/45/73 20/52/73 21/54/73 16/41/73
f 66/157/74 18/48/74 84/187/74 87/194/74
f 23/57/75 19/50/75 82/183/75 83/184/75
f 49/123/76 81/181/76 96/209/76 95/207/76
f 97/210/77 103/220/77 94/205/77 51/128/77
f 99/214/78 104/221/78 95/208/78 48/120/78
f 81/181/79 51/129/79 94/206/79 96/209/79
f 14/35/80 90/197/80 92/201/80 47/115/80
f 9/24/81 91/199/81 93/203/81 44/106/81
f 3/8/82 88/195/82 91/200/82 9/25/82
f 5/16/83 89/196/83 90/198/83 14/36/83
f 44/107/84 93/204/84 104/221/84 99/214/84
f 47/116/85 92/202/85 103/220/85 97/210/85
f 45/110/86 79/177/86 102/219/86 98/212/86
f 46/113/87 78/175/87 101/218/87 100/216/87
f 92/202/88 46/114/88 100/217/88 103/220/88
f 93/204/89 45/111/89 98/213/89 104/221/89
f 78/175/90 44/108/90 99/215/90 101/218/90
f 79/177/91 47/117/91 97/211/91 102/219/91
f 59/146/92 4/11/92 52/130/92 53/133/92 54/136/92 108/228/92
f 136/291/93 110/234/93 109/231/93 135/289/93
f 121/264/94 120/262/94 114/246/94 117/254/94
f 139/297/95 111/237/95 110/235/95 136/290/95
f 135/288/96 109/232/96 112/240/96 144/307/96
f 144/306/97 112/241/97 111/238/97 139/296/97
f 111/239/98 112/242/98 109/233/98 110/236/98
f 117/255/99 114/247/99 116/252/99 115/249/99 113/243/99
f 124/270/100 121/263/100 117/256/100 113/244/100
f 120/261/101 129/277/101 116/253/101 114/248/101
f 130/279/102 124/269/102 113/245/102 115/250/102
f 129/277/103 130/278/103 115/251/103 116/253/103
f 57/144/104 56/142/104 132/282/104 127/275/104
f 127/275/105 132/282/105 131/280/105 128/276/105
f 128/276/106 131/280/106 130/278/106 129/277/106
f 56/143/107 2/4/107 126/273/107 132/283/107
f 132/283/108 126/273/108 125/271/108 131/281/108
f 131/281/109 125/271/109 124/269/109 130/279/109
f 54/138/110 57/144/110 127/275/110 118/257/110
f 118/257/111 127/275/111 128/276/111 119/259/111
f 119/259/112 128/276/112 129/277/112 120/261/112
f 2/5/113 108/230/113 123/267/113 126/274/113
f 126/274/114 123/267/114 122/265/114 125/272/114
f 125/272/115 122/265/115 121/263/115 124/270/115
f 108/229/116 54/137/116 118/258/116 123/268/116
f 123/268/117 118/258/117 119/260/117 122/266/117
f 122/266/118 119/260/118 120/262/118 121/264/118
f 54/138/119 142/302/119 141/300/119 53/134/119
f 142/302/120 143/304/120 140/298/120 141/300/120
f 143/304/121 144/306/121 139/296/121 140/298/121
f 4/12/122 133/284/122 142/303/122 54/139/122
f 133/284/123 134/286/123 143/305/123 142/303/123
f 134/286/124 135/288/124 144/307/124 143/305/124
f 53/135/125 141/301/125 138/294/125 52/131/125
f 141/301/126 140/299/126 137/292/126 138/294/126
f 140/299/127 139/297/127 136/290/127 137/292/127
f 52/132/128 138/295/128 133/285/128 4/13/128
f 138/295/129 137/293/129 134/287/129 133/285/129
f 137/293/130 136/291/130 135/289/130 134/287/130
f 105/223/131 1/3/131 88/195/131 59/147/131 108/230/131 2/5/131
f 86/192/132 85/188/132 83/185/132
f 83/185/133 85/188/133 18/46/133 23/58/133
f 63/153/134 15/39/134 23/59/134 18/47/134 12/32/134
f 84/187/135 18/48/135 85/189/135
l 52 106
