# Blender 3.3.1
# www.blender.org
mtllib monstruo_3_grande_caminar565.mtl
o monstruo_grande
v 0.517015 1.968308 0.338543
v 0.528188 1.115106 0.044722
v -0.627619 1.848629 0.115906
v -0.281043 1.206741 0.221796
v 0.831188 2.229512 0.103924
v 0.627963 1.591744 -0.221862
v -0.684235 2.054124 -0.329345
v -0.652704 1.735421 -0.353760
v -0.213255 2.428994 0.417086
v 0.319965 2.276877 0.478978
v -0.361863 2.413286 0.498827
v -1.031759 2.154513 -0.258148
v -0.144343 2.581107 0.062255
v 0.386667 2.393886 0.210882
v -0.919705 2.014222 -0.077483
v -0.296806 2.672926 0.064875
v -0.728840 2.360629 0.451826
v -1.364822 2.107205 -0.055630
v -1.123662 2.128849 0.185853
v -0.830590 2.694077 0.167045
v -0.480152 2.736013 0.111352
v -0.443119 2.371480 0.461273
v -1.047088 2.044652 -0.108299
v -1.856283 0.884491 0.575690
v -1.742644 0.861246 0.645806
v -1.689346 0.686283 0.450382
v -1.758708 0.700472 0.407585
v 0.431265 2.173880 0.486921
v 0.644949 2.354677 0.308766
v 0.422866 2.295222 0.492714
v 0.509052 2.408196 0.278592
v 0.704076 1.903811 0.478056
v 0.916672 1.908188 0.444181
v 0.718866 1.953851 0.516764
v 0.873021 2.049006 0.439762
v 0.739033 1.759275 0.736320
v 0.853525 1.734298 0.725588
v 0.763329 1.800360 0.831183
v 0.874341 1.777059 0.813248
v 0.681715 1.695316 0.867292
v 0.913197 1.648204 0.833654
v 0.663002 1.761428 1.052017
v 1.011050 1.684114 0.995775
v -0.049948 2.461295 0.460402
v 0.156084 2.421320 0.467613
v -0.013234 2.552323 0.212074
v 0.186610 2.506078 0.221036
v 0.004711 2.774662 0.599284
v 0.210068 2.700994 0.581591
v 0.019194 2.877184 0.341221
v 0.224256 2.803603 0.322927
v -0.499359 1.196499 0.036672
v -0.405005 1.174435 -0.185142
v -0.039319 1.272722 -0.335732
v -0.663151 1.885558 -0.111088
v 0.537362 1.214727 -0.172513
v 0.316743 1.257699 -0.281178
v 0.052317 1.517740 -0.327181
v -0.021618 1.115254 0.186726
v 0.633904 2.039771 0.266362
v -0.182330 2.482125 0.292746
v -0.331913 2.658228 0.332568
v -0.839355 2.068062 -0.167105
v 0.333723 2.396958 0.366762
v -0.721819 2.588674 0.413238
v -1.291154 2.249438 0.198720
v -0.484025 2.658899 0.306447
v -1.816762 0.871735 0.638407
v -1.687675 0.578474 0.331976
v 0.550594 2.279028 0.443425
v 0.469509 2.399296 0.406050
v 0.796402 1.864455 0.426947
v 0.809877 2.013850 0.531172
v 0.794901 1.746795 0.727901
v 0.818925 1.788011 0.822199
v 0.791233 1.657340 0.830459
v 0.825637 1.698004 0.987465
v -0.033868 2.505620 0.334488
v 0.168869 2.465376 0.343101
v -0.019354 2.828407 0.469666
v 0.248461 2.750064 0.453314
v -1.603661 1.183908 0.618264
v -1.651434 1.011343 0.540040
v -1.800817 1.195326 0.499089
v -1.758394 1.033222 0.474044
v -1.693197 0.855900 0.432894
v -1.735073 1.170128 0.604934
v -0.018135 1.777251 0.490876
v 0.267977 2.107921 -0.204084
v 0.209074 2.500623 0.044054
v 0.050084 2.299557 0.597180
v 0.080830 2.528724 0.214322
v 0.058476 2.440193 0.462981
v 0.123878 2.855549 0.292926
v 0.105201 2.722451 0.629057
v 0.118183 2.840503 0.482278
v 0.219305 2.665247 0.247550
v 0.198660 2.551587 0.542463
v -0.037396 2.610785 0.552269
v -0.017945 2.726423 0.255065
v -0.045170 2.670156 0.403396
v 0.223801 2.608109 0.395071
v 0.100869 2.703506 0.230406
v 0.080223 2.572405 0.567594
v 0.613686 1.606970 0.092892
v -0.560728 1.559623 0.166961
v 0.710696 1.793756 -0.166479
v 0.173670 1.060867 0.167724
v -0.235981 0.057906 0.349188
v -0.378887 0.107048 0.463506
v -0.406950 0.032646 0.224575
v -0.272290 0.017251 0.212704
v 0.341243 -0.063806 -0.202434
v 0.266514 -0.072718 -0.277028
v 0.349925 -0.066421 -0.240980
v 0.317953 -0.070385 -0.266606
v 0.282416 -0.064994 -0.191173
v 0.076797 0.876910 -0.241926
v 0.153074 0.561051 -0.236834
v 0.202112 0.255177 -0.237652
v 0.235953 0.212272 -0.064099
v 0.210579 0.448170 0.038715
v 0.208998 0.718075 0.108447
v 0.358135 0.218929 -0.088015
v 0.416928 0.464046 -0.002593
v 0.492807 0.804022 0.051610
v 0.331393 0.905608 -0.224890
v 0.332775 0.554962 -0.207179
v 0.309011 0.251295 -0.217899
v 0.375820 0.239738 -0.165978
v 0.446279 0.536730 -0.123675
v 0.506113 0.886746 -0.123215
v -0.159766 0.961984 0.356832
v -0.158471 0.697743 0.398230
v -0.166290 0.470049 0.469863
v -0.451556 0.466973 0.459829
v -0.449610 0.714485 0.339677
v -0.457736 0.947361 0.259332
v -0.484063 0.405233 0.196998
v -0.482838 0.657536 0.071719
v -0.496620 0.909171 -0.018018
v -0.105293 0.836324 -0.068545
v -0.141555 0.608150 0.036550
v -0.190804 0.423161 0.155280
vn 0.0797 0.5408 -0.8374
vn 0.0181 0.0108 -0.9998
vn 0.3981 -0.2125 -0.8924
vn -0.3599 -0.2045 0.9103
vn 0.9256 -0.2917 0.2411
vn 0.6612 0.7046 0.2578
vn 0.2794 0.8797 -0.3847
vn 0.3513 -0.2161 0.9110
vn -0.0657 0.9165 0.3947
vn 0.0674 0.5057 -0.8601
vn -0.3518 -0.4063 0.8433
vn -0.4586 -0.8349 -0.3043
vn -0.3894 -0.1118 0.9143
vn 0.1490 -0.8951 0.4203
vn 0.8864 -0.2776 0.3705
vn -0.1707 -0.7449 0.6450
vn 0.1948 0.9588 0.2066
vn -0.1269 -0.7479 0.6516
vn -0.7858 0.2768 0.5531
vn 0.9838 0.0038 -0.1794
vn -0.7585 0.0555 -0.6493
vn 0.4551 0.7530 0.4753
vn -0.0270 0.2066 0.9780
vn -0.4984 -0.4830 0.7199
vn -0.2147 0.6799 0.7011
vn -0.9720 0.1244 0.1995
vn 0.1524 -0.6630 -0.7329
vn 0.8101 0.5525 0.1960
vn -0.5600 -0.5849 0.5868
vn 0.8634 0.1861 -0.4688
vn -0.2802 0.8021 0.5273
vn 0.9889 0.0616 0.1353
vn 0.1900 -0.8862 -0.4226
vn -0.0819 -0.9609 0.2645
vn -0.0900 -0.7767 -0.6234
vn -0.8058 0.5581 -0.1979
vn 0.4146 0.8282 0.3771
vn 0.9915 -0.0470 -0.1211
vn 0.3019 0.5590 0.7723
vn 0.2265 0.9740 -0.0000
vn -0.2489 0.9174 0.3105
vn 0.4253 0.8762 0.2268
vn 0.0687 0.9762 0.2056
vn -0.9745 0.1455 0.1705
vn 0.2334 -0.3350 0.9129
vn -0.1903 0.4629 -0.8657
vn -0.8325 -0.4603 -0.3083
vn -0.9474 -0.2337 0.2186
vn 0.2301 0.1894 -0.9545
vn -0.9572 0.2588 -0.1293
vn 0.0495 0.8492 0.5258
vn 0.4119 0.7266 0.5500
vn -0.2167 0.9145 0.3415
vn 0.9722 -0.1731 0.1578
vn 0.0936 0.8965 0.4330
vn -0.3786 -0.7251 -0.5752
vn -0.2330 -0.9251 0.2998
vn -0.4338 -0.8255 -0.3611
vn 0.3225 0.7600 0.5643
vn -0.1607 -0.8538 -0.4951
vn -0.0642 0.9979 -0.0004
vn 0.4570 0.6305 0.6274
vn 0.3761 0.2557 0.8906
vn -0.2427 0.2547 -0.9361
vn -0.1016 0.1329 0.9859
vn -0.7288 -0.6247 0.2802
vn -0.3088 0.4866 0.8173
vn -0.6745 0.7125 0.1934
vn -0.4512 -0.8160 -0.3613
vn 0.1173 0.3556 0.9272
vn 0.5478 0.5240 0.6522
vn 0.1178 0.3337 0.9353
vn -0.2654 0.6392 -0.7218
vn -0.8640 0.4695 0.1818
vn 0.8964 -0.3294 0.2965
vn 0.4990 0.6961 0.5162
vn 0.3408 0.3763 -0.8616
vn -0.2962 -0.2548 0.9205
vn 0.5188 0.8415 0.1505
vn 0.4035 0.9147 0.0230
vn -0.1590 0.5783 0.8002
vn -0.5466 -0.0692 0.8345
vn 0.3682 0.7130 -0.5967
vn -0.2072 -0.5425 0.8141
vn 0.1333 0.1047 -0.9855
vn 0.9408 -0.3388 0.0059
vn -0.9853 0.0097 -0.1705
vn -0.0665 0.1694 -0.9833
vn -0.0243 -0.5602 0.8280
vn -0.9996 0.0163 -0.0241
vn 0.9626 -0.2665 -0.0494
vn -0.0872 -0.9873 -0.1331
vn 0.2193 -0.1454 0.9648
vn -0.9633 -0.2191 0.1550
vn -0.9671 -0.1906 0.1685
vn 0.9799 -0.1735 -0.0985
vn -0.1229 -0.1070 -0.9866
vn -0.0820 -0.9489 0.3049
vn 0.0364 -0.9957 0.0856
vn 0.1923 -0.3800 0.9048
vn 0.1864 0.1527 -0.9705
vn 0.9708 -0.1344 0.1987
vn 0.6182 0.1359 -0.7742
vn 0.4464 -0.1479 -0.8825
vn 0.5334 -0.0653 -0.8433
vn 0.5979 -0.0231 -0.8012
vn 0.9946 -0.1029 0.0092
vn 0.9799 -0.1958 0.0384
vn 0.9611 -0.2545 0.1076
vn 0.1185 -0.1754 -0.9773
vn 0.1080 -0.0214 -0.9939
vn 0.1707 0.0257 -0.9850
vn 0.2859 -0.0766 0.9552
vn 0.2354 -0.2210 0.9464
vn 0.2053 -0.3690 0.9065
vn -0.9367 -0.1780 0.3014
vn -0.9622 -0.1528 0.2253
vn -0.9765 -0.1614 0.1426
vn -0.2101 -0.4800 -0.8517
vn -0.1679 -0.3641 -0.9161
vn -0.1291 -0.4718 -0.8722
vn 0.9348 0.2338 0.2675
vn 0.9940 -0.0405 0.1012
vn 0.9914 -0.1301 0.0151
vn -0.9937 0.0118 -0.1118
vn -0.9914 0.0011 0.1309
vn -0.9922 0.0600 0.1094
vn -0.4510 0.4211 0.7869
vn -0.2487 0.2259 0.9419
vn -0.1008 0.3741 0.9219
vn 0.3681 -0.3120 0.8759
vn 0.5412 0.3738 -0.7532
vn -0.0644 -0.4635 -0.8837
vn -0.1669 -0.7911 -0.5885
vn -0.7155 -0.0800 -0.6940
vt 0.882279 0.260085
vt 0.436089 0.649131
vt 0.117664 0.305524
vt 0.860974 0.338762
vt 0.079561 0.383885
vt 0.278417 0.728674
vt 0.111517 0.716819
vt 0.301243 0.337859
vt 0.232943 0.387386
vt 0.111517 0.662267
vt 0.671871 0.687525
vt 0.175114 0.511099
vt 0.930991 0.712692
vt 0.796001 0.259488
vt 0.522181 0.649131
vt 0.719621 0.316178
vt 0.801110 0.310020
vt 0.698705 0.366293
vt 0.510656 0.337024
vt 0.023033 0.717149
vt 0.367094 0.730187
vt 0.507246 0.358198
vt 0.018976 0.695717
vt 0.103380 0.570561
vt 0.268725 0.266033
vt 0.143950 0.273348
vt 0.098384 0.631539
vt 0.301351 0.259488
vt 0.128079 0.559933
vt 0.480438 0.333338
vt 0.348619 0.714075
vt 0.604958 0.268707
vt 0.031105 0.562973
vt 0.043818 0.625810
vt 0.721993 0.282954
vt 0.329365 0.336360
vt 0.302724 0.713315
vt 0.030374 0.549675
vt 0.582817 0.260846
vt 0.875347 0.642471
vt 0.380514 0.272320
vt 0.124895 0.517524
vt 0.813390 0.578569
vt 0.436089 0.332372
vt 0.956124 0.588845
vt 0.367094 0.692599
vt 0.367094 0.522797
vt 0.871643 0.594841
vt 0.398138 0.324445
vt 0.043891 0.509019
vt 0.796001 0.641153
vt 0.491075 0.268473
vt 0.032114 0.534706
vt 0.552485 0.259488
vt 0.331566 0.259909
vt 0.129819 0.544964
vt 0.339759 0.337186
vt 0.913298 0.588845
vt 0.317584 0.707220
vt 0.845734 0.463378
vt 0.311567 0.646434
vt 0.944558 0.353645
vt 0.398138 0.462439
vt 0.920230 0.354337
vt 0.870057 0.463781
vt 0.929709 0.374247
vt 0.357807 0.478584
vt 0.347994 0.663056
vt 0.944558 0.373825
vt 0.097076 0.285727
vt 0.229765 0.651022
vt 0.758050 0.297859
vt 0.168317 0.651042
vt 0.119329 0.272208
vt 0.094178 0.643292
vt 0.222768 0.636959
vt 0.746872 0.283208
vt 0.174541 0.636975
vt 0.045175 0.638147
vt 0.080672 0.327471
vt 0.442544 0.673801
vt 0.734592 0.339187
vt 0.484453 0.673801
vt 0.070725 0.319456
vt 0.218298 0.685110
vt 0.751374 0.331694
vt 0.180611 0.684911
vt 0.062412 0.356092
vt 0.455575 0.702696
vt 0.724658 0.367821
vt 0.476314 0.702696
vt 0.043357 0.357400
vt 0.210236 0.723455
vt 0.742364 0.370210
vt 0.189444 0.723462
vt 0.050281 0.367705
vt 0.444942 0.715336
vt 0.810526 0.722486
vt 0.728448 0.380153
vt 0.853695 0.722486
vt 0.487920 0.715336
vt 0.018975 0.371756
vt 0.232852 0.738567
vt 0.796001 0.739289
vt 0.758050 0.386241
vt 0.861207 0.739289
vt 0.167770 0.738589
vt 0.100634 0.583041
vt 0.712300 0.698974
vt 0.802197 0.701507
vt 0.098640 0.600731
vt 0.972705 0.287497
vt 0.747907 0.696578
vt 0.052045 0.577939
vt 0.849895 0.701507
vt 0.710445 0.675017
vt 0.050052 0.595630
vt 0.746553 0.677603
vt 0.924885 0.287497
vt 0.797725 0.671259
vt 0.981025 0.313792
vt 0.715147 0.730011
vt 0.752543 0.724602
vt 0.973919 0.259495
vt 0.967002 0.332143
vt 0.934252 0.306472
vt 0.715328 0.644023
vt 0.847669 0.671259
vt 0.923848 0.259495
vt 0.753088 0.649631
vt 0.920230 0.324823
vt 0.068284 0.665533
vt 0.630362 0.705721
vt 0.712055 0.621316
vt 0.966165 0.712391
vt 0.519769 0.388732
vt 0.031375 0.663704
vt 0.592215 0.695479
vt 0.581836 0.620019
vt 0.750017 0.621843
vt 0.569690 0.667298
vt 0.581066 0.387596
vt 0.531739 0.516092
vt 0.642835 0.625048
vt 0.273616 0.509019
vt 0.070982 0.710642
vt 0.316851 0.732164
vt 0.684917 0.393810
vt 0.816625 0.338063
vt 0.644803 0.392946
vt 0.602800 0.367236
vt 0.671871 0.661666
vt 0.181146 0.386242
vt 0.855113 0.259897
vt 0.463196 0.649131
vt 0.077903 0.567886
vt 0.078993 0.554271
vt 0.322237 0.720993
vt 0.070972 0.628379
vt 0.834014 0.651825
vt 0.084160 0.512738
vt 0.838315 0.596273
vt 0.320679 0.509019
vt 0.080733 0.539302
vt 0.857365 0.464048
vt 0.931678 0.351118
vt 0.335174 0.488977
vt 0.367094 0.673623
vt 0.939667 0.384854
vt 0.199177 0.651021
vt 0.069465 0.641494
vt 0.198664 0.632807
vt 0.464209 0.672968
vt 0.199604 0.684998
vt 0.465945 0.702696
vt 0.199840 0.723459
vt 0.466714 0.715004
vt 0.832520 0.720483
vt 0.200177 0.738589
vt 0.829423 0.735282
vt 0.076340 0.580490
vt 0.826046 0.701507
vt 0.074346 0.598181
vt 0.948795 0.287497
vt 0.823088 0.670800
vt 0.959731 0.307426
vt 0.948976 0.259488
vt 0.941524 0.331189
vt 0.875347 0.491894
vt 0.391834 0.432095
vt 0.377694 0.448634
vt 0.915590 0.478791
vt 0.834644 0.488373
vt 0.326937 0.619279
vt 0.938593 0.478810
vt 0.335216 0.632947
vt 0.358601 0.463790
vt 0.348787 0.648138
vt 0.927106 0.463378
vt 0.854274 0.489560
vt 0.315804 0.619182
vt 0.212520 0.321385
vt 0.644070 0.318501
vt 0.018976 0.592450
vt 0.663817 0.276029
vt 0.129819 0.597828
vt 0.224108 0.269832
vt 0.051049 0.586785
vt 0.728499 0.676310
vt 0.099637 0.591886
vt 0.730103 0.697776
vt 0.734390 0.646904
vt 0.920230 0.314550
vt 0.981025 0.324065
vt 0.732426 0.727384
vt 0.950683 0.319044
vt 0.753088 0.663662
vt 0.920230 0.273492
vt 0.977552 0.273492
vt 0.752543 0.710647
vt 0.709822 0.714522
vt 0.796001 0.686127
vt 0.853178 0.686127
vt 0.709822 0.659561
vt 0.824792 0.685890
vt 0.948939 0.273488
vt 0.731549 0.661651
vt 0.730449 0.712624
vt 0.878850 0.297575
vt 0.096711 0.342677
vt 0.285581 0.357771
vt 0.108549 0.696221
vt 0.804979 0.293594
vt 0.708839 0.350023
vt 0.668288 0.644023
vt 0.436089 0.526409
vt 0.145034 0.385321
vt 0.919159 0.607821
vt 0.247387 0.613831
vt 0.970304 0.416607
vt 0.947808 0.608020
vt 0.704660 0.516092
vt 0.970304 0.403829
vt 0.750017 0.516884
vt 0.618892 0.516092
vt 0.920230 0.404231
vt 0.273616 0.612878
vt 0.642836 0.516847
vt 0.938584 0.415207
vt 0.924281 0.443436
vt 0.075400 0.489812
vt 0.855524 0.444402
vt 0.531739 0.629156
vt 0.934913 0.435583
vt 0.576828 0.496673
vt 0.931440 0.443424
vt 0.848383 0.444289
vt 0.592622 0.497116
vt 0.934913 0.440184
vt 0.586164 0.496977
vt 0.517161 0.630156
vt 0.920230 0.438606
vt 0.085942 0.490043
vt 0.585376 0.420489
vt 0.510472 0.551446
vt 0.582586 0.444044
vt 0.504260 0.576063
vt 0.581388 0.469636
vt 0.508131 0.602400
vt 0.103684 0.463024
vt 0.477645 0.604263
vt 0.118194 0.440373
vt 0.454885 0.581958
vt 0.129418 0.415411
vt 0.438452 0.557360
vt 0.876897 0.417052
vt 0.081901 0.462161
vt 0.882279 0.393921
vt 0.081653 0.438865
vt 0.880271 0.363315
vt 0.079604 0.408162
vt 0.633117 0.418943
vt 0.615530 0.444447
vt 0.600997 0.469910
vt 0.614559 0.469949
vt 0.862035 0.416811
vt 0.638313 0.444473
vt 0.857648 0.390640
vt 0.666106 0.417503
vt 0.844696 0.362700
vt 0.167770 0.536691
vt 0.914144 0.688660
vt 0.182151 0.561697
vt 0.913298 0.663084
vt 0.189855 0.582503
vt 0.915415 0.641729
vt 0.680787 0.549268
vt 0.966165 0.641681
vt 0.684678 0.573659
vt 0.963812 0.665813
vt 0.684995 0.596421
vt 0.964308 0.688427
vt 0.584794 0.548886
vt 0.729850 0.550060
vt 0.578610 0.572959
vt 0.734888 0.574452
vt 0.569690 0.595426
vt 0.736445 0.597214
vt 0.642060 0.590920
vt 0.247172 0.543053
vt 0.641052 0.570535
vt 0.248998 0.562413
vt 0.635978 0.552556
vt 0.245738 0.579271
s 0
usemtl Material
f 89/203/1 7/19/1 13/32/1 90/205/1
f 8/22/2 7/19/2 89/203/2 58/151/2 54/142/2 53/136/2
f 6/18/3 56/148/3 57/150/3
f 3/8/4 106/231/4 4/9/4 59/153/4 88/202/4
f 6/17/5 107/233/5 5/14/5 60/154/5 1/1/5 105/229/5 2/4/5 56/149/5
f 61/156/6 13/33/6 16/38/6 62/157/6
f 5/16/7 14/35/7 31/77/7 29/72/7
f 88/202/8 1/3/8 10/26/8 91/207/8
f 67/164/9 21/53/9 20/50/9 65/161/9
f 13/32/10 7/19/10 12/30/10 16/39/10
f 3/8/11 9/25/11 11/28/11 15/36/11
f 55/147/12 3/6/12 15/37/12 63/158/12
f 66/162/13 19/48/13 17/40/13 65/160/13
f 23/57/14 22/55/14 17/41/14 19/49/14
f 83/191/15 82/190/15 25/63/15 26/67/15
f 15/36/16 11/28/16 22/55/16 23/57/16
f 62/157/17 16/38/17 21/53/17 67/164/17
f 69/169/18 26/66/18 25/64/18 68/166/18
f 87/200/19 84/193/19 24/60/19 68/165/19
f 86/197/20 83/191/20 26/67/20 69/167/20
f 84/194/21 85/196/21 27/68/21 24/61/21
f 70/170/22 29/73/22 31/78/22 71/172/22
f 70/170/23 28/71/23 34/85/23 73/174/23
f 10/26/24 1/3/24 28/70/24 30/74/24
f 64/159/25 10/27/25 30/75/25 71/171/25
f 34/84/26 32/80/26 36/88/26 38/92/26
f 60/155/27 5/15/27 33/83/27 72/173/27
f 5/16/28 29/72/28 35/86/28 33/82/28
f 28/70/29 1/3/29 32/80/29 34/84/29
f 37/90/30 39/94/30 43/105/30 41/99/30
f 73/174/31 34/85/31 38/93/31 75/176/31
f 33/82/32 35/86/32 39/94/32 37/90/32
f 72/173/33 33/83/33 37/91/33 74/175/33
f 76/178/34 41/100/34 43/106/34 77/180/34
f 74/175/35 37/91/35 41/101/35 76/177/35
f 38/92/36 36/88/36 40/96/36 42/102/36
f 75/176/37 38/93/37 42/103/37 77/179/37
f 102/226/38 97/218/38 51/129/38 81/187/38
f 91/206/39 10/27/39 45/111/39 93/210/39
f 90/204/40 13/33/40 46/114/40 92/208/40
f 61/156/41 9/24/41 44/108/41 78/181/41
f 64/159/42 14/34/42 47/117/42 79/183/42
f 96/216/43 94/213/43 50/126/43 80/186/43
f 101/225/44 99/222/44 48/120/44 80/185/44
f 104/228/45 98/220/45 49/123/45 95/215/45
f 103/227/46 100/224/46 50/127/46 94/212/46
f 8/23/47 53/137/47 52/132/47
f 8/23/48 52/132/48 4/10/48 106/232/48 3/7/48 55/146/48 7/20/48
f 54/142/49 58/151/49 89/203/49 5/16/49 107/234/49 6/18/49 57/150/49
f 100/223/50 101/225/50 80/185/50 50/128/50
f 95/214/51 96/216/51 80/186/51 48/121/51
f 10/27/52 64/159/52 79/183/52 45/111/52
f 13/33/53 61/156/53 78/181/53 46/114/53
f 98/219/54 102/226/54 81/187/54 49/124/54
f 39/95/55 75/176/55 77/179/55 43/107/55
f 36/89/56 74/175/56 76/177/56 40/97/56
f 40/98/57 76/178/57 77/180/57 42/104/57
f 32/81/58 72/173/58 74/175/58 36/89/58
f 35/87/59 73/174/59 75/176/59 39/95/59
f 1/2/60 60/155/60 72/173/60 32/81/60
f 14/34/61 64/159/61 71/171/61 31/79/61
f 29/73/62 70/170/62 73/174/62 35/87/62
f 28/71/63 70/170/63 71/172/63 30/76/63
f 85/196/64 86/198/64 69/168/64 27/68/64
f 82/189/65 87/200/65 68/165/65 25/65/65
f 27/69/66 69/169/66 68/166/66 24/62/66
f 11/29/67 62/157/67 67/164/67 22/56/67
f 18/43/68 66/162/68 65/160/68 20/51/68
f 7/21/69 55/147/69 63/158/69 12/31/69
f 22/56/70 67/164/70 65/161/70 17/42/70
f 9/24/71 61/156/71 62/157/71 11/29/71
f 19/48/72 66/162/72 87/200/72 82/189/72
f 12/30/73 18/44/73 20/52/73 21/54/73 16/39/73
f 66/163/74 18/47/74 84/194/74 87/201/74
f 23/57/75 19/49/75 82/190/75 83/191/75
f 49/125/76 81/188/76 96/216/76 95/214/76
f 97/217/77 103/227/77 94/212/77 51/130/77
f 99/221/78 104/228/78 95/215/78 48/122/78
f 81/188/79 51/131/79 94/213/79 96/216/79
f 14/34/80 90/204/80 92/208/80 47/117/80
f 9/24/81 91/206/81 93/210/81 44/108/81
f 3/8/82 88/202/82 91/207/82 9/25/82
f 5/16/83 89/203/83 90/205/83 14/35/83
f 44/109/84 93/211/84 104/228/84 99/221/84
f 47/118/85 92/209/85 103/227/85 97/217/85
f 45/112/86 79/184/86 102/226/86 98/219/86
f 46/115/87 78/182/87 101/225/87 100/223/87
f 92/209/88 46/116/88 100/224/88 103/227/88
f 93/211/89 45/113/89 98/220/89 104/228/89
f 78/182/90 44/110/90 99/222/90 101/225/90
f 79/184/91 47/119/91 97/218/91 102/226/91
f 59/152/92 4/11/92 52/133/92 53/138/92 54/141/92 108/235/92
f 136/298/93 110/241/93 109/238/93 135/296/93
f 121/271/94 120/269/94 114/253/94 117/261/94
f 139/304/95 111/244/95 110/242/95 136/297/95
f 135/295/96 109/239/96 112/247/96 144/314/96
f 144/313/97 112/248/97 111/245/97 139/303/97
f 111/246/98 112/249/98 109/240/98 110/243/98
f 117/262/99 114/254/99 116/259/99 115/256/99 113/250/99
f 124/277/100 121/270/100 117/263/100 113/251/100
f 120/268/101 129/284/101 116/260/101 114/255/101
f 130/286/102 124/276/102 113/252/102 115/257/102
f 129/284/103 130/285/103 115/258/103 116/260/103
f 57/150/104 56/148/104 132/289/104 127/282/104
f 127/282/105 132/289/105 131/287/105 128/283/105
f 128/283/106 131/287/106 130/285/106 129/284/106
f 56/149/107 2/4/107 126/280/107 132/290/107
f 132/290/108 126/280/108 125/278/108 131/288/108
f 131/288/109 125/278/109 124/276/109 130/286/109
f 54/142/110 57/150/110 127/282/110 118/264/110
f 118/264/111 127/282/111 128/283/111 119/266/111
f 119/266/112 128/283/112 129/284/112 120/268/112
f 2/5/113 108/237/113 123/274/113 126/281/113
f 126/281/114 123/274/114 122/272/114 125/279/114
f 125/279/115 122/272/115 121/270/115 124/277/115
f 108/236/116 54/143/116 118/265/116 123/275/116
f 123/275/117 118/265/117 119/267/117 122/273/117
f 122/273/118 119/267/118 120/269/118 121/271/118
f 54/144/119 142/309/119 141/307/119 53/139/119
f 142/309/120 143/311/120 140/305/120 141/307/120
f 143/311/121 144/313/121 139/303/121 140/305/121
f 4/12/122 133/291/122 142/310/122 54/145/122
f 133/291/123 134/293/123 143/312/123 142/310/123
f 134/293/124 135/295/124 144/314/124 143/312/124
f 53/140/125 141/308/125 138/301/125 52/134/125
f 141/308/126 140/306/126 137/299/126 138/301/126
f 140/306/127 139/304/127 136/297/127 137/299/127
f 52/135/128 138/302/128 133/292/128 4/13/128
f 138/302/129 137/300/129 134/294/129 133/292/129
f 137/300/130 136/298/130 135/296/130 134/294/130
f 105/230/131 1/3/131 88/202/131 59/153/131 108/237/131 2/5/131
f 86/199/132 85/195/132 83/192/132
f 83/192/133 85/195/133 18/45/133 23/58/133
f 63/158/134 15/37/134 23/59/134 18/46/134 12/31/134
f 84/194/135 18/47/135 85/196/135
l 52 106
