# Blender 3.3.1
# www.blender.org
mtllib monstruo_3_caminar587.mtl
o monstruo_grande
v 0.332073 2.043139 0.172575
v 0.523639 1.172458 0.067567
v -0.717300 1.767254 0.101691
v -0.299287 1.176966 0.219239
v 0.586951 2.308177 -0.124995
v 0.547842 1.643681 -0.247319
v -0.810283 1.949634 -0.351637
v -0.720049 1.645871 -0.381369
v -0.358152 2.427665 0.352757
v 0.200442 2.325667 0.372700
v -0.500360 2.404465 0.444539
v -1.180653 2.007336 -0.234236
v -0.320076 2.561791 -0.015574
v 0.219194 2.454220 0.106714
v -1.045739 1.887450 -0.045097
v -0.482252 2.634025 -0.014843
v -0.858596 2.326447 0.435404
v -1.497458 1.958602 0.004140
v -1.242484 2.019668 0.231718
v -1.008860 2.610370 0.119420
v -0.668994 2.677883 0.031011
v -0.577119 2.359538 0.419990
v -1.177516 1.908271 -0.063260
v -1.879459 0.763289 0.751791
v -1.757692 0.743966 0.808093
v -1.731126 0.553661 0.621756
v -1.805449 0.565456 0.587391
v 0.329089 2.232759 0.361460
v 0.492226 2.414953 0.133739
v 0.309432 2.352999 0.373590
v 0.349610 2.475341 0.148637
v 0.546317 1.913219 0.206919
v 0.731323 1.954486 0.085305
v 0.579612 1.976126 0.261831
v 0.706621 2.076393 0.139231
v 0.667285 1.653341 0.267121
v 0.772337 1.662066 0.225829
v 0.710209 1.626329 0.359923
v 0.815844 1.644326 0.316518
v 0.646506 1.509328 0.324544
v 0.866260 1.544655 0.238169
v 0.666816 1.432965 0.505099
v 0.996667 1.485470 0.368277
v -0.196504 2.479975 0.388689
v 0.014123 2.455683 0.389744
v -0.176857 2.563155 0.135096
v 0.024046 2.538628 0.140762
v -0.140222 2.795250 0.530529
v 0.065498 2.726037 0.502231
v -0.140481 2.900858 0.273082
v 0.063698 2.832274 0.243584
v -0.503077 1.149351 0.012502
v -0.388754 1.134194 -0.200631
v -0.038122 1.255895 -0.338058
v -0.758555 1.789610 -0.130580
v 0.543771 1.247253 -0.156091
v 0.325451 1.273594 -0.279086
v 0.014854 1.508577 -0.345787
v -0.022581 1.137660 0.195058
v 0.421783 2.119948 0.069705
v -0.338355 2.475202 0.223930
v -0.505036 2.636462 0.259086
v -0.968791 1.943694 -0.165480
v 0.185265 2.448534 0.264835
v -0.877607 2.546978 0.364925
v -1.419356 2.125273 0.243108
v -0.656853 2.619859 0.240062
v -1.832101 0.754882 0.809624
v -1.745393 0.436988 0.512992
v 0.441314 2.329898 0.285446
v 0.330040 2.460659 0.281388
v 0.609496 1.916216 0.097625
v 0.677256 2.030936 0.241764
v 0.719982 1.661057 0.245582
v 0.762898 1.634716 0.338068
v 0.746771 1.528405 0.258393
v 0.813897 1.462611 0.394971
v -0.188876 2.519870 0.260416
v 0.016926 2.498950 0.264291
v -0.171498 2.849956 0.402867
v 0.096200 2.777675 0.372635
v -1.622338 1.061554 0.737366
v -1.680590 0.884130 0.679858
v -1.833459 1.065281 0.643567
v -1.795201 0.902317 0.626865
v -1.736614 0.721449 0.591635
v -1.754413 1.048616 0.742418
v -0.095580 1.812864 0.458691
v 0.117067 2.139967 -0.262624
v 0.040219 2.526984 -0.037849
v -0.053217 2.321864 0.530309
v -0.080190 2.549104 0.135930
v -0.085660 2.464300 0.388606
v -0.038794 2.881915 0.219007
v -0.037403 2.744787 0.554867
v -0.033787 2.864743 0.409105
v 0.056358 2.695670 0.166365
v 0.053861 2.578849 0.461475
v -0.182012 2.631040 0.483044
v -0.181570 2.747969 0.184245
v -0.198660 2.691201 0.334895
v 0.070321 2.637334 0.313404
v -0.063391 2.729198 0.154354
v -0.062576 2.595178 0.492666
v 0.412450 1.719259 0.011783
v -0.603559 1.496576 0.151782
v 0.556645 1.866729 -0.243242
v 0.172714 1.110101 0.181602
v -0.197360 0.030071 0.075025
v -0.341621 0.037533 0.197601
v -0.367774 0.034163 -0.052663
v -0.232630 0.028934 -0.067498
v 0.394131 0.180258 -0.464314
v 0.323426 0.209675 -0.537429
v 0.404810 0.197664 -0.498282
v 0.374288 0.207046 -0.524276
v 0.334902 0.173076 -0.458695
v 0.093354 0.909266 -0.186083
v 0.164872 0.730100 -0.218893
v 0.235647 0.467247 -0.353961
v 0.279798 0.362179 -0.212171
v 0.241410 0.535153 -0.023840
v 0.222808 0.754326 0.147424
v 0.400027 0.388080 -0.232634
v 0.443588 0.582589 -0.051367
v 0.502380 0.858852 0.108010
v 0.347745 0.940707 -0.169121
v 0.345592 0.728203 -0.195747
v 0.343178 0.464856 -0.338484
v 0.412801 0.439428 -0.296070
v 0.463075 0.690010 -0.125825
v 0.519205 0.933127 -0.063760
v -0.177093 0.932994 0.361060
v -0.149532 0.629172 0.330433
v -0.143906 0.382529 0.315845
v -0.428898 0.370042 0.304525
v -0.440705 0.646960 0.276042
v -0.464398 0.902689 0.239827
v -0.461987 0.394968 0.036155
v -0.471247 0.668232 0.008957
v -0.477799 0.873490 -0.034837
v -0.081278 0.832977 -0.055769
v -0.127815 0.646900 -0.030997
v -0.170362 0.438818 0.003213
vn -0.0146 0.4940 -0.8693
vn 0.0125 -0.0196 -0.9997
vn 0.4618 -0.2034 -0.8633
vn -0.3187 -0.2097 0.9244
vn 0.9020 -0.0129 0.4315
vn 0.5826 0.7934 0.1766
vn 0.1692 0.8995 -0.4027
vn 0.5826 -0.2044 0.7867
vn -0.1259 0.9478 0.2929
vn -0.0800 0.4707 -0.8786
vn -0.1894 -0.4144 0.8901
vn -0.3759 -0.8957 -0.2377
vn -0.3181 -0.0193 0.9479
vn 0.2725 -0.8159 0.5100
vn 0.9263 -0.2604 0.2723
vn -0.0768 -0.6600 0.7473
vn 0.0888 0.9893 0.1158
vn -0.0431 -0.6933 0.7194
vn -0.7079 0.3308 0.6240
vn 0.9518 -0.0238 -0.3059
vn -0.8365 0.0147 -0.5478
vn 0.5635 0.7260 0.3942
vn 0.3658 0.0811 0.9272
vn -0.3160 -0.5325 0.7852
vn -0.1522 0.6499 0.7447
vn -0.8437 -0.2212 0.4891
vn -0.2201 -0.4913 -0.8427
vn 0.8876 0.4607 0.0021
vn -0.4098 -0.6076 0.6803
vn 0.7053 0.6229 -0.3385
vn 0.1429 0.2882 0.9469
vn 0.9721 0.1111 -0.2064
vn -0.0539 -0.4771 -0.8772
vn 0.0453 -0.8913 -0.4512
vn -0.2036 -0.1948 -0.9595
vn -0.8654 0.3685 0.3395
vn 0.4340 0.4428 0.7845
vn 0.9836 -0.0303 -0.1779
vn 0.3309 0.5992 0.7290
vn 0.1023 0.9916 -0.0790
vn -0.3432 0.8998 0.2694
vn 0.3569 0.9127 0.1990
vn 0.0594 0.9754 0.2124
vn -0.9669 0.1274 0.2211
vn 0.2863 -0.3455 0.8937
vn -0.2411 0.4765 -0.8455
vn -0.7264 -0.5930 -0.3474
vn -0.9046 -0.3721 0.2079
vn 0.1607 0.0850 -0.9833
vn -0.9664 0.2473 -0.0708
vn 0.0574 0.8440 0.5333
vn 0.4075 0.7540 0.5152
vn -0.3283 0.8982 0.2925
vn 0.9813 -0.1634 0.1018
vn 0.1324 0.3917 0.9105
vn -0.4538 -0.2285 -0.8613
vn -0.0940 -0.9179 -0.3855
vn -0.6193 -0.5171 -0.5908
vn 0.6912 0.3680 0.6219
vn -0.4628 -0.6666 -0.5843
vn -0.1294 0.9906 0.0456
vn 0.7297 0.4867 0.4802
vn 0.5672 0.2709 0.7777
vn -0.3624 0.1848 -0.9135
vn 0.0291 0.2103 0.9772
vn -0.6881 -0.5909 0.4212
vn -0.2951 0.5363 0.7908
vn -0.7294 0.6616 0.1741
vn -0.3645 -0.8677 -0.3381
vn 0.1406 0.4799 0.8660
vn 0.5190 0.6261 0.5819
vn 0.1651 0.3895 0.9061
vn -0.3749 0.5265 -0.7630
vn -0.8778 0.4258 0.2193
vn 0.9342 -0.2670 0.2366
vn 0.5095 0.7003 0.4999
vn 0.2913 0.3951 -0.8712
vn -0.2478 -0.2721 0.9298
vn 0.5075 0.8515 0.1318
vn 0.2988 0.9537 -0.0351
vn -0.1816 0.5597 0.8086
vn -0.5018 -0.0657 0.8625
vn 0.1833 0.7231 -0.6660
vn -0.1579 -0.5541 0.8173
vn 0.0969 0.1150 -0.9886
vn 0.9480 -0.3144 -0.0502
vn -0.9943 -0.0036 -0.1062
vn -0.1040 0.1844 -0.9773
vn 0.0469 -0.5762 0.8159
vn -0.9995 -0.0021 0.0319
vn 0.9614 -0.2499 -0.1148
vn 0.0408 -0.9949 -0.0923
vn 0.2311 -0.4313 0.8721
vn -0.9442 -0.3283 0.0273
vn -0.9557 -0.2777 0.0976
vn 0.9853 -0.0905 -0.1446
vn -0.1266 0.1960 -0.9724
vn -0.0369 -0.9992 0.0172
vn 0.0702 -0.9012 -0.4278
vn 0.2283 -0.7375 0.6356
vn 0.1608 0.5991 -0.7844
vn 0.9799 -0.1534 0.1276
vn 0.5992 0.5082 -0.6186
vn 0.4702 -0.2649 -0.8419
vn 0.5274 0.0968 -0.8441
vn 0.5678 0.3849 -0.7277
vn 0.9958 -0.0576 0.0713
vn 0.9774 -0.2112 -0.0117
vn 0.9792 -0.2029 -0.0045
vn 0.1409 -0.3282 -0.9341
vn 0.0796 0.1633 -0.9834
vn 0.1238 0.4758 -0.8708
vn 0.2317 0.0191 0.9726
vn 0.2823 -0.5483 0.7872
vn 0.2574 -0.6870 0.6795
vn -0.9331 -0.1900 0.3052
vn -0.9394 -0.2988 0.1683
vn -0.9520 -0.2960 0.0775
vn -0.1209 -0.5277 -0.8408
vn -0.0944 -0.1624 -0.9822
vn -0.1091 -0.1184 -0.9870
vn 0.8947 0.3103 0.3212
vn 0.9874 -0.0401 0.1533
vn 0.9965 -0.0816 -0.0160
vn -0.9787 -0.0558 -0.1974
vn -0.9954 -0.0512 0.0815
vn -0.9929 -0.0263 0.1157
vn -0.5438 0.3834 0.7465
vn -0.2901 -0.0170 0.9568
vn -0.1131 0.0226 0.9933
vn 0.5031 -0.0892 0.8596
vn 0.4391 0.3067 -0.8444
vn -0.1095 -0.5157 -0.8497
vn -0.1652 -0.8579 -0.4865
vn -0.7950 -0.1258 -0.5935
vt 0.461701 0.809397
vt 0.301930 0.729761
vt 0.094158 0.499911
vt 0.498737 0.648456
vt 0.250869 0.553264
vt 0.714874 0.752530
vt 0.627854 0.740386
vt 0.227533 0.339544
vt 0.300362 0.438253
vt 0.625828 0.633709
vt 0.338991 0.679376
vt 0.653754 0.621457
vt 0.189641 0.785401
vt 0.531284 0.815038
vt 0.232114 0.729761
vt 0.806952 0.326283
vt 0.527824 0.712310
vt 0.703640 0.331352
vt 0.725736 0.123548
vt 0.557184 0.740386
vt 0.714874 0.681901
vt 0.693091 0.138725
vt 0.558638 0.706064
vt 0.944491 0.391302
vt 0.108931 0.369345
vt 0.090202 0.443431
vt 0.952837 0.467016
vt 0.108059 0.346292
vt 0.960024 0.371234
vt 0.653754 0.712739
vt 0.761990 0.055860
vt 0.265996 0.788213
vt 0.829683 0.188590
vt 0.886815 0.394232
vt 0.909606 0.471204
vt 0.826550 0.267021
vt 0.659457 0.749480
vt 0.206417 0.267620
vt 0.238389 0.812575
vt 0.882743 0.373659
vt 0.837846 0.166681
vt 0.102618 0.289588
vt 0.957957 0.321520
vt 0.918648 0.216117
vt 0.803322 0.012950
vt 0.106348 0.638847
vt 0.232551 0.755661
vt 0.798789 0.485160
vt 0.965752 0.239402
vt 0.153968 0.222285
vt 0.894228 0.312474
vt 0.856067 0.102710
vt 0.881967 0.351902
vt 0.842627 0.144082
vt 0.107159 0.331692
vt 0.958812 0.358201
vt 0.199778 0.246429
vt 0.138792 0.619338
vt 0.232114 0.797406
vt 0.967580 0.012950
vt 0.753483 0.682459
vt 0.843831 0.469074
vt 0.256421 0.022764
vt 0.824689 0.472884
vt 0.987050 0.016155
vt 0.832147 0.505580
vt 0.295109 0.018166
vt 0.782932 0.707368
vt 0.843831 0.503254
vt 0.076417 0.467161
vt 0.958695 0.494573
vt 0.833773 0.298242
vt 0.909847 0.503107
vt 0.076958 0.454690
vt 0.951531 0.482650
vt 0.837149 0.281767
vt 0.912926 0.487172
vt 0.064432 0.532285
vt 0.298790 0.687460
vt 0.825577 0.362572
vt 0.264894 0.686125
vt 0.056614 0.518895
vt 0.959622 0.549977
vt 0.837123 0.350740
vt 0.929664 0.555276
vt 0.051257 0.577890
vt 0.291936 0.641182
vt 0.824256 0.407314
vt 0.275162 0.640522
vt 0.035793 0.577862
vt 0.964581 0.612577
vt 0.838997 0.411720
vt 0.948088 0.615681
vt 0.039898 0.592711
vt 0.301778 0.620707
vt 0.403076 0.772170
vt 0.830596 0.428615
vt 0.403076 0.737417
vt 0.267017 0.619338
vt 0.012950 0.593438
vt 0.987050 0.637067
vt 0.428919 0.781443
vt 0.856067 0.440612
vt 0.428919 0.728949
vt 0.935424 0.646785
vt 0.945356 0.412724
vt 0.357115 0.854737
vt 0.331665 0.779032
vt 0.948027 0.441601
vt 0.799629 0.752473
vt 0.327972 0.853161
vt 0.906904 0.416128
vt 0.370069 0.779032
vt 0.684668 0.778429
vt 0.909575 0.445005
vt 0.655249 0.778999
vt 0.799629 0.791035
vt 0.330193 0.729131
vt 0.557184 0.775635
vt 0.363063 0.804932
vt 0.331684 0.807874
vt 0.754247 0.751428
vt 0.586563 0.768755
vt 0.566112 0.815056
vt 0.689281 0.828405
vt 0.370405 0.729131
vt 0.754247 0.791805
vt 0.657717 0.824383
vt 0.595492 0.808176
vt 0.327830 0.637821
vt 0.590400 0.642651
vt 0.164818 0.789976
vt 0.357235 0.619338
vt 0.642851 0.190721
vt 0.562581 0.649581
vt 0.406824 0.626953
vt 0.080449 0.619338
vt 0.646201 0.239681
vt 0.727583 0.656002
vt 0.597847 0.731399
vt 0.712829 0.722239
vt 0.658284 0.323708
vt 0.527919 0.666449
vt 0.661748 0.291537
vt 0.680225 0.245582
vt 0.377645 0.696957
vt 0.285191 0.477898
vt 0.483372 0.812325
vt 0.280072 0.728266
vt 0.924330 0.393087
vt 0.921760 0.373660
vt 0.678504 0.727397
vt 0.268491 0.812575
vt 0.930826 0.465310
vt 0.923786 0.327561
vt 0.941993 0.227167
vt 0.764056 0.466512
vt 0.919524 0.351927
vt 0.977463 0.013354
vt 0.833186 0.466512
vt 0.317617 0.012950
vt 0.798789 0.722800
vt 0.839639 0.522681
vt 0.934403 0.500152
vt 0.932138 0.484309
vt 0.281656 0.689101
vt 0.944784 0.554368
vt 0.283549 0.640852
vt 0.956335 0.614129
vt 0.284323 0.620942
vt 0.399765 0.754789
vt 0.961112 0.640376
vt 0.422297 0.755187
vt 0.926130 0.414426
vt 0.350867 0.779032
vt 0.928801 0.443303
vt 0.799629 0.771754
vt 0.350773 0.728949
vt 0.557184 0.796361
vt 0.753483 0.771844
vt 0.595492 0.787450
vt 0.985581 0.067358
vt 0.238180 0.070710
vt 0.259592 0.052321
vt 0.138792 0.821791
vt 0.953366 0.057503
vt 0.765454 0.639660
vt 0.120235 0.821584
vt 0.772730 0.660154
vt 0.283154 0.037949
vt 0.784440 0.682652
vt 0.128680 0.843910
vt 0.970110 0.058056
vt 0.758353 0.637393
vt 0.180368 0.432154
vt 0.759258 0.257498
vt 0.884976 0.446549
vt 0.828099 0.241547
vt 0.971226 0.428512
vt 0.101516 0.405509
vt 0.908240 0.430567
vt 0.669958 0.778714
vt 0.946692 0.427163
vt 0.342544 0.853949
vt 0.673120 0.826722
vt 0.582140 0.817526
vt 0.570535 0.766286
vt 0.348248 0.806122
vt 0.576699 0.792002
vt 0.653753 0.802281
vt 0.776512 0.794925
vt 0.776512 0.748700
vt 0.327830 0.829868
vt 0.363063 0.830170
vt 0.327830 0.753980
vt 0.373865 0.753980
vt 0.689281 0.803194
vt 0.351093 0.753886
vt 0.776117 0.771930
vt 0.671321 0.802907
vt 0.345899 0.829874
vt 0.457498 0.727404
vt 0.165986 0.548054
vt 0.260364 0.376248
vt 0.625887 0.695531
vt 0.520555 0.743605
vt 0.734596 0.339638
vt 0.406824 0.703049
vt 0.012950 0.651015
vt 0.277407 0.507014
vt 0.206214 0.619338
vt 0.706517 0.466512
vt 0.399765 0.822801
vt 0.181517 0.620770
vt 0.619265 0.470337
vt 0.422433 0.807343
vt 0.582936 0.466512
vt 0.458892 0.202188
vt 0.422433 0.843958
vt 0.727583 0.468029
vt 0.460639 0.221880
vt 0.402692 0.843997
vt 0.717439 0.778459
vt 0.429089 0.593438
vt 0.518160 0.466685
vt 0.070962 0.817001
vt 0.726094 0.791097
vt 0.457498 0.298878
vt 0.715181 0.783741
vt 0.523936 0.466512
vt 0.458951 0.311476
vt 0.719061 0.788282
vt 0.458165 0.306435
vt 0.058766 0.817583
vt 0.726094 0.778429
vt 0.431598 0.585369
vt 0.599953 0.261833
vt 0.080449 0.668491
vt 0.542336 0.274386
vt 0.076079 0.728305
vt 0.500395 0.287212
vt 0.064936 0.773359
vt 0.389801 0.564275
vt 0.039540 0.774208
vt 0.356388 0.547019
vt 0.031995 0.737396
vt 0.319737 0.531779
vt 0.030523 0.696843
vt 0.505723 0.512116
vt 0.384015 0.580847
vt 0.506522 0.550736
vt 0.346302 0.574833
vt 0.507607 0.604105
vt 0.294291 0.566034
vt 0.610540 0.298468
vt 0.545535 0.300686
vt 0.502363 0.302883
vt 0.504402 0.313331
vt 0.517745 0.511765
vt 0.548610 0.318269
vt 0.527842 0.556627
vt 0.609940 0.323717
vt 0.531284 0.618364
vt 0.660591 0.582499
vt 0.204501 0.743892
vt 0.668589 0.550878
vt 0.206214 0.710848
vt 0.668004 0.517120
vt 0.204545 0.678125
vt 0.623877 0.525891
vt 0.164692 0.675333
vt 0.610236 0.563455
vt 0.167167 0.712219
vt 0.605277 0.597358
vt 0.166352 0.745757
vt 0.511839 0.183186
vt 0.584607 0.521652
vt 0.552303 0.182624
vt 0.569857 0.561129
vt 0.598009 0.178631
vt 0.565182 0.606784
vt 0.592158 0.236754
vt 0.721184 0.600612
vt 0.550092 0.232946
vt 0.722606 0.558204
vt 0.518921 0.225772
vt 0.713819 0.525134
s 0
usemtl Material
f 89/196/1 7/19/1 13/33/1 90/198/1
f 8/22/2 7/19/2 89/196/2 58/145/2 54/138/2 53/134/2
f 6/18/3 56/142/3 57/144/3
f 3/8/4 106/224/4 4/9/4 59/147/4 88/195/4
f 6/17/5 107/226/5 5/14/5 60/148/5 1/1/5 105/222/5 2/4/5 56/143/5
f 61/150/6 13/34/6 16/40/6 62/151/6
f 5/16/7 14/36/7 31/76/7 29/72/7
f 88/195/8 1/3/8 10/26/8 91/200/8
f 67/158/9 21/53/9 20/51/9 65/155/9
f 13/33/10 7/19/10 12/31/10 16/41/10
f 3/8/11 9/25/11 11/28/11 15/38/11
f 55/141/12 3/6/12 15/37/12 63/152/12
f 66/156/13 19/49/13 17/43/13 65/155/13
f 23/57/14 22/55/14 17/42/14 19/50/14
f 83/184/15 82/183/15 25/63/15 26/67/15
f 15/38/16 11/28/16 22/55/16 23/57/16
f 62/151/17 16/40/17 21/53/17 67/158/17
f 69/163/18 26/66/18 25/64/18 68/160/18
f 87/193/19 84/186/19 24/60/19 68/159/19
f 86/190/20 83/184/20 26/67/20 69/161/20
f 84/187/21 85/189/21 27/68/21 24/61/21
f 70/164/22 29/73/22 31/77/22 71/165/22
f 70/164/23 28/71/23 34/83/23 73/167/23
f 10/26/24 1/3/24 28/70/24 30/74/24
f 64/154/25 10/27/25 30/75/25 71/165/25
f 34/82/26 32/78/26 36/86/26 38/90/26
f 60/149/27 5/15/27 33/81/27 72/166/27
f 5/16/28 29/72/28 35/84/28 33/80/28
f 28/70/29 1/3/29 32/78/29 34/82/29
f 37/88/30 39/92/30 43/103/30 41/97/30
f 73/167/31 34/83/31 38/91/31 75/169/31
f 33/80/32 35/84/32 39/92/32 37/88/32
f 72/166/33 33/81/33 37/89/33 74/168/33
f 76/171/34 41/98/34 43/104/34 77/173/34
f 74/168/35 37/89/35 41/99/35 76/170/35
f 38/90/36 36/86/36 40/94/36 42/100/36
f 75/169/37 38/91/37 42/101/37 77/172/37
f 102/219/38 97/211/38 51/127/38 81/180/38
f 91/199/39 10/27/39 45/109/39 93/203/39
f 90/197/40 13/34/40 46/112/40 92/201/40
f 61/150/41 9/24/41 44/106/41 78/174/41
f 64/154/42 14/35/42 47/115/42 79/176/42
f 96/209/43 94/206/43 50/124/43 80/179/43
f 101/218/44 99/215/44 48/118/44 80/178/44
f 104/221/45 98/213/45 49/121/45 95/208/45
f 103/220/46 100/217/46 50/125/46 94/205/46
f 8/23/47 53/135/47 52/131/47
f 8/23/48 52/131/48 4/10/48 106/225/48 3/7/48 55/140/48 7/20/48
f 54/138/49 58/145/49 89/196/49 5/16/49 107/227/49 6/18/49 57/144/49
f 100/216/50 101/218/50 80/178/50 50/126/50
f 95/207/51 96/209/51 80/179/51 48/119/51
f 10/27/52 64/154/52 79/176/52 45/109/52
f 13/34/53 61/150/53 78/174/53 46/112/53
f 98/212/54 102/219/54 81/180/54 49/122/54
f 39/93/55 75/169/55 77/172/55 43/105/55
f 36/87/56 74/168/56 76/170/56 40/95/56
f 40/96/57 76/171/57 77/173/57 42/102/57
f 32/79/58 72/166/58 74/168/58 36/87/58
f 35/85/59 73/167/59 75/169/59 39/93/59
f 1/2/60 60/149/60 72/166/60 32/79/60
f 14/35/61 64/154/61 71/165/61 31/77/61
f 29/73/62 70/164/62 73/167/62 35/85/62
f 28/71/63 70/164/63 71/165/63 30/75/63
f 85/189/64 86/191/64 69/162/64 27/68/64
f 82/182/65 87/193/65 68/159/65 25/65/65
f 27/69/66 69/163/66 68/160/66 24/62/66
f 11/29/67 62/151/67 67/158/67 22/56/67
f 18/44/68 66/156/68 65/155/68 20/51/68
f 7/21/69 55/141/69 63/152/69 12/30/69
f 22/56/70 67/158/70 65/155/70 17/43/70
f 9/24/71 61/150/71 62/151/71 11/29/71
f 19/49/72 66/156/72 87/193/72 82/182/72
f 12/31/73 18/45/73 20/52/73 21/54/73 16/41/73
f 66/157/74 18/48/74 84/187/74 87/194/74
f 23/57/75 19/50/75 82/183/75 83/184/75
f 49/123/76 81/181/76 96/209/76 95/207/76
f 97/210/77 103/220/77 94/205/77 51/128/77
f 99/214/78 104/221/78 95/208/78 48/120/78
f 81/181/79 51/129/79 94/206/79 96/209/79
f 14/35/80 90/197/80 92/201/80 47/115/80
f 9/24/81 91/199/81 93/203/81 44/106/81
f 3/8/82 88/195/82 91/200/82 9/25/82
f 5/16/83 89/196/83 90/198/83 14/36/83
f 44/107/84 93/204/84 104/221/84 99/214/84
f 47/116/85 92/202/85 103/220/85 97/210/85
f 45/110/86 79/177/86 102/219/86 98/212/86
f 46/113/87 78/175/87 101/218/87 100/216/87
f 92/202/88 46/114/88 100/217/88 103/220/88
f 93/204/89 45/111/89 98/213/89 104/221/89
f 78/175/90 44/108/90 99/215/90 101/218/90
f 79/177/91 47/117/91 97/211/91 102/219/91
f 59/146/92 4/11/92 52/130/92 53/133/92 54/136/92 108/228/92
f 136/291/93 110/234/93 109/231/93 135/289/93
f 121/264/94 120/262/94 114/246/94 117/254/94
f 139/297/95 111/237/95 110/235/95 136/290/95
f 135/288/96 109/232/96 112/240/96 144/307/96
f 144/306/97 112/241/97 111/238/97 139/296/97
f 111/239/98 112/242/98 109/233/98 110/236/98
f 117/255/99 114/247/99 116/252/99 115/249/99 113/243/99
f 124/270/100 121/263/100 117/256/100 113/244/100
f 120/261/101 129/277/101 116/253/101 114/248/101
f 130/279/102 124/269/102 113/245/102 115/250/102
f 129/277/103 130/278/103 115/251/103 116/253/103
f 57/144/104 56/142/104 132/282/104 127/275/104
f 127/275/105 132/282/105 131/280/105 128/276/105
f 128/276/106 131/280/106 130/278/106 129/277/106
f 56/143/107 2/4/107 126/273/107 132/283/107
f 132/283/108 126/273/108 125/271/108 131/281/108
f 131/281/109 125/271/109 124/269/109 130/279/109
f 54/138/110 57/144/110 127/275/110 118/257/110
f 118/257/111 127/275/111 128/276/111 119/259/111
f 119/259/112 128/276/112 129/277/112 120/261/112
f 2/5/113 108/230/113 123/267/113 126/274/113
f 126/274/114 123/267/114 122/265/114 125/272/114
f 125/272/115 122/265/115 121/263/115 124/270/115
f 108/229/116 54/137/116 118/258/116 123/268/116
f 123/268/117 118/258/117 119/260/117 122/266/117
f 122/266/118 119/260/118 120/262/118 121/264/118
f 54/138/119 142/302/119 141/300/119 53/134/119
f 142/302/120 143/304/120 140/298/120 141/300/120
f 143/304/121 144/306/121 139/296/121 140/298/121
f 4/12/122 133/284/122 142/303/122 54/139/122
f 133/284/123 134/286/123 143/305/123 142/303/123
f 134/286/124 135/288/124 144/307/124 143/305/124
f 53/135/125 141/301/125 138/294/125 52/131/125
f 141/301/126 140/299/126 137/292/126 138/294/126
f 140/299/127 139/297/127 136/290/127 137/292/127
f 52/132/128 138/295/128 133/285/128 4/13/128
f 138/295/129 137/293/129 134/287/129 133/285/129
f 137/293/130 136/291/130 135/289/130 134/287/130
f 105/223/131 1/3/131 88/195/131 59/147/131 108/230/131 2/5/131
f 86/192/132 85/188/132 83/185/132
f 83/185/133 85/188/133 18/46/133 23/58/133
f 63/153/134 15/39/134 23/59/134 18/47/134 12/32/134
f 84/187/135 18/48/135 85/189/135
l 52 106
