# Blender 3.3.1
# www.blender.org
mtllib monstruo_3_grande_caminar601.mtl
o monstruo_grande
v 0.306080 2.048256 0.162696
v 0.525157 1.204868 0.085190
v -0.733188 1.734840 0.152610
v -0.295833 1.139640 0.223511
v 0.485724 2.334361 -0.169567
v 0.514620 1.643269 -0.264040
v -0.859627 1.924971 -0.285316
v -0.748993 1.637230 -0.335415
v -0.381746 2.407665 0.397828
v 0.181005 2.322511 0.374343
v -0.516878 2.377925 0.498259
v -1.227871 1.971069 -0.142364
v -0.372149 2.552146 0.031129
v 0.173282 2.457305 0.111755
v -1.078797 1.852621 0.032674
v -0.535824 2.619243 0.044645
v -0.872914 2.290758 0.510851
v -1.527321 1.911387 0.115144
v -1.261388 1.978886 0.326729
v -1.051520 2.576208 0.211061
v -0.720140 2.656115 0.103380
v -0.593918 2.331864 0.478008
v -1.211868 1.871712 0.025408
v -1.823107 0.702509 0.881695
v -1.698495 0.689302 0.933346
v -1.670857 0.497786 0.748410
v -1.746917 0.505848 0.716884
v 0.328821 2.234415 0.352133
v 0.439654 2.429244 0.101102
v 0.293470 2.353189 0.367671
v 0.305322 2.482880 0.140528
v 0.542936 1.912588 0.142798
v 0.675692 2.007742 -0.019858
v 0.572726 1.987793 0.199462
v 0.663579 2.104765 0.054985
v 0.695173 1.683679 0.071162
v 0.784805 1.711245 0.007577
v 0.760374 1.619703 0.123760
v 0.849740 1.660341 0.062178
v 0.676651 1.528852 0.062640
v 0.865309 1.608993 -0.061940
v 0.741369 1.380111 0.174587
v 1.019145 1.501538 -0.021307
v -0.220702 2.465251 0.422138
v -0.009483 2.442795 0.410838
v -0.218243 2.554004 0.169985
v -0.015433 2.533166 0.163614
v -0.165406 2.779070 0.565371
v 0.040141 2.713314 0.528788
v -0.175964 2.889139 0.310107
v 0.028178 2.823927 0.272422
v -0.500549 1.130536 0.010092
v -0.385217 1.139589 -0.203281
v -0.048400 1.258998 -0.336344
v -0.785979 1.762409 -0.074910
v 0.548755 1.231076 -0.151465
v 0.330444 1.230757 -0.278679
v -0.011513 1.512100 -0.342148
v -0.015587 1.149758 0.199217
v 0.367578 2.133988 0.049293
v -0.371926 2.459210 0.269265
v -0.540542 2.614169 0.319748
v -1.007618 1.912276 -0.091330
v 0.152940 2.446942 0.271311
v -0.902452 2.512070 0.447159
v -1.440434 2.079112 0.350626
v -0.692728 2.593482 0.310245
v -1.773196 0.696977 0.937699
v -1.684200 0.379112 0.641714
v 0.421483 2.339097 0.257199
v 0.299487 2.464006 0.275288
v 0.566494 1.950142 0.016871
v 0.659180 2.054042 0.159049
v 0.739739 1.702026 0.039899
v 0.804745 1.639099 0.092469
v 0.754111 1.579621 -0.016199
v 0.851276 1.461971 0.048653
v -0.220241 2.509045 0.295099
v -0.014157 2.489233 0.286486
v -0.201833 2.835526 0.439855
v 0.065767 2.767556 0.399172
v -1.580182 1.011494 0.853474
v -1.632741 0.830918 0.800469
v -1.794729 1.004769 0.768278
v -1.750031 0.843348 0.751854
v -1.684931 0.664743 0.716510
v -1.711257 0.992870 0.863923
v -0.092558 1.798681 0.476168
v 0.050706 2.144163 -0.249077
v -0.013496 2.526510 -0.017023
v -0.060318 2.307006 0.551334
v -0.119265 2.542334 0.165076
v -0.110654 2.451307 0.415743
v -0.075837 2.872628 0.252389
v -0.061123 2.729673 0.585257
v -0.064205 2.852174 0.441616
v 0.019480 2.688813 0.192751
v 0.029767 2.566230 0.485699
v -0.206225 2.615104 0.516678
v -0.218985 2.737427 0.220683
v -0.228828 2.677764 0.370541
v 0.040075 2.627623 0.338215
v -0.101223 2.721005 0.186026
v -0.086230 2.580759 0.521341
v 0.366791 1.750163 -0.032785
v -0.602693 1.464982 0.188825
v 0.498504 1.869629 -0.269911
v 0.176217 1.158612 0.197788
v -0.189074 0.010539 -0.017677
v -0.332744 0.016535 0.105542
v -0.360114 0.015516 -0.144270
v -0.225034 0.010575 -0.159778
v 0.380350 0.135563 -0.247327
v 0.309311 0.151037 -0.324352
v 0.390917 0.145135 -0.284296
v 0.360240 0.149705 -0.311377
v 0.321060 0.131392 -0.239772
v 0.108246 0.890097 -0.109914
v 0.176129 0.728638 -0.103145
v 0.233854 0.446023 -0.194424
v 0.271344 0.364000 -0.036418
v 0.238863 0.567238 0.120111
v 0.228520 0.812297 0.252600
v 0.392895 0.380806 -0.058500
v 0.444040 0.601140 0.089877
v 0.510182 0.904155 0.198146
v 0.361884 0.920128 -0.091403
v 0.356063 0.723914 -0.076776
v 0.340994 0.441487 -0.176630
v 0.408830 0.420352 -0.129254
v 0.470720 0.693906 0.000634
v 0.530637 0.938488 0.015194
v -0.175383 0.880642 0.333266
v -0.143072 0.584519 0.272578
v -0.134856 0.341791 0.237123
v -0.419809 0.327999 0.226980
v -0.434665 0.604325 0.221852
v -0.461397 0.861252 0.206708
v -0.455718 0.373223 -0.037587
v -0.467412 0.648211 -0.043000
v -0.472376 0.862484 -0.070032
v -0.075779 0.827034 -0.091588
v -0.124158 0.633632 -0.086920
v -0.164841 0.422320 -0.069273
vn -0.0848 0.5029 -0.8602
vn -0.0396 0.0187 -0.9990
vn 0.4944 -0.1907 -0.8480
vn -0.2602 -0.2442 0.9342
vn 0.9181 0.0725 0.3897
vn 0.5695 0.8064 0.1590
vn 0.0809 0.9165 -0.3919
vn 0.6461 -0.1939 0.7382
vn -0.1340 0.9373 0.3217
vn -0.1516 0.4811 -0.8635
vn -0.1166 -0.4395 0.8906
vn -0.3658 -0.8986 -0.2421
vn -0.2554 -0.0462 0.9657
vn 0.3231 -0.8162 0.4790
vn 0.9469 -0.2159 0.2385
vn -0.0099 -0.6753 0.7375
vn 0.0674 0.9885 0.1357
vn 0.0158 -0.6845 0.7288
vn -0.6965 0.3080 0.6480
vn 0.9392 0.0136 -0.3431
vn -0.8572 -0.0292 -0.5141
vn 0.5885 0.7399 0.3259
vn 0.5406 0.0954 0.8359
vn -0.2074 -0.5516 0.8079
vn -0.1080 0.6292 0.7697
vn -0.6258 -0.5033 0.5958
vn -0.3715 -0.4674 -0.8022
vn 0.8454 0.5146 -0.1434
vn -0.2453 -0.6380 0.7299
vn 0.6339 0.7395 -0.2264
vn 0.4622 0.0357 0.8860
vn 0.8356 0.3119 -0.4521
vn -0.3062 -0.2440 -0.9202
vn -0.1860 -0.5793 -0.7937
vn -0.4824 0.2634 -0.8354
vn -0.6795 0.1419 0.7199
vn 0.6937 0.0579 0.7180
vn 0.9767 -0.0126 -0.2142
vn 0.3658 0.5996 0.7118
vn 0.0735 0.9951 -0.0658
vn -0.3531 0.8812 0.3145
vn 0.3425 0.9181 0.1996
vn 0.0531 0.9722 0.2281
vn -0.9605 0.1085 0.2563
vn 0.3215 -0.3558 0.8775
vn -0.2773 0.4877 -0.8278
vn -0.6874 -0.6080 -0.3973
vn -0.8784 -0.4266 0.2156
vn 0.1012 0.0810 -0.9916
vn -0.9716 0.2347 -0.0290
vn 0.0642 0.8353 0.5460
vn 0.4164 0.7546 0.5071
vn -0.3293 0.8833 0.3337
vn 0.9868 -0.1480 0.0662
vn 0.4388 -0.0577 0.8967
vn -0.7114 0.1696 -0.6820
vn -0.3042 -0.6482 -0.6981
vn -0.7443 -0.4584 -0.4856
vn 0.8369 0.2910 0.4636
vn -0.5422 -0.6528 -0.5290
vn -0.1603 0.9835 0.0834
vn 0.7856 0.5130 0.3459
vn 0.6395 0.3162 0.7007
vn -0.4057 0.1561 -0.9006
vn 0.0580 0.2249 0.9727
vn -0.6443 -0.6146 0.4553
vn -0.2549 0.5091 0.8221
vn -0.7350 0.6389 0.2274
vn -0.3608 -0.8715 -0.3323
vn 0.1845 0.4642 0.8663
vn 0.5383 0.6269 0.5633
vn 0.2032 0.3953 0.8958
vn -0.4377 0.5263 -0.7290
vn -0.8795 0.3939 0.2671
vn 0.9551 -0.2339 0.1818
vn 0.5167 0.6988 0.4946
vn 0.2534 0.4149 -0.8739
vn -0.2109 -0.2914 0.9331
vn 0.5002 0.8560 0.1302
vn 0.2735 0.9613 -0.0325
vn -0.1413 0.5362 0.8322
vn -0.4451 -0.0969 0.8902
vn 0.0802 0.7392 -0.6687
vn -0.1132 -0.5683 0.8150
vn 0.0490 0.1404 -0.9889
vn 0.9512 -0.2930 -0.0965
vn -0.9989 -0.0097 -0.0467
vn -0.1510 0.1988 -0.9683
vn 0.0865 -0.5930 0.8005
vn -0.9971 -0.0204 0.0729
vn 0.9548 -0.2420 -0.1726
vn 0.1280 -0.9831 -0.1310
vn 0.2316 -0.4826 0.8447
vn -0.9577 -0.2768 0.0784
vn -0.9522 -0.2913 0.0921
vn 0.9843 -0.0778 -0.1587
vn -0.1315 0.2404 -0.9617
vn -0.0351 -0.9993 0.0082
vn 0.0401 -0.9725 -0.2296
vn 0.1965 -0.6129 0.7654
vn 0.1879 0.4289 -0.8836
vn 0.9725 -0.1652 0.1639
vn 0.6207 0.3580 -0.6976
vn 0.4807 -0.4358 -0.7609
vn 0.5404 -0.0807 -0.8375
vn 0.5927 0.2361 -0.7700
vn 0.9946 -0.0067 0.1035
vn 0.9700 -0.2362 0.0577
vn 0.9669 -0.2499 0.0508
vn 0.1052 -0.4957 -0.8621
vn 0.1053 -0.0412 -0.9936
vn 0.1540 0.3270 -0.9324
vn 0.1946 0.2567 0.9467
vn 0.2582 -0.4105 0.8746
vn 0.2157 -0.5767 0.7880
vn -0.9330 -0.1426 0.3305
vn -0.9496 -0.2437 0.1972
vn -0.9667 -0.2332 0.1053
vn -0.1348 -0.4491 -0.8833
vn -0.0925 -0.0674 -0.9934
vn -0.1161 -0.0401 -0.9924
vn 0.8956 0.2926 0.3352
vn 0.9875 -0.0495 0.1495
vn 0.9971 -0.0701 -0.0302
vn -0.9771 -0.0403 -0.2089
vn -0.9953 -0.0602 0.0753
vn -0.9916 -0.0454 0.1209
vn -0.5571 0.2842 0.7803
vn -0.2917 -0.1094 0.9502
vn -0.1054 -0.0627 0.9924
vn 0.5708 -0.0489 0.8196
vn 0.3917 0.3139 -0.8649
vn -0.1427 -0.5202 -0.8421
vn -0.1776 -0.8561 -0.4853
vn -0.8094 -0.1669 -0.5630
vt 0.882279 0.260085
vt 0.436089 0.649131
vt 0.117664 0.305524
vt 0.860974 0.338762
vt 0.079561 0.383885
vt 0.278417 0.728674
vt 0.111517 0.716819
vt 0.301243 0.337859
vt 0.232943 0.387386
vt 0.111517 0.662267
vt 0.671871 0.687525
vt 0.175114 0.511099
vt 0.930991 0.712692
vt 0.796001 0.259488
vt 0.522181 0.649131
vt 0.719621 0.316178
vt 0.801110 0.310020
vt 0.698705 0.366293
vt 0.510656 0.337024
vt 0.023033 0.717149
vt 0.367094 0.730187
vt 0.507246 0.358198
vt 0.018976 0.695717
vt 0.103380 0.570561
vt 0.268725 0.266033
vt 0.143950 0.273348
vt 0.098384 0.631539
vt 0.301351 0.259488
vt 0.128079 0.559933
vt 0.480438 0.333338
vt 0.348619 0.714075
vt 0.604958 0.268707
vt 0.031105 0.562973
vt 0.043818 0.625810
vt 0.721993 0.282954
vt 0.329365 0.336360
vt 0.302724 0.713315
vt 0.030374 0.549675
vt 0.582817 0.260846
vt 0.875347 0.642471
vt 0.380514 0.272320
vt 0.124895 0.517524
vt 0.813390 0.578569
vt 0.436089 0.332372
vt 0.956124 0.588845
vt 0.367094 0.692599
vt 0.367094 0.522797
vt 0.871643 0.594841
vt 0.398138 0.324445
vt 0.043891 0.509019
vt 0.796001 0.641153
vt 0.491075 0.268473
vt 0.032114 0.534706
vt 0.552485 0.259488
vt 0.331566 0.259909
vt 0.129819 0.544964
vt 0.339759 0.337186
vt 0.913298 0.588845
vt 0.317584 0.707220
vt 0.845734 0.463378
vt 0.311567 0.646434
vt 0.944558 0.353645
vt 0.398138 0.462439
vt 0.920230 0.354337
vt 0.870057 0.463781
vt 0.929709 0.374247
vt 0.357807 0.478584
vt 0.347994 0.663056
vt 0.944558 0.373825
vt 0.097076 0.285727
vt 0.229765 0.651022
vt 0.758050 0.297859
vt 0.168317 0.651042
vt 0.119329 0.272208
vt 0.094178 0.643292
vt 0.222768 0.636959
vt 0.746872 0.283208
vt 0.174541 0.636975
vt 0.045175 0.638147
vt 0.080672 0.327471
vt 0.442544 0.673801
vt 0.734592 0.339187
vt 0.484453 0.673801
vt 0.070725 0.319456
vt 0.218298 0.685110
vt 0.751374 0.331694
vt 0.180611 0.684911
vt 0.062412 0.356092
vt 0.455575 0.702696
vt 0.724658 0.367821
vt 0.476314 0.702696
vt 0.043357 0.357400
vt 0.210236 0.723455
vt 0.742364 0.370210
vt 0.189444 0.723462
vt 0.050281 0.367705
vt 0.444942 0.715336
vt 0.810526 0.722486
vt 0.728448 0.380153
vt 0.853695 0.722486
vt 0.487920 0.715336
vt 0.018975 0.371756
vt 0.232852 0.738567
vt 0.796001 0.739289
vt 0.758050 0.386241
vt 0.861207 0.739289
vt 0.167770 0.738589
vt 0.100634 0.583041
vt 0.712300 0.698974
vt 0.802197 0.701507
vt 0.098640 0.600731
vt 0.972705 0.287497
vt 0.747907 0.696578
vt 0.052045 0.577939
vt 0.849895 0.701507
vt 0.710445 0.675017
vt 0.050052 0.595630
vt 0.746553 0.677603
vt 0.924885 0.287497
vt 0.797725 0.671259
vt 0.981025 0.313792
vt 0.715147 0.730011
vt 0.752543 0.724602
vt 0.973919 0.259495
vt 0.967002 0.332143
vt 0.934252 0.306472
vt 0.715328 0.644023
vt 0.847669 0.671259
vt 0.923848 0.259495
vt 0.753088 0.649631
vt 0.920230 0.324823
vt 0.068284 0.665533
vt 0.630362 0.705721
vt 0.712055 0.621316
vt 0.966165 0.712391
vt 0.519769 0.388732
vt 0.031375 0.663704
vt 0.592215 0.695479
vt 0.581836 0.620019
vt 0.750017 0.621843
vt 0.569690 0.667298
vt 0.581066 0.387596
vt 0.531739 0.516092
vt 0.642835 0.625048
vt 0.273616 0.509019
vt 0.070982 0.710642
vt 0.316851 0.732164
vt 0.684917 0.393810
vt 0.816625 0.338063
vt 0.644803 0.392946
vt 0.602800 0.367236
vt 0.671871 0.661666
vt 0.181146 0.386242
vt 0.855113 0.259897
vt 0.463196 0.649131
vt 0.077903 0.567886
vt 0.078993 0.554271
vt 0.322237 0.720993
vt 0.070972 0.628379
vt 0.834014 0.651825
vt 0.084160 0.512738
vt 0.838315 0.596273
vt 0.320679 0.509019
vt 0.080733 0.539302
vt 0.857365 0.464048
vt 0.931678 0.351118
vt 0.335174 0.488977
vt 0.367094 0.673623
vt 0.939667 0.384854
vt 0.199177 0.651021
vt 0.069465 0.641494
vt 0.198664 0.632807
vt 0.464209 0.672968
vt 0.199604 0.684998
vt 0.465945 0.702696
vt 0.199840 0.723459
vt 0.466714 0.715004
vt 0.832520 0.720483
vt 0.200177 0.738589
vt 0.829423 0.735282
vt 0.076340 0.580490
vt 0.826046 0.701507
vt 0.074346 0.598181
vt 0.948795 0.287497
vt 0.823088 0.670800
vt 0.959731 0.307426
vt 0.948976 0.259488
vt 0.941524 0.331189
vt 0.875347 0.491894
vt 0.391834 0.432095
vt 0.377694 0.448634
vt 0.915590 0.478791
vt 0.834644 0.488373
vt 0.326937 0.619279
vt 0.938593 0.478810
vt 0.335216 0.632947
vt 0.358601 0.463790
vt 0.348787 0.648138
vt 0.927106 0.463378
vt 0.854274 0.489560
vt 0.315804 0.619182
vt 0.212520 0.321385
vt 0.644070 0.318501
vt 0.018976 0.592450
vt 0.663817 0.276029
vt 0.129819 0.597828
vt 0.224108 0.269832
vt 0.051049 0.586785
vt 0.728499 0.676310
vt 0.099637 0.591886
vt 0.730103 0.697776
vt 0.734390 0.646904
vt 0.920230 0.314550
vt 0.981025 0.324065
vt 0.732426 0.727384
vt 0.950683 0.319044
vt 0.753088 0.663662
vt 0.920230 0.273492
vt 0.977552 0.273492
vt 0.752543 0.710647
vt 0.709822 0.714522
vt 0.796001 0.686127
vt 0.853178 0.686127
vt 0.709822 0.659561
vt 0.824792 0.685890
vt 0.948939 0.273488
vt 0.731549 0.661651
vt 0.730449 0.712624
vt 0.878850 0.297575
vt 0.096711 0.342677
vt 0.285581 0.357771
vt 0.108549 0.696221
vt 0.804979 0.293594
vt 0.708839 0.350023
vt 0.668288 0.644023
vt 0.436089 0.526409
vt 0.145034 0.385321
vt 0.919159 0.607821
vt 0.247387 0.613831
vt 0.970304 0.416607
vt 0.947808 0.608020
vt 0.704660 0.516092
vt 0.970304 0.403829
vt 0.750017 0.516884
vt 0.618892 0.516092
vt 0.920230 0.404231
vt 0.273616 0.612878
vt 0.642836 0.516847
vt 0.938584 0.415207
vt 0.924281 0.443436
vt 0.075400 0.489812
vt 0.855524 0.444402
vt 0.531739 0.629156
vt 0.934913 0.435583
vt 0.576828 0.496673
vt 0.931440 0.443424
vt 0.848383 0.444289
vt 0.592622 0.497116
vt 0.934913 0.440184
vt 0.586164 0.496977
vt 0.517161 0.630156
vt 0.920230 0.438606
vt 0.085942 0.490043
vt 0.585376 0.420489
vt 0.510472 0.551446
vt 0.582586 0.444044
vt 0.504260 0.576063
vt 0.581388 0.469636
vt 0.508131 0.602400
vt 0.103684 0.463024
vt 0.477645 0.604263
vt 0.118194 0.440373
vt 0.454885 0.581958
vt 0.129418 0.415411
vt 0.438452 0.557360
vt 0.876897 0.417052
vt 0.081901 0.462161
vt 0.882279 0.393921
vt 0.081653 0.438865
vt 0.880271 0.363315
vt 0.079604 0.408162
vt 0.633117 0.418943
vt 0.615530 0.444447
vt 0.600997 0.469910
vt 0.614559 0.469949
vt 0.862035 0.416811
vt 0.638313 0.444473
vt 0.857648 0.390640
vt 0.666106 0.417503
vt 0.844696 0.362700
vt 0.167770 0.536691
vt 0.914144 0.688660
vt 0.182151 0.561697
vt 0.913298 0.663084
vt 0.189855 0.582503
vt 0.915415 0.641729
vt 0.680787 0.549268
vt 0.966165 0.641681
vt 0.684678 0.573659
vt 0.963812 0.665813
vt 0.684995 0.596421
vt 0.964308 0.688427
vt 0.584794 0.548886
vt 0.729850 0.550060
vt 0.578610 0.572959
vt 0.734888 0.574452
vt 0.569690 0.595426
vt 0.736445 0.597214
vt 0.642060 0.590920
vt 0.247172 0.543053
vt 0.641052 0.570535
vt 0.248998 0.562413
vt 0.635978 0.552556
vt 0.245738 0.579271
s 0
usemtl Material
f 89/203/1 7/19/1 13/32/1 90/205/1
f 8/22/2 7/19/2 89/203/2 58/151/2 54/142/2 53/136/2
f 6/18/3 56/148/3 57/150/3
f 3/8/4 106/231/4 4/9/4 59/153/4 88/202/4
f 6/17/5 107/233/5 5/14/5 60/154/5 1/1/5 105/229/5 2/4/5 56/149/5
f 61/156/6 13/33/6 16/38/6 62/157/6
f 5/16/7 14/35/7 31/77/7 29/72/7
f 88/202/8 1/3/8 10/26/8 91/207/8
f 67/164/9 21/53/9 20/50/9 65/161/9
f 13/32/10 7/19/10 12/30/10 16/39/10
f 3/8/11 9/25/11 11/28/11 15/36/11
f 55/147/12 3/6/12 15/37/12 63/158/12
f 66/162/13 19/48/13 17/40/13 65/160/13
f 23/57/14 22/55/14 17/41/14 19/49/14
f 83/191/15 82/190/15 25/63/15 26/67/15
f 15/36/16 11/28/16 22/55/16 23/57/16
f 62/157/17 16/38/17 21/53/17 67/164/17
f 69/169/18 26/66/18 25/64/18 68/166/18
f 87/200/19 84/193/19 24/60/19 68/165/19
f 86/197/20 83/191/20 26/67/20 69/167/20
f 84/194/21 85/196/21 27/68/21 24/61/21
f 70/170/22 29/73/22 31/78/22 71/172/22
f 70/170/23 28/71/23 34/85/23 73/174/23
f 10/26/24 1/3/24 28/70/24 30/74/24
f 64/159/25 10/27/25 30/75/25 71/171/25
f 34/84/26 32/80/26 36/88/26 38/92/26
f 60/155/27 5/15/27 33/83/27 72/173/27
f 5/16/28 29/72/28 35/86/28 33/82/28
f 28/70/29 1/3/29 32/80/29 34/84/29
f 37/90/30 39/94/30 43/105/30 41/99/30
f 73/174/31 34/85/31 38/93/31 75/176/31
f 33/82/32 35/86/32 39/94/32 37/90/32
f 72/173/33 33/83/33 37/91/33 74/175/33
f 76/178/34 41/100/34 43/106/34 77/180/34
f 74/175/35 37/91/35 41/101/35 76/177/35
f 38/92/36 36/88/36 40/96/36 42/102/36
f 75/176/37 38/93/37 42/103/37 77/179/37
f 102/226/38 97/218/38 51/129/38 81/187/38
f 91/206/39 10/27/39 45/111/39 93/210/39
f 90/204/40 13/33/40 46/114/40 92/208/40
f 61/156/41 9/24/41 44/108/41 78/181/41
f 64/159/42 14/34/42 47/117/42 79/183/42
f 96/216/43 94/213/43 50/126/43 80/186/43
f 101/225/44 99/222/44 48/120/44 80/185/44
f 104/228/45 98/220/45 49/123/45 95/215/45
f 103/227/46 100/224/46 50/127/46 94/212/46
f 8/23/47 53/137/47 52/132/47
f 8/23/48 52/132/48 4/10/48 106/232/48 3/7/48 55/146/48 7/20/48
f 54/142/49 58/151/49 89/203/49 5/16/49 107/234/49 6/18/49 57/150/49
f 100/223/50 101/225/50 80/185/50 50/128/50
f 95/214/51 96/216/51 80/186/51 48/121/51
f 10/27/52 64/159/52 79/183/52 45/111/52
f 13/33/53 61/156/53 78/181/53 46/114/53
f 98/219/54 102/226/54 81/187/54 49/124/54
f 39/95/55 75/176/55 77/179/55 43/107/55
f 36/89/56 74/175/56 76/177/56 40/97/56
f 40/98/57 76/178/57 77/180/57 42/104/57
f 32/81/58 72/173/58 74/175/58 36/89/58
f 35/87/59 73/174/59 75/176/59 39/95/59
f 1/2/60 60/155/60 72/173/60 32/81/60
f 14/34/61 64/159/61 71/171/61 31/79/61
f 29/73/62 70/170/62 73/174/62 35/87/62
f 28/71/63 70/170/63 71/172/63 30/76/63
f 85/196/64 86/198/64 69/168/64 27/68/64
f 82/189/65 87/200/65 68/165/65 25/65/65
f 27/69/66 69/169/66 68/166/66 24/62/66
f 11/29/67 62/157/67 67/164/67 22/56/67
f 18/43/68 66/162/68 65/160/68 20/51/68
f 7/21/69 55/147/69 63/158/69 12/31/69
f 22/56/70 67/164/70 65/161/70 17/42/70
f 9/24/71 61/156/71 62/157/71 11/29/71
f 19/48/72 66/162/72 87/200/72 82/189/72
f 12/30/73 18/44/73 20/52/73 21/54/73 16/39/73
f 66/163/74 18/47/74 84/194/74 87/201/74
f 23/57/75 19/49/75 82/190/75 83/191/75
f 49/125/76 81/188/76 96/216/76 95/214/76
f 97/217/77 103/227/77 94/212/77 51/130/77
f 99/221/78 104/228/78 95/215/78 48/122/78
f 81/188/79 51/131/79 94/213/79 96/216/79
f 14/34/80 90/204/80 92/208/80 47/117/80
f 9/24/81 91/206/81 93/210/81 44/108/81
f 3/8/82 88/202/82 91/207/82 9/25/82
f 5/16/83 89/203/83 90/205/83 14/35/83
f 44/109/84 93/211/84 104/228/84 99/221/84
f 47/118/85 92/209/85 103/227/85 97/217/85
f 45/112/86 79/184/86 102/226/86 98/219/86
f 46/115/87 78/182/87 101/225/87 100/223/87
f 92/209/88 46/116/88 100/224/88 103/227/88
f 93/211/89 45/113/89 98/220/89 104/228/89
f 78/182/90 44/110/90 99/222/90 101/225/90
f 79/184/91 47/119/91 97/218/91 102/226/91
f 59/152/92 4/11/92 52/133/92 53/138/92 54/141/92 108/235/92
f 136/298/93 110/241/93 109/238/93 135/296/93
f 121/271/94 120/269/94 114/253/94 117/261/94
f 139/304/95 111/244/95 110/242/95 136/297/95
f 135/295/96 109/239/96 112/247/96 144/314/96
f 144/313/97 112/248/97 111/245/97 139/303/97
f 111/246/98 112/249/98 109/240/98 110/243/98
f 117/262/99 114/254/99 116/259/99 115/256/99 113/250/99
f 124/277/100 121/270/100 117/263/100 113/251/100
f 120/268/101 129/284/101 116/260/101 114/255/101
f 130/286/102 124/276/102 113/252/102 115/257/102
f 129/284/103 130/285/103 115/258/103 116/260/103
f 57/150/104 56/148/104 132/289/104 127/282/104
f 127/282/105 132/289/105 131/287/105 128/283/105
f 128/283/106 131/287/106 130/285/106 129/284/106
f 56/149/107 2/4/107 126/280/107 132/290/107
f 132/290/108 126/280/108 125/278/108 131/288/108
f 131/288/109 125/278/109 124/276/109 130/286/109
f 54/142/110 57/150/110 127/282/110 118/264/110
f 118/264/111 127/282/111 128/283/111 119/266/111
f 119/266/112 128/283/112 129/284/112 120/268/112
f 2/5/113 108/237/113 123/274/113 126/281/113
f 126/281/114 123/274/114 122/272/114 125/279/114
f 125/279/115 122/272/115 121/270/115 124/277/115
f 108/236/116 54/143/116 118/265/116 123/275/116
f 123/275/117 118/265/117 119/267/117 122/273/117
f 122/273/118 119/267/118 120/269/118 121/271/118
f 54/144/119 142/309/119 141/307/119 53/139/119
f 142/309/120 143/311/120 140/305/120 141/307/120
f 143/311/121 144/313/121 139/303/121 140/305/121
f 4/12/122 133/291/122 142/310/122 54/145/122
f 133/291/123 134/293/123 143/312/123 142/310/123
f 134/293/124 135/295/124 144/314/124 143/312/124
f 53/140/125 141/308/125 138/301/125 52/134/125
f 141/308/126 140/306/126 137/299/126 138/301/126
f 140/306/127 139/304/127 136/297/127 137/299/127
f 52/135/128 138/302/128 133/292/128 4/13/128
f 138/302/129 137/300/129 134/294/129 133/292/129
f 137/300/130 136/298/130 135/296/130 134/294/130
f 105/230/131 1/3/131 88/202/131 59/153/131 108/237/131 2/5/131
f 86/199/132 85/195/132 83/192/132
f 83/192/133 85/195/133 18/45/133 23/58/133
f 63/158/134 15/37/134 23/59/134 18/46/134 12/31/134
f 84/194/135 18/47/135 85/196/135
l 52 106
