# Blender 3.3.1
# www.blender.org
mtllib monstruo_3_grande_caminar506.mtl
o monstruo_grande
v 0.388871 2.019590 0.185789
v 0.520379 1.177119 0.100181
v -0.719243 1.789761 0.192373
v -0.303772 1.106936 0.206169
v 0.513692 2.315744 -0.162152
v 0.531209 1.609054 -0.236062
v -0.857743 2.020271 -0.198540
v -0.751870 1.733862 -0.278038
v -0.283255 2.399135 0.479840
v 0.268271 2.292035 0.405815
v -0.410384 2.364438 0.580018
v -1.237862 2.110538 -0.009225
v -0.290757 2.575768 0.127155
v 0.245574 2.438649 0.150763
v -1.081153 1.964032 0.113155
v -0.446775 2.654492 0.165782
v -0.753128 2.284405 0.620102
v -1.497602 2.035405 0.296765
v -1.196157 2.049092 0.459513
v -0.943428 2.632611 0.410050
v -0.621487 2.701065 0.259913
v -0.485283 2.315774 0.551539
v -1.209700 1.993020 0.137369
v -1.760779 0.753753 0.957253
v -1.631151 0.729455 0.988500
v -1.642539 0.555158 0.785684
v -1.721661 0.569989 0.766612
v 0.426370 2.205190 0.372240
v 0.500437 2.407633 0.111709
v 0.383583 2.320795 0.392598
v 0.378319 2.459642 0.168495
v 0.639358 1.890095 0.133904
v 0.725829 2.004751 -0.047282
v 0.663362 1.969975 0.187568
v 0.726323 2.094109 0.032961
v 0.801084 1.685981 0.020461
v 0.868108 1.723719 -0.064722
v 0.884025 1.628452 0.050875
v 0.948458 1.678073 -0.031526
v 0.795296 1.530185 0.012538
v 0.934046 1.629713 -0.156585
v 0.902210 1.387880 0.097172
v 1.101584 1.536916 -0.164203
v -0.123769 2.442228 0.491607
v 0.085173 2.415385 0.466646
v -0.131601 2.548262 0.246178
v 0.068320 2.520615 0.225031
v -0.086608 2.760195 0.625237
v 0.121493 2.704583 0.586344
v -0.106368 2.865448 0.369044
v 0.101768 2.809866 0.330410
v -0.501734 1.152829 -0.015802
v -0.378489 1.202330 -0.219766
v -0.048717 1.275189 -0.334599
v -0.784440 1.838516 -0.016646
v 0.557305 1.189243 -0.135507
v 0.344269 1.192884 -0.274244
v -0.003938 1.522187 -0.331116
v -0.022196 1.137967 0.186269
v 0.430928 2.108252 0.068010
v -0.279210 2.461789 0.355904
v -0.431284 2.621455 0.433497
v -1.014180 2.023839 -0.004034
v 0.237118 2.421559 0.310683
v -0.766826 2.514717 0.602792
v -1.356712 2.157692 0.532317
v -0.583032 2.610377 0.435997
v -1.703816 0.740437 1.004539
v -1.678557 0.447940 0.672315
v 0.503689 2.315470 0.267306
v 0.383886 2.435072 0.303554
v 0.632884 1.933409 0.007959
v 0.738818 2.042029 0.136249
v 0.833342 1.708828 -0.021406
v 0.915872 1.652258 0.009124
v 0.842552 1.588701 -0.083043
v 0.964416 1.480762 -0.051634
v -0.128183 2.495037 0.368682
v 0.075252 2.468619 0.345501
v -0.127873 2.812574 0.499451
v 0.142967 2.757451 0.456025
v -1.505224 1.051391 0.920049
v -1.576225 0.879521 0.860054
v -1.729628 1.063630 0.867661
v -1.698236 0.902390 0.830643
v -1.650377 0.724881 0.770751
v -1.634368 1.038488 0.948192
v -0.033413 1.775051 0.503544
v 0.084208 2.149680 -0.215108
v 0.058710 2.528040 0.044735
v 0.039261 2.275797 0.599052
v -0.033873 2.533649 0.234837
v -0.016596 2.431204 0.479201
v -0.005238 2.853444 0.311318
v 0.020404 2.716612 0.644196
v 0.008711 2.836365 0.498692
v 0.099938 2.673595 0.253992
v 0.120189 2.553233 0.546425
v -0.118439 2.593123 0.580830
v -0.139705 2.714133 0.287356
v -0.145889 2.653273 0.435344
v 0.125364 2.613716 0.398740
v -0.022093 2.701997 0.250393
v 0.002573 2.565074 0.583351
v 0.406242 1.711504 -0.013606
v -0.588793 1.489413 0.219922
v 0.521328 1.831540 -0.239165
v 0.165530 1.159336 0.186913
v -0.228436 0.022506 -0.185931
v -0.383943 0.025368 -0.077954
v -0.385417 0.033857 -0.328756
v -0.249492 0.028143 -0.330540
v 0.316334 -0.019367 0.309932
v 0.242641 -0.042531 0.237953
v 0.325532 -0.031620 0.273346
v 0.293866 -0.040066 0.248533
v 0.257414 -0.014830 0.319638
v 0.092458 0.837737 -0.120435
v 0.138899 0.541477 0.043062
v 0.187039 0.265545 0.177107
v 0.222300 0.301538 0.351812
v 0.197123 0.558730 0.342865
v 0.195384 0.832283 0.289198
v 0.344271 0.297083 0.326355
v 0.402689 0.554942 0.297365
v 0.482880 0.890332 0.219163
v 0.349489 0.868510 -0.086210
v 0.318599 0.548996 0.073240
v 0.294033 0.270229 0.195644
v 0.361282 0.282160 0.246908
v 0.432106 0.568624 0.157089
v 0.513878 0.895652 0.029848
v -0.201548 0.821355 0.248261
v -0.183090 0.548921 0.151913
v -0.185591 0.315851 0.092184
v -0.469469 0.318908 0.058912
v -0.469052 0.592022 0.084272
v -0.482066 0.845345 0.109921
v -0.481462 0.393909 -0.199984
v -0.479761 0.670982 -0.176922
v -0.480249 0.908439 -0.162399
v -0.085293 0.853847 -0.175866
v -0.135120 0.642823 -0.200302
v -0.186902 0.430101 -0.204120
vn -0.0986 0.5690 -0.8164
vn -0.0790 0.0913 -0.9927
vn 0.5363 -0.1649 -0.8278
vn -0.2406 -0.2739 0.9312
vn 0.9424 0.0441 0.3315
vn 0.6441 0.7423 0.1847
vn 0.0542 0.9235 -0.3797
vn 0.6576 -0.2494 0.7109
vn 0.0192 0.8750 0.4837
vn -0.1634 0.5689 -0.8060
vn -0.1103 -0.5144 0.8504
vn -0.4754 -0.8340 -0.2801
vn -0.0975 -0.2095 0.9729
vn 0.3096 -0.9148 0.2594
vn 0.9556 -0.2849 0.0757
vn 0.0675 -0.8210 0.5670
vn 0.1760 0.9536 0.2444
vn 0.0764 -0.7503 0.6566
vn -0.5749 0.2797 0.7689
vn 0.8793 -0.0013 -0.4763
vn -0.9222 0.0632 -0.3814
vn 0.6244 0.7312 0.2747
vn 0.6372 0.1187 0.7615
vn -0.1357 -0.5624 0.8156
vn -0.0346 0.5996 0.7995
vn -0.4119 -0.6022 0.6839
vn -0.4601 -0.4767 -0.7490
vn 0.7993 0.5461 -0.2507
vn -0.1224 -0.6500 0.7500
vn 0.4825 0.7968 -0.3637
vn 0.6239 0.0582 0.7793
vn 0.6565 0.4171 -0.6286
vn -0.4811 -0.2483 -0.8407
vn -0.3466 -0.5865 -0.7321
vn -0.7136 0.2251 -0.6634
vn -0.4610 0.0712 0.8845
vn 0.8585 0.1215 0.4982
vn 0.9739 0.0392 -0.2237
vn 0.4460 0.5344 0.7180
vn 0.1459 0.9885 0.0386
vn -0.2482 0.8773 0.4107
vn 0.4080 0.8859 0.2205
vn 0.0045 0.9766 0.2151
vn -0.9618 0.0579 0.2676
vn 0.3481 -0.3157 0.8827
vn -0.3134 0.4467 -0.8380
vn -0.6656 -0.5256 -0.5298
vn -0.8902 -0.4127 0.1931
vn 0.1133 0.0916 -0.9893
vn -0.9842 0.1751 -0.0264
vn 0.0291 0.8466 0.5315
vn 0.4907 0.7092 0.5061
vn -0.1982 0.8817 0.4282
vn 0.9946 -0.0839 0.0611
vn 0.6753 -0.0205 0.7372
vn -0.8862 0.1029 -0.4518
vn -0.4263 -0.6710 -0.6066
vn -0.7721 -0.5417 -0.3322
vn 0.8777 0.3594 0.3170
vn -0.5720 -0.6835 -0.4536
vn -0.1265 0.9824 0.1375
vn 0.8028 0.5403 0.2522
vn 0.6904 0.3213 0.6482
vn -0.5197 0.2609 -0.8135
vn 0.2109 0.1286 0.9690
vn -0.6102 -0.6217 0.4911
vn -0.2044 0.3838 0.9005
vn -0.6139 0.6497 0.4484
vn -0.4818 -0.7929 -0.3730
vn 0.3727 0.3013 0.8777
vn 0.6114 0.5297 0.5879
vn 0.3926 0.2568 0.8831
vn -0.4805 0.6802 -0.5536
vn -0.7867 0.4097 0.4618
vn 0.9486 -0.3157 -0.0216
vn 0.4864 0.7328 0.4759
vn 0.2164 0.4091 -0.8865
vn -0.1779 -0.2836 0.9423
vn 0.4586 0.8812 0.1148
vn 0.3276 0.9446 0.0214
vn -0.0581 0.5006 0.8637
vn -0.4041 -0.1274 0.9058
vn 0.0687 0.7679 -0.6368
vn -0.0595 -0.5573 0.8282
vn -0.0020 0.1375 -0.9905
vn 0.9649 -0.2355 -0.1166
vn -0.9970 -0.0666 -0.0383
vn -0.1961 0.1662 -0.9664
vn 0.1111 -0.5722 0.8126
vn -0.9931 -0.0818 0.0835
vn 0.9571 -0.2062 -0.2038
vn 0.0968 -0.9642 -0.2467
vn 0.1308 -0.5660 0.8140
vn -0.9665 -0.1303 0.2210
vn -0.9652 -0.2611 -0.0173
vn 0.9914 -0.1045 -0.0787
vn -0.0354 0.3160 -0.9481
vn -0.0419 -0.9986 -0.0333
vn -0.0168 -0.9459 0.3241
vn 0.1868 -0.0731 0.9797
vn 0.1857 -0.1616 -0.9692
vn 0.9662 -0.0938 0.2402
vn 0.6213 -0.1339 -0.7720
vn 0.5192 -0.4482 -0.7277
vn 0.5766 -0.4131 -0.7049
vn 0.5970 -0.3683 -0.7127
vn 0.9860 -0.0615 0.1551
vn 0.9685 -0.1850 0.1669
vn 0.9615 -0.1837 0.2042
vn 0.0934 -0.4507 -0.8878
vn 0.1688 -0.4544 -0.8746
vn 0.1698 -0.4076 -0.8972
vn 0.1867 0.3311 0.9250
vn 0.2053 0.1818 0.9617
vn 0.2128 0.0581 0.9754
vn -0.9466 -0.0828 0.3116
vn -0.9752 0.0020 0.2215
vn -0.9762 -0.0803 0.2013
vn -0.1622 -0.2565 -0.9528
vn -0.0394 0.0908 -0.9951
vn -0.0437 0.0595 -0.9973
vn 0.9014 0.1937 0.3872
vn 0.9759 -0.1104 0.1885
vn 0.9916 -0.1252 0.0312
vn -0.9689 0.0591 -0.2404
vn -0.9996 -0.0282 0.0091
vn -0.9990 -0.0000 0.0436
vn -0.5882 0.1060 0.8017
vn -0.3565 -0.2314 0.9052
vn -0.1848 -0.1619 0.9694
vn 0.5698 -0.1429 0.8092
vn 0.2830 0.3743 -0.8831
vn -0.3342 -0.3944 -0.8560
vn -0.3451 -0.7644 -0.5447
vn -0.8816 -0.0643 -0.4677
vt 0.882279 0.260085
vt 0.436089 0.649131
vt 0.117664 0.305524
vt 0.860974 0.338762
vt 0.079561 0.383885
vt 0.278417 0.728674
vt 0.111517 0.716819
vt 0.301243 0.337859
vt 0.232943 0.387386
vt 0.111517 0.662267
vt 0.671871 0.687525
vt 0.175114 0.511099
vt 0.930991 0.712692
vt 0.796001 0.259488
vt 0.522181 0.649131
vt 0.719621 0.316178
vt 0.801110 0.310020
vt 0.698705 0.366293
vt 0.510656 0.337024
vt 0.023033 0.717149
vt 0.367094 0.730187
vt 0.507246 0.358198
vt 0.018976 0.695717
vt 0.103380 0.570561
vt 0.268725 0.266033
vt 0.143950 0.273348
vt 0.098384 0.631539
vt 0.301351 0.259488
vt 0.128079 0.559933
vt 0.480438 0.333338
vt 0.348619 0.714075
vt 0.604958 0.268707
vt 0.031105 0.562973
vt 0.043818 0.625810
vt 0.721993 0.282954
vt 0.329365 0.336360
vt 0.302724 0.713315
vt 0.030374 0.549675
vt 0.582817 0.260846
vt 0.875347 0.642471
vt 0.380514 0.272320
vt 0.124895 0.517524
vt 0.813390 0.578569
vt 0.436089 0.332372
vt 0.956124 0.588845
vt 0.367094 0.692599
vt 0.367094 0.522797
vt 0.871643 0.594841
vt 0.398138 0.324445
vt 0.043891 0.509019
vt 0.796001 0.641153
vt 0.491075 0.268473
vt 0.032114 0.534706
vt 0.552485 0.259488
vt 0.331566 0.259909
vt 0.129819 0.544964
vt 0.339759 0.337186
vt 0.913298 0.588845
vt 0.317584 0.707220
vt 0.845734 0.463378
vt 0.311567 0.646434
vt 0.944558 0.353645
vt 0.398138 0.462439
vt 0.920230 0.354337
vt 0.870057 0.463781
vt 0.929709 0.374247
vt 0.357807 0.478584
vt 0.347994 0.663056
vt 0.944558 0.373825
vt 0.097076 0.285727
vt 0.229765 0.651022
vt 0.758050 0.297859
vt 0.168317 0.651042
vt 0.119329 0.272208
vt 0.094178 0.643292
vt 0.222768 0.636959
vt 0.746872 0.283208
vt 0.174541 0.636975
vt 0.045175 0.638147
vt 0.080672 0.327471
vt 0.442544 0.673801
vt 0.734592 0.339187
vt 0.484453 0.673801
vt 0.070725 0.319456
vt 0.218298 0.685110
vt 0.751374 0.331694
vt 0.180611 0.684911
vt 0.062412 0.356092
vt 0.455575 0.702696
vt 0.724658 0.367821
vt 0.476314 0.702696
vt 0.043357 0.357400
vt 0.210236 0.723455
vt 0.742364 0.370210
vt 0.189444 0.723462
vt 0.050281 0.367705
vt 0.444942 0.715336
vt 0.810526 0.722486
vt 0.728448 0.380153
vt 0.853695 0.722486
vt 0.487920 0.715336
vt 0.018975 0.371756
vt 0.232852 0.738567
vt 0.796001 0.739289
vt 0.758050 0.386241
vt 0.861207 0.739289
vt 0.167770 0.738589
vt 0.100634 0.583041
vt 0.712300 0.698974
vt 0.802197 0.701507
vt 0.098640 0.600731
vt 0.972705 0.287497
vt 0.747907 0.696578
vt 0.052045 0.577939
vt 0.849895 0.701507
vt 0.710445 0.675017
vt 0.050052 0.595630
vt 0.746553 0.677603
vt 0.924885 0.287497
vt 0.797725 0.671259
vt 0.981025 0.313792
vt 0.715147 0.730011
vt 0.752543 0.724602
vt 0.973919 0.259495
vt 0.967002 0.332143
vt 0.934252 0.306472
vt 0.715328 0.644023
vt 0.847669 0.671259
vt 0.923848 0.259495
vt 0.753088 0.649631
vt 0.920230 0.324823
vt 0.068284 0.665533
vt 0.630362 0.705721
vt 0.712055 0.621316
vt 0.966165 0.712391
vt 0.519769 0.388732
vt 0.031375 0.663704
vt 0.592215 0.695479
vt 0.581836 0.620019
vt 0.750017 0.621843
vt 0.569690 0.667298
vt 0.581066 0.387596
vt 0.531739 0.516092
vt 0.642835 0.625048
vt 0.273616 0.509019
vt 0.070982 0.710642
vt 0.316851 0.732164
vt 0.684917 0.393810
vt 0.816625 0.338063
vt 0.644803 0.392946
vt 0.602800 0.367236
vt 0.671871 0.661666
vt 0.181146 0.386242
vt 0.855113 0.259897
vt 0.463196 0.649131
vt 0.077903 0.567886
vt 0.078993 0.554271
vt 0.322237 0.720993
vt 0.070972 0.628379
vt 0.834014 0.651825
vt 0.084160 0.512738
vt 0.838315 0.596273
vt 0.320679 0.509019
vt 0.080733 0.539302
vt 0.857365 0.464048
vt 0.931678 0.351118
vt 0.335174 0.488977
vt 0.367094 0.673623
vt 0.939667 0.384854
vt 0.199177 0.651021
vt 0.069465 0.641494
vt 0.198664 0.632807
vt 0.464209 0.672968
vt 0.199604 0.684998
vt 0.465945 0.702696
vt 0.199840 0.723459
vt 0.466714 0.715004
vt 0.832520 0.720483
vt 0.200177 0.738589
vt 0.829423 0.735282
vt 0.076340 0.580490
vt 0.826046 0.701507
vt 0.074346 0.598181
vt 0.948795 0.287497
vt 0.823088 0.670800
vt 0.959731 0.307426
vt 0.948976 0.259488
vt 0.941524 0.331189
vt 0.875347 0.491894
vt 0.391834 0.432095
vt 0.377694 0.448634
vt 0.915590 0.478791
vt 0.834644 0.488373
vt 0.326937 0.619279
vt 0.938593 0.478810
vt 0.335216 0.632947
vt 0.358601 0.463790
vt 0.348787 0.648138
vt 0.927106 0.463378
vt 0.854274 0.489560
vt 0.315804 0.619182
vt 0.212520 0.321385
vt 0.644070 0.318501
vt 0.018976 0.592450
vt 0.663817 0.276029
vt 0.129819 0.597828
vt 0.224108 0.269832
vt 0.051049 0.586785
vt 0.728499 0.676310
vt 0.099637 0.591886
vt 0.730103 0.697776
vt 0.734390 0.646904
vt 0.920230 0.314550
vt 0.981025 0.324065
vt 0.732426 0.727384
vt 0.950683 0.319044
vt 0.753088 0.663662
vt 0.920230 0.273492
vt 0.977552 0.273492
vt 0.752543 0.710647
vt 0.709822 0.714522
vt 0.796001 0.686127
vt 0.853178 0.686127
vt 0.709822 0.659561
vt 0.824792 0.685890
vt 0.948939 0.273488
vt 0.731549 0.661651
vt 0.730449 0.712624
vt 0.878850 0.297575
vt 0.096711 0.342677
vt 0.285581 0.357771
vt 0.108549 0.696221
vt 0.804979 0.293594
vt 0.708839 0.350023
vt 0.668288 0.644023
vt 0.436089 0.526409
vt 0.145034 0.385321
vt 0.919159 0.607821
vt 0.247387 0.613831
vt 0.970304 0.416607
vt 0.947808 0.608020
vt 0.704660 0.516092
vt 0.970304 0.403829
vt 0.750017 0.516884
vt 0.618892 0.516092
vt 0.920230 0.404231
vt 0.273616 0.612878
vt 0.642836 0.516847
vt 0.938584 0.415207
vt 0.924281 0.443436
vt 0.075400 0.489812
vt 0.855524 0.444402
vt 0.531739 0.629156
vt 0.934913 0.435583
vt 0.576828 0.496673
vt 0.931440 0.443424
vt 0.848383 0.444289
vt 0.592622 0.497116
vt 0.934913 0.440184
vt 0.586164 0.496977
vt 0.517161 0.630156
vt 0.920230 0.438606
vt 0.085942 0.490043
vt 0.585376 0.420489
vt 0.510472 0.551446
vt 0.582586 0.444044
vt 0.504260 0.576063
vt 0.581388 0.469636
vt 0.508131 0.602400
vt 0.103684 0.463024
vt 0.477645 0.604263
vt 0.118194 0.440373
vt 0.454885 0.581958
vt 0.129418 0.415411
vt 0.438452 0.557360
vt 0.876897 0.417052
vt 0.081901 0.462161
vt 0.882279 0.393921
vt 0.081653 0.438865
vt 0.880271 0.363315
vt 0.079604 0.408162
vt 0.633117 0.418943
vt 0.615530 0.444447
vt 0.600997 0.469910
vt 0.614559 0.469949
vt 0.862035 0.416811
vt 0.638313 0.444473
vt 0.857648 0.390640
vt 0.666106 0.417503
vt 0.844696 0.362700
vt 0.167770 0.536691
vt 0.914144 0.688660
vt 0.182151 0.561697
vt 0.913298 0.663084
vt 0.189855 0.582503
vt 0.915415 0.641729
vt 0.680787 0.549268
vt 0.966165 0.641681
vt 0.684678 0.573659
vt 0.963812 0.665813
vt 0.684995 0.596421
vt 0.964308 0.688427
vt 0.584794 0.548886
vt 0.729850 0.550060
vt 0.578610 0.572959
vt 0.734888 0.574452
vt 0.569690 0.595426
vt 0.736445 0.597214
vt 0.642060 0.590920
vt 0.247172 0.543053
vt 0.641052 0.570535
vt 0.248998 0.562413
vt 0.635978 0.552556
vt 0.245738 0.579271
s 0
usemtl Material
f 89/203/1 7/19/1 13/32/1 90/205/1
f 8/22/2 7/19/2 89/203/2 58/151/2 54/142/2 53/136/2
f 6/18/3 56/148/3 57/150/3
f 3/8/4 106/231/4 4/9/4 59/153/4 88/202/4
f 6/17/5 107/233/5 5/14/5 60/154/5 1/1/5 105/229/5 2/4/5 56/149/5
f 61/156/6 13/33/6 16/38/6 62/157/6
f 5/16/7 14/35/7 31/77/7 29/72/7
f 88/202/8 1/3/8 10/26/8 91/207/8
f 67/164/9 21/53/9 20/50/9 65/161/9
f 13/32/10 7/19/10 12/30/10 16/39/10
f 3/8/11 9/25/11 11/28/11 15/36/11
f 55/147/12 3/6/12 15/37/12 63/158/12
f 66/162/13 19/48/13 17/40/13 65/160/13
f 23/57/14 22/55/14 17/41/14 19/49/14
f 83/191/15 82/190/15 25/63/15 26/67/15
f 15/36/16 11/28/16 22/55/16 23/57/16
f 62/157/17 16/38/17 21/53/17 67/164/17
f 69/169/18 26/66/18 25/64/18 68/166/18
f 87/200/19 84/193/19 24/60/19 68/165/19
f 86/197/20 83/191/20 26/67/20 69/167/20
f 84/194/21 85/196/21 27/68/21 24/61/21
f 70/170/22 29/73/22 31/78/22 71/172/22
f 70/170/23 28/71/23 34/85/23 73/174/23
f 10/26/24 1/3/24 28/70/24 30/74/24
f 64/159/25 10/27/25 30/75/25 71/171/25
f 34/84/26 32/80/26 36/88/26 38/92/26
f 60/155/27 5/15/27 33/83/27 72/173/27
f 5/16/28 29/72/28 35/86/28 33/82/28
f 28/70/29 1/3/29 32/80/29 34/84/29
f 37/90/30 39/94/30 43/105/30 41/99/30
f 73/174/31 34/85/31 38/93/31 75/176/31
f 33/82/32 35/86/32 39/94/32 37/90/32
f 72/173/33 33/83/33 37/91/33 74/175/33
f 76/178/34 41/100/34 43/106/34 77/180/34
f 74/175/35 37/91/35 41/101/35 76/177/35
f 38/92/36 36/88/36 40/96/36 42/102/36
f 75/176/37 38/93/37 42/103/37 77/179/37
f 102/226/38 97/218/38 51/129/38 81/187/38
f 91/206/39 10/27/39 45/111/39 93/210/39
f 90/204/40 13/33/40 46/114/40 92/208/40
f 61/156/41 9/24/41 44/108/41 78/181/41
f 64/159/42 14/34/42 47/117/42 79/183/42
f 96/216/43 94/213/43 50/126/43 80/186/43
f 101/225/44 99/222/44 48/120/44 80/185/44
f 104/228/45 98/220/45 49/123/45 95/215/45
f 103/227/46 100/224/46 50/127/46 94/212/46
f 8/23/47 53/137/47 52/132/47
f 8/23/48 52/132/48 4/10/48 106/232/48 3/7/48 55/146/48 7/20/48
f 54/142/49 58/151/49 89/203/49 5/16/49 107/234/49 6/18/49 57/150/49
f 100/223/50 101/225/50 80/185/50 50/128/50
f 95/214/51 96/216/51 80/186/51 48/121/51
f 10/27/52 64/159/52 79/183/52 45/111/52
f 13/33/53 61/156/53 78/181/53 46/114/53
f 98/219/54 102/226/54 81/187/54 49/124/54
f 39/95/55 75/176/55 77/179/55 43/107/55
f 36/89/56 74/175/56 76/177/56 40/97/56
f 40/98/57 76/178/57 77/180/57 42/104/57
f 32/81/58 72/173/58 74/175/58 36/89/58
f 35/87/59 73/174/59 75/176/59 39/95/59
f 1/2/60 60/155/60 72/173/60 32/81/60
f 14/34/61 64/159/61 71/171/61 31/79/61
f 29/73/62 70/170/62 73/174/62 35/87/62
f 28/71/63 70/170/63 71/172/63 30/76/63
f 85/196/64 86/198/64 69/168/64 27/68/64
f 82/189/65 87/200/65 68/165/65 25/65/65
f 27/69/66 69/169/66 68/166/66 24/62/66
f 11/29/67 62/157/67 67/164/67 22/56/67
f 18/43/68 66/162/68 65/160/68 20/51/68
f 7/21/69 55/147/69 63/158/69 12/31/69
f 22/56/70 67/164/70 65/161/70 17/42/70
f 9/24/71 61/156/71 62/157/71 11/29/71
f 19/48/72 66/162/72 87/200/72 82/189/72
f 12/30/73 18/44/73 20/52/73 21/54/73 16/39/73
f 66/163/74 18/47/74 84/194/74 87/201/74
f 23/57/75 19/49/75 82/190/75 83/191/75
f 49/125/76 81/188/76 96/216/76 95/214/76
f 97/217/77 103/227/77 94/212/77 51/130/77
f 99/221/78 104/228/78 95/215/78 48/122/78
f 81/188/79 51/131/79 94/213/79 96/216/79
f 14/34/80 90/204/80 92/208/80 47/117/80
f 9/24/81 91/206/81 93/210/81 44/108/81
f 3/8/82 88/202/82 91/207/82 9/25/82
f 5/16/83 89/203/83 90/205/83 14/35/83
f 44/109/84 93/211/84 104/228/84 99/221/84
f 47/118/85 92/209/85 103/227/85 97/217/85
f 45/112/86 79/184/86 102/226/86 98/219/86
f 46/115/87 78/182/87 101/225/87 100/223/87
f 92/209/88 46/116/88 100/224/88 103/227/88
f 93/211/89 45/113/89 98/220/89 104/228/89
f 78/182/90 44/110/90 99/222/90 101/225/90
f 79/184/91 47/119/91 97/218/91 102/226/91
f 59/152/92 4/11/92 52/133/92 53/138/92 54/141/92 108/235/92
f 136/298/93 110/241/93 109/238/93 135/296/93
f 121/271/94 120/269/94 114/253/94 117/261/94
f 139/304/95 111/244/95 110/242/95 136/297/95
f 135/295/96 109/239/96 112/247/96 144/314/96
f 144/313/97 112/248/97 111/245/97 139/303/97
f 111/246/98 112/249/98 109/240/98 110/243/98
f 117/262/99 114/254/99 116/259/99 115/256/99 113/250/99
f 124/277/100 121/270/100 117/263/100 113/251/100
f 120/268/101 129/284/101 116/260/101 114/255/101
f 130/286/102 124/276/102 113/252/102 115/257/102
f 129/284/103 130/285/103 115/258/103 116/260/103
f 57/150/104 56/148/104 132/289/104 127/282/104
f 127/282/105 132/289/105 131/287/105 128/283/105
f 128/283/106 131/287/106 130/285/106 129/284/106
f 56/149/107 2/4/107 126/280/107 132/290/107
f 132/290/108 126/280/108 125/278/108 131/288/108
f 131/288/109 125/278/109 124/276/109 130/286/109
f 54/142/110 57/150/110 127/282/110 118/264/110
f 118/264/111 127/282/111 128/283/111 119/266/111
f 119/266/112 128/283/112 129/284/112 120/268/112
f 2/5/113 108/237/113 123/274/113 126/281/113
f 126/281/114 123/274/114 122/272/114 125/279/114
f 125/279/115 122/272/115 121/270/115 124/277/115
f 108/236/116 54/143/116 118/265/116 123/275/116
f 123/275/117 118/265/117 119/267/117 122/273/117
f 122/273/118 119/267/118 120/269/118 121/271/118
f 54/144/119 142/309/119 141/307/119 53/139/119
f 142/309/120 143/311/120 140/305/120 141/307/120
f 143/311/121 144/313/121 139/303/121 140/305/121
f 4/12/122 133/291/122 142/310/122 54/145/122
f 133/291/123 134/293/123 143/312/123 142/310/123
f 134/293/124 135/295/124 144/314/124 143/312/124
f 53/140/125 141/308/125 138/301/125 52/134/125
f 141/308/126 140/306/126 137/299/126 138/301/126
f 140/306/127 139/304/127 136/297/127 137/299/127
f 52/135/128 138/302/128 133/292/128 4/13/128
f 138/302/129 137/300/129 134/294/129 133/292/129
f 137/300/130 136/298/130 135/296/130 134/294/130
f 105/230/131 1/3/131 88/202/131 59/153/131 108/237/131 2/5/131
f 86/199/132 85/195/132 83/192/132
f 83/192/133 85/195/133 18/45/133 23/58/133
f 63/158/134 15/37/134 23/59/134 18/46/134 12/31/134
f 84/194/135 18/47/135 85/196/135
l 52 106
