# Blender 3.3.1
# www.blender.org
mtllib monstruo_3_grande_caminar623.mtl
o monstruo_grande
v 0.342615 2.023124 0.226042
v 0.522426 1.200716 0.097402
v -0.732490 1.717882 0.218731
v -0.293047 1.092867 0.209793
v 0.462483 2.320059 -0.123407
v 0.516985 1.615117 -0.241218
v -0.884214 1.947997 -0.183704
v -0.767064 1.675345 -0.264267
v -0.357753 2.370290 0.503679
v 0.201189 2.289868 0.439226
v -0.484099 2.332039 0.609525
v -1.248417 1.980504 -0.007257
v -0.373999 2.542069 0.148236
v 0.178128 2.435679 0.183351
v -1.085701 1.845516 0.137874
v -0.537704 2.607714 0.181224
v -0.831961 2.235010 0.642451
v -1.524030 1.896002 0.274561
v -1.236336 1.937273 0.466051
v -1.036855 2.547720 0.391031
v -0.717976 2.639825 0.260626
v -0.559872 2.284517 0.588824
v -1.217697 1.863105 0.148974
v -1.788630 0.624712 0.944120
v -1.660395 0.603887 0.982751
v -1.654211 0.432536 0.777217
v -1.732482 0.445248 0.753638
v 0.363114 2.212330 0.410982
v 0.434879 2.416097 0.150656
v 0.315140 2.323875 0.428865
v 0.309439 2.463151 0.204850
v 0.596145 1.912506 0.189594
v 0.690223 2.015959 0.006718
v 0.618796 1.991394 0.238800
v 0.681130 2.114116 0.083890
v 0.779365 1.694659 0.111369
v 0.843931 1.734260 0.025128
v 0.869165 1.665645 0.159090
v 0.930287 1.713413 0.073439
v 0.810612 1.543267 0.134713
v 0.941035 1.640612 -0.041008
v 0.936009 1.449231 0.254199
v 1.126547 1.594214 -0.015900
v -0.196109 2.429872 0.516765
v 0.013939 2.405302 0.493857
v -0.205225 2.532399 0.270990
v -0.002324 2.508543 0.251620
v -0.139417 2.744676 0.659649
v 0.065278 2.679854 0.617109
v -0.156624 2.857537 0.406249
v 0.047021 2.793219 0.363309
v -0.500846 1.127199 -0.003407
v -0.387096 1.174706 -0.213100
v -0.052879 1.277937 -0.333038
v -0.796811 1.766265 0.002675
v 0.550446 1.201289 -0.139990
v 0.332623 1.198045 -0.269044
v -0.021523 1.528656 -0.321435
v -0.013878 1.144391 0.190250
v 0.384305 2.112309 0.107652
v -0.357255 2.431322 0.378735
v -0.521065 2.581541 0.453108
v -1.023169 1.918070 0.015711
v 0.167458 2.418263 0.343785
v -0.868255 2.461744 0.604461
v -1.411857 2.036350 0.516351
v -0.673282 2.560747 0.453882
v -1.734195 0.612395 0.994551
v -1.680033 0.326068 0.660413
v 0.437691 2.325983 0.307425
v 0.313216 2.438175 0.340317
v 0.597387 1.945305 0.063391
v 0.692413 2.064929 0.189083
v 0.810194 1.717196 0.068261
v 0.899601 1.688803 0.115946
v 0.854597 1.593755 0.033178
v 0.993103 1.526713 0.094899
v -0.200598 2.480711 0.392766
v 0.004523 2.457785 0.372163
v -0.179174 2.802395 0.535728
v 0.087675 2.735403 0.487748
v -1.540771 0.930547 0.926460
v -1.602648 0.757559 0.859930
v -1.762047 0.936824 0.860619
v -1.723347 0.777160 0.823569
v -1.666463 0.602156 0.764199
v -1.670893 0.913273 0.946619
v -0.072826 1.754773 0.519556
v 0.028467 2.141573 -0.188532
v -0.011931 2.514779 0.071361
v -0.031009 2.264064 0.627095
v -0.105207 2.519630 0.259555
v -0.087524 2.417670 0.504677
v -0.057670 2.842067 0.346490
v -0.034545 2.695337 0.676323
v -0.041585 2.819380 0.534152
v 0.036339 2.659704 0.282942
v 0.054918 2.531902 0.572994
v -0.180661 2.580816 0.610736
v -0.201393 2.708117 0.319093
v -0.207018 2.645478 0.466550
v 0.061238 2.595590 0.426419
v -0.084363 2.692340 0.280626
v -0.060753 2.546828 0.611585
v 0.397203 1.715359 -0.020911
v -0.595887 1.441107 0.228368
v 0.500745 1.834298 -0.237433
v 0.172681 1.182403 0.196824
v -0.215488 0.001513 -0.165190
v -0.360127 0.009339 -0.043362
v -0.385112 0.012852 -0.292976
v -0.250069 0.004528 -0.307310
v 0.325666 0.018132 0.396951
v 0.246568 -0.012407 0.333815
v 0.332039 0.002761 0.360949
v 0.298565 -0.008324 0.339764
v 0.267619 0.022709 0.411184
v 0.089431 0.846326 -0.088424
v 0.128550 0.558831 0.101487
v 0.182208 0.292685 0.252552
v 0.234496 0.340481 0.420037
v 0.213475 0.596895 0.394119
v 0.211874 0.865738 0.320395
v 0.353411 0.331009 0.383788
v 0.413763 0.584520 0.330239
v 0.493820 0.918268 0.229401
v 0.346619 0.879510 -0.066512
v 0.310228 0.564532 0.115284
v 0.290557 0.295972 0.260693
v 0.362560 0.309874 0.304456
v 0.431139 0.587652 0.187274
v 0.515934 0.914051 0.039783
v -0.180095 0.813597 0.259246
v -0.156647 0.537522 0.163893
v -0.155069 0.302963 0.106100
v -0.440170 0.298504 0.092095
v -0.447277 0.571413 0.113968
v -0.466931 0.825073 0.132978
v -0.472166 0.369159 -0.166362
v -0.476540 0.645711 -0.146791
v -0.478816 0.879559 -0.140380
v -0.082897 0.837146 -0.170585
v -0.133365 0.626825 -0.191122
v -0.179770 0.413037 -0.190668
vn -0.1257 0.5615 -0.8179
vn -0.0872 0.1072 -0.9904
vn 0.5044 -0.1665 -0.8472
vn -0.2170 -0.3225 0.9214
vn 0.9451 0.0687 0.3194
vn 0.5815 0.7939 0.1777
vn 0.0203 0.9199 -0.3915
vn 0.6443 -0.2200 0.7324
vn -0.1050 0.9011 0.4208
vn -0.2148 0.5567 -0.8024
vn -0.0527 -0.5208 0.8520
vn -0.3834 -0.8703 -0.3092
vn -0.1633 -0.1430 0.9762
vn 0.3761 -0.8571 0.3520
vn 0.9578 -0.2568 0.1290
vn 0.0795 -0.7590 0.6462
vn 0.0837 0.9742 0.2094
vn 0.0606 -0.7579 0.6495
vn -0.6285 0.2501 0.7365
vn 0.9057 0.0330 -0.4226
vn -0.8993 0.0407 -0.4355
vn 0.5838 0.7598 0.2861
vn 0.6008 0.1648 0.7822
vn -0.1269 -0.5625 0.8170
vn -0.0808 0.5946 0.8000
vn -0.4019 -0.5362 0.7422
vn -0.4109 -0.5209 -0.7482
vn 0.7766 0.5822 -0.2407
vn -0.1090 -0.6439 0.7573
vn 0.3311 0.8099 -0.4841
vn 0.5537 0.1841 0.8121
vn 0.6621 0.3834 -0.6439
vn -0.4236 -0.3428 -0.8385
vn -0.1094 -0.7821 -0.6135
vn -0.6697 -0.0931 -0.7367
vn -0.5697 0.1104 0.8144
vn 0.7404 0.4168 0.5273
vn 0.9706 -0.0070 -0.2407
vn 0.4095 0.5537 0.7251
vn 0.0854 0.9963 -0.0053
vn -0.3277 0.8598 0.3916
vn 0.3596 0.9057 0.2246
vn 0.0558 0.9694 0.2390
vn -0.9541 0.1018 0.2817
vn 0.3428 -0.3608 0.8674
vn -0.3010 0.4903 -0.8179
vn -0.6697 -0.5583 -0.4898
vn -0.8670 -0.4588 0.1945
vn 0.0909 0.1281 -0.9876
vn -0.9730 0.2310 -0.0007
vn 0.0762 0.8295 0.5532
vn 0.4458 0.7293 0.5190
vn -0.2804 0.8651 0.4159
vn 0.9890 -0.1417 0.0417
vn 0.5668 0.2798 0.7749
vn -0.8237 -0.2041 -0.5291
vn -0.1841 -0.8523 -0.4895
vn -0.7316 -0.5949 -0.3330
vn 0.8280 0.4505 0.3339
vn -0.5123 -0.7292 -0.4536
vn -0.1756 0.9751 0.1356
vn 0.7616 0.5883 0.2718
vn 0.6553 0.3536 0.6675
vn -0.4783 0.2577 -0.8395
vn 0.1487 0.1197 0.9816
vn -0.6186 -0.6476 0.4449
vn -0.2054 0.4288 0.8797
vn -0.7066 0.6072 0.3633
vn -0.3867 -0.8335 -0.3946
vn 0.2650 0.3831 0.8849
vn 0.5789 0.5838 0.5693
vn 0.2903 0.3028 0.9078
vn -0.5008 0.5965 -0.6272
vn -0.8390 0.3870 0.3825
vn 0.9590 -0.2748 0.0689
vn 0.5272 0.6947 0.4893
vn 0.2274 0.4229 -0.8772
vn -0.1844 -0.3006 0.9357
vn 0.5019 0.8552 0.1293
vn 0.2884 0.9573 0.0177
vn -0.0889 0.4889 0.8678
vn -0.3995 -0.1616 0.9024
vn 0.0568 0.7718 -0.6333
vn -0.0758 -0.5735 0.8157
vn 0.0062 0.1586 -0.9873
vn 0.9496 -0.2834 -0.1337
vn -1.0000 -0.0054 -0.0060
vn -0.1938 0.2042 -0.9596
vn 0.1042 -0.6029 0.7909
vn -0.9943 -0.0263 0.1030
vn 0.9438 -0.2462 -0.2206
vn 0.1685 -0.9561 -0.2398
vn 0.1990 -0.5514 0.8102
vn -0.9412 -0.1102 0.3192
vn -0.9589 -0.2756 0.0673
vn 0.9830 -0.0951 -0.1573
vn -0.1106 0.2990 -0.9478
vn -0.0612 -0.9981 -0.0073
vn 0.0301 -0.9130 0.4068
vn 0.2750 0.0089 0.9614
vn 0.0960 -0.2426 -0.9654
vn 0.9849 -0.0750 0.1563
vn 0.5477 -0.2003 -0.8124
vn 0.4901 -0.4770 -0.7296
vn 0.5287 -0.4646 -0.7104
vn 0.5230 -0.4364 -0.7321
vn 0.9921 -0.0460 0.1169
vn 0.9730 -0.1993 0.1162
vn 0.9722 -0.1936 0.1317
vn 0.0792 -0.4982 -0.8634
vn 0.1150 -0.5212 -0.8456
vn 0.0810 -0.4794 -0.8739
vn 0.2264 0.3856 0.8945
vn 0.2797 0.2334 0.9313
vn 0.3047 0.1237 0.9444
vn -0.9376 -0.0587 0.3428
vn -0.9585 0.0617 0.2783
vn -0.9557 -0.0377 0.2920
vn -0.1718 -0.2740 -0.9463
vn -0.0943 0.0705 -0.9930
vn -0.1091 0.0481 -0.9929
vn 0.9087 0.2107 0.3604
vn 0.9864 -0.0879 0.1388
vn 0.9949 -0.0955 -0.0314
vn -0.9792 0.0243 -0.2014
vn -0.9967 -0.0482 0.0652
vn -0.9936 -0.0290 0.1091
vn -0.5537 0.1233 0.8235
vn -0.3005 -0.2246 0.9270
vn -0.1169 -0.1560 0.9808
vn 0.5843 -0.1299 0.8011
vn 0.3232 0.3966 -0.8592
vn -0.2350 -0.4316 -0.8709
vn -0.2353 -0.7999 -0.5521
vn -0.8606 -0.0924 -0.5008
vt 0.882279 0.260085
vt 0.436089 0.649131
vt 0.117664 0.305524
vt 0.860974 0.338762
vt 0.079561 0.383885
vt 0.278417 0.728674
vt 0.111517 0.716819
vt 0.301243 0.337859
vt 0.232943 0.387386
vt 0.111517 0.662267
vt 0.671871 0.687525
vt 0.175114 0.511099
vt 0.930991 0.712692
vt 0.796001 0.259488
vt 0.522181 0.649131
vt 0.719621 0.316178
vt 0.801110 0.310020
vt 0.698705 0.366293
vt 0.510656 0.337024
vt 0.023033 0.717149
vt 0.367094 0.730187
vt 0.507246 0.358198
vt 0.018976 0.695717
vt 0.103380 0.570561
vt 0.268725 0.266033
vt 0.143950 0.273348
vt 0.098384 0.631539
vt 0.301351 0.259488
vt 0.128079 0.559933
vt 0.480438 0.333338
vt 0.348619 0.714075
vt 0.604958 0.268707
vt 0.031105 0.562973
vt 0.043818 0.625810
vt 0.721993 0.282954
vt 0.329365 0.336360
vt 0.302724 0.713315
vt 0.030374 0.549675
vt 0.582817 0.260846
vt 0.875347 0.642471
vt 0.380514 0.272320
vt 0.124895 0.517524
vt 0.813390 0.578569
vt 0.436089 0.332372
vt 0.956124 0.588845
vt 0.367094 0.692599
vt 0.367094 0.522797
vt 0.871643 0.594841
vt 0.398138 0.324445
vt 0.043891 0.509019
vt 0.796001 0.641153
vt 0.491075 0.268473
vt 0.032114 0.534706
vt 0.552485 0.259488
vt 0.331566 0.259909
vt 0.129819 0.544964
vt 0.339759 0.337186
vt 0.913298 0.588845
vt 0.317584 0.707220
vt 0.845734 0.463378
vt 0.311567 0.646434
vt 0.944558 0.353645
vt 0.398138 0.462439
vt 0.920230 0.354337
vt 0.870057 0.463781
vt 0.929709 0.374247
vt 0.357807 0.478584
vt 0.347994 0.663056
vt 0.944558 0.373825
vt 0.097076 0.285727
vt 0.229765 0.651022
vt 0.758050 0.297859
vt 0.168317 0.651042
vt 0.119329 0.272208
vt 0.094178 0.643292
vt 0.222768 0.636959
vt 0.746872 0.283208
vt 0.174541 0.636975
vt 0.045175 0.638147
vt 0.080672 0.327471
vt 0.442544 0.673801
vt 0.734592 0.339187
vt 0.484453 0.673801
vt 0.070725 0.319456
vt 0.218298 0.685110
vt 0.751374 0.331694
vt 0.180611 0.684911
vt 0.062412 0.356092
vt 0.455575 0.702696
vt 0.724658 0.367821
vt 0.476314 0.702696
vt 0.043357 0.357400
vt 0.210236 0.723455
vt 0.742364 0.370210
vt 0.189444 0.723462
vt 0.050281 0.367705
vt 0.444942 0.715336
vt 0.810526 0.722486
vt 0.728448 0.380153
vt 0.853695 0.722486
vt 0.487920 0.715336
vt 0.018975 0.371756
vt 0.232852 0.738567
vt 0.796001 0.739289
vt 0.758050 0.386241
vt 0.861207 0.739289
vt 0.167770 0.738589
vt 0.100634 0.583041
vt 0.712300 0.698974
vt 0.802197 0.701507
vt 0.098640 0.600731
vt 0.972705 0.287497
vt 0.747907 0.696578
vt 0.052045 0.577939
vt 0.849895 0.701507
vt 0.710445 0.675017
vt 0.050052 0.595630
vt 0.746553 0.677603
vt 0.924885 0.287497
vt 0.797725 0.671259
vt 0.981025 0.313792
vt 0.715147 0.730011
vt 0.752543 0.724602
vt 0.973919 0.259495
vt 0.967002 0.332143
vt 0.934252 0.306472
vt 0.715328 0.644023
vt 0.847669 0.671259
vt 0.923848 0.259495
vt 0.753088 0.649631
vt 0.920230 0.324823
vt 0.068284 0.665533
vt 0.630362 0.705721
vt 0.712055 0.621316
vt 0.966165 0.712391
vt 0.519769 0.388732
vt 0.031375 0.663704
vt 0.592215 0.695479
vt 0.581836 0.620019
vt 0.750017 0.621843
vt 0.569690 0.667298
vt 0.581066 0.387596
vt 0.531739 0.516092
vt 0.642835 0.625048
vt 0.273616 0.509019
vt 0.070982 0.710642
vt 0.316851 0.732164
vt 0.684917 0.393810
vt 0.816625 0.338063
vt 0.644803 0.392946
vt 0.602800 0.367236
vt 0.671871 0.661666
vt 0.181146 0.386242
vt 0.855113 0.259897
vt 0.463196 0.649131
vt 0.077903 0.567886
vt 0.078993 0.554271
vt 0.322237 0.720993
vt 0.070972 0.628379
vt 0.834014 0.651825
vt 0.084160 0.512738
vt 0.838315 0.596273
vt 0.320679 0.509019
vt 0.080733 0.539302
vt 0.857365 0.464048
vt 0.931678 0.351118
vt 0.335174 0.488977
vt 0.367094 0.673623
vt 0.939667 0.384854
vt 0.199177 0.651021
vt 0.069465 0.641494
vt 0.198664 0.632807
vt 0.464209 0.672968
vt 0.199604 0.684998
vt 0.465945 0.702696
vt 0.199840 0.723459
vt 0.466714 0.715004
vt 0.832520 0.720483
vt 0.200177 0.738589
vt 0.829423 0.735282
vt 0.076340 0.580490
vt 0.826046 0.701507
vt 0.074346 0.598181
vt 0.948795 0.287497
vt 0.823088 0.670800
vt 0.959731 0.307426
vt 0.948976 0.259488
vt 0.941524 0.331189
vt 0.875347 0.491894
vt 0.391834 0.432095
vt 0.377694 0.448634
vt 0.915590 0.478791
vt 0.834644 0.488373
vt 0.326937 0.619279
vt 0.938593 0.478810
vt 0.335216 0.632947
vt 0.358601 0.463790
vt 0.348787 0.648138
vt 0.927106 0.463378
vt 0.854274 0.489560
vt 0.315804 0.619182
vt 0.212520 0.321385
vt 0.644070 0.318501
vt 0.018976 0.592450
vt 0.663817 0.276029
vt 0.129819 0.597828
vt 0.224108 0.269832
vt 0.051049 0.586785
vt 0.728499 0.676310
vt 0.099637 0.591886
vt 0.730103 0.697776
vt 0.734390 0.646904
vt 0.920230 0.314550
vt 0.981025 0.324065
vt 0.732426 0.727384
vt 0.950683 0.319044
vt 0.753088 0.663662
vt 0.920230 0.273492
vt 0.977552 0.273492
vt 0.752543 0.710647
vt 0.709822 0.714522
vt 0.796001 0.686127
vt 0.853178 0.686127
vt 0.709822 0.659561
vt 0.824792 0.685890
vt 0.948939 0.273488
vt 0.731549 0.661651
vt 0.730449 0.712624
vt 0.878850 0.297575
vt 0.096711 0.342677
vt 0.285581 0.357771
vt 0.108549 0.696221
vt 0.804979 0.293594
vt 0.708839 0.350023
vt 0.668288 0.644023
vt 0.436089 0.526409
vt 0.145034 0.385321
vt 0.919159 0.607821
vt 0.247387 0.613831
vt 0.970304 0.416607
vt 0.947808 0.608020
vt 0.704660 0.516092
vt 0.970304 0.403829
vt 0.750017 0.516884
vt 0.618892 0.516092
vt 0.920230 0.404231
vt 0.273616 0.612878
vt 0.642836 0.516847
vt 0.938584 0.415207
vt 0.924281 0.443436
vt 0.075400 0.489812
vt 0.855524 0.444402
vt 0.531739 0.629156
vt 0.934913 0.435583
vt 0.576828 0.496673
vt 0.931440 0.443424
vt 0.848383 0.444289
vt 0.592622 0.497116
vt 0.934913 0.440184
vt 0.586164 0.496977
vt 0.517161 0.630156
vt 0.920230 0.438606
vt 0.085942 0.490043
vt 0.585376 0.420489
vt 0.510472 0.551446
vt 0.582586 0.444044
vt 0.504260 0.576063
vt 0.581388 0.469636
vt 0.508131 0.602400
vt 0.103684 0.463024
vt 0.477645 0.604263
vt 0.118194 0.440373
vt 0.454885 0.581958
vt 0.129418 0.415411
vt 0.438452 0.557360
vt 0.876897 0.417052
vt 0.081901 0.462161
vt 0.882279 0.393921
vt 0.081653 0.438865
vt 0.880271 0.363315
vt 0.079604 0.408162
vt 0.633117 0.418943
vt 0.615530 0.444447
vt 0.600997 0.469910
vt 0.614559 0.469949
vt 0.862035 0.416811
vt 0.638313 0.444473
vt 0.857648 0.390640
vt 0.666106 0.417503
vt 0.844696 0.362700
vt 0.167770 0.536691
vt 0.914144 0.688660
vt 0.182151 0.561697
vt 0.913298 0.663084
vt 0.189855 0.582503
vt 0.915415 0.641729
vt 0.680787 0.549268
vt 0.966165 0.641681
vt 0.684678 0.573659
vt 0.963812 0.665813
vt 0.684995 0.596421
vt 0.964308 0.688427
vt 0.584794 0.548886
vt 0.729850 0.550060
vt 0.578610 0.572959
vt 0.734888 0.574452
vt 0.569690 0.595426
vt 0.736445 0.597214
vt 0.642060 0.590920
vt 0.247172 0.543053
vt 0.641052 0.570535
vt 0.248998 0.562413
vt 0.635978 0.552556
vt 0.245738 0.579271
s 0
usemtl Material
f 89/203/1 7/19/1 13/32/1 90/205/1
f 8/22/2 7/19/2 89/203/2 58/151/2 54/142/2 53/136/2
f 6/18/3 56/148/3 57/150/3
f 3/8/4 106/231/4 4/9/4 59/153/4 88/202/4
f 6/17/5 107/233/5 5/14/5 60/154/5 1/1/5 105/229/5 2/4/5 56/149/5
f 61/156/6 13/33/6 16/38/6 62/157/6
f 5/16/7 14/35/7 31/77/7 29/72/7
f 88/202/8 1/3/8 10/26/8 91/207/8
f 67/164/9 21/53/9 20/50/9 65/161/9
f 13/32/10 7/19/10 12/30/10 16/39/10
f 3/8/11 9/25/11 11/28/11 15/36/11
f 55/147/12 3/6/12 15/37/12 63/158/12
f 66/162/13 19/48/13 17/40/13 65/160/13
f 23/57/14 22/55/14 17/41/14 19/49/14
f 83/191/15 82/190/15 25/63/15 26/67/15
f 15/36/16 11/28/16 22/55/16 23/57/16
f 62/157/17 16/38/17 21/53/17 67/164/17
f 69/169/18 26/66/18 25/64/18 68/166/18
f 87/200/19 84/193/19 24/60/19 68/165/19
f 86/197/20 83/191/20 26/67/20 69/167/20
f 84/194/21 85/196/21 27/68/21 24/61/21
f 70/170/22 29/73/22 31/78/22 71/172/22
f 70/170/23 28/71/23 34/85/23 73/174/23
f 10/26/24 1/3/24 28/70/24 30/74/24
f 64/159/25 10/27/25 30/75/25 71/171/25
f 34/84/26 32/80/26 36/88/26 38/92/26
f 60/155/27 5/15/27 33/83/27 72/173/27
f 5/16/28 29/72/28 35/86/28 33/82/28
f 28/70/29 1/3/29 32/80/29 34/84/29
f 37/90/30 39/94/30 43/105/30 41/99/30
f 73/174/31 34/85/31 38/93/31 75/176/31
f 33/82/32 35/86/32 39/94/32 37/90/32
f 72/173/33 33/83/33 37/91/33 74/175/33
f 76/178/34 41/100/34 43/106/34 77/180/34
f 74/175/35 37/91/35 41/101/35 76/177/35
f 38/92/36 36/88/36 40/96/36 42/102/36
f 75/176/37 38/93/37 42/103/37 77/179/37
f 102/226/38 97/218/38 51/129/38 81/187/38
f 91/206/39 10/27/39 45/111/39 93/210/39
f 90/204/40 13/33/40 46/114/40 92/208/40
f 61/156/41 9/24/41 44/108/41 78/181/41
f 64/159/42 14/34/42 47/117/42 79/183/42
f 96/216/43 94/213/43 50/126/43 80/186/43
f 101/225/44 99/222/44 48/120/44 80/185/44
f 104/228/45 98/220/45 49/123/45 95/215/45
f 103/227/46 100/224/46 50/127/46 94/212/46
f 8/23/47 53/137/47 52/132/47
f 8/23/48 52/132/48 4/10/48 106/232/48 3/7/48 55/146/48 7/20/48
f 54/142/49 58/151/49 89/203/49 5/16/49 107/234/49 6/18/49 57/150/49
f 100/223/50 101/225/50 80/185/50 50/128/50
f 95/214/51 96/216/51 80/186/51 48/121/51
f 10/27/52 64/159/52 79/183/52 45/111/52
f 13/33/53 61/156/53 78/181/53 46/114/53
f 98/219/54 102/226/54 81/187/54 49/124/54
f 39/95/55 75/176/55 77/179/55 43/107/55
f 36/89/56 74/175/56 76/177/56 40/97/56
f 40/98/57 76/178/57 77/180/57 42/104/57
f 32/81/58 72/173/58 74/175/58 36/89/58
f 35/87/59 73/174/59 75/176/59 39/95/59
f 1/2/60 60/155/60 72/173/60 32/81/60
f 14/34/61 64/159/61 71/171/61 31/79/61
f 29/73/62 70/170/62 73/174/62 35/87/62
f 28/71/63 70/170/63 71/172/63 30/76/63
f 85/196/64 86/198/64 69/168/64 27/68/64
f 82/189/65 87/200/65 68/165/65 25/65/65
f 27/69/66 69/169/66 68/166/66 24/62/66
f 11/29/67 62/157/67 67/164/67 22/56/67
f 18/43/68 66/162/68 65/160/68 20/51/68
f 7/21/69 55/147/69 63/158/69 12/31/69
f 22/56/70 67/164/70 65/161/70 17/42/70
f 9/24/71 61/156/71 62/157/71 11/29/71
f 19/48/72 66/162/72 87/200/72 82/189/72
f 12/30/73 18/44/73 20/52/73 21/54/73 16/39/73
f 66/163/74 18/47/74 84/194/74 87/201/74
f 23/57/75 19/49/75 82/190/75 83/191/75
f 49/125/76 81/188/76 96/216/76 95/214/76
f 97/217/77 103/227/77 94/212/77 51/130/77
f 99/221/78 104/228/78 95/215/78 48/122/78
f 81/188/79 51/131/79 94/213/79 96/216/79
f 14/34/80 90/204/80 92/208/80 47/117/80
f 9/24/81 91/206/81 93/210/81 44/108/81
f 3/8/82 88/202/82 91/207/82 9/25/82
f 5/16/83 89/203/83 90/205/83 14/35/83
f 44/109/84 93/211/84 104/228/84 99/221/84
f 47/118/85 92/209/85 103/227/85 97/217/85
f 45/112/86 79/184/86 102/226/86 98/219/86
f 46/115/87 78/182/87 101/225/87 100/223/87
f 92/209/88 46/116/88 100/224/88 103/227/88
f 93/211/89 45/113/89 98/220/89 104/228/89
f 78/182/90 44/110/90 99/222/90 101/225/90
f 79/184/91 47/119/91 97/218/91 102/226/91
f 59/152/92 4/11/92 52/133/92 53/138/92 54/141/92 108/235/92
f 136/298/93 110/241/93 109/238/93 135/296/93
f 121/271/94 120/269/94 114/253/94 117/261/94
f 139/304/95 111/244/95 110/242/95 136/297/95
f 135/295/96 109/239/96 112/247/96 144/314/96
f 144/313/97 112/248/97 111/245/97 139/303/97
f 111/246/98 112/249/98 109/240/98 110/243/98
f 117/262/99 114/254/99 116/259/99 115/256/99 113/250/99
f 124/277/100 121/270/100 117/263/100 113/251/100
f 120/268/101 129/284/101 116/260/101 114/255/101
f 130/286/102 124/276/102 113/252/102 115/257/102
f 129/284/103 130/285/103 115/258/103 116/260/103
f 57/150/104 56/148/104 132/289/104 127/282/104
f 127/282/105 132/289/105 131/287/105 128/283/105
f 128/283/106 131/287/106 130/285/106 129/284/106
f 56/149/107 2/4/107 126/280/107 132/290/107
f 132/290/108 126/280/108 125/278/108 131/288/108
f 131/288/109 125/278/109 124/276/109 130/286/109
f 54/142/110 57/150/110 127/282/110 118/264/110
f 118/264/111 127/282/111 128/283/111 119/266/111
f 119/266/112 128/283/112 129/284/112 120/268/112
f 2/5/113 108/237/113 123/274/113 126/281/113
f 126/281/114 123/274/114 122/272/114 125/279/114
f 125/279/115 122/272/115 121/270/115 124/277/115
f 108/236/116 54/143/116 118/265/116 123/275/116
f 123/275/117 118/265/117 119/267/117 122/273/117
f 122/273/118 119/267/118 120/269/118 121/271/118
f 54/144/119 142/309/119 141/307/119 53/139/119
f 142/309/120 143/311/120 140/305/120 141/307/120
f 143/311/121 144/313/121 139/303/121 140/305/121
f 4/12/122 133/291/122 142/310/122 54/145/122
f 133/291/123 134/293/123 143/312/123 142/310/123
f 134/293/124 135/295/124 144/314/124 143/312/124
f 53/140/125 141/308/125 138/301/125 52/134/125
f 141/308/126 140/306/126 137/299/126 138/301/126
f 140/306/127 139/304/127 136/297/127 137/299/127
f 52/135/128 138/302/128 133/292/128 4/13/128
f 138/302/129 137/300/129 134/294/129 133/292/129
f 137/300/130 136/298/130 135/296/130 134/294/130
f 105/230/131 1/3/131 88/202/131 59/153/131 108/237/131 2/5/131
f 86/199/132 85/195/132 83/192/132
f 83/192/133 85/195/133 18/45/133 23/58/133
f 63/158/134 15/37/134 23/59/134 18/46/134 12/31/134
f 84/194/135 18/47/135 85/196/135
l 52 106
