# Blender 3.3.1
# www.blender.org
mtllib monstruo_3_caminar579.mtl
o monstruo_grande
v 0.408392 2.020803 0.214578
v 0.525708 1.146743 0.051162
v -0.682263 1.809101 0.087129
v -0.294878 1.204647 0.219646
v 0.683668 2.275493 -0.074928
v 0.580428 1.621701 -0.229193
v -0.753261 1.985202 -0.371254
v -0.688216 1.671313 -0.392506
v -0.299177 2.439099 0.347479
v 0.251558 2.316611 0.386477
v -0.443932 2.420344 0.436801
v -1.122666 2.062388 -0.263892
v -0.249918 2.576458 -0.018323
v 0.289527 2.440074 0.117857
v -0.997126 1.937782 -0.071169
v -0.408839 2.655711 -0.018723
v -0.805688 2.356233 0.419568
v -1.447697 2.022064 -0.036165
v -1.196497 2.065320 0.202208
v -0.937647 2.650940 0.105428
v -0.594338 2.706151 0.024261
v -0.522577 2.378882 0.410252
v -1.127865 1.961106 -0.093749
v -1.904438 0.817065 0.650522
v -1.784779 0.788857 0.707586
v -1.764987 0.606102 0.513031
v -1.838024 0.623319 0.478201
v 0.377623 2.221972 0.388025
v 0.558315 2.396786 0.167620
v 0.359819 2.340425 0.393285
v 0.418211 2.457098 0.168939
v 0.614675 1.918820 0.282678
v 0.815479 1.930410 0.193553
v 0.646705 1.976475 0.334324
v 0.783689 2.067853 0.222111
v 0.698431 1.678391 0.439476
v 0.807762 1.673779 0.407174
v 0.731408 1.690544 0.539499
v 0.840992 1.691319 0.503567
v 0.668700 1.568000 0.546553
v 0.895833 1.569067 0.474855
v 0.669334 1.568797 0.743640
v 1.012197 1.568955 0.630839
v -0.137410 2.484688 0.386199
v 0.071785 2.454837 0.390686
v -0.111561 2.568702 0.133297
v 0.090486 2.537097 0.142043
v -0.082976 2.799868 0.525832
v 0.123001 2.729916 0.501505
v -0.078661 2.903089 0.267518
v 0.126350 2.833526 0.242243
v -0.500971 1.170932 0.020622
v -0.391122 1.144024 -0.193574
v -0.034924 1.256855 -0.338342
v -0.719522 1.829190 -0.145886
v 0.544105 1.251567 -0.158709
v 0.326336 1.293435 -0.276879
v 0.036416 1.506325 -0.345989
v -0.024667 1.126607 0.186251
v 0.508640 2.092461 0.116354
v -0.275408 2.487684 0.219713
v -0.436091 2.654990 0.254723
v -0.918034 1.991290 -0.187764
v 0.248374 2.438336 0.275623
v -0.814967 2.578354 0.351360
v -1.369544 2.177146 0.211319
v -0.588229 2.644742 0.232923
v -1.858540 0.803569 0.708568
v -1.783454 0.495406 0.398790
v 0.493521 2.319861 0.318343
v 0.390997 2.445540 0.301069
v 0.691778 1.898137 0.193101
v 0.743528 2.030432 0.323975
v 0.753184 1.678068 0.421803
v 0.786175 1.690569 0.521481
v 0.775409 1.561296 0.488576
v 0.827192 1.555365 0.645966
v -0.126628 2.525489 0.258221
v 0.078713 2.497648 0.265310
v -0.112060 2.853437 0.397173
v 0.156139 2.780126 0.372058
v -1.632067 1.101821 0.653566
v -1.698436 0.930488 0.587084
v -1.841160 1.120754 0.556880
v -1.811064 0.957038 0.533374
v -1.761312 0.775144 0.490638
v -1.764699 1.095593 0.656144
v -0.064426 1.816804 0.454552
v 0.186511 2.133029 -0.264610
v 0.109966 2.526933 -0.035681
v -0.009564 2.325944 0.528663
v -0.015263 2.551904 0.135731
v -0.027162 2.467208 0.387658
v 0.024296 2.883404 0.215501
v 0.019313 2.749401 0.552297
v 0.025569 2.867963 0.405489
v 0.120918 2.695693 0.166540
v 0.112110 2.581630 0.462199
v -0.124136 2.635382 0.479361
v -0.117630 2.750312 0.180166
v -0.137935 2.694466 0.330555
v 0.131442 2.638701 0.314043
v 0.001117 2.730479 0.152397
v -0.005124 2.599201 0.491163
v 0.480184 1.658374 0.068064
v -0.589213 1.533219 0.142561
v 0.616001 1.834264 -0.209579
v 0.172036 1.075668 0.159673
v -0.202697 0.047405 0.147166
v -0.347550 0.057507 0.268940
v -0.372401 0.050310 0.018341
v -0.237205 0.044291 0.004295
v 0.365759 0.041540 -0.405676
v 0.291261 0.055450 -0.479534
v 0.374485 0.048296 -0.443708
v 0.342530 0.052566 -0.469272
v 0.307023 0.040535 -0.394620
v 0.092957 0.916140 -0.254886
v 0.166930 0.649515 -0.289624
v 0.229569 0.358319 -0.362537
v 0.268197 0.279565 -0.203137
v 0.233479 0.485152 -0.050198
v 0.220370 0.732387 0.077932
v 0.389513 0.297421 -0.225682
v 0.437893 0.519705 -0.085905
v 0.501867 0.834421 0.039412
v 0.347620 0.951579 -0.231875
v 0.347122 0.645806 -0.262467
v 0.336754 0.355370 -0.344799
v 0.404892 0.335889 -0.297149
v 0.462398 0.615645 -0.184799
v 0.519079 0.929967 -0.126091
v -0.169218 0.967950 0.373279
v -0.147791 0.665079 0.365370
v -0.146003 0.418040 0.371045
v -0.431199 0.407813 0.360934
v -0.439057 0.682520 0.310500
v -0.459390 0.934708 0.259734
v -0.464070 0.413736 0.090944
v -0.470236 0.684456 0.042085
v -0.479009 0.891093 -0.013374
v -0.083445 0.844402 -0.040500
v -0.127178 0.656020 0.002369
v -0.171950 0.451504 0.054681
vn 0.0215 0.5015 -0.8649
vn 0.0245 -0.0366 -0.9990
vn 0.4350 -0.2095 -0.8758
vn -0.3386 -0.1851 0.9225
vn 0.9186 -0.1061 0.3806
vn 0.6121 0.7658 0.1971
vn 0.2193 0.8817 -0.4178
vn 0.4933 -0.1965 0.8474
vn -0.0949 0.9473 0.3061
vn -0.0356 0.4793 -0.8769
vn -0.2311 -0.4137 0.8806
vn -0.4082 -0.8822 -0.2346
vn -0.3409 -0.0198 0.9399
vn 0.2361 -0.8360 0.4954
vn 0.9070 -0.3206 0.2731
vn -0.1127 -0.6748 0.7293
vn 0.1253 0.9833 0.1322
vn -0.0907 -0.7221 0.6858
vn -0.7005 0.3388 0.6281
vn 0.9542 -0.0596 -0.2932
vn -0.8253 0.0831 -0.5585
vn 0.5390 0.7379 0.4062
vn 0.2487 0.1554 0.9560
vn -0.3809 -0.4947 0.7812
vn -0.1756 0.6686 0.7226
vn -0.9160 -0.0176 0.4007
vn -0.1012 -0.5775 -0.8101
vn 0.8738 0.4843 0.0443
vn -0.4483 -0.5853 0.6756
vn 0.7540 0.4505 -0.4780
vn -0.0330 0.5361 0.8435
vn 0.9979 0.0351 -0.0550
vn 0.0477 -0.6765 -0.7349
vn 0.0646 -0.9965 -0.0539
vn -0.1218 -0.5587 -0.8204
vn -0.8855 0.4577 0.0802
vn 0.3653 0.7218 0.5878
vn 0.9872 -0.0317 -0.1561
vn 0.3218 0.5898 0.7407
vn 0.1418 0.9882 -0.0584
vn -0.3126 0.9090 0.2755
vn 0.3886 0.8983 0.2048
vn 0.0582 0.9771 0.2048
vn -0.9705 0.1302 0.2029
vn 0.2696 -0.3356 0.9026
vn -0.2247 0.4667 -0.8554
vn -0.7669 -0.5542 -0.3237
vn -0.9274 -0.3091 0.2108
vn 0.2167 0.0852 -0.9725
vn -0.9648 0.2462 -0.0923
vn 0.0509 0.8488 0.5262
vn 0.4118 0.7447 0.5252
vn -0.2923 0.9088 0.2978
vn 0.9792 -0.1615 0.1227
vn 0.0523 0.7198 0.6923
vn -0.3723 -0.5563 -0.7429
vn -0.0776 -0.9970 -0.0030
vn -0.5471 -0.6320 -0.5489
vn 0.5917 0.5035 0.6296
vn -0.3665 -0.7505 -0.5499
vn -0.0954 0.9952 0.0231
vn 0.6517 0.5516 0.5205
vn 0.5016 0.2874 0.8160
vn -0.3372 0.2449 -0.9090
vn 0.0237 0.1638 0.9862
vn -0.7245 -0.5727 0.3836
vn -0.2865 0.5368 0.7936
vn -0.7081 0.6844 0.1738
vn -0.3986 -0.8559 -0.3296
vn 0.1388 0.4621 0.8759
vn 0.5340 0.5962 0.5995
vn 0.1541 0.3434 0.9265
vn -0.3359 0.5547 -0.7613
vn -0.8639 0.4558 0.2144
vn 0.9142 -0.3199 0.2489
vn 0.5029 0.7039 0.5017
vn 0.3073 0.3852 -0.8702
vn -0.2633 -0.2625 0.9283
vn 0.5077 0.8511 0.1339
vn 0.3436 0.9390 -0.0160
vn -0.1774 0.5743 0.7992
vn -0.5210 -0.0499 0.8521
vn 0.2689 0.7144 -0.6460
vn -0.1755 -0.5474 0.8183
vn 0.1127 0.1050 -0.9881
vn 0.9478 -0.3180 -0.0251
vn -0.9916 -0.0052 -0.1293
vn -0.0857 0.1755 -0.9808
vn 0.0210 -0.5636 0.8258
vn -0.9999 0.0004 0.0111
vn 0.9653 -0.2474 -0.0837
vn -0.0384 -0.9958 -0.0832
vn 0.2323 -0.3830 0.8941
vn -0.9617 -0.2465 0.1196
vn -0.9596 -0.2604 0.1070
vn 0.9849 -0.1062 -0.1367
vn -0.1267 0.1521 -0.9802
vn -0.0417 -0.9986 0.0325
vn -0.0143 -0.9856 -0.1683
vn 0.2076 -0.5832 0.7854
vn 0.1745 0.3814 -0.9078
vn 0.9735 -0.1809 0.1396
vn 0.6081 0.3101 -0.7308
vn 0.4831 -0.1044 -0.8693
vn 0.5465 0.0698 -0.8345
vn 0.5889 0.1975 -0.7837
vn 0.9957 -0.0750 0.0544
vn 0.9811 -0.1927 0.0153
vn 0.9723 -0.2288 0.0472
vn 0.1516 -0.1507 -0.9769
vn 0.1046 0.1260 -0.9865
vn 0.1548 0.2677 -0.9510
vn 0.2564 -0.1271 0.9582
vn 0.2506 -0.4168 0.8738
vn 0.2321 -0.5543 0.7993
vn -0.9326 -0.2396 0.2701
vn -0.9565 -0.2220 0.1891
vn -0.9650 -0.2387 0.1090
vn -0.1377 -0.5591 -0.8176
vn -0.1110 -0.2308 -0.9667
vn -0.1135 -0.1980 -0.9736
vn 0.9015 0.3141 0.2977
vn 0.9893 -0.0349 0.1414
vn 0.9953 -0.0962 -0.0113
vn -0.9832 -0.0560 -0.1739
vn -0.9945 -0.0408 0.0964
vn -0.9930 -0.0040 0.1181
vn -0.5223 0.4279 0.7376
vn -0.2792 0.0530 0.9588
vn -0.1101 0.1043 0.9884
vn 0.4261 -0.1774 0.8871
vn 0.4683 0.3215 -0.8230
vn -0.1039 -0.4750 -0.8738
vn -0.1762 -0.8482 -0.4996
vn -0.7895 -0.0574 -0.6110
vt 0.461701 0.809397
vt 0.301930 0.729761
vt 0.094158 0.499911
vt 0.498737 0.648456
vt 0.250869 0.553264
vt 0.714874 0.752530
vt 0.627854 0.740386
vt 0.227533 0.339544
vt 0.300362 0.438253
vt 0.625828 0.633709
vt 0.338991 0.679376
vt 0.653754 0.621457
vt 0.189641 0.785401
vt 0.531284 0.815038
vt 0.232114 0.729761
vt 0.806952 0.326283
vt 0.527824 0.712310
vt 0.703640 0.331352
vt 0.725736 0.123548
vt 0.557184 0.740386
vt 0.714874 0.681901
vt 0.693091 0.138725
vt 0.558638 0.706064
vt 0.944491 0.391302
vt 0.108931 0.369345
vt 0.090202 0.443431
vt 0.952837 0.467016
vt 0.108059 0.346292
vt 0.960024 0.371234
vt 0.653754 0.712739
vt 0.761990 0.055860
vt 0.265996 0.788213
vt 0.829683 0.188590
vt 0.886815 0.394232
vt 0.909606 0.471204
vt 0.826550 0.267021
vt 0.659457 0.749480
vt 0.206417 0.267620
vt 0.238389 0.812575
vt 0.882743 0.373659
vt 0.837846 0.166681
vt 0.102618 0.289588
vt 0.957957 0.321520
vt 0.918648 0.216117
vt 0.803322 0.012950
vt 0.106348 0.638847
vt 0.232551 0.755661
vt 0.798789 0.485160
vt 0.965752 0.239402
vt 0.153968 0.222285
vt 0.894228 0.312474
vt 0.856067 0.102710
vt 0.881967 0.351902
vt 0.842627 0.144082
vt 0.107159 0.331692
vt 0.958812 0.358201
vt 0.199778 0.246429
vt 0.138792 0.619338
vt 0.232114 0.797406
vt 0.967580 0.012950
vt 0.753483 0.682459
vt 0.843831 0.469074
vt 0.256421 0.022764
vt 0.824689 0.472884
vt 0.987050 0.016155
vt 0.832147 0.505580
vt 0.295109 0.018166
vt 0.782932 0.707368
vt 0.843831 0.503254
vt 0.076417 0.467161
vt 0.958695 0.494573
vt 0.833773 0.298242
vt 0.909847 0.503107
vt 0.076958 0.454690
vt 0.951531 0.482650
vt 0.837149 0.281767
vt 0.912926 0.487172
vt 0.064432 0.532285
vt 0.298790 0.687460
vt 0.825577 0.362572
vt 0.264894 0.686125
vt 0.056614 0.518895
vt 0.959622 0.549977
vt 0.837123 0.350740
vt 0.929664 0.555276
vt 0.051257 0.577890
vt 0.291936 0.641182
vt 0.824256 0.407314
vt 0.275162 0.640522
vt 0.035793 0.577862
vt 0.964581 0.612577
vt 0.838997 0.411720
vt 0.948088 0.615681
vt 0.039898 0.592711
vt 0.301778 0.620707
vt 0.403076 0.772170
vt 0.830596 0.428615
vt 0.403076 0.737417
vt 0.267017 0.619338
vt 0.012950 0.593438
vt 0.987050 0.637067
vt 0.428919 0.781443
vt 0.856067 0.440612
vt 0.428919 0.728949
vt 0.935424 0.646785
vt 0.945356 0.412724
vt 0.357115 0.854737
vt 0.331665 0.779032
vt 0.948027 0.441601
vt 0.799629 0.752473
vt 0.327972 0.853161
vt 0.906904 0.416128
vt 0.370069 0.779032
vt 0.684668 0.778429
vt 0.909575 0.445005
vt 0.655249 0.778999
vt 0.799629 0.791035
vt 0.330193 0.729131
vt 0.557184 0.775635
vt 0.363063 0.804932
vt 0.331684 0.807874
vt 0.754247 0.751428
vt 0.586563 0.768755
vt 0.566112 0.815056
vt 0.689281 0.828405
vt 0.370405 0.729131
vt 0.754247 0.791805
vt 0.657717 0.824383
vt 0.595492 0.808176
vt 0.327830 0.637821
vt 0.590400 0.642651
vt 0.164818 0.789976
vt 0.357235 0.619338
vt 0.642851 0.190721
vt 0.562581 0.649581
vt 0.406824 0.626953
vt 0.080449 0.619338
vt 0.646201 0.239681
vt 0.727583 0.656002
vt 0.597847 0.731399
vt 0.712829 0.722239
vt 0.658284 0.323708
vt 0.527919 0.666449
vt 0.661748 0.291537
vt 0.680225 0.245582
vt 0.377645 0.696957
vt 0.285191 0.477898
vt 0.483372 0.812325
vt 0.280072 0.728266
vt 0.924330 0.393087
vt 0.921760 0.373660
vt 0.678504 0.727397
vt 0.268491 0.812575
vt 0.930826 0.465310
vt 0.923786 0.327561
vt 0.941993 0.227167
vt 0.764056 0.466512
vt 0.919524 0.351927
vt 0.977463 0.013354
vt 0.833186 0.466512
vt 0.317617 0.012950
vt 0.798789 0.722800
vt 0.839639 0.522681
vt 0.934403 0.500152
vt 0.932138 0.484309
vt 0.281656 0.689101
vt 0.944784 0.554368
vt 0.283549 0.640852
vt 0.956335 0.614129
vt 0.284323 0.620942
vt 0.399765 0.754789
vt 0.961112 0.640376
vt 0.422297 0.755187
vt 0.926130 0.414426
vt 0.350867 0.779032
vt 0.928801 0.443303
vt 0.799629 0.771754
vt 0.350773 0.728949
vt 0.557184 0.796361
vt 0.753483 0.771844
vt 0.595492 0.787450
vt 0.985581 0.067358
vt 0.238180 0.070710
vt 0.259592 0.052321
vt 0.138792 0.821791
vt 0.953366 0.057503
vt 0.765454 0.639660
vt 0.120235 0.821584
vt 0.772730 0.660154
vt 0.283154 0.037949
vt 0.784440 0.682652
vt 0.128680 0.843910
vt 0.970110 0.058056
vt 0.758353 0.637393
vt 0.180368 0.432154
vt 0.759258 0.257498
vt 0.884976 0.446549
vt 0.828099 0.241547
vt 0.971226 0.428512
vt 0.101516 0.405509
vt 0.908240 0.430567
vt 0.669958 0.778714
vt 0.946692 0.427163
vt 0.342544 0.853949
vt 0.673120 0.826722
vt 0.582140 0.817526
vt 0.570535 0.766286
vt 0.348248 0.806122
vt 0.576699 0.792002
vt 0.653753 0.802281
vt 0.776512 0.794925
vt 0.776512 0.748700
vt 0.327830 0.829868
vt 0.363063 0.830170
vt 0.327830 0.753980
vt 0.373865 0.753980
vt 0.689281 0.803194
vt 0.351093 0.753886
vt 0.776117 0.771930
vt 0.671321 0.802907
vt 0.345899 0.829874
vt 0.457498 0.727404
vt 0.165986 0.548054
vt 0.260364 0.376248
vt 0.625887 0.695531
vt 0.520555 0.743605
vt 0.734596 0.339638
vt 0.406824 0.703049
vt 0.012950 0.651015
vt 0.277407 0.507014
vt 0.206214 0.619338
vt 0.706517 0.466512
vt 0.399765 0.822801
vt 0.181517 0.620770
vt 0.619265 0.470337
vt 0.422433 0.807343
vt 0.582936 0.466512
vt 0.458892 0.202188
vt 0.422433 0.843958
vt 0.727583 0.468029
vt 0.460639 0.221880
vt 0.402692 0.843997
vt 0.717439 0.778459
vt 0.429089 0.593438
vt 0.518160 0.466685
vt 0.070962 0.817001
vt 0.726094 0.791097
vt 0.457498 0.298878
vt 0.715181 0.783741
vt 0.523936 0.466512
vt 0.458951 0.311476
vt 0.719061 0.788282
vt 0.458165 0.306435
vt 0.058766 0.817583
vt 0.726094 0.778429
vt 0.431598 0.585369
vt 0.599953 0.261833
vt 0.080449 0.668491
vt 0.542336 0.274386
vt 0.076079 0.728305
vt 0.500395 0.287212
vt 0.064936 0.773359
vt 0.389801 0.564275
vt 0.039540 0.774208
vt 0.356388 0.547019
vt 0.031995 0.737396
vt 0.319737 0.531779
vt 0.030523 0.696843
vt 0.505723 0.512116
vt 0.384015 0.580847
vt 0.506522 0.550736
vt 0.346302 0.574833
vt 0.507607 0.604105
vt 0.294291 0.566034
vt 0.610540 0.298468
vt 0.545535 0.300686
vt 0.502363 0.302883
vt 0.504402 0.313331
vt 0.517745 0.511765
vt 0.548610 0.318269
vt 0.527842 0.556627
vt 0.609940 0.323717
vt 0.531284 0.618364
vt 0.660591 0.582499
vt 0.204501 0.743892
vt 0.668589 0.550878
vt 0.206214 0.710848
vt 0.668004 0.517120
vt 0.204545 0.678125
vt 0.623877 0.525891
vt 0.164692 0.675333
vt 0.610236 0.563455
vt 0.167167 0.712219
vt 0.605277 0.597358
vt 0.166352 0.745757
vt 0.511839 0.183186
vt 0.584607 0.521652
vt 0.552303 0.182624
vt 0.569857 0.561129
vt 0.598009 0.178631
vt 0.565182 0.606784
vt 0.592158 0.236754
vt 0.721184 0.600612
vt 0.550092 0.232946
vt 0.722606 0.558204
vt 0.518921 0.225772
vt 0.713819 0.525134
s 0
usemtl Material
f 89/196/1 7/19/1 13/33/1 90/198/1
f 8/22/2 7/19/2 89/196/2 58/145/2 54/138/2 53/134/2
f 6/18/3 56/142/3 57/144/3
f 3/8/4 106/224/4 4/9/4 59/147/4 88/195/4
f 6/17/5 107/226/5 5/14/5 60/148/5 1/1/5 105/222/5 2/4/5 56/143/5
f 61/150/6 13/34/6 16/40/6 62/151/6
f 5/16/7 14/36/7 31/76/7 29/72/7
f 88/195/8 1/3/8 10/26/8 91/200/8
f 67/158/9 21/53/9 20/51/9 65/155/9
f 13/33/10 7/19/10 12/31/10 16/41/10
f 3/8/11 9/25/11 11/28/11 15/38/11
f 55/141/12 3/6/12 15/37/12 63/152/12
f 66/156/13 19/49/13 17/43/13 65/155/13
f 23/57/14 22/55/14 17/42/14 19/50/14
f 83/184/15 82/183/15 25/63/15 26/67/15
f 15/38/16 11/28/16 22/55/16 23/57/16
f 62/151/17 16/40/17 21/53/17 67/158/17
f 69/163/18 26/66/18 25/64/18 68/160/18
f 87/193/19 84/186/19 24/60/19 68/159/19
f 86/190/20 83/184/20 26/67/20 69/161/20
f 84/187/21 85/189/21 27/68/21 24/61/21
f 70/164/22 29/73/22 31/77/22 71/165/22
f 70/164/23 28/71/23 34/83/23 73/167/23
f 10/26/24 1/3/24 28/70/24 30/74/24
f 64/154/25 10/27/25 30/75/25 71/165/25
f 34/82/26 32/78/26 36/86/26 38/90/26
f 60/149/27 5/15/27 33/81/27 72/166/27
f 5/16/28 29/72/28 35/84/28 33/80/28
f 28/70/29 1/3/29 32/78/29 34/82/29
f 37/88/30 39/92/30 43/103/30 41/97/30
f 73/167/31 34/83/31 38/91/31 75/169/31
f 33/80/32 35/84/32 39/92/32 37/88/32
f 72/166/33 33/81/33 37/89/33 74/168/33
f 76/171/34 41/98/34 43/104/34 77/173/34
f 74/168/35 37/89/35 41/99/35 76/170/35
f 38/90/36 36/86/36 40/94/36 42/100/36
f 75/169/37 38/91/37 42/101/37 77/172/37
f 102/219/38 97/211/38 51/127/38 81/180/38
f 91/199/39 10/27/39 45/109/39 93/203/39
f 90/197/40 13/34/40 46/112/40 92/201/40
f 61/150/41 9/24/41 44/106/41 78/174/41
f 64/154/42 14/35/42 47/115/42 79/176/42
f 96/209/43 94/206/43 50/124/43 80/179/43
f 101/218/44 99/215/44 48/118/44 80/178/44
f 104/221/45 98/213/45 49/121/45 95/208/45
f 103/220/46 100/217/46 50/125/46 94/205/46
f 8/23/47 53/135/47 52/131/47
f 8/23/48 52/131/48 4/10/48 106/225/48 3/7/48 55/140/48 7/20/48
f 54/138/49 58/145/49 89/196/49 5/16/49 107/227/49 6/18/49 57/144/49
f 100/216/50 101/218/50 80/178/50 50/126/50
f 95/207/51 96/209/51 80/179/51 48/119/51
f 10/27/52 64/154/52 79/176/52 45/109/52
f 13/34/53 61/150/53 78/174/53 46/112/53
f 98/212/54 102/219/54 81/180/54 49/122/54
f 39/93/55 75/169/55 77/172/55 43/105/55
f 36/87/56 74/168/56 76/170/56 40/95/56
f 40/96/57 76/171/57 77/173/57 42/102/57
f 32/79/58 72/166/58 74/168/58 36/87/58
f 35/85/59 73/167/59 75/169/59 39/93/59
f 1/2/60 60/149/60 72/166/60 32/79/60
f 14/35/61 64/154/61 71/165/61 31/77/61
f 29/73/62 70/164/62 73/167/62 35/85/62
f 28/71/63 70/164/63 71/165/63 30/75/63
f 85/189/64 86/191/64 69/162/64 27/68/64
f 82/182/65 87/193/65 68/159/65 25/65/65
f 27/69/66 69/163/66 68/160/66 24/62/66
f 11/29/67 62/151/67 67/158/67 22/56/67
f 18/44/68 66/156/68 65/155/68 20/51/68
f 7/21/69 55/141/69 63/152/69 12/30/69
f 22/56/70 67/158/70 65/155/70 17/43/70
f 9/24/71 61/150/71 62/151/71 11/29/71
f 19/49/72 66/156/72 87/193/72 82/182/72
f 12/31/73 18/45/73 20/52/73 21/54/73 16/41/73
f 66/157/74 18/48/74 84/187/74 87/194/74
f 23/57/75 19/50/75 82/183/75 83/184/75
f 49/123/76 81/181/76 96/209/76 95/207/76
f 97/210/77 103/220/77 94/205/77 51/128/77
f 99/214/78 104/221/78 95/208/78 48/120/78
f 81/181/79 51/129/79 94/206/79 96/209/79
f 14/35/80 90/197/80 92/201/80 47/115/80
f 9/24/81 91/199/81 93/203/81 44/106/81
f 3/8/82 88/195/82 91/200/82 9/25/82
f 5/16/83 89/196/83 90/198/83 14/36/83
f 44/107/84 93/204/84 104/221/84 99/214/84
f 47/116/85 92/202/85 103/220/85 97/210/85
f 45/110/86 79/177/86 102/219/86 98/212/86
f 46/113/87 78/175/87 101/218/87 100/216/87
f 92/202/88 46/114/88 100/217/88 103/220/88
f 93/204/89 45/111/89 98/213/89 104/221/89
f 78/175/90 44/108/90 99/215/90 101/218/90
f 79/177/91 47/117/91 97/211/91 102/219/91
f 59/146/92 4/11/92 52/130/92 53/133/92 54/136/92 108/228/92
f 136/291/93 110/234/93 109/231/93 135/289/93
f 121/264/94 120/262/94 114/246/94 117/254/94
f 139/297/95 111/237/95 110/235/95 136/290/95
f 135/288/96 109/232/96 112/240/96 144/307/96
f 144/306/97 112/241/97 111/238/97 139/296/97
f 111/239/98 112/242/98 109/233/98 110/236/98
f 117/255/99 114/247/99 116/252/99 115/249/99 113/243/99
f 124/270/100 121/263/100 117/256/100 113/244/100
f 120/261/101 129/277/101 116/253/101 114/248/101
f 130/279/102 124/269/102 113/245/102 115/250/102
f 129/277/103 130/278/103 115/251/103 116/253/103
f 57/144/104 56/142/104 132/282/104 127/275/104
f 127/275/105 132/282/105 131/280/105 128/276/105
f 128/276/106 131/280/106 130/278/106 129/277/106
f 56/143/107 2/4/107 126/273/107 132/283/107
f 132/283/108 126/273/108 125/271/108 131/281/108
f 131/281/109 125/271/109 124/269/109 130/279/109
f 54/138/110 57/144/110 127/275/110 118/257/110
f 118/257/111 127/275/111 128/276/111 119/259/111
f 119/259/112 128/276/112 129/277/112 120/261/112
f 2/5/113 108/230/113 123/267/113 126/274/113
f 126/274/114 123/267/114 122/265/114 125/272/114
f 125/272/115 122/265/115 121/263/115 124/270/115
f 108/229/116 54/137/116 118/258/116 123/268/116
f 123/268/117 118/258/117 119/260/117 122/266/117
f 122/266/118 119/260/118 120/262/118 121/264/118
f 54/138/119 142/302/119 141/300/119 53/134/119
f 142/302/120 143/304/120 140/298/120 141/300/120
f 143/304/121 144/306/121 139/296/121 140/298/121
f 4/12/122 133/284/122 142/303/122 54/139/122
f 133/284/123 134/286/123 143/305/123 142/303/123
f 134/286/124 135/288/124 144/307/124 143/305/124
f 53/135/125 141/301/125 138/294/125 52/131/125
f 141/301/126 140/299/126 137/292/126 138/294/126
f 140/299/127 139/297/127 136/290/127 137/292/127
f 52/132/128 138/295/128 133/285/128 4/13/128
f 138/295/129 137/293/129 134/287/129 133/285/129
f 137/293/130 136/291/130 135/289/130 134/287/130
f 105/223/131 1/3/131 88/195/131 59/147/131 108/230/131 2/5/131
f 86/192/132 85/188/132 83/185/132
f 83/185/133 85/188/133 18/46/133 23/58/133
f 63/153/134 15/39/134 23/59/134 18/47/134 12/32/134
f 84/187/135 18/48/135 85/189/135
l 52 106
