# Blender 3.3.1
# www.blender.org
mtllib monstruo_3_caminar653.mtl
o monstruo_grande
v 0.483908 1.973801 0.326923
v 0.517766 1.133274 0.105368
v -0.643722 1.805887 0.174744
v -0.310892 1.159704 0.215053
v 0.746780 2.251209 0.040712
v 0.604238 1.559034 -0.242309
v -0.745087 2.016979 -0.251119
v -0.674204 1.737624 -0.319347
v -0.242945 2.385583 0.485042
v 0.306295 2.262289 0.496927
v -0.378987 2.355508 0.576794
v -1.097628 2.046255 -0.106985
v -0.214399 2.564801 0.134167
v 0.345461 2.403001 0.234752
v -0.948363 1.919156 0.052842
v -0.377104 2.641379 0.152834
v -0.725995 2.270890 0.574918
v -1.390705 1.948361 0.153272
v -1.119375 1.992388 0.357328
v -0.902000 2.593488 0.314513
v -0.566018 2.680919 0.216681
v -0.450020 2.313403 0.547536
v -1.077702 1.926780 0.048423
v -1.676602 0.685002 0.821445
v -1.552184 0.667054 0.872123
v -1.521764 0.497912 0.666919
v -1.597705 0.508868 0.635986
v 0.435393 2.171350 0.498644
v 0.611952 2.360679 0.285798
v 0.414079 2.285816 0.506384
v 0.474217 2.416546 0.289244
v 0.709912 1.867943 0.410052
v 0.900575 1.932223 0.305607
v 0.721247 1.941383 0.458255
v 0.853946 2.049476 0.346681
v 0.873526 1.646967 0.521940
v 0.979370 1.670209 0.486015
v 0.911698 1.644377 0.620619
v 1.015937 1.674937 0.581327
v 0.873551 1.513112 0.602921
v 1.090654 1.575532 0.525047
v 0.890226 1.472808 0.795123
v 1.216681 1.564602 0.671514
v -0.079171 2.431188 0.516160
v 0.129874 2.399171 0.510403
v -0.061523 2.539964 0.273073
v 0.143761 2.503659 0.269319
v -0.022897 2.733306 0.679204
v 0.182409 2.664485 0.647193
v -0.019753 2.858728 0.430975
v 0.184730 2.790286 0.397975
v -0.509706 1.189754 -0.001178
v -0.389217 1.197999 -0.211666
v -0.042375 1.277049 -0.333179
v -0.695914 1.851069 -0.050347
v 0.543384 1.141316 -0.133352
v 0.327734 1.156886 -0.261891
v 0.033065 1.525451 -0.320949
v -0.030830 1.146296 0.197406
v 0.579715 2.053512 0.233886
v -0.226196 2.448545 0.362341
v -0.385908 2.608677 0.424293
v -0.887007 1.998740 -0.061417
v 0.305351 2.391117 0.393974
v -0.751367 2.499283 0.541886
v -1.295858 2.093420 0.396824
v -0.538528 2.597858 0.410141
v -1.626974 0.673579 0.876805
v -1.533427 0.391960 0.547404
v 0.546832 2.278448 0.433517
v 0.446786 2.396491 0.421234
v 0.786767 1.871573 0.310438
v 0.814680 2.006793 0.447866
v 0.925825 1.661120 0.502576
v 0.963845 1.659040 0.600874
v 0.974523 1.539995 0.540672
v 1.039270 1.511699 0.690656
v -0.071441 2.484879 0.392991
v 0.134366 2.453119 0.389004
v -0.052576 2.798108 0.555963
v 0.215063 2.725557 0.522343
v -1.436264 0.997164 0.829992
v -1.486908 0.823319 0.756558
v -1.650148 0.998808 0.743755
v -1.604015 0.840212 0.708858
v -1.537129 0.667285 0.653998
v -1.567227 0.976411 0.837372
v -0.016968 1.756283 0.513436
v 0.208818 2.134207 -0.184185
v 0.152783 2.511503 0.089718
v 0.045115 2.263807 0.637181
v 0.036171 2.521691 0.269076
v 0.029940 2.413622 0.511629
v 0.082759 2.843043 0.376699
v 0.079240 2.680087 0.700329
v 0.085207 2.811003 0.564408
v 0.177540 2.659556 0.309968
v 0.170956 2.519856 0.594864
v -0.065151 2.573741 0.619123
v -0.060864 2.714809 0.332101
v -0.079722 2.645848 0.476441
v 0.189251 2.589642 0.452031
v 0.057618 2.696611 0.300850
v 0.053492 2.535912 0.626517
v 0.562113 1.642054 -0.006560
v -0.564867 1.528230 0.199051
v 0.661699 1.770029 -0.215712
v 0.161879 1.144661 0.208061
v -0.283806 0.250779 -0.449713
v -0.425701 0.174016 -0.350077
v -0.456826 0.329170 -0.545866
v -0.321980 0.339532 -0.560725
v 0.252501 -0.006737 0.090774
v 0.181583 -0.020128 0.013061
v 0.263268 -0.011980 0.053001
v 0.232647 -0.017433 0.025987
v 0.193008 -0.006733 0.098918
v 0.061868 0.847102 -0.080239
v 0.105083 0.613359 -0.003449
v 0.126559 0.311175 0.022515
v 0.154328 0.286750 0.200655
v 0.148206 0.534598 0.274110
v 0.169163 0.810091 0.311240
v 0.276925 0.280114 0.178962
v 0.355763 0.529240 0.239776
v 0.460458 0.853866 0.245687
v 0.317096 0.848031 -0.052720
v 0.283120 0.596610 0.030840
v 0.232478 0.300659 0.045048
v 0.297356 0.289819 0.099511
v 0.393408 0.581156 0.118932
v 0.486232 0.859893 0.056810
v -0.225788 0.873117 0.306046
v -0.228713 0.578295 0.128472
v -0.244088 0.376092 -0.035675
v -0.527367 0.403374 -0.056745
v -0.512143 0.653356 0.087151
v -0.508321 0.901788 0.177542
v -0.536696 0.582693 -0.262017
v -0.519833 0.811385 -0.115407
v -0.511169 0.931895 -0.086231
v -0.120508 0.857691 -0.100655
v -0.177702 0.773626 -0.150401
v -0.240413 0.603714 -0.258776
vn -0.0145 0.5852 -0.8108
vn -0.0140 0.0902 -0.9958
vn 0.4752 -0.2862 -0.8320
vn -0.3128 -0.2604 0.9134
vn 0.9283 -0.2248 0.2961
vn 0.6128 0.7500 0.2489
vn 0.2141 0.9051 -0.3673
vn 0.4410 -0.2537 0.8609
vn -0.1237 0.8947 0.4292
vn -0.1299 0.5914 -0.7958
vn -0.1574 -0.5325 0.8316
vn -0.3691 -0.8690 -0.3295
vn -0.2456 -0.1692 0.9545
vn 0.3180 -0.8768 0.3606
vn 0.9473 -0.2338 0.2190
vn 0.0367 -0.7992 0.6000
vn 0.1154 0.9650 0.2356
vn 0.0176 -0.7624 0.6469
vn -0.7016 0.2264 0.6756
vn 0.9410 0.0600 -0.3330
vn -0.8543 0.0228 -0.5193
vn 0.5195 0.7326 0.4398
vn 0.2057 0.1771 0.9625
vn -0.3790 -0.5237 0.7630
vn -0.1843 0.6221 0.7610
vn -0.8322 -0.3348 0.4420
vn -0.0381 -0.5814 -0.8127
vn 0.8250 0.5594 0.0799
vn -0.4487 -0.5995 0.6628
vn 0.6131 0.6843 -0.3947
vn -0.0436 0.4203 0.9063
vn 0.9533 0.2567 -0.1593
vn 0.1360 -0.5740 -0.8075
vn 0.2462 -0.9276 -0.2811
vn -0.0737 -0.3836 -0.9205
vn -0.9453 0.2458 0.2145
vn 0.2725 0.6408 0.7177
vn 0.9857 -0.0228 -0.1671
vn 0.3302 0.5268 0.7832
vn 0.1549 0.9875 0.0278
vn -0.2992 0.8733 0.3845
vn 0.4032 0.8752 0.2674
vn 0.0663 0.9549 0.2894
vn -0.9683 0.1165 0.2211
vn 0.2741 -0.4144 0.8679
vn -0.2306 0.5398 -0.8096
vn -0.7503 -0.4857 -0.4485
vn -0.9325 -0.3053 0.1930
vn 0.1648 0.1751 -0.9707
vn -0.9641 0.2586 -0.0606
vn 0.0606 0.7992 0.5980
vn 0.4159 0.7018 0.5783
vn -0.2604 0.8726 0.4133
vn 0.9795 -0.1743 0.1012
vn -0.0257 0.5538 0.8323
vn -0.3227 -0.4504 -0.8325
vn 0.1083 -0.9694 -0.2201
vn -0.4281 -0.7017 -0.5696
vn 0.5009 0.5668 0.6541
vn -0.2877 -0.7578 -0.5856
vn -0.0956 0.9916 0.0866
vn 0.5946 0.5905 0.5457
vn 0.4753 0.2645 0.8391
vn -0.4018 0.2537 -0.8799
vn 0.0503 0.1139 0.9922
vn -0.6414 -0.6673 0.3785
vn -0.2677 0.4200 0.8671
vn -0.7217 0.6193 0.3093
vn -0.3670 -0.8589 -0.3571
vn 0.1977 0.3484 0.9163
vn 0.5628 0.5327 0.6321
vn 0.2265 0.3327 0.9154
vn -0.4366 0.6225 -0.6495
vn -0.8676 0.3818 0.3185
vn 0.9574 -0.2543 0.1368
vn 0.5114 0.6541 0.5573
vn 0.3004 0.4592 -0.8360
vn -0.2574 -0.3409 0.9042
vn 0.5147 0.8327 0.2041
vn 0.3633 0.9298 0.0589
vn -0.1353 0.5126 0.8479
vn -0.4881 -0.1364 0.8621
vn 0.2857 0.7615 -0.5818
vn -0.1590 -0.6136 0.7734
vn 0.0883 0.1989 -0.9760
vn 0.9467 -0.3153 -0.0660
vn -0.9949 0.0195 -0.0992
vn -0.1133 0.2564 -0.9599
vn 0.0268 -0.6383 0.7693
vn -0.9996 0.0024 0.0269
vn 0.9610 -0.2479 -0.1226
vn 0.0323 -0.9834 -0.1783
vn 0.1852 -0.8719 0.4534
vn -0.9756 -0.1708 0.1377
vn -0.9653 -0.2400 -0.1028
vn 0.9887 -0.0439 -0.1436
vn -0.0722 0.7475 -0.6604
vn -0.0101 -0.7838 -0.6209
vn 0.0213 -0.9879 0.1537
vn 0.1432 -0.3047 0.9416
vn 0.2228 0.0617 -0.9729
vn 0.9566 -0.1520 0.2488
vn 0.6499 0.0447 -0.7587
vn 0.4400 -0.5373 -0.7195
vn 0.5400 -0.3406 -0.7697
vn 0.6112 -0.1458 -0.7779
vn 0.9844 -0.1338 0.1139
vn 0.9450 -0.2965 0.1380
vn 0.9300 -0.3261 0.1693
vn 0.0337 -0.5269 -0.8492
vn 0.1232 -0.3093 -0.9429
vn 0.1887 -0.0750 -0.9792
vn 0.2201 0.3441 0.9128
vn 0.2034 -0.1123 0.9726
vn 0.1509 -0.2783 0.9486
vn -0.9479 0.0101 0.3184
vn -0.9763 -0.0259 0.2150
vn -0.9883 -0.0617 0.1398
vn -0.1619 -0.4192 -0.8933
vn -0.0075 0.3620 -0.9321
vn -0.0275 0.5426 -0.8396
vn 0.9091 0.1809 0.3752
vn 0.9574 -0.2444 0.1541
vn 0.9835 -0.1761 -0.0413
vn -0.9688 0.0826 -0.2336
vn -0.9992 0.0234 0.0320
vn -0.9975 0.0277 0.0645
vn -0.5330 0.2925 0.7940
vn -0.3304 -0.4142 0.8481
vn -0.1883 -0.5442 0.8176
vn 0.4762 -0.2686 0.8373
vn 0.3940 0.4129 -0.8211
vn -0.1572 -0.4562 -0.8759
vn -0.1496 -0.7959 -0.5867
vn -0.8249 -0.1183 -0.5527
vt 0.461701 0.809397
vt 0.301930 0.729761
vt 0.094158 0.499911
vt 0.498737 0.648456
vt 0.250869 0.553264
vt 0.714874 0.752530
vt 0.627854 0.740386
vt 0.227533 0.339544
vt 0.300362 0.438253
vt 0.625828 0.633709
vt 0.338991 0.679376
vt 0.653754 0.621457
vt 0.189641 0.785401
vt 0.531284 0.815038
vt 0.232114 0.729761
vt 0.806952 0.326283
vt 0.527824 0.712310
vt 0.703640 0.331352
vt 0.725736 0.123548
vt 0.557184 0.740386
vt 0.714874 0.681901
vt 0.693091 0.138725
vt 0.558638 0.706064
vt 0.944491 0.391302
vt 0.108931 0.369345
vt 0.090202 0.443431
vt 0.952837 0.467016
vt 0.108059 0.346292
vt 0.960024 0.371234
vt 0.653754 0.712739
vt 0.761990 0.055860
vt 0.265996 0.788213
vt 0.829683 0.188590
vt 0.886815 0.394232
vt 0.909606 0.471204
vt 0.826550 0.267021
vt 0.659457 0.749480
vt 0.206417 0.267620
vt 0.238389 0.812575
vt 0.882743 0.373659
vt 0.837846 0.166681
vt 0.102618 0.289588
vt 0.957957 0.321520
vt 0.918648 0.216117
vt 0.803322 0.012950
vt 0.106348 0.638847
vt 0.232551 0.755661
vt 0.798789 0.485160
vt 0.965752 0.239402
vt 0.153968 0.222285
vt 0.894228 0.312474
vt 0.856067 0.102710
vt 0.881967 0.351902
vt 0.842627 0.144082
vt 0.107159 0.331692
vt 0.958812 0.358201
vt 0.199778 0.246429
vt 0.138792 0.619338
vt 0.232114 0.797406
vt 0.967580 0.012950
vt 0.753483 0.682459
vt 0.843831 0.469074
vt 0.256421 0.022764
vt 0.824689 0.472884
vt 0.987050 0.016155
vt 0.832147 0.505580
vt 0.295109 0.018166
vt 0.782932 0.707368
vt 0.843831 0.503254
vt 0.076417 0.467161
vt 0.958695 0.494573
vt 0.833773 0.298242
vt 0.909847 0.503107
vt 0.076958 0.454690
vt 0.951531 0.482650
vt 0.837149 0.281767
vt 0.912926 0.487172
vt 0.064432 0.532285
vt 0.298790 0.687460
vt 0.825577 0.362572
vt 0.264894 0.686125
vt 0.056614 0.518895
vt 0.959622 0.549977
vt 0.837123 0.350740
vt 0.929664 0.555276
vt 0.051257 0.577890
vt 0.291936 0.641182
vt 0.824256 0.407314
vt 0.275162 0.640522
vt 0.035793 0.577862
vt 0.964581 0.612577
vt 0.838997 0.411720
vt 0.948088 0.615681
vt 0.039898 0.592711
vt 0.301778 0.620707
vt 0.403076 0.772170
vt 0.830596 0.428615
vt 0.403076 0.737417
vt 0.267017 0.619338
vt 0.012950 0.593438
vt 0.987050 0.637067
vt 0.428919 0.781443
vt 0.856067 0.440612
vt 0.428919 0.728949
vt 0.935424 0.646785
vt 0.945356 0.412724
vt 0.357115 0.854737
vt 0.331665 0.779032
vt 0.948027 0.441601
vt 0.799629 0.752473
vt 0.327972 0.853161
vt 0.906904 0.416128
vt 0.370069 0.779032
vt 0.684668 0.778429
vt 0.909575 0.445005
vt 0.655249 0.778999
vt 0.799629 0.791035
vt 0.330193 0.729131
vt 0.557184 0.775635
vt 0.363063 0.804932
vt 0.331684 0.807874
vt 0.754247 0.751428
vt 0.586563 0.768755
vt 0.566112 0.815056
vt 0.689281 0.828405
vt 0.370405 0.729131
vt 0.754247 0.791805
vt 0.657717 0.824383
vt 0.595492 0.808176
vt 0.327830 0.637821
vt 0.590400 0.642651
vt 0.164818 0.789976
vt 0.357235 0.619338
vt 0.642851 0.190721
vt 0.562581 0.649581
vt 0.406824 0.626953
vt 0.080449 0.619338
vt 0.646201 0.239681
vt 0.727583 0.656002
vt 0.597847 0.731399
vt 0.712829 0.722239
vt 0.658284 0.323708
vt 0.527919 0.666449
vt 0.661748 0.291537
vt 0.680225 0.245582
vt 0.377645 0.696957
vt 0.285191 0.477898
vt 0.483372 0.812325
vt 0.280072 0.728266
vt 0.924330 0.393087
vt 0.921760 0.373660
vt 0.678504 0.727397
vt 0.268491 0.812575
vt 0.930826 0.465310
vt 0.923786 0.327561
vt 0.941993 0.227167
vt 0.764056 0.466512
vt 0.919524 0.351927
vt 0.977463 0.013354
vt 0.833186 0.466512
vt 0.317617 0.012950
vt 0.798789 0.722800
vt 0.839639 0.522681
vt 0.934403 0.500152
vt 0.932138 0.484309
vt 0.281656 0.689101
vt 0.944784 0.554368
vt 0.283549 0.640852
vt 0.956335 0.614129
vt 0.284323 0.620942
vt 0.399765 0.754789
vt 0.961112 0.640376
vt 0.422297 0.755187
vt 0.926130 0.414426
vt 0.350867 0.779032
vt 0.928801 0.443303
vt 0.799629 0.771754
vt 0.350773 0.728949
vt 0.557184 0.796361
vt 0.753483 0.771844
vt 0.595492 0.787450
vt 0.985581 0.067358
vt 0.238180 0.070710
vt 0.259592 0.052321
vt 0.138792 0.821791
vt 0.953366 0.057503
vt 0.765454 0.639660
vt 0.120235 0.821584
vt 0.772730 0.660154
vt 0.283154 0.037949
vt 0.784440 0.682652
vt 0.128680 0.843910
vt 0.970110 0.058056
vt 0.758353 0.637393
vt 0.180368 0.432154
vt 0.759258 0.257498
vt 0.884976 0.446549
vt 0.828099 0.241547
vt 0.971226 0.428512
vt 0.101516 0.405509
vt 0.908240 0.430567
vt 0.669958 0.778714
vt 0.946692 0.427163
vt 0.342544 0.853949
vt 0.673120 0.826722
vt 0.582140 0.817526
vt 0.570535 0.766286
vt 0.348248 0.806122
vt 0.576699 0.792002
vt 0.653753 0.802281
vt 0.776512 0.794925
vt 0.776512 0.748700
vt 0.327830 0.829868
vt 0.363063 0.830170
vt 0.327830 0.753980
vt 0.373865 0.753980
vt 0.689281 0.803194
vt 0.351093 0.753886
vt 0.776117 0.771930
vt 0.671321 0.802907
vt 0.345899 0.829874
vt 0.457498 0.727404
vt 0.165986 0.548054
vt 0.260364 0.376248
vt 0.625887 0.695531
vt 0.520555 0.743605
vt 0.734596 0.339638
vt 0.406824 0.703049
vt 0.012950 0.651015
vt 0.277407 0.507014
vt 0.206214 0.619338
vt 0.706517 0.466512
vt 0.399765 0.822801
vt 0.181517 0.620770
vt 0.619265 0.470337
vt 0.422433 0.807343
vt 0.582936 0.466512
vt 0.458892 0.202188
vt 0.422433 0.843958
vt 0.727583 0.468029
vt 0.460639 0.221880
vt 0.402692 0.843997
vt 0.717439 0.778459
vt 0.429089 0.593438
vt 0.518160 0.466685
vt 0.070962 0.817001
vt 0.726094 0.791097
vt 0.457498 0.298878
vt 0.715181 0.783741
vt 0.523936 0.466512
vt 0.458951 0.311476
vt 0.719061 0.788282
vt 0.458165 0.306435
vt 0.058766 0.817583
vt 0.726094 0.778429
vt 0.431598 0.585369
vt 0.599953 0.261833
vt 0.080449 0.668491
vt 0.542336 0.274386
vt 0.076079 0.728305
vt 0.500395 0.287212
vt 0.064936 0.773359
vt 0.389801 0.564275
vt 0.039540 0.774208
vt 0.356388 0.547019
vt 0.031995 0.737396
vt 0.319737 0.531779
vt 0.030523 0.696843
vt 0.505723 0.512116
vt 0.384015 0.580847
vt 0.506522 0.550736
vt 0.346302 0.574833
vt 0.507607 0.604105
vt 0.294291 0.566034
vt 0.610540 0.298468
vt 0.545535 0.300686
vt 0.502363 0.302883
vt 0.504402 0.313331
vt 0.517745 0.511765
vt 0.548610 0.318269
vt 0.527842 0.556627
vt 0.609940 0.323717
vt 0.531284 0.618364
vt 0.660591 0.582499
vt 0.204501 0.743892
vt 0.668589 0.550878
vt 0.206214 0.710848
vt 0.668004 0.517120
vt 0.204545 0.678125
vt 0.623877 0.525891
vt 0.164692 0.675333
vt 0.610236 0.563455
vt 0.167167 0.712219
vt 0.605277 0.597358
vt 0.166352 0.745757
vt 0.511839 0.183186
vt 0.584607 0.521652
vt 0.552303 0.182624
vt 0.569857 0.561129
vt 0.598009 0.178631
vt 0.565182 0.606784
vt 0.592158 0.236754
vt 0.721184 0.600612
vt 0.550092 0.232946
vt 0.722606 0.558204
vt 0.518921 0.225772
vt 0.713819 0.525134
s 0
usemtl Material
f 89/196/1 7/19/1 13/33/1 90/198/1
f 8/22/2 7/19/2 89/196/2 58/145/2 54/138/2 53/134/2
f 6/18/3 56/142/3 57/144/3
f 3/8/4 106/224/4 4/9/4 59/147/4 88/195/4
f 6/17/5 107/226/5 5/14/5 60/148/5 1/1/5 105/222/5 2/4/5 56/143/5
f 61/150/6 13/34/6 16/40/6 62/151/6
f 5/16/7 14/36/7 31/76/7 29/72/7
f 88/195/8 1/3/8 10/26/8 91/200/8
f 67/158/9 21/53/9 20/51/9 65/155/9
f 13/33/10 7/19/10 12/31/10 16/41/10
f 3/8/11 9/25/11 11/28/11 15/38/11
f 55/141/12 3/6/12 15/37/12 63/152/12
f 66/156/13 19/49/13 17/43/13 65/155/13
f 23/57/14 22/55/14 17/42/14 19/50/14
f 83/184/15 82/183/15 25/63/15 26/67/15
f 15/38/16 11/28/16 22/55/16 23/57/16
f 62/151/17 16/40/17 21/53/17 67/158/17
f 69/163/18 26/66/18 25/64/18 68/160/18
f 87/193/19 84/186/19 24/60/19 68/159/19
f 86/190/20 83/184/20 26/67/20 69/161/20
f 84/187/21 85/189/21 27/68/21 24/61/21
f 70/164/22 29/73/22 31/77/22 71/165/22
f 70/164/23 28/71/23 34/83/23 73/167/23
f 10/26/24 1/3/24 28/70/24 30/74/24
f 64/154/25 10/27/25 30/75/25 71/165/25
f 34/82/26 32/78/26 36/86/26 38/90/26
f 60/149/27 5/15/27 33/81/27 72/166/27
f 5/16/28 29/72/28 35/84/28 33/80/28
f 28/70/29 1/3/29 32/78/29 34/82/29
f 37/88/30 39/92/30 43/103/30 41/97/30
f 73/167/31 34/83/31 38/91/31 75/169/31
f 33/80/32 35/84/32 39/92/32 37/88/32
f 72/166/33 33/81/33 37/89/33 74/168/33
f 76/171/34 41/98/34 43/104/34 77/173/34
f 74/168/35 37/89/35 41/99/35 76/170/35
f 38/90/36 36/86/36 40/94/36 42/100/36
f 75/169/37 38/91/37 42/101/37 77/172/37
f 102/219/38 97/211/38 51/127/38 81/180/38
f 91/199/39 10/27/39 45/109/39 93/203/39
f 90/197/40 13/34/40 46/112/40 92/201/40
f 61/150/41 9/24/41 44/106/41 78/174/41
f 64/154/42 14/35/42 47/115/42 79/176/42
f 96/209/43 94/206/43 50/124/43 80/179/43
f 101/218/44 99/215/44 48/118/44 80/178/44
f 104/221/45 98/213/45 49/121/45 95/208/45
f 103/220/46 100/217/46 50/125/46 94/205/46
f 8/23/47 53/135/47 52/131/47
f 8/23/48 52/131/48 4/10/48 106/225/48 3/7/48 55/140/48 7/20/48
f 54/138/49 58/145/49 89/196/49 5/16/49 107/227/49 6/18/49 57/144/49
f 100/216/50 101/218/50 80/178/50 50/126/50
f 95/207/51 96/209/51 80/179/51 48/119/51
f 10/27/52 64/154/52 79/176/52 45/109/52
f 13/34/53 61/150/53 78/174/53 46/112/53
f 98/212/54 102/219/54 81/180/54 49/122/54
f 39/93/55 75/169/55 77/172/55 43/105/55
f 36/87/56 74/168/56 76/170/56 40/95/56
f 40/96/57 76/171/57 77/173/57 42/102/57
f 32/79/58 72/166/58 74/168/58 36/87/58
f 35/85/59 73/167/59 75/169/59 39/93/59
f 1/2/60 60/149/60 72/166/60 32/79/60
f 14/35/61 64/154/61 71/165/61 31/77/61
f 29/73/62 70/164/62 73/167/62 35/85/62
f 28/71/63 70/164/63 71/165/63 30/75/63
f 85/189/64 86/191/64 69/162/64 27/68/64
f 82/182/65 87/193/65 68/159/65 25/65/65
f 27/69/66 69/163/66 68/160/66 24/62/66
f 11/29/67 62/151/67 67/158/67 22/56/67
f 18/44/68 66/156/68 65/155/68 20/51/68
f 7/21/69 55/141/69 63/152/69 12/30/69
f 22/56/70 67/158/70 65/155/70 17/43/70
f 9/24/71 61/150/71 62/151/71 11/29/71
f 19/49/72 66/156/72 87/193/72 82/182/72
f 12/31/73 18/45/73 20/52/73 21/54/73 16/41/73
f 66/157/74 18/48/74 84/187/74 87/194/74
f 23/57/75 19/50/75 82/183/75 83/184/75
f 49/123/76 81/181/76 96/209/76 95/207/76
f 97/210/77 103/220/77 94/205/77 51/128/77
f 99/214/78 104/221/78 95/208/78 48/120/78
f 81/181/79 51/129/79 94/206/79 96/209/79
f 14/35/80 90/197/80 92/201/80 47/115/80
f 9/24/81 91/199/81 93/203/81 44/106/81
f 3/8/82 88/195/82 91/200/82 9/25/82
f 5/16/83 89/196/83 90/198/83 14/36/83
f 44/107/84 93/204/84 104/221/84 99/214/84
f 47/116/85 92/202/85 103/220/85 97/210/85
f 45/110/86 79/177/86 102/219/86 98/212/86
f 46/113/87 78/175/87 101/218/87 100/216/87
f 92/202/88 46/114/88 100/217/88 103/220/88
f 93/204/89 45/111/89 98/213/89 104/221/89
f 78/175/90 44/108/90 99/215/90 101/218/90
f 79/177/91 47/117/91 97/211/91 102/219/91
f 59/146/92 4/11/92 52/130/92 53/133/92 54/136/92 108/228/92
f 136/291/93 110/234/93 109/231/93 135/289/93
f 121/264/94 120/262/94 114/246/94 117/254/94
f 139/297/95 111/237/95 110/235/95 136/290/95
f 135/288/96 109/232/96 112/240/96 144/307/96
f 144/306/97 112/241/97 111/238/97 139/296/97
f 111/239/98 112/242/98 109/233/98 110/236/98
f 117/255/99 114/247/99 116/252/99 115/249/99 113/243/99
f 124/270/100 121/263/100 117/256/100 113/244/100
f 120/261/101 129/277/101 116/253/101 114/248/101
f 130/279/102 124/269/102 113/245/102 115/250/102
f 129/277/103 130/278/103 115/251/103 116/253/103
f 57/144/104 56/142/104 132/282/104 127/275/104
f 127/275/105 132/282/105 131/280/105 128/276/105
f 128/276/106 131/280/106 130/278/106 129/277/106
f 56/143/107 2/4/107 126/273/107 132/283/107
f 132/283/108 126/273/108 125/271/108 131/281/108
f 131/281/109 125/271/109 124/269/109 130/279/109
f 54/138/110 57/144/110 127/275/110 118/257/110
f 118/257/111 127/275/111 128/276/111 119/259/111
f 119/259/112 128/276/112 129/277/112 120/261/112
f 2/5/113 108/230/113 123/267/113 126/274/113
f 126/274/114 123/267/114 122/265/114 125/272/114
f 125/272/115 122/265/115 121/263/115 124/270/115
f 108/229/116 54/137/116 118/258/116 123/268/116
f 123/268/117 118/258/117 119/260/117 122/266/117
f 122/266/118 119/260/118 120/262/118 121/264/118
f 54/138/119 142/302/119 141/300/119 53/134/119
f 142/302/120 143/304/120 140/298/120 141/300/120
f 143/304/121 144/306/121 139/296/121 140/298/121
f 4/12/122 133/284/122 142/303/122 54/139/122
f 133/284/123 134/286/123 143/305/123 142/303/123
f 134/286/124 135/288/124 144/307/124 143/305/124
f 53/135/125 141/301/125 138/294/125 52/131/125
f 141/301/126 140/299/126 137/292/126 138/294/126
f 140/299/127 139/297/127 136/290/127 137/292/127
f 52/132/128 138/295/128 133/285/128 4/13/128
f 138/295/129 137/293/129 134/287/129 133/285/129
f 137/293/130 136/291/130 135/289/130 134/287/130
f 105/223/131 1/3/131 88/195/131 59/147/131 108/230/131 2/5/131
f 86/192/132 85/188/132 83/185/132
f 83/185/133 85/188/133 18/46/133 23/58/133
f 63/153/134 15/39/134 23/59/134 18/47/134 12/32/134
f 84/187/135 18/48/135 85/189/135
l 52 106
