# Blender 3.3.1
# www.blender.org
mtllib monstruo_3_caminar583.mtl
o monstruo_grande
v 0.370971 2.031049 0.189963
v 0.523970 1.157316 0.063379
v -0.697414 1.789896 0.094555
v -0.298087 1.192176 0.219384
v 0.639127 2.293277 -0.099383
v 0.566527 1.634760 -0.234612
v -0.777918 1.963135 -0.362141
v -0.700986 1.656651 -0.387678
v -0.327148 2.435252 0.348369
v 0.227439 2.320940 0.379592
v -0.470751 2.415508 0.438359
v -1.148761 2.031777 -0.250106
v -0.281880 2.569749 -0.018989
v 0.256328 2.447164 0.112252
v -1.016920 1.911912 -0.057668
v -0.441961 2.646358 -0.020049
v -0.829297 2.344501 0.425100
v -1.469473 1.989202 -0.015530
v -1.214555 2.041475 0.215618
v -0.970890 2.631405 0.107975
v -0.629013 2.693466 0.023077
v -0.547521 2.373044 0.413001
v -1.148487 1.933045 -0.078724
v -1.888610 0.791049 0.704416
v -1.767002 0.765023 0.758308
v -1.750244 0.580616 0.565029
v -1.824470 0.596503 0.532135
v 0.353733 2.225059 0.373644
v 0.527768 2.404570 0.152158
v 0.336061 2.345512 0.383401
v 0.386345 2.465307 0.159212
v 0.580714 1.912993 0.241888
v 0.775593 1.939281 0.137253
v 0.613333 1.972943 0.295890
v 0.746796 2.069269 0.180098
v 0.685122 1.657168 0.351854
v 0.792510 1.660399 0.314967
v 0.722400 1.651652 0.450838
v 0.830301 1.661822 0.411030
v 0.662061 1.528405 0.437865
v 0.885929 1.548372 0.358411
v 0.671643 1.493162 0.631541
v 1.008974 1.522236 0.506478
v -0.166169 2.483493 0.386517
v 0.043723 2.456201 0.389365
v -0.143987 2.566186 0.132818
v 0.058095 2.538515 0.140468
v -0.111659 2.797888 0.528013
v 0.094351 2.728939 0.501224
v -0.110296 2.902883 0.270323
v 0.094564 2.834371 0.242390
v -0.502304 1.161322 0.015851
v -0.389438 1.139805 -0.197445
v -0.035852 1.256986 -0.338331
v -0.736420 1.809367 -0.138635
v 0.546820 1.250149 -0.152881
v 0.330558 1.285647 -0.277039
v 0.027514 1.507750 -0.345472
v -0.025449 1.130801 0.188351
v 0.466998 2.105827 0.090513
v -0.304573 2.482939 0.220077
v -0.467777 2.648023 0.253876
v -0.940062 1.966272 -0.177173
v 0.218866 2.443442 0.270098
v -0.844190 2.565464 0.354049
v -1.389429 2.150154 0.226134
v -0.619752 2.635087 0.232736
v -1.840900 0.778751 0.761254
v -1.770431 0.468548 0.452429
v 0.468672 2.322515 0.302532
v 0.362774 2.452101 0.291392
v 0.652450 1.904360 0.142352
v 0.711167 2.026900 0.281897
v 0.738988 1.661340 0.332207
v 0.776283 1.656296 0.430861
v 0.766117 1.534999 0.375240
v 0.825092 1.501639 0.526558
v -0.157087 2.523745 0.258263
v 0.048563 2.498979 0.263858
v -0.142193 2.852225 0.400014
v 0.125967 2.780226 0.371730
v -1.620193 1.079455 0.696950
v -1.686069 0.906591 0.634037
v -1.832190 1.094591 0.606079
v -1.800531 0.931088 0.583312
v -1.749525 0.749461 0.540920
v -1.752600 1.071471 0.703373
v -0.078239 1.814857 0.456950
v 0.156775 2.137312 -0.262181
v 0.075730 2.527207 -0.037664
v -0.030243 2.325166 0.529452
v -0.047323 2.551122 0.134693
v -0.055690 2.466652 0.387202
v -0.007910 2.883938 0.217006
v -0.008919 2.747653 0.553144
v -0.004550 2.867250 0.407109
v 0.088664 2.697086 0.165598
v 0.083511 2.581267 0.460828
v -0.152704 2.633605 0.480687
v -0.150046 2.750012 0.181644
v -0.168264 2.693509 0.332308
v 0.101093 2.639302 0.312766
v -0.031437 2.731060 0.152662
v -0.033383 2.597836 0.491165
v 0.444843 1.688913 0.043366
v -0.595581 1.516750 0.146964
v 0.589049 1.852941 -0.223249
v 0.169989 1.089589 0.168137
v -0.199433 0.040007 0.109682
v -0.344069 0.048067 0.231829
v -0.369450 0.043489 -0.018636
v -0.234260 0.038240 -0.033047
v 0.371530 0.107204 -0.452639
v 0.298151 0.132721 -0.524385
v 0.380865 0.120329 -0.488847
v 0.349314 0.128630 -0.513906
v 0.312603 0.103968 -0.442909
v 0.096699 0.913527 -0.227747
v 0.165354 0.688368 -0.262054
v 0.230768 0.410244 -0.367360
v 0.271493 0.316928 -0.216619
v 0.235317 0.506301 -0.044306
v 0.220052 0.739802 0.107214
v 0.392413 0.338463 -0.238048
v 0.438887 0.546741 -0.075739
v 0.501315 0.843200 0.072233
v 0.351589 0.946717 -0.203756
v 0.345721 0.684640 -0.236371
v 0.338087 0.406959 -0.350686
v 0.406802 0.383856 -0.305549
v 0.461740 0.649400 -0.162156
v 0.521256 0.930521 -0.095305
v -0.174888 0.952000 0.368200
v -0.150247 0.648233 0.348853
v -0.146184 0.401114 0.343741
v -0.431208 0.389411 0.331834
v -0.441255 0.665651 0.293005
v -0.463225 0.920132 0.249763
v -0.463053 0.405486 0.062350
v -0.470985 0.677773 0.025074
v -0.478733 0.883286 -0.024161
v -0.082647 0.839608 -0.046700
v -0.127545 0.653275 -0.013365
v -0.171069 0.446767 0.029040
vn 0.0044 0.4936 -0.8697
vn 0.0203 -0.0271 -0.9994
vn 0.4613 -0.2070 -0.8627
vn -0.3288 -0.1975 0.9235
vn 0.9063 -0.0586 0.4186
vn 0.6003 0.7778 0.1859
vn 0.1992 0.8945 -0.4003
vn 0.5418 -0.2025 0.8158
vn -0.1141 0.9493 0.2930
vn -0.0560 0.4689 -0.8815
vn -0.2100 -0.4113 0.8870
vn -0.3918 -0.8912 -0.2286
vn -0.3296 -0.0164 0.9440
vn 0.2584 -0.8220 0.5076
vn 0.9187 -0.3057 0.2501
vn -0.0983 -0.6601 0.7448
vn 0.1072 0.9870 0.1194
vn -0.0613 -0.7164 0.6950
vn -0.6870 0.3356 0.6445
vn 0.9462 -0.0497 -0.3197
vn -0.8419 0.0664 -0.5355
vn 0.5529 0.7272 0.4069
vn 0.3025 0.1072 0.9471
vn -0.3566 -0.5179 0.7776
vn -0.1598 0.6591 0.7349
vn -0.8857 -0.1219 0.4480
vn -0.1568 -0.5252 -0.8364
vn 0.8825 0.4689 0.0358
vn -0.4367 -0.6005 0.6699
vn 0.7224 0.5491 -0.4203
vn 0.0450 0.4112 0.9104
vn 0.9894 0.0682 -0.1286
vn 0.0071 -0.5749 -0.8182
vn 0.0790 -0.9675 -0.2403
vn -0.1486 -0.4028 -0.9031
vn -0.8882 0.4138 0.1998
vn 0.3800 0.6108 0.6947
vn 0.9855 -0.0274 -0.1673
vn 0.3273 0.5977 0.7319
vn 0.1230 0.9901 -0.0678
vn -0.3281 0.9053 0.2698
vn 0.3730 0.9057 0.2016
vn 0.0565 0.9759 0.2106
vn -0.9689 0.1253 0.2134
vn 0.2803 -0.3419 0.8969
vn -0.2349 0.4735 -0.8489
vn -0.7463 -0.5739 -0.3370
vn -0.9175 -0.3380 0.2094
vn 0.1921 0.0852 -0.9777
vn -0.9665 0.2441 -0.0795
vn 0.0526 0.8454 0.5316
vn 0.4091 0.7494 0.5206
vn -0.3113 0.9049 0.2903
vn 0.9809 -0.1596 0.1110
vn 0.0720 0.5819 0.8101
vn -0.3968 -0.4194 -0.8165
vn -0.0616 -0.9812 -0.1829
vn -0.5753 -0.5718 -0.5849
vn 0.6355 0.4334 0.6390
vn -0.4136 -0.7005 -0.5816
vn -0.1061 0.9937 0.0357
vn 0.6906 0.5111 0.5116
vn 0.5350 0.2688 0.8009
vn -0.3662 0.2312 -0.9013
vn 0.0495 0.1740 0.9835
vn -0.7054 -0.5785 0.4096
vn -0.2914 0.5410 0.7889
vn -0.7212 0.6702 0.1751
vn -0.3814 -0.8674 -0.3197
vn 0.1365 0.4765 0.8685
vn 0.5276 0.6109 0.5903
vn 0.1703 0.3657 0.9150
vn -0.3559 0.5347 -0.7664
vn -0.8663 0.4451 0.2270
vn 0.9253 -0.2978 0.2350
vn 0.5050 0.7024 0.5016
vn 0.2973 0.3931 -0.8701
vn -0.2536 -0.2703 0.9288
vn 0.5055 0.8524 0.1340
vn 0.3219 0.9463 -0.0282
vn -0.1806 0.5691 0.8022
vn -0.5133 -0.0560 0.8564
vn 0.2270 0.7198 -0.6560
vn -0.1664 -0.5536 0.8160
vn 0.1050 0.1114 -0.9882
vn 0.9490 -0.3131 -0.0376
vn -0.9933 -0.0082 -0.1156
vn -0.0944 0.1823 -0.9787
vn 0.0356 -0.5704 0.8206
vn -0.9998 -0.0043 0.0218
vn 0.9648 -0.2439 -0.0981
vn -0.0044 -0.9960 -0.0889
vn 0.2301 -0.4089 0.8831
vn -0.9576 -0.2762 0.0824
vn -0.9573 -0.2716 0.0994
vn 0.9858 -0.0961 -0.1379
vn -0.1240 0.1764 -0.9765
vn -0.0369 -0.9991 0.0218
vn -0.0014 -0.9435 -0.3314
vn 0.2150 -0.6830 0.6980
vn 0.1683 0.5098 -0.8436
vn 0.9753 -0.1869 0.1176
vn 0.6053 0.4171 -0.6780
vn 0.4913 -0.1730 -0.8536
vn 0.5477 0.0865 -0.8322
vn 0.5824 0.2927 -0.7584
vn 0.9946 -0.0674 0.0793
vn 0.9778 -0.2094 0.0081
vn 0.9747 -0.2226 0.0217
vn 0.1544 -0.2245 -0.9622
vn 0.1022 0.1483 -0.9836
vn 0.1439 0.3766 -0.9151
vn 0.2314 -0.0666 0.9706
vn 0.2599 -0.4925 0.8306
vn 0.2405 -0.6286 0.7396
vn -0.9347 -0.2266 0.2738
vn -0.9534 -0.2455 0.1754
vn -0.9604 -0.2632 0.0918
vn -0.1270 -0.5458 -0.8283
vn -0.0985 -0.1962 -0.9756
vn -0.1068 -0.1555 -0.9820
vn 0.8972 0.3130 0.3117
vn 0.9878 -0.0365 0.1512
vn 0.9961 -0.0875 -0.0098
vn -0.9803 -0.0559 -0.1892
vn -0.9952 -0.0472 0.0852
vn -0.9935 -0.0169 0.1129
vn -0.5354 0.4076 0.7397
vn -0.2884 0.0169 0.9574
vn -0.1160 0.0607 0.9914
vn 0.4615 -0.1358 0.8767
vn 0.4402 0.3195 -0.8391
vn -0.1161 -0.4938 -0.8618
vn -0.1689 -0.8583 -0.4846
vn -0.8099 -0.0758 -0.5817
vt 0.461701 0.809397
vt 0.301930 0.729761
vt 0.094158 0.499911
vt 0.498737 0.648456
vt 0.250869 0.553264
vt 0.714874 0.752530
vt 0.627854 0.740386
vt 0.227533 0.339544
vt 0.300362 0.438253
vt 0.625828 0.633709
vt 0.338991 0.679376
vt 0.653754 0.621457
vt 0.189641 0.785401
vt 0.531284 0.815038
vt 0.232114 0.729761
vt 0.806952 0.326283
vt 0.527824 0.712310
vt 0.703640 0.331352
vt 0.725736 0.123548
vt 0.557184 0.740386
vt 0.714874 0.681901
vt 0.693091 0.138725
vt 0.558638 0.706064
vt 0.944491 0.391302
vt 0.108931 0.369345
vt 0.090202 0.443431
vt 0.952837 0.467016
vt 0.108059 0.346292
vt 0.960024 0.371234
vt 0.653754 0.712739
vt 0.761990 0.055860
vt 0.265996 0.788213
vt 0.829683 0.188590
vt 0.886815 0.394232
vt 0.909606 0.471204
vt 0.826550 0.267021
vt 0.659457 0.749480
vt 0.206417 0.267620
vt 0.238389 0.812575
vt 0.882743 0.373659
vt 0.837846 0.166681
vt 0.102618 0.289588
vt 0.957957 0.321520
vt 0.918648 0.216117
vt 0.803322 0.012950
vt 0.106348 0.638847
vt 0.232551 0.755661
vt 0.798789 0.485160
vt 0.965752 0.239402
vt 0.153968 0.222285
vt 0.894228 0.312474
vt 0.856067 0.102710
vt 0.881967 0.351902
vt 0.842627 0.144082
vt 0.107159 0.331692
vt 0.958812 0.358201
vt 0.199778 0.246429
vt 0.138792 0.619338
vt 0.232114 0.797406
vt 0.967580 0.012950
vt 0.753483 0.682459
vt 0.843831 0.469074
vt 0.256421 0.022764
vt 0.824689 0.472884
vt 0.987050 0.016155
vt 0.832147 0.505580
vt 0.295109 0.018166
vt 0.782932 0.707368
vt 0.843831 0.503254
vt 0.076417 0.467161
vt 0.958695 0.494573
vt 0.833773 0.298242
vt 0.909847 0.503107
vt 0.076958 0.454690
vt 0.951531 0.482650
vt 0.837149 0.281767
vt 0.912926 0.487172
vt 0.064432 0.532285
vt 0.298790 0.687460
vt 0.825577 0.362572
vt 0.264894 0.686125
vt 0.056614 0.518895
vt 0.959622 0.549977
vt 0.837123 0.350740
vt 0.929664 0.555276
vt 0.051257 0.577890
vt 0.291936 0.641182
vt 0.824256 0.407314
vt 0.275162 0.640522
vt 0.035793 0.577862
vt 0.964581 0.612577
vt 0.838997 0.411720
vt 0.948088 0.615681
vt 0.039898 0.592711
vt 0.301778 0.620707
vt 0.403076 0.772170
vt 0.830596 0.428615
vt 0.403076 0.737417
vt 0.267017 0.619338
vt 0.012950 0.593438
vt 0.987050 0.637067
vt 0.428919 0.781443
vt 0.856067 0.440612
vt 0.428919 0.728949
vt 0.935424 0.646785
vt 0.945356 0.412724
vt 0.357115 0.854737
vt 0.331665 0.779032
vt 0.948027 0.441601
vt 0.799629 0.752473
vt 0.327972 0.853161
vt 0.906904 0.416128
vt 0.370069 0.779032
vt 0.684668 0.778429
vt 0.909575 0.445005
vt 0.655249 0.778999
vt 0.799629 0.791035
vt 0.330193 0.729131
vt 0.557184 0.775635
vt 0.363063 0.804932
vt 0.331684 0.807874
vt 0.754247 0.751428
vt 0.586563 0.768755
vt 0.566112 0.815056
vt 0.689281 0.828405
vt 0.370405 0.729131
vt 0.754247 0.791805
vt 0.657717 0.824383
vt 0.595492 0.808176
vt 0.327830 0.637821
vt 0.590400 0.642651
vt 0.164818 0.789976
vt 0.357235 0.619338
vt 0.642851 0.190721
vt 0.562581 0.649581
vt 0.406824 0.626953
vt 0.080449 0.619338
vt 0.646201 0.239681
vt 0.727583 0.656002
vt 0.597847 0.731399
vt 0.712829 0.722239
vt 0.658284 0.323708
vt 0.527919 0.666449
vt 0.661748 0.291537
vt 0.680225 0.245582
vt 0.377645 0.696957
vt 0.285191 0.477898
vt 0.483372 0.812325
vt 0.280072 0.728266
vt 0.924330 0.393087
vt 0.921760 0.373660
vt 0.678504 0.727397
vt 0.268491 0.812575
vt 0.930826 0.465310
vt 0.923786 0.327561
vt 0.941993 0.227167
vt 0.764056 0.466512
vt 0.919524 0.351927
vt 0.977463 0.013354
vt 0.833186 0.466512
vt 0.317617 0.012950
vt 0.798789 0.722800
vt 0.839639 0.522681
vt 0.934403 0.500152
vt 0.932138 0.484309
vt 0.281656 0.689101
vt 0.944784 0.554368
vt 0.283549 0.640852
vt 0.956335 0.614129
vt 0.284323 0.620942
vt 0.399765 0.754789
vt 0.961112 0.640376
vt 0.422297 0.755187
vt 0.926130 0.414426
vt 0.350867 0.779032
vt 0.928801 0.443303
vt 0.799629 0.771754
vt 0.350773 0.728949
vt 0.557184 0.796361
vt 0.753483 0.771844
vt 0.595492 0.787450
vt 0.985581 0.067358
vt 0.238180 0.070710
vt 0.259592 0.052321
vt 0.138792 0.821791
vt 0.953366 0.057503
vt 0.765454 0.639660
vt 0.120235 0.821584
vt 0.772730 0.660154
vt 0.283154 0.037949
vt 0.784440 0.682652
vt 0.128680 0.843910
vt 0.970110 0.058056
vt 0.758353 0.637393
vt 0.180368 0.432154
vt 0.759258 0.257498
vt 0.884976 0.446549
vt 0.828099 0.241547
vt 0.971226 0.428512
vt 0.101516 0.405509
vt 0.908240 0.430567
vt 0.669958 0.778714
vt 0.946692 0.427163
vt 0.342544 0.853949
vt 0.673120 0.826722
vt 0.582140 0.817526
vt 0.570535 0.766286
vt 0.348248 0.806122
vt 0.576699 0.792002
vt 0.653753 0.802281
vt 0.776512 0.794925
vt 0.776512 0.748700
vt 0.327830 0.829868
vt 0.363063 0.830170
vt 0.327830 0.753980
vt 0.373865 0.753980
vt 0.689281 0.803194
vt 0.351093 0.753886
vt 0.776117 0.771930
vt 0.671321 0.802907
vt 0.345899 0.829874
vt 0.457498 0.727404
vt 0.165986 0.548054
vt 0.260364 0.376248
vt 0.625887 0.695531
vt 0.520555 0.743605
vt 0.734596 0.339638
vt 0.406824 0.703049
vt 0.012950 0.651015
vt 0.277407 0.507014
vt 0.206214 0.619338
vt 0.706517 0.466512
vt 0.399765 0.822801
vt 0.181517 0.620770
vt 0.619265 0.470337
vt 0.422433 0.807343
vt 0.582936 0.466512
vt 0.458892 0.202188
vt 0.422433 0.843958
vt 0.727583 0.468029
vt 0.460639 0.221880
vt 0.402692 0.843997
vt 0.717439 0.778459
vt 0.429089 0.593438
vt 0.518160 0.466685
vt 0.070962 0.817001
vt 0.726094 0.791097
vt 0.457498 0.298878
vt 0.715181 0.783741
vt 0.523936 0.466512
vt 0.458951 0.311476
vt 0.719061 0.788282
vt 0.458165 0.306435
vt 0.058766 0.817583
vt 0.726094 0.778429
vt 0.431598 0.585369
vt 0.599953 0.261833
vt 0.080449 0.668491
vt 0.542336 0.274386
vt 0.076079 0.728305
vt 0.500395 0.287212
vt 0.064936 0.773359
vt 0.389801 0.564275
vt 0.039540 0.774208
vt 0.356388 0.547019
vt 0.031995 0.737396
vt 0.319737 0.531779
vt 0.030523 0.696843
vt 0.505723 0.512116
vt 0.384015 0.580847
vt 0.506522 0.550736
vt 0.346302 0.574833
vt 0.507607 0.604105
vt 0.294291 0.566034
vt 0.610540 0.298468
vt 0.545535 0.300686
vt 0.502363 0.302883
vt 0.504402 0.313331
vt 0.517745 0.511765
vt 0.548610 0.318269
vt 0.527842 0.556627
vt 0.609940 0.323717
vt 0.531284 0.618364
vt 0.660591 0.582499
vt 0.204501 0.743892
vt 0.668589 0.550878
vt 0.206214 0.710848
vt 0.668004 0.517120
vt 0.204545 0.678125
vt 0.623877 0.525891
vt 0.164692 0.675333
vt 0.610236 0.563455
vt 0.167167 0.712219
vt 0.605277 0.597358
vt 0.166352 0.745757
vt 0.511839 0.183186
vt 0.584607 0.521652
vt 0.552303 0.182624
vt 0.569857 0.561129
vt 0.598009 0.178631
vt 0.565182 0.606784
vt 0.592158 0.236754
vt 0.721184 0.600612
vt 0.550092 0.232946
vt 0.722606 0.558204
vt 0.518921 0.225772
vt 0.713819 0.525134
s 0
usemtl Material
f 89/196/1 7/19/1 13/33/1 90/198/1
f 8/22/2 7/19/2 89/196/2 58/145/2 54/138/2 53/134/2
f 6/18/3 56/142/3 57/144/3
f 3/8/4 106/224/4 4/9/4 59/147/4 88/195/4
f 6/17/5 107/226/5 5/14/5 60/148/5 1/1/5 105/222/5 2/4/5 56/143/5
f 61/150/6 13/34/6 16/40/6 62/151/6
f 5/16/7 14/36/7 31/76/7 29/72/7
f 88/195/8 1/3/8 10/26/8 91/200/8
f 67/158/9 21/53/9 20/51/9 65/155/9
f 13/33/10 7/19/10 12/31/10 16/41/10
f 3/8/11 9/25/11 11/28/11 15/38/11
f 55/141/12 3/6/12 15/37/12 63/152/12
f 66/156/13 19/49/13 17/43/13 65/155/13
f 23/57/14 22/55/14 17/42/14 19/50/14
f 83/184/15 82/183/15 25/63/15 26/67/15
f 15/38/16 11/28/16 22/55/16 23/57/16
f 62/151/17 16/40/17 21/53/17 67/158/17
f 69/163/18 26/66/18 25/64/18 68/160/18
f 87/193/19 84/186/19 24/60/19 68/159/19
f 86/190/20 83/184/20 26/67/20 69/161/20
f 84/187/21 85/189/21 27/68/21 24/61/21
f 70/164/22 29/73/22 31/77/22 71/165/22
f 70/164/23 28/71/23 34/83/23 73/167/23
f 10/26/24 1/3/24 28/70/24 30/74/24
f 64/154/25 10/27/25 30/75/25 71/165/25
f 34/82/26 32/78/26 36/86/26 38/90/26
f 60/149/27 5/15/27 33/81/27 72/166/27
f 5/16/28 29/72/28 35/84/28 33/80/28
f 28/70/29 1/3/29 32/78/29 34/82/29
f 37/88/30 39/92/30 43/103/30 41/97/30
f 73/167/31 34/83/31 38/91/31 75/169/31
f 33/80/32 35/84/32 39/92/32 37/88/32
f 72/166/33 33/81/33 37/89/33 74/168/33
f 76/171/34 41/98/34 43/104/34 77/173/34
f 74/168/35 37/89/35 41/99/35 76/170/35
f 38/90/36 36/86/36 40/94/36 42/100/36
f 75/169/37 38/91/37 42/101/37 77/172/37
f 102/219/38 97/211/38 51/127/38 81/180/38
f 91/199/39 10/27/39 45/109/39 93/203/39
f 90/197/40 13/34/40 46/112/40 92/201/40
f 61/150/41 9/24/41 44/106/41 78/174/41
f 64/154/42 14/35/42 47/115/42 79/176/42
f 96/209/43 94/206/43 50/124/43 80/179/43
f 101/218/44 99/215/44 48/118/44 80/178/44
f 104/221/45 98/213/45 49/121/45 95/208/45
f 103/220/46 100/217/46 50/125/46 94/205/46
f 8/23/47 53/135/47 52/131/47
f 8/23/48 52/131/48 4/10/48 106/225/48 3/7/48 55/140/48 7/20/48
f 54/138/49 58/145/49 89/196/49 5/16/49 107/227/49 6/18/49 57/144/49
f 100/216/50 101/218/50 80/178/50 50/126/50
f 95/207/51 96/209/51 80/179/51 48/119/51
f 10/27/52 64/154/52 79/176/52 45/109/52
f 13/34/53 61/150/53 78/174/53 46/112/53
f 98/212/54 102/219/54 81/180/54 49/122/54
f 39/93/55 75/169/55 77/172/55 43/105/55
f 36/87/56 74/168/56 76/170/56 40/95/56
f 40/96/57 76/171/57 77/173/57 42/102/57
f 32/79/58 72/166/58 74/168/58 36/87/58
f 35/85/59 73/167/59 75/169/59 39/93/59
f 1/2/60 60/149/60 72/166/60 32/79/60
f 14/35/61 64/154/61 71/165/61 31/77/61
f 29/73/62 70/164/62 73/167/62 35/85/62
f 28/71/63 70/164/63 71/165/63 30/75/63
f 85/189/64 86/191/64 69/162/64 27/68/64
f 82/182/65 87/193/65 68/159/65 25/65/65
f 27/69/66 69/163/66 68/160/66 24/62/66
f 11/29/67 62/151/67 67/158/67 22/56/67
f 18/44/68 66/156/68 65/155/68 20/51/68
f 7/21/69 55/141/69 63/152/69 12/30/69
f 22/56/70 67/158/70 65/155/70 17/43/70
f 9/24/71 61/150/71 62/151/71 11/29/71
f 19/49/72 66/156/72 87/193/72 82/182/72
f 12/31/73 18/45/73 20/52/73 21/54/73 16/41/73
f 66/157/74 18/48/74 84/187/74 87/194/74
f 23/57/75 19/50/75 82/183/75 83/184/75
f 49/123/76 81/181/76 96/209/76 95/207/76
f 97/210/77 103/220/77 94/205/77 51/128/77
f 99/214/78 104/221/78 95/208/78 48/120/78
f 81/181/79 51/129/79 94/206/79 96/209/79
f 14/35/80 90/197/80 92/201/80 47/115/80
f 9/24/81 91/199/81 93/203/81 44/106/81
f 3/8/82 88/195/82 91/200/82 9/25/82
f 5/16/83 89/196/83 90/198/83 14/36/83
f 44/107/84 93/204/84 104/221/84 99/214/84
f 47/116/85 92/202/85 103/220/85 97/210/85
f 45/110/86 79/177/86 102/219/86 98/212/86
f 46/113/87 78/175/87 101/218/87 100/216/87
f 92/202/88 46/114/88 100/217/88 103/220/88
f 93/204/89 45/111/89 98/213/89 104/221/89
f 78/175/90 44/108/90 99/215/90 101/218/90
f 79/177/91 47/117/91 97/211/91 102/219/91
f 59/146/92 4/11/92 52/130/92 53/133/92 54/136/92 108/228/92
f 136/291/93 110/234/93 109/231/93 135/289/93
f 121/264/94 120/262/94 114/246/94 117/254/94
f 139/297/95 111/237/95 110/235/95 136/290/95
f 135/288/96 109/232/96 112/240/96 144/307/96
f 144/306/97 112/241/97 111/238/97 139/296/97
f 111/239/98 112/242/98 109/233/98 110/236/98
f 117/255/99 114/247/99 116/252/99 115/249/99 113/243/99
f 124/270/100 121/263/100 117/256/100 113/244/100
f 120/261/101 129/277/101 116/253/101 114/248/101
f 130/279/102 124/269/102 113/245/102 115/250/102
f 129/277/103 130/278/103 115/251/103 116/253/103
f 57/144/104 56/142/104 132/282/104 127/275/104
f 127/275/105 132/282/105 131/280/105 128/276/105
f 128/276/106 131/280/106 130/278/106 129/277/106
f 56/143/107 2/4/107 126/273/107 132/283/107
f 132/283/108 126/273/108 125/271/108 131/281/108
f 131/281/109 125/271/109 124/269/109 130/279/109
f 54/138/110 57/144/110 127/275/110 118/257/110
f 118/257/111 127/275/111 128/276/111 119/259/111
f 119/259/112 128/276/112 129/277/112 120/261/112
f 2/5/113 108/230/113 123/267/113 126/274/113
f 126/274/114 123/267/114 122/265/114 125/272/114
f 125/272/115 122/265/115 121/263/115 124/270/115
f 108/229/116 54/137/116 118/258/116 123/268/116
f 123/268/117 118/258/117 119/260/117 122/266/117
f 122/266/118 119/260/118 120/262/118 121/264/118
f 54/138/119 142/302/119 141/300/119 53/134/119
f 142/302/120 143/304/120 140/298/120 141/300/120
f 143/304/121 144/306/121 139/296/121 140/298/121
f 4/12/122 133/284/122 142/303/122 54/139/122
f 133/284/123 134/286/123 143/305/123 142/303/123
f 134/286/124 135/288/124 144/307/124 143/305/124
f 53/135/125 141/301/125 138/294/125 52/131/125
f 141/301/126 140/299/126 137/292/126 138/294/126
f 140/299/127 139/297/127 136/290/127 137/292/127
f 52/132/128 138/295/128 133/285/128 4/13/128
f 138/295/129 137/293/129 134/287/129 133/285/129
f 137/293/130 136/291/130 135/289/130 134/287/130
f 105/223/131 1/3/131 88/195/131 59/147/131 108/230/131 2/5/131
f 86/192/132 85/188/132 83/185/132
f 83/185/133 85/188/133 18/46/133 23/58/133
f 63/153/134 15/39/134 23/59/134 18/47/134 12/32/134
f 84/187/135 18/48/135 85/189/135
l 52 106
