# Blender 3.3.1
# www.blender.org
mtllib monstruo_3_grande_caminar578.mtl
o monstruo_grande
v 0.418240 2.017433 0.223284
v 0.525929 1.144045 0.048644
v -0.678860 1.813123 0.087202
v -0.292720 1.207037 0.219921
v 0.695181 2.271200 -0.065395
v 0.584271 1.618271 -0.228262
v -0.747704 1.990607 -0.371368
v -0.685788 1.675478 -0.391130
v -0.293009 2.439444 0.349862
v 0.256550 2.314448 0.390133
v -0.438069 2.420899 0.439287
v -1.116419 2.070083 -0.265464
v -0.243113 2.578171 -0.015358
v 0.296793 2.437683 0.121415
v -0.992871 1.944322 -0.072770
v -0.401690 2.658206 -0.015168
v -0.801299 2.358926 0.420575
v -1.442760 2.030154 -0.040144
v -1.193313 2.071990 0.200274
v -0.930349 2.655905 0.107278
v -0.586579 2.709473 0.027869
v -0.517564 2.379870 0.412471
v -1.123338 1.968457 -0.095863
v -1.906678 0.823706 0.639965
v -1.787743 0.795875 0.698703
v -1.764884 0.612829 0.504757
v -1.837478 0.629817 0.468905
v 0.382296 2.220282 0.393423
v 0.564679 2.394648 0.173961
v 0.364551 2.338024 0.397655
v 0.425020 2.454421 0.173615
v 0.623502 1.921070 0.296230
v 0.825844 1.929835 0.212100
v 0.655099 1.978223 0.347756
v 0.792935 2.068891 0.236989
v 0.700743 1.684243 0.462929
v 0.810539 1.678272 0.432170
v 0.732482 1.700375 0.562823
v 0.842478 1.699457 0.528325
v 0.669431 1.578318 0.574036
v 0.897316 1.575971 0.505216
v 0.667574 1.587101 0.770921
v 1.011835 1.582139 0.662580
v -0.130980 2.484279 0.388430
v 0.077992 2.453447 0.393205
v -0.104332 2.568826 0.135745
v 0.097782 2.536050 0.144742
v -0.076598 2.800073 0.526814
v 0.129368 2.729827 0.503250
v -0.071546 2.902284 0.268148
v 0.133532 2.832409 0.243754
v -0.500677 1.173663 0.023412
v -0.393092 1.145403 -0.191720
v -0.035079 1.257119 -0.338322
v -0.715524 1.833835 -0.145475
v 0.543250 1.250909 -0.160270
v 0.325096 1.294057 -0.276901
v 0.038141 1.506436 -0.345593
v -0.024118 1.125671 0.185598
v 0.519681 2.088883 0.125916
v -0.269089 2.488494 0.222286
v -0.428990 2.656385 0.258181
v -0.912851 1.997526 -0.188096
v 0.254840 2.436204 0.279264
v -0.808904 2.581374 0.353505
v -1.365968 2.184484 0.208679
v -0.581242 2.646965 0.236370
v -1.861544 0.810417 0.698654
v -1.781539 0.501893 0.390470
v 0.498139 2.318893 0.324506
v 0.396974 2.442984 0.305717
v 0.702131 1.898151 0.209433
v 0.751297 2.032699 0.338615
v 0.755719 1.683129 0.445966
v 0.787473 1.699583 0.545517
v 0.776851 1.569100 0.517741
v 0.826626 1.569469 0.675888
v -0.119781 2.525369 0.260569
v 0.085461 2.496403 0.267910
v -0.105325 2.853163 0.397877
v 0.162894 2.779469 0.373736
v -1.635028 1.109098 0.646216
v -1.700092 0.937497 0.579139
v -1.842823 1.127421 0.546712
v -1.812038 0.963693 0.523853
v -1.761292 0.781841 0.482119
v -1.767668 1.102566 0.646999
v -0.061405 1.815988 0.455075
v 0.193066 2.131409 -0.263578
v 0.117547 2.526500 -0.032963
v -0.005301 2.325000 0.530484
v -0.008044 2.551528 0.138298
v -0.020820 2.466677 0.390032
v 0.031577 2.882319 0.216558
v 0.025580 2.749611 0.553720
v 0.032298 2.867589 0.406462
v 0.128240 2.694337 0.168720
v 0.118503 2.581192 0.464599
v -0.117763 2.635411 0.480960
v -0.110298 2.749454 0.181618
v -0.131112 2.694002 0.331968
v 0.138279 2.637748 0.316340
v 0.008508 2.729343 0.154202
v 0.001159 2.599164 0.493143
v 0.491769 1.650020 0.073893
v -0.587391 1.536481 0.142797
v 0.623723 1.829230 -0.205977
v 0.172303 1.073180 0.158456
v -0.203777 0.048607 0.157757
v -0.348615 0.059306 0.279509
v -0.373469 0.051379 0.028888
v -0.238281 0.045124 0.014868
v 0.360448 0.026945 -0.391613
v 0.285613 0.039494 -0.465353
v 0.368950 0.032161 -0.429929
v 0.336863 0.036066 -0.455378
v 0.301833 0.027376 -0.380077
v 0.090993 0.915910 -0.259054
v 0.165727 0.640337 -0.292673
v 0.228155 0.346616 -0.357814
v 0.266745 0.271601 -0.196607
v 0.232336 0.480784 -0.048551
v 0.219575 0.730992 0.073709
v 0.388073 0.288774 -0.219614
v 0.436767 0.514226 -0.085554
v 0.501097 0.832425 0.033707
v 0.345673 0.951517 -0.236624
v 0.345943 0.636948 -0.265517
v 0.335333 0.343958 -0.340046
v 0.403468 0.325526 -0.291976
v 0.461245 0.608287 -0.187302
v 0.517632 0.928966 -0.131629
v -0.166296 0.970735 0.373697
v -0.146711 0.668812 0.369401
v -0.145736 0.422020 0.378443
v -0.430995 0.412291 0.369177
v -0.438171 0.686440 0.315313
v -0.457739 0.938230 0.263157
v -0.464484 0.415176 0.099152
v -0.470314 0.685418 0.046837
v -0.480297 0.893289 -0.009745
v -0.085007 0.844624 -0.040430
v -0.127477 0.655587 0.006090
v -0.172367 0.451823 0.061704
vn 0.0253 0.5043 -0.8632
vn 0.0235 -0.0378 -0.9990
vn 0.4282 -0.2105 -0.8788
vn -0.3400 -0.1845 0.9221
vn 0.9223 -0.1197 0.3675
vn 0.6158 0.7619 0.2006
vn 0.2238 0.8791 -0.4209
vn 0.4795 -0.1944 0.8557
vn -0.0906 0.9463 0.3104
vn -0.0301 0.4826 -0.8753
vn -0.2368 -0.4150 0.8784
vn -0.4127 -0.8792 -0.2382
vn -0.3454 -0.0216 0.9382
vn 0.2278 -0.8398 0.4928
vn 0.9039 -0.3180 0.2859
vn -0.1176 -0.6790 0.7247
vn 0.1305 0.9819 0.1370
vn -0.0984 -0.7211 0.6858
vn -0.7096 0.3382 0.6181
vn 0.9582 -0.0579 -0.2800
vn -0.8179 0.0803 -0.5698
vn 0.5336 0.7413 0.4072
vn 0.2293 0.1710 0.9582
vn -0.3872 -0.4897 0.7812
vn -0.1792 0.6693 0.7211
vn -0.9237 0.0067 0.3831
vn -0.0819 -0.5921 -0.8017
vn 0.8691 0.4923 0.0484
vn -0.4514 -0.5833 0.6753
vn 0.7613 0.4291 -0.4861
vn -0.0545 0.5606 0.8263
vn 0.9991 0.0295 -0.0311
vn 0.0599 -0.6956 -0.7159
vn 0.0628 -0.9980 -0.0120
vn -0.1131 -0.5911 -0.7986
vn -0.8854 0.4620 0.0504
vn 0.3594 0.7445 0.5627
vn 0.9876 -0.0330 -0.1532
vn 0.3215 0.5863 0.7436
vn 0.1473 0.9876 -0.0541
vn -0.3076 0.9098 0.2788
vn 0.3925 0.8962 0.2070
vn 0.0585 0.9778 0.2014
vn -0.9709 0.1317 0.1999
vn 0.2667 -0.3317 0.9049
vn -0.2220 0.4627 -0.8583
vn -0.7753 -0.5469 -0.3159
vn -0.9291 -0.3026 0.2126
vn 0.2213 0.0882 -0.9712
vn -0.9644 0.2464 -0.0960
vn 0.0505 0.8509 0.5230
vn 0.4125 0.7424 0.5279
vn -0.2852 0.9098 0.3016
vn 0.9788 -0.1613 0.1261
vn 0.0452 0.7472 0.6631
vn -0.3640 -0.5854 -0.7244
vn -0.0797 -0.9962 0.0364
vn -0.5388 -0.6424 -0.5450
vn 0.5805 0.5170 0.6291
vn -0.3479 -0.7651 -0.5418
vn -0.0930 0.9954 0.0219
vn 0.6359 0.5664 0.5242
vn 0.4912 0.2910 0.8210
vn -0.3254 0.2425 -0.9140
vn 0.0099 0.1656 0.9861
vn -0.7283 -0.5737 0.3747
vn -0.2835 0.5349 0.7959
vn -0.7049 0.6883 0.1713
vn -0.4034 -0.8529 -0.3313
vn 0.1380 0.4567 0.8789
vn 0.5368 0.5910 0.6021
vn 0.1464 0.3412 0.9285
vn -0.3298 0.5600 -0.7601
vn -0.8652 0.4566 0.2072
vn 0.9116 -0.3217 0.2560
vn 0.5023 0.7053 0.5002
vn 0.3099 0.3810 -0.8711
vn -0.2656 -0.2584 0.9288
vn 0.5082 0.8510 0.1322
vn 0.3493 0.9369 -0.0115
vn -0.1755 0.5745 0.7994
vn -0.5221 -0.0503 0.8514
vn 0.2792 0.7134 -0.6427
vn -0.1772 -0.5438 0.8203
vn 0.1145 0.1012 -0.9882
vn 0.9475 -0.3190 -0.0217
vn -0.9912 -0.0047 -0.1323
vn -0.0836 0.1716 -0.9816
vn 0.0165 -0.5596 0.8286
vn -1.0000 0.0016 0.0083
vn 0.9652 -0.2489 -0.0803
vn -0.0454 -0.9955 -0.0829
vn 0.2337 -0.3754 0.8969
vn -0.9637 -0.2317 0.1324
vn -0.9602 -0.2568 0.1101
vn 0.9845 -0.1094 -0.1372
vn -0.1285 0.1449 -0.9811
vn -0.0432 -0.9984 0.0355
vn -0.0329 -0.9907 -0.1323
vn 0.2061 -0.5604 0.8021
vn 0.1746 0.3502 -0.9202
vn 0.9725 -0.1866 0.1392
vn 0.6076 0.2798 -0.7433
vn 0.4797 -0.0941 -0.8723
vn 0.5446 0.0632 -0.8363
vn 0.5884 0.1757 -0.7892
vn 0.9958 -0.0783 0.0475
vn 0.9817 -0.1897 0.0154
vn 0.9723 -0.2279 0.0515
vn 0.1499 -0.1390 -0.9789
vn 0.1039 0.1178 -0.9876
vn 0.1548 0.2417 -0.9579
vn 0.2624 -0.1366 0.9552
vn 0.2503 -0.3978 0.8827
vn 0.2327 -0.5349 0.8122
vn -0.9324 -0.2387 0.2715
vn -0.9567 -0.2168 0.1942
vn -0.9653 -0.2345 0.1148
vn -0.1453 -0.5593 -0.8161
vn -0.1188 -0.2405 -0.9633
vn -0.1172 -0.2113 -0.9704
vn 0.9052 0.3095 0.2913
vn 0.9903 -0.0346 0.1343
vn 0.9950 -0.0989 -0.0132
vn -0.9851 -0.0522 -0.1638
vn -0.9938 -0.0393 0.1038
vn -0.9927 -0.0001 0.1210
vn -0.5127 0.4339 0.7408
vn -0.2727 0.0637 0.9600
vn -0.1068 0.1175 0.9873
vn 0.4164 -0.1891 0.8893
vn 0.4787 0.3211 -0.8171
vn -0.0973 -0.4733 -0.8755
vn -0.1769 -0.8457 -0.5035
vn -0.7798 -0.0596 -0.6232
vt 0.882279 0.260085
vt 0.436089 0.649131
vt 0.117664 0.305524
vt 0.860974 0.338762
vt 0.079561 0.383885
vt 0.278417 0.728674
vt 0.111517 0.716819
vt 0.301243 0.337859
vt 0.232943 0.387386
vt 0.111517 0.662267
vt 0.671871 0.687525
vt 0.175114 0.511099
vt 0.930991 0.712692
vt 0.796001 0.259488
vt 0.522181 0.649131
vt 0.719621 0.316178
vt 0.801110 0.310020
vt 0.698705 0.366293
vt 0.510656 0.337024
vt 0.023033 0.717149
vt 0.367094 0.730187
vt 0.507246 0.358198
vt 0.018976 0.695717
vt 0.103380 0.570561
vt 0.268725 0.266033
vt 0.143950 0.273348
vt 0.098384 0.631539
vt 0.301351 0.259488
vt 0.128079 0.559933
vt 0.480438 0.333338
vt 0.348619 0.714075
vt 0.604958 0.268707
vt 0.031105 0.562973
vt 0.043818 0.625810
vt 0.721993 0.282954
vt 0.329365 0.336360
vt 0.302724 0.713315
vt 0.030374 0.549675
vt 0.582817 0.260846
vt 0.875347 0.642471
vt 0.380514 0.272320
vt 0.124895 0.517524
vt 0.813390 0.578569
vt 0.436089 0.332372
vt 0.956124 0.588845
vt 0.367094 0.692599
vt 0.367094 0.522797
vt 0.871643 0.594841
vt 0.398138 0.324445
vt 0.043891 0.509019
vt 0.796001 0.641153
vt 0.491075 0.268473
vt 0.032114 0.534706
vt 0.552485 0.259488
vt 0.331566 0.259909
vt 0.129819 0.544964
vt 0.339759 0.337186
vt 0.913298 0.588845
vt 0.317584 0.707220
vt 0.845734 0.463378
vt 0.311567 0.646434
vt 0.944558 0.353645
vt 0.398138 0.462439
vt 0.920230 0.354337
vt 0.870057 0.463781
vt 0.929709 0.374247
vt 0.357807 0.478584
vt 0.347994 0.663056
vt 0.944558 0.373825
vt 0.097076 0.285727
vt 0.229765 0.651022
vt 0.758050 0.297859
vt 0.168317 0.651042
vt 0.119329 0.272208
vt 0.094178 0.643292
vt 0.222768 0.636959
vt 0.746872 0.283208
vt 0.174541 0.636975
vt 0.045175 0.638147
vt 0.080672 0.327471
vt 0.442544 0.673801
vt 0.734592 0.339187
vt 0.484453 0.673801
vt 0.070725 0.319456
vt 0.218298 0.685110
vt 0.751374 0.331694
vt 0.180611 0.684911
vt 0.062412 0.356092
vt 0.455575 0.702696
vt 0.724658 0.367821
vt 0.476314 0.702696
vt 0.043357 0.357400
vt 0.210236 0.723455
vt 0.742364 0.370210
vt 0.189444 0.723462
vt 0.050281 0.367705
vt 0.444942 0.715336
vt 0.810526 0.722486
vt 0.728448 0.380153
vt 0.853695 0.722486
vt 0.487920 0.715336
vt 0.018975 0.371756
vt 0.232852 0.738567
vt 0.796001 0.739289
vt 0.758050 0.386241
vt 0.861207 0.739289
vt 0.167770 0.738589
vt 0.100634 0.583041
vt 0.712300 0.698974
vt 0.802197 0.701507
vt 0.098640 0.600731
vt 0.972705 0.287497
vt 0.747907 0.696578
vt 0.052045 0.577939
vt 0.849895 0.701507
vt 0.710445 0.675017
vt 0.050052 0.595630
vt 0.746553 0.677603
vt 0.924885 0.287497
vt 0.797725 0.671259
vt 0.981025 0.313792
vt 0.715147 0.730011
vt 0.752543 0.724602
vt 0.973919 0.259495
vt 0.967002 0.332143
vt 0.934252 0.306472
vt 0.715328 0.644023
vt 0.847669 0.671259
vt 0.923848 0.259495
vt 0.753088 0.649631
vt 0.920230 0.324823
vt 0.068284 0.665533
vt 0.630362 0.705721
vt 0.712055 0.621316
vt 0.966165 0.712391
vt 0.519769 0.388732
vt 0.031375 0.663704
vt 0.592215 0.695479
vt 0.581836 0.620019
vt 0.750017 0.621843
vt 0.569690 0.667298
vt 0.581066 0.387596
vt 0.531739 0.516092
vt 0.642835 0.625048
vt 0.273616 0.509019
vt 0.070982 0.710642
vt 0.316851 0.732164
vt 0.684917 0.393810
vt 0.816625 0.338063
vt 0.644803 0.392946
vt 0.602800 0.367236
vt 0.671871 0.661666
vt 0.181146 0.386242
vt 0.855113 0.259897
vt 0.463196 0.649131
vt 0.077903 0.567886
vt 0.078993 0.554271
vt 0.322237 0.720993
vt 0.070972 0.628379
vt 0.834014 0.651825
vt 0.084160 0.512738
vt 0.838315 0.596273
vt 0.320679 0.509019
vt 0.080733 0.539302
vt 0.857365 0.464048
vt 0.931678 0.351118
vt 0.335174 0.488977
vt 0.367094 0.673623
vt 0.939667 0.384854
vt 0.199177 0.651021
vt 0.069465 0.641494
vt 0.198664 0.632807
vt 0.464209 0.672968
vt 0.199604 0.684998
vt 0.465945 0.702696
vt 0.199840 0.723459
vt 0.466714 0.715004
vt 0.832520 0.720483
vt 0.200177 0.738589
vt 0.829423 0.735282
vt 0.076340 0.580490
vt 0.826046 0.701507
vt 0.074346 0.598181
vt 0.948795 0.287497
vt 0.823088 0.670800
vt 0.959731 0.307426
vt 0.948976 0.259488
vt 0.941524 0.331189
vt 0.875347 0.491894
vt 0.391834 0.432095
vt 0.377694 0.448634
vt 0.915590 0.478791
vt 0.834644 0.488373
vt 0.326937 0.619279
vt 0.938593 0.478810
vt 0.335216 0.632947
vt 0.358601 0.463790
vt 0.348787 0.648138
vt 0.927106 0.463378
vt 0.854274 0.489560
vt 0.315804 0.619182
vt 0.212520 0.321385
vt 0.644070 0.318501
vt 0.018976 0.592450
vt 0.663817 0.276029
vt 0.129819 0.597828
vt 0.224108 0.269832
vt 0.051049 0.586785
vt 0.728499 0.676310
vt 0.099637 0.591886
vt 0.730103 0.697776
vt 0.734390 0.646904
vt 0.920230 0.314550
vt 0.981025 0.324065
vt 0.732426 0.727384
vt 0.950683 0.319044
vt 0.753088 0.663662
vt 0.920230 0.273492
vt 0.977552 0.273492
vt 0.752543 0.710647
vt 0.709822 0.714522
vt 0.796001 0.686127
vt 0.853178 0.686127
vt 0.709822 0.659561
vt 0.824792 0.685890
vt 0.948939 0.273488
vt 0.731549 0.661651
vt 0.730449 0.712624
vt 0.878850 0.297575
vt 0.096711 0.342677
vt 0.285581 0.357771
vt 0.108549 0.696221
vt 0.804979 0.293594
vt 0.708839 0.350023
vt 0.668288 0.644023
vt 0.436089 0.526409
vt 0.145034 0.385321
vt 0.919159 0.607821
vt 0.247387 0.613831
vt 0.970304 0.416607
vt 0.947808 0.608020
vt 0.704660 0.516092
vt 0.970304 0.403829
vt 0.750017 0.516884
vt 0.618892 0.516092
vt 0.920230 0.404231
vt 0.273616 0.612878
vt 0.642836 0.516847
vt 0.938584 0.415207
vt 0.924281 0.443436
vt 0.075400 0.489812
vt 0.855524 0.444402
vt 0.531739 0.629156
vt 0.934913 0.435583
vt 0.576828 0.496673
vt 0.931440 0.443424
vt 0.848383 0.444289
vt 0.592622 0.497116
vt 0.934913 0.440184
vt 0.586164 0.496977
vt 0.517161 0.630156
vt 0.920230 0.438606
vt 0.085942 0.490043
vt 0.585376 0.420489
vt 0.510472 0.551446
vt 0.582586 0.444044
vt 0.504260 0.576063
vt 0.581388 0.469636
vt 0.508131 0.602400
vt 0.103684 0.463024
vt 0.477645 0.604263
vt 0.118194 0.440373
vt 0.454885 0.581958
vt 0.129418 0.415411
vt 0.438452 0.557360
vt 0.876897 0.417052
vt 0.081901 0.462161
vt 0.882279 0.393921
vt 0.081653 0.438865
vt 0.880271 0.363315
vt 0.079604 0.408162
vt 0.633117 0.418943
vt 0.615530 0.444447
vt 0.600997 0.469910
vt 0.614559 0.469949
vt 0.862035 0.416811
vt 0.638313 0.444473
vt 0.857648 0.390640
vt 0.666106 0.417503
vt 0.844696 0.362700
vt 0.167770 0.536691
vt 0.914144 0.688660
vt 0.182151 0.561697
vt 0.913298 0.663084
vt 0.189855 0.582503
vt 0.915415 0.641729
vt 0.680787 0.549268
vt 0.966165 0.641681
vt 0.684678 0.573659
vt 0.963812 0.665813
vt 0.684995 0.596421
vt 0.964308 0.688427
vt 0.584794 0.548886
vt 0.729850 0.550060
vt 0.578610 0.572959
vt 0.734888 0.574452
vt 0.569690 0.595426
vt 0.736445 0.597214
vt 0.642060 0.590920
vt 0.247172 0.543053
vt 0.641052 0.570535
vt 0.248998 0.562413
vt 0.635978 0.552556
vt 0.245738 0.579271
s 0
usemtl Material
f 89/203/1 7/19/1 13/32/1 90/205/1
f 8/22/2 7/19/2 89/203/2 58/151/2 54/142/2 53/136/2
f 6/18/3 56/148/3 57/150/3
f 3/8/4 106/231/4 4/9/4 59/153/4 88/202/4
f 6/17/5 107/233/5 5/14/5 60/154/5 1/1/5 105/229/5 2/4/5 56/149/5
f 61/156/6 13/33/6 16/38/6 62/157/6
f 5/16/7 14/35/7 31/77/7 29/72/7
f 88/202/8 1/3/8 10/26/8 91/207/8
f 67/164/9 21/53/9 20/50/9 65/161/9
f 13/32/10 7/19/10 12/30/10 16/39/10
f 3/8/11 9/25/11 11/28/11 15/36/11
f 55/147/12 3/6/12 15/37/12 63/158/12
f 66/162/13 19/48/13 17/40/13 65/160/13
f 23/57/14 22/55/14 17/41/14 19/49/14
f 83/191/15 82/190/15 25/63/15 26/67/15
f 15/36/16 11/28/16 22/55/16 23/57/16
f 62/157/17 16/38/17 21/53/17 67/164/17
f 69/169/18 26/66/18 25/64/18 68/166/18
f 87/200/19 84/193/19 24/60/19 68/165/19
f 86/197/20 83/191/20 26/67/20 69/167/20
f 84/194/21 85/196/21 27/68/21 24/61/21
f 70/170/22 29/73/22 31/78/22 71/172/22
f 70/170/23 28/71/23 34/85/23 73/174/23
f 10/26/24 1/3/24 28/70/24 30/74/24
f 64/159/25 10/27/25 30/75/25 71/171/25
f 34/84/26 32/80/26 36/88/26 38/92/26
f 60/155/27 5/15/27 33/83/27 72/173/27
f 5/16/28 29/72/28 35/86/28 33/82/28
f 28/70/29 1/3/29 32/80/29 34/84/29
f 37/90/30 39/94/30 43/105/30 41/99/30
f 73/174/31 34/85/31 38/93/31 75/176/31
f 33/82/32 35/86/32 39/94/32 37/90/32
f 72/173/33 33/83/33 37/91/33 74/175/33
f 76/178/34 41/100/34 43/106/34 77/180/34
f 74/175/35 37/91/35 41/101/35 76/177/35
f 38/92/36 36/88/36 40/96/36 42/102/36
f 75/176/37 38/93/37 42/103/37 77/179/37
f 102/226/38 97/218/38 51/129/38 81/187/38
f 91/206/39 10/27/39 45/111/39 93/210/39
f 90/204/40 13/33/40 46/114/40 92/208/40
f 61/156/41 9/24/41 44/108/41 78/181/41
f 64/159/42 14/34/42 47/117/42 79/183/42
f 96/216/43 94/213/43 50/126/43 80/186/43
f 101/225/44 99/222/44 48/120/44 80/185/44
f 104/228/45 98/220/45 49/123/45 95/215/45
f 103/227/46 100/224/46 50/127/46 94/212/46
f 8/23/47 53/137/47 52/132/47
f 8/23/48 52/132/48 4/10/48 106/232/48 3/7/48 55/146/48 7/20/48
f 54/142/49 58/151/49 89/203/49 5/16/49 107/234/49 6/18/49 57/150/49
f 100/223/50 101/225/50 80/185/50 50/128/50
f 95/214/51 96/216/51 80/186/51 48/121/51
f 10/27/52 64/159/52 79/183/52 45/111/52
f 13/33/53 61/156/53 78/181/53 46/114/53
f 98/219/54 102/226/54 81/187/54 49/124/54
f 39/95/55 75/176/55 77/179/55 43/107/55
f 36/89/56 74/175/56 76/177/56 40/97/56
f 40/98/57 76/178/57 77/180/57 42/104/57
f 32/81/58 72/173/58 74/175/58 36/89/58
f 35/87/59 73/174/59 75/176/59 39/95/59
f 1/2/60 60/155/60 72/173/60 32/81/60
f 14/34/61 64/159/61 71/171/61 31/79/61
f 29/73/62 70/170/62 73/174/62 35/87/62
f 28/71/63 70/170/63 71/172/63 30/76/63
f 85/196/64 86/198/64 69/168/64 27/68/64
f 82/189/65 87/200/65 68/165/65 25/65/65
f 27/69/66 69/169/66 68/166/66 24/62/66
f 11/29/67 62/157/67 67/164/67 22/56/67
f 18/43/68 66/162/68 65/160/68 20/51/68
f 7/21/69 55/147/69 63/158/69 12/31/69
f 22/56/70 67/164/70 65/161/70 17/42/70
f 9/24/71 61/156/71 62/157/71 11/29/71
f 19/48/72 66/162/72 87/200/72 82/189/72
f 12/30/73 18/44/73 20/52/73 21/54/73 16/39/73
f 66/163/74 18/47/74 84/194/74 87/201/74
f 23/57/75 19/49/75 82/190/75 83/191/75
f 49/125/76 81/188/76 96/216/76 95/214/76
f 97/217/77 103/227/77 94/212/77 51/130/77
f 99/221/78 104/228/78 95/215/78 48/122/78
f 81/188/79 51/131/79 94/213/79 96/216/79
f 14/34/80 90/204/80 92/208/80 47/117/80
f 9/24/81 91/206/81 93/210/81 44/108/81
f 3/8/82 88/202/82 91/207/82 9/25/82
f 5/16/83 89/203/83 90/205/83 14/35/83
f 44/109/84 93/211/84 104/228/84 99/221/84
f 47/118/85 92/209/85 103/227/85 97/217/85
f 45/112/86 79/184/86 102/226/86 98/219/86
f 46/115/87 78/182/87 101/225/87 100/223/87
f 92/209/88 46/116/88 100/224/88 103/227/88
f 93/211/89 45/113/89 98/220/89 104/228/89
f 78/182/90 44/110/90 99/222/90 101/225/90
f 79/184/91 47/119/91 97/218/91 102/226/91
f 59/152/92 4/11/92 52/133/92 53/138/92 54/141/92 108/235/92
f 136/298/93 110/241/93 109/238/93 135/296/93
f 121/271/94 120/269/94 114/253/94 117/261/94
f 139/304/95 111/244/95 110/242/95 136/297/95
f 135/295/96 109/239/96 112/247/96 144/314/96
f 144/313/97 112/248/97 111/245/97 139/303/97
f 111/246/98 112/249/98 109/240/98 110/243/98
f 117/262/99 114/254/99 116/259/99 115/256/99 113/250/99
f 124/277/100 121/270/100 117/263/100 113/251/100
f 120/268/101 129/284/101 116/260/101 114/255/101
f 130/286/102 124/276/102 113/252/102 115/257/102
f 129/284/103 130/285/103 115/258/103 116/260/103
f 57/150/104 56/148/104 132/289/104 127/282/104
f 127/282/105 132/289/105 131/287/105 128/283/105
f 128/283/106 131/287/106 130/285/106 129/284/106
f 56/149/107 2/4/107 126/280/107 132/290/107
f 132/290/108 126/280/108 125/278/108 131/288/108
f 131/288/109 125/278/109 124/276/109 130/286/109
f 54/142/110 57/150/110 127/282/110 118/264/110
f 118/264/111 127/282/111 128/283/111 119/266/111
f 119/266/112 128/283/112 129/284/112 120/268/112
f 2/5/113 108/237/113 123/274/113 126/281/113
f 126/281/114 123/274/114 122/272/114 125/279/114
f 125/279/115 122/272/115 121/270/115 124/277/115
f 108/236/116 54/143/116 118/265/116 123/275/116
f 123/275/117 118/265/117 119/267/117 122/273/117
f 122/273/118 119/267/118 120/269/118 121/271/118
f 54/144/119 142/309/119 141/307/119 53/139/119
f 142/309/120 143/311/120 140/305/120 141/307/120
f 143/311/121 144/313/121 139/303/121 140/305/121
f 4/12/122 133/291/122 142/310/122 54/145/122
f 133/291/123 134/293/123 143/312/123 142/310/123
f 134/293/124 135/295/124 144/314/124 143/312/124
f 53/140/125 141/308/125 138/301/125 52/134/125
f 141/308/126 140/306/126 137/299/126 138/301/126
f 140/306/127 139/304/127 136/297/127 137/299/127
f 52/135/128 138/302/128 133/292/128 4/13/128
f 138/302/129 137/300/129 134/294/129 133/292/129
f 137/300/130 136/298/130 135/296/130 134/294/130
f 105/230/131 1/3/131 88/202/131 59/153/131 108/237/131 2/5/131
f 86/199/132 85/195/132 83/192/132
f 83/192/133 85/195/133 18/45/133 23/58/133
f 63/158/134 15/37/134 23/59/134 18/46/134 12/31/134
f 84/194/135 18/47/135 85/196/135
l 52 106
