# Blender 3.3.1
# www.blender.org
mtllib monstruo_3_grande_caminar607.mtl
o monstruo_grande
v 0.305118 2.042053 0.175779
v 0.525916 1.214422 0.085921
v -0.738996 1.716896 0.183128
v -0.290642 1.120747 0.223377
v 0.449003 2.333109 -0.168067
v 0.503981 1.638871 -0.264967
v -0.880825 1.924488 -0.244949
v -0.764077 1.640553 -0.305121
v -0.386685 2.395755 0.431314
v 0.175646 2.314684 0.389513
v -0.519338 2.364386 0.534622
v -1.244944 1.965719 -0.091880
v -0.385786 2.546328 0.066710
v 0.156923 2.450139 0.128573
v -1.091395 1.840133 0.077829
v -0.549401 2.612462 0.084755
v -0.874571 2.278314 0.556259
v -1.537636 1.901933 0.171110
v -1.266996 1.966276 0.379391
v -1.060959 2.566313 0.263791
v -0.732382 2.647640 0.147691
v -0.596611 2.319438 0.516157
v -1.224639 1.861887 0.074516
v -1.815153 0.673188 0.911312
v -1.689051 0.657644 0.958503
v -1.668955 0.471164 0.767545
v -1.745924 0.480652 0.738741
v 0.331512 2.230068 0.362348
v 0.417882 2.428776 0.103750
v 0.288898 2.347148 0.379114
v 0.288225 2.478387 0.151464
v 0.549578 1.915732 0.139276
v 0.659289 2.020933 -0.034579
v 0.577529 1.993882 0.193985
v 0.651188 2.115005 0.042612
v 0.709235 1.695774 0.046607
v 0.787843 1.731043 -0.027545
v 0.785912 1.639058 0.091651
v 0.863193 1.686327 0.019487
v 0.704374 1.539737 0.041792
v 0.868507 1.634217 -0.105365
v 0.795439 1.399791 0.146514
v 1.035584 1.542167 -0.082261
v -0.224561 2.454424 0.451754
v -0.013513 2.431664 0.435240
v -0.227213 2.546180 0.201189
v -0.025504 2.524072 0.188816
v -0.168287 2.767167 0.595637
v 0.036874 2.702065 0.555859
v -0.182369 2.879106 0.341376
v 0.021496 2.814479 0.300458
v -0.499673 1.123340 0.012042
v -0.387947 1.144037 -0.202566
v -0.053539 1.263754 -0.335032
v -0.796931 1.752218 -0.041337
v 0.548425 1.227170 -0.152558
v 0.328933 1.220636 -0.277492
v -0.023183 1.517117 -0.335533
v -0.011046 1.150116 0.197724
v 0.354315 2.130037 0.058757
v -0.379941 2.449477 0.303405
v -0.547707 2.603139 0.360312
v -1.022051 1.902878 -0.047475
v 0.142583 2.439092 0.288452
v -0.906018 2.499979 0.494527
v -1.445660 2.065047 0.408789
v -0.700000 2.582356 0.353969
v -1.763508 0.665735 0.965490
v -1.686700 0.355611 0.658101
v 0.413506 2.338741 0.260762
v 0.288712 2.458616 0.286703
v 0.558013 1.956179 0.012497
v 0.656861 2.064545 0.146921
v 0.747880 1.717563 0.010054
v 0.824272 1.661800 0.055108
v 0.766903 1.595790 -0.046192
v 0.881583 1.488827 0.007620
v -0.226336 2.499845 0.325406
v -0.020890 2.478970 0.311391
v -0.206469 2.824478 0.471034
v 0.060769 2.757273 0.426297
v -1.570758 0.981073 0.883763
v -1.626469 0.802430 0.827524
v -1.788000 0.978141 0.805304
v -1.745160 0.817060 0.783106
v -1.682691 0.639043 0.740744
v -1.701575 0.963114 0.897945
v -0.091570 1.783507 0.491762
v 0.022163 2.139014 -0.229491
v -0.028717 2.519518 0.008325
v -0.059626 2.295233 0.574781
v -0.128064 2.533848 0.193356
v -0.114846 2.440561 0.442768
v -0.082892 2.863198 0.282226
v -0.063663 2.717819 0.613779
v -0.068860 2.841369 0.471100
v 0.011663 2.679852 0.219627
v 0.026507 2.555111 0.511693
v -0.209287 2.603527 0.546347
v -0.226212 2.728209 0.251864
v -0.233907 2.667286 0.401064
v 0.034690 2.617578 0.364501
v -0.108896 2.712072 0.215177
v -0.089277 2.569324 0.549104
v 0.362651 1.745197 -0.036662
v -0.600932 1.446647 0.208356
v 0.481296 1.862589 -0.268832
v 0.178759 1.174799 0.199096
v -0.188126 0.000347 -0.052733
v -0.331878 0.006379 0.070342
v -0.359063 0.005069 -0.179377
v -0.223968 0.000164 -0.194763
v 0.367962 0.061575 -0.050179
v 0.291592 0.060216 -0.123456
v 0.375798 0.062425 -0.089013
v 0.343250 0.061188 -0.114176
v 0.309428 0.060012 -0.037676
v 0.105811 0.880003 -0.095718
v 0.162749 0.672241 -0.042856
v 0.222319 0.375564 -0.060677
v 0.270411 0.333732 0.109710
v 0.241793 0.567969 0.215427
v 0.232947 0.837349 0.286634
v 0.390122 0.346041 0.077113
v 0.443675 0.594680 0.164654
v 0.512345 0.923420 0.211799
v 0.360768 0.914104 -0.079096
v 0.343953 0.675350 -0.025058
v 0.330343 0.376435 -0.048717
v 0.401177 0.367827 -0.001798
v 0.463154 0.664636 0.051518
v 0.530725 0.942277 0.025145
v -0.170720 0.855404 0.314782
v -0.140002 0.565669 0.244777
v -0.132025 0.325169 0.204190
v -0.417063 0.311359 0.195627
v -0.432098 0.586843 0.197029
v -0.458707 0.843693 0.191487
v -0.454884 0.362226 -0.067324
v -0.467261 0.637982 -0.067044
v -0.473935 0.860021 -0.085323
v -0.077469 0.824081 -0.114438
v -0.124403 0.624765 -0.114636
v -0.164309 0.412411 -0.099940
vn -0.1055 0.5136 -0.8515
vn -0.0655 0.0455 -0.9968
vn 0.4906 -0.1798 -0.8526
vn -0.2319 -0.2747 0.9331
vn 0.9305 0.0960 0.3535
vn 0.5704 0.8059 0.1586
vn 0.0372 0.9166 -0.3980
vn 0.6604 -0.1925 0.7258
vn -0.1252 0.9339 0.3349
vn -0.1759 0.4931 -0.8520
vn -0.0892 -0.4517 0.8877
vn -0.3719 -0.8906 -0.2618
vn -0.2309 -0.0534 0.9715
vn 0.3372 -0.8195 0.4634
vn 0.9523 -0.2293 0.2015
vn -0.0023 -0.6736 0.7391
vn 0.0673 0.9867 0.1480
vn 0.0337 -0.7047 0.7087
vn -0.6731 0.2950 0.6782
vn 0.9277 0.0164 -0.3730
vn -0.8735 -0.0088 -0.4867
vn 0.5873 0.7550 0.2915
vn 0.5918 0.1274 0.7959
vn -0.1579 -0.5534 0.8178
vn -0.0887 0.6242 0.7762
vn -0.5135 -0.5518 0.6572
vn -0.4103 -0.4878 -0.7705
vn 0.8093 0.5495 -0.2078
vn -0.1638 -0.6440 0.7473
vn 0.5334 0.7884 -0.3064
vn 0.5474 0.0576 0.8349
vn 0.7490 0.3673 -0.5514
vn -0.3948 -0.2455 -0.8854
vn -0.2238 -0.6105 -0.7597
vn -0.6018 0.1998 -0.7732
vn -0.5998 0.0935 0.7946
vn 0.7653 0.1353 0.6293
vn 0.9736 -0.0089 -0.2280
vn 0.3863 0.5925 0.7069
vn 0.0769 0.9953 -0.0584
vn -0.3475 0.8759 0.3347
vn 0.3484 0.9170 0.1943
vn 0.0545 0.9705 0.2347
vn -0.9574 0.1041 0.2695
vn 0.3336 -0.3614 0.8707
vn -0.2900 0.4924 -0.8206
vn -0.6826 -0.6025 -0.4135
vn -0.8664 -0.4503 0.2156
vn 0.0785 0.0939 -0.9925
vn -0.9725 0.2325 -0.0145
vn 0.0700 0.8314 0.5512
vn 0.4316 0.7527 0.4971
vn -0.3191 0.8789 0.3546
vn 0.9880 -0.1451 0.0528
vn 0.5452 0.0004 0.8383
vn -0.7997 0.0897 -0.5936
vn -0.3229 -0.6870 -0.6509
vn -0.7644 -0.4976 -0.4099
vn 0.8585 0.3385 0.3854
vn -0.5462 -0.6810 -0.4878
vn -0.1759 0.9799 0.0941
vn 0.7837 0.5487 0.2911
vn 0.6586 0.3447 0.6689
vn -0.4332 0.1841 -0.8823
vn 0.0912 0.1972 0.9761
vn -0.6342 -0.6223 0.4588
vn -0.2330 0.4988 0.8348
vn -0.7304 0.6340 0.2540
vn -0.3686 -0.8581 -0.3575
vn 0.2063 0.4572 0.8651
vn 0.5506 0.6192 0.5598
vn 0.2235 0.3694 0.9020
vn -0.4566 0.5337 -0.7118
vn -0.8733 0.3843 0.2994
vn 0.9594 -0.2381 0.1512
vn 0.5220 0.6961 0.4929
vn 0.2401 0.4223 -0.8741
vn -0.1979 -0.2986 0.9336
vn 0.5005 0.8559 0.1302
vn 0.2756 0.9608 -0.0292
vn -0.1220 0.5247 0.8425
vn -0.4214 -0.1143 0.8997
vn 0.0454 0.7455 -0.6649
vn -0.0980 -0.5737 0.8132
vn 0.0280 0.1510 -0.9881
vn 0.9502 -0.2900 -0.1146
vn -0.9996 -0.0086 -0.0283
vn -0.1715 0.2036 -0.9639
vn 0.1002 -0.6008 0.7931
vn -0.9959 -0.0229 0.0876
vn 0.9499 -0.2434 -0.1959
vn 0.1594 -0.9736 -0.1634
vn 0.2323 -0.4967 0.8362
vn -0.9475 -0.2467 0.2034
vn -0.9516 -0.2932 0.0923
vn 0.9834 -0.0757 -0.1649
vn -0.1348 0.2514 -0.9585
vn -0.0345 -0.9994 0.0094
vn 0.0265 -0.9996 -0.0063
vn 0.2531 -0.4210 0.8710
vn 0.1264 0.2135 -0.9687
vn 0.9828 -0.1276 0.1331
vn 0.5709 0.1853 -0.7998
vn 0.4799 -0.4626 -0.7455
vn 0.5272 -0.2142 -0.8223
vn 0.5473 0.0386 -0.8361
vn 0.9954 -0.0037 0.0955
vn 0.9736 -0.2207 0.0576
vn 0.9744 -0.2193 0.0501
vn 0.0919 -0.5150 -0.8523
vn 0.0956 -0.2236 -0.9700
vn 0.1010 0.0769 -0.9919
vn 0.2110 0.3265 0.9213
vn 0.2933 -0.2137 0.9318
vn 0.2749 -0.3695 0.8876
vn -0.9301 -0.1177 0.3479
vn -0.9513 -0.1417 0.2737
vn -0.9548 -0.2080 0.2123
vn -0.1542 -0.3986 -0.9041
vn -0.1053 -0.0326 -0.9939
vn -0.1243 -0.0223 -0.9920
vn 0.9035 0.2703 0.3328
vn 0.9895 -0.0522 0.1347
vn 0.9969 -0.0680 -0.0401
vn -0.9806 -0.0240 -0.1944
vn -0.9943 -0.0649 0.0845
vn -0.9906 -0.0496 0.1276
vn -0.5454 0.2384 0.8036
vn -0.2821 -0.1415 0.9489
vn -0.0978 -0.0851 0.9916
vn 0.5895 -0.0578 0.8057
vn 0.3662 0.3351 -0.8681
vn -0.1658 -0.4956 -0.8526
vn -0.1973 -0.8437 -0.4993
vn -0.8289 -0.1460 -0.5400
vt 0.882279 0.260085
vt 0.436089 0.649131
vt 0.117664 0.305524
vt 0.860974 0.338762
vt 0.079561 0.383885
vt 0.278417 0.728674
vt 0.111517 0.716819
vt 0.301243 0.337859
vt 0.232943 0.387386
vt 0.111517 0.662267
vt 0.671871 0.687525
vt 0.175114 0.511099
vt 0.930991 0.712692
vt 0.796001 0.259488
vt 0.522181 0.649131
vt 0.719621 0.316178
vt 0.801110 0.310020
vt 0.698705 0.366293
vt 0.510656 0.337024
vt 0.023033 0.717149
vt 0.367094 0.730187
vt 0.507246 0.358198
vt 0.018976 0.695717
vt 0.103380 0.570561
vt 0.268725 0.266033
vt 0.143950 0.273348
vt 0.098384 0.631539
vt 0.301351 0.259488
vt 0.128079 0.559933
vt 0.480438 0.333338
vt 0.348619 0.714075
vt 0.604958 0.268707
vt 0.031105 0.562973
vt 0.043818 0.625810
vt 0.721993 0.282954
vt 0.329365 0.336360
vt 0.302724 0.713315
vt 0.030374 0.549675
vt 0.582817 0.260846
vt 0.875347 0.642471
vt 0.380514 0.272320
vt 0.124895 0.517524
vt 0.813390 0.578569
vt 0.436089 0.332372
vt 0.956124 0.588845
vt 0.367094 0.692599
vt 0.367094 0.522797
vt 0.871643 0.594841
vt 0.398138 0.324445
vt 0.043891 0.509019
vt 0.796001 0.641153
vt 0.491075 0.268473
vt 0.032114 0.534706
vt 0.552485 0.259488
vt 0.331566 0.259909
vt 0.129819 0.544964
vt 0.339759 0.337186
vt 0.913298 0.588845
vt 0.317584 0.707220
vt 0.845734 0.463378
vt 0.311567 0.646434
vt 0.944558 0.353645
vt 0.398138 0.462439
vt 0.920230 0.354337
vt 0.870057 0.463781
vt 0.929709 0.374247
vt 0.357807 0.478584
vt 0.347994 0.663056
vt 0.944558 0.373825
vt 0.097076 0.285727
vt 0.229765 0.651022
vt 0.758050 0.297859
vt 0.168317 0.651042
vt 0.119329 0.272208
vt 0.094178 0.643292
vt 0.222768 0.636959
vt 0.746872 0.283208
vt 0.174541 0.636975
vt 0.045175 0.638147
vt 0.080672 0.327471
vt 0.442544 0.673801
vt 0.734592 0.339187
vt 0.484453 0.673801
vt 0.070725 0.319456
vt 0.218298 0.685110
vt 0.751374 0.331694
vt 0.180611 0.684911
vt 0.062412 0.356092
vt 0.455575 0.702696
vt 0.724658 0.367821
vt 0.476314 0.702696
vt 0.043357 0.357400
vt 0.210236 0.723455
vt 0.742364 0.370210
vt 0.189444 0.723462
vt 0.050281 0.367705
vt 0.444942 0.715336
vt 0.810526 0.722486
vt 0.728448 0.380153
vt 0.853695 0.722486
vt 0.487920 0.715336
vt 0.018975 0.371756
vt 0.232852 0.738567
vt 0.796001 0.739289
vt 0.758050 0.386241
vt 0.861207 0.739289
vt 0.167770 0.738589
vt 0.100634 0.583041
vt 0.712300 0.698974
vt 0.802197 0.701507
vt 0.098640 0.600731
vt 0.972705 0.287497
vt 0.747907 0.696578
vt 0.052045 0.577939
vt 0.849895 0.701507
vt 0.710445 0.675017
vt 0.050052 0.595630
vt 0.746553 0.677603
vt 0.924885 0.287497
vt 0.797725 0.671259
vt 0.981025 0.313792
vt 0.715147 0.730011
vt 0.752543 0.724602
vt 0.973919 0.259495
vt 0.967002 0.332143
vt 0.934252 0.306472
vt 0.715328 0.644023
vt 0.847669 0.671259
vt 0.923848 0.259495
vt 0.753088 0.649631
vt 0.920230 0.324823
vt 0.068284 0.665533
vt 0.630362 0.705721
vt 0.712055 0.621316
vt 0.966165 0.712391
vt 0.519769 0.388732
vt 0.031375 0.663704
vt 0.592215 0.695479
vt 0.581836 0.620019
vt 0.750017 0.621843
vt 0.569690 0.667298
vt 0.581066 0.387596
vt 0.531739 0.516092
vt 0.642835 0.625048
vt 0.273616 0.509019
vt 0.070982 0.710642
vt 0.316851 0.732164
vt 0.684917 0.393810
vt 0.816625 0.338063
vt 0.644803 0.392946
vt 0.602800 0.367236
vt 0.671871 0.661666
vt 0.181146 0.386242
vt 0.855113 0.259897
vt 0.463196 0.649131
vt 0.077903 0.567886
vt 0.078993 0.554271
vt 0.322237 0.720993
vt 0.070972 0.628379
vt 0.834014 0.651825
vt 0.084160 0.512738
vt 0.838315 0.596273
vt 0.320679 0.509019
vt 0.080733 0.539302
vt 0.857365 0.464048
vt 0.931678 0.351118
vt 0.335174 0.488977
vt 0.367094 0.673623
vt 0.939667 0.384854
vt 0.199177 0.651021
vt 0.069465 0.641494
vt 0.198664 0.632807
vt 0.464209 0.672968
vt 0.199604 0.684998
vt 0.465945 0.702696
vt 0.199840 0.723459
vt 0.466714 0.715004
vt 0.832520 0.720483
vt 0.200177 0.738589
vt 0.829423 0.735282
vt 0.076340 0.580490
vt 0.826046 0.701507
vt 0.074346 0.598181
vt 0.948795 0.287497
vt 0.823088 0.670800
vt 0.959731 0.307426
vt 0.948976 0.259488
vt 0.941524 0.331189
vt 0.875347 0.491894
vt 0.391834 0.432095
vt 0.377694 0.448634
vt 0.915590 0.478791
vt 0.834644 0.488373
vt 0.326937 0.619279
vt 0.938593 0.478810
vt 0.335216 0.632947
vt 0.358601 0.463790
vt 0.348787 0.648138
vt 0.927106 0.463378
vt 0.854274 0.489560
vt 0.315804 0.619182
vt 0.212520 0.321385
vt 0.644070 0.318501
vt 0.018976 0.592450
vt 0.663817 0.276029
vt 0.129819 0.597828
vt 0.224108 0.269832
vt 0.051049 0.586785
vt 0.728499 0.676310
vt 0.099637 0.591886
vt 0.730103 0.697776
vt 0.734390 0.646904
vt 0.920230 0.314550
vt 0.981025 0.324065
vt 0.732426 0.727384
vt 0.950683 0.319044
vt 0.753088 0.663662
vt 0.920230 0.273492
vt 0.977552 0.273492
vt 0.752543 0.710647
vt 0.709822 0.714522
vt 0.796001 0.686127
vt 0.853178 0.686127
vt 0.709822 0.659561
vt 0.824792 0.685890
vt 0.948939 0.273488
vt 0.731549 0.661651
vt 0.730449 0.712624
vt 0.878850 0.297575
vt 0.096711 0.342677
vt 0.285581 0.357771
vt 0.108549 0.696221
vt 0.804979 0.293594
vt 0.708839 0.350023
vt 0.668288 0.644023
vt 0.436089 0.526409
vt 0.145034 0.385321
vt 0.919159 0.607821
vt 0.247387 0.613831
vt 0.970304 0.416607
vt 0.947808 0.608020
vt 0.704660 0.516092
vt 0.970304 0.403829
vt 0.750017 0.516884
vt 0.618892 0.516092
vt 0.920230 0.404231
vt 0.273616 0.612878
vt 0.642836 0.516847
vt 0.938584 0.415207
vt 0.924281 0.443436
vt 0.075400 0.489812
vt 0.855524 0.444402
vt 0.531739 0.629156
vt 0.934913 0.435583
vt 0.576828 0.496673
vt 0.931440 0.443424
vt 0.848383 0.444289
vt 0.592622 0.497116
vt 0.934913 0.440184
vt 0.586164 0.496977
vt 0.517161 0.630156
vt 0.920230 0.438606
vt 0.085942 0.490043
vt 0.585376 0.420489
vt 0.510472 0.551446
vt 0.582586 0.444044
vt 0.504260 0.576063
vt 0.581388 0.469636
vt 0.508131 0.602400
vt 0.103684 0.463024
vt 0.477645 0.604263
vt 0.118194 0.440373
vt 0.454885 0.581958
vt 0.129418 0.415411
vt 0.438452 0.557360
vt 0.876897 0.417052
vt 0.081901 0.462161
vt 0.882279 0.393921
vt 0.081653 0.438865
vt 0.880271 0.363315
vt 0.079604 0.408162
vt 0.633117 0.418943
vt 0.615530 0.444447
vt 0.600997 0.469910
vt 0.614559 0.469949
vt 0.862035 0.416811
vt 0.638313 0.444473
vt 0.857648 0.390640
vt 0.666106 0.417503
vt 0.844696 0.362700
vt 0.167770 0.536691
vt 0.914144 0.688660
vt 0.182151 0.561697
vt 0.913298 0.663084
vt 0.189855 0.582503
vt 0.915415 0.641729
vt 0.680787 0.549268
vt 0.966165 0.641681
vt 0.684678 0.573659
vt 0.963812 0.665813
vt 0.684995 0.596421
vt 0.964308 0.688427
vt 0.584794 0.548886
vt 0.729850 0.550060
vt 0.578610 0.572959
vt 0.734888 0.574452
vt 0.569690 0.595426
vt 0.736445 0.597214
vt 0.642060 0.590920
vt 0.247172 0.543053
vt 0.641052 0.570535
vt 0.248998 0.562413
vt 0.635978 0.552556
vt 0.245738 0.579271
s 0
usemtl Material
f 89/203/1 7/19/1 13/32/1 90/205/1
f 8/22/2 7/19/2 89/203/2 58/151/2 54/142/2 53/136/2
f 6/18/3 56/148/3 57/150/3
f 3/8/4 106/231/4 4/9/4 59/153/4 88/202/4
f 6/17/5 107/233/5 5/14/5 60/154/5 1/1/5 105/229/5 2/4/5 56/149/5
f 61/156/6 13/33/6 16/38/6 62/157/6
f 5/16/7 14/35/7 31/77/7 29/72/7
f 88/202/8 1/3/8 10/26/8 91/207/8
f 67/164/9 21/53/9 20/50/9 65/161/9
f 13/32/10 7/19/10 12/30/10 16/39/10
f 3/8/11 9/25/11 11/28/11 15/36/11
f 55/147/12 3/6/12 15/37/12 63/158/12
f 66/162/13 19/48/13 17/40/13 65/160/13
f 23/57/14 22/55/14 17/41/14 19/49/14
f 83/191/15 82/190/15 25/63/15 26/67/15
f 15/36/16 11/28/16 22/55/16 23/57/16
f 62/157/17 16/38/17 21/53/17 67/164/17
f 69/169/18 26/66/18 25/64/18 68/166/18
f 87/200/19 84/193/19 24/60/19 68/165/19
f 86/197/20 83/191/20 26/67/20 69/167/20
f 84/194/21 85/196/21 27/68/21 24/61/21
f 70/170/22 29/73/22 31/78/22 71/172/22
f 70/170/23 28/71/23 34/85/23 73/174/23
f 10/26/24 1/3/24 28/70/24 30/74/24
f 64/159/25 10/27/25 30/75/25 71/171/25
f 34/84/26 32/80/26 36/88/26 38/92/26
f 60/155/27 5/15/27 33/83/27 72/173/27
f 5/16/28 29/72/28 35/86/28 33/82/28
f 28/70/29 1/3/29 32/80/29 34/84/29
f 37/90/30 39/94/30 43/105/30 41/99/30
f 73/174/31 34/85/31 38/93/31 75/176/31
f 33/82/32 35/86/32 39/94/32 37/90/32
f 72/173/33 33/83/33 37/91/33 74/175/33
f 76/178/34 41/100/34 43/106/34 77/180/34
f 74/175/35 37/91/35 41/101/35 76/177/35
f 38/92/36 36/88/36 40/96/36 42/102/36
f 75/176/37 38/93/37 42/103/37 77/179/37
f 102/226/38 97/218/38 51/129/38 81/187/38
f 91/206/39 10/27/39 45/111/39 93/210/39
f 90/204/40 13/33/40 46/114/40 92/208/40
f 61/156/41 9/24/41 44/108/41 78/181/41
f 64/159/42 14/34/42 47/117/42 79/183/42
f 96/216/43 94/213/43 50/126/43 80/186/43
f 101/225/44 99/222/44 48/120/44 80/185/44
f 104/228/45 98/220/45 49/123/45 95/215/45
f 103/227/46 100/224/46 50/127/46 94/212/46
f 8/23/47 53/137/47 52/132/47
f 8/23/48 52/132/48 4/10/48 106/232/48 3/7/48 55/146/48 7/20/48
f 54/142/49 58/151/49 89/203/49 5/16/49 107/234/49 6/18/49 57/150/49
f 100/223/50 101/225/50 80/185/50 50/128/50
f 95/214/51 96/216/51 80/186/51 48/121/51
f 10/27/52 64/159/52 79/183/52 45/111/52
f 13/33/53 61/156/53 78/181/53 46/114/53
f 98/219/54 102/226/54 81/187/54 49/124/54
f 39/95/55 75/176/55 77/179/55 43/107/55
f 36/89/56 74/175/56 76/177/56 40/97/56
f 40/98/57 76/178/57 77/180/57 42/104/57
f 32/81/58 72/173/58 74/175/58 36/89/58
f 35/87/59 73/174/59 75/176/59 39/95/59
f 1/2/60 60/155/60 72/173/60 32/81/60
f 14/34/61 64/159/61 71/171/61 31/79/61
f 29/73/62 70/170/62 73/174/62 35/87/62
f 28/71/63 70/170/63 71/172/63 30/76/63
f 85/196/64 86/198/64 69/168/64 27/68/64
f 82/189/65 87/200/65 68/165/65 25/65/65
f 27/69/66 69/169/66 68/166/66 24/62/66
f 11/29/67 62/157/67 67/164/67 22/56/67
f 18/43/68 66/162/68 65/160/68 20/51/68
f 7/21/69 55/147/69 63/158/69 12/31/69
f 22/56/70 67/164/70 65/161/70 17/42/70
f 9/24/71 61/156/71 62/157/71 11/29/71
f 19/48/72 66/162/72 87/200/72 82/189/72
f 12/30/73 18/44/73 20/52/73 21/54/73 16/39/73
f 66/163/74 18/47/74 84/194/74 87/201/74
f 23/57/75 19/49/75 82/190/75 83/191/75
f 49/125/76 81/188/76 96/216/76 95/214/76
f 97/217/77 103/227/77 94/212/77 51/130/77
f 99/221/78 104/228/78 95/215/78 48/122/78
f 81/188/79 51/131/79 94/213/79 96/216/79
f 14/34/80 90/204/80 92/208/80 47/117/80
f 9/24/81 91/206/81 93/210/81 44/108/81
f 3/8/82 88/202/82 91/207/82 9/25/82
f 5/16/83 89/203/83 90/205/83 14/35/83
f 44/109/84 93/211/84 104/228/84 99/221/84
f 47/118/85 92/209/85 103/227/85 97/217/85
f 45/112/86 79/184/86 102/226/86 98/219/86
f 46/115/87 78/182/87 101/225/87 100/223/87
f 92/209/88 46/116/88 100/224/88 103/227/88
f 93/211/89 45/113/89 98/220/89 104/228/89
f 78/182/90 44/110/90 99/222/90 101/225/90
f 79/184/91 47/119/91 97/218/91 102/226/91
f 59/152/92 4/11/92 52/133/92 53/138/92 54/141/92 108/235/92
f 136/298/93 110/241/93 109/238/93 135/296/93
f 121/271/94 120/269/94 114/253/94 117/261/94
f 139/304/95 111/244/95 110/242/95 136/297/95
f 135/295/96 109/239/96 112/247/96 144/314/96
f 144/313/97 112/248/97 111/245/97 139/303/97
f 111/246/98 112/249/98 109/240/98 110/243/98
f 117/262/99 114/254/99 116/259/99 115/256/99 113/250/99
f 124/277/100 121/270/100 117/263/100 113/251/100
f 120/268/101 129/284/101 116/260/101 114/255/101
f 130/286/102 124/276/102 113/252/102 115/257/102
f 129/284/103 130/285/103 115/258/103 116/260/103
f 57/150/104 56/148/104 132/289/104 127/282/104
f 127/282/105 132/289/105 131/287/105 128/283/105
f 128/283/106 131/287/106 130/285/106 129/284/106
f 56/149/107 2/4/107 126/280/107 132/290/107
f 132/290/108 126/280/108 125/278/108 131/288/108
f 131/288/109 125/278/109 124/276/109 130/286/109
f 54/142/110 57/150/110 127/282/110 118/264/110
f 118/264/111 127/282/111 128/283/111 119/266/111
f 119/266/112 128/283/112 129/284/112 120/268/112
f 2/5/113 108/237/113 123/274/113 126/281/113
f 126/281/114 123/274/114 122/272/114 125/279/114
f 125/279/115 122/272/115 121/270/115 124/277/115
f 108/236/116 54/143/116 118/265/116 123/275/116
f 123/275/117 118/265/117 119/267/117 122/273/117
f 122/273/118 119/267/118 120/269/118 121/271/118
f 54/144/119 142/309/119 141/307/119 53/139/119
f 142/309/120 143/311/120 140/305/120 141/307/120
f 143/311/121 144/313/121 139/303/121 140/305/121
f 4/12/122 133/291/122 142/310/122 54/145/122
f 133/291/123 134/293/123 143/312/123 142/310/123
f 134/293/124 135/295/124 144/314/124 143/312/124
f 53/140/125 141/308/125 138/301/125 52/134/125
f 141/308/126 140/306/126 137/299/126 138/301/126
f 140/306/127 139/304/127 136/297/127 137/299/127
f 52/135/128 138/302/128 133/292/128 4/13/128
f 138/302/129 137/300/129 134/294/129 133/292/129
f 137/300/130 136/298/130 135/296/130 134/294/130
f 105/230/131 1/3/131 88/202/131 59/153/131 108/237/131 2/5/131
f 86/199/132 85/195/132 83/192/132
f 83/192/133 85/195/133 18/45/133 23/58/133
f 63/158/134 15/37/134 23/59/134 18/46/134 12/31/134
f 84/194/135 18/47/135 85/196/135
l 52 106
