# Blender 3.3.1
# www.blender.org
mtllib monstruo_3_grande_caminar552.mtl
o monstruo_grande
v 0.581873 1.921103 0.421185
v 0.524928 1.092946 0.072154
v -0.574620 1.870621 0.144593
v -0.293505 1.221597 0.221975
v 0.905701 2.163958 0.173732
v 0.651629 1.532451 -0.215218
v -0.614425 2.083374 -0.299006
v -0.603686 1.765355 -0.346904
v -0.138308 2.409480 0.466349
v 0.386013 2.235526 0.532573
v -0.288306 2.397589 0.547689
v -0.948933 2.180397 -0.222778
v -0.059667 2.574611 0.118921
v 0.465436 2.353682 0.266212
v -0.844004 2.034985 -0.039199
v -0.208963 2.671677 0.122514
v -0.657563 2.364208 0.496765
v -1.285114 2.127062 -0.029750
v -1.051923 2.144671 0.219719
v -0.745830 2.703147 0.213656
v -0.391211 2.737436 0.165106
v -0.370505 2.364002 0.510823
v -0.968966 2.065618 -0.073648
v -1.786600 0.883765 0.549934
v -1.674123 0.856121 0.620325
v -1.622786 0.685610 0.420491
v -1.691439 0.702483 0.377526
v 0.495482 2.136631 0.550665
v 0.717704 2.304399 0.367288
v 0.489291 2.251236 0.550316
v 0.586472 2.362122 0.337694
v 0.767827 1.861577 0.579648
v 0.980926 1.867944 0.535265
v 0.778462 1.917987 0.608386
v 0.936254 2.006079 0.525596
v 0.825257 1.740559 0.851623
v 0.939032 1.713068 0.833388
v 0.858249 1.796306 0.935930
v 0.966961 1.768140 0.912405
v 0.779908 1.700175 0.996101
v 1.007184 1.643215 0.949694
v 0.778412 1.796117 1.168255
v 1.119576 1.704128 1.094613
v 0.027489 2.433638 0.512716
v 0.232010 2.386738 0.518673
v 0.068516 2.532721 0.267865
v 0.267304 2.477623 0.275278
v 0.082186 2.743186 0.656084
v 0.287551 2.669683 0.637797
v 0.097580 2.849539 0.399734
v 0.303360 2.775715 0.381208
v -0.499540 1.217523 0.024244
v -0.391919 1.193697 -0.191184
v -0.034355 1.281020 -0.332615
v -0.607880 1.914382 -0.086856
v 0.537492 1.155647 -0.160631
v 0.319134 1.188312 -0.275574
v 0.074348 1.519623 -0.315248
v -0.031063 1.123868 0.197534
v 0.700473 1.985850 0.347839
v -0.103889 2.466976 0.344916
v -0.247403 2.646852 0.391002
v -0.765657 2.094081 -0.133364
v 0.408778 2.356677 0.422568
v -0.642704 2.591849 0.459840
v -1.217876 2.264746 0.230796
v -0.399263 2.654783 0.362918
v -1.747930 0.868405 0.612598
v -1.622334 0.581157 0.299102
v 0.617929 2.238837 0.503372
v 0.542910 2.353506 0.465806
v 0.860065 1.820809 0.528067
v 0.870439 1.978542 0.618680
v 0.880145 1.725873 0.840259
v 0.912745 1.781613 0.924167
v 0.885460 1.654620 0.956394
v 0.934232 1.719915 1.100776
v 0.045887 2.482671 0.388703
v 0.247097 2.433657 0.395667
v 0.058458 2.798850 0.527216
v 0.326574 2.720401 0.510500
v -1.528064 1.176363 0.603096
v -1.578784 1.007132 0.519622
v -1.723818 1.194892 0.482430
v -1.684652 1.033151 0.453367
v -1.622869 0.855694 0.407774
v -1.659613 1.165795 0.588269
v 0.021342 1.748102 0.515098
v 0.336650 2.084838 -0.164977
v 0.290920 2.478097 0.098793
v 0.114507 2.267582 0.642355
v 0.161615 2.505446 0.269438
v 0.135847 2.410380 0.514717
v 0.202983 2.828491 0.351709
v 0.182580 2.690491 0.685324
v 0.195970 2.810690 0.540335
v 0.299455 2.637790 0.304205
v 0.276749 2.519739 0.596676
v 0.040519 2.580075 0.606778
v 0.062298 2.701080 0.312338
v 0.033575 2.641988 0.459050
v 0.302692 2.578412 0.450427
v 0.181189 2.677690 0.287582
v 0.157824 2.541263 0.621662
v 0.650612 1.572716 0.104250
v -0.537951 1.584105 0.177451
v 0.751535 1.724715 -0.147840
v 0.166617 1.067092 0.193384
v -0.274722 0.065504 0.189584
v -0.414228 0.094698 0.314497
v -0.449376 0.058352 0.068103
v -0.315102 0.046422 0.049674
v 0.317950 -0.080682 -0.066531
v 0.244254 -0.092610 -0.141736
v 0.327183 -0.084400 -0.104873
v 0.295584 -0.089456 -0.130770
v 0.258939 -0.082064 -0.055969
v 0.070155 0.828416 -0.170413
v 0.142407 0.540853 -0.130384
v 0.182152 0.236639 -0.117318
v 0.210729 0.202729 0.059128
v 0.190230 0.444744 0.147843
v 0.195302 0.718117 0.202210
v 0.333571 0.204440 0.037882
v 0.397958 0.452511 0.112216
v 0.481966 0.788323 0.139167
v 0.325686 0.844516 -0.151691
v 0.321131 0.531565 -0.096612
v 0.288441 0.230769 -0.094784
v 0.353661 0.220245 -0.040670
v 0.432179 0.515631 -0.009595
v 0.498886 0.839320 -0.046599
v -0.185680 0.970282 0.364666
v -0.189683 0.679605 0.365856
v -0.206497 0.438427 0.386590
v -0.491367 0.447839 0.370095
v -0.477782 0.716414 0.302990
v -0.477301 0.965296 0.249349
v -0.518285 0.439012 0.099783
v -0.503353 0.707741 0.031671
v -0.499714 0.934750 -0.027667
v -0.109512 0.856148 -0.057396
v -0.162676 0.652042 0.000262
v -0.223343 0.453600 0.068910
vn 0.1128 0.5650 -0.8173
vn 0.0360 0.0544 -0.9979
vn 0.4206 -0.2536 -0.8711
vn -0.3848 -0.2118 0.8984
vn 0.8987 -0.3802 0.2187
vn 0.6827 0.6692 0.2934
vn 0.3271 0.8568 -0.3986
vn 0.2684 -0.2343 0.9344
vn -0.0488 0.9114 0.4086
vn 0.0802 0.5435 -0.8356
vn -0.3599 -0.4356 0.8251
vn -0.4814 -0.8145 -0.3239
vn -0.4100 -0.1109 0.9053
vn 0.1159 -0.9046 0.4102
vn 0.8769 -0.3069 0.3700
vn -0.2049 -0.7522 0.6263
vn 0.2190 0.9458 0.2398
vn -0.1487 -0.7630 0.6291
vn -0.7853 0.2784 0.5529
vn 0.9852 -0.0123 -0.1708
vn -0.7512 0.0899 -0.6539
vn 0.4729 0.7475 0.4665
vn -0.0526 0.2868 0.9566
vn -0.5141 -0.4336 0.7401
vn -0.2155 0.6821 0.6988
vn -0.9587 0.1078 0.2631
vn 0.1503 -0.7198 -0.6777
vn 0.8102 0.5579 0.1800
vn -0.5925 -0.5220 0.6135
vn 0.8204 0.0959 -0.5637
vn -0.2588 0.8418 0.4736
vn 0.9963 0.0668 0.0546
vn 0.1751 -0.9134 -0.3676
vn -0.0619 -0.9017 0.4279
vn -0.1519 -0.8655 -0.4774
vn -0.8186 0.5328 -0.2146
vn 0.4503 0.8711 0.1961
vn 0.9926 -0.0431 -0.1132
vn 0.3080 0.5219 0.7954
vn 0.2702 0.9618 0.0447
vn -0.2150 0.9119 0.3495
vn 0.4619 0.8498 0.2541
vn 0.0686 0.9729 0.2208
vn -0.9756 0.1412 0.1682
vn 0.2293 -0.3459 0.9098
vn -0.1862 0.4719 -0.8618
vn -0.8333 -0.4098 -0.3710
vn -0.9666 -0.1710 0.1908
vn 0.2489 0.2143 -0.9445
vn -0.9571 0.2569 -0.1340
vn 0.0486 0.8413 0.5384
vn 0.4302 0.6976 0.5730
vn -0.1771 0.9084 0.3788
vn 0.9717 -0.1716 0.1621
vn 0.1365 0.9537 0.2679
vn -0.4321 -0.8030 -0.4104
vn -0.2079 -0.8587 0.4684
vn -0.4361 -0.8613 -0.2606
vn 0.3226 0.8165 0.4789
vn -0.1546 -0.8887 -0.4315
vn -0.0255 0.9996 0.0108
vn 0.4471 0.6683 0.5946
vn 0.3529 0.2730 0.8949
vn -0.2287 0.2861 -0.9305
vn -0.1077 0.1074 0.9884
vn -0.7444 -0.6165 0.2563
vn -0.2832 0.4760 0.8326
vn -0.6650 0.7233 0.1859
vn -0.4708 -0.7970 -0.3784
vn 0.1064 0.3364 0.9357
vn 0.5646 0.4740 0.6757
vn 0.0974 0.2972 0.9498
vn -0.2409 0.6587 -0.7128
vn -0.8726 0.4546 0.1783
vn 0.8938 -0.3355 0.2975
vn 0.4979 0.6882 0.5278
vn 0.3446 0.3873 -0.8551
vn -0.2983 -0.2679 0.9161
vn 0.5194 0.8382 0.1663
vn 0.4465 0.8926 0.0621
vn -0.1457 0.5602 0.8154
vn -0.5559 -0.0732 0.8280
vn 0.4286 0.7036 -0.5667
vn -0.2130 -0.5556 0.8037
vn 0.1345 0.1184 -0.9838
vn 0.9392 -0.3433 0.0085
vn -0.9827 0.0092 -0.1849
vn -0.0636 0.1829 -0.9811
vn -0.0386 -0.5669 0.8228
vn -0.9992 0.0205 -0.0337
vn 0.9631 -0.2657 -0.0417
vn -0.1049 -0.9851 -0.1360
vn 0.2072 -0.3192 0.9248
vn -0.9683 -0.2061 0.1414
vn -0.9686 -0.2088 0.1346
vn 0.9785 -0.1671 -0.1209
vn -0.1143 0.0674 -0.9912
vn -0.0671 -0.9857 0.1546
vn 0.0443 -0.9921 0.1170
vn 0.1674 -0.3460 0.9232
vn 0.2084 0.1126 -0.9715
vn 0.9644 -0.1340 0.2281
vn 0.6371 0.1028 -0.7639
vn 0.4396 -0.3234 -0.8380
vn 0.5417 -0.1794 -0.8212
vn 0.6162 -0.0765 -0.7839
vn 0.9921 -0.1194 0.0375
vn 0.9720 -0.2209 0.0797
vn 0.9491 -0.2782 0.1477
vn 0.0759 -0.3277 -0.9417
vn 0.1210 -0.1420 -0.9825
vn 0.1926 -0.0219 -0.9810
vn 0.2586 0.1058 0.9602
vn 0.2174 -0.1603 0.9628
vn 0.1694 -0.3247 0.9305
vn -0.9462 -0.0910 0.3106
vn -0.9682 -0.1215 0.2188
vn -0.9835 -0.1264 0.1291
vn -0.1885 -0.4941 -0.8487
vn -0.1253 -0.2444 -0.9615
vn -0.1109 -0.2626 -0.9585
vn 0.9238 0.2326 0.3041
vn 0.9845 -0.0964 0.1463
vn 0.9853 -0.1700 0.0177
vn -0.9842 0.0325 -0.1739
vn -0.9960 0.0288 0.0851
vn -0.9927 0.0763 0.0937
vn -0.4863 0.4300 0.7607
vn -0.2874 0.0992 0.9527
vn -0.1212 0.1756 0.9770
vn 0.3367 -0.3835 0.8600
vn 0.5559 0.3831 -0.7378
vn -0.0416 -0.4312 -0.9013
vn -0.1532 -0.7793 -0.6077
vn -0.7143 -0.0475 -0.6983
vt 0.882279 0.260085
vt 0.436089 0.649131
vt 0.117664 0.305524
vt 0.860974 0.338762
vt 0.079561 0.383885
vt 0.278417 0.728674
vt 0.111517 0.716819
vt 0.301243 0.337859
vt 0.232943 0.387386
vt 0.111517 0.662267
vt 0.671871 0.687525
vt 0.175114 0.511099
vt 0.930991 0.712692
vt 0.796001 0.259488
vt 0.522181 0.649131
vt 0.719621 0.316178
vt 0.801110 0.310020
vt 0.698705 0.366293
vt 0.510656 0.337024
vt 0.023033 0.717149
vt 0.367094 0.730187
vt 0.507246 0.358198
vt 0.018976 0.695717
vt 0.103380 0.570561
vt 0.268725 0.266033
vt 0.143950 0.273348
vt 0.098384 0.631539
vt 0.301351 0.259488
vt 0.128079 0.559933
vt 0.480438 0.333338
vt 0.348619 0.714075
vt 0.604958 0.268707
vt 0.031105 0.562973
vt 0.043818 0.625810
vt 0.721993 0.282954
vt 0.329365 0.336360
vt 0.302724 0.713315
vt 0.030374 0.549675
vt 0.582817 0.260846
vt 0.875347 0.642471
vt 0.380514 0.272320
vt 0.124895 0.517524
vt 0.813390 0.578569
vt 0.436089 0.332372
vt 0.956124 0.588845
vt 0.367094 0.692599
vt 0.367094 0.522797
vt 0.871643 0.594841
vt 0.398138 0.324445
vt 0.043891 0.509019
vt 0.796001 0.641153
vt 0.491075 0.268473
vt 0.032114 0.534706
vt 0.552485 0.259488
vt 0.331566 0.259909
vt 0.129819 0.544964
vt 0.339759 0.337186
vt 0.913298 0.588845
vt 0.317584 0.707220
vt 0.845734 0.463378
vt 0.311567 0.646434
vt 0.944558 0.353645
vt 0.398138 0.462439
vt 0.920230 0.354337
vt 0.870057 0.463781
vt 0.929709 0.374247
vt 0.357807 0.478584
vt 0.347994 0.663056
vt 0.944558 0.373825
vt 0.097076 0.285727
vt 0.229765 0.651022
vt 0.758050 0.297859
vt 0.168317 0.651042
vt 0.119329 0.272208
vt 0.094178 0.643292
vt 0.222768 0.636959
vt 0.746872 0.283208
vt 0.174541 0.636975
vt 0.045175 0.638147
vt 0.080672 0.327471
vt 0.442544 0.673801
vt 0.734592 0.339187
vt 0.484453 0.673801
vt 0.070725 0.319456
vt 0.218298 0.685110
vt 0.751374 0.331694
vt 0.180611 0.684911
vt 0.062412 0.356092
vt 0.455575 0.702696
vt 0.724658 0.367821
vt 0.476314 0.702696
vt 0.043357 0.357400
vt 0.210236 0.723455
vt 0.742364 0.370210
vt 0.189444 0.723462
vt 0.050281 0.367705
vt 0.444942 0.715336
vt 0.810526 0.722486
vt 0.728448 0.380153
vt 0.853695 0.722486
vt 0.487920 0.715336
vt 0.018975 0.371756
vt 0.232852 0.738567
vt 0.796001 0.739289
vt 0.758050 0.386241
vt 0.861207 0.739289
vt 0.167770 0.738589
vt 0.100634 0.583041
vt 0.712300 0.698974
vt 0.802197 0.701507
vt 0.098640 0.600731
vt 0.972705 0.287497
vt 0.747907 0.696578
vt 0.052045 0.577939
vt 0.849895 0.701507
vt 0.710445 0.675017
vt 0.050052 0.595630
vt 0.746553 0.677603
vt 0.924885 0.287497
vt 0.797725 0.671259
vt 0.981025 0.313792
vt 0.715147 0.730011
vt 0.752543 0.724602
vt 0.973919 0.259495
vt 0.967002 0.332143
vt 0.934252 0.306472
vt 0.715328 0.644023
vt 0.847669 0.671259
vt 0.923848 0.259495
vt 0.753088 0.649631
vt 0.920230 0.324823
vt 0.068284 0.665533
vt 0.630362 0.705721
vt 0.712055 0.621316
vt 0.966165 0.712391
vt 0.519769 0.388732
vt 0.031375 0.663704
vt 0.592215 0.695479
vt 0.581836 0.620019
vt 0.750017 0.621843
vt 0.569690 0.667298
vt 0.581066 0.387596
vt 0.531739 0.516092
vt 0.642835 0.625048
vt 0.273616 0.509019
vt 0.070982 0.710642
vt 0.316851 0.732164
vt 0.684917 0.393810
vt 0.816625 0.338063
vt 0.644803 0.392946
vt 0.602800 0.367236
vt 0.671871 0.661666
vt 0.181146 0.386242
vt 0.855113 0.259897
vt 0.463196 0.649131
vt 0.077903 0.567886
vt 0.078993 0.554271
vt 0.322237 0.720993
vt 0.070972 0.628379
vt 0.834014 0.651825
vt 0.084160 0.512738
vt 0.838315 0.596273
vt 0.320679 0.509019
vt 0.080733 0.539302
vt 0.857365 0.464048
vt 0.931678 0.351118
vt 0.335174 0.488977
vt 0.367094 0.673623
vt 0.939667 0.384854
vt 0.199177 0.651021
vt 0.069465 0.641494
vt 0.198664 0.632807
vt 0.464209 0.672968
vt 0.199604 0.684998
vt 0.465945 0.702696
vt 0.199840 0.723459
vt 0.466714 0.715004
vt 0.832520 0.720483
vt 0.200177 0.738589
vt 0.829423 0.735282
vt 0.076340 0.580490
vt 0.826046 0.701507
vt 0.074346 0.598181
vt 0.948795 0.287497
vt 0.823088 0.670800
vt 0.959731 0.307426
vt 0.948976 0.259488
vt 0.941524 0.331189
vt 0.875347 0.491894
vt 0.391834 0.432095
vt 0.377694 0.448634
vt 0.915590 0.478791
vt 0.834644 0.488373
vt 0.326937 0.619279
vt 0.938593 0.478810
vt 0.335216 0.632947
vt 0.358601 0.463790
vt 0.348787 0.648138
vt 0.927106 0.463378
vt 0.854274 0.489560
vt 0.315804 0.619182
vt 0.212520 0.321385
vt 0.644070 0.318501
vt 0.018976 0.592450
vt 0.663817 0.276029
vt 0.129819 0.597828
vt 0.224108 0.269832
vt 0.051049 0.586785
vt 0.728499 0.676310
vt 0.099637 0.591886
vt 0.730103 0.697776
vt 0.734390 0.646904
vt 0.920230 0.314550
vt 0.981025 0.324065
vt 0.732426 0.727384
vt 0.950683 0.319044
vt 0.753088 0.663662
vt 0.920230 0.273492
vt 0.977552 0.273492
vt 0.752543 0.710647
vt 0.709822 0.714522
vt 0.796001 0.686127
vt 0.853178 0.686127
vt 0.709822 0.659561
vt 0.824792 0.685890
vt 0.948939 0.273488
vt 0.731549 0.661651
vt 0.730449 0.712624
vt 0.878850 0.297575
vt 0.096711 0.342677
vt 0.285581 0.357771
vt 0.108549 0.696221
vt 0.804979 0.293594
vt 0.708839 0.350023
vt 0.668288 0.644023
vt 0.436089 0.526409
vt 0.145034 0.385321
vt 0.919159 0.607821
vt 0.247387 0.613831
vt 0.970304 0.416607
vt 0.947808 0.608020
vt 0.704660 0.516092
vt 0.970304 0.403829
vt 0.750017 0.516884
vt 0.618892 0.516092
vt 0.920230 0.404231
vt 0.273616 0.612878
vt 0.642836 0.516847
vt 0.938584 0.415207
vt 0.924281 0.443436
vt 0.075400 0.489812
vt 0.855524 0.444402
vt 0.531739 0.629156
vt 0.934913 0.435583
vt 0.576828 0.496673
vt 0.931440 0.443424
vt 0.848383 0.444289
vt 0.592622 0.497116
vt 0.934913 0.440184
vt 0.586164 0.496977
vt 0.517161 0.630156
vt 0.920230 0.438606
vt 0.085942 0.490043
vt 0.585376 0.420489
vt 0.510472 0.551446
vt 0.582586 0.444044
vt 0.504260 0.576063
vt 0.581388 0.469636
vt 0.508131 0.602400
vt 0.103684 0.463024
vt 0.477645 0.604263
vt 0.118194 0.440373
vt 0.454885 0.581958
vt 0.129418 0.415411
vt 0.438452 0.557360
vt 0.876897 0.417052
vt 0.081901 0.462161
vt 0.882279 0.393921
vt 0.081653 0.438865
vt 0.880271 0.363315
vt 0.079604 0.408162
vt 0.633117 0.418943
vt 0.615530 0.444447
vt 0.600997 0.469910
vt 0.614559 0.469949
vt 0.862035 0.416811
vt 0.638313 0.444473
vt 0.857648 0.390640
vt 0.666106 0.417503
vt 0.844696 0.362700
vt 0.167770 0.536691
vt 0.914144 0.688660
vt 0.182151 0.561697
vt 0.913298 0.663084
vt 0.189855 0.582503
vt 0.915415 0.641729
vt 0.680787 0.549268
vt 0.966165 0.641681
vt 0.684678 0.573659
vt 0.963812 0.665813
vt 0.684995 0.596421
vt 0.964308 0.688427
vt 0.584794 0.548886
vt 0.729850 0.550060
vt 0.578610 0.572959
vt 0.734888 0.574452
vt 0.569690 0.595426
vt 0.736445 0.597214
vt 0.642060 0.590920
vt 0.247172 0.543053
vt 0.641052 0.570535
vt 0.248998 0.562413
vt 0.635978 0.552556
vt 0.245738 0.579271
s 0
usemtl Material
f 89/203/1 7/19/1 13/32/1 90/205/1
f 8/22/2 7/19/2 89/203/2 58/151/2 54/142/2 53/136/2
f 6/18/3 56/148/3 57/150/3
f 3/8/4 106/231/4 4/9/4 59/153/4 88/202/4
f 6/17/5 107/233/5 5/14/5 60/154/5 1/1/5 105/229/5 2/4/5 56/149/5
f 61/156/6 13/33/6 16/38/6 62/157/6
f 5/16/7 14/35/7 31/77/7 29/72/7
f 88/202/8 1/3/8 10/26/8 91/207/8
f 67/164/9 21/53/9 20/50/9 65/161/9
f 13/32/10 7/19/10 12/30/10 16/39/10
f 3/8/11 9/25/11 11/28/11 15/36/11
f 55/147/12 3/6/12 15/37/12 63/158/12
f 66/162/13 19/48/13 17/40/13 65/160/13
f 23/57/14 22/55/14 17/41/14 19/49/14
f 83/191/15 82/190/15 25/63/15 26/67/15
f 15/36/16 11/28/16 22/55/16 23/57/16
f 62/157/17 16/38/17 21/53/17 67/164/17
f 69/169/18 26/66/18 25/64/18 68/166/18
f 87/200/19 84/193/19 24/60/19 68/165/19
f 86/197/20 83/191/20 26/67/20 69/167/20
f 84/194/21 85/196/21 27/68/21 24/61/21
f 70/170/22 29/73/22 31/78/22 71/172/22
f 70/170/23 28/71/23 34/85/23 73/174/23
f 10/26/24 1/3/24 28/70/24 30/74/24
f 64/159/25 10/27/25 30/75/25 71/171/25
f 34/84/26 32/80/26 36/88/26 38/92/26
f 60/155/27 5/15/27 33/83/27 72/173/27
f 5/16/28 29/72/28 35/86/28 33/82/28
f 28/70/29 1/3/29 32/80/29 34/84/29
f 37/90/30 39/94/30 43/105/30 41/99/30
f 73/174/31 34/85/31 38/93/31 75/176/31
f 33/82/32 35/86/32 39/94/32 37/90/32
f 72/173/33 33/83/33 37/91/33 74/175/33
f 76/178/34 41/100/34 43/106/34 77/180/34
f 74/175/35 37/91/35 41/101/35 76/177/35
f 38/92/36 36/88/36 40/96/36 42/102/36
f 75/176/37 38/93/37 42/103/37 77/179/37
f 102/226/38 97/218/38 51/129/38 81/187/38
f 91/206/39 10/27/39 45/111/39 93/210/39
f 90/204/40 13/33/40 46/114/40 92/208/40
f 61/156/41 9/24/41 44/108/41 78/181/41
f 64/159/42 14/34/42 47/117/42 79/183/42
f 96/216/43 94/213/43 50/126/43 80/186/43
f 101/225/44 99/222/44 48/120/44 80/185/44
f 104/228/45 98/220/45 49/123/45 95/215/45
f 103/227/46 100/224/46 50/127/46 94/212/46
f 8/23/47 53/137/47 52/132/47
f 8/23/48 52/132/48 4/10/48 106/232/48 3/7/48 55/146/48 7/20/48
f 54/142/49 58/151/49 89/203/49 5/16/49 107/234/49 6/18/49 57/150/49
f 100/223/50 101/225/50 80/185/50 50/128/50
f 95/214/51 96/216/51 80/186/51 48/121/51
f 10/27/52 64/159/52 79/183/52 45/111/52
f 13/33/53 61/156/53 78/181/53 46/114/53
f 98/219/54 102/226/54 81/187/54 49/124/54
f 39/95/55 75/176/55 77/179/55 43/107/55
f 36/89/56 74/175/56 76/177/56 40/97/56
f 40/98/57 76/178/57 77/180/57 42/104/57
f 32/81/58 72/173/58 74/175/58 36/89/58
f 35/87/59 73/174/59 75/176/59 39/95/59
f 1/2/60 60/155/60 72/173/60 32/81/60
f 14/34/61 64/159/61 71/171/61 31/79/61
f 29/73/62 70/170/62 73/174/62 35/87/62
f 28/71/63 70/170/63 71/172/63 30/76/63
f 85/196/64 86/198/64 69/168/64 27/68/64
f 82/189/65 87/200/65 68/165/65 25/65/65
f 27/69/66 69/169/66 68/166/66 24/62/66
f 11/29/67 62/157/67 67/164/67 22/56/67
f 18/43/68 66/162/68 65/160/68 20/51/68
f 7/21/69 55/147/69 63/158/69 12/31/69
f 22/56/70 67/164/70 65/161/70 17/42/70
f 9/24/71 61/156/71 62/157/71 11/29/71
f 19/48/72 66/162/72 87/200/72 82/189/72
f 12/30/73 18/44/73 20/52/73 21/54/73 16/39/73
f 66/163/74 18/47/74 84/194/74 87/201/74
f 23/57/75 19/49/75 82/190/75 83/191/75
f 49/125/76 81/188/76 96/216/76 95/214/76
f 97/217/77 103/227/77 94/212/77 51/130/77
f 99/221/78 104/228/78 95/215/78 48/122/78
f 81/188/79 51/131/79 94/213/79 96/216/79
f 14/34/80 90/204/80 92/208/80 47/117/80
f 9/24/81 91/206/81 93/210/81 44/108/81
f 3/8/82 88/202/82 91/207/82 9/25/82
f 5/16/83 89/203/83 90/205/83 14/35/83
f 44/109/84 93/211/84 104/228/84 99/221/84
f 47/118/85 92/209/85 103/227/85 97/217/85
f 45/112/86 79/184/86 102/226/86 98/219/86
f 46/115/87 78/182/87 101/225/87 100/223/87
f 92/209/88 46/116/88 100/224/88 103/227/88
f 93/211/89 45/113/89 98/220/89 104/228/89
f 78/182/90 44/110/90 99/222/90 101/225/90
f 79/184/91 47/119/91 97/218/91 102/226/91
f 59/152/92 4/11/92 52/133/92 53/138/92 54/141/92 108/235/92
f 136/298/93 110/241/93 109/238/93 135/296/93
f 121/271/94 120/269/94 114/253/94 117/261/94
f 139/304/95 111/244/95 110/242/95 136/297/95
f 135/295/96 109/239/96 112/247/96 144/314/96
f 144/313/97 112/248/97 111/245/97 139/303/97
f 111/246/98 112/249/98 109/240/98 110/243/98
f 117/262/99 114/254/99 116/259/99 115/256/99 113/250/99
f 124/277/100 121/270/100 117/263/100 113/251/100
f 120/268/101 129/284/101 116/260/101 114/255/101
f 130/286/102 124/276/102 113/252/102 115/257/102
f 129/284/103 130/285/103 115/258/103 116/260/103
f 57/150/104 56/148/104 132/289/104 127/282/104
f 127/282/105 132/289/105 131/287/105 128/283/105
f 128/283/106 131/287/106 130/285/106 129/284/106
f 56/149/107 2/4/107 126/280/107 132/290/107
f 132/290/108 126/280/108 125/278/108 131/288/108
f 131/288/109 125/278/109 124/276/109 130/286/109
f 54/142/110 57/150/110 127/282/110 118/264/110
f 118/264/111 127/282/111 128/283/111 119/266/111
f 119/266/112 128/283/112 129/284/112 120/268/112
f 2/5/113 108/237/113 123/274/113 126/281/113
f 126/281/114 123/274/114 122/272/114 125/279/114
f 125/279/115 122/272/115 121/270/115 124/277/115
f 108/236/116 54/143/116 118/265/116 123/275/116
f 123/275/117 118/265/117 119/267/117 122/273/117
f 122/273/118 119/267/118 120/269/118 121/271/118
f 54/144/119 142/309/119 141/307/119 53/139/119
f 142/309/120 143/311/120 140/305/120 141/307/120
f 143/311/121 144/313/121 139/303/121 140/305/121
f 4/12/122 133/291/122 142/310/122 54/145/122
f 133/291/123 134/293/123 143/312/123 142/310/123
f 134/293/124 135/295/124 144/314/124 143/312/124
f 53/140/125 141/308/125 138/301/125 52/134/125
f 141/308/126 140/306/126 137/299/126 138/301/126
f 140/306/127 139/304/127 136/297/127 137/299/127
f 52/135/128 138/302/128 133/292/128 4/13/128
f 138/302/129 137/300/129 134/294/129 133/292/129
f 137/300/130 136/298/130 135/296/130 134/294/130
f 105/230/131 1/3/131 88/202/131 59/153/131 108/237/131 2/5/131
f 86/199/132 85/195/132 83/192/132
f 83/192/133 85/195/133 18/45/133 23/58/133
f 63/158/134 15/37/134 23/59/134 18/46/134 12/31/134
f 84/194/135 18/47/135 85/196/135
l 52 106
