# Blender 3.3.1
# www.blender.org
mtllib monstruo_3_caminar560.mtl
o monstruo_grande
v 0.548302 1.945710 0.385882
v 0.527579 1.103553 0.053201
v -0.602401 1.858885 0.130588
v -0.281522 1.213908 0.221568
v 0.869527 2.199104 0.149924
v 0.640795 1.565509 -0.213978
v -0.649664 2.067982 -0.313460
v -0.630553 1.751296 -0.345062
v -0.179061 2.418635 0.444682
v 0.349581 2.256599 0.510772
v -0.328732 2.404729 0.525453
v -0.990975 2.166027 -0.241667
v -0.103808 2.577623 0.093988
v 0.423377 2.374754 0.243991
v -0.882948 2.024038 -0.059432
v -0.254623 2.672243 0.096513
v -0.696512 2.361448 0.474325
v -1.326553 2.116572 -0.044563
v -1.089784 2.136497 0.200697
v -0.790300 2.697998 0.190201
v -0.437702 2.736596 0.140336
v -0.410258 2.367015 0.487720
v -1.009103 2.054395 -0.092366
v -1.825416 0.887381 0.567923
v -1.712673 0.863087 0.639121
v -1.657683 0.689818 0.442659
v -1.726498 0.704646 0.399202
v 0.458866 2.156049 0.523360
v 0.678358 2.331513 0.345904
v 0.452185 2.274028 0.526627
v 0.544612 2.386503 0.314117
v 0.731549 1.887238 0.537503
v 0.944707 1.889693 0.504956
v 0.744525 1.938497 0.571764
v 0.901256 2.030262 0.495036
v 0.766071 1.759462 0.807485
v 0.880113 1.730602 0.795796
v 0.794274 1.808227 0.897599
v 0.903873 1.779794 0.879103
v 0.710647 1.709575 0.945280
v 0.939505 1.652034 0.910053
v 0.699233 1.792737 1.123600
v 1.043067 1.699467 1.065655
v -0.015453 2.446985 0.490161
v 0.189859 2.404549 0.497910
v 0.024528 2.542046 0.243912
v 0.223662 2.492167 0.252955
v 0.038387 2.758695 0.631786
v 0.243839 2.685136 0.614749
v 0.054529 2.863294 0.374693
v 0.259926 2.789698 0.357198
v -0.499127 1.208807 0.037103
v -0.404856 1.185088 -0.184438
v -0.036594 1.278374 -0.334293
v -0.636058 1.899578 -0.097361
v 0.535831 1.190268 -0.170094
v 0.315369 1.229702 -0.279247
v 0.064074 1.520134 -0.319642
v -0.024047 1.115545 0.190461
v 0.667074 2.014131 0.315155
v -0.145848 2.474089 0.321973
v -0.292567 2.652137 0.364436
v -0.803097 2.080429 -0.149504
v 0.367838 2.377505 0.399919
v -0.685604 2.589480 0.437308
v -1.256426 2.257439 0.212007
v -0.444462 2.656457 0.336594
v -1.786664 0.873895 0.630967
v -1.654991 0.583137 0.323254
v 0.579614 2.260427 0.479897
v 0.502503 2.377489 0.441586
v 0.824026 1.845348 0.489796
v 0.835217 1.998902 0.586141
v 0.821336 1.744506 0.798748
v 0.849196 1.793328 0.888344
v 0.817882 1.664905 0.909247
v 0.857986 1.718512 1.060925
v 0.002136 2.493412 0.365165
v 0.204210 2.450038 0.374162
v 0.015115 2.813480 0.502458
v 0.283114 2.735154 0.487164
v -1.572333 1.185528 0.616275
v -1.619756 1.013879 0.535857
v -1.768052 1.198664 0.494923
v -1.725874 1.036744 0.468843
v -1.660780 0.859605 0.426753
v -1.703625 1.172318 0.601297
v -0.001070 1.761065 0.504926
v 0.303275 2.097503 -0.180073
v 0.247875 2.489697 0.076491
v 0.078256 2.282901 0.623866
v 0.117892 2.516843 0.246114
v 0.092820 2.425161 0.493006
v 0.159706 2.842013 0.326988
v 0.138688 2.706231 0.661749
v 0.152574 2.825453 0.516001
v 0.255784 2.651696 0.280866
v 0.232835 2.535664 0.574460
v -0.003327 2.595215 0.583282
v 0.018617 2.713636 0.287622
v -0.010040 2.655902 0.434938
v 0.259027 2.593374 0.427772
v 0.137503 2.690603 0.263426
v 0.114111 2.556645 0.598961
v 0.636154 1.589230 0.104961
v -0.549412 1.571416 0.172709
v 0.733190 1.762431 -0.149531
v 0.172298 1.059083 0.179111
v -0.245703 0.073361 0.358852
v -0.387326 0.125986 0.473205
v -0.418490 0.037330 0.239892
v -0.283794 0.024148 0.225943
v 0.331287 -0.080112 -0.140695
v 0.256900 -0.090048 -0.215500
v 0.340172 -0.083156 -0.179175
v 0.308326 -0.087473 -0.204908
v 0.272383 -0.081264 -0.129675
v 0.072807 0.853489 -0.214793
v 0.147534 0.542968 -0.192982
v 0.193077 0.237470 -0.183184
v 0.226907 0.200859 -0.008205
v 0.204436 0.440794 0.085540
v 0.206045 0.713175 0.144870
v 0.349091 0.205222 -0.032634
v 0.410904 0.452823 0.043512
v 0.490207 0.793446 0.081928
v 0.327732 0.878058 -0.199443
v 0.327229 0.536154 -0.163673
v 0.299982 0.233134 -0.163553
v 0.366797 0.222827 -0.111377
v 0.440773 0.520096 -0.079825
v 0.502938 0.864614 -0.097915
v -0.164521 0.967368 0.357786
v -0.167182 0.704244 0.399428
v -0.178113 0.477849 0.470688
v -0.463578 0.478065 0.460797
v -0.458078 0.724938 0.340931
v -0.462656 0.958435 0.260038
v -0.496888 0.415410 0.198803
v -0.492297 0.667921 0.073061
v -0.502119 0.920848 -0.017348
v -0.112380 0.840757 -0.067866
v -0.151798 0.613609 0.037892
v -0.203360 0.429669 0.156832
vn 0.0982 0.5549 -0.8261
vn 0.0236 0.0323 -0.9992
vn 0.4018 -0.2165 -0.8898
vn -0.3750 -0.2141 0.9020
vn 0.9142 -0.3383 0.2233
vn 0.6713 0.6865 0.2794
vn 0.3036 0.8689 -0.3909
vn 0.3054 -0.2270 0.9248
vn -0.0605 0.9136 0.4021
vn 0.0774 0.5246 -0.8478
vn -0.3596 -0.4218 0.8323
vn -0.4652 -0.8255 -0.3196
vn -0.4041 -0.1135 0.9076
vn 0.1295 -0.9000 0.4162
vn 0.8811 -0.2841 0.3780
vn -0.1890 -0.7502 0.6336
vn 0.2060 0.9522 0.2255
vn -0.1369 -0.7536 0.6429
vn -0.7913 0.2742 0.5464
vn 0.9858 0.0022 -0.1679
vn -0.7508 0.0642 -0.6574
vn 0.4556 0.7523 0.4759
vn -0.0587 0.2460 0.9675
vn -0.5077 -0.4607 0.7280
vn -0.2197 0.6789 0.7006
vn -0.9682 0.1484 0.2012
vn 0.1675 -0.6941 -0.7001
vn 0.8061 0.5575 0.1986
vn -0.5812 -0.5584 0.5919
vn 0.8561 0.1168 -0.5035
vn -0.2777 0.8352 0.4748
vn 0.9907 0.0548 0.1242
vn 0.1798 -0.9098 -0.3741
vn -0.1031 -0.9296 0.3539
vn -0.1291 -0.8258 -0.5490
vn -0.7943 0.5635 -0.2272
vn 0.4497 0.8452 0.2888
vn 0.9925 -0.0452 -0.1132
vn 0.2998 0.5396 0.7868
vn 0.2471 0.9686 0.0268
vn -0.2335 0.9152 0.3285
vn 0.4407 0.8644 0.2421
vn 0.0675 0.9745 0.2141
vn -0.9758 0.1436 0.1651
vn 0.2271 -0.3414 0.9121
vn -0.1847 0.4680 -0.8642
vn -0.8476 -0.4272 -0.3149
vn -0.9560 -0.2028 0.2121
vn 0.2443 0.2091 -0.9469
vn -0.9565 0.2584 -0.1357
vn 0.0464 0.8449 0.5329
vn 0.4184 0.7124 0.5634
vn -0.1984 0.9114 0.3605
vn 0.9712 -0.1731 0.1638
vn 0.1327 0.9286 0.3465
vn -0.4163 -0.7620 -0.4961
vn -0.2517 -0.8861 0.3891
vn -0.4419 -0.8424 -0.3084
vn 0.3150 0.7940 0.5200
vn -0.1466 -0.8768 -0.4579
vn -0.0482 0.9988 0.0055
vn 0.4381 0.6529 0.6179
vn 0.3568 0.2609 0.8970
vn -0.2310 0.2644 -0.9363
vn -0.1125 0.1239 0.9859
vn -0.7340 -0.6249 0.2658
vn -0.3002 0.4803 0.8241
vn -0.6702 0.7183 0.1865
vn -0.4582 -0.8094 -0.3674
vn 0.1071 0.3440 0.9328
vn 0.5535 0.4984 0.6673
vn 0.1054 0.3236 0.9403
vn -0.2499 0.6488 -0.7188
vn -0.8675 0.4658 0.1746
vn 0.8933 -0.3308 0.3043
vn 0.4959 0.6919 0.5248
vn 0.3465 0.3825 -0.8565
vn -0.3017 -0.2620 0.9167
vn 0.5182 0.8400 0.1612
vn 0.4216 0.9057 0.0452
vn -0.1572 0.5683 0.8076
vn -0.5545 -0.0742 0.8289
vn 0.4006 0.7108 -0.5782
vn -0.2133 -0.5495 0.8078
vn 0.1384 0.1120 -0.9840
vn 0.9403 -0.3403 0.0111
vn -0.9830 0.0090 -0.1833
vn -0.0618 0.1760 -0.9824
vn -0.0340 -0.5648 0.8246
vn -0.9993 0.0172 -0.0330
vn 0.9633 -0.2654 -0.0412
vn -0.1026 -0.9848 -0.1401
vn 0.2212 -0.1246 0.9672
vn -0.9639 -0.2131 0.1595
vn -0.9643 -0.1908 0.1838
vn 0.9796 -0.1737 -0.1010
vn -0.1279 -0.1378 -0.9822
vn -0.0542 -0.9311 0.3608
vn 0.0379 -0.9945 0.0974
vn 0.1898 -0.3602 0.9134
vn 0.1873 0.1315 -0.9735
vn 0.9700 -0.1334 0.2035
vn 0.6198 0.1171 -0.7759
vn 0.4376 -0.2095 -0.8744
vn 0.5284 -0.1143 -0.8413
vn 0.5956 -0.0585 -0.8011
vn 0.9941 -0.1084 0.0093
vn 0.9781 -0.2033 0.0446
vn 0.9582 -0.2617 0.1157
vn 0.1030 -0.2321 -0.9672
vn 0.1050 -0.0756 -0.9916
vn 0.1679 -0.0110 -0.9857
vn 0.2850 -0.0096 0.9585
vn 0.2386 -0.1835 0.9536
vn 0.2027 -0.3368 0.9195
vn -0.9401 -0.1402 0.3106
vn -0.9624 -0.1359 0.2351
vn -0.9778 -0.1452 0.1512
vn -0.2174 -0.4736 -0.8535
vn -0.1743 -0.3632 -0.9153
vn -0.1358 -0.4711 -0.8715
vn 0.9383 0.2156 0.2703
vn 0.9934 -0.0551 0.1004
vn 0.9895 -0.1437 0.0151
vn -0.9931 0.0317 -0.1130
vn -0.9912 0.0168 0.1310
vn -0.9912 0.0739 0.1096
vn -0.4420 0.4318 0.7863
vn -0.2451 0.2314 0.9415
vn -0.0958 0.3756 0.9218
vn 0.3491 -0.3529 0.8681
vn 0.5511 0.3791 -0.7433
vn -0.0509 -0.4545 -0.8893
vn -0.1567 -0.7861 -0.5978
vn -0.7088 -0.0716 -0.7018
vt 0.461701 0.809397
vt 0.301930 0.729761
vt 0.094158 0.499911
vt 0.498737 0.648456
vt 0.250869 0.553264
vt 0.714874 0.752530
vt 0.627854 0.740386
vt 0.227533 0.339544
vt 0.300362 0.438253
vt 0.625828 0.633709
vt 0.338991 0.679376
vt 0.653754 0.621457
vt 0.189641 0.785401
vt 0.531284 0.815038
vt 0.232114 0.729761
vt 0.806952 0.326283
vt 0.527824 0.712310
vt 0.703640 0.331352
vt 0.725736 0.123548
vt 0.557184 0.740386
vt 0.714874 0.681901
vt 0.693091 0.138725
vt 0.558638 0.706064
vt 0.944491 0.391302
vt 0.108931 0.369345
vt 0.090202 0.443431
vt 0.952837 0.467016
vt 0.108059 0.346292
vt 0.960024 0.371234
vt 0.653754 0.712739
vt 0.761990 0.055860
vt 0.265996 0.788213
vt 0.829683 0.188590
vt 0.886815 0.394232
vt 0.909606 0.471204
vt 0.826550 0.267021
vt 0.659457 0.749480
vt 0.206417 0.267620
vt 0.238389 0.812575
vt 0.882743 0.373659
vt 0.837846 0.166681
vt 0.102618 0.289588
vt 0.957957 0.321520
vt 0.918648 0.216117
vt 0.803322 0.012950
vt 0.106348 0.638847
vt 0.232551 0.755661
vt 0.798789 0.485160
vt 0.965752 0.239402
vt 0.153968 0.222285
vt 0.894228 0.312474
vt 0.856067 0.102710
vt 0.881967 0.351902
vt 0.842627 0.144082
vt 0.107159 0.331692
vt 0.958812 0.358201
vt 0.199778 0.246429
vt 0.138792 0.619338
vt 0.232114 0.797406
vt 0.967580 0.012950
vt 0.753483 0.682459
vt 0.843831 0.469074
vt 0.256421 0.022764
vt 0.824689 0.472884
vt 0.987050 0.016155
vt 0.832147 0.505580
vt 0.295109 0.018166
vt 0.782932 0.707368
vt 0.843831 0.503254
vt 0.076417 0.467161
vt 0.958695 0.494573
vt 0.833773 0.298242
vt 0.909847 0.503107
vt 0.076958 0.454690
vt 0.951531 0.482650
vt 0.837149 0.281767
vt 0.912926 0.487172
vt 0.064432 0.532285
vt 0.298790 0.687460
vt 0.825577 0.362572
vt 0.264894 0.686125
vt 0.056614 0.518895
vt 0.959622 0.549977
vt 0.837123 0.350740
vt 0.929664 0.555276
vt 0.051257 0.577890
vt 0.291936 0.641182
vt 0.824256 0.407314
vt 0.275162 0.640522
vt 0.035793 0.577862
vt 0.964581 0.612577
vt 0.838997 0.411720
vt 0.948088 0.615681
vt 0.039898 0.592711
vt 0.301778 0.620707
vt 0.403076 0.772170
vt 0.830596 0.428615
vt 0.403076 0.737417
vt 0.267017 0.619338
vt 0.012950 0.593438
vt 0.987050 0.637067
vt 0.428919 0.781443
vt 0.856067 0.440612
vt 0.428919 0.728949
vt 0.935424 0.646785
vt 0.945356 0.412724
vt 0.357115 0.854737
vt 0.331665 0.779032
vt 0.948027 0.441601
vt 0.799629 0.752473
vt 0.327972 0.853161
vt 0.906904 0.416128
vt 0.370069 0.779032
vt 0.684668 0.778429
vt 0.909575 0.445005
vt 0.655249 0.778999
vt 0.799629 0.791035
vt 0.330193 0.729131
vt 0.557184 0.775635
vt 0.363063 0.804932
vt 0.331684 0.807874
vt 0.754247 0.751428
vt 0.586563 0.768755
vt 0.566112 0.815056
vt 0.689281 0.828405
vt 0.370405 0.729131
vt 0.754247 0.791805
vt 0.657717 0.824383
vt 0.595492 0.808176
vt 0.327830 0.637821
vt 0.590400 0.642651
vt 0.164818 0.789976
vt 0.357235 0.619338
vt 0.642851 0.190721
vt 0.562581 0.649581
vt 0.406824 0.626953
vt 0.080449 0.619338
vt 0.646201 0.239681
vt 0.727583 0.656002
vt 0.597847 0.731399
vt 0.712829 0.722239
vt 0.658284 0.323708
vt 0.527919 0.666449
vt 0.661748 0.291537
vt 0.680225 0.245582
vt 0.377645 0.696957
vt 0.285191 0.477898
vt 0.483372 0.812325
vt 0.280072 0.728266
vt 0.924330 0.393087
vt 0.921760 0.373660
vt 0.678504 0.727397
vt 0.268491 0.812575
vt 0.930826 0.465310
vt 0.923786 0.327561
vt 0.941993 0.227167
vt 0.764056 0.466512
vt 0.919524 0.351927
vt 0.977463 0.013354
vt 0.833186 0.466512
vt 0.317617 0.012950
vt 0.798789 0.722800
vt 0.839639 0.522681
vt 0.934403 0.500152
vt 0.932138 0.484309
vt 0.281656 0.689101
vt 0.944784 0.554368
vt 0.283549 0.640852
vt 0.956335 0.614129
vt 0.284323 0.620942
vt 0.399765 0.754789
vt 0.961112 0.640376
vt 0.422297 0.755187
vt 0.926130 0.414426
vt 0.350867 0.779032
vt 0.928801 0.443303
vt 0.799629 0.771754
vt 0.350773 0.728949
vt 0.557184 0.796361
vt 0.753483 0.771844
vt 0.595492 0.787450
vt 0.985581 0.067358
vt 0.238180 0.070710
vt 0.259592 0.052321
vt 0.138792 0.821791
vt 0.953366 0.057503
vt 0.765454 0.639660
vt 0.120235 0.821584
vt 0.772730 0.660154
vt 0.283154 0.037949
vt 0.784440 0.682652
vt 0.128680 0.843910
vt 0.970110 0.058056
vt 0.758353 0.637393
vt 0.180368 0.432154
vt 0.759258 0.257498
vt 0.884976 0.446549
vt 0.828099 0.241547
vt 0.971226 0.428512
vt 0.101516 0.405509
vt 0.908240 0.430567
vt 0.669958 0.778714
vt 0.946692 0.427163
vt 0.342544 0.853949
vt 0.673120 0.826722
vt 0.582140 0.817526
vt 0.570535 0.766286
vt 0.348248 0.806122
vt 0.576699 0.792002
vt 0.653753 0.802281
vt 0.776512 0.794925
vt 0.776512 0.748700
vt 0.327830 0.829868
vt 0.363063 0.830170
vt 0.327830 0.753980
vt 0.373865 0.753980
vt 0.689281 0.803194
vt 0.351093 0.753886
vt 0.776117 0.771930
vt 0.671321 0.802907
vt 0.345899 0.829874
vt 0.457498 0.727404
vt 0.165986 0.548054
vt 0.260364 0.376248
vt 0.625887 0.695531
vt 0.520555 0.743605
vt 0.734596 0.339638
vt 0.406824 0.703049
vt 0.012950 0.651015
vt 0.277407 0.507014
vt 0.206214 0.619338
vt 0.706517 0.466512
vt 0.399765 0.822801
vt 0.181517 0.620770
vt 0.619265 0.470337
vt 0.422433 0.807343
vt 0.582936 0.466512
vt 0.458892 0.202188
vt 0.422433 0.843958
vt 0.727583 0.468029
vt 0.460639 0.221880
vt 0.402692 0.843997
vt 0.717439 0.778459
vt 0.429089 0.593438
vt 0.518160 0.466685
vt 0.070962 0.817001
vt 0.726094 0.791097
vt 0.457498 0.298878
vt 0.715181 0.783741
vt 0.523936 0.466512
vt 0.458951 0.311476
vt 0.719061 0.788282
vt 0.458165 0.306435
vt 0.058766 0.817583
vt 0.726094 0.778429
vt 0.431598 0.585369
vt 0.599953 0.261833
vt 0.080449 0.668491
vt 0.542336 0.274386
vt 0.076079 0.728305
vt 0.500395 0.287212
vt 0.064936 0.773359
vt 0.389801 0.564275
vt 0.039540 0.774208
vt 0.356388 0.547019
vt 0.031995 0.737396
vt 0.319737 0.531779
vt 0.030523 0.696843
vt 0.505723 0.512116
vt 0.384015 0.580847
vt 0.506522 0.550736
vt 0.346302 0.574833
vt 0.507607 0.604105
vt 0.294291 0.566034
vt 0.610540 0.298468
vt 0.545535 0.300686
vt 0.502363 0.302883
vt 0.504402 0.313331
vt 0.517745 0.511765
vt 0.548610 0.318269
vt 0.527842 0.556627
vt 0.609940 0.323717
vt 0.531284 0.618364
vt 0.660591 0.582499
vt 0.204501 0.743892
vt 0.668589 0.550878
vt 0.206214 0.710848
vt 0.668004 0.517120
vt 0.204545 0.678125
vt 0.623877 0.525891
vt 0.164692 0.675333
vt 0.610236 0.563455
vt 0.167167 0.712219
vt 0.605277 0.597358
vt 0.166352 0.745757
vt 0.511839 0.183186
vt 0.584607 0.521652
vt 0.552303 0.182624
vt 0.569857 0.561129
vt 0.598009 0.178631
vt 0.565182 0.606784
vt 0.592158 0.236754
vt 0.721184 0.600612
vt 0.550092 0.232946
vt 0.722606 0.558204
vt 0.518921 0.225772
vt 0.713819 0.525134
s 0
usemtl Material
f 89/196/1 7/19/1 13/33/1 90/198/1
f 8/22/2 7/19/2 89/196/2 58/145/2 54/138/2 53/134/2
f 6/18/3 56/142/3 57/144/3
f 3/8/4 106/224/4 4/9/4 59/147/4 88/195/4
f 6/17/5 107/226/5 5/14/5 60/148/5 1/1/5 105/222/5 2/4/5 56/143/5
f 61/150/6 13/34/6 16/40/6 62/151/6
f 5/16/7 14/36/7 31/76/7 29/72/7
f 88/195/8 1/3/8 10/26/8 91/200/8
f 67/158/9 21/53/9 20/51/9 65/155/9
f 13/33/10 7/19/10 12/31/10 16/41/10
f 3/8/11 9/25/11 11/28/11 15/38/11
f 55/141/12 3/6/12 15/37/12 63/152/12
f 66/156/13 19/49/13 17/43/13 65/155/13
f 23/57/14 22/55/14 17/42/14 19/50/14
f 83/184/15 82/183/15 25/63/15 26/67/15
f 15/38/16 11/28/16 22/55/16 23/57/16
f 62/151/17 16/40/17 21/53/17 67/158/17
f 69/163/18 26/66/18 25/64/18 68/160/18
f 87/193/19 84/186/19 24/60/19 68/159/19
f 86/190/20 83/184/20 26/67/20 69/161/20
f 84/187/21 85/189/21 27/68/21 24/61/21
f 70/164/22 29/73/22 31/77/22 71/165/22
f 70/164/23 28/71/23 34/83/23 73/167/23
f 10/26/24 1/3/24 28/70/24 30/74/24
f 64/154/25 10/27/25 30/75/25 71/165/25
f 34/82/26 32/78/26 36/86/26 38/90/26
f 60/149/27 5/15/27 33/81/27 72/166/27
f 5/16/28 29/72/28 35/84/28 33/80/28
f 28/70/29 1/3/29 32/78/29 34/82/29
f 37/88/30 39/92/30 43/103/30 41/97/30
f 73/167/31 34/83/31 38/91/31 75/169/31
f 33/80/32 35/84/32 39/92/32 37/88/32
f 72/166/33 33/81/33 37/89/33 74/168/33
f 76/171/34 41/98/34 43/104/34 77/173/34
f 74/168/35 37/89/35 41/99/35 76/170/35
f 38/90/36 36/86/36 40/94/36 42/100/36
f 75/169/37 38/91/37 42/101/37 77/172/37
f 102/219/38 97/211/38 51/127/38 81/180/38
f 91/199/39 10/27/39 45/109/39 93/203/39
f 90/197/40 13/34/40 46/112/40 92/201/40
f 61/150/41 9/24/41 44/106/41 78/174/41
f 64/154/42 14/35/42 47/115/42 79/176/42
f 96/209/43 94/206/43 50/124/43 80/179/43
f 101/218/44 99/215/44 48/118/44 80/178/44
f 104/221/45 98/213/45 49/121/45 95/208/45
f 103/220/46 100/217/46 50/125/46 94/205/46
f 8/23/47 53/135/47 52/131/47
f 8/23/48 52/131/48 4/10/48 106/225/48 3/7/48 55/140/48 7/20/48
f 54/138/49 58/145/49 89/196/49 5/16/49 107/227/49 6/18/49 57/144/49
f 100/216/50 101/218/50 80/178/50 50/126/50
f 95/207/51 96/209/51 80/179/51 48/119/51
f 10/27/52 64/154/52 79/176/52 45/109/52
f 13/34/53 61/150/53 78/174/53 46/112/53
f 98/212/54 102/219/54 81/180/54 49/122/54
f 39/93/55 75/169/55 77/172/55 43/105/55
f 36/87/56 74/168/56 76/170/56 40/95/56
f 40/96/57 76/171/57 77/173/57 42/102/57
f 32/79/58 72/166/58 74/168/58 36/87/58
f 35/85/59 73/167/59 75/169/59 39/93/59
f 1/2/60 60/149/60 72/166/60 32/79/60
f 14/35/61 64/154/61 71/165/61 31/77/61
f 29/73/62 70/164/62 73/167/62 35/85/62
f 28/71/63 70/164/63 71/165/63 30/75/63
f 85/189/64 86/191/64 69/162/64 27/68/64
f 82/182/65 87/193/65 68/159/65 25/65/65
f 27/69/66 69/163/66 68/160/66 24/62/66
f 11/29/67 62/151/67 67/158/67 22/56/67
f 18/44/68 66/156/68 65/155/68 20/51/68
f 7/21/69 55/141/69 63/152/69 12/30/69
f 22/56/70 67/158/70 65/155/70 17/43/70
f 9/24/71 61/150/71 62/151/71 11/29/71
f 19/49/72 66/156/72 87/193/72 82/182/72
f 12/31/73 18/45/73 20/52/73 21/54/73 16/41/73
f 66/157/74 18/48/74 84/187/74 87/194/74
f 23/57/75 19/50/75 82/183/75 83/184/75
f 49/123/76 81/181/76 96/209/76 95/207/76
f 97/210/77 103/220/77 94/205/77 51/128/77
f 99/214/78 104/221/78 95/208/78 48/120/78
f 81/181/79 51/129/79 94/206/79 96/209/79
f 14/35/80 90/197/80 92/201/80 47/115/80
f 9/24/81 91/199/81 93/203/81 44/106/81
f 3/8/82 88/195/82 91/200/82 9/25/82
f 5/16/83 89/196/83 90/198/83 14/36/83
f 44/107/84 93/204/84 104/221/84 99/214/84
f 47/116/85 92/202/85 103/220/85 97/210/85
f 45/110/86 79/177/86 102/219/86 98/212/86
f 46/113/87 78/175/87 101/218/87 100/216/87
f 92/202/88 46/114/88 100/217/88 103/220/88
f 93/204/89 45/111/89 98/213/89 104/221/89
f 78/175/90 44/108/90 99/215/90 101/218/90
f 79/177/91 47/117/91 97/211/91 102/219/91
f 59/146/92 4/11/92 52/130/92 53/133/92 54/136/92 108/228/92
f 136/291/93 110/234/93 109/231/93 135/289/93
f 121/264/94 120/262/94 114/246/94 117/254/94
f 139/297/95 111/237/95 110/235/95 136/290/95
f 135/288/96 109/232/96 112/240/96 144/307/96
f 144/306/97 112/241/97 111/238/97 139/296/97
f 111/239/98 112/242/98 109/233/98 110/236/98
f 117/255/99 114/247/99 116/252/99 115/249/99 113/243/99
f 124/270/100 121/263/100 117/256/100 113/244/100
f 120/261/101 129/277/101 116/253/101 114/248/101
f 130/279/102 124/269/102 113/245/102 115/250/102
f 129/277/103 130/278/103 115/251/103 116/253/103
f 57/144/104 56/142/104 132/282/104 127/275/104
f 127/275/105 132/282/105 131/280/105 128/276/105
f 128/276/106 131/280/106 130/278/106 129/277/106
f 56/143/107 2/4/107 126/273/107 132/283/107
f 132/283/108 126/273/108 125/271/108 131/281/108
f 131/281/109 125/271/109 124/269/109 130/279/109
f 54/138/110 57/144/110 127/275/110 118/257/110
f 118/257/111 127/275/111 128/276/111 119/259/111
f 119/259/112 128/276/112 129/277/112 120/261/112
f 2/5/113 108/230/113 123/267/113 126/274/113
f 126/274/114 123/267/114 122/265/114 125/272/114
f 125/272/115 122/265/115 121/263/115 124/270/115
f 108/229/116 54/137/116 118/258/116 123/268/116
f 123/268/117 118/258/117 119/260/117 122/266/117
f 122/266/118 119/260/118 120/262/118 121/264/118
f 54/138/119 142/302/119 141/300/119 53/134/119
f 142/302/120 143/304/120 140/298/120 141/300/120
f 143/304/121 144/306/121 139/296/121 140/298/121
f 4/12/122 133/284/122 142/303/122 54/139/122
f 133/284/123 134/286/123 143/305/123 142/303/123
f 134/286/124 135/288/124 144/307/124 143/305/124
f 53/135/125 141/301/125 138/294/125 52/131/125
f 141/301/126 140/299/126 137/292/126 138/294/126
f 140/299/127 139/297/127 136/290/127 137/292/127
f 52/132/128 138/295/128 133/285/128 4/13/128
f 138/295/129 137/293/129 134/287/129 133/285/129
f 137/293/130 136/291/130 135/289/130 134/287/130
f 105/223/131 1/3/131 88/195/131 59/147/131 108/230/131 2/5/131
f 86/192/132 85/188/132 83/185/132
f 83/185/133 85/188/133 18/46/133 23/58/133
f 63/153/134 15/39/134 23/59/134 18/47/134 12/32/134
f 84/187/135 18/48/135 85/189/135
l 52 106
