# Blender 3.3.1
# www.blender.org
mtllib monstruo_3_caminar654.mtl
o monstruo_grande
v 0.486950 1.972358 0.326811
v 0.517884 1.131072 0.104069
v -0.642114 1.806713 0.175242
v -0.308885 1.163841 0.217188
v 0.755064 2.252479 0.049412
v 0.607560 1.559884 -0.242495
v -0.742679 2.018040 -0.250347
v -0.673695 1.737150 -0.318759
v -0.240572 2.385163 0.487058
v 0.308182 2.261412 0.499998
v -0.376848 2.355567 0.578284
v -1.094733 2.048041 -0.106832
v -0.210513 2.564021 0.136197
v 0.347908 2.400784 0.237668
v -0.946010 1.920603 0.053086
v -0.373064 2.641050 0.154313
v -0.723624 2.271235 0.575527
v -1.388076 1.949865 0.152815
v -1.117265 1.993954 0.357227
v -0.898752 2.594376 0.315292
v -0.562197 2.681215 0.217970
v -0.447623 2.313394 0.548617
v -1.075203 1.928441 0.048424
v -1.671869 0.684666 0.818403
v -1.547534 0.667292 0.869482
v -1.515235 0.499269 0.663646
v -1.591126 0.509874 0.632469
v 0.434664 2.168356 0.499807
v 0.614751 2.359621 0.292687
v 0.415191 2.284482 0.509075
v 0.476286 2.414731 0.292710
v 0.710738 1.867495 0.415610
v 0.904195 1.929945 0.316333
v 0.721073 1.939270 0.462866
v 0.856242 2.048273 0.355771
v 0.870140 1.650609 0.541258
v 0.977022 1.672117 0.506271
v 0.906711 1.651782 0.640601
v 1.011715 1.680141 0.601860
v 0.868024 1.520129 0.627566
v 1.086738 1.578189 0.550868
v 0.881381 1.487489 0.821475
v 1.210336 1.572391 0.699579
v -0.076484 2.430295 0.518867
v 0.132435 2.397638 0.513416
v -0.058083 2.539029 0.275909
v 0.146947 2.501817 0.272189
v -0.020812 2.731680 0.682493
v 0.184611 2.662968 0.650998
v -0.016919 2.857487 0.434457
v 0.187788 2.789088 0.401916
v -0.509687 1.191034 0.003399
v -0.391390 1.195440 -0.208331
v -0.042485 1.277511 -0.333003
v -0.694122 1.852213 -0.050094
v 0.542956 1.140959 -0.134642
v 0.327177 1.157804 -0.262684
v 0.034033 1.526046 -0.319953
v -0.030351 1.146085 0.197372
v 0.584809 2.052618 0.236689
v -0.223261 2.447945 0.364348
v -0.382636 2.608627 0.425636
v -0.884536 2.000226 -0.061208
v 0.307461 2.389633 0.396591
v -0.748419 2.499677 0.542774
v -1.293703 2.095032 0.396569
v -0.535225 2.598217 0.411093
v -1.622382 0.673315 0.873903
v -1.525756 0.393780 0.543617
v 0.546859 2.275946 0.438344
v 0.448441 2.395162 0.424094
v 0.790352 1.868980 0.319254
v 0.814666 2.004519 0.455724
v 0.922856 1.663695 0.522187
v 0.959257 1.665344 0.621130
v 0.970142 1.543916 0.565930
v 1.032312 1.521306 0.717956
v -0.068260 2.484120 0.395791
v 0.137328 2.451349 0.391979
v -0.050137 2.796661 0.559261
v 0.217673 2.724221 0.526320
v -1.433582 0.998326 0.829270
v -1.482823 0.824489 0.754867
v -1.647147 0.999066 0.742251
v -1.599852 0.840842 0.706789
v -1.531642 0.668596 0.651420
v -1.564437 0.976699 0.836050
v -0.015945 1.754425 0.514708
v 0.213028 2.133781 -0.181246
v 0.156276 2.509595 0.092796
v 0.046923 2.263426 0.640068
v 0.039677 2.520384 0.272070
v 0.032594 2.412330 0.514542
v 0.085848 2.841890 0.380431
v 0.081277 2.678459 0.703845
v 0.087616 2.809584 0.568143
v 0.180927 2.658322 0.313530
v 0.173477 2.518361 0.598360
v -0.062766 2.572251 0.622036
v -0.057540 2.713745 0.335202
v -0.076872 2.644588 0.479409
v 0.192226 2.588290 0.455648
v 0.061084 2.695504 0.304234
v 0.055823 2.534397 0.629730
v 0.568872 1.642427 -0.008787
v -0.563910 1.529427 0.198941
v 0.667781 1.771712 -0.214786
v 0.161951 1.142158 0.207678
v -0.292214 0.250950 -0.442429
v -0.432158 0.179422 -0.336418
v -0.466722 0.334152 -0.531911
v -0.332365 0.340039 -0.552528
v 0.252370 -0.008884 0.084058
v 0.181485 -0.022410 0.006326
v 0.263153 -0.014077 0.046283
v 0.232547 -0.019596 0.019266
v 0.192873 -0.009043 0.092195
v 0.061290 0.846811 -0.083261
v 0.105091 0.611626 -0.008160
v 0.126190 0.309252 0.016427
v 0.153621 0.283926 0.194496
v 0.147668 0.531419 0.269154
v 0.168892 0.806701 0.307672
v 0.276247 0.277248 0.172986
v 0.355296 0.525954 0.235103
v 0.460212 0.850552 0.242319
v 0.316443 0.847362 -0.056077
v 0.283054 0.594481 0.026298
v 0.232061 0.298503 0.039096
v 0.296829 0.287318 0.093620
v 0.393190 0.578435 0.114462
v 0.485736 0.858086 0.053358
v -0.223259 0.879031 0.313468
v -0.228608 0.581667 0.138552
v -0.244137 0.378936 -0.026181
v -0.526958 0.407850 -0.047004
v -0.511852 0.657535 0.097063
v -0.507040 0.906202 0.187548
v -0.535910 0.586998 -0.252448
v -0.518974 0.815013 -0.105083
v -0.512574 0.931735 -0.076176
v -0.121928 0.856772 -0.093024
v -0.176939 0.775975 -0.139876
v -0.239655 0.606606 -0.249065
vn -0.0114 0.5864 -0.8100
vn -0.0138 0.0903 -0.9958
vn 0.4721 -0.2874 -0.8334
vn -0.3149 -0.2612 0.9125
vn 0.9259 -0.2347 0.2959
vn 0.6143 0.7484 0.2500
vn 0.2143 0.9080 -0.3600
vn 0.4416 -0.2574 0.8595
vn -0.1227 0.8946 0.4297
vn -0.1268 0.5921 -0.7958
vn -0.1604 -0.5327 0.8310
vn -0.3709 -0.8680 -0.3301
vn -0.2470 -0.1699 0.9540
vn 0.3158 -0.8778 0.3602
vn 0.9479 -0.2286 0.2216
vn 0.0344 -0.7998 0.5993
vn 0.1178 0.9647 0.2353
vn 0.0200 -0.7651 0.6435
vn -0.7055 0.2188 0.6741
vn 0.9419 0.0675 -0.3291
vn -0.8524 0.0196 -0.5225
vn 0.5117 0.7321 0.4497
vn 0.1838 0.1657 0.9689
vn -0.3885 -0.5296 0.7540
vn -0.1840 0.6240 0.7595
vn -0.8447 -0.3196 0.4293
vn -0.0177 -0.5765 -0.8169
vn 0.8225 0.5596 0.1014
vn -0.4621 -0.6054 0.6480
vn 0.6242 0.6647 -0.4105
vn -0.0786 0.4466 0.8913
vn 0.9576 0.2511 -0.1409
vn 0.1584 -0.5970 -0.7865
vn 0.2449 -0.9394 -0.2400
vn -0.0598 -0.4185 -0.9062
vn -0.9470 0.2596 0.1891
vn 0.2651 0.6676 0.6957
vn 0.9863 -0.0220 -0.1635
vn 0.3304 0.5279 0.7824
vn 0.1579 0.9871 0.0262
vn -0.2987 0.8739 0.3836
vn 0.4051 0.8747 0.2661
vn 0.0652 0.9545 0.2910
vn -0.9691 0.1155 0.2180
vn 0.2715 -0.4156 0.8681
vn -0.2281 0.5410 -0.8095
vn -0.7594 -0.4843 -0.4344
vn -0.9327 -0.3017 0.1974
vn 0.1637 0.1809 -0.9698
vn -0.9640 0.2580 -0.0636
vn 0.0586 0.7983 0.5994
vn 0.4169 0.7028 0.5764
vn -0.2610 0.8731 0.4118
vn 0.9792 -0.1736 0.1046
vn -0.0356 0.5867 0.8090
vn -0.3121 -0.4818 -0.8188
vn 0.1056 -0.9781 -0.1793
vn -0.4097 -0.7196 -0.5606
vn 0.4726 0.5843 0.6597
vn -0.2731 -0.7581 -0.5922
vn -0.0969 0.9919 0.0822
vn 0.5819 0.5863 0.5636
vn 0.4705 0.2536 0.8452
vn -0.4000 0.2550 -0.8803
vn 0.0457 0.1098 0.9929
vn -0.6386 -0.6731 0.3730
vn -0.2704 0.4203 0.8662
vn -0.7212 0.6205 0.3080
vn -0.3688 -0.8580 -0.3574
vn 0.1973 0.3473 0.9167
vn 0.5624 0.5316 0.6333
vn 0.2236 0.3329 0.9161
vn -0.4346 0.6238 -0.6496
vn -0.8687 0.3803 0.3174
vn 0.9576 -0.2519 0.1394
vn 0.5095 0.6534 0.5599
vn 0.3028 0.4609 -0.8342
vn -0.2602 -0.3425 0.9028
vn 0.5139 0.8325 0.2071
vn 0.3669 0.9284 0.0593
vn -0.1363 0.5142 0.8468
vn -0.4901 -0.1368 0.8609
vn 0.2860 0.7637 -0.5788
vn -0.1623 -0.6153 0.7714
vn 0.0898 0.2012 -0.9754
vn 0.9466 -0.3160 -0.0632
vn -0.9946 0.0195 -0.1020
vn -0.1104 0.2579 -0.9598
vn 0.0244 -0.6397 0.7682
vn -0.9997 0.0025 0.0233
vn 0.9612 -0.2481 -0.1203
vn 0.0277 -0.9846 -0.1726
vn 0.1793 -0.8733 0.4530
vn -0.9757 -0.1721 0.1357
vn -0.9696 -0.2292 -0.0856
vn 0.9853 -0.0581 -0.1609
vn -0.0707 0.7462 -0.6620
vn -0.0609 -0.7874 -0.6134
vn 0.0239 -0.9879 0.1531
vn 0.1422 -0.3070 0.9410
vn 0.2239 0.0640 -0.9725
vn 0.9564 -0.1516 0.2498
vn 0.6507 0.0473 -0.7578
vn 0.4383 -0.5320 -0.7244
vn 0.5396 -0.3356 -0.7721
vn 0.6122 -0.1430 -0.7777
vn 0.9844 -0.1365 0.1109
vn 0.9452 -0.2967 0.1361
vn 0.9294 -0.3280 0.1691
vn 0.0338 -0.5209 -0.8529
vn 0.1229 -0.3024 -0.9452
vn 0.1901 -0.0707 -0.9792
vn 0.2220 0.3358 0.9154
vn 0.2027 -0.1167 0.9723
vn 0.1490 -0.2831 0.9474
vn -0.9477 0.0087 0.3191
vn -0.9763 -0.0278 0.2144
vn -0.9886 -0.0612 0.1378
vn -0.1654 -0.4332 -0.8860
vn -0.0096 0.3607 -0.9326
vn -0.0246 0.5457 -0.8376
vn 0.9116 0.1833 0.3679
vn 0.9580 -0.2427 0.1530
vn 0.9833 -0.1777 -0.0395
vn -0.9710 0.0799 -0.2253
vn -0.9992 0.0193 0.0347
vn -0.9976 0.0285 0.0629
vn -0.5221 0.3102 0.7945
vn -0.3259 -0.4084 0.8526
vn -0.1907 -0.5446 0.8167
vn 0.4765 -0.2706 0.8365
vn 0.3945 0.4191 -0.8178
vn -0.1549 -0.4559 -0.8765
vn -0.1494 -0.7952 -0.5876
vn -0.8220 -0.1210 -0.5565
vt 0.461701 0.809397
vt 0.301930 0.729761
vt 0.094158 0.499911
vt 0.498737 0.648456
vt 0.250869 0.553264
vt 0.714874 0.752530
vt 0.627854 0.740386
vt 0.227533 0.339544
vt 0.300362 0.438253
vt 0.625828 0.633709
vt 0.338991 0.679376
vt 0.653754 0.621457
vt 0.189641 0.785401
vt 0.531284 0.815038
vt 0.232114 0.729761
vt 0.806952 0.326283
vt 0.527824 0.712310
vt 0.703640 0.331352
vt 0.725736 0.123548
vt 0.557184 0.740386
vt 0.714874 0.681901
vt 0.693091 0.138725
vt 0.558638 0.706064
vt 0.944491 0.391302
vt 0.108931 0.369345
vt 0.090202 0.443431
vt 0.952837 0.467016
vt 0.108059 0.346292
vt 0.960024 0.371234
vt 0.653754 0.712739
vt 0.761990 0.055860
vt 0.265996 0.788213
vt 0.829683 0.188590
vt 0.886815 0.394232
vt 0.909606 0.471204
vt 0.826550 0.267021
vt 0.659457 0.749480
vt 0.206417 0.267620
vt 0.238389 0.812575
vt 0.882743 0.373659
vt 0.837846 0.166681
vt 0.102618 0.289588
vt 0.957957 0.321520
vt 0.918648 0.216117
vt 0.803322 0.012950
vt 0.106348 0.638847
vt 0.232551 0.755661
vt 0.798789 0.485160
vt 0.965752 0.239402
vt 0.153968 0.222285
vt 0.894228 0.312474
vt 0.856067 0.102710
vt 0.881967 0.351902
vt 0.842627 0.144082
vt 0.107159 0.331692
vt 0.958812 0.358201
vt 0.199778 0.246429
vt 0.138792 0.619338
vt 0.232114 0.797406
vt 0.967580 0.012950
vt 0.753483 0.682459
vt 0.843831 0.469074
vt 0.256421 0.022764
vt 0.824689 0.472884
vt 0.987050 0.016155
vt 0.832147 0.505580
vt 0.295109 0.018166
vt 0.782932 0.707368
vt 0.843831 0.503254
vt 0.076417 0.467161
vt 0.958695 0.494573
vt 0.833773 0.298242
vt 0.909847 0.503107
vt 0.076958 0.454690
vt 0.951531 0.482650
vt 0.837149 0.281767
vt 0.912926 0.487172
vt 0.064432 0.532285
vt 0.298790 0.687460
vt 0.825577 0.362572
vt 0.264894 0.686125
vt 0.056614 0.518895
vt 0.959622 0.549977
vt 0.837123 0.350740
vt 0.929664 0.555276
vt 0.051257 0.577890
vt 0.291936 0.641182
vt 0.824256 0.407314
vt 0.275162 0.640522
vt 0.035793 0.577862
vt 0.964581 0.612577
vt 0.838997 0.411720
vt 0.948088 0.615681
vt 0.039898 0.592711
vt 0.301778 0.620707
vt 0.403076 0.772170
vt 0.830596 0.428615
vt 0.403076 0.737417
vt 0.267017 0.619338
vt 0.012950 0.593438
vt 0.987050 0.637067
vt 0.428919 0.781443
vt 0.856067 0.440612
vt 0.428919 0.728949
vt 0.935424 0.646785
vt 0.945356 0.412724
vt 0.357115 0.854737
vt 0.331665 0.779032
vt 0.948027 0.441601
vt 0.799629 0.752473
vt 0.327972 0.853161
vt 0.906904 0.416128
vt 0.370069 0.779032
vt 0.684668 0.778429
vt 0.909575 0.445005
vt 0.655249 0.778999
vt 0.799629 0.791035
vt 0.330193 0.729131
vt 0.557184 0.775635
vt 0.363063 0.804932
vt 0.331684 0.807874
vt 0.754247 0.751428
vt 0.586563 0.768755
vt 0.566112 0.815056
vt 0.689281 0.828405
vt 0.370405 0.729131
vt 0.754247 0.791805
vt 0.657717 0.824383
vt 0.595492 0.808176
vt 0.327830 0.637821
vt 0.590400 0.642651
vt 0.164818 0.789976
vt 0.357235 0.619338
vt 0.642851 0.190721
vt 0.562581 0.649581
vt 0.406824 0.626953
vt 0.080449 0.619338
vt 0.646201 0.239681
vt 0.727583 0.656002
vt 0.597847 0.731399
vt 0.712829 0.722239
vt 0.658284 0.323708
vt 0.527919 0.666449
vt 0.661748 0.291537
vt 0.680225 0.245582
vt 0.377645 0.696957
vt 0.285191 0.477898
vt 0.483372 0.812325
vt 0.280072 0.728266
vt 0.924330 0.393087
vt 0.921760 0.373660
vt 0.678504 0.727397
vt 0.268491 0.812575
vt 0.930826 0.465310
vt 0.923786 0.327561
vt 0.941993 0.227167
vt 0.764056 0.466512
vt 0.919524 0.351927
vt 0.977463 0.013354
vt 0.833186 0.466512
vt 0.317617 0.012950
vt 0.798789 0.722800
vt 0.839639 0.522681
vt 0.934403 0.500152
vt 0.932138 0.484309
vt 0.281656 0.689101
vt 0.944784 0.554368
vt 0.283549 0.640852
vt 0.956335 0.614129
vt 0.284323 0.620942
vt 0.399765 0.754789
vt 0.961112 0.640376
vt 0.422297 0.755187
vt 0.926130 0.414426
vt 0.350867 0.779032
vt 0.928801 0.443303
vt 0.799629 0.771754
vt 0.350773 0.728949
vt 0.557184 0.796361
vt 0.753483 0.771844
vt 0.595492 0.787450
vt 0.985581 0.067358
vt 0.238180 0.070710
vt 0.259592 0.052321
vt 0.138792 0.821791
vt 0.953366 0.057503
vt 0.765454 0.639660
vt 0.120235 0.821584
vt 0.772730 0.660154
vt 0.283154 0.037949
vt 0.784440 0.682652
vt 0.128680 0.843910
vt 0.970110 0.058056
vt 0.758353 0.637393
vt 0.180368 0.432154
vt 0.759258 0.257498
vt 0.884976 0.446549
vt 0.828099 0.241547
vt 0.971226 0.428512
vt 0.101516 0.405509
vt 0.908240 0.430567
vt 0.669958 0.778714
vt 0.946692 0.427163
vt 0.342544 0.853949
vt 0.673120 0.826722
vt 0.582140 0.817526
vt 0.570535 0.766286
vt 0.348248 0.806122
vt 0.576699 0.792002
vt 0.653753 0.802281
vt 0.776512 0.794925
vt 0.776512 0.748700
vt 0.327830 0.829868
vt 0.363063 0.830170
vt 0.327830 0.753980
vt 0.373865 0.753980
vt 0.689281 0.803194
vt 0.351093 0.753886
vt 0.776117 0.771930
vt 0.671321 0.802907
vt 0.345899 0.829874
vt 0.457498 0.727404
vt 0.165986 0.548054
vt 0.260364 0.376248
vt 0.625887 0.695531
vt 0.520555 0.743605
vt 0.734596 0.339638
vt 0.406824 0.703049
vt 0.012950 0.651015
vt 0.277407 0.507014
vt 0.206214 0.619338
vt 0.706517 0.466512
vt 0.399765 0.822801
vt 0.181517 0.620770
vt 0.619265 0.470337
vt 0.422433 0.807343
vt 0.582936 0.466512
vt 0.458892 0.202188
vt 0.422433 0.843958
vt 0.727583 0.468029
vt 0.460639 0.221880
vt 0.402692 0.843997
vt 0.717439 0.778459
vt 0.429089 0.593438
vt 0.518160 0.466685
vt 0.070962 0.817001
vt 0.726094 0.791097
vt 0.457498 0.298878
vt 0.715181 0.783741
vt 0.523936 0.466512
vt 0.458951 0.311476
vt 0.719061 0.788282
vt 0.458165 0.306435
vt 0.058766 0.817583
vt 0.726094 0.778429
vt 0.431598 0.585369
vt 0.599953 0.261833
vt 0.080449 0.668491
vt 0.542336 0.274386
vt 0.076079 0.728305
vt 0.500395 0.287212
vt 0.064936 0.773359
vt 0.389801 0.564275
vt 0.039540 0.774208
vt 0.356388 0.547019
vt 0.031995 0.737396
vt 0.319737 0.531779
vt 0.030523 0.696843
vt 0.505723 0.512116
vt 0.384015 0.580847
vt 0.506522 0.550736
vt 0.346302 0.574833
vt 0.507607 0.604105
vt 0.294291 0.566034
vt 0.610540 0.298468
vt 0.545535 0.300686
vt 0.502363 0.302883
vt 0.504402 0.313331
vt 0.517745 0.511765
vt 0.548610 0.318269
vt 0.527842 0.556627
vt 0.609940 0.323717
vt 0.531284 0.618364
vt 0.660591 0.582499
vt 0.204501 0.743892
vt 0.668589 0.550878
vt 0.206214 0.710848
vt 0.668004 0.517120
vt 0.204545 0.678125
vt 0.623877 0.525891
vt 0.164692 0.675333
vt 0.610236 0.563455
vt 0.167167 0.712219
vt 0.605277 0.597358
vt 0.166352 0.745757
vt 0.511839 0.183186
vt 0.584607 0.521652
vt 0.552303 0.182624
vt 0.569857 0.561129
vt 0.598009 0.178631
vt 0.565182 0.606784
vt 0.592158 0.236754
vt 0.721184 0.600612
vt 0.550092 0.232946
vt 0.722606 0.558204
vt 0.518921 0.225772
vt 0.713819 0.525134
s 0
usemtl Material
f 89/196/1 7/19/1 13/33/1 90/198/1
f 8/22/2 7/19/2 89/196/2 58/145/2 54/138/2 53/134/2
f 6/18/3 56/142/3 57/144/3
f 3/8/4 106/224/4 4/9/4 59/147/4 88/195/4
f 6/17/5 107/226/5 5/14/5 60/148/5 1/1/5 105/222/5 2/4/5 56/143/5
f 61/150/6 13/34/6 16/40/6 62/151/6
f 5/16/7 14/36/7 31/76/7 29/72/7
f 88/195/8 1/3/8 10/26/8 91/200/8
f 67/158/9 21/53/9 20/51/9 65/155/9
f 13/33/10 7/19/10 12/31/10 16/41/10
f 3/8/11 9/25/11 11/28/11 15/38/11
f 55/141/12 3/6/12 15/37/12 63/152/12
f 66/156/13 19/49/13 17/43/13 65/155/13
f 23/57/14 22/55/14 17/42/14 19/50/14
f 83/184/15 82/183/15 25/63/15 26/67/15
f 15/38/16 11/28/16 22/55/16 23/57/16
f 62/151/17 16/40/17 21/53/17 67/158/17
f 69/163/18 26/66/18 25/64/18 68/160/18
f 87/193/19 84/186/19 24/60/19 68/159/19
f 86/190/20 83/184/20 26/67/20 69/161/20
f 84/187/21 85/189/21 27/68/21 24/61/21
f 70/164/22 29/73/22 31/77/22 71/165/22
f 70/164/23 28/71/23 34/83/23 73/167/23
f 10/26/24 1/3/24 28/70/24 30/74/24
f 64/154/25 10/27/25 30/75/25 71/165/25
f 34/82/26 32/78/26 36/86/26 38/90/26
f 60/149/27 5/15/27 33/81/27 72/166/27
f 5/16/28 29/72/28 35/84/28 33/80/28
f 28/70/29 1/3/29 32/78/29 34/82/29
f 37/88/30 39/92/30 43/103/30 41/97/30
f 73/167/31 34/83/31 38/91/31 75/169/31
f 33/80/32 35/84/32 39/92/32 37/88/32
f 72/166/33 33/81/33 37/89/33 74/168/33
f 76/171/34 41/98/34 43/104/34 77/173/34
f 74/168/35 37/89/35 41/99/35 76/170/35
f 38/90/36 36/86/36 40/94/36 42/100/36
f 75/169/37 38/91/37 42/101/37 77/172/37
f 102/219/38 97/211/38 51/127/38 81/180/38
f 91/199/39 10/27/39 45/109/39 93/203/39
f 90/197/40 13/34/40 46/112/40 92/201/40
f 61/150/41 9/24/41 44/106/41 78/174/41
f 64/154/42 14/35/42 47/115/42 79/176/42
f 96/209/43 94/206/43 50/124/43 80/179/43
f 101/218/44 99/215/44 48/118/44 80/178/44
f 104/221/45 98/213/45 49/121/45 95/208/45
f 103/220/46 100/217/46 50/125/46 94/205/46
f 8/23/47 53/135/47 52/131/47
f 8/23/48 52/131/48 4/10/48 106/225/48 3/7/48 55/140/48 7/20/48
f 54/138/49 58/145/49 89/196/49 5/16/49 107/227/49 6/18/49 57/144/49
f 100/216/50 101/218/50 80/178/50 50/126/50
f 95/207/51 96/209/51 80/179/51 48/119/51
f 10/27/52 64/154/52 79/176/52 45/109/52
f 13/34/53 61/150/53 78/174/53 46/112/53
f 98/212/54 102/219/54 81/180/54 49/122/54
f 39/93/55 75/169/55 77/172/55 43/105/55
f 36/87/56 74/168/56 76/170/56 40/95/56
f 40/96/57 76/171/57 77/173/57 42/102/57
f 32/79/58 72/166/58 74/168/58 36/87/58
f 35/85/59 73/167/59 75/169/59 39/93/59
f 1/2/60 60/149/60 72/166/60 32/79/60
f 14/35/61 64/154/61 71/165/61 31/77/61
f 29/73/62 70/164/62 73/167/62 35/85/62
f 28/71/63 70/164/63 71/165/63 30/75/63
f 85/189/64 86/191/64 69/162/64 27/68/64
f 82/182/65 87/193/65 68/159/65 25/65/65
f 27/69/66 69/163/66 68/160/66 24/62/66
f 11/29/67 62/151/67 67/158/67 22/56/67
f 18/44/68 66/156/68 65/155/68 20/51/68
f 7/21/69 55/141/69 63/152/69 12/30/69
f 22/56/70 67/158/70 65/155/70 17/43/70
f 9/24/71 61/150/71 62/151/71 11/29/71
f 19/49/72 66/156/72 87/193/72 82/182/72
f 12/31/73 18/45/73 20/52/73 21/54/73 16/41/73
f 66/157/74 18/48/74 84/187/74 87/194/74
f 23/57/75 19/50/75 82/183/75 83/184/75
f 49/123/76 81/181/76 96/209/76 95/207/76
f 97/210/77 103/220/77 94/205/77 51/128/77
f 99/214/78 104/221/78 95/208/78 48/120/78
f 81/181/79 51/129/79 94/206/79 96/209/79
f 14/35/80 90/197/80 92/201/80 47/115/80
f 9/24/81 91/199/81 93/203/81 44/106/81
f 3/8/82 88/195/82 91/200/82 9/25/82
f 5/16/83 89/196/83 90/198/83 14/36/83
f 44/107/84 93/204/84 104/221/84 99/214/84
f 47/116/85 92/202/85 103/220/85 97/210/85
f 45/110/86 79/177/86 102/219/86 98/212/86
f 46/113/87 78/175/87 101/218/87 100/216/87
f 92/202/88 46/114/88 100/217/88 103/220/88
f 93/204/89 45/111/89 98/213/89 104/221/89
f 78/175/90 44/108/90 99/215/90 101/218/90
f 79/177/91 47/117/91 97/211/91 102/219/91
f 59/146/92 4/11/92 52/130/92 53/133/92 54/136/92 108/228/92
f 136/291/93 110/234/93 109/231/93 135/289/93
f 121/264/94 120/262/94 114/246/94 117/254/94
f 139/297/95 111/237/95 110/235/95 136/290/95
f 135/288/96 109/232/96 112/240/96 144/307/96
f 144/306/97 112/241/97 111/238/97 139/296/97
f 111/239/98 112/242/98 109/233/98 110/236/98
f 117/255/99 114/247/99 116/252/99 115/249/99 113/243/99
f 124/270/100 121/263/100 117/256/100 113/244/100
f 120/261/101 129/277/101 116/253/101 114/248/101
f 130/279/102 124/269/102 113/245/102 115/250/102
f 129/277/103 130/278/103 115/251/103 116/253/103
f 57/144/104 56/142/104 132/282/104 127/275/104
f 127/275/105 132/282/105 131/280/105 128/276/105
f 128/276/106 131/280/106 130/278/106 129/277/106
f 56/143/107 2/4/107 126/273/107 132/283/107
f 132/283/108 126/273/108 125/271/108 131/281/108
f 131/281/109 125/271/109 124/269/109 130/279/109
f 54/138/110 57/144/110 127/275/110 118/257/110
f 118/257/111 127/275/111 128/276/111 119/259/111
f 119/259/112 128/276/112 129/277/112 120/261/112
f 2/5/113 108/230/113 123/267/113 126/274/113
f 126/274/114 123/267/114 122/265/114 125/272/114
f 125/272/115 122/265/115 121/263/115 124/270/115
f 108/229/116 54/137/116 118/258/116 123/268/116
f 123/268/117 118/258/117 119/260/117 122/266/117
f 122/266/118 119/260/118 120/262/118 121/264/118
f 54/138/119 142/302/119 141/300/119 53/134/119
f 142/302/120 143/304/120 140/298/120 141/300/120
f 143/304/121 144/306/121 139/296/121 140/298/121
f 4/12/122 133/284/122 142/303/122 54/139/122
f 133/284/123 134/286/123 143/305/123 142/303/123
f 134/286/124 135/288/124 144/307/124 143/305/124
f 53/135/125 141/301/125 138/294/125 52/131/125
f 141/301/126 140/299/126 137/292/126 138/294/126
f 140/299/127 139/297/127 136/290/127 137/292/127
f 52/132/128 138/295/128 133/285/128 4/13/128
f 138/295/129 137/293/129 134/287/129 133/285/129
f 137/293/130 136/291/130 135/289/130 134/287/130
f 105/223/131 1/3/131 88/195/131 59/147/131 108/230/131 2/5/131
f 86/192/132 85/188/132 83/185/132
f 83/185/133 85/188/133 18/46/133 23/58/133
f 63/153/134 15/39/134 23/59/134 18/47/134 12/32/134
f 84/187/135 18/48/135 85/189/135
l 52 106
