# Blender 3.3.1
# www.blender.org
mtllib monstruo_3_caminar623.mtl
o monstruo_grande
v 0.342615 2.023124 0.226042
v 0.522426 1.200716 0.097402
v -0.732490 1.717882 0.218731
v -0.293047 1.092867 0.209793
v 0.462483 2.320059 -0.123407
v 0.516985 1.615117 -0.241218
v -0.884214 1.947997 -0.183704
v -0.767064 1.675345 -0.264267
v -0.357753 2.370290 0.503679
v 0.201189 2.289868 0.439226
v -0.484099 2.332039 0.609525
v -1.248417 1.980504 -0.007257
v -0.373999 2.542069 0.148236
v 0.178128 2.435679 0.183351
v -1.085701 1.845516 0.137874
v -0.537704 2.607714 0.181224
v -0.831961 2.235010 0.642451
v -1.524030 1.896002 0.274561
v -1.236336 1.937273 0.466051
v -1.036855 2.547720 0.391031
v -0.717976 2.639825 0.260626
v -0.559872 2.284517 0.588824
v -1.217697 1.863105 0.148974
v -1.788630 0.624712 0.944120
v -1.660395 0.603887 0.982751
v -1.654211 0.432536 0.777217
v -1.732482 0.445248 0.753638
v 0.363114 2.212330 0.410982
v 0.434879 2.416097 0.150656
v 0.315140 2.323875 0.428865
v 0.309439 2.463151 0.204850
v 0.596145 1.912506 0.189594
v 0.690223 2.015959 0.006718
v 0.618796 1.991394 0.238800
v 0.681130 2.114116 0.083890
v 0.779365 1.694659 0.111369
v 0.843931 1.734260 0.025128
v 0.869165 1.665645 0.159090
v 0.930287 1.713413 0.073439
v 0.810612 1.543267 0.134713
v 0.941035 1.640612 -0.041008
v 0.936009 1.449231 0.254199
v 1.126547 1.594214 -0.015900
v -0.196109 2.429872 0.516765
v 0.013939 2.405302 0.493857
v -0.205225 2.532399 0.270990
v -0.002324 2.508543 0.251620
v -0.139417 2.744676 0.659649
v 0.065278 2.679854 0.617109
v -0.156624 2.857537 0.406249
v 0.047021 2.793219 0.363309
v -0.500846 1.127199 -0.003407
v -0.387096 1.174706 -0.213100
v -0.052879 1.277937 -0.333038
v -0.796811 1.766265 0.002675
v 0.550446 1.201289 -0.139990
v 0.332623 1.198045 -0.269044
v -0.021523 1.528656 -0.321435
v -0.013878 1.144391 0.190250
v 0.384305 2.112309 0.107652
v -0.357255 2.431322 0.378735
v -0.521065 2.581541 0.453108
v -1.023169 1.918070 0.015711
v 0.167458 2.418263 0.343785
v -0.868255 2.461744 0.604461
v -1.411857 2.036350 0.516351
v -0.673282 2.560747 0.453882
v -1.734195 0.612395 0.994551
v -1.680033 0.326068 0.660413
v 0.437691 2.325983 0.307425
v 0.313216 2.438175 0.340317
v 0.597387 1.945305 0.063391
v 0.692413 2.064929 0.189083
v 0.810194 1.717196 0.068261
v 0.899601 1.688803 0.115946
v 0.854597 1.593755 0.033178
v 0.993103 1.526713 0.094899
v -0.200598 2.480711 0.392766
v 0.004523 2.457785 0.372163
v -0.179174 2.802395 0.535728
v 0.087675 2.735403 0.487748
v -1.540771 0.930547 0.926460
v -1.602648 0.757559 0.859930
v -1.762047 0.936824 0.860619
v -1.723347 0.777160 0.823569
v -1.666463 0.602156 0.764199
v -1.670893 0.913273 0.946619
v -0.072826 1.754773 0.519556
v 0.028467 2.141573 -0.188532
v -0.011931 2.514779 0.071361
v -0.031009 2.264064 0.627095
v -0.105207 2.519630 0.259555
v -0.087524 2.417670 0.504677
v -0.057670 2.842067 0.346490
v -0.034545 2.695337 0.676323
v -0.041585 2.819380 0.534152
v 0.036339 2.659704 0.282942
v 0.054918 2.531902 0.572994
v -0.180661 2.580816 0.610736
v -0.201393 2.708117 0.319093
v -0.207018 2.645478 0.466550
v 0.061238 2.595590 0.426419
v -0.084363 2.692340 0.280626
v -0.060753 2.546828 0.611585
v 0.397203 1.715359 -0.020911
v -0.595887 1.441107 0.228368
v 0.500745 1.834298 -0.237433
v 0.172681 1.182403 0.196824
v -0.215488 0.001513 -0.165190
v -0.360127 0.009339 -0.043362
v -0.385112 0.012852 -0.292976
v -0.250069 0.004528 -0.307310
v 0.325666 0.018132 0.396951
v 0.246568 -0.012407 0.333815
v 0.332039 0.002761 0.360949
v 0.298565 -0.008324 0.339764
v 0.267619 0.022709 0.411184
v 0.089431 0.846326 -0.088424
v 0.128550 0.558831 0.101487
v 0.182208 0.292685 0.252552
v 0.234496 0.340481 0.420037
v 0.213475 0.596895 0.394119
v 0.211874 0.865738 0.320395
v 0.353411 0.331009 0.383788
v 0.413763 0.584520 0.330239
v 0.493820 0.918268 0.229401
v 0.346619 0.879510 -0.066512
v 0.310228 0.564532 0.115284
v 0.290557 0.295972 0.260693
v 0.362560 0.309874 0.304456
v 0.431139 0.587652 0.187274
v 0.515934 0.914051 0.039783
v -0.180095 0.813597 0.259246
v -0.156647 0.537522 0.163893
v -0.155069 0.302963 0.106100
v -0.440170 0.298504 0.092095
v -0.447277 0.571413 0.113968
v -0.466931 0.825073 0.132978
v -0.472166 0.369159 -0.166362
v -0.476540 0.645711 -0.146791
v -0.478816 0.879559 -0.140380
v -0.082897 0.837146 -0.170585
v -0.133365 0.626825 -0.191122
v -0.179770 0.413037 -0.190668
vn -0.1257 0.5615 -0.8179
vn -0.0872 0.1072 -0.9904
vn 0.5044 -0.1665 -0.8472
vn -0.2170 -0.3225 0.9214
vn 0.9451 0.0687 0.3194
vn 0.5815 0.7939 0.1777
vn 0.0203 0.9199 -0.3915
vn 0.6443 -0.2200 0.7324
vn -0.1050 0.9011 0.4208
vn -0.2148 0.5567 -0.8024
vn -0.0527 -0.5208 0.8520
vn -0.3834 -0.8703 -0.3092
vn -0.1633 -0.1430 0.9762
vn 0.3761 -0.8571 0.3520
vn 0.9578 -0.2568 0.1290
vn 0.0795 -0.7590 0.6462
vn 0.0837 0.9742 0.2094
vn 0.0606 -0.7579 0.6495
vn -0.6285 0.2501 0.7365
vn 0.9057 0.0330 -0.4226
vn -0.8993 0.0407 -0.4355
vn 0.5838 0.7598 0.2861
vn 0.6008 0.1648 0.7822
vn -0.1269 -0.5625 0.8170
vn -0.0808 0.5946 0.8000
vn -0.4019 -0.5362 0.7422
vn -0.4109 -0.5209 -0.7482
vn 0.7766 0.5822 -0.2407
vn -0.1090 -0.6439 0.7573
vn 0.3311 0.8099 -0.4841
vn 0.5537 0.1841 0.8121
vn 0.6621 0.3834 -0.6439
vn -0.4236 -0.3428 -0.8385
vn -0.1094 -0.7821 -0.6135
vn -0.6697 -0.0931 -0.7367
vn -0.5697 0.1104 0.8144
vn 0.7404 0.4168 0.5273
vn 0.9706 -0.0070 -0.2407
vn 0.4095 0.5537 0.7251
vn 0.0854 0.9963 -0.0053
vn -0.3277 0.8598 0.3916
vn 0.3596 0.9057 0.2246
vn 0.0558 0.9694 0.2390
vn -0.9541 0.1018 0.2817
vn 0.3428 -0.3608 0.8674
vn -0.3010 0.4903 -0.8179
vn -0.6697 -0.5583 -0.4898
vn -0.8670 -0.4588 0.1945
vn 0.0909 0.1281 -0.9876
vn -0.9730 0.2310 -0.0007
vn 0.0762 0.8295 0.5532
vn 0.4458 0.7293 0.5190
vn -0.2804 0.8651 0.4159
vn 0.9890 -0.1417 0.0417
vn 0.5668 0.2798 0.7749
vn -0.8237 -0.2041 -0.5291
vn -0.1841 -0.8523 -0.4895
vn -0.7316 -0.5949 -0.3330
vn 0.8280 0.4505 0.3339
vn -0.5123 -0.7292 -0.4536
vn -0.1756 0.9751 0.1356
vn 0.7616 0.5883 0.2718
vn 0.6553 0.3536 0.6675
vn -0.4783 0.2577 -0.8395
vn 0.1487 0.1197 0.9816
vn -0.6186 -0.6476 0.4449
vn -0.2054 0.4288 0.8797
vn -0.7066 0.6072 0.3633
vn -0.3867 -0.8335 -0.3946
vn 0.2650 0.3831 0.8849
vn 0.5789 0.5838 0.5693
vn 0.2903 0.3028 0.9078
vn -0.5008 0.5965 -0.6272
vn -0.8390 0.3870 0.3825
vn 0.9590 -0.2748 0.0689
vn 0.5272 0.6947 0.4893
vn 0.2274 0.4229 -0.8772
vn -0.1844 -0.3006 0.9357
vn 0.5019 0.8552 0.1293
vn 0.2884 0.9573 0.0177
vn -0.0889 0.4889 0.8678
vn -0.3995 -0.1616 0.9024
vn 0.0568 0.7718 -0.6333
vn -0.0758 -0.5735 0.8157
vn 0.0062 0.1586 -0.9873
vn 0.9496 -0.2834 -0.1337
vn -1.0000 -0.0054 -0.0060
vn -0.1938 0.2042 -0.9596
vn 0.1042 -0.6029 0.7909
vn -0.9943 -0.0263 0.1030
vn 0.9438 -0.2462 -0.2206
vn 0.1685 -0.9561 -0.2398
vn 0.1990 -0.5514 0.8102
vn -0.9412 -0.1102 0.3192
vn -0.9589 -0.2756 0.0673
vn 0.9830 -0.0951 -0.1573
vn -0.1106 0.2990 -0.9478
vn -0.0612 -0.9981 -0.0073
vn 0.0301 -0.9130 0.4068
vn 0.2750 0.0089 0.9614
vn 0.0960 -0.2426 -0.9654
vn 0.9849 -0.0750 0.1563
vn 0.5477 -0.2003 -0.8124
vn 0.4901 -0.4770 -0.7296
vn 0.5287 -0.4646 -0.7104
vn 0.5230 -0.4364 -0.7321
vn 0.9921 -0.0460 0.1169
vn 0.9730 -0.1993 0.1162
vn 0.9722 -0.1936 0.1317
vn 0.0792 -0.4982 -0.8634
vn 0.1150 -0.5212 -0.8456
vn 0.0810 -0.4794 -0.8739
vn 0.2264 0.3856 0.8945
vn 0.2797 0.2334 0.9313
vn 0.3047 0.1237 0.9444
vn -0.9376 -0.0587 0.3428
vn -0.9585 0.0617 0.2783
vn -0.9557 -0.0377 0.2920
vn -0.1718 -0.2740 -0.9463
vn -0.0943 0.0705 -0.9930
vn -0.1091 0.0481 -0.9929
vn 0.9087 0.2107 0.3604
vn 0.9864 -0.0879 0.1388
vn 0.9949 -0.0955 -0.0314
vn -0.9792 0.0243 -0.2014
vn -0.9967 -0.0482 0.0652
vn -0.9936 -0.0290 0.1091
vn -0.5537 0.1233 0.8235
vn -0.3005 -0.2246 0.9270
vn -0.1169 -0.1560 0.9808
vn 0.5843 -0.1299 0.8011
vn 0.3232 0.3966 -0.8592
vn -0.2350 -0.4316 -0.8709
vn -0.2353 -0.7999 -0.5521
vn -0.8606 -0.0924 -0.5008
vt 0.461701 0.809397
vt 0.301930 0.729761
vt 0.094158 0.499911
vt 0.498737 0.648456
vt 0.250869 0.553264
vt 0.714874 0.752530
vt 0.627854 0.740386
vt 0.227533 0.339544
vt 0.300362 0.438253
vt 0.625828 0.633709
vt 0.338991 0.679376
vt 0.653754 0.621457
vt 0.189641 0.785401
vt 0.531284 0.815038
vt 0.232114 0.729761
vt 0.806952 0.326283
vt 0.527824 0.712310
vt 0.703640 0.331352
vt 0.725736 0.123548
vt 0.557184 0.740386
vt 0.714874 0.681901
vt 0.693091 0.138725
vt 0.558638 0.706064
vt 0.944491 0.391302
vt 0.108931 0.369345
vt 0.090202 0.443431
vt 0.952837 0.467016
vt 0.108059 0.346292
vt 0.960024 0.371234
vt 0.653754 0.712739
vt 0.761990 0.055860
vt 0.265996 0.788213
vt 0.829683 0.188590
vt 0.886815 0.394232
vt 0.909606 0.471204
vt 0.826550 0.267021
vt 0.659457 0.749480
vt 0.206417 0.267620
vt 0.238389 0.812575
vt 0.882743 0.373659
vt 0.837846 0.166681
vt 0.102618 0.289588
vt 0.957957 0.321520
vt 0.918648 0.216117
vt 0.803322 0.012950
vt 0.106348 0.638847
vt 0.232551 0.755661
vt 0.798789 0.485160
vt 0.965752 0.239402
vt 0.153968 0.222285
vt 0.894228 0.312474
vt 0.856067 0.102710
vt 0.881967 0.351902
vt 0.842627 0.144082
vt 0.107159 0.331692
vt 0.958812 0.358201
vt 0.199778 0.246429
vt 0.138792 0.619338
vt 0.232114 0.797406
vt 0.967580 0.012950
vt 0.753483 0.682459
vt 0.843831 0.469074
vt 0.256421 0.022764
vt 0.824689 0.472884
vt 0.987050 0.016155
vt 0.832147 0.505580
vt 0.295109 0.018166
vt 0.782932 0.707368
vt 0.843831 0.503254
vt 0.076417 0.467161
vt 0.958695 0.494573
vt 0.833773 0.298242
vt 0.909847 0.503107
vt 0.076958 0.454690
vt 0.951531 0.482650
vt 0.837149 0.281767
vt 0.912926 0.487172
vt 0.064432 0.532285
vt 0.298790 0.687460
vt 0.825577 0.362572
vt 0.264894 0.686125
vt 0.056614 0.518895
vt 0.959622 0.549977
vt 0.837123 0.350740
vt 0.929664 0.555276
vt 0.051257 0.577890
vt 0.291936 0.641182
vt 0.824256 0.407314
vt 0.275162 0.640522
vt 0.035793 0.577862
vt 0.964581 0.612577
vt 0.838997 0.411720
vt 0.948088 0.615681
vt 0.039898 0.592711
vt 0.301778 0.620707
vt 0.403076 0.772170
vt 0.830596 0.428615
vt 0.403076 0.737417
vt 0.267017 0.619338
vt 0.012950 0.593438
vt 0.987050 0.637067
vt 0.428919 0.781443
vt 0.856067 0.440612
vt 0.428919 0.728949
vt 0.935424 0.646785
vt 0.945356 0.412724
vt 0.357115 0.854737
vt 0.331665 0.779032
vt 0.948027 0.441601
vt 0.799629 0.752473
vt 0.327972 0.853161
vt 0.906904 0.416128
vt 0.370069 0.779032
vt 0.684668 0.778429
vt 0.909575 0.445005
vt 0.655249 0.778999
vt 0.799629 0.791035
vt 0.330193 0.729131
vt 0.557184 0.775635
vt 0.363063 0.804932
vt 0.331684 0.807874
vt 0.754247 0.751428
vt 0.586563 0.768755
vt 0.566112 0.815056
vt 0.689281 0.828405
vt 0.370405 0.729131
vt 0.754247 0.791805
vt 0.657717 0.824383
vt 0.595492 0.808176
vt 0.327830 0.637821
vt 0.590400 0.642651
vt 0.164818 0.789976
vt 0.357235 0.619338
vt 0.642851 0.190721
vt 0.562581 0.649581
vt 0.406824 0.626953
vt 0.080449 0.619338
vt 0.646201 0.239681
vt 0.727583 0.656002
vt 0.597847 0.731399
vt 0.712829 0.722239
vt 0.658284 0.323708
vt 0.527919 0.666449
vt 0.661748 0.291537
vt 0.680225 0.245582
vt 0.377645 0.696957
vt 0.285191 0.477898
vt 0.483372 0.812325
vt 0.280072 0.728266
vt 0.924330 0.393087
vt 0.921760 0.373660
vt 0.678504 0.727397
vt 0.268491 0.812575
vt 0.930826 0.465310
vt 0.923786 0.327561
vt 0.941993 0.227167
vt 0.764056 0.466512
vt 0.919524 0.351927
vt 0.977463 0.013354
vt 0.833186 0.466512
vt 0.317617 0.012950
vt 0.798789 0.722800
vt 0.839639 0.522681
vt 0.934403 0.500152
vt 0.932138 0.484309
vt 0.281656 0.689101
vt 0.944784 0.554368
vt 0.283549 0.640852
vt 0.956335 0.614129
vt 0.284323 0.620942
vt 0.399765 0.754789
vt 0.961112 0.640376
vt 0.422297 0.755187
vt 0.926130 0.414426
vt 0.350867 0.779032
vt 0.928801 0.443303
vt 0.799629 0.771754
vt 0.350773 0.728949
vt 0.557184 0.796361
vt 0.753483 0.771844
vt 0.595492 0.787450
vt 0.985581 0.067358
vt 0.238180 0.070710
vt 0.259592 0.052321
vt 0.138792 0.821791
vt 0.953366 0.057503
vt 0.765454 0.639660
vt 0.120235 0.821584
vt 0.772730 0.660154
vt 0.283154 0.037949
vt 0.784440 0.682652
vt 0.128680 0.843910
vt 0.970110 0.058056
vt 0.758353 0.637393
vt 0.180368 0.432154
vt 0.759258 0.257498
vt 0.884976 0.446549
vt 0.828099 0.241547
vt 0.971226 0.428512
vt 0.101516 0.405509
vt 0.908240 0.430567
vt 0.669958 0.778714
vt 0.946692 0.427163
vt 0.342544 0.853949
vt 0.673120 0.826722
vt 0.582140 0.817526
vt 0.570535 0.766286
vt 0.348248 0.806122
vt 0.576699 0.792002
vt 0.653753 0.802281
vt 0.776512 0.794925
vt 0.776512 0.748700
vt 0.327830 0.829868
vt 0.363063 0.830170
vt 0.327830 0.753980
vt 0.373865 0.753980
vt 0.689281 0.803194
vt 0.351093 0.753886
vt 0.776117 0.771930
vt 0.671321 0.802907
vt 0.345899 0.829874
vt 0.457498 0.727404
vt 0.165986 0.548054
vt 0.260364 0.376248
vt 0.625887 0.695531
vt 0.520555 0.743605
vt 0.734596 0.339638
vt 0.406824 0.703049
vt 0.012950 0.651015
vt 0.277407 0.507014
vt 0.206214 0.619338
vt 0.706517 0.466512
vt 0.399765 0.822801
vt 0.181517 0.620770
vt 0.619265 0.470337
vt 0.422433 0.807343
vt 0.582936 0.466512
vt 0.458892 0.202188
vt 0.422433 0.843958
vt 0.727583 0.468029
vt 0.460639 0.221880
vt 0.402692 0.843997
vt 0.717439 0.778459
vt 0.429089 0.593438
vt 0.518160 0.466685
vt 0.070962 0.817001
vt 0.726094 0.791097
vt 0.457498 0.298878
vt 0.715181 0.783741
vt 0.523936 0.466512
vt 0.458951 0.311476
vt 0.719061 0.788282
vt 0.458165 0.306435
vt 0.058766 0.817583
vt 0.726094 0.778429
vt 0.431598 0.585369
vt 0.599953 0.261833
vt 0.080449 0.668491
vt 0.542336 0.274386
vt 0.076079 0.728305
vt 0.500395 0.287212
vt 0.064936 0.773359
vt 0.389801 0.564275
vt 0.039540 0.774208
vt 0.356388 0.547019
vt 0.031995 0.737396
vt 0.319737 0.531779
vt 0.030523 0.696843
vt 0.505723 0.512116
vt 0.384015 0.580847
vt 0.506522 0.550736
vt 0.346302 0.574833
vt 0.507607 0.604105
vt 0.294291 0.566034
vt 0.610540 0.298468
vt 0.545535 0.300686
vt 0.502363 0.302883
vt 0.504402 0.313331
vt 0.517745 0.511765
vt 0.548610 0.318269
vt 0.527842 0.556627
vt 0.609940 0.323717
vt 0.531284 0.618364
vt 0.660591 0.582499
vt 0.204501 0.743892
vt 0.668589 0.550878
vt 0.206214 0.710848
vt 0.668004 0.517120
vt 0.204545 0.678125
vt 0.623877 0.525891
vt 0.164692 0.675333
vt 0.610236 0.563455
vt 0.167167 0.712219
vt 0.605277 0.597358
vt 0.166352 0.745757
vt 0.511839 0.183186
vt 0.584607 0.521652
vt 0.552303 0.182624
vt 0.569857 0.561129
vt 0.598009 0.178631
vt 0.565182 0.606784
vt 0.592158 0.236754
vt 0.721184 0.600612
vt 0.550092 0.232946
vt 0.722606 0.558204
vt 0.518921 0.225772
vt 0.713819 0.525134
s 0
usemtl Material
f 89/196/1 7/19/1 13/33/1 90/198/1
f 8/22/2 7/19/2 89/196/2 58/145/2 54/138/2 53/134/2
f 6/18/3 56/142/3 57/144/3
f 3/8/4 106/224/4 4/9/4 59/147/4 88/195/4
f 6/17/5 107/226/5 5/14/5 60/148/5 1/1/5 105/222/5 2/4/5 56/143/5
f 61/150/6 13/34/6 16/40/6 62/151/6
f 5/16/7 14/36/7 31/76/7 29/72/7
f 88/195/8 1/3/8 10/26/8 91/200/8
f 67/158/9 21/53/9 20/51/9 65/155/9
f 13/33/10 7/19/10 12/31/10 16/41/10
f 3/8/11 9/25/11 11/28/11 15/38/11
f 55/141/12 3/6/12 15/37/12 63/152/12
f 66/156/13 19/49/13 17/43/13 65/155/13
f 23/57/14 22/55/14 17/42/14 19/50/14
f 83/184/15 82/183/15 25/63/15 26/67/15
f 15/38/16 11/28/16 22/55/16 23/57/16
f 62/151/17 16/40/17 21/53/17 67/158/17
f 69/163/18 26/66/18 25/64/18 68/160/18
f 87/193/19 84/186/19 24/60/19 68/159/19
f 86/190/20 83/184/20 26/67/20 69/161/20
f 84/187/21 85/189/21 27/68/21 24/61/21
f 70/164/22 29/73/22 31/77/22 71/165/22
f 70/164/23 28/71/23 34/83/23 73/167/23
f 10/26/24 1/3/24 28/70/24 30/74/24
f 64/154/25 10/27/25 30/75/25 71/165/25
f 34/82/26 32/78/26 36/86/26 38/90/26
f 60/149/27 5/15/27 33/81/27 72/166/27
f 5/16/28 29/72/28 35/84/28 33/80/28
f 28/70/29 1/3/29 32/78/29 34/82/29
f 37/88/30 39/92/30 43/103/30 41/97/30
f 73/167/31 34/83/31 38/91/31 75/169/31
f 33/80/32 35/84/32 39/92/32 37/88/32
f 72/166/33 33/81/33 37/89/33 74/168/33
f 76/171/34 41/98/34 43/104/34 77/173/34
f 74/168/35 37/89/35 41/99/35 76/170/35
f 38/90/36 36/86/36 40/94/36 42/100/36
f 75/169/37 38/91/37 42/101/37 77/172/37
f 102/219/38 97/211/38 51/127/38 81/180/38
f 91/199/39 10/27/39 45/109/39 93/203/39
f 90/197/40 13/34/40 46/112/40 92/201/40
f 61/150/41 9/24/41 44/106/41 78/174/41
f 64/154/42 14/35/42 47/115/42 79/176/42
f 96/209/43 94/206/43 50/124/43 80/179/43
f 101/218/44 99/215/44 48/118/44 80/178/44
f 104/221/45 98/213/45 49/121/45 95/208/45
f 103/220/46 100/217/46 50/125/46 94/205/46
f 8/23/47 53/135/47 52/131/47
f 8/23/48 52/131/48 4/10/48 106/225/48 3/7/48 55/140/48 7/20/48
f 54/138/49 58/145/49 89/196/49 5/16/49 107/227/49 6/18/49 57/144/49
f 100/216/50 101/218/50 80/178/50 50/126/50
f 95/207/51 96/209/51 80/179/51 48/119/51
f 10/27/52 64/154/52 79/176/52 45/109/52
f 13/34/53 61/150/53 78/174/53 46/112/53
f 98/212/54 102/219/54 81/180/54 49/122/54
f 39/93/55 75/169/55 77/172/55 43/105/55
f 36/87/56 74/168/56 76/170/56 40/95/56
f 40/96/57 76/171/57 77/173/57 42/102/57
f 32/79/58 72/166/58 74/168/58 36/87/58
f 35/85/59 73/167/59 75/169/59 39/93/59
f 1/2/60 60/149/60 72/166/60 32/79/60
f 14/35/61 64/154/61 71/165/61 31/77/61
f 29/73/62 70/164/62 73/167/62 35/85/62
f 28/71/63 70/164/63 71/165/63 30/75/63
f 85/189/64 86/191/64 69/162/64 27/68/64
f 82/182/65 87/193/65 68/159/65 25/65/65
f 27/69/66 69/163/66 68/160/66 24/62/66
f 11/29/67 62/151/67 67/158/67 22/56/67
f 18/44/68 66/156/68 65/155/68 20/51/68
f 7/21/69 55/141/69 63/152/69 12/30/69
f 22/56/70 67/158/70 65/155/70 17/43/70
f 9/24/71 61/150/71 62/151/71 11/29/71
f 19/49/72 66/156/72 87/193/72 82/182/72
f 12/31/73 18/45/73 20/52/73 21/54/73 16/41/73
f 66/157/74 18/48/74 84/187/74 87/194/74
f 23/57/75 19/50/75 82/183/75 83/184/75
f 49/123/76 81/181/76 96/209/76 95/207/76
f 97/210/77 103/220/77 94/205/77 51/128/77
f 99/214/78 104/221/78 95/208/78 48/120/78
f 81/181/79 51/129/79 94/206/79 96/209/79
f 14/35/80 90/197/80 92/201/80 47/115/80
f 9/24/81 91/199/81 93/203/81 44/106/81
f 3/8/82 88/195/82 91/200/82 9/25/82
f 5/16/83 89/196/83 90/198/83 14/36/83
f 44/107/84 93/204/84 104/221/84 99/214/84
f 47/116/85 92/202/85 103/220/85 97/210/85
f 45/110/86 79/177/86 102/219/86 98/212/86
f 46/113/87 78/175/87 101/218/87 100/216/87
f 92/202/88 46/114/88 100/217/88 103/220/88
f 93/204/89 45/111/89 98/213/89 104/221/89
f 78/175/90 44/108/90 99/215/90 101/218/90
f 79/177/91 47/117/91 97/211/91 102/219/91
f 59/146/92 4/11/92 52/130/92 53/133/92 54/136/92 108/228/92
f 136/291/93 110/234/93 109/231/93 135/289/93
f 121/264/94 120/262/94 114/246/94 117/254/94
f 139/297/95 111/237/95 110/235/95 136/290/95
f 135/288/96 109/232/96 112/240/96 144/307/96
f 144/306/97 112/241/97 111/238/97 139/296/97
f 111/239/98 112/242/98 109/233/98 110/236/98
f 117/255/99 114/247/99 116/252/99 115/249/99 113/243/99
f 124/270/100 121/263/100 117/256/100 113/244/100
f 120/261/101 129/277/101 116/253/101 114/248/101
f 130/279/102 124/269/102 113/245/102 115/250/102
f 129/277/103 130/278/103 115/251/103 116/253/103
f 57/144/104 56/142/104 132/282/104 127/275/104
f 127/275/105 132/282/105 131/280/105 128/276/105
f 128/276/106 131/280/106 130/278/106 129/277/106
f 56/143/107 2/4/107 126/273/107 132/283/107
f 132/283/108 126/273/108 125/271/108 131/281/108
f 131/281/109 125/271/109 124/269/109 130/279/109
f 54/138/110 57/144/110 127/275/110 118/257/110
f 118/257/111 127/275/111 128/276/111 119/259/111
f 119/259/112 128/276/112 129/277/112 120/261/112
f 2/5/113 108/230/113 123/267/113 126/274/113
f 126/274/114 123/267/114 122/265/114 125/272/114
f 125/272/115 122/265/115 121/263/115 124/270/115
f 108/229/116 54/137/116 118/258/116 123/268/116
f 123/268/117 118/258/117 119/260/117 122/266/117
f 122/266/118 119/260/118 120/262/118 121/264/118
f 54/138/119 142/302/119 141/300/119 53/134/119
f 142/302/120 143/304/120 140/298/120 141/300/120
f 143/304/121 144/306/121 139/296/121 140/298/121
f 4/12/122 133/284/122 142/303/122 54/139/122
f 133/284/123 134/286/123 143/305/123 142/303/123
f 134/286/124 135/288/124 144/307/124 143/305/124
f 53/135/125 141/301/125 138/294/125 52/131/125
f 141/301/126 140/299/126 137/292/126 138/294/126
f 140/299/127 139/297/127 136/290/127 137/292/127
f 52/132/128 138/295/128 133/285/128 4/13/128
f 138/295/129 137/293/129 134/287/129 133/285/129
f 137/293/130 136/291/130 135/289/130 134/287/130
f 105/223/131 1/3/131 88/195/131 59/147/131 108/230/131 2/5/131
f 86/192/132 85/188/132 83/185/132
f 83/185/133 85/188/133 18/46/133 23/58/133
f 63/153/134 15/39/134 23/59/134 18/47/134 12/32/134
f 84/187/135 18/48/135 85/189/135
l 52 106
