# Blender 3.3.1
# www.blender.org
mtllib monstruo_3_grande_caminar631.mtl
o monstruo_grande
v 0.372052 2.014716 0.245274
v 0.511220 1.187880 0.130027
v -0.723128 1.741769 0.199412
v -0.305148 1.090755 0.192295
v 0.515900 2.306510 -0.099962
v 0.542543 1.595820 -0.218894
v -0.858149 1.971363 -0.204242
v -0.748213 1.703048 -0.278154
v -0.335360 2.377303 0.496312
v 0.222930 2.286172 0.449544
v -0.464099 2.341456 0.596678
v -1.226663 2.005914 -0.028895
v -0.337486 2.551491 0.141255
v 0.211652 2.430832 0.191459
v -1.066136 1.870795 0.115924
v -0.501146 2.621068 0.170111
v -0.806103 2.248725 0.625258
v -1.501983 1.920146 0.257998
v -1.212881 1.957215 0.447040
v -1.006857 2.565969 0.376662
v -0.684672 2.655685 0.247217
v -0.535930 2.295640 0.572805
v -1.196738 1.886981 0.128731
v -1.771994 0.646809 0.921030
v -1.643516 0.624870 0.958211
v -1.639614 0.457246 0.749571
v -1.718033 0.470638 0.726877
v 0.381495 2.206207 0.428787
v 0.470769 2.406365 0.171396
v 0.336685 2.318138 0.443113
v 0.342755 2.455457 0.218185
v 0.626389 1.904409 0.229246
v 0.735680 2.001287 0.052008
v 0.646149 1.982809 0.277606
v 0.720092 2.102515 0.125828
v 0.813418 1.685708 0.176849
v 0.886356 1.720348 0.095100
v 0.898003 1.655894 0.232810
v 0.967421 1.699002 0.151064
v 0.837885 1.534439 0.207642
v 0.985553 1.622138 0.040446
v 0.950033 1.441149 0.340171
v 1.166582 1.571127 0.082313
v -0.172631 2.431959 0.514976
v 0.037387 2.406432 0.496344
v -0.174319 2.536048 0.268975
v 0.027962 2.509640 0.253977
v -0.116450 2.743511 0.663227
v 0.088660 2.678977 0.622276
v -0.130525 2.859609 0.411021
v 0.073623 2.795521 0.369554
v -0.504638 1.143177 -0.026582
v -0.383006 1.201060 -0.229410
v -0.042732 1.279947 -0.334295
v -0.782657 1.790843 -0.014944
v 0.556986 1.181801 -0.105929
v 0.348918 1.179505 -0.250624
v -0.002061 1.528375 -0.320915
v -0.028831 1.142152 0.182080
v 0.422393 2.101986 0.128596
v -0.329622 2.439076 0.371929
v -0.492129 2.592519 0.442222
v -1.004053 1.944187 -0.004740
v 0.195317 2.414739 0.351894
v -0.839457 2.476297 0.589452
v -1.386902 2.058077 0.499040
v -0.644226 2.574937 0.438557
v -1.717187 0.633405 0.970775
v -1.666762 0.352994 0.631081
v 0.462902 2.318335 0.329250
v 0.340959 2.431629 0.353848
v 0.638189 1.932547 0.102876
v 0.723753 2.054894 0.232319
v 0.848411 1.705822 0.135753
v 0.932594 1.676656 0.191622
v 0.891630 1.580071 0.108535
v 1.022433 1.511351 0.183743
v -0.174090 2.483422 0.390743
v 0.031139 2.459118 0.374636
v -0.154679 2.802853 0.539592
v 0.112642 2.736149 0.493862
v -1.523246 0.952103 0.906836
v -1.586260 0.780550 0.837710
v -1.745055 0.960462 0.843011
v -1.707188 0.801199 0.802713
v -1.651394 0.627113 0.739720
v -1.653256 0.934892 0.927761
v -0.069255 1.755294 0.518527
v 0.069488 2.139847 -0.186605
v 0.024859 2.515492 0.074101
v -0.015693 2.266031 0.629069
v -0.075338 2.521927 0.259916
v -0.063427 2.418692 0.504739
v -0.030810 2.844726 0.352082
v -0.011837 2.693830 0.680504
v -0.017062 2.819683 0.539852
v 0.064266 2.662575 0.287259
v 0.078476 2.531797 0.576186
v -0.157388 2.580474 0.611595
v -0.173637 2.711339 0.320718
v -0.181873 2.646938 0.467752
v 0.086813 2.597121 0.430439
v -0.056334 2.695584 0.283677
v -0.037491 2.546246 0.613545
v 0.423367 1.699963 -0.002483
v -0.597545 1.459996 0.213913
v 0.538447 1.813999 -0.216207
v 0.153902 1.179109 0.201606
v -0.236846 0.029946 -0.253953
v -0.385153 0.029245 -0.136314
v -0.402765 0.041590 -0.386113
v -0.267180 0.037504 -0.396676
v 0.301219 0.015043 0.311106
v 0.232801 -0.010032 0.234389
v 0.313060 0.007324 0.274032
v 0.283389 -0.002532 0.247253
v 0.241676 0.011735 0.318647
v 0.088371 0.847163 -0.078803
v 0.120893 0.581087 0.076442
v 0.156331 0.299423 0.194283
v 0.185626 0.326384 0.371695
v 0.167198 0.584293 0.373956
v 0.174356 0.859985 0.333252
v 0.308360 0.319871 0.350749
v 0.374371 0.578003 0.337552
v 0.465326 0.911960 0.272675
v 0.343723 0.871980 -0.034453
v 0.299358 0.583085 0.113413
v 0.262679 0.300438 0.217085
v 0.328124 0.308193 0.271396
v 0.409903 0.596861 0.202186
v 0.503795 0.904670 0.085439
v -0.199235 0.804165 0.222114
v -0.177580 0.535229 0.105304
v -0.180725 0.306230 0.030528
v -0.466071 0.308328 0.013867
v -0.466692 0.579014 0.055287
v -0.481787 0.831519 0.088930
v -0.493759 0.397304 -0.238833
v -0.491470 0.672135 -0.199858
v -0.484221 0.905145 -0.179898
v -0.089260 0.854338 -0.201499
v -0.148364 0.648727 -0.241939
v -0.200200 0.436785 -0.257844
vn -0.0895 0.5649 -0.8203
vn -0.0593 0.1148 -0.9916
vn 0.5609 -0.1996 -0.8034
vn -0.2472 -0.3201 0.9146
vn 0.9351 0.0279 0.3533
vn 0.5936 0.7798 0.1987
vn 0.0556 0.9155 -0.3984
vn 0.6036 -0.2331 0.7625
vn -0.0953 0.8987 0.4280
vn -0.1956 0.5681 -0.7994
vn -0.0741 -0.5283 0.8458
vn -0.3907 -0.8636 -0.3187
vn -0.1625 -0.1507 0.9751
vn 0.3693 -0.8650 0.3396
vn 0.9580 -0.2622 0.1164
vn 0.0790 -0.7741 0.6282
vn 0.0971 0.9710 0.2186
vn 0.0634 -0.7697 0.6352
vn -0.6213 0.2386 0.7464
vn 0.9023 0.0377 -0.4295
vn -0.9027 0.0515 -0.4272
vn 0.5786 0.7556 0.3070
vn 0.5466 0.1724 0.8194
vn -0.1716 -0.5520 0.8160
vn -0.0997 0.6021 0.7922
vn -0.4770 -0.5110 0.7151
vn -0.3587 -0.5330 -0.7664
vn 0.7931 0.5765 -0.1964
vn -0.1630 -0.6327 0.7570
vn 0.3953 0.7834 -0.4796
vn 0.4811 0.2111 0.8509
vn 0.7235 0.3620 -0.5878
vn -0.3487 -0.3763 -0.8584
vn -0.0828 -0.7986 -0.5961
vn -0.6077 -0.0983 -0.7881
vn -0.6312 0.1549 0.7600
vn 0.7070 0.4140 0.5733
vn 0.9740 -0.0047 -0.2264
vn 0.3955 0.5475 0.7374
vn 0.1091 0.9940 0.0066
vn -0.3151 0.8657 0.3889
vn 0.3745 0.8981 0.2304
vn 0.0543 0.9663 0.2516
vn -0.9574 0.0995 0.2713
vn 0.3322 -0.3727 0.8665
vn -0.2896 0.5018 -0.8151
vn -0.6534 -0.5280 -0.5425
vn -0.8848 -0.4351 0.1667
vn 0.1356 0.1221 -0.9832
vn -0.9727 0.2315 -0.0125
vn 0.0706 0.8223 0.5646
vn 0.4453 0.7228 0.5285
vn -0.2690 0.8699 0.4135
vn 0.9882 -0.1442 0.0520
vn 0.5094 0.2904 0.8101
vn -0.7832 -0.1990 -0.5890
vn -0.1695 -0.8634 -0.4751
vn -0.7010 -0.6089 -0.3713
vn 0.7995 0.4588 0.3877
vn -0.4811 -0.7379 -0.4734
vn -0.1596 0.9796 0.1223
vn 0.7437 0.5899 0.3145
vn 0.6285 0.3448 0.6972
vn -0.4843 0.2744 -0.8307
vn 0.1572 0.1014 0.9823
vn -0.6171 -0.6535 0.4383
vn -0.2270 0.4200 0.8787
vn -0.6989 0.6121 0.3699
vn -0.3897 -0.8304 -0.3981
vn 0.2709 0.3734 0.8872
vn 0.5747 0.5670 0.5901
vn 0.2993 0.2974 0.9066
vn -0.4931 0.6096 -0.6207
vn -0.8313 0.3941 0.3920
vn 0.9571 -0.2834 0.0611
vn 0.5222 0.6878 0.5042
vn 0.2399 0.4342 -0.8683
vn -0.1964 -0.3127 0.9293
vn 0.5013 0.8529 0.1459
vn 0.3080 0.9510 0.0256
vn -0.1022 0.4962 0.8622
vn -0.4286 -0.1516 0.8907
vn 0.1037 0.7690 -0.6308
vn -0.0923 -0.5855 0.8054
vn 0.0236 0.1681 -0.9855
vn 0.9503 -0.2876 -0.1195
vn -0.9994 -0.0083 -0.0334
vn -0.1746 0.2176 -0.9603
vn 0.0908 -0.6108 0.7866
vn -0.9960 -0.0240 0.0859
vn 0.9504 -0.2398 -0.1981
vn 0.1478 -0.9532 -0.2638
vn 0.1794 -0.6014 0.7786
vn -0.9616 -0.2079 0.1790
vn -0.9610 -0.2749 0.0312
vn 0.9856 -0.0901 -0.1428
vn -0.0931 0.3502 -0.9320
vn -0.0330 -0.9984 -0.0466
vn 0.0869 -0.9667 0.2409
vn 0.1507 -0.1346 0.9794
vn 0.2249 -0.0758 -0.9714
vn 0.9616 -0.0517 0.2696
vn 0.6521 -0.0350 -0.7573
vn 0.5306 -0.5197 -0.6696
vn 0.5951 -0.4370 -0.6745
vn 0.6176 -0.3423 -0.7081
vn 0.9788 -0.0566 0.1966
vn 0.9536 -0.2149 0.2110
vn 0.9464 -0.2202 0.2364
vn 0.1066 -0.5213 -0.8467
vn 0.1905 -0.4737 -0.8598
vn 0.1954 -0.3587 -0.9128
vn 0.1453 0.4091 0.9009
vn 0.1768 0.1403 0.9742
vn 0.1715 0.0051 0.9852
vn -0.9584 -0.0484 0.2812
vn -0.9829 0.0201 0.1828
vn -0.9849 -0.0639 0.1608
vn -0.1579 -0.2114 -0.9646
vn -0.0704 0.1465 -0.9867
vn -0.0979 0.1222 -0.9877
vn 0.9033 0.1657 0.3957
vn 0.9805 -0.1271 0.1501
vn 0.9926 -0.1176 -0.0299
vn -0.9716 0.0634 -0.2279
vn -0.9988 -0.0211 0.0451
vn -0.9951 -0.0115 0.0987
vn -0.5805 0.0721 0.8111
vn -0.3245 -0.2833 0.9025
vn -0.1300 -0.2239 0.9659
vn 0.5377 -0.1649 0.8268
vn 0.3175 0.4110 -0.8546
vn -0.2463 -0.4249 -0.8711
vn -0.2388 -0.7970 -0.5548
vn -0.8662 -0.0812 -0.4931
vt 0.882279 0.260085
vt 0.436089 0.649131
vt 0.117664 0.305524
vt 0.860974 0.338762
vt 0.079561 0.383885
vt 0.278417 0.728674
vt 0.111517 0.716819
vt 0.301243 0.337859
vt 0.232943 0.387386
vt 0.111517 0.662267
vt 0.671871 0.687525
vt 0.175114 0.511099
vt 0.930991 0.712692
vt 0.796001 0.259488
vt 0.522181 0.649131
vt 0.719621 0.316178
vt 0.801110 0.310020
vt 0.698705 0.366293
vt 0.510656 0.337024
vt 0.023033 0.717149
vt 0.367094 0.730187
vt 0.507246 0.358198
vt 0.018976 0.695717
vt 0.103380 0.570561
vt 0.268725 0.266033
vt 0.143950 0.273348
vt 0.098384 0.631539
vt 0.301351 0.259488
vt 0.128079 0.559933
vt 0.480438 0.333338
vt 0.348619 0.714075
vt 0.604958 0.268707
vt 0.031105 0.562973
vt 0.043818 0.625810
vt 0.721993 0.282954
vt 0.329365 0.336360
vt 0.302724 0.713315
vt 0.030374 0.549675
vt 0.582817 0.260846
vt 0.875347 0.642471
vt 0.380514 0.272320
vt 0.124895 0.517524
vt 0.813390 0.578569
vt 0.436089 0.332372
vt 0.956124 0.588845
vt 0.367094 0.692599
vt 0.367094 0.522797
vt 0.871643 0.594841
vt 0.398138 0.324445
vt 0.043891 0.509019
vt 0.796001 0.641153
vt 0.491075 0.268473
vt 0.032114 0.534706
vt 0.552485 0.259488
vt 0.331566 0.259909
vt 0.129819 0.544964
vt 0.339759 0.337186
vt 0.913298 0.588845
vt 0.317584 0.707220
vt 0.845734 0.463378
vt 0.311567 0.646434
vt 0.944558 0.353645
vt 0.398138 0.462439
vt 0.920230 0.354337
vt 0.870057 0.463781
vt 0.929709 0.374247
vt 0.357807 0.478584
vt 0.347994 0.663056
vt 0.944558 0.373825
vt 0.097076 0.285727
vt 0.229765 0.651022
vt 0.758050 0.297859
vt 0.168317 0.651042
vt 0.119329 0.272208
vt 0.094178 0.643292
vt 0.222768 0.636959
vt 0.746872 0.283208
vt 0.174541 0.636975
vt 0.045175 0.638147
vt 0.080672 0.327471
vt 0.442544 0.673801
vt 0.734592 0.339187
vt 0.484453 0.673801
vt 0.070725 0.319456
vt 0.218298 0.685110
vt 0.751374 0.331694
vt 0.180611 0.684911
vt 0.062412 0.356092
vt 0.455575 0.702696
vt 0.724658 0.367821
vt 0.476314 0.702696
vt 0.043357 0.357400
vt 0.210236 0.723455
vt 0.742364 0.370210
vt 0.189444 0.723462
vt 0.050281 0.367705
vt 0.444942 0.715336
vt 0.810526 0.722486
vt 0.728448 0.380153
vt 0.853695 0.722486
vt 0.487920 0.715336
vt 0.018975 0.371756
vt 0.232852 0.738567
vt 0.796001 0.739289
vt 0.758050 0.386241
vt 0.861207 0.739289
vt 0.167770 0.738589
vt 0.100634 0.583041
vt 0.712300 0.698974
vt 0.802197 0.701507
vt 0.098640 0.600731
vt 0.972705 0.287497
vt 0.747907 0.696578
vt 0.052045 0.577939
vt 0.849895 0.701507
vt 0.710445 0.675017
vt 0.050052 0.595630
vt 0.746553 0.677603
vt 0.924885 0.287497
vt 0.797725 0.671259
vt 0.981025 0.313792
vt 0.715147 0.730011
vt 0.752543 0.724602
vt 0.973919 0.259495
vt 0.967002 0.332143
vt 0.934252 0.306472
vt 0.715328 0.644023
vt 0.847669 0.671259
vt 0.923848 0.259495
vt 0.753088 0.649631
vt 0.920230 0.324823
vt 0.068284 0.665533
vt 0.630362 0.705721
vt 0.712055 0.621316
vt 0.966165 0.712391
vt 0.519769 0.388732
vt 0.031375 0.663704
vt 0.592215 0.695479
vt 0.581836 0.620019
vt 0.750017 0.621843
vt 0.569690 0.667298
vt 0.581066 0.387596
vt 0.531739 0.516092
vt 0.642835 0.625048
vt 0.273616 0.509019
vt 0.070982 0.710642
vt 0.316851 0.732164
vt 0.684917 0.393810
vt 0.816625 0.338063
vt 0.644803 0.392946
vt 0.602800 0.367236
vt 0.671871 0.661666
vt 0.181146 0.386242
vt 0.855113 0.259897
vt 0.463196 0.649131
vt 0.077903 0.567886
vt 0.078993 0.554271
vt 0.322237 0.720993
vt 0.070972 0.628379
vt 0.834014 0.651825
vt 0.084160 0.512738
vt 0.838315 0.596273
vt 0.320679 0.509019
vt 0.080733 0.539302
vt 0.857365 0.464048
vt 0.931678 0.351118
vt 0.335174 0.488977
vt 0.367094 0.673623
vt 0.939667 0.384854
vt 0.199177 0.651021
vt 0.069465 0.641494
vt 0.198664 0.632807
vt 0.464209 0.672968
vt 0.199604 0.684998
vt 0.465945 0.702696
vt 0.199840 0.723459
vt 0.466714 0.715004
vt 0.832520 0.720483
vt 0.200177 0.738589
vt 0.829423 0.735282
vt 0.076340 0.580490
vt 0.826046 0.701507
vt 0.074346 0.598181
vt 0.948795 0.287497
vt 0.823088 0.670800
vt 0.959731 0.307426
vt 0.948976 0.259488
vt 0.941524 0.331189
vt 0.875347 0.491894
vt 0.391834 0.432095
vt 0.377694 0.448634
vt 0.915590 0.478791
vt 0.834644 0.488373
vt 0.326937 0.619279
vt 0.938593 0.478810
vt 0.335216 0.632947
vt 0.358601 0.463790
vt 0.348787 0.648138
vt 0.927106 0.463378
vt 0.854274 0.489560
vt 0.315804 0.619182
vt 0.212520 0.321385
vt 0.644070 0.318501
vt 0.018976 0.592450
vt 0.663817 0.276029
vt 0.129819 0.597828
vt 0.224108 0.269832
vt 0.051049 0.586785
vt 0.728499 0.676310
vt 0.099637 0.591886
vt 0.730103 0.697776
vt 0.734390 0.646904
vt 0.920230 0.314550
vt 0.981025 0.324065
vt 0.732426 0.727384
vt 0.950683 0.319044
vt 0.753088 0.663662
vt 0.920230 0.273492
vt 0.977552 0.273492
vt 0.752543 0.710647
vt 0.709822 0.714522
vt 0.796001 0.686127
vt 0.853178 0.686127
vt 0.709822 0.659561
vt 0.824792 0.685890
vt 0.948939 0.273488
vt 0.731549 0.661651
vt 0.730449 0.712624
vt 0.878850 0.297575
vt 0.096711 0.342677
vt 0.285581 0.357771
vt 0.108549 0.696221
vt 0.804979 0.293594
vt 0.708839 0.350023
vt 0.668288 0.644023
vt 0.436089 0.526409
vt 0.145034 0.385321
vt 0.919159 0.607821
vt 0.247387 0.613831
vt 0.970304 0.416607
vt 0.947808 0.608020
vt 0.704660 0.516092
vt 0.970304 0.403829
vt 0.750017 0.516884
vt 0.618892 0.516092
vt 0.920230 0.404231
vt 0.273616 0.612878
vt 0.642836 0.516847
vt 0.938584 0.415207
vt 0.924281 0.443436
vt 0.075400 0.489812
vt 0.855524 0.444402
vt 0.531739 0.629156
vt 0.934913 0.435583
vt 0.576828 0.496673
vt 0.931440 0.443424
vt 0.848383 0.444289
vt 0.592622 0.497116
vt 0.934913 0.440184
vt 0.586164 0.496977
vt 0.517161 0.630156
vt 0.920230 0.438606
vt 0.085942 0.490043
vt 0.585376 0.420489
vt 0.510472 0.551446
vt 0.582586 0.444044
vt 0.504260 0.576063
vt 0.581388 0.469636
vt 0.508131 0.602400
vt 0.103684 0.463024
vt 0.477645 0.604263
vt 0.118194 0.440373
vt 0.454885 0.581958
vt 0.129418 0.415411
vt 0.438452 0.557360
vt 0.876897 0.417052
vt 0.081901 0.462161
vt 0.882279 0.393921
vt 0.081653 0.438865
vt 0.880271 0.363315
vt 0.079604 0.408162
vt 0.633117 0.418943
vt 0.615530 0.444447
vt 0.600997 0.469910
vt 0.614559 0.469949
vt 0.862035 0.416811
vt 0.638313 0.444473
vt 0.857648 0.390640
vt 0.666106 0.417503
vt 0.844696 0.362700
vt 0.167770 0.536691
vt 0.914144 0.688660
vt 0.182151 0.561697
vt 0.913298 0.663084
vt 0.189855 0.582503
vt 0.915415 0.641729
vt 0.680787 0.549268
vt 0.966165 0.641681
vt 0.684678 0.573659
vt 0.963812 0.665813
vt 0.684995 0.596421
vt 0.964308 0.688427
vt 0.584794 0.548886
vt 0.729850 0.550060
vt 0.578610 0.572959
vt 0.734888 0.574452
vt 0.569690 0.595426
vt 0.736445 0.597214
vt 0.642060 0.590920
vt 0.247172 0.543053
vt 0.641052 0.570535
vt 0.248998 0.562413
vt 0.635978 0.552556
vt 0.245738 0.579271
s 0
usemtl Material
f 89/203/1 7/19/1 13/32/1 90/205/1
f 8/22/2 7/19/2 89/203/2 58/151/2 54/142/2 53/136/2
f 6/18/3 56/148/3 57/150/3
f 3/8/4 106/231/4 4/9/4 59/153/4 88/202/4
f 6/17/5 107/233/5 5/14/5 60/154/5 1/1/5 105/229/5 2/4/5 56/149/5
f 61/156/6 13/33/6 16/38/6 62/157/6
f 5/16/7 14/35/7 31/77/7 29/72/7
f 88/202/8 1/3/8 10/26/8 91/207/8
f 67/164/9 21/53/9 20/50/9 65/161/9
f 13/32/10 7/19/10 12/30/10 16/39/10
f 3/8/11 9/25/11 11/28/11 15/36/11
f 55/147/12 3/6/12 15/37/12 63/158/12
f 66/162/13 19/48/13 17/40/13 65/160/13
f 23/57/14 22/55/14 17/41/14 19/49/14
f 83/191/15 82/190/15 25/63/15 26/67/15
f 15/36/16 11/28/16 22/55/16 23/57/16
f 62/157/17 16/38/17 21/53/17 67/164/17
f 69/169/18 26/66/18 25/64/18 68/166/18
f 87/200/19 84/193/19 24/60/19 68/165/19
f 86/197/20 83/191/20 26/67/20 69/167/20
f 84/194/21 85/196/21 27/68/21 24/61/21
f 70/170/22 29/73/22 31/78/22 71/172/22
f 70/170/23 28/71/23 34/85/23 73/174/23
f 10/26/24 1/3/24 28/70/24 30/74/24
f 64/159/25 10/27/25 30/75/25 71/171/25
f 34/84/26 32/80/26 36/88/26 38/92/26
f 60/155/27 5/15/27 33/83/27 72/173/27
f 5/16/28 29/72/28 35/86/28 33/82/28
f 28/70/29 1/3/29 32/80/29 34/84/29
f 37/90/30 39/94/30 43/105/30 41/99/30
f 73/174/31 34/85/31 38/93/31 75/176/31
f 33/82/32 35/86/32 39/94/32 37/90/32
f 72/173/33 33/83/33 37/91/33 74/175/33
f 76/178/34 41/100/34 43/106/34 77/180/34
f 74/175/35 37/91/35 41/101/35 76/177/35
f 38/92/36 36/88/36 40/96/36 42/102/36
f 75/176/37 38/93/37 42/103/37 77/179/37
f 102/226/38 97/218/38 51/129/38 81/187/38
f 91/206/39 10/27/39 45/111/39 93/210/39
f 90/204/40 13/33/40 46/114/40 92/208/40
f 61/156/41 9/24/41 44/108/41 78/181/41
f 64/159/42 14/34/42 47/117/42 79/183/42
f 96/216/43 94/213/43 50/126/43 80/186/43
f 101/225/44 99/222/44 48/120/44 80/185/44
f 104/228/45 98/220/45 49/123/45 95/215/45
f 103/227/46 100/224/46 50/127/46 94/212/46
f 8/23/47 53/137/47 52/132/47
f 8/23/48 52/132/48 4/10/48 106/232/48 3/7/48 55/146/48 7/20/48
f 54/142/49 58/151/49 89/203/49 5/16/49 107/234/49 6/18/49 57/150/49
f 100/223/50 101/225/50 80/185/50 50/128/50
f 95/214/51 96/216/51 80/186/51 48/121/51
f 10/27/52 64/159/52 79/183/52 45/111/52
f 13/33/53 61/156/53 78/181/53 46/114/53
f 98/219/54 102/226/54 81/187/54 49/124/54
f 39/95/55 75/176/55 77/179/55 43/107/55
f 36/89/56 74/175/56 76/177/56 40/97/56
f 40/98/57 76/178/57 77/180/57 42/104/57
f 32/81/58 72/173/58 74/175/58 36/89/58
f 35/87/59 73/174/59 75/176/59 39/95/59
f 1/2/60 60/155/60 72/173/60 32/81/60
f 14/34/61 64/159/61 71/171/61 31/79/61
f 29/73/62 70/170/62 73/174/62 35/87/62
f 28/71/63 70/170/63 71/172/63 30/76/63
f 85/196/64 86/198/64 69/168/64 27/68/64
f 82/189/65 87/200/65 68/165/65 25/65/65
f 27/69/66 69/169/66 68/166/66 24/62/66
f 11/29/67 62/157/67 67/164/67 22/56/67
f 18/43/68 66/162/68 65/160/68 20/51/68
f 7/21/69 55/147/69 63/158/69 12/31/69
f 22/56/70 67/164/70 65/161/70 17/42/70
f 9/24/71 61/156/71 62/157/71 11/29/71
f 19/48/72 66/162/72 87/200/72 82/189/72
f 12/30/73 18/44/73 20/52/73 21/54/73 16/39/73
f 66/163/74 18/47/74 84/194/74 87/201/74
f 23/57/75 19/49/75 82/190/75 83/191/75
f 49/125/76 81/188/76 96/216/76 95/214/76
f 97/217/77 103/227/77 94/212/77 51/130/77
f 99/221/78 104/228/78 95/215/78 48/122/78
f 81/188/79 51/131/79 94/213/79 96/216/79
f 14/34/80 90/204/80 92/208/80 47/117/80
f 9/24/81 91/206/81 93/210/81 44/108/81
f 3/8/82 88/202/82 91/207/82 9/25/82
f 5/16/83 89/203/83 90/205/83 14/35/83
f 44/109/84 93/211/84 104/228/84 99/221/84
f 47/118/85 92/209/85 103/227/85 97/217/85
f 45/112/86 79/184/86 102/226/86 98/219/86
f 46/115/87 78/182/87 101/225/87 100/223/87
f 92/209/88 46/116/88 100/224/88 103/227/88
f 93/211/89 45/113/89 98/220/89 104/228/89
f 78/182/90 44/110/90 99/222/90 101/225/90
f 79/184/91 47/119/91 97/218/91 102/226/91
f 59/152/92 4/11/92 52/133/92 53/138/92 54/141/92 108/235/92
f 136/298/93 110/241/93 109/238/93 135/296/93
f 121/271/94 120/269/94 114/253/94 117/261/94
f 139/304/95 111/244/95 110/242/95 136/297/95
f 135/295/96 109/239/96 112/247/96 144/314/96
f 144/313/97 112/248/97 111/245/97 139/303/97
f 111/246/98 112/249/98 109/240/98 110/243/98
f 117/262/99 114/254/99 116/259/99 115/256/99 113/250/99
f 124/277/100 121/270/100 117/263/100 113/251/100
f 120/268/101 129/284/101 116/260/101 114/255/101
f 130/286/102 124/276/102 113/252/102 115/257/102
f 129/284/103 130/285/103 115/258/103 116/260/103
f 57/150/104 56/148/104 132/289/104 127/282/104
f 127/282/105 132/289/105 131/287/105 128/283/105
f 128/283/106 131/287/106 130/285/106 129/284/106
f 56/149/107 2/4/107 126/280/107 132/290/107
f 132/290/108 126/280/108 125/278/108 131/288/108
f 131/288/109 125/278/109 124/276/109 130/286/109
f 54/142/110 57/150/110 127/282/110 118/264/110
f 118/264/111 127/282/111 128/283/111 119/266/111
f 119/266/112 128/283/112 129/284/112 120/268/112
f 2/5/113 108/237/113 123/274/113 126/281/113
f 126/281/114 123/274/114 122/272/114 125/279/114
f 125/279/115 122/272/115 121/270/115 124/277/115
f 108/236/116 54/143/116 118/265/116 123/275/116
f 123/275/117 118/265/117 119/267/117 122/273/117
f 122/273/118 119/267/118 120/269/118 121/271/118
f 54/144/119 142/309/119 141/307/119 53/139/119
f 142/309/120 143/311/120 140/305/120 141/307/120
f 143/311/121 144/313/121 139/303/121 140/305/121
f 4/12/122 133/291/122 142/310/122 54/145/122
f 133/291/123 134/293/123 143/312/123 142/310/123
f 134/293/124 135/295/124 144/314/124 143/312/124
f 53/140/125 141/308/125 138/301/125 52/134/125
f 141/308/126 140/306/126 137/299/126 138/301/126
f 140/306/127 139/304/127 136/297/127 137/299/127
f 52/135/128 138/302/128 133/292/128 4/13/128
f 138/302/129 137/300/129 134/294/129 133/292/129
f 137/300/130 136/298/130 135/296/130 134/294/130
f 105/230/131 1/3/131 88/202/131 59/153/131 108/237/131 2/5/131
f 86/199/132 85/195/132 83/192/132
f 83/192/133 85/195/133 18/45/133 23/58/133
f 63/158/134 15/37/134 23/59/134 18/46/134 12/31/134
f 84/194/135 18/47/135 85/196/135
l 52 106
