# Blender 3.3.1
# www.blender.org
mtllib monstruo_3_caminar591.mtl
o monstruo_grande
v 0.313736 2.049742 0.158596
v 0.523268 1.183962 0.076103
v -0.726333 1.757681 0.108168
v -0.297216 1.165974 0.219873
v 0.550488 2.320689 -0.148874
v 0.536295 1.645988 -0.254561
v -0.828007 1.940196 -0.342455
v -0.730850 1.641133 -0.373338
v -0.372326 2.423343 0.356077
v 0.188145 2.328416 0.364454
v -0.512545 2.398048 0.450126
v -1.198440 1.993258 -0.218433
v -0.342306 2.558827 -0.012538
v 0.198827 2.458325 0.099271
v -1.060492 1.875829 -0.033569
v -0.505400 2.629079 -0.008494
v -0.869989 2.314988 0.446543
v -1.510514 1.939513 0.024959
v -1.254856 2.006956 0.248886
v -1.029437 2.598538 0.134556
v -0.691802 2.670903 0.041343
v -0.589105 2.351703 0.426449
v -1.192323 1.895426 -0.048009
v -1.857172 0.743442 0.791035
v -1.735667 0.730626 0.849708
v -1.698282 0.536788 0.668953
v -1.772445 0.544612 0.633140
v 0.321404 2.236696 0.349691
v 0.471328 2.422335 0.114981
v 0.298043 2.357082 0.363109
v 0.329821 2.481332 0.137201
v 0.534357 1.913570 0.176943
v 0.705878 1.971107 0.039343
v 0.567023 1.979863 0.231748
v 0.685214 2.084950 0.102107
v 0.667508 1.659564 0.190710
v 0.769448 1.672329 0.143153
v 0.716999 1.612490 0.271230
v 0.819233 1.636910 0.222781
v 0.645117 1.507391 0.218446
v 0.858772 1.554966 0.121985
v 0.677561 1.393982 0.376338
v 0.996283 1.465451 0.222758
v -0.210645 2.478120 0.388940
v 0.000260 2.455128 0.386906
v -0.195751 2.561954 0.135494
v 0.005553 2.538980 0.138048
v -0.155864 2.792754 0.531479
v 0.050148 2.725494 0.500707
v -0.159659 2.899706 0.274601
v 0.044897 2.832993 0.242548
v -0.502502 1.142760 0.012260
v -0.389291 1.134307 -0.202039
v -0.040172 1.254746 -0.338143
v -0.769814 1.780091 -0.122208
v 0.545323 1.242457 -0.153021
v 0.327414 1.260048 -0.278885
v 0.007245 1.507697 -0.347447
v -0.020876 1.143244 0.196905
v 0.395957 2.129189 0.052343
v -0.355383 2.471416 0.227006
v -0.523284 2.630558 0.265518
v -0.984381 1.932564 -0.153888
v 0.168470 2.451404 0.257676
v -0.892600 2.535666 0.378298
v -1.433385 2.109958 0.262398
v -0.675195 2.612149 0.249231
v -1.810473 0.738503 0.849797
v -1.705979 0.416833 0.563136
v 0.429365 2.335016 0.268159
v 0.313959 2.465604 0.270548
v 0.586451 1.928148 0.059478
v 0.662781 2.037102 0.205345
v 0.718492 1.670093 0.166435
v 0.767911 1.623906 0.246698
v 0.740000 1.537366 0.148505
v 0.815680 1.442350 0.261345
v -0.205020 2.518653 0.260754
v 0.000930 2.498631 0.261533
v -0.188927 2.847852 0.404438
v 0.079119 2.778057 0.371041
v -1.612226 1.051572 0.772627
v -1.662234 0.870461 0.718983
v -1.821724 1.044352 0.675745
v -1.776599 0.882524 0.663759
v -1.710110 0.703367 0.634281
v -1.743729 1.033339 0.775980
v -0.100417 1.813567 0.458298
v 0.094037 2.144385 -0.266485
v 0.018420 2.528160 -0.040857
v -0.061988 2.320113 0.527927
v -0.098334 2.548694 0.134766
v -0.099799 2.463092 0.387274
v -0.058295 2.881907 0.219328
v -0.052365 2.743067 0.554494
v -0.051293 2.863810 0.409342
v 0.037834 2.696596 0.164508
v 0.039555 2.578393 0.459178
v -0.196617 2.628509 0.483550
v -0.200472 2.746883 0.185363
v -0.215278 2.689308 0.335892
v 0.053981 2.637686 0.311192
v -0.082292 2.729231 0.154030
v -0.076834 2.593586 0.491747
v 0.389908 1.737846 -0.008171
v -0.605828 1.487384 0.158140
v 0.535274 1.872238 -0.256725
v 0.172639 1.126409 0.189669
v -0.193859 0.024265 0.043846
v -0.337764 0.031675 0.166790
v -0.364630 0.028510 -0.083268
v -0.229529 0.023199 -0.098469
v 0.393655 0.215515 -0.447169
v 0.324189 0.247227 -0.520528
v 0.404928 0.233347 -0.480720
v 0.374823 0.243598 -0.506863
v 0.334271 0.209071 -0.442310
v 0.100906 0.905660 -0.155524
v 0.178444 0.762046 -0.184567
v 0.241995 0.504949 -0.332282
v 0.276135 0.392403 -0.193496
v 0.237978 0.559165 0.000402
v 0.222214 0.771851 0.179930
v 0.398065 0.413734 -0.208419
v 0.443513 0.599183 -0.016489
v 0.504062 0.869906 0.144067
v 0.353843 0.933769 -0.137695
v 0.357834 0.752405 -0.155810
v 0.348689 0.497176 -0.312966
v 0.415469 0.466983 -0.269128
v 0.470972 0.707614 -0.083686
v 0.523516 0.932965 -0.030962
v -0.174065 0.917321 0.351944
v -0.145273 0.614745 0.311455
v -0.138837 0.369068 0.289017
v -0.423866 0.356062 0.279334
v -0.436890 0.633087 0.259818
v -0.461854 0.889649 0.231233
v -0.459119 0.388445 0.012358
v -0.469532 0.662380 -0.006284
v -0.476519 0.868981 -0.044124
v -0.079888 0.830498 -0.067921
v -0.126346 0.643580 -0.049404
v -0.167926 0.434314 -0.021427
vn -0.0348 0.4953 -0.8680
vn 0.0006 -0.0177 -0.9998
vn 0.4772 -0.2044 -0.8547
vn -0.3051 -0.2129 0.9282
vn 0.9001 0.0236 0.4349
vn 0.5760 0.7999 0.1686
vn 0.1426 0.9059 -0.3987
vn 0.6090 -0.2015 0.7671
vn -0.1333 0.9447 0.2997
vn -0.1011 0.4719 -0.8758
vn -0.1716 -0.4189 0.8917
vn -0.3684 -0.8989 -0.2371
vn -0.3019 -0.0264 0.9530
vn 0.2875 -0.8146 0.5037
vn 0.9315 -0.2148 0.2935
vn -0.0500 -0.6681 0.7424
vn 0.0802 0.9898 0.1179
vn -0.0267 -0.6755 0.7369
vn -0.7305 0.3173 0.6047
vn 0.9569 0.0075 -0.2904
vn -0.8273 -0.0338 -0.5607
vn 0.5730 0.7275 0.3773
vn 0.4237 0.0717 0.9030
vn -0.2848 -0.5411 0.7913
vn -0.1421 0.6445 0.7512
vn -0.7907 -0.3153 0.5248
vn -0.2751 -0.4703 -0.8386
vn 0.8841 0.4658 -0.0371
vn -0.3707 -0.6159 0.6951
vn 0.6989 0.6641 -0.2657
vn 0.2468 0.1793 0.9523
vn 0.9446 0.1646 -0.2838
vn -0.1288 -0.3903 -0.9116
vn -0.0329 -0.7724 -0.6343
vn -0.2841 0.0240 -0.9585
vn -0.8146 0.3113 0.4895
vn 0.5208 0.2547 0.8148
vn 0.9819 -0.0205 -0.1882
vn 0.3383 0.6006 0.7244
vn 0.0900 0.9926 -0.0809
vn -0.3515 0.8942 0.2772
vn 0.3481 0.9165 0.1969
vn 0.0532 0.9747 0.2169
vn -0.9658 0.1173 0.2313
vn 0.2986 -0.3478 0.8888
vn -0.2541 0.4790 -0.8403
vn -0.7156 -0.6020 -0.3543
vn -0.8961 -0.3899 0.2121
vn 0.1443 0.0756 -0.9866
vn -0.9692 0.2390 -0.0591
vn 0.0555 0.8416 0.5372
vn 0.4083 0.7573 0.5097
vn -0.3349 0.8933 0.2996
vn 0.9837 -0.1545 0.0915
vn 0.2287 0.1853 0.9557
vn -0.5370 -0.0274 -0.8431
vn -0.1695 -0.8125 -0.5578
vn -0.6670 -0.4798 -0.5700
vn 0.7465 0.3173 0.5849
vn -0.4984 -0.6509 -0.5727
vn -0.1429 0.9883 0.0541
vn 0.7570 0.4802 0.4432
vn 0.5929 0.2803 0.7549
vn -0.3545 0.1458 -0.9236
vn 0.0043 0.2367 0.9716
vn -0.6703 -0.6076 0.4261
vn -0.2894 0.5288 0.7979
vn -0.7344 0.6543 0.1803
vn -0.3589 -0.8720 -0.3329
vn 0.1512 0.4761 0.8663
vn 0.5213 0.6309 0.5746
vn 0.1601 0.4066 0.8995
vn -0.3943 0.5234 -0.7554
vn -0.8876 0.4071 0.2155
vn 0.9419 -0.2406 0.2345
vn 0.5085 0.7022 0.4984
vn 0.2786 0.4025 -0.8720
vn -0.2359 -0.2793 0.9308
vn 0.5015 0.8552 0.1312
vn 0.2867 0.9573 -0.0373
vn -0.1739 0.5531 0.8148
vn -0.4885 -0.0720 0.8696
vn 0.1486 0.7289 -0.6682
vn -0.1443 -0.5595 0.8162
vn 0.0838 0.1218 -0.9890
vn 0.9502 -0.3055 -0.0624
vn -0.9958 -0.0101 -0.0906
vn -0.1180 0.1881 -0.9750
vn 0.0614 -0.5806 0.8119
vn -0.9990 -0.0111 0.0431
vn 0.9612 -0.2430 -0.1303
vn 0.0700 -0.9927 -0.0980
vn 0.2335 -0.4499 0.8620
vn -0.9556 -0.2944 -0.0097
vn -0.9544 -0.2819 0.0987
vn 0.9844 -0.0866 -0.1531
vn -0.1314 0.2113 -0.9686
vn -0.0373 -0.9992 0.0167
vn 0.0621 -0.8945 -0.4427
vn 0.1845 -0.7640 0.6182
vn 0.2044 0.6134 -0.7628
vn 0.9699 -0.1910 0.1510
vn 0.6337 0.5067 -0.5845
vn 0.4733 -0.3341 -0.8151
vn 0.5420 0.0810 -0.8364
vn 0.6084 0.3959 -0.6879
vn 0.9951 -0.0378 0.0908
vn 0.9724 -0.2320 0.0241
vn 0.9679 -0.2501 0.0234
vn 0.1342 -0.4012 -0.9061
vn 0.0986 0.1671 -0.9810
vn 0.1724 0.5172 -0.8383
vn 0.2069 0.0942 0.9738
vn 0.2469 -0.5728 0.7817
vn 0.1999 -0.7255 0.6585
vn -0.9347 -0.1776 0.3078
vn -0.9405 -0.3174 0.1215
vn -0.9662 -0.2561 0.0301
vn -0.1273 -0.5062 -0.8530
vn -0.0994 -0.1313 -0.9863
vn -0.1162 -0.0880 -0.9893
vn 0.8964 0.3040 0.3226
vn 0.9883 -0.0422 0.1463
vn 0.9967 -0.0773 -0.0259
vn -0.9796 -0.0530 -0.1940
vn -0.9947 -0.0563 0.0860
vn -0.9919 -0.0337 0.1224
vn -0.5433 0.3550 0.7608
vn -0.2841 -0.0477 0.9576
vn -0.1058 -0.0095 0.9943
vn 0.5256 -0.0598 0.8486
vn 0.4402 0.3025 -0.8454
vn -0.1035 -0.5312 -0.8409
vn -0.1616 -0.8608 -0.4827
vn -0.7760 -0.1714 -0.6069
vt 0.461701 0.809397
vt 0.301930 0.729761
vt 0.094158 0.499911
vt 0.498737 0.648456
vt 0.250869 0.553264
vt 0.714874 0.752530
vt 0.627854 0.740386
vt 0.227533 0.339544
vt 0.300362 0.438253
vt 0.625828 0.633709
vt 0.338991 0.679376
vt 0.653754 0.621457
vt 0.189641 0.785401
vt 0.531284 0.815038
vt 0.232114 0.729761
vt 0.806952 0.326283
vt 0.527824 0.712310
vt 0.703640 0.331352
vt 0.725736 0.123548
vt 0.557184 0.740386
vt 0.714874 0.681901
vt 0.693091 0.138725
vt 0.558638 0.706064
vt 0.944491 0.391302
vt 0.108931 0.369345
vt 0.090202 0.443431
vt 0.952837 0.467016
vt 0.108059 0.346292
vt 0.960024 0.371234
vt 0.653754 0.712739
vt 0.761990 0.055860
vt 0.265996 0.788213
vt 0.829683 0.188590
vt 0.886815 0.394232
vt 0.909606 0.471204
vt 0.826550 0.267021
vt 0.659457 0.749480
vt 0.206417 0.267620
vt 0.238389 0.812575
vt 0.882743 0.373659
vt 0.837846 0.166681
vt 0.102618 0.289588
vt 0.957957 0.321520
vt 0.918648 0.216117
vt 0.803322 0.012950
vt 0.106348 0.638847
vt 0.232551 0.755661
vt 0.798789 0.485160
vt 0.965752 0.239402
vt 0.153968 0.222285
vt 0.894228 0.312474
vt 0.856067 0.102710
vt 0.881967 0.351902
vt 0.842627 0.144082
vt 0.107159 0.331692
vt 0.958812 0.358201
vt 0.199778 0.246429
vt 0.138792 0.619338
vt 0.232114 0.797406
vt 0.967580 0.012950
vt 0.753483 0.682459
vt 0.843831 0.469074
vt 0.256421 0.022764
vt 0.824689 0.472884
vt 0.987050 0.016155
vt 0.832147 0.505580
vt 0.295109 0.018166
vt 0.782932 0.707368
vt 0.843831 0.503254
vt 0.076417 0.467161
vt 0.958695 0.494573
vt 0.833773 0.298242
vt 0.909847 0.503107
vt 0.076958 0.454690
vt 0.951531 0.482650
vt 0.837149 0.281767
vt 0.912926 0.487172
vt 0.064432 0.532285
vt 0.298790 0.687460
vt 0.825577 0.362572
vt 0.264894 0.686125
vt 0.056614 0.518895
vt 0.959622 0.549977
vt 0.837123 0.350740
vt 0.929664 0.555276
vt 0.051257 0.577890
vt 0.291936 0.641182
vt 0.824256 0.407314
vt 0.275162 0.640522
vt 0.035793 0.577862
vt 0.964581 0.612577
vt 0.838997 0.411720
vt 0.948088 0.615681
vt 0.039898 0.592711
vt 0.301778 0.620707
vt 0.403076 0.772170
vt 0.830596 0.428615
vt 0.403076 0.737417
vt 0.267017 0.619338
vt 0.012950 0.593438
vt 0.987050 0.637067
vt 0.428919 0.781443
vt 0.856067 0.440612
vt 0.428919 0.728949
vt 0.935424 0.646785
vt 0.945356 0.412724
vt 0.357115 0.854737
vt 0.331665 0.779032
vt 0.948027 0.441601
vt 0.799629 0.752473
vt 0.327972 0.853161
vt 0.906904 0.416128
vt 0.370069 0.779032
vt 0.684668 0.778429
vt 0.909575 0.445005
vt 0.655249 0.778999
vt 0.799629 0.791035
vt 0.330193 0.729131
vt 0.557184 0.775635
vt 0.363063 0.804932
vt 0.331684 0.807874
vt 0.754247 0.751428
vt 0.586563 0.768755
vt 0.566112 0.815056
vt 0.689281 0.828405
vt 0.370405 0.729131
vt 0.754247 0.791805
vt 0.657717 0.824383
vt 0.595492 0.808176
vt 0.327830 0.637821
vt 0.590400 0.642651
vt 0.164818 0.789976
vt 0.357235 0.619338
vt 0.642851 0.190721
vt 0.562581 0.649581
vt 0.406824 0.626953
vt 0.080449 0.619338
vt 0.646201 0.239681
vt 0.727583 0.656002
vt 0.597847 0.731399
vt 0.712829 0.722239
vt 0.658284 0.323708
vt 0.527919 0.666449
vt 0.661748 0.291537
vt 0.680225 0.245582
vt 0.377645 0.696957
vt 0.285191 0.477898
vt 0.483372 0.812325
vt 0.280072 0.728266
vt 0.924330 0.393087
vt 0.921760 0.373660
vt 0.678504 0.727397
vt 0.268491 0.812575
vt 0.930826 0.465310
vt 0.923786 0.327561
vt 0.941993 0.227167
vt 0.764056 0.466512
vt 0.919524 0.351927
vt 0.977463 0.013354
vt 0.833186 0.466512
vt 0.317617 0.012950
vt 0.798789 0.722800
vt 0.839639 0.522681
vt 0.934403 0.500152
vt 0.932138 0.484309
vt 0.281656 0.689101
vt 0.944784 0.554368
vt 0.283549 0.640852
vt 0.956335 0.614129
vt 0.284323 0.620942
vt 0.399765 0.754789
vt 0.961112 0.640376
vt 0.422297 0.755187
vt 0.926130 0.414426
vt 0.350867 0.779032
vt 0.928801 0.443303
vt 0.799629 0.771754
vt 0.350773 0.728949
vt 0.557184 0.796361
vt 0.753483 0.771844
vt 0.595492 0.787450
vt 0.985581 0.067358
vt 0.238180 0.070710
vt 0.259592 0.052321
vt 0.138792 0.821791
vt 0.953366 0.057503
vt 0.765454 0.639660
vt 0.120235 0.821584
vt 0.772730 0.660154
vt 0.283154 0.037949
vt 0.784440 0.682652
vt 0.128680 0.843910
vt 0.970110 0.058056
vt 0.758353 0.637393
vt 0.180368 0.432154
vt 0.759258 0.257498
vt 0.884976 0.446549
vt 0.828099 0.241547
vt 0.971226 0.428512
vt 0.101516 0.405509
vt 0.908240 0.430567
vt 0.669958 0.778714
vt 0.946692 0.427163
vt 0.342544 0.853949
vt 0.673120 0.826722
vt 0.582140 0.817526
vt 0.570535 0.766286
vt 0.348248 0.806122
vt 0.576699 0.792002
vt 0.653753 0.802281
vt 0.776512 0.794925
vt 0.776512 0.748700
vt 0.327830 0.829868
vt 0.363063 0.830170
vt 0.327830 0.753980
vt 0.373865 0.753980
vt 0.689281 0.803194
vt 0.351093 0.753886
vt 0.776117 0.771930
vt 0.671321 0.802907
vt 0.345899 0.829874
vt 0.457498 0.727404
vt 0.165986 0.548054
vt 0.260364 0.376248
vt 0.625887 0.695531
vt 0.520555 0.743605
vt 0.734596 0.339638
vt 0.406824 0.703049
vt 0.012950 0.651015
vt 0.277407 0.507014
vt 0.206214 0.619338
vt 0.706517 0.466512
vt 0.399765 0.822801
vt 0.181517 0.620770
vt 0.619265 0.470337
vt 0.422433 0.807343
vt 0.582936 0.466512
vt 0.458892 0.202188
vt 0.422433 0.843958
vt 0.727583 0.468029
vt 0.460639 0.221880
vt 0.402692 0.843997
vt 0.717439 0.778459
vt 0.429089 0.593438
vt 0.518160 0.466685
vt 0.070962 0.817001
vt 0.726094 0.791097
vt 0.457498 0.298878
vt 0.715181 0.783741
vt 0.523936 0.466512
vt 0.458951 0.311476
vt 0.719061 0.788282
vt 0.458165 0.306435
vt 0.058766 0.817583
vt 0.726094 0.778429
vt 0.431598 0.585369
vt 0.599953 0.261833
vt 0.080449 0.668491
vt 0.542336 0.274386
vt 0.076079 0.728305
vt 0.500395 0.287212
vt 0.064936 0.773359
vt 0.389801 0.564275
vt 0.039540 0.774208
vt 0.356388 0.547019
vt 0.031995 0.737396
vt 0.319737 0.531779
vt 0.030523 0.696843
vt 0.505723 0.512116
vt 0.384015 0.580847
vt 0.506522 0.550736
vt 0.346302 0.574833
vt 0.507607 0.604105
vt 0.294291 0.566034
vt 0.610540 0.298468
vt 0.545535 0.300686
vt 0.502363 0.302883
vt 0.504402 0.313331
vt 0.517745 0.511765
vt 0.548610 0.318269
vt 0.527842 0.556627
vt 0.609940 0.323717
vt 0.531284 0.618364
vt 0.660591 0.582499
vt 0.204501 0.743892
vt 0.668589 0.550878
vt 0.206214 0.710848
vt 0.668004 0.517120
vt 0.204545 0.678125
vt 0.623877 0.525891
vt 0.164692 0.675333
vt 0.610236 0.563455
vt 0.167167 0.712219
vt 0.605277 0.597358
vt 0.166352 0.745757
vt 0.511839 0.183186
vt 0.584607 0.521652
vt 0.552303 0.182624
vt 0.569857 0.561129
vt 0.598009 0.178631
vt 0.565182 0.606784
vt 0.592158 0.236754
vt 0.721184 0.600612
vt 0.550092 0.232946
vt 0.722606 0.558204
vt 0.518921 0.225772
vt 0.713819 0.525134
s 0
usemtl Material
f 89/196/1 7/19/1 13/33/1 90/198/1
f 8/22/2 7/19/2 89/196/2 58/145/2 54/138/2 53/134/2
f 6/18/3 56/142/3 57/144/3
f 3/8/4 106/224/4 4/9/4 59/147/4 88/195/4
f 6/17/5 107/226/5 5/14/5 60/148/5 1/1/5 105/222/5 2/4/5 56/143/5
f 61/150/6 13/34/6 16/40/6 62/151/6
f 5/16/7 14/36/7 31/76/7 29/72/7
f 88/195/8 1/3/8 10/26/8 91/200/8
f 67/158/9 21/53/9 20/51/9 65/155/9
f 13/33/10 7/19/10 12/31/10 16/41/10
f 3/8/11 9/25/11 11/28/11 15/38/11
f 55/141/12 3/6/12 15/37/12 63/152/12
f 66/156/13 19/49/13 17/43/13 65/155/13
f 23/57/14 22/55/14 17/42/14 19/50/14
f 83/184/15 82/183/15 25/63/15 26/67/15
f 15/38/16 11/28/16 22/55/16 23/57/16
f 62/151/17 16/40/17 21/53/17 67/158/17
f 69/163/18 26/66/18 25/64/18 68/160/18
f 87/193/19 84/186/19 24/60/19 68/159/19
f 86/190/20 83/184/20 26/67/20 69/161/20
f 84/187/21 85/189/21 27/68/21 24/61/21
f 70/164/22 29/73/22 31/77/22 71/165/22
f 70/164/23 28/71/23 34/83/23 73/167/23
f 10/26/24 1/3/24 28/70/24 30/74/24
f 64/154/25 10/27/25 30/75/25 71/165/25
f 34/82/26 32/78/26 36/86/26 38/90/26
f 60/149/27 5/15/27 33/81/27 72/166/27
f 5/16/28 29/72/28 35/84/28 33/80/28
f 28/70/29 1/3/29 32/78/29 34/82/29
f 37/88/30 39/92/30 43/103/30 41/97/30
f 73/167/31 34/83/31 38/91/31 75/169/31
f 33/80/32 35/84/32 39/92/32 37/88/32
f 72/166/33 33/81/33 37/89/33 74/168/33
f 76/171/34 41/98/34 43/104/34 77/173/34
f 74/168/35 37/89/35 41/99/35 76/170/35
f 38/90/36 36/86/36 40/94/36 42/100/36
f 75/169/37 38/91/37 42/101/37 77/172/37
f 102/219/38 97/211/38 51/127/38 81/180/38
f 91/199/39 10/27/39 45/109/39 93/203/39
f 90/197/40 13/34/40 46/112/40 92/201/40
f 61/150/41 9/24/41 44/106/41 78/174/41
f 64/154/42 14/35/42 47/115/42 79/176/42
f 96/209/43 94/206/43 50/124/43 80/179/43
f 101/218/44 99/215/44 48/118/44 80/178/44
f 104/221/45 98/213/45 49/121/45 95/208/45
f 103/220/46 100/217/46 50/125/46 94/205/46
f 8/23/47 53/135/47 52/131/47
f 8/23/48 52/131/48 4/10/48 106/225/48 3/7/48 55/140/48 7/20/48
f 54/138/49 58/145/49 89/196/49 5/16/49 107/227/49 6/18/49 57/144/49
f 100/216/50 101/218/50 80/178/50 50/126/50
f 95/207/51 96/209/51 80/179/51 48/119/51
f 10/27/52 64/154/52 79/176/52 45/109/52
f 13/34/53 61/150/53 78/174/53 46/112/53
f 98/212/54 102/219/54 81/180/54 49/122/54
f 39/93/55 75/169/55 77/172/55 43/105/55
f 36/87/56 74/168/56 76/170/56 40/95/56
f 40/96/57 76/171/57 77/173/57 42/102/57
f 32/79/58 72/166/58 74/168/58 36/87/58
f 35/85/59 73/167/59 75/169/59 39/93/59
f 1/2/60 60/149/60 72/166/60 32/79/60
f 14/35/61 64/154/61 71/165/61 31/77/61
f 29/73/62 70/164/62 73/167/62 35/85/62
f 28/71/63 70/164/63 71/165/63 30/75/63
f 85/189/64 86/191/64 69/162/64 27/68/64
f 82/182/65 87/193/65 68/159/65 25/65/65
f 27/69/66 69/163/66 68/160/66 24/62/66
f 11/29/67 62/151/67 67/158/67 22/56/67
f 18/44/68 66/156/68 65/155/68 20/51/68
f 7/21/69 55/141/69 63/152/69 12/30/69
f 22/56/70 67/158/70 65/155/70 17/43/70
f 9/24/71 61/150/71 62/151/71 11/29/71
f 19/49/72 66/156/72 87/193/72 82/182/72
f 12/31/73 18/45/73 20/52/73 21/54/73 16/41/73
f 66/157/74 18/48/74 84/187/74 87/194/74
f 23/57/75 19/50/75 82/183/75 83/184/75
f 49/123/76 81/181/76 96/209/76 95/207/76
f 97/210/77 103/220/77 94/205/77 51/128/77
f 99/214/78 104/221/78 95/208/78 48/120/78
f 81/181/79 51/129/79 94/206/79 96/209/79
f 14/35/80 90/197/80 92/201/80 47/115/80
f 9/24/81 91/199/81 93/203/81 44/106/81
f 3/8/82 88/195/82 91/200/82 9/25/82
f 5/16/83 89/196/83 90/198/83 14/36/83
f 44/107/84 93/204/84 104/221/84 99/214/84
f 47/116/85 92/202/85 103/220/85 97/210/85
f 45/110/86 79/177/86 102/219/86 98/212/86
f 46/113/87 78/175/87 101/218/87 100/216/87
f 92/202/88 46/114/88 100/217/88 103/220/88
f 93/204/89 45/111/89 98/213/89 104/221/89
f 78/175/90 44/108/90 99/215/90 101/218/90
f 79/177/91 47/117/91 97/211/91 102/219/91
f 59/146/92 4/11/92 52/130/92 53/133/92 54/136/92 108/228/92
f 136/291/93 110/234/93 109/231/93 135/289/93
f 121/264/94 120/262/94 114/246/94 117/254/94
f 139/297/95 111/237/95 110/235/95 136/290/95
f 135/288/96 109/232/96 112/240/96 144/307/96
f 144/306/97 112/241/97 111/238/97 139/296/97
f 111/239/98 112/242/98 109/233/98 110/236/98
f 117/255/99 114/247/99 116/252/99 115/249/99 113/243/99
f 124/270/100 121/263/100 117/256/100 113/244/100
f 120/261/101 129/277/101 116/253/101 114/248/101
f 130/279/102 124/269/102 113/245/102 115/250/102
f 129/277/103 130/278/103 115/251/103 116/253/103
f 57/144/104 56/142/104 132/282/104 127/275/104
f 127/275/105 132/282/105 131/280/105 128/276/105
f 128/276/106 131/280/106 130/278/106 129/277/106
f 56/143/107 2/4/107 126/273/107 132/283/107
f 132/283/108 126/273/108 125/271/108 131/281/108
f 131/281/109 125/271/109 124/269/109 130/279/109
f 54/138/110 57/144/110 127/275/110 118/257/110
f 118/257/111 127/275/111 128/276/111 119/259/111
f 119/259/112 128/276/112 129/277/112 120/261/112
f 2/5/113 108/230/113 123/267/113 126/274/113
f 126/274/114 123/267/114 122/265/114 125/272/114
f 125/272/115 122/265/115 121/263/115 124/270/115
f 108/229/116 54/137/116 118/258/116 123/268/116
f 123/268/117 118/258/117 119/260/117 122/266/117
f 122/266/118 119/260/118 120/262/118 121/264/118
f 54/138/119 142/302/119 141/300/119 53/134/119
f 142/302/120 143/304/120 140/298/120 141/300/120
f 143/304/121 144/306/121 139/296/121 140/298/121
f 4/12/122 133/284/122 142/303/122 54/139/122
f 133/284/123 134/286/123 143/305/123 142/303/123
f 134/286/124 135/288/124 144/307/124 143/305/124
f 53/135/125 141/301/125 138/294/125 52/131/125
f 141/301/126 140/299/126 137/292/126 138/294/126
f 140/299/127 139/297/127 136/290/127 137/292/127
f 52/132/128 138/295/128 133/285/128 4/13/128
f 138/295/129 137/293/129 134/287/129 133/285/129
f 137/293/130 136/291/130 135/289/130 134/287/130
f 105/223/131 1/3/131 88/195/131 59/147/131 108/230/131 2/5/131
f 86/192/132 85/188/132 83/185/132
f 83/185/133 85/188/133 18/46/133 23/58/133
f 63/153/134 15/39/134 23/59/134 18/47/134 12/32/134
f 84/187/135 18/48/135 85/189/135
l 52 106
