# Blender 3.3.1
# www.blender.org
mtllib monstruo_3_caminar529.mtl
o monstruo_grande
v 0.544353 1.930445 0.335410
v 0.526525 1.128917 0.095123
v -0.601768 1.859410 0.161634
v -0.304096 1.183115 0.219855
v 0.815086 2.183959 0.034318
v 0.610197 1.534561 -0.254476
v -0.676015 2.095345 -0.269089
v -0.637985 1.781615 -0.328425
v -0.158823 2.414007 0.470519
v 0.374454 2.237662 0.485961
v -0.302269 2.398481 0.561302
v -1.009031 2.187557 -0.174085
v -0.106463 2.585770 0.121316
v 0.424320 2.368937 0.220051
v -0.889506 2.033206 -0.006608
v -0.257428 2.680403 0.137752
v -0.673744 2.354469 0.532043
v -1.328458 2.117666 0.039196
v -1.079703 2.133500 0.272793
v -0.788612 2.699762 0.267504
v -0.437919 2.743010 0.195759
v -0.386009 2.362128 0.527784
v -1.015844 2.065236 -0.030083
v -1.747731 0.835285 0.602059
v -1.628852 0.807951 0.661145
v -1.592075 0.645657 0.451499
v -1.664635 0.662341 0.415435
v 0.499243 2.138955 0.492726
v 0.683229 2.311681 0.271153
v 0.483611 2.252527 0.494854
v 0.552711 2.374224 0.274177
v 0.776805 1.814538 0.430146
v 0.957876 1.890641 0.309783
v 0.781404 1.899400 0.474229
v 0.915411 2.001138 0.354358
v 0.976376 1.595934 0.524168
v 1.072346 1.631343 0.473452
v 1.023660 1.609844 0.618036
v 1.117764 1.650228 0.564920
v 1.005129 1.473261 0.617223
v 1.200887 1.556296 0.509487
v 1.045826 1.457424 0.809414
v 1.340796 1.581779 0.642658
v 0.010944 2.440467 0.504737
v 0.216498 2.391163 0.497332
v 0.036253 2.543268 0.259556
v 0.235248 2.487850 0.253845
v 0.069464 2.749462 0.645237
v 0.274267 2.677593 0.616914
v 0.072010 2.856928 0.388986
v 0.277592 2.784491 0.360461
v -0.504276 1.203350 0.007370
v -0.387156 1.204107 -0.205193
v -0.042365 1.275715 -0.332629
v -0.645302 1.910487 -0.064825
v 0.540644 1.130725 -0.144326
v 0.320770 1.136621 -0.262488
v 0.047640 1.518871 -0.323699
v -0.026791 1.147950 0.203967
v 0.641095 2.003095 0.240284
v -0.133706 2.473720 0.347776
v -0.275882 2.650837 0.406561
v -0.815409 2.096566 -0.101327
v 0.385022 2.364134 0.380574
v -0.666107 2.583223 0.501590
v -1.247371 2.247368 0.299923
v -0.429592 2.656711 0.389450
v -1.703294 0.818721 0.660447
v -1.600318 0.545460 0.326846
v 0.614040 2.240244 0.422551
v 0.525189 2.358727 0.407455
v 0.847722 1.824120 0.324034
v 0.875358 1.964785 0.458003
v 1.023640 1.615467 0.497787
v 1.070777 1.629708 0.591399
v 1.094355 1.507575 0.542027
v 1.176479 1.505901 0.686045
v 0.022517 2.492028 0.381059
v 0.223602 2.440410 0.374359
v 0.039228 2.805437 0.517875
v 0.307021 2.728952 0.488147
v -1.491619 1.132003 0.642633
v -1.546076 0.964561 0.557914
v -1.697752 1.149760 0.540327
v -1.657969 0.990288 0.502302
v -1.596836 0.816026 0.445008
v -1.623718 1.118799 0.639164
v 0.015803 1.760026 0.508036
v 0.261892 2.105519 -0.195413
v 0.244865 2.492425 0.075497
v 0.115547 2.265016 0.626863
v 0.130773 2.515673 0.254894
v 0.119375 2.417136 0.500344
v 0.175476 2.836818 0.336076
v 0.171521 2.697421 0.669456
v 0.177116 2.818272 0.524500
v 0.270957 2.646771 0.283095
v 0.263250 2.527000 0.575616
v 0.027093 2.586210 0.597497
v 0.033852 2.709049 0.303490
v 0.012853 2.648843 0.450764
v 0.281790 2.586461 0.428574
v 0.151870 2.686355 0.272686
v 0.145028 2.548167 0.606453
v 0.583063 1.612209 -0.013970
v -0.545699 1.562420 0.195968
v 0.680812 1.732322 -0.225627
v 0.172072 1.134722 0.213984
v -0.280217 0.245041 -0.402634
v -0.419254 0.176468 -0.293506
v -0.455901 0.316876 -0.499026
v -0.321538 0.325451 -0.518640
v 0.301424 -0.009174 0.090033
v 0.227795 -0.023489 0.015162
v 0.310731 -0.014770 0.051939
v 0.279145 -0.020566 0.026179
v 0.242352 -0.009248 0.100416
v 0.073176 0.829393 -0.058524
v 0.141047 0.609886 0.007706
v 0.172135 0.308375 0.024551
v 0.198451 0.281051 0.202486
v 0.183662 0.526973 0.281009
v 0.195528 0.802131 0.324153
v 0.321457 0.278682 0.182273
v 0.392029 0.529095 0.249554
v 0.483379 0.853325 0.251348
v 0.328118 0.835152 -0.040512
v 0.319174 0.597975 0.042669
v 0.278066 0.300683 0.048244
v 0.342565 0.290704 0.103318
v 0.429138 0.584369 0.130968
v 0.501054 0.854684 0.061128
v -0.210941 0.901088 0.322298
v -0.215247 0.598597 0.157032
v -0.232227 0.390390 0.001110
v -0.515807 0.416127 -0.016436
v -0.499670 0.670683 0.117268
v -0.496009 0.921727 0.198074
v -0.529282 0.586486 -0.228643
v -0.511130 0.820486 -0.091154
v -0.503851 0.941036 -0.066586
v -0.113313 0.869988 -0.085536
v -0.169324 0.782998 -0.130069
v -0.233109 0.608591 -0.230894
vn 0.0549 0.5787 -0.8137
vn -0.0020 0.0659 -0.9978
vn 0.4443 -0.3062 -0.8420
vn -0.3359 -0.2182 0.9163
vn 0.9235 -0.2947 0.2456
vn 0.6917 0.6750 0.2568
vn 0.2722 0.8763 -0.3974
vn 0.3975 -0.2578 0.8807
vn -0.0412 0.8979 0.4383
vn 0.0248 0.5587 -0.8290
vn -0.3144 -0.4465 0.8378
vn -0.4856 -0.8078 -0.3340
vn -0.3461 -0.1527 0.9257
vn 0.1654 -0.9143 0.3698
vn 0.9127 -0.2983 0.2793
vn -0.1517 -0.7715 0.6178
vn 0.2231 0.9444 0.2415
vn -0.0759 -0.7874 0.6118
vn -0.7388 0.2408 0.6295
vn 0.9660 0.0172 -0.2579
vn -0.8083 0.0940 -0.5812
vn 0.5668 0.7142 0.4107
vn 0.1997 0.2420 0.9495
vn -0.4107 -0.4655 0.7839
vn -0.1321 0.6498 0.7485
vn -0.7394 -0.3840 0.5530
vn -0.0532 -0.6292 -0.7755
vn 0.8342 0.5490 0.0521
vn -0.4766 -0.5413 0.6927
vn 0.4617 0.7169 -0.5225
vn 0.0227 0.4188 0.9078
vn 0.9098 0.2907 -0.2962
vn 0.0825 -0.5487 -0.8320
vn 0.3595 -0.9093 -0.2098
vn -0.1089 -0.4965 -0.8612
vn -0.9479 0.1269 0.2924
vn 0.2343 0.7495 0.6191
vn 0.9866 -0.0341 -0.1599
vn 0.3888 0.4900 0.7802
vn 0.2653 0.9636 0.0345
vn -0.2023 0.9035 0.3779
vn 0.4864 0.8389 0.2441
vn 0.0718 0.9725 0.2217
vn -0.9680 0.1313 0.2139
vn 0.2743 -0.3464 0.8971
vn -0.2303 0.4723 -0.8508
vn -0.7879 -0.4352 -0.4357
vn -0.9549 -0.2233 0.1958
vn 0.1685 0.1621 -0.9723
vn -0.9647 0.2483 -0.0874
vn 0.0679 0.8396 0.5390
vn 0.4919 0.6712 0.5546
vn -0.1589 0.9008 0.4040
vn 0.9799 -0.1616 0.1173
vn -0.0340 0.6343 0.7723
vn -0.3241 -0.5833 -0.7448
vn 0.2382 -0.9615 -0.1371
vn -0.4318 -0.7200 -0.5433
vn 0.5151 0.6037 0.6084
vn -0.2926 -0.7748 -0.5604
vn -0.0190 0.9977 0.0646
vn 0.6011 0.6106 0.5155
vn 0.4864 0.2655 0.8324
vn -0.3170 0.3122 -0.8956
vn -0.0210 0.0709 0.9973
vn -0.7055 -0.6426 0.2988
vn -0.2411 0.4525 0.8586
vn -0.6693 0.6972 0.2569
vn -0.4797 -0.7846 -0.3928
vn 0.1594 0.3129 0.9363
vn 0.6035 0.4719 0.6427
vn 0.1616 0.2573 0.9527
vn -0.3027 0.6771 -0.6707
vn -0.8713 0.4149 0.2620
vn 0.9240 -0.3163 0.2148
vn 0.5172 0.6899 0.5065
vn 0.3000 0.3930 -0.8692
vn -0.2520 -0.2734 0.9283
vn 0.5210 0.8410 0.1459
vn 0.4511 0.8912 0.0472
vn -0.0963 0.5293 0.8429
vn -0.5073 -0.0863 0.8574
vn 0.3486 0.7239 -0.5953
vn -0.1678 -0.5584 0.8124
vn 0.0798 0.1274 -0.9886
vn 0.9428 -0.3305 -0.0435
vn -0.9921 0.0070 -0.1253
vn -0.1189 0.1856 -0.9754
vn 0.0046 -0.5693 0.8221
vn -0.9998 0.0132 0.0154
vn 0.9582 -0.2663 -0.1049
vn -0.0064 -0.9878 -0.1559
vn 0.1929 -0.8481 0.4934
vn -0.9731 -0.1812 0.1421
vn -0.9662 -0.2484 -0.0689
vn 0.9853 -0.0507 -0.1630
vn -0.0861 0.7090 -0.6999
vn -0.0306 -0.8274 -0.5608
vn 0.0298 -0.9863 0.1624
vn 0.1538 -0.3091 0.9385
vn 0.2169 0.0658 -0.9740
vn 0.9599 -0.1424 0.2416
vn 0.6442 0.0578 -0.7627
vn 0.4209 -0.5547 -0.7177
vn 0.5325 -0.3210 -0.7832
vn 0.6228 -0.1056 -0.7752
vn 0.9922 -0.1012 0.0727
vn 0.9603 -0.2495 0.1246
vn 0.9376 -0.3011 0.1737
vn -0.0004 -0.5529 -0.8333
vn 0.1118 -0.2959 -0.9486
vn 0.1994 -0.0400 -0.9791
vn 0.2392 0.3831 0.8922
vn 0.2157 -0.1099 0.9703
vn 0.1470 -0.2940 0.9444
vn -0.9401 0.0004 0.3408
vn -0.9688 -0.0991 0.2270
vn -0.9871 -0.0970 0.1271
vn -0.1735 -0.4550 -0.8734
vn -0.0269 0.3232 -0.9460
vn -0.0431 0.5100 -0.8591
vn 0.9113 0.2096 0.3544
vn 0.9621 -0.2289 0.1483
vn 0.9835 -0.1742 -0.0498
vn -0.9735 0.0606 -0.2204
vn -0.9988 0.0162 0.0465
vn -0.9965 0.0261 0.0790
vn -0.5224 0.3176 0.7914
vn -0.3126 -0.3821 0.8696
vn -0.1732 -0.5136 0.8404
vn 0.4634 -0.3031 0.8327
vn 0.4795 0.4213 -0.7698
vn -0.1016 -0.3921 -0.9143
vn -0.1885 -0.7498 -0.6343
vn -0.7672 -0.0387 -0.6402
vt 0.461701 0.809397
vt 0.301930 0.729761
vt 0.094158 0.499911
vt 0.498737 0.648456
vt 0.250869 0.553264
vt 0.714874 0.752530
vt 0.627854 0.740386
vt 0.227533 0.339544
vt 0.300362 0.438253
vt 0.625828 0.633709
vt 0.338991 0.679376
vt 0.653754 0.621457
vt 0.189641 0.785401
vt 0.531284 0.815038
vt 0.232114 0.729761
vt 0.806952 0.326283
vt 0.527824 0.712310
vt 0.703640 0.331352
vt 0.725736 0.123548
vt 0.557184 0.740386
vt 0.714874 0.681901
vt 0.693091 0.138725
vt 0.558638 0.706064
vt 0.944491 0.391302
vt 0.108931 0.369345
vt 0.090202 0.443431
vt 0.952837 0.467016
vt 0.108059 0.346292
vt 0.960024 0.371234
vt 0.653754 0.712739
vt 0.761990 0.055860
vt 0.265996 0.788213
vt 0.829683 0.188590
vt 0.886815 0.394232
vt 0.909606 0.471204
vt 0.826550 0.267021
vt 0.659457 0.749480
vt 0.206417 0.267620
vt 0.238389 0.812575
vt 0.882743 0.373659
vt 0.837846 0.166681
vt 0.102618 0.289588
vt 0.957957 0.321520
vt 0.918648 0.216117
vt 0.803322 0.012950
vt 0.106348 0.638847
vt 0.232551 0.755661
vt 0.798789 0.485160
vt 0.965752 0.239402
vt 0.153968 0.222285
vt 0.894228 0.312474
vt 0.856067 0.102710
vt 0.881967 0.351902
vt 0.842627 0.144082
vt 0.107159 0.331692
vt 0.958812 0.358201
vt 0.199778 0.246429
vt 0.138792 0.619338
vt 0.232114 0.797406
vt 0.967580 0.012950
vt 0.753483 0.682459
vt 0.843831 0.469074
vt 0.256421 0.022764
vt 0.824689 0.472884
vt 0.987050 0.016155
vt 0.832147 0.505580
vt 0.295109 0.018166
vt 0.782932 0.707368
vt 0.843831 0.503254
vt 0.076417 0.467161
vt 0.958695 0.494573
vt 0.833773 0.298242
vt 0.909847 0.503107
vt 0.076958 0.454690
vt 0.951531 0.482650
vt 0.837149 0.281767
vt 0.912926 0.487172
vt 0.064432 0.532285
vt 0.298790 0.687460
vt 0.825577 0.362572
vt 0.264894 0.686125
vt 0.056614 0.518895
vt 0.959622 0.549977
vt 0.837123 0.350740
vt 0.929664 0.555276
vt 0.051257 0.577890
vt 0.291936 0.641182
vt 0.824256 0.407314
vt 0.275162 0.640522
vt 0.035793 0.577862
vt 0.964581 0.612577
vt 0.838997 0.411720
vt 0.948088 0.615681
vt 0.039898 0.592711
vt 0.301778 0.620707
vt 0.403076 0.772170
vt 0.830596 0.428615
vt 0.403076 0.737417
vt 0.267017 0.619338
vt 0.012950 0.593438
vt 0.987050 0.637067
vt 0.428919 0.781443
vt 0.856067 0.440612
vt 0.428919 0.728949
vt 0.935424 0.646785
vt 0.945356 0.412724
vt 0.357115 0.854737
vt 0.331665 0.779032
vt 0.948027 0.441601
vt 0.799629 0.752473
vt 0.327972 0.853161
vt 0.906904 0.416128
vt 0.370069 0.779032
vt 0.684668 0.778429
vt 0.909575 0.445005
vt 0.655249 0.778999
vt 0.799629 0.791035
vt 0.330193 0.729131
vt 0.557184 0.775635
vt 0.363063 0.804932
vt 0.331684 0.807874
vt 0.754247 0.751428
vt 0.586563 0.768755
vt 0.566112 0.815056
vt 0.689281 0.828405
vt 0.370405 0.729131
vt 0.754247 0.791805
vt 0.657717 0.824383
vt 0.595492 0.808176
vt 0.327830 0.637821
vt 0.590400 0.642651
vt 0.164818 0.789976
vt 0.357235 0.619338
vt 0.642851 0.190721
vt 0.562581 0.649581
vt 0.406824 0.626953
vt 0.080449 0.619338
vt 0.646201 0.239681
vt 0.727583 0.656002
vt 0.597847 0.731399
vt 0.712829 0.722239
vt 0.658284 0.323708
vt 0.527919 0.666449
vt 0.661748 0.291537
vt 0.680225 0.245582
vt 0.377645 0.696957
vt 0.285191 0.477898
vt 0.483372 0.812325
vt 0.280072 0.728266
vt 0.924330 0.393087
vt 0.921760 0.373660
vt 0.678504 0.727397
vt 0.268491 0.812575
vt 0.930826 0.465310
vt 0.923786 0.327561
vt 0.941993 0.227167
vt 0.764056 0.466512
vt 0.919524 0.351927
vt 0.977463 0.013354
vt 0.833186 0.466512
vt 0.317617 0.012950
vt 0.798789 0.722800
vt 0.839639 0.522681
vt 0.934403 0.500152
vt 0.932138 0.484309
vt 0.281656 0.689101
vt 0.944784 0.554368
vt 0.283549 0.640852
vt 0.956335 0.614129
vt 0.284323 0.620942
vt 0.399765 0.754789
vt 0.961112 0.640376
vt 0.422297 0.755187
vt 0.926130 0.414426
vt 0.350867 0.779032
vt 0.928801 0.443303
vt 0.799629 0.771754
vt 0.350773 0.728949
vt 0.557184 0.796361
vt 0.753483 0.771844
vt 0.595492 0.787450
vt 0.985581 0.067358
vt 0.238180 0.070710
vt 0.259592 0.052321
vt 0.138792 0.821791
vt 0.953366 0.057503
vt 0.765454 0.639660
vt 0.120235 0.821584
vt 0.772730 0.660154
vt 0.283154 0.037949
vt 0.784440 0.682652
vt 0.128680 0.843910
vt 0.970110 0.058056
vt 0.758353 0.637393
vt 0.180368 0.432154
vt 0.759258 0.257498
vt 0.884976 0.446549
vt 0.828099 0.241547
vt 0.971226 0.428512
vt 0.101516 0.405509
vt 0.908240 0.430567
vt 0.669958 0.778714
vt 0.946692 0.427163
vt 0.342544 0.853949
vt 0.673120 0.826722
vt 0.582140 0.817526
vt 0.570535 0.766286
vt 0.348248 0.806122
vt 0.576699 0.792002
vt 0.653753 0.802281
vt 0.776512 0.794925
vt 0.776512 0.748700
vt 0.327830 0.829868
vt 0.363063 0.830170
vt 0.327830 0.753980
vt 0.373865 0.753980
vt 0.689281 0.803194
vt 0.351093 0.753886
vt 0.776117 0.771930
vt 0.671321 0.802907
vt 0.345899 0.829874
vt 0.457498 0.727404
vt 0.165986 0.548054
vt 0.260364 0.376248
vt 0.625887 0.695531
vt 0.520555 0.743605
vt 0.734596 0.339638
vt 0.406824 0.703049
vt 0.012950 0.651015
vt 0.277407 0.507014
vt 0.206214 0.619338
vt 0.706517 0.466512
vt 0.399765 0.822801
vt 0.181517 0.620770
vt 0.619265 0.470337
vt 0.422433 0.807343
vt 0.582936 0.466512
vt 0.458892 0.202188
vt 0.422433 0.843958
vt 0.727583 0.468029
vt 0.460639 0.221880
vt 0.402692 0.843997
vt 0.717439 0.778459
vt 0.429089 0.593438
vt 0.518160 0.466685
vt 0.070962 0.817001
vt 0.726094 0.791097
vt 0.457498 0.298878
vt 0.715181 0.783741
vt 0.523936 0.466512
vt 0.458951 0.311476
vt 0.719061 0.788282
vt 0.458165 0.306435
vt 0.058766 0.817583
vt 0.726094 0.778429
vt 0.431598 0.585369
vt 0.599953 0.261833
vt 0.080449 0.668491
vt 0.542336 0.274386
vt 0.076079 0.728305
vt 0.500395 0.287212
vt 0.064936 0.773359
vt 0.389801 0.564275
vt 0.039540 0.774208
vt 0.356388 0.547019
vt 0.031995 0.737396
vt 0.319737 0.531779
vt 0.030523 0.696843
vt 0.505723 0.512116
vt 0.384015 0.580847
vt 0.506522 0.550736
vt 0.346302 0.574833
vt 0.507607 0.604105
vt 0.294291 0.566034
vt 0.610540 0.298468
vt 0.545535 0.300686
vt 0.502363 0.302883
vt 0.504402 0.313331
vt 0.517745 0.511765
vt 0.548610 0.318269
vt 0.527842 0.556627
vt 0.609940 0.323717
vt 0.531284 0.618364
vt 0.660591 0.582499
vt 0.204501 0.743892
vt 0.668589 0.550878
vt 0.206214 0.710848
vt 0.668004 0.517120
vt 0.204545 0.678125
vt 0.623877 0.525891
vt 0.164692 0.675333
vt 0.610236 0.563455
vt 0.167167 0.712219
vt 0.605277 0.597358
vt 0.166352 0.745757
vt 0.511839 0.183186
vt 0.584607 0.521652
vt 0.552303 0.182624
vt 0.569857 0.561129
vt 0.598009 0.178631
vt 0.565182 0.606784
vt 0.592158 0.236754
vt 0.721184 0.600612
vt 0.550092 0.232946
vt 0.722606 0.558204
vt 0.518921 0.225772
vt 0.713819 0.525134
s 0
usemtl Material
f 89/196/1 7/19/1 13/33/1 90/198/1
f 8/22/2 7/19/2 89/196/2 58/145/2 54/138/2 53/134/2
f 6/18/3 56/142/3 57/144/3
f 3/8/4 106/224/4 4/9/4 59/147/4 88/195/4
f 6/17/5 107/226/5 5/14/5 60/148/5 1/1/5 105/222/5 2/4/5 56/143/5
f 61/150/6 13/34/6 16/40/6 62/151/6
f 5/16/7 14/36/7 31/76/7 29/72/7
f 88/195/8 1/3/8 10/26/8 91/200/8
f 67/158/9 21/53/9 20/51/9 65/155/9
f 13/33/10 7/19/10 12/31/10 16/41/10
f 3/8/11 9/25/11 11/28/11 15/38/11
f 55/141/12 3/6/12 15/37/12 63/152/12
f 66/156/13 19/49/13 17/43/13 65/155/13
f 23/57/14 22/55/14 17/42/14 19/50/14
f 83/184/15 82/183/15 25/63/15 26/67/15
f 15/38/16 11/28/16 22/55/16 23/57/16
f 62/151/17 16/40/17 21/53/17 67/158/17
f 69/163/18 26/66/18 25/64/18 68/160/18
f 87/193/19 84/186/19 24/60/19 68/159/19
f 86/190/20 83/184/20 26/67/20 69/161/20
f 84/187/21 85/189/21 27/68/21 24/61/21
f 70/164/22 29/73/22 31/77/22 71/165/22
f 70/164/23 28/71/23 34/83/23 73/167/23
f 10/26/24 1/3/24 28/70/24 30/74/24
f 64/154/25 10/27/25 30/75/25 71/165/25
f 34/82/26 32/78/26 36/86/26 38/90/26
f 60/149/27 5/15/27 33/81/27 72/166/27
f 5/16/28 29/72/28 35/84/28 33/80/28
f 28/70/29 1/3/29 32/78/29 34/82/29
f 37/88/30 39/92/30 43/103/30 41/97/30
f 73/167/31 34/83/31 38/91/31 75/169/31
f 33/80/32 35/84/32 39/92/32 37/88/32
f 72/166/33 33/81/33 37/89/33 74/168/33
f 76/171/34 41/98/34 43/104/34 77/173/34
f 74/168/35 37/89/35 41/99/35 76/170/35
f 38/90/36 36/86/36 40/94/36 42/100/36
f 75/169/37 38/91/37 42/101/37 77/172/37
f 102/219/38 97/211/38 51/127/38 81/180/38
f 91/199/39 10/27/39 45/109/39 93/203/39
f 90/197/40 13/34/40 46/112/40 92/201/40
f 61/150/41 9/24/41 44/106/41 78/174/41
f 64/154/42 14/35/42 47/115/42 79/176/42
f 96/209/43 94/206/43 50/124/43 80/179/43
f 101/218/44 99/215/44 48/118/44 80/178/44
f 104/221/45 98/213/45 49/121/45 95/208/45
f 103/220/46 100/217/46 50/125/46 94/205/46
f 8/23/47 53/135/47 52/131/47
f 8/23/48 52/131/48 4/10/48 106/225/48 3/7/48 55/140/48 7/20/48
f 54/138/49 58/145/49 89/196/49 5/16/49 107/227/49 6/18/49 57/144/49
f 100/216/50 101/218/50 80/178/50 50/126/50
f 95/207/51 96/209/51 80/179/51 48/119/51
f 10/27/52 64/154/52 79/176/52 45/109/52
f 13/34/53 61/150/53 78/174/53 46/112/53
f 98/212/54 102/219/54 81/180/54 49/122/54
f 39/93/55 75/169/55 77/172/55 43/105/55
f 36/87/56 74/168/56 76/170/56 40/95/56
f 40/96/57 76/171/57 77/173/57 42/102/57
f 32/79/58 72/166/58 74/168/58 36/87/58
f 35/85/59 73/167/59 75/169/59 39/93/59
f 1/2/60 60/149/60 72/166/60 32/79/60
f 14/35/61 64/154/61 71/165/61 31/77/61
f 29/73/62 70/164/62 73/167/62 35/85/62
f 28/71/63 70/164/63 71/165/63 30/75/63
f 85/189/64 86/191/64 69/162/64 27/68/64
f 82/182/65 87/193/65 68/159/65 25/65/65
f 27/69/66 69/163/66 68/160/66 24/62/66
f 11/29/67 62/151/67 67/158/67 22/56/67
f 18/44/68 66/156/68 65/155/68 20/51/68
f 7/21/69 55/141/69 63/152/69 12/30/69
f 22/56/70 67/158/70 65/155/70 17/43/70
f 9/24/71 61/150/71 62/151/71 11/29/71
f 19/49/72 66/156/72 87/193/72 82/182/72
f 12/31/73 18/45/73 20/52/73 21/54/73 16/41/73
f 66/157/74 18/48/74 84/187/74 87/194/74
f 23/57/75 19/50/75 82/183/75 83/184/75
f 49/123/76 81/181/76 96/209/76 95/207/76
f 97/210/77 103/220/77 94/205/77 51/128/77
f 99/214/78 104/221/78 95/208/78 48/120/78
f 81/181/79 51/129/79 94/206/79 96/209/79
f 14/35/80 90/197/80 92/201/80 47/115/80
f 9/24/81 91/199/81 93/203/81 44/106/81
f 3/8/82 88/195/82 91/200/82 9/25/82
f 5/16/83 89/196/83 90/198/83 14/36/83
f 44/107/84 93/204/84 104/221/84 99/214/84
f 47/116/85 92/202/85 103/220/85 97/210/85
f 45/110/86 79/177/86 102/219/86 98/212/86
f 46/113/87 78/175/87 101/218/87 100/216/87
f 92/202/88 46/114/88 100/217/88 103/220/88
f 93/204/89 45/111/89 98/213/89 104/221/89
f 78/175/90 44/108/90 99/215/90 101/218/90
f 79/177/91 47/117/91 97/211/91 102/219/91
f 59/146/92 4/11/92 52/130/92 53/133/92 54/136/92 108/228/92
f 136/291/93 110/234/93 109/231/93 135/289/93
f 121/264/94 120/262/94 114/246/94 117/254/94
f 139/297/95 111/237/95 110/235/95 136/290/95
f 135/288/96 109/232/96 112/240/96 144/307/96
f 144/306/97 112/241/97 111/238/97 139/296/97
f 111/239/98 112/242/98 109/233/98 110/236/98
f 117/255/99 114/247/99 116/252/99 115/249/99 113/243/99
f 124/270/100 121/263/100 117/256/100 113/244/100
f 120/261/101 129/277/101 116/253/101 114/248/101
f 130/279/102 124/269/102 113/245/102 115/250/102
f 129/277/103 130/278/103 115/251/103 116/253/103
f 57/144/104 56/142/104 132/282/104 127/275/104
f 127/275/105 132/282/105 131/280/105 128/276/105
f 128/276/106 131/280/106 130/278/106 129/277/106
f 56/143/107 2/4/107 126/273/107 132/283/107
f 132/283/108 126/273/108 125/271/108 131/281/108
f 131/281/109 125/271/109 124/269/109 130/279/109
f 54/138/110 57/144/110 127/275/110 118/257/110
f 118/257/111 127/275/111 128/276/111 119/259/111
f 119/259/112 128/276/112 129/277/112 120/261/112
f 2/5/113 108/230/113 123/267/113 126/274/113
f 126/274/114 123/267/114 122/265/114 125/272/114
f 125/272/115 122/265/115 121/263/115 124/270/115
f 108/229/116 54/137/116 118/258/116 123/268/116
f 123/268/117 118/258/117 119/260/117 122/266/117
f 122/266/118 119/260/118 120/262/118 121/264/118
f 54/138/119 142/302/119 141/300/119 53/134/119
f 142/302/120 143/304/120 140/298/120 141/300/120
f 143/304/121 144/306/121 139/296/121 140/298/121
f 4/12/122 133/284/122 142/303/122 54/139/122
f 133/284/123 134/286/123 143/305/123 142/303/123
f 134/286/124 135/288/124 144/307/124 143/305/124
f 53/135/125 141/301/125 138/294/125 52/131/125
f 141/301/126 140/299/126 137/292/126 138/294/126
f 140/299/127 139/297/127 136/290/127 137/292/127
f 52/132/128 138/295/128 133/285/128 4/13/128
f 138/295/129 137/293/129 134/287/129 133/285/129
f 137/293/130 136/291/130 135/289/130 134/287/130
f 105/223/131 1/3/131 88/195/131 59/147/131 108/230/131 2/5/131
f 86/192/132 85/188/132 83/185/132
f 83/185/133 85/188/133 18/46/133 23/58/133
f 63/153/134 15/39/134 23/59/134 18/47/134 12/32/134
f 84/187/135 18/48/135 85/189/135
l 52 106
