# Blender 3.3.1
# www.blender.org
mtllib monstruo_3_caminar659.mtl
o monstruo_grande
v 0.513628 1.965159 0.344362
v 0.519892 1.118876 0.093167
v -0.626286 1.817505 0.175765
v -0.301460 1.188802 0.227630
v 0.791386 2.244289 0.076122
v 0.618485 1.553529 -0.244431
v -0.722125 2.022261 -0.252026
v -0.663538 1.735118 -0.321504
v -0.219889 2.382125 0.492334
v 0.326660 2.255955 0.509511
v -0.356573 2.352340 0.583625
v -1.073885 2.055246 -0.108298
v -0.189191 2.562866 0.142532
v 0.371958 2.394955 0.247374
v -0.926966 1.929446 0.052070
v -0.351419 2.640550 0.161694
v -0.705838 2.269473 0.577817
v -1.369751 1.956212 0.148837
v -1.100543 1.998724 0.354265
v -0.877316 2.596302 0.319714
v -0.539788 2.681640 0.225768
v -0.428636 2.310134 0.553301
v -1.056360 1.936057 0.046106
v -1.658792 0.691107 0.813033
v -1.535289 0.674629 0.866381
v -1.498246 0.506340 0.661564
v -1.573629 0.516398 0.629003
v 0.450113 2.162876 0.511593
v 0.637488 2.353897 0.311398
v 0.432539 2.278522 0.520178
v 0.499245 2.408216 0.305573
v 0.728583 1.873472 0.448507
v 0.930660 1.920049 0.365244
v 0.740247 1.940047 0.492151
v 0.880252 2.046079 0.392126
v 0.859997 1.671061 0.624508
v 0.970458 1.681881 0.593140
v 0.890632 1.690301 0.724145
v 0.999030 1.705858 0.688117
v 0.845637 1.560411 0.734308
v 1.071202 1.592650 0.662930
v 0.845697 1.566161 0.931314
v 1.185437 1.611420 0.818148
v -0.056326 2.426359 0.524165
v 0.152093 2.392710 0.519800
v -0.036394 2.536678 0.282035
v 0.169359 2.498375 0.279380
v -0.000253 2.726631 0.689911
v 0.204990 2.657003 0.659269
v 0.005838 2.853871 0.442665
v 0.210376 2.784571 0.411027
v -0.507999 1.200874 0.022449
v -0.396663 1.185588 -0.191920
v -0.043934 1.277770 -0.332129
v -0.678373 1.861354 -0.052128
v 0.540528 1.138316 -0.145662
v 0.323187 1.160715 -0.269490
v 0.040238 1.526134 -0.319087
v -0.027622 1.146174 0.199226
v 0.616263 2.043941 0.258056
v -0.202491 2.445524 0.369924
v -0.361048 2.606552 0.432442
v -0.865143 2.009025 -0.063325
v 0.328881 2.384134 0.406064
v -0.728620 2.498366 0.547747
v -1.276603 2.100729 0.393230
v -0.513812 2.596898 0.418015
v -1.610241 0.680193 0.869441
v -1.505949 0.400512 0.541620
v 0.563384 2.271384 0.454631
v 0.468706 2.388973 0.436306
v 0.814903 1.862621 0.363918
v 0.833263 2.004347 0.490620
v 0.914436 1.677972 0.606857
v 0.944900 1.697530 0.706068
v 0.952371 1.567248 0.676392
v 1.004110 1.572500 0.833820
v -0.047274 2.481029 0.401505
v 0.158312 2.447201 0.398793
v -0.028472 2.792491 0.566888
v 0.239144 2.718803 0.535181
v -1.422697 1.006278 0.827427
v -1.469507 0.831965 0.752570
v -1.634644 1.005585 0.736712
v -1.585752 0.847474 0.702357
v -1.515485 0.675533 0.648638
v -1.553515 0.983847 0.831905
v -0.001330 1.751271 0.516001
v 0.239936 2.131847 -0.177481
v 0.179732 2.507708 0.100037
v 0.063320 2.259672 0.644626
v 0.061585 2.517773 0.278761
v 0.052428 2.407997 0.520311
v 0.108854 2.838049 0.389220
v 0.101417 2.672738 0.711573
v 0.109291 2.804622 0.576690
v 0.203437 2.654391 0.321869
v 0.193396 2.512715 0.605751
v -0.042691 2.567763 0.628275
v -0.035039 2.710956 0.342397
v -0.055527 2.641029 0.486019
v 0.213407 2.583421 0.463610
v 0.083742 2.692317 0.312090
v 0.075648 2.529240 0.636462
v 0.597070 1.628205 0.003877
v -0.555232 1.542923 0.198260
v 0.689746 1.763600 -0.208909
v 0.164578 1.128293 0.204127
v -0.292698 0.244489 -0.365091
v -0.431031 0.178460 -0.253552
v -0.468609 0.322684 -0.456333
v -0.334569 0.327654 -0.479138
v 0.253139 -0.021557 0.049598
v 0.182221 -0.035006 -0.028136
v 0.263898 -0.026359 0.011767
v 0.233288 -0.031910 -0.015238
v 0.193644 -0.022263 0.057829
v 0.059962 0.843606 -0.099423
v 0.109845 0.600994 -0.033809
v 0.127696 0.297857 -0.014629
v 0.152301 0.268799 0.163283
v 0.147690 0.514832 0.242708
v 0.171052 0.789080 0.286941
v 0.275157 0.261303 0.143414
v 0.355953 0.507832 0.211146
v 0.462270 0.833109 0.221715
v 0.314646 0.842872 -0.075663
v 0.287159 0.581433 0.002292
v 0.233142 0.285617 0.009347
v 0.296994 0.272714 0.064567
v 0.396021 0.562479 0.091280
v 0.485336 0.848234 0.032077
v -0.213378 0.915371 0.351618
v -0.225456 0.604426 0.199321
v -0.243416 0.392617 0.044788
v -0.525953 0.422449 0.022956
v -0.508596 0.679732 0.155148
v -0.500973 0.933699 0.233214
v -0.534083 0.590973 -0.191374
v -0.515842 0.825440 -0.053656
v -0.515150 0.935045 -0.030261
v -0.125135 0.856718 -0.052508
v -0.174260 0.781894 -0.087761
v -0.237701 0.608547 -0.189332
vn -0.0049 0.5930 -0.8052
vn -0.0145 0.0826 -0.9965
vn 0.4520 -0.2859 -0.8450
vn -0.3236 -0.2534 0.9116
vn 0.9250 -0.2700 0.2675
vn 0.6182 0.7437 0.2544
vn 0.2265 0.9056 -0.3586
vn 0.4137 -0.2576 0.8732
vn -0.1197 0.8914 0.4372
vn -0.1209 0.6011 -0.7900
vn -0.1633 -0.5449 0.8225
vn -0.3736 -0.8695 -0.3232
vn -0.2546 -0.1785 0.9504
vn 0.3052 -0.8843 0.3533
vn 0.9452 -0.2222 0.2392
vn 0.0396 -0.8143 0.5791
vn 0.1240 0.9622 0.2424
vn 0.0132 -0.7635 0.6456
vn -0.7186 0.2158 0.6611
vn 0.9472 0.0727 -0.3122
vn -0.8431 0.0132 -0.5377
vn 0.4950 0.7357 0.4623
vn 0.1272 0.1784 0.9757
vn -0.4082 -0.5247 0.7470
vn -0.1955 0.6248 0.7559
vn -0.8973 -0.2079 0.3894
vn 0.0359 -0.6003 -0.7990
vn 0.8146 0.5661 0.1260
vn -0.4818 -0.6023 0.6364
vn 0.6851 0.5444 -0.4840
vn -0.1687 0.5681 0.8055
vn 0.9767 0.2016 -0.0731
vn 0.2000 -0.6988 -0.6868
vn 0.2062 -0.9779 -0.0343
vn -0.0281 -0.5845 -0.8109
vn -0.9409 0.3314 0.0694
vn 0.2596 0.7801 0.5693
vn 0.9872 -0.0262 -0.1573
vn 0.3219 0.5246 0.7881
vn 0.1597 0.9866 0.0326
vn -0.2956 0.8727 0.3886
vn 0.4070 0.8715 0.2735
vn 0.0685 0.9524 0.2971
vn -0.9698 0.1195 0.2127
vn 0.2638 -0.4219 0.8674
vn -0.2201 0.5468 -0.8078
vn -0.7943 -0.4750 -0.3787
vn -0.9365 -0.2754 0.2171
vn 0.1705 0.1939 -0.9661
vn -0.9622 0.2637 -0.0676
vn 0.0591 0.7944 0.6045
vn 0.4102 0.6997 0.5849
vn -0.2578 0.8717 0.4168
vn 0.9776 -0.1795 0.1096
vn -0.0512 0.7358 0.6753
vn -0.2887 -0.6210 -0.7287
vn 0.0624 -0.9978 0.0219
vn -0.3863 -0.7738 -0.5020
vn 0.4121 0.6508 0.6377
vn -0.2315 -0.7887 -0.5695
vn -0.0935 0.9925 0.0793
vn 0.5441 0.6036 0.5828
vn 0.4445 0.2499 0.8602
vn -0.3857 0.2505 -0.8880
vn 0.0272 0.1123 0.9933
vn -0.6410 -0.6763 0.3631
vn -0.2688 0.4156 0.8689
vn -0.7186 0.6244 0.3063
vn -0.3736 -0.8616 -0.3436
vn 0.1938 0.3361 0.9217
vn 0.5650 0.5252 0.6364
vn 0.2167 0.3349 0.9170
vn -0.4272 0.6327 -0.6459
vn -0.8711 0.3817 0.3090
vn 0.9563 -0.2515 0.1491
vn 0.5095 0.6474 0.5669
vn 0.3102 0.4640 -0.8297
vn -0.2675 -0.3463 0.8992
vn 0.5171 0.8284 0.2152
vn 0.3731 0.9252 0.0697
vn -0.1359 0.5144 0.8467
vn -0.4943 -0.1390 0.8581
vn 0.3067 0.7636 -0.5682
vn -0.1697 -0.6192 0.7667
vn 0.0966 0.2069 -0.9736
vn 0.9452 -0.3211 -0.0586
vn -0.9940 0.0256 -0.1063
vn -0.1027 0.2645 -0.9589
vn 0.0155 -0.6445 0.7644
vn -0.9998 0.0068 0.0176
vn 0.9611 -0.2515 -0.1137
vn -0.0038 -0.9905 -0.1376
vn 0.1790 -0.8491 0.4970
vn -0.9772 -0.1735 0.1227
vn -0.9703 -0.2322 -0.0678
vn 0.9842 -0.0702 -0.1625
vn -0.0710 0.7109 -0.6997
vn -0.0680 -0.8185 -0.5704
vn 0.0319 -0.9889 0.1450
vn 0.1325 -0.3211 0.9377
vn 0.2329 0.0764 -0.9695
vn 0.9537 -0.1552 0.2576
vn 0.6580 0.0590 -0.7507
vn 0.4262 -0.5039 -0.7513
vn 0.5368 -0.3112 -0.7843
vn 0.6200 -0.1361 -0.7727
vn 0.9853 -0.1458 0.0887
vn 0.9475 -0.2932 0.1272
vn 0.9239 -0.3405 0.1746
vn 0.0281 -0.4905 -0.8710
vn 0.1200 -0.2670 -0.9562
vn 0.2016 -0.0550 -0.9779
vn 0.2366 0.2938 0.9261
vn 0.1980 -0.1316 0.9713
vn 0.1333 -0.3026 0.9438
vn -0.9450 -0.0014 0.3270
vn -0.9767 -0.0414 0.2107
vn -0.9910 -0.0540 0.1225
vn -0.1756 -0.5036 -0.8459
vn -0.0219 0.3083 -0.9510
vn -0.0225 0.5093 -0.8603
vn 0.9193 0.2045 0.3362
vn 0.9613 -0.2278 0.1548
vn 0.9821 -0.1857 -0.0329
vn -0.9774 0.0661 -0.2007
vn -0.9988 0.0094 0.0482
vn -0.9973 0.0372 0.0638
vn -0.4856 0.3969 0.7789
vn -0.3093 -0.3498 0.8843
vn -0.1916 -0.5013 0.8438
vn 0.4575 -0.2986 0.8376
vn 0.4065 0.4197 -0.8115
vn -0.1452 -0.4581 -0.8770
vn -0.1430 -0.7954 -0.5890
vn -0.8113 -0.1269 -0.5707
vt 0.461701 0.809397
vt 0.301930 0.729761
vt 0.094158 0.499911
vt 0.498737 0.648456
vt 0.250869 0.553264
vt 0.714874 0.752530
vt 0.627854 0.740386
vt 0.227533 0.339544
vt 0.300362 0.438253
vt 0.625828 0.633709
vt 0.338991 0.679376
vt 0.653754 0.621457
vt 0.189641 0.785401
vt 0.531284 0.815038
vt 0.232114 0.729761
vt 0.806952 0.326283
vt 0.527824 0.712310
vt 0.703640 0.331352
vt 0.725736 0.123548
vt 0.557184 0.740386
vt 0.714874 0.681901
vt 0.693091 0.138725
vt 0.558638 0.706064
vt 0.944491 0.391302
vt 0.108931 0.369345
vt 0.090202 0.443431
vt 0.952837 0.467016
vt 0.108059 0.346292
vt 0.960024 0.371234
vt 0.653754 0.712739
vt 0.761990 0.055860
vt 0.265996 0.788213
vt 0.829683 0.188590
vt 0.886815 0.394232
vt 0.909606 0.471204
vt 0.826550 0.267021
vt 0.659457 0.749480
vt 0.206417 0.267620
vt 0.238389 0.812575
vt 0.882743 0.373659
vt 0.837846 0.166681
vt 0.102618 0.289588
vt 0.957957 0.321520
vt 0.918648 0.216117
vt 0.803322 0.012950
vt 0.106348 0.638847
vt 0.232551 0.755661
vt 0.798789 0.485160
vt 0.965752 0.239402
vt 0.153968 0.222285
vt 0.894228 0.312474
vt 0.856067 0.102710
vt 0.881967 0.351902
vt 0.842627 0.144082
vt 0.107159 0.331692
vt 0.958812 0.358201
vt 0.199778 0.246429
vt 0.138792 0.619338
vt 0.232114 0.797406
vt 0.967580 0.012950
vt 0.753483 0.682459
vt 0.843831 0.469074
vt 0.256421 0.022764
vt 0.824689 0.472884
vt 0.987050 0.016155
vt 0.832147 0.505580
vt 0.295109 0.018166
vt 0.782932 0.707368
vt 0.843831 0.503254
vt 0.076417 0.467161
vt 0.958695 0.494573
vt 0.833773 0.298242
vt 0.909847 0.503107
vt 0.076958 0.454690
vt 0.951531 0.482650
vt 0.837149 0.281767
vt 0.912926 0.487172
vt 0.064432 0.532285
vt 0.298790 0.687460
vt 0.825577 0.362572
vt 0.264894 0.686125
vt 0.056614 0.518895
vt 0.959622 0.549977
vt 0.837123 0.350740
vt 0.929664 0.555276
vt 0.051257 0.577890
vt 0.291936 0.641182
vt 0.824256 0.407314
vt 0.275162 0.640522
vt 0.035793 0.577862
vt 0.964581 0.612577
vt 0.838997 0.411720
vt 0.948088 0.615681
vt 0.039898 0.592711
vt 0.301778 0.620707
vt 0.403076 0.772170
vt 0.830596 0.428615
vt 0.403076 0.737417
vt 0.267017 0.619338
vt 0.012950 0.593438
vt 0.987050 0.637067
vt 0.428919 0.781443
vt 0.856067 0.440612
vt 0.428919 0.728949
vt 0.935424 0.646785
vt 0.945356 0.412724
vt 0.357115 0.854737
vt 0.331665 0.779032
vt 0.948027 0.441601
vt 0.799629 0.752473
vt 0.327972 0.853161
vt 0.906904 0.416128
vt 0.370069 0.779032
vt 0.684668 0.778429
vt 0.909575 0.445005
vt 0.655249 0.778999
vt 0.799629 0.791035
vt 0.330193 0.729131
vt 0.557184 0.775635
vt 0.363063 0.804932
vt 0.331684 0.807874
vt 0.754247 0.751428
vt 0.586563 0.768755
vt 0.566112 0.815056
vt 0.689281 0.828405
vt 0.370405 0.729131
vt 0.754247 0.791805
vt 0.657717 0.824383
vt 0.595492 0.808176
vt 0.327830 0.637821
vt 0.590400 0.642651
vt 0.164818 0.789976
vt 0.357235 0.619338
vt 0.642851 0.190721
vt 0.562581 0.649581
vt 0.406824 0.626953
vt 0.080449 0.619338
vt 0.646201 0.239681
vt 0.727583 0.656002
vt 0.597847 0.731399
vt 0.712829 0.722239
vt 0.658284 0.323708
vt 0.527919 0.666449
vt 0.661748 0.291537
vt 0.680225 0.245582
vt 0.377645 0.696957
vt 0.285191 0.477898
vt 0.483372 0.812325
vt 0.280072 0.728266
vt 0.924330 0.393087
vt 0.921760 0.373660
vt 0.678504 0.727397
vt 0.268491 0.812575
vt 0.930826 0.465310
vt 0.923786 0.327561
vt 0.941993 0.227167
vt 0.764056 0.466512
vt 0.919524 0.351927
vt 0.977463 0.013354
vt 0.833186 0.466512
vt 0.317617 0.012950
vt 0.798789 0.722800
vt 0.839639 0.522681
vt 0.934403 0.500152
vt 0.932138 0.484309
vt 0.281656 0.689101
vt 0.944784 0.554368
vt 0.283549 0.640852
vt 0.956335 0.614129
vt 0.284323 0.620942
vt 0.399765 0.754789
vt 0.961112 0.640376
vt 0.422297 0.755187
vt 0.926130 0.414426
vt 0.350867 0.779032
vt 0.928801 0.443303
vt 0.799629 0.771754
vt 0.350773 0.728949
vt 0.557184 0.796361
vt 0.753483 0.771844
vt 0.595492 0.787450
vt 0.985581 0.067358
vt 0.238180 0.070710
vt 0.259592 0.052321
vt 0.138792 0.821791
vt 0.953366 0.057503
vt 0.765454 0.639660
vt 0.120235 0.821584
vt 0.772730 0.660154
vt 0.283154 0.037949
vt 0.784440 0.682652
vt 0.128680 0.843910
vt 0.970110 0.058056
vt 0.758353 0.637393
vt 0.180368 0.432154
vt 0.759258 0.257498
vt 0.884976 0.446549
vt 0.828099 0.241547
vt 0.971226 0.428512
vt 0.101516 0.405509
vt 0.908240 0.430567
vt 0.669958 0.778714
vt 0.946692 0.427163
vt 0.342544 0.853949
vt 0.673120 0.826722
vt 0.582140 0.817526
vt 0.570535 0.766286
vt 0.348248 0.806122
vt 0.576699 0.792002
vt 0.653753 0.802281
vt 0.776512 0.794925
vt 0.776512 0.748700
vt 0.327830 0.829868
vt 0.363063 0.830170
vt 0.327830 0.753980
vt 0.373865 0.753980
vt 0.689281 0.803194
vt 0.351093 0.753886
vt 0.776117 0.771930
vt 0.671321 0.802907
vt 0.345899 0.829874
vt 0.457498 0.727404
vt 0.165986 0.548054
vt 0.260364 0.376248
vt 0.625887 0.695531
vt 0.520555 0.743605
vt 0.734596 0.339638
vt 0.406824 0.703049
vt 0.012950 0.651015
vt 0.277407 0.507014
vt 0.206214 0.619338
vt 0.706517 0.466512
vt 0.399765 0.822801
vt 0.181517 0.620770
vt 0.619265 0.470337
vt 0.422433 0.807343
vt 0.582936 0.466512
vt 0.458892 0.202188
vt 0.422433 0.843958
vt 0.727583 0.468029
vt 0.460639 0.221880
vt 0.402692 0.843997
vt 0.717439 0.778459
vt 0.429089 0.593438
vt 0.518160 0.466685
vt 0.070962 0.817001
vt 0.726094 0.791097
vt 0.457498 0.298878
vt 0.715181 0.783741
vt 0.523936 0.466512
vt 0.458951 0.311476
vt 0.719061 0.788282
vt 0.458165 0.306435
vt 0.058766 0.817583
vt 0.726094 0.778429
vt 0.431598 0.585369
vt 0.599953 0.261833
vt 0.080449 0.668491
vt 0.542336 0.274386
vt 0.076079 0.728305
vt 0.500395 0.287212
vt 0.064936 0.773359
vt 0.389801 0.564275
vt 0.039540 0.774208
vt 0.356388 0.547019
vt 0.031995 0.737396
vt 0.319737 0.531779
vt 0.030523 0.696843
vt 0.505723 0.512116
vt 0.384015 0.580847
vt 0.506522 0.550736
vt 0.346302 0.574833
vt 0.507607 0.604105
vt 0.294291 0.566034
vt 0.610540 0.298468
vt 0.545535 0.300686
vt 0.502363 0.302883
vt 0.504402 0.313331
vt 0.517745 0.511765
vt 0.548610 0.318269
vt 0.527842 0.556627
vt 0.609940 0.323717
vt 0.531284 0.618364
vt 0.660591 0.582499
vt 0.204501 0.743892
vt 0.668589 0.550878
vt 0.206214 0.710848
vt 0.668004 0.517120
vt 0.204545 0.678125
vt 0.623877 0.525891
vt 0.164692 0.675333
vt 0.610236 0.563455
vt 0.167167 0.712219
vt 0.605277 0.597358
vt 0.166352 0.745757
vt 0.511839 0.183186
vt 0.584607 0.521652
vt 0.552303 0.182624
vt 0.569857 0.561129
vt 0.598009 0.178631
vt 0.565182 0.606784
vt 0.592158 0.236754
vt 0.721184 0.600612
vt 0.550092 0.232946
vt 0.722606 0.558204
vt 0.518921 0.225772
vt 0.713819 0.525134
s 0
usemtl Material
f 89/196/1 7/19/1 13/33/1 90/198/1
f 8/22/2 7/19/2 89/196/2 58/145/2 54/138/2 53/134/2
f 6/18/3 56/142/3 57/144/3
f 3/8/4 106/224/4 4/9/4 59/147/4 88/195/4
f 6/17/5 107/226/5 5/14/5 60/148/5 1/1/5 105/222/5 2/4/5 56/143/5
f 61/150/6 13/34/6 16/40/6 62/151/6
f 5/16/7 14/36/7 31/76/7 29/72/7
f 88/195/8 1/3/8 10/26/8 91/200/8
f 67/158/9 21/53/9 20/51/9 65/155/9
f 13/33/10 7/19/10 12/31/10 16/41/10
f 3/8/11 9/25/11 11/28/11 15/38/11
f 55/141/12 3/6/12 15/37/12 63/152/12
f 66/156/13 19/49/13 17/43/13 65/155/13
f 23/57/14 22/55/14 17/42/14 19/50/14
f 83/184/15 82/183/15 25/63/15 26/67/15
f 15/38/16 11/28/16 22/55/16 23/57/16
f 62/151/17 16/40/17 21/53/17 67/158/17
f 69/163/18 26/66/18 25/64/18 68/160/18
f 87/193/19 84/186/19 24/60/19 68/159/19
f 86/190/20 83/184/20 26/67/20 69/161/20
f 84/187/21 85/189/21 27/68/21 24/61/21
f 70/164/22 29/73/22 31/77/22 71/165/22
f 70/164/23 28/71/23 34/83/23 73/167/23
f 10/26/24 1/3/24 28/70/24 30/74/24
f 64/154/25 10/27/25 30/75/25 71/165/25
f 34/82/26 32/78/26 36/86/26 38/90/26
f 60/149/27 5/15/27 33/81/27 72/166/27
f 5/16/28 29/72/28 35/84/28 33/80/28
f 28/70/29 1/3/29 32/78/29 34/82/29
f 37/88/30 39/92/30 43/103/30 41/97/30
f 73/167/31 34/83/31 38/91/31 75/169/31
f 33/80/32 35/84/32 39/92/32 37/88/32
f 72/166/33 33/81/33 37/89/33 74/168/33
f 76/171/34 41/98/34 43/104/34 77/173/34
f 74/168/35 37/89/35 41/99/35 76/170/35
f 38/90/36 36/86/36 40/94/36 42/100/36
f 75/169/37 38/91/37 42/101/37 77/172/37
f 102/219/38 97/211/38 51/127/38 81/180/38
f 91/199/39 10/27/39 45/109/39 93/203/39
f 90/197/40 13/34/40 46/112/40 92/201/40
f 61/150/41 9/24/41 44/106/41 78/174/41
f 64/154/42 14/35/42 47/115/42 79/176/42
f 96/209/43 94/206/43 50/124/43 80/179/43
f 101/218/44 99/215/44 48/118/44 80/178/44
f 104/221/45 98/213/45 49/121/45 95/208/45
f 103/220/46 100/217/46 50/125/46 94/205/46
f 8/23/47 53/135/47 52/131/47
f 8/23/48 52/131/48 4/10/48 106/225/48 3/7/48 55/140/48 7/20/48
f 54/138/49 58/145/49 89/196/49 5/16/49 107/227/49 6/18/49 57/144/49
f 100/216/50 101/218/50 80/178/50 50/126/50
f 95/207/51 96/209/51 80/179/51 48/119/51
f 10/27/52 64/154/52 79/176/52 45/109/52
f 13/34/53 61/150/53 78/174/53 46/112/53
f 98/212/54 102/219/54 81/180/54 49/122/54
f 39/93/55 75/169/55 77/172/55 43/105/55
f 36/87/56 74/168/56 76/170/56 40/95/56
f 40/96/57 76/171/57 77/173/57 42/102/57
f 32/79/58 72/166/58 74/168/58 36/87/58
f 35/85/59 73/167/59 75/169/59 39/93/59
f 1/2/60 60/149/60 72/166/60 32/79/60
f 14/35/61 64/154/61 71/165/61 31/77/61
f 29/73/62 70/164/62 73/167/62 35/85/62
f 28/71/63 70/164/63 71/165/63 30/75/63
f 85/189/64 86/191/64 69/162/64 27/68/64
f 82/182/65 87/193/65 68/159/65 25/65/65
f 27/69/66 69/163/66 68/160/66 24/62/66
f 11/29/67 62/151/67 67/158/67 22/56/67
f 18/44/68 66/156/68 65/155/68 20/51/68
f 7/21/69 55/141/69 63/152/69 12/30/69
f 22/56/70 67/158/70 65/155/70 17/43/70
f 9/24/71 61/150/71 62/151/71 11/29/71
f 19/49/72 66/156/72 87/193/72 82/182/72
f 12/31/73 18/45/73 20/52/73 21/54/73 16/41/73
f 66/157/74 18/48/74 84/187/74 87/194/74
f 23/57/75 19/50/75 82/183/75 83/184/75
f 49/123/76 81/181/76 96/209/76 95/207/76
f 97/210/77 103/220/77 94/205/77 51/128/77
f 99/214/78 104/221/78 95/208/78 48/120/78
f 81/181/79 51/129/79 94/206/79 96/209/79
f 14/35/80 90/197/80 92/201/80 47/115/80
f 9/24/81 91/199/81 93/203/81 44/106/81
f 3/8/82 88/195/82 91/200/82 9/25/82
f 5/16/83 89/196/83 90/198/83 14/36/83
f 44/107/84 93/204/84 104/221/84 99/214/84
f 47/116/85 92/202/85 103/220/85 97/210/85
f 45/110/86 79/177/86 102/219/86 98/212/86
f 46/113/87 78/175/87 101/218/87 100/216/87
f 92/202/88 46/114/88 100/217/88 103/220/88
f 93/204/89 45/111/89 98/213/89 104/221/89
f 78/175/90 44/108/90 99/215/90 101/218/90
f 79/177/91 47/117/91 97/211/91 102/219/91
f 59/146/92 4/11/92 52/130/92 53/133/92 54/136/92 108/228/92
f 136/291/93 110/234/93 109/231/93 135/289/93
f 121/264/94 120/262/94 114/246/94 117/254/94
f 139/297/95 111/237/95 110/235/95 136/290/95
f 135/288/96 109/232/96 112/240/96 144/307/96
f 144/306/97 112/241/97 111/238/97 139/296/97
f 111/239/98 112/242/98 109/233/98 110/236/98
f 117/255/99 114/247/99 116/252/99 115/249/99 113/243/99
f 124/270/100 121/263/100 117/256/100 113/244/100
f 120/261/101 129/277/101 116/253/101 114/248/101
f 130/279/102 124/269/102 113/245/102 115/250/102
f 129/277/103 130/278/103 115/251/103 116/253/103
f 57/144/104 56/142/104 132/282/104 127/275/104
f 127/275/105 132/282/105 131/280/105 128/276/105
f 128/276/106 131/280/106 130/278/106 129/277/106
f 56/143/107 2/4/107 126/273/107 132/283/107
f 132/283/108 126/273/108 125/271/108 131/281/108
f 131/281/109 125/271/109 124/269/109 130/279/109
f 54/138/110 57/144/110 127/275/110 118/257/110
f 118/257/111 127/275/111 128/276/111 119/259/111
f 119/259/112 128/276/112 129/277/112 120/261/112
f 2/5/113 108/230/113 123/267/113 126/274/113
f 126/274/114 123/267/114 122/265/114 125/272/114
f 125/272/115 122/265/115 121/263/115 124/270/115
f 108/229/116 54/137/116 118/258/116 123/268/116
f 123/268/117 118/258/117 119/260/117 122/266/117
f 122/266/118 119/260/118 120/262/118 121/264/118
f 54/138/119 142/302/119 141/300/119 53/134/119
f 142/302/120 143/304/120 140/298/120 141/300/120
f 143/304/121 144/306/121 139/296/121 140/298/121
f 4/12/122 133/284/122 142/303/122 54/139/122
f 133/284/123 134/286/123 143/305/123 142/303/123
f 134/286/124 135/288/124 144/307/124 143/305/124
f 53/135/125 141/301/125 138/294/125 52/131/125
f 141/301/126 140/299/126 137/292/126 138/294/126
f 140/299/127 139/297/127 136/290/127 137/292/127
f 52/132/128 138/295/128 133/285/128 4/13/128
f 138/295/129 137/293/129 134/287/129 133/285/129
f 137/293/130 136/291/130 135/289/130 134/287/130
f 105/223/131 1/3/131 88/195/131 59/147/131 108/230/131 2/5/131
f 86/192/132 85/188/132 83/185/132
f 83/185/133 85/188/133 18/46/133 23/58/133
f 63/153/134 15/39/134 23/59/134 18/47/134 12/32/134
f 84/187/135 18/48/135 85/189/135
l 52 106
