# Blender 3.3.1
# www.blender.org
mtllib monstruo_3_caminar562.mtl
o monstruo_grande
v 0.536022 1.954576 0.369757
v 0.527637 1.107650 0.050574
v -0.611971 1.856599 0.124054
v -0.280011 1.211031 0.221105
v 0.854737 2.210624 0.134087
v 0.636312 1.575350 -0.215040
v -0.662731 2.063971 -0.319697
v -0.639310 1.746909 -0.347370
v -0.192324 2.423060 0.435836
v 0.337587 2.264471 0.499594
v -0.341256 2.408636 0.517094
v -1.006293 2.162962 -0.248108
v -0.119817 2.580079 0.083699
v 0.408643 2.382133 0.232320
v -0.895858 2.021912 -0.067588
v -0.271357 2.674237 0.087142
v -0.708308 2.360050 0.466781
v -1.340723 2.113131 -0.048109
v -1.101384 2.132683 0.194589
v -0.806261 2.696760 0.184338
v -0.454888 2.738186 0.132807
v -0.422442 2.369078 0.479036
v -1.022602 2.051535 -0.099184
v -1.838077 0.887934 0.572238
v -1.725158 0.863978 0.643272
v -1.670062 0.690684 0.446862
v -1.738984 0.705307 0.403506
v 0.447521 2.163448 0.510569
v 0.664846 2.340709 0.332605
v 0.440244 2.282428 0.514584
v 0.530218 2.395047 0.301371
v 0.720723 1.893976 0.517021
v 0.933704 1.897945 0.484501
v 0.734044 1.945350 0.553256
v 0.889861 2.038411 0.476354
v 0.755163 1.759123 0.781613
v 0.869610 1.732216 0.771564
v 0.780427 1.805276 0.873898
v 0.890962 1.779196 0.857077
v 0.697324 1.703795 0.916260
v 0.928009 1.651055 0.884609
v 0.680318 1.780780 1.096894
v 1.026915 1.694876 1.044265
v -0.029125 2.452339 0.479897
v 0.176261 2.410684 0.487531
v 0.009848 2.546030 0.232822
v 0.209126 2.497406 0.242029
v 0.024739 2.764764 0.620260
v 0.230184 2.691193 0.603193
v 0.040459 2.868426 0.362757
v 0.245782 2.794858 0.345216
v -0.499218 1.204996 0.038174
v -0.406688 1.181843 -0.184190
v -0.037246 1.276532 -0.334940
v -0.646137 1.895818 -0.102959
v 0.536508 1.200009 -0.170199
v 0.316145 1.241051 -0.279372
v 0.060329 1.519471 -0.322060
v -0.023169 1.114631 0.188265
v 0.654163 2.024147 0.298444
v -0.160091 2.477822 0.312534
v -0.307345 2.655452 0.354730
v -0.816381 2.077636 -0.156670
v 0.354053 2.385009 0.388258
v -0.699840 2.588511 0.430862
v -1.268518 2.253719 0.207243
v -0.459451 2.658696 0.327853
v -1.799190 0.874596 0.635231
v -1.667301 0.583912 0.327540
v 0.567648 2.268178 0.466952
v 0.489104 2.386094 0.428898
v 0.813400 1.853438 0.468124
v 0.824797 2.005802 0.567568
v 0.810833 1.745321 0.773732
v 0.835791 1.791554 0.865492
v 0.806102 1.662032 0.881388
v 0.841710 1.711174 1.035677
v -0.012010 2.498081 0.354530
v 0.190200 2.455696 0.363554
v 0.001266 2.819071 0.490768
v 0.269232 2.740775 0.475363
v -1.585652 1.186746 0.619934
v -1.632784 1.014914 0.539733
v -1.781600 1.199403 0.498976
v -1.739067 1.037462 0.472874
v -1.673604 0.860450 0.430822
v -1.716937 1.173199 0.605182
v -0.008625 1.766817 0.500099
v 0.290500 2.101236 -0.187990
v 0.232997 2.493924 0.065406
v 0.066837 2.289139 0.614706
v 0.103497 2.521375 0.235178
v 0.079076 2.430776 0.482654
v 0.145515 2.847006 0.314958
v 0.125096 2.712433 0.650268
v 0.138742 2.831127 0.504068
v 0.241439 2.656696 0.269354
v 0.219092 2.541663 0.563458
v -0.017048 2.601086 0.572395
v 0.004232 2.718341 0.276135
v -0.024030 2.661202 0.423823
v 0.245025 2.598859 0.416515
v 0.123129 2.695351 0.251906
v 0.100450 2.562621 0.588057
v 0.627703 1.595071 0.103374
v -0.553618 1.567751 0.169867
v 0.725031 1.773964 -0.153521
v 0.172497 1.058975 0.174901
v -0.239891 0.072067 0.372799
v -0.382257 0.127828 0.484682
v -0.411730 0.035697 0.252477
v -0.277017 0.021021 0.240291
v 0.334820 -0.075208 -0.163574
v 0.260343 -0.084965 -0.238333
v 0.343658 -0.078091 -0.202074
v 0.311783 -0.082359 -0.227784
v 0.275936 -0.076498 -0.152494
v 0.073875 0.862314 -0.225932
v 0.147250 0.548156 -0.209490
v 0.194912 0.242462 -0.203125
v 0.230470 0.203942 -0.028892
v 0.207126 0.442540 0.068000
v 0.207343 0.714175 0.130681
v 0.352409 0.209469 -0.054291
v 0.413076 0.456500 0.024265
v 0.491094 0.797107 0.069236
v 0.328921 0.888806 -0.209999
v 0.327225 0.542138 -0.181506
v 0.301997 0.238644 -0.184437
v 0.369323 0.228167 -0.132956
v 0.441520 0.525698 -0.098664
v 0.503990 0.873161 -0.108434
v -0.161237 0.965116 0.355846
v -0.163162 0.705200 0.401459
v -0.172243 0.480426 0.477181
v -0.457588 0.478245 0.466690
v -0.454218 0.722633 0.342536
v -0.460037 0.954749 0.260334
v -0.490012 0.410723 0.205788
v -0.487880 0.661255 0.075341
v -0.501431 0.916663 -0.016978
v -0.111392 0.838061 -0.069983
v -0.146999 0.609237 0.040851
v -0.196590 0.426694 0.164112
vn 0.0927 0.5502 -0.8298
vn 0.0213 0.0241 -0.9995
vn 0.4016 -0.2132 -0.8907
vn -0.3715 -0.2115 0.9040
vn 0.9188 -0.3202 0.2306
vn 0.6700 0.6910 0.2714
vn 0.2941 0.8721 -0.3910
vn 0.3216 -0.2228 0.9203
vn -0.0668 0.9126 0.4034
vn 0.0739 0.5199 -0.8510
vn -0.3587 -0.4183 0.8345
vn -0.4630 -0.8284 -0.3152
vn -0.3984 -0.1203 0.9093
vn 0.1405 -0.9000 0.4126
vn 0.8825 -0.2816 0.3768
vn -0.1755 -0.7552 0.6316
vn 0.2033 0.9540 0.2205
vn -0.1340 -0.7534 0.6438
vn -0.7910 0.2726 0.5478
vn 0.9855 0.0045 -0.1695
vn -0.7521 0.0619 -0.6562
vn 0.4547 0.7536 0.4747
vn -0.0487 0.2344 0.9709
vn -0.5026 -0.4679 0.7269
vn -0.2184 0.6793 0.7006
vn -0.9725 0.1283 0.1946
vn 0.1644 -0.6838 -0.7109
vn 0.8063 0.5575 0.1977
vn -0.5737 -0.5675 0.5906
vn 0.8654 0.1473 -0.4790
vn -0.2826 0.8208 0.4964
vn 0.9890 0.0635 0.1337
vn 0.1890 -0.8993 -0.3943
vn -0.0960 -0.9425 0.3202
vn -0.1045 -0.8095 -0.5778
vn -0.7978 0.5583 -0.2277
vn 0.4288 0.8420 0.3273
vn 0.9923 -0.0457 -0.1152
vn 0.3006 0.5469 0.7814
vn 0.2415 0.9702 0.0200
vn -0.2353 0.9164 0.3237
vn 0.4349 0.8688 0.2368
vn 0.0676 0.9753 0.2104
vn -0.9755 0.1442 0.1662
vn 0.2287 -0.3382 0.9129
vn -0.1860 0.4654 -0.8653
vn -0.8458 -0.4367 -0.3065
vn -0.9526 -0.2136 0.2167
vn 0.2410 0.2020 -0.9493
vn -0.9567 0.2581 -0.1344
vn 0.0469 0.8469 0.5297
vn 0.4156 0.7178 0.5587
vn -0.1995 0.9130 0.3558
vn 0.9715 -0.1727 0.1626
vn 0.1092 0.9185 0.3800
vn -0.3919 -0.7513 -0.5310
vn -0.2463 -0.9024 0.3535
vn -0.4340 -0.8373 -0.3325
vn 0.3153 0.7809 0.5392
vn -0.1494 -0.8689 -0.4719
vn -0.0556 0.9985 0.0026
vn 0.4432 0.6470 0.6204
vn 0.3635 0.2602 0.8945
vn -0.2332 0.2631 -0.9362
vn -0.1112 0.1244 0.9860
vn -0.7321 -0.6265 0.2675
vn -0.3038 0.4795 0.8233
vn -0.6738 0.7130 0.1939
vn -0.4567 -0.8125 -0.3623
vn 0.1093 0.3430 0.9330
vn 0.5541 0.5052 0.6616
vn 0.1120 0.3293 0.9375
vn -0.2576 0.6482 -0.7166
vn -0.8644 0.4701 0.1785
vn 0.8941 -0.3323 0.3004
vn 0.4965 0.6939 0.5216
vn 0.3451 0.3796 -0.8584
vn -0.3003 -0.2587 0.9181
vn 0.5181 0.8407 0.1572
vn 0.4151 0.9090 0.0382
vn -0.1551 0.5734 0.8045
vn -0.5530 -0.0735 0.8299
vn 0.3889 0.7117 -0.5850
vn -0.2115 -0.5464 0.8104
vn 0.1372 0.1088 -0.9845
vn 0.9404 -0.3398 0.0102
vn -0.9837 0.0086 -0.1797
vn -0.0624 0.1730 -0.9830
vn -0.0315 -0.5624 0.8263
vn -0.9994 0.0161 -0.0307
vn 0.9630 -0.2659 -0.0435
vn -0.0985 -0.9853 -0.1393
vn 0.2164 -0.1083 0.9703
vn -0.9620 -0.2183 0.1640
vn -0.9651 -0.1881 0.1821
vn 0.9801 -0.1750 -0.0941
vn -0.1229 -0.1540 -0.9804
vn -0.0670 -0.9245 0.3752
vn 0.0395 -0.9948 0.0935
vn 0.1973 -0.3652 0.9098
vn 0.1806 0.1389 -0.9737
vn 0.9719 -0.1303 0.1960
vn 0.6142 0.1242 -0.7793
vn 0.4419 -0.1825 -0.8783
vn 0.5274 -0.0953 -0.8442
vn 0.5896 -0.0456 -0.8064
vn 0.9943 -0.1066 0.0093
vn 0.9787 -0.2017 0.0371
vn 0.9610 -0.2561 0.1045
vn 0.1111 -0.2082 -0.9718
vn 0.1029 -0.0564 -0.9931
vn 0.1605 0.0003 -0.9870
vn 0.2862 -0.0381 0.9574
vn 0.2431 -0.1980 0.9496
vn 0.2132 -0.3464 0.9135
vn -0.9392 -0.1544 0.3068
vn -0.9614 -0.1388 0.2376
vn -0.9756 -0.1534 0.1572
vn -0.2191 -0.4719 -0.8540
vn -0.1758 -0.3740 -0.9106
vn -0.1313 -0.4894 -0.8621
vn 0.9392 0.2168 0.2663
vn 0.9943 -0.0455 0.0964
vn 0.9908 -0.1341 0.0178
vn -0.9941 0.0277 -0.1051
vn -0.9908 0.0089 0.1349
vn -0.9919 0.0665 0.1079
vn -0.4382 0.4288 0.7900
vn -0.2430 0.2421 0.9393
vn -0.0997 0.3922 0.9144
vn 0.3533 -0.3385 0.8721
vn 0.5490 0.3799 -0.7445
vn -0.0580 -0.4591 -0.8865
vn -0.1593 -0.7863 -0.5970
vn -0.7120 -0.0745 -0.6982
vt 0.461701 0.809397
vt 0.301930 0.729761
vt 0.094158 0.499911
vt 0.498737 0.648456
vt 0.250869 0.553264
vt 0.714874 0.752530
vt 0.627854 0.740386
vt 0.227533 0.339544
vt 0.300362 0.438253
vt 0.625828 0.633709
vt 0.338991 0.679376
vt 0.653754 0.621457
vt 0.189641 0.785401
vt 0.531284 0.815038
vt 0.232114 0.729761
vt 0.806952 0.326283
vt 0.527824 0.712310
vt 0.703640 0.331352
vt 0.725736 0.123548
vt 0.557184 0.740386
vt 0.714874 0.681901
vt 0.693091 0.138725
vt 0.558638 0.706064
vt 0.944491 0.391302
vt 0.108931 0.369345
vt 0.090202 0.443431
vt 0.952837 0.467016
vt 0.108059 0.346292
vt 0.960024 0.371234
vt 0.653754 0.712739
vt 0.761990 0.055860
vt 0.265996 0.788213
vt 0.829683 0.188590
vt 0.886815 0.394232
vt 0.909606 0.471204
vt 0.826550 0.267021
vt 0.659457 0.749480
vt 0.206417 0.267620
vt 0.238389 0.812575
vt 0.882743 0.373659
vt 0.837846 0.166681
vt 0.102618 0.289588
vt 0.957957 0.321520
vt 0.918648 0.216117
vt 0.803322 0.012950
vt 0.106348 0.638847
vt 0.232551 0.755661
vt 0.798789 0.485160
vt 0.965752 0.239402
vt 0.153968 0.222285
vt 0.894228 0.312474
vt 0.856067 0.102710
vt 0.881967 0.351902
vt 0.842627 0.144082
vt 0.107159 0.331692
vt 0.958812 0.358201
vt 0.199778 0.246429
vt 0.138792 0.619338
vt 0.232114 0.797406
vt 0.967580 0.012950
vt 0.753483 0.682459
vt 0.843831 0.469074
vt 0.256421 0.022764
vt 0.824689 0.472884
vt 0.987050 0.016155
vt 0.832147 0.505580
vt 0.295109 0.018166
vt 0.782932 0.707368
vt 0.843831 0.503254
vt 0.076417 0.467161
vt 0.958695 0.494573
vt 0.833773 0.298242
vt 0.909847 0.503107
vt 0.076958 0.454690
vt 0.951531 0.482650
vt 0.837149 0.281767
vt 0.912926 0.487172
vt 0.064432 0.532285
vt 0.298790 0.687460
vt 0.825577 0.362572
vt 0.264894 0.686125
vt 0.056614 0.518895
vt 0.959622 0.549977
vt 0.837123 0.350740
vt 0.929664 0.555276
vt 0.051257 0.577890
vt 0.291936 0.641182
vt 0.824256 0.407314
vt 0.275162 0.640522
vt 0.035793 0.577862
vt 0.964581 0.612577
vt 0.838997 0.411720
vt 0.948088 0.615681
vt 0.039898 0.592711
vt 0.301778 0.620707
vt 0.403076 0.772170
vt 0.830596 0.428615
vt 0.403076 0.737417
vt 0.267017 0.619338
vt 0.012950 0.593438
vt 0.987050 0.637067
vt 0.428919 0.781443
vt 0.856067 0.440612
vt 0.428919 0.728949
vt 0.935424 0.646785
vt 0.945356 0.412724
vt 0.357115 0.854737
vt 0.331665 0.779032
vt 0.948027 0.441601
vt 0.799629 0.752473
vt 0.327972 0.853161
vt 0.906904 0.416128
vt 0.370069 0.779032
vt 0.684668 0.778429
vt 0.909575 0.445005
vt 0.655249 0.778999
vt 0.799629 0.791035
vt 0.330193 0.729131
vt 0.557184 0.775635
vt 0.363063 0.804932
vt 0.331684 0.807874
vt 0.754247 0.751428
vt 0.586563 0.768755
vt 0.566112 0.815056
vt 0.689281 0.828405
vt 0.370405 0.729131
vt 0.754247 0.791805
vt 0.657717 0.824383
vt 0.595492 0.808176
vt 0.327830 0.637821
vt 0.590400 0.642651
vt 0.164818 0.789976
vt 0.357235 0.619338
vt 0.642851 0.190721
vt 0.562581 0.649581
vt 0.406824 0.626953
vt 0.080449 0.619338
vt 0.646201 0.239681
vt 0.727583 0.656002
vt 0.597847 0.731399
vt 0.712829 0.722239
vt 0.658284 0.323708
vt 0.527919 0.666449
vt 0.661748 0.291537
vt 0.680225 0.245582
vt 0.377645 0.696957
vt 0.285191 0.477898
vt 0.483372 0.812325
vt 0.280072 0.728266
vt 0.924330 0.393087
vt 0.921760 0.373660
vt 0.678504 0.727397
vt 0.268491 0.812575
vt 0.930826 0.465310
vt 0.923786 0.327561
vt 0.941993 0.227167
vt 0.764056 0.466512
vt 0.919524 0.351927
vt 0.977463 0.013354
vt 0.833186 0.466512
vt 0.317617 0.012950
vt 0.798789 0.722800
vt 0.839639 0.522681
vt 0.934403 0.500152
vt 0.932138 0.484309
vt 0.281656 0.689101
vt 0.944784 0.554368
vt 0.283549 0.640852
vt 0.956335 0.614129
vt 0.284323 0.620942
vt 0.399765 0.754789
vt 0.961112 0.640376
vt 0.422297 0.755187
vt 0.926130 0.414426
vt 0.350867 0.779032
vt 0.928801 0.443303
vt 0.799629 0.771754
vt 0.350773 0.728949
vt 0.557184 0.796361
vt 0.753483 0.771844
vt 0.595492 0.787450
vt 0.985581 0.067358
vt 0.238180 0.070710
vt 0.259592 0.052321
vt 0.138792 0.821791
vt 0.953366 0.057503
vt 0.765454 0.639660
vt 0.120235 0.821584
vt 0.772730 0.660154
vt 0.283154 0.037949
vt 0.784440 0.682652
vt 0.128680 0.843910
vt 0.970110 0.058056
vt 0.758353 0.637393
vt 0.180368 0.432154
vt 0.759258 0.257498
vt 0.884976 0.446549
vt 0.828099 0.241547
vt 0.971226 0.428512
vt 0.101516 0.405509
vt 0.908240 0.430567
vt 0.669958 0.778714
vt 0.946692 0.427163
vt 0.342544 0.853949
vt 0.673120 0.826722
vt 0.582140 0.817526
vt 0.570535 0.766286
vt 0.348248 0.806122
vt 0.576699 0.792002
vt 0.653753 0.802281
vt 0.776512 0.794925
vt 0.776512 0.748700
vt 0.327830 0.829868
vt 0.363063 0.830170
vt 0.327830 0.753980
vt 0.373865 0.753980
vt 0.689281 0.803194
vt 0.351093 0.753886
vt 0.776117 0.771930
vt 0.671321 0.802907
vt 0.345899 0.829874
vt 0.457498 0.727404
vt 0.165986 0.548054
vt 0.260364 0.376248
vt 0.625887 0.695531
vt 0.520555 0.743605
vt 0.734596 0.339638
vt 0.406824 0.703049
vt 0.012950 0.651015
vt 0.277407 0.507014
vt 0.206214 0.619338
vt 0.706517 0.466512
vt 0.399765 0.822801
vt 0.181517 0.620770
vt 0.619265 0.470337
vt 0.422433 0.807343
vt 0.582936 0.466512
vt 0.458892 0.202188
vt 0.422433 0.843958
vt 0.727583 0.468029
vt 0.460639 0.221880
vt 0.402692 0.843997
vt 0.717439 0.778459
vt 0.429089 0.593438
vt 0.518160 0.466685
vt 0.070962 0.817001
vt 0.726094 0.791097
vt 0.457498 0.298878
vt 0.715181 0.783741
vt 0.523936 0.466512
vt 0.458951 0.311476
vt 0.719061 0.788282
vt 0.458165 0.306435
vt 0.058766 0.817583
vt 0.726094 0.778429
vt 0.431598 0.585369
vt 0.599953 0.261833
vt 0.080449 0.668491
vt 0.542336 0.274386
vt 0.076079 0.728305
vt 0.500395 0.287212
vt 0.064936 0.773359
vt 0.389801 0.564275
vt 0.039540 0.774208
vt 0.356388 0.547019
vt 0.031995 0.737396
vt 0.319737 0.531779
vt 0.030523 0.696843
vt 0.505723 0.512116
vt 0.384015 0.580847
vt 0.506522 0.550736
vt 0.346302 0.574833
vt 0.507607 0.604105
vt 0.294291 0.566034
vt 0.610540 0.298468
vt 0.545535 0.300686
vt 0.502363 0.302883
vt 0.504402 0.313331
vt 0.517745 0.511765
vt 0.548610 0.318269
vt 0.527842 0.556627
vt 0.609940 0.323717
vt 0.531284 0.618364
vt 0.660591 0.582499
vt 0.204501 0.743892
vt 0.668589 0.550878
vt 0.206214 0.710848
vt 0.668004 0.517120
vt 0.204545 0.678125
vt 0.623877 0.525891
vt 0.164692 0.675333
vt 0.610236 0.563455
vt 0.167167 0.712219
vt 0.605277 0.597358
vt 0.166352 0.745757
vt 0.511839 0.183186
vt 0.584607 0.521652
vt 0.552303 0.182624
vt 0.569857 0.561129
vt 0.598009 0.178631
vt 0.565182 0.606784
vt 0.592158 0.236754
vt 0.721184 0.600612
vt 0.550092 0.232946
vt 0.722606 0.558204
vt 0.518921 0.225772
vt 0.713819 0.525134
s 0
usemtl Material
f 89/196/1 7/19/1 13/33/1 90/198/1
f 8/22/2 7/19/2 89/196/2 58/145/2 54/138/2 53/134/2
f 6/18/3 56/142/3 57/144/3
f 3/8/4 106/224/4 4/9/4 59/147/4 88/195/4
f 6/17/5 107/226/5 5/14/5 60/148/5 1/1/5 105/222/5 2/4/5 56/143/5
f 61/150/6 13/34/6 16/40/6 62/151/6
f 5/16/7 14/36/7 31/76/7 29/72/7
f 88/195/8 1/3/8 10/26/8 91/200/8
f 67/158/9 21/53/9 20/51/9 65/155/9
f 13/33/10 7/19/10 12/31/10 16/41/10
f 3/8/11 9/25/11 11/28/11 15/38/11
f 55/141/12 3/6/12 15/37/12 63/152/12
f 66/156/13 19/49/13 17/43/13 65/155/13
f 23/57/14 22/55/14 17/42/14 19/50/14
f 83/184/15 82/183/15 25/63/15 26/67/15
f 15/38/16 11/28/16 22/55/16 23/57/16
f 62/151/17 16/40/17 21/53/17 67/158/17
f 69/163/18 26/66/18 25/64/18 68/160/18
f 87/193/19 84/186/19 24/60/19 68/159/19
f 86/190/20 83/184/20 26/67/20 69/161/20
f 84/187/21 85/189/21 27/68/21 24/61/21
f 70/164/22 29/73/22 31/77/22 71/165/22
f 70/164/23 28/71/23 34/83/23 73/167/23
f 10/26/24 1/3/24 28/70/24 30/74/24
f 64/154/25 10/27/25 30/75/25 71/165/25
f 34/82/26 32/78/26 36/86/26 38/90/26
f 60/149/27 5/15/27 33/81/27 72/166/27
f 5/16/28 29/72/28 35/84/28 33/80/28
f 28/70/29 1/3/29 32/78/29 34/82/29
f 37/88/30 39/92/30 43/103/30 41/97/30
f 73/167/31 34/83/31 38/91/31 75/169/31
f 33/80/32 35/84/32 39/92/32 37/88/32
f 72/166/33 33/81/33 37/89/33 74/168/33
f 76/171/34 41/98/34 43/104/34 77/173/34
f 74/168/35 37/89/35 41/99/35 76/170/35
f 38/90/36 36/86/36 40/94/36 42/100/36
f 75/169/37 38/91/37 42/101/37 77/172/37
f 102/219/38 97/211/38 51/127/38 81/180/38
f 91/199/39 10/27/39 45/109/39 93/203/39
f 90/197/40 13/34/40 46/112/40 92/201/40
f 61/150/41 9/24/41 44/106/41 78/174/41
f 64/154/42 14/35/42 47/115/42 79/176/42
f 96/209/43 94/206/43 50/124/43 80/179/43
f 101/218/44 99/215/44 48/118/44 80/178/44
f 104/221/45 98/213/45 49/121/45 95/208/45
f 103/220/46 100/217/46 50/125/46 94/205/46
f 8/23/47 53/135/47 52/131/47
f 8/23/48 52/131/48 4/10/48 106/225/48 3/7/48 55/140/48 7/20/48
f 54/138/49 58/145/49 89/196/49 5/16/49 107/227/49 6/18/49 57/144/49
f 100/216/50 101/218/50 80/178/50 50/126/50
f 95/207/51 96/209/51 80/179/51 48/119/51
f 10/27/52 64/154/52 79/176/52 45/109/52
f 13/34/53 61/150/53 78/174/53 46/112/53
f 98/212/54 102/219/54 81/180/54 49/122/54
f 39/93/55 75/169/55 77/172/55 43/105/55
f 36/87/56 74/168/56 76/170/56 40/95/56
f 40/96/57 76/171/57 77/173/57 42/102/57
f 32/79/58 72/166/58 74/168/58 36/87/58
f 35/85/59 73/167/59 75/169/59 39/93/59
f 1/2/60 60/149/60 72/166/60 32/79/60
f 14/35/61 64/154/61 71/165/61 31/77/61
f 29/73/62 70/164/62 73/167/62 35/85/62
f 28/71/63 70/164/63 71/165/63 30/75/63
f 85/189/64 86/191/64 69/162/64 27/68/64
f 82/182/65 87/193/65 68/159/65 25/65/65
f 27/69/66 69/163/66 68/160/66 24/62/66
f 11/29/67 62/151/67 67/158/67 22/56/67
f 18/44/68 66/156/68 65/155/68 20/51/68
f 7/21/69 55/141/69 63/152/69 12/30/69
f 22/56/70 67/158/70 65/155/70 17/43/70
f 9/24/71 61/150/71 62/151/71 11/29/71
f 19/49/72 66/156/72 87/193/72 82/182/72
f 12/31/73 18/45/73 20/52/73 21/54/73 16/41/73
f 66/157/74 18/48/74 84/187/74 87/194/74
f 23/57/75 19/50/75 82/183/75 83/184/75
f 49/123/76 81/181/76 96/209/76 95/207/76
f 97/210/77 103/220/77 94/205/77 51/128/77
f 99/214/78 104/221/78 95/208/78 48/120/78
f 81/181/79 51/129/79 94/206/79 96/209/79
f 14/35/80 90/197/80 92/201/80 47/115/80
f 9/24/81 91/199/81 93/203/81 44/106/81
f 3/8/82 88/195/82 91/200/82 9/25/82
f 5/16/83 89/196/83 90/198/83 14/36/83
f 44/107/84 93/204/84 104/221/84 99/214/84
f 47/116/85 92/202/85 103/220/85 97/210/85
f 45/110/86 79/177/86 102/219/86 98/212/86
f 46/113/87 78/175/87 101/218/87 100/216/87
f 92/202/88 46/114/88 100/217/88 103/220/88
f 93/204/89 45/111/89 98/213/89 104/221/89
f 78/175/90 44/108/90 99/215/90 101/218/90
f 79/177/91 47/117/91 97/211/91 102/219/91
f 59/146/92 4/11/92 52/130/92 53/133/92 54/136/92 108/228/92
f 136/291/93 110/234/93 109/231/93 135/289/93
f 121/264/94 120/262/94 114/246/94 117/254/94
f 139/297/95 111/237/95 110/235/95 136/290/95
f 135/288/96 109/232/96 112/240/96 144/307/96
f 144/306/97 112/241/97 111/238/97 139/296/97
f 111/239/98 112/242/98 109/233/98 110/236/98
f 117/255/99 114/247/99 116/252/99 115/249/99 113/243/99
f 124/270/100 121/263/100 117/256/100 113/244/100
f 120/261/101 129/277/101 116/253/101 114/248/101
f 130/279/102 124/269/102 113/245/102 115/250/102
f 129/277/103 130/278/103 115/251/103 116/253/103
f 57/144/104 56/142/104 132/282/104 127/275/104
f 127/275/105 132/282/105 131/280/105 128/276/105
f 128/276/106 131/280/106 130/278/106 129/277/106
f 56/143/107 2/4/107 126/273/107 132/283/107
f 132/283/108 126/273/108 125/271/108 131/281/108
f 131/281/109 125/271/109 124/269/109 130/279/109
f 54/138/110 57/144/110 127/275/110 118/257/110
f 118/257/111 127/275/111 128/276/111 119/259/111
f 119/259/112 128/276/112 129/277/112 120/261/112
f 2/5/113 108/230/113 123/267/113 126/274/113
f 126/274/114 123/267/114 122/265/114 125/272/114
f 125/272/115 122/265/115 121/263/115 124/270/115
f 108/229/116 54/137/116 118/258/116 123/268/116
f 123/268/117 118/258/117 119/260/117 122/266/117
f 122/266/118 119/260/118 120/262/118 121/264/118
f 54/138/119 142/302/119 141/300/119 53/134/119
f 142/302/120 143/304/120 140/298/120 141/300/120
f 143/304/121 144/306/121 139/296/121 140/298/121
f 4/12/122 133/284/122 142/303/122 54/139/122
f 133/284/123 134/286/123 143/305/123 142/303/123
f 134/286/124 135/288/124 144/307/124 143/305/124
f 53/135/125 141/301/125 138/294/125 52/131/125
f 141/301/126 140/299/126 137/292/126 138/294/126
f 140/299/127 139/297/127 136/290/127 137/292/127
f 52/132/128 138/295/128 133/285/128 4/13/128
f 138/295/129 137/293/129 134/287/129 133/285/129
f 137/293/130 136/291/130 135/289/130 134/287/130
f 105/223/131 1/3/131 88/195/131 59/147/131 108/230/131 2/5/131
f 86/192/132 85/188/132 83/185/132
f 83/185/133 85/188/133 18/46/133 23/58/133
f 63/153/134 15/39/134 23/59/134 18/47/134 12/32/134
f 84/187/135 18/48/135 85/189/135
l 52 106
