# Blender 3.3.1
# www.blender.org
mtllib monstruo_3_caminar658.mtl
o monstruo_grande
v 0.509980 1.966376 0.340752
v 0.519642 1.120764 0.094947
v -0.628151 1.815995 0.175629
v -0.302372 1.184350 0.226166
v 0.786328 2.245871 0.071244
v 0.616898 1.554454 -0.244367
v -0.724966 2.021266 -0.251646
v -0.665046 1.735611 -0.320508
v -0.222599 2.382512 0.490783
v 0.324614 2.256938 0.507666
v -0.359399 2.352652 0.581400
v -1.076807 2.054059 -0.108322
v -0.190859 2.563575 0.141219
v 0.368783 2.395931 0.245411
v -0.929373 1.928204 0.052046
v -0.353002 2.641190 0.159575
v -0.707281 2.270221 0.576361
v -1.371910 1.955647 0.149772
v -1.102012 1.998399 0.354431
v -0.879424 2.596394 0.317896
v -0.541839 2.681947 0.223073
v -0.430647 2.310808 0.551101
v -1.058735 1.935053 0.046289
v -1.657512 0.689280 0.811779
v -1.533648 0.672611 0.864221
v -1.497442 0.506336 0.657618
v -1.573045 0.516511 0.625608
v 0.448400 2.163716 0.509158
v 0.634685 2.354802 0.307977
v 0.430657 2.279546 0.517966
v 0.496341 2.409282 0.303049
v 0.726509 1.871753 0.442130
v 0.927310 1.921762 0.356221
v 0.737799 1.939563 0.486721
v 0.877123 2.046244 0.385604
v 0.863852 1.665438 0.608815
v 0.973694 1.678806 0.576998
v 0.894882 1.681848 0.708812
v 1.002812 1.700258 0.672588
v 0.851942 1.551015 0.714964
v 1.076509 1.589041 0.643167
v 0.853273 1.550270 0.912048
v 1.191496 1.604473 0.798269
v -0.058773 2.426965 0.523309
v 0.149841 2.393593 0.518530
v -0.039273 2.537075 0.281042
v 0.166330 2.498984 0.277945
v -0.003119 2.727655 0.688339
v 0.202260 2.658546 0.657431
v 0.002138 2.854423 0.440835
v 0.206844 2.785619 0.408937
v -0.508215 1.199317 0.019673
v -0.395983 1.187694 -0.194590
v -0.043795 1.277754 -0.332301
v -0.680500 1.859980 -0.051471
v 0.541048 1.138370 -0.143861
v 0.323969 1.159739 -0.268488
v 0.039253 1.526076 -0.319257
v -0.027943 1.146098 0.198772
v 0.611880 2.045500 0.253886
v -0.204724 2.446081 0.368551
v -0.363641 2.606922 0.430536
v -0.867799 2.007662 -0.062990
v 0.326277 2.385083 0.404169
v -0.730319 2.499046 0.545722
v -1.277997 2.100352 0.393721
v -0.516230 2.597221 0.415508
v -1.608593 0.677960 0.867787
v -1.505616 0.401616 0.536736
v 0.561553 2.272030 0.451566
v 0.466323 2.390022 0.433882
v 0.811969 1.863538 0.355368
v 0.830999 2.004055 0.484295
v 0.918039 1.673755 0.591054
v 0.948909 1.690506 0.690637
v 0.958156 1.561403 0.656624
v 1.010895 1.562263 0.813806
v -0.049908 2.481573 0.400610
v 0.155672 2.447912 0.397426
v -0.031766 2.793191 0.565242
v 0.236011 2.720187 0.533155
v -1.422099 1.004888 0.827693
v -1.468940 0.831167 0.751492
v -1.634609 1.004588 0.738258
v -1.585525 0.846856 0.702131
v -1.515169 0.675599 0.646380
v -1.552833 0.982091 0.832753
v -0.002787 1.751768 0.515795
v 0.236165 2.132244 -0.178254
v 0.176382 2.508114 0.098677
v 0.061647 2.260400 0.643826
v 0.058623 2.518244 0.277576
v 0.050142 2.408816 0.519278
v 0.105123 2.838782 0.387226
v 0.098746 2.674093 0.709908
v 0.105981 2.805730 0.574748
v 0.200128 2.655212 0.320058
v 0.191005 2.514075 0.604221
v -0.045206 2.568552 0.627110
v -0.038456 2.711238 0.340964
v -0.058510 2.641514 0.484746
v 0.210554 2.584548 0.461904
v 0.080314 2.692833 0.310447
v 0.073244 2.530370 0.635133
v 0.592755 1.630725 0.000835
v -0.556192 1.540959 0.198968
v 0.686500 1.764896 -0.210343
v 0.164174 1.130624 0.204586
v -0.293283 0.250153 -0.384743
v -0.431297 0.181923 -0.274137
v -0.469455 0.330232 -0.473856
v -0.335484 0.335621 -0.496968
v 0.253393 -0.019250 0.055513
v 0.182502 -0.032880 -0.022210
v 0.264162 -0.024166 0.017699
v 0.233560 -0.029775 -0.009301
v 0.193897 -0.019900 0.063723
v 0.060505 0.843927 -0.096573
v 0.110042 0.602993 -0.029669
v 0.128071 0.299978 -0.009737
v 0.152425 0.271458 0.168296
v 0.147510 0.517720 0.246992
v 0.170603 0.792113 0.290457
v 0.275317 0.263995 0.148636
v 0.355819 0.510811 0.215835
v 0.461955 0.835938 0.225692
v 0.315191 0.843284 -0.072042
v 0.287313 0.583679 0.006781
v 0.233488 0.287886 0.014434
v 0.297265 0.275192 0.069789
v 0.396043 0.565099 0.096010
v 0.485565 0.849607 0.036101
v -0.214673 0.908410 0.344769
v -0.225825 0.600247 0.186496
v -0.243403 0.391083 0.028229
v -0.525981 0.420881 0.007170
v -0.509042 0.675911 0.143680
v -0.501805 0.928544 0.225556
v -0.534558 0.593136 -0.204191
v -0.516510 0.825226 -0.062611
v -0.514896 0.934561 -0.037895
v -0.124809 0.856862 -0.059881
v -0.174881 0.782759 -0.097456
v -0.238207 0.611098 -0.202088
vn -0.0060 0.5913 -0.8064
vn -0.0150 0.0837 -0.9964
vn 0.4556 -0.2866 -0.8428
vn -0.3215 -0.2539 0.9122
vn 0.9250 -0.2650 0.2723
vn 0.6168 0.7440 0.2569
vn 0.2244 0.9063 -0.3581
vn 0.4194 -0.2578 0.8704
vn -0.1192 0.8920 0.4360
vn -0.1208 0.5980 -0.7923
vn -0.1639 -0.5414 0.8246
vn -0.3730 -0.8695 -0.3238
vn -0.2520 -0.1765 0.9515
vn 0.3070 -0.8831 0.3548
vn 0.9472 -0.2221 0.2314
vn 0.0362 -0.8102 0.5850
vn 0.1220 0.9623 0.2432
vn 0.0189 -0.7695 0.6384
vn -0.7150 0.2078 0.6676
vn 0.9451 0.0779 -0.3173
vn -0.8463 0.0161 -0.5324
vn 0.4980 0.7348 0.4604
vn 0.1366 0.1755 0.9750
vn -0.4050 -0.5258 0.7480
vn -0.1930 0.6249 0.7565
vn -0.8886 -0.2325 0.3955
vn 0.0271 -0.5951 -0.8032
vn 0.8158 0.5650 0.1232
vn -0.4795 -0.6031 0.6375
vn 0.6730 0.5705 -0.4708
vn -0.1549 0.5440 0.8247
vn 0.9736 0.2123 -0.0837
vn 0.1962 -0.6781 -0.7083
vn 0.2208 -0.9730 -0.0678
vn -0.0261 -0.5587 -0.8289
vn -0.9454 0.3143 0.0864
vn 0.2516 0.7648 0.5931
vn 0.9870 -0.0237 -0.1590
vn 0.3241 0.5255 0.7867
vn 0.1609 0.9864 0.0336
vn -0.2975 0.8722 0.3883
vn 0.4066 0.8722 0.2718
vn 0.0664 0.9532 0.2951
vn -0.9697 0.1170 0.2143
vn 0.2667 -0.4194 0.8678
vn -0.2231 0.5445 -0.8086
vn -0.7891 -0.4766 -0.3875
vn -0.9359 -0.2791 0.2150
vn 0.1688 0.1915 -0.9669
vn -0.9631 0.2606 -0.0665
vn 0.0581 0.7958 0.6028
vn 0.4116 0.7006 0.5829
vn -0.2591 0.8715 0.4163
vn 0.9784 -0.1763 0.1082
vn -0.0577 0.7124 0.6994
vn -0.2843 -0.6010 -0.7470
vn 0.0777 -0.9969 -0.0115
vn -0.3868 -0.7633 -0.5175
vn 0.4213 0.6379 0.6447
vn -0.2383 -0.7817 -0.5764
vn -0.0938 0.9924 0.0797
vn 0.5506 0.6000 0.5804
vn 0.4494 0.2497 0.8577
vn -0.3917 0.2578 -0.8833
vn 0.0329 0.1031 0.9941
vn -0.6371 -0.6812 0.3606
vn -0.2714 0.4150 0.8684
vn -0.7183 0.6241 0.3074
vn -0.3726 -0.8618 -0.3443
vn 0.1960 0.3383 0.9204
vn 0.5623 0.5249 0.6390
vn 0.2188 0.3344 0.9167
vn -0.4285 0.6307 -0.6470
vn -0.8695 0.3816 0.3136
vn 0.9569 -0.2511 0.1460
vn 0.5087 0.6499 0.5646
vn 0.3074 0.4632 -0.8312
vn -0.2647 -0.3453 0.9004
vn 0.5152 0.8303 0.2127
vn 0.3721 0.9257 0.0680
vn -0.1380 0.5132 0.8471
vn -0.4938 -0.1380 0.8585
vn 0.3027 0.7638 -0.5701
vn -0.1666 -0.6181 0.7683
vn 0.0940 0.2051 -0.9742
vn 0.9460 -0.3185 -0.0597
vn -0.9942 0.0222 -0.1053
vn -0.1054 0.2620 -0.9593
vn 0.0184 -0.6427 0.7659
vn -0.9998 0.0046 0.0190
vn 0.9616 -0.2492 -0.1152
vn 0.0009 -0.9895 -0.1443
vn 0.1808 -0.8578 0.4811
vn -0.9773 -0.1731 0.1222
vn -0.9702 -0.2317 -0.0704
vn 0.9840 -0.0664 -0.1655
vn -0.0728 0.7238 -0.6861
vn -0.0700 -0.8068 -0.5866
vn 0.0313 -0.9885 0.1478
vn 0.1315 -0.3185 0.9387
vn 0.2340 0.0736 -0.9695
vn 0.9534 -0.1546 0.2591
vn 0.6588 0.0569 -0.7501
vn 0.4285 -0.5096 -0.7462
vn 0.5386 -0.3154 -0.7813
vn 0.6215 -0.1375 -0.7713
vn 0.9852 -0.1440 0.0930
vn 0.9470 -0.2932 0.1310
vn 0.9238 -0.3394 0.1772
vn 0.0286 -0.4962 -0.8677
vn 0.1221 -0.2726 -0.9544
vn 0.2033 -0.0572 -0.9775
vn 0.2334 0.3020 0.9243
vn 0.1961 -0.1287 0.9721
vn 0.1320 -0.2998 0.9448
vn -0.9455 -0.0000 0.3255
vn -0.9771 -0.0406 0.2089
vn -0.9911 -0.0544 0.1212
vn -0.1754 -0.4912 -0.8532
vn -0.0198 0.3265 -0.9450
vn -0.0236 0.5240 -0.8514
vn 0.9185 0.2002 0.3410
vn 0.9607 -0.2319 0.1523
vn 0.9823 -0.1835 -0.0364
vn -0.9766 0.0689 -0.2035
vn -0.9988 0.0105 0.0472
vn -0.9973 0.0346 0.0649
vn -0.4907 0.3807 0.7838
vn -0.3107 -0.3655 0.8774
vn -0.1905 -0.5161 0.8351
vn 0.4616 -0.2940 0.8370
vn 0.4006 0.4283 -0.8100
vn -0.1490 -0.4565 -0.8772
vn -0.1445 -0.7961 -0.5877
vn -0.8156 -0.1244 -0.5651
vt 0.461701 0.809397
vt 0.301930 0.729761
vt 0.094158 0.499911
vt 0.498737 0.648456
vt 0.250869 0.553264
vt 0.714874 0.752530
vt 0.627854 0.740386
vt 0.227533 0.339544
vt 0.300362 0.438253
vt 0.625828 0.633709
vt 0.338991 0.679376
vt 0.653754 0.621457
vt 0.189641 0.785401
vt 0.531284 0.815038
vt 0.232114 0.729761
vt 0.806952 0.326283
vt 0.527824 0.712310
vt 0.703640 0.331352
vt 0.725736 0.123548
vt 0.557184 0.740386
vt 0.714874 0.681901
vt 0.693091 0.138725
vt 0.558638 0.706064
vt 0.944491 0.391302
vt 0.108931 0.369345
vt 0.090202 0.443431
vt 0.952837 0.467016
vt 0.108059 0.346292
vt 0.960024 0.371234
vt 0.653754 0.712739
vt 0.761990 0.055860
vt 0.265996 0.788213
vt 0.829683 0.188590
vt 0.886815 0.394232
vt 0.909606 0.471204
vt 0.826550 0.267021
vt 0.659457 0.749480
vt 0.206417 0.267620
vt 0.238389 0.812575
vt 0.882743 0.373659
vt 0.837846 0.166681
vt 0.102618 0.289588
vt 0.957957 0.321520
vt 0.918648 0.216117
vt 0.803322 0.012950
vt 0.106348 0.638847
vt 0.232551 0.755661
vt 0.798789 0.485160
vt 0.965752 0.239402
vt 0.153968 0.222285
vt 0.894228 0.312474
vt 0.856067 0.102710
vt 0.881967 0.351902
vt 0.842627 0.144082
vt 0.107159 0.331692
vt 0.958812 0.358201
vt 0.199778 0.246429
vt 0.138792 0.619338
vt 0.232114 0.797406
vt 0.967580 0.012950
vt 0.753483 0.682459
vt 0.843831 0.469074
vt 0.256421 0.022764
vt 0.824689 0.472884
vt 0.987050 0.016155
vt 0.832147 0.505580
vt 0.295109 0.018166
vt 0.782932 0.707368
vt 0.843831 0.503254
vt 0.076417 0.467161
vt 0.958695 0.494573
vt 0.833773 0.298242
vt 0.909847 0.503107
vt 0.076958 0.454690
vt 0.951531 0.482650
vt 0.837149 0.281767
vt 0.912926 0.487172
vt 0.064432 0.532285
vt 0.298790 0.687460
vt 0.825577 0.362572
vt 0.264894 0.686125
vt 0.056614 0.518895
vt 0.959622 0.549977
vt 0.837123 0.350740
vt 0.929664 0.555276
vt 0.051257 0.577890
vt 0.291936 0.641182
vt 0.824256 0.407314
vt 0.275162 0.640522
vt 0.035793 0.577862
vt 0.964581 0.612577
vt 0.838997 0.411720
vt 0.948088 0.615681
vt 0.039898 0.592711
vt 0.301778 0.620707
vt 0.403076 0.772170
vt 0.830596 0.428615
vt 0.403076 0.737417
vt 0.267017 0.619338
vt 0.012950 0.593438
vt 0.987050 0.637067
vt 0.428919 0.781443
vt 0.856067 0.440612
vt 0.428919 0.728949
vt 0.935424 0.646785
vt 0.945356 0.412724
vt 0.357115 0.854737
vt 0.331665 0.779032
vt 0.948027 0.441601
vt 0.799629 0.752473
vt 0.327972 0.853161
vt 0.906904 0.416128
vt 0.370069 0.779032
vt 0.684668 0.778429
vt 0.909575 0.445005
vt 0.655249 0.778999
vt 0.799629 0.791035
vt 0.330193 0.729131
vt 0.557184 0.775635
vt 0.363063 0.804932
vt 0.331684 0.807874
vt 0.754247 0.751428
vt 0.586563 0.768755
vt 0.566112 0.815056
vt 0.689281 0.828405
vt 0.370405 0.729131
vt 0.754247 0.791805
vt 0.657717 0.824383
vt 0.595492 0.808176
vt 0.327830 0.637821
vt 0.590400 0.642651
vt 0.164818 0.789976
vt 0.357235 0.619338
vt 0.642851 0.190721
vt 0.562581 0.649581
vt 0.406824 0.626953
vt 0.080449 0.619338
vt 0.646201 0.239681
vt 0.727583 0.656002
vt 0.597847 0.731399
vt 0.712829 0.722239
vt 0.658284 0.323708
vt 0.527919 0.666449
vt 0.661748 0.291537
vt 0.680225 0.245582
vt 0.377645 0.696957
vt 0.285191 0.477898
vt 0.483372 0.812325
vt 0.280072 0.728266
vt 0.924330 0.393087
vt 0.921760 0.373660
vt 0.678504 0.727397
vt 0.268491 0.812575
vt 0.930826 0.465310
vt 0.923786 0.327561
vt 0.941993 0.227167
vt 0.764056 0.466512
vt 0.919524 0.351927
vt 0.977463 0.013354
vt 0.833186 0.466512
vt 0.317617 0.012950
vt 0.798789 0.722800
vt 0.839639 0.522681
vt 0.934403 0.500152
vt 0.932138 0.484309
vt 0.281656 0.689101
vt 0.944784 0.554368
vt 0.283549 0.640852
vt 0.956335 0.614129
vt 0.284323 0.620942
vt 0.399765 0.754789
vt 0.961112 0.640376
vt 0.422297 0.755187
vt 0.926130 0.414426
vt 0.350867 0.779032
vt 0.928801 0.443303
vt 0.799629 0.771754
vt 0.350773 0.728949
vt 0.557184 0.796361
vt 0.753483 0.771844
vt 0.595492 0.787450
vt 0.985581 0.067358
vt 0.238180 0.070710
vt 0.259592 0.052321
vt 0.138792 0.821791
vt 0.953366 0.057503
vt 0.765454 0.639660
vt 0.120235 0.821584
vt 0.772730 0.660154
vt 0.283154 0.037949
vt 0.784440 0.682652
vt 0.128680 0.843910
vt 0.970110 0.058056
vt 0.758353 0.637393
vt 0.180368 0.432154
vt 0.759258 0.257498
vt 0.884976 0.446549
vt 0.828099 0.241547
vt 0.971226 0.428512
vt 0.101516 0.405509
vt 0.908240 0.430567
vt 0.669958 0.778714
vt 0.946692 0.427163
vt 0.342544 0.853949
vt 0.673120 0.826722
vt 0.582140 0.817526
vt 0.570535 0.766286
vt 0.348248 0.806122
vt 0.576699 0.792002
vt 0.653753 0.802281
vt 0.776512 0.794925
vt 0.776512 0.748700
vt 0.327830 0.829868
vt 0.363063 0.830170
vt 0.327830 0.753980
vt 0.373865 0.753980
vt 0.689281 0.803194
vt 0.351093 0.753886
vt 0.776117 0.771930
vt 0.671321 0.802907
vt 0.345899 0.829874
vt 0.457498 0.727404
vt 0.165986 0.548054
vt 0.260364 0.376248
vt 0.625887 0.695531
vt 0.520555 0.743605
vt 0.734596 0.339638
vt 0.406824 0.703049
vt 0.012950 0.651015
vt 0.277407 0.507014
vt 0.206214 0.619338
vt 0.706517 0.466512
vt 0.399765 0.822801
vt 0.181517 0.620770
vt 0.619265 0.470337
vt 0.422433 0.807343
vt 0.582936 0.466512
vt 0.458892 0.202188
vt 0.422433 0.843958
vt 0.727583 0.468029
vt 0.460639 0.221880
vt 0.402692 0.843997
vt 0.717439 0.778459
vt 0.429089 0.593438
vt 0.518160 0.466685
vt 0.070962 0.817001
vt 0.726094 0.791097
vt 0.457498 0.298878
vt 0.715181 0.783741
vt 0.523936 0.466512
vt 0.458951 0.311476
vt 0.719061 0.788282
vt 0.458165 0.306435
vt 0.058766 0.817583
vt 0.726094 0.778429
vt 0.431598 0.585369
vt 0.599953 0.261833
vt 0.080449 0.668491
vt 0.542336 0.274386
vt 0.076079 0.728305
vt 0.500395 0.287212
vt 0.064936 0.773359
vt 0.389801 0.564275
vt 0.039540 0.774208
vt 0.356388 0.547019
vt 0.031995 0.737396
vt 0.319737 0.531779
vt 0.030523 0.696843
vt 0.505723 0.512116
vt 0.384015 0.580847
vt 0.506522 0.550736
vt 0.346302 0.574833
vt 0.507607 0.604105
vt 0.294291 0.566034
vt 0.610540 0.298468
vt 0.545535 0.300686
vt 0.502363 0.302883
vt 0.504402 0.313331
vt 0.517745 0.511765
vt 0.548610 0.318269
vt 0.527842 0.556627
vt 0.609940 0.323717
vt 0.531284 0.618364
vt 0.660591 0.582499
vt 0.204501 0.743892
vt 0.668589 0.550878
vt 0.206214 0.710848
vt 0.668004 0.517120
vt 0.204545 0.678125
vt 0.623877 0.525891
vt 0.164692 0.675333
vt 0.610236 0.563455
vt 0.167167 0.712219
vt 0.605277 0.597358
vt 0.166352 0.745757
vt 0.511839 0.183186
vt 0.584607 0.521652
vt 0.552303 0.182624
vt 0.569857 0.561129
vt 0.598009 0.178631
vt 0.565182 0.606784
vt 0.592158 0.236754
vt 0.721184 0.600612
vt 0.550092 0.232946
vt 0.722606 0.558204
vt 0.518921 0.225772
vt 0.713819 0.525134
s 0
usemtl Material
f 89/196/1 7/19/1 13/33/1 90/198/1
f 8/22/2 7/19/2 89/196/2 58/145/2 54/138/2 53/134/2
f 6/18/3 56/142/3 57/144/3
f 3/8/4 106/224/4 4/9/4 59/147/4 88/195/4
f 6/17/5 107/226/5 5/14/5 60/148/5 1/1/5 105/222/5 2/4/5 56/143/5
f 61/150/6 13/34/6 16/40/6 62/151/6
f 5/16/7 14/36/7 31/76/7 29/72/7
f 88/195/8 1/3/8 10/26/8 91/200/8
f 67/158/9 21/53/9 20/51/9 65/155/9
f 13/33/10 7/19/10 12/31/10 16/41/10
f 3/8/11 9/25/11 11/28/11 15/38/11
f 55/141/12 3/6/12 15/37/12 63/152/12
f 66/156/13 19/49/13 17/43/13 65/155/13
f 23/57/14 22/55/14 17/42/14 19/50/14
f 83/184/15 82/183/15 25/63/15 26/67/15
f 15/38/16 11/28/16 22/55/16 23/57/16
f 62/151/17 16/40/17 21/53/17 67/158/17
f 69/163/18 26/66/18 25/64/18 68/160/18
f 87/193/19 84/186/19 24/60/19 68/159/19
f 86/190/20 83/184/20 26/67/20 69/161/20
f 84/187/21 85/189/21 27/68/21 24/61/21
f 70/164/22 29/73/22 31/77/22 71/165/22
f 70/164/23 28/71/23 34/83/23 73/167/23
f 10/26/24 1/3/24 28/70/24 30/74/24
f 64/154/25 10/27/25 30/75/25 71/165/25
f 34/82/26 32/78/26 36/86/26 38/90/26
f 60/149/27 5/15/27 33/81/27 72/166/27
f 5/16/28 29/72/28 35/84/28 33/80/28
f 28/70/29 1/3/29 32/78/29 34/82/29
f 37/88/30 39/92/30 43/103/30 41/97/30
f 73/167/31 34/83/31 38/91/31 75/169/31
f 33/80/32 35/84/32 39/92/32 37/88/32
f 72/166/33 33/81/33 37/89/33 74/168/33
f 76/171/34 41/98/34 43/104/34 77/173/34
f 74/168/35 37/89/35 41/99/35 76/170/35
f 38/90/36 36/86/36 40/94/36 42/100/36
f 75/169/37 38/91/37 42/101/37 77/172/37
f 102/219/38 97/211/38 51/127/38 81/180/38
f 91/199/39 10/27/39 45/109/39 93/203/39
f 90/197/40 13/34/40 46/112/40 92/201/40
f 61/150/41 9/24/41 44/106/41 78/174/41
f 64/154/42 14/35/42 47/115/42 79/176/42
f 96/209/43 94/206/43 50/124/43 80/179/43
f 101/218/44 99/215/44 48/118/44 80/178/44
f 104/221/45 98/213/45 49/121/45 95/208/45
f 103/220/46 100/217/46 50/125/46 94/205/46
f 8/23/47 53/135/47 52/131/47
f 8/23/48 52/131/48 4/10/48 106/225/48 3/7/48 55/140/48 7/20/48
f 54/138/49 58/145/49 89/196/49 5/16/49 107/227/49 6/18/49 57/144/49
f 100/216/50 101/218/50 80/178/50 50/126/50
f 95/207/51 96/209/51 80/179/51 48/119/51
f 10/27/52 64/154/52 79/176/52 45/109/52
f 13/34/53 61/150/53 78/174/53 46/112/53
f 98/212/54 102/219/54 81/180/54 49/122/54
f 39/93/55 75/169/55 77/172/55 43/105/55
f 36/87/56 74/168/56 76/170/56 40/95/56
f 40/96/57 76/171/57 77/173/57 42/102/57
f 32/79/58 72/166/58 74/168/58 36/87/58
f 35/85/59 73/167/59 75/169/59 39/93/59
f 1/2/60 60/149/60 72/166/60 32/79/60
f 14/35/61 64/154/61 71/165/61 31/77/61
f 29/73/62 70/164/62 73/167/62 35/85/62
f 28/71/63 70/164/63 71/165/63 30/75/63
f 85/189/64 86/191/64 69/162/64 27/68/64
f 82/182/65 87/193/65 68/159/65 25/65/65
f 27/69/66 69/163/66 68/160/66 24/62/66
f 11/29/67 62/151/67 67/158/67 22/56/67
f 18/44/68 66/156/68 65/155/68 20/51/68
f 7/21/69 55/141/69 63/152/69 12/30/69
f 22/56/70 67/158/70 65/155/70 17/43/70
f 9/24/71 61/150/71 62/151/71 11/29/71
f 19/49/72 66/156/72 87/193/72 82/182/72
f 12/31/73 18/45/73 20/52/73 21/54/73 16/41/73
f 66/157/74 18/48/74 84/187/74 87/194/74
f 23/57/75 19/50/75 82/183/75 83/184/75
f 49/123/76 81/181/76 96/209/76 95/207/76
f 97/210/77 103/220/77 94/205/77 51/128/77
f 99/214/78 104/221/78 95/208/78 48/120/78
f 81/181/79 51/129/79 94/206/79 96/209/79
f 14/35/80 90/197/80 92/201/80 47/115/80
f 9/24/81 91/199/81 93/203/81 44/106/81
f 3/8/82 88/195/82 91/200/82 9/25/82
f 5/16/83 89/196/83 90/198/83 14/36/83
f 44/107/84 93/204/84 104/221/84 99/214/84
f 47/116/85 92/202/85 103/220/85 97/210/85
f 45/110/86 79/177/86 102/219/86 98/212/86
f 46/113/87 78/175/87 101/218/87 100/216/87
f 92/202/88 46/114/88 100/217/88 103/220/88
f 93/204/89 45/111/89 98/213/89 104/221/89
f 78/175/90 44/108/90 99/215/90 101/218/90
f 79/177/91 47/117/91 97/211/91 102/219/91
f 59/146/92 4/11/92 52/130/92 53/133/92 54/136/92 108/228/92
f 136/291/93 110/234/93 109/231/93 135/289/93
f 121/264/94 120/262/94 114/246/94 117/254/94
f 139/297/95 111/237/95 110/235/95 136/290/95
f 135/288/96 109/232/96 112/240/96 144/307/96
f 144/306/97 112/241/97 111/238/97 139/296/97
f 111/239/98 112/242/98 109/233/98 110/236/98
f 117/255/99 114/247/99 116/252/99 115/249/99 113/243/99
f 124/270/100 121/263/100 117/256/100 113/244/100
f 120/261/101 129/277/101 116/253/101 114/248/101
f 130/279/102 124/269/102 113/245/102 115/250/102
f 129/277/103 130/278/103 115/251/103 116/253/103
f 57/144/104 56/142/104 132/282/104 127/275/104
f 127/275/105 132/282/105 131/280/105 128/276/105
f 128/276/106 131/280/106 130/278/106 129/277/106
f 56/143/107 2/4/107 126/273/107 132/283/107
f 132/283/108 126/273/108 125/271/108 131/281/108
f 131/281/109 125/271/109 124/269/109 130/279/109
f 54/138/110 57/144/110 127/275/110 118/257/110
f 118/257/111 127/275/111 128/276/111 119/259/111
f 119/259/112 128/276/112 129/277/112 120/261/112
f 2/5/113 108/230/113 123/267/113 126/274/113
f 126/274/114 123/267/114 122/265/114 125/272/114
f 125/272/115 122/265/115 121/263/115 124/270/115
f 108/229/116 54/137/116 118/258/116 123/268/116
f 123/268/117 118/258/117 119/260/117 122/266/117
f 122/266/118 119/260/118 120/262/118 121/264/118
f 54/138/119 142/302/119 141/300/119 53/134/119
f 142/302/120 143/304/120 140/298/120 141/300/120
f 143/304/121 144/306/121 139/296/121 140/298/121
f 4/12/122 133/284/122 142/303/122 54/139/122
f 133/284/123 134/286/123 143/305/123 142/303/123
f 134/286/124 135/288/124 144/307/124 143/305/124
f 53/135/125 141/301/125 138/294/125 52/131/125
f 141/301/126 140/299/126 137/292/126 138/294/126
f 140/299/127 139/297/127 136/290/127 137/292/127
f 52/132/128 138/295/128 133/285/128 4/13/128
f 138/295/129 137/293/129 134/287/129 133/285/129
f 137/293/130 136/291/130 135/289/130 134/287/130
f 105/223/131 1/3/131 88/195/131 59/147/131 108/230/131 2/5/131
f 86/192/132 85/188/132 83/185/132
f 83/185/133 85/188/133 18/46/133 23/58/133
f 63/153/134 15/39/134 23/59/134 18/47/134 12/32/134
f 84/187/135 18/48/135 85/189/135
l 52 106
