# Blender 3.3.1
# www.blender.org
mtllib monstruo_3_grande_caminar588.mtl
o monstruo_grande
v 0.326153 2.045138 0.169043
v 0.523527 1.175387 0.069485
v -0.719976 1.764329 0.103181
v -0.298264 1.173830 0.219479
v 0.577759 2.311774 -0.130037
v 0.544653 1.644595 -0.250295
v -0.815453 1.946953 -0.349468
v -0.723436 1.644528 -0.378994
v -0.362560 2.426517 0.353297
v 0.196482 2.326474 0.371219
v -0.504285 2.402808 0.445477
v -1.185705 2.003105 -0.230995
v -0.326310 2.560403 -0.015229
v 0.213617 2.455159 0.105312
v -1.049927 1.883929 -0.043124
v -0.488743 2.632120 -0.013852
v -0.862107 2.322748 0.437397
v -1.501283 1.952900 0.008595
v -1.246086 2.015746 0.234981
v -1.014816 2.606695 0.122578
v -0.675514 2.675612 0.033113
v -0.580859 2.357144 0.420953
v -1.181726 1.904338 -0.060379
v -1.873832 0.757687 0.761069
v -1.752229 0.740176 0.818309
v -1.721898 0.549431 0.632999
v -1.796121 0.560120 0.598062
v 0.326053 2.233638 0.359094
v 0.486757 2.416739 0.130264
v 0.305673 2.354132 0.371727
v 0.344197 2.476887 0.146623
v 0.541711 1.912382 0.199021
v 0.724111 1.958538 0.074111
v 0.574765 1.976265 0.254490
v 0.700178 2.077921 0.130623
v 0.666880 1.653282 0.246102
v 0.771495 1.663487 0.204277
v 0.710729 1.620715 0.336604
v 0.815971 1.640776 0.293018
v 0.645916 1.506309 0.295259
v 0.865030 1.545658 0.208601
v 0.667925 1.419451 0.470802
v 0.996426 1.478114 0.333237
v -0.200698 2.479702 0.388591
v 0.010001 2.455961 0.388833
v -0.182371 2.562646 0.135033
v 0.018635 2.538438 0.139766
v -0.145269 2.794097 0.531417
v 0.060652 2.725928 0.502073
v -0.146958 2.900699 0.274346
v 0.057491 2.833085 0.243669
v -0.502926 1.147515 0.012981
v -0.389399 1.134124 -0.200747
v -0.038862 1.255550 -0.338076
v -0.761860 1.786770 -0.128513
v 0.543728 1.245332 -0.155977
v 0.325278 1.269359 -0.279305
v 0.012597 1.508391 -0.346202
v -0.021840 1.139470 0.195866
v 0.414367 2.122643 0.065613
v -0.343396 2.473967 0.224338
v -0.510441 2.634712 0.259929
v -0.973246 1.940370 -0.163037
v 0.180288 2.449294 0.263433
v -0.882152 2.543383 0.367733
v -1.423425 2.120745 0.246926
v -0.662265 2.617552 0.241551
v -1.826780 0.750139 0.819270
v -1.733894 0.432119 0.524651
v 0.437626 2.330876 0.282111
v 0.325242 2.462000 0.279438
v 0.602835 1.918863 0.087729
v 0.672257 2.031579 0.233160
v 0.719368 1.661928 0.224430
v 0.763202 1.630086 0.314630
v 0.745496 1.528683 0.229107
v 0.813855 1.454694 0.360791
v -0.193639 2.519596 0.260240
v 0.012204 2.498902 0.263279
v -0.177276 2.849156 0.404089
v 0.090662 2.778202 0.372507
v -1.620470 1.059176 0.747144
v -1.676028 0.880771 0.690006
v -1.830942 1.059877 0.651957
v -1.790485 0.897253 0.636130
v -1.729329 0.717004 0.602106
v -1.752400 1.044559 0.751324
v -0.097280 1.813000 0.458634
v 0.110706 2.141294 -0.263364
v 0.034019 2.526592 -0.038741
v -0.056522 2.321480 0.529824
v -0.085532 2.548676 0.135284
v -0.089771 2.464066 0.388033
v -0.045331 2.882380 0.219701
v -0.042132 2.744007 0.555170
v -0.039611 2.864542 0.409865
v 0.050513 2.696500 0.165810
v 0.049606 2.578931 0.460663
v -0.186454 2.629980 0.483389
v -0.187609 2.747860 0.184886
v -0.203897 2.690604 0.335469
v 0.065276 2.637900 0.312672
v -0.069412 2.729610 0.154391
v -0.066847 2.594562 0.492456
v 0.406590 1.725424 0.004449
v -0.604223 1.493819 0.153538
v 0.550984 1.868806 -0.247872
v 0.172766 1.114985 0.184371
v -0.195906 0.028333 0.067480
v -0.340203 0.035653 0.190012
v -0.366299 0.031993 -0.060213
v -0.231142 0.026986 -0.075018
v 0.392495 0.195451 -0.466239
v 0.322154 0.227970 -0.538289
v 0.403352 0.213402 -0.499871
v 0.372918 0.223996 -0.525470
v 0.333188 0.189360 -0.460447
v 0.096361 0.908964 -0.176648
v 0.175278 0.744441 -0.210790
v 0.242028 0.483884 -0.351478
v 0.278146 0.374375 -0.210799
v 0.238812 0.544279 -0.019887
v 0.221242 0.760098 0.155691
v 0.399738 0.396904 -0.226691
v 0.443583 0.586168 -0.039324
v 0.502492 0.860458 0.119817
v 0.349588 0.938091 -0.159179
v 0.354973 0.737027 -0.182534
v 0.348877 0.477756 -0.332552
v 0.416217 0.449209 -0.288469
v 0.469013 0.694304 -0.110135
v 0.520376 0.931758 -0.053304
v -0.175651 0.928524 0.358481
v -0.148359 0.625040 0.325804
v -0.142770 0.378664 0.309350
v -0.427767 0.366171 0.297949
v -0.439592 0.643137 0.271721
v -0.463344 0.899081 0.237949
v -0.460905 0.392953 0.029848
v -0.470297 0.666436 0.004808
v -0.477638 0.872181 -0.036957
v -0.081038 0.831988 -0.059367
v -0.126872 0.645541 -0.035573
v -0.169300 0.437163 -0.002805
vn -0.0194 0.4943 -0.8691
vn 0.0093 -0.0193 -0.9998
vn 0.4640 -0.2047 -0.8618
vn -0.3153 -0.2106 0.9253
vn 0.9014 -0.0049 0.4330
vn 0.5807 0.7954 0.1738
vn 0.1634 0.9017 -0.4002
vn 0.5894 -0.2042 0.7816
vn -0.1286 0.9469 0.2947
vn -0.0846 0.4706 -0.8783
vn -0.1865 -0.4145 0.8907
vn -0.3730 -0.8967 -0.2381
vn -0.3141 -0.0222 0.9491
vn 0.2766 -0.8157 0.5081
vn 0.9276 -0.2473 0.2800
vn -0.0692 -0.6627 0.7457
vn 0.0867 0.9895 0.1153
vn -0.0393 -0.6907 0.7221
vn -0.7163 0.3242 0.6180
vn 0.9541 -0.0128 -0.2991
vn -0.8328 0.0017 -0.5536
vn 0.5655 0.7256 0.3921
vn 0.3791 0.0748 0.9223
vn -0.3103 -0.5357 0.7853
vn -0.1515 0.6489 0.7456
vn -0.8333 -0.2505 0.4928
vn -0.2326 -0.4828 -0.8443
vn 0.8877 0.4603 -0.0039
vn -0.4034 -0.6104 0.6816
vn 0.7042 0.6386 -0.3103
vn 0.1650 0.2553 0.9527
vn 0.9669 0.1271 -0.2213
vn -0.0664 -0.4502 -0.8905
vn 0.0352 -0.8630 -0.5040
vn -0.2143 -0.1368 -0.9671
vn -0.8591 0.3526 0.3710
vn 0.4460 0.3941 0.8036
vn 0.9831 -0.0248 -0.1812
vn 0.3311 0.5999 0.7284
vn 0.0995 0.9917 -0.0819
vn -0.3465 0.8984 0.2697
vn 0.3533 0.9145 0.1973
vn 0.0560 0.9748 0.2157
vn -0.9667 0.1218 0.2249
vn 0.2915 -0.3481 0.8910
vn -0.2466 0.4789 -0.8425
vn -0.7244 -0.5954 -0.3475
vn -0.9021 -0.3770 0.2098
vn 0.1548 0.0838 -0.9844
vn -0.9678 0.2429 -0.0666
vn 0.0556 0.8421 0.5364
vn 0.4071 0.7560 0.5126
vn -0.3317 0.8969 0.2926
vn 0.9824 -0.1591 0.0979
vn 0.1455 0.3371 0.9302
vn -0.4653 -0.1753 -0.8676
vn -0.1040 -0.8934 -0.4371
vn -0.6270 -0.5049 -0.5932
vn 0.7021 0.3529 0.6185
vn -0.4726 -0.6581 -0.5861
vn -0.1334 0.9900 0.0466
vn 0.7373 0.4816 0.4737
vn 0.5730 0.2717 0.7732
vn -0.3583 0.1762 -0.9169
vn 0.0195 0.2149 0.9764
vn -0.6834 -0.5979 0.4189
vn -0.2957 0.5344 0.7918
vn -0.7309 0.6595 0.1757
vn -0.3621 -0.8691 -0.3371
vn 0.1429 0.4787 0.8663
vn 0.5188 0.6284 0.5796
vn 0.1628 0.3957 0.9038
vn -0.3798 0.5258 -0.7611
vn -0.8805 0.4213 0.2175
vn 0.9362 -0.2597 0.2369
vn 0.5083 0.7007 0.5007
vn 0.2863 0.4000 -0.8706
vn -0.2433 -0.2771 0.9295
vn 0.5042 0.8533 0.1331
vn 0.2947 0.9548 -0.0380
vn -0.1800 0.5587 0.8096
vn -0.4990 -0.0674 0.8640
vn 0.1746 0.7251 -0.6661
vn -0.1537 -0.5582 0.8154
vn 0.0931 0.1185 -0.9886
vn 0.9489 -0.3108 -0.0538
vn -0.9947 -0.0074 -0.1021
vn -0.1093 0.1871 -0.9762
vn 0.0531 -0.5789 0.8137
vn -0.9994 -0.0063 0.0353
vn 0.9622 -0.2451 -0.1186
vn 0.0495 -0.9944 -0.0936
vn 0.2305 -0.4354 0.8702
vn -0.9548 -0.2972 0.0046
vn -0.9553 -0.2794 0.0967
vn 0.9854 -0.0891 -0.1451
vn -0.1264 0.1991 -0.9718
vn -0.0351 -0.9992 0.0182
vn 0.0495 -0.8925 -0.4484
vn 0.1946 -0.7603 0.6197
vn 0.1937 0.6113 -0.7673
vn 0.9721 -0.1887 0.1396
vn 0.6258 0.5051 -0.5943
vn 0.4692 -0.2878 -0.8349
vn 0.5399 0.0963 -0.8362
vn 0.6011 0.3856 -0.7000
vn 0.9957 -0.0516 0.0769
vn 0.9762 -0.2163 0.0142
vn 0.9717 -0.2352 0.0225
vn 0.1388 -0.3518 -0.9257
vn 0.0947 0.1759 -0.9798
vn 0.1638 0.4960 -0.8527
vn 0.2221 0.0406 0.9742
vn 0.2537 -0.5600 0.7887
vn 0.2128 -0.7098 0.6714
vn -0.9340 -0.1870 0.3044
vn -0.9412 -0.3112 0.1313
vn -0.9627 -0.2676 0.0394
vn -0.1238 -0.5214 -0.8443
vn -0.0962 -0.1549 -0.9832
vn -0.1095 -0.1110 -0.9878
vn 0.8958 0.3079 0.3205
vn 0.9877 -0.0401 0.1511
vn 0.9965 -0.0813 -0.0170
vn -0.9794 -0.0547 -0.1944
vn -0.9951 -0.0534 0.0830
vn -0.9929 -0.0275 0.1159
vn -0.5418 0.3761 0.7516
vn -0.2882 -0.0244 0.9572
vn -0.1128 0.0148 0.9935
vn 0.5110 -0.0801 0.8559
vn 0.4411 0.3087 -0.8427
vn -0.1075 -0.5207 -0.8469
vn -0.1636 -0.8584 -0.4861
vn -0.7901 -0.1385 -0.5971
vt 0.882279 0.260085
vt 0.436089 0.649131
vt 0.117664 0.305524
vt 0.860974 0.338762
vt 0.079561 0.383885
vt 0.278417 0.728674
vt 0.111517 0.716819
vt 0.301243 0.337859
vt 0.232943 0.387386
vt 0.111517 0.662267
vt 0.671871 0.687525
vt 0.175114 0.511099
vt 0.930991 0.712692
vt 0.796001 0.259488
vt 0.522181 0.649131
vt 0.719621 0.316178
vt 0.801110 0.310020
vt 0.698705 0.366293
vt 0.510656 0.337024
vt 0.023033 0.717149
vt 0.367094 0.730187
vt 0.507246 0.358198
vt 0.018976 0.695717
vt 0.103380 0.570561
vt 0.268725 0.266033
vt 0.143950 0.273348
vt 0.098384 0.631539
vt 0.301351 0.259488
vt 0.128079 0.559933
vt 0.480438 0.333338
vt 0.348619 0.714075
vt 0.604958 0.268707
vt 0.031105 0.562973
vt 0.043818 0.625810
vt 0.721993 0.282954
vt 0.329365 0.336360
vt 0.302724 0.713315
vt 0.030374 0.549675
vt 0.582817 0.260846
vt 0.875347 0.642471
vt 0.380514 0.272320
vt 0.124895 0.517524
vt 0.813390 0.578569
vt 0.436089 0.332372
vt 0.956124 0.588845
vt 0.367094 0.692599
vt 0.367094 0.522797
vt 0.871643 0.594841
vt 0.398138 0.324445
vt 0.043891 0.509019
vt 0.796001 0.641153
vt 0.491075 0.268473
vt 0.032114 0.534706
vt 0.552485 0.259488
vt 0.331566 0.259909
vt 0.129819 0.544964
vt 0.339759 0.337186
vt 0.913298 0.588845
vt 0.317584 0.707220
vt 0.845734 0.463378
vt 0.311567 0.646434
vt 0.944558 0.353645
vt 0.398138 0.462439
vt 0.920230 0.354337
vt 0.870057 0.463781
vt 0.929709 0.374247
vt 0.357807 0.478584
vt 0.347994 0.663056
vt 0.944558 0.373825
vt 0.097076 0.285727
vt 0.229765 0.651022
vt 0.758050 0.297859
vt 0.168317 0.651042
vt 0.119329 0.272208
vt 0.094178 0.643292
vt 0.222768 0.636959
vt 0.746872 0.283208
vt 0.174541 0.636975
vt 0.045175 0.638147
vt 0.080672 0.327471
vt 0.442544 0.673801
vt 0.734592 0.339187
vt 0.484453 0.673801
vt 0.070725 0.319456
vt 0.218298 0.685110
vt 0.751374 0.331694
vt 0.180611 0.684911
vt 0.062412 0.356092
vt 0.455575 0.702696
vt 0.724658 0.367821
vt 0.476314 0.702696
vt 0.043357 0.357400
vt 0.210236 0.723455
vt 0.742364 0.370210
vt 0.189444 0.723462
vt 0.050281 0.367705
vt 0.444942 0.715336
vt 0.810526 0.722486
vt 0.728448 0.380153
vt 0.853695 0.722486
vt 0.487920 0.715336
vt 0.018975 0.371756
vt 0.232852 0.738567
vt 0.796001 0.739289
vt 0.758050 0.386241
vt 0.861207 0.739289
vt 0.167770 0.738589
vt 0.100634 0.583041
vt 0.712300 0.698974
vt 0.802197 0.701507
vt 0.098640 0.600731
vt 0.972705 0.287497
vt 0.747907 0.696578
vt 0.052045 0.577939
vt 0.849895 0.701507
vt 0.710445 0.675017
vt 0.050052 0.595630
vt 0.746553 0.677603
vt 0.924885 0.287497
vt 0.797725 0.671259
vt 0.981025 0.313792
vt 0.715147 0.730011
vt 0.752543 0.724602
vt 0.973919 0.259495
vt 0.967002 0.332143
vt 0.934252 0.306472
vt 0.715328 0.644023
vt 0.847669 0.671259
vt 0.923848 0.259495
vt 0.753088 0.649631
vt 0.920230 0.324823
vt 0.068284 0.665533
vt 0.630362 0.705721
vt 0.712055 0.621316
vt 0.966165 0.712391
vt 0.519769 0.388732
vt 0.031375 0.663704
vt 0.592215 0.695479
vt 0.581836 0.620019
vt 0.750017 0.621843
vt 0.569690 0.667298
vt 0.581066 0.387596
vt 0.531739 0.516092
vt 0.642835 0.625048
vt 0.273616 0.509019
vt 0.070982 0.710642
vt 0.316851 0.732164
vt 0.684917 0.393810
vt 0.816625 0.338063
vt 0.644803 0.392946
vt 0.602800 0.367236
vt 0.671871 0.661666
vt 0.181146 0.386242
vt 0.855113 0.259897
vt 0.463196 0.649131
vt 0.077903 0.567886
vt 0.078993 0.554271
vt 0.322237 0.720993
vt 0.070972 0.628379
vt 0.834014 0.651825
vt 0.084160 0.512738
vt 0.838315 0.596273
vt 0.320679 0.509019
vt 0.080733 0.539302
vt 0.857365 0.464048
vt 0.931678 0.351118
vt 0.335174 0.488977
vt 0.367094 0.673623
vt 0.939667 0.384854
vt 0.199177 0.651021
vt 0.069465 0.641494
vt 0.198664 0.632807
vt 0.464209 0.672968
vt 0.199604 0.684998
vt 0.465945 0.702696
vt 0.199840 0.723459
vt 0.466714 0.715004
vt 0.832520 0.720483
vt 0.200177 0.738589
vt 0.829423 0.735282
vt 0.076340 0.580490
vt 0.826046 0.701507
vt 0.074346 0.598181
vt 0.948795 0.287497
vt 0.823088 0.670800
vt 0.959731 0.307426
vt 0.948976 0.259488
vt 0.941524 0.331189
vt 0.875347 0.491894
vt 0.391834 0.432095
vt 0.377694 0.448634
vt 0.915590 0.478791
vt 0.834644 0.488373
vt 0.326937 0.619279
vt 0.938593 0.478810
vt 0.335216 0.632947
vt 0.358601 0.463790
vt 0.348787 0.648138
vt 0.927106 0.463378
vt 0.854274 0.489560
vt 0.315804 0.619182
vt 0.212520 0.321385
vt 0.644070 0.318501
vt 0.018976 0.592450
vt 0.663817 0.276029
vt 0.129819 0.597828
vt 0.224108 0.269832
vt 0.051049 0.586785
vt 0.728499 0.676310
vt 0.099637 0.591886
vt 0.730103 0.697776
vt 0.734390 0.646904
vt 0.920230 0.314550
vt 0.981025 0.324065
vt 0.732426 0.727384
vt 0.950683 0.319044
vt 0.753088 0.663662
vt 0.920230 0.273492
vt 0.977552 0.273492
vt 0.752543 0.710647
vt 0.709822 0.714522
vt 0.796001 0.686127
vt 0.853178 0.686127
vt 0.709822 0.659561
vt 0.824792 0.685890
vt 0.948939 0.273488
vt 0.731549 0.661651
vt 0.730449 0.712624
vt 0.878850 0.297575
vt 0.096711 0.342677
vt 0.285581 0.357771
vt 0.108549 0.696221
vt 0.804979 0.293594
vt 0.708839 0.350023
vt 0.668288 0.644023
vt 0.436089 0.526409
vt 0.145034 0.385321
vt 0.919159 0.607821
vt 0.247387 0.613831
vt 0.970304 0.416607
vt 0.947808 0.608020
vt 0.704660 0.516092
vt 0.970304 0.403829
vt 0.750017 0.516884
vt 0.618892 0.516092
vt 0.920230 0.404231
vt 0.273616 0.612878
vt 0.642836 0.516847
vt 0.938584 0.415207
vt 0.924281 0.443436
vt 0.075400 0.489812
vt 0.855524 0.444402
vt 0.531739 0.629156
vt 0.934913 0.435583
vt 0.576828 0.496673
vt 0.931440 0.443424
vt 0.848383 0.444289
vt 0.592622 0.497116
vt 0.934913 0.440184
vt 0.586164 0.496977
vt 0.517161 0.630156
vt 0.920230 0.438606
vt 0.085942 0.490043
vt 0.585376 0.420489
vt 0.510472 0.551446
vt 0.582586 0.444044
vt 0.504260 0.576063
vt 0.581388 0.469636
vt 0.508131 0.602400
vt 0.103684 0.463024
vt 0.477645 0.604263
vt 0.118194 0.440373
vt 0.454885 0.581958
vt 0.129418 0.415411
vt 0.438452 0.557360
vt 0.876897 0.417052
vt 0.081901 0.462161
vt 0.882279 0.393921
vt 0.081653 0.438865
vt 0.880271 0.363315
vt 0.079604 0.408162
vt 0.633117 0.418943
vt 0.615530 0.444447
vt 0.600997 0.469910
vt 0.614559 0.469949
vt 0.862035 0.416811
vt 0.638313 0.444473
vt 0.857648 0.390640
vt 0.666106 0.417503
vt 0.844696 0.362700
vt 0.167770 0.536691
vt 0.914144 0.688660
vt 0.182151 0.561697
vt 0.913298 0.663084
vt 0.189855 0.582503
vt 0.915415 0.641729
vt 0.680787 0.549268
vt 0.966165 0.641681
vt 0.684678 0.573659
vt 0.963812 0.665813
vt 0.684995 0.596421
vt 0.964308 0.688427
vt 0.584794 0.548886
vt 0.729850 0.550060
vt 0.578610 0.572959
vt 0.734888 0.574452
vt 0.569690 0.595426
vt 0.736445 0.597214
vt 0.642060 0.590920
vt 0.247172 0.543053
vt 0.641052 0.570535
vt 0.248998 0.562413
vt 0.635978 0.552556
vt 0.245738 0.579271
s 0
usemtl Material
f 89/203/1 7/19/1 13/32/1 90/205/1
f 8/22/2 7/19/2 89/203/2 58/151/2 54/142/2 53/136/2
f 6/18/3 56/148/3 57/150/3
f 3/8/4 106/231/4 4/9/4 59/153/4 88/202/4
f 6/17/5 107/233/5 5/14/5 60/154/5 1/1/5 105/229/5 2/4/5 56/149/5
f 61/156/6 13/33/6 16/38/6 62/157/6
f 5/16/7 14/35/7 31/77/7 29/72/7
f 88/202/8 1/3/8 10/26/8 91/207/8
f 67/164/9 21/53/9 20/50/9 65/161/9
f 13/32/10 7/19/10 12/30/10 16/39/10
f 3/8/11 9/25/11 11/28/11 15/36/11
f 55/147/12 3/6/12 15/37/12 63/158/12
f 66/162/13 19/48/13 17/40/13 65/160/13
f 23/57/14 22/55/14 17/41/14 19/49/14
f 83/191/15 82/190/15 25/63/15 26/67/15
f 15/36/16 11/28/16 22/55/16 23/57/16
f 62/157/17 16/38/17 21/53/17 67/164/17
f 69/169/18 26/66/18 25/64/18 68/166/18
f 87/200/19 84/193/19 24/60/19 68/165/19
f 86/197/20 83/191/20 26/67/20 69/167/20
f 84/194/21 85/196/21 27/68/21 24/61/21
f 70/170/22 29/73/22 31/78/22 71/172/22
f 70/170/23 28/71/23 34/85/23 73/174/23
f 10/26/24 1/3/24 28/70/24 30/74/24
f 64/159/25 10/27/25 30/75/25 71/171/25
f 34/84/26 32/80/26 36/88/26 38/92/26
f 60/155/27 5/15/27 33/83/27 72/173/27
f 5/16/28 29/72/28 35/86/28 33/82/28
f 28/70/29 1/3/29 32/80/29 34/84/29
f 37/90/30 39/94/30 43/105/30 41/99/30
f 73/174/31 34/85/31 38/93/31 75/176/31
f 33/82/32 35/86/32 39/94/32 37/90/32
f 72/173/33 33/83/33 37/91/33 74/175/33
f 76/178/34 41/100/34 43/106/34 77/180/34
f 74/175/35 37/91/35 41/101/35 76/177/35
f 38/92/36 36/88/36 40/96/36 42/102/36
f 75/176/37 38/93/37 42/103/37 77/179/37
f 102/226/38 97/218/38 51/129/38 81/187/38
f 91/206/39 10/27/39 45/111/39 93/210/39
f 90/204/40 13/33/40 46/114/40 92/208/40
f 61/156/41 9/24/41 44/108/41 78/181/41
f 64/159/42 14/34/42 47/117/42 79/183/42
f 96/216/43 94/213/43 50/126/43 80/186/43
f 101/225/44 99/222/44 48/120/44 80/185/44
f 104/228/45 98/220/45 49/123/45 95/215/45
f 103/227/46 100/224/46 50/127/46 94/212/46
f 8/23/47 53/137/47 52/132/47
f 8/23/48 52/132/48 4/10/48 106/232/48 3/7/48 55/146/48 7/20/48
f 54/142/49 58/151/49 89/203/49 5/16/49 107/234/49 6/18/49 57/150/49
f 100/223/50 101/225/50 80/185/50 50/128/50
f 95/214/51 96/216/51 80/186/51 48/121/51
f 10/27/52 64/159/52 79/183/52 45/111/52
f 13/33/53 61/156/53 78/181/53 46/114/53
f 98/219/54 102/226/54 81/187/54 49/124/54
f 39/95/55 75/176/55 77/179/55 43/107/55
f 36/89/56 74/175/56 76/177/56 40/97/56
f 40/98/57 76/178/57 77/180/57 42/104/57
f 32/81/58 72/173/58 74/175/58 36/89/58
f 35/87/59 73/174/59 75/176/59 39/95/59
f 1/2/60 60/155/60 72/173/60 32/81/60
f 14/34/61 64/159/61 71/171/61 31/79/61
f 29/73/62 70/170/62 73/174/62 35/87/62
f 28/71/63 70/170/63 71/172/63 30/76/63
f 85/196/64 86/198/64 69/168/64 27/68/64
f 82/189/65 87/200/65 68/165/65 25/65/65
f 27/69/66 69/169/66 68/166/66 24/62/66
f 11/29/67 62/157/67 67/164/67 22/56/67
f 18/43/68 66/162/68 65/160/68 20/51/68
f 7/21/69 55/147/69 63/158/69 12/31/69
f 22/56/70 67/164/70 65/161/70 17/42/70
f 9/24/71 61/156/71 62/157/71 11/29/71
f 19/48/72 66/162/72 87/200/72 82/189/72
f 12/30/73 18/44/73 20/52/73 21/54/73 16/39/73
f 66/163/74 18/47/74 84/194/74 87/201/74
f 23/57/75 19/49/75 82/190/75 83/191/75
f 49/125/76 81/188/76 96/216/76 95/214/76
f 97/217/77 103/227/77 94/212/77 51/130/77
f 99/221/78 104/228/78 95/215/78 48/122/78
f 81/188/79 51/131/79 94/213/79 96/216/79
f 14/34/80 90/204/80 92/208/80 47/117/80
f 9/24/81 91/206/81 93/210/81 44/108/81
f 3/8/82 88/202/82 91/207/82 9/25/82
f 5/16/83 89/203/83 90/205/83 14/35/83
f 44/109/84 93/211/84 104/228/84 99/221/84
f 47/118/85 92/209/85 103/227/85 97/217/85
f 45/112/86 79/184/86 102/226/86 98/219/86
f 46/115/87 78/182/87 101/225/87 100/223/87
f 92/209/88 46/116/88 100/224/88 103/227/88
f 93/211/89 45/113/89 98/220/89 104/228/89
f 78/182/90 44/110/90 99/222/90 101/225/90
f 79/184/91 47/119/91 97/218/91 102/226/91
f 59/152/92 4/11/92 52/133/92 53/138/92 54/141/92 108/235/92
f 136/298/93 110/241/93 109/238/93 135/296/93
f 121/271/94 120/269/94 114/253/94 117/261/94
f 139/304/95 111/244/95 110/242/95 136/297/95
f 135/295/96 109/239/96 112/247/96 144/314/96
f 144/313/97 112/248/97 111/245/97 139/303/97
f 111/246/98 112/249/98 109/240/98 110/243/98
f 117/262/99 114/254/99 116/259/99 115/256/99 113/250/99
f 124/277/100 121/270/100 117/263/100 113/251/100
f 120/268/101 129/284/101 116/260/101 114/255/101
f 130/286/102 124/276/102 113/252/102 115/257/102
f 129/284/103 130/285/103 115/258/103 116/260/103
f 57/150/104 56/148/104 132/289/104 127/282/104
f 127/282/105 132/289/105 131/287/105 128/283/105
f 128/283/106 131/287/106 130/285/106 129/284/106
f 56/149/107 2/4/107 126/280/107 132/290/107
f 132/290/108 126/280/108 125/278/108 131/288/108
f 131/288/109 125/278/109 124/276/109 130/286/109
f 54/142/110 57/150/110 127/282/110 118/264/110
f 118/264/111 127/282/111 128/283/111 119/266/111
f 119/266/112 128/283/112 129/284/112 120/268/112
f 2/5/113 108/237/113 123/274/113 126/281/113
f 126/281/114 123/274/114 122/272/114 125/279/114
f 125/279/115 122/272/115 121/270/115 124/277/115
f 108/236/116 54/143/116 118/265/116 123/275/116
f 123/275/117 118/265/117 119/267/117 122/273/117
f 122/273/118 119/267/118 120/269/118 121/271/118
f 54/144/119 142/309/119 141/307/119 53/139/119
f 142/309/120 143/311/120 140/305/120 141/307/120
f 143/311/121 144/313/121 139/303/121 140/305/121
f 4/12/122 133/291/122 142/310/122 54/145/122
f 133/291/123 134/293/123 143/312/123 142/310/123
f 134/293/124 135/295/124 144/314/124 143/312/124
f 53/140/125 141/308/125 138/301/125 52/134/125
f 141/308/126 140/306/126 137/299/126 138/301/126
f 140/306/127 139/304/127 136/297/127 137/299/127
f 52/135/128 138/302/128 133/292/128 4/13/128
f 138/302/129 137/300/129 134/294/129 133/292/129
f 137/300/130 136/298/130 135/296/130 134/294/130
f 105/230/131 1/3/131 88/202/131 59/153/131 108/237/131 2/5/131
f 86/199/132 85/195/132 83/192/132
f 83/192/133 85/195/133 18/45/133 23/58/133
f 63/158/134 15/37/134 23/59/134 18/46/134 12/31/134
f 84/194/135 18/47/135 85/196/135
l 52 106
