# Blender 3.3.1
# www.blender.org
mtllib monstruo_3_grande_caminar615.mtl
o monstruo_grande
v 0.319410 2.032942 0.199513
v 0.526464 1.212282 0.084716
v -0.737768 1.711882 0.207423
v -0.287485 1.103518 0.220565
v 0.438736 2.327883 -0.150654
v 0.502683 1.629578 -0.259644
v -0.892469 1.934309 -0.203125
v -0.773342 1.655219 -0.275979
v -0.376116 2.379469 0.475092
v 0.184668 2.301744 0.414728
v -0.504696 2.343326 0.579257
v -1.255274 1.970862 -0.039598
v -0.386181 2.542042 0.115828
v 0.158004 2.442118 0.157117
v -1.093850 1.839081 0.113013
v -0.549841 2.607764 0.142705
v -0.853359 2.246800 0.607208
v -1.536329 1.895024 0.235179
v -1.252810 1.943530 0.430172
v -1.053351 2.551551 0.342334
v -0.731727 2.641099 0.216943
v -0.580075 2.295282 0.558448
v -1.226954 1.858370 0.118238
v -1.806735 0.643343 0.936903
v -1.679169 0.624367 0.978581
v -1.667330 0.449061 0.776664
v -1.745193 0.460644 0.751224
v 0.345073 2.222281 0.384079
v 0.415206 2.424143 0.122231
v 0.298073 2.335983 0.402195
v 0.288982 2.471228 0.176269
v 0.570006 1.916560 0.156405
v 0.663041 2.024371 -0.025426
v 0.595156 1.996285 0.207935
v 0.656955 2.119256 0.052623
v 0.742168 1.698637 0.060431
v 0.808405 1.740257 -0.022808
v 0.830118 1.659044 0.103582
v 0.893559 1.710392 0.021658
v 0.762671 1.543927 0.068968
v 0.898046 1.647974 -0.098936
v 0.882308 1.430479 0.176952
v 1.079767 1.586445 -0.081820
v -0.214458 2.439629 0.491180
v -0.003885 2.416708 0.469566
v -0.222504 2.536868 0.243566
v -0.020968 2.514239 0.225198
v -0.156350 2.753288 0.634719
v 0.048125 2.687757 0.592207
v -0.173163 2.866318 0.381217
v 0.029981 2.801340 0.337841
v -0.498907 1.120892 0.010507
v -0.389064 1.155367 -0.203498
v -0.057069 1.271160 -0.333384
v -0.802075 1.754989 -0.011227
v 0.547567 1.216403 -0.153738
v 0.326673 1.209354 -0.276509
v -0.029080 1.523829 -0.327173
v -0.007971 1.148489 0.195091
v 0.360499 2.121980 0.080830
v -0.373189 2.437313 0.348776
v -0.539198 2.588599 0.415673
v -1.029577 1.907347 -0.008006
v 0.148439 2.427900 0.317340
v -0.889235 2.472258 0.562187
v -1.429465 2.043612 0.473951
v -0.691305 2.567176 0.413630
v -1.753265 0.632483 0.988682
v -1.689857 0.340099 0.661488
v 0.419452 2.334343 0.279238
v 0.294084 2.448865 0.311663
v 0.569131 1.954559 0.030039
v 0.668982 2.069635 0.157210
v 0.774074 1.722801 0.019097
v 0.861659 1.683957 0.062247
v 0.809042 1.600518 -0.028193
v 0.943054 1.518386 0.024564
v -0.218659 2.487611 0.366092
v -0.013675 2.466516 0.346819
v -0.195861 2.811218 0.510817
v 0.070637 2.743397 0.462697
v -1.561029 0.950855 0.918294
v -1.620114 0.776073 0.853951
v -1.780929 0.954083 0.847858
v -1.740184 0.793934 0.814722
v -1.680672 0.618282 0.760027
v -1.691400 0.932883 0.936100
v -0.080692 1.765990 0.509277
v 0.012241 2.139601 -0.205509
v -0.029430 2.515287 0.045043
v -0.045789 2.277212 0.605772
v -0.123134 2.524357 0.232627
v -0.105525 2.426747 0.479715
v -0.074481 2.850446 0.321072
v -0.051661 2.703564 0.651398
v -0.058211 2.827711 0.509294
v 0.018469 2.667550 0.256786
v 0.036966 2.540657 0.547693
v -0.198331 2.589791 0.585464
v -0.218802 2.716326 0.292854
v -0.224562 2.654347 0.440993
v 0.043417 2.604023 0.400838
v -0.101997 2.700175 0.254352
v -0.078445 2.555323 0.586489
v 0.375886 1.730952 -0.035297
v -0.596730 1.437969 0.225162
v 0.480081 1.850101 -0.259067
v 0.180326 1.183929 0.197110
v -0.195008 -0.004090 -0.101330
v -0.339379 0.001567 0.021013
v -0.365267 0.002094 -0.228699
v -0.230115 -0.003177 -0.243454
v 0.365020 0.016748 0.231491
v 0.282596 -0.007542 0.169743
v 0.369322 0.006962 0.193310
v 0.334787 -0.002312 0.172937
v 0.307974 0.016885 0.249924
v 0.094382 0.860785 -0.088368
v 0.138416 0.594251 0.052372
v 0.205019 0.308044 0.142284
v 0.268256 0.325673 0.311906
v 0.242379 0.581897 0.335175
v 0.232398 0.859573 0.312572
v 0.384468 0.325942 0.266748
v 0.437758 0.587209 0.258946
v 0.508251 0.928055 0.213503
v 0.351586 0.896986 -0.075889
v 0.320459 0.602138 0.055055
v 0.313634 0.312505 0.143734
v 0.388332 0.319930 0.184451
v 0.445567 0.615663 0.122164
v 0.523746 0.931443 0.024751
v -0.169699 0.831193 0.290712
v -0.144040 0.547660 0.210413
v -0.139491 0.309795 0.162580
v -0.424594 0.300173 0.150373
v -0.435504 0.574674 0.160857
v -0.458498 0.829752 0.168593
v -0.458727 0.359899 -0.110947
v -0.467441 0.636311 -0.102173
v -0.475199 0.864724 -0.107266
v -0.078826 0.826934 -0.140793
v -0.124280 0.620522 -0.147732
v -0.167128 0.407190 -0.138633
vn -0.1248 0.5407 -0.8319
vn -0.0867 0.0785 -0.9931
vn 0.4830 -0.1678 -0.8594
vn -0.2146 -0.3018 0.9289
vn 0.9435 0.0939 0.3178
vn 0.5750 0.8005 0.1692
vn 0.0102 0.9175 -0.3976
vn 0.6647 -0.2023 0.7192
vn -0.1167 0.9122 0.3928
vn -0.1973 0.5254 -0.8277
vn -0.0737 -0.4857 0.8710
vn -0.3766 -0.8803 -0.2886
vn -0.1845 -0.1168 0.9759
vn 0.3671 -0.8444 0.3903
vn 0.9569 -0.2461 0.1538
vn 0.0487 -0.7253 0.6867
vn 0.0751 0.9797 0.1860
vn 0.0532 -0.7444 0.6656
vn -0.6455 0.2591 0.7185
vn 0.9140 0.0323 -0.4044
vn -0.8903 0.0246 -0.4547
vn 0.5847 0.7635 0.2742
vn 0.6151 0.1567 0.7727
vn -0.1194 -0.5578 0.8214
vn -0.0742 0.6086 0.7900
vn -0.4066 -0.5590 0.7227
vn -0.4269 -0.5104 -0.7465
vn 0.7800 0.5749 -0.2473
vn -0.1087 -0.6440 0.7573
vn 0.3790 0.8275 -0.4142
vn 0.5844 0.1246 0.8019
vn 0.6641 0.3921 -0.6366
vn -0.4462 -0.2893 -0.8469
vn -0.1721 -0.7103 -0.6826
vn -0.6813 0.0251 -0.7315
vn -0.5512 0.0731 0.8311
vn 0.7741 0.3122 0.5506
vn 0.9703 -0.0111 -0.2417
vn 0.4062 0.5730 0.7118
vn 0.0804 0.9963 -0.0301
vn -0.3411 0.8658 0.3662
vn 0.3545 0.9127 0.2034
vn 0.0597 0.9693 0.2386
vn -0.9536 0.1056 0.2818
vn 0.3426 -0.3648 0.8658
vn -0.3000 0.4944 -0.8158
vn -0.6787 -0.5860 -0.4428
vn -0.8607 -0.4618 0.2145
vn 0.0681 0.1138 -0.9912
vn -0.9719 0.2356 -0.0003
vn 0.0790 0.8289 0.5537
vn 0.4455 0.7424 0.5003
vn -0.3015 0.8696 0.3910
vn 0.9883 -0.1473 0.0401
vn 0.5939 0.1650 0.7874
vn -0.8421 -0.0944 -0.5310
vn -0.2502 -0.7874 -0.5633
vn -0.7579 -0.5534 -0.3454
vn 0.8514 0.4077 0.3301
vn -0.5334 -0.7120 -0.4566
vn -0.1824 0.9761 0.1180
vn 0.7727 0.5789 0.2604
vn 0.6667 0.3588 0.6533
vn -0.4627 0.2371 -0.8542
vn 0.1273 0.1402 0.9819
vn -0.6225 -0.6439 0.4448
vn -0.2246 0.4516 0.8635
vn -0.7158 0.6155 0.3299
vn -0.3778 -0.8434 -0.3820
vn 0.2442 0.4080 0.8797
vn 0.5639 0.6007 0.5667
vn 0.2705 0.3345 0.9027
vn -0.4868 0.5732 -0.6591
vn -0.8473 0.3951 0.3549
vn 0.9589 -0.2658 0.0989
vn 0.5298 0.6926 0.4896
vn 0.2290 0.4243 -0.8761
vn -0.1867 -0.3013 0.9351
vn 0.5046 0.8538 0.1283
vn 0.2789 0.9603 -0.0075
vn -0.1021 0.5005 0.8597
vn -0.4030 -0.1437 0.9039
vn 0.0336 0.7608 -0.6482
vn -0.0818 -0.5747 0.8143
vn 0.0083 0.1584 -0.9873
vn 0.9483 -0.2882 -0.1327
vn -1.0000 -0.0033 -0.0084
vn -0.1923 0.2053 -0.9596
vn 0.1087 -0.6061 0.7879
vn -0.9944 -0.0228 0.1028
vn 0.9435 -0.2488 -0.2187
vn 0.1750 -0.9633 -0.2036
vn 0.2167 -0.5200 0.8262
vn -0.9144 -0.1915 0.3566
vn -0.9541 -0.2891 0.0780
vn 0.9842 -0.0810 -0.1573
vn -0.1217 0.2718 -0.9546
vn -0.0380 -0.9993 0.0022
vn 0.0857 -0.9600 0.2665
vn 0.3415 -0.1352 0.9301
vn 0.0338 -0.0842 -0.9959
vn 0.9950 -0.0647 0.0759
vn 0.4934 -0.0510 -0.8683
vn 0.4729 -0.4715 -0.7443
vn 0.5003 -0.3804 -0.7778
vn 0.4792 -0.2680 -0.8358
vn 0.9960 -0.0278 0.0848
vn 0.9764 -0.2103 0.0493
vn 0.9811 -0.1906 0.0328
vn 0.0723 -0.5106 -0.8568
vn 0.0745 -0.4330 -0.8983
vn 0.0261 -0.2937 -0.9556
vn 0.2461 0.3728 0.8947
vn 0.3381 0.0702 0.9385
vn 0.3633 -0.0471 0.9305
vn -0.9273 -0.0771 0.3664
vn -0.9426 0.0066 0.3337
vn -0.9312 -0.1163 0.3455
vn -0.1713 -0.3385 -0.9252
vn -0.1054 0.0134 -0.9943
vn -0.1150 0.0074 -0.9933
vn 0.9090 0.2454 0.3370
vn 0.9891 -0.0636 0.1330
vn 0.9961 -0.0817 -0.0330
vn -0.9823 -0.0047 -0.1874
vn -0.9949 -0.0637 0.0784
vn -0.9925 -0.0394 0.1159
vn -0.5400 0.1813 0.8219
vn -0.2864 -0.1797 0.9411
vn -0.1092 -0.1157 0.9873
vn 0.6018 -0.0887 0.7937
vn 0.3379 0.3823 -0.8601
vn -0.2143 -0.4603 -0.8615
vn -0.2228 -0.8139 -0.5366
vn -0.8524 -0.1111 -0.5110
vt 0.882279 0.260085
vt 0.436089 0.649131
vt 0.117664 0.305524
vt 0.860974 0.338762
vt 0.079561 0.383885
vt 0.278417 0.728674
vt 0.111517 0.716819
vt 0.301243 0.337859
vt 0.232943 0.387386
vt 0.111517 0.662267
vt 0.671871 0.687525
vt 0.175114 0.511099
vt 0.930991 0.712692
vt 0.796001 0.259488
vt 0.522181 0.649131
vt 0.719621 0.316178
vt 0.801110 0.310020
vt 0.698705 0.366293
vt 0.510656 0.337024
vt 0.023033 0.717149
vt 0.367094 0.730187
vt 0.507246 0.358198
vt 0.018976 0.695717
vt 0.103380 0.570561
vt 0.268725 0.266033
vt 0.143950 0.273348
vt 0.098384 0.631539
vt 0.301351 0.259488
vt 0.128079 0.559933
vt 0.480438 0.333338
vt 0.348619 0.714075
vt 0.604958 0.268707
vt 0.031105 0.562973
vt 0.043818 0.625810
vt 0.721993 0.282954
vt 0.329365 0.336360
vt 0.302724 0.713315
vt 0.030374 0.549675
vt 0.582817 0.260846
vt 0.875347 0.642471
vt 0.380514 0.272320
vt 0.124895 0.517524
vt 0.813390 0.578569
vt 0.436089 0.332372
vt 0.956124 0.588845
vt 0.367094 0.692599
vt 0.367094 0.522797
vt 0.871643 0.594841
vt 0.398138 0.324445
vt 0.043891 0.509019
vt 0.796001 0.641153
vt 0.491075 0.268473
vt 0.032114 0.534706
vt 0.552485 0.259488
vt 0.331566 0.259909
vt 0.129819 0.544964
vt 0.339759 0.337186
vt 0.913298 0.588845
vt 0.317584 0.707220
vt 0.845734 0.463378
vt 0.311567 0.646434
vt 0.944558 0.353645
vt 0.398138 0.462439
vt 0.920230 0.354337
vt 0.870057 0.463781
vt 0.929709 0.374247
vt 0.357807 0.478584
vt 0.347994 0.663056
vt 0.944558 0.373825
vt 0.097076 0.285727
vt 0.229765 0.651022
vt 0.758050 0.297859
vt 0.168317 0.651042
vt 0.119329 0.272208
vt 0.094178 0.643292
vt 0.222768 0.636959
vt 0.746872 0.283208
vt 0.174541 0.636975
vt 0.045175 0.638147
vt 0.080672 0.327471
vt 0.442544 0.673801
vt 0.734592 0.339187
vt 0.484453 0.673801
vt 0.070725 0.319456
vt 0.218298 0.685110
vt 0.751374 0.331694
vt 0.180611 0.684911
vt 0.062412 0.356092
vt 0.455575 0.702696
vt 0.724658 0.367821
vt 0.476314 0.702696
vt 0.043357 0.357400
vt 0.210236 0.723455
vt 0.742364 0.370210
vt 0.189444 0.723462
vt 0.050281 0.367705
vt 0.444942 0.715336
vt 0.810526 0.722486
vt 0.728448 0.380153
vt 0.853695 0.722486
vt 0.487920 0.715336
vt 0.018975 0.371756
vt 0.232852 0.738567
vt 0.796001 0.739289
vt 0.758050 0.386241
vt 0.861207 0.739289
vt 0.167770 0.738589
vt 0.100634 0.583041
vt 0.712300 0.698974
vt 0.802197 0.701507
vt 0.098640 0.600731
vt 0.972705 0.287497
vt 0.747907 0.696578
vt 0.052045 0.577939
vt 0.849895 0.701507
vt 0.710445 0.675017
vt 0.050052 0.595630
vt 0.746553 0.677603
vt 0.924885 0.287497
vt 0.797725 0.671259
vt 0.981025 0.313792
vt 0.715147 0.730011
vt 0.752543 0.724602
vt 0.973919 0.259495
vt 0.967002 0.332143
vt 0.934252 0.306472
vt 0.715328 0.644023
vt 0.847669 0.671259
vt 0.923848 0.259495
vt 0.753088 0.649631
vt 0.920230 0.324823
vt 0.068284 0.665533
vt 0.630362 0.705721
vt 0.712055 0.621316
vt 0.966165 0.712391
vt 0.519769 0.388732
vt 0.031375 0.663704
vt 0.592215 0.695479
vt 0.581836 0.620019
vt 0.750017 0.621843
vt 0.569690 0.667298
vt 0.581066 0.387596
vt 0.531739 0.516092
vt 0.642835 0.625048
vt 0.273616 0.509019
vt 0.070982 0.710642
vt 0.316851 0.732164
vt 0.684917 0.393810
vt 0.816625 0.338063
vt 0.644803 0.392946
vt 0.602800 0.367236
vt 0.671871 0.661666
vt 0.181146 0.386242
vt 0.855113 0.259897
vt 0.463196 0.649131
vt 0.077903 0.567886
vt 0.078993 0.554271
vt 0.322237 0.720993
vt 0.070972 0.628379
vt 0.834014 0.651825
vt 0.084160 0.512738
vt 0.838315 0.596273
vt 0.320679 0.509019
vt 0.080733 0.539302
vt 0.857365 0.464048
vt 0.931678 0.351118
vt 0.335174 0.488977
vt 0.367094 0.673623
vt 0.939667 0.384854
vt 0.199177 0.651021
vt 0.069465 0.641494
vt 0.198664 0.632807
vt 0.464209 0.672968
vt 0.199604 0.684998
vt 0.465945 0.702696
vt 0.199840 0.723459
vt 0.466714 0.715004
vt 0.832520 0.720483
vt 0.200177 0.738589
vt 0.829423 0.735282
vt 0.076340 0.580490
vt 0.826046 0.701507
vt 0.074346 0.598181
vt 0.948795 0.287497
vt 0.823088 0.670800
vt 0.959731 0.307426
vt 0.948976 0.259488
vt 0.941524 0.331189
vt 0.875347 0.491894
vt 0.391834 0.432095
vt 0.377694 0.448634
vt 0.915590 0.478791
vt 0.834644 0.488373
vt 0.326937 0.619279
vt 0.938593 0.478810
vt 0.335216 0.632947
vt 0.358601 0.463790
vt 0.348787 0.648138
vt 0.927106 0.463378
vt 0.854274 0.489560
vt 0.315804 0.619182
vt 0.212520 0.321385
vt 0.644070 0.318501
vt 0.018976 0.592450
vt 0.663817 0.276029
vt 0.129819 0.597828
vt 0.224108 0.269832
vt 0.051049 0.586785
vt 0.728499 0.676310
vt 0.099637 0.591886
vt 0.730103 0.697776
vt 0.734390 0.646904
vt 0.920230 0.314550
vt 0.981025 0.324065
vt 0.732426 0.727384
vt 0.950683 0.319044
vt 0.753088 0.663662
vt 0.920230 0.273492
vt 0.977552 0.273492
vt 0.752543 0.710647
vt 0.709822 0.714522
vt 0.796001 0.686127
vt 0.853178 0.686127
vt 0.709822 0.659561
vt 0.824792 0.685890
vt 0.948939 0.273488
vt 0.731549 0.661651
vt 0.730449 0.712624
vt 0.878850 0.297575
vt 0.096711 0.342677
vt 0.285581 0.357771
vt 0.108549 0.696221
vt 0.804979 0.293594
vt 0.708839 0.350023
vt 0.668288 0.644023
vt 0.436089 0.526409
vt 0.145034 0.385321
vt 0.919159 0.607821
vt 0.247387 0.613831
vt 0.970304 0.416607
vt 0.947808 0.608020
vt 0.704660 0.516092
vt 0.970304 0.403829
vt 0.750017 0.516884
vt 0.618892 0.516092
vt 0.920230 0.404231
vt 0.273616 0.612878
vt 0.642836 0.516847
vt 0.938584 0.415207
vt 0.924281 0.443436
vt 0.075400 0.489812
vt 0.855524 0.444402
vt 0.531739 0.629156
vt 0.934913 0.435583
vt 0.576828 0.496673
vt 0.931440 0.443424
vt 0.848383 0.444289
vt 0.592622 0.497116
vt 0.934913 0.440184
vt 0.586164 0.496977
vt 0.517161 0.630156
vt 0.920230 0.438606
vt 0.085942 0.490043
vt 0.585376 0.420489
vt 0.510472 0.551446
vt 0.582586 0.444044
vt 0.504260 0.576063
vt 0.581388 0.469636
vt 0.508131 0.602400
vt 0.103684 0.463024
vt 0.477645 0.604263
vt 0.118194 0.440373
vt 0.454885 0.581958
vt 0.129418 0.415411
vt 0.438452 0.557360
vt 0.876897 0.417052
vt 0.081901 0.462161
vt 0.882279 0.393921
vt 0.081653 0.438865
vt 0.880271 0.363315
vt 0.079604 0.408162
vt 0.633117 0.418943
vt 0.615530 0.444447
vt 0.600997 0.469910
vt 0.614559 0.469949
vt 0.862035 0.416811
vt 0.638313 0.444473
vt 0.857648 0.390640
vt 0.666106 0.417503
vt 0.844696 0.362700
vt 0.167770 0.536691
vt 0.914144 0.688660
vt 0.182151 0.561697
vt 0.913298 0.663084
vt 0.189855 0.582503
vt 0.915415 0.641729
vt 0.680787 0.549268
vt 0.966165 0.641681
vt 0.684678 0.573659
vt 0.963812 0.665813
vt 0.684995 0.596421
vt 0.964308 0.688427
vt 0.584794 0.548886
vt 0.729850 0.550060
vt 0.578610 0.572959
vt 0.734888 0.574452
vt 0.569690 0.595426
vt 0.736445 0.597214
vt 0.642060 0.590920
vt 0.247172 0.543053
vt 0.641052 0.570535
vt 0.248998 0.562413
vt 0.635978 0.552556
vt 0.245738 0.579271
s 0
usemtl Material
f 89/203/1 7/19/1 13/32/1 90/205/1
f 8/22/2 7/19/2 89/203/2 58/151/2 54/142/2 53/136/2
f 6/18/3 56/148/3 57/150/3
f 3/8/4 106/231/4 4/9/4 59/153/4 88/202/4
f 6/17/5 107/233/5 5/14/5 60/154/5 1/1/5 105/229/5 2/4/5 56/149/5
f 61/156/6 13/33/6 16/38/6 62/157/6
f 5/16/7 14/35/7 31/77/7 29/72/7
f 88/202/8 1/3/8 10/26/8 91/207/8
f 67/164/9 21/53/9 20/50/9 65/161/9
f 13/32/10 7/19/10 12/30/10 16/39/10
f 3/8/11 9/25/11 11/28/11 15/36/11
f 55/147/12 3/6/12 15/37/12 63/158/12
f 66/162/13 19/48/13 17/40/13 65/160/13
f 23/57/14 22/55/14 17/41/14 19/49/14
f 83/191/15 82/190/15 25/63/15 26/67/15
f 15/36/16 11/28/16 22/55/16 23/57/16
f 62/157/17 16/38/17 21/53/17 67/164/17
f 69/169/18 26/66/18 25/64/18 68/166/18
f 87/200/19 84/193/19 24/60/19 68/165/19
f 86/197/20 83/191/20 26/67/20 69/167/20
f 84/194/21 85/196/21 27/68/21 24/61/21
f 70/170/22 29/73/22 31/78/22 71/172/22
f 70/170/23 28/71/23 34/85/23 73/174/23
f 10/26/24 1/3/24 28/70/24 30/74/24
f 64/159/25 10/27/25 30/75/25 71/171/25
f 34/84/26 32/80/26 36/88/26 38/92/26
f 60/155/27 5/15/27 33/83/27 72/173/27
f 5/16/28 29/72/28 35/86/28 33/82/28
f 28/70/29 1/3/29 32/80/29 34/84/29
f 37/90/30 39/94/30 43/105/30 41/99/30
f 73/174/31 34/85/31 38/93/31 75/176/31
f 33/82/32 35/86/32 39/94/32 37/90/32
f 72/173/33 33/83/33 37/91/33 74/175/33
f 76/178/34 41/100/34 43/106/34 77/180/34
f 74/175/35 37/91/35 41/101/35 76/177/35
f 38/92/36 36/88/36 40/96/36 42/102/36
f 75/176/37 38/93/37 42/103/37 77/179/37
f 102/226/38 97/218/38 51/129/38 81/187/38
f 91/206/39 10/27/39 45/111/39 93/210/39
f 90/204/40 13/33/40 46/114/40 92/208/40
f 61/156/41 9/24/41 44/108/41 78/181/41
f 64/159/42 14/34/42 47/117/42 79/183/42
f 96/216/43 94/213/43 50/126/43 80/186/43
f 101/225/44 99/222/44 48/120/44 80/185/44
f 104/228/45 98/220/45 49/123/45 95/215/45
f 103/227/46 100/224/46 50/127/46 94/212/46
f 8/23/47 53/137/47 52/132/47
f 8/23/48 52/132/48 4/10/48 106/232/48 3/7/48 55/146/48 7/20/48
f 54/142/49 58/151/49 89/203/49 5/16/49 107/234/49 6/18/49 57/150/49
f 100/223/50 101/225/50 80/185/50 50/128/50
f 95/214/51 96/216/51 80/186/51 48/121/51
f 10/27/52 64/159/52 79/183/52 45/111/52
f 13/33/53 61/156/53 78/181/53 46/114/53
f 98/219/54 102/226/54 81/187/54 49/124/54
f 39/95/55 75/176/55 77/179/55 43/107/55
f 36/89/56 74/175/56 76/177/56 40/97/56
f 40/98/57 76/178/57 77/180/57 42/104/57
f 32/81/58 72/173/58 74/175/58 36/89/58
f 35/87/59 73/174/59 75/176/59 39/95/59
f 1/2/60 60/155/60 72/173/60 32/81/60
f 14/34/61 64/159/61 71/171/61 31/79/61
f 29/73/62 70/170/62 73/174/62 35/87/62
f 28/71/63 70/170/63 71/172/63 30/76/63
f 85/196/64 86/198/64 69/168/64 27/68/64
f 82/189/65 87/200/65 68/165/65 25/65/65
f 27/69/66 69/169/66 68/166/66 24/62/66
f 11/29/67 62/157/67 67/164/67 22/56/67
f 18/43/68 66/162/68 65/160/68 20/51/68
f 7/21/69 55/147/69 63/158/69 12/31/69
f 22/56/70 67/164/70 65/161/70 17/42/70
f 9/24/71 61/156/71 62/157/71 11/29/71
f 19/48/72 66/162/72 87/200/72 82/189/72
f 12/30/73 18/44/73 20/52/73 21/54/73 16/39/73
f 66/163/74 18/47/74 84/194/74 87/201/74
f 23/57/75 19/49/75 82/190/75 83/191/75
f 49/125/76 81/188/76 96/216/76 95/214/76
f 97/217/77 103/227/77 94/212/77 51/130/77
f 99/221/78 104/228/78 95/215/78 48/122/78
f 81/188/79 51/131/79 94/213/79 96/216/79
f 14/34/80 90/204/80 92/208/80 47/117/80
f 9/24/81 91/206/81 93/210/81 44/108/81
f 3/8/82 88/202/82 91/207/82 9/25/82
f 5/16/83 89/203/83 90/205/83 14/35/83
f 44/109/84 93/211/84 104/228/84 99/221/84
f 47/118/85 92/209/85 103/227/85 97/217/85
f 45/112/86 79/184/86 102/226/86 98/219/86
f 46/115/87 78/182/87 101/225/87 100/223/87
f 92/209/88 46/116/88 100/224/88 103/227/88
f 93/211/89 45/113/89 98/220/89 104/228/89
f 78/182/90 44/110/90 99/222/90 101/225/90
f 79/184/91 47/119/91 97/218/91 102/226/91
f 59/152/92 4/11/92 52/133/92 53/138/92 54/141/92 108/235/92
f 136/298/93 110/241/93 109/238/93 135/296/93
f 121/271/94 120/269/94 114/253/94 117/261/94
f 139/304/95 111/244/95 110/242/95 136/297/95
f 135/295/96 109/239/96 112/247/96 144/314/96
f 144/313/97 112/248/97 111/245/97 139/303/97
f 111/246/98 112/249/98 109/240/98 110/243/98
f 117/262/99 114/254/99 116/259/99 115/256/99 113/250/99
f 124/277/100 121/270/100 117/263/100 113/251/100
f 120/268/101 129/284/101 116/260/101 114/255/101
f 130/286/102 124/276/102 113/252/102 115/257/102
f 129/284/103 130/285/103 115/258/103 116/260/103
f 57/150/104 56/148/104 132/289/104 127/282/104
f 127/282/105 132/289/105 131/287/105 128/283/105
f 128/283/106 131/287/106 130/285/106 129/284/106
f 56/149/107 2/4/107 126/280/107 132/290/107
f 132/290/108 126/280/108 125/278/108 131/288/108
f 131/288/109 125/278/109 124/276/109 130/286/109
f 54/142/110 57/150/110 127/282/110 118/264/110
f 118/264/111 127/282/111 128/283/111 119/266/111
f 119/266/112 128/283/112 129/284/112 120/268/112
f 2/5/113 108/237/113 123/274/113 126/281/113
f 126/281/114 123/274/114 122/272/114 125/279/114
f 125/279/115 122/272/115 121/270/115 124/277/115
f 108/236/116 54/143/116 118/265/116 123/275/116
f 123/275/117 118/265/117 119/267/117 122/273/117
f 122/273/118 119/267/118 120/269/118 121/271/118
f 54/144/119 142/309/119 141/307/119 53/139/119
f 142/309/120 143/311/120 140/305/120 141/307/120
f 143/311/121 144/313/121 139/303/121 140/305/121
f 4/12/122 133/291/122 142/310/122 54/145/122
f 133/291/123 134/293/123 143/312/123 142/310/123
f 134/293/124 135/295/124 144/314/124 143/312/124
f 53/140/125 141/308/125 138/301/125 52/134/125
f 141/308/126 140/306/126 137/299/126 138/301/126
f 140/306/127 139/304/127 136/297/127 137/299/127
f 52/135/128 138/302/128 133/292/128 4/13/128
f 138/302/129 137/300/129 134/294/129 133/292/129
f 137/300/130 136/298/130 135/296/130 134/294/130
f 105/230/131 1/3/131 88/202/131 59/153/131 108/237/131 2/5/131
f 86/199/132 85/195/132 83/192/132
f 83/192/133 85/195/133 18/45/133 23/58/133
f 63/158/134 15/37/134 23/59/134 18/46/134 12/31/134
f 84/194/135 18/47/135 85/196/135
l 52 106
