# Blender 3.3.1
# www.blender.org
mtllib monstruo_3_grande_caminar555.mtl
o monstruo_grande
v 0.572202 1.928842 0.412198
v 0.526056 1.095508 0.064824
v -0.582636 1.866638 0.140889
v -0.290537 1.219896 0.221679
v 0.896733 2.175475 0.171159
v 0.649321 1.543471 -0.213458
v -0.623123 2.078008 -0.303800
v -0.610425 1.759920 -0.347363
v -0.150515 2.411864 0.460824
v 0.374874 2.241904 0.527594
v -0.300687 2.399653 0.541991
v -0.959438 2.174790 -0.228572
v -0.072104 2.575571 0.112742
v 0.452888 2.360322 0.261402
v -0.854524 2.030936 -0.044258
v -0.221686 2.672017 0.115608
v -0.669817 2.364821 0.490352
v -1.296261 2.123810 -0.035536
v -1.063211 2.143131 0.213799
v -0.758234 2.702058 0.205119
v -0.404091 2.737281 0.157563
v -0.382882 2.365573 0.505153
v -0.979693 2.061609 -0.078791
v -1.798701 0.886337 0.557798
v -1.686303 0.860631 0.629046
v -1.632228 0.688440 0.431386
v -1.700832 0.704131 0.387899
v 0.483560 2.142679 0.543587
v 0.705919 2.313262 0.363895
v 0.477683 2.258361 0.544749
v 0.573737 2.369926 0.332621
v 0.755974 1.870465 0.570026
v 0.969409 1.875454 0.532462
v 0.766976 1.924682 0.600453
v 0.925047 2.014167 0.521230
v 0.802100 1.751286 0.842812
v 0.916308 1.722849 0.829461
v 0.831848 1.804408 0.929927
v 0.941230 1.775684 0.910486
v 0.749842 1.707672 0.983930
v 0.978492 1.649639 0.946394
v 0.741611 1.799071 1.158351
v 1.084742 1.704977 1.097640
v 0.014073 2.436886 0.507368
v 0.218775 2.391560 0.514347
v 0.055458 2.535214 0.262363
v 0.254144 2.482026 0.270681
v 0.068501 2.747788 0.649803
v 0.273842 2.673977 0.632518
v 0.084827 2.853093 0.393087
v 0.290371 2.779114 0.375596
v -0.499415 1.214530 0.027294
v -0.394987 1.190554 -0.189657
v -0.034681 1.280605 -0.333057
v -0.615436 1.909061 -0.090035
v 0.536746 1.167822 -0.164601
v 0.317577 1.203288 -0.277203
v 0.071880 1.520072 -0.316191
v -0.029002 1.120281 0.195598
v 0.691457 1.994714 0.340775
v -0.116185 2.468889 0.339155
v -0.260564 2.648365 0.384148
v -0.775458 2.088731 -0.137822
v 0.396197 2.363050 0.417492
v -0.655688 2.592428 0.452531
v -1.229306 2.263670 0.223606
v -0.412405 2.655499 0.355779
v -1.760192 0.872073 0.620819
v -1.630101 0.582653 0.311178
v 0.605547 2.245764 0.498549
v 0.530348 2.361105 0.460344
v 0.848781 1.828786 0.521632
v 0.858366 1.985340 0.613099
v 0.857287 1.736241 0.833583
v 0.886658 1.789378 0.920229
v 0.856582 1.661918 0.947790
v 0.899488 1.722811 1.095909
v 0.032439 2.485213 0.383205
v 0.233901 2.438395 0.391281
v 0.045281 2.802964 0.520633
v 0.313269 2.724198 0.505166
v -1.543428 1.182141 0.608955
v -1.592002 1.011480 0.527131
v -1.738772 1.197507 0.487159
v -1.697794 1.035675 0.460069
v -1.633979 0.858363 0.416768
v -1.674786 1.170062 0.593599
v 0.014380 1.751581 0.512440
v 0.328431 2.089304 -0.168205
v 0.278594 2.482062 0.094263
v 0.103162 2.271589 0.638071
v 0.148497 2.508728 0.264422
v 0.122306 2.414333 0.509947
v 0.190186 2.831791 0.345525
v 0.168731 2.695095 0.679598
v 0.182760 2.814699 0.534178
v 0.286336 2.641236 0.299137
v 0.262815 2.524076 0.591993
v 0.026681 2.584451 0.600998
v 0.049292 2.704221 0.306176
v 0.020188 2.645735 0.452998
v 0.289217 2.582266 0.445625
v 0.168162 2.680856 0.281950
v 0.143974 2.545644 0.616449
v 0.648073 1.577504 0.107264
v -0.541697 1.580211 0.175602
v 0.747699 1.737211 -0.145755
v 0.168788 1.062269 0.188235
v -0.268960 0.065327 0.268799
v -0.408403 0.108010 0.389805
v -0.443478 0.047768 0.148135
v -0.309285 0.032813 0.131395
v 0.322589 -0.084046 -0.091956
v 0.248772 -0.095121 -0.167177
v 0.331774 -0.087474 -0.130338
v 0.300132 -0.092210 -0.156250
v 0.263590 -0.085324 -0.081346
v 0.070880 0.835952 -0.187941
v 0.143089 0.537729 -0.153227
v 0.185369 0.233040 -0.139799
v 0.217105 0.198989 0.036082
v 0.196171 0.440654 0.125645
v 0.199987 0.713948 0.180508
v 0.339562 0.201714 0.012813
v 0.403170 0.450015 0.086142
v 0.485482 0.788213 0.116419
v 0.326385 0.855497 -0.170916
v 0.322407 0.529693 -0.122150
v 0.292037 0.227954 -0.119033
v 0.358225 0.217837 -0.066027
v 0.434952 0.514196 -0.036896
v 0.500518 0.847157 -0.067304
v -0.179447 0.971253 0.363512
v -0.182717 0.691524 0.383425
v -0.197982 0.455776 0.427837
v -0.482988 0.462381 0.412936
v -0.471655 0.721942 0.320466
v -0.472801 0.963645 0.252409
v -0.512190 0.428340 0.144969
v -0.499819 0.690638 0.049354
v -0.499413 0.929310 -0.025296
v -0.109031 0.850572 -0.059799
v -0.159163 0.634262 0.018401
v -0.217651 0.441448 0.110273
vn 0.1092 0.5632 -0.8191
vn 0.0342 0.0485 -0.9982
vn 0.4131 -0.2381 -0.8790
vn -0.3830 -0.2133 0.8988
vn 0.9032 -0.3694 0.2184
vn 0.6795 0.6734 0.2912
vn 0.3204 0.8607 -0.3957
vn 0.2782 -0.2333 0.9318
vn -0.0528 0.9134 0.4035
vn 0.0794 0.5386 -0.8388
vn -0.3595 -0.4322 0.8270
vn -0.4782 -0.8176 -0.3207
vn -0.4120 -0.1070 0.9049
vn 0.1162 -0.9015 0.4170
vn 0.8781 -0.2938 0.3777
vn -0.2051 -0.7478 0.6315
vn 0.2149 0.9477 0.2358
vn -0.1441 -0.7574 0.6369
vn -0.7907 0.2764 0.5463
vn 0.9861 -0.0041 -0.1658
vn -0.7488 0.0749 -0.6586
vn 0.4637 0.7497 0.4721
vn -0.0636 0.2727 0.9600
vn -0.5126 -0.4429 0.7356
vn -0.2188 0.6801 0.6997
vn -0.9668 0.1198 0.2258
vn 0.1648 -0.7124 -0.6822
vn 0.8062 0.5594 0.1925
vn -0.5930 -0.5350 0.6017
vn 0.8455 0.1006 -0.5244
vn -0.2730 0.8450 0.4597
vn 0.9935 0.0674 0.0918
vn 0.1830 -0.9165 -0.3556
vn -0.0899 -0.9125 0.3991
vn -0.1362 -0.8511 -0.5070
vn -0.8023 0.5480 -0.2368
vn 0.4504 0.8602 0.2393
vn 0.9927 -0.0455 -0.1115
vn 0.3038 0.5263 0.7942
vn 0.2623 0.9640 0.0434
vn -0.2200 0.9128 0.3440
vn 0.4544 0.8542 0.2526
vn 0.0688 0.9737 0.2172
vn -0.9758 0.1437 0.1650
vn 0.2259 -0.3428 0.9118
vn -0.1832 0.4689 -0.8640
vn -0.8367 -0.4154 -0.3568
vn -0.9642 -0.1801 0.1945
vn 0.2496 0.2148 -0.9442
vn -0.9563 0.2585 -0.1369
vn 0.0477 0.8434 0.5352
vn 0.4250 0.7017 0.5719
vn -0.1836 0.9088 0.3746
vn 0.9710 -0.1733 0.1649
vn 0.1342 0.9446 0.2996
vn -0.4217 -0.7867 -0.4509
vn -0.2381 -0.8681 0.4355
vn -0.4346 -0.8591 -0.2705
vn 0.3082 0.8158 0.4893
vn -0.1469 -0.8864 -0.4390
vn -0.0342 0.9994 0.0094
vn 0.4384 0.6641 0.6057
vn 0.3506 0.2670 0.8976
vn -0.2269 0.2733 -0.9348
vn -0.1137 0.1173 0.9866
vn -0.7394 -0.6212 0.2595
vn -0.2864 0.4789 0.8298
vn -0.6664 0.7236 0.1798
vn -0.4666 -0.8003 -0.3765
vn 0.1034 0.3410 0.9344
vn 0.5613 0.4798 0.6743
vn 0.0952 0.3095 0.9461
vn -0.2404 0.6531 -0.7181
vn -0.8718 0.4589 0.1712
vn 0.8920 -0.3319 0.3068
vn 0.4968 0.6897 0.5268
vn 0.3473 0.3836 -0.8557
vn -0.3015 -0.2638 0.9162
vn 0.5196 0.8384 0.1645
vn 0.4379 0.8970 0.0609
vn -0.1515 0.5615 0.8135
vn -0.5562 -0.0742 0.8277
vn 0.4213 0.7070 -0.5681
vn -0.2146 -0.5519 0.8058
vn 0.1372 0.1151 -0.9838
vn 0.9393 -0.3429 0.0111
vn -0.9822 0.0097 -0.1874
vn -0.0606 0.1790 -0.9820
vn -0.0397 -0.5652 0.8240
vn -0.9992 0.0200 -0.0355
vn 0.9628 -0.2671 -0.0400
vn -0.1063 -0.9847 -0.1378
vn 0.2106 -0.2313 0.9498
vn -0.9659 -0.2093 0.1524
vn -0.9684 -0.1931 0.1579
vn 0.9775 -0.1799 -0.1104
vn -0.1192 -0.0271 -0.9925
vn -0.0767 -0.9649 0.2513
vn 0.0413 -0.9932 0.1087
vn 0.1794 -0.3492 0.9197
vn 0.1968 0.1187 -0.9732
vn 0.9675 -0.1327 0.2155
vn 0.6278 0.1067 -0.7710
vn 0.4387 -0.2782 -0.8545
vn 0.5343 -0.1562 -0.8307
vn 0.6036 -0.0735 -0.7939
vn 0.9930 -0.1155 0.0251
vn 0.9747 -0.2147 0.0626
vn 0.9538 -0.2704 0.1308
vn 0.0867 -0.2899 -0.9531
vn 0.1123 -0.1197 -0.9864
vn 0.1773 -0.0234 -0.9839
vn 0.2702 0.0604 0.9609
vn 0.2299 -0.1659 0.9590
vn 0.1885 -0.3246 0.9269
vn -0.9441 -0.1089 0.3112
vn -0.9653 -0.1236 0.2299
vn -0.9805 -0.1336 0.1444
vn -0.1943 -0.4883 -0.8508
vn -0.1401 -0.3013 -0.9432
vn -0.1202 -0.3621 -0.9244
vn 0.9272 0.2307 0.2952
vn 0.9876 -0.0795 0.1357
vn 0.9864 -0.1626 0.0227
vn -0.9869 0.0293 -0.1587
vn -0.9950 0.0270 0.0961
vn -0.9922 0.0796 0.0959
vn -0.4770 0.4311 0.7659
vn -0.2769 0.1610 0.9473
vn -0.1123 0.2703 0.9562
vn 0.3387 -0.3758 0.8626
vn 0.5556 0.3805 -0.7392
vn -0.0400 -0.4425 -0.8959
vn -0.1536 -0.7841 -0.6014
vn -0.7062 -0.0607 -0.7054
vt 0.882279 0.260085
vt 0.436089 0.649131
vt 0.117664 0.305524
vt 0.860974 0.338762
vt 0.079561 0.383885
vt 0.278417 0.728674
vt 0.111517 0.716819
vt 0.301243 0.337859
vt 0.232943 0.387386
vt 0.111517 0.662267
vt 0.671871 0.687525
vt 0.175114 0.511099
vt 0.930991 0.712692
vt 0.796001 0.259488
vt 0.522181 0.649131
vt 0.719621 0.316178
vt 0.801110 0.310020
vt 0.698705 0.366293
vt 0.510656 0.337024
vt 0.023033 0.717149
vt 0.367094 0.730187
vt 0.507246 0.358198
vt 0.018976 0.695717
vt 0.103380 0.570561
vt 0.268725 0.266033
vt 0.143950 0.273348
vt 0.098384 0.631539
vt 0.301351 0.259488
vt 0.128079 0.559933
vt 0.480438 0.333338
vt 0.348619 0.714075
vt 0.604958 0.268707
vt 0.031105 0.562973
vt 0.043818 0.625810
vt 0.721993 0.282954
vt 0.329365 0.336360
vt 0.302724 0.713315
vt 0.030374 0.549675
vt 0.582817 0.260846
vt 0.875347 0.642471
vt 0.380514 0.272320
vt 0.124895 0.517524
vt 0.813390 0.578569
vt 0.436089 0.332372
vt 0.956124 0.588845
vt 0.367094 0.692599
vt 0.367094 0.522797
vt 0.871643 0.594841
vt 0.398138 0.324445
vt 0.043891 0.509019
vt 0.796001 0.641153
vt 0.491075 0.268473
vt 0.032114 0.534706
vt 0.552485 0.259488
vt 0.331566 0.259909
vt 0.129819 0.544964
vt 0.339759 0.337186
vt 0.913298 0.588845
vt 0.317584 0.707220
vt 0.845734 0.463378
vt 0.311567 0.646434
vt 0.944558 0.353645
vt 0.398138 0.462439
vt 0.920230 0.354337
vt 0.870057 0.463781
vt 0.929709 0.374247
vt 0.357807 0.478584
vt 0.347994 0.663056
vt 0.944558 0.373825
vt 0.097076 0.285727
vt 0.229765 0.651022
vt 0.758050 0.297859
vt 0.168317 0.651042
vt 0.119329 0.272208
vt 0.094178 0.643292
vt 0.222768 0.636959
vt 0.746872 0.283208
vt 0.174541 0.636975
vt 0.045175 0.638147
vt 0.080672 0.327471
vt 0.442544 0.673801
vt 0.734592 0.339187
vt 0.484453 0.673801
vt 0.070725 0.319456
vt 0.218298 0.685110
vt 0.751374 0.331694
vt 0.180611 0.684911
vt 0.062412 0.356092
vt 0.455575 0.702696
vt 0.724658 0.367821
vt 0.476314 0.702696
vt 0.043357 0.357400
vt 0.210236 0.723455
vt 0.742364 0.370210
vt 0.189444 0.723462
vt 0.050281 0.367705
vt 0.444942 0.715336
vt 0.810526 0.722486
vt 0.728448 0.380153
vt 0.853695 0.722486
vt 0.487920 0.715336
vt 0.018975 0.371756
vt 0.232852 0.738567
vt 0.796001 0.739289
vt 0.758050 0.386241
vt 0.861207 0.739289
vt 0.167770 0.738589
vt 0.100634 0.583041
vt 0.712300 0.698974
vt 0.802197 0.701507
vt 0.098640 0.600731
vt 0.972705 0.287497
vt 0.747907 0.696578
vt 0.052045 0.577939
vt 0.849895 0.701507
vt 0.710445 0.675017
vt 0.050052 0.595630
vt 0.746553 0.677603
vt 0.924885 0.287497
vt 0.797725 0.671259
vt 0.981025 0.313792
vt 0.715147 0.730011
vt 0.752543 0.724602
vt 0.973919 0.259495
vt 0.967002 0.332143
vt 0.934252 0.306472
vt 0.715328 0.644023
vt 0.847669 0.671259
vt 0.923848 0.259495
vt 0.753088 0.649631
vt 0.920230 0.324823
vt 0.068284 0.665533
vt 0.630362 0.705721
vt 0.712055 0.621316
vt 0.966165 0.712391
vt 0.519769 0.388732
vt 0.031375 0.663704
vt 0.592215 0.695479
vt 0.581836 0.620019
vt 0.750017 0.621843
vt 0.569690 0.667298
vt 0.581066 0.387596
vt 0.531739 0.516092
vt 0.642835 0.625048
vt 0.273616 0.509019
vt 0.070982 0.710642
vt 0.316851 0.732164
vt 0.684917 0.393810
vt 0.816625 0.338063
vt 0.644803 0.392946
vt 0.602800 0.367236
vt 0.671871 0.661666
vt 0.181146 0.386242
vt 0.855113 0.259897
vt 0.463196 0.649131
vt 0.077903 0.567886
vt 0.078993 0.554271
vt 0.322237 0.720993
vt 0.070972 0.628379
vt 0.834014 0.651825
vt 0.084160 0.512738
vt 0.838315 0.596273
vt 0.320679 0.509019
vt 0.080733 0.539302
vt 0.857365 0.464048
vt 0.931678 0.351118
vt 0.335174 0.488977
vt 0.367094 0.673623
vt 0.939667 0.384854
vt 0.199177 0.651021
vt 0.069465 0.641494
vt 0.198664 0.632807
vt 0.464209 0.672968
vt 0.199604 0.684998
vt 0.465945 0.702696
vt 0.199840 0.723459
vt 0.466714 0.715004
vt 0.832520 0.720483
vt 0.200177 0.738589
vt 0.829423 0.735282
vt 0.076340 0.580490
vt 0.826046 0.701507
vt 0.074346 0.598181
vt 0.948795 0.287497
vt 0.823088 0.670800
vt 0.959731 0.307426
vt 0.948976 0.259488
vt 0.941524 0.331189
vt 0.875347 0.491894
vt 0.391834 0.432095
vt 0.377694 0.448634
vt 0.915590 0.478791
vt 0.834644 0.488373
vt 0.326937 0.619279
vt 0.938593 0.478810
vt 0.335216 0.632947
vt 0.358601 0.463790
vt 0.348787 0.648138
vt 0.927106 0.463378
vt 0.854274 0.489560
vt 0.315804 0.619182
vt 0.212520 0.321385
vt 0.644070 0.318501
vt 0.018976 0.592450
vt 0.663817 0.276029
vt 0.129819 0.597828
vt 0.224108 0.269832
vt 0.051049 0.586785
vt 0.728499 0.676310
vt 0.099637 0.591886
vt 0.730103 0.697776
vt 0.734390 0.646904
vt 0.920230 0.314550
vt 0.981025 0.324065
vt 0.732426 0.727384
vt 0.950683 0.319044
vt 0.753088 0.663662
vt 0.920230 0.273492
vt 0.977552 0.273492
vt 0.752543 0.710647
vt 0.709822 0.714522
vt 0.796001 0.686127
vt 0.853178 0.686127
vt 0.709822 0.659561
vt 0.824792 0.685890
vt 0.948939 0.273488
vt 0.731549 0.661651
vt 0.730449 0.712624
vt 0.878850 0.297575
vt 0.096711 0.342677
vt 0.285581 0.357771
vt 0.108549 0.696221
vt 0.804979 0.293594
vt 0.708839 0.350023
vt 0.668288 0.644023
vt 0.436089 0.526409
vt 0.145034 0.385321
vt 0.919159 0.607821
vt 0.247387 0.613831
vt 0.970304 0.416607
vt 0.947808 0.608020
vt 0.704660 0.516092
vt 0.970304 0.403829
vt 0.750017 0.516884
vt 0.618892 0.516092
vt 0.920230 0.404231
vt 0.273616 0.612878
vt 0.642836 0.516847
vt 0.938584 0.415207
vt 0.924281 0.443436
vt 0.075400 0.489812
vt 0.855524 0.444402
vt 0.531739 0.629156
vt 0.934913 0.435583
vt 0.576828 0.496673
vt 0.931440 0.443424
vt 0.848383 0.444289
vt 0.592622 0.497116
vt 0.934913 0.440184
vt 0.586164 0.496977
vt 0.517161 0.630156
vt 0.920230 0.438606
vt 0.085942 0.490043
vt 0.585376 0.420489
vt 0.510472 0.551446
vt 0.582586 0.444044
vt 0.504260 0.576063
vt 0.581388 0.469636
vt 0.508131 0.602400
vt 0.103684 0.463024
vt 0.477645 0.604263
vt 0.118194 0.440373
vt 0.454885 0.581958
vt 0.129418 0.415411
vt 0.438452 0.557360
vt 0.876897 0.417052
vt 0.081901 0.462161
vt 0.882279 0.393921
vt 0.081653 0.438865
vt 0.880271 0.363315
vt 0.079604 0.408162
vt 0.633117 0.418943
vt 0.615530 0.444447
vt 0.600997 0.469910
vt 0.614559 0.469949
vt 0.862035 0.416811
vt 0.638313 0.444473
vt 0.857648 0.390640
vt 0.666106 0.417503
vt 0.844696 0.362700
vt 0.167770 0.536691
vt 0.914144 0.688660
vt 0.182151 0.561697
vt 0.913298 0.663084
vt 0.189855 0.582503
vt 0.915415 0.641729
vt 0.680787 0.549268
vt 0.966165 0.641681
vt 0.684678 0.573659
vt 0.963812 0.665813
vt 0.684995 0.596421
vt 0.964308 0.688427
vt 0.584794 0.548886
vt 0.729850 0.550060
vt 0.578610 0.572959
vt 0.734888 0.574452
vt 0.569690 0.595426
vt 0.736445 0.597214
vt 0.642060 0.590920
vt 0.247172 0.543053
vt 0.641052 0.570535
vt 0.248998 0.562413
vt 0.635978 0.552556
vt 0.245738 0.579271
s 0
usemtl Material
f 89/203/1 7/19/1 13/32/1 90/205/1
f 8/22/2 7/19/2 89/203/2 58/151/2 54/142/2 53/136/2
f 6/18/3 56/148/3 57/150/3
f 3/8/4 106/231/4 4/9/4 59/153/4 88/202/4
f 6/17/5 107/233/5 5/14/5 60/154/5 1/1/5 105/229/5 2/4/5 56/149/5
f 61/156/6 13/33/6 16/38/6 62/157/6
f 5/16/7 14/35/7 31/77/7 29/72/7
f 88/202/8 1/3/8 10/26/8 91/207/8
f 67/164/9 21/53/9 20/50/9 65/161/9
f 13/32/10 7/19/10 12/30/10 16/39/10
f 3/8/11 9/25/11 11/28/11 15/36/11
f 55/147/12 3/6/12 15/37/12 63/158/12
f 66/162/13 19/48/13 17/40/13 65/160/13
f 23/57/14 22/55/14 17/41/14 19/49/14
f 83/191/15 82/190/15 25/63/15 26/67/15
f 15/36/16 11/28/16 22/55/16 23/57/16
f 62/157/17 16/38/17 21/53/17 67/164/17
f 69/169/18 26/66/18 25/64/18 68/166/18
f 87/200/19 84/193/19 24/60/19 68/165/19
f 86/197/20 83/191/20 26/67/20 69/167/20
f 84/194/21 85/196/21 27/68/21 24/61/21
f 70/170/22 29/73/22 31/78/22 71/172/22
f 70/170/23 28/71/23 34/85/23 73/174/23
f 10/26/24 1/3/24 28/70/24 30/74/24
f 64/159/25 10/27/25 30/75/25 71/171/25
f 34/84/26 32/80/26 36/88/26 38/92/26
f 60/155/27 5/15/27 33/83/27 72/173/27
f 5/16/28 29/72/28 35/86/28 33/82/28
f 28/70/29 1/3/29 32/80/29 34/84/29
f 37/90/30 39/94/30 43/105/30 41/99/30
f 73/174/31 34/85/31 38/93/31 75/176/31
f 33/82/32 35/86/32 39/94/32 37/90/32
f 72/173/33 33/83/33 37/91/33 74/175/33
f 76/178/34 41/100/34 43/106/34 77/180/34
f 74/175/35 37/91/35 41/101/35 76/177/35
f 38/92/36 36/88/36 40/96/36 42/102/36
f 75/176/37 38/93/37 42/103/37 77/179/37
f 102/226/38 97/218/38 51/129/38 81/187/38
f 91/206/39 10/27/39 45/111/39 93/210/39
f 90/204/40 13/33/40 46/114/40 92/208/40
f 61/156/41 9/24/41 44/108/41 78/181/41
f 64/159/42 14/34/42 47/117/42 79/183/42
f 96/216/43 94/213/43 50/126/43 80/186/43
f 101/225/44 99/222/44 48/120/44 80/185/44
f 104/228/45 98/220/45 49/123/45 95/215/45
f 103/227/46 100/224/46 50/127/46 94/212/46
f 8/23/47 53/137/47 52/132/47
f 8/23/48 52/132/48 4/10/48 106/232/48 3/7/48 55/146/48 7/20/48
f 54/142/49 58/151/49 89/203/49 5/16/49 107/234/49 6/18/49 57/150/49
f 100/223/50 101/225/50 80/185/50 50/128/50
f 95/214/51 96/216/51 80/186/51 48/121/51
f 10/27/52 64/159/52 79/183/52 45/111/52
f 13/33/53 61/156/53 78/181/53 46/114/53
f 98/219/54 102/226/54 81/187/54 49/124/54
f 39/95/55 75/176/55 77/179/55 43/107/55
f 36/89/56 74/175/56 76/177/56 40/97/56
f 40/98/57 76/178/57 77/180/57 42/104/57
f 32/81/58 72/173/58 74/175/58 36/89/58
f 35/87/59 73/174/59 75/176/59 39/95/59
f 1/2/60 60/155/60 72/173/60 32/81/60
f 14/34/61 64/159/61 71/171/61 31/79/61
f 29/73/62 70/170/62 73/174/62 35/87/62
f 28/71/63 70/170/63 71/172/63 30/76/63
f 85/196/64 86/198/64 69/168/64 27/68/64
f 82/189/65 87/200/65 68/165/65 25/65/65
f 27/69/66 69/169/66 68/166/66 24/62/66
f 11/29/67 62/157/67 67/164/67 22/56/67
f 18/43/68 66/162/68 65/160/68 20/51/68
f 7/21/69 55/147/69 63/158/69 12/31/69
f 22/56/70 67/164/70 65/161/70 17/42/70
f 9/24/71 61/156/71 62/157/71 11/29/71
f 19/48/72 66/162/72 87/200/72 82/189/72
f 12/30/73 18/44/73 20/52/73 21/54/73 16/39/73
f 66/163/74 18/47/74 84/194/74 87/201/74
f 23/57/75 19/49/75 82/190/75 83/191/75
f 49/125/76 81/188/76 96/216/76 95/214/76
f 97/217/77 103/227/77 94/212/77 51/130/77
f 99/221/78 104/228/78 95/215/78 48/122/78
f 81/188/79 51/131/79 94/213/79 96/216/79
f 14/34/80 90/204/80 92/208/80 47/117/80
f 9/24/81 91/206/81 93/210/81 44/108/81
f 3/8/82 88/202/82 91/207/82 9/25/82
f 5/16/83 89/203/83 90/205/83 14/35/83
f 44/109/84 93/211/84 104/228/84 99/221/84
f 47/118/85 92/209/85 103/227/85 97/217/85
f 45/112/86 79/184/86 102/226/86 98/219/86
f 46/115/87 78/182/87 101/225/87 100/223/87
f 92/209/88 46/116/88 100/224/88 103/227/88
f 93/211/89 45/113/89 98/220/89 104/228/89
f 78/182/90 44/110/90 99/222/90 101/225/90
f 79/184/91 47/119/91 97/218/91 102/226/91
f 59/152/92 4/11/92 52/133/92 53/138/92 54/141/92 108/235/92
f 136/298/93 110/241/93 109/238/93 135/296/93
f 121/271/94 120/269/94 114/253/94 117/261/94
f 139/304/95 111/244/95 110/242/95 136/297/95
f 135/295/96 109/239/96 112/247/96 144/314/96
f 144/313/97 112/248/97 111/245/97 139/303/97
f 111/246/98 112/249/98 109/240/98 110/243/98
f 117/262/99 114/254/99 116/259/99 115/256/99 113/250/99
f 124/277/100 121/270/100 117/263/100 113/251/100
f 120/268/101 129/284/101 116/260/101 114/255/101
f 130/286/102 124/276/102 113/252/102 115/257/102
f 129/284/103 130/285/103 115/258/103 116/260/103
f 57/150/104 56/148/104 132/289/104 127/282/104
f 127/282/105 132/289/105 131/287/105 128/283/105
f 128/283/106 131/287/106 130/285/106 129/284/106
f 56/149/107 2/4/107 126/280/107 132/290/107
f 132/290/108 126/280/108 125/278/108 131/288/108
f 131/288/109 125/278/109 124/276/109 130/286/109
f 54/142/110 57/150/110 127/282/110 118/264/110
f 118/264/111 127/282/111 128/283/111 119/266/111
f 119/266/112 128/283/112 129/284/112 120/268/112
f 2/5/113 108/237/113 123/274/113 126/281/113
f 126/281/114 123/274/114 122/272/114 125/279/114
f 125/279/115 122/272/115 121/270/115 124/277/115
f 108/236/116 54/143/116 118/265/116 123/275/116
f 123/275/117 118/265/117 119/267/117 122/273/117
f 122/273/118 119/267/118 120/269/118 121/271/118
f 54/144/119 142/309/119 141/307/119 53/139/119
f 142/309/120 143/311/120 140/305/120 141/307/120
f 143/311/121 144/313/121 139/303/121 140/305/121
f 4/12/122 133/291/122 142/310/122 54/145/122
f 133/291/123 134/293/123 143/312/123 142/310/123
f 134/293/124 135/295/124 144/314/124 143/312/124
f 53/140/125 141/308/125 138/301/125 52/134/125
f 141/308/126 140/306/126 137/299/126 138/301/126
f 140/306/127 139/304/127 136/297/127 137/299/127
f 52/135/128 138/302/128 133/292/128 4/13/128
f 138/302/129 137/300/129 134/294/129 133/292/129
f 137/300/130 136/298/130 135/296/130 134/294/130
f 105/230/131 1/3/131 88/202/131 59/153/131 108/237/131 2/5/131
f 86/199/132 85/195/132 83/192/132
f 83/192/133 85/195/133 18/45/133 23/58/133
f 63/158/134 15/37/134 23/59/134 18/46/134 12/31/134
f 84/194/135 18/47/135 85/196/135
l 52 106
