# Blender 3.3.1
# www.blender.org
mtllib monstruo_3_grande_caminar540.mtl
o monstruo_grande
v 0.585830 1.916768 0.395402
v 0.526136 1.105707 0.086099
v -0.567351 1.877104 0.156968
v -0.287641 1.209542 0.226730
v 0.890757 2.149086 0.110244
v 0.638801 1.516719 -0.239909
v -0.624939 2.100442 -0.280392
v -0.612250 1.783145 -0.327428
v -0.121973 2.413769 0.467092
v 0.403637 2.232223 0.509608
v -0.268672 2.402002 0.553930
v -0.948495 2.198594 -0.204827
v -0.056270 2.581657 0.118760
v 0.472552 2.351418 0.240461
v -0.838038 2.046669 -0.029289
v -0.205170 2.679712 0.129908
v -0.641187 2.363993 0.510334
v -1.278174 2.135295 -0.010724
v -1.040324 2.146713 0.235764
v -0.738875 2.709153 0.238504
v -0.386059 2.746101 0.181073
v -0.352881 2.367085 0.517917
v -0.963194 2.077629 -0.061599
v -1.751779 0.861407 0.523834
v -1.636869 0.832080 0.589455
v -1.588676 0.673190 0.379514
v -1.658814 0.691091 0.339462
v 0.518891 2.135958 0.528019
v 0.728075 2.295053 0.320317
v 0.509780 2.247078 0.524051
v 0.597504 2.357260 0.305012
v 0.793234 1.837051 0.539469
v 0.996564 1.863094 0.447988
v 0.801053 1.907745 0.565350
v 0.951069 1.994104 0.459596
v 0.927124 1.670779 0.760485
v 1.034625 1.665171 0.714354
v 0.971019 1.717428 0.845278
v 1.074174 1.712661 0.794911
v 0.922792 1.600782 0.900659
v 1.138070 1.591772 0.798466
v 0.948389 1.666789 1.084595
v 1.272243 1.649009 0.926224
v 0.046529 2.436092 0.506470
v 0.250768 2.385072 0.504338
v 0.079194 2.537172 0.261203
v 0.278326 2.478395 0.260520
v 0.103815 2.744321 0.647646
v 0.308712 2.671003 0.624116
v 0.112857 2.851047 0.391218
v 0.318607 2.777096 0.367480
v -0.499083 1.217670 0.031420
v -0.396723 1.202707 -0.187751
v -0.041096 1.277873 -0.332794
v -0.607253 1.924874 -0.070293
v 0.539950 1.131504 -0.153887
v 0.321101 1.148910 -0.271989
v 0.063690 1.517200 -0.321177
v -0.026233 1.138456 0.199239
v 0.696012 1.979644 0.308723
v -0.092021 2.471988 0.344773
v -0.232219 2.652479 0.398041
v -0.763472 2.109163 -0.117505
v 0.423361 2.353749 0.399644
v -0.628767 2.592507 0.478322
v -1.207153 2.264256 0.253834
v -0.385403 2.661319 0.376083
v -1.711057 0.843463 0.584480
v -1.590102 0.575263 0.252811
v 0.640062 2.234251 0.466402
v 0.560176 2.348423 0.436426
v 0.878304 1.809748 0.459179
v 0.895729 1.968277 0.560217
v 0.979184 1.667872 0.735507
v 1.022749 1.714588 0.819981
v 1.021379 1.581320 0.832141
v 1.093084 1.630746 0.973221
v 0.061637 2.486886 0.382829
v 0.262099 2.432817 0.381197
v 0.076821 2.800139 0.519490
v 0.344717 2.721764 0.495971
v -1.496495 1.155284 0.585049
v -1.546927 0.989798 0.494216
v -1.695988 1.176778 0.471018
v -1.655084 1.017401 0.432452
v -1.591840 0.843680 0.375813
v -1.628235 1.143213 0.573413
v 0.036061 1.753417 0.510402
v 0.317487 2.086407 -0.185896
v 0.293099 2.480860 0.082444
v 0.137573 2.267651 0.631540
v 0.172992 2.508511 0.259194
v 0.154430 2.411537 0.504500
v 0.217412 2.830067 0.340666
v 0.204950 2.691665 0.674288
v 0.214610 2.812069 0.529173
v 0.313054 2.638892 0.290220
v 0.297628 2.520349 0.582976
v 0.061449 2.581268 0.599375
v 0.075952 2.703178 0.305060
v 0.050983 2.643582 0.452161
v 0.319929 2.579190 0.436213
v 0.194394 2.679484 0.277064
v 0.178874 2.542426 0.611096
v 0.630335 1.579440 0.052746
v -0.529589 1.584069 0.193943
v 0.731080 1.707007 -0.188372
v 0.168823 1.101027 0.205813
v -0.296589 0.143454 -0.190610
v -0.423623 0.116878 -0.052541
v -0.480809 0.193764 -0.284976
v -0.349450 0.188876 -0.320083
v 0.308482 -0.041965 0.012181
v 0.235400 -0.055680 -0.063371
v 0.318042 -0.046577 -0.025974
v 0.286660 -0.052270 -0.052008
v 0.249365 -0.043155 0.022255
v 0.071300 0.820464 -0.104025
v 0.142376 0.579265 -0.051306
v 0.175884 0.276786 -0.044518
v 0.200948 0.242148 0.132330
v 0.183669 0.484404 0.221074
v 0.193115 0.757561 0.275938
v 0.324131 0.241518 0.113086
v 0.392216 0.488942 0.190743
v 0.481126 0.816077 0.209080
v 0.326931 0.828389 -0.085283
v 0.320316 0.566936 -0.015291
v 0.281680 0.268875 -0.020256
v 0.345797 0.257030 0.034895
v 0.429685 0.549891 0.073281
v 0.499483 0.837413 0.019194
v -0.183137 0.940443 0.349315
v -0.194755 0.627232 0.250097
v -0.215872 0.391962 0.154968
v -0.499941 0.412459 0.149653
v -0.482497 0.688459 0.211903
v -0.476898 0.951303 0.243135
v -0.530162 0.522787 -0.097322
v -0.510027 0.786009 -0.030283
v -0.505036 0.946888 -0.026142
v -0.116527 0.870372 -0.068904
v -0.170812 0.740905 -0.082885
v -0.235309 0.544305 -0.123683
vn 0.0874 0.5690 -0.8177
vn 0.0009 0.0529 -0.9986
vn 0.4342 -0.3010 -0.8490
vn -0.3532 -0.2044 0.9130
vn 0.9016 -0.3680 0.2273
vn 0.6984 0.6619 0.2721
vn 0.3195 0.8472 -0.4244
vn 0.3047 -0.2324 0.9237
vn -0.0450 0.9020 0.4293
vn 0.0712 0.5417 -0.8376
vn -0.3586 -0.4247 0.8313
vn -0.4856 -0.8072 -0.3355
vn -0.3888 -0.1368 0.9111
vn 0.1368 -0.9145 0.3808
vn 0.8921 -0.3105 0.3282
vn -0.1859 -0.7671 0.6140
vn 0.2332 0.9421 0.2411
vn -0.1181 -0.7973 0.5919
vn -0.7732 0.2354 0.5888
vn 0.9799 0.0139 -0.1991
vn -0.7712 0.1108 -0.6269
vn 0.5269 0.7372 0.4230
vn 0.0599 0.3164 0.9467
vn -0.4691 -0.4122 0.7811
vn -0.1762 0.6835 0.7084
vn -0.8739 -0.0687 0.4812
vn 0.0443 -0.7170 -0.6957
vn 0.8318 0.5462 0.0987
vn -0.5549 -0.4834 0.6771
vn 0.6427 0.3192 -0.6965
vn -0.1448 0.7235 0.6749
vn 0.9787 0.1190 -0.1673
vn 0.1375 -0.8233 -0.5507
vn 0.1619 -0.9535 0.2543
vn -0.1503 -0.7973 -0.5845
vn -0.9110 0.4074 0.0648
vn 0.3601 0.8951 0.2629
vn 0.9899 -0.0406 -0.1360
vn 0.3515 0.5109 0.7845
vn 0.2832 0.9584 0.0369
vn -0.1935 0.9096 0.3677
vn 0.4872 0.8387 0.2435
vn 0.0735 0.9726 0.2206
vn -0.9717 0.1381 0.1914
vn 0.2517 -0.3457 0.9040
vn -0.2074 0.4717 -0.8570
vn -0.8406 -0.4000 -0.3653
vn -0.9611 -0.1694 0.2183
vn 0.2151 0.1858 -0.9588
vn -0.9608 0.2540 -0.1109
vn 0.0615 0.8406 0.5382
vn 0.4643 0.6861 0.5601
vn -0.1530 0.9065 0.3936
vn 0.9758 -0.1676 0.1401
vn 0.0640 0.9094 0.4110
vn -0.4026 -0.7919 -0.4592
vn 0.0267 -0.9445 0.3275
vn -0.4311 -0.8439 -0.3194
vn 0.4217 0.7552 0.5018
vn -0.2211 -0.8685 -0.4436
vn -0.0095 0.9998 0.0195
vn 0.5231 0.6622 0.5365
vn 0.4109 0.2924 0.8635
vn -0.2603 0.3304 -0.9073
vn -0.0805 0.0536 0.9953
vn -0.7267 -0.6420 0.2443
vn -0.2579 0.4648 0.8470
vn -0.6677 0.7104 0.2224
vn -0.4871 -0.7901 -0.3720
vn 0.1244 0.3174 0.9401
vn 0.5939 0.4643 0.6570
vn 0.1117 0.2575 0.9598
vn -0.2607 0.6752 -0.6900
vn -0.8734 0.4359 0.2170
vn 0.9036 -0.3364 0.2654
vn 0.5104 0.6878 0.5161
vn 0.3224 0.3890 -0.8630
vn -0.2747 -0.2692 0.9231
vn 0.5233 0.8379 0.1553
vn 0.4663 0.8832 0.0509
vn -0.1072 0.5547 0.8251
vn -0.5296 -0.0713 0.8453
vn 0.4145 0.6977 -0.5844
vn -0.1916 -0.5568 0.8083
vn 0.1030 0.1242 -0.9869
vn 0.9399 -0.3410 -0.0176
vn -0.9883 0.0108 -0.1520
vn -0.0929 0.1842 -0.9785
vn -0.0198 -0.5675 0.8231
vn -0.9998 0.0191 -0.0092
vn 0.9602 -0.2695 -0.0727
vn -0.0694 -0.9882 -0.1368
vn 0.2313 -0.6912 0.6847
vn -0.9721 -0.1966 0.1280
vn -0.9662 -0.2447 0.0806
vn 0.9681 -0.1104 -0.2250
vn -0.1429 0.4946 -0.8573
vn -0.1127 -0.9512 -0.2872
vn 0.0436 -0.9891 0.1405
vn 0.1505 -0.3362 0.9297
vn 0.2228 0.0971 -0.9700
vn 0.9597 -0.1384 0.2446
vn 0.6485 0.0885 -0.7561
vn 0.4274 -0.4745 -0.7695
vn 0.5411 -0.2563 -0.8009
vn 0.6289 -0.0736 -0.7740
vn 0.9916 -0.1139 0.0617
vn 0.9639 -0.2425 0.1102
vn 0.9393 -0.3000 0.1666
vn 0.0220 -0.4684 -0.8833
vn 0.1200 -0.2209 -0.9679
vn 0.2075 -0.0047 -0.9782
vn 0.2419 0.2758 0.9303
vn 0.2084 -0.1520 0.9662
vn 0.1433 -0.3317 0.9324
vn -0.9430 -0.0375 0.3308
vn -0.9698 -0.1171 0.2142
vn -0.9874 -0.1093 0.1144
vn -0.2149 -0.4844 -0.8480
vn -0.1154 0.0853 -0.9896
vn -0.1108 0.2462 -0.9629
vn 0.9312 0.2102 0.2979
vn 0.9789 -0.1733 0.1079
vn 0.9825 -0.1733 -0.0681
vn -0.9869 0.0540 -0.1521
vn -0.9937 0.0156 0.1110
vn -0.9905 0.0372 0.1327
vn -0.4613 0.3888 0.7975
vn -0.2598 -0.2059 0.9435
vn -0.1131 -0.2845 0.9520
vn 0.3816 -0.3647 0.8493
vn 0.5279 0.4308 -0.7319
vn -0.0553 -0.3918 -0.9184
vn -0.1528 -0.7529 -0.6401
vn -0.7320 -0.0231 -0.6809
vt 0.882279 0.260085
vt 0.436089 0.649131
vt 0.117664 0.305524
vt 0.860974 0.338762
vt 0.079561 0.383885
vt 0.278417 0.728674
vt 0.111517 0.716819
vt 0.301243 0.337859
vt 0.232943 0.387386
vt 0.111517 0.662267
vt 0.671871 0.687525
vt 0.175114 0.511099
vt 0.930991 0.712692
vt 0.796001 0.259488
vt 0.522181 0.649131
vt 0.719621 0.316178
vt 0.801110 0.310020
vt 0.698705 0.366293
vt 0.510656 0.337024
vt 0.023033 0.717149
vt 0.367094 0.730187
vt 0.507246 0.358198
vt 0.018976 0.695717
vt 0.103380 0.570561
vt 0.268725 0.266033
vt 0.143950 0.273348
vt 0.098384 0.631539
vt 0.301351 0.259488
vt 0.128079 0.559933
vt 0.480438 0.333338
vt 0.348619 0.714075
vt 0.604958 0.268707
vt 0.031105 0.562973
vt 0.043818 0.625810
vt 0.721993 0.282954
vt 0.329365 0.336360
vt 0.302724 0.713315
vt 0.030374 0.549675
vt 0.582817 0.260846
vt 0.875347 0.642471
vt 0.380514 0.272320
vt 0.124895 0.517524
vt 0.813390 0.578569
vt 0.436089 0.332372
vt 0.956124 0.588845
vt 0.367094 0.692599
vt 0.367094 0.522797
vt 0.871643 0.594841
vt 0.398138 0.324445
vt 0.043891 0.509019
vt 0.796001 0.641153
vt 0.491075 0.268473
vt 0.032114 0.534706
vt 0.552485 0.259488
vt 0.331566 0.259909
vt 0.129819 0.544964
vt 0.339759 0.337186
vt 0.913298 0.588845
vt 0.317584 0.707220
vt 0.845734 0.463378
vt 0.311567 0.646434
vt 0.944558 0.353645
vt 0.398138 0.462439
vt 0.920230 0.354337
vt 0.870057 0.463781
vt 0.929709 0.374247
vt 0.357807 0.478584
vt 0.347994 0.663056
vt 0.944558 0.373825
vt 0.097076 0.285727
vt 0.229765 0.651022
vt 0.758050 0.297859
vt 0.168317 0.651042
vt 0.119329 0.272208
vt 0.094178 0.643292
vt 0.222768 0.636959
vt 0.746872 0.283208
vt 0.174541 0.636975
vt 0.045175 0.638147
vt 0.080672 0.327471
vt 0.442544 0.673801
vt 0.734592 0.339187
vt 0.484453 0.673801
vt 0.070725 0.319456
vt 0.218298 0.685110
vt 0.751374 0.331694
vt 0.180611 0.684911
vt 0.062412 0.356092
vt 0.455575 0.702696
vt 0.724658 0.367821
vt 0.476314 0.702696
vt 0.043357 0.357400
vt 0.210236 0.723455
vt 0.742364 0.370210
vt 0.189444 0.723462
vt 0.050281 0.367705
vt 0.444942 0.715336
vt 0.810526 0.722486
vt 0.728448 0.380153
vt 0.853695 0.722486
vt 0.487920 0.715336
vt 0.018975 0.371756
vt 0.232852 0.738567
vt 0.796001 0.739289
vt 0.758050 0.386241
vt 0.861207 0.739289
vt 0.167770 0.738589
vt 0.100634 0.583041
vt 0.712300 0.698974
vt 0.802197 0.701507
vt 0.098640 0.600731
vt 0.972705 0.287497
vt 0.747907 0.696578
vt 0.052045 0.577939
vt 0.849895 0.701507
vt 0.710445 0.675017
vt 0.050052 0.595630
vt 0.746553 0.677603
vt 0.924885 0.287497
vt 0.797725 0.671259
vt 0.981025 0.313792
vt 0.715147 0.730011
vt 0.752543 0.724602
vt 0.973919 0.259495
vt 0.967002 0.332143
vt 0.934252 0.306472
vt 0.715328 0.644023
vt 0.847669 0.671259
vt 0.923848 0.259495
vt 0.753088 0.649631
vt 0.920230 0.324823
vt 0.068284 0.665533
vt 0.630362 0.705721
vt 0.712055 0.621316
vt 0.966165 0.712391
vt 0.519769 0.388732
vt 0.031375 0.663704
vt 0.592215 0.695479
vt 0.581836 0.620019
vt 0.750017 0.621843
vt 0.569690 0.667298
vt 0.581066 0.387596
vt 0.531739 0.516092
vt 0.642835 0.625048
vt 0.273616 0.509019
vt 0.070982 0.710642
vt 0.316851 0.732164
vt 0.684917 0.393810
vt 0.816625 0.338063
vt 0.644803 0.392946
vt 0.602800 0.367236
vt 0.671871 0.661666
vt 0.181146 0.386242
vt 0.855113 0.259897
vt 0.463196 0.649131
vt 0.077903 0.567886
vt 0.078993 0.554271
vt 0.322237 0.720993
vt 0.070972 0.628379
vt 0.834014 0.651825
vt 0.084160 0.512738
vt 0.838315 0.596273
vt 0.320679 0.509019
vt 0.080733 0.539302
vt 0.857365 0.464048
vt 0.931678 0.351118
vt 0.335174 0.488977
vt 0.367094 0.673623
vt 0.939667 0.384854
vt 0.199177 0.651021
vt 0.069465 0.641494
vt 0.198664 0.632807
vt 0.464209 0.672968
vt 0.199604 0.684998
vt 0.465945 0.702696
vt 0.199840 0.723459
vt 0.466714 0.715004
vt 0.832520 0.720483
vt 0.200177 0.738589
vt 0.829423 0.735282
vt 0.076340 0.580490
vt 0.826046 0.701507
vt 0.074346 0.598181
vt 0.948795 0.287497
vt 0.823088 0.670800
vt 0.959731 0.307426
vt 0.948976 0.259488
vt 0.941524 0.331189
vt 0.875347 0.491894
vt 0.391834 0.432095
vt 0.377694 0.448634
vt 0.915590 0.478791
vt 0.834644 0.488373
vt 0.326937 0.619279
vt 0.938593 0.478810
vt 0.335216 0.632947
vt 0.358601 0.463790
vt 0.348787 0.648138
vt 0.927106 0.463378
vt 0.854274 0.489560
vt 0.315804 0.619182
vt 0.212520 0.321385
vt 0.644070 0.318501
vt 0.018976 0.592450
vt 0.663817 0.276029
vt 0.129819 0.597828
vt 0.224108 0.269832
vt 0.051049 0.586785
vt 0.728499 0.676310
vt 0.099637 0.591886
vt 0.730103 0.697776
vt 0.734390 0.646904
vt 0.920230 0.314550
vt 0.981025 0.324065
vt 0.732426 0.727384
vt 0.950683 0.319044
vt 0.753088 0.663662
vt 0.920230 0.273492
vt 0.977552 0.273492
vt 0.752543 0.710647
vt 0.709822 0.714522
vt 0.796001 0.686127
vt 0.853178 0.686127
vt 0.709822 0.659561
vt 0.824792 0.685890
vt 0.948939 0.273488
vt 0.731549 0.661651
vt 0.730449 0.712624
vt 0.878850 0.297575
vt 0.096711 0.342677
vt 0.285581 0.357771
vt 0.108549 0.696221
vt 0.804979 0.293594
vt 0.708839 0.350023
vt 0.668288 0.644023
vt 0.436089 0.526409
vt 0.145034 0.385321
vt 0.919159 0.607821
vt 0.247387 0.613831
vt 0.970304 0.416607
vt 0.947808 0.608020
vt 0.704660 0.516092
vt 0.970304 0.403829
vt 0.750017 0.516884
vt 0.618892 0.516092
vt 0.920230 0.404231
vt 0.273616 0.612878
vt 0.642836 0.516847
vt 0.938584 0.415207
vt 0.924281 0.443436
vt 0.075400 0.489812
vt 0.855524 0.444402
vt 0.531739 0.629156
vt 0.934913 0.435583
vt 0.576828 0.496673
vt 0.931440 0.443424
vt 0.848383 0.444289
vt 0.592622 0.497116
vt 0.934913 0.440184
vt 0.586164 0.496977
vt 0.517161 0.630156
vt 0.920230 0.438606
vt 0.085942 0.490043
vt 0.585376 0.420489
vt 0.510472 0.551446
vt 0.582586 0.444044
vt 0.504260 0.576063
vt 0.581388 0.469636
vt 0.508131 0.602400
vt 0.103684 0.463024
vt 0.477645 0.604263
vt 0.118194 0.440373
vt 0.454885 0.581958
vt 0.129418 0.415411
vt 0.438452 0.557360
vt 0.876897 0.417052
vt 0.081901 0.462161
vt 0.882279 0.393921
vt 0.081653 0.438865
vt 0.880271 0.363315
vt 0.079604 0.408162
vt 0.633117 0.418943
vt 0.615530 0.444447
vt 0.600997 0.469910
vt 0.614559 0.469949
vt 0.862035 0.416811
vt 0.638313 0.444473
vt 0.857648 0.390640
vt 0.666106 0.417503
vt 0.844696 0.362700
vt 0.167770 0.536691
vt 0.914144 0.688660
vt 0.182151 0.561697
vt 0.913298 0.663084
vt 0.189855 0.582503
vt 0.915415 0.641729
vt 0.680787 0.549268
vt 0.966165 0.641681
vt 0.684678 0.573659
vt 0.963812 0.665813
vt 0.684995 0.596421
vt 0.964308 0.688427
vt 0.584794 0.548886
vt 0.729850 0.550060
vt 0.578610 0.572959
vt 0.734888 0.574452
vt 0.569690 0.595426
vt 0.736445 0.597214
vt 0.642060 0.590920
vt 0.247172 0.543053
vt 0.641052 0.570535
vt 0.248998 0.562413
vt 0.635978 0.552556
vt 0.245738 0.579271
s 0
usemtl Material
f 89/203/1 7/19/1 13/32/1 90/205/1
f 8/22/2 7/19/2 89/203/2 58/151/2 54/142/2 53/136/2
f 6/18/3 56/148/3 57/150/3
f 3/8/4 106/231/4 4/9/4 59/153/4 88/202/4
f 6/17/5 107/233/5 5/14/5 60/154/5 1/1/5 105/229/5 2/4/5 56/149/5
f 61/156/6 13/33/6 16/38/6 62/157/6
f 5/16/7 14/35/7 31/77/7 29/72/7
f 88/202/8 1/3/8 10/26/8 91/207/8
f 67/164/9 21/53/9 20/50/9 65/161/9
f 13/32/10 7/19/10 12/30/10 16/39/10
f 3/8/11 9/25/11 11/28/11 15/36/11
f 55/147/12 3/6/12 15/37/12 63/158/12
f 66/162/13 19/48/13 17/40/13 65/160/13
f 23/57/14 22/55/14 17/41/14 19/49/14
f 83/191/15 82/190/15 25/63/15 26/67/15
f 15/36/16 11/28/16 22/55/16 23/57/16
f 62/157/17 16/38/17 21/53/17 67/164/17
f 69/169/18 26/66/18 25/64/18 68/166/18
f 87/200/19 84/193/19 24/60/19 68/165/19
f 86/197/20 83/191/20 26/67/20 69/167/20
f 84/194/21 85/196/21 27/68/21 24/61/21
f 70/170/22 29/73/22 31/78/22 71/172/22
f 70/170/23 28/71/23 34/85/23 73/174/23
f 10/26/24 1/3/24 28/70/24 30/74/24
f 64/159/25 10/27/25 30/75/25 71/171/25
f 34/84/26 32/80/26 36/88/26 38/92/26
f 60/155/27 5/15/27 33/83/27 72/173/27
f 5/16/28 29/72/28 35/86/28 33/82/28
f 28/70/29 1/3/29 32/80/29 34/84/29
f 37/90/30 39/94/30 43/105/30 41/99/30
f 73/174/31 34/85/31 38/93/31 75/176/31
f 33/82/32 35/86/32 39/94/32 37/90/32
f 72/173/33 33/83/33 37/91/33 74/175/33
f 76/178/34 41/100/34 43/106/34 77/180/34
f 74/175/35 37/91/35 41/101/35 76/177/35
f 38/92/36 36/88/36 40/96/36 42/102/36
f 75/176/37 38/93/37 42/103/37 77/179/37
f 102/226/38 97/218/38 51/129/38 81/187/38
f 91/206/39 10/27/39 45/111/39 93/210/39
f 90/204/40 13/33/40 46/114/40 92/208/40
f 61/156/41 9/24/41 44/108/41 78/181/41
f 64/159/42 14/34/42 47/117/42 79/183/42
f 96/216/43 94/213/43 50/126/43 80/186/43
f 101/225/44 99/222/44 48/120/44 80/185/44
f 104/228/45 98/220/45 49/123/45 95/215/45
f 103/227/46 100/224/46 50/127/46 94/212/46
f 8/23/47 53/137/47 52/132/47
f 8/23/48 52/132/48 4/10/48 106/232/48 3/7/48 55/146/48 7/20/48
f 54/142/49 58/151/49 89/203/49 5/16/49 107/234/49 6/18/49 57/150/49
f 100/223/50 101/225/50 80/185/50 50/128/50
f 95/214/51 96/216/51 80/186/51 48/121/51
f 10/27/52 64/159/52 79/183/52 45/111/52
f 13/33/53 61/156/53 78/181/53 46/114/53
f 98/219/54 102/226/54 81/187/54 49/124/54
f 39/95/55 75/176/55 77/179/55 43/107/55
f 36/89/56 74/175/56 76/177/56 40/97/56
f 40/98/57 76/178/57 77/180/57 42/104/57
f 32/81/58 72/173/58 74/175/58 36/89/58
f 35/87/59 73/174/59 75/176/59 39/95/59
f 1/2/60 60/155/60 72/173/60 32/81/60
f 14/34/61 64/159/61 71/171/61 31/79/61
f 29/73/62 70/170/62 73/174/62 35/87/62
f 28/71/63 70/170/63 71/172/63 30/76/63
f 85/196/64 86/198/64 69/168/64 27/68/64
f 82/189/65 87/200/65 68/165/65 25/65/65
f 27/69/66 69/169/66 68/166/66 24/62/66
f 11/29/67 62/157/67 67/164/67 22/56/67
f 18/43/68 66/162/68 65/160/68 20/51/68
f 7/21/69 55/147/69 63/158/69 12/31/69
f 22/56/70 67/164/70 65/161/70 17/42/70
f 9/24/71 61/156/71 62/157/71 11/29/71
f 19/48/72 66/162/72 87/200/72 82/189/72
f 12/30/73 18/44/73 20/52/73 21/54/73 16/39/73
f 66/163/74 18/47/74 84/194/74 87/201/74
f 23/57/75 19/49/75 82/190/75 83/191/75
f 49/125/76 81/188/76 96/216/76 95/214/76
f 97/217/77 103/227/77 94/212/77 51/130/77
f 99/221/78 104/228/78 95/215/78 48/122/78
f 81/188/79 51/131/79 94/213/79 96/216/79
f 14/34/80 90/204/80 92/208/80 47/117/80
f 9/24/81 91/206/81 93/210/81 44/108/81
f 3/8/82 88/202/82 91/207/82 9/25/82
f 5/16/83 89/203/83 90/205/83 14/35/83
f 44/109/84 93/211/84 104/228/84 99/221/84
f 47/118/85 92/209/85 103/227/85 97/217/85
f 45/112/86 79/184/86 102/226/86 98/219/86
f 46/115/87 78/182/87 101/225/87 100/223/87
f 92/209/88 46/116/88 100/224/88 103/227/88
f 93/211/89 45/113/89 98/220/89 104/228/89
f 78/182/90 44/110/90 99/222/90 101/225/90
f 79/184/91 47/119/91 97/218/91 102/226/91
f 59/152/92 4/11/92 52/133/92 53/138/92 54/141/92 108/235/92
f 136/298/93 110/241/93 109/238/93 135/296/93
f 121/271/94 120/269/94 114/253/94 117/261/94
f 139/304/95 111/244/95 110/242/95 136/297/95
f 135/295/96 109/239/96 112/247/96 144/314/96
f 144/313/97 112/248/97 111/245/97 139/303/97
f 111/246/98 112/249/98 109/240/98 110/243/98
f 117/262/99 114/254/99 116/259/99 115/256/99 113/250/99
f 124/277/100 121/270/100 117/263/100 113/251/100
f 120/268/101 129/284/101 116/260/101 114/255/101
f 130/286/102 124/276/102 113/252/102 115/257/102
f 129/284/103 130/285/103 115/258/103 116/260/103
f 57/150/104 56/148/104 132/289/104 127/282/104
f 127/282/105 132/289/105 131/287/105 128/283/105
f 128/283/106 131/287/106 130/285/106 129/284/106
f 56/149/107 2/4/107 126/280/107 132/290/107
f 132/290/108 126/280/108 125/278/108 131/288/108
f 131/288/109 125/278/109 124/276/109 130/286/109
f 54/142/110 57/150/110 127/282/110 118/264/110
f 118/264/111 127/282/111 128/283/111 119/266/111
f 119/266/112 128/283/112 129/284/112 120/268/112
f 2/5/113 108/237/113 123/274/113 126/281/113
f 126/281/114 123/274/114 122/272/114 125/279/114
f 125/279/115 122/272/115 121/270/115 124/277/115
f 108/236/116 54/143/116 118/265/116 123/275/116
f 123/275/117 118/265/117 119/267/117 122/273/117
f 122/273/118 119/267/118 120/269/118 121/271/118
f 54/144/119 142/309/119 141/307/119 53/139/119
f 142/309/120 143/311/120 140/305/120 141/307/120
f 143/311/121 144/313/121 139/303/121 140/305/121
f 4/12/122 133/291/122 142/310/122 54/145/122
f 133/291/123 134/293/123 143/312/123 142/310/123
f 134/293/124 135/295/124 144/314/124 143/312/124
f 53/140/125 141/308/125 138/301/125 52/134/125
f 141/308/126 140/306/126 137/299/126 138/301/126
f 140/306/127 139/304/127 136/297/127 137/299/127
f 52/135/128 138/302/128 133/292/128 4/13/128
f 138/302/129 137/300/129 134/294/129 133/292/129
f 137/300/130 136/298/130 135/296/130 134/294/130
f 105/230/131 1/3/131 88/202/131 59/153/131 108/237/131 2/5/131
f 86/199/132 85/195/132 83/192/132
f 83/192/133 85/195/133 18/45/133 23/58/133
f 63/158/134 15/37/134 23/59/134 18/46/134 12/31/134
f 84/194/135 18/47/135 85/196/135
l 52 106
