# Blender 3.3.1
# www.blender.org
mtllib monstruo_3_caminar550.mtl
o monstruo_grande
v 0.587527 1.918191 0.423493
v 0.524644 1.092753 0.076197
v -0.569802 1.873767 0.146574
v -0.294344 1.222535 0.222633
v 0.909217 2.157937 0.169036
v 0.651934 1.525620 -0.216954
v -0.610110 2.086855 -0.296269
v -0.600536 1.768381 -0.346140
v -0.130537 2.409052 0.468414
v 0.393171 2.232924 0.532580
v -0.280192 2.397571 0.550322
v -0.942951 2.184987 -0.219648
v -0.052791 2.574772 0.121144
v 0.472250 2.351041 0.265838
v -0.837729 2.038730 -0.037024
v -0.201715 2.672488 0.125712
v -0.649849 2.364606 0.500019
v -1.278566 2.130514 -0.026797
v -1.045055 2.146543 0.222642
v -0.738360 2.704933 0.218733
v -0.383737 2.738787 0.169321
v -0.362630 2.364121 0.513458
v -0.962630 2.069349 -0.071317
v -1.775552 0.880364 0.543374
v -1.662467 0.852790 0.612812
v -1.610921 0.685035 0.410711
v -1.679945 0.701867 0.368328
v 0.503757 2.134975 0.552040
v 0.724615 2.300490 0.364275
v 0.496919 2.248522 0.550390
v 0.593694 2.358981 0.336828
v 0.775756 1.857859 0.580471
v 0.988287 1.864452 0.529959
v 0.786897 1.915871 0.608426
v 0.943818 2.002624 0.521869
v 0.841954 1.732585 0.851105
v 0.954882 1.705972 0.827633
v 0.878284 1.790220 0.932782
v 0.986042 1.762739 0.904643
v 0.804103 1.694324 0.998357
v 1.029281 1.638652 0.942056
v 0.809697 1.793382 1.168652
v 1.148034 1.703942 1.080296
v 0.035654 2.432418 0.514186
v 0.239968 2.384621 0.519030
v 0.075732 2.531891 0.269326
v 0.274508 2.475893 0.275702
v 0.091048 2.741583 0.657468
v 0.296305 2.668035 0.638187
v 0.105324 2.848110 0.401134
v 0.311089 2.774178 0.381635
v -0.499197 1.218749 0.023499
v -0.390277 1.195155 -0.191338
v -0.034436 1.281177 -0.332401
v -0.603653 1.917859 -0.084985
v 0.537997 1.148571 -0.158450
v 0.319930 1.178808 -0.274614
v 0.075142 1.519036 -0.315436
v -0.031587 1.126694 0.198713
v 0.705137 1.982117 0.347793
v -0.096397 2.466708 0.346978
v -0.238958 2.647065 0.394124
v -0.760058 2.098179 -0.131060
v 0.416147 2.354079 0.422562
v -0.634725 2.592364 0.463993
v -1.210913 2.266511 0.234665
v -0.390956 2.655634 0.366696
v -1.736410 0.864579 0.605638
v -1.610334 0.582015 0.288105
v 0.626265 2.236446 0.502126
v 0.550527 2.350472 0.465462
v 0.867096 1.817738 0.525611
v 0.879318 1.976167 0.616261
v 0.896392 1.718318 0.837331
v 0.932329 1.775934 0.918669
v 0.908178 1.649252 0.954424
v 0.963019 1.717732 1.095105
v 0.053671 2.481784 0.390234
v 0.254682 2.431664 0.396042
v 0.066742 2.797342 0.528749
v 0.334797 2.718799 0.510756
v -1.519022 1.174356 0.598530
v -1.568884 1.005716 0.513360
v -1.715614 1.192849 0.479130
v -1.675324 1.031669 0.448002
v -1.612410 0.855250 0.399990
v -1.650566 1.162922 0.584309
v 0.026178 1.747231 0.515647
v 0.339948 2.083102 -0.165702
v 0.297189 2.476776 0.099099
v 0.122105 2.265871 0.642952
v 0.168842 2.504254 0.270417
v 0.143944 2.408828 0.515620
v 0.210579 2.827048 0.352637
v 0.191560 2.688840 0.686210
v 0.204316 2.809134 0.541243
v 0.306884 2.636210 0.304591
v 0.285356 2.517990 0.597023
v 0.049166 2.578530 0.608267
v 0.069746 2.699808 0.313879
v 0.041618 2.640582 0.460641
v 0.310691 2.576733 0.450711
v 0.188554 2.676311 0.288558
v 0.166490 2.539651 0.622568
v 0.650014 1.571055 0.100019
v -0.535429 1.586599 0.179015
v 0.751990 1.717038 -0.150890
v 0.165985 1.071182 0.196528
v -0.280931 0.068134 0.128663
v -0.417775 0.090817 0.257785
v -0.457697 0.073465 0.010074
v -0.324028 0.060211 -0.011569
v 0.316382 -0.076385 -0.051199
v 0.242992 -0.088769 -0.126640
v 0.325771 -0.080332 -0.089476
v 0.294278 -0.085551 -0.115471
v 0.257327 -0.077717 -0.040875
v 0.070092 0.824222 -0.158014
v 0.142516 0.545108 -0.115205
v 0.181291 0.241292 -0.103634
v 0.208583 0.207007 0.072946
v 0.188216 0.448933 0.161934
v 0.193744 0.722198 0.216799
v 0.331570 0.208383 0.052529
v 0.396219 0.456239 0.128087
v 0.480849 0.790295 0.153775
v 0.325698 0.838494 -0.138712
v 0.320984 0.535289 -0.080398
v 0.287412 0.235072 -0.080393
v 0.352236 0.224260 -0.025859
v 0.431418 0.519075 0.007288
v 0.498517 0.835842 -0.033123
v -0.187487 0.969399 0.365361
v -0.191915 0.671020 0.351609
v -0.209380 0.426879 0.353699
v -0.493982 0.438997 0.337655
v -0.479654 0.712594 0.290600
v -0.478374 0.965703 0.248601
v -0.520771 0.449607 0.067274
v -0.504384 0.721309 0.020702
v -0.499031 0.937822 -0.027508
v -0.108935 0.860162 -0.055641
v -0.163803 0.666372 -0.012654
v -0.225743 0.464876 0.037969
vn 0.1125 0.5662 -0.8165
vn 0.0348 0.0559 -0.9978
vn 0.4250 -0.2628 -0.8662
vn -0.3839 -0.2093 0.8993
vn 0.8965 -0.3841 0.2206
vn 0.6868 0.6656 0.2921
vn 0.3287 0.8534 -0.4044
vn 0.2663 -0.2338 0.9351
vn -0.0466 0.9098 0.4124
vn 0.0809 0.5449 -0.8346
vn -0.3610 -0.4359 0.8244
vn -0.4856 -0.8121 -0.3236
vn -0.4083 -0.1145 0.9056
vn 0.1166 -0.9069 0.4048
vn 0.8813 -0.3043 0.3615
vn -0.2032 -0.7560 0.6223
vn 0.2234 0.9444 0.2415
vn -0.1392 -0.7714 0.6209
vn -0.7843 0.2657 0.5606
vn 0.9843 -0.0025 -0.1764
vn -0.7555 0.0915 -0.6487
vn 0.4812 0.7469 0.4589
vn -0.0373 0.2977 0.9539
vn -0.5095 -0.4268 0.7472
vn -0.2125 0.6833 0.6985
vn -0.9488 0.1080 0.2969
vn 0.1336 -0.7249 -0.6758
vn 0.8151 0.5554 0.1646
vn -0.5873 -0.5122 0.6267
vn 0.7913 0.0936 -0.6042
vn -0.2419 0.8370 0.4909
vn 0.9979 0.0602 0.0223
vn 0.1625 -0.9091 -0.3836
vn -0.0314 -0.8935 0.4481
vn -0.1676 -0.8754 -0.4533
vn -0.8344 0.5195 -0.1842
vn 0.4485 0.8796 0.1586
vn 0.9922 -0.0430 -0.1171
vn 0.3126 0.5196 0.7952
vn 0.2745 0.9605 0.0462
vn -0.2102 0.9117 0.3530
vn 0.4659 0.8477 0.2537
vn 0.0699 0.9727 0.2212
vn -0.9749 0.1410 0.1725
vn 0.2332 -0.3463 0.9087
vn -0.1897 0.4722 -0.8608
vn -0.8320 -0.4070 -0.3771
vn -0.9675 -0.1657 0.1909
vn 0.2477 0.2100 -0.9458
vn -0.9577 0.2567 -0.1299
vn 0.0513 0.8409 0.5388
vn 0.4340 0.6957 0.5724
vn -0.1717 0.9082 0.3818
vn 0.9724 -0.1715 0.1581
vn 0.1379 0.9600 0.2435
vn -0.4416 -0.8153 -0.3746
vn -0.1747 -0.8523 0.4931
vn -0.4422 -0.8587 -0.2588
vn 0.3432 0.8113 0.4734
vn -0.1644 -0.8900 -0.4254
vn -0.0221 0.9997 0.0115
vn 0.4580 0.6713 0.5828
vn 0.3584 0.2800 0.8906
vn -0.2362 0.2951 -0.9258
vn -0.1029 0.0950 0.9901
vn -0.7381 -0.6254 0.2532
vn -0.2793 0.4742 0.8349
vn -0.6641 0.7228 0.1911
vn -0.4758 -0.7945 -0.3774
vn 0.1086 0.3325 0.9368
vn 0.5694 0.4699 0.6745
vn 0.0986 0.2894 0.9521
vn -0.2415 0.6626 -0.7090
vn -0.8725 0.4523 0.1850
vn 0.8947 -0.3358 0.2946
vn 0.5005 0.6877 0.5260
vn 0.3409 0.3877 -0.8564
vn -0.2941 -0.2684 0.9173
vn 0.5205 0.8378 0.1647
vn 0.4506 0.8905 0.0623
vn -0.1401 0.5591 0.8172
vn -0.5541 -0.0720 0.8293
vn 0.4304 0.7018 -0.5677
vn -0.2101 -0.5563 0.8040
vn 0.1300 0.1189 -0.9844
vn 0.9389 -0.3441 0.0045
vn -0.9835 0.0093 -0.1806
vn -0.0678 0.1836 -0.9807
vn -0.0362 -0.5668 0.8230
vn -0.9993 0.0209 -0.0299
vn 0.9628 -0.2662 -0.0457
vn -0.1022 -0.9857 -0.1338
vn 0.2092 -0.3861 0.8984
vn -0.9694 -0.2044 0.1357
vn -0.9692 -0.2105 0.1275
vn 0.9761 -0.1674 -0.1383
vn -0.1175 0.1397 -0.9832
vn -0.0856 -0.9929 0.0830
vn 0.0439 -0.9914 0.1231
vn 0.1613 -0.3439 0.9251
vn 0.2143 0.1092 -0.9706
vn 0.9628 -0.1346 0.2343
vn 0.6416 0.0999 -0.7605
vn 0.4390 -0.3531 -0.8262
vn 0.5442 -0.1930 -0.8164
vn 0.6214 -0.0743 -0.7799
vn 0.9918 -0.1197 0.0442
vn 0.9706 -0.2243 0.0878
vn 0.9470 -0.2819 0.1542
vn 0.0668 -0.3538 -0.9329
vn 0.1238 -0.1558 -0.9800
vn 0.1989 -0.0171 -0.9799
vn 0.2528 0.1376 0.9577
vn 0.2129 -0.1595 0.9640
vn 0.1612 -0.3274 0.9310
vn -0.9468 -0.0801 0.3118
vn -0.9690 -0.1220 0.2146
vn -0.9847 -0.1241 0.1227
vn -0.1863 -0.4993 -0.8462
vn -0.1180 -0.1989 -0.9729
vn -0.1078 -0.1829 -0.9772
vn 0.9219 0.2356 0.3075
vn 0.9827 -0.1095 0.1494
vn 0.9846 -0.1744 0.0085
vn -0.9831 0.0321 -0.1801
vn -0.9962 0.0298 0.0818
vn -0.9926 0.0726 0.0972
vn -0.4903 0.4280 0.7592
vn -0.2902 0.0519 0.9556
vn -0.1234 0.1013 0.9872
vn 0.3385 -0.3856 0.8583
vn 0.5487 0.3960 -0.7363
vn -0.0427 -0.4235 -0.9049
vn -0.1538 -0.7759 -0.6119
vn -0.7145 -0.0437 -0.6983
vt 0.461701 0.809397
vt 0.301930 0.729761
vt 0.094158 0.499911
vt 0.498737 0.648456
vt 0.250869 0.553264
vt 0.714874 0.752530
vt 0.627854 0.740386
vt 0.227533 0.339544
vt 0.300362 0.438253
vt 0.625828 0.633709
vt 0.338991 0.679376
vt 0.653754 0.621457
vt 0.189641 0.785401
vt 0.531284 0.815038
vt 0.232114 0.729761
vt 0.806952 0.326283
vt 0.527824 0.712310
vt 0.703640 0.331352
vt 0.725736 0.123548
vt 0.557184 0.740386
vt 0.714874 0.681901
vt 0.693091 0.138725
vt 0.558638 0.706064
vt 0.944491 0.391302
vt 0.108931 0.369345
vt 0.090202 0.443431
vt 0.952837 0.467016
vt 0.108059 0.346292
vt 0.960024 0.371234
vt 0.653754 0.712739
vt 0.761990 0.055860
vt 0.265996 0.788213
vt 0.829683 0.188590
vt 0.886815 0.394232
vt 0.909606 0.471204
vt 0.826550 0.267021
vt 0.659457 0.749480
vt 0.206417 0.267620
vt 0.238389 0.812575
vt 0.882743 0.373659
vt 0.837846 0.166681
vt 0.102618 0.289588
vt 0.957957 0.321520
vt 0.918648 0.216117
vt 0.803322 0.012950
vt 0.106348 0.638847
vt 0.232551 0.755661
vt 0.798789 0.485160
vt 0.965752 0.239402
vt 0.153968 0.222285
vt 0.894228 0.312474
vt 0.856067 0.102710
vt 0.881967 0.351902
vt 0.842627 0.144082
vt 0.107159 0.331692
vt 0.958812 0.358201
vt 0.199778 0.246429
vt 0.138792 0.619338
vt 0.232114 0.797406
vt 0.967580 0.012950
vt 0.753483 0.682459
vt 0.843831 0.469074
vt 0.256421 0.022764
vt 0.824689 0.472884
vt 0.987050 0.016155
vt 0.832147 0.505580
vt 0.295109 0.018166
vt 0.782932 0.707368
vt 0.843831 0.503254
vt 0.076417 0.467161
vt 0.958695 0.494573
vt 0.833773 0.298242
vt 0.909847 0.503107
vt 0.076958 0.454690
vt 0.951531 0.482650
vt 0.837149 0.281767
vt 0.912926 0.487172
vt 0.064432 0.532285
vt 0.298790 0.687460
vt 0.825577 0.362572
vt 0.264894 0.686125
vt 0.056614 0.518895
vt 0.959622 0.549977
vt 0.837123 0.350740
vt 0.929664 0.555276
vt 0.051257 0.577890
vt 0.291936 0.641182
vt 0.824256 0.407314
vt 0.275162 0.640522
vt 0.035793 0.577862
vt 0.964581 0.612577
vt 0.838997 0.411720
vt 0.948088 0.615681
vt 0.039898 0.592711
vt 0.301778 0.620707
vt 0.403076 0.772170
vt 0.830596 0.428615
vt 0.403076 0.737417
vt 0.267017 0.619338
vt 0.012950 0.593438
vt 0.987050 0.637067
vt 0.428919 0.781443
vt 0.856067 0.440612
vt 0.428919 0.728949
vt 0.935424 0.646785
vt 0.945356 0.412724
vt 0.357115 0.854737
vt 0.331665 0.779032
vt 0.948027 0.441601
vt 0.799629 0.752473
vt 0.327972 0.853161
vt 0.906904 0.416128
vt 0.370069 0.779032
vt 0.684668 0.778429
vt 0.909575 0.445005
vt 0.655249 0.778999
vt 0.799629 0.791035
vt 0.330193 0.729131
vt 0.557184 0.775635
vt 0.363063 0.804932
vt 0.331684 0.807874
vt 0.754247 0.751428
vt 0.586563 0.768755
vt 0.566112 0.815056
vt 0.689281 0.828405
vt 0.370405 0.729131
vt 0.754247 0.791805
vt 0.657717 0.824383
vt 0.595492 0.808176
vt 0.327830 0.637821
vt 0.590400 0.642651
vt 0.164818 0.789976
vt 0.357235 0.619338
vt 0.642851 0.190721
vt 0.562581 0.649581
vt 0.406824 0.626953
vt 0.080449 0.619338
vt 0.646201 0.239681
vt 0.727583 0.656002
vt 0.597847 0.731399
vt 0.712829 0.722239
vt 0.658284 0.323708
vt 0.527919 0.666449
vt 0.661748 0.291537
vt 0.680225 0.245582
vt 0.377645 0.696957
vt 0.285191 0.477898
vt 0.483372 0.812325
vt 0.280072 0.728266
vt 0.924330 0.393087
vt 0.921760 0.373660
vt 0.678504 0.727397
vt 0.268491 0.812575
vt 0.930826 0.465310
vt 0.923786 0.327561
vt 0.941993 0.227167
vt 0.764056 0.466512
vt 0.919524 0.351927
vt 0.977463 0.013354
vt 0.833186 0.466512
vt 0.317617 0.012950
vt 0.798789 0.722800
vt 0.839639 0.522681
vt 0.934403 0.500152
vt 0.932138 0.484309
vt 0.281656 0.689101
vt 0.944784 0.554368
vt 0.283549 0.640852
vt 0.956335 0.614129
vt 0.284323 0.620942
vt 0.399765 0.754789
vt 0.961112 0.640376
vt 0.422297 0.755187
vt 0.926130 0.414426
vt 0.350867 0.779032
vt 0.928801 0.443303
vt 0.799629 0.771754
vt 0.350773 0.728949
vt 0.557184 0.796361
vt 0.753483 0.771844
vt 0.595492 0.787450
vt 0.985581 0.067358
vt 0.238180 0.070710
vt 0.259592 0.052321
vt 0.138792 0.821791
vt 0.953366 0.057503
vt 0.765454 0.639660
vt 0.120235 0.821584
vt 0.772730 0.660154
vt 0.283154 0.037949
vt 0.784440 0.682652
vt 0.128680 0.843910
vt 0.970110 0.058056
vt 0.758353 0.637393
vt 0.180368 0.432154
vt 0.759258 0.257498
vt 0.884976 0.446549
vt 0.828099 0.241547
vt 0.971226 0.428512
vt 0.101516 0.405509
vt 0.908240 0.430567
vt 0.669958 0.778714
vt 0.946692 0.427163
vt 0.342544 0.853949
vt 0.673120 0.826722
vt 0.582140 0.817526
vt 0.570535 0.766286
vt 0.348248 0.806122
vt 0.576699 0.792002
vt 0.653753 0.802281
vt 0.776512 0.794925
vt 0.776512 0.748700
vt 0.327830 0.829868
vt 0.363063 0.830170
vt 0.327830 0.753980
vt 0.373865 0.753980
vt 0.689281 0.803194
vt 0.351093 0.753886
vt 0.776117 0.771930
vt 0.671321 0.802907
vt 0.345899 0.829874
vt 0.457498 0.727404
vt 0.165986 0.548054
vt 0.260364 0.376248
vt 0.625887 0.695531
vt 0.520555 0.743605
vt 0.734596 0.339638
vt 0.406824 0.703049
vt 0.012950 0.651015
vt 0.277407 0.507014
vt 0.206214 0.619338
vt 0.706517 0.466512
vt 0.399765 0.822801
vt 0.181517 0.620770
vt 0.619265 0.470337
vt 0.422433 0.807343
vt 0.582936 0.466512
vt 0.458892 0.202188
vt 0.422433 0.843958
vt 0.727583 0.468029
vt 0.460639 0.221880
vt 0.402692 0.843997
vt 0.717439 0.778459
vt 0.429089 0.593438
vt 0.518160 0.466685
vt 0.070962 0.817001
vt 0.726094 0.791097
vt 0.457498 0.298878
vt 0.715181 0.783741
vt 0.523936 0.466512
vt 0.458951 0.311476
vt 0.719061 0.788282
vt 0.458165 0.306435
vt 0.058766 0.817583
vt 0.726094 0.778429
vt 0.431598 0.585369
vt 0.599953 0.261833
vt 0.080449 0.668491
vt 0.542336 0.274386
vt 0.076079 0.728305
vt 0.500395 0.287212
vt 0.064936 0.773359
vt 0.389801 0.564275
vt 0.039540 0.774208
vt 0.356388 0.547019
vt 0.031995 0.737396
vt 0.319737 0.531779
vt 0.030523 0.696843
vt 0.505723 0.512116
vt 0.384015 0.580847
vt 0.506522 0.550736
vt 0.346302 0.574833
vt 0.507607 0.604105
vt 0.294291 0.566034
vt 0.610540 0.298468
vt 0.545535 0.300686
vt 0.502363 0.302883
vt 0.504402 0.313331
vt 0.517745 0.511765
vt 0.548610 0.318269
vt 0.527842 0.556627
vt 0.609940 0.323717
vt 0.531284 0.618364
vt 0.660591 0.582499
vt 0.204501 0.743892
vt 0.668589 0.550878
vt 0.206214 0.710848
vt 0.668004 0.517120
vt 0.204545 0.678125
vt 0.623877 0.525891
vt 0.164692 0.675333
vt 0.610236 0.563455
vt 0.167167 0.712219
vt 0.605277 0.597358
vt 0.166352 0.745757
vt 0.511839 0.183186
vt 0.584607 0.521652
vt 0.552303 0.182624
vt 0.569857 0.561129
vt 0.598009 0.178631
vt 0.565182 0.606784
vt 0.592158 0.236754
vt 0.721184 0.600612
vt 0.550092 0.232946
vt 0.722606 0.558204
vt 0.518921 0.225772
vt 0.713819 0.525134
s 0
usemtl Material
f 89/196/1 7/19/1 13/33/1 90/198/1
f 8/22/2 7/19/2 89/196/2 58/145/2 54/138/2 53/134/2
f 6/18/3 56/142/3 57/144/3
f 3/8/4 106/224/4 4/9/4 59/147/4 88/195/4
f 6/17/5 107/226/5 5/14/5 60/148/5 1/1/5 105/222/5 2/4/5 56/143/5
f 61/150/6 13/34/6 16/40/6 62/151/6
f 5/16/7 14/36/7 31/76/7 29/72/7
f 88/195/8 1/3/8 10/26/8 91/200/8
f 67/158/9 21/53/9 20/51/9 65/155/9
f 13/33/10 7/19/10 12/31/10 16/41/10
f 3/8/11 9/25/11 11/28/11 15/38/11
f 55/141/12 3/6/12 15/37/12 63/152/12
f 66/156/13 19/49/13 17/43/13 65/155/13
f 23/57/14 22/55/14 17/42/14 19/50/14
f 83/184/15 82/183/15 25/63/15 26/67/15
f 15/38/16 11/28/16 22/55/16 23/57/16
f 62/151/17 16/40/17 21/53/17 67/158/17
f 69/163/18 26/66/18 25/64/18 68/160/18
f 87/193/19 84/186/19 24/60/19 68/159/19
f 86/190/20 83/184/20 26/67/20 69/161/20
f 84/187/21 85/189/21 27/68/21 24/61/21
f 70/164/22 29/73/22 31/77/22 71/165/22
f 70/164/23 28/71/23 34/83/23 73/167/23
f 10/26/24 1/3/24 28/70/24 30/74/24
f 64/154/25 10/27/25 30/75/25 71/165/25
f 34/82/26 32/78/26 36/86/26 38/90/26
f 60/149/27 5/15/27 33/81/27 72/166/27
f 5/16/28 29/72/28 35/84/28 33/80/28
f 28/70/29 1/3/29 32/78/29 34/82/29
f 37/88/30 39/92/30 43/103/30 41/97/30
f 73/167/31 34/83/31 38/91/31 75/169/31
f 33/80/32 35/84/32 39/92/32 37/88/32
f 72/166/33 33/81/33 37/89/33 74/168/33
f 76/171/34 41/98/34 43/104/34 77/173/34
f 74/168/35 37/89/35 41/99/35 76/170/35
f 38/90/36 36/86/36 40/94/36 42/100/36
f 75/169/37 38/91/37 42/101/37 77/172/37
f 102/219/38 97/211/38 51/127/38 81/180/38
f 91/199/39 10/27/39 45/109/39 93/203/39
f 90/197/40 13/34/40 46/112/40 92/201/40
f 61/150/41 9/24/41 44/106/41 78/174/41
f 64/154/42 14/35/42 47/115/42 79/176/42
f 96/209/43 94/206/43 50/124/43 80/179/43
f 101/218/44 99/215/44 48/118/44 80/178/44
f 104/221/45 98/213/45 49/121/45 95/208/45
f 103/220/46 100/217/46 50/125/46 94/205/46
f 8/23/47 53/135/47 52/131/47
f 8/23/48 52/131/48 4/10/48 106/225/48 3/7/48 55/140/48 7/20/48
f 54/138/49 58/145/49 89/196/49 5/16/49 107/227/49 6/18/49 57/144/49
f 100/216/50 101/218/50 80/178/50 50/126/50
f 95/207/51 96/209/51 80/179/51 48/119/51
f 10/27/52 64/154/52 79/176/52 45/109/52
f 13/34/53 61/150/53 78/174/53 46/112/53
f 98/212/54 102/219/54 81/180/54 49/122/54
f 39/93/55 75/169/55 77/172/55 43/105/55
f 36/87/56 74/168/56 76/170/56 40/95/56
f 40/96/57 76/171/57 77/173/57 42/102/57
f 32/79/58 72/166/58 74/168/58 36/87/58
f 35/85/59 73/167/59 75/169/59 39/93/59
f 1/2/60 60/149/60 72/166/60 32/79/60
f 14/35/61 64/154/61 71/165/61 31/77/61
f 29/73/62 70/164/62 73/167/62 35/85/62
f 28/71/63 70/164/63 71/165/63 30/75/63
f 85/189/64 86/191/64 69/162/64 27/68/64
f 82/182/65 87/193/65 68/159/65 25/65/65
f 27/69/66 69/163/66 68/160/66 24/62/66
f 11/29/67 62/151/67 67/158/67 22/56/67
f 18/44/68 66/156/68 65/155/68 20/51/68
f 7/21/69 55/141/69 63/152/69 12/30/69
f 22/56/70 67/158/70 65/155/70 17/43/70
f 9/24/71 61/150/71 62/151/71 11/29/71
f 19/49/72 66/156/72 87/193/72 82/182/72
f 12/31/73 18/45/73 20/52/73 21/54/73 16/41/73
f 66/157/74 18/48/74 84/187/74 87/194/74
f 23/57/75 19/50/75 82/183/75 83/184/75
f 49/123/76 81/181/76 96/209/76 95/207/76
f 97/210/77 103/220/77 94/205/77 51/128/77
f 99/214/78 104/221/78 95/208/78 48/120/78
f 81/181/79 51/129/79 94/206/79 96/209/79
f 14/35/80 90/197/80 92/201/80 47/115/80
f 9/24/81 91/199/81 93/203/81 44/106/81
f 3/8/82 88/195/82 91/200/82 9/25/82
f 5/16/83 89/196/83 90/198/83 14/36/83
f 44/107/84 93/204/84 104/221/84 99/214/84
f 47/116/85 92/202/85 103/220/85 97/210/85
f 45/110/86 79/177/86 102/219/86 98/212/86
f 46/113/87 78/175/87 101/218/87 100/216/87
f 92/202/88 46/114/88 100/217/88 103/220/88
f 93/204/89 45/111/89 98/213/89 104/221/89
f 78/175/90 44/108/90 99/215/90 101/218/90
f 79/177/91 47/117/91 97/211/91 102/219/91
f 59/146/92 4/11/92 52/130/92 53/133/92 54/136/92 108/228/92
f 136/291/93 110/234/93 109/231/93 135/289/93
f 121/264/94 120/262/94 114/246/94 117/254/94
f 139/297/95 111/237/95 110/235/95 136/290/95
f 135/288/96 109/232/96 112/240/96 144/307/96
f 144/306/97 112/241/97 111/238/97 139/296/97
f 111/239/98 112/242/98 109/233/98 110/236/98
f 117/255/99 114/247/99 116/252/99 115/249/99 113/243/99
f 124/270/100 121/263/100 117/256/100 113/244/100
f 120/261/101 129/277/101 116/253/101 114/248/101
f 130/279/102 124/269/102 113/245/102 115/250/102
f 129/277/103 130/278/103 115/251/103 116/253/103
f 57/144/104 56/142/104 132/282/104 127/275/104
f 127/275/105 132/282/105 131/280/105 128/276/105
f 128/276/106 131/280/106 130/278/106 129/277/106
f 56/143/107 2/4/107 126/273/107 132/283/107
f 132/283/108 126/273/108 125/271/108 131/281/108
f 131/281/109 125/271/109 124/269/109 130/279/109
f 54/138/110 57/144/110 127/275/110 118/257/110
f 118/257/111 127/275/111 128/276/111 119/259/111
f 119/259/112 128/276/112 129/277/112 120/261/112
f 2/5/113 108/230/113 123/267/113 126/274/113
f 126/274/114 123/267/114 122/265/114 125/272/114
f 125/272/115 122/265/115 121/263/115 124/270/115
f 108/229/116 54/137/116 118/258/116 123/268/116
f 123/268/117 118/258/117 119/260/117 122/266/117
f 122/266/118 119/260/118 120/262/118 121/264/118
f 54/138/119 142/302/119 141/300/119 53/134/119
f 142/302/120 143/304/120 140/298/120 141/300/120
f 143/304/121 144/306/121 139/296/121 140/298/121
f 4/12/122 133/284/122 142/303/122 54/139/122
f 133/284/123 134/286/123 143/305/123 142/303/123
f 134/286/124 135/288/124 144/307/124 143/305/124
f 53/135/125 141/301/125 138/294/125 52/131/125
f 141/301/126 140/299/126 137/292/126 138/294/126
f 140/299/127 139/297/127 136/290/127 137/292/127
f 52/132/128 138/295/128 133/285/128 4/13/128
f 138/295/129 137/293/129 134/287/129 133/285/129
f 137/293/130 136/291/130 135/289/130 134/287/130
f 105/223/131 1/3/131 88/195/131 59/147/131 108/230/131 2/5/131
f 86/192/132 85/188/132 83/185/132
f 83/185/133 85/188/133 18/46/133 23/58/133
f 63/153/134 15/39/134 23/59/134 18/47/134 12/32/134
f 84/187/135 18/48/135 85/189/135
l 52 106
