# Blender 3.3.1
# www.blender.org
mtllib monstruo_3_caminar570.mtl
o monstruo_grande
v 0.478740 1.988519 0.292023
v 0.527498 1.126931 0.041391
v -0.652318 1.834068 0.105879
v -0.278959 1.209717 0.224163
v 0.781209 2.249323 0.040827
v 0.613219 1.605954 -0.225800
v -0.717254 2.032260 -0.343152
v -0.673397 1.711339 -0.362652
v -0.248293 2.435925 0.391736
v 0.290502 2.293485 0.443144
v -0.395446 2.419147 0.477889
v -1.071366 2.129040 -0.262446
v -0.189624 2.582769 0.032430
v 0.347333 2.411427 0.173924
v -0.956182 1.992330 -0.078773
v -0.344099 2.670799 0.036043
v -0.764239 2.362625 0.440198
v -1.402759 2.086170 -0.054570
v -1.159724 2.114149 0.187692
v -0.874296 2.685308 0.145841
v -0.526737 2.730635 0.082895
v -0.478088 2.376797 0.444276
v -1.084777 2.022308 -0.107244
v -1.888034 0.868776 0.591936
v -1.773137 0.845604 0.659995
v -1.724543 0.668657 0.465131
v -1.794673 0.682801 0.423590
v 0.406060 2.192901 0.449010
v 0.610007 2.373092 0.258059
v 0.394761 2.313650 0.454424
v 0.471917 2.427599 0.236628
v 0.673580 1.916551 0.410927
v 0.884201 1.921070 0.364999
v 0.692809 1.967982 0.454547
v 0.842340 2.062449 0.367993
v 0.718997 1.744273 0.645095
v 0.833190 1.724335 0.632173
v 0.741134 1.774660 0.744291
v 0.853302 1.758147 0.724680
v 0.663768 1.662839 0.766864
v 0.897236 1.629307 0.729947
v 0.641383 1.705692 0.957931
v 0.992623 1.649817 0.896398
v -0.084915 2.473395 0.430772
v 0.122000 2.435898 0.436278
v -0.053327 2.560986 0.180710
v 0.147879 2.518263 0.188351
v -0.031853 2.787055 0.568404
v 0.173984 2.715211 0.548877
v -0.020774 2.889188 0.309939
v 0.184756 2.817375 0.289542
v -0.498985 1.188063 0.042200
v -0.406147 1.158457 -0.179226
v -0.039904 1.265994 -0.336926
v -0.688650 1.865389 -0.122400
v 0.539903 1.234237 -0.170235
v 0.320032 1.280191 -0.280924
v 0.042425 1.514062 -0.335329
v -0.020058 1.119285 0.183216
v 0.591536 2.060608 0.211880
v -0.221169 2.487428 0.265761
v -0.373821 2.660963 0.305547
v -0.874409 2.044460 -0.175323
v 0.298640 2.413628 0.330728
v -0.761526 2.589381 0.392776
v -1.328766 2.232873 0.198260
v -0.526507 2.658175 0.282456
v -1.847336 0.856386 0.653970
v -1.725725 0.559794 0.347687
v 0.524230 2.296799 0.398091
v 0.436479 2.418078 0.365633
v 0.763159 1.880513 0.349779
v 0.785591 2.026589 0.462759
v 0.775268 1.735112 0.635821
v 0.797240 1.765735 0.734462
v 0.774954 1.633992 0.726883
v 0.806838 1.657055 0.887941
v -0.070957 2.516286 0.303935
v 0.132592 2.478516 0.311035
v -0.057645 2.840328 0.438923
v 0.210701 2.764400 0.420034
v -1.633219 1.167330 0.626815
v -1.683341 0.994311 0.551103
v -1.832672 1.178499 0.511235
v -1.791486 1.016122 0.487043
v -1.727947 0.838128 0.446202
v -1.764933 1.154070 0.616212
v -0.036812 1.793757 0.475822
v 0.230288 2.118190 -0.231054
v 0.167459 2.510766 0.011005
v 0.023571 2.312000 0.569538
v 0.042083 2.538944 0.182170
v 0.023804 2.453042 0.432424
v 0.083628 2.868337 0.260455
v 0.069386 2.735812 0.597307
v 0.079891 2.853692 0.450191
v 0.180187 2.678611 0.214203
v 0.163578 2.565934 0.509915
v -0.072913 2.622849 0.521972
v -0.057849 2.737495 0.223839
v -0.082660 2.681739 0.372916
v 0.186771 2.622137 0.362011
v 0.061177 2.715623 0.198035
v 0.045185 2.585496 0.536316
v 0.574496 1.619990 0.086491
v -0.571512 1.548394 0.159957
v 0.681328 1.811290 -0.182255
v 0.173242 1.065372 0.158797
v -0.235994 0.040919 0.262895
v -0.376116 0.076363 0.385430
v -0.407733 0.050206 0.136565
v -0.274223 0.028993 0.121178
v 0.353254 -0.037118 -0.271052
v 0.278218 -0.043287 -0.345606
v 0.361745 -0.038307 -0.309697
v 0.329660 -0.041338 -0.335306
v 0.294509 -0.038758 -0.259594
v 0.081190 0.899116 -0.260830
v 0.157626 0.587277 -0.272716
v 0.211896 0.282826 -0.291377
v 0.246528 0.230444 -0.120594
v 0.217182 0.459465 -0.004188
v 0.211030 0.724769 0.081195
v 0.368569 0.240568 -0.144011
v 0.423072 0.481168 -0.044206
v 0.494436 0.816411 0.031661
v 0.335799 0.930891 -0.240992
v 0.337419 0.582308 -0.243105
v 0.318845 0.279625 -0.271810
v 0.385863 0.266195 -0.220614
v 0.451162 0.561035 -0.160535
v 0.509394 0.907921 -0.138191
v -0.152114 0.970755 0.369484
v -0.145247 0.686154 0.393498
v -0.149589 0.446153 0.438438
v -0.434669 0.443557 0.436956
v -0.437913 0.705836 0.345122
v -0.450881 0.949091 0.276376
v -0.475465 0.411853 0.169310
v -0.478353 0.673725 0.076663
v -0.492121 0.903496 0.002790
v -0.100324 0.837599 -0.051109
v -0.137851 0.629736 0.028935
v -0.183836 0.435173 0.120866
vn 0.0532 0.5286 -0.8472
vn 0.0092 -0.0146 -0.9999
vn 0.4036 -0.2126 -0.8899
vn -0.3449 -0.1989 0.9173
vn 0.9303 -0.2306 0.2852
vn 0.6496 0.7245 0.2307
vn 0.2560 0.8810 -0.3978
vn 0.4001 -0.2036 0.8936
vn -0.0722 0.9271 0.3679
vn 0.0358 0.4947 -0.8683
vn -0.3149 -0.4069 0.8575
vn -0.4484 -0.8486 -0.2807
vn -0.3764 -0.0828 0.9227
vn 0.1705 -0.8785 0.4463
vn 0.8923 -0.2786 0.3553
vn -0.1556 -0.7227 0.6734
vn 0.1774 0.9674 0.1809
vn -0.1175 -0.7414 0.6607
vn -0.7738 0.2858 0.5654
vn 0.9800 -0.0025 -0.1988
vn -0.7708 0.0532 -0.6348
vn 0.4769 0.7521 0.4548
vn 0.0493 0.1935 0.9799
vn -0.4631 -0.4889 0.7393
vn -0.2037 0.6780 0.7063
vn -0.9690 0.0844 0.2323
vn 0.0921 -0.6421 -0.7611
vn 0.8285 0.5387 0.1529
vn -0.5230 -0.5909 0.6142
vn 0.8557 0.2738 -0.4391
vn -0.2408 0.7419 0.6258
vn 0.9917 0.0615 0.1130
vn 0.1732 -0.8430 -0.5092
vn -0.0438 -0.9879 0.1485
vn -0.0626 -0.7027 -0.7088
vn -0.8273 0.5445 -0.1381
vn 0.3780 0.7936 0.4768
vn 0.9907 -0.0384 -0.1309
vn 0.3108 0.5706 0.7601
vn 0.2023 0.9790 -0.0265
vn -0.2673 0.9162 0.2986
vn 0.4129 0.8854 0.2135
vn 0.0623 0.9773 0.2027
vn -0.9742 0.1369 0.1794
vn 0.2458 -0.3322 0.9106
vn -0.2029 0.4611 -0.8638
vn -0.8246 -0.4915 -0.2800
vn -0.9373 -0.2632 0.2285
vn 0.2250 0.1536 -0.9622
vn -0.9608 0.2505 -0.1189
vn 0.0468 0.8506 0.5237
vn 0.4133 0.7358 0.5365
vn -0.2354 0.9152 0.3270
vn 0.9752 -0.1643 0.1486
vn 0.0545 0.8419 0.5368
vn -0.3456 -0.6658 -0.6613
vn -0.1959 -0.9629 0.1855
vn -0.4498 -0.7835 -0.4287
vn 0.3901 0.6916 0.6079
vn -0.2111 -0.8311 -0.5145
vn -0.0792 0.9969 0.0022
vn 0.5095 0.6142 0.6026
vn 0.4135 0.2665 0.8706
vn -0.2600 0.2476 -0.9333
vn -0.0814 0.1422 0.9865
vn -0.7260 -0.6187 0.3002
vn -0.2925 0.5041 0.8126
vn -0.6829 0.7072 0.1833
vn -0.4402 -0.8260 -0.3521
vn 0.1245 0.3874 0.9135
vn 0.5510 0.5483 0.6291
vn 0.1194 0.3409 0.9325
vn -0.2844 0.6139 -0.7364
vn -0.8648 0.4676 0.1828
vn 0.8991 -0.3254 0.2928
vn 0.4977 0.7016 0.5099
vn 0.3291 0.3784 -0.8652
vn -0.2856 -0.2562 0.9235
vn 0.5126 0.8466 0.1432
vn 0.3855 0.9227 0.0036
vn -0.1560 0.5816 0.7984
vn -0.5328 -0.0650 0.8437
vn 0.3343 0.7148 -0.6142
vn -0.1956 -0.5423 0.8171
vn 0.1246 0.1031 -0.9868
vn 0.9442 -0.3293 -0.0024
vn -0.9882 0.0032 -0.1528
vn -0.0773 0.1674 -0.9829
vn -0.0084 -0.5588 0.8292
vn -0.9999 0.0073 -0.0126
vn 0.9640 -0.2588 -0.0611
vn -0.0713 -0.9919 -0.1052
vn 0.2425 -0.2817 0.9284
vn -0.9614 -0.2324 0.1473
vn -0.9699 -0.1862 0.1568
vn 0.9729 -0.1808 -0.1445
vn -0.1485 0.0461 -0.9878
vn -0.1423 -0.9824 0.1212
vn 0.0370 -0.9981 0.0485
vn 0.1982 -0.4192 0.8860
vn 0.1832 0.1971 -0.9631
vn 0.9726 -0.1360 0.1888
vn 0.6145 0.1746 -0.7693
vn 0.4602 -0.1040 -0.8817
vn 0.5405 -0.0144 -0.8412
vn 0.5988 0.0348 -0.8001
vn 0.9949 -0.0986 0.0200
vn 0.9810 -0.1911 0.0331
vn 0.9653 -0.2439 0.0937
vn 0.1312 -0.1341 -0.9822
vn 0.1110 0.0342 -0.9932
vn 0.1708 0.0866 -0.9815
vn 0.2794 -0.1256 0.9519
vn 0.2345 -0.2758 0.9322
vn 0.2115 -0.4181 0.8835
vn -0.9341 -0.2104 0.2883
vn -0.9617 -0.1734 0.2125
vn -0.9736 -0.1861 0.1324
vn -0.2023 -0.5233 -0.8278
vn -0.1770 -0.3180 -0.9314
vn -0.1519 -0.3582 -0.9212
vn 0.9317 0.2580 0.2558
vn 0.9954 -0.0439 0.0856
vn 0.9920 -0.1233 -0.0269
vn -0.9947 -0.0098 -0.1022
vn -0.9886 -0.0105 0.1505
vn -0.9886 0.0395 0.1451
vn -0.4474 0.4500 0.7729
vn -0.2302 0.1600 0.9599
vn -0.0753 0.2621 0.9621
vn 0.3827 -0.2676 0.8843
vn 0.5279 0.3645 -0.7671
vn -0.0710 -0.4699 -0.8799
vn -0.1765 -0.8083 -0.5617
vn -0.7256 -0.0822 -0.6832
vt 0.461701 0.809397
vt 0.301930 0.729761
vt 0.094158 0.499911
vt 0.498737 0.648456
vt 0.250869 0.553264
vt 0.714874 0.752530
vt 0.627854 0.740386
vt 0.227533 0.339544
vt 0.300362 0.438253
vt 0.625828 0.633709
vt 0.338991 0.679376
vt 0.653754 0.621457
vt 0.189641 0.785401
vt 0.531284 0.815038
vt 0.232114 0.729761
vt 0.806952 0.326283
vt 0.527824 0.712310
vt 0.703640 0.331352
vt 0.725736 0.123548
vt 0.557184 0.740386
vt 0.714874 0.681901
vt 0.693091 0.138725
vt 0.558638 0.706064
vt 0.944491 0.391302
vt 0.108931 0.369345
vt 0.090202 0.443431
vt 0.952837 0.467016
vt 0.108059 0.346292
vt 0.960024 0.371234
vt 0.653754 0.712739
vt 0.761990 0.055860
vt 0.265996 0.788213
vt 0.829683 0.188590
vt 0.886815 0.394232
vt 0.909606 0.471204
vt 0.826550 0.267021
vt 0.659457 0.749480
vt 0.206417 0.267620
vt 0.238389 0.812575
vt 0.882743 0.373659
vt 0.837846 0.166681
vt 0.102618 0.289588
vt 0.957957 0.321520
vt 0.918648 0.216117
vt 0.803322 0.012950
vt 0.106348 0.638847
vt 0.232551 0.755661
vt 0.798789 0.485160
vt 0.965752 0.239402
vt 0.153968 0.222285
vt 0.894228 0.312474
vt 0.856067 0.102710
vt 0.881967 0.351902
vt 0.842627 0.144082
vt 0.107159 0.331692
vt 0.958812 0.358201
vt 0.199778 0.246429
vt 0.138792 0.619338
vt 0.232114 0.797406
vt 0.967580 0.012950
vt 0.753483 0.682459
vt 0.843831 0.469074
vt 0.256421 0.022764
vt 0.824689 0.472884
vt 0.987050 0.016155
vt 0.832147 0.505580
vt 0.295109 0.018166
vt 0.782932 0.707368
vt 0.843831 0.503254
vt 0.076417 0.467161
vt 0.958695 0.494573
vt 0.833773 0.298242
vt 0.909847 0.503107
vt 0.076958 0.454690
vt 0.951531 0.482650
vt 0.837149 0.281767
vt 0.912926 0.487172
vt 0.064432 0.532285
vt 0.298790 0.687460
vt 0.825577 0.362572
vt 0.264894 0.686125
vt 0.056614 0.518895
vt 0.959622 0.549977
vt 0.837123 0.350740
vt 0.929664 0.555276
vt 0.051257 0.577890
vt 0.291936 0.641182
vt 0.824256 0.407314
vt 0.275162 0.640522
vt 0.035793 0.577862
vt 0.964581 0.612577
vt 0.838997 0.411720
vt 0.948088 0.615681
vt 0.039898 0.592711
vt 0.301778 0.620707
vt 0.403076 0.772170
vt 0.830596 0.428615
vt 0.403076 0.737417
vt 0.267017 0.619338
vt 0.012950 0.593438
vt 0.987050 0.637067
vt 0.428919 0.781443
vt 0.856067 0.440612
vt 0.428919 0.728949
vt 0.935424 0.646785
vt 0.945356 0.412724
vt 0.357115 0.854737
vt 0.331665 0.779032
vt 0.948027 0.441601
vt 0.799629 0.752473
vt 0.327972 0.853161
vt 0.906904 0.416128
vt 0.370069 0.779032
vt 0.684668 0.778429
vt 0.909575 0.445005
vt 0.655249 0.778999
vt 0.799629 0.791035
vt 0.330193 0.729131
vt 0.557184 0.775635
vt 0.363063 0.804932
vt 0.331684 0.807874
vt 0.754247 0.751428
vt 0.586563 0.768755
vt 0.566112 0.815056
vt 0.689281 0.828405
vt 0.370405 0.729131
vt 0.754247 0.791805
vt 0.657717 0.824383
vt 0.595492 0.808176
vt 0.327830 0.637821
vt 0.590400 0.642651
vt 0.164818 0.789976
vt 0.357235 0.619338
vt 0.642851 0.190721
vt 0.562581 0.649581
vt 0.406824 0.626953
vt 0.080449 0.619338
vt 0.646201 0.239681
vt 0.727583 0.656002
vt 0.597847 0.731399
vt 0.712829 0.722239
vt 0.658284 0.323708
vt 0.527919 0.666449
vt 0.661748 0.291537
vt 0.680225 0.245582
vt 0.377645 0.696957
vt 0.285191 0.477898
vt 0.483372 0.812325
vt 0.280072 0.728266
vt 0.924330 0.393087
vt 0.921760 0.373660
vt 0.678504 0.727397
vt 0.268491 0.812575
vt 0.930826 0.465310
vt 0.923786 0.327561
vt 0.941993 0.227167
vt 0.764056 0.466512
vt 0.919524 0.351927
vt 0.977463 0.013354
vt 0.833186 0.466512
vt 0.317617 0.012950
vt 0.798789 0.722800
vt 0.839639 0.522681
vt 0.934403 0.500152
vt 0.932138 0.484309
vt 0.281656 0.689101
vt 0.944784 0.554368
vt 0.283549 0.640852
vt 0.956335 0.614129
vt 0.284323 0.620942
vt 0.399765 0.754789
vt 0.961112 0.640376
vt 0.422297 0.755187
vt 0.926130 0.414426
vt 0.350867 0.779032
vt 0.928801 0.443303
vt 0.799629 0.771754
vt 0.350773 0.728949
vt 0.557184 0.796361
vt 0.753483 0.771844
vt 0.595492 0.787450
vt 0.985581 0.067358
vt 0.238180 0.070710
vt 0.259592 0.052321
vt 0.138792 0.821791
vt 0.953366 0.057503
vt 0.765454 0.639660
vt 0.120235 0.821584
vt 0.772730 0.660154
vt 0.283154 0.037949
vt 0.784440 0.682652
vt 0.128680 0.843910
vt 0.970110 0.058056
vt 0.758353 0.637393
vt 0.180368 0.432154
vt 0.759258 0.257498
vt 0.884976 0.446549
vt 0.828099 0.241547
vt 0.971226 0.428512
vt 0.101516 0.405509
vt 0.908240 0.430567
vt 0.669958 0.778714
vt 0.946692 0.427163
vt 0.342544 0.853949
vt 0.673120 0.826722
vt 0.582140 0.817526
vt 0.570535 0.766286
vt 0.348248 0.806122
vt 0.576699 0.792002
vt 0.653753 0.802281
vt 0.776512 0.794925
vt 0.776512 0.748700
vt 0.327830 0.829868
vt 0.363063 0.830170
vt 0.327830 0.753980
vt 0.373865 0.753980
vt 0.689281 0.803194
vt 0.351093 0.753886
vt 0.776117 0.771930
vt 0.671321 0.802907
vt 0.345899 0.829874
vt 0.457498 0.727404
vt 0.165986 0.548054
vt 0.260364 0.376248
vt 0.625887 0.695531
vt 0.520555 0.743605
vt 0.734596 0.339638
vt 0.406824 0.703049
vt 0.012950 0.651015
vt 0.277407 0.507014
vt 0.206214 0.619338
vt 0.706517 0.466512
vt 0.399765 0.822801
vt 0.181517 0.620770
vt 0.619265 0.470337
vt 0.422433 0.807343
vt 0.582936 0.466512
vt 0.458892 0.202188
vt 0.422433 0.843958
vt 0.727583 0.468029
vt 0.460639 0.221880
vt 0.402692 0.843997
vt 0.717439 0.778459
vt 0.429089 0.593438
vt 0.518160 0.466685
vt 0.070962 0.817001
vt 0.726094 0.791097
vt 0.457498 0.298878
vt 0.715181 0.783741
vt 0.523936 0.466512
vt 0.458951 0.311476
vt 0.719061 0.788282
vt 0.458165 0.306435
vt 0.058766 0.817583
vt 0.726094 0.778429
vt 0.431598 0.585369
vt 0.599953 0.261833
vt 0.080449 0.668491
vt 0.542336 0.274386
vt 0.076079 0.728305
vt 0.500395 0.287212
vt 0.064936 0.773359
vt 0.389801 0.564275
vt 0.039540 0.774208
vt 0.356388 0.547019
vt 0.031995 0.737396
vt 0.319737 0.531779
vt 0.030523 0.696843
vt 0.505723 0.512116
vt 0.384015 0.580847
vt 0.506522 0.550736
vt 0.346302 0.574833
vt 0.507607 0.604105
vt 0.294291 0.566034
vt 0.610540 0.298468
vt 0.545535 0.300686
vt 0.502363 0.302883
vt 0.504402 0.313331
vt 0.517745 0.511765
vt 0.548610 0.318269
vt 0.527842 0.556627
vt 0.609940 0.323717
vt 0.531284 0.618364
vt 0.660591 0.582499
vt 0.204501 0.743892
vt 0.668589 0.550878
vt 0.206214 0.710848
vt 0.668004 0.517120
vt 0.204545 0.678125
vt 0.623877 0.525891
vt 0.164692 0.675333
vt 0.610236 0.563455
vt 0.167167 0.712219
vt 0.605277 0.597358
vt 0.166352 0.745757
vt 0.511839 0.183186
vt 0.584607 0.521652
vt 0.552303 0.182624
vt 0.569857 0.561129
vt 0.598009 0.178631
vt 0.565182 0.606784
vt 0.592158 0.236754
vt 0.721184 0.600612
vt 0.550092 0.232946
vt 0.722606 0.558204
vt 0.518921 0.225772
vt 0.713819 0.525134
s 0
usemtl Material
f 89/196/1 7/19/1 13/33/1 90/198/1
f 8/22/2 7/19/2 89/196/2 58/145/2 54/138/2 53/134/2
f 6/18/3 56/142/3 57/144/3
f 3/8/4 106/224/4 4/9/4 59/147/4 88/195/4
f 6/17/5 107/226/5 5/14/5 60/148/5 1/1/5 105/222/5 2/4/5 56/143/5
f 61/150/6 13/34/6 16/40/6 62/151/6
f 5/16/7 14/36/7 31/76/7 29/72/7
f 88/195/8 1/3/8 10/26/8 91/200/8
f 67/158/9 21/53/9 20/51/9 65/155/9
f 13/33/10 7/19/10 12/31/10 16/41/10
f 3/8/11 9/25/11 11/28/11 15/38/11
f 55/141/12 3/6/12 15/37/12 63/152/12
f 66/156/13 19/49/13 17/43/13 65/155/13
f 23/57/14 22/55/14 17/42/14 19/50/14
f 83/184/15 82/183/15 25/63/15 26/67/15
f 15/38/16 11/28/16 22/55/16 23/57/16
f 62/151/17 16/40/17 21/53/17 67/158/17
f 69/163/18 26/66/18 25/64/18 68/160/18
f 87/193/19 84/186/19 24/60/19 68/159/19
f 86/190/20 83/184/20 26/67/20 69/161/20
f 84/187/21 85/189/21 27/68/21 24/61/21
f 70/164/22 29/73/22 31/77/22 71/165/22
f 70/164/23 28/71/23 34/83/23 73/167/23
f 10/26/24 1/3/24 28/70/24 30/74/24
f 64/154/25 10/27/25 30/75/25 71/165/25
f 34/82/26 32/78/26 36/86/26 38/90/26
f 60/149/27 5/15/27 33/81/27 72/166/27
f 5/16/28 29/72/28 35/84/28 33/80/28
f 28/70/29 1/3/29 32/78/29 34/82/29
f 37/88/30 39/92/30 43/103/30 41/97/30
f 73/167/31 34/83/31 38/91/31 75/169/31
f 33/80/32 35/84/32 39/92/32 37/88/32
f 72/166/33 33/81/33 37/89/33 74/168/33
f 76/171/34 41/98/34 43/104/34 77/173/34
f 74/168/35 37/89/35 41/99/35 76/170/35
f 38/90/36 36/86/36 40/94/36 42/100/36
f 75/169/37 38/91/37 42/101/37 77/172/37
f 102/219/38 97/211/38 51/127/38 81/180/38
f 91/199/39 10/27/39 45/109/39 93/203/39
f 90/197/40 13/34/40 46/112/40 92/201/40
f 61/150/41 9/24/41 44/106/41 78/174/41
f 64/154/42 14/35/42 47/115/42 79/176/42
f 96/209/43 94/206/43 50/124/43 80/179/43
f 101/218/44 99/215/44 48/118/44 80/178/44
f 104/221/45 98/213/45 49/121/45 95/208/45
f 103/220/46 100/217/46 50/125/46 94/205/46
f 8/23/47 53/135/47 52/131/47
f 8/23/48 52/131/48 4/10/48 106/225/48 3/7/48 55/140/48 7/20/48
f 54/138/49 58/145/49 89/196/49 5/16/49 107/227/49 6/18/49 57/144/49
f 100/216/50 101/218/50 80/178/50 50/126/50
f 95/207/51 96/209/51 80/179/51 48/119/51
f 10/27/52 64/154/52 79/176/52 45/109/52
f 13/34/53 61/150/53 78/174/53 46/112/53
f 98/212/54 102/219/54 81/180/54 49/122/54
f 39/93/55 75/169/55 77/172/55 43/105/55
f 36/87/56 74/168/56 76/170/56 40/95/56
f 40/96/57 76/171/57 77/173/57 42/102/57
f 32/79/58 72/166/58 74/168/58 36/87/58
f 35/85/59 73/167/59 75/169/59 39/93/59
f 1/2/60 60/149/60 72/166/60 32/79/60
f 14/35/61 64/154/61 71/165/61 31/77/61
f 29/73/62 70/164/62 73/167/62 35/85/62
f 28/71/63 70/164/63 71/165/63 30/75/63
f 85/189/64 86/191/64 69/162/64 27/68/64
f 82/182/65 87/193/65 68/159/65 25/65/65
f 27/69/66 69/163/66 68/160/66 24/62/66
f 11/29/67 62/151/67 67/158/67 22/56/67
f 18/44/68 66/156/68 65/155/68 20/51/68
f 7/21/69 55/141/69 63/152/69 12/30/69
f 22/56/70 67/158/70 65/155/70 17/43/70
f 9/24/71 61/150/71 62/151/71 11/29/71
f 19/49/72 66/156/72 87/193/72 82/182/72
f 12/31/73 18/45/73 20/52/73 21/54/73 16/41/73
f 66/157/74 18/48/74 84/187/74 87/194/74
f 23/57/75 19/50/75 82/183/75 83/184/75
f 49/123/76 81/181/76 96/209/76 95/207/76
f 97/210/77 103/220/77 94/205/77 51/128/77
f 99/214/78 104/221/78 95/208/78 48/120/78
f 81/181/79 51/129/79 94/206/79 96/209/79
f 14/35/80 90/197/80 92/201/80 47/115/80
f 9/24/81 91/199/81 93/203/81 44/106/81
f 3/8/82 88/195/82 91/200/82 9/25/82
f 5/16/83 89/196/83 90/198/83 14/36/83
f 44/107/84 93/204/84 104/221/84 99/214/84
f 47/116/85 92/202/85 103/220/85 97/210/85
f 45/110/86 79/177/86 102/219/86 98/212/86
f 46/113/87 78/175/87 101/218/87 100/216/87
f 92/202/88 46/114/88 100/217/88 103/220/88
f 93/204/89 45/111/89 98/213/89 104/221/89
f 78/175/90 44/108/90 99/215/90 101/218/90
f 79/177/91 47/117/91 97/211/91 102/219/91
f 59/146/92 4/11/92 52/130/92 53/133/92 54/136/92 108/228/92
f 136/291/93 110/234/93 109/231/93 135/289/93
f 121/264/94 120/262/94 114/246/94 117/254/94
f 139/297/95 111/237/95 110/235/95 136/290/95
f 135/288/96 109/232/96 112/240/96 144/307/96
f 144/306/97 112/241/97 111/238/97 139/296/97
f 111/239/98 112/242/98 109/233/98 110/236/98
f 117/255/99 114/247/99 116/252/99 115/249/99 113/243/99
f 124/270/100 121/263/100 117/256/100 113/244/100
f 120/261/101 129/277/101 116/253/101 114/248/101
f 130/279/102 124/269/102 113/245/102 115/250/102
f 129/277/103 130/278/103 115/251/103 116/253/103
f 57/144/104 56/142/104 132/282/104 127/275/104
f 127/275/105 132/282/105 131/280/105 128/276/105
f 128/276/106 131/280/106 130/278/106 129/277/106
f 56/143/107 2/4/107 126/273/107 132/283/107
f 132/283/108 126/273/108 125/271/108 131/281/108
f 131/281/109 125/271/109 124/269/109 130/279/109
f 54/138/110 57/144/110 127/275/110 118/257/110
f 118/257/111 127/275/111 128/276/111 119/259/111
f 119/259/112 128/276/112 129/277/112 120/261/112
f 2/5/113 108/230/113 123/267/113 126/274/113
f 126/274/114 123/267/114 122/265/114 125/272/114
f 125/272/115 122/265/115 121/263/115 124/270/115
f 108/229/116 54/137/116 118/258/116 123/268/116
f 123/268/117 118/258/117 119/260/117 122/266/117
f 122/266/118 119/260/118 120/262/118 121/264/118
f 54/138/119 142/302/119 141/300/119 53/134/119
f 142/302/120 143/304/120 140/298/120 141/300/120
f 143/304/121 144/306/121 139/296/121 140/298/121
f 4/12/122 133/284/122 142/303/122 54/139/122
f 133/284/123 134/286/123 143/305/123 142/303/123
f 134/286/124 135/288/124 144/307/124 143/305/124
f 53/135/125 141/301/125 138/294/125 52/131/125
f 141/301/126 140/299/126 137/292/126 138/294/126
f 140/299/127 139/297/127 136/290/127 137/292/127
f 52/132/128 138/295/128 133/285/128 4/13/128
f 138/295/129 137/293/129 134/287/129 133/285/129
f 137/293/130 136/291/130 135/289/130 134/287/130
f 105/223/131 1/3/131 88/195/131 59/147/131 108/230/131 2/5/131
f 86/192/132 85/188/132 83/185/132
f 83/185/133 85/188/133 18/46/133 23/58/133
f 63/153/134 15/39/134 23/59/134 18/47/134 12/32/134
f 84/187/135 18/48/135 85/189/135
l 52 106
