# Blender 3.3.1
# www.blender.org
mtllib monstruo_3_caminar614.mtl
o monstruo_grande
v 0.317400 2.034591 0.196831
v 0.526647 1.213422 0.084229
v -0.738504 1.712165 0.204295
v -0.287616 1.105171 0.221197
v 0.436407 2.329286 -0.153423
v 0.501364 1.630945 -0.261022
v -0.892567 1.933378 -0.207512
v -0.773293 1.653513 -0.279032
v -0.378215 2.381307 0.470179
v 0.182790 2.303681 0.411969
v -0.507110 2.345562 0.574023
v -1.255375 1.970389 -0.045741
v -0.387161 2.542328 0.110252
v 0.156695 2.443133 0.153810
v -1.094413 1.839055 0.107884
v -0.550913 2.608102 0.136279
v -0.855730 2.248715 0.601105
v -1.537298 1.895315 0.227965
v -1.254537 1.944662 0.423915
v -1.055027 2.552459 0.334557
v -0.733085 2.641727 0.209898
v -0.582356 2.297279 0.553063
v -1.227533 1.858360 0.112457
v -1.809466 0.646627 0.935811
v -1.682016 0.628368 0.978161
v -1.668929 0.451250 0.777907
v -1.746721 0.462396 0.752058
v 0.343883 2.223801 0.381533
v 0.413751 2.425576 0.119527
v 0.296401 2.337894 0.399639
v 0.287622 2.472603 0.173355
v 0.567472 1.918170 0.152987
v 0.660753 2.025010 -0.029082
v 0.592964 1.997483 0.204221
v 0.654650 2.120314 0.048839
v 0.738095 1.700509 0.058459
v 0.805225 1.740610 -0.024866
v 0.825218 1.658953 0.101372
v 0.889600 1.709052 0.019379
v 0.755163 1.545396 0.066788
v 0.892616 1.646770 -0.101218
v 0.872495 1.429209 0.174389
v 1.072791 1.581045 -0.084659
v -0.216070 2.441414 0.486747
v -0.005465 2.418567 0.465367
v -0.223904 2.537837 0.238713
v -0.022451 2.515111 0.220689
v -0.158867 2.754502 0.630583
v 0.045835 2.689801 0.587892
v -0.176254 2.867658 0.377144
v 0.027208 2.803438 0.333495
v -0.498949 1.120759 0.011081
v -0.389038 1.153589 -0.203117
v -0.057018 1.270131 -0.333523
v -0.802383 1.754548 -0.014745
v 0.547372 1.217897 -0.154348
v 0.326376 1.210410 -0.276775
v -0.029123 1.523031 -0.328079
v -0.007888 1.148936 0.195704
v 0.358299 2.123619 0.077901
v -0.374877 2.438595 0.343631
v -0.541143 2.590126 0.409289
v -1.029834 1.906936 -0.013005
v 0.146660 2.429451 0.313984
v -0.891592 2.474009 0.555232
v -1.431438 2.044849 0.466661
v -0.693236 2.568634 0.406848
v -1.756172 0.636382 0.987897
v -1.690721 0.341179 0.663648
v 0.418249 2.335707 0.276478
v 0.292372 2.450600 0.308774
v 0.566573 1.955659 0.026467
v 0.666882 2.070614 0.153360
v 0.770458 1.723989 0.017081
v 0.857213 1.683206 0.059993
v 0.802562 1.601051 -0.030417
v 0.934838 1.515915 0.021957
v -0.220157 2.489127 0.361461
v -0.015189 2.467816 0.342413
v -0.198682 2.812369 0.506750
v 0.068084 2.745616 0.458371
v -1.564483 0.954597 0.915346
v -1.622863 0.779080 0.852376
v -1.784120 0.956608 0.844001
v -1.742823 0.796266 0.812515
v -1.682642 0.620276 0.759667
v -1.694876 0.936448 0.932804
v -0.082241 1.767811 0.507577
v 0.011481 2.139044 -0.207763
v -0.030505 2.515195 0.040579
v -0.048166 2.279413 0.602328
v -0.124544 2.525239 0.227921
v -0.106946 2.428367 0.475345
v -0.077470 2.852183 0.316841
v -0.053973 2.705174 0.647158
v -0.061099 2.829401 0.505152
v 0.016282 2.669440 0.252265
v 0.035280 2.542713 0.543209
v -0.200206 2.590963 0.581183
v -0.221150 2.717538 0.288447
v -0.226724 2.655516 0.436715
v 0.041462 2.606088 0.396334
v -0.104276 2.701716 0.249873
v -0.080208 2.556902 0.582138
v 0.373291 1.733065 -0.035886
v -0.597301 1.438474 0.223389
v 0.477981 1.851917 -0.260873
v 0.180689 1.183782 0.197607
v -0.192291 -0.003472 -0.094443
v -0.337064 0.001245 0.027482
v -0.362202 0.001048 -0.222319
v -0.226969 -0.003121 -0.236673
v 0.369312 0.019646 0.197750
v 0.287552 -0.003095 0.134516
v 0.373990 0.011215 0.159292
v 0.339685 0.002396 0.138330
v 0.312114 0.018724 0.215705
v 0.096219 0.863364 -0.088292
v 0.143108 0.603008 0.040214
v 0.208896 0.313729 0.117565
v 0.269841 0.324455 0.288600
v 0.243341 0.579495 0.321982
v 0.233323 0.857856 0.310626
v 0.386648 0.326651 0.245056
v 0.439818 0.588276 0.248952
v 0.509619 0.929053 0.213948
v 0.353025 0.899554 -0.075610
v 0.325104 0.610990 0.045221
v 0.317484 0.318211 0.120655
v 0.391622 0.324014 0.162641
v 0.449367 0.622088 0.114215
v 0.525095 0.933758 0.025149
v -0.169635 0.833630 0.293915
v -0.143559 0.549338 0.215226
v -0.138663 0.311209 0.168405
v -0.423780 0.300932 0.155997
v -0.435033 0.575627 0.165335
v -0.458387 0.830949 0.171717
v -0.457723 0.359526 -0.105617
v -0.466897 0.635927 -0.097924
v -0.475020 0.863668 -0.104352
v -0.078583 0.826095 -0.137436
v -0.123684 0.620446 -0.143136
v -0.166169 0.407246 -0.133273
vn -0.1224 0.5372 -0.8346
vn -0.0845 0.0749 -0.9936
vn 0.4820 -0.1684 -0.8598
vn -0.2167 -0.2986 0.9295
vn 0.9431 0.0966 0.3180
vn 0.5742 0.8014 0.1676
vn 0.0096 0.9173 -0.3980
vn 0.6645 -0.2002 0.7200
vn -0.1186 0.9135 0.3892
vn -0.1944 0.5217 -0.8307
vn -0.0771 -0.4815 0.8731
vn -0.3754 -0.8814 -0.2867
vn -0.1877 -0.1133 0.9757
vn 0.3663 -0.8427 0.3945
vn 0.9570 -0.2422 0.1598
vn 0.0461 -0.7221 0.6902
vn 0.0744 0.9805 0.1821
vn 0.0525 -0.7382 0.6726
vn -0.6490 0.2640 0.7135
vn 0.9155 0.0310 -0.4011
vn -0.8886 0.0180 -0.4584
vn 0.5844 0.7639 0.2738
vn 0.6179 0.1545 0.7710
vn -0.1213 -0.5575 0.8212
vn -0.0771 0.6110 0.7879
vn -0.4153 -0.5562 0.7198
vn -0.4297 -0.5089 -0.7459
vn 0.7803 0.5736 -0.2493
vn -0.1071 -0.6445 0.7571
vn 0.3964 0.8197 -0.4134
vn 0.5846 0.1236 0.8018
vn 0.6703 0.3885 -0.6322
vn -0.4452 -0.2921 -0.8464
vn -0.1894 -0.7047 -0.6837
vn -0.6812 0.0421 -0.7309
vn -0.5477 0.0844 0.8324
vn 0.7821 0.2944 0.5492
vn 0.9704 -0.0068 -0.2414
vn 0.4034 0.5760 0.7110
vn 0.0806 0.9961 -0.0352
vn -0.3421 0.8669 0.3625
vn 0.3520 0.9141 0.2012
vn 0.0562 0.9694 0.2391
vn -0.9540 0.1014 0.2821
vn 0.3446 -0.3643 0.8652
vn -0.3020 0.4942 -0.8152
vn -0.6791 -0.5886 -0.4387
vn -0.8608 -0.4612 0.2154
vn 0.0673 0.1116 -0.9915
vn -0.9729 0.2313 -0.0004
vn 0.0762 0.8288 0.5543
vn 0.4428 0.7453 0.4985
vn -0.3039 0.8708 0.3864
vn 0.9889 -0.1432 0.0400
vn 0.5991 0.1508 0.7863
vn -0.8452 -0.0749 -0.5292
vn -0.2688 -0.7811 -0.5636
vn -0.7590 -0.5533 -0.3432
vn 0.8536 0.4040 0.3288
vn -0.5360 -0.7117 -0.4542
vn -0.1845 0.9761 0.1145
vn 0.7747 0.5771 0.2585
vn 0.6662 0.3607 0.6527
vn -0.4600 0.2281 -0.8581
vn 0.1230 0.1496 0.9811
vn -0.6226 -0.6414 0.4483
vn -0.2282 0.4548 0.8609
vn -0.7172 0.6164 0.3251
vn -0.3764 -0.8447 -0.3805
vn 0.2412 0.4112 0.8790
vn 0.5617 0.6034 0.5660
vn 0.2672 0.3387 0.9022
vn -0.4848 0.5705 -0.6630
vn -0.8491 0.3963 0.3493
vn 0.9587 -0.2645 0.1046
vn 0.5274 0.6943 0.4897
vn 0.2273 0.4261 -0.8757
vn -0.1852 -0.3029 0.9349
vn 0.5014 0.8556 0.1285
vn 0.2773 0.9607 -0.0120
vn -0.1038 0.5041 0.8574
vn -0.4054 -0.1405 0.9033
vn 0.0317 0.7586 -0.6507
vn -0.0814 -0.5761 0.8133
vn 0.0087 0.1582 -0.9874
vn 0.9491 -0.2861 -0.1318
vn -0.9999 -0.0075 -0.0098
vn -0.1921 0.2055 -0.9596
vn 0.1107 -0.6055 0.7881
vn -0.9944 -0.0256 0.1022
vn 0.9450 -0.2446 -0.2172
vn 0.1748 -0.9643 -0.1987
vn 0.2177 -0.5160 0.8284
vn -0.9177 -0.2086 0.3380
vn -0.9532 -0.2925 0.0767
vn 0.9849 -0.0773 -0.1548
vn -0.1214 0.2681 -0.9557
vn -0.0297 -0.9996 0.0041
vn 0.0908 -0.9680 0.2339
vn 0.3311 -0.1686 0.9284
vn 0.0458 -0.0473 -0.9978
vn 0.9944 -0.0631 0.0852
vn 0.5036 -0.0160 -0.8638
vn 0.4725 -0.4725 -0.7440
vn 0.5045 -0.3613 -0.7842
vn 0.4899 -0.2304 -0.8408
vn 0.9962 -0.0232 0.0839
vn 0.9768 -0.2082 0.0508
vn 0.9808 -0.1913 0.0381
vn 0.0739 -0.5133 -0.8550
vn 0.0779 -0.4101 -0.9087
vn 0.0377 -0.2502 -0.9675
vn 0.2426 0.3707 0.8965
vn 0.3318 0.0385 0.9426
vn 0.3501 -0.0854 0.9328
vn -0.9272 -0.0818 0.3656
vn -0.9443 -0.0144 0.3287
vn -0.9350 -0.1319 0.3291
vn -0.1696 -0.3459 -0.9228
vn -0.1047 0.0073 -0.9945
vn -0.1142 0.0034 -0.9935
vn 0.9084 0.2486 0.3360
vn 0.9891 -0.0615 0.1340
vn 0.9963 -0.0804 -0.0319
vn -0.9822 -0.0071 -0.1878
vn -0.9948 -0.0648 0.0783
vn -0.9925 -0.0404 0.1153
vn -0.5402 0.1884 0.8202
vn -0.2865 -0.1748 0.9420
vn -0.1098 -0.1116 0.9877
vn 0.6019 -0.0844 0.7941
vn 0.3403 0.3753 -0.8622
vn -0.2100 -0.4650 -0.8600
vn -0.2206 -0.8154 -0.5352
vn -0.8477 -0.1167 -0.5175
vt 0.461701 0.809397
vt 0.301930 0.729761
vt 0.094158 0.499911
vt 0.498737 0.648456
vt 0.250869 0.553264
vt 0.714874 0.752530
vt 0.627854 0.740386
vt 0.227533 0.339544
vt 0.300362 0.438253
vt 0.625828 0.633709
vt 0.338991 0.679376
vt 0.653754 0.621457
vt 0.189641 0.785401
vt 0.531284 0.815038
vt 0.232114 0.729761
vt 0.806952 0.326283
vt 0.527824 0.712310
vt 0.703640 0.331352
vt 0.725736 0.123548
vt 0.557184 0.740386
vt 0.714874 0.681901
vt 0.693091 0.138725
vt 0.558638 0.706064
vt 0.944491 0.391302
vt 0.108931 0.369345
vt 0.090202 0.443431
vt 0.952837 0.467016
vt 0.108059 0.346292
vt 0.960024 0.371234
vt 0.653754 0.712739
vt 0.761990 0.055860
vt 0.265996 0.788213
vt 0.829683 0.188590
vt 0.886815 0.394232
vt 0.909606 0.471204
vt 0.826550 0.267021
vt 0.659457 0.749480
vt 0.206417 0.267620
vt 0.238389 0.812575
vt 0.882743 0.373659
vt 0.837846 0.166681
vt 0.102618 0.289588
vt 0.957957 0.321520
vt 0.918648 0.216117
vt 0.803322 0.012950
vt 0.106348 0.638847
vt 0.232551 0.755661
vt 0.798789 0.485160
vt 0.965752 0.239402
vt 0.153968 0.222285
vt 0.894228 0.312474
vt 0.856067 0.102710
vt 0.881967 0.351902
vt 0.842627 0.144082
vt 0.107159 0.331692
vt 0.958812 0.358201
vt 0.199778 0.246429
vt 0.138792 0.619338
vt 0.232114 0.797406
vt 0.967580 0.012950
vt 0.753483 0.682459
vt 0.843831 0.469074
vt 0.256421 0.022764
vt 0.824689 0.472884
vt 0.987050 0.016155
vt 0.832147 0.505580
vt 0.295109 0.018166
vt 0.782932 0.707368
vt 0.843831 0.503254
vt 0.076417 0.467161
vt 0.958695 0.494573
vt 0.833773 0.298242
vt 0.909847 0.503107
vt 0.076958 0.454690
vt 0.951531 0.482650
vt 0.837149 0.281767
vt 0.912926 0.487172
vt 0.064432 0.532285
vt 0.298790 0.687460
vt 0.825577 0.362572
vt 0.264894 0.686125
vt 0.056614 0.518895
vt 0.959622 0.549977
vt 0.837123 0.350740
vt 0.929664 0.555276
vt 0.051257 0.577890
vt 0.291936 0.641182
vt 0.824256 0.407314
vt 0.275162 0.640522
vt 0.035793 0.577862
vt 0.964581 0.612577
vt 0.838997 0.411720
vt 0.948088 0.615681
vt 0.039898 0.592711
vt 0.301778 0.620707
vt 0.403076 0.772170
vt 0.830596 0.428615
vt 0.403076 0.737417
vt 0.267017 0.619338
vt 0.012950 0.593438
vt 0.987050 0.637067
vt 0.428919 0.781443
vt 0.856067 0.440612
vt 0.428919 0.728949
vt 0.935424 0.646785
vt 0.945356 0.412724
vt 0.357115 0.854737
vt 0.331665 0.779032
vt 0.948027 0.441601
vt 0.799629 0.752473
vt 0.327972 0.853161
vt 0.906904 0.416128
vt 0.370069 0.779032
vt 0.684668 0.778429
vt 0.909575 0.445005
vt 0.655249 0.778999
vt 0.799629 0.791035
vt 0.330193 0.729131
vt 0.557184 0.775635
vt 0.363063 0.804932
vt 0.331684 0.807874
vt 0.754247 0.751428
vt 0.586563 0.768755
vt 0.566112 0.815056
vt 0.689281 0.828405
vt 0.370405 0.729131
vt 0.754247 0.791805
vt 0.657717 0.824383
vt 0.595492 0.808176
vt 0.327830 0.637821
vt 0.590400 0.642651
vt 0.164818 0.789976
vt 0.357235 0.619338
vt 0.642851 0.190721
vt 0.562581 0.649581
vt 0.406824 0.626953
vt 0.080449 0.619338
vt 0.646201 0.239681
vt 0.727583 0.656002
vt 0.597847 0.731399
vt 0.712829 0.722239
vt 0.658284 0.323708
vt 0.527919 0.666449
vt 0.661748 0.291537
vt 0.680225 0.245582
vt 0.377645 0.696957
vt 0.285191 0.477898
vt 0.483372 0.812325
vt 0.280072 0.728266
vt 0.924330 0.393087
vt 0.921760 0.373660
vt 0.678504 0.727397
vt 0.268491 0.812575
vt 0.930826 0.465310
vt 0.923786 0.327561
vt 0.941993 0.227167
vt 0.764056 0.466512
vt 0.919524 0.351927
vt 0.977463 0.013354
vt 0.833186 0.466512
vt 0.317617 0.012950
vt 0.798789 0.722800
vt 0.839639 0.522681
vt 0.934403 0.500152
vt 0.932138 0.484309
vt 0.281656 0.689101
vt 0.944784 0.554368
vt 0.283549 0.640852
vt 0.956335 0.614129
vt 0.284323 0.620942
vt 0.399765 0.754789
vt 0.961112 0.640376
vt 0.422297 0.755187
vt 0.926130 0.414426
vt 0.350867 0.779032
vt 0.928801 0.443303
vt 0.799629 0.771754
vt 0.350773 0.728949
vt 0.557184 0.796361
vt 0.753483 0.771844
vt 0.595492 0.787450
vt 0.985581 0.067358
vt 0.238180 0.070710
vt 0.259592 0.052321
vt 0.138792 0.821791
vt 0.953366 0.057503
vt 0.765454 0.639660
vt 0.120235 0.821584
vt 0.772730 0.660154
vt 0.283154 0.037949
vt 0.784440 0.682652
vt 0.128680 0.843910
vt 0.970110 0.058056
vt 0.758353 0.637393
vt 0.180368 0.432154
vt 0.759258 0.257498
vt 0.884976 0.446549
vt 0.828099 0.241547
vt 0.971226 0.428512
vt 0.101516 0.405509
vt 0.908240 0.430567
vt 0.669958 0.778714
vt 0.946692 0.427163
vt 0.342544 0.853949
vt 0.673120 0.826722
vt 0.582140 0.817526
vt 0.570535 0.766286
vt 0.348248 0.806122
vt 0.576699 0.792002
vt 0.653753 0.802281
vt 0.776512 0.794925
vt 0.776512 0.748700
vt 0.327830 0.829868
vt 0.363063 0.830170
vt 0.327830 0.753980
vt 0.373865 0.753980
vt 0.689281 0.803194
vt 0.351093 0.753886
vt 0.776117 0.771930
vt 0.671321 0.802907
vt 0.345899 0.829874
vt 0.457498 0.727404
vt 0.165986 0.548054
vt 0.260364 0.376248
vt 0.625887 0.695531
vt 0.520555 0.743605
vt 0.734596 0.339638
vt 0.406824 0.703049
vt 0.012950 0.651015
vt 0.277407 0.507014
vt 0.206214 0.619338
vt 0.706517 0.466512
vt 0.399765 0.822801
vt 0.181517 0.620770
vt 0.619265 0.470337
vt 0.422433 0.807343
vt 0.582936 0.466512
vt 0.458892 0.202188
vt 0.422433 0.843958
vt 0.727583 0.468029
vt 0.460639 0.221880
vt 0.402692 0.843997
vt 0.717439 0.778459
vt 0.429089 0.593438
vt 0.518160 0.466685
vt 0.070962 0.817001
vt 0.726094 0.791097
vt 0.457498 0.298878
vt 0.715181 0.783741
vt 0.523936 0.466512
vt 0.458951 0.311476
vt 0.719061 0.788282
vt 0.458165 0.306435
vt 0.058766 0.817583
vt 0.726094 0.778429
vt 0.431598 0.585369
vt 0.599953 0.261833
vt 0.080449 0.668491
vt 0.542336 0.274386
vt 0.076079 0.728305
vt 0.500395 0.287212
vt 0.064936 0.773359
vt 0.389801 0.564275
vt 0.039540 0.774208
vt 0.356388 0.547019
vt 0.031995 0.737396
vt 0.319737 0.531779
vt 0.030523 0.696843
vt 0.505723 0.512116
vt 0.384015 0.580847
vt 0.506522 0.550736
vt 0.346302 0.574833
vt 0.507607 0.604105
vt 0.294291 0.566034
vt 0.610540 0.298468
vt 0.545535 0.300686
vt 0.502363 0.302883
vt 0.504402 0.313331
vt 0.517745 0.511765
vt 0.548610 0.318269
vt 0.527842 0.556627
vt 0.609940 0.323717
vt 0.531284 0.618364
vt 0.660591 0.582499
vt 0.204501 0.743892
vt 0.668589 0.550878
vt 0.206214 0.710848
vt 0.668004 0.517120
vt 0.204545 0.678125
vt 0.623877 0.525891
vt 0.164692 0.675333
vt 0.610236 0.563455
vt 0.167167 0.712219
vt 0.605277 0.597358
vt 0.166352 0.745757
vt 0.511839 0.183186
vt 0.584607 0.521652
vt 0.552303 0.182624
vt 0.569857 0.561129
vt 0.598009 0.178631
vt 0.565182 0.606784
vt 0.592158 0.236754
vt 0.721184 0.600612
vt 0.550092 0.232946
vt 0.722606 0.558204
vt 0.518921 0.225772
vt 0.713819 0.525134
s 0
usemtl Material
f 89/196/1 7/19/1 13/33/1 90/198/1
f 8/22/2 7/19/2 89/196/2 58/145/2 54/138/2 53/134/2
f 6/18/3 56/142/3 57/144/3
f 3/8/4 106/224/4 4/9/4 59/147/4 88/195/4
f 6/17/5 107/226/5 5/14/5 60/148/5 1/1/5 105/222/5 2/4/5 56/143/5
f 61/150/6 13/34/6 16/40/6 62/151/6
f 5/16/7 14/36/7 31/76/7 29/72/7
f 88/195/8 1/3/8 10/26/8 91/200/8
f 67/158/9 21/53/9 20/51/9 65/155/9
f 13/33/10 7/19/10 12/31/10 16/41/10
f 3/8/11 9/25/11 11/28/11 15/38/11
f 55/141/12 3/6/12 15/37/12 63/152/12
f 66/156/13 19/49/13 17/43/13 65/155/13
f 23/57/14 22/55/14 17/42/14 19/50/14
f 83/184/15 82/183/15 25/63/15 26/67/15
f 15/38/16 11/28/16 22/55/16 23/57/16
f 62/151/17 16/40/17 21/53/17 67/158/17
f 69/163/18 26/66/18 25/64/18 68/160/18
f 87/193/19 84/186/19 24/60/19 68/159/19
f 86/190/20 83/184/20 26/67/20 69/161/20
f 84/187/21 85/189/21 27/68/21 24/61/21
f 70/164/22 29/73/22 31/77/22 71/165/22
f 70/164/23 28/71/23 34/83/23 73/167/23
f 10/26/24 1/3/24 28/70/24 30/74/24
f 64/154/25 10/27/25 30/75/25 71/165/25
f 34/82/26 32/78/26 36/86/26 38/90/26
f 60/149/27 5/15/27 33/81/27 72/166/27
f 5/16/28 29/72/28 35/84/28 33/80/28
f 28/70/29 1/3/29 32/78/29 34/82/29
f 37/88/30 39/92/30 43/103/30 41/97/30
f 73/167/31 34/83/31 38/91/31 75/169/31
f 33/80/32 35/84/32 39/92/32 37/88/32
f 72/166/33 33/81/33 37/89/33 74/168/33
f 76/171/34 41/98/34 43/104/34 77/173/34
f 74/168/35 37/89/35 41/99/35 76/170/35
f 38/90/36 36/86/36 40/94/36 42/100/36
f 75/169/37 38/91/37 42/101/37 77/172/37
f 102/219/38 97/211/38 51/127/38 81/180/38
f 91/199/39 10/27/39 45/109/39 93/203/39
f 90/197/40 13/34/40 46/112/40 92/201/40
f 61/150/41 9/24/41 44/106/41 78/174/41
f 64/154/42 14/35/42 47/115/42 79/176/42
f 96/209/43 94/206/43 50/124/43 80/179/43
f 101/218/44 99/215/44 48/118/44 80/178/44
f 104/221/45 98/213/45 49/121/45 95/208/45
f 103/220/46 100/217/46 50/125/46 94/205/46
f 8/23/47 53/135/47 52/131/47
f 8/23/48 52/131/48 4/10/48 106/225/48 3/7/48 55/140/48 7/20/48
f 54/138/49 58/145/49 89/196/49 5/16/49 107/227/49 6/18/49 57/144/49
f 100/216/50 101/218/50 80/178/50 50/126/50
f 95/207/51 96/209/51 80/179/51 48/119/51
f 10/27/52 64/154/52 79/176/52 45/109/52
f 13/34/53 61/150/53 78/174/53 46/112/53
f 98/212/54 102/219/54 81/180/54 49/122/54
f 39/93/55 75/169/55 77/172/55 43/105/55
f 36/87/56 74/168/56 76/170/56 40/95/56
f 40/96/57 76/171/57 77/173/57 42/102/57
f 32/79/58 72/166/58 74/168/58 36/87/58
f 35/85/59 73/167/59 75/169/59 39/93/59
f 1/2/60 60/149/60 72/166/60 32/79/60
f 14/35/61 64/154/61 71/165/61 31/77/61
f 29/73/62 70/164/62 73/167/62 35/85/62
f 28/71/63 70/164/63 71/165/63 30/75/63
f 85/189/64 86/191/64 69/162/64 27/68/64
f 82/182/65 87/193/65 68/159/65 25/65/65
f 27/69/66 69/163/66 68/160/66 24/62/66
f 11/29/67 62/151/67 67/158/67 22/56/67
f 18/44/68 66/156/68 65/155/68 20/51/68
f 7/21/69 55/141/69 63/152/69 12/30/69
f 22/56/70 67/158/70 65/155/70 17/43/70
f 9/24/71 61/150/71 62/151/71 11/29/71
f 19/49/72 66/156/72 87/193/72 82/182/72
f 12/31/73 18/45/73 20/52/73 21/54/73 16/41/73
f 66/157/74 18/48/74 84/187/74 87/194/74
f 23/57/75 19/50/75 82/183/75 83/184/75
f 49/123/76 81/181/76 96/209/76 95/207/76
f 97/210/77 103/220/77 94/205/77 51/128/77
f 99/214/78 104/221/78 95/208/78 48/120/78
f 81/181/79 51/129/79 94/206/79 96/209/79
f 14/35/80 90/197/80 92/201/80 47/115/80
f 9/24/81 91/199/81 93/203/81 44/106/81
f 3/8/82 88/195/82 91/200/82 9/25/82
f 5/16/83 89/196/83 90/198/83 14/36/83
f 44/107/84 93/204/84 104/221/84 99/214/84
f 47/116/85 92/202/85 103/220/85 97/210/85
f 45/110/86 79/177/86 102/219/86 98/212/86
f 46/113/87 78/175/87 101/218/87 100/216/87
f 92/202/88 46/114/88 100/217/88 103/220/88
f 93/204/89 45/111/89 98/213/89 104/221/89
f 78/175/90 44/108/90 99/215/90 101/218/90
f 79/177/91 47/117/91 97/211/91 102/219/91
f 59/146/92 4/11/92 52/130/92 53/133/92 54/136/92 108/228/92
f 136/291/93 110/234/93 109/231/93 135/289/93
f 121/264/94 120/262/94 114/246/94 117/254/94
f 139/297/95 111/237/95 110/235/95 136/290/95
f 135/288/96 109/232/96 112/240/96 144/307/96
f 144/306/97 112/241/97 111/238/97 139/296/97
f 111/239/98 112/242/98 109/233/98 110/236/98
f 117/255/99 114/247/99 116/252/99 115/249/99 113/243/99
f 124/270/100 121/263/100 117/256/100 113/244/100
f 120/261/101 129/277/101 116/253/101 114/248/101
f 130/279/102 124/269/102 113/245/102 115/250/102
f 129/277/103 130/278/103 115/251/103 116/253/103
f 57/144/104 56/142/104 132/282/104 127/275/104
f 127/275/105 132/282/105 131/280/105 128/276/105
f 128/276/106 131/280/106 130/278/106 129/277/106
f 56/143/107 2/4/107 126/273/107 132/283/107
f 132/283/108 126/273/108 125/271/108 131/281/108
f 131/281/109 125/271/109 124/269/109 130/279/109
f 54/138/110 57/144/110 127/275/110 118/257/110
f 118/257/111 127/275/111 128/276/111 119/259/111
f 119/259/112 128/276/112 129/277/112 120/261/112
f 2/5/113 108/230/113 123/267/113 126/274/113
f 126/274/114 123/267/114 122/265/114 125/272/114
f 125/272/115 122/265/115 121/263/115 124/270/115
f 108/229/116 54/137/116 118/258/116 123/268/116
f 123/268/117 118/258/117 119/260/117 122/266/117
f 122/266/118 119/260/118 120/262/118 121/264/118
f 54/138/119 142/302/119 141/300/119 53/134/119
f 142/302/120 143/304/120 140/298/120 141/300/120
f 143/304/121 144/306/121 139/296/121 140/298/121
f 4/12/122 133/284/122 142/303/122 54/139/122
f 133/284/123 134/286/123 143/305/123 142/303/123
f 134/286/124 135/288/124 144/307/124 143/305/124
f 53/135/125 141/301/125 138/294/125 52/131/125
f 141/301/126 140/299/126 137/292/126 138/294/126
f 140/299/127 139/297/127 136/290/127 137/292/127
f 52/132/128 138/295/128 133/285/128 4/13/128
f 138/295/129 137/293/129 134/287/129 133/285/129
f 137/293/130 136/291/130 135/289/130 134/287/130
f 105/223/131 1/3/131 88/195/131 59/147/131 108/230/131 2/5/131
f 86/192/132 85/188/132 83/185/132
f 83/185/133 85/188/133 18/46/133 23/58/133
f 63/153/134 15/39/134 23/59/134 18/47/134 12/32/134
f 84/187/135 18/48/135 85/189/135
l 52 106
