# Blender 3.3.1
# www.blender.org
mtllib monstruo_3_caminar530.mtl
o monstruo_grande
v 0.549533 1.929172 0.343334
v 0.526732 1.127377 0.093926
v -0.598445 1.862764 0.160384
v -0.301600 1.185168 0.220837
v 0.821815 2.178635 0.039687
v 0.612662 1.531542 -0.253720
v -0.671985 2.098364 -0.271062
v -0.636517 1.783199 -0.327978
v -0.155067 2.415960 0.469071
v 0.376462 2.237276 0.486404
v -0.298545 2.401465 0.559934
v -1.002270 2.191951 -0.178769
v -0.101574 2.588080 0.120230
v 0.428547 2.367476 0.219944
v -0.883305 2.037343 -0.010767
v -0.252010 2.683909 0.136895
v -0.670255 2.358161 0.528910
v -1.322520 2.122054 0.032095
v -1.074842 2.137276 0.266893
v -0.783598 2.703850 0.264132
v -0.432664 2.747135 0.194479
v -0.382350 2.365725 0.526287
v -1.009426 2.069353 -0.035340
v -1.747726 0.840235 0.589147
v -1.629393 0.812183 0.648985
v -1.591278 0.651390 0.438423
v -1.663506 0.668513 0.401900
v 0.501176 2.140100 0.495743
v 0.686650 2.310175 0.273105
v 0.485467 2.252253 0.496082
v 0.556565 2.372726 0.275142
v 0.780148 1.818419 0.443072
v 0.963596 1.890070 0.324331
v 0.785141 1.903272 0.485645
v 0.920090 2.002787 0.365402
v 0.974976 1.600131 0.547662
v 1.072046 1.633044 0.497158
v 1.020425 1.618064 0.641781
v 1.115819 1.655502 0.588846
v 1.001166 1.481670 0.646771
v 1.199477 1.558710 0.539267
v 1.037855 1.474384 0.840278
v 1.336836 1.589699 0.674170
v 0.014410 2.441068 0.503057
v 0.219515 2.390905 0.495836
v 0.040332 2.543895 0.257872
v 0.239236 2.487514 0.252410
v 0.072935 2.749882 0.643259
v 0.277679 2.677674 0.615374
v 0.076153 2.857157 0.386944
v 0.281736 2.784337 0.358875
v -0.503926 1.204518 0.010828
v -0.389227 1.203941 -0.203042
v -0.042737 1.275550 -0.332754
v -0.641712 1.913329 -0.065803
v 0.540376 1.130920 -0.145788
v 0.320382 1.137653 -0.263591
v 0.048324 1.518391 -0.324220
v -0.026091 1.147625 0.203552
v 0.647175 2.000671 0.247932
v -0.129489 2.475749 0.346456
v -0.270448 2.653782 0.405595
v -0.809713 2.100394 -0.104030
v 0.388326 2.363357 0.380669
v -0.662407 2.587027 0.498861
v -1.242590 2.251375 0.293219
v -0.424228 2.660698 0.388352
v -1.703802 0.823129 0.647766
v -1.598734 0.552155 0.312954
v 0.616095 2.241147 0.424953
v 0.528097 2.357832 0.408601
v 0.852581 1.824936 0.338325
v 0.878862 1.968535 0.469296
v 1.022864 1.618253 0.521378
v 1.068183 1.636484 0.615248
v 1.092090 1.512130 0.571951
v 1.171256 1.516617 0.717556
v 0.026331 2.492731 0.379414
v 0.227096 2.440075 0.372861
v 0.043026 2.805810 0.515799
v 0.310783 2.728866 0.486638
v -1.491287 1.136048 0.634037
v -1.545429 0.969375 0.547616
v -1.696534 1.155072 0.530258
v -1.656809 0.995779 0.491295
v -1.595605 0.821813 0.433182
v -1.623383 1.123175 0.629398
v 0.017359 1.760706 0.507028
v 0.265195 2.103200 -0.197175
v 0.249026 2.492043 0.073941
v 0.116788 2.265791 0.625212
v 0.134742 2.515883 0.253301
v 0.122564 2.417363 0.498682
v 0.179739 2.836836 0.334263
v 0.174865 2.697699 0.667709
v 0.180922 2.818435 0.522674
v 0.275095 2.646516 0.281619
v 0.266567 2.526967 0.574167
v 0.030444 2.586663 0.595579
v 0.038042 2.709343 0.301542
v 0.016615 2.649237 0.448796
v 0.285504 2.586284 0.427126
v 0.156083 2.686380 0.270964
v 0.148275 2.548431 0.604769
v 0.589271 1.606526 -0.005364
v -0.543935 1.564747 0.195968
v 0.685583 1.727575 -0.222307
v 0.172275 1.132723 0.213530
v -0.282263 0.241628 -0.393573
v -0.420201 0.175296 -0.281720
v -0.458879 0.312472 -0.489002
v -0.324733 0.320255 -0.510357
v 0.300654 -0.011047 0.082955
v 0.226904 -0.025060 0.008130
v 0.309907 -0.016620 0.044847
v 0.278279 -0.022295 0.019107
v 0.241595 -0.010975 0.093389
v 0.072360 0.829073 -0.061228
v 0.139185 0.608585 0.003991
v 0.171047 0.306987 0.019001
v 0.198905 0.278682 0.196554
v 0.184309 0.524113 0.276632
v 0.196013 0.799038 0.321279
v 0.321740 0.276672 0.175292
v 0.392334 0.526802 0.243454
v 0.483568 0.850913 0.247584
v 0.327561 0.834933 -0.043961
v 0.317622 0.596772 0.037522
v 0.277179 0.299367 0.041764
v 0.342159 0.289194 0.096234
v 0.428319 0.582824 0.124908
v 0.500780 0.853676 0.057426
v -0.207152 0.903815 0.324245
v -0.212793 0.600665 0.161746
v -0.230354 0.391410 0.007636
v -0.514083 0.416452 -0.007964
v -0.497733 0.671861 0.123671
v -0.493710 0.923936 0.203242
v -0.529613 0.584936 -0.221430
v -0.511325 0.820095 -0.085815
v -0.504819 0.941638 -0.061507
v -0.114442 0.870247 -0.084545
v -0.169785 0.782984 -0.127221
v -0.233536 0.607704 -0.226053
vn 0.0583 0.5773 -0.8145
vn -0.0036 0.0621 -0.9981
vn 0.4420 -0.3068 -0.8429
vn -0.3363 -0.2149 0.9169
vn 0.9230 -0.3007 0.2399
vn 0.6964 0.6696 0.2580
vn 0.2770 0.8709 -0.4059
vn 0.3838 -0.2508 0.8887
vn -0.0439 0.8975 0.4389
vn 0.0310 0.5563 -0.8304
vn -0.3221 -0.4418 0.8373
vn -0.4895 -0.8059 -0.3331
vn -0.3516 -0.1539 0.9234
vn 0.1631 -0.9146 0.3701
vn 0.9097 -0.3025 0.2844
vn -0.1577 -0.7702 0.6180
vn 0.2271 0.9432 0.2426
vn -0.0826 -0.7918 0.6052
vn -0.7432 0.2377 0.6254
vn 0.9681 0.0169 -0.2499
vn -0.8034 0.1003 -0.5870
vn 0.5639 0.7186 0.4071
vn 0.1858 0.2630 0.9467
vn -0.4135 -0.4549 0.7887
vn -0.1374 0.6533 0.7445
vn -0.7543 -0.3600 0.5491
vn -0.0422 -0.6467 -0.7616
vn 0.8312 0.5538 0.0482
vn -0.4802 -0.5308 0.6984
vn 0.4767 0.6906 -0.5439
vn 0.0087 0.4444 0.8958
vn 0.9183 0.2764 -0.2833
vn 0.0906 -0.5715 -0.8156
vn 0.3585 -0.9197 -0.1604
vn -0.0954 -0.5350 -0.8394
vn -0.9529 0.1443 0.2668
vn 0.2257 0.7758 0.5892
vn 0.9869 -0.0355 -0.1575
vn 0.3859 0.4909 0.7811
vn 0.2724 0.9614 0.0380
vn -0.1951 0.9043 0.3796
vn 0.4876 0.8381 0.2445
vn 0.0729 0.9725 0.2211
vn -0.9683 0.1327 0.2118
vn 0.2719 -0.3459 0.8980
vn -0.2278 0.4718 -0.8518
vn -0.7955 -0.4314 -0.4255
vn -0.9552 -0.2173 0.2007
vn 0.1745 0.1625 -0.9712
vn -0.9642 0.2494 -0.0898
vn 0.0682 0.8398 0.5385
vn 0.4892 0.6717 0.5563
vn -0.1501 0.9016 0.4058
vn 0.9794 -0.1626 0.1197
vn -0.0462 0.6690 0.7418
vn -0.3121 -0.6151 -0.7240
vn 0.2357 -0.9678 -0.0885
vn -0.4300 -0.7295 -0.5320
vn 0.5107 0.6157 0.6000
vn -0.2805 -0.7894 -0.5461
vn -0.0177 0.9980 0.0604
vn 0.5903 0.6253 0.5105
vn 0.4777 0.2749 0.8344
vn -0.3090 0.3196 -0.8957
vn -0.0289 0.0634 0.9976
vn -0.7094 -0.6432 0.2882
vn -0.2389 0.4527 0.8590
vn -0.6707 0.6967 0.2545
vn -0.4837 -0.7838 -0.3893
vn 0.1537 0.3108 0.9380
vn 0.6073 0.4663 0.6432
vn 0.1557 0.2568 0.9539
vn -0.2985 0.6776 -0.6721
vn -0.8717 0.4167 0.2577
vn 0.9221 -0.3189 0.2192
vn 0.5173 0.6895 0.5070
vn 0.3024 0.3919 -0.8689
vn -0.2541 -0.2723 0.9280
vn 0.5221 0.8402 0.1464
vn 0.4546 0.8894 0.0475
vn -0.0924 0.5324 0.8414
vn -0.5091 -0.0844 0.8565
vn 0.3578 0.7191 -0.5957
vn -0.1701 -0.5576 0.8125
vn 0.0818 0.1264 -0.9886
vn 0.9421 -0.3327 -0.0411
vn -0.9918 0.0078 -0.1275
vn -0.1171 0.1848 -0.9758
vn 0.0013 -0.5684 0.8228
vn -0.9998 0.0140 0.0130
vn 0.9580 -0.2679 -0.1022
vn -0.0111 -0.9881 -0.1537
vn 0.1968 -0.8431 0.5005
vn -0.9723 -0.1812 0.1476
vn -0.9666 -0.2498 -0.0569
vn 0.9837 -0.0522 -0.1721
vn -0.0925 0.7007 -0.7075
vn -0.0399 -0.8363 -0.5469
vn 0.0272 -0.9866 0.1610
vn 0.1597 -0.3112 0.9368
vn 0.2110 0.0684 -0.9751
vn 0.9614 -0.1433 0.2350
vn 0.6393 0.0587 -0.7667
vn 0.4194 -0.5500 -0.7222
vn 0.5290 -0.3161 -0.7876
vn 0.6168 -0.0998 -0.7808
vn 0.9922 -0.1034 0.0697
vn 0.9606 -0.2518 0.1176
vn 0.9397 -0.3001 0.1641
vn -0.0002 -0.5483 -0.8363
vn 0.1074 -0.2908 -0.9507
vn 0.1917 -0.0343 -0.9809
vn 0.2421 0.3756 0.8946
vn 0.2216 -0.1169 0.9681
vn 0.1555 -0.2992 0.9414
vn -0.9395 -0.0007 0.3425
vn -0.9677 -0.0980 0.2322
vn -0.9858 -0.0998 0.1348
vn -0.1803 -0.4577 -0.8706
vn -0.0368 0.3151 -0.9483
vn -0.0510 0.5030 -0.8628
vn 0.9148 0.2077 0.3464
vn 0.9645 -0.2241 0.1398
vn 0.9836 -0.1713 -0.0557
vn -0.9760 0.0608 -0.2091
vn -0.9983 0.0125 0.0564
vn -0.9960 0.0234 0.0861
vn -0.5125 0.3233 0.7955
vn -0.3038 -0.3763 0.8753
vn -0.1657 -0.5078 0.8454
vn 0.4516 -0.3108 0.8363
vn 0.4867 0.4260 -0.7627
vn -0.0968 -0.3907 -0.9154
vn -0.1844 -0.7484 -0.6371
vn -0.7663 -0.0342 -0.6416
vt 0.461701 0.809397
vt 0.301930 0.729761
vt 0.094158 0.499911
vt 0.498737 0.648456
vt 0.250869 0.553264
vt 0.714874 0.752530
vt 0.627854 0.740386
vt 0.227533 0.339544
vt 0.300362 0.438253
vt 0.625828 0.633709
vt 0.338991 0.679376
vt 0.653754 0.621457
vt 0.189641 0.785401
vt 0.531284 0.815038
vt 0.232114 0.729761
vt 0.806952 0.326283
vt 0.527824 0.712310
vt 0.703640 0.331352
vt 0.725736 0.123548
vt 0.557184 0.740386
vt 0.714874 0.681901
vt 0.693091 0.138725
vt 0.558638 0.706064
vt 0.944491 0.391302
vt 0.108931 0.369345
vt 0.090202 0.443431
vt 0.952837 0.467016
vt 0.108059 0.346292
vt 0.960024 0.371234
vt 0.653754 0.712739
vt 0.761990 0.055860
vt 0.265996 0.788213
vt 0.829683 0.188590
vt 0.886815 0.394232
vt 0.909606 0.471204
vt 0.826550 0.267021
vt 0.659457 0.749480
vt 0.206417 0.267620
vt 0.238389 0.812575
vt 0.882743 0.373659
vt 0.837846 0.166681
vt 0.102618 0.289588
vt 0.957957 0.321520
vt 0.918648 0.216117
vt 0.803322 0.012950
vt 0.106348 0.638847
vt 0.232551 0.755661
vt 0.798789 0.485160
vt 0.965752 0.239402
vt 0.153968 0.222285
vt 0.894228 0.312474
vt 0.856067 0.102710
vt 0.881967 0.351902
vt 0.842627 0.144082
vt 0.107159 0.331692
vt 0.958812 0.358201
vt 0.199778 0.246429
vt 0.138792 0.619338
vt 0.232114 0.797406
vt 0.967580 0.012950
vt 0.753483 0.682459
vt 0.843831 0.469074
vt 0.256421 0.022764
vt 0.824689 0.472884
vt 0.987050 0.016155
vt 0.832147 0.505580
vt 0.295109 0.018166
vt 0.782932 0.707368
vt 0.843831 0.503254
vt 0.076417 0.467161
vt 0.958695 0.494573
vt 0.833773 0.298242
vt 0.909847 0.503107
vt 0.076958 0.454690
vt 0.951531 0.482650
vt 0.837149 0.281767
vt 0.912926 0.487172
vt 0.064432 0.532285
vt 0.298790 0.687460
vt 0.825577 0.362572
vt 0.264894 0.686125
vt 0.056614 0.518895
vt 0.959622 0.549977
vt 0.837123 0.350740
vt 0.929664 0.555276
vt 0.051257 0.577890
vt 0.291936 0.641182
vt 0.824256 0.407314
vt 0.275162 0.640522
vt 0.035793 0.577862
vt 0.964581 0.612577
vt 0.838997 0.411720
vt 0.948088 0.615681
vt 0.039898 0.592711
vt 0.301778 0.620707
vt 0.403076 0.772170
vt 0.830596 0.428615
vt 0.403076 0.737417
vt 0.267017 0.619338
vt 0.012950 0.593438
vt 0.987050 0.637067
vt 0.428919 0.781443
vt 0.856067 0.440612
vt 0.428919 0.728949
vt 0.935424 0.646785
vt 0.945356 0.412724
vt 0.357115 0.854737
vt 0.331665 0.779032
vt 0.948027 0.441601
vt 0.799629 0.752473
vt 0.327972 0.853161
vt 0.906904 0.416128
vt 0.370069 0.779032
vt 0.684668 0.778429
vt 0.909575 0.445005
vt 0.655249 0.778999
vt 0.799629 0.791035
vt 0.330193 0.729131
vt 0.557184 0.775635
vt 0.363063 0.804932
vt 0.331684 0.807874
vt 0.754247 0.751428
vt 0.586563 0.768755
vt 0.566112 0.815056
vt 0.689281 0.828405
vt 0.370405 0.729131
vt 0.754247 0.791805
vt 0.657717 0.824383
vt 0.595492 0.808176
vt 0.327830 0.637821
vt 0.590400 0.642651
vt 0.164818 0.789976
vt 0.357235 0.619338
vt 0.642851 0.190721
vt 0.562581 0.649581
vt 0.406824 0.626953
vt 0.080449 0.619338
vt 0.646201 0.239681
vt 0.727583 0.656002
vt 0.597847 0.731399
vt 0.712829 0.722239
vt 0.658284 0.323708
vt 0.527919 0.666449
vt 0.661748 0.291537
vt 0.680225 0.245582
vt 0.377645 0.696957
vt 0.285191 0.477898
vt 0.483372 0.812325
vt 0.280072 0.728266
vt 0.924330 0.393087
vt 0.921760 0.373660
vt 0.678504 0.727397
vt 0.268491 0.812575
vt 0.930826 0.465310
vt 0.923786 0.327561
vt 0.941993 0.227167
vt 0.764056 0.466512
vt 0.919524 0.351927
vt 0.977463 0.013354
vt 0.833186 0.466512
vt 0.317617 0.012950
vt 0.798789 0.722800
vt 0.839639 0.522681
vt 0.934403 0.500152
vt 0.932138 0.484309
vt 0.281656 0.689101
vt 0.944784 0.554368
vt 0.283549 0.640852
vt 0.956335 0.614129
vt 0.284323 0.620942
vt 0.399765 0.754789
vt 0.961112 0.640376
vt 0.422297 0.755187
vt 0.926130 0.414426
vt 0.350867 0.779032
vt 0.928801 0.443303
vt 0.799629 0.771754
vt 0.350773 0.728949
vt 0.557184 0.796361
vt 0.753483 0.771844
vt 0.595492 0.787450
vt 0.985581 0.067358
vt 0.238180 0.070710
vt 0.259592 0.052321
vt 0.138792 0.821791
vt 0.953366 0.057503
vt 0.765454 0.639660
vt 0.120235 0.821584
vt 0.772730 0.660154
vt 0.283154 0.037949
vt 0.784440 0.682652
vt 0.128680 0.843910
vt 0.970110 0.058056
vt 0.758353 0.637393
vt 0.180368 0.432154
vt 0.759258 0.257498
vt 0.884976 0.446549
vt 0.828099 0.241547
vt 0.971226 0.428512
vt 0.101516 0.405509
vt 0.908240 0.430567
vt 0.669958 0.778714
vt 0.946692 0.427163
vt 0.342544 0.853949
vt 0.673120 0.826722
vt 0.582140 0.817526
vt 0.570535 0.766286
vt 0.348248 0.806122
vt 0.576699 0.792002
vt 0.653753 0.802281
vt 0.776512 0.794925
vt 0.776512 0.748700
vt 0.327830 0.829868
vt 0.363063 0.830170
vt 0.327830 0.753980
vt 0.373865 0.753980
vt 0.689281 0.803194
vt 0.351093 0.753886
vt 0.776117 0.771930
vt 0.671321 0.802907
vt 0.345899 0.829874
vt 0.457498 0.727404
vt 0.165986 0.548054
vt 0.260364 0.376248
vt 0.625887 0.695531
vt 0.520555 0.743605
vt 0.734596 0.339638
vt 0.406824 0.703049
vt 0.012950 0.651015
vt 0.277407 0.507014
vt 0.206214 0.619338
vt 0.706517 0.466512
vt 0.399765 0.822801
vt 0.181517 0.620770
vt 0.619265 0.470337
vt 0.422433 0.807343
vt 0.582936 0.466512
vt 0.458892 0.202188
vt 0.422433 0.843958
vt 0.727583 0.468029
vt 0.460639 0.221880
vt 0.402692 0.843997
vt 0.717439 0.778459
vt 0.429089 0.593438
vt 0.518160 0.466685
vt 0.070962 0.817001
vt 0.726094 0.791097
vt 0.457498 0.298878
vt 0.715181 0.783741
vt 0.523936 0.466512
vt 0.458951 0.311476
vt 0.719061 0.788282
vt 0.458165 0.306435
vt 0.058766 0.817583
vt 0.726094 0.778429
vt 0.431598 0.585369
vt 0.599953 0.261833
vt 0.080449 0.668491
vt 0.542336 0.274386
vt 0.076079 0.728305
vt 0.500395 0.287212
vt 0.064936 0.773359
vt 0.389801 0.564275
vt 0.039540 0.774208
vt 0.356388 0.547019
vt 0.031995 0.737396
vt 0.319737 0.531779
vt 0.030523 0.696843
vt 0.505723 0.512116
vt 0.384015 0.580847
vt 0.506522 0.550736
vt 0.346302 0.574833
vt 0.507607 0.604105
vt 0.294291 0.566034
vt 0.610540 0.298468
vt 0.545535 0.300686
vt 0.502363 0.302883
vt 0.504402 0.313331
vt 0.517745 0.511765
vt 0.548610 0.318269
vt 0.527842 0.556627
vt 0.609940 0.323717
vt 0.531284 0.618364
vt 0.660591 0.582499
vt 0.204501 0.743892
vt 0.668589 0.550878
vt 0.206214 0.710848
vt 0.668004 0.517120
vt 0.204545 0.678125
vt 0.623877 0.525891
vt 0.164692 0.675333
vt 0.610236 0.563455
vt 0.167167 0.712219
vt 0.605277 0.597358
vt 0.166352 0.745757
vt 0.511839 0.183186
vt 0.584607 0.521652
vt 0.552303 0.182624
vt 0.569857 0.561129
vt 0.598009 0.178631
vt 0.565182 0.606784
vt 0.592158 0.236754
vt 0.721184 0.600612
vt 0.550092 0.232946
vt 0.722606 0.558204
vt 0.518921 0.225772
vt 0.713819 0.525134
s 0
usemtl Material
f 89/196/1 7/19/1 13/33/1 90/198/1
f 8/22/2 7/19/2 89/196/2 58/145/2 54/138/2 53/134/2
f 6/18/3 56/142/3 57/144/3
f 3/8/4 106/224/4 4/9/4 59/147/4 88/195/4
f 6/17/5 107/226/5 5/14/5 60/148/5 1/1/5 105/222/5 2/4/5 56/143/5
f 61/150/6 13/34/6 16/40/6 62/151/6
f 5/16/7 14/36/7 31/76/7 29/72/7
f 88/195/8 1/3/8 10/26/8 91/200/8
f 67/158/9 21/53/9 20/51/9 65/155/9
f 13/33/10 7/19/10 12/31/10 16/41/10
f 3/8/11 9/25/11 11/28/11 15/38/11
f 55/141/12 3/6/12 15/37/12 63/152/12
f 66/156/13 19/49/13 17/43/13 65/155/13
f 23/57/14 22/55/14 17/42/14 19/50/14
f 83/184/15 82/183/15 25/63/15 26/67/15
f 15/38/16 11/28/16 22/55/16 23/57/16
f 62/151/17 16/40/17 21/53/17 67/158/17
f 69/163/18 26/66/18 25/64/18 68/160/18
f 87/193/19 84/186/19 24/60/19 68/159/19
f 86/190/20 83/184/20 26/67/20 69/161/20
f 84/187/21 85/189/21 27/68/21 24/61/21
f 70/164/22 29/73/22 31/77/22 71/165/22
f 70/164/23 28/71/23 34/83/23 73/167/23
f 10/26/24 1/3/24 28/70/24 30/74/24
f 64/154/25 10/27/25 30/75/25 71/165/25
f 34/82/26 32/78/26 36/86/26 38/90/26
f 60/149/27 5/15/27 33/81/27 72/166/27
f 5/16/28 29/72/28 35/84/28 33/80/28
f 28/70/29 1/3/29 32/78/29 34/82/29
f 37/88/30 39/92/30 43/103/30 41/97/30
f 73/167/31 34/83/31 38/91/31 75/169/31
f 33/80/32 35/84/32 39/92/32 37/88/32
f 72/166/33 33/81/33 37/89/33 74/168/33
f 76/171/34 41/98/34 43/104/34 77/173/34
f 74/168/35 37/89/35 41/99/35 76/170/35
f 38/90/36 36/86/36 40/94/36 42/100/36
f 75/169/37 38/91/37 42/101/37 77/172/37
f 102/219/38 97/211/38 51/127/38 81/180/38
f 91/199/39 10/27/39 45/109/39 93/203/39
f 90/197/40 13/34/40 46/112/40 92/201/40
f 61/150/41 9/24/41 44/106/41 78/174/41
f 64/154/42 14/35/42 47/115/42 79/176/42
f 96/209/43 94/206/43 50/124/43 80/179/43
f 101/218/44 99/215/44 48/118/44 80/178/44
f 104/221/45 98/213/45 49/121/45 95/208/45
f 103/220/46 100/217/46 50/125/46 94/205/46
f 8/23/47 53/135/47 52/131/47
f 8/23/48 52/131/48 4/10/48 106/225/48 3/7/48 55/140/48 7/20/48
f 54/138/49 58/145/49 89/196/49 5/16/49 107/227/49 6/18/49 57/144/49
f 100/216/50 101/218/50 80/178/50 50/126/50
f 95/207/51 96/209/51 80/179/51 48/119/51
f 10/27/52 64/154/52 79/176/52 45/109/52
f 13/34/53 61/150/53 78/174/53 46/112/53
f 98/212/54 102/219/54 81/180/54 49/122/54
f 39/93/55 75/169/55 77/172/55 43/105/55
f 36/87/56 74/168/56 76/170/56 40/95/56
f 40/96/57 76/171/57 77/173/57 42/102/57
f 32/79/58 72/166/58 74/168/58 36/87/58
f 35/85/59 73/167/59 75/169/59 39/93/59
f 1/2/60 60/149/60 72/166/60 32/79/60
f 14/35/61 64/154/61 71/165/61 31/77/61
f 29/73/62 70/164/62 73/167/62 35/85/62
f 28/71/63 70/164/63 71/165/63 30/75/63
f 85/189/64 86/191/64 69/162/64 27/68/64
f 82/182/65 87/193/65 68/159/65 25/65/65
f 27/69/66 69/163/66 68/160/66 24/62/66
f 11/29/67 62/151/67 67/158/67 22/56/67
f 18/44/68 66/156/68 65/155/68 20/51/68
f 7/21/69 55/141/69 63/152/69 12/30/69
f 22/56/70 67/158/70 65/155/70 17/43/70
f 9/24/71 61/150/71 62/151/71 11/29/71
f 19/49/72 66/156/72 87/193/72 82/182/72
f 12/31/73 18/45/73 20/52/73 21/54/73 16/41/73
f 66/157/74 18/48/74 84/187/74 87/194/74
f 23/57/75 19/50/75 82/183/75 83/184/75
f 49/123/76 81/181/76 96/209/76 95/207/76
f 97/210/77 103/220/77 94/205/77 51/128/77
f 99/214/78 104/221/78 95/208/78 48/120/78
f 81/181/79 51/129/79 94/206/79 96/209/79
f 14/35/80 90/197/80 92/201/80 47/115/80
f 9/24/81 91/199/81 93/203/81 44/106/81
f 3/8/82 88/195/82 91/200/82 9/25/82
f 5/16/83 89/196/83 90/198/83 14/36/83
f 44/107/84 93/204/84 104/221/84 99/214/84
f 47/116/85 92/202/85 103/220/85 97/210/85
f 45/110/86 79/177/86 102/219/86 98/212/86
f 46/113/87 78/175/87 101/218/87 100/216/87
f 92/202/88 46/114/88 100/217/88 103/220/88
f 93/204/89 45/111/89 98/213/89 104/221/89
f 78/175/90 44/108/90 99/215/90 101/218/90
f 79/177/91 47/117/91 97/211/91 102/219/91
f 59/146/92 4/11/92 52/130/92 53/133/92 54/136/92 108/228/92
f 136/291/93 110/234/93 109/231/93 135/289/93
f 121/264/94 120/262/94 114/246/94 117/254/94
f 139/297/95 111/237/95 110/235/95 136/290/95
f 135/288/96 109/232/96 112/240/96 144/307/96
f 144/306/97 112/241/97 111/238/97 139/296/97
f 111/239/98 112/242/98 109/233/98 110/236/98
f 117/255/99 114/247/99 116/252/99 115/249/99 113/243/99
f 124/270/100 121/263/100 117/256/100 113/244/100
f 120/261/101 129/277/101 116/253/101 114/248/101
f 130/279/102 124/269/102 113/245/102 115/250/102
f 129/277/103 130/278/103 115/251/103 116/253/103
f 57/144/104 56/142/104 132/282/104 127/275/104
f 127/275/105 132/282/105 131/280/105 128/276/105
f 128/276/106 131/280/106 130/278/106 129/277/106
f 56/143/107 2/4/107 126/273/107 132/283/107
f 132/283/108 126/273/108 125/271/108 131/281/108
f 131/281/109 125/271/109 124/269/109 130/279/109
f 54/138/110 57/144/110 127/275/110 118/257/110
f 118/257/111 127/275/111 128/276/111 119/259/111
f 119/259/112 128/276/112 129/277/112 120/261/112
f 2/5/113 108/230/113 123/267/113 126/274/113
f 126/274/114 123/267/114 122/265/114 125/272/114
f 125/272/115 122/265/115 121/263/115 124/270/115
f 108/229/116 54/137/116 118/258/116 123/268/116
f 123/268/117 118/258/117 119/260/117 122/266/117
f 122/266/118 119/260/118 120/262/118 121/264/118
f 54/138/119 142/302/119 141/300/119 53/134/119
f 142/302/120 143/304/120 140/298/120 141/300/120
f 143/304/121 144/306/121 139/296/121 140/298/121
f 4/12/122 133/284/122 142/303/122 54/139/122
f 133/284/123 134/286/123 143/305/123 142/303/123
f 134/286/124 135/288/124 144/307/124 143/305/124
f 53/135/125 141/301/125 138/294/125 52/131/125
f 141/301/126 140/299/126 137/292/126 138/294/126
f 140/299/127 139/297/127 136/290/127 137/292/127
f 52/132/128 138/295/128 133/285/128 4/13/128
f 138/295/129 137/293/129 134/287/129 133/285/129
f 137/293/130 136/291/130 135/289/130 134/287/130
f 105/223/131 1/3/131 88/195/131 59/147/131 108/230/131 2/5/131
f 86/192/132 85/188/132 83/185/132
f 83/185/133 85/188/133 18/46/133 23/58/133
f 63/153/134 15/39/134 23/59/134 18/47/134 12/32/134
f 84/187/135 18/48/135 85/189/135
l 52 106
