# Blender 3.3.1
# www.blender.org
mtllib monstruo_3_grande_caminar582.mtl
o monstruo_grande
v 0.379116 2.029079 0.192563
v 0.524148 1.154627 0.060588
v -0.694624 1.794624 0.091281
v -0.298245 1.195511 0.218986
v 0.650132 2.290438 -0.094700
v 0.570276 1.632903 -0.232432
v -0.772345 1.968546 -0.366492
v -0.697778 1.659921 -0.390880
v -0.321266 2.436835 0.346173
v 0.232383 2.320212 0.379414
v -0.465212 2.417500 0.436222
v -1.143378 2.039396 -0.254859
v -0.275050 2.571922 -0.020944
v 0.263702 2.446238 0.111989
v -1.013202 1.918183 -0.061637
v -0.434873 2.649177 -0.021904
v -0.824913 2.349119 0.422315
v -1.465401 1.998019 -0.021805
v -1.211422 2.048143 0.211469
v -0.963756 2.637008 0.104872
v -0.621428 2.696966 0.020761
v -0.542648 2.375722 0.410899
v -1.144601 1.940098 -0.083169
v -1.893838 0.797188 0.689190
v -1.772398 0.770215 0.742996
v -1.756679 0.586542 0.548933
v -1.830802 0.603006 0.516091
v 0.358181 2.224117 0.374760
v 0.534607 2.403261 0.154909
v 0.340837 2.344399 0.383990
v 0.393391 2.463895 0.160172
v 0.587986 1.914603 0.249206
v 0.784560 1.937065 0.148564
v 0.620158 1.973599 0.302489
v 0.754955 2.069067 0.188398
v 0.687535 1.662479 0.372391
v 0.795473 1.663194 0.336174
v 0.723955 1.662040 0.471882
v 0.832235 1.669097 0.432543
v 0.662651 1.538774 0.465094
v 0.887302 1.552495 0.386505
v 0.670348 1.514024 0.660472
v 1.008927 1.533471 0.536923
v -0.160167 2.484429 0.384263
v 0.049558 2.456738 0.387635
v -0.136939 2.567281 0.130678
v 0.065087 2.538851 0.138801
v -0.105393 2.799040 0.525368
v 0.100562 2.729743 0.499062
v -0.103403 2.903638 0.267526
v 0.101406 2.834786 0.240107
v -0.502245 1.163625 0.015809
v -0.389353 1.140566 -0.197302
v -0.035151 1.256735 -0.338406
v -0.732886 1.814032 -0.142173
v 0.546339 1.251519 -0.153517
v 0.329934 1.289163 -0.276545
v 0.029985 1.507047 -0.346060
v -0.025833 1.129755 0.187665
v 0.476520 2.103370 0.094029
v -0.298440 2.484730 0.217992
v -0.461034 2.650389 0.252126
v -0.935540 1.972203 -0.181222
v 0.225247 2.442792 0.269753
v -0.838247 2.570107 0.350994
v -1.385777 2.157496 0.221365
v -0.613074 2.638165 0.230815
v -1.846215 0.784366 0.745986
v -1.777498 0.475077 0.435850
v 0.473615 2.321838 0.304865
v 0.368831 2.450844 0.292205
v 0.661196 1.902769 0.152303
v 0.717854 2.027451 0.289994
v 0.741610 1.665157 0.352988
v 0.778038 1.665147 0.452147
v 0.767267 1.541096 0.403102
v 0.824715 1.515517 0.556508
v -0.150688 2.524643 0.255973
v 0.054924 2.499469 0.262133
v -0.135612 2.853226 0.397231
v 0.132488 2.780784 0.369560
v -1.623726 1.084037 0.683017
v -1.690604 0.911835 0.619350
v -1.835623 1.100781 0.592088
v -1.804907 0.937222 0.568706
v -1.754961 0.755481 0.525547
v -1.756180 1.076806 0.689377
v -0.076019 1.816467 0.454989
v 0.163937 2.136822 -0.264316
v 0.083466 2.527628 -0.039167
v -0.026189 2.325704 0.527327
v -0.040458 2.551806 0.132704
v -0.049713 2.467463 0.385149
v -0.000946 2.884466 0.214447
v -0.002775 2.748691 0.550764
v 0.002040 2.868057 0.404554
v 0.095513 2.697396 0.163590
v 0.089550 2.582005 0.458908
v -0.146608 2.634733 0.478222
v -0.143093 2.750765 0.179103
v -0.161801 2.694442 0.329730
v 0.107507 2.639810 0.310812
v -0.024504 2.731563 0.150363
v -0.027354 2.598810 0.488974
v 0.453238 1.682047 0.048552
v -0.594688 1.520865 0.144516
v 0.595987 1.850081 -0.219626
v 0.170074 1.085760 0.165470
v -0.200363 0.042223 0.117855
v -0.345072 0.050574 0.239904
v -0.370298 0.045381 -0.010594
v -0.235099 0.040115 -0.024911
v 0.370754 0.088579 -0.441489
v 0.297301 0.110543 -0.514396
v 0.380066 0.100059 -0.478249
v 0.348495 0.107088 -0.503686
v 0.311825 0.085578 -0.431680
v 0.095177 0.915128 -0.236486
v 0.162709 0.676780 -0.270530
v 0.228562 0.394983 -0.367156
v 0.270897 0.306013 -0.214229
v 0.235262 0.499883 -0.046877
v 0.220176 0.737382 0.098315
v 0.391546 0.327460 -0.237219
v 0.438331 0.540220 -0.081570
v 0.501103 0.841337 0.061823
v 0.350306 0.949322 -0.212588
v 0.343291 0.674281 -0.245981
v 0.336020 0.392615 -0.351245
v 0.405194 0.371046 -0.306051
v 0.460023 0.641211 -0.171726
v 0.520405 0.931390 -0.104717
v -0.174943 0.956325 0.369608
v -0.150578 0.652573 0.352656
v -0.146790 0.405394 0.349789
v -0.431842 0.393838 0.338149
v -0.441594 0.669826 0.296799
v -0.463334 0.923907 0.251438
v -0.463788 0.407715 0.068506
v -0.471445 0.679693 0.028742
v -0.478930 0.885150 -0.022252
v -0.082939 0.840899 -0.044605
v -0.128050 0.654512 -0.009664
v -0.171777 0.448413 0.034679
vn 0.0089 0.4950 -0.8688
vn 0.0230 -0.0307 -0.9993
vn 0.4559 -0.2077 -0.8655
vn -0.3318 -0.1933 0.9233
vn 0.9079 -0.0689 0.4136
vn 0.6033 0.7750 0.1882
vn 0.2052 0.8928 -0.4010
vn 0.5316 -0.2020 0.8226
vn -0.1086 0.9498 0.2936
vn -0.0520 0.4715 -0.8803
vn -0.2133 -0.4120 0.8859
vn -0.3962 -0.8891 -0.2291
vn -0.3330 -0.0139 0.9428
vn 0.2524 -0.8241 0.5072
vn 0.9168 -0.3121 0.2490
vn -0.1039 -0.6608 0.7433
vn 0.1113 0.9863 0.1214
vn -0.0657 -0.7190 0.6919
vn -0.6853 0.3370 0.6456
vn 0.9460 -0.0539 -0.3197
vn -0.8413 0.0736 -0.5355
vn 0.5490 0.7281 0.4105
vn 0.2866 0.1141 0.9512
vn -0.3648 -0.5151 0.7756
vn -0.1631 0.6599 0.7334
vn -0.8940 -0.0952 0.4379
vn -0.1413 -0.5348 -0.8331
vn 0.8808 0.4716 0.0427
vn -0.4423 -0.5991 0.6674
vn 0.7313 0.5198 -0.4417
vn 0.0227 0.4458 0.8948
vn 0.9921 0.0585 -0.1113
vn 0.0174 -0.6026 -0.7979
vn 0.0724 -0.9798 -0.1865
vn -0.1449 -0.4496 -0.8814
vn -0.8861 0.4314 0.1694
vn 0.3797 0.6444 0.6637
vn 0.9858 -0.0291 -0.1652
vn 0.3256 0.5951 0.7348
vn 0.1277 0.9897 -0.0654
vn -0.3236 0.9067 0.2707
vn 0.3764 0.9040 0.2028
vn 0.0575 0.9762 0.2092
vn -0.9691 0.1271 0.2114
vn 0.2781 -0.3409 0.8980
vn -0.2327 0.4722 -0.8502
vn -0.7498 -0.5703 -0.3355
vn -0.9202 -0.3316 0.2081
vn 0.2001 0.0832 -0.9762
vn -0.9660 0.2453 -0.0821
vn 0.0529 0.8461 0.5304
vn 0.4099 0.7476 0.5225
vn -0.3055 0.9064 0.2919
vn 0.9805 -0.1610 0.1131
vn 0.0705 0.6244 0.7779
vn -0.3937 -0.4600 -0.7959
vn -0.0687 -0.9891 -0.1299
vn -0.5678 -0.5890 -0.5751
vn 0.6221 0.4527 0.6388
vn -0.4009 -0.7113 -0.5773
vn -0.1024 0.9942 0.0343
vn 0.6802 0.5181 0.5186
vn 0.5264 0.2690 0.8066
vn -0.3647 0.2372 -0.9004
vn 0.0503 0.1695 0.9843
vn -0.7089 -0.5761 0.4069
vn -0.2880 0.5420 0.7895
vn -0.7180 0.6741 0.1735
vn -0.3859 -0.8642 -0.3228
vn 0.1366 0.4756 0.8690
vn 0.5297 0.6074 0.5920
vn 0.1678 0.3579 0.9186
vn -0.3507 0.5382 -0.7664
vn -0.8652 0.4476 0.2261
vn 0.9226 -0.3038 0.2375
vn 0.5051 0.7024 0.5015
vn 0.2996 0.3911 -0.8702
vn -0.2557 -0.2685 0.9287
vn 0.5065 0.8518 0.1337
vn 0.3262 0.9449 -0.0259
vn -0.1794 0.5708 0.8013
vn -0.5153 -0.0537 0.8553
vn 0.2368 0.7187 -0.6537
vn -0.1685 -0.5520 0.8167
vn 0.1075 0.1093 -0.9882
vn 0.9485 -0.3149 -0.0348
vn -0.9928 -0.0072 -0.1194
vn -0.0925 0.1806 -0.9792
vn 0.0324 -0.5687 0.8219
vn -0.9998 -0.0027 0.0197
vn 0.9650 -0.2448 -0.0943
vn -0.0133 -0.9961 -0.0868
vn 0.2305 -0.4031 0.8856
vn -0.9559 -0.2774 0.0965
vn -0.9576 -0.2700 0.1007
vn 0.9857 -0.0975 -0.1373
vn -0.1243 0.1710 -0.9774
vn -0.0368 -0.9990 0.0242
vn 0.0021 -0.9577 -0.2878
vn 0.2212 -0.6543 0.7232
vn 0.1624 0.4772 -0.8636
vn 0.9769 -0.1768 0.1202
vn 0.6001 0.3929 -0.6968
vn 0.4909 -0.1507 -0.8581
vn 0.5447 0.0833 -0.8345
vn 0.5754 0.2704 -0.7719
vn 0.9948 -0.0711 0.0735
vn 0.9787 -0.2051 0.0036
vn 0.9760 -0.2171 0.0195
vn 0.1553 -0.2011 -0.9672
vn 0.0993 0.1411 -0.9850
vn 0.1362 0.3467 -0.9280
vn 0.2389 -0.0866 0.9672
vn 0.2647 -0.4735 0.8401
vn 0.2502 -0.6064 0.7548
vn -0.9343 -0.2306 0.2720
vn -0.9535 -0.2361 0.1874
vn -0.9587 -0.2636 0.1064
vn -0.1270 -0.5504 -0.8252
vn -0.0992 -0.2041 -0.9739
vn -0.1075 -0.1644 -0.9805
vn 0.8972 0.3140 0.3104
vn 0.9879 -0.0363 0.1510
vn 0.9960 -0.0886 -0.0095
vn -0.9804 -0.0563 -0.1888
vn -0.9953 -0.0453 0.0859
vn -0.9934 -0.0148 0.1135
vn -0.5349 0.4132 0.7370
vn -0.2882 0.0249 0.9573
vn -0.1154 0.0699 0.9909
vn 0.4525 -0.1436 0.8801
vn 0.4423 0.3205 -0.8376
vn -0.1146 -0.4872 -0.8657
vn -0.1720 -0.8565 -0.4866
vn -0.8074 -0.0678 -0.5861
vt 0.882279 0.260085
vt 0.436089 0.649131
vt 0.117664 0.305524
vt 0.860974 0.338762
vt 0.079561 0.383885
vt 0.278417 0.728674
vt 0.111517 0.716819
vt 0.301243 0.337859
vt 0.232943 0.387386
vt 0.111517 0.662267
vt 0.671871 0.687525
vt 0.175114 0.511099
vt 0.930991 0.712692
vt 0.796001 0.259488
vt 0.522181 0.649131
vt 0.719621 0.316178
vt 0.801110 0.310020
vt 0.698705 0.366293
vt 0.510656 0.337024
vt 0.023033 0.717149
vt 0.367094 0.730187
vt 0.507246 0.358198
vt 0.018976 0.695717
vt 0.103380 0.570561
vt 0.268725 0.266033
vt 0.143950 0.273348
vt 0.098384 0.631539
vt 0.301351 0.259488
vt 0.128079 0.559933
vt 0.480438 0.333338
vt 0.348619 0.714075
vt 0.604958 0.268707
vt 0.031105 0.562973
vt 0.043818 0.625810
vt 0.721993 0.282954
vt 0.329365 0.336360
vt 0.302724 0.713315
vt 0.030374 0.549675
vt 0.582817 0.260846
vt 0.875347 0.642471
vt 0.380514 0.272320
vt 0.124895 0.517524
vt 0.813390 0.578569
vt 0.436089 0.332372
vt 0.956124 0.588845
vt 0.367094 0.692599
vt 0.367094 0.522797
vt 0.871643 0.594841
vt 0.398138 0.324445
vt 0.043891 0.509019
vt 0.796001 0.641153
vt 0.491075 0.268473
vt 0.032114 0.534706
vt 0.552485 0.259488
vt 0.331566 0.259909
vt 0.129819 0.544964
vt 0.339759 0.337186
vt 0.913298 0.588845
vt 0.317584 0.707220
vt 0.845734 0.463378
vt 0.311567 0.646434
vt 0.944558 0.353645
vt 0.398138 0.462439
vt 0.920230 0.354337
vt 0.870057 0.463781
vt 0.929709 0.374247
vt 0.357807 0.478584
vt 0.347994 0.663056
vt 0.944558 0.373825
vt 0.097076 0.285727
vt 0.229765 0.651022
vt 0.758050 0.297859
vt 0.168317 0.651042
vt 0.119329 0.272208
vt 0.094178 0.643292
vt 0.222768 0.636959
vt 0.746872 0.283208
vt 0.174541 0.636975
vt 0.045175 0.638147
vt 0.080672 0.327471
vt 0.442544 0.673801
vt 0.734592 0.339187
vt 0.484453 0.673801
vt 0.070725 0.319456
vt 0.218298 0.685110
vt 0.751374 0.331694
vt 0.180611 0.684911
vt 0.062412 0.356092
vt 0.455575 0.702696
vt 0.724658 0.367821
vt 0.476314 0.702696
vt 0.043357 0.357400
vt 0.210236 0.723455
vt 0.742364 0.370210
vt 0.189444 0.723462
vt 0.050281 0.367705
vt 0.444942 0.715336
vt 0.810526 0.722486
vt 0.728448 0.380153
vt 0.853695 0.722486
vt 0.487920 0.715336
vt 0.018975 0.371756
vt 0.232852 0.738567
vt 0.796001 0.739289
vt 0.758050 0.386241
vt 0.861207 0.739289
vt 0.167770 0.738589
vt 0.100634 0.583041
vt 0.712300 0.698974
vt 0.802197 0.701507
vt 0.098640 0.600731
vt 0.972705 0.287497
vt 0.747907 0.696578
vt 0.052045 0.577939
vt 0.849895 0.701507
vt 0.710445 0.675017
vt 0.050052 0.595630
vt 0.746553 0.677603
vt 0.924885 0.287497
vt 0.797725 0.671259
vt 0.981025 0.313792
vt 0.715147 0.730011
vt 0.752543 0.724602
vt 0.973919 0.259495
vt 0.967002 0.332143
vt 0.934252 0.306472
vt 0.715328 0.644023
vt 0.847669 0.671259
vt 0.923848 0.259495
vt 0.753088 0.649631
vt 0.920230 0.324823
vt 0.068284 0.665533
vt 0.630362 0.705721
vt 0.712055 0.621316
vt 0.966165 0.712391
vt 0.519769 0.388732
vt 0.031375 0.663704
vt 0.592215 0.695479
vt 0.581836 0.620019
vt 0.750017 0.621843
vt 0.569690 0.667298
vt 0.581066 0.387596
vt 0.531739 0.516092
vt 0.642835 0.625048
vt 0.273616 0.509019
vt 0.070982 0.710642
vt 0.316851 0.732164
vt 0.684917 0.393810
vt 0.816625 0.338063
vt 0.644803 0.392946
vt 0.602800 0.367236
vt 0.671871 0.661666
vt 0.181146 0.386242
vt 0.855113 0.259897
vt 0.463196 0.649131
vt 0.077903 0.567886
vt 0.078993 0.554271
vt 0.322237 0.720993
vt 0.070972 0.628379
vt 0.834014 0.651825
vt 0.084160 0.512738
vt 0.838315 0.596273
vt 0.320679 0.509019
vt 0.080733 0.539302
vt 0.857365 0.464048
vt 0.931678 0.351118
vt 0.335174 0.488977
vt 0.367094 0.673623
vt 0.939667 0.384854
vt 0.199177 0.651021
vt 0.069465 0.641494
vt 0.198664 0.632807
vt 0.464209 0.672968
vt 0.199604 0.684998
vt 0.465945 0.702696
vt 0.199840 0.723459
vt 0.466714 0.715004
vt 0.832520 0.720483
vt 0.200177 0.738589
vt 0.829423 0.735282
vt 0.076340 0.580490
vt 0.826046 0.701507
vt 0.074346 0.598181
vt 0.948795 0.287497
vt 0.823088 0.670800
vt 0.959731 0.307426
vt 0.948976 0.259488
vt 0.941524 0.331189
vt 0.875347 0.491894
vt 0.391834 0.432095
vt 0.377694 0.448634
vt 0.915590 0.478791
vt 0.834644 0.488373
vt 0.326937 0.619279
vt 0.938593 0.478810
vt 0.335216 0.632947
vt 0.358601 0.463790
vt 0.348787 0.648138
vt 0.927106 0.463378
vt 0.854274 0.489560
vt 0.315804 0.619182
vt 0.212520 0.321385
vt 0.644070 0.318501
vt 0.018976 0.592450
vt 0.663817 0.276029
vt 0.129819 0.597828
vt 0.224108 0.269832
vt 0.051049 0.586785
vt 0.728499 0.676310
vt 0.099637 0.591886
vt 0.730103 0.697776
vt 0.734390 0.646904
vt 0.920230 0.314550
vt 0.981025 0.324065
vt 0.732426 0.727384
vt 0.950683 0.319044
vt 0.753088 0.663662
vt 0.920230 0.273492
vt 0.977552 0.273492
vt 0.752543 0.710647
vt 0.709822 0.714522
vt 0.796001 0.686127
vt 0.853178 0.686127
vt 0.709822 0.659561
vt 0.824792 0.685890
vt 0.948939 0.273488
vt 0.731549 0.661651
vt 0.730449 0.712624
vt 0.878850 0.297575
vt 0.096711 0.342677
vt 0.285581 0.357771
vt 0.108549 0.696221
vt 0.804979 0.293594
vt 0.708839 0.350023
vt 0.668288 0.644023
vt 0.436089 0.526409
vt 0.145034 0.385321
vt 0.919159 0.607821
vt 0.247387 0.613831
vt 0.970304 0.416607
vt 0.947808 0.608020
vt 0.704660 0.516092
vt 0.970304 0.403829
vt 0.750017 0.516884
vt 0.618892 0.516092
vt 0.920230 0.404231
vt 0.273616 0.612878
vt 0.642836 0.516847
vt 0.938584 0.415207
vt 0.924281 0.443436
vt 0.075400 0.489812
vt 0.855524 0.444402
vt 0.531739 0.629156
vt 0.934913 0.435583
vt 0.576828 0.496673
vt 0.931440 0.443424
vt 0.848383 0.444289
vt 0.592622 0.497116
vt 0.934913 0.440184
vt 0.586164 0.496977
vt 0.517161 0.630156
vt 0.920230 0.438606
vt 0.085942 0.490043
vt 0.585376 0.420489
vt 0.510472 0.551446
vt 0.582586 0.444044
vt 0.504260 0.576063
vt 0.581388 0.469636
vt 0.508131 0.602400
vt 0.103684 0.463024
vt 0.477645 0.604263
vt 0.118194 0.440373
vt 0.454885 0.581958
vt 0.129418 0.415411
vt 0.438452 0.557360
vt 0.876897 0.417052
vt 0.081901 0.462161
vt 0.882279 0.393921
vt 0.081653 0.438865
vt 0.880271 0.363315
vt 0.079604 0.408162
vt 0.633117 0.418943
vt 0.615530 0.444447
vt 0.600997 0.469910
vt 0.614559 0.469949
vt 0.862035 0.416811
vt 0.638313 0.444473
vt 0.857648 0.390640
vt 0.666106 0.417503
vt 0.844696 0.362700
vt 0.167770 0.536691
vt 0.914144 0.688660
vt 0.182151 0.561697
vt 0.913298 0.663084
vt 0.189855 0.582503
vt 0.915415 0.641729
vt 0.680787 0.549268
vt 0.966165 0.641681
vt 0.684678 0.573659
vt 0.963812 0.665813
vt 0.684995 0.596421
vt 0.964308 0.688427
vt 0.584794 0.548886
vt 0.729850 0.550060
vt 0.578610 0.572959
vt 0.734888 0.574452
vt 0.569690 0.595426
vt 0.736445 0.597214
vt 0.642060 0.590920
vt 0.247172 0.543053
vt 0.641052 0.570535
vt 0.248998 0.562413
vt 0.635978 0.552556
vt 0.245738 0.579271
s 0
usemtl Material
f 89/203/1 7/19/1 13/32/1 90/205/1
f 8/22/2 7/19/2 89/203/2 58/151/2 54/142/2 53/136/2
f 6/18/3 56/148/3 57/150/3
f 3/8/4 106/231/4 4/9/4 59/153/4 88/202/4
f 6/17/5 107/233/5 5/14/5 60/154/5 1/1/5 105/229/5 2/4/5 56/149/5
f 61/156/6 13/33/6 16/38/6 62/157/6
f 5/16/7 14/35/7 31/77/7 29/72/7
f 88/202/8 1/3/8 10/26/8 91/207/8
f 67/164/9 21/53/9 20/50/9 65/161/9
f 13/32/10 7/19/10 12/30/10 16/39/10
f 3/8/11 9/25/11 11/28/11 15/36/11
f 55/147/12 3/6/12 15/37/12 63/158/12
f 66/162/13 19/48/13 17/40/13 65/160/13
f 23/57/14 22/55/14 17/41/14 19/49/14
f 83/191/15 82/190/15 25/63/15 26/67/15
f 15/36/16 11/28/16 22/55/16 23/57/16
f 62/157/17 16/38/17 21/53/17 67/164/17
f 69/169/18 26/66/18 25/64/18 68/166/18
f 87/200/19 84/193/19 24/60/19 68/165/19
f 86/197/20 83/191/20 26/67/20 69/167/20
f 84/194/21 85/196/21 27/68/21 24/61/21
f 70/170/22 29/73/22 31/78/22 71/172/22
f 70/170/23 28/71/23 34/85/23 73/174/23
f 10/26/24 1/3/24 28/70/24 30/74/24
f 64/159/25 10/27/25 30/75/25 71/171/25
f 34/84/26 32/80/26 36/88/26 38/92/26
f 60/155/27 5/15/27 33/83/27 72/173/27
f 5/16/28 29/72/28 35/86/28 33/82/28
f 28/70/29 1/3/29 32/80/29 34/84/29
f 37/90/30 39/94/30 43/105/30 41/99/30
f 73/174/31 34/85/31 38/93/31 75/176/31
f 33/82/32 35/86/32 39/94/32 37/90/32
f 72/173/33 33/83/33 37/91/33 74/175/33
f 76/178/34 41/100/34 43/106/34 77/180/34
f 74/175/35 37/91/35 41/101/35 76/177/35
f 38/92/36 36/88/36 40/96/36 42/102/36
f 75/176/37 38/93/37 42/103/37 77/179/37
f 102/226/38 97/218/38 51/129/38 81/187/38
f 91/206/39 10/27/39 45/111/39 93/210/39
f 90/204/40 13/33/40 46/114/40 92/208/40
f 61/156/41 9/24/41 44/108/41 78/181/41
f 64/159/42 14/34/42 47/117/42 79/183/42
f 96/216/43 94/213/43 50/126/43 80/186/43
f 101/225/44 99/222/44 48/120/44 80/185/44
f 104/228/45 98/220/45 49/123/45 95/215/45
f 103/227/46 100/224/46 50/127/46 94/212/46
f 8/23/47 53/137/47 52/132/47
f 8/23/48 52/132/48 4/10/48 106/232/48 3/7/48 55/146/48 7/20/48
f 54/142/49 58/151/49 89/203/49 5/16/49 107/234/49 6/18/49 57/150/49
f 100/223/50 101/225/50 80/185/50 50/128/50
f 95/214/51 96/216/51 80/186/51 48/121/51
f 10/27/52 64/159/52 79/183/52 45/111/52
f 13/33/53 61/156/53 78/181/53 46/114/53
f 98/219/54 102/226/54 81/187/54 49/124/54
f 39/95/55 75/176/55 77/179/55 43/107/55
f 36/89/56 74/175/56 76/177/56 40/97/56
f 40/98/57 76/178/57 77/180/57 42/104/57
f 32/81/58 72/173/58 74/175/58 36/89/58
f 35/87/59 73/174/59 75/176/59 39/95/59
f 1/2/60 60/155/60 72/173/60 32/81/60
f 14/34/61 64/159/61 71/171/61 31/79/61
f 29/73/62 70/170/62 73/174/62 35/87/62
f 28/71/63 70/170/63 71/172/63 30/76/63
f 85/196/64 86/198/64 69/168/64 27/68/64
f 82/189/65 87/200/65 68/165/65 25/65/65
f 27/69/66 69/169/66 68/166/66 24/62/66
f 11/29/67 62/157/67 67/164/67 22/56/67
f 18/43/68 66/162/68 65/160/68 20/51/68
f 7/21/69 55/147/69 63/158/69 12/31/69
f 22/56/70 67/164/70 65/161/70 17/42/70
f 9/24/71 61/156/71 62/157/71 11/29/71
f 19/48/72 66/162/72 87/200/72 82/189/72
f 12/30/73 18/44/73 20/52/73 21/54/73 16/39/73
f 66/163/74 18/47/74 84/194/74 87/201/74
f 23/57/75 19/49/75 82/190/75 83/191/75
f 49/125/76 81/188/76 96/216/76 95/214/76
f 97/217/77 103/227/77 94/212/77 51/130/77
f 99/221/78 104/228/78 95/215/78 48/122/78
f 81/188/79 51/131/79 94/213/79 96/216/79
f 14/34/80 90/204/80 92/208/80 47/117/80
f 9/24/81 91/206/81 93/210/81 44/108/81
f 3/8/82 88/202/82 91/207/82 9/25/82
f 5/16/83 89/203/83 90/205/83 14/35/83
f 44/109/84 93/211/84 104/228/84 99/221/84
f 47/118/85 92/209/85 103/227/85 97/217/85
f 45/112/86 79/184/86 102/226/86 98/219/86
f 46/115/87 78/182/87 101/225/87 100/223/87
f 92/209/88 46/116/88 100/224/88 103/227/88
f 93/211/89 45/113/89 98/220/89 104/228/89
f 78/182/90 44/110/90 99/222/90 101/225/90
f 79/184/91 47/119/91 97/218/91 102/226/91
f 59/152/92 4/11/92 52/133/92 53/138/92 54/141/92 108/235/92
f 136/298/93 110/241/93 109/238/93 135/296/93
f 121/271/94 120/269/94 114/253/94 117/261/94
f 139/304/95 111/244/95 110/242/95 136/297/95
f 135/295/96 109/239/96 112/247/96 144/314/96
f 144/313/97 112/248/97 111/245/97 139/303/97
f 111/246/98 112/249/98 109/240/98 110/243/98
f 117/262/99 114/254/99 116/259/99 115/256/99 113/250/99
f 124/277/100 121/270/100 117/263/100 113/251/100
f 120/268/101 129/284/101 116/260/101 114/255/101
f 130/286/102 124/276/102 113/252/102 115/257/102
f 129/284/103 130/285/103 115/258/103 116/260/103
f 57/150/104 56/148/104 132/289/104 127/282/104
f 127/282/105 132/289/105 131/287/105 128/283/105
f 128/283/106 131/287/106 130/285/106 129/284/106
f 56/149/107 2/4/107 126/280/107 132/290/107
f 132/290/108 126/280/108 125/278/108 131/288/108
f 131/288/109 125/278/109 124/276/109 130/286/109
f 54/142/110 57/150/110 127/282/110 118/264/110
f 118/264/111 127/282/111 128/283/111 119/266/111
f 119/266/112 128/283/112 129/284/112 120/268/112
f 2/5/113 108/237/113 123/274/113 126/281/113
f 126/281/114 123/274/114 122/272/114 125/279/114
f 125/279/115 122/272/115 121/270/115 124/277/115
f 108/236/116 54/143/116 118/265/116 123/275/116
f 123/275/117 118/265/117 119/267/117 122/273/117
f 122/273/118 119/267/118 120/269/118 121/271/118
f 54/144/119 142/309/119 141/307/119 53/139/119
f 142/309/120 143/311/120 140/305/120 141/307/120
f 143/311/121 144/313/121 139/303/121 140/305/121
f 4/12/122 133/291/122 142/310/122 54/145/122
f 133/291/123 134/293/123 143/312/123 142/310/123
f 134/293/124 135/295/124 144/314/124 143/312/124
f 53/140/125 141/308/125 138/301/125 52/134/125
f 141/308/126 140/306/126 137/299/126 138/301/126
f 140/306/127 139/304/127 136/297/127 137/299/127
f 52/135/128 138/302/128 133/292/128 4/13/128
f 138/302/129 137/300/129 134/294/129 133/292/129
f 137/300/130 136/298/130 135/296/130 134/294/130
f 105/230/131 1/3/131 88/202/131 59/153/131 108/237/131 2/5/131
f 86/199/132 85/195/132 83/192/132
f 83/192/133 85/195/133 18/45/133 23/58/133
f 63/158/134 15/37/134 23/59/134 18/46/134 12/31/134
f 84/194/135 18/47/135 85/196/135
l 52 106
