# Blender 3.3.1
# www.blender.org
mtllib monstruo_3_caminar572.mtl
o monstruo_grande
v 0.462618 1.997662 0.271097
v 0.527274 1.131752 0.041313
v -0.660535 1.826283 0.102769
v -0.284512 1.211828 0.223087
v 0.760550 2.256852 0.012234
v 0.606766 1.609284 -0.225999
v -0.723419 2.019432 -0.351728
v -0.674837 1.697779 -0.372930
v -0.260572 2.437365 0.379571
v 0.281135 2.299155 0.427723
v -0.407934 2.421010 0.467594
v -1.081242 2.111637 -0.261212
v -0.203487 2.582754 0.018782
v 0.333292 2.420549 0.159326
v -0.967714 1.977765 -0.070593
v -0.358549 2.668546 0.020371
v -0.777804 2.370682 0.436313
v -1.413320 2.073546 -0.052587
v -1.173485 2.109557 0.195093
v -0.888454 2.681476 0.129184
v -0.540788 2.725667 0.062965
v -0.491106 2.382097 0.437794
v -1.096188 2.008197 -0.098960
v -1.896508 0.856923 0.597526
v -1.781243 0.833239 0.664784
v -1.736555 0.653385 0.471655
v -1.806909 0.667842 0.430603
v 0.398365 2.201428 0.432244
v 0.598014 2.380757 0.235237
v 0.386080 2.320582 0.438006
v 0.458815 2.436896 0.219408
v 0.660184 1.918953 0.379250
v 0.870113 1.924749 0.326212
v 0.682213 1.972207 0.425316
v 0.829767 2.065777 0.333717
v 0.713860 1.731306 0.602780
v 0.827494 1.715722 0.585741
v 0.737509 1.761277 0.701767
v 0.849706 1.749354 0.678933
v 0.665377 1.646127 0.724927
v 0.898527 1.621827 0.680910
v 0.646541 1.685696 0.917083
v 0.997928 1.644945 0.845356
v -0.097391 2.477001 0.418748
v 0.110056 2.441168 0.424079
v -0.067029 2.563756 0.168081
v 0.134128 2.523751 0.176143
v -0.043068 2.792204 0.555188
v 0.162659 2.720369 0.534500
v -0.033948 2.893213 0.296212
v 0.171283 2.821538 0.274742
v -0.499531 1.183594 0.035779
v -0.400502 1.152344 -0.182758
v -0.037776 1.262787 -0.337300
v -0.695387 1.854059 -0.128261
v 0.540338 1.240838 -0.167897
v 0.320672 1.286903 -0.279327
v 0.041709 1.511767 -0.338552
v -0.021434 1.121260 0.184392
v 0.573353 2.069444 0.187114
v -0.234097 2.488591 0.253354
v -0.388613 2.660837 0.292333
v -0.884171 2.028619 -0.175869
v 0.286426 2.420643 0.316672
v -0.775175 2.594987 0.377995
v -1.343434 2.225893 0.200468
v -0.541218 2.656973 0.269050
v -1.855367 0.844813 0.659324
v -1.740112 0.543126 0.355569
v 0.516377 2.304229 0.377628
v 0.425329 2.425791 0.349272
v 0.748583 1.885716 0.312976
v 0.776228 2.029716 0.430098
v 0.770103 1.724555 0.591804
v 0.793638 1.754768 0.690309
v 0.776497 1.622329 0.681580
v 0.811840 1.644704 0.842012
v -0.084225 2.519239 0.291582
v 0.119736 2.483932 0.298798
v -0.069811 2.844903 0.425666
v 0.198336 2.769063 0.405220
v -1.637939 1.152884 0.626356
v -1.690775 0.979556 0.553241
v -1.838349 1.164588 0.512210
v -1.799266 1.001848 0.489936
v -1.738180 0.822642 0.450685
v -1.769892 1.141035 0.617152
v -0.044374 1.800838 0.469076
v 0.220596 2.123079 -0.241406
v 0.154022 2.516053 -0.001175
v 0.015607 2.314224 0.558363
v 0.028473 2.542788 0.169657
v 0.011779 2.457533 0.420414
v 0.069961 2.872241 0.246111
v 0.058400 2.741133 0.583588
v 0.067796 2.858378 0.435892
v 0.166129 2.682812 0.200321
v 0.151759 2.571080 0.496371
v -0.084542 2.627696 0.509734
v -0.071873 2.740995 0.210955
v -0.095459 2.685890 0.360480
v 0.173848 2.626776 0.348128
v 0.046992 2.719337 0.184574
v 0.033770 2.590540 0.523427
v 0.553946 1.627453 0.082696
v -0.577025 1.544275 0.154276
v 0.667928 1.816576 -0.188532
v 0.173427 1.066099 0.157222
v -0.224407 0.043856 0.232350
v -0.366821 0.064669 0.355680
v -0.395507 0.052971 0.105244
v -0.261027 0.039325 0.089741
v 0.356550 -0.025005 -0.301158
v 0.281192 -0.028416 -0.375533
v 0.364864 -0.025186 -0.339858
v 0.332656 -0.027211 -0.365401
v 0.297862 -0.026444 -0.289498
v 0.084015 0.905916 -0.264938
v 0.161182 0.599004 -0.284261
v 0.216516 0.295797 -0.312071
v 0.251320 0.238590 -0.142879
v 0.221034 0.464000 -0.019854
v 0.213803 0.726675 0.073226
v 0.373323 0.249880 -0.165954
v 0.426874 0.487698 -0.058997
v 0.496803 0.820959 0.026405
v 0.338383 0.939436 -0.244492
v 0.340974 0.593973 -0.254712
v 0.323466 0.292448 -0.292574
v 0.390529 0.277799 -0.241772
v 0.454769 0.570860 -0.172697
v 0.511764 0.915677 -0.141583
v -0.157107 0.976159 0.374845
v -0.144497 0.684657 0.390791
v -0.147373 0.441611 0.426535
v -0.432756 0.436694 0.425615
v -0.437098 0.703563 0.342805
v -0.453164 0.948714 0.275106
v -0.473458 0.414740 0.156887
v -0.476922 0.679093 0.074370
v -0.487009 0.900058 0.002120
v -0.093811 0.840673 -0.042476
v -0.135974 0.638924 0.026518
v -0.181958 0.441694 0.108648
vn 0.0443 0.5227 -0.8513
vn 0.0145 -0.0218 -0.9997
vn 0.4060 -0.2133 -0.8886
vn -0.3424 -0.1963 0.9188
vn 0.9285 -0.2040 0.3104
vn 0.6411 0.7339 0.2244
vn 0.2482 0.8805 -0.4038
vn 0.4234 -0.2033 0.8828
vn -0.0697 0.9387 0.3375
vn 0.0141 0.4913 -0.8709
vn -0.2847 -0.4105 0.8663
vn -0.4447 -0.8557 -0.2645
vn -0.3757 -0.0406 0.9259
vn 0.1730 -0.8602 0.4797
vn 0.8923 -0.2847 0.3503
vn -0.1659 -0.6901 0.7044
vn 0.1642 0.9724 0.1659
vn -0.1197 -0.7319 0.6708
vn -0.7657 0.3020 0.5679
vn 0.9780 -0.0164 -0.2080
vn -0.7760 0.0541 -0.6284
vn 0.4908 0.7473 0.4480
vn 0.0898 0.1854 0.9785
vn -0.4395 -0.4925 0.7512
vn -0.1988 0.6697 0.7156
vn -0.9621 0.0680 0.2639
vn 0.0562 -0.6297 -0.7748
vn 0.8393 0.5273 0.1327
vn -0.5089 -0.5894 0.6274
vn 0.8312 0.3111 -0.4609
vn -0.2114 0.7101 0.6716
vn 0.9949 0.0545 0.0847
vn 0.1600 -0.8163 -0.5550
vn -0.0020 -0.9902 0.1395
vn -0.0631 -0.6978 -0.7135
vn -0.8521 0.5120 -0.1082
vn 0.3585 0.8025 0.4770
vn 0.9895 -0.0393 -0.1390
vn 0.3143 0.5696 0.7595
vn 0.1887 0.9816 -0.0302
vn -0.2780 0.9145 0.2939
vn 0.4040 0.8892 0.2146
vn 0.0631 0.9782 0.1980
vn -0.9727 0.1381 0.1863
vn 0.2524 -0.3283 0.9102
vn -0.2092 0.4575 -0.8642
vn -0.8089 -0.5093 -0.2937
vn -0.9364 -0.2751 0.2180
vn 0.2258 0.1342 -0.9649
vn -0.9616 0.2506 -0.1120
vn 0.0502 0.8529 0.5197
vn 0.4128 0.7355 0.5373
vn -0.2474 0.9142 0.3210
vn 0.9762 -0.1646 0.1413
vn 0.0360 0.8373 0.5456
vn -0.3369 -0.6711 -0.6604
vn -0.1517 -0.9723 0.1779
vn -0.4564 -0.7614 -0.4604
vn 0.4241 0.6608 0.6193
vn -0.2412 -0.8139 -0.5285
vn -0.0859 0.9962 0.0142
vn 0.5399 0.6011 0.5891
vn 0.4326 0.2665 0.8613
vn -0.2660 0.2392 -0.9338
vn -0.0703 0.1551 0.9854
vn -0.7302 -0.6065 0.3145
vn -0.2764 0.5225 0.8066
vn -0.6863 0.7101 0.1573
vn -0.4327 -0.8299 -0.3522
vn 0.1261 0.4207 0.8984
vn 0.5497 0.5577 0.6219
vn 0.1063 0.3415 0.9339
vn -0.2885 0.5883 -0.7555
vn -0.8723 0.4575 0.1725
vn 0.9002 -0.3178 0.2977
vn 0.5010 0.7040 0.5033
vn 0.3230 0.3741 -0.8693
vn -0.2787 -0.2521 0.9267
vn 0.5130 0.8476 0.1357
vn 0.3723 0.9281 0.0015
vn -0.1628 0.5748 0.8019
vn -0.5276 -0.0601 0.8474
vn 0.3196 0.7156 -0.6211
vn -0.1894 -0.5383 0.8212
vn 0.1216 0.0968 -0.9878
vn 0.9446 -0.3281 -0.0084
vn -0.9891 0.0016 -0.1472
vn -0.0812 0.1637 -0.9832
vn -0.0018 -0.5544 0.8322
vn -1.0000 0.0078 -0.0053
vn 0.9637 -0.2584 -0.0678
vn -0.0655 -0.9935 -0.0932
vn 0.2499 -0.3175 0.9147
vn -0.9619 -0.2328 0.1436
vn -0.9665 -0.2132 0.1430
vn 0.9772 -0.1508 -0.1496
vn -0.1502 0.0911 -0.9845
vn -0.0952 -0.9938 0.0568
vn 0.0282 -0.9994 0.0204
vn 0.1992 -0.4448 0.8732
vn 0.1821 0.2236 -0.9575
vn 0.9726 -0.1448 0.1817
vn 0.6134 0.1939 -0.7656
vn 0.4649 -0.0876 -0.8810
vn 0.5423 0.0076 -0.8402
vn 0.5991 0.0612 -0.7984
vn 0.9955 -0.0920 0.0243
vn 0.9815 -0.1889 0.0301
vn 0.9660 -0.2433 0.0873
vn 0.1373 -0.1224 -0.9829
vn 0.1104 0.0584 -0.9922
vn 0.1708 0.1169 -0.9784
vn 0.2781 -0.1403 0.9503
vn 0.2352 -0.3015 0.9240
vn 0.2126 -0.4431 0.8709
vn -0.9334 -0.2221 0.2820
vn -0.9611 -0.1832 0.2069
vn -0.9729 -0.1937 0.1265
vn -0.1790 -0.5449 -0.8192
vn -0.1593 -0.3020 -0.9399
vn -0.1488 -0.3200 -0.9356
vn 0.9213 0.2818 0.2678
vn 0.9940 -0.0421 0.1011
vn 0.9925 -0.1182 -0.0300
vn -0.9915 -0.0287 -0.1268
vn -0.9905 -0.0145 0.1367
vn -0.9889 0.0308 0.1456
vn -0.4736 0.4529 0.7554
vn -0.2430 0.1367 0.9603
vn -0.0767 0.2256 0.9712
vn 0.3918 -0.2454 0.8867
vn 0.5248 0.3489 -0.7764
vn -0.0621 -0.4714 -0.8797
vn -0.1803 -0.8264 -0.5334
vn -0.7286 -0.0819 -0.6801
vt 0.461701 0.809397
vt 0.301930 0.729761
vt 0.094158 0.499911
vt 0.498737 0.648456
vt 0.250869 0.553264
vt 0.714874 0.752530
vt 0.627854 0.740386
vt 0.227533 0.339544
vt 0.300362 0.438253
vt 0.625828 0.633709
vt 0.338991 0.679376
vt 0.653754 0.621457
vt 0.189641 0.785401
vt 0.531284 0.815038
vt 0.232114 0.729761
vt 0.806952 0.326283
vt 0.527824 0.712310
vt 0.703640 0.331352
vt 0.725736 0.123548
vt 0.557184 0.740386
vt 0.714874 0.681901
vt 0.693091 0.138725
vt 0.558638 0.706064
vt 0.944491 0.391302
vt 0.108931 0.369345
vt 0.090202 0.443431
vt 0.952837 0.467016
vt 0.108059 0.346292
vt 0.960024 0.371234
vt 0.653754 0.712739
vt 0.761990 0.055860
vt 0.265996 0.788213
vt 0.829683 0.188590
vt 0.886815 0.394232
vt 0.909606 0.471204
vt 0.826550 0.267021
vt 0.659457 0.749480
vt 0.206417 0.267620
vt 0.238389 0.812575
vt 0.882743 0.373659
vt 0.837846 0.166681
vt 0.102618 0.289588
vt 0.957957 0.321520
vt 0.918648 0.216117
vt 0.803322 0.012950
vt 0.106348 0.638847
vt 0.232551 0.755661
vt 0.798789 0.485160
vt 0.965752 0.239402
vt 0.153968 0.222285
vt 0.894228 0.312474
vt 0.856067 0.102710
vt 0.881967 0.351902
vt 0.842627 0.144082
vt 0.107159 0.331692
vt 0.958812 0.358201
vt 0.199778 0.246429
vt 0.138792 0.619338
vt 0.232114 0.797406
vt 0.967580 0.012950
vt 0.753483 0.682459
vt 0.843831 0.469074
vt 0.256421 0.022764
vt 0.824689 0.472884
vt 0.987050 0.016155
vt 0.832147 0.505580
vt 0.295109 0.018166
vt 0.782932 0.707368
vt 0.843831 0.503254
vt 0.076417 0.467161
vt 0.958695 0.494573
vt 0.833773 0.298242
vt 0.909847 0.503107
vt 0.076958 0.454690
vt 0.951531 0.482650
vt 0.837149 0.281767
vt 0.912926 0.487172
vt 0.064432 0.532285
vt 0.298790 0.687460
vt 0.825577 0.362572
vt 0.264894 0.686125
vt 0.056614 0.518895
vt 0.959622 0.549977
vt 0.837123 0.350740
vt 0.929664 0.555276
vt 0.051257 0.577890
vt 0.291936 0.641182
vt 0.824256 0.407314
vt 0.275162 0.640522
vt 0.035793 0.577862
vt 0.964581 0.612577
vt 0.838997 0.411720
vt 0.948088 0.615681
vt 0.039898 0.592711
vt 0.301778 0.620707
vt 0.403076 0.772170
vt 0.830596 0.428615
vt 0.403076 0.737417
vt 0.267017 0.619338
vt 0.012950 0.593438
vt 0.987050 0.637067
vt 0.428919 0.781443
vt 0.856067 0.440612
vt 0.428919 0.728949
vt 0.935424 0.646785
vt 0.945356 0.412724
vt 0.357115 0.854737
vt 0.331665 0.779032
vt 0.948027 0.441601
vt 0.799629 0.752473
vt 0.327972 0.853161
vt 0.906904 0.416128
vt 0.370069 0.779032
vt 0.684668 0.778429
vt 0.909575 0.445005
vt 0.655249 0.778999
vt 0.799629 0.791035
vt 0.330193 0.729131
vt 0.557184 0.775635
vt 0.363063 0.804932
vt 0.331684 0.807874
vt 0.754247 0.751428
vt 0.586563 0.768755
vt 0.566112 0.815056
vt 0.689281 0.828405
vt 0.370405 0.729131
vt 0.754247 0.791805
vt 0.657717 0.824383
vt 0.595492 0.808176
vt 0.327830 0.637821
vt 0.590400 0.642651
vt 0.164818 0.789976
vt 0.357235 0.619338
vt 0.642851 0.190721
vt 0.562581 0.649581
vt 0.406824 0.626953
vt 0.080449 0.619338
vt 0.646201 0.239681
vt 0.727583 0.656002
vt 0.597847 0.731399
vt 0.712829 0.722239
vt 0.658284 0.323708
vt 0.527919 0.666449
vt 0.661748 0.291537
vt 0.680225 0.245582
vt 0.377645 0.696957
vt 0.285191 0.477898
vt 0.483372 0.812325
vt 0.280072 0.728266
vt 0.924330 0.393087
vt 0.921760 0.373660
vt 0.678504 0.727397
vt 0.268491 0.812575
vt 0.930826 0.465310
vt 0.923786 0.327561
vt 0.941993 0.227167
vt 0.764056 0.466512
vt 0.919524 0.351927
vt 0.977463 0.013354
vt 0.833186 0.466512
vt 0.317617 0.012950
vt 0.798789 0.722800
vt 0.839639 0.522681
vt 0.934403 0.500152
vt 0.932138 0.484309
vt 0.281656 0.689101
vt 0.944784 0.554368
vt 0.283549 0.640852
vt 0.956335 0.614129
vt 0.284323 0.620942
vt 0.399765 0.754789
vt 0.961112 0.640376
vt 0.422297 0.755187
vt 0.926130 0.414426
vt 0.350867 0.779032
vt 0.928801 0.443303
vt 0.799629 0.771754
vt 0.350773 0.728949
vt 0.557184 0.796361
vt 0.753483 0.771844
vt 0.595492 0.787450
vt 0.985581 0.067358
vt 0.238180 0.070710
vt 0.259592 0.052321
vt 0.138792 0.821791
vt 0.953366 0.057503
vt 0.765454 0.639660
vt 0.120235 0.821584
vt 0.772730 0.660154
vt 0.283154 0.037949
vt 0.784440 0.682652
vt 0.128680 0.843910
vt 0.970110 0.058056
vt 0.758353 0.637393
vt 0.180368 0.432154
vt 0.759258 0.257498
vt 0.884976 0.446549
vt 0.828099 0.241547
vt 0.971226 0.428512
vt 0.101516 0.405509
vt 0.908240 0.430567
vt 0.669958 0.778714
vt 0.946692 0.427163
vt 0.342544 0.853949
vt 0.673120 0.826722
vt 0.582140 0.817526
vt 0.570535 0.766286
vt 0.348248 0.806122
vt 0.576699 0.792002
vt 0.653753 0.802281
vt 0.776512 0.794925
vt 0.776512 0.748700
vt 0.327830 0.829868
vt 0.363063 0.830170
vt 0.327830 0.753980
vt 0.373865 0.753980
vt 0.689281 0.803194
vt 0.351093 0.753886
vt 0.776117 0.771930
vt 0.671321 0.802907
vt 0.345899 0.829874
vt 0.457498 0.727404
vt 0.165986 0.548054
vt 0.260364 0.376248
vt 0.625887 0.695531
vt 0.520555 0.743605
vt 0.734596 0.339638
vt 0.406824 0.703049
vt 0.012950 0.651015
vt 0.277407 0.507014
vt 0.206214 0.619338
vt 0.706517 0.466512
vt 0.399765 0.822801
vt 0.181517 0.620770
vt 0.619265 0.470337
vt 0.422433 0.807343
vt 0.582936 0.466512
vt 0.458892 0.202188
vt 0.422433 0.843958
vt 0.727583 0.468029
vt 0.460639 0.221880
vt 0.402692 0.843997
vt 0.717439 0.778459
vt 0.429089 0.593438
vt 0.518160 0.466685
vt 0.070962 0.817001
vt 0.726094 0.791097
vt 0.457498 0.298878
vt 0.715181 0.783741
vt 0.523936 0.466512
vt 0.458951 0.311476
vt 0.719061 0.788282
vt 0.458165 0.306435
vt 0.058766 0.817583
vt 0.726094 0.778429
vt 0.431598 0.585369
vt 0.599953 0.261833
vt 0.080449 0.668491
vt 0.542336 0.274386
vt 0.076079 0.728305
vt 0.500395 0.287212
vt 0.064936 0.773359
vt 0.389801 0.564275
vt 0.039540 0.774208
vt 0.356388 0.547019
vt 0.031995 0.737396
vt 0.319737 0.531779
vt 0.030523 0.696843
vt 0.505723 0.512116
vt 0.384015 0.580847
vt 0.506522 0.550736
vt 0.346302 0.574833
vt 0.507607 0.604105
vt 0.294291 0.566034
vt 0.610540 0.298468
vt 0.545535 0.300686
vt 0.502363 0.302883
vt 0.504402 0.313331
vt 0.517745 0.511765
vt 0.548610 0.318269
vt 0.527842 0.556627
vt 0.609940 0.323717
vt 0.531284 0.618364
vt 0.660591 0.582499
vt 0.204501 0.743892
vt 0.668589 0.550878
vt 0.206214 0.710848
vt 0.668004 0.517120
vt 0.204545 0.678125
vt 0.623877 0.525891
vt 0.164692 0.675333
vt 0.610236 0.563455
vt 0.167167 0.712219
vt 0.605277 0.597358
vt 0.166352 0.745757
vt 0.511839 0.183186
vt 0.584607 0.521652
vt 0.552303 0.182624
vt 0.569857 0.561129
vt 0.598009 0.178631
vt 0.565182 0.606784
vt 0.592158 0.236754
vt 0.721184 0.600612
vt 0.550092 0.232946
vt 0.722606 0.558204
vt 0.518921 0.225772
vt 0.713819 0.525134
s 0
usemtl Material
f 89/196/1 7/19/1 13/33/1 90/198/1
f 8/22/2 7/19/2 89/196/2 58/145/2 54/138/2 53/134/2
f 6/18/3 56/142/3 57/144/3
f 3/8/4 106/224/4 4/9/4 59/147/4 88/195/4
f 6/17/5 107/226/5 5/14/5 60/148/5 1/1/5 105/222/5 2/4/5 56/143/5
f 61/150/6 13/34/6 16/40/6 62/151/6
f 5/16/7 14/36/7 31/76/7 29/72/7
f 88/195/8 1/3/8 10/26/8 91/200/8
f 67/158/9 21/53/9 20/51/9 65/155/9
f 13/33/10 7/19/10 12/31/10 16/41/10
f 3/8/11 9/25/11 11/28/11 15/38/11
f 55/141/12 3/6/12 15/37/12 63/152/12
f 66/156/13 19/49/13 17/43/13 65/155/13
f 23/57/14 22/55/14 17/42/14 19/50/14
f 83/184/15 82/183/15 25/63/15 26/67/15
f 15/38/16 11/28/16 22/55/16 23/57/16
f 62/151/17 16/40/17 21/53/17 67/158/17
f 69/163/18 26/66/18 25/64/18 68/160/18
f 87/193/19 84/186/19 24/60/19 68/159/19
f 86/190/20 83/184/20 26/67/20 69/161/20
f 84/187/21 85/189/21 27/68/21 24/61/21
f 70/164/22 29/73/22 31/77/22 71/165/22
f 70/164/23 28/71/23 34/83/23 73/167/23
f 10/26/24 1/3/24 28/70/24 30/74/24
f 64/154/25 10/27/25 30/75/25 71/165/25
f 34/82/26 32/78/26 36/86/26 38/90/26
f 60/149/27 5/15/27 33/81/27 72/166/27
f 5/16/28 29/72/28 35/84/28 33/80/28
f 28/70/29 1/3/29 32/78/29 34/82/29
f 37/88/30 39/92/30 43/103/30 41/97/30
f 73/167/31 34/83/31 38/91/31 75/169/31
f 33/80/32 35/84/32 39/92/32 37/88/32
f 72/166/33 33/81/33 37/89/33 74/168/33
f 76/171/34 41/98/34 43/104/34 77/173/34
f 74/168/35 37/89/35 41/99/35 76/170/35
f 38/90/36 36/86/36 40/94/36 42/100/36
f 75/169/37 38/91/37 42/101/37 77/172/37
f 102/219/38 97/211/38 51/127/38 81/180/38
f 91/199/39 10/27/39 45/109/39 93/203/39
f 90/197/40 13/34/40 46/112/40 92/201/40
f 61/150/41 9/24/41 44/106/41 78/174/41
f 64/154/42 14/35/42 47/115/42 79/176/42
f 96/209/43 94/206/43 50/124/43 80/179/43
f 101/218/44 99/215/44 48/118/44 80/178/44
f 104/221/45 98/213/45 49/121/45 95/208/45
f 103/220/46 100/217/46 50/125/46 94/205/46
f 8/23/47 53/135/47 52/131/47
f 8/23/48 52/131/48 4/10/48 106/225/48 3/7/48 55/140/48 7/20/48
f 54/138/49 58/145/49 89/196/49 5/16/49 107/227/49 6/18/49 57/144/49
f 100/216/50 101/218/50 80/178/50 50/126/50
f 95/207/51 96/209/51 80/179/51 48/119/51
f 10/27/52 64/154/52 79/176/52 45/109/52
f 13/34/53 61/150/53 78/174/53 46/112/53
f 98/212/54 102/219/54 81/180/54 49/122/54
f 39/93/55 75/169/55 77/172/55 43/105/55
f 36/87/56 74/168/56 76/170/56 40/95/56
f 40/96/57 76/171/57 77/173/57 42/102/57
f 32/79/58 72/166/58 74/168/58 36/87/58
f 35/85/59 73/167/59 75/169/59 39/93/59
f 1/2/60 60/149/60 72/166/60 32/79/60
f 14/35/61 64/154/61 71/165/61 31/77/61
f 29/73/62 70/164/62 73/167/62 35/85/62
f 28/71/63 70/164/63 71/165/63 30/75/63
f 85/189/64 86/191/64 69/162/64 27/68/64
f 82/182/65 87/193/65 68/159/65 25/65/65
f 27/69/66 69/163/66 68/160/66 24/62/66
f 11/29/67 62/151/67 67/158/67 22/56/67
f 18/44/68 66/156/68 65/155/68 20/51/68
f 7/21/69 55/141/69 63/152/69 12/30/69
f 22/56/70 67/158/70 65/155/70 17/43/70
f 9/24/71 61/150/71 62/151/71 11/29/71
f 19/49/72 66/156/72 87/193/72 82/182/72
f 12/31/73 18/45/73 20/52/73 21/54/73 16/41/73
f 66/157/74 18/48/74 84/187/74 87/194/74
f 23/57/75 19/50/75 82/183/75 83/184/75
f 49/123/76 81/181/76 96/209/76 95/207/76
f 97/210/77 103/220/77 94/205/77 51/128/77
f 99/214/78 104/221/78 95/208/78 48/120/78
f 81/181/79 51/129/79 94/206/79 96/209/79
f 14/35/80 90/197/80 92/201/80 47/115/80
f 9/24/81 91/199/81 93/203/81 44/106/81
f 3/8/82 88/195/82 91/200/82 9/25/82
f 5/16/83 89/196/83 90/198/83 14/36/83
f 44/107/84 93/204/84 104/221/84 99/214/84
f 47/116/85 92/202/85 103/220/85 97/210/85
f 45/110/86 79/177/86 102/219/86 98/212/86
f 46/113/87 78/175/87 101/218/87 100/216/87
f 92/202/88 46/114/88 100/217/88 103/220/88
f 93/204/89 45/111/89 98/213/89 104/221/89
f 78/175/90 44/108/90 99/215/90 101/218/90
f 79/177/91 47/117/91 97/211/91 102/219/91
f 59/146/92 4/11/92 52/130/92 53/133/92 54/136/92 108/228/92
f 136/291/93 110/234/93 109/231/93 135/289/93
f 121/264/94 120/262/94 114/246/94 117/254/94
f 139/297/95 111/237/95 110/235/95 136/290/95
f 135/288/96 109/232/96 112/240/96 144/307/96
f 144/306/97 112/241/97 111/238/97 139/296/97
f 111/239/98 112/242/98 109/233/98 110/236/98
f 117/255/99 114/247/99 116/252/99 115/249/99 113/243/99
f 124/270/100 121/263/100 117/256/100 113/244/100
f 120/261/101 129/277/101 116/253/101 114/248/101
f 130/279/102 124/269/102 113/245/102 115/250/102
f 129/277/103 130/278/103 115/251/103 116/253/103
f 57/144/104 56/142/104 132/282/104 127/275/104
f 127/275/105 132/282/105 131/280/105 128/276/105
f 128/276/106 131/280/106 130/278/106 129/277/106
f 56/143/107 2/4/107 126/273/107 132/283/107
f 132/283/108 126/273/108 125/271/108 131/281/108
f 131/281/109 125/271/109 124/269/109 130/279/109
f 54/138/110 57/144/110 127/275/110 118/257/110
f 118/257/111 127/275/111 128/276/111 119/259/111
f 119/259/112 128/276/112 129/277/112 120/261/112
f 2/5/113 108/230/113 123/267/113 126/274/113
f 126/274/114 123/267/114 122/265/114 125/272/114
f 125/272/115 122/265/115 121/263/115 124/270/115
f 108/229/116 54/137/116 118/258/116 123/268/116
f 123/268/117 118/258/117 119/260/117 122/266/117
f 122/266/118 119/260/118 120/262/118 121/264/118
f 54/138/119 142/302/119 141/300/119 53/134/119
f 142/302/120 143/304/120 140/298/120 141/300/120
f 143/304/121 144/306/121 139/296/121 140/298/121
f 4/12/122 133/284/122 142/303/122 54/139/122
f 133/284/123 134/286/123 143/305/123 142/303/123
f 134/286/124 135/288/124 144/307/124 143/305/124
f 53/135/125 141/301/125 138/294/125 52/131/125
f 141/301/126 140/299/126 137/292/126 138/294/126
f 140/299/127 139/297/127 136/290/127 137/292/127
f 52/132/128 138/295/128 133/285/128 4/13/128
f 138/295/129 137/293/129 134/287/129 133/285/129
f 137/293/130 136/291/130 135/289/130 134/287/130
f 105/223/131 1/3/131 88/195/131 59/147/131 108/230/131 2/5/131
f 86/192/132 85/188/132 83/185/132
f 83/185/133 85/188/133 18/46/133 23/58/133
f 63/153/134 15/39/134 23/59/134 18/47/134 12/32/134
f 84/187/135 18/48/135 85/189/135
l 52 106
