# Blender 3.3.1
# www.blender.org
mtllib monstruo_3_caminar578.mtl
o monstruo_grande
v 0.418240 2.017433 0.223284
v 0.525929 1.144045 0.048644
v -0.678860 1.813123 0.087202
v -0.292720 1.207037 0.219921
v 0.695181 2.271200 -0.065395
v 0.584271 1.618271 -0.228262
v -0.747704 1.990607 -0.371368
v -0.685788 1.675478 -0.391130
v -0.293009 2.439444 0.349862
v 0.256550 2.314448 0.390133
v -0.438069 2.420899 0.439287
v -1.116419 2.070083 -0.265464
v -0.243113 2.578171 -0.015358
v 0.296793 2.437683 0.121415
v -0.992871 1.944322 -0.072770
v -0.401690 2.658206 -0.015168
v -0.801299 2.358926 0.420575
v -1.442760 2.030154 -0.040144
v -1.193313 2.071990 0.200274
v -0.930349 2.655905 0.107278
v -0.586579 2.709473 0.027869
v -0.517564 2.379870 0.412471
v -1.123338 1.968457 -0.095863
v -1.906678 0.823706 0.639965
v -1.787743 0.795875 0.698703
v -1.764884 0.612829 0.504757
v -1.837478 0.629817 0.468905
v 0.382296 2.220282 0.393423
v 0.564679 2.394648 0.173961
v 0.364551 2.338024 0.397655
v 0.425020 2.454421 0.173615
v 0.623502 1.921070 0.296230
v 0.825844 1.929835 0.212100
v 0.655099 1.978223 0.347756
v 0.792935 2.068891 0.236989
v 0.700743 1.684243 0.462929
v 0.810539 1.678272 0.432170
v 0.732482 1.700375 0.562823
v 0.842478 1.699457 0.528325
v 0.669431 1.578318 0.574036
v 0.897316 1.575971 0.505216
v 0.667574 1.587101 0.770921
v 1.011835 1.582139 0.662580
v -0.130980 2.484279 0.388430
v 0.077992 2.453447 0.393205
v -0.104332 2.568826 0.135745
v 0.097782 2.536050 0.144742
v -0.076598 2.800073 0.526814
v 0.129368 2.729827 0.503250
v -0.071546 2.902284 0.268148
v 0.133532 2.832409 0.243754
v -0.500677 1.173663 0.023412
v -0.393092 1.145403 -0.191720
v -0.035079 1.257119 -0.338322
v -0.715524 1.833835 -0.145475
v 0.543250 1.250909 -0.160270
v 0.325096 1.294057 -0.276901
v 0.038141 1.506436 -0.345593
v -0.024118 1.125671 0.185598
v 0.519681 2.088883 0.125916
v -0.269089 2.488494 0.222286
v -0.428990 2.656385 0.258181
v -0.912851 1.997526 -0.188096
v 0.254840 2.436204 0.279264
v -0.808904 2.581374 0.353505
v -1.365968 2.184484 0.208679
v -0.581242 2.646965 0.236370
v -1.861544 0.810417 0.698654
v -1.781539 0.501893 0.390470
v 0.498139 2.318893 0.324506
v 0.396974 2.442984 0.305717
v 0.702131 1.898151 0.209433
v 0.751297 2.032699 0.338615
v 0.755719 1.683129 0.445966
v 0.787473 1.699583 0.545517
v 0.776851 1.569100 0.517741
v 0.826626 1.569469 0.675888
v -0.119781 2.525369 0.260569
v 0.085461 2.496403 0.267910
v -0.105325 2.853163 0.397877
v 0.162894 2.779469 0.373736
v -1.635028 1.109098 0.646216
v -1.700092 0.937497 0.579139
v -1.842823 1.127421 0.546712
v -1.812038 0.963693 0.523853
v -1.761292 0.781841 0.482119
v -1.767668 1.102566 0.646999
v -0.061405 1.815988 0.455075
v 0.193066 2.131409 -0.263578
v 0.117547 2.526500 -0.032963
v -0.005301 2.325000 0.530484
v -0.008044 2.551528 0.138298
v -0.020820 2.466677 0.390032
v 0.031577 2.882319 0.216558
v 0.025580 2.749611 0.553720
v 0.032298 2.867589 0.406462
v 0.128240 2.694337 0.168720
v 0.118503 2.581192 0.464599
v -0.117763 2.635411 0.480960
v -0.110298 2.749454 0.181618
v -0.131112 2.694002 0.331968
v 0.138279 2.637748 0.316340
v 0.008508 2.729343 0.154202
v 0.001159 2.599164 0.493143
v 0.491769 1.650020 0.073893
v -0.587391 1.536481 0.142797
v 0.623723 1.829230 -0.205977
v 0.172303 1.073180 0.158456
v -0.203777 0.048607 0.157757
v -0.348615 0.059306 0.279509
v -0.373469 0.051379 0.028888
v -0.238281 0.045124 0.014868
v 0.360448 0.026945 -0.391613
v 0.285613 0.039494 -0.465353
v 0.368950 0.032161 -0.429929
v 0.336863 0.036066 -0.455378
v 0.301833 0.027376 -0.380077
v 0.090993 0.915910 -0.259054
v 0.165727 0.640337 -0.292673
v 0.228155 0.346616 -0.357814
v 0.266745 0.271601 -0.196607
v 0.232336 0.480784 -0.048551
v 0.219575 0.730992 0.073709
v 0.388073 0.288774 -0.219614
v 0.436767 0.514226 -0.085554
v 0.501097 0.832425 0.033707
v 0.345673 0.951517 -0.236624
v 0.345943 0.636948 -0.265517
v 0.335333 0.343958 -0.340046
v 0.403468 0.325526 -0.291976
v 0.461245 0.608287 -0.187302
v 0.517632 0.928966 -0.131629
v -0.166296 0.970735 0.373697
v -0.146711 0.668812 0.369401
v -0.145736 0.422020 0.378443
v -0.430995 0.412291 0.369177
v -0.438171 0.686440 0.315313
v -0.457739 0.938230 0.263157
v -0.464484 0.415176 0.099152
v -0.470314 0.685418 0.046837
v -0.480297 0.893289 -0.009745
v -0.085007 0.844624 -0.040430
v -0.127477 0.655587 0.006090
v -0.172367 0.451823 0.061704
vn 0.0253 0.5043 -0.8632
vn 0.0235 -0.0378 -0.9990
vn 0.4282 -0.2105 -0.8788
vn -0.3400 -0.1845 0.9221
vn 0.9223 -0.1197 0.3675
vn 0.6158 0.7619 0.2006
vn 0.2238 0.8791 -0.4209
vn 0.4795 -0.1944 0.8557
vn -0.0906 0.9463 0.3104
vn -0.0301 0.4826 -0.8753
vn -0.2368 -0.4150 0.8784
vn -0.4127 -0.8792 -0.2382
vn -0.3454 -0.0216 0.9382
vn 0.2278 -0.8398 0.4928
vn 0.9039 -0.3180 0.2859
vn -0.1176 -0.6790 0.7247
vn 0.1305 0.9819 0.1370
vn -0.0984 -0.7211 0.6858
vn -0.7096 0.3382 0.6181
vn 0.9582 -0.0579 -0.2800
vn -0.8179 0.0803 -0.5698
vn 0.5336 0.7413 0.4072
vn 0.2293 0.1710 0.9582
vn -0.3872 -0.4897 0.7812
vn -0.1792 0.6693 0.7211
vn -0.9237 0.0067 0.3831
vn -0.0819 -0.5921 -0.8017
vn 0.8691 0.4923 0.0484
vn -0.4514 -0.5833 0.6753
vn 0.7613 0.4291 -0.4861
vn -0.0545 0.5606 0.8263
vn 0.9991 0.0295 -0.0311
vn 0.0599 -0.6956 -0.7159
vn 0.0628 -0.9980 -0.0120
vn -0.1131 -0.5911 -0.7986
vn -0.8854 0.4620 0.0504
vn 0.3594 0.7445 0.5627
vn 0.9876 -0.0330 -0.1532
vn 0.3215 0.5863 0.7436
vn 0.1473 0.9876 -0.0541
vn -0.3076 0.9098 0.2788
vn 0.3925 0.8962 0.2070
vn 0.0585 0.9778 0.2014
vn -0.9709 0.1317 0.1999
vn 0.2667 -0.3317 0.9049
vn -0.2220 0.4627 -0.8583
vn -0.7753 -0.5469 -0.3159
vn -0.9291 -0.3026 0.2126
vn 0.2213 0.0882 -0.9712
vn -0.9644 0.2464 -0.0960
vn 0.0505 0.8509 0.5230
vn 0.4125 0.7424 0.5279
vn -0.2852 0.9098 0.3016
vn 0.9788 -0.1613 0.1261
vn 0.0452 0.7472 0.6631
vn -0.3640 -0.5854 -0.7244
vn -0.0797 -0.9962 0.0364
vn -0.5388 -0.6424 -0.5450
vn 0.5805 0.5170 0.6291
vn -0.3479 -0.7651 -0.5418
vn -0.0930 0.9954 0.0219
vn 0.6359 0.5664 0.5242
vn 0.4912 0.2910 0.8210
vn -0.3254 0.2425 -0.9140
vn 0.0099 0.1656 0.9861
vn -0.7283 -0.5737 0.3747
vn -0.2835 0.5349 0.7959
vn -0.7049 0.6883 0.1713
vn -0.4034 -0.8529 -0.3313
vn 0.1380 0.4567 0.8789
vn 0.5368 0.5910 0.6021
vn 0.1464 0.3412 0.9285
vn -0.3298 0.5600 -0.7601
vn -0.8652 0.4566 0.2072
vn 0.9116 -0.3217 0.2560
vn 0.5023 0.7053 0.5002
vn 0.3099 0.3810 -0.8711
vn -0.2656 -0.2584 0.9288
vn 0.5082 0.8510 0.1322
vn 0.3493 0.9369 -0.0115
vn -0.1755 0.5745 0.7994
vn -0.5221 -0.0503 0.8514
vn 0.2792 0.7134 -0.6427
vn -0.1772 -0.5438 0.8203
vn 0.1145 0.1012 -0.9882
vn 0.9475 -0.3190 -0.0217
vn -0.9912 -0.0047 -0.1323
vn -0.0836 0.1716 -0.9816
vn 0.0165 -0.5596 0.8286
vn -1.0000 0.0016 0.0083
vn 0.9652 -0.2489 -0.0803
vn -0.0454 -0.9955 -0.0829
vn 0.2337 -0.3754 0.8969
vn -0.9637 -0.2317 0.1324
vn -0.9602 -0.2568 0.1101
vn 0.9845 -0.1094 -0.1372
vn -0.1285 0.1449 -0.9811
vn -0.0432 -0.9984 0.0355
vn -0.0329 -0.9907 -0.1323
vn 0.2061 -0.5604 0.8021
vn 0.1746 0.3502 -0.9202
vn 0.9725 -0.1866 0.1392
vn 0.6076 0.2798 -0.7433
vn 0.4797 -0.0941 -0.8723
vn 0.5446 0.0632 -0.8363
vn 0.5884 0.1757 -0.7892
vn 0.9958 -0.0783 0.0475
vn 0.9817 -0.1897 0.0154
vn 0.9723 -0.2279 0.0515
vn 0.1499 -0.1390 -0.9789
vn 0.1039 0.1178 -0.9876
vn 0.1548 0.2417 -0.9579
vn 0.2624 -0.1366 0.9552
vn 0.2503 -0.3978 0.8827
vn 0.2327 -0.5349 0.8122
vn -0.9324 -0.2387 0.2715
vn -0.9567 -0.2168 0.1942
vn -0.9653 -0.2345 0.1148
vn -0.1453 -0.5593 -0.8161
vn -0.1188 -0.2405 -0.9633
vn -0.1172 -0.2113 -0.9704
vn 0.9052 0.3095 0.2913
vn 0.9903 -0.0346 0.1343
vn 0.9950 -0.0989 -0.0132
vn -0.9851 -0.0522 -0.1638
vn -0.9938 -0.0393 0.1038
vn -0.9927 -0.0001 0.1210
vn -0.5127 0.4339 0.7408
vn -0.2727 0.0637 0.9600
vn -0.1068 0.1175 0.9873
vn 0.4164 -0.1891 0.8893
vn 0.4787 0.3211 -0.8171
vn -0.0973 -0.4733 -0.8755
vn -0.1769 -0.8457 -0.5035
vn -0.7798 -0.0596 -0.6232
vt 0.461701 0.809397
vt 0.301930 0.729761
vt 0.094158 0.499911
vt 0.498737 0.648456
vt 0.250869 0.553264
vt 0.714874 0.752530
vt 0.627854 0.740386
vt 0.227533 0.339544
vt 0.300362 0.438253
vt 0.625828 0.633709
vt 0.338991 0.679376
vt 0.653754 0.621457
vt 0.189641 0.785401
vt 0.531284 0.815038
vt 0.232114 0.729761
vt 0.806952 0.326283
vt 0.527824 0.712310
vt 0.703640 0.331352
vt 0.725736 0.123548
vt 0.557184 0.740386
vt 0.714874 0.681901
vt 0.693091 0.138725
vt 0.558638 0.706064
vt 0.944491 0.391302
vt 0.108931 0.369345
vt 0.090202 0.443431
vt 0.952837 0.467016
vt 0.108059 0.346292
vt 0.960024 0.371234
vt 0.653754 0.712739
vt 0.761990 0.055860
vt 0.265996 0.788213
vt 0.829683 0.188590
vt 0.886815 0.394232
vt 0.909606 0.471204
vt 0.826550 0.267021
vt 0.659457 0.749480
vt 0.206417 0.267620
vt 0.238389 0.812575
vt 0.882743 0.373659
vt 0.837846 0.166681
vt 0.102618 0.289588
vt 0.957957 0.321520
vt 0.918648 0.216117
vt 0.803322 0.012950
vt 0.106348 0.638847
vt 0.232551 0.755661
vt 0.798789 0.485160
vt 0.965752 0.239402
vt 0.153968 0.222285
vt 0.894228 0.312474
vt 0.856067 0.102710
vt 0.881967 0.351902
vt 0.842627 0.144082
vt 0.107159 0.331692
vt 0.958812 0.358201
vt 0.199778 0.246429
vt 0.138792 0.619338
vt 0.232114 0.797406
vt 0.967580 0.012950
vt 0.753483 0.682459
vt 0.843831 0.469074
vt 0.256421 0.022764
vt 0.824689 0.472884
vt 0.987050 0.016155
vt 0.832147 0.505580
vt 0.295109 0.018166
vt 0.782932 0.707368
vt 0.843831 0.503254
vt 0.076417 0.467161
vt 0.958695 0.494573
vt 0.833773 0.298242
vt 0.909847 0.503107
vt 0.076958 0.454690
vt 0.951531 0.482650
vt 0.837149 0.281767
vt 0.912926 0.487172
vt 0.064432 0.532285
vt 0.298790 0.687460
vt 0.825577 0.362572
vt 0.264894 0.686125
vt 0.056614 0.518895
vt 0.959622 0.549977
vt 0.837123 0.350740
vt 0.929664 0.555276
vt 0.051257 0.577890
vt 0.291936 0.641182
vt 0.824256 0.407314
vt 0.275162 0.640522
vt 0.035793 0.577862
vt 0.964581 0.612577
vt 0.838997 0.411720
vt 0.948088 0.615681
vt 0.039898 0.592711
vt 0.301778 0.620707
vt 0.403076 0.772170
vt 0.830596 0.428615
vt 0.403076 0.737417
vt 0.267017 0.619338
vt 0.012950 0.593438
vt 0.987050 0.637067
vt 0.428919 0.781443
vt 0.856067 0.440612
vt 0.428919 0.728949
vt 0.935424 0.646785
vt 0.945356 0.412724
vt 0.357115 0.854737
vt 0.331665 0.779032
vt 0.948027 0.441601
vt 0.799629 0.752473
vt 0.327972 0.853161
vt 0.906904 0.416128
vt 0.370069 0.779032
vt 0.684668 0.778429
vt 0.909575 0.445005
vt 0.655249 0.778999
vt 0.799629 0.791035
vt 0.330193 0.729131
vt 0.557184 0.775635
vt 0.363063 0.804932
vt 0.331684 0.807874
vt 0.754247 0.751428
vt 0.586563 0.768755
vt 0.566112 0.815056
vt 0.689281 0.828405
vt 0.370405 0.729131
vt 0.754247 0.791805
vt 0.657717 0.824383
vt 0.595492 0.808176
vt 0.327830 0.637821
vt 0.590400 0.642651
vt 0.164818 0.789976
vt 0.357235 0.619338
vt 0.642851 0.190721
vt 0.562581 0.649581
vt 0.406824 0.626953
vt 0.080449 0.619338
vt 0.646201 0.239681
vt 0.727583 0.656002
vt 0.597847 0.731399
vt 0.712829 0.722239
vt 0.658284 0.323708
vt 0.527919 0.666449
vt 0.661748 0.291537
vt 0.680225 0.245582
vt 0.377645 0.696957
vt 0.285191 0.477898
vt 0.483372 0.812325
vt 0.280072 0.728266
vt 0.924330 0.393087
vt 0.921760 0.373660
vt 0.678504 0.727397
vt 0.268491 0.812575
vt 0.930826 0.465310
vt 0.923786 0.327561
vt 0.941993 0.227167
vt 0.764056 0.466512
vt 0.919524 0.351927
vt 0.977463 0.013354
vt 0.833186 0.466512
vt 0.317617 0.012950
vt 0.798789 0.722800
vt 0.839639 0.522681
vt 0.934403 0.500152
vt 0.932138 0.484309
vt 0.281656 0.689101
vt 0.944784 0.554368
vt 0.283549 0.640852
vt 0.956335 0.614129
vt 0.284323 0.620942
vt 0.399765 0.754789
vt 0.961112 0.640376
vt 0.422297 0.755187
vt 0.926130 0.414426
vt 0.350867 0.779032
vt 0.928801 0.443303
vt 0.799629 0.771754
vt 0.350773 0.728949
vt 0.557184 0.796361
vt 0.753483 0.771844
vt 0.595492 0.787450
vt 0.985581 0.067358
vt 0.238180 0.070710
vt 0.259592 0.052321
vt 0.138792 0.821791
vt 0.953366 0.057503
vt 0.765454 0.639660
vt 0.120235 0.821584
vt 0.772730 0.660154
vt 0.283154 0.037949
vt 0.784440 0.682652
vt 0.128680 0.843910
vt 0.970110 0.058056
vt 0.758353 0.637393
vt 0.180368 0.432154
vt 0.759258 0.257498
vt 0.884976 0.446549
vt 0.828099 0.241547
vt 0.971226 0.428512
vt 0.101516 0.405509
vt 0.908240 0.430567
vt 0.669958 0.778714
vt 0.946692 0.427163
vt 0.342544 0.853949
vt 0.673120 0.826722
vt 0.582140 0.817526
vt 0.570535 0.766286
vt 0.348248 0.806122
vt 0.576699 0.792002
vt 0.653753 0.802281
vt 0.776512 0.794925
vt 0.776512 0.748700
vt 0.327830 0.829868
vt 0.363063 0.830170
vt 0.327830 0.753980
vt 0.373865 0.753980
vt 0.689281 0.803194
vt 0.351093 0.753886
vt 0.776117 0.771930
vt 0.671321 0.802907
vt 0.345899 0.829874
vt 0.457498 0.727404
vt 0.165986 0.548054
vt 0.260364 0.376248
vt 0.625887 0.695531
vt 0.520555 0.743605
vt 0.734596 0.339638
vt 0.406824 0.703049
vt 0.012950 0.651015
vt 0.277407 0.507014
vt 0.206214 0.619338
vt 0.706517 0.466512
vt 0.399765 0.822801
vt 0.181517 0.620770
vt 0.619265 0.470337
vt 0.422433 0.807343
vt 0.582936 0.466512
vt 0.458892 0.202188
vt 0.422433 0.843958
vt 0.727583 0.468029
vt 0.460639 0.221880
vt 0.402692 0.843997
vt 0.717439 0.778459
vt 0.429089 0.593438
vt 0.518160 0.466685
vt 0.070962 0.817001
vt 0.726094 0.791097
vt 0.457498 0.298878
vt 0.715181 0.783741
vt 0.523936 0.466512
vt 0.458951 0.311476
vt 0.719061 0.788282
vt 0.458165 0.306435
vt 0.058766 0.817583
vt 0.726094 0.778429
vt 0.431598 0.585369
vt 0.599953 0.261833
vt 0.080449 0.668491
vt 0.542336 0.274386
vt 0.076079 0.728305
vt 0.500395 0.287212
vt 0.064936 0.773359
vt 0.389801 0.564275
vt 0.039540 0.774208
vt 0.356388 0.547019
vt 0.031995 0.737396
vt 0.319737 0.531779
vt 0.030523 0.696843
vt 0.505723 0.512116
vt 0.384015 0.580847
vt 0.506522 0.550736
vt 0.346302 0.574833
vt 0.507607 0.604105
vt 0.294291 0.566034
vt 0.610540 0.298468
vt 0.545535 0.300686
vt 0.502363 0.302883
vt 0.504402 0.313331
vt 0.517745 0.511765
vt 0.548610 0.318269
vt 0.527842 0.556627
vt 0.609940 0.323717
vt 0.531284 0.618364
vt 0.660591 0.582499
vt 0.204501 0.743892
vt 0.668589 0.550878
vt 0.206214 0.710848
vt 0.668004 0.517120
vt 0.204545 0.678125
vt 0.623877 0.525891
vt 0.164692 0.675333
vt 0.610236 0.563455
vt 0.167167 0.712219
vt 0.605277 0.597358
vt 0.166352 0.745757
vt 0.511839 0.183186
vt 0.584607 0.521652
vt 0.552303 0.182624
vt 0.569857 0.561129
vt 0.598009 0.178631
vt 0.565182 0.606784
vt 0.592158 0.236754
vt 0.721184 0.600612
vt 0.550092 0.232946
vt 0.722606 0.558204
vt 0.518921 0.225772
vt 0.713819 0.525134
s 0
usemtl Material
f 89/196/1 7/19/1 13/33/1 90/198/1
f 8/22/2 7/19/2 89/196/2 58/145/2 54/138/2 53/134/2
f 6/18/3 56/142/3 57/144/3
f 3/8/4 106/224/4 4/9/4 59/147/4 88/195/4
f 6/17/5 107/226/5 5/14/5 60/148/5 1/1/5 105/222/5 2/4/5 56/143/5
f 61/150/6 13/34/6 16/40/6 62/151/6
f 5/16/7 14/36/7 31/76/7 29/72/7
f 88/195/8 1/3/8 10/26/8 91/200/8
f 67/158/9 21/53/9 20/51/9 65/155/9
f 13/33/10 7/19/10 12/31/10 16/41/10
f 3/8/11 9/25/11 11/28/11 15/38/11
f 55/141/12 3/6/12 15/37/12 63/152/12
f 66/156/13 19/49/13 17/43/13 65/155/13
f 23/57/14 22/55/14 17/42/14 19/50/14
f 83/184/15 82/183/15 25/63/15 26/67/15
f 15/38/16 11/28/16 22/55/16 23/57/16
f 62/151/17 16/40/17 21/53/17 67/158/17
f 69/163/18 26/66/18 25/64/18 68/160/18
f 87/193/19 84/186/19 24/60/19 68/159/19
f 86/190/20 83/184/20 26/67/20 69/161/20
f 84/187/21 85/189/21 27/68/21 24/61/21
f 70/164/22 29/73/22 31/77/22 71/165/22
f 70/164/23 28/71/23 34/83/23 73/167/23
f 10/26/24 1/3/24 28/70/24 30/74/24
f 64/154/25 10/27/25 30/75/25 71/165/25
f 34/82/26 32/78/26 36/86/26 38/90/26
f 60/149/27 5/15/27 33/81/27 72/166/27
f 5/16/28 29/72/28 35/84/28 33/80/28
f 28/70/29 1/3/29 32/78/29 34/82/29
f 37/88/30 39/92/30 43/103/30 41/97/30
f 73/167/31 34/83/31 38/91/31 75/169/31
f 33/80/32 35/84/32 39/92/32 37/88/32
f 72/166/33 33/81/33 37/89/33 74/168/33
f 76/171/34 41/98/34 43/104/34 77/173/34
f 74/168/35 37/89/35 41/99/35 76/170/35
f 38/90/36 36/86/36 40/94/36 42/100/36
f 75/169/37 38/91/37 42/101/37 77/172/37
f 102/219/38 97/211/38 51/127/38 81/180/38
f 91/199/39 10/27/39 45/109/39 93/203/39
f 90/197/40 13/34/40 46/112/40 92/201/40
f 61/150/41 9/24/41 44/106/41 78/174/41
f 64/154/42 14/35/42 47/115/42 79/176/42
f 96/209/43 94/206/43 50/124/43 80/179/43
f 101/218/44 99/215/44 48/118/44 80/178/44
f 104/221/45 98/213/45 49/121/45 95/208/45
f 103/220/46 100/217/46 50/125/46 94/205/46
f 8/23/47 53/135/47 52/131/47
f 8/23/48 52/131/48 4/10/48 106/225/48 3/7/48 55/140/48 7/20/48
f 54/138/49 58/145/49 89/196/49 5/16/49 107/227/49 6/18/49 57/144/49
f 100/216/50 101/218/50 80/178/50 50/126/50
f 95/207/51 96/209/51 80/179/51 48/119/51
f 10/27/52 64/154/52 79/176/52 45/109/52
f 13/34/53 61/150/53 78/174/53 46/112/53
f 98/212/54 102/219/54 81/180/54 49/122/54
f 39/93/55 75/169/55 77/172/55 43/105/55
f 36/87/56 74/168/56 76/170/56 40/95/56
f 40/96/57 76/171/57 77/173/57 42/102/57
f 32/79/58 72/166/58 74/168/58 36/87/58
f 35/85/59 73/167/59 75/169/59 39/93/59
f 1/2/60 60/149/60 72/166/60 32/79/60
f 14/35/61 64/154/61 71/165/61 31/77/61
f 29/73/62 70/164/62 73/167/62 35/85/62
f 28/71/63 70/164/63 71/165/63 30/75/63
f 85/189/64 86/191/64 69/162/64 27/68/64
f 82/182/65 87/193/65 68/159/65 25/65/65
f 27/69/66 69/163/66 68/160/66 24/62/66
f 11/29/67 62/151/67 67/158/67 22/56/67
f 18/44/68 66/156/68 65/155/68 20/51/68
f 7/21/69 55/141/69 63/152/69 12/30/69
f 22/56/70 67/158/70 65/155/70 17/43/70
f 9/24/71 61/150/71 62/151/71 11/29/71
f 19/49/72 66/156/72 87/193/72 82/182/72
f 12/31/73 18/45/73 20/52/73 21/54/73 16/41/73
f 66/157/74 18/48/74 84/187/74 87/194/74
f 23/57/75 19/50/75 82/183/75 83/184/75
f 49/123/76 81/181/76 96/209/76 95/207/76
f 97/210/77 103/220/77 94/205/77 51/128/77
f 99/214/78 104/221/78 95/208/78 48/120/78
f 81/181/79 51/129/79 94/206/79 96/209/79
f 14/35/80 90/197/80 92/201/80 47/115/80
f 9/24/81 91/199/81 93/203/81 44/106/81
f 3/8/82 88/195/82 91/200/82 9/25/82
f 5/16/83 89/196/83 90/198/83 14/36/83
f 44/107/84 93/204/84 104/221/84 99/214/84
f 47/116/85 92/202/85 103/220/85 97/210/85
f 45/110/86 79/177/86 102/219/86 98/212/86
f 46/113/87 78/175/87 101/218/87 100/216/87
f 92/202/88 46/114/88 100/217/88 103/220/88
f 93/204/89 45/111/89 98/213/89 104/221/89
f 78/175/90 44/108/90 99/215/90 101/218/90
f 79/177/91 47/117/91 97/211/91 102/219/91
f 59/146/92 4/11/92 52/130/92 53/133/92 54/136/92 108/228/92
f 136/291/93 110/234/93 109/231/93 135/289/93
f 121/264/94 120/262/94 114/246/94 117/254/94
f 139/297/95 111/237/95 110/235/95 136/290/95
f 135/288/96 109/232/96 112/240/96 144/307/96
f 144/306/97 112/241/97 111/238/97 139/296/97
f 111/239/98 112/242/98 109/233/98 110/236/98
f 117/255/99 114/247/99 116/252/99 115/249/99 113/243/99
f 124/270/100 121/263/100 117/256/100 113/244/100
f 120/261/101 129/277/101 116/253/101 114/248/101
f 130/279/102 124/269/102 113/245/102 115/250/102
f 129/277/103 130/278/103 115/251/103 116/253/103
f 57/144/104 56/142/104 132/282/104 127/275/104
f 127/275/105 132/282/105 131/280/105 128/276/105
f 128/276/106 131/280/106 130/278/106 129/277/106
f 56/143/107 2/4/107 126/273/107 132/283/107
f 132/283/108 126/273/108 125/271/108 131/281/108
f 131/281/109 125/271/109 124/269/109 130/279/109
f 54/138/110 57/144/110 127/275/110 118/257/110
f 118/257/111 127/275/111 128/276/111 119/259/111
f 119/259/112 128/276/112 129/277/112 120/261/112
f 2/5/113 108/230/113 123/267/113 126/274/113
f 126/274/114 123/267/114 122/265/114 125/272/114
f 125/272/115 122/265/115 121/263/115 124/270/115
f 108/229/116 54/137/116 118/258/116 123/268/116
f 123/268/117 118/258/117 119/260/117 122/266/117
f 122/266/118 119/260/118 120/262/118 121/264/118
f 54/138/119 142/302/119 141/300/119 53/134/119
f 142/302/120 143/304/120 140/298/120 141/300/120
f 143/304/121 144/306/121 139/296/121 140/298/121
f 4/12/122 133/284/122 142/303/122 54/139/122
f 133/284/123 134/286/123 143/305/123 142/303/123
f 134/286/124 135/288/124 144/307/124 143/305/124
f 53/135/125 141/301/125 138/294/125 52/131/125
f 141/301/126 140/299/126 137/292/126 138/294/126
f 140/299/127 139/297/127 136/290/127 137/292/127
f 52/132/128 138/295/128 133/285/128 4/13/128
f 138/295/129 137/293/129 134/287/129 133/285/129
f 137/293/130 136/291/130 135/289/130 134/287/130
f 105/223/131 1/3/131 88/195/131 59/147/131 108/230/131 2/5/131
f 86/192/132 85/188/132 83/185/132
f 83/185/133 85/188/133 18/46/133 23/58/133
f 63/153/134 15/39/134 23/59/134 18/47/134 12/32/134
f 84/187/135 18/48/135 85/189/135
l 52 106
