# Blender 3.3.1
# www.blender.org
mtllib monstruo_3_grande_caminar508.mtl
o monstruo_grande
v 0.407951 2.011555 0.198333
v 0.518201 1.173528 0.111516
v -0.708129 1.800475 0.184467
v -0.307977 1.113513 0.203259
v 0.538629 2.304248 -0.150577
v 0.539507 1.600926 -0.227855
v -0.836133 2.027886 -0.210851
v -0.736961 1.741192 -0.288407
v -0.269068 2.401777 0.477513
v 0.282254 2.288059 0.412916
v -0.398106 2.369293 0.575609
v -1.216081 2.119118 -0.027400
v -0.268318 2.577461 0.124371
v 0.264878 2.432830 0.156261
v -1.062280 1.973577 0.099217
v -0.424092 2.658334 0.159727
v -0.741512 2.292527 0.609886
v -1.481531 2.046225 0.274341
v -1.182832 2.058674 0.442232
v -0.925745 2.640837 0.394516
v -0.600565 2.706802 0.250267
v -0.472430 2.321772 0.546173
v -1.190860 2.001965 0.120628
v -1.765530 0.769853 0.936234
v -1.636613 0.744898 0.969818
v -1.645197 0.570709 0.766771
v -1.723885 0.585941 0.746273
v 0.440822 2.199641 0.383066
v 0.519462 2.399172 0.121549
v 0.397981 2.315495 0.401222
v 0.397385 2.452110 0.175585
v 0.660001 1.882999 0.153100
v 0.750006 1.995532 -0.027399
v 0.682665 1.963468 0.206477
v 0.748289 2.085896 0.051629
v 0.823930 1.678784 0.045784
v 0.893338 1.714324 -0.038516
v 0.905498 1.621146 0.079455
v 0.972422 1.668421 -0.002375
v 0.816741 1.522936 0.041034
v 0.960640 1.617706 -0.126783
v 0.920109 1.381458 0.131274
v 1.127309 1.522935 -0.128208
v -0.109378 2.442315 0.492879
v 0.099601 2.414378 0.470667
v -0.112777 2.548205 0.247084
v 0.086796 2.519003 0.228575
v -0.070783 2.760013 0.627420
v 0.137244 2.703060 0.590098
v -0.087962 2.865339 0.371059
v 0.120055 2.808449 0.334050
v -0.502435 1.159761 -0.021008
v -0.376351 1.207178 -0.223734
v -0.044611 1.276206 -0.334752
v -0.770101 1.848521 -0.026473
v 0.559884 1.182718 -0.124064
v 0.349951 1.183861 -0.266924
v 0.006242 1.522112 -0.329982
v -0.027350 1.137318 0.185591
v 0.452163 2.099044 0.080334
v -0.262018 2.463971 0.353532
v -0.413419 2.625856 0.427915
v -0.994699 2.033334 -0.017544
v 0.254065 2.417219 0.316117
v -0.753504 2.522927 0.591253
v -1.343990 2.168869 0.511491
v -0.565358 2.616668 0.427688
v -1.709501 0.756240 0.984541
v -1.679691 0.463701 0.652731
v 0.519803 2.309069 0.278358
v 0.400891 2.428862 0.310990
v 0.656017 1.924656 0.026622
v 0.758854 2.035239 0.155807
v 0.857433 1.700431 0.004245
v 0.938595 1.643744 0.038007
v 0.866909 1.578934 -0.054572
v 0.986870 1.470527 -0.017889
v -0.111942 2.494856 0.369740
v 0.091589 2.467485 0.349411
v -0.110765 2.812632 0.501320
v 0.159997 2.755781 0.459958
v -1.507854 1.066214 0.903768
v -1.578616 0.894717 0.842438
v -1.731213 1.079669 0.847347
v -1.699959 0.918205 0.810828
v -1.651912 0.740473 0.751754
v -1.637550 1.053952 0.929561
v -0.028868 1.773258 0.505030
v 0.108114 2.146290 -0.211069
v 0.080849 2.526182 0.048566
v 0.050208 2.276310 0.602745
v -0.015543 2.532922 0.237365
v -0.001905 2.430610 0.481897
v 0.013491 2.852682 0.314101
v 0.035803 2.715748 0.647188
v 0.025971 2.835546 0.501584
v 0.118099 2.672138 0.257652
v 0.135091 2.551790 0.550299
v -0.103449 2.593131 0.582755
v -0.121474 2.714196 0.288962
v -0.129417 2.653402 0.437010
v 0.141834 2.612221 0.402683
v -0.003733 2.701317 0.253075
v 0.017414 2.564323 0.586233
v 0.416883 1.703405 -0.005610
v -0.586668 1.500046 0.212939
v 0.534898 1.821018 -0.230323
v 0.160868 1.155840 0.190564
v -0.235117 0.037441 -0.211855
v -0.390892 0.038197 -0.104237
v -0.391691 0.053129 -0.354684
v -0.255788 0.046873 -0.356298
v 0.311600 -0.022876 0.286538
v 0.240148 -0.041777 0.211185
v 0.321934 -0.032828 0.249555
v 0.291051 -0.039813 0.223348
v 0.252394 -0.019087 0.294777
v 0.095101 0.833661 -0.112083
v 0.137913 0.547000 0.043402
v 0.183925 0.266952 0.166206
v 0.216382 0.296526 0.342636
v 0.191214 0.553875 0.342673
v 0.190184 0.829203 0.298993
v 0.338743 0.292996 0.318972
v 0.397466 0.552052 0.300903
v 0.478827 0.888546 0.234809
v 0.352050 0.863541 -0.072570
v 0.317081 0.553612 0.076631
v 0.290598 0.270928 0.186588
v 0.357019 0.280979 0.239313
v 0.429187 0.570557 0.162931
v 0.513848 0.892221 0.046482
v -0.207443 0.826772 0.248383
v -0.189603 0.551672 0.144487
v -0.193136 0.320075 0.075401
v -0.476702 0.326371 0.040056
v -0.474642 0.598667 0.075818
v -0.486199 0.852364 0.107048
v -0.486124 0.410379 -0.216087
v -0.482521 0.685398 -0.182087
v -0.480855 0.914856 -0.164605
v -0.086357 0.858131 -0.173435
v -0.137898 0.655443 -0.203074
v -0.191283 0.444550 -0.216635
vn -0.0776 0.5691 -0.8186
vn -0.0624 0.0938 -0.9936
vn 0.5532 -0.1752 -0.8144
vn -0.2584 -0.2709 0.9273
vn 0.9428 0.0229 0.3325
vn 0.6499 0.7349 0.1935
vn 0.0688 0.9195 -0.3871
vn 0.6359 -0.2539 0.7288
vn 0.0147 0.8773 0.4797
vn -0.1466 0.5707 -0.8079
vn -0.1271 -0.5141 0.8483
vn -0.4775 -0.8322 -0.2819
vn -0.1169 -0.2039 0.9720
vn 0.2998 -0.9155 0.2684
vn 0.9526 -0.2897 0.0929
vn 0.0550 -0.8216 0.5674
vn 0.1809 0.9529 0.2436
vn 0.0607 -0.7509 0.6576
vn -0.5872 0.2824 0.7586
vn 0.8878 -0.0056 -0.4603
vn -0.9149 0.0679 -0.3980
vn 0.6235 0.7316 0.2756
vn 0.6205 0.1316 0.7731
vn -0.1536 -0.5521 0.8195
vn -0.0396 0.6076 0.7932
vn -0.4335 -0.5964 0.6755
vn -0.4419 -0.4880 -0.7527
vn 0.8018 0.5469 -0.2409
vn -0.1347 -0.6416 0.7551
vn 0.5006 0.7840 -0.3670
vn 0.6074 0.0692 0.7914
vn 0.6748 0.4120 -0.6123
vn -0.4625 -0.2593 -0.8479
vn -0.3346 -0.5983 -0.7281
vn -0.6956 0.2170 -0.6849
vn -0.4818 0.0946 0.8712
vn 0.8473 0.1239 0.5165
vn 0.9759 0.0329 -0.2157
vn 0.4423 0.5323 0.7218
vn 0.1552 0.9870 0.0419
vn -0.2444 0.8812 0.4047
vn 0.4207 0.8802 0.2195
vn 0.0091 0.9766 0.2150
vn -0.9633 0.0645 0.2605
vn 0.3393 -0.3177 0.8854
vn -0.3038 0.4486 -0.8405
vn -0.6680 -0.5160 -0.5362
vn -0.9003 -0.3940 0.1852
vn 0.1296 0.0908 -0.9874
vn -0.9828 0.1815 -0.0346
vn 0.0305 0.8465 0.5316
vn 0.4948 0.7054 0.5075
vn -0.1971 0.8843 0.4233
vn 0.9935 -0.0910 0.0684
vn 0.6569 -0.0111 0.7539
vn -0.8738 0.1018 -0.4755
vn -0.4181 -0.6798 -0.6026
vn -0.7638 -0.5482 -0.3407
vn 0.8707 0.3646 0.3301
vn -0.5589 -0.6917 -0.4574
vn -0.1155 0.9852 0.1268
vn 0.7948 0.5474 0.2620
vn 0.6800 0.3251 0.6572
vn -0.5036 0.2637 -0.8227
vn 0.1940 0.1273 0.9727
vn -0.6221 -0.6187 0.4798
vn -0.2151 0.3899 0.8954
vn -0.6181 0.6553 0.4342
vn -0.4809 -0.7939 -0.3721
vn 0.3579 0.3021 0.8835
vn 0.6084 0.5239 0.5962
vn 0.3779 0.2600 0.8886
vn -0.4661 0.6807 -0.5652
vn -0.7912 0.4187 0.4457
vn 0.9465 -0.3227 -0.0024
vn 0.4875 0.7297 0.4794
vn 0.2260 0.4076 -0.8848
vn -0.1869 -0.2823 0.9410
vn 0.4633 0.8783 0.1181
vn 0.3427 0.9391 0.0261
vn -0.0685 0.5040 0.8610
vn -0.4201 -0.1212 0.8994
vn 0.0939 0.7652 -0.6369
vn -0.0718 -0.5580 0.8268
vn 0.0077 0.1369 -0.9905
vn 0.9642 -0.2426 -0.1070
vn -0.9966 -0.0627 -0.0526
vn -0.1834 0.1685 -0.9685
vn 0.1000 -0.5724 0.8138
vn -0.9944 -0.0748 0.0741
vn 0.9589 -0.2098 -0.1908
vn 0.0850 -0.9659 -0.2444
vn 0.1215 -0.5927 0.7962
vn -0.9700 -0.1442 0.1957
vn -0.9661 -0.2564 -0.0306
vn 0.9913 -0.1076 -0.0758
vn -0.0271 0.3448 -0.9383
vn -0.0461 -0.9972 -0.0590
vn -0.0219 -0.9640 0.2649
vn 0.1670 -0.1221 0.9784
vn 0.2050 -0.1096 -0.9726
vn 0.9612 -0.1040 0.2554
vn 0.6370 -0.0929 -0.7652
vn 0.5335 -0.4617 -0.7087
vn 0.5906 -0.4053 -0.6977
vn 0.6095 -0.3385 -0.7169
vn 0.9828 -0.0559 0.1761
vn 0.9640 -0.1921 0.1841
vn 0.9578 -0.1916 0.2143
vn 0.1007 -0.4627 -0.8808
vn 0.1834 -0.4452 -0.8764
vn 0.1845 -0.3702 -0.9105
vn 0.1634 0.3472 0.9235
vn 0.1904 0.1491 0.9703
vn 0.1956 0.0215 0.9805
vn -0.9521 -0.0824 0.2946
vn -0.9789 -0.0039 0.2045
vn -0.9791 -0.0878 0.1832
vn -0.1527 -0.2641 -0.9523
vn -0.0270 0.1116 -0.9934
vn -0.0342 0.1013 -0.9943
vn 0.8972 0.1914 0.3981
vn 0.9726 -0.1236 0.1967
vn 0.9904 -0.1340 0.0351
vn -0.9654 0.0632 -0.2528
vn -0.9998 -0.0204 -0.0010
vn -0.9994 0.0058 0.0356
vn -0.5964 0.1144 0.7945
vn -0.3661 -0.2494 0.8965
vn -0.1943 -0.1978 0.9608
vn 0.5522 -0.1613 0.8180
vn 0.3008 0.3730 -0.8777
vn -0.3202 -0.3973 -0.8600
vn -0.3357 -0.7670 -0.5469
vn -0.8740 -0.0601 -0.4822
vt 0.882279 0.260085
vt 0.436089 0.649131
vt 0.117664 0.305524
vt 0.860974 0.338762
vt 0.079561 0.383885
vt 0.278417 0.728674
vt 0.111517 0.716819
vt 0.301243 0.337859
vt 0.232943 0.387386
vt 0.111517 0.662267
vt 0.671871 0.687525
vt 0.175114 0.511099
vt 0.930991 0.712692
vt 0.796001 0.259488
vt 0.522181 0.649131
vt 0.719621 0.316178
vt 0.801110 0.310020
vt 0.698705 0.366293
vt 0.510656 0.337024
vt 0.023033 0.717149
vt 0.367094 0.730187
vt 0.507246 0.358198
vt 0.018976 0.695717
vt 0.103380 0.570561
vt 0.268725 0.266033
vt 0.143950 0.273348
vt 0.098384 0.631539
vt 0.301351 0.259488
vt 0.128079 0.559933
vt 0.480438 0.333338
vt 0.348619 0.714075
vt 0.604958 0.268707
vt 0.031105 0.562973
vt 0.043818 0.625810
vt 0.721993 0.282954
vt 0.329365 0.336360
vt 0.302724 0.713315
vt 0.030374 0.549675
vt 0.582817 0.260846
vt 0.875347 0.642471
vt 0.380514 0.272320
vt 0.124895 0.517524
vt 0.813390 0.578569
vt 0.436089 0.332372
vt 0.956124 0.588845
vt 0.367094 0.692599
vt 0.367094 0.522797
vt 0.871643 0.594841
vt 0.398138 0.324445
vt 0.043891 0.509019
vt 0.796001 0.641153
vt 0.491075 0.268473
vt 0.032114 0.534706
vt 0.552485 0.259488
vt 0.331566 0.259909
vt 0.129819 0.544964
vt 0.339759 0.337186
vt 0.913298 0.588845
vt 0.317584 0.707220
vt 0.845734 0.463378
vt 0.311567 0.646434
vt 0.944558 0.353645
vt 0.398138 0.462439
vt 0.920230 0.354337
vt 0.870057 0.463781
vt 0.929709 0.374247
vt 0.357807 0.478584
vt 0.347994 0.663056
vt 0.944558 0.373825
vt 0.097076 0.285727
vt 0.229765 0.651022
vt 0.758050 0.297859
vt 0.168317 0.651042
vt 0.119329 0.272208
vt 0.094178 0.643292
vt 0.222768 0.636959
vt 0.746872 0.283208
vt 0.174541 0.636975
vt 0.045175 0.638147
vt 0.080672 0.327471
vt 0.442544 0.673801
vt 0.734592 0.339187
vt 0.484453 0.673801
vt 0.070725 0.319456
vt 0.218298 0.685110
vt 0.751374 0.331694
vt 0.180611 0.684911
vt 0.062412 0.356092
vt 0.455575 0.702696
vt 0.724658 0.367821
vt 0.476314 0.702696
vt 0.043357 0.357400
vt 0.210236 0.723455
vt 0.742364 0.370210
vt 0.189444 0.723462
vt 0.050281 0.367705
vt 0.444942 0.715336
vt 0.810526 0.722486
vt 0.728448 0.380153
vt 0.853695 0.722486
vt 0.487920 0.715336
vt 0.018975 0.371756
vt 0.232852 0.738567
vt 0.796001 0.739289
vt 0.758050 0.386241
vt 0.861207 0.739289
vt 0.167770 0.738589
vt 0.100634 0.583041
vt 0.712300 0.698974
vt 0.802197 0.701507
vt 0.098640 0.600731
vt 0.972705 0.287497
vt 0.747907 0.696578
vt 0.052045 0.577939
vt 0.849895 0.701507
vt 0.710445 0.675017
vt 0.050052 0.595630
vt 0.746553 0.677603
vt 0.924885 0.287497
vt 0.797725 0.671259
vt 0.981025 0.313792
vt 0.715147 0.730011
vt 0.752543 0.724602
vt 0.973919 0.259495
vt 0.967002 0.332143
vt 0.934252 0.306472
vt 0.715328 0.644023
vt 0.847669 0.671259
vt 0.923848 0.259495
vt 0.753088 0.649631
vt 0.920230 0.324823
vt 0.068284 0.665533
vt 0.630362 0.705721
vt 0.712055 0.621316
vt 0.966165 0.712391
vt 0.519769 0.388732
vt 0.031375 0.663704
vt 0.592215 0.695479
vt 0.581836 0.620019
vt 0.750017 0.621843
vt 0.569690 0.667298
vt 0.581066 0.387596
vt 0.531739 0.516092
vt 0.642835 0.625048
vt 0.273616 0.509019
vt 0.070982 0.710642
vt 0.316851 0.732164
vt 0.684917 0.393810
vt 0.816625 0.338063
vt 0.644803 0.392946
vt 0.602800 0.367236
vt 0.671871 0.661666
vt 0.181146 0.386242
vt 0.855113 0.259897
vt 0.463196 0.649131
vt 0.077903 0.567886
vt 0.078993 0.554271
vt 0.322237 0.720993
vt 0.070972 0.628379
vt 0.834014 0.651825
vt 0.084160 0.512738
vt 0.838315 0.596273
vt 0.320679 0.509019
vt 0.080733 0.539302
vt 0.857365 0.464048
vt 0.931678 0.351118
vt 0.335174 0.488977
vt 0.367094 0.673623
vt 0.939667 0.384854
vt 0.199177 0.651021
vt 0.069465 0.641494
vt 0.198664 0.632807
vt 0.464209 0.672968
vt 0.199604 0.684998
vt 0.465945 0.702696
vt 0.199840 0.723459
vt 0.466714 0.715004
vt 0.832520 0.720483
vt 0.200177 0.738589
vt 0.829423 0.735282
vt 0.076340 0.580490
vt 0.826046 0.701507
vt 0.074346 0.598181
vt 0.948795 0.287497
vt 0.823088 0.670800
vt 0.959731 0.307426
vt 0.948976 0.259488
vt 0.941524 0.331189
vt 0.875347 0.491894
vt 0.391834 0.432095
vt 0.377694 0.448634
vt 0.915590 0.478791
vt 0.834644 0.488373
vt 0.326937 0.619279
vt 0.938593 0.478810
vt 0.335216 0.632947
vt 0.358601 0.463790
vt 0.348787 0.648138
vt 0.927106 0.463378
vt 0.854274 0.489560
vt 0.315804 0.619182
vt 0.212520 0.321385
vt 0.644070 0.318501
vt 0.018976 0.592450
vt 0.663817 0.276029
vt 0.129819 0.597828
vt 0.224108 0.269832
vt 0.051049 0.586785
vt 0.728499 0.676310
vt 0.099637 0.591886
vt 0.730103 0.697776
vt 0.734390 0.646904
vt 0.920230 0.314550
vt 0.981025 0.324065
vt 0.732426 0.727384
vt 0.950683 0.319044
vt 0.753088 0.663662
vt 0.920230 0.273492
vt 0.977552 0.273492
vt 0.752543 0.710647
vt 0.709822 0.714522
vt 0.796001 0.686127
vt 0.853178 0.686127
vt 0.709822 0.659561
vt 0.824792 0.685890
vt 0.948939 0.273488
vt 0.731549 0.661651
vt 0.730449 0.712624
vt 0.878850 0.297575
vt 0.096711 0.342677
vt 0.285581 0.357771
vt 0.108549 0.696221
vt 0.804979 0.293594
vt 0.708839 0.350023
vt 0.668288 0.644023
vt 0.436089 0.526409
vt 0.145034 0.385321
vt 0.919159 0.607821
vt 0.247387 0.613831
vt 0.970304 0.416607
vt 0.947808 0.608020
vt 0.704660 0.516092
vt 0.970304 0.403829
vt 0.750017 0.516884
vt 0.618892 0.516092
vt 0.920230 0.404231
vt 0.273616 0.612878
vt 0.642836 0.516847
vt 0.938584 0.415207
vt 0.924281 0.443436
vt 0.075400 0.489812
vt 0.855524 0.444402
vt 0.531739 0.629156
vt 0.934913 0.435583
vt 0.576828 0.496673
vt 0.931440 0.443424
vt 0.848383 0.444289
vt 0.592622 0.497116
vt 0.934913 0.440184
vt 0.586164 0.496977
vt 0.517161 0.630156
vt 0.920230 0.438606
vt 0.085942 0.490043
vt 0.585376 0.420489
vt 0.510472 0.551446
vt 0.582586 0.444044
vt 0.504260 0.576063
vt 0.581388 0.469636
vt 0.508131 0.602400
vt 0.103684 0.463024
vt 0.477645 0.604263
vt 0.118194 0.440373
vt 0.454885 0.581958
vt 0.129418 0.415411
vt 0.438452 0.557360
vt 0.876897 0.417052
vt 0.081901 0.462161
vt 0.882279 0.393921
vt 0.081653 0.438865
vt 0.880271 0.363315
vt 0.079604 0.408162
vt 0.633117 0.418943
vt 0.615530 0.444447
vt 0.600997 0.469910
vt 0.614559 0.469949
vt 0.862035 0.416811
vt 0.638313 0.444473
vt 0.857648 0.390640
vt 0.666106 0.417503
vt 0.844696 0.362700
vt 0.167770 0.536691
vt 0.914144 0.688660
vt 0.182151 0.561697
vt 0.913298 0.663084
vt 0.189855 0.582503
vt 0.915415 0.641729
vt 0.680787 0.549268
vt 0.966165 0.641681
vt 0.684678 0.573659
vt 0.963812 0.665813
vt 0.684995 0.596421
vt 0.964308 0.688427
vt 0.584794 0.548886
vt 0.729850 0.550060
vt 0.578610 0.572959
vt 0.734888 0.574452
vt 0.569690 0.595426
vt 0.736445 0.597214
vt 0.642060 0.590920
vt 0.247172 0.543053
vt 0.641052 0.570535
vt 0.248998 0.562413
vt 0.635978 0.552556
vt 0.245738 0.579271
s 0
usemtl Material
f 89/203/1 7/19/1 13/32/1 90/205/1
f 8/22/2 7/19/2 89/203/2 58/151/2 54/142/2 53/136/2
f 6/18/3 56/148/3 57/150/3
f 3/8/4 106/231/4 4/9/4 59/153/4 88/202/4
f 6/17/5 107/233/5 5/14/5 60/154/5 1/1/5 105/229/5 2/4/5 56/149/5
f 61/156/6 13/33/6 16/38/6 62/157/6
f 5/16/7 14/35/7 31/77/7 29/72/7
f 88/202/8 1/3/8 10/26/8 91/207/8
f 67/164/9 21/53/9 20/50/9 65/161/9
f 13/32/10 7/19/10 12/30/10 16/39/10
f 3/8/11 9/25/11 11/28/11 15/36/11
f 55/147/12 3/6/12 15/37/12 63/158/12
f 66/162/13 19/48/13 17/40/13 65/160/13
f 23/57/14 22/55/14 17/41/14 19/49/14
f 83/191/15 82/190/15 25/63/15 26/67/15
f 15/36/16 11/28/16 22/55/16 23/57/16
f 62/157/17 16/38/17 21/53/17 67/164/17
f 69/169/18 26/66/18 25/64/18 68/166/18
f 87/200/19 84/193/19 24/60/19 68/165/19
f 86/197/20 83/191/20 26/67/20 69/167/20
f 84/194/21 85/196/21 27/68/21 24/61/21
f 70/170/22 29/73/22 31/78/22 71/172/22
f 70/170/23 28/71/23 34/85/23 73/174/23
f 10/26/24 1/3/24 28/70/24 30/74/24
f 64/159/25 10/27/25 30/75/25 71/171/25
f 34/84/26 32/80/26 36/88/26 38/92/26
f 60/155/27 5/15/27 33/83/27 72/173/27
f 5/16/28 29/72/28 35/86/28 33/82/28
f 28/70/29 1/3/29 32/80/29 34/84/29
f 37/90/30 39/94/30 43/105/30 41/99/30
f 73/174/31 34/85/31 38/93/31 75/176/31
f 33/82/32 35/86/32 39/94/32 37/90/32
f 72/173/33 33/83/33 37/91/33 74/175/33
f 76/178/34 41/100/34 43/106/34 77/180/34
f 74/175/35 37/91/35 41/101/35 76/177/35
f 38/92/36 36/88/36 40/96/36 42/102/36
f 75/176/37 38/93/37 42/103/37 77/179/37
f 102/226/38 97/218/38 51/129/38 81/187/38
f 91/206/39 10/27/39 45/111/39 93/210/39
f 90/204/40 13/33/40 46/114/40 92/208/40
f 61/156/41 9/24/41 44/108/41 78/181/41
f 64/159/42 14/34/42 47/117/42 79/183/42
f 96/216/43 94/213/43 50/126/43 80/186/43
f 101/225/44 99/222/44 48/120/44 80/185/44
f 104/228/45 98/220/45 49/123/45 95/215/45
f 103/227/46 100/224/46 50/127/46 94/212/46
f 8/23/47 53/137/47 52/132/47
f 8/23/48 52/132/48 4/10/48 106/232/48 3/7/48 55/146/48 7/20/48
f 54/142/49 58/151/49 89/203/49 5/16/49 107/234/49 6/18/49 57/150/49
f 100/223/50 101/225/50 80/185/50 50/128/50
f 95/214/51 96/216/51 80/186/51 48/121/51
f 10/27/52 64/159/52 79/183/52 45/111/52
f 13/33/53 61/156/53 78/181/53 46/114/53
f 98/219/54 102/226/54 81/187/54 49/124/54
f 39/95/55 75/176/55 77/179/55 43/107/55
f 36/89/56 74/175/56 76/177/56 40/97/56
f 40/98/57 76/178/57 77/180/57 42/104/57
f 32/81/58 72/173/58 74/175/58 36/89/58
f 35/87/59 73/174/59 75/176/59 39/95/59
f 1/2/60 60/155/60 72/173/60 32/81/60
f 14/34/61 64/159/61 71/171/61 31/79/61
f 29/73/62 70/170/62 73/174/62 35/87/62
f 28/71/63 70/170/63 71/172/63 30/76/63
f 85/196/64 86/198/64 69/168/64 27/68/64
f 82/189/65 87/200/65 68/165/65 25/65/65
f 27/69/66 69/169/66 68/166/66 24/62/66
f 11/29/67 62/157/67 67/164/67 22/56/67
f 18/43/68 66/162/68 65/160/68 20/51/68
f 7/21/69 55/147/69 63/158/69 12/31/69
f 22/56/70 67/164/70 65/161/70 17/42/70
f 9/24/71 61/156/71 62/157/71 11/29/71
f 19/48/72 66/162/72 87/200/72 82/189/72
f 12/30/73 18/44/73 20/52/73 21/54/73 16/39/73
f 66/163/74 18/47/74 84/194/74 87/201/74
f 23/57/75 19/49/75 82/190/75 83/191/75
f 49/125/76 81/188/76 96/216/76 95/214/76
f 97/217/77 103/227/77 94/212/77 51/130/77
f 99/221/78 104/228/78 95/215/78 48/122/78
f 81/188/79 51/131/79 94/213/79 96/216/79
f 14/34/80 90/204/80 92/208/80 47/117/80
f 9/24/81 91/206/81 93/210/81 44/108/81
f 3/8/82 88/202/82 91/207/82 9/25/82
f 5/16/83 89/203/83 90/205/83 14/35/83
f 44/109/84 93/211/84 104/228/84 99/221/84
f 47/118/85 92/209/85 103/227/85 97/217/85
f 45/112/86 79/184/86 102/226/86 98/219/86
f 46/115/87 78/182/87 101/225/87 100/223/87
f 92/209/88 46/116/88 100/224/88 103/227/88
f 93/211/89 45/113/89 98/220/89 104/228/89
f 78/182/90 44/110/90 99/222/90 101/225/90
f 79/184/91 47/119/91 97/218/91 102/226/91
f 59/152/92 4/11/92 52/133/92 53/138/92 54/141/92 108/235/92
f 136/298/93 110/241/93 109/238/93 135/296/93
f 121/271/94 120/269/94 114/253/94 117/261/94
f 139/304/95 111/244/95 110/242/95 136/297/95
f 135/295/96 109/239/96 112/247/96 144/314/96
f 144/313/97 112/248/97 111/245/97 139/303/97
f 111/246/98 112/249/98 109/240/98 110/243/98
f 117/262/99 114/254/99 116/259/99 115/256/99 113/250/99
f 124/277/100 121/270/100 117/263/100 113/251/100
f 120/268/101 129/284/101 116/260/101 114/255/101
f 130/286/102 124/276/102 113/252/102 115/257/102
f 129/284/103 130/285/103 115/258/103 116/260/103
f 57/150/104 56/148/104 132/289/104 127/282/104
f 127/282/105 132/289/105 131/287/105 128/283/105
f 128/283/106 131/287/106 130/285/106 129/284/106
f 56/149/107 2/4/107 126/280/107 132/290/107
f 132/290/108 126/280/108 125/278/108 131/288/108
f 131/288/109 125/278/109 124/276/109 130/286/109
f 54/142/110 57/150/110 127/282/110 118/264/110
f 118/264/111 127/282/111 128/283/111 119/266/111
f 119/266/112 128/283/112 129/284/112 120/268/112
f 2/5/113 108/237/113 123/274/113 126/281/113
f 126/281/114 123/274/114 122/272/114 125/279/114
f 125/279/115 122/272/115 121/270/115 124/277/115
f 108/236/116 54/143/116 118/265/116 123/275/116
f 123/275/117 118/265/117 119/267/117 122/273/117
f 122/273/118 119/267/118 120/269/118 121/271/118
f 54/144/119 142/309/119 141/307/119 53/139/119
f 142/309/120 143/311/120 140/305/120 141/307/120
f 143/311/121 144/313/121 139/303/121 140/305/121
f 4/12/122 133/291/122 142/310/122 54/145/122
f 133/291/123 134/293/123 143/312/123 142/310/123
f 134/293/124 135/295/124 144/314/124 143/312/124
f 53/140/125 141/308/125 138/301/125 52/134/125
f 141/308/126 140/306/126 137/299/126 138/301/126
f 140/306/127 139/304/127 136/297/127 137/299/127
f 52/135/128 138/302/128 133/292/128 4/13/128
f 138/302/129 137/300/129 134/294/129 133/292/129
f 137/300/130 136/298/130 135/296/130 134/294/130
f 105/230/131 1/3/131 88/202/131 59/153/131 108/237/131 2/5/131
f 86/199/132 85/195/132 83/192/132
f 83/192/133 85/195/133 18/45/133 23/58/133
f 63/158/134 15/37/134 23/59/134 18/46/134 12/31/134
f 84/194/135 18/47/135 85/196/135
l 52 106
