# Blender 3.3.1
# www.blender.org
mtllib monstruo_3_grande_caminar575.mtl
o monstruo_grande
v 0.442123 2.007407 0.245942
v 0.527113 1.137504 0.041933
v -0.668932 1.820622 0.095247
v -0.289066 1.212364 0.221785
v 0.730962 2.264729 -0.026120
v 0.596097 1.613626 -0.227134
v -0.733005 2.004191 -0.361645
v -0.678503 1.684761 -0.383043
v -0.274856 2.439009 0.364830
v 0.270542 2.307257 0.409400
v -0.421119 2.421962 0.453859
v -1.096962 2.091594 -0.262202
v -0.221532 2.580490 0.001500
v 0.317095 2.428883 0.140607
v -0.979570 1.962096 -0.069699
v -0.378152 2.663707 0.002348
v -0.788278 2.367167 0.429526
v -1.426774 2.053784 -0.046163
v -1.183349 2.093012 0.199915
v -0.907326 2.670340 0.118003
v -0.561464 2.718179 0.044864
v -0.502774 2.382390 0.425918
v -1.108925 1.989707 -0.095393
v -1.903221 0.840376 0.614954
v -1.786339 0.815145 0.678768
v -1.750676 0.633418 0.485515
v -1.822018 0.648819 0.446565
v 0.391769 2.210223 0.413152
v 0.583760 2.387489 0.205871
v 0.376975 2.329481 0.418395
v 0.444047 2.445319 0.196999
v 0.643650 1.919830 0.336609
v 0.850536 1.925440 0.269195
v 0.670613 1.974284 0.385633
v 0.813951 2.066397 0.285297
v 0.708001 1.707557 0.536665
v 0.819893 1.695763 0.512136
v 0.736155 1.732252 0.635929
v 0.847286 1.724679 0.606637
v 0.668330 1.613917 0.655826
v 0.898925 1.598218 0.598042
v 0.658745 1.641595 0.850727
v 1.006743 1.615230 0.758636
v -0.112647 2.481019 0.403467
v 0.095488 2.447926 0.408577
v -0.084231 2.566285 0.151622
v 0.117501 2.530077 0.160220
v -0.058268 2.796840 0.540395
v 0.147566 2.725748 0.518262
v -0.051338 2.898034 0.281398
v 0.153775 2.827228 0.258473
v -0.499775 1.179049 0.029911
v -0.395684 1.147519 -0.186301
v -0.035973 1.259823 -0.337694
v -0.704128 1.844168 -0.137158
v 0.540793 1.247040 -0.165670
v 0.321261 1.292209 -0.278071
v 0.040986 1.509047 -0.341851
v -0.022412 1.123201 0.185482
v 0.548767 2.079111 0.155558
v -0.249726 2.488972 0.237839
v -0.406666 2.659366 0.275219
v -0.897157 2.013433 -0.181298
v 0.272497 2.428589 0.297981
v -0.790120 2.590328 0.365675
v -1.354673 2.207421 0.205725
v -0.559157 2.652967 0.252765
v -1.860392 0.827939 0.675527
v -1.759676 0.522548 0.370309
v 0.509176 2.310883 0.352116
v 0.413048 2.434421 0.327795
v 0.727639 1.890658 0.260629
v 0.766007 2.029927 0.384213
v 0.763647 1.703074 0.522359
v 0.791742 1.728040 0.621219
v 0.777558 1.595903 0.605448
v 0.820808 1.609840 0.764895
v -0.100577 2.522430 0.275841
v 0.104068 2.490605 0.283234
v -0.086076 2.849530 0.411093
v 0.182080 2.774714 0.388767
v -1.638970 1.132086 0.633865
v -1.696939 0.959247 0.563540
v -1.842609 1.146207 0.525633
v -1.806953 0.982994 0.503476
v -1.750119 0.802551 0.463513
v -1.771324 1.122417 0.628821
v -0.051822 1.808471 0.462255
v 0.209661 2.127489 -0.251874
v 0.137517 2.521271 -0.017158
v 0.006681 2.320596 0.544525
v 0.011628 2.547272 0.153757
v -0.003058 2.462587 0.405106
v 0.052127 2.877483 0.230527
v 0.043570 2.746110 0.568071
v 0.051548 2.863485 0.420394
v 0.148517 2.688737 0.183982
v 0.136601 2.576755 0.480139
v -0.099655 2.632172 0.495025
v -0.089776 2.745356 0.195764
v -0.111883 2.690318 0.345806
v 0.157451 2.632660 0.331792
v 0.029037 2.724460 0.168855
v 0.018988 2.595494 0.507960
v 0.524291 1.638358 0.076439
v -0.582169 1.541518 0.147643
v 0.647132 1.823141 -0.197450
v 0.173980 1.067625 0.156710
v -0.211942 0.049809 0.192132
v -0.356672 0.063441 0.313730
v -0.381439 0.054708 0.062939
v -0.246350 0.046226 0.049134
v 0.364428 -0.003573 -0.344022
v 0.289187 -0.002200 -0.418555
v 0.372798 -0.001684 -0.382665
v 0.340619 -0.001999 -0.408321
v 0.305738 -0.005130 -0.332525
v 0.086834 0.911865 -0.265298
v 0.165006 0.616565 -0.293626
v 0.224068 0.316803 -0.337659
v 0.260590 0.251767 -0.171688
v 0.228072 0.470402 -0.037512
v 0.217942 0.728041 0.068477
v 0.382297 0.265816 -0.194814
v 0.433300 0.498712 -0.076001
v 0.499940 0.826441 0.024197
v 0.341157 0.947229 -0.244871
v 0.345008 0.612490 -0.265218
v 0.331142 0.313911 -0.318913
v 0.398688 0.297671 -0.269248
v 0.459520 0.587031 -0.184865
v 0.514494 0.923551 -0.142029
v -0.161238 0.978299 0.377651
v -0.143595 0.678952 0.381603
v -0.144353 0.432984 0.401274
v -0.429853 0.425262 0.398039
v -0.435927 0.697124 0.332639
v -0.454745 0.946366 0.272339
v -0.468581 0.418253 0.128634
v -0.473523 0.686379 0.064436
v -0.482246 0.897242 0.000120
v -0.087928 0.844689 -0.036741
v -0.131821 0.652199 0.017861
v -0.177041 0.450892 0.083920
vn 0.0348 0.5129 -0.8578
vn 0.0200 -0.0298 -0.9994
vn 0.4108 -0.2107 -0.8870
vn -0.3426 -0.1906 0.9200
vn 0.9260 -0.1662 0.3389
vn 0.6301 0.7473 0.2109
vn 0.2369 0.8814 -0.4088
vn 0.4521 -0.2001 0.8692
vn -0.0772 0.9439 0.3211
vn -0.0087 0.4868 -0.8735
vn -0.2579 -0.4143 0.8729
vn -0.4320 -0.8671 -0.2480
vn -0.3613 -0.0250 0.9321
vn 0.1986 -0.8492 0.4893
vn 0.8979 -0.2976 0.3244
vn -0.1435 -0.6824 0.7167
vn 0.1489 0.9775 0.1495
vn -0.1111 -0.7258 0.6789
vn -0.7432 0.3186 0.5884
vn 0.9707 -0.0342 -0.2380
vn -0.7939 0.0633 -0.6047
vn 0.5116 0.7439 0.4299
vn 0.1584 0.1728 0.9721
vn -0.4183 -0.4931 0.7628
vn -0.1889 0.6715 0.7165
vn -0.9447 0.0510 0.3239
vn -0.0109 -0.6083 -0.7936
vn 0.8564 0.5075 0.0950
vn -0.4820 -0.5890 0.6487
vn 0.7966 0.3584 -0.4868
vn -0.1405 0.6475 0.7490
vn 0.9990 0.0344 0.0301
vn 0.1115 -0.7653 -0.6339
vn 0.0287 -0.9962 0.0828
vn -0.0927 -0.6586 -0.7468
vn -0.8695 0.4928 -0.0329
vn 0.3628 0.7831 0.5052
vn 0.9885 -0.0366 -0.1467
vn 0.3174 0.5798 0.7504
vn 0.1678 0.9849 -0.0422
vn -0.2915 0.9131 0.2851
vn 0.3987 0.8929 0.2092
vn 0.0609 0.9783 0.1981
vn -0.9717 0.1355 0.1936
vn 0.2601 -0.3286 0.9080
vn -0.2160 0.4588 -0.8619
vn -0.7924 -0.5286 -0.3044
vn -0.9337 -0.2873 0.2139
vn 0.2233 0.1111 -0.9684
vn -0.9631 0.2486 -0.1037
vn 0.0507 0.8527 0.5199
vn 0.4126 0.7401 0.5310
vn -0.2650 0.9130 0.3101
vn 0.9776 -0.1631 0.1332
vn 0.0443 0.8050 0.5916
vn -0.3546 -0.6405 -0.6811
vn -0.1170 -0.9850 0.1268
vn -0.4963 -0.7068 -0.5041
vn 0.5015 0.5927 0.6302
vn -0.2948 -0.7888 -0.5394
vn -0.0879 0.9960 0.0156
vn 0.5890 0.5806 0.5622
vn 0.4615 0.2771 0.8428
vn -0.2908 0.2382 -0.9267
vn -0.0371 0.1621 0.9861
vn -0.7302 -0.5922 0.3409
vn -0.2767 0.5316 0.8006
vn -0.6945 0.7015 0.1598
vn -0.4212 -0.8407 -0.3403
vn 0.1336 0.4416 0.8872
vn 0.5451 0.5744 0.6107
vn 0.1196 0.3398 0.9329
vn -0.3074 0.5725 -0.7601
vn -0.8706 0.4560 0.1848
vn 0.9047 -0.3194 0.2819
vn 0.5020 0.7055 0.5003
vn 0.3159 0.3761 -0.8710
vn -0.2716 -0.2538 0.9284
vn 0.5108 0.8495 0.1322
vn 0.3612 0.9325 -0.0055
vn -0.1685 0.5772 0.7990
vn -0.5247 -0.0543 0.8495
vn 0.2997 0.7153 -0.6313
vn -0.1828 -0.5398 0.8217
vn 0.1176 0.0974 -0.9883
vn 0.9461 -0.3235 -0.0148
vn -0.9902 -0.0022 -0.1396
vn -0.0825 0.1661 -0.9826
vn 0.0078 -0.5558 0.8313
vn -1.0000 0.0042 0.0021
vn 0.9647 -0.2531 -0.0733
vn -0.0587 -0.9947 -0.0840
vn 0.2436 -0.3539 0.9030
vn -0.9607 -0.2415 0.1372
vn -0.9631 -0.2387 0.1248
vn 0.9812 -0.1250 -0.1469
vn -0.1418 0.1251 -0.9820
vn -0.0594 -0.9974 0.0401
vn 0.0194 -0.9992 -0.0350
vn 0.2050 -0.4889 0.8479
vn 0.1775 0.2744 -0.9451
vn 0.9740 -0.1524 0.1678
vn 0.6095 0.2335 -0.7576
vn 0.4682 -0.0793 -0.8800
vn 0.5411 0.0379 -0.8401
vn 0.5943 0.1115 -0.7964
vn 0.9961 -0.0837 0.0290
vn 0.9826 -0.1845 0.0213
vn 0.9693 -0.2352 0.0711
vn 0.1420 -0.1205 -0.9825
vn 0.1049 0.0902 -0.9904
vn 0.1637 0.1711 -0.9716
vn 0.2769 -0.1475 0.9495
vn 0.2433 -0.3431 0.9072
vn 0.2222 -0.4835 0.8467
vn -0.9320 -0.2325 0.2783
vn -0.9582 -0.2022 0.2023
vn -0.9694 -0.2132 0.1220
vn -0.1582 -0.5618 -0.8120
vn -0.1397 -0.2688 -0.9530
vn -0.1386 -0.2537 -0.9573
vn 0.9114 0.3026 0.2787
vn 0.9924 -0.0391 0.1166
vn 0.9938 -0.1077 -0.0291
vn -0.9880 -0.0459 -0.1474
vn -0.9921 -0.0262 0.1224
vn -0.9900 0.0134 0.1401
vn -0.4959 0.4500 0.7426
vn -0.2556 0.0957 0.9620
vn -0.0859 0.1607 0.9833
vn 0.4071 -0.2178 0.8871
vn 0.5062 0.3354 -0.7945
vn -0.0745 -0.4712 -0.8789
vn -0.1807 -0.8384 -0.5143
vn -0.7473 -0.0736 -0.6603
vt 0.882279 0.260085
vt 0.436089 0.649131
vt 0.117664 0.305524
vt 0.860974 0.338762
vt 0.079561 0.383885
vt 0.278417 0.728674
vt 0.111517 0.716819
vt 0.301243 0.337859
vt 0.232943 0.387386
vt 0.111517 0.662267
vt 0.671871 0.687525
vt 0.175114 0.511099
vt 0.930991 0.712692
vt 0.796001 0.259488
vt 0.522181 0.649131
vt 0.719621 0.316178
vt 0.801110 0.310020
vt 0.698705 0.366293
vt 0.510656 0.337024
vt 0.023033 0.717149
vt 0.367094 0.730187
vt 0.507246 0.358198
vt 0.018976 0.695717
vt 0.103380 0.570561
vt 0.268725 0.266033
vt 0.143950 0.273348
vt 0.098384 0.631539
vt 0.301351 0.259488
vt 0.128079 0.559933
vt 0.480438 0.333338
vt 0.348619 0.714075
vt 0.604958 0.268707
vt 0.031105 0.562973
vt 0.043818 0.625810
vt 0.721993 0.282954
vt 0.329365 0.336360
vt 0.302724 0.713315
vt 0.030374 0.549675
vt 0.582817 0.260846
vt 0.875347 0.642471
vt 0.380514 0.272320
vt 0.124895 0.517524
vt 0.813390 0.578569
vt 0.436089 0.332372
vt 0.956124 0.588845
vt 0.367094 0.692599
vt 0.367094 0.522797
vt 0.871643 0.594841
vt 0.398138 0.324445
vt 0.043891 0.509019
vt 0.796001 0.641153
vt 0.491075 0.268473
vt 0.032114 0.534706
vt 0.552485 0.259488
vt 0.331566 0.259909
vt 0.129819 0.544964
vt 0.339759 0.337186
vt 0.913298 0.588845
vt 0.317584 0.707220
vt 0.845734 0.463378
vt 0.311567 0.646434
vt 0.944558 0.353645
vt 0.398138 0.462439
vt 0.920230 0.354337
vt 0.870057 0.463781
vt 0.929709 0.374247
vt 0.357807 0.478584
vt 0.347994 0.663056
vt 0.944558 0.373825
vt 0.097076 0.285727
vt 0.229765 0.651022
vt 0.758050 0.297859
vt 0.168317 0.651042
vt 0.119329 0.272208
vt 0.094178 0.643292
vt 0.222768 0.636959
vt 0.746872 0.283208
vt 0.174541 0.636975
vt 0.045175 0.638147
vt 0.080672 0.327471
vt 0.442544 0.673801
vt 0.734592 0.339187
vt 0.484453 0.673801
vt 0.070725 0.319456
vt 0.218298 0.685110
vt 0.751374 0.331694
vt 0.180611 0.684911
vt 0.062412 0.356092
vt 0.455575 0.702696
vt 0.724658 0.367821
vt 0.476314 0.702696
vt 0.043357 0.357400
vt 0.210236 0.723455
vt 0.742364 0.370210
vt 0.189444 0.723462
vt 0.050281 0.367705
vt 0.444942 0.715336
vt 0.810526 0.722486
vt 0.728448 0.380153
vt 0.853695 0.722486
vt 0.487920 0.715336
vt 0.018975 0.371756
vt 0.232852 0.738567
vt 0.796001 0.739289
vt 0.758050 0.386241
vt 0.861207 0.739289
vt 0.167770 0.738589
vt 0.100634 0.583041
vt 0.712300 0.698974
vt 0.802197 0.701507
vt 0.098640 0.600731
vt 0.972705 0.287497
vt 0.747907 0.696578
vt 0.052045 0.577939
vt 0.849895 0.701507
vt 0.710445 0.675017
vt 0.050052 0.595630
vt 0.746553 0.677603
vt 0.924885 0.287497
vt 0.797725 0.671259
vt 0.981025 0.313792
vt 0.715147 0.730011
vt 0.752543 0.724602
vt 0.973919 0.259495
vt 0.967002 0.332143
vt 0.934252 0.306472
vt 0.715328 0.644023
vt 0.847669 0.671259
vt 0.923848 0.259495
vt 0.753088 0.649631
vt 0.920230 0.324823
vt 0.068284 0.665533
vt 0.630362 0.705721
vt 0.712055 0.621316
vt 0.966165 0.712391
vt 0.519769 0.388732
vt 0.031375 0.663704
vt 0.592215 0.695479
vt 0.581836 0.620019
vt 0.750017 0.621843
vt 0.569690 0.667298
vt 0.581066 0.387596
vt 0.531739 0.516092
vt 0.642835 0.625048
vt 0.273616 0.509019
vt 0.070982 0.710642
vt 0.316851 0.732164
vt 0.684917 0.393810
vt 0.816625 0.338063
vt 0.644803 0.392946
vt 0.602800 0.367236
vt 0.671871 0.661666
vt 0.181146 0.386242
vt 0.855113 0.259897
vt 0.463196 0.649131
vt 0.077903 0.567886
vt 0.078993 0.554271
vt 0.322237 0.720993
vt 0.070972 0.628379
vt 0.834014 0.651825
vt 0.084160 0.512738
vt 0.838315 0.596273
vt 0.320679 0.509019
vt 0.080733 0.539302
vt 0.857365 0.464048
vt 0.931678 0.351118
vt 0.335174 0.488977
vt 0.367094 0.673623
vt 0.939667 0.384854
vt 0.199177 0.651021
vt 0.069465 0.641494
vt 0.198664 0.632807
vt 0.464209 0.672968
vt 0.199604 0.684998
vt 0.465945 0.702696
vt 0.199840 0.723459
vt 0.466714 0.715004
vt 0.832520 0.720483
vt 0.200177 0.738589
vt 0.829423 0.735282
vt 0.076340 0.580490
vt 0.826046 0.701507
vt 0.074346 0.598181
vt 0.948795 0.287497
vt 0.823088 0.670800
vt 0.959731 0.307426
vt 0.948976 0.259488
vt 0.941524 0.331189
vt 0.875347 0.491894
vt 0.391834 0.432095
vt 0.377694 0.448634
vt 0.915590 0.478791
vt 0.834644 0.488373
vt 0.326937 0.619279
vt 0.938593 0.478810
vt 0.335216 0.632947
vt 0.358601 0.463790
vt 0.348787 0.648138
vt 0.927106 0.463378
vt 0.854274 0.489560
vt 0.315804 0.619182
vt 0.212520 0.321385
vt 0.644070 0.318501
vt 0.018976 0.592450
vt 0.663817 0.276029
vt 0.129819 0.597828
vt 0.224108 0.269832
vt 0.051049 0.586785
vt 0.728499 0.676310
vt 0.099637 0.591886
vt 0.730103 0.697776
vt 0.734390 0.646904
vt 0.920230 0.314550
vt 0.981025 0.324065
vt 0.732426 0.727384
vt 0.950683 0.319044
vt 0.753088 0.663662
vt 0.920230 0.273492
vt 0.977552 0.273492
vt 0.752543 0.710647
vt 0.709822 0.714522
vt 0.796001 0.686127
vt 0.853178 0.686127
vt 0.709822 0.659561
vt 0.824792 0.685890
vt 0.948939 0.273488
vt 0.731549 0.661651
vt 0.730449 0.712624
vt 0.878850 0.297575
vt 0.096711 0.342677
vt 0.285581 0.357771
vt 0.108549 0.696221
vt 0.804979 0.293594
vt 0.708839 0.350023
vt 0.668288 0.644023
vt 0.436089 0.526409
vt 0.145034 0.385321
vt 0.919159 0.607821
vt 0.247387 0.613831
vt 0.970304 0.416607
vt 0.947808 0.608020
vt 0.704660 0.516092
vt 0.970304 0.403829
vt 0.750017 0.516884
vt 0.618892 0.516092
vt 0.920230 0.404231
vt 0.273616 0.612878
vt 0.642836 0.516847
vt 0.938584 0.415207
vt 0.924281 0.443436
vt 0.075400 0.489812
vt 0.855524 0.444402
vt 0.531739 0.629156
vt 0.934913 0.435583
vt 0.576828 0.496673
vt 0.931440 0.443424
vt 0.848383 0.444289
vt 0.592622 0.497116
vt 0.934913 0.440184
vt 0.586164 0.496977
vt 0.517161 0.630156
vt 0.920230 0.438606
vt 0.085942 0.490043
vt 0.585376 0.420489
vt 0.510472 0.551446
vt 0.582586 0.444044
vt 0.504260 0.576063
vt 0.581388 0.469636
vt 0.508131 0.602400
vt 0.103684 0.463024
vt 0.477645 0.604263
vt 0.118194 0.440373
vt 0.454885 0.581958
vt 0.129418 0.415411
vt 0.438452 0.557360
vt 0.876897 0.417052
vt 0.081901 0.462161
vt 0.882279 0.393921
vt 0.081653 0.438865
vt 0.880271 0.363315
vt 0.079604 0.408162
vt 0.633117 0.418943
vt 0.615530 0.444447
vt 0.600997 0.469910
vt 0.614559 0.469949
vt 0.862035 0.416811
vt 0.638313 0.444473
vt 0.857648 0.390640
vt 0.666106 0.417503
vt 0.844696 0.362700
vt 0.167770 0.536691
vt 0.914144 0.688660
vt 0.182151 0.561697
vt 0.913298 0.663084
vt 0.189855 0.582503
vt 0.915415 0.641729
vt 0.680787 0.549268
vt 0.966165 0.641681
vt 0.684678 0.573659
vt 0.963812 0.665813
vt 0.684995 0.596421
vt 0.964308 0.688427
vt 0.584794 0.548886
vt 0.729850 0.550060
vt 0.578610 0.572959
vt 0.734888 0.574452
vt 0.569690 0.595426
vt 0.736445 0.597214
vt 0.642060 0.590920
vt 0.247172 0.543053
vt 0.641052 0.570535
vt 0.248998 0.562413
vt 0.635978 0.552556
vt 0.245738 0.579271
s 0
usemtl Material
f 89/203/1 7/19/1 13/32/1 90/205/1
f 8/22/2 7/19/2 89/203/2 58/151/2 54/142/2 53/136/2
f 6/18/3 56/148/3 57/150/3
f 3/8/4 106/231/4 4/9/4 59/153/4 88/202/4
f 6/17/5 107/233/5 5/14/5 60/154/5 1/1/5 105/229/5 2/4/5 56/149/5
f 61/156/6 13/33/6 16/38/6 62/157/6
f 5/16/7 14/35/7 31/77/7 29/72/7
f 88/202/8 1/3/8 10/26/8 91/207/8
f 67/164/9 21/53/9 20/50/9 65/161/9
f 13/32/10 7/19/10 12/30/10 16/39/10
f 3/8/11 9/25/11 11/28/11 15/36/11
f 55/147/12 3/6/12 15/37/12 63/158/12
f 66/162/13 19/48/13 17/40/13 65/160/13
f 23/57/14 22/55/14 17/41/14 19/49/14
f 83/191/15 82/190/15 25/63/15 26/67/15
f 15/36/16 11/28/16 22/55/16 23/57/16
f 62/157/17 16/38/17 21/53/17 67/164/17
f 69/169/18 26/66/18 25/64/18 68/166/18
f 87/200/19 84/193/19 24/60/19 68/165/19
f 86/197/20 83/191/20 26/67/20 69/167/20
f 84/194/21 85/196/21 27/68/21 24/61/21
f 70/170/22 29/73/22 31/78/22 71/172/22
f 70/170/23 28/71/23 34/85/23 73/174/23
f 10/26/24 1/3/24 28/70/24 30/74/24
f 64/159/25 10/27/25 30/75/25 71/171/25
f 34/84/26 32/80/26 36/88/26 38/92/26
f 60/155/27 5/15/27 33/83/27 72/173/27
f 5/16/28 29/72/28 35/86/28 33/82/28
f 28/70/29 1/3/29 32/80/29 34/84/29
f 37/90/30 39/94/30 43/105/30 41/99/30
f 73/174/31 34/85/31 38/93/31 75/176/31
f 33/82/32 35/86/32 39/94/32 37/90/32
f 72/173/33 33/83/33 37/91/33 74/175/33
f 76/178/34 41/100/34 43/106/34 77/180/34
f 74/175/35 37/91/35 41/101/35 76/177/35
f 38/92/36 36/88/36 40/96/36 42/102/36
f 75/176/37 38/93/37 42/103/37 77/179/37
f 102/226/38 97/218/38 51/129/38 81/187/38
f 91/206/39 10/27/39 45/111/39 93/210/39
f 90/204/40 13/33/40 46/114/40 92/208/40
f 61/156/41 9/24/41 44/108/41 78/181/41
f 64/159/42 14/34/42 47/117/42 79/183/42
f 96/216/43 94/213/43 50/126/43 80/186/43
f 101/225/44 99/222/44 48/120/44 80/185/44
f 104/228/45 98/220/45 49/123/45 95/215/45
f 103/227/46 100/224/46 50/127/46 94/212/46
f 8/23/47 53/137/47 52/132/47
f 8/23/48 52/132/48 4/10/48 106/232/48 3/7/48 55/146/48 7/20/48
f 54/142/49 58/151/49 89/203/49 5/16/49 107/234/49 6/18/49 57/150/49
f 100/223/50 101/225/50 80/185/50 50/128/50
f 95/214/51 96/216/51 80/186/51 48/121/51
f 10/27/52 64/159/52 79/183/52 45/111/52
f 13/33/53 61/156/53 78/181/53 46/114/53
f 98/219/54 102/226/54 81/187/54 49/124/54
f 39/95/55 75/176/55 77/179/55 43/107/55
f 36/89/56 74/175/56 76/177/56 40/97/56
f 40/98/57 76/178/57 77/180/57 42/104/57
f 32/81/58 72/173/58 74/175/58 36/89/58
f 35/87/59 73/174/59 75/176/59 39/95/59
f 1/2/60 60/155/60 72/173/60 32/81/60
f 14/34/61 64/159/61 71/171/61 31/79/61
f 29/73/62 70/170/62 73/174/62 35/87/62
f 28/71/63 70/170/63 71/172/63 30/76/63
f 85/196/64 86/198/64 69/168/64 27/68/64
f 82/189/65 87/200/65 68/165/65 25/65/65
f 27/69/66 69/169/66 68/166/66 24/62/66
f 11/29/67 62/157/67 67/164/67 22/56/67
f 18/43/68 66/162/68 65/160/68 20/51/68
f 7/21/69 55/147/69 63/158/69 12/31/69
f 22/56/70 67/164/70 65/161/70 17/42/70
f 9/24/71 61/156/71 62/157/71 11/29/71
f 19/48/72 66/162/72 87/200/72 82/189/72
f 12/30/73 18/44/73 20/52/73 21/54/73 16/39/73
f 66/163/74 18/47/74 84/194/74 87/201/74
f 23/57/75 19/49/75 82/190/75 83/191/75
f 49/125/76 81/188/76 96/216/76 95/214/76
f 97/217/77 103/227/77 94/212/77 51/130/77
f 99/221/78 104/228/78 95/215/78 48/122/78
f 81/188/79 51/131/79 94/213/79 96/216/79
f 14/34/80 90/204/80 92/208/80 47/117/80
f 9/24/81 91/206/81 93/210/81 44/108/81
f 3/8/82 88/202/82 91/207/82 9/25/82
f 5/16/83 89/203/83 90/205/83 14/35/83
f 44/109/84 93/211/84 104/228/84 99/221/84
f 47/118/85 92/209/85 103/227/85 97/217/85
f 45/112/86 79/184/86 102/226/86 98/219/86
f 46/115/87 78/182/87 101/225/87 100/223/87
f 92/209/88 46/116/88 100/224/88 103/227/88
f 93/211/89 45/113/89 98/220/89 104/228/89
f 78/182/90 44/110/90 99/222/90 101/225/90
f 79/184/91 47/119/91 97/218/91 102/226/91
f 59/152/92 4/11/92 52/133/92 53/138/92 54/141/92 108/235/92
f 136/298/93 110/241/93 109/238/93 135/296/93
f 121/271/94 120/269/94 114/253/94 117/261/94
f 139/304/95 111/244/95 110/242/95 136/297/95
f 135/295/96 109/239/96 112/247/96 144/314/96
f 144/313/97 112/248/97 111/245/97 139/303/97
f 111/246/98 112/249/98 109/240/98 110/243/98
f 117/262/99 114/254/99 116/259/99 115/256/99 113/250/99
f 124/277/100 121/270/100 117/263/100 113/251/100
f 120/268/101 129/284/101 116/260/101 114/255/101
f 130/286/102 124/276/102 113/252/102 115/257/102
f 129/284/103 130/285/103 115/258/103 116/260/103
f 57/150/104 56/148/104 132/289/104 127/282/104
f 127/282/105 132/289/105 131/287/105 128/283/105
f 128/283/106 131/287/106 130/285/106 129/284/106
f 56/149/107 2/4/107 126/280/107 132/290/107
f 132/290/108 126/280/108 125/278/108 131/288/108
f 131/288/109 125/278/109 124/276/109 130/286/109
f 54/142/110 57/150/110 127/282/110 118/264/110
f 118/264/111 127/282/111 128/283/111 119/266/111
f 119/266/112 128/283/112 129/284/112 120/268/112
f 2/5/113 108/237/113 123/274/113 126/281/113
f 126/281/114 123/274/114 122/272/114 125/279/114
f 125/279/115 122/272/115 121/270/115 124/277/115
f 108/236/116 54/143/116 118/265/116 123/275/116
f 123/275/117 118/265/117 119/267/117 122/273/117
f 122/273/118 119/267/118 120/269/118 121/271/118
f 54/144/119 142/309/119 141/307/119 53/139/119
f 142/309/120 143/311/120 140/305/120 141/307/120
f 143/311/121 144/313/121 139/303/121 140/305/121
f 4/12/122 133/291/122 142/310/122 54/145/122
f 133/291/123 134/293/123 143/312/123 142/310/123
f 134/293/124 135/295/124 144/314/124 143/312/124
f 53/140/125 141/308/125 138/301/125 52/134/125
f 141/308/126 140/306/126 137/299/126 138/301/126
f 140/306/127 139/304/127 136/297/127 137/299/127
f 52/135/128 138/302/128 133/292/128 4/13/128
f 138/302/129 137/300/129 134/294/129 133/292/129
f 137/300/130 136/298/130 135/296/130 134/294/130
f 105/230/131 1/3/131 88/202/131 59/153/131 108/237/131 2/5/131
f 86/199/132 85/195/132 83/192/132
f 83/192/133 85/195/133 18/45/133 23/58/133
f 63/158/134 15/37/134 23/59/134 18/46/134 12/31/134
f 84/194/135 18/47/135 85/196/135
l 52 106
