# Blender 3.3.1
# www.blender.org
mtllib monstruo_3_caminar511.mtl
o monstruo_grande
v 0.418854 2.001105 0.217113
v 0.517466 1.171070 0.114947
v -0.703772 1.801243 0.174127
v -0.312606 1.117901 0.199811
v 0.560081 2.284878 -0.134796
v 0.542202 1.593085 -0.229506
v -0.824333 2.042817 -0.229191
v -0.728562 1.750097 -0.302675
v -0.266859 2.402554 0.472294
v 0.284755 2.280912 0.420744
v -0.398655 2.371310 0.570736
v -1.199562 2.125274 -0.058325
v -0.259303 2.576594 0.118570
v 0.277352 2.425599 0.162720
v -1.052243 1.974552 0.077239
v -0.416355 2.656629 0.150183
v -0.751399 2.300920 0.595522
v -1.477695 2.053587 0.229984
v -1.187551 2.068250 0.411699
v -0.923379 2.646469 0.365475
v -0.592746 2.706705 0.234034
v -0.476640 2.325021 0.542275
v -1.181319 2.005255 0.091588
v -1.790529 0.783592 0.891762
v -1.662973 0.758251 0.929939
v -1.666086 0.581297 0.729138
v -1.743943 0.596766 0.705836
v 0.444176 2.193246 0.398257
v 0.531356 2.387838 0.135374
v 0.401151 2.307321 0.412700
v 0.409131 2.442872 0.186175
v 0.670960 1.873027 0.183357
v 0.770832 1.981945 0.005401
v 0.693068 1.955132 0.236443
v 0.764192 2.074069 0.081392
v 0.839273 1.664994 0.086663
v 0.913984 1.700626 0.007858
v 0.918566 1.608038 0.126398
v 0.991098 1.655887 0.049801
v 0.833868 1.509064 0.081349
v 0.988988 1.604857 -0.075163
v 0.931328 1.368462 0.179210
v 1.156398 1.511918 -0.063776
v -0.103026 2.442592 0.491236
v 0.106367 2.412499 0.472588
v -0.099500 2.549304 0.245773
v 0.099093 2.516274 0.230265
v -0.061476 2.759963 0.626701
v 0.146421 2.701431 0.591140
v -0.075789 2.865089 0.370066
v 0.132127 2.806610 0.334858
v -0.505085 1.164453 -0.025794
v -0.377165 1.207884 -0.228212
v -0.041838 1.274446 -0.335008
v -0.761541 1.852901 -0.040541
v 0.555282 1.173960 -0.121204
v 0.343690 1.173949 -0.260272
v 0.011002 1.521269 -0.330456
v -0.029693 1.142212 0.190204
v 0.467178 2.086269 0.098598
v -0.258025 2.463800 0.347970
v -0.410280 2.626595 0.419250
v -0.980723 2.036557 -0.038040
v 0.261956 2.410652 0.322857
v -0.760120 2.530747 0.571479
v -1.350708 2.179616 0.471792
v -0.562774 2.618070 0.416725
v -1.736225 0.770284 0.942082
v -1.697556 0.472935 0.615503
v 0.526348 2.301212 0.293971
v 0.408553 2.419964 0.322203
v 0.673970 1.912542 0.055622
v 0.771065 2.026130 0.186965
v 0.875600 1.686930 0.047808
v 0.954517 1.630953 0.087584
v 0.890663 1.565558 -0.010171
v 1.008446 1.458202 0.035547
v -0.102830 2.494935 0.367980
v 0.101004 2.465458 0.351155
v -0.100043 2.812716 0.500218
v 0.170608 2.753820 0.461143
v -1.529815 1.077745 0.863773
v -1.599733 0.905882 0.802500
v -1.751119 1.091754 0.799665
v -1.719794 0.929734 0.766567
v -1.671090 0.750875 0.711571
v -1.660376 1.066710 0.885421
v -0.036814 1.774541 0.503226
v 0.116387 2.142052 -0.212078
v 0.097930 2.523166 0.050532
v 0.047721 2.273632 0.603471
v -0.003141 2.531817 0.237367
v 0.005722 2.429789 0.482125
v 0.026060 2.851605 0.313940
v 0.044616 2.714938 0.647389
v 0.036852 2.834622 0.501565
v 0.130058 2.670042 0.258809
v 0.143334 2.550158 0.551610
v -0.095083 2.593291 0.581919
v -0.108803 2.714303 0.287912
v -0.119368 2.653560 0.435834
v 0.151854 2.610317 0.404007
v 0.008871 2.700231 0.253077
v 0.025571 2.563584 0.586468
v 0.433632 1.690086 -0.009176
v -0.587939 1.503328 0.203284
v 0.543392 1.808990 -0.230659
v 0.160805 1.162032 0.200325
v -0.242118 0.059945 -0.254667
v -0.398312 0.053236 -0.147829
v -0.398337 0.080550 -0.397158
v -0.262354 0.076279 -0.398524
v 0.311180 -0.011348 0.248379
v 0.238578 -0.027937 0.173504
v 0.320982 -0.018128 0.210535
v 0.289737 -0.024588 0.184608
v 0.252018 -0.010819 0.258232
v 0.087768 0.838637 -0.089364
v 0.135468 0.569960 0.047151
v 0.177588 0.283103 0.148750
v 0.206780 0.301215 0.327273
v 0.183511 0.558255 0.343109
v 0.185385 0.835790 0.316936
v 0.329563 0.298132 0.305837
v 0.390667 0.557815 0.306154
v 0.474870 0.891932 0.252317
v 0.343692 0.862375 -0.052663
v 0.314123 0.573035 0.083228
v 0.283931 0.284884 0.171403
v 0.349350 0.291013 0.225952
v 0.424868 0.584072 0.171977
v 0.507466 0.890800 0.063356
v -0.216372 0.829290 0.248894
v -0.200889 0.550671 0.133024
v -0.205598 0.322465 0.048182
v -0.488732 0.333073 0.010057
v -0.484742 0.603471 0.063843
v -0.493972 0.857919 0.106243
v -0.494351 0.432500 -0.240568
v -0.489072 0.703247 -0.187610
v -0.486323 0.918960 -0.164336
v -0.092249 0.858163 -0.170042
v -0.144554 0.671092 -0.205912
v -0.199210 0.464204 -0.235636
vn -0.0523 0.5757 -0.8160
vn -0.0436 0.0883 -0.9951
vn 0.5387 -0.1950 -0.8196
vn -0.2765 -0.2673 0.9231
vn 0.9498 -0.0038 0.3129
vn 0.6454 0.7367 0.2016
vn 0.0917 0.9098 -0.4047
vn 0.5997 -0.2574 0.7577
vn 0.0038 0.8859 0.4639
vn -0.1280 0.5816 -0.8033
vn -0.1482 -0.5101 0.8472
vn -0.4701 -0.8282 -0.3049
vn -0.1628 -0.1844 0.9693
vn 0.2744 -0.9131 0.3016
vn 0.9469 -0.2947 0.1284
vn 0.0212 -0.8108 0.5849
vn 0.1791 0.9550 0.2366
vn 0.0336 -0.7420 0.6696
vn -0.6104 0.2970 0.7343
vn 0.9024 -0.0180 -0.4305
vn -0.9006 0.0683 -0.4291
vn 0.6219 0.7301 0.2832
vn 0.5903 0.1526 0.7926
vn -0.1790 -0.5369 0.8244
vn -0.0568 0.6104 0.7900
vn -0.4671 -0.5799 0.6674
vn -0.4079 -0.5115 -0.7563
vn 0.8055 0.5477 -0.2264
vn -0.1587 -0.6252 0.7642
vn 0.5167 0.7895 -0.3311
vn 0.5676 0.0816 0.8193
vn 0.7078 0.3987 -0.5832
vn -0.4128 -0.2716 -0.8694
vn -0.2729 -0.6024 -0.7501
vn -0.6452 0.2095 -0.7347
vn -0.5474 0.0897 0.8320
vn 0.8044 0.1312 0.5794
vn 0.9781 0.0255 -0.2066
vn 0.4362 0.5127 0.7395
vn 0.1591 0.9868 0.0288
vn -0.2457 0.8844 0.3968
vn 0.4370 0.8709 0.2248
vn 0.0146 0.9768 0.2138
vn -0.9649 0.0722 0.2524
vn 0.3296 -0.3191 0.8886
vn -0.2935 0.4484 -0.8443
vn -0.6735 -0.5100 -0.5351
vn -0.9085 -0.3811 0.1714
vn 0.1394 0.0921 -0.9859
vn -0.9811 0.1877 -0.0465
vn 0.0324 0.8469 0.5308
vn 0.5030 0.6947 0.5141
vn -0.2067 0.8841 0.4191
vn 0.9921 -0.0987 0.0769
vn 0.5978 -0.0053 0.8016
vn -0.8361 0.0942 -0.5405
vn -0.3650 -0.6831 -0.6326
vn -0.7473 -0.5464 -0.3780
vn 0.8533 0.3716 0.3657
vn -0.5390 -0.7008 -0.4672
vn -0.1042 0.9872 0.1206
vn 0.7818 0.5578 0.2786
vn 0.6579 0.3304 0.6768
vn -0.4742 0.2555 -0.8425
vn 0.1626 0.1396 0.9768
vn -0.6420 -0.6078 0.4674
vn -0.2165 0.4092 0.8864
vn -0.6315 0.6678 0.3940
vn -0.4696 -0.7820 -0.4098
vn 0.3198 0.3138 0.8940
vn 0.6023 0.5274 0.5992
vn 0.3415 0.2652 0.9017
vn -0.4396 0.6781 -0.5890
vn -0.8098 0.4212 0.4084
vn 0.9459 -0.3219 0.0403
vn 0.4890 0.7267 0.4825
vn 0.2373 0.4042 -0.8834
vn -0.1968 -0.2797 0.9397
vn 0.4688 0.8750 0.1209
vn 0.3617 0.9317 0.0334
vn -0.0811 0.5003 0.8620
vn -0.4367 -0.1160 0.8921
vn 0.1377 0.7605 -0.6345
vn -0.0869 -0.5575 0.8256
vn 0.0212 0.1333 -0.9909
vn 0.9623 -0.2545 -0.0957
vn -0.9958 -0.0542 -0.0743
vn -0.1710 0.1698 -0.9705
vn 0.0859 -0.5700 0.8172
vn -0.9961 -0.0604 0.0638
vn 0.9607 -0.2155 -0.1751
vn 0.0882 -0.9687 -0.2322
vn 0.1136 -0.6367 0.7627
vn -0.9674 -0.1778 0.1805
vn -0.9647 -0.2576 -0.0544
vn 0.9923 -0.1020 -0.0698
vn -0.0176 0.3957 -0.9182
vn -0.0319 -0.9936 -0.1087
vn 0.0264 -0.9806 0.1940
vn 0.1627 -0.1900 0.9682
vn 0.2106 -0.0371 -0.9769
vn 0.9618 -0.1026 0.2538
vn 0.6413 -0.0206 -0.7670
vn 0.5120 -0.5012 -0.6976
vn 0.5843 -0.3997 -0.7063
vn 0.6206 -0.2910 -0.7281
vn 0.9845 -0.0651 0.1628
vn 0.9617 -0.2039 0.1829
vn 0.9516 -0.2138 0.2209
vn 0.0887 -0.5052 -0.8584
vn 0.1749 -0.4273 -0.8870
vn 0.1973 -0.3036 -0.9322
vn 0.1733 0.3766 0.9100
vn 0.1884 0.1013 0.9769
vn 0.1737 -0.0435 0.9838
vn -0.9533 -0.0514 0.2977
vn -0.9790 -0.0218 0.2026
vn -0.9826 -0.0927 0.1612
vn -0.1444 -0.2757 -0.9503
vn -0.0136 0.1471 -0.9890
vn -0.0205 0.1730 -0.9847
vn 0.8956 0.1815 0.4061
vn 0.9688 -0.1426 0.2026
vn 0.9887 -0.1450 0.0385
vn -0.9629 0.0731 -0.2598
vn -0.9999 -0.0124 -0.0102
vn -0.9996 0.0123 0.0247
vn -0.5980 0.1327 0.7904
vn -0.3742 -0.2798 0.8841
vn -0.2075 -0.2587 0.9434
vn 0.5384 -0.1694 0.8255
vn 0.3323 0.3587 -0.8723
vn -0.2840 -0.4037 -0.8697
vn -0.3190 -0.7598 -0.5666
vn -0.8561 -0.0607 -0.5133
vt 0.461701 0.809397
vt 0.301930 0.729761
vt 0.094158 0.499911
vt 0.498737 0.648456
vt 0.250869 0.553264
vt 0.714874 0.752530
vt 0.627854 0.740386
vt 0.227533 0.339544
vt 0.300362 0.438253
vt 0.625828 0.633709
vt 0.338991 0.679376
vt 0.653754 0.621457
vt 0.189641 0.785401
vt 0.531284 0.815038
vt 0.232114 0.729761
vt 0.806952 0.326283
vt 0.527824 0.712310
vt 0.703640 0.331352
vt 0.725736 0.123548
vt 0.557184 0.740386
vt 0.714874 0.681901
vt 0.693091 0.138725
vt 0.558638 0.706064
vt 0.944491 0.391302
vt 0.108931 0.369345
vt 0.090202 0.443431
vt 0.952837 0.467016
vt 0.108059 0.346292
vt 0.960024 0.371234
vt 0.653754 0.712739
vt 0.761990 0.055860
vt 0.265996 0.788213
vt 0.829683 0.188590
vt 0.886815 0.394232
vt 0.909606 0.471204
vt 0.826550 0.267021
vt 0.659457 0.749480
vt 0.206417 0.267620
vt 0.238389 0.812575
vt 0.882743 0.373659
vt 0.837846 0.166681
vt 0.102618 0.289588
vt 0.957957 0.321520
vt 0.918648 0.216117
vt 0.803322 0.012950
vt 0.106348 0.638847
vt 0.232551 0.755661
vt 0.798789 0.485160
vt 0.965752 0.239402
vt 0.153968 0.222285
vt 0.894228 0.312474
vt 0.856067 0.102710
vt 0.881967 0.351902
vt 0.842627 0.144082
vt 0.107159 0.331692
vt 0.958812 0.358201
vt 0.199778 0.246429
vt 0.138792 0.619338
vt 0.232114 0.797406
vt 0.967580 0.012950
vt 0.753483 0.682459
vt 0.843831 0.469074
vt 0.256421 0.022764
vt 0.824689 0.472884
vt 0.987050 0.016155
vt 0.832147 0.505580
vt 0.295109 0.018166
vt 0.782932 0.707368
vt 0.843831 0.503254
vt 0.076417 0.467161
vt 0.958695 0.494573
vt 0.833773 0.298242
vt 0.909847 0.503107
vt 0.076958 0.454690
vt 0.951531 0.482650
vt 0.837149 0.281767
vt 0.912926 0.487172
vt 0.064432 0.532285
vt 0.298790 0.687460
vt 0.825577 0.362572
vt 0.264894 0.686125
vt 0.056614 0.518895
vt 0.959622 0.549977
vt 0.837123 0.350740
vt 0.929664 0.555276
vt 0.051257 0.577890
vt 0.291936 0.641182
vt 0.824256 0.407314
vt 0.275162 0.640522
vt 0.035793 0.577862
vt 0.964581 0.612577
vt 0.838997 0.411720
vt 0.948088 0.615681
vt 0.039898 0.592711
vt 0.301778 0.620707
vt 0.403076 0.772170
vt 0.830596 0.428615
vt 0.403076 0.737417
vt 0.267017 0.619338
vt 0.012950 0.593438
vt 0.987050 0.637067
vt 0.428919 0.781443
vt 0.856067 0.440612
vt 0.428919 0.728949
vt 0.935424 0.646785
vt 0.945356 0.412724
vt 0.357115 0.854737
vt 0.331665 0.779032
vt 0.948027 0.441601
vt 0.799629 0.752473
vt 0.327972 0.853161
vt 0.906904 0.416128
vt 0.370069 0.779032
vt 0.684668 0.778429
vt 0.909575 0.445005
vt 0.655249 0.778999
vt 0.799629 0.791035
vt 0.330193 0.729131
vt 0.557184 0.775635
vt 0.363063 0.804932
vt 0.331684 0.807874
vt 0.754247 0.751428
vt 0.586563 0.768755
vt 0.566112 0.815056
vt 0.689281 0.828405
vt 0.370405 0.729131
vt 0.754247 0.791805
vt 0.657717 0.824383
vt 0.595492 0.808176
vt 0.327830 0.637821
vt 0.590400 0.642651
vt 0.164818 0.789976
vt 0.357235 0.619338
vt 0.642851 0.190721
vt 0.562581 0.649581
vt 0.406824 0.626953
vt 0.080449 0.619338
vt 0.646201 0.239681
vt 0.727583 0.656002
vt 0.597847 0.731399
vt 0.712829 0.722239
vt 0.658284 0.323708
vt 0.527919 0.666449
vt 0.661748 0.291537
vt 0.680225 0.245582
vt 0.377645 0.696957
vt 0.285191 0.477898
vt 0.483372 0.812325
vt 0.280072 0.728266
vt 0.924330 0.393087
vt 0.921760 0.373660
vt 0.678504 0.727397
vt 0.268491 0.812575
vt 0.930826 0.465310
vt 0.923786 0.327561
vt 0.941993 0.227167
vt 0.764056 0.466512
vt 0.919524 0.351927
vt 0.977463 0.013354
vt 0.833186 0.466512
vt 0.317617 0.012950
vt 0.798789 0.722800
vt 0.839639 0.522681
vt 0.934403 0.500152
vt 0.932138 0.484309
vt 0.281656 0.689101
vt 0.944784 0.554368
vt 0.283549 0.640852
vt 0.956335 0.614129
vt 0.284323 0.620942
vt 0.399765 0.754789
vt 0.961112 0.640376
vt 0.422297 0.755187
vt 0.926130 0.414426
vt 0.350867 0.779032
vt 0.928801 0.443303
vt 0.799629 0.771754
vt 0.350773 0.728949
vt 0.557184 0.796361
vt 0.753483 0.771844
vt 0.595492 0.787450
vt 0.985581 0.067358
vt 0.238180 0.070710
vt 0.259592 0.052321
vt 0.138792 0.821791
vt 0.953366 0.057503
vt 0.765454 0.639660
vt 0.120235 0.821584
vt 0.772730 0.660154
vt 0.283154 0.037949
vt 0.784440 0.682652
vt 0.128680 0.843910
vt 0.970110 0.058056
vt 0.758353 0.637393
vt 0.180368 0.432154
vt 0.759258 0.257498
vt 0.884976 0.446549
vt 0.828099 0.241547
vt 0.971226 0.428512
vt 0.101516 0.405509
vt 0.908240 0.430567
vt 0.669958 0.778714
vt 0.946692 0.427163
vt 0.342544 0.853949
vt 0.673120 0.826722
vt 0.582140 0.817526
vt 0.570535 0.766286
vt 0.348248 0.806122
vt 0.576699 0.792002
vt 0.653753 0.802281
vt 0.776512 0.794925
vt 0.776512 0.748700
vt 0.327830 0.829868
vt 0.363063 0.830170
vt 0.327830 0.753980
vt 0.373865 0.753980
vt 0.689281 0.803194
vt 0.351093 0.753886
vt 0.776117 0.771930
vt 0.671321 0.802907
vt 0.345899 0.829874
vt 0.457498 0.727404
vt 0.165986 0.548054
vt 0.260364 0.376248
vt 0.625887 0.695531
vt 0.520555 0.743605
vt 0.734596 0.339638
vt 0.406824 0.703049
vt 0.012950 0.651015
vt 0.277407 0.507014
vt 0.206214 0.619338
vt 0.706517 0.466512
vt 0.399765 0.822801
vt 0.181517 0.620770
vt 0.619265 0.470337
vt 0.422433 0.807343
vt 0.582936 0.466512
vt 0.458892 0.202188
vt 0.422433 0.843958
vt 0.727583 0.468029
vt 0.460639 0.221880
vt 0.402692 0.843997
vt 0.717439 0.778459
vt 0.429089 0.593438
vt 0.518160 0.466685
vt 0.070962 0.817001
vt 0.726094 0.791097
vt 0.457498 0.298878
vt 0.715181 0.783741
vt 0.523936 0.466512
vt 0.458951 0.311476
vt 0.719061 0.788282
vt 0.458165 0.306435
vt 0.058766 0.817583
vt 0.726094 0.778429
vt 0.431598 0.585369
vt 0.599953 0.261833
vt 0.080449 0.668491
vt 0.542336 0.274386
vt 0.076079 0.728305
vt 0.500395 0.287212
vt 0.064936 0.773359
vt 0.389801 0.564275
vt 0.039540 0.774208
vt 0.356388 0.547019
vt 0.031995 0.737396
vt 0.319737 0.531779
vt 0.030523 0.696843
vt 0.505723 0.512116
vt 0.384015 0.580847
vt 0.506522 0.550736
vt 0.346302 0.574833
vt 0.507607 0.604105
vt 0.294291 0.566034
vt 0.610540 0.298468
vt 0.545535 0.300686
vt 0.502363 0.302883
vt 0.504402 0.313331
vt 0.517745 0.511765
vt 0.548610 0.318269
vt 0.527842 0.556627
vt 0.609940 0.323717
vt 0.531284 0.618364
vt 0.660591 0.582499
vt 0.204501 0.743892
vt 0.668589 0.550878
vt 0.206214 0.710848
vt 0.668004 0.517120
vt 0.204545 0.678125
vt 0.623877 0.525891
vt 0.164692 0.675333
vt 0.610236 0.563455
vt 0.167167 0.712219
vt 0.605277 0.597358
vt 0.166352 0.745757
vt 0.511839 0.183186
vt 0.584607 0.521652
vt 0.552303 0.182624
vt 0.569857 0.561129
vt 0.598009 0.178631
vt 0.565182 0.606784
vt 0.592158 0.236754
vt 0.721184 0.600612
vt 0.550092 0.232946
vt 0.722606 0.558204
vt 0.518921 0.225772
vt 0.713819 0.525134
s 0
usemtl Material
f 89/196/1 7/19/1 13/33/1 90/198/1
f 8/22/2 7/19/2 89/196/2 58/145/2 54/138/2 53/134/2
f 6/18/3 56/142/3 57/144/3
f 3/8/4 106/224/4 4/9/4 59/147/4 88/195/4
f 6/17/5 107/226/5 5/14/5 60/148/5 1/1/5 105/222/5 2/4/5 56/143/5
f 61/150/6 13/34/6 16/40/6 62/151/6
f 5/16/7 14/36/7 31/76/7 29/72/7
f 88/195/8 1/3/8 10/26/8 91/200/8
f 67/158/9 21/53/9 20/51/9 65/155/9
f 13/33/10 7/19/10 12/31/10 16/41/10
f 3/8/11 9/25/11 11/28/11 15/38/11
f 55/141/12 3/6/12 15/37/12 63/152/12
f 66/156/13 19/49/13 17/43/13 65/155/13
f 23/57/14 22/55/14 17/42/14 19/50/14
f 83/184/15 82/183/15 25/63/15 26/67/15
f 15/38/16 11/28/16 22/55/16 23/57/16
f 62/151/17 16/40/17 21/53/17 67/158/17
f 69/163/18 26/66/18 25/64/18 68/160/18
f 87/193/19 84/186/19 24/60/19 68/159/19
f 86/190/20 83/184/20 26/67/20 69/161/20
f 84/187/21 85/189/21 27/68/21 24/61/21
f 70/164/22 29/73/22 31/77/22 71/165/22
f 70/164/23 28/71/23 34/83/23 73/167/23
f 10/26/24 1/3/24 28/70/24 30/74/24
f 64/154/25 10/27/25 30/75/25 71/165/25
f 34/82/26 32/78/26 36/86/26 38/90/26
f 60/149/27 5/15/27 33/81/27 72/166/27
f 5/16/28 29/72/28 35/84/28 33/80/28
f 28/70/29 1/3/29 32/78/29 34/82/29
f 37/88/30 39/92/30 43/103/30 41/97/30
f 73/167/31 34/83/31 38/91/31 75/169/31
f 33/80/32 35/84/32 39/92/32 37/88/32
f 72/166/33 33/81/33 37/89/33 74/168/33
f 76/171/34 41/98/34 43/104/34 77/173/34
f 74/168/35 37/89/35 41/99/35 76/170/35
f 38/90/36 36/86/36 40/94/36 42/100/36
f 75/169/37 38/91/37 42/101/37 77/172/37
f 102/219/38 97/211/38 51/127/38 81/180/38
f 91/199/39 10/27/39 45/109/39 93/203/39
f 90/197/40 13/34/40 46/112/40 92/201/40
f 61/150/41 9/24/41 44/106/41 78/174/41
f 64/154/42 14/35/42 47/115/42 79/176/42
f 96/209/43 94/206/43 50/124/43 80/179/43
f 101/218/44 99/215/44 48/118/44 80/178/44
f 104/221/45 98/213/45 49/121/45 95/208/45
f 103/220/46 100/217/46 50/125/46 94/205/46
f 8/23/47 53/135/47 52/131/47
f 8/23/48 52/131/48 4/10/48 106/225/48 3/7/48 55/140/48 7/20/48
f 54/138/49 58/145/49 89/196/49 5/16/49 107/227/49 6/18/49 57/144/49
f 100/216/50 101/218/50 80/178/50 50/126/50
f 95/207/51 96/209/51 80/179/51 48/119/51
f 10/27/52 64/154/52 79/176/52 45/109/52
f 13/34/53 61/150/53 78/174/53 46/112/53
f 98/212/54 102/219/54 81/180/54 49/122/54
f 39/93/55 75/169/55 77/172/55 43/105/55
f 36/87/56 74/168/56 76/170/56 40/95/56
f 40/96/57 76/171/57 77/173/57 42/102/57
f 32/79/58 72/166/58 74/168/58 36/87/58
f 35/85/59 73/167/59 75/169/59 39/93/59
f 1/2/60 60/149/60 72/166/60 32/79/60
f 14/35/61 64/154/61 71/165/61 31/77/61
f 29/73/62 70/164/62 73/167/62 35/85/62
f 28/71/63 70/164/63 71/165/63 30/75/63
f 85/189/64 86/191/64 69/162/64 27/68/64
f 82/182/65 87/193/65 68/159/65 25/65/65
f 27/69/66 69/163/66 68/160/66 24/62/66
f 11/29/67 62/151/67 67/158/67 22/56/67
f 18/44/68 66/156/68 65/155/68 20/51/68
f 7/21/69 55/141/69 63/152/69 12/30/69
f 22/56/70 67/158/70 65/155/70 17/43/70
f 9/24/71 61/150/71 62/151/71 11/29/71
f 19/49/72 66/156/72 87/193/72 82/182/72
f 12/31/73 18/45/73 20/52/73 21/54/73 16/41/73
f 66/157/74 18/48/74 84/187/74 87/194/74
f 23/57/75 19/50/75 82/183/75 83/184/75
f 49/123/76 81/181/76 96/209/76 95/207/76
f 97/210/77 103/220/77 94/205/77 51/128/77
f 99/214/78 104/221/78 95/208/78 48/120/78
f 81/181/79 51/129/79 94/206/79 96/209/79
f 14/35/80 90/197/80 92/201/80 47/115/80
f 9/24/81 91/199/81 93/203/81 44/106/81
f 3/8/82 88/195/82 91/200/82 9/25/82
f 5/16/83 89/196/83 90/198/83 14/36/83
f 44/107/84 93/204/84 104/221/84 99/214/84
f 47/116/85 92/202/85 103/220/85 97/210/85
f 45/110/86 79/177/86 102/219/86 98/212/86
f 46/113/87 78/175/87 101/218/87 100/216/87
f 92/202/88 46/114/88 100/217/88 103/220/88
f 93/204/89 45/111/89 98/213/89 104/221/89
f 78/175/90 44/108/90 99/215/90 101/218/90
f 79/177/91 47/117/91 97/211/91 102/219/91
f 59/146/92 4/11/92 52/130/92 53/133/92 54/136/92 108/228/92
f 136/291/93 110/234/93 109/231/93 135/289/93
f 121/264/94 120/262/94 114/246/94 117/254/94
f 139/297/95 111/237/95 110/235/95 136/290/95
f 135/288/96 109/232/96 112/240/96 144/307/96
f 144/306/97 112/241/97 111/238/97 139/296/97
f 111/239/98 112/242/98 109/233/98 110/236/98
f 117/255/99 114/247/99 116/252/99 115/249/99 113/243/99
f 124/270/100 121/263/100 117/256/100 113/244/100
f 120/261/101 129/277/101 116/253/101 114/248/101
f 130/279/102 124/269/102 113/245/102 115/250/102
f 129/277/103 130/278/103 115/251/103 116/253/103
f 57/144/104 56/142/104 132/282/104 127/275/104
f 127/275/105 132/282/105 131/280/105 128/276/105
f 128/276/106 131/280/106 130/278/106 129/277/106
f 56/143/107 2/4/107 126/273/107 132/283/107
f 132/283/108 126/273/108 125/271/108 131/281/108
f 131/281/109 125/271/109 124/269/109 130/279/109
f 54/138/110 57/144/110 127/275/110 118/257/110
f 118/257/111 127/275/111 128/276/111 119/259/111
f 119/259/112 128/276/112 129/277/112 120/261/112
f 2/5/113 108/230/113 123/267/113 126/274/113
f 126/274/114 123/267/114 122/265/114 125/272/114
f 125/272/115 122/265/115 121/263/115 124/270/115
f 108/229/116 54/137/116 118/258/116 123/268/116
f 123/268/117 118/258/117 119/260/117 122/266/117
f 122/266/118 119/260/118 120/262/118 121/264/118
f 54/138/119 142/302/119 141/300/119 53/134/119
f 142/302/120 143/304/120 140/298/120 141/300/120
f 143/304/121 144/306/121 139/296/121 140/298/121
f 4/12/122 133/284/122 142/303/122 54/139/122
f 133/284/123 134/286/123 143/305/123 142/303/123
f 134/286/124 135/288/124 144/307/124 143/305/124
f 53/135/125 141/301/125 138/294/125 52/131/125
f 141/301/126 140/299/126 137/292/126 138/294/126
f 140/299/127 139/297/127 136/290/127 137/292/127
f 52/132/128 138/295/128 133/285/128 4/13/128
f 138/295/129 137/293/129 134/287/129 133/285/129
f 137/293/130 136/291/130 135/289/130 134/287/130
f 105/223/131 1/3/131 88/195/131 59/147/131 108/230/131 2/5/131
f 86/192/132 85/188/132 83/185/132
f 83/185/133 85/188/133 18/46/133 23/58/133
f 63/153/134 15/39/134 23/59/134 18/47/134 12/32/134
f 84/187/135 18/48/135 85/189/135
l 52 106
