# Blender 3.3.1
# www.blender.org
mtllib monstruo_3_caminar565.mtl
o monstruo_grande
v 0.517015 1.968308 0.338543
v 0.528188 1.115106 0.044722
v -0.627619 1.848629 0.115906
v -0.281043 1.206741 0.221796
v 0.831188 2.229512 0.103924
v 0.627963 1.591744 -0.221862
v -0.684235 2.054124 -0.329345
v -0.652704 1.735421 -0.353760
v -0.213255 2.428994 0.417086
v 0.319965 2.276877 0.478978
v -0.361863 2.413286 0.498827
v -1.031759 2.154513 -0.258148
v -0.144343 2.581107 0.062255
v 0.386667 2.393886 0.210882
v -0.919705 2.014222 -0.077483
v -0.296806 2.672926 0.064875
v -0.728840 2.360629 0.451826
v -1.364822 2.107205 -0.055630
v -1.123662 2.128849 0.185853
v -0.830590 2.694077 0.167045
v -0.480152 2.736013 0.111352
v -0.443119 2.371480 0.461273
v -1.047088 2.044652 -0.108299
v -1.856283 0.884491 0.575690
v -1.742644 0.861246 0.645806
v -1.689346 0.686283 0.450382
v -1.758708 0.700472 0.407585
v 0.431265 2.173880 0.486921
v 0.644949 2.354677 0.308766
v 0.422866 2.295222 0.492714
v 0.509052 2.408196 0.278592
v 0.704076 1.903811 0.478056
v 0.916672 1.908188 0.444181
v 0.718866 1.953851 0.516764
v 0.873021 2.049006 0.439762
v 0.739033 1.759275 0.736320
v 0.853525 1.734298 0.725588
v 0.763329 1.800360 0.831183
v 0.874341 1.777059 0.813248
v 0.681715 1.695316 0.867292
v 0.913197 1.648204 0.833654
v 0.663002 1.761428 1.052017
v 1.011050 1.684114 0.995775
v -0.049948 2.461295 0.460402
v 0.156084 2.421320 0.467613
v -0.013234 2.552323 0.212074
v 0.186610 2.506078 0.221036
v 0.004711 2.774662 0.599284
v 0.210068 2.700994 0.581591
v 0.019194 2.877184 0.341221
v 0.224256 2.803603 0.322927
v -0.499359 1.196499 0.036672
v -0.405005 1.174435 -0.185142
v -0.039319 1.272722 -0.335732
v -0.663151 1.885558 -0.111088
v 0.537362 1.214727 -0.172513
v 0.316743 1.257699 -0.281178
v 0.052317 1.517740 -0.327181
v -0.021618 1.115254 0.186726
v 0.633904 2.039771 0.266362
v -0.182330 2.482125 0.292746
v -0.331913 2.658228 0.332568
v -0.839355 2.068062 -0.167105
v 0.333723 2.396958 0.366762
v -0.721819 2.588674 0.413238
v -1.291154 2.249438 0.198720
v -0.484025 2.658899 0.306447
v -1.816762 0.871735 0.638407
v -1.687675 0.578474 0.331976
v 0.550594 2.279028 0.443425
v 0.469509 2.399296 0.406050
v 0.796402 1.864455 0.426947
v 0.809877 2.013850 0.531172
v 0.794901 1.746795 0.727901
v 0.818925 1.788011 0.822199
v 0.791233 1.657340 0.830459
v 0.825637 1.698004 0.987465
v -0.033868 2.505620 0.334488
v 0.168869 2.465376 0.343101
v -0.019354 2.828407 0.469666
v 0.248461 2.750064 0.453314
v -1.603661 1.183908 0.618264
v -1.651434 1.011343 0.540040
v -1.800817 1.195326 0.499089
v -1.758394 1.033222 0.474044
v -1.693197 0.855900 0.432894
v -1.735073 1.170128 0.604934
v -0.018135 1.777251 0.490876
v 0.267977 2.107921 -0.204084
v 0.209074 2.500623 0.044054
v 0.050084 2.299557 0.597180
v 0.080830 2.528724 0.214322
v 0.058476 2.440193 0.462981
v 0.123878 2.855549 0.292926
v 0.105201 2.722451 0.629057
v 0.118183 2.840503 0.482278
v 0.219305 2.665247 0.247550
v 0.198660 2.551587 0.542463
v -0.037396 2.610785 0.552269
v -0.017945 2.726423 0.255065
v -0.045170 2.670156 0.403396
v 0.223801 2.608109 0.395071
v 0.100869 2.703506 0.230406
v 0.080223 2.572405 0.567594
v 0.613686 1.606970 0.092892
v -0.560728 1.559623 0.166961
v 0.710696 1.793756 -0.166479
v 0.173670 1.060867 0.167724
v -0.235981 0.057906 0.349188
v -0.378887 0.107048 0.463506
v -0.406950 0.032646 0.224575
v -0.272290 0.017251 0.212704
v 0.341243 -0.063806 -0.202434
v 0.266514 -0.072718 -0.277028
v 0.349925 -0.066421 -0.240980
v 0.317953 -0.070385 -0.266606
v 0.282416 -0.064994 -0.191173
v 0.076797 0.876910 -0.241926
v 0.153074 0.561051 -0.236834
v 0.202112 0.255177 -0.237652
v 0.235953 0.212272 -0.064099
v 0.210579 0.448170 0.038715
v 0.208998 0.718075 0.108447
v 0.358135 0.218929 -0.088015
v 0.416928 0.464046 -0.002593
v 0.492807 0.804022 0.051610
v 0.331393 0.905608 -0.224890
v 0.332775 0.554962 -0.207179
v 0.309011 0.251295 -0.217899
v 0.375820 0.239738 -0.165978
v 0.446279 0.536730 -0.123675
v 0.506113 0.886746 -0.123215
v -0.159766 0.961984 0.356832
v -0.158471 0.697743 0.398230
v -0.166290 0.470049 0.469863
v -0.451556 0.466973 0.459829
v -0.449610 0.714485 0.339677
v -0.457736 0.947361 0.259332
v -0.484063 0.405233 0.196998
v -0.482838 0.657536 0.071719
v -0.496620 0.909171 -0.018018
v -0.105293 0.836324 -0.068545
v -0.141555 0.608150 0.036550
v -0.190804 0.423161 0.155280
vn 0.0797 0.5408 -0.8374
vn 0.0181 0.0108 -0.9998
vn 0.3981 -0.2125 -0.8924
vn -0.3599 -0.2045 0.9103
vn 0.9256 -0.2917 0.2411
vn 0.6612 0.7046 0.2578
vn 0.2794 0.8797 -0.3847
vn 0.3513 -0.2161 0.9110
vn -0.0657 0.9165 0.3947
vn 0.0674 0.5057 -0.8601
vn -0.3518 -0.4063 0.8433
vn -0.4586 -0.8349 -0.3043
vn -0.3894 -0.1118 0.9143
vn 0.1490 -0.8951 0.4203
vn 0.8864 -0.2776 0.3705
vn -0.1707 -0.7449 0.6450
vn 0.1948 0.9588 0.2066
vn -0.1269 -0.7479 0.6516
vn -0.7858 0.2768 0.5531
vn 0.9838 0.0038 -0.1794
vn -0.7585 0.0555 -0.6493
vn 0.4551 0.7530 0.4753
vn -0.0270 0.2066 0.9780
vn -0.4984 -0.4830 0.7199
vn -0.2147 0.6799 0.7011
vn -0.9720 0.1244 0.1995
vn 0.1524 -0.6630 -0.7329
vn 0.8101 0.5525 0.1960
vn -0.5600 -0.5849 0.5868
vn 0.8634 0.1861 -0.4688
vn -0.2802 0.8021 0.5273
vn 0.9889 0.0616 0.1353
vn 0.1900 -0.8862 -0.4226
vn -0.0819 -0.9609 0.2645
vn -0.0900 -0.7767 -0.6234
vn -0.8058 0.5581 -0.1979
vn 0.4146 0.8282 0.3771
vn 0.9915 -0.0470 -0.1211
vn 0.3019 0.5590 0.7723
vn 0.2265 0.9740 -0.0000
vn -0.2489 0.9174 0.3105
vn 0.4253 0.8762 0.2268
vn 0.0687 0.9762 0.2056
vn -0.9745 0.1455 0.1705
vn 0.2334 -0.3350 0.9129
vn -0.1903 0.4629 -0.8657
vn -0.8325 -0.4603 -0.3083
vn -0.9474 -0.2337 0.2186
vn 0.2301 0.1894 -0.9545
vn -0.9572 0.2588 -0.1293
vn 0.0495 0.8492 0.5258
vn 0.4119 0.7266 0.5500
vn -0.2167 0.9145 0.3415
vn 0.9722 -0.1731 0.1578
vn 0.0936 0.8965 0.4330
vn -0.3786 -0.7251 -0.5752
vn -0.2330 -0.9251 0.2998
vn -0.4338 -0.8255 -0.3611
vn 0.3225 0.7600 0.5643
vn -0.1607 -0.8538 -0.4951
vn -0.0642 0.9979 -0.0004
vn 0.4570 0.6305 0.6274
vn 0.3761 0.2557 0.8906
vn -0.2427 0.2547 -0.9361
vn -0.1016 0.1329 0.9859
vn -0.7288 -0.6247 0.2802
vn -0.3088 0.4866 0.8173
vn -0.6745 0.7125 0.1934
vn -0.4512 -0.8160 -0.3613
vn 0.1173 0.3556 0.9272
vn 0.5478 0.5240 0.6522
vn 0.1178 0.3337 0.9353
vn -0.2654 0.6392 -0.7218
vn -0.8640 0.4695 0.1818
vn 0.8964 -0.3294 0.2965
vn 0.4990 0.6961 0.5162
vn 0.3408 0.3763 -0.8616
vn -0.2962 -0.2548 0.9205
vn 0.5188 0.8415 0.1505
vn 0.4035 0.9147 0.0230
vn -0.1590 0.5783 0.8002
vn -0.5466 -0.0692 0.8345
vn 0.3682 0.7130 -0.5967
vn -0.2072 -0.5425 0.8141
vn 0.1333 0.1047 -0.9855
vn 0.9408 -0.3388 0.0059
vn -0.9853 0.0097 -0.1705
vn -0.0665 0.1694 -0.9833
vn -0.0243 -0.5602 0.8280
vn -0.9996 0.0163 -0.0241
vn 0.9626 -0.2665 -0.0494
vn -0.0872 -0.9873 -0.1331
vn 0.2193 -0.1454 0.9648
vn -0.9633 -0.2191 0.1550
vn -0.9671 -0.1906 0.1685
vn 0.9799 -0.1735 -0.0985
vn -0.1229 -0.1070 -0.9866
vn -0.0820 -0.9489 0.3049
vn 0.0364 -0.9957 0.0856
vn 0.1923 -0.3800 0.9048
vn 0.1864 0.1527 -0.9705
vn 0.9708 -0.1344 0.1987
vn 0.6182 0.1359 -0.7742
vn 0.4464 -0.1479 -0.8825
vn 0.5334 -0.0653 -0.8433
vn 0.5979 -0.0231 -0.8012
vn 0.9946 -0.1029 0.0092
vn 0.9799 -0.1958 0.0384
vn 0.9611 -0.2545 0.1076
vn 0.1185 -0.1754 -0.9773
vn 0.1080 -0.0214 -0.9939
vn 0.1707 0.0257 -0.9850
vn 0.2859 -0.0766 0.9552
vn 0.2354 -0.2210 0.9464
vn 0.2053 -0.3690 0.9065
vn -0.9367 -0.1780 0.3014
vn -0.9622 -0.1528 0.2253
vn -0.9765 -0.1614 0.1426
vn -0.2101 -0.4800 -0.8517
vn -0.1679 -0.3641 -0.9161
vn -0.1291 -0.4718 -0.8722
vn 0.9348 0.2338 0.2675
vn 0.9940 -0.0405 0.1012
vn 0.9914 -0.1301 0.0151
vn -0.9937 0.0118 -0.1118
vn -0.9914 0.0011 0.1309
vn -0.9922 0.0600 0.1094
vn -0.4510 0.4211 0.7869
vn -0.2487 0.2259 0.9419
vn -0.1008 0.3741 0.9219
vn 0.3681 -0.3120 0.8759
vn 0.5412 0.3738 -0.7532
vn -0.0644 -0.4635 -0.8837
vn -0.1669 -0.7911 -0.5885
vn -0.7155 -0.0800 -0.6940
vt 0.461701 0.809397
vt 0.301930 0.729761
vt 0.094158 0.499911
vt 0.498737 0.648456
vt 0.250869 0.553264
vt 0.714874 0.752530
vt 0.627854 0.740386
vt 0.227533 0.339544
vt 0.300362 0.438253
vt 0.625828 0.633709
vt 0.338991 0.679376
vt 0.653754 0.621457
vt 0.189641 0.785401
vt 0.531284 0.815038
vt 0.232114 0.729761
vt 0.806952 0.326283
vt 0.527824 0.712310
vt 0.703640 0.331352
vt 0.725736 0.123548
vt 0.557184 0.740386
vt 0.714874 0.681901
vt 0.693091 0.138725
vt 0.558638 0.706064
vt 0.944491 0.391302
vt 0.108931 0.369345
vt 0.090202 0.443431
vt 0.952837 0.467016
vt 0.108059 0.346292
vt 0.960024 0.371234
vt 0.653754 0.712739
vt 0.761990 0.055860
vt 0.265996 0.788213
vt 0.829683 0.188590
vt 0.886815 0.394232
vt 0.909606 0.471204
vt 0.826550 0.267021
vt 0.659457 0.749480
vt 0.206417 0.267620
vt 0.238389 0.812575
vt 0.882743 0.373659
vt 0.837846 0.166681
vt 0.102618 0.289588
vt 0.957957 0.321520
vt 0.918648 0.216117
vt 0.803322 0.012950
vt 0.106348 0.638847
vt 0.232551 0.755661
vt 0.798789 0.485160
vt 0.965752 0.239402
vt 0.153968 0.222285
vt 0.894228 0.312474
vt 0.856067 0.102710
vt 0.881967 0.351902
vt 0.842627 0.144082
vt 0.107159 0.331692
vt 0.958812 0.358201
vt 0.199778 0.246429
vt 0.138792 0.619338
vt 0.232114 0.797406
vt 0.967580 0.012950
vt 0.753483 0.682459
vt 0.843831 0.469074
vt 0.256421 0.022764
vt 0.824689 0.472884
vt 0.987050 0.016155
vt 0.832147 0.505580
vt 0.295109 0.018166
vt 0.782932 0.707368
vt 0.843831 0.503254
vt 0.076417 0.467161
vt 0.958695 0.494573
vt 0.833773 0.298242
vt 0.909847 0.503107
vt 0.076958 0.454690
vt 0.951531 0.482650
vt 0.837149 0.281767
vt 0.912926 0.487172
vt 0.064432 0.532285
vt 0.298790 0.687460
vt 0.825577 0.362572
vt 0.264894 0.686125
vt 0.056614 0.518895
vt 0.959622 0.549977
vt 0.837123 0.350740
vt 0.929664 0.555276
vt 0.051257 0.577890
vt 0.291936 0.641182
vt 0.824256 0.407314
vt 0.275162 0.640522
vt 0.035793 0.577862
vt 0.964581 0.612577
vt 0.838997 0.411720
vt 0.948088 0.615681
vt 0.039898 0.592711
vt 0.301778 0.620707
vt 0.403076 0.772170
vt 0.830596 0.428615
vt 0.403076 0.737417
vt 0.267017 0.619338
vt 0.012950 0.593438
vt 0.987050 0.637067
vt 0.428919 0.781443
vt 0.856067 0.440612
vt 0.428919 0.728949
vt 0.935424 0.646785
vt 0.945356 0.412724
vt 0.357115 0.854737
vt 0.331665 0.779032
vt 0.948027 0.441601
vt 0.799629 0.752473
vt 0.327972 0.853161
vt 0.906904 0.416128
vt 0.370069 0.779032
vt 0.684668 0.778429
vt 0.909575 0.445005
vt 0.655249 0.778999
vt 0.799629 0.791035
vt 0.330193 0.729131
vt 0.557184 0.775635
vt 0.363063 0.804932
vt 0.331684 0.807874
vt 0.754247 0.751428
vt 0.586563 0.768755
vt 0.566112 0.815056
vt 0.689281 0.828405
vt 0.370405 0.729131
vt 0.754247 0.791805
vt 0.657717 0.824383
vt 0.595492 0.808176
vt 0.327830 0.637821
vt 0.590400 0.642651
vt 0.164818 0.789976
vt 0.357235 0.619338
vt 0.642851 0.190721
vt 0.562581 0.649581
vt 0.406824 0.626953
vt 0.080449 0.619338
vt 0.646201 0.239681
vt 0.727583 0.656002
vt 0.597847 0.731399
vt 0.712829 0.722239
vt 0.658284 0.323708
vt 0.527919 0.666449
vt 0.661748 0.291537
vt 0.680225 0.245582
vt 0.377645 0.696957
vt 0.285191 0.477898
vt 0.483372 0.812325
vt 0.280072 0.728266
vt 0.924330 0.393087
vt 0.921760 0.373660
vt 0.678504 0.727397
vt 0.268491 0.812575
vt 0.930826 0.465310
vt 0.923786 0.327561
vt 0.941993 0.227167
vt 0.764056 0.466512
vt 0.919524 0.351927
vt 0.977463 0.013354
vt 0.833186 0.466512
vt 0.317617 0.012950
vt 0.798789 0.722800
vt 0.839639 0.522681
vt 0.934403 0.500152
vt 0.932138 0.484309
vt 0.281656 0.689101
vt 0.944784 0.554368
vt 0.283549 0.640852
vt 0.956335 0.614129
vt 0.284323 0.620942
vt 0.399765 0.754789
vt 0.961112 0.640376
vt 0.422297 0.755187
vt 0.926130 0.414426
vt 0.350867 0.779032
vt 0.928801 0.443303
vt 0.799629 0.771754
vt 0.350773 0.728949
vt 0.557184 0.796361
vt 0.753483 0.771844
vt 0.595492 0.787450
vt 0.985581 0.067358
vt 0.238180 0.070710
vt 0.259592 0.052321
vt 0.138792 0.821791
vt 0.953366 0.057503
vt 0.765454 0.639660
vt 0.120235 0.821584
vt 0.772730 0.660154
vt 0.283154 0.037949
vt 0.784440 0.682652
vt 0.128680 0.843910
vt 0.970110 0.058056
vt 0.758353 0.637393
vt 0.180368 0.432154
vt 0.759258 0.257498
vt 0.884976 0.446549
vt 0.828099 0.241547
vt 0.971226 0.428512
vt 0.101516 0.405509
vt 0.908240 0.430567
vt 0.669958 0.778714
vt 0.946692 0.427163
vt 0.342544 0.853949
vt 0.673120 0.826722
vt 0.582140 0.817526
vt 0.570535 0.766286
vt 0.348248 0.806122
vt 0.576699 0.792002
vt 0.653753 0.802281
vt 0.776512 0.794925
vt 0.776512 0.748700
vt 0.327830 0.829868
vt 0.363063 0.830170
vt 0.327830 0.753980
vt 0.373865 0.753980
vt 0.689281 0.803194
vt 0.351093 0.753886
vt 0.776117 0.771930
vt 0.671321 0.802907
vt 0.345899 0.829874
vt 0.457498 0.727404
vt 0.165986 0.548054
vt 0.260364 0.376248
vt 0.625887 0.695531
vt 0.520555 0.743605
vt 0.734596 0.339638
vt 0.406824 0.703049
vt 0.012950 0.651015
vt 0.277407 0.507014
vt 0.206214 0.619338
vt 0.706517 0.466512
vt 0.399765 0.822801
vt 0.181517 0.620770
vt 0.619265 0.470337
vt 0.422433 0.807343
vt 0.582936 0.466512
vt 0.458892 0.202188
vt 0.422433 0.843958
vt 0.727583 0.468029
vt 0.460639 0.221880
vt 0.402692 0.843997
vt 0.717439 0.778459
vt 0.429089 0.593438
vt 0.518160 0.466685
vt 0.070962 0.817001
vt 0.726094 0.791097
vt 0.457498 0.298878
vt 0.715181 0.783741
vt 0.523936 0.466512
vt 0.458951 0.311476
vt 0.719061 0.788282
vt 0.458165 0.306435
vt 0.058766 0.817583
vt 0.726094 0.778429
vt 0.431598 0.585369
vt 0.599953 0.261833
vt 0.080449 0.668491
vt 0.542336 0.274386
vt 0.076079 0.728305
vt 0.500395 0.287212
vt 0.064936 0.773359
vt 0.389801 0.564275
vt 0.039540 0.774208
vt 0.356388 0.547019
vt 0.031995 0.737396
vt 0.319737 0.531779
vt 0.030523 0.696843
vt 0.505723 0.512116
vt 0.384015 0.580847
vt 0.506522 0.550736
vt 0.346302 0.574833
vt 0.507607 0.604105
vt 0.294291 0.566034
vt 0.610540 0.298468
vt 0.545535 0.300686
vt 0.502363 0.302883
vt 0.504402 0.313331
vt 0.517745 0.511765
vt 0.548610 0.318269
vt 0.527842 0.556627
vt 0.609940 0.323717
vt 0.531284 0.618364
vt 0.660591 0.582499
vt 0.204501 0.743892
vt 0.668589 0.550878
vt 0.206214 0.710848
vt 0.668004 0.517120
vt 0.204545 0.678125
vt 0.623877 0.525891
vt 0.164692 0.675333
vt 0.610236 0.563455
vt 0.167167 0.712219
vt 0.605277 0.597358
vt 0.166352 0.745757
vt 0.511839 0.183186
vt 0.584607 0.521652
vt 0.552303 0.182624
vt 0.569857 0.561129
vt 0.598009 0.178631
vt 0.565182 0.606784
vt 0.592158 0.236754
vt 0.721184 0.600612
vt 0.550092 0.232946
vt 0.722606 0.558204
vt 0.518921 0.225772
vt 0.713819 0.525134
s 0
usemtl Material
f 89/196/1 7/19/1 13/33/1 90/198/1
f 8/22/2 7/19/2 89/196/2 58/145/2 54/138/2 53/134/2
f 6/18/3 56/142/3 57/144/3
f 3/8/4 106/224/4 4/9/4 59/147/4 88/195/4
f 6/17/5 107/226/5 5/14/5 60/148/5 1/1/5 105/222/5 2/4/5 56/143/5
f 61/150/6 13/34/6 16/40/6 62/151/6
f 5/16/7 14/36/7 31/76/7 29/72/7
f 88/195/8 1/3/8 10/26/8 91/200/8
f 67/158/9 21/53/9 20/51/9 65/155/9
f 13/33/10 7/19/10 12/31/10 16/41/10
f 3/8/11 9/25/11 11/28/11 15/38/11
f 55/141/12 3/6/12 15/37/12 63/152/12
f 66/156/13 19/49/13 17/43/13 65/155/13
f 23/57/14 22/55/14 17/42/14 19/50/14
f 83/184/15 82/183/15 25/63/15 26/67/15
f 15/38/16 11/28/16 22/55/16 23/57/16
f 62/151/17 16/40/17 21/53/17 67/158/17
f 69/163/18 26/66/18 25/64/18 68/160/18
f 87/193/19 84/186/19 24/60/19 68/159/19
f 86/190/20 83/184/20 26/67/20 69/161/20
f 84/187/21 85/189/21 27/68/21 24/61/21
f 70/164/22 29/73/22 31/77/22 71/165/22
f 70/164/23 28/71/23 34/83/23 73/167/23
f 10/26/24 1/3/24 28/70/24 30/74/24
f 64/154/25 10/27/25 30/75/25 71/165/25
f 34/82/26 32/78/26 36/86/26 38/90/26
f 60/149/27 5/15/27 33/81/27 72/166/27
f 5/16/28 29/72/28 35/84/28 33/80/28
f 28/70/29 1/3/29 32/78/29 34/82/29
f 37/88/30 39/92/30 43/103/30 41/97/30
f 73/167/31 34/83/31 38/91/31 75/169/31
f 33/80/32 35/84/32 39/92/32 37/88/32
f 72/166/33 33/81/33 37/89/33 74/168/33
f 76/171/34 41/98/34 43/104/34 77/173/34
f 74/168/35 37/89/35 41/99/35 76/170/35
f 38/90/36 36/86/36 40/94/36 42/100/36
f 75/169/37 38/91/37 42/101/37 77/172/37
f 102/219/38 97/211/38 51/127/38 81/180/38
f 91/199/39 10/27/39 45/109/39 93/203/39
f 90/197/40 13/34/40 46/112/40 92/201/40
f 61/150/41 9/24/41 44/106/41 78/174/41
f 64/154/42 14/35/42 47/115/42 79/176/42
f 96/209/43 94/206/43 50/124/43 80/179/43
f 101/218/44 99/215/44 48/118/44 80/178/44
f 104/221/45 98/213/45 49/121/45 95/208/45
f 103/220/46 100/217/46 50/125/46 94/205/46
f 8/23/47 53/135/47 52/131/47
f 8/23/48 52/131/48 4/10/48 106/225/48 3/7/48 55/140/48 7/20/48
f 54/138/49 58/145/49 89/196/49 5/16/49 107/227/49 6/18/49 57/144/49
f 100/216/50 101/218/50 80/178/50 50/126/50
f 95/207/51 96/209/51 80/179/51 48/119/51
f 10/27/52 64/154/52 79/176/52 45/109/52
f 13/34/53 61/150/53 78/174/53 46/112/53
f 98/212/54 102/219/54 81/180/54 49/122/54
f 39/93/55 75/169/55 77/172/55 43/105/55
f 36/87/56 74/168/56 76/170/56 40/95/56
f 40/96/57 76/171/57 77/173/57 42/102/57
f 32/79/58 72/166/58 74/168/58 36/87/58
f 35/85/59 73/167/59 75/169/59 39/93/59
f 1/2/60 60/149/60 72/166/60 32/79/60
f 14/35/61 64/154/61 71/165/61 31/77/61
f 29/73/62 70/164/62 73/167/62 35/85/62
f 28/71/63 70/164/63 71/165/63 30/75/63
f 85/189/64 86/191/64 69/162/64 27/68/64
f 82/182/65 87/193/65 68/159/65 25/65/65
f 27/69/66 69/163/66 68/160/66 24/62/66
f 11/29/67 62/151/67 67/158/67 22/56/67
f 18/44/68 66/156/68 65/155/68 20/51/68
f 7/21/69 55/141/69 63/152/69 12/30/69
f 22/56/70 67/158/70 65/155/70 17/43/70
f 9/24/71 61/150/71 62/151/71 11/29/71
f 19/49/72 66/156/72 87/193/72 82/182/72
f 12/31/73 18/45/73 20/52/73 21/54/73 16/41/73
f 66/157/74 18/48/74 84/187/74 87/194/74
f 23/57/75 19/50/75 82/183/75 83/184/75
f 49/123/76 81/181/76 96/209/76 95/207/76
f 97/210/77 103/220/77 94/205/77 51/128/77
f 99/214/78 104/221/78 95/208/78 48/120/78
f 81/181/79 51/129/79 94/206/79 96/209/79
f 14/35/80 90/197/80 92/201/80 47/115/80
f 9/24/81 91/199/81 93/203/81 44/106/81
f 3/8/82 88/195/82 91/200/82 9/25/82
f 5/16/83 89/196/83 90/198/83 14/36/83
f 44/107/84 93/204/84 104/221/84 99/214/84
f 47/116/85 92/202/85 103/220/85 97/210/85
f 45/110/86 79/177/86 102/219/86 98/212/86
f 46/113/87 78/175/87 101/218/87 100/216/87
f 92/202/88 46/114/88 100/217/88 103/220/88
f 93/204/89 45/111/89 98/213/89 104/221/89
f 78/175/90 44/108/90 99/215/90 101/218/90
f 79/177/91 47/117/91 97/211/91 102/219/91
f 59/146/92 4/11/92 52/130/92 53/133/92 54/136/92 108/228/92
f 136/291/93 110/234/93 109/231/93 135/289/93
f 121/264/94 120/262/94 114/246/94 117/254/94
f 139/297/95 111/237/95 110/235/95 136/290/95
f 135/288/96 109/232/96 112/240/96 144/307/96
f 144/306/97 112/241/97 111/238/97 139/296/97
f 111/239/98 112/242/98 109/233/98 110/236/98
f 117/255/99 114/247/99 116/252/99 115/249/99 113/243/99
f 124/270/100 121/263/100 117/256/100 113/244/100
f 120/261/101 129/277/101 116/253/101 114/248/101
f 130/279/102 124/269/102 113/245/102 115/250/102
f 129/277/103 130/278/103 115/251/103 116/253/103
f 57/144/104 56/142/104 132/282/104 127/275/104
f 127/275/105 132/282/105 131/280/105 128/276/105
f 128/276/106 131/280/106 130/278/106 129/277/106
f 56/143/107 2/4/107 126/273/107 132/283/107
f 132/283/108 126/273/108 125/271/108 131/281/108
f 131/281/109 125/271/109 124/269/109 130/279/109
f 54/138/110 57/144/110 127/275/110 118/257/110
f 118/257/111 127/275/111 128/276/111 119/259/111
f 119/259/112 128/276/112 129/277/112 120/261/112
f 2/5/113 108/230/113 123/267/113 126/274/113
f 126/274/114 123/267/114 122/265/114 125/272/114
f 125/272/115 122/265/115 121/263/115 124/270/115
f 108/229/116 54/137/116 118/258/116 123/268/116
f 123/268/117 118/258/117 119/260/117 122/266/117
f 122/266/118 119/260/118 120/262/118 121/264/118
f 54/138/119 142/302/119 141/300/119 53/134/119
f 142/302/120 143/304/120 140/298/120 141/300/120
f 143/304/121 144/306/121 139/296/121 140/298/121
f 4/12/122 133/284/122 142/303/122 54/139/122
f 133/284/123 134/286/123 143/305/123 142/303/123
f 134/286/124 135/288/124 144/307/124 143/305/124
f 53/135/125 141/301/125 138/294/125 52/131/125
f 141/301/126 140/299/126 137/292/126 138/294/126
f 140/299/127 139/297/127 136/290/127 137/292/127
f 52/132/128 138/295/128 133/285/128 4/13/128
f 138/295/129 137/293/129 134/287/129 133/285/129
f 137/293/130 136/291/130 135/289/130 134/287/130
f 105/223/131 1/3/131 88/195/131 59/147/131 108/230/131 2/5/131
f 86/192/132 85/188/132 83/185/132
f 83/185/133 85/188/133 18/46/133 23/58/133
f 63/153/134 15/39/134 23/59/134 18/47/134 12/32/134
f 84/187/135 18/48/135 85/189/135
l 52 106
