# Blender 3.3.1
# www.blender.org
mtllib monstruo_3_grande_caminar570.mtl
o monstruo_grande
v 0.478740 1.988519 0.292023
v 0.527498 1.126931 0.041391
v -0.652318 1.834068 0.105879
v -0.278959 1.209717 0.224163
v 0.781209 2.249323 0.040827
v 0.613219 1.605954 -0.225800
v -0.717254 2.032260 -0.343152
v -0.673397 1.711339 -0.362652
v -0.248293 2.435925 0.391736
v 0.290502 2.293485 0.443144
v -0.395446 2.419147 0.477889
v -1.071366 2.129040 -0.262446
v -0.189624 2.582769 0.032430
v 0.347333 2.411427 0.173924
v -0.956182 1.992330 -0.078773
v -0.344099 2.670799 0.036043
v -0.764239 2.362625 0.440198
v -1.402759 2.086170 -0.054570
v -1.159724 2.114149 0.187692
v -0.874296 2.685308 0.145841
v -0.526737 2.730635 0.082895
v -0.478088 2.376797 0.444276
v -1.084777 2.022308 -0.107244
v -1.888034 0.868776 0.591936
v -1.773137 0.845604 0.659995
v -1.724543 0.668657 0.465131
v -1.794673 0.682801 0.423590
v 0.406060 2.192901 0.449010
v 0.610007 2.373092 0.258059
v 0.394761 2.313650 0.454424
v 0.471917 2.427599 0.236628
v 0.673580 1.916551 0.410927
v 0.884201 1.921070 0.364999
v 0.692809 1.967982 0.454547
v 0.842340 2.062449 0.367993
v 0.718997 1.744273 0.645095
v 0.833190 1.724335 0.632173
v 0.741134 1.774660 0.744291
v 0.853302 1.758147 0.724680
v 0.663768 1.662839 0.766864
v 0.897236 1.629307 0.729947
v 0.641383 1.705692 0.957931
v 0.992623 1.649817 0.896398
v -0.084915 2.473395 0.430772
v 0.122000 2.435898 0.436278
v -0.053327 2.560986 0.180710
v 0.147879 2.518263 0.188351
v -0.031853 2.787055 0.568404
v 0.173984 2.715211 0.548877
v -0.020774 2.889188 0.309939
v 0.184756 2.817375 0.289542
v -0.498985 1.188063 0.042200
v -0.406147 1.158457 -0.179226
v -0.039904 1.265994 -0.336926
v -0.688650 1.865389 -0.122400
v 0.539903 1.234237 -0.170235
v 0.320032 1.280191 -0.280924
v 0.042425 1.514062 -0.335329
v -0.020058 1.119285 0.183216
v 0.591536 2.060608 0.211880
v -0.221169 2.487428 0.265761
v -0.373821 2.660963 0.305547
v -0.874409 2.044460 -0.175323
v 0.298640 2.413628 0.330728
v -0.761526 2.589381 0.392776
v -1.328766 2.232873 0.198260
v -0.526507 2.658175 0.282456
v -1.847336 0.856386 0.653970
v -1.725725 0.559794 0.347687
v 0.524230 2.296799 0.398091
v 0.436479 2.418078 0.365633
v 0.763159 1.880513 0.349779
v 0.785591 2.026589 0.462759
v 0.775268 1.735112 0.635821
v 0.797240 1.765735 0.734462
v 0.774954 1.633992 0.726883
v 0.806838 1.657055 0.887941
v -0.070957 2.516286 0.303935
v 0.132592 2.478516 0.311035
v -0.057645 2.840328 0.438923
v 0.210701 2.764400 0.420034
v -1.633219 1.167330 0.626815
v -1.683341 0.994311 0.551103
v -1.832672 1.178499 0.511235
v -1.791486 1.016122 0.487043
v -1.727947 0.838128 0.446202
v -1.764933 1.154070 0.616212
v -0.036812 1.793757 0.475822
v 0.230288 2.118190 -0.231054
v 0.167459 2.510766 0.011005
v 0.023571 2.312000 0.569538
v 0.042083 2.538944 0.182170
v 0.023804 2.453042 0.432424
v 0.083628 2.868337 0.260455
v 0.069386 2.735812 0.597307
v 0.079891 2.853692 0.450191
v 0.180187 2.678611 0.214203
v 0.163578 2.565934 0.509915
v -0.072913 2.622849 0.521972
v -0.057849 2.737495 0.223839
v -0.082660 2.681739 0.372916
v 0.186771 2.622137 0.362011
v 0.061177 2.715623 0.198035
v 0.045185 2.585496 0.536316
v 0.574496 1.619990 0.086491
v -0.571512 1.548394 0.159957
v 0.681328 1.811290 -0.182255
v 0.173242 1.065372 0.158797
v -0.235994 0.040919 0.262895
v -0.376116 0.076363 0.385430
v -0.407733 0.050206 0.136565
v -0.274223 0.028993 0.121178
v 0.353254 -0.037118 -0.271052
v 0.278218 -0.043287 -0.345606
v 0.361745 -0.038307 -0.309697
v 0.329660 -0.041338 -0.335306
v 0.294509 -0.038758 -0.259594
v 0.081190 0.899116 -0.260830
v 0.157626 0.587277 -0.272716
v 0.211896 0.282826 -0.291377
v 0.246528 0.230444 -0.120594
v 0.217182 0.459465 -0.004188
v 0.211030 0.724769 0.081195
v 0.368569 0.240568 -0.144011
v 0.423072 0.481168 -0.044206
v 0.494436 0.816411 0.031661
v 0.335799 0.930891 -0.240992
v 0.337419 0.582308 -0.243105
v 0.318845 0.279625 -0.271810
v 0.385863 0.266195 -0.220614
v 0.451162 0.561035 -0.160535
v 0.509394 0.907921 -0.138191
v -0.152114 0.970755 0.369484
v -0.145247 0.686154 0.393498
v -0.149589 0.446153 0.438438
v -0.434669 0.443557 0.436956
v -0.437913 0.705836 0.345122
v -0.450881 0.949091 0.276376
v -0.475465 0.411853 0.169310
v -0.478353 0.673725 0.076663
v -0.492121 0.903496 0.002790
v -0.100324 0.837599 -0.051109
v -0.137851 0.629736 0.028935
v -0.183836 0.435173 0.120866
vn 0.0532 0.5286 -0.8472
vn 0.0092 -0.0146 -0.9999
vn 0.4036 -0.2126 -0.8899
vn -0.3449 -0.1989 0.9173
vn 0.9303 -0.2306 0.2852
vn 0.6496 0.7245 0.2307
vn 0.2560 0.8810 -0.3978
vn 0.4001 -0.2036 0.8936
vn -0.0722 0.9271 0.3679
vn 0.0358 0.4947 -0.8683
vn -0.3149 -0.4069 0.8575
vn -0.4484 -0.8486 -0.2807
vn -0.3764 -0.0828 0.9227
vn 0.1705 -0.8785 0.4463
vn 0.8923 -0.2786 0.3553
vn -0.1556 -0.7227 0.6734
vn 0.1774 0.9674 0.1809
vn -0.1175 -0.7414 0.6607
vn -0.7738 0.2858 0.5654
vn 0.9800 -0.0025 -0.1988
vn -0.7708 0.0532 -0.6348
vn 0.4769 0.7521 0.4548
vn 0.0493 0.1935 0.9799
vn -0.4631 -0.4889 0.7393
vn -0.2037 0.6780 0.7063
vn -0.9690 0.0844 0.2323
vn 0.0921 -0.6421 -0.7611
vn 0.8285 0.5387 0.1529
vn -0.5230 -0.5909 0.6142
vn 0.8557 0.2738 -0.4391
vn -0.2408 0.7419 0.6258
vn 0.9917 0.0615 0.1130
vn 0.1732 -0.8430 -0.5092
vn -0.0438 -0.9879 0.1485
vn -0.0626 -0.7027 -0.7088
vn -0.8273 0.5445 -0.1381
vn 0.3780 0.7936 0.4768
vn 0.9907 -0.0384 -0.1309
vn 0.3108 0.5706 0.7601
vn 0.2023 0.9790 -0.0265
vn -0.2673 0.9162 0.2986
vn 0.4129 0.8854 0.2135
vn 0.0623 0.9773 0.2027
vn -0.9742 0.1369 0.1794
vn 0.2458 -0.3322 0.9106
vn -0.2029 0.4611 -0.8638
vn -0.8246 -0.4915 -0.2800
vn -0.9373 -0.2632 0.2285
vn 0.2250 0.1536 -0.9622
vn -0.9608 0.2505 -0.1189
vn 0.0468 0.8506 0.5237
vn 0.4133 0.7358 0.5365
vn -0.2354 0.9152 0.3270
vn 0.9752 -0.1643 0.1486
vn 0.0545 0.8419 0.5368
vn -0.3456 -0.6658 -0.6613
vn -0.1959 -0.9629 0.1855
vn -0.4498 -0.7835 -0.4287
vn 0.3901 0.6916 0.6079
vn -0.2111 -0.8311 -0.5145
vn -0.0792 0.9969 0.0022
vn 0.5095 0.6142 0.6026
vn 0.4135 0.2665 0.8706
vn -0.2600 0.2476 -0.9333
vn -0.0814 0.1422 0.9865
vn -0.7260 -0.6187 0.3002
vn -0.2925 0.5041 0.8126
vn -0.6829 0.7072 0.1833
vn -0.4402 -0.8260 -0.3521
vn 0.1245 0.3874 0.9135
vn 0.5510 0.5483 0.6291
vn 0.1194 0.3409 0.9325
vn -0.2844 0.6139 -0.7364
vn -0.8648 0.4676 0.1828
vn 0.8991 -0.3254 0.2928
vn 0.4977 0.7016 0.5099
vn 0.3291 0.3784 -0.8652
vn -0.2856 -0.2562 0.9235
vn 0.5126 0.8466 0.1432
vn 0.3855 0.9227 0.0036
vn -0.1560 0.5816 0.7984
vn -0.5328 -0.0650 0.8437
vn 0.3343 0.7148 -0.6142
vn -0.1956 -0.5423 0.8171
vn 0.1246 0.1031 -0.9868
vn 0.9442 -0.3293 -0.0024
vn -0.9882 0.0032 -0.1528
vn -0.0773 0.1674 -0.9829
vn -0.0084 -0.5588 0.8292
vn -0.9999 0.0073 -0.0126
vn 0.9640 -0.2588 -0.0611
vn -0.0713 -0.9919 -0.1052
vn 0.2425 -0.2817 0.9284
vn -0.9614 -0.2324 0.1473
vn -0.9699 -0.1862 0.1568
vn 0.9729 -0.1808 -0.1445
vn -0.1485 0.0461 -0.9878
vn -0.1423 -0.9824 0.1212
vn 0.0370 -0.9981 0.0485
vn 0.1982 -0.4192 0.8860
vn 0.1832 0.1971 -0.9631
vn 0.9726 -0.1360 0.1888
vn 0.6145 0.1746 -0.7693
vn 0.4602 -0.1040 -0.8817
vn 0.5405 -0.0144 -0.8412
vn 0.5988 0.0348 -0.8001
vn 0.9949 -0.0986 0.0200
vn 0.9810 -0.1911 0.0331
vn 0.9653 -0.2439 0.0937
vn 0.1312 -0.1341 -0.9822
vn 0.1110 0.0342 -0.9932
vn 0.1708 0.0866 -0.9815
vn 0.2794 -0.1256 0.9519
vn 0.2345 -0.2758 0.9322
vn 0.2115 -0.4181 0.8835
vn -0.9341 -0.2104 0.2883
vn -0.9617 -0.1734 0.2125
vn -0.9736 -0.1861 0.1324
vn -0.2023 -0.5233 -0.8278
vn -0.1770 -0.3180 -0.9314
vn -0.1519 -0.3582 -0.9212
vn 0.9317 0.2580 0.2558
vn 0.9954 -0.0439 0.0856
vn 0.9920 -0.1233 -0.0269
vn -0.9947 -0.0098 -0.1022
vn -0.9886 -0.0105 0.1505
vn -0.9886 0.0395 0.1451
vn -0.4474 0.4500 0.7729
vn -0.2302 0.1600 0.9599
vn -0.0753 0.2621 0.9621
vn 0.3827 -0.2676 0.8843
vn 0.5279 0.3645 -0.7671
vn -0.0710 -0.4699 -0.8799
vn -0.1765 -0.8083 -0.5617
vn -0.7256 -0.0822 -0.6832
vt 0.882279 0.260085
vt 0.436089 0.649131
vt 0.117664 0.305524
vt 0.860974 0.338762
vt 0.079561 0.383885
vt 0.278417 0.728674
vt 0.111517 0.716819
vt 0.301243 0.337859
vt 0.232943 0.387386
vt 0.111517 0.662267
vt 0.671871 0.687525
vt 0.175114 0.511099
vt 0.930991 0.712692
vt 0.796001 0.259488
vt 0.522181 0.649131
vt 0.719621 0.316178
vt 0.801110 0.310020
vt 0.698705 0.366293
vt 0.510656 0.337024
vt 0.023033 0.717149
vt 0.367094 0.730187
vt 0.507246 0.358198
vt 0.018976 0.695717
vt 0.103380 0.570561
vt 0.268725 0.266033
vt 0.143950 0.273348
vt 0.098384 0.631539
vt 0.301351 0.259488
vt 0.128079 0.559933
vt 0.480438 0.333338
vt 0.348619 0.714075
vt 0.604958 0.268707
vt 0.031105 0.562973
vt 0.043818 0.625810
vt 0.721993 0.282954
vt 0.329365 0.336360
vt 0.302724 0.713315
vt 0.030374 0.549675
vt 0.582817 0.260846
vt 0.875347 0.642471
vt 0.380514 0.272320
vt 0.124895 0.517524
vt 0.813390 0.578569
vt 0.436089 0.332372
vt 0.956124 0.588845
vt 0.367094 0.692599
vt 0.367094 0.522797
vt 0.871643 0.594841
vt 0.398138 0.324445
vt 0.043891 0.509019
vt 0.796001 0.641153
vt 0.491075 0.268473
vt 0.032114 0.534706
vt 0.552485 0.259488
vt 0.331566 0.259909
vt 0.129819 0.544964
vt 0.339759 0.337186
vt 0.913298 0.588845
vt 0.317584 0.707220
vt 0.845734 0.463378
vt 0.311567 0.646434
vt 0.944558 0.353645
vt 0.398138 0.462439
vt 0.920230 0.354337
vt 0.870057 0.463781
vt 0.929709 0.374247
vt 0.357807 0.478584
vt 0.347994 0.663056
vt 0.944558 0.373825
vt 0.097076 0.285727
vt 0.229765 0.651022
vt 0.758050 0.297859
vt 0.168317 0.651042
vt 0.119329 0.272208
vt 0.094178 0.643292
vt 0.222768 0.636959
vt 0.746872 0.283208
vt 0.174541 0.636975
vt 0.045175 0.638147
vt 0.080672 0.327471
vt 0.442544 0.673801
vt 0.734592 0.339187
vt 0.484453 0.673801
vt 0.070725 0.319456
vt 0.218298 0.685110
vt 0.751374 0.331694
vt 0.180611 0.684911
vt 0.062412 0.356092
vt 0.455575 0.702696
vt 0.724658 0.367821
vt 0.476314 0.702696
vt 0.043357 0.357400
vt 0.210236 0.723455
vt 0.742364 0.370210
vt 0.189444 0.723462
vt 0.050281 0.367705
vt 0.444942 0.715336
vt 0.810526 0.722486
vt 0.728448 0.380153
vt 0.853695 0.722486
vt 0.487920 0.715336
vt 0.018975 0.371756
vt 0.232852 0.738567
vt 0.796001 0.739289
vt 0.758050 0.386241
vt 0.861207 0.739289
vt 0.167770 0.738589
vt 0.100634 0.583041
vt 0.712300 0.698974
vt 0.802197 0.701507
vt 0.098640 0.600731
vt 0.972705 0.287497
vt 0.747907 0.696578
vt 0.052045 0.577939
vt 0.849895 0.701507
vt 0.710445 0.675017
vt 0.050052 0.595630
vt 0.746553 0.677603
vt 0.924885 0.287497
vt 0.797725 0.671259
vt 0.981025 0.313792
vt 0.715147 0.730011
vt 0.752543 0.724602
vt 0.973919 0.259495
vt 0.967002 0.332143
vt 0.934252 0.306472
vt 0.715328 0.644023
vt 0.847669 0.671259
vt 0.923848 0.259495
vt 0.753088 0.649631
vt 0.920230 0.324823
vt 0.068284 0.665533
vt 0.630362 0.705721
vt 0.712055 0.621316
vt 0.966165 0.712391
vt 0.519769 0.388732
vt 0.031375 0.663704
vt 0.592215 0.695479
vt 0.581836 0.620019
vt 0.750017 0.621843
vt 0.569690 0.667298
vt 0.581066 0.387596
vt 0.531739 0.516092
vt 0.642835 0.625048
vt 0.273616 0.509019
vt 0.070982 0.710642
vt 0.316851 0.732164
vt 0.684917 0.393810
vt 0.816625 0.338063
vt 0.644803 0.392946
vt 0.602800 0.367236
vt 0.671871 0.661666
vt 0.181146 0.386242
vt 0.855113 0.259897
vt 0.463196 0.649131
vt 0.077903 0.567886
vt 0.078993 0.554271
vt 0.322237 0.720993
vt 0.070972 0.628379
vt 0.834014 0.651825
vt 0.084160 0.512738
vt 0.838315 0.596273
vt 0.320679 0.509019
vt 0.080733 0.539302
vt 0.857365 0.464048
vt 0.931678 0.351118
vt 0.335174 0.488977
vt 0.367094 0.673623
vt 0.939667 0.384854
vt 0.199177 0.651021
vt 0.069465 0.641494
vt 0.198664 0.632807
vt 0.464209 0.672968
vt 0.199604 0.684998
vt 0.465945 0.702696
vt 0.199840 0.723459
vt 0.466714 0.715004
vt 0.832520 0.720483
vt 0.200177 0.738589
vt 0.829423 0.735282
vt 0.076340 0.580490
vt 0.826046 0.701507
vt 0.074346 0.598181
vt 0.948795 0.287497
vt 0.823088 0.670800
vt 0.959731 0.307426
vt 0.948976 0.259488
vt 0.941524 0.331189
vt 0.875347 0.491894
vt 0.391834 0.432095
vt 0.377694 0.448634
vt 0.915590 0.478791
vt 0.834644 0.488373
vt 0.326937 0.619279
vt 0.938593 0.478810
vt 0.335216 0.632947
vt 0.358601 0.463790
vt 0.348787 0.648138
vt 0.927106 0.463378
vt 0.854274 0.489560
vt 0.315804 0.619182
vt 0.212520 0.321385
vt 0.644070 0.318501
vt 0.018976 0.592450
vt 0.663817 0.276029
vt 0.129819 0.597828
vt 0.224108 0.269832
vt 0.051049 0.586785
vt 0.728499 0.676310
vt 0.099637 0.591886
vt 0.730103 0.697776
vt 0.734390 0.646904
vt 0.920230 0.314550
vt 0.981025 0.324065
vt 0.732426 0.727384
vt 0.950683 0.319044
vt 0.753088 0.663662
vt 0.920230 0.273492
vt 0.977552 0.273492
vt 0.752543 0.710647
vt 0.709822 0.714522
vt 0.796001 0.686127
vt 0.853178 0.686127
vt 0.709822 0.659561
vt 0.824792 0.685890
vt 0.948939 0.273488
vt 0.731549 0.661651
vt 0.730449 0.712624
vt 0.878850 0.297575
vt 0.096711 0.342677
vt 0.285581 0.357771
vt 0.108549 0.696221
vt 0.804979 0.293594
vt 0.708839 0.350023
vt 0.668288 0.644023
vt 0.436089 0.526409
vt 0.145034 0.385321
vt 0.919159 0.607821
vt 0.247387 0.613831
vt 0.970304 0.416607
vt 0.947808 0.608020
vt 0.704660 0.516092
vt 0.970304 0.403829
vt 0.750017 0.516884
vt 0.618892 0.516092
vt 0.920230 0.404231
vt 0.273616 0.612878
vt 0.642836 0.516847
vt 0.938584 0.415207
vt 0.924281 0.443436
vt 0.075400 0.489812
vt 0.855524 0.444402
vt 0.531739 0.629156
vt 0.934913 0.435583
vt 0.576828 0.496673
vt 0.931440 0.443424
vt 0.848383 0.444289
vt 0.592622 0.497116
vt 0.934913 0.440184
vt 0.586164 0.496977
vt 0.517161 0.630156
vt 0.920230 0.438606
vt 0.085942 0.490043
vt 0.585376 0.420489
vt 0.510472 0.551446
vt 0.582586 0.444044
vt 0.504260 0.576063
vt 0.581388 0.469636
vt 0.508131 0.602400
vt 0.103684 0.463024
vt 0.477645 0.604263
vt 0.118194 0.440373
vt 0.454885 0.581958
vt 0.129418 0.415411
vt 0.438452 0.557360
vt 0.876897 0.417052
vt 0.081901 0.462161
vt 0.882279 0.393921
vt 0.081653 0.438865
vt 0.880271 0.363315
vt 0.079604 0.408162
vt 0.633117 0.418943
vt 0.615530 0.444447
vt 0.600997 0.469910
vt 0.614559 0.469949
vt 0.862035 0.416811
vt 0.638313 0.444473
vt 0.857648 0.390640
vt 0.666106 0.417503
vt 0.844696 0.362700
vt 0.167770 0.536691
vt 0.914144 0.688660
vt 0.182151 0.561697
vt 0.913298 0.663084
vt 0.189855 0.582503
vt 0.915415 0.641729
vt 0.680787 0.549268
vt 0.966165 0.641681
vt 0.684678 0.573659
vt 0.963812 0.665813
vt 0.684995 0.596421
vt 0.964308 0.688427
vt 0.584794 0.548886
vt 0.729850 0.550060
vt 0.578610 0.572959
vt 0.734888 0.574452
vt 0.569690 0.595426
vt 0.736445 0.597214
vt 0.642060 0.590920
vt 0.247172 0.543053
vt 0.641052 0.570535
vt 0.248998 0.562413
vt 0.635978 0.552556
vt 0.245738 0.579271
s 0
usemtl Material
f 89/203/1 7/19/1 13/32/1 90/205/1
f 8/22/2 7/19/2 89/203/2 58/151/2 54/142/2 53/136/2
f 6/18/3 56/148/3 57/150/3
f 3/8/4 106/231/4 4/9/4 59/153/4 88/202/4
f 6/17/5 107/233/5 5/14/5 60/154/5 1/1/5 105/229/5 2/4/5 56/149/5
f 61/156/6 13/33/6 16/38/6 62/157/6
f 5/16/7 14/35/7 31/77/7 29/72/7
f 88/202/8 1/3/8 10/26/8 91/207/8
f 67/164/9 21/53/9 20/50/9 65/161/9
f 13/32/10 7/19/10 12/30/10 16/39/10
f 3/8/11 9/25/11 11/28/11 15/36/11
f 55/147/12 3/6/12 15/37/12 63/158/12
f 66/162/13 19/48/13 17/40/13 65/160/13
f 23/57/14 22/55/14 17/41/14 19/49/14
f 83/191/15 82/190/15 25/63/15 26/67/15
f 15/36/16 11/28/16 22/55/16 23/57/16
f 62/157/17 16/38/17 21/53/17 67/164/17
f 69/169/18 26/66/18 25/64/18 68/166/18
f 87/200/19 84/193/19 24/60/19 68/165/19
f 86/197/20 83/191/20 26/67/20 69/167/20
f 84/194/21 85/196/21 27/68/21 24/61/21
f 70/170/22 29/73/22 31/78/22 71/172/22
f 70/170/23 28/71/23 34/85/23 73/174/23
f 10/26/24 1/3/24 28/70/24 30/74/24
f 64/159/25 10/27/25 30/75/25 71/171/25
f 34/84/26 32/80/26 36/88/26 38/92/26
f 60/155/27 5/15/27 33/83/27 72/173/27
f 5/16/28 29/72/28 35/86/28 33/82/28
f 28/70/29 1/3/29 32/80/29 34/84/29
f 37/90/30 39/94/30 43/105/30 41/99/30
f 73/174/31 34/85/31 38/93/31 75/176/31
f 33/82/32 35/86/32 39/94/32 37/90/32
f 72/173/33 33/83/33 37/91/33 74/175/33
f 76/178/34 41/100/34 43/106/34 77/180/34
f 74/175/35 37/91/35 41/101/35 76/177/35
f 38/92/36 36/88/36 40/96/36 42/102/36
f 75/176/37 38/93/37 42/103/37 77/179/37
f 102/226/38 97/218/38 51/129/38 81/187/38
f 91/206/39 10/27/39 45/111/39 93/210/39
f 90/204/40 13/33/40 46/114/40 92/208/40
f 61/156/41 9/24/41 44/108/41 78/181/41
f 64/159/42 14/34/42 47/117/42 79/183/42
f 96/216/43 94/213/43 50/126/43 80/186/43
f 101/225/44 99/222/44 48/120/44 80/185/44
f 104/228/45 98/220/45 49/123/45 95/215/45
f 103/227/46 100/224/46 50/127/46 94/212/46
f 8/23/47 53/137/47 52/132/47
f 8/23/48 52/132/48 4/10/48 106/232/48 3/7/48 55/146/48 7/20/48
f 54/142/49 58/151/49 89/203/49 5/16/49 107/234/49 6/18/49 57/150/49
f 100/223/50 101/225/50 80/185/50 50/128/50
f 95/214/51 96/216/51 80/186/51 48/121/51
f 10/27/52 64/159/52 79/183/52 45/111/52
f 13/33/53 61/156/53 78/181/53 46/114/53
f 98/219/54 102/226/54 81/187/54 49/124/54
f 39/95/55 75/176/55 77/179/55 43/107/55
f 36/89/56 74/175/56 76/177/56 40/97/56
f 40/98/57 76/178/57 77/180/57 42/104/57
f 32/81/58 72/173/58 74/175/58 36/89/58
f 35/87/59 73/174/59 75/176/59 39/95/59
f 1/2/60 60/155/60 72/173/60 32/81/60
f 14/34/61 64/159/61 71/171/61 31/79/61
f 29/73/62 70/170/62 73/174/62 35/87/62
f 28/71/63 70/170/63 71/172/63 30/76/63
f 85/196/64 86/198/64 69/168/64 27/68/64
f 82/189/65 87/200/65 68/165/65 25/65/65
f 27/69/66 69/169/66 68/166/66 24/62/66
f 11/29/67 62/157/67 67/164/67 22/56/67
f 18/43/68 66/162/68 65/160/68 20/51/68
f 7/21/69 55/147/69 63/158/69 12/31/69
f 22/56/70 67/164/70 65/161/70 17/42/70
f 9/24/71 61/156/71 62/157/71 11/29/71
f 19/48/72 66/162/72 87/200/72 82/189/72
f 12/30/73 18/44/73 20/52/73 21/54/73 16/39/73
f 66/163/74 18/47/74 84/194/74 87/201/74
f 23/57/75 19/49/75 82/190/75 83/191/75
f 49/125/76 81/188/76 96/216/76 95/214/76
f 97/217/77 103/227/77 94/212/77 51/130/77
f 99/221/78 104/228/78 95/215/78 48/122/78
f 81/188/79 51/131/79 94/213/79 96/216/79
f 14/34/80 90/204/80 92/208/80 47/117/80
f 9/24/81 91/206/81 93/210/81 44/108/81
f 3/8/82 88/202/82 91/207/82 9/25/82
f 5/16/83 89/203/83 90/205/83 14/35/83
f 44/109/84 93/211/84 104/228/84 99/221/84
f 47/118/85 92/209/85 103/227/85 97/217/85
f 45/112/86 79/184/86 102/226/86 98/219/86
f 46/115/87 78/182/87 101/225/87 100/223/87
f 92/209/88 46/116/88 100/224/88 103/227/88
f 93/211/89 45/113/89 98/220/89 104/228/89
f 78/182/90 44/110/90 99/222/90 101/225/90
f 79/184/91 47/119/91 97/218/91 102/226/91
f 59/152/92 4/11/92 52/133/92 53/138/92 54/141/92 108/235/92
f 136/298/93 110/241/93 109/238/93 135/296/93
f 121/271/94 120/269/94 114/253/94 117/261/94
f 139/304/95 111/244/95 110/242/95 136/297/95
f 135/295/96 109/239/96 112/247/96 144/314/96
f 144/313/97 112/248/97 111/245/97 139/303/97
f 111/246/98 112/249/98 109/240/98 110/243/98
f 117/262/99 114/254/99 116/259/99 115/256/99 113/250/99
f 124/277/100 121/270/100 117/263/100 113/251/100
f 120/268/101 129/284/101 116/260/101 114/255/101
f 130/286/102 124/276/102 113/252/102 115/257/102
f 129/284/103 130/285/103 115/258/103 116/260/103
f 57/150/104 56/148/104 132/289/104 127/282/104
f 127/282/105 132/289/105 131/287/105 128/283/105
f 128/283/106 131/287/106 130/285/106 129/284/106
f 56/149/107 2/4/107 126/280/107 132/290/107
f 132/290/108 126/280/108 125/278/108 131/288/108
f 131/288/109 125/278/109 124/276/109 130/286/109
f 54/142/110 57/150/110 127/282/110 118/264/110
f 118/264/111 127/282/111 128/283/111 119/266/111
f 119/266/112 128/283/112 129/284/112 120/268/112
f 2/5/113 108/237/113 123/274/113 126/281/113
f 126/281/114 123/274/114 122/272/114 125/279/114
f 125/279/115 122/272/115 121/270/115 124/277/115
f 108/236/116 54/143/116 118/265/116 123/275/116
f 123/275/117 118/265/117 119/267/117 122/273/117
f 122/273/118 119/267/118 120/269/118 121/271/118
f 54/144/119 142/309/119 141/307/119 53/139/119
f 142/309/120 143/311/120 140/305/120 141/307/120
f 143/311/121 144/313/121 139/303/121 140/305/121
f 4/12/122 133/291/122 142/310/122 54/145/122
f 133/291/123 134/293/123 143/312/123 142/310/123
f 134/293/124 135/295/124 144/314/124 143/312/124
f 53/140/125 141/308/125 138/301/125 52/134/125
f 141/308/126 140/306/126 137/299/126 138/301/126
f 140/306/127 139/304/127 136/297/127 137/299/127
f 52/135/128 138/302/128 133/292/128 4/13/128
f 138/302/129 137/300/129 134/294/129 133/292/129
f 137/300/130 136/298/130 135/296/130 134/294/130
f 105/230/131 1/3/131 88/202/131 59/153/131 108/237/131 2/5/131
f 86/199/132 85/195/132 83/192/132
f 83/192/133 85/195/133 18/45/133 23/58/133
f 63/158/134 15/37/134 23/59/134 18/46/134 12/31/134
f 84/194/135 18/47/135 85/196/135
l 52 106
