# Blender 3.3.1
# www.blender.org
mtllib monstruo_3_caminar605.mtl
o monstruo_grande
v 0.311019 2.045561 0.171922
v 0.526352 1.210154 0.085405
v -0.733387 1.726572 0.173312
v -0.291538 1.129310 0.224456
v 0.465222 2.334446 -0.170067
v 0.508044 1.638978 -0.265232
v -0.869138 1.924799 -0.258352
v -0.756552 1.640571 -0.314792
v -0.379475 2.399846 0.420446
v 0.183156 2.318735 0.383761
v -0.512604 2.368422 0.523250
v -1.235863 1.967854 -0.108315
v -0.377606 2.547467 0.054876
v 0.167539 2.454087 0.122226
v -1.083379 1.846094 0.062057
v -0.541310 2.613537 0.072327
v -0.868564 2.279862 0.541821
v -1.530695 1.905400 0.153849
v -1.260383 1.969239 0.361722
v -1.053006 2.568537 0.248825
v -0.724196 2.649529 0.135222
v -0.590251 2.321837 0.503939
v -1.216766 1.865806 0.057804
v -1.815434 0.684337 0.904882
v -1.689674 0.669564 0.953219
v -1.667395 0.481752 0.763815
v -1.744155 0.490770 0.734312
v 0.336902 2.233634 0.358566
v 0.430284 2.430379 0.101139
v 0.296243 2.350917 0.374527
v 0.299184 2.481441 0.146725
v 0.553260 1.915755 0.139958
v 0.669570 2.018209 -0.031106
v 0.581915 1.993391 0.195278
v 0.660524 2.112880 0.045223
v 0.710042 1.693657 0.052052
v 0.792347 1.726194 -0.019080
v 0.782886 1.633579 0.098970
v 0.864314 1.678529 0.029887
v 0.699251 1.538004 0.045402
v 0.871870 1.627444 -0.095185
v 0.781262 1.393622 0.151574
v 1.034253 1.528589 -0.067647
v -0.218387 2.458493 0.441661
v -0.007300 2.436453 0.426836
v -0.219992 2.549250 0.190571
v -0.017610 2.528506 0.180208
v -0.162171 2.771882 0.585530
v 0.043033 2.706438 0.546544
v -0.175347 2.883282 0.330986
v 0.028430 2.818393 0.290915
v -0.499608 1.127567 0.013095
v -0.387344 1.143784 -0.201594
v -0.052065 1.262221 -0.335439
v -0.790114 1.758407 -0.052305
v 0.549009 1.226487 -0.152652
v 0.329882 1.221231 -0.278222
v -0.017704 1.515243 -0.338101
v -0.012186 1.150299 0.198291
v 0.363706 2.132494 0.055507
v -0.372460 2.452482 0.292112
v -0.540731 2.606194 0.347243
v -1.013759 1.907985 -0.062195
v 0.151359 2.443131 0.282058
v -0.899616 2.501800 0.480925
v -1.438898 2.069204 0.390303
v -0.692972 2.584887 0.340635
v -1.764212 0.677457 0.959536
v -1.683859 0.365337 0.655086
v 0.422050 2.340778 0.258286
v 0.297754 2.462039 0.281961
v 0.565797 1.955661 0.013133
v 0.663394 2.062662 0.149670
v 0.750707 1.714223 0.017033
v 0.823298 1.655138 0.063953
v 0.766810 1.592378 -0.039876
v 0.875384 1.480500 0.016543
v -0.219789 2.503270 0.315103
v -0.013985 2.483700 0.302905
v -0.199884 2.828973 0.460682
v 0.067340 2.761366 0.416965
v -1.571833 0.992828 0.877065
v -1.626492 0.813591 0.821692
v -1.788421 0.988727 0.796920
v -1.744862 0.827496 0.776196
v -1.681462 0.649382 0.735663
v -1.702703 0.974536 0.890306
v -0.086901 1.789586 0.486286
v 0.037791 2.142480 -0.236824
v -0.019240 2.523524 -0.000450
v -0.053995 2.300224 0.566485
v -0.120806 2.537675 0.183781
v -0.108657 2.444898 0.433552
v -0.075811 2.867143 0.272209
v -0.057668 2.722442 0.604110
v -0.062254 2.845692 0.461151
v 0.018733 2.683768 0.210471
v 0.032410 2.559520 0.502748
v -0.203337 2.608128 0.536441
v -0.219333 2.732083 0.241509
v -0.227469 2.671561 0.390925
v 0.041121 2.621731 0.355489
v -0.101920 2.715930 0.205408
v -0.083311 2.573838 0.539676
v 0.365986 1.746378 -0.035674
v -0.599746 1.456748 0.202691
v 0.488235 1.863548 -0.269804
v 0.178454 1.168649 0.198744
v -0.187380 0.005334 -0.038748
v -0.331247 0.011345 0.084234
v -0.358247 0.010518 -0.165520
v -0.223153 0.005483 -0.180872
v 0.369013 0.081856 -0.121131
v 0.294524 0.087985 -0.196051
v 0.377821 0.085632 -0.159579
v 0.345900 0.087104 -0.185510
v 0.310188 0.080552 -0.110165
v 0.108328 0.882094 -0.099175
v 0.171707 0.692137 -0.065457
v 0.229067 0.398299 -0.109807
v 0.270772 0.341390 0.057872
v 0.240650 0.566008 0.182377
v 0.231824 0.828359 0.276227
v 0.391659 0.354982 0.030558
v 0.444700 0.594905 0.141511
v 0.512616 0.916206 0.209695
v 0.362607 0.914359 -0.081410
v 0.352223 0.691828 -0.042204
v 0.336609 0.396810 -0.094143
v 0.405673 0.383333 -0.045755
v 0.468749 0.673681 0.036604
v 0.531969 0.939633 0.023845
v -0.171286 0.866036 0.322821
v -0.143391 0.572801 0.259193
v -0.136904 0.331327 0.220629
v -0.421682 0.319594 0.205536
v -0.434326 0.595497 0.204753
v -0.458701 0.851720 0.198627
v -0.452932 0.368995 -0.058805
v -0.463077 0.644424 -0.060103
v -0.472575 0.862451 -0.078477
v -0.075682 0.826144 -0.104799
v -0.119256 0.628524 -0.100138
v -0.161231 0.416659 -0.084776
vn -0.1011 0.5111 -0.8535
vn -0.0583 0.0356 -0.9977
vn 0.4921 -0.1834 -0.8510
vn -0.2414 -0.2619 0.9344
vn 0.9289 0.0846 0.3605
vn 0.5687 0.8078 0.1550
vn 0.0507 0.9158 -0.3984
vn 0.6551 -0.1928 0.7305
vn -0.1276 0.9338 0.3343
vn -0.1689 0.4908 -0.8547
vn -0.0976 -0.4503 0.8875
vn -0.3665 -0.8953 -0.2533
vn -0.2367 -0.0567 0.9699
vn 0.3341 -0.8214 0.4623
vn 0.9513 -0.2246 0.2110
vn 0.0056 -0.6836 0.7298
vn 0.0674 0.9874 0.1435
vn 0.0302 -0.6993 0.7142
vn -0.6793 0.2976 0.6708
vn 0.9307 0.0167 -0.3655
vn -0.8695 -0.0152 -0.4937
vn 0.5881 0.7513 0.2995
vn 0.5789 0.1201 0.8065
vn -0.1708 -0.5505 0.8172
vn -0.0954 0.6261 0.7739
vn -0.5493 -0.5397 0.6380
vn -0.4009 -0.4830 -0.7785
vn 0.8210 0.5380 -0.1911
vn -0.1875 -0.6400 0.7451
vn 0.5730 0.7703 -0.2800
vn 0.5268 0.0464 0.8487
vn 0.7770 0.3517 -0.5221
vn -0.3718 -0.2412 -0.8965
vn -0.2219 -0.5935 -0.7736
vn -0.5669 0.2311 -0.7907
vn -0.6219 0.1096 0.7754
vn 0.7486 0.0993 0.6556
vn 0.9743 -0.0111 -0.2252
vn 0.3785 0.5961 0.7081
vn 0.0689 0.9957 -0.0617
vn -0.3520 0.8769 0.3274
vn 0.3453 0.9177 0.1965
vn 0.0548 0.9710 0.2328
vn -0.9579 0.1064 0.2666
vn 0.3305 -0.3601 0.8724
vn -0.2865 0.4914 -0.8224
vn -0.6873 -0.6031 -0.4049
vn -0.8718 -0.4377 0.2198
vn 0.0863 0.0879 -0.9924
vn -0.9720 0.2344 -0.0174
vn 0.0693 0.8325 0.5497
vn 0.4253 0.7538 0.5009
vn -0.3266 0.8790 0.3473
vn 0.9875 -0.1473 0.0554
vn 0.5166 -0.0288 0.8558
vn -0.7754 0.1268 -0.6186
vn -0.3275 -0.6677 -0.6685
vn -0.7619 -0.4835 -0.4311
vn 0.8556 0.3209 0.4062
vn -0.5475 -0.6727 -0.4976
vn -0.1712 0.9811 0.0907
vn 0.7860 0.5384 0.3039
vn 0.6530 0.3391 0.6772
vn -0.4266 0.1762 -0.8871
vn 0.0825 0.2047 0.9753
vn -0.6359 -0.6211 0.4582
vn -0.2415 0.5003 0.8315
vn -0.7304 0.6354 0.2506
vn -0.3639 -0.8661 -0.3426
vn 0.2009 0.4562 0.8669
vn 0.5460 0.6247 0.5582
vn 0.2215 0.3790 0.8985
vn -0.4519 0.5348 -0.7140
vn -0.8725 0.3920 0.2917
vn 0.9576 -0.2400 0.1593
vn 0.5213 0.6965 0.4931
vn 0.2435 0.4199 -0.8743
vn -0.2012 -0.2963 0.9337
vn 0.5011 0.8556 0.1297
vn 0.2726 0.9617 -0.0290
vn -0.1285 0.5284 0.8392
vn -0.4278 -0.1083 0.8973
vn 0.0571 0.7437 -0.6661
vn -0.1020 -0.5721 0.8138
vn 0.0339 0.1482 -0.9884
vn 0.9504 -0.2909 -0.1103
vn -0.9994 -0.0084 -0.0322
vn -0.1651 0.2029 -0.9652
vn 0.0970 -0.5991 0.7948
vn -0.9962 -0.0223 0.0846
vn 0.9513 -0.2431 -0.1895
vn 0.1447 -0.9779 -0.1511
vn 0.2187 -0.4920 0.8427
vn -0.9572 -0.2446 0.1545
vn -0.9530 -0.2921 0.0804
vn 0.9859 -0.0792 -0.1475
vn -0.1179 0.2483 -0.9615
vn -0.0359 -0.9993 0.0075
vn 0.0072 -0.9963 -0.0859
vn 0.2200 -0.4960 0.8400
vn 0.1599 0.2896 -0.9437
vn 0.9762 -0.1563 0.1504
vn 0.5982 0.2400 -0.7646
vn 0.4805 -0.4577 -0.7481
vn 0.5365 -0.1688 -0.8268
vn 0.5745 0.1089 -0.8112
vn 0.9951 -0.0017 0.0985
vn 0.9724 -0.2234 0.0666
vn 0.9697 -0.2358 0.0643
vn 0.0936 -0.5120 -0.8539
vn 0.1044 -0.1601 -0.9816
vn 0.1330 0.1691 -0.9766
vn 0.2025 0.3083 0.9295
vn 0.2719 -0.2829 0.9198
vn 0.2393 -0.4483 0.8612
vn -0.9311 -0.1274 0.3418
vn -0.9529 -0.1842 0.2411
vn -0.9631 -0.2152 0.1617
vn -0.1489 -0.4191 -0.8957
vn -0.0925 -0.0475 -0.9946
vn -0.1019 -0.0273 -0.9944
vn 0.9006 0.2806 0.3320
vn 0.9876 -0.0495 0.1493
vn 0.9969 -0.0772 -0.0167
vn -0.9797 -0.0316 -0.1977
vn -0.9952 -0.0674 0.0709
vn -0.9936 -0.0407 0.1051
vn -0.5478 0.2557 0.7966
vn -0.2944 -0.1271 0.9472
vn -0.1210 -0.0767 0.9897
vn 0.5846 -0.0581 0.8093
vn 0.3722 0.3299 -0.8675
vn -0.1616 -0.5046 -0.8481
vn -0.1889 -0.8479 -0.4953
vn -0.8233 -0.1521 -0.5468
vt 0.461701 0.809397
vt 0.301930 0.729761
vt 0.094158 0.499911
vt 0.498737 0.648456
vt 0.250869 0.553264
vt 0.714874 0.752530
vt 0.627854 0.740386
vt 0.227533 0.339544
vt 0.300362 0.438253
vt 0.625828 0.633709
vt 0.338991 0.679376
vt 0.653754 0.621457
vt 0.189641 0.785401
vt 0.531284 0.815038
vt 0.232114 0.729761
vt 0.806952 0.326283
vt 0.527824 0.712310
vt 0.703640 0.331352
vt 0.725736 0.123548
vt 0.557184 0.740386
vt 0.714874 0.681901
vt 0.693091 0.138725
vt 0.558638 0.706064
vt 0.944491 0.391302
vt 0.108931 0.369345
vt 0.090202 0.443431
vt 0.952837 0.467016
vt 0.108059 0.346292
vt 0.960024 0.371234
vt 0.653754 0.712739
vt 0.761990 0.055860
vt 0.265996 0.788213
vt 0.829683 0.188590
vt 0.886815 0.394232
vt 0.909606 0.471204
vt 0.826550 0.267021
vt 0.659457 0.749480
vt 0.206417 0.267620
vt 0.238389 0.812575
vt 0.882743 0.373659
vt 0.837846 0.166681
vt 0.102618 0.289588
vt 0.957957 0.321520
vt 0.918648 0.216117
vt 0.803322 0.012950
vt 0.106348 0.638847
vt 0.232551 0.755661
vt 0.798789 0.485160
vt 0.965752 0.239402
vt 0.153968 0.222285
vt 0.894228 0.312474
vt 0.856067 0.102710
vt 0.881967 0.351902
vt 0.842627 0.144082
vt 0.107159 0.331692
vt 0.958812 0.358201
vt 0.199778 0.246429
vt 0.138792 0.619338
vt 0.232114 0.797406
vt 0.967580 0.012950
vt 0.753483 0.682459
vt 0.843831 0.469074
vt 0.256421 0.022764
vt 0.824689 0.472884
vt 0.987050 0.016155
vt 0.832147 0.505580
vt 0.295109 0.018166
vt 0.782932 0.707368
vt 0.843831 0.503254
vt 0.076417 0.467161
vt 0.958695 0.494573
vt 0.833773 0.298242
vt 0.909847 0.503107
vt 0.076958 0.454690
vt 0.951531 0.482650
vt 0.837149 0.281767
vt 0.912926 0.487172
vt 0.064432 0.532285
vt 0.298790 0.687460
vt 0.825577 0.362572
vt 0.264894 0.686125
vt 0.056614 0.518895
vt 0.959622 0.549977
vt 0.837123 0.350740
vt 0.929664 0.555276
vt 0.051257 0.577890
vt 0.291936 0.641182
vt 0.824256 0.407314
vt 0.275162 0.640522
vt 0.035793 0.577862
vt 0.964581 0.612577
vt 0.838997 0.411720
vt 0.948088 0.615681
vt 0.039898 0.592711
vt 0.301778 0.620707
vt 0.403076 0.772170
vt 0.830596 0.428615
vt 0.403076 0.737417
vt 0.267017 0.619338
vt 0.012950 0.593438
vt 0.987050 0.637067
vt 0.428919 0.781443
vt 0.856067 0.440612
vt 0.428919 0.728949
vt 0.935424 0.646785
vt 0.945356 0.412724
vt 0.357115 0.854737
vt 0.331665 0.779032
vt 0.948027 0.441601
vt 0.799629 0.752473
vt 0.327972 0.853161
vt 0.906904 0.416128
vt 0.370069 0.779032
vt 0.684668 0.778429
vt 0.909575 0.445005
vt 0.655249 0.778999
vt 0.799629 0.791035
vt 0.330193 0.729131
vt 0.557184 0.775635
vt 0.363063 0.804932
vt 0.331684 0.807874
vt 0.754247 0.751428
vt 0.586563 0.768755
vt 0.566112 0.815056
vt 0.689281 0.828405
vt 0.370405 0.729131
vt 0.754247 0.791805
vt 0.657717 0.824383
vt 0.595492 0.808176
vt 0.327830 0.637821
vt 0.590400 0.642651
vt 0.164818 0.789976
vt 0.357235 0.619338
vt 0.642851 0.190721
vt 0.562581 0.649581
vt 0.406824 0.626953
vt 0.080449 0.619338
vt 0.646201 0.239681
vt 0.727583 0.656002
vt 0.597847 0.731399
vt 0.712829 0.722239
vt 0.658284 0.323708
vt 0.527919 0.666449
vt 0.661748 0.291537
vt 0.680225 0.245582
vt 0.377645 0.696957
vt 0.285191 0.477898
vt 0.483372 0.812325
vt 0.280072 0.728266
vt 0.924330 0.393087
vt 0.921760 0.373660
vt 0.678504 0.727397
vt 0.268491 0.812575
vt 0.930826 0.465310
vt 0.923786 0.327561
vt 0.941993 0.227167
vt 0.764056 0.466512
vt 0.919524 0.351927
vt 0.977463 0.013354
vt 0.833186 0.466512
vt 0.317617 0.012950
vt 0.798789 0.722800
vt 0.839639 0.522681
vt 0.934403 0.500152
vt 0.932138 0.484309
vt 0.281656 0.689101
vt 0.944784 0.554368
vt 0.283549 0.640852
vt 0.956335 0.614129
vt 0.284323 0.620942
vt 0.399765 0.754789
vt 0.961112 0.640376
vt 0.422297 0.755187
vt 0.926130 0.414426
vt 0.350867 0.779032
vt 0.928801 0.443303
vt 0.799629 0.771754
vt 0.350773 0.728949
vt 0.557184 0.796361
vt 0.753483 0.771844
vt 0.595492 0.787450
vt 0.985581 0.067358
vt 0.238180 0.070710
vt 0.259592 0.052321
vt 0.138792 0.821791
vt 0.953366 0.057503
vt 0.765454 0.639660
vt 0.120235 0.821584
vt 0.772730 0.660154
vt 0.283154 0.037949
vt 0.784440 0.682652
vt 0.128680 0.843910
vt 0.970110 0.058056
vt 0.758353 0.637393
vt 0.180368 0.432154
vt 0.759258 0.257498
vt 0.884976 0.446549
vt 0.828099 0.241547
vt 0.971226 0.428512
vt 0.101516 0.405509
vt 0.908240 0.430567
vt 0.669958 0.778714
vt 0.946692 0.427163
vt 0.342544 0.853949
vt 0.673120 0.826722
vt 0.582140 0.817526
vt 0.570535 0.766286
vt 0.348248 0.806122
vt 0.576699 0.792002
vt 0.653753 0.802281
vt 0.776512 0.794925
vt 0.776512 0.748700
vt 0.327830 0.829868
vt 0.363063 0.830170
vt 0.327830 0.753980
vt 0.373865 0.753980
vt 0.689281 0.803194
vt 0.351093 0.753886
vt 0.776117 0.771930
vt 0.671321 0.802907
vt 0.345899 0.829874
vt 0.457498 0.727404
vt 0.165986 0.548054
vt 0.260364 0.376248
vt 0.625887 0.695531
vt 0.520555 0.743605
vt 0.734596 0.339638
vt 0.406824 0.703049
vt 0.012950 0.651015
vt 0.277407 0.507014
vt 0.206214 0.619338
vt 0.706517 0.466512
vt 0.399765 0.822801
vt 0.181517 0.620770
vt 0.619265 0.470337
vt 0.422433 0.807343
vt 0.582936 0.466512
vt 0.458892 0.202188
vt 0.422433 0.843958
vt 0.727583 0.468029
vt 0.460639 0.221880
vt 0.402692 0.843997
vt 0.717439 0.778459
vt 0.429089 0.593438
vt 0.518160 0.466685
vt 0.070962 0.817001
vt 0.726094 0.791097
vt 0.457498 0.298878
vt 0.715181 0.783741
vt 0.523936 0.466512
vt 0.458951 0.311476
vt 0.719061 0.788282
vt 0.458165 0.306435
vt 0.058766 0.817583
vt 0.726094 0.778429
vt 0.431598 0.585369
vt 0.599953 0.261833
vt 0.080449 0.668491
vt 0.542336 0.274386
vt 0.076079 0.728305
vt 0.500395 0.287212
vt 0.064936 0.773359
vt 0.389801 0.564275
vt 0.039540 0.774208
vt 0.356388 0.547019
vt 0.031995 0.737396
vt 0.319737 0.531779
vt 0.030523 0.696843
vt 0.505723 0.512116
vt 0.384015 0.580847
vt 0.506522 0.550736
vt 0.346302 0.574833
vt 0.507607 0.604105
vt 0.294291 0.566034
vt 0.610540 0.298468
vt 0.545535 0.300686
vt 0.502363 0.302883
vt 0.504402 0.313331
vt 0.517745 0.511765
vt 0.548610 0.318269
vt 0.527842 0.556627
vt 0.609940 0.323717
vt 0.531284 0.618364
vt 0.660591 0.582499
vt 0.204501 0.743892
vt 0.668589 0.550878
vt 0.206214 0.710848
vt 0.668004 0.517120
vt 0.204545 0.678125
vt 0.623877 0.525891
vt 0.164692 0.675333
vt 0.610236 0.563455
vt 0.167167 0.712219
vt 0.605277 0.597358
vt 0.166352 0.745757
vt 0.511839 0.183186
vt 0.584607 0.521652
vt 0.552303 0.182624
vt 0.569857 0.561129
vt 0.598009 0.178631
vt 0.565182 0.606784
vt 0.592158 0.236754
vt 0.721184 0.600612
vt 0.550092 0.232946
vt 0.722606 0.558204
vt 0.518921 0.225772
vt 0.713819 0.525134
s 0
usemtl Material
f 89/196/1 7/19/1 13/33/1 90/198/1
f 8/22/2 7/19/2 89/196/2 58/145/2 54/138/2 53/134/2
f 6/18/3 56/142/3 57/144/3
f 3/8/4 106/224/4 4/9/4 59/147/4 88/195/4
f 6/17/5 107/226/5 5/14/5 60/148/5 1/1/5 105/222/5 2/4/5 56/143/5
f 61/150/6 13/34/6 16/40/6 62/151/6
f 5/16/7 14/36/7 31/76/7 29/72/7
f 88/195/8 1/3/8 10/26/8 91/200/8
f 67/158/9 21/53/9 20/51/9 65/155/9
f 13/33/10 7/19/10 12/31/10 16/41/10
f 3/8/11 9/25/11 11/28/11 15/38/11
f 55/141/12 3/6/12 15/37/12 63/152/12
f 66/156/13 19/49/13 17/43/13 65/155/13
f 23/57/14 22/55/14 17/42/14 19/50/14
f 83/184/15 82/183/15 25/63/15 26/67/15
f 15/38/16 11/28/16 22/55/16 23/57/16
f 62/151/17 16/40/17 21/53/17 67/158/17
f 69/163/18 26/66/18 25/64/18 68/160/18
f 87/193/19 84/186/19 24/60/19 68/159/19
f 86/190/20 83/184/20 26/67/20 69/161/20
f 84/187/21 85/189/21 27/68/21 24/61/21
f 70/164/22 29/73/22 31/77/22 71/165/22
f 70/164/23 28/71/23 34/83/23 73/167/23
f 10/26/24 1/3/24 28/70/24 30/74/24
f 64/154/25 10/27/25 30/75/25 71/165/25
f 34/82/26 32/78/26 36/86/26 38/90/26
f 60/149/27 5/15/27 33/81/27 72/166/27
f 5/16/28 29/72/28 35/84/28 33/80/28
f 28/70/29 1/3/29 32/78/29 34/82/29
f 37/88/30 39/92/30 43/103/30 41/97/30
f 73/167/31 34/83/31 38/91/31 75/169/31
f 33/80/32 35/84/32 39/92/32 37/88/32
f 72/166/33 33/81/33 37/89/33 74/168/33
f 76/171/34 41/98/34 43/104/34 77/173/34
f 74/168/35 37/89/35 41/99/35 76/170/35
f 38/90/36 36/86/36 40/94/36 42/100/36
f 75/169/37 38/91/37 42/101/37 77/172/37
f 102/219/38 97/211/38 51/127/38 81/180/38
f 91/199/39 10/27/39 45/109/39 93/203/39
f 90/197/40 13/34/40 46/112/40 92/201/40
f 61/150/41 9/24/41 44/106/41 78/174/41
f 64/154/42 14/35/42 47/115/42 79/176/42
f 96/209/43 94/206/43 50/124/43 80/179/43
f 101/218/44 99/215/44 48/118/44 80/178/44
f 104/221/45 98/213/45 49/121/45 95/208/45
f 103/220/46 100/217/46 50/125/46 94/205/46
f 8/23/47 53/135/47 52/131/47
f 8/23/48 52/131/48 4/10/48 106/225/48 3/7/48 55/140/48 7/20/48
f 54/138/49 58/145/49 89/196/49 5/16/49 107/227/49 6/18/49 57/144/49
f 100/216/50 101/218/50 80/178/50 50/126/50
f 95/207/51 96/209/51 80/179/51 48/119/51
f 10/27/52 64/154/52 79/176/52 45/109/52
f 13/34/53 61/150/53 78/174/53 46/112/53
f 98/212/54 102/219/54 81/180/54 49/122/54
f 39/93/55 75/169/55 77/172/55 43/105/55
f 36/87/56 74/168/56 76/170/56 40/95/56
f 40/96/57 76/171/57 77/173/57 42/102/57
f 32/79/58 72/166/58 74/168/58 36/87/58
f 35/85/59 73/167/59 75/169/59 39/93/59
f 1/2/60 60/149/60 72/166/60 32/79/60
f 14/35/61 64/154/61 71/165/61 31/77/61
f 29/73/62 70/164/62 73/167/62 35/85/62
f 28/71/63 70/164/63 71/165/63 30/75/63
f 85/189/64 86/191/64 69/162/64 27/68/64
f 82/182/65 87/193/65 68/159/65 25/65/65
f 27/69/66 69/163/66 68/160/66 24/62/66
f 11/29/67 62/151/67 67/158/67 22/56/67
f 18/44/68 66/156/68 65/155/68 20/51/68
f 7/21/69 55/141/69 63/152/69 12/30/69
f 22/56/70 67/158/70 65/155/70 17/43/70
f 9/24/71 61/150/71 62/151/71 11/29/71
f 19/49/72 66/156/72 87/193/72 82/182/72
f 12/31/73 18/45/73 20/52/73 21/54/73 16/41/73
f 66/157/74 18/48/74 84/187/74 87/194/74
f 23/57/75 19/50/75 82/183/75 83/184/75
f 49/123/76 81/181/76 96/209/76 95/207/76
f 97/210/77 103/220/77 94/205/77 51/128/77
f 99/214/78 104/221/78 95/208/78 48/120/78
f 81/181/79 51/129/79 94/206/79 96/209/79
f 14/35/80 90/197/80 92/201/80 47/115/80
f 9/24/81 91/199/81 93/203/81 44/106/81
f 3/8/82 88/195/82 91/200/82 9/25/82
f 5/16/83 89/196/83 90/198/83 14/36/83
f 44/107/84 93/204/84 104/221/84 99/214/84
f 47/116/85 92/202/85 103/220/85 97/210/85
f 45/110/86 79/177/86 102/219/86 98/212/86
f 46/113/87 78/175/87 101/218/87 100/216/87
f 92/202/88 46/114/88 100/217/88 103/220/88
f 93/204/89 45/111/89 98/213/89 104/221/89
f 78/175/90 44/108/90 99/215/90 101/218/90
f 79/177/91 47/117/91 97/211/91 102/219/91
f 59/146/92 4/11/92 52/130/92 53/133/92 54/136/92 108/228/92
f 136/291/93 110/234/93 109/231/93 135/289/93
f 121/264/94 120/262/94 114/246/94 117/254/94
f 139/297/95 111/237/95 110/235/95 136/290/95
f 135/288/96 109/232/96 112/240/96 144/307/96
f 144/306/97 112/241/97 111/238/97 139/296/97
f 111/239/98 112/242/98 109/233/98 110/236/98
f 117/255/99 114/247/99 116/252/99 115/249/99 113/243/99
f 124/270/100 121/263/100 117/256/100 113/244/100
f 120/261/101 129/277/101 116/253/101 114/248/101
f 130/279/102 124/269/102 113/245/102 115/250/102
f 129/277/103 130/278/103 115/251/103 116/253/103
f 57/144/104 56/142/104 132/282/104 127/275/104
f 127/275/105 132/282/105 131/280/105 128/276/105
f 128/276/106 131/280/106 130/278/106 129/277/106
f 56/143/107 2/4/107 126/273/107 132/283/107
f 132/283/108 126/273/108 125/271/108 131/281/108
f 131/281/109 125/271/109 124/269/109 130/279/109
f 54/138/110 57/144/110 127/275/110 118/257/110
f 118/257/111 127/275/111 128/276/111 119/259/111
f 119/259/112 128/276/112 129/277/112 120/261/112
f 2/5/113 108/230/113 123/267/113 126/274/113
f 126/274/114 123/267/114 122/265/114 125/272/114
f 125/272/115 122/265/115 121/263/115 124/270/115
f 108/229/116 54/137/116 118/258/116 123/268/116
f 123/268/117 118/258/117 119/260/117 122/266/117
f 122/266/118 119/260/118 120/262/118 121/264/118
f 54/138/119 142/302/119 141/300/119 53/134/119
f 142/302/120 143/304/120 140/298/120 141/300/120
f 143/304/121 144/306/121 139/296/121 140/298/121
f 4/12/122 133/284/122 142/303/122 54/139/122
f 133/284/123 134/286/123 143/305/123 142/303/123
f 134/286/124 135/288/124 144/307/124 143/305/124
f 53/135/125 141/301/125 138/294/125 52/131/125
f 141/301/126 140/299/126 137/292/126 138/294/126
f 140/299/127 139/297/127 136/290/127 137/292/127
f 52/132/128 138/295/128 133/285/128 4/13/128
f 138/295/129 137/293/129 134/287/129 133/285/129
f 137/293/130 136/291/130 135/289/130 134/287/130
f 105/223/131 1/3/131 88/195/131 59/147/131 108/230/131 2/5/131
f 86/192/132 85/188/132 83/185/132
f 83/185/133 85/188/133 18/46/133 23/58/133
f 63/153/134 15/39/134 23/59/134 18/47/134 12/32/134
f 84/187/135 18/48/135 85/189/135
l 52 106
