# Blender 3.3.1
# www.blender.org
mtllib monstruo_3_grande_caminar574.mtl
o monstruo_grande
v 0.449490 2.004193 0.254083
v 0.527265 1.135681 0.041565
v -0.666002 1.825604 0.092769
v -0.288136 1.213048 0.221924
v 0.741781 2.262657 -0.012620
v 0.599837 1.612420 -0.226215
v -0.730080 2.012063 -0.361132
v -0.677557 1.690327 -0.382571
v -0.269778 2.438540 0.369689
v 0.274261 2.304669 0.415722
v -0.415994 2.420909 0.457208
v -1.092469 2.102055 -0.265757
v -0.214496 2.582897 0.007941
v 0.322971 2.426097 0.147120
v -0.974432 1.970939 -0.077251
v -0.370854 2.667507 0.009803
v -0.781536 2.363323 0.429733
v -1.421821 2.061203 -0.049514
v -1.176824 2.096058 0.194017
v -0.900618 2.673679 0.125449
v -0.554794 2.722985 0.054217
v -0.496717 2.380058 0.427215
v -1.103718 1.998143 -0.102412
v -1.902399 0.849022 0.610476
v -1.786203 0.824250 0.675708
v -1.747282 0.642960 0.482674
v -1.818205 0.658080 0.442858
v 0.394126 2.207090 0.419703
v 0.588959 2.385372 0.216392
v 0.380167 2.326567 0.425242
v 0.449361 2.442514 0.204860
v 0.649592 1.919329 0.350513
v 0.857840 1.925201 0.288677
v 0.674922 1.973466 0.398901
v 0.819846 2.066268 0.301918
v 0.710348 1.714928 0.560329
v 0.822845 1.702128 0.537901
v 0.737136 1.743474 0.658960
v 0.848626 1.734429 0.631646
v 0.668616 1.626220 0.682531
v 0.900019 1.607613 0.628787
v 0.656302 1.661627 0.876022
v 1.005505 1.630617 0.790149
v -0.107333 2.479679 0.408604
v 0.100522 2.445611 0.413876
v -0.077860 2.565667 0.157208
v 0.123568 2.528023 0.165709
v -0.052472 2.795637 0.544976
v 0.153219 2.723920 0.523529
v -0.044494 2.896463 0.285886
v 0.160525 2.825018 0.263694
v -0.499444 1.180095 0.031057
v -0.396203 1.148440 -0.185516
v -0.036114 1.260819 -0.337535
v -0.701663 1.850304 -0.138360
v 0.540411 1.245371 -0.166274
v 0.320747 1.290724 -0.278102
v 0.041926 1.509867 -0.340701
v -0.022266 1.122683 0.185440
v 0.557667 2.076071 0.166073
v -0.243876 2.489447 0.243222
v -0.399920 2.660365 0.281569
v -0.893133 2.022522 -0.185036
v 0.277434 2.425984 0.304362
v -0.783532 2.588179 0.372230
v -1.347786 2.211863 0.202522
v -0.552336 2.654740 0.258708
v -1.860270 0.836700 0.671562
v -1.754326 0.532209 0.367217
v 0.511820 2.308554 0.361170
v 0.417391 2.431603 0.335255
v 0.735419 1.888938 0.278214
v 0.769884 2.029741 0.399877
v 0.766205 1.709733 0.547018
v 0.792916 1.738520 0.645244
v 0.778499 1.605904 0.634509
v 0.819481 1.626022 0.793895
v -0.094725 2.521438 0.281122
v 0.109646 2.488394 0.288600
v -0.079758 2.848230 0.415524
v 0.188267 2.772593 0.394088
v -1.639778 1.141940 0.633067
v -1.696054 0.968928 0.561795
v -1.842105 1.155441 0.522551
v -1.805422 0.992244 0.500396
v -1.747247 0.812124 0.460905
v -1.772013 1.131658 0.626361
v -0.049551 1.806081 0.464373
v 0.214629 2.126322 -0.248153
v 0.143899 2.519823 -0.011499
v 0.009672 2.318545 0.549089
v 0.017824 2.545917 0.159218
v 0.002109 2.460965 0.410253
v 0.059093 2.875554 0.235390
v 0.049140 2.744651 0.573012
v 0.057879 2.861801 0.425200
v 0.155087 2.686462 0.189425
v 0.142000 2.574790 0.485609
v -0.094166 2.631013 0.499753
v -0.083014 2.743941 0.200606
v -0.105780 2.689035 0.350466
v 0.163444 2.630472 0.337275
v 0.035795 2.722602 0.173978
v 0.024310 2.594007 0.513048
v 0.534585 1.635022 0.078144
v -0.580849 1.544040 0.147418
v 0.654465 1.821339 -0.193993
v 0.173980 1.066571 0.156990
v -0.215516 0.048336 0.205582
v -0.360238 0.064008 0.326956
v -0.384800 0.054879 0.076092
v -0.249803 0.044771 0.062487
v 0.361675 -0.011863 -0.330303
v 0.286268 -0.011550 -0.404662
v 0.369953 -0.010614 -0.368993
v 0.337713 -0.011282 -0.394559
v 0.303011 -0.013121 -0.318635
v 0.086336 0.909876 -0.265571
v 0.165284 0.610238 -0.291440
v 0.222796 0.309072 -0.329515
v 0.258056 0.246756 -0.162238
v 0.226165 0.467913 -0.032106
v 0.217046 0.727437 0.069277
v 0.379966 0.259665 -0.184953
v 0.431812 0.494338 -0.070217
v 0.499400 0.824558 0.024415
v 0.340498 0.944901 -0.245125
v 0.345113 0.605633 -0.262106
v 0.329759 0.305871 -0.310152
v 0.396943 0.290105 -0.259848
v 0.459090 0.580881 -0.180827
v 0.513910 0.921207 -0.142356
v -0.159879 0.979264 0.377674
v -0.144055 0.681500 0.386239
v -0.146082 0.436158 0.411036
v -0.431538 0.429590 0.406687
v -0.436163 0.700026 0.335777
v -0.453737 0.947513 0.273251
v -0.469114 0.417946 0.137123
v -0.472674 0.684880 0.067256
v -0.482095 0.897808 0.000810
v -0.087814 0.844264 -0.037072
v -0.130898 0.648689 0.022335
v -0.177247 0.448510 0.093178
vn 0.0410 0.5178 -0.8545
vn 0.0216 -0.0280 -0.9994
vn 0.4085 -0.2111 -0.8880
vn -0.3473 -0.1891 0.9185
vn 0.9268 -0.1800 0.3295
vn 0.6344 0.7410 0.2201
vn 0.2407 0.8818 -0.4057
vn 0.4420 -0.2018 0.8740
vn -0.0792 0.9370 0.3402
vn 0.0022 0.4916 -0.8708
vn -0.2741 -0.4157 0.8672
vn -0.4382 -0.8625 -0.2531
vn -0.3606 -0.0491 0.9314
vn 0.1978 -0.8600 0.4704
vn 0.8952 -0.2939 0.3352
vn -0.1381 -0.7012 0.6995
vn 0.1549 0.9744 0.1629
vn -0.1161 -0.7273 0.6765
vn -0.7515 0.3141 0.5802
vn 0.9737 -0.0293 -0.2259
vn -0.7868 0.0606 -0.6143
vn 0.5037 0.7451 0.4373
vn 0.1341 0.1751 0.9754
vn -0.4273 -0.4939 0.7573
vn -0.1928 0.6711 0.7158
vn -0.9509 0.0593 0.3037
vn 0.0135 -0.6142 -0.7890
vn 0.8506 0.5143 0.1100
vn -0.4917 -0.5904 0.6401
vn 0.8053 0.3373 -0.4875
vn -0.1678 0.6720 0.7213
vn 0.9980 0.0400 0.0491
vn 0.1300 -0.7836 -0.6075
vn 0.0241 -0.9922 0.1224
vn -0.0829 -0.6868 -0.7221
vn -0.8672 0.4937 -0.0651
vn 0.3581 0.8014 0.4790
vn 0.9888 -0.0395 -0.1437
vn 0.3158 0.5763 0.7538
vn 0.1781 0.9835 -0.0331
vn -0.2858 0.9134 0.2899
vn 0.4006 0.8915 0.2115
vn 0.0631 0.9784 0.1970
vn -0.9719 0.1384 0.1905
vn 0.2564 -0.3277 0.9093
vn -0.2125 0.4576 -0.8634
vn -0.7962 -0.5236 -0.3030
vn -0.9350 -0.2814 0.2157
vn 0.2251 0.1184 -0.9671
vn -0.9621 0.2509 -0.1072
vn 0.0516 0.8533 0.5189
vn 0.4122 0.7385 0.5336
vn -0.2550 0.9134 0.3173
vn 0.9767 -0.1653 0.1366
vn 0.0385 0.8277 0.5599
vn -0.3469 -0.6661 -0.6603
vn -0.1223 -0.9789 0.1640
vn -0.4794 -0.7272 -0.4912
vn 0.4727 0.6186 0.6276
vn -0.2753 -0.7959 -0.5392
vn -0.0873 0.9961 0.0147
vn 0.5718 0.5867 0.5734
vn 0.4509 0.2729 0.8498
vn -0.2803 0.2381 -0.9299
vn -0.0502 0.1606 0.9858
vn -0.7316 -0.5960 0.3310
vn -0.2860 0.5177 0.8063
vn -0.6928 0.6998 0.1740
vn -0.4262 -0.8362 -0.3450
vn 0.1337 0.4213 0.8970
vn 0.5447 0.5656 0.6193
vn 0.1242 0.3411 0.9318
vn -0.3060 0.5875 -0.7492
vn -0.8670 0.4621 0.1864
vn 0.9033 -0.3246 0.2805
vn 0.5026 0.7047 0.5008
vn 0.3194 0.3738 -0.8708
vn -0.2749 -0.2516 0.9280
vn 0.5129 0.8481 0.1328
vn 0.3655 0.9308 -0.0011
vn -0.1669 0.5763 0.8000
vn -0.5295 -0.0577 0.8463
vn 0.3068 0.7160 -0.6271
vn -0.1854 -0.5378 0.8224
vn 0.1193 0.0958 -0.9882
vn 0.9451 -0.3266 -0.0120
vn -0.9897 0.0003 -0.1432
vn -0.0814 0.1640 -0.9831
vn 0.0030 -0.5546 0.8321
vn -1.0000 0.0071 -0.0010
vn 0.9639 -0.2566 -0.0708
vn -0.0609 -0.9945 -0.0857
vn 0.2398 -0.3432 0.9082
vn -0.9621 -0.2349 0.1383
vn -0.9652 -0.2302 0.1244
vn 0.9808 -0.1336 -0.1418
vn -0.1382 0.1155 -0.9836
vn -0.0712 -0.9965 0.0427
vn 0.0175 -0.9997 -0.0189
vn 0.2004 -0.4761 0.8562
vn 0.1813 0.2577 -0.9491
vn 0.9727 -0.1540 0.1733
vn 0.6127 0.2190 -0.7594
vn 0.4669 -0.0795 -0.8807
vn 0.5425 0.0284 -0.8396
vn 0.5986 0.0926 -0.7957
vn 0.9960 -0.0850 0.0267
vn 0.9825 -0.1845 0.0261
vn 0.9676 -0.2394 0.0799
vn 0.1411 -0.1192 -0.9828
vn 0.1080 0.0806 -0.9909
vn 0.1695 0.1515 -0.9738
vn 0.2777 -0.1466 0.9494
vn 0.2384 -0.3275 0.9143
vn 0.2154 -0.4694 0.8563
vn -0.9324 -0.2300 0.2787
vn -0.9594 -0.1970 0.2017
vn -0.9713 -0.2051 0.1205
vn -0.1609 -0.5598 -0.8128
vn -0.1410 -0.2809 -0.9493
vn -0.1359 -0.2743 -0.9520
vn 0.9125 0.3014 0.2766
vn 0.9924 -0.0387 0.1170
vn 0.9934 -0.1128 -0.0229
vn -0.9886 -0.0453 -0.1438
vn -0.9923 -0.0240 0.1219
vn -0.9906 0.0204 0.1354
vn -0.4927 0.4511 0.7441
vn -0.2563 0.1095 0.9604
vn -0.0892 0.1813 0.9794
vn 0.4021 -0.2267 0.8871
vn 0.5145 0.3389 -0.7877
vn -0.0779 -0.4719 -0.8782
vn -0.1813 -0.8293 -0.5286
vn -0.7420 -0.0764 -0.6660
vt 0.882279 0.260085
vt 0.436089 0.649131
vt 0.117664 0.305524
vt 0.860974 0.338762
vt 0.079561 0.383885
vt 0.278417 0.728674
vt 0.111517 0.716819
vt 0.301243 0.337859
vt 0.232943 0.387386
vt 0.111517 0.662267
vt 0.671871 0.687525
vt 0.175114 0.511099
vt 0.930991 0.712692
vt 0.796001 0.259488
vt 0.522181 0.649131
vt 0.719621 0.316178
vt 0.801110 0.310020
vt 0.698705 0.366293
vt 0.510656 0.337024
vt 0.023033 0.717149
vt 0.367094 0.730187
vt 0.507246 0.358198
vt 0.018976 0.695717
vt 0.103380 0.570561
vt 0.268725 0.266033
vt 0.143950 0.273348
vt 0.098384 0.631539
vt 0.301351 0.259488
vt 0.128079 0.559933
vt 0.480438 0.333338
vt 0.348619 0.714075
vt 0.604958 0.268707
vt 0.031105 0.562973
vt 0.043818 0.625810
vt 0.721993 0.282954
vt 0.329365 0.336360
vt 0.302724 0.713315
vt 0.030374 0.549675
vt 0.582817 0.260846
vt 0.875347 0.642471
vt 0.380514 0.272320
vt 0.124895 0.517524
vt 0.813390 0.578569
vt 0.436089 0.332372
vt 0.956124 0.588845
vt 0.367094 0.692599
vt 0.367094 0.522797
vt 0.871643 0.594841
vt 0.398138 0.324445
vt 0.043891 0.509019
vt 0.796001 0.641153
vt 0.491075 0.268473
vt 0.032114 0.534706
vt 0.552485 0.259488
vt 0.331566 0.259909
vt 0.129819 0.544964
vt 0.339759 0.337186
vt 0.913298 0.588845
vt 0.317584 0.707220
vt 0.845734 0.463378
vt 0.311567 0.646434
vt 0.944558 0.353645
vt 0.398138 0.462439
vt 0.920230 0.354337
vt 0.870057 0.463781
vt 0.929709 0.374247
vt 0.357807 0.478584
vt 0.347994 0.663056
vt 0.944558 0.373825
vt 0.097076 0.285727
vt 0.229765 0.651022
vt 0.758050 0.297859
vt 0.168317 0.651042
vt 0.119329 0.272208
vt 0.094178 0.643292
vt 0.222768 0.636959
vt 0.746872 0.283208
vt 0.174541 0.636975
vt 0.045175 0.638147
vt 0.080672 0.327471
vt 0.442544 0.673801
vt 0.734592 0.339187
vt 0.484453 0.673801
vt 0.070725 0.319456
vt 0.218298 0.685110
vt 0.751374 0.331694
vt 0.180611 0.684911
vt 0.062412 0.356092
vt 0.455575 0.702696
vt 0.724658 0.367821
vt 0.476314 0.702696
vt 0.043357 0.357400
vt 0.210236 0.723455
vt 0.742364 0.370210
vt 0.189444 0.723462
vt 0.050281 0.367705
vt 0.444942 0.715336
vt 0.810526 0.722486
vt 0.728448 0.380153
vt 0.853695 0.722486
vt 0.487920 0.715336
vt 0.018975 0.371756
vt 0.232852 0.738567
vt 0.796001 0.739289
vt 0.758050 0.386241
vt 0.861207 0.739289
vt 0.167770 0.738589
vt 0.100634 0.583041
vt 0.712300 0.698974
vt 0.802197 0.701507
vt 0.098640 0.600731
vt 0.972705 0.287497
vt 0.747907 0.696578
vt 0.052045 0.577939
vt 0.849895 0.701507
vt 0.710445 0.675017
vt 0.050052 0.595630
vt 0.746553 0.677603
vt 0.924885 0.287497
vt 0.797725 0.671259
vt 0.981025 0.313792
vt 0.715147 0.730011
vt 0.752543 0.724602
vt 0.973919 0.259495
vt 0.967002 0.332143
vt 0.934252 0.306472
vt 0.715328 0.644023
vt 0.847669 0.671259
vt 0.923848 0.259495
vt 0.753088 0.649631
vt 0.920230 0.324823
vt 0.068284 0.665533
vt 0.630362 0.705721
vt 0.712055 0.621316
vt 0.966165 0.712391
vt 0.519769 0.388732
vt 0.031375 0.663704
vt 0.592215 0.695479
vt 0.581836 0.620019
vt 0.750017 0.621843
vt 0.569690 0.667298
vt 0.581066 0.387596
vt 0.531739 0.516092
vt 0.642835 0.625048
vt 0.273616 0.509019
vt 0.070982 0.710642
vt 0.316851 0.732164
vt 0.684917 0.393810
vt 0.816625 0.338063
vt 0.644803 0.392946
vt 0.602800 0.367236
vt 0.671871 0.661666
vt 0.181146 0.386242
vt 0.855113 0.259897
vt 0.463196 0.649131
vt 0.077903 0.567886
vt 0.078993 0.554271
vt 0.322237 0.720993
vt 0.070972 0.628379
vt 0.834014 0.651825
vt 0.084160 0.512738
vt 0.838315 0.596273
vt 0.320679 0.509019
vt 0.080733 0.539302
vt 0.857365 0.464048
vt 0.931678 0.351118
vt 0.335174 0.488977
vt 0.367094 0.673623
vt 0.939667 0.384854
vt 0.199177 0.651021
vt 0.069465 0.641494
vt 0.198664 0.632807
vt 0.464209 0.672968
vt 0.199604 0.684998
vt 0.465945 0.702696
vt 0.199840 0.723459
vt 0.466714 0.715004
vt 0.832520 0.720483
vt 0.200177 0.738589
vt 0.829423 0.735282
vt 0.076340 0.580490
vt 0.826046 0.701507
vt 0.074346 0.598181
vt 0.948795 0.287497
vt 0.823088 0.670800
vt 0.959731 0.307426
vt 0.948976 0.259488
vt 0.941524 0.331189
vt 0.875347 0.491894
vt 0.391834 0.432095
vt 0.377694 0.448634
vt 0.915590 0.478791
vt 0.834644 0.488373
vt 0.326937 0.619279
vt 0.938593 0.478810
vt 0.335216 0.632947
vt 0.358601 0.463790
vt 0.348787 0.648138
vt 0.927106 0.463378
vt 0.854274 0.489560
vt 0.315804 0.619182
vt 0.212520 0.321385
vt 0.644070 0.318501
vt 0.018976 0.592450
vt 0.663817 0.276029
vt 0.129819 0.597828
vt 0.224108 0.269832
vt 0.051049 0.586785
vt 0.728499 0.676310
vt 0.099637 0.591886
vt 0.730103 0.697776
vt 0.734390 0.646904
vt 0.920230 0.314550
vt 0.981025 0.324065
vt 0.732426 0.727384
vt 0.950683 0.319044
vt 0.753088 0.663662
vt 0.920230 0.273492
vt 0.977552 0.273492
vt 0.752543 0.710647
vt 0.709822 0.714522
vt 0.796001 0.686127
vt 0.853178 0.686127
vt 0.709822 0.659561
vt 0.824792 0.685890
vt 0.948939 0.273488
vt 0.731549 0.661651
vt 0.730449 0.712624
vt 0.878850 0.297575
vt 0.096711 0.342677
vt 0.285581 0.357771
vt 0.108549 0.696221
vt 0.804979 0.293594
vt 0.708839 0.350023
vt 0.668288 0.644023
vt 0.436089 0.526409
vt 0.145034 0.385321
vt 0.919159 0.607821
vt 0.247387 0.613831
vt 0.970304 0.416607
vt 0.947808 0.608020
vt 0.704660 0.516092
vt 0.970304 0.403829
vt 0.750017 0.516884
vt 0.618892 0.516092
vt 0.920230 0.404231
vt 0.273616 0.612878
vt 0.642836 0.516847
vt 0.938584 0.415207
vt 0.924281 0.443436
vt 0.075400 0.489812
vt 0.855524 0.444402
vt 0.531739 0.629156
vt 0.934913 0.435583
vt 0.576828 0.496673
vt 0.931440 0.443424
vt 0.848383 0.444289
vt 0.592622 0.497116
vt 0.934913 0.440184
vt 0.586164 0.496977
vt 0.517161 0.630156
vt 0.920230 0.438606
vt 0.085942 0.490043
vt 0.585376 0.420489
vt 0.510472 0.551446
vt 0.582586 0.444044
vt 0.504260 0.576063
vt 0.581388 0.469636
vt 0.508131 0.602400
vt 0.103684 0.463024
vt 0.477645 0.604263
vt 0.118194 0.440373
vt 0.454885 0.581958
vt 0.129418 0.415411
vt 0.438452 0.557360
vt 0.876897 0.417052
vt 0.081901 0.462161
vt 0.882279 0.393921
vt 0.081653 0.438865
vt 0.880271 0.363315
vt 0.079604 0.408162
vt 0.633117 0.418943
vt 0.615530 0.444447
vt 0.600997 0.469910
vt 0.614559 0.469949
vt 0.862035 0.416811
vt 0.638313 0.444473
vt 0.857648 0.390640
vt 0.666106 0.417503
vt 0.844696 0.362700
vt 0.167770 0.536691
vt 0.914144 0.688660
vt 0.182151 0.561697
vt 0.913298 0.663084
vt 0.189855 0.582503
vt 0.915415 0.641729
vt 0.680787 0.549268
vt 0.966165 0.641681
vt 0.684678 0.573659
vt 0.963812 0.665813
vt 0.684995 0.596421
vt 0.964308 0.688427
vt 0.584794 0.548886
vt 0.729850 0.550060
vt 0.578610 0.572959
vt 0.734888 0.574452
vt 0.569690 0.595426
vt 0.736445 0.597214
vt 0.642060 0.590920
vt 0.247172 0.543053
vt 0.641052 0.570535
vt 0.248998 0.562413
vt 0.635978 0.552556
vt 0.245738 0.579271
s 0
usemtl Material
f 89/203/1 7/19/1 13/32/1 90/205/1
f 8/22/2 7/19/2 89/203/2 58/151/2 54/142/2 53/136/2
f 6/18/3 56/148/3 57/150/3
f 3/8/4 106/231/4 4/9/4 59/153/4 88/202/4
f 6/17/5 107/233/5 5/14/5 60/154/5 1/1/5 105/229/5 2/4/5 56/149/5
f 61/156/6 13/33/6 16/38/6 62/157/6
f 5/16/7 14/35/7 31/77/7 29/72/7
f 88/202/8 1/3/8 10/26/8 91/207/8
f 67/164/9 21/53/9 20/50/9 65/161/9
f 13/32/10 7/19/10 12/30/10 16/39/10
f 3/8/11 9/25/11 11/28/11 15/36/11
f 55/147/12 3/6/12 15/37/12 63/158/12
f 66/162/13 19/48/13 17/40/13 65/160/13
f 23/57/14 22/55/14 17/41/14 19/49/14
f 83/191/15 82/190/15 25/63/15 26/67/15
f 15/36/16 11/28/16 22/55/16 23/57/16
f 62/157/17 16/38/17 21/53/17 67/164/17
f 69/169/18 26/66/18 25/64/18 68/166/18
f 87/200/19 84/193/19 24/60/19 68/165/19
f 86/197/20 83/191/20 26/67/20 69/167/20
f 84/194/21 85/196/21 27/68/21 24/61/21
f 70/170/22 29/73/22 31/78/22 71/172/22
f 70/170/23 28/71/23 34/85/23 73/174/23
f 10/26/24 1/3/24 28/70/24 30/74/24
f 64/159/25 10/27/25 30/75/25 71/171/25
f 34/84/26 32/80/26 36/88/26 38/92/26
f 60/155/27 5/15/27 33/83/27 72/173/27
f 5/16/28 29/72/28 35/86/28 33/82/28
f 28/70/29 1/3/29 32/80/29 34/84/29
f 37/90/30 39/94/30 43/105/30 41/99/30
f 73/174/31 34/85/31 38/93/31 75/176/31
f 33/82/32 35/86/32 39/94/32 37/90/32
f 72/173/33 33/83/33 37/91/33 74/175/33
f 76/178/34 41/100/34 43/106/34 77/180/34
f 74/175/35 37/91/35 41/101/35 76/177/35
f 38/92/36 36/88/36 40/96/36 42/102/36
f 75/176/37 38/93/37 42/103/37 77/179/37
f 102/226/38 97/218/38 51/129/38 81/187/38
f 91/206/39 10/27/39 45/111/39 93/210/39
f 90/204/40 13/33/40 46/114/40 92/208/40
f 61/156/41 9/24/41 44/108/41 78/181/41
f 64/159/42 14/34/42 47/117/42 79/183/42
f 96/216/43 94/213/43 50/126/43 80/186/43
f 101/225/44 99/222/44 48/120/44 80/185/44
f 104/228/45 98/220/45 49/123/45 95/215/45
f 103/227/46 100/224/46 50/127/46 94/212/46
f 8/23/47 53/137/47 52/132/47
f 8/23/48 52/132/48 4/10/48 106/232/48 3/7/48 55/146/48 7/20/48
f 54/142/49 58/151/49 89/203/49 5/16/49 107/234/49 6/18/49 57/150/49
f 100/223/50 101/225/50 80/185/50 50/128/50
f 95/214/51 96/216/51 80/186/51 48/121/51
f 10/27/52 64/159/52 79/183/52 45/111/52
f 13/33/53 61/156/53 78/181/53 46/114/53
f 98/219/54 102/226/54 81/187/54 49/124/54
f 39/95/55 75/176/55 77/179/55 43/107/55
f 36/89/56 74/175/56 76/177/56 40/97/56
f 40/98/57 76/178/57 77/180/57 42/104/57
f 32/81/58 72/173/58 74/175/58 36/89/58
f 35/87/59 73/174/59 75/176/59 39/95/59
f 1/2/60 60/155/60 72/173/60 32/81/60
f 14/34/61 64/159/61 71/171/61 31/79/61
f 29/73/62 70/170/62 73/174/62 35/87/62
f 28/71/63 70/170/63 71/172/63 30/76/63
f 85/196/64 86/198/64 69/168/64 27/68/64
f 82/189/65 87/200/65 68/165/65 25/65/65
f 27/69/66 69/169/66 68/166/66 24/62/66
f 11/29/67 62/157/67 67/164/67 22/56/67
f 18/43/68 66/162/68 65/160/68 20/51/68
f 7/21/69 55/147/69 63/158/69 12/31/69
f 22/56/70 67/164/70 65/161/70 17/42/70
f 9/24/71 61/156/71 62/157/71 11/29/71
f 19/48/72 66/162/72 87/200/72 82/189/72
f 12/30/73 18/44/73 20/52/73 21/54/73 16/39/73
f 66/163/74 18/47/74 84/194/74 87/201/74
f 23/57/75 19/49/75 82/190/75 83/191/75
f 49/125/76 81/188/76 96/216/76 95/214/76
f 97/217/77 103/227/77 94/212/77 51/130/77
f 99/221/78 104/228/78 95/215/78 48/122/78
f 81/188/79 51/131/79 94/213/79 96/216/79
f 14/34/80 90/204/80 92/208/80 47/117/80
f 9/24/81 91/206/81 93/210/81 44/108/81
f 3/8/82 88/202/82 91/207/82 9/25/82
f 5/16/83 89/203/83 90/205/83 14/35/83
f 44/109/84 93/211/84 104/228/84 99/221/84
f 47/118/85 92/209/85 103/227/85 97/217/85
f 45/112/86 79/184/86 102/226/86 98/219/86
f 46/115/87 78/182/87 101/225/87 100/223/87
f 92/209/88 46/116/88 100/224/88 103/227/88
f 93/211/89 45/113/89 98/220/89 104/228/89
f 78/182/90 44/110/90 99/222/90 101/225/90
f 79/184/91 47/119/91 97/218/91 102/226/91
f 59/152/92 4/11/92 52/133/92 53/138/92 54/141/92 108/235/92
f 136/298/93 110/241/93 109/238/93 135/296/93
f 121/271/94 120/269/94 114/253/94 117/261/94
f 139/304/95 111/244/95 110/242/95 136/297/95
f 135/295/96 109/239/96 112/247/96 144/314/96
f 144/313/97 112/248/97 111/245/97 139/303/97
f 111/246/98 112/249/98 109/240/98 110/243/98
f 117/262/99 114/254/99 116/259/99 115/256/99 113/250/99
f 124/277/100 121/270/100 117/263/100 113/251/100
f 120/268/101 129/284/101 116/260/101 114/255/101
f 130/286/102 124/276/102 113/252/102 115/257/102
f 129/284/103 130/285/103 115/258/103 116/260/103
f 57/150/104 56/148/104 132/289/104 127/282/104
f 127/282/105 132/289/105 131/287/105 128/283/105
f 128/283/106 131/287/106 130/285/106 129/284/106
f 56/149/107 2/4/107 126/280/107 132/290/107
f 132/290/108 126/280/108 125/278/108 131/288/108
f 131/288/109 125/278/109 124/276/109 130/286/109
f 54/142/110 57/150/110 127/282/110 118/264/110
f 118/264/111 127/282/111 128/283/111 119/266/111
f 119/266/112 128/283/112 129/284/112 120/268/112
f 2/5/113 108/237/113 123/274/113 126/281/113
f 126/281/114 123/274/114 122/272/114 125/279/114
f 125/279/115 122/272/115 121/270/115 124/277/115
f 108/236/116 54/143/116 118/265/116 123/275/116
f 123/275/117 118/265/117 119/267/117 122/273/117
f 122/273/118 119/267/118 120/269/118 121/271/118
f 54/144/119 142/309/119 141/307/119 53/139/119
f 142/309/120 143/311/120 140/305/120 141/307/120
f 143/311/121 144/313/121 139/303/121 140/305/121
f 4/12/122 133/291/122 142/310/122 54/145/122
f 133/291/123 134/293/123 143/312/123 142/310/123
f 134/293/124 135/295/124 144/314/124 143/312/124
f 53/140/125 141/308/125 138/301/125 52/134/125
f 141/308/126 140/306/126 137/299/126 138/301/126
f 140/306/127 139/304/127 136/297/127 137/299/127
f 52/135/128 138/302/128 133/292/128 4/13/128
f 138/302/129 137/300/129 134/294/129 133/292/129
f 137/300/130 136/298/130 135/296/130 134/294/130
f 105/230/131 1/3/131 88/202/131 59/153/131 108/237/131 2/5/131
f 86/199/132 85/195/132 83/192/132
f 83/192/133 85/195/133 18/45/133 23/58/133
f 63/158/134 15/37/134 23/59/134 18/46/134 12/31/134
f 84/194/135 18/47/135 85/196/135
l 52 106
