# Blender 3.3.1
# www.blender.org
mtllib monstruo_3_caminar514.mtl
o monstruo_grande
v 0.457522 1.985079 0.259284
v 0.520074 1.160360 0.111375
v -0.674989 1.812285 0.183570
v -0.315471 1.129471 0.204288
v 0.615388 2.262190 -0.094012
v 0.553368 1.578555 -0.232446
v -0.786645 2.043870 -0.221302
v -0.702050 1.753690 -0.299113
v -0.236868 2.402684 0.485063
v 0.312615 2.269435 0.449242
v -0.370788 2.373050 0.582944
v -1.153575 2.131419 -0.068537
v -0.223100 2.579672 0.132984
v 0.320363 2.415740 0.188959
v -1.010329 1.984108 0.073369
v -0.378880 2.662627 0.163723
v -0.729200 2.307661 0.596927
v -1.441324 2.060434 0.204023
v -1.158907 2.077364 0.395450
v -0.891481 2.653610 0.359751
v -0.556308 2.713334 0.242452
v -0.450597 2.329482 0.554260
v -1.139795 2.013483 0.079325
v -1.781384 0.803946 0.874936
v -1.656169 0.778555 0.920179
v -1.651468 0.595246 0.725194
v -1.727895 0.610744 0.697579
v 0.472988 2.180598 0.437247
v 0.574829 2.370586 0.175804
v 0.430148 2.293071 0.447527
v 0.453114 2.428578 0.221425
v 0.710120 1.857265 0.242213
v 0.821687 1.961403 0.068217
v 0.730350 1.940585 0.294607
v 0.809911 2.055903 0.141042
v 0.886954 1.643618 0.163053
v 0.965566 1.680189 0.089084
v 0.965467 1.593038 0.212080
v 1.041765 1.641331 0.139581
v 0.890419 1.487490 0.164895
v 1.052764 1.584510 0.017242
v 0.986328 1.357138 0.277385
v 1.223765 1.502445 0.047628
v -0.073308 2.438348 0.504181
v 0.135558 2.404717 0.486776
v -0.067673 2.546121 0.257527
v 0.133503 2.511358 0.245509
v -0.028239 2.756020 0.638347
v 0.179005 2.694564 0.603927
v -0.039922 2.860581 0.381452
v 0.167368 2.799216 0.347719
v -0.504834 1.174225 -0.022883
v -0.374353 1.210575 -0.224859
v -0.042104 1.276983 -0.333534
v -0.730567 1.863435 -0.033282
v 0.552742 1.158553 -0.125050
v 0.338992 1.158048 -0.259578
v 0.019215 1.523178 -0.324221
v -0.029912 1.142931 0.193701
v 0.512430 2.067773 0.141626
v -0.225633 2.465180 0.361547
v -0.376493 2.629537 0.432951
v -0.938817 2.046133 -0.037801
v 0.298562 2.400391 0.349858
v -0.735869 2.537567 0.573039
v -1.323992 2.189291 0.448730
v -0.529580 2.623394 0.428028
v -1.729784 0.791719 0.928284
v -1.678574 0.483594 0.613638
v 0.560874 2.287105 0.335402
v 0.445506 2.405301 0.357828
v 0.722087 1.893075 0.114221
v 0.811070 2.010440 0.247920
v 0.925239 1.665908 0.126382
v 1.003394 1.616249 0.175380
v 0.951887 1.543072 0.075870
v 1.070789 1.444754 0.136567
v -0.071803 2.491729 0.381130
v 0.132358 2.459160 0.365652
v -0.065498 2.808920 0.511533
v 0.204516 2.746195 0.474026
v -1.516168 1.094374 0.850582
v -1.584998 0.921340 0.791408
v -1.733775 1.108286 0.775279
v -1.702855 0.945238 0.748823
v -1.653607 0.764210 0.702021
v -1.647758 1.085373 0.866067
v -0.017141 1.763062 0.513195
v 0.150590 2.126732 -0.195115
v 0.132625 2.517951 0.063869
v 0.067417 2.268757 0.619292
v 0.028759 2.528244 0.250751
v 0.035113 2.424369 0.495169
v 0.062017 2.845608 0.326127
v 0.077133 2.709620 0.659660
v 0.071674 2.828967 0.513457
v 0.164269 2.662836 0.272742
v 0.174061 2.542835 0.565042
v -0.063891 2.589505 0.594036
v -0.074821 2.710253 0.299547
v -0.086658 2.649793 0.447875
v 0.184103 2.602739 0.417546
v 0.042939 2.694670 0.265744
v 0.056318 2.558269 0.599139
v 0.465443 1.670968 -0.007164
v -0.575598 1.515128 0.208689
v 0.568008 1.789911 -0.226485
v 0.163871 1.158236 0.203347
v -0.243194 0.094491 -0.292731
v -0.399005 0.074956 -0.186808
v -0.400133 0.122880 -0.433046
v -0.264088 0.122304 -0.434797
v 0.311794 -0.007261 0.215335
v 0.239562 -0.024872 0.140092
v 0.321788 -0.013306 0.177427
v 0.290711 -0.020315 0.151384
v 0.252586 -0.008508 0.225102
v 0.082549 0.835821 -0.073739
v 0.133376 0.584230 0.045394
v 0.173469 0.291758 0.124802
v 0.203247 0.298330 0.304069
v 0.182294 0.554043 0.336223
v 0.186570 0.832652 0.327680
v 0.325949 0.295543 0.282136
v 0.389417 0.554669 0.299561
v 0.475864 0.886101 0.259933
v 0.338806 0.853327 -0.041247
v 0.312189 0.583595 0.080487
v 0.279898 0.291240 0.147261
v 0.345492 0.293329 0.201904
v 0.423352 0.588553 0.169071
v 0.504997 0.881313 0.070857
v -0.224070 0.840224 0.263420
v -0.210302 0.556462 0.134368
v -0.215601 0.332499 0.031742
v -0.498119 0.347689 -0.009381
v -0.492651 0.615396 0.064448
v -0.499733 0.870187 0.117919
v -0.499226 0.464665 -0.252749
v -0.492575 0.728899 -0.178505
v -0.488458 0.925790 -0.151643
v -0.095584 0.860950 -0.151844
v -0.148194 0.694338 -0.193032
v -0.203878 0.493508 -0.241480
vn -0.0366 0.5663 -0.8234
vn -0.0370 0.1043 -0.9939
vn 0.5209 -0.2122 -0.8268
vn -0.2872 -0.2688 0.9194
vn 0.9582 -0.0699 0.2773
vn 0.6555 0.7240 0.2148
vn 0.1394 0.9037 -0.4049
vn 0.5482 -0.2564 0.7961
vn -0.0135 0.8859 0.4637
vn -0.0992 0.5720 -0.8142
vn -0.1755 -0.5062 0.8444
vn -0.4733 -0.8254 -0.3078
vn -0.2029 -0.1846 0.9616
vn 0.2539 -0.9135 0.3178
vn 0.9359 -0.3001 0.1845
vn -0.0094 -0.8070 0.5905
vn 0.1832 0.9519 0.2458
vn -0.0082 -0.7203 0.6937
vn -0.6425 0.3269 0.6931
vn 0.9223 -0.0410 -0.3844
vn -0.8777 0.0638 -0.4750
vn 0.6229 0.7203 0.3052
vn 0.5453 0.1700 0.8208
vn -0.2279 -0.5224 0.8216
vn -0.0846 0.6119 0.7864
vn -0.4980 -0.5570 0.6646
vn -0.3649 -0.5353 -0.7618
vn 0.8155 0.5439 -0.1975
vn -0.1987 -0.6090 0.7679
vn 0.4995 0.8020 -0.3276
vn 0.5092 0.1151 0.8529
vn 0.7369 0.3824 -0.5575
vn -0.3522 -0.2981 -0.8872
vn -0.1741 -0.6523 -0.7377
vn -0.5928 0.1356 -0.7938
vn -0.6218 0.0946 0.7774
vn 0.7426 0.2024 0.6384
vn 0.9795 0.0121 -0.2009
vn 0.4141 0.5204 0.7468
vn 0.1803 0.9826 0.0435
vn -0.2232 0.8866 0.4051
vn 0.4301 0.8692 0.2440
vn 0.0265 0.9770 0.2116
vn -0.9649 0.0861 0.2479
vn 0.3204 -0.3197 0.8917
vn -0.2811 0.4506 -0.8473
vn -0.6898 -0.4892 -0.5337
vn -0.9215 -0.3472 0.1741
vn 0.1366 0.1162 -0.9838
vn -0.9783 0.2010 -0.0505
vn 0.0415 0.8479 0.5285
vn 0.4754 0.6914 0.5441
vn -0.1769 0.8888 0.4229
vn 0.9904 -0.1116 0.0821
vn 0.5252 0.0645 0.8485
vn -0.7896 0.0217 -0.6132
vn -0.2715 -0.7300 -0.6272
vn -0.7191 -0.5567 -0.4159
vn 0.8228 0.3941 0.4095
vn -0.5117 -0.7110 -0.4823
vn -0.0802 0.9895 0.1206
vn 0.7654 0.5641 0.3097
vn 0.6238 0.3272 0.7098
vn -0.4291 0.2330 -0.8727
vn 0.1159 0.1694 0.9787
vn -0.6714 -0.5858 0.4540
vn -0.2156 0.4113 0.8856
vn -0.6451 0.6710 0.3657
vn -0.4718 -0.7949 -0.3814
vn 0.2836 0.3068 0.9086
vn 0.6048 0.5123 0.6097
vn 0.3078 0.2797 0.9094
vn -0.4154 0.6758 -0.6089
vn -0.8274 0.4247 0.3674
vn 0.9438 -0.3212 0.0778
vn 0.4964 0.7214 0.4828
vn 0.2485 0.3971 -0.8835
vn -0.2043 -0.2737 0.9399
vn 0.4802 0.8687 0.1213
vn 0.3657 0.9302 0.0320
vn -0.0730 0.5180 0.8523
vn -0.4491 -0.1153 0.8860
vn 0.1845 0.7444 -0.6417
vn -0.0952 -0.5527 0.8279
vn 0.0350 0.1267 -0.9913
vn 0.9598 -0.2664 -0.0889
vn -0.9962 -0.0423 -0.0763
vn -0.1575 0.1711 -0.9726
vn 0.0691 -0.5657 0.8217
vn -0.9971 -0.0473 0.0588
vn 0.9606 -0.2249 -0.1631
vn 0.0703 -0.9721 -0.2239
vn 0.1128 -0.6884 0.7166
vn -0.9651 -0.1964 0.1733
vn -0.9616 -0.2614 -0.0837
vn 0.9940 -0.0899 -0.0628
vn -0.0108 0.4637 -0.8859
vn -0.0067 -0.9816 -0.1911
vn 0.0528 -0.9819 0.1817
vn 0.1656 -0.2203 0.9613
vn 0.2095 -0.0046 -0.9778
vn 0.9639 -0.0970 0.2478
vn 0.6401 0.0119 -0.7682
vn 0.4887 -0.5323 -0.6913
vn 0.5694 -0.3921 -0.7225
vn 0.6166 -0.2426 -0.7490
vn 0.9867 -0.0743 0.1445
vn 0.9604 -0.2212 0.1694
vn 0.9497 -0.2364 0.2055
vn 0.0564 -0.5321 -0.8448
vn 0.1556 -0.4084 -0.8995
vn 0.1913 -0.2356 -0.9528
vn 0.1873 0.4012 0.8966
vn 0.2006 0.0474 0.9785
vn 0.1732 -0.1086 0.9789
vn -0.9502 -0.0271 0.3104
vn -0.9762 -0.0342 0.2140
vn -0.9825 -0.0957 0.1597
vn -0.1406 -0.3086 -0.9408
vn 0.0051 0.1832 -0.9831
vn -0.0026 0.2554 -0.9668
vn 0.8927 0.1878 0.4096
vn 0.9634 -0.1634 0.2124
vn 0.9867 -0.1570 0.0432
vn -0.9588 0.0783 -0.2730
vn -0.9997 -0.0025 -0.0230
vn -0.9997 0.0196 0.0114
vn -0.6003 0.1660 0.7824
vn -0.3850 -0.3096 0.8695
vn -0.2233 -0.3249 0.9190
vn 0.5298 -0.2187 0.8194
vn 0.3791 0.3269 -0.8657
vn -0.2422 -0.4204 -0.8744
vn -0.2860 -0.7646 -0.5776
vn -0.8357 -0.0701 -0.5447
vt 0.461701 0.809397
vt 0.301930 0.729761
vt 0.094158 0.499911
vt 0.498737 0.648456
vt 0.250869 0.553264
vt 0.714874 0.752530
vt 0.627854 0.740386
vt 0.227533 0.339544
vt 0.300362 0.438253
vt 0.625828 0.633709
vt 0.338991 0.679376
vt 0.653754 0.621457
vt 0.189641 0.785401
vt 0.531284 0.815038
vt 0.232114 0.729761
vt 0.806952 0.326283
vt 0.527824 0.712310
vt 0.703640 0.331352
vt 0.725736 0.123548
vt 0.557184 0.740386
vt 0.714874 0.681901
vt 0.693091 0.138725
vt 0.558638 0.706064
vt 0.944491 0.391302
vt 0.108931 0.369345
vt 0.090202 0.443431
vt 0.952837 0.467016
vt 0.108059 0.346292
vt 0.960024 0.371234
vt 0.653754 0.712739
vt 0.761990 0.055860
vt 0.265996 0.788213
vt 0.829683 0.188590
vt 0.886815 0.394232
vt 0.909606 0.471204
vt 0.826550 0.267021
vt 0.659457 0.749480
vt 0.206417 0.267620
vt 0.238389 0.812575
vt 0.882743 0.373659
vt 0.837846 0.166681
vt 0.102618 0.289588
vt 0.957957 0.321520
vt 0.918648 0.216117
vt 0.803322 0.012950
vt 0.106348 0.638847
vt 0.232551 0.755661
vt 0.798789 0.485160
vt 0.965752 0.239402
vt 0.153968 0.222285
vt 0.894228 0.312474
vt 0.856067 0.102710
vt 0.881967 0.351902
vt 0.842627 0.144082
vt 0.107159 0.331692
vt 0.958812 0.358201
vt 0.199778 0.246429
vt 0.138792 0.619338
vt 0.232114 0.797406
vt 0.967580 0.012950
vt 0.753483 0.682459
vt 0.843831 0.469074
vt 0.256421 0.022764
vt 0.824689 0.472884
vt 0.987050 0.016155
vt 0.832147 0.505580
vt 0.295109 0.018166
vt 0.782932 0.707368
vt 0.843831 0.503254
vt 0.076417 0.467161
vt 0.958695 0.494573
vt 0.833773 0.298242
vt 0.909847 0.503107
vt 0.076958 0.454690
vt 0.951531 0.482650
vt 0.837149 0.281767
vt 0.912926 0.487172
vt 0.064432 0.532285
vt 0.298790 0.687460
vt 0.825577 0.362572
vt 0.264894 0.686125
vt 0.056614 0.518895
vt 0.959622 0.549977
vt 0.837123 0.350740
vt 0.929664 0.555276
vt 0.051257 0.577890
vt 0.291936 0.641182
vt 0.824256 0.407314
vt 0.275162 0.640522
vt 0.035793 0.577862
vt 0.964581 0.612577
vt 0.838997 0.411720
vt 0.948088 0.615681
vt 0.039898 0.592711
vt 0.301778 0.620707
vt 0.403076 0.772170
vt 0.830596 0.428615
vt 0.403076 0.737417
vt 0.267017 0.619338
vt 0.012950 0.593438
vt 0.987050 0.637067
vt 0.428919 0.781443
vt 0.856067 0.440612
vt 0.428919 0.728949
vt 0.935424 0.646785
vt 0.945356 0.412724
vt 0.357115 0.854737
vt 0.331665 0.779032
vt 0.948027 0.441601
vt 0.799629 0.752473
vt 0.327972 0.853161
vt 0.906904 0.416128
vt 0.370069 0.779032
vt 0.684668 0.778429
vt 0.909575 0.445005
vt 0.655249 0.778999
vt 0.799629 0.791035
vt 0.330193 0.729131
vt 0.557184 0.775635
vt 0.363063 0.804932
vt 0.331684 0.807874
vt 0.754247 0.751428
vt 0.586563 0.768755
vt 0.566112 0.815056
vt 0.689281 0.828405
vt 0.370405 0.729131
vt 0.754247 0.791805
vt 0.657717 0.824383
vt 0.595492 0.808176
vt 0.327830 0.637821
vt 0.590400 0.642651
vt 0.164818 0.789976
vt 0.357235 0.619338
vt 0.642851 0.190721
vt 0.562581 0.649581
vt 0.406824 0.626953
vt 0.080449 0.619338
vt 0.646201 0.239681
vt 0.727583 0.656002
vt 0.597847 0.731399
vt 0.712829 0.722239
vt 0.658284 0.323708
vt 0.527919 0.666449
vt 0.661748 0.291537
vt 0.680225 0.245582
vt 0.377645 0.696957
vt 0.285191 0.477898
vt 0.483372 0.812325
vt 0.280072 0.728266
vt 0.924330 0.393087
vt 0.921760 0.373660
vt 0.678504 0.727397
vt 0.268491 0.812575
vt 0.930826 0.465310
vt 0.923786 0.327561
vt 0.941993 0.227167
vt 0.764056 0.466512
vt 0.919524 0.351927
vt 0.977463 0.013354
vt 0.833186 0.466512
vt 0.317617 0.012950
vt 0.798789 0.722800
vt 0.839639 0.522681
vt 0.934403 0.500152
vt 0.932138 0.484309
vt 0.281656 0.689101
vt 0.944784 0.554368
vt 0.283549 0.640852
vt 0.956335 0.614129
vt 0.284323 0.620942
vt 0.399765 0.754789
vt 0.961112 0.640376
vt 0.422297 0.755187
vt 0.926130 0.414426
vt 0.350867 0.779032
vt 0.928801 0.443303
vt 0.799629 0.771754
vt 0.350773 0.728949
vt 0.557184 0.796361
vt 0.753483 0.771844
vt 0.595492 0.787450
vt 0.985581 0.067358
vt 0.238180 0.070710
vt 0.259592 0.052321
vt 0.138792 0.821791
vt 0.953366 0.057503
vt 0.765454 0.639660
vt 0.120235 0.821584
vt 0.772730 0.660154
vt 0.283154 0.037949
vt 0.784440 0.682652
vt 0.128680 0.843910
vt 0.970110 0.058056
vt 0.758353 0.637393
vt 0.180368 0.432154
vt 0.759258 0.257498
vt 0.884976 0.446549
vt 0.828099 0.241547
vt 0.971226 0.428512
vt 0.101516 0.405509
vt 0.908240 0.430567
vt 0.669958 0.778714
vt 0.946692 0.427163
vt 0.342544 0.853949
vt 0.673120 0.826722
vt 0.582140 0.817526
vt 0.570535 0.766286
vt 0.348248 0.806122
vt 0.576699 0.792002
vt 0.653753 0.802281
vt 0.776512 0.794925
vt 0.776512 0.748700
vt 0.327830 0.829868
vt 0.363063 0.830170
vt 0.327830 0.753980
vt 0.373865 0.753980
vt 0.689281 0.803194
vt 0.351093 0.753886
vt 0.776117 0.771930
vt 0.671321 0.802907
vt 0.345899 0.829874
vt 0.457498 0.727404
vt 0.165986 0.548054
vt 0.260364 0.376248
vt 0.625887 0.695531
vt 0.520555 0.743605
vt 0.734596 0.339638
vt 0.406824 0.703049
vt 0.012950 0.651015
vt 0.277407 0.507014
vt 0.206214 0.619338
vt 0.706517 0.466512
vt 0.399765 0.822801
vt 0.181517 0.620770
vt 0.619265 0.470337
vt 0.422433 0.807343
vt 0.582936 0.466512
vt 0.458892 0.202188
vt 0.422433 0.843958
vt 0.727583 0.468029
vt 0.460639 0.221880
vt 0.402692 0.843997
vt 0.717439 0.778459
vt 0.429089 0.593438
vt 0.518160 0.466685
vt 0.070962 0.817001
vt 0.726094 0.791097
vt 0.457498 0.298878
vt 0.715181 0.783741
vt 0.523936 0.466512
vt 0.458951 0.311476
vt 0.719061 0.788282
vt 0.458165 0.306435
vt 0.058766 0.817583
vt 0.726094 0.778429
vt 0.431598 0.585369
vt 0.599953 0.261833
vt 0.080449 0.668491
vt 0.542336 0.274386
vt 0.076079 0.728305
vt 0.500395 0.287212
vt 0.064936 0.773359
vt 0.389801 0.564275
vt 0.039540 0.774208
vt 0.356388 0.547019
vt 0.031995 0.737396
vt 0.319737 0.531779
vt 0.030523 0.696843
vt 0.505723 0.512116
vt 0.384015 0.580847
vt 0.506522 0.550736
vt 0.346302 0.574833
vt 0.507607 0.604105
vt 0.294291 0.566034
vt 0.610540 0.298468
vt 0.545535 0.300686
vt 0.502363 0.302883
vt 0.504402 0.313331
vt 0.517745 0.511765
vt 0.548610 0.318269
vt 0.527842 0.556627
vt 0.609940 0.323717
vt 0.531284 0.618364
vt 0.660591 0.582499
vt 0.204501 0.743892
vt 0.668589 0.550878
vt 0.206214 0.710848
vt 0.668004 0.517120
vt 0.204545 0.678125
vt 0.623877 0.525891
vt 0.164692 0.675333
vt 0.610236 0.563455
vt 0.167167 0.712219
vt 0.605277 0.597358
vt 0.166352 0.745757
vt 0.511839 0.183186
vt 0.584607 0.521652
vt 0.552303 0.182624
vt 0.569857 0.561129
vt 0.598009 0.178631
vt 0.565182 0.606784
vt 0.592158 0.236754
vt 0.721184 0.600612
vt 0.550092 0.232946
vt 0.722606 0.558204
vt 0.518921 0.225772
vt 0.713819 0.525134
s 0
usemtl Material
f 89/196/1 7/19/1 13/33/1 90/198/1
f 8/22/2 7/19/2 89/196/2 58/145/2 54/138/2 53/134/2
f 6/18/3 56/142/3 57/144/3
f 3/8/4 106/224/4 4/9/4 59/147/4 88/195/4
f 6/17/5 107/226/5 5/14/5 60/148/5 1/1/5 105/222/5 2/4/5 56/143/5
f 61/150/6 13/34/6 16/40/6 62/151/6
f 5/16/7 14/36/7 31/76/7 29/72/7
f 88/195/8 1/3/8 10/26/8 91/200/8
f 67/158/9 21/53/9 20/51/9 65/155/9
f 13/33/10 7/19/10 12/31/10 16/41/10
f 3/8/11 9/25/11 11/28/11 15/38/11
f 55/141/12 3/6/12 15/37/12 63/152/12
f 66/156/13 19/49/13 17/43/13 65/155/13
f 23/57/14 22/55/14 17/42/14 19/50/14
f 83/184/15 82/183/15 25/63/15 26/67/15
f 15/38/16 11/28/16 22/55/16 23/57/16
f 62/151/17 16/40/17 21/53/17 67/158/17
f 69/163/18 26/66/18 25/64/18 68/160/18
f 87/193/19 84/186/19 24/60/19 68/159/19
f 86/190/20 83/184/20 26/67/20 69/161/20
f 84/187/21 85/189/21 27/68/21 24/61/21
f 70/164/22 29/73/22 31/77/22 71/165/22
f 70/164/23 28/71/23 34/83/23 73/167/23
f 10/26/24 1/3/24 28/70/24 30/74/24
f 64/154/25 10/27/25 30/75/25 71/165/25
f 34/82/26 32/78/26 36/86/26 38/90/26
f 60/149/27 5/15/27 33/81/27 72/166/27
f 5/16/28 29/72/28 35/84/28 33/80/28
f 28/70/29 1/3/29 32/78/29 34/82/29
f 37/88/30 39/92/30 43/103/30 41/97/30
f 73/167/31 34/83/31 38/91/31 75/169/31
f 33/80/32 35/84/32 39/92/32 37/88/32
f 72/166/33 33/81/33 37/89/33 74/168/33
f 76/171/34 41/98/34 43/104/34 77/173/34
f 74/168/35 37/89/35 41/99/35 76/170/35
f 38/90/36 36/86/36 40/94/36 42/100/36
f 75/169/37 38/91/37 42/101/37 77/172/37
f 102/219/38 97/211/38 51/127/38 81/180/38
f 91/199/39 10/27/39 45/109/39 93/203/39
f 90/197/40 13/34/40 46/112/40 92/201/40
f 61/150/41 9/24/41 44/106/41 78/174/41
f 64/154/42 14/35/42 47/115/42 79/176/42
f 96/209/43 94/206/43 50/124/43 80/179/43
f 101/218/44 99/215/44 48/118/44 80/178/44
f 104/221/45 98/213/45 49/121/45 95/208/45
f 103/220/46 100/217/46 50/125/46 94/205/46
f 8/23/47 53/135/47 52/131/47
f 8/23/48 52/131/48 4/10/48 106/225/48 3/7/48 55/140/48 7/20/48
f 54/138/49 58/145/49 89/196/49 5/16/49 107/227/49 6/18/49 57/144/49
f 100/216/50 101/218/50 80/178/50 50/126/50
f 95/207/51 96/209/51 80/179/51 48/119/51
f 10/27/52 64/154/52 79/176/52 45/109/52
f 13/34/53 61/150/53 78/174/53 46/112/53
f 98/212/54 102/219/54 81/180/54 49/122/54
f 39/93/55 75/169/55 77/172/55 43/105/55
f 36/87/56 74/168/56 76/170/56 40/95/56
f 40/96/57 76/171/57 77/173/57 42/102/57
f 32/79/58 72/166/58 74/168/58 36/87/58
f 35/85/59 73/167/59 75/169/59 39/93/59
f 1/2/60 60/149/60 72/166/60 32/79/60
f 14/35/61 64/154/61 71/165/61 31/77/61
f 29/73/62 70/164/62 73/167/62 35/85/62
f 28/71/63 70/164/63 71/165/63 30/75/63
f 85/189/64 86/191/64 69/162/64 27/68/64
f 82/182/65 87/193/65 68/159/65 25/65/65
f 27/69/66 69/163/66 68/160/66 24/62/66
f 11/29/67 62/151/67 67/158/67 22/56/67
f 18/44/68 66/156/68 65/155/68 20/51/68
f 7/21/69 55/141/69 63/152/69 12/30/69
f 22/56/70 67/158/70 65/155/70 17/43/70
f 9/24/71 61/150/71 62/151/71 11/29/71
f 19/49/72 66/156/72 87/193/72 82/182/72
f 12/31/73 18/45/73 20/52/73 21/54/73 16/41/73
f 66/157/74 18/48/74 84/187/74 87/194/74
f 23/57/75 19/50/75 82/183/75 83/184/75
f 49/123/76 81/181/76 96/209/76 95/207/76
f 97/210/77 103/220/77 94/205/77 51/128/77
f 99/214/78 104/221/78 95/208/78 48/120/78
f 81/181/79 51/129/79 94/206/79 96/209/79
f 14/35/80 90/197/80 92/201/80 47/115/80
f 9/24/81 91/199/81 93/203/81 44/106/81
f 3/8/82 88/195/82 91/200/82 9/25/82
f 5/16/83 89/196/83 90/198/83 14/36/83
f 44/107/84 93/204/84 104/221/84 99/214/84
f 47/116/85 92/202/85 103/220/85 97/210/85
f 45/110/86 79/177/86 102/219/86 98/212/86
f 46/113/87 78/175/87 101/218/87 100/216/87
f 92/202/88 46/114/88 100/217/88 103/220/88
f 93/204/89 45/111/89 98/213/89 104/221/89
f 78/175/90 44/108/90 99/215/90 101/218/90
f 79/177/91 47/117/91 97/211/91 102/219/91
f 59/146/92 4/11/92 52/130/92 53/133/92 54/136/92 108/228/92
f 136/291/93 110/234/93 109/231/93 135/289/93
f 121/264/94 120/262/94 114/246/94 117/254/94
f 139/297/95 111/237/95 110/235/95 136/290/95
f 135/288/96 109/232/96 112/240/96 144/307/96
f 144/306/97 112/241/97 111/238/97 139/296/97
f 111/239/98 112/242/98 109/233/98 110/236/98
f 117/255/99 114/247/99 116/252/99 115/249/99 113/243/99
f 124/270/100 121/263/100 117/256/100 113/244/100
f 120/261/101 129/277/101 116/253/101 114/248/101
f 130/279/102 124/269/102 113/245/102 115/250/102
f 129/277/103 130/278/103 115/251/103 116/253/103
f 57/144/104 56/142/104 132/282/104 127/275/104
f 127/275/105 132/282/105 131/280/105 128/276/105
f 128/276/106 131/280/106 130/278/106 129/277/106
f 56/143/107 2/4/107 126/273/107 132/283/107
f 132/283/108 126/273/108 125/271/108 131/281/108
f 131/281/109 125/271/109 124/269/109 130/279/109
f 54/138/110 57/144/110 127/275/110 118/257/110
f 118/257/111 127/275/111 128/276/111 119/259/111
f 119/259/112 128/276/112 129/277/112 120/261/112
f 2/5/113 108/230/113 123/267/113 126/274/113
f 126/274/114 123/267/114 122/265/114 125/272/114
f 125/272/115 122/265/115 121/263/115 124/270/115
f 108/229/116 54/137/116 118/258/116 123/268/116
f 123/268/117 118/258/117 119/260/117 122/266/117
f 122/266/118 119/260/118 120/262/118 121/264/118
f 54/138/119 142/302/119 141/300/119 53/134/119
f 142/302/120 143/304/120 140/298/120 141/300/120
f 143/304/121 144/306/121 139/296/121 140/298/121
f 4/12/122 133/284/122 142/303/122 54/139/122
f 133/284/123 134/286/123 143/305/123 142/303/123
f 134/286/124 135/288/124 144/307/124 143/305/124
f 53/135/125 141/301/125 138/294/125 52/131/125
f 141/301/126 140/299/126 137/292/126 138/294/126
f 140/299/127 139/297/127 136/290/127 137/292/127
f 52/132/128 138/295/128 133/285/128 4/13/128
f 138/295/129 137/293/129 134/287/129 133/285/129
f 137/293/130 136/291/130 135/289/130 134/287/130
f 105/223/131 1/3/131 88/195/131 59/147/131 108/230/131 2/5/131
f 86/192/132 85/188/132 83/185/132
f 83/185/133 85/188/133 18/46/133 23/58/133
f 63/153/134 15/39/134 23/59/134 18/47/134 12/32/134
f 84/187/135 18/48/135 85/189/135
l 52 106
