# Blender 3.3.1
# www.blender.org
mtllib monstruo_3_grande_caminar548.mtl
o monstruo_grande
v 0.589818 1.916446 0.424827
v 0.524376 1.093614 0.080150
v -0.566986 1.875051 0.148784
v -0.293516 1.221889 0.223599
v 0.909506 2.152323 0.162933
v 0.650739 1.520971 -0.219534
v -0.609670 2.089668 -0.292668
v -0.600583 1.771621 -0.343078
v -0.126069 2.408332 0.469991
v 0.397908 2.231318 0.531910
v -0.275290 2.396602 0.552204
v -0.941123 2.187313 -0.216352
v -0.049713 2.574340 0.122673
v 0.476047 2.349300 0.264615
v -0.834753 2.040015 -0.035357
v -0.198755 2.671945 0.128024
v -0.644862 2.362017 0.502716
v -1.275679 2.130583 -0.022856
v -1.040872 2.144855 0.225554
v -0.735148 2.703964 0.224129
v -0.380795 2.738364 0.173116
v -0.357682 2.362451 0.515046
v -0.959775 2.070259 -0.069198
v -1.771424 0.877274 0.539903
v -1.658165 0.848577 0.608599
v -1.608386 0.682195 0.404926
v -1.677516 0.699712 0.362996
v 0.509421 2.134759 0.552437
v 0.728913 2.297427 0.360003
v 0.502123 2.247050 0.549535
v 0.598028 2.356934 0.334831
v 0.781527 1.853631 0.580671
v 0.993018 1.862676 0.522548
v 0.791932 1.914003 0.607320
v 0.948106 1.999601 0.516617
v 0.860126 1.723966 0.844588
v 0.972884 1.700302 0.818186
v 0.896844 1.779610 0.927411
v 1.004632 1.755380 0.896300
v 0.825908 1.680061 0.991107
v 1.051178 1.631147 0.928752
v 0.832762 1.773531 1.164488
v 1.171086 1.694185 1.066922
v 0.041084 2.431498 0.515541
v 0.245385 2.382867 0.519089
v 0.079955 2.531442 0.270583
v 0.278779 2.474738 0.275806
v 0.097190 2.740644 0.658277
v 0.302390 2.667232 0.637900
v 0.109969 2.846950 0.401798
v 0.315782 2.773091 0.381273
v -0.499089 1.219791 0.024901
v -0.390915 1.196764 -0.190402
v -0.035274 1.281163 -0.332284
v -0.602029 1.920137 -0.082218
v 0.538698 1.142848 -0.156259
v 0.320923 1.170546 -0.273681
v 0.074485 1.518832 -0.315664
v -0.031441 1.129199 0.198933
v 0.706381 1.979216 0.346653
v -0.092407 2.466021 0.348443
v -0.234772 2.646322 0.396184
v -0.757899 2.100597 -0.128413
v 0.420704 2.352368 0.421798
v -0.630301 2.590025 0.468057
v -1.206827 2.264564 0.239246
v -0.386892 2.654788 0.369434
v -1.732080 0.860795 0.601859
v -1.608876 0.580161 0.281498
v 0.632099 2.235144 0.499732
v 0.555443 2.348601 0.464053
v 0.872144 1.814711 0.521676
v 0.885088 1.974186 0.612420
v 0.914552 1.711298 0.829355
v 0.950886 1.766936 0.911827
v 0.930014 1.638662 0.943767
v 0.986148 1.703590 1.085617
v 0.058646 2.481259 0.391717
v 0.259548 2.430124 0.396140
v 0.072113 2.796265 0.529646
v 0.340167 2.717869 0.510235
v -1.513167 1.169526 0.596234
v -1.564265 1.001826 0.509946
v -1.710193 1.189891 0.477897
v -1.670869 1.028837 0.445287
v -1.609064 0.852497 0.395575
v -1.644830 1.158864 0.582525
v 0.029600 1.746493 0.516236
v 0.339719 2.081699 -0.166759
v 0.300285 2.476067 0.098965
v 0.127418 2.264799 0.643428
v 0.173176 2.503581 0.271252
v 0.149504 2.407727 0.516410
v 0.215056 2.825912 0.352794
v 0.197903 2.688003 0.686497
v 0.209747 2.808172 0.541349
v 0.311333 2.635008 0.304449
v 0.291417 2.516930 0.596979
v 0.055221 2.577502 0.609515
v 0.074180 2.698694 0.315026
v 0.046856 2.639472 0.461938
v 0.315934 2.575581 0.450518
v 0.192914 2.675178 0.289090
v 0.172611 2.538710 0.623150
v 0.647183 1.570246 0.095653
v -0.533399 1.587483 0.181574
v 0.750034 1.711351 -0.154924
v 0.165442 1.076279 0.199114
v -0.284989 0.076118 0.064637
v -0.419944 0.089081 0.197049
v -0.463425 0.090445 -0.050648
v -0.330102 0.078799 -0.075161
v 0.313932 -0.070802 -0.036577
v 0.240602 -0.083507 -0.112031
v 0.323351 -0.074861 -0.074835
v 0.291880 -0.080201 -0.100832
v 0.254868 -0.072171 -0.026291
v 0.069976 0.821415 -0.146062
v 0.141424 0.550508 -0.100187
v 0.179198 0.247045 -0.089791
v 0.205827 0.212582 0.086857
v 0.185919 0.454519 0.175918
v 0.192111 0.727734 0.230958
v 0.328882 0.213592 0.066832
v 0.394054 0.461319 0.143111
v 0.479634 0.793646 0.167754
v 0.325728 0.833917 -0.126082
v 0.319748 0.540180 -0.064877
v 0.285230 0.240491 -0.066214
v 0.349846 0.229449 -0.011481
v 0.429847 0.523768 0.023160
v 0.498136 0.833757 -0.020010
v -0.187311 0.966147 0.364359
v -0.192491 0.661607 0.333684
v -0.210764 0.416153 0.315977
v -0.495422 0.430423 0.303438
v -0.480486 0.707919 0.278128
v -0.478611 0.965118 0.249037
v -0.524488 0.461725 0.034888
v -0.507250 0.735168 0.011312
v -0.500332 0.940864 -0.025848
v -0.110713 0.863082 -0.056284
v -0.167169 0.681426 -0.027752
v -0.229652 0.478167 0.004257
vn 0.1106 0.5670 -0.8163
vn 0.0306 0.0572 -0.9979
vn 0.4298 -0.2715 -0.8612
vn -0.3809 -0.2087 0.9008
vn 0.8955 -0.3853 0.2228
vn 0.6876 0.6656 0.2901
vn 0.3299 0.8490 -0.4128
vn 0.2667 -0.2328 0.9352
vn -0.0460 0.9075 0.4175
vn 0.0801 0.5460 -0.8340
vn -0.3615 -0.4355 0.8244
vn -0.4840 -0.8117 -0.3271
vn -0.4041 -0.1212 0.9067
vn 0.1214 -0.9097 0.3972
vn 0.8814 -0.3116 0.3550
vn -0.1968 -0.7620 0.6170
vn 0.2248 0.9438 0.2423
vn -0.1402 -0.7757 0.6154
vn -0.7805 0.2652 0.5662
vn 0.9835 -0.0060 -0.1809
vn -0.7580 0.1005 -0.6445
vn 0.4902 0.7465 0.4500
vn -0.0199 0.3087 0.9510
vn -0.5018 -0.4186 0.7569
vn -0.2092 0.6849 0.6980
vn -0.9417 0.0724 0.3286
vn 0.1172 -0.7293 -0.6741
vn 0.8192 0.5536 0.1496
vn -0.5835 -0.5005 0.6395
vn 0.7770 0.1302 -0.6159
vn -0.2292 0.8243 0.5177
vn 0.9973 0.0722 -0.0103
vn 0.1627 -0.9007 -0.4028
vn -0.0042 -0.9085 0.4178
vn -0.1588 -0.8638 -0.4782
vn -0.8482 0.5076 -0.1512
vn 0.4335 0.8831 0.1796
vn 0.9916 -0.0420 -0.1220
vn 0.3183 0.5180 0.7939
vn 0.2756 0.9603 0.0439
vn -0.2091 0.9111 0.3553
vn 0.4694 0.8460 0.2528
vn 0.0704 0.9730 0.2200
vn -0.9741 0.1400 0.1776
vn 0.2383 -0.3448 0.9079
vn -0.1944 0.4708 -0.8606
vn -0.8340 -0.4040 -0.3758
vn -0.9671 -0.1634 0.1952
vn 0.2447 0.2067 -0.9473
vn -0.9587 0.2553 -0.1253
vn 0.0537 0.8414 0.5377
vn 0.4377 0.6946 0.5710
vn -0.1715 0.9077 0.3831
vn 0.9734 -0.1699 0.1535
vn 0.1229 0.9541 0.2730
vn -0.4321 -0.8115 -0.3935
vn -0.1477 -0.8716 0.4675
vn -0.4384 -0.8609 -0.2582
vn 0.3547 0.8068 0.4725
vn -0.1762 -0.8898 -0.4209
vn -0.0201 0.9997 0.0115
vn 0.4711 0.6729 0.5703
vn 0.3656 0.2873 0.8854
vn -0.2389 0.3037 -0.9223
vn -0.0979 0.0875 0.9913
vn -0.7401 -0.6237 0.2515
vn -0.2796 0.4713 0.8365
vn -0.6645 0.7202 0.1996
vn -0.4765 -0.7941 -0.3772
vn 0.1122 0.3281 0.9379
vn 0.5715 0.4697 0.6729
vn 0.1033 0.2821 0.9538
vn -0.2452 0.6670 -0.7036
vn -0.8716 0.4510 0.1924
vn 0.8961 -0.3391 0.2862
vn 0.5029 0.6885 0.5225
vn 0.3360 0.3869 -0.8587
vn -0.2886 -0.2677 0.9193
vn 0.5209 0.8382 0.1613
vn 0.4541 0.8888 0.0619
vn -0.1367 0.5574 0.8189
vn -0.5517 -0.0717 0.8310
vn 0.4314 0.6992 -0.5701
vn -0.2058 -0.5559 0.8054
vn 0.1241 0.1184 -0.9852
vn 0.9390 -0.3439 -0.0004
vn -0.9845 0.0086 -0.1751
vn -0.0725 0.1832 -0.9804
vn -0.0327 -0.5655 0.8241
vn -0.9995 0.0213 -0.0251
vn 0.9626 -0.2662 -0.0511
vn -0.0978 -0.9863 -0.1331
vn 0.2175 -0.4534 0.8644
vn -0.9700 -0.2034 0.1332
vn -0.9682 -0.2184 0.1222
vn 0.9742 -0.1582 -0.1608
vn -0.1271 0.2138 -0.9686
vn -0.0860 -0.9963 0.0093
vn 0.0449 -0.9910 0.1263
vn 0.1586 -0.3428 0.9259
vn 0.2167 0.1074 -0.9703
vn 0.9621 -0.1349 0.2371
vn 0.6436 0.0985 -0.7590
vn 0.4387 -0.3819 -0.8135
vn 0.5457 -0.2075 -0.8119
vn 0.6241 -0.0732 -0.7779
vn 0.9914 -0.1199 0.0515
vn 0.9687 -0.2293 0.0945
vn 0.9453 -0.2855 0.1579
vn 0.0578 -0.3791 -0.9235
vn 0.1253 -0.1708 -0.9773
vn 0.2020 -0.0136 -0.9793
vn 0.2471 0.1689 0.9542
vn 0.2102 -0.1588 0.9647
vn 0.1563 -0.3289 0.9313
vn -0.9470 -0.0700 0.3136
vn -0.9698 -0.1199 0.2126
vn -0.9853 -0.1215 0.1198
vn -0.1909 -0.4999 -0.8448
vn -0.1200 -0.1469 -0.9818
vn -0.1142 -0.0962 -0.9888
vn 0.9234 0.2316 0.3062
vn 0.9820 -0.1251 0.1413
vn 0.9840 -0.1775 -0.0122
vn -0.9835 0.0366 -0.1770
vn -0.9955 0.0317 0.0893
vn -0.9915 0.0677 0.1108
vn -0.4854 0.4255 0.7638
vn -0.2829 0.0008 0.9592
vn -0.1158 0.0218 0.9930
vn 0.3414 -0.3867 0.8567
vn 0.5473 0.3992 -0.7356
vn -0.0468 -0.4166 -0.9079
vn -0.1527 -0.7704 -0.6190
vn -0.7206 -0.0357 -0.6924
vt 0.882279 0.260085
vt 0.436089 0.649131
vt 0.117664 0.305524
vt 0.860974 0.338762
vt 0.079561 0.383885
vt 0.278417 0.728674
vt 0.111517 0.716819
vt 0.301243 0.337859
vt 0.232943 0.387386
vt 0.111517 0.662267
vt 0.671871 0.687525
vt 0.175114 0.511099
vt 0.930991 0.712692
vt 0.796001 0.259488
vt 0.522181 0.649131
vt 0.719621 0.316178
vt 0.801110 0.310020
vt 0.698705 0.366293
vt 0.510656 0.337024
vt 0.023033 0.717149
vt 0.367094 0.730187
vt 0.507246 0.358198
vt 0.018976 0.695717
vt 0.103380 0.570561
vt 0.268725 0.266033
vt 0.143950 0.273348
vt 0.098384 0.631539
vt 0.301351 0.259488
vt 0.128079 0.559933
vt 0.480438 0.333338
vt 0.348619 0.714075
vt 0.604958 0.268707
vt 0.031105 0.562973
vt 0.043818 0.625810
vt 0.721993 0.282954
vt 0.329365 0.336360
vt 0.302724 0.713315
vt 0.030374 0.549675
vt 0.582817 0.260846
vt 0.875347 0.642471
vt 0.380514 0.272320
vt 0.124895 0.517524
vt 0.813390 0.578569
vt 0.436089 0.332372
vt 0.956124 0.588845
vt 0.367094 0.692599
vt 0.367094 0.522797
vt 0.871643 0.594841
vt 0.398138 0.324445
vt 0.043891 0.509019
vt 0.796001 0.641153
vt 0.491075 0.268473
vt 0.032114 0.534706
vt 0.552485 0.259488
vt 0.331566 0.259909
vt 0.129819 0.544964
vt 0.339759 0.337186
vt 0.913298 0.588845
vt 0.317584 0.707220
vt 0.845734 0.463378
vt 0.311567 0.646434
vt 0.944558 0.353645
vt 0.398138 0.462439
vt 0.920230 0.354337
vt 0.870057 0.463781
vt 0.929709 0.374247
vt 0.357807 0.478584
vt 0.347994 0.663056
vt 0.944558 0.373825
vt 0.097076 0.285727
vt 0.229765 0.651022
vt 0.758050 0.297859
vt 0.168317 0.651042
vt 0.119329 0.272208
vt 0.094178 0.643292
vt 0.222768 0.636959
vt 0.746872 0.283208
vt 0.174541 0.636975
vt 0.045175 0.638147
vt 0.080672 0.327471
vt 0.442544 0.673801
vt 0.734592 0.339187
vt 0.484453 0.673801
vt 0.070725 0.319456
vt 0.218298 0.685110
vt 0.751374 0.331694
vt 0.180611 0.684911
vt 0.062412 0.356092
vt 0.455575 0.702696
vt 0.724658 0.367821
vt 0.476314 0.702696
vt 0.043357 0.357400
vt 0.210236 0.723455
vt 0.742364 0.370210
vt 0.189444 0.723462
vt 0.050281 0.367705
vt 0.444942 0.715336
vt 0.810526 0.722486
vt 0.728448 0.380153
vt 0.853695 0.722486
vt 0.487920 0.715336
vt 0.018975 0.371756
vt 0.232852 0.738567
vt 0.796001 0.739289
vt 0.758050 0.386241
vt 0.861207 0.739289
vt 0.167770 0.738589
vt 0.100634 0.583041
vt 0.712300 0.698974
vt 0.802197 0.701507
vt 0.098640 0.600731
vt 0.972705 0.287497
vt 0.747907 0.696578
vt 0.052045 0.577939
vt 0.849895 0.701507
vt 0.710445 0.675017
vt 0.050052 0.595630
vt 0.746553 0.677603
vt 0.924885 0.287497
vt 0.797725 0.671259
vt 0.981025 0.313792
vt 0.715147 0.730011
vt 0.752543 0.724602
vt 0.973919 0.259495
vt 0.967002 0.332143
vt 0.934252 0.306472
vt 0.715328 0.644023
vt 0.847669 0.671259
vt 0.923848 0.259495
vt 0.753088 0.649631
vt 0.920230 0.324823
vt 0.068284 0.665533
vt 0.630362 0.705721
vt 0.712055 0.621316
vt 0.966165 0.712391
vt 0.519769 0.388732
vt 0.031375 0.663704
vt 0.592215 0.695479
vt 0.581836 0.620019
vt 0.750017 0.621843
vt 0.569690 0.667298
vt 0.581066 0.387596
vt 0.531739 0.516092
vt 0.642835 0.625048
vt 0.273616 0.509019
vt 0.070982 0.710642
vt 0.316851 0.732164
vt 0.684917 0.393810
vt 0.816625 0.338063
vt 0.644803 0.392946
vt 0.602800 0.367236
vt 0.671871 0.661666
vt 0.181146 0.386242
vt 0.855113 0.259897
vt 0.463196 0.649131
vt 0.077903 0.567886
vt 0.078993 0.554271
vt 0.322237 0.720993
vt 0.070972 0.628379
vt 0.834014 0.651825
vt 0.084160 0.512738
vt 0.838315 0.596273
vt 0.320679 0.509019
vt 0.080733 0.539302
vt 0.857365 0.464048
vt 0.931678 0.351118
vt 0.335174 0.488977
vt 0.367094 0.673623
vt 0.939667 0.384854
vt 0.199177 0.651021
vt 0.069465 0.641494
vt 0.198664 0.632807
vt 0.464209 0.672968
vt 0.199604 0.684998
vt 0.465945 0.702696
vt 0.199840 0.723459
vt 0.466714 0.715004
vt 0.832520 0.720483
vt 0.200177 0.738589
vt 0.829423 0.735282
vt 0.076340 0.580490
vt 0.826046 0.701507
vt 0.074346 0.598181
vt 0.948795 0.287497
vt 0.823088 0.670800
vt 0.959731 0.307426
vt 0.948976 0.259488
vt 0.941524 0.331189
vt 0.875347 0.491894
vt 0.391834 0.432095
vt 0.377694 0.448634
vt 0.915590 0.478791
vt 0.834644 0.488373
vt 0.326937 0.619279
vt 0.938593 0.478810
vt 0.335216 0.632947
vt 0.358601 0.463790
vt 0.348787 0.648138
vt 0.927106 0.463378
vt 0.854274 0.489560
vt 0.315804 0.619182
vt 0.212520 0.321385
vt 0.644070 0.318501
vt 0.018976 0.592450
vt 0.663817 0.276029
vt 0.129819 0.597828
vt 0.224108 0.269832
vt 0.051049 0.586785
vt 0.728499 0.676310
vt 0.099637 0.591886
vt 0.730103 0.697776
vt 0.734390 0.646904
vt 0.920230 0.314550
vt 0.981025 0.324065
vt 0.732426 0.727384
vt 0.950683 0.319044
vt 0.753088 0.663662
vt 0.920230 0.273492
vt 0.977552 0.273492
vt 0.752543 0.710647
vt 0.709822 0.714522
vt 0.796001 0.686127
vt 0.853178 0.686127
vt 0.709822 0.659561
vt 0.824792 0.685890
vt 0.948939 0.273488
vt 0.731549 0.661651
vt 0.730449 0.712624
vt 0.878850 0.297575
vt 0.096711 0.342677
vt 0.285581 0.357771
vt 0.108549 0.696221
vt 0.804979 0.293594
vt 0.708839 0.350023
vt 0.668288 0.644023
vt 0.436089 0.526409
vt 0.145034 0.385321
vt 0.919159 0.607821
vt 0.247387 0.613831
vt 0.970304 0.416607
vt 0.947808 0.608020
vt 0.704660 0.516092
vt 0.970304 0.403829
vt 0.750017 0.516884
vt 0.618892 0.516092
vt 0.920230 0.404231
vt 0.273616 0.612878
vt 0.642836 0.516847
vt 0.938584 0.415207
vt 0.924281 0.443436
vt 0.075400 0.489812
vt 0.855524 0.444402
vt 0.531739 0.629156
vt 0.934913 0.435583
vt 0.576828 0.496673
vt 0.931440 0.443424
vt 0.848383 0.444289
vt 0.592622 0.497116
vt 0.934913 0.440184
vt 0.586164 0.496977
vt 0.517161 0.630156
vt 0.920230 0.438606
vt 0.085942 0.490043
vt 0.585376 0.420489
vt 0.510472 0.551446
vt 0.582586 0.444044
vt 0.504260 0.576063
vt 0.581388 0.469636
vt 0.508131 0.602400
vt 0.103684 0.463024
vt 0.477645 0.604263
vt 0.118194 0.440373
vt 0.454885 0.581958
vt 0.129418 0.415411
vt 0.438452 0.557360
vt 0.876897 0.417052
vt 0.081901 0.462161
vt 0.882279 0.393921
vt 0.081653 0.438865
vt 0.880271 0.363315
vt 0.079604 0.408162
vt 0.633117 0.418943
vt 0.615530 0.444447
vt 0.600997 0.469910
vt 0.614559 0.469949
vt 0.862035 0.416811
vt 0.638313 0.444473
vt 0.857648 0.390640
vt 0.666106 0.417503
vt 0.844696 0.362700
vt 0.167770 0.536691
vt 0.914144 0.688660
vt 0.182151 0.561697
vt 0.913298 0.663084
vt 0.189855 0.582503
vt 0.915415 0.641729
vt 0.680787 0.549268
vt 0.966165 0.641681
vt 0.684678 0.573659
vt 0.963812 0.665813
vt 0.684995 0.596421
vt 0.964308 0.688427
vt 0.584794 0.548886
vt 0.729850 0.550060
vt 0.578610 0.572959
vt 0.734888 0.574452
vt 0.569690 0.595426
vt 0.736445 0.597214
vt 0.642060 0.590920
vt 0.247172 0.543053
vt 0.641052 0.570535
vt 0.248998 0.562413
vt 0.635978 0.552556
vt 0.245738 0.579271
s 0
usemtl Material
f 89/203/1 7/19/1 13/32/1 90/205/1
f 8/22/2 7/19/2 89/203/2 58/151/2 54/142/2 53/136/2
f 6/18/3 56/148/3 57/150/3
f 3/8/4 106/231/4 4/9/4 59/153/4 88/202/4
f 6/17/5 107/233/5 5/14/5 60/154/5 1/1/5 105/229/5 2/4/5 56/149/5
f 61/156/6 13/33/6 16/38/6 62/157/6
f 5/16/7 14/35/7 31/77/7 29/72/7
f 88/202/8 1/3/8 10/26/8 91/207/8
f 67/164/9 21/53/9 20/50/9 65/161/9
f 13/32/10 7/19/10 12/30/10 16/39/10
f 3/8/11 9/25/11 11/28/11 15/36/11
f 55/147/12 3/6/12 15/37/12 63/158/12
f 66/162/13 19/48/13 17/40/13 65/160/13
f 23/57/14 22/55/14 17/41/14 19/49/14
f 83/191/15 82/190/15 25/63/15 26/67/15
f 15/36/16 11/28/16 22/55/16 23/57/16
f 62/157/17 16/38/17 21/53/17 67/164/17
f 69/169/18 26/66/18 25/64/18 68/166/18
f 87/200/19 84/193/19 24/60/19 68/165/19
f 86/197/20 83/191/20 26/67/20 69/167/20
f 84/194/21 85/196/21 27/68/21 24/61/21
f 70/170/22 29/73/22 31/78/22 71/172/22
f 70/170/23 28/71/23 34/85/23 73/174/23
f 10/26/24 1/3/24 28/70/24 30/74/24
f 64/159/25 10/27/25 30/75/25 71/171/25
f 34/84/26 32/80/26 36/88/26 38/92/26
f 60/155/27 5/15/27 33/83/27 72/173/27
f 5/16/28 29/72/28 35/86/28 33/82/28
f 28/70/29 1/3/29 32/80/29 34/84/29
f 37/90/30 39/94/30 43/105/30 41/99/30
f 73/174/31 34/85/31 38/93/31 75/176/31
f 33/82/32 35/86/32 39/94/32 37/90/32
f 72/173/33 33/83/33 37/91/33 74/175/33
f 76/178/34 41/100/34 43/106/34 77/180/34
f 74/175/35 37/91/35 41/101/35 76/177/35
f 38/92/36 36/88/36 40/96/36 42/102/36
f 75/176/37 38/93/37 42/103/37 77/179/37
f 102/226/38 97/218/38 51/129/38 81/187/38
f 91/206/39 10/27/39 45/111/39 93/210/39
f 90/204/40 13/33/40 46/114/40 92/208/40
f 61/156/41 9/24/41 44/108/41 78/181/41
f 64/159/42 14/34/42 47/117/42 79/183/42
f 96/216/43 94/213/43 50/126/43 80/186/43
f 101/225/44 99/222/44 48/120/44 80/185/44
f 104/228/45 98/220/45 49/123/45 95/215/45
f 103/227/46 100/224/46 50/127/46 94/212/46
f 8/23/47 53/137/47 52/132/47
f 8/23/48 52/132/48 4/10/48 106/232/48 3/7/48 55/146/48 7/20/48
f 54/142/49 58/151/49 89/203/49 5/16/49 107/234/49 6/18/49 57/150/49
f 100/223/50 101/225/50 80/185/50 50/128/50
f 95/214/51 96/216/51 80/186/51 48/121/51
f 10/27/52 64/159/52 79/183/52 45/111/52
f 13/33/53 61/156/53 78/181/53 46/114/53
f 98/219/54 102/226/54 81/187/54 49/124/54
f 39/95/55 75/176/55 77/179/55 43/107/55
f 36/89/56 74/175/56 76/177/56 40/97/56
f 40/98/57 76/178/57 77/180/57 42/104/57
f 32/81/58 72/173/58 74/175/58 36/89/58
f 35/87/59 73/174/59 75/176/59 39/95/59
f 1/2/60 60/155/60 72/173/60 32/81/60
f 14/34/61 64/159/61 71/171/61 31/79/61
f 29/73/62 70/170/62 73/174/62 35/87/62
f 28/71/63 70/170/63 71/172/63 30/76/63
f 85/196/64 86/198/64 69/168/64 27/68/64
f 82/189/65 87/200/65 68/165/65 25/65/65
f 27/69/66 69/169/66 68/166/66 24/62/66
f 11/29/67 62/157/67 67/164/67 22/56/67
f 18/43/68 66/162/68 65/160/68 20/51/68
f 7/21/69 55/147/69 63/158/69 12/31/69
f 22/56/70 67/164/70 65/161/70 17/42/70
f 9/24/71 61/156/71 62/157/71 11/29/71
f 19/48/72 66/162/72 87/200/72 82/189/72
f 12/30/73 18/44/73 20/52/73 21/54/73 16/39/73
f 66/163/74 18/47/74 84/194/74 87/201/74
f 23/57/75 19/49/75 82/190/75 83/191/75
f 49/125/76 81/188/76 96/216/76 95/214/76
f 97/217/77 103/227/77 94/212/77 51/130/77
f 99/221/78 104/228/78 95/215/78 48/122/78
f 81/188/79 51/131/79 94/213/79 96/216/79
f 14/34/80 90/204/80 92/208/80 47/117/80
f 9/24/81 91/206/81 93/210/81 44/108/81
f 3/8/82 88/202/82 91/207/82 9/25/82
f 5/16/83 89/203/83 90/205/83 14/35/83
f 44/109/84 93/211/84 104/228/84 99/221/84
f 47/118/85 92/209/85 103/227/85 97/217/85
f 45/112/86 79/184/86 102/226/86 98/219/86
f 46/115/87 78/182/87 101/225/87 100/223/87
f 92/209/88 46/116/88 100/224/88 103/227/88
f 93/211/89 45/113/89 98/220/89 104/228/89
f 78/182/90 44/110/90 99/222/90 101/225/90
f 79/184/91 47/119/91 97/218/91 102/226/91
f 59/152/92 4/11/92 52/133/92 53/138/92 54/141/92 108/235/92
f 136/298/93 110/241/93 109/238/93 135/296/93
f 121/271/94 120/269/94 114/253/94 117/261/94
f 139/304/95 111/244/95 110/242/95 136/297/95
f 135/295/96 109/239/96 112/247/96 144/314/96
f 144/313/97 112/248/97 111/245/97 139/303/97
f 111/246/98 112/249/98 109/240/98 110/243/98
f 117/262/99 114/254/99 116/259/99 115/256/99 113/250/99
f 124/277/100 121/270/100 117/263/100 113/251/100
f 120/268/101 129/284/101 116/260/101 114/255/101
f 130/286/102 124/276/102 113/252/102 115/257/102
f 129/284/103 130/285/103 115/258/103 116/260/103
f 57/150/104 56/148/104 132/289/104 127/282/104
f 127/282/105 132/289/105 131/287/105 128/283/105
f 128/283/106 131/287/106 130/285/106 129/284/106
f 56/149/107 2/4/107 126/280/107 132/290/107
f 132/290/108 126/280/108 125/278/108 131/288/108
f 131/288/109 125/278/109 124/276/109 130/286/109
f 54/142/110 57/150/110 127/282/110 118/264/110
f 118/264/111 127/282/111 128/283/111 119/266/111
f 119/266/112 128/283/112 129/284/112 120/268/112
f 2/5/113 108/237/113 123/274/113 126/281/113
f 126/281/114 123/274/114 122/272/114 125/279/114
f 125/279/115 122/272/115 121/270/115 124/277/115
f 108/236/116 54/143/116 118/265/116 123/275/116
f 123/275/117 118/265/117 119/267/117 122/273/117
f 122/273/118 119/267/118 120/269/118 121/271/118
f 54/144/119 142/309/119 141/307/119 53/139/119
f 142/309/120 143/311/120 140/305/120 141/307/120
f 143/311/121 144/313/121 139/303/121 140/305/121
f 4/12/122 133/291/122 142/310/122 54/145/122
f 133/291/123 134/293/123 143/312/123 142/310/123
f 134/293/124 135/295/124 144/314/124 143/312/124
f 53/140/125 141/308/125 138/301/125 52/134/125
f 141/308/126 140/306/126 137/299/126 138/301/126
f 140/306/127 139/304/127 136/297/127 137/299/127
f 52/135/128 138/302/128 133/292/128 4/13/128
f 138/302/129 137/300/129 134/294/129 133/292/129
f 137/300/130 136/298/130 135/296/130 134/294/130
f 105/230/131 1/3/131 88/202/131 59/153/131 108/237/131 2/5/131
f 86/199/132 85/195/132 83/192/132
f 83/192/133 85/195/133 18/45/133 23/58/133
f 63/158/134 15/37/134 23/59/134 18/46/134 12/31/134
f 84/194/135 18/47/135 85/196/135
l 52 106
