# Blender 3.3.1
# www.blender.org
mtllib monstruo_3_grande_caminar635.mtl
o monstruo_grande
v 0.389631 2.005555 0.262492
v 0.508630 1.184498 0.138064
v -0.710036 1.748079 0.196899
v -0.310071 1.091724 0.187664
v 0.553567 2.291639 -0.080099
v 0.552277 1.589757 -0.218769
v -0.839356 1.980291 -0.211793
v -0.734493 1.713512 -0.282116
v -0.322079 2.378849 0.492429
v 0.236556 2.280240 0.458190
v -0.452922 2.343489 0.591973
v -1.202403 2.008756 -0.046550
v -0.318361 2.554071 0.137882
v 0.236159 2.426498 0.199041
v -1.045627 1.873778 0.104548
v -0.482429 2.623336 0.163578
v -0.799104 2.255130 0.614385
v -1.484442 1.922323 0.231193
v -1.201423 1.963053 0.427667
v -0.992404 2.569812 0.356373
v -0.666584 2.657860 0.235359
v -0.526076 2.299410 0.568546
v -1.176176 1.889359 0.112054
v -1.765431 0.656447 0.905784
v -1.637805 0.635412 0.946275
v -1.629542 0.462576 0.742063
v -1.707441 0.475416 0.717348
v 0.392239 2.198846 0.444027
v 0.496956 2.395380 0.189739
v 0.350475 2.310184 0.455717
v 0.367718 2.447459 0.231361
v 0.642769 1.891664 0.260952
v 0.763658 1.985910 0.089850
v 0.661021 1.970773 0.310000
v 0.744650 2.087820 0.161165
v 0.831588 1.670632 0.221800
v 0.909921 1.704396 0.145047
v 0.911906 1.641763 0.284181
v 0.987057 1.683891 0.207100
v 0.853950 1.519840 0.256344
v 1.013188 1.605538 0.099031
v 0.956243 1.428606 0.397966
v 1.190875 1.555606 0.154866
v -0.157645 2.432322 0.513915
v 0.052855 2.405755 0.497610
v -0.155373 2.537961 0.268127
v 0.047645 2.510084 0.255668
v -0.100727 2.744188 0.662597
v 0.104438 2.678807 0.623302
v -0.112400 2.860106 0.410229
v 0.091757 2.795232 0.370569
v -0.506163 1.151403 -0.033172
v -0.381186 1.211145 -0.233408
v -0.041303 1.279104 -0.334489
v -0.767690 1.798103 -0.018661
v 0.557781 1.174070 -0.097724
v 0.351896 1.170023 -0.245212
v 0.003344 1.527575 -0.321178
v -0.032874 1.142434 0.180352
v 0.447296 2.090773 0.147770
v -0.314427 2.440897 0.368320
v -0.477834 2.594506 0.436607
v -0.982600 1.948889 -0.013838
v 0.215019 2.410100 0.359757
v -0.830585 2.482221 0.574930
v -1.376674 2.063904 0.473656
v -0.630124 2.577434 0.430427
v -1.711723 0.644285 0.957025
v -1.654214 0.355375 0.625681
v 0.479872 2.309133 0.347853
v 0.360782 2.423438 0.367067
v 0.662787 1.918403 0.135306
v 0.742009 2.041460 0.268191
v 0.869436 1.690280 0.183097
v 0.949384 1.662050 0.245350
v 0.914730 1.564259 0.160815
v 1.039783 1.496864 0.246302
v -0.157455 2.484231 0.389938
v 0.048353 2.459284 0.376043
v -0.137760 2.803565 0.538615
v 0.129617 2.735765 0.495091
v -1.516171 0.961206 0.889275
v -1.577825 0.787983 0.823152
v -1.736539 0.967852 0.820387
v -1.697951 0.807782 0.785040
v -1.640959 0.632144 0.727679
v -1.646617 0.944571 0.907812
v -0.063786 1.756247 0.517403
v 0.088289 2.136971 -0.187418
v 0.046818 2.516195 0.075224
v -0.007544 2.265073 0.629709
v -0.056989 2.523123 0.260241
v -0.047838 2.418863 0.504813
v -0.012332 2.844813 0.352206
v 0.003551 2.694112 0.680732
v -0.000083 2.819853 0.539931
v 0.082813 2.662365 0.288645
v 0.093955 2.531524 0.577398
v -0.141950 2.581167 0.610847
v -0.155054 2.712140 0.319873
v -0.165076 2.647627 0.466835
v 0.103672 2.596835 0.431773
v -0.037728 2.695871 0.283899
v -0.022182 2.546531 0.613732
v 0.439857 1.691982 -0.000672
v -0.593543 1.467289 0.212426
v 0.556654 1.805476 -0.214507
v 0.149764 1.180120 0.203791
v -0.247843 0.051727 -0.306344
v -0.397194 0.042831 -0.190306
v -0.412661 0.068989 -0.439173
v -0.276952 0.067023 -0.448702
v 0.277817 0.016715 0.255446
v 0.206400 -0.000899 0.179457
v 0.288263 0.010381 0.217700
v 0.257470 0.003417 0.191312
v 0.218462 0.015923 0.264490
v 0.084841 0.850408 -0.067359
v 0.110825 0.604005 0.068045
v 0.143421 0.314171 0.158779
v 0.172145 0.326240 0.337917
v 0.155780 0.583239 0.361274
v 0.165336 0.861272 0.343366
v 0.294914 0.320439 0.316972
v 0.362955 0.578904 0.326376
v 0.457397 0.912389 0.287330
v 0.340323 0.870479 -0.019513
v 0.289094 0.601802 0.105663
v 0.249675 0.312424 0.181992
v 0.314937 0.315148 0.237003
v 0.399256 0.608058 0.195678
v 0.498768 0.902876 0.101905
v -0.209483 0.801683 0.211429
v -0.190539 0.534328 0.081977
v -0.196353 0.309265 -0.005981
v -0.481486 0.316351 -0.026045
v -0.478251 0.584979 0.030588
v -0.489838 0.836870 0.075653
v -0.504308 0.419474 -0.273892
v -0.498191 0.690987 -0.219137
v -0.487666 0.916988 -0.190708
v -0.093379 0.860531 -0.208199
v -0.154959 0.664235 -0.257773
v -0.209904 0.455468 -0.287045
vn -0.0763 0.5659 -0.8210
vn -0.0517 0.1148 -0.9920
vn 0.5706 -0.2226 -0.7905
vn -0.2532 -0.3168 0.9141
vn 0.9352 -0.0091 0.3541
vn 0.5906 0.7793 0.2098
vn 0.0945 0.9117 -0.3997
vn 0.5708 -0.2384 0.7858
vn -0.1042 0.9030 0.4168
vn -0.1844 0.5698 -0.8008
vn -0.0884 -0.5239 0.8472
vn -0.3813 -0.8636 -0.3298
vn -0.1906 -0.1395 0.9717
vn 0.3539 -0.8623 0.3622
vn 0.9550 -0.2595 0.1436
vn 0.0573 -0.7668 0.6393
vn 0.0930 0.9714 0.2186
vn 0.0490 -0.7535 0.6556
vn -0.6374 0.2577 0.7261
vn 0.9114 0.0265 -0.4107
vn -0.8932 0.0409 -0.4479
vn 0.5800 0.7459 0.3274
vn 0.5040 0.1752 0.8457
vn -0.2098 -0.5428 0.8132
vn -0.1151 0.6025 0.7898
vn -0.5241 -0.5004 0.6892
vn -0.3218 -0.5421 -0.7762
vn 0.8083 0.5660 -0.1620
vn -0.2117 -0.6220 0.7539
vn 0.4280 0.7777 -0.4604
vn 0.4295 0.2176 0.8765
vn 0.7609 0.3509 -0.5458
vn -0.2964 -0.3821 -0.8753
vn -0.0380 -0.8073 -0.5889
vn -0.5500 -0.1120 -0.8276
vn -0.6852 0.1637 0.7097
vn 0.6627 0.4233 0.6178
vn 0.9759 -0.0087 -0.2182
vn 0.3853 0.5384 0.7495
vn 0.1141 0.9934 0.0075
vn -0.3131 0.8667 0.3882
vn 0.3829 0.8918 0.2410
vn 0.0559 0.9663 0.2514
vn -0.9589 0.1038 0.2640
vn 0.3237 -0.3727 0.8697
vn -0.2809 0.5016 -0.8182
vn -0.6515 -0.5124 -0.5595
vn -0.8947 -0.4178 0.1579
vn 0.1464 0.1253 -0.9813
vn -0.9717 0.2352 -0.0215
vn 0.0695 0.8226 0.5644
vn 0.4423 0.7140 0.5428
vn -0.2702 0.8695 0.4134
vn 0.9871 -0.1484 0.0596
vn 0.4485 0.3027 0.8409
vn -0.7379 -0.2088 -0.6418
vn -0.1332 -0.8702 -0.4744
vn -0.6803 -0.6069 -0.4108
vn 0.7770 0.4588 0.4310
vn -0.4643 -0.7359 -0.4928
vn -0.1388 0.9829 0.1209
vn 0.7333 0.5847 0.3470
vn 0.6054 0.3326 0.7231
vn -0.4660 0.2535 -0.8477
vn 0.1360 0.1261 0.9826
vn -0.6270 -0.6421 0.4412
vn -0.2309 0.4283 0.8736
vn -0.7084 0.6174 0.3420
vn -0.3775 -0.8326 -0.4052
vn 0.2466 0.3796 0.8917
vn 0.5682 0.5652 0.5980
vn 0.2770 0.3080 0.9102
vn -0.4772 0.6043 -0.6381
vn -0.8441 0.3926 0.3651
vn 0.9569 -0.2769 0.0879
vn 0.5210 0.6862 0.5077
vn 0.2489 0.4318 -0.8669
vn -0.2046 -0.3108 0.9282
vn 0.5035 0.8510 0.1493
vn 0.3187 0.9474 0.0306
vn -0.1113 0.4962 0.8610
vn -0.4386 -0.1464 0.8867
vn 0.1460 0.7641 -0.6283
vn -0.1006 -0.5844 0.8052
vn 0.0350 0.1659 -0.9855
vn 0.9503 -0.2909 -0.1108
vn -0.9989 -0.0038 -0.0467
vn -0.1641 0.2183 -0.9620
vn 0.0796 -0.6087 0.7894
vn -0.9968 -0.0174 0.0776
vn 0.9528 -0.2410 -0.1844
vn 0.1376 -0.9532 -0.2693
vn 0.1677 -0.6433 0.7471
vn -0.9683 -0.1835 0.1696
vn -0.9620 -0.2729 0.0031
vn 0.9874 -0.0865 -0.1325
vn -0.0799 0.4011 -0.9125
vn -0.0212 -0.9945 -0.1030
vn 0.0443 -0.9811 0.1883
vn 0.1535 -0.2051 0.9666
vn 0.2178 -0.0222 -0.9757
vn 0.9604 -0.1035 0.2588
vn 0.6469 -0.0075 -0.7625
vn 0.5317 -0.5474 -0.6463
vn 0.5970 -0.4243 -0.6809
vn 0.6202 -0.2799 -0.7328
vn 0.9752 -0.0614 0.2125
vn 0.9448 -0.2458 0.2169
vn 0.9426 -0.2475 0.2240
vn 0.1007 -0.5467 -0.8313
vn 0.1904 -0.4506 -0.8722
vn 0.1974 -0.2738 -0.9413
vn 0.1306 0.4290 0.8938
vn 0.1732 0.0621 0.9829
vn 0.1640 -0.0789 0.9833
vn -0.9617 -0.0343 0.2720
vn -0.9842 0.0205 0.1757
vn -0.9859 -0.0695 0.1525
vn -0.1534 -0.1955 -0.9686
vn -0.0532 0.1901 -0.9803
vn -0.0822 0.1819 -0.9799
vn 0.9014 0.1479 0.4070
vn 0.9760 -0.1506 0.1575
vn 0.9909 -0.1324 -0.0237
vn -0.9675 0.0839 -0.2385
vn -0.9995 -0.0071 0.0318
vn -0.9963 -0.0004 0.0855
vn -0.5901 0.0624 0.8049
vn -0.3397 -0.3175 0.8853
vn -0.1463 -0.2756 0.9501
vn 0.5214 -0.1854 0.8330
vn 0.3362 0.3892 -0.8576
vn -0.2188 -0.4372 -0.8723
vn -0.2167 -0.7972 -0.5636
vn -0.8528 -0.0921 -0.5140
vt 0.882279 0.260085
vt 0.436089 0.649131
vt 0.117664 0.305524
vt 0.860974 0.338762
vt 0.079561 0.383885
vt 0.278417 0.728674
vt 0.111517 0.716819
vt 0.301243 0.337859
vt 0.232943 0.387386
vt 0.111517 0.662267
vt 0.671871 0.687525
vt 0.175114 0.511099
vt 0.930991 0.712692
vt 0.796001 0.259488
vt 0.522181 0.649131
vt 0.719621 0.316178
vt 0.801110 0.310020
vt 0.698705 0.366293
vt 0.510656 0.337024
vt 0.023033 0.717149
vt 0.367094 0.730187
vt 0.507246 0.358198
vt 0.018976 0.695717
vt 0.103380 0.570561
vt 0.268725 0.266033
vt 0.143950 0.273348
vt 0.098384 0.631539
vt 0.301351 0.259488
vt 0.128079 0.559933
vt 0.480438 0.333338
vt 0.348619 0.714075
vt 0.604958 0.268707
vt 0.031105 0.562973
vt 0.043818 0.625810
vt 0.721993 0.282954
vt 0.329365 0.336360
vt 0.302724 0.713315
vt 0.030374 0.549675
vt 0.582817 0.260846
vt 0.875347 0.642471
vt 0.380514 0.272320
vt 0.124895 0.517524
vt 0.813390 0.578569
vt 0.436089 0.332372
vt 0.956124 0.588845
vt 0.367094 0.692599
vt 0.367094 0.522797
vt 0.871643 0.594841
vt 0.398138 0.324445
vt 0.043891 0.509019
vt 0.796001 0.641153
vt 0.491075 0.268473
vt 0.032114 0.534706
vt 0.552485 0.259488
vt 0.331566 0.259909
vt 0.129819 0.544964
vt 0.339759 0.337186
vt 0.913298 0.588845
vt 0.317584 0.707220
vt 0.845734 0.463378
vt 0.311567 0.646434
vt 0.944558 0.353645
vt 0.398138 0.462439
vt 0.920230 0.354337
vt 0.870057 0.463781
vt 0.929709 0.374247
vt 0.357807 0.478584
vt 0.347994 0.663056
vt 0.944558 0.373825
vt 0.097076 0.285727
vt 0.229765 0.651022
vt 0.758050 0.297859
vt 0.168317 0.651042
vt 0.119329 0.272208
vt 0.094178 0.643292
vt 0.222768 0.636959
vt 0.746872 0.283208
vt 0.174541 0.636975
vt 0.045175 0.638147
vt 0.080672 0.327471
vt 0.442544 0.673801
vt 0.734592 0.339187
vt 0.484453 0.673801
vt 0.070725 0.319456
vt 0.218298 0.685110
vt 0.751374 0.331694
vt 0.180611 0.684911
vt 0.062412 0.356092
vt 0.455575 0.702696
vt 0.724658 0.367821
vt 0.476314 0.702696
vt 0.043357 0.357400
vt 0.210236 0.723455
vt 0.742364 0.370210
vt 0.189444 0.723462
vt 0.050281 0.367705
vt 0.444942 0.715336
vt 0.810526 0.722486
vt 0.728448 0.380153
vt 0.853695 0.722486
vt 0.487920 0.715336
vt 0.018975 0.371756
vt 0.232852 0.738567
vt 0.796001 0.739289
vt 0.758050 0.386241
vt 0.861207 0.739289
vt 0.167770 0.738589
vt 0.100634 0.583041
vt 0.712300 0.698974
vt 0.802197 0.701507
vt 0.098640 0.600731
vt 0.972705 0.287497
vt 0.747907 0.696578
vt 0.052045 0.577939
vt 0.849895 0.701507
vt 0.710445 0.675017
vt 0.050052 0.595630
vt 0.746553 0.677603
vt 0.924885 0.287497
vt 0.797725 0.671259
vt 0.981025 0.313792
vt 0.715147 0.730011
vt 0.752543 0.724602
vt 0.973919 0.259495
vt 0.967002 0.332143
vt 0.934252 0.306472
vt 0.715328 0.644023
vt 0.847669 0.671259
vt 0.923848 0.259495
vt 0.753088 0.649631
vt 0.920230 0.324823
vt 0.068284 0.665533
vt 0.630362 0.705721
vt 0.712055 0.621316
vt 0.966165 0.712391
vt 0.519769 0.388732
vt 0.031375 0.663704
vt 0.592215 0.695479
vt 0.581836 0.620019
vt 0.750017 0.621843
vt 0.569690 0.667298
vt 0.581066 0.387596
vt 0.531739 0.516092
vt 0.642835 0.625048
vt 0.273616 0.509019
vt 0.070982 0.710642
vt 0.316851 0.732164
vt 0.684917 0.393810
vt 0.816625 0.338063
vt 0.644803 0.392946
vt 0.602800 0.367236
vt 0.671871 0.661666
vt 0.181146 0.386242
vt 0.855113 0.259897
vt 0.463196 0.649131
vt 0.077903 0.567886
vt 0.078993 0.554271
vt 0.322237 0.720993
vt 0.070972 0.628379
vt 0.834014 0.651825
vt 0.084160 0.512738
vt 0.838315 0.596273
vt 0.320679 0.509019
vt 0.080733 0.539302
vt 0.857365 0.464048
vt 0.931678 0.351118
vt 0.335174 0.488977
vt 0.367094 0.673623
vt 0.939667 0.384854
vt 0.199177 0.651021
vt 0.069465 0.641494
vt 0.198664 0.632807
vt 0.464209 0.672968
vt 0.199604 0.684998
vt 0.465945 0.702696
vt 0.199840 0.723459
vt 0.466714 0.715004
vt 0.832520 0.720483
vt 0.200177 0.738589
vt 0.829423 0.735282
vt 0.076340 0.580490
vt 0.826046 0.701507
vt 0.074346 0.598181
vt 0.948795 0.287497
vt 0.823088 0.670800
vt 0.959731 0.307426
vt 0.948976 0.259488
vt 0.941524 0.331189
vt 0.875347 0.491894
vt 0.391834 0.432095
vt 0.377694 0.448634
vt 0.915590 0.478791
vt 0.834644 0.488373
vt 0.326937 0.619279
vt 0.938593 0.478810
vt 0.335216 0.632947
vt 0.358601 0.463790
vt 0.348787 0.648138
vt 0.927106 0.463378
vt 0.854274 0.489560
vt 0.315804 0.619182
vt 0.212520 0.321385
vt 0.644070 0.318501
vt 0.018976 0.592450
vt 0.663817 0.276029
vt 0.129819 0.597828
vt 0.224108 0.269832
vt 0.051049 0.586785
vt 0.728499 0.676310
vt 0.099637 0.591886
vt 0.730103 0.697776
vt 0.734390 0.646904
vt 0.920230 0.314550
vt 0.981025 0.324065
vt 0.732426 0.727384
vt 0.950683 0.319044
vt 0.753088 0.663662
vt 0.920230 0.273492
vt 0.977552 0.273492
vt 0.752543 0.710647
vt 0.709822 0.714522
vt 0.796001 0.686127
vt 0.853178 0.686127
vt 0.709822 0.659561
vt 0.824792 0.685890
vt 0.948939 0.273488
vt 0.731549 0.661651
vt 0.730449 0.712624
vt 0.878850 0.297575
vt 0.096711 0.342677
vt 0.285581 0.357771
vt 0.108549 0.696221
vt 0.804979 0.293594
vt 0.708839 0.350023
vt 0.668288 0.644023
vt 0.436089 0.526409
vt 0.145034 0.385321
vt 0.919159 0.607821
vt 0.247387 0.613831
vt 0.970304 0.416607
vt 0.947808 0.608020
vt 0.704660 0.516092
vt 0.970304 0.403829
vt 0.750017 0.516884
vt 0.618892 0.516092
vt 0.920230 0.404231
vt 0.273616 0.612878
vt 0.642836 0.516847
vt 0.938584 0.415207
vt 0.924281 0.443436
vt 0.075400 0.489812
vt 0.855524 0.444402
vt 0.531739 0.629156
vt 0.934913 0.435583
vt 0.576828 0.496673
vt 0.931440 0.443424
vt 0.848383 0.444289
vt 0.592622 0.497116
vt 0.934913 0.440184
vt 0.586164 0.496977
vt 0.517161 0.630156
vt 0.920230 0.438606
vt 0.085942 0.490043
vt 0.585376 0.420489
vt 0.510472 0.551446
vt 0.582586 0.444044
vt 0.504260 0.576063
vt 0.581388 0.469636
vt 0.508131 0.602400
vt 0.103684 0.463024
vt 0.477645 0.604263
vt 0.118194 0.440373
vt 0.454885 0.581958
vt 0.129418 0.415411
vt 0.438452 0.557360
vt 0.876897 0.417052
vt 0.081901 0.462161
vt 0.882279 0.393921
vt 0.081653 0.438865
vt 0.880271 0.363315
vt 0.079604 0.408162
vt 0.633117 0.418943
vt 0.615530 0.444447
vt 0.600997 0.469910
vt 0.614559 0.469949
vt 0.862035 0.416811
vt 0.638313 0.444473
vt 0.857648 0.390640
vt 0.666106 0.417503
vt 0.844696 0.362700
vt 0.167770 0.536691
vt 0.914144 0.688660
vt 0.182151 0.561697
vt 0.913298 0.663084
vt 0.189855 0.582503
vt 0.915415 0.641729
vt 0.680787 0.549268
vt 0.966165 0.641681
vt 0.684678 0.573659
vt 0.963812 0.665813
vt 0.684995 0.596421
vt 0.964308 0.688427
vt 0.584794 0.548886
vt 0.729850 0.550060
vt 0.578610 0.572959
vt 0.734888 0.574452
vt 0.569690 0.595426
vt 0.736445 0.597214
vt 0.642060 0.590920
vt 0.247172 0.543053
vt 0.641052 0.570535
vt 0.248998 0.562413
vt 0.635978 0.552556
vt 0.245738 0.579271
s 0
usemtl Material
f 89/203/1 7/19/1 13/32/1 90/205/1
f 8/22/2 7/19/2 89/203/2 58/151/2 54/142/2 53/136/2
f 6/18/3 56/148/3 57/150/3
f 3/8/4 106/231/4 4/9/4 59/153/4 88/202/4
f 6/17/5 107/233/5 5/14/5 60/154/5 1/1/5 105/229/5 2/4/5 56/149/5
f 61/156/6 13/33/6 16/38/6 62/157/6
f 5/16/7 14/35/7 31/77/7 29/72/7
f 88/202/8 1/3/8 10/26/8 91/207/8
f 67/164/9 21/53/9 20/50/9 65/161/9
f 13/32/10 7/19/10 12/30/10 16/39/10
f 3/8/11 9/25/11 11/28/11 15/36/11
f 55/147/12 3/6/12 15/37/12 63/158/12
f 66/162/13 19/48/13 17/40/13 65/160/13
f 23/57/14 22/55/14 17/41/14 19/49/14
f 83/191/15 82/190/15 25/63/15 26/67/15
f 15/36/16 11/28/16 22/55/16 23/57/16
f 62/157/17 16/38/17 21/53/17 67/164/17
f 69/169/18 26/66/18 25/64/18 68/166/18
f 87/200/19 84/193/19 24/60/19 68/165/19
f 86/197/20 83/191/20 26/67/20 69/167/20
f 84/194/21 85/196/21 27/68/21 24/61/21
f 70/170/22 29/73/22 31/78/22 71/172/22
f 70/170/23 28/71/23 34/85/23 73/174/23
f 10/26/24 1/3/24 28/70/24 30/74/24
f 64/159/25 10/27/25 30/75/25 71/171/25
f 34/84/26 32/80/26 36/88/26 38/92/26
f 60/155/27 5/15/27 33/83/27 72/173/27
f 5/16/28 29/72/28 35/86/28 33/82/28
f 28/70/29 1/3/29 32/80/29 34/84/29
f 37/90/30 39/94/30 43/105/30 41/99/30
f 73/174/31 34/85/31 38/93/31 75/176/31
f 33/82/32 35/86/32 39/94/32 37/90/32
f 72/173/33 33/83/33 37/91/33 74/175/33
f 76/178/34 41/100/34 43/106/34 77/180/34
f 74/175/35 37/91/35 41/101/35 76/177/35
f 38/92/36 36/88/36 40/96/36 42/102/36
f 75/176/37 38/93/37 42/103/37 77/179/37
f 102/226/38 97/218/38 51/129/38 81/187/38
f 91/206/39 10/27/39 45/111/39 93/210/39
f 90/204/40 13/33/40 46/114/40 92/208/40
f 61/156/41 9/24/41 44/108/41 78/181/41
f 64/159/42 14/34/42 47/117/42 79/183/42
f 96/216/43 94/213/43 50/126/43 80/186/43
f 101/225/44 99/222/44 48/120/44 80/185/44
f 104/228/45 98/220/45 49/123/45 95/215/45
f 103/227/46 100/224/46 50/127/46 94/212/46
f 8/23/47 53/137/47 52/132/47
f 8/23/48 52/132/48 4/10/48 106/232/48 3/7/48 55/146/48 7/20/48
f 54/142/49 58/151/49 89/203/49 5/16/49 107/234/49 6/18/49 57/150/49
f 100/223/50 101/225/50 80/185/50 50/128/50
f 95/214/51 96/216/51 80/186/51 48/121/51
f 10/27/52 64/159/52 79/183/52 45/111/52
f 13/33/53 61/156/53 78/181/53 46/114/53
f 98/219/54 102/226/54 81/187/54 49/124/54
f 39/95/55 75/176/55 77/179/55 43/107/55
f 36/89/56 74/175/56 76/177/56 40/97/56
f 40/98/57 76/178/57 77/180/57 42/104/57
f 32/81/58 72/173/58 74/175/58 36/89/58
f 35/87/59 73/174/59 75/176/59 39/95/59
f 1/2/60 60/155/60 72/173/60 32/81/60
f 14/34/61 64/159/61 71/171/61 31/79/61
f 29/73/62 70/170/62 73/174/62 35/87/62
f 28/71/63 70/170/63 71/172/63 30/76/63
f 85/196/64 86/198/64 69/168/64 27/68/64
f 82/189/65 87/200/65 68/165/65 25/65/65
f 27/69/66 69/169/66 68/166/66 24/62/66
f 11/29/67 62/157/67 67/164/67 22/56/67
f 18/43/68 66/162/68 65/160/68 20/51/68
f 7/21/69 55/147/69 63/158/69 12/31/69
f 22/56/70 67/164/70 65/161/70 17/42/70
f 9/24/71 61/156/71 62/157/71 11/29/71
f 19/48/72 66/162/72 87/200/72 82/189/72
f 12/30/73 18/44/73 20/52/73 21/54/73 16/39/73
f 66/163/74 18/47/74 84/194/74 87/201/74
f 23/57/75 19/49/75 82/190/75 83/191/75
f 49/125/76 81/188/76 96/216/76 95/214/76
f 97/217/77 103/227/77 94/212/77 51/130/77
f 99/221/78 104/228/78 95/215/78 48/122/78
f 81/188/79 51/131/79 94/213/79 96/216/79
f 14/34/80 90/204/80 92/208/80 47/117/80
f 9/24/81 91/206/81 93/210/81 44/108/81
f 3/8/82 88/202/82 91/207/82 9/25/82
f 5/16/83 89/203/83 90/205/83 14/35/83
f 44/109/84 93/211/84 104/228/84 99/221/84
f 47/118/85 92/209/85 103/227/85 97/217/85
f 45/112/86 79/184/86 102/226/86 98/219/86
f 46/115/87 78/182/87 101/225/87 100/223/87
f 92/209/88 46/116/88 100/224/88 103/227/88
f 93/211/89 45/113/89 98/220/89 104/228/89
f 78/182/90 44/110/90 99/222/90 101/225/90
f 79/184/91 47/119/91 97/218/91 102/226/91
f 59/152/92 4/11/92 52/133/92 53/138/92 54/141/92 108/235/92
f 136/298/93 110/241/93 109/238/93 135/296/93
f 121/271/94 120/269/94 114/253/94 117/261/94
f 139/304/95 111/244/95 110/242/95 136/297/95
f 135/295/96 109/239/96 112/247/96 144/314/96
f 144/313/97 112/248/97 111/245/97 139/303/97
f 111/246/98 112/249/98 109/240/98 110/243/98
f 117/262/99 114/254/99 116/259/99 115/256/99 113/250/99
f 124/277/100 121/270/100 117/263/100 113/251/100
f 120/268/101 129/284/101 116/260/101 114/255/101
f 130/286/102 124/276/102 113/252/102 115/257/102
f 129/284/103 130/285/103 115/258/103 116/260/103
f 57/150/104 56/148/104 132/289/104 127/282/104
f 127/282/105 132/289/105 131/287/105 128/283/105
f 128/283/106 131/287/106 130/285/106 129/284/106
f 56/149/107 2/4/107 126/280/107 132/290/107
f 132/290/108 126/280/108 125/278/108 131/288/108
f 131/288/109 125/278/109 124/276/109 130/286/109
f 54/142/110 57/150/110 127/282/110 118/264/110
f 118/264/111 127/282/111 128/283/111 119/266/111
f 119/266/112 128/283/112 129/284/112 120/268/112
f 2/5/113 108/237/113 123/274/113 126/281/113
f 126/281/114 123/274/114 122/272/114 125/279/114
f 125/279/115 122/272/115 121/270/115 124/277/115
f 108/236/116 54/143/116 118/265/116 123/275/116
f 123/275/117 118/265/117 119/267/117 122/273/117
f 122/273/118 119/267/118 120/269/118 121/271/118
f 54/144/119 142/309/119 141/307/119 53/139/119
f 142/309/120 143/311/120 140/305/120 141/307/120
f 143/311/121 144/313/121 139/303/121 140/305/121
f 4/12/122 133/291/122 142/310/122 54/145/122
f 133/291/123 134/293/123 143/312/123 142/310/123
f 134/293/124 135/295/124 144/314/124 143/312/124
f 53/140/125 141/308/125 138/301/125 52/134/125
f 141/308/126 140/306/126 137/299/126 138/301/126
f 140/306/127 139/304/127 136/297/127 137/299/127
f 52/135/128 138/302/128 133/292/128 4/13/128
f 138/302/129 137/300/129 134/294/129 133/292/129
f 137/300/130 136/298/130 135/296/130 134/294/130
f 105/230/131 1/3/131 88/202/131 59/153/131 108/237/131 2/5/131
f 86/199/132 85/195/132 83/192/132
f 83/192/133 85/195/133 18/45/133 23/58/133
f 63/158/134 15/37/134 23/59/134 18/46/134 12/31/134
f 84/194/135 18/47/135 85/196/135
l 52 106
