# Blender 3.3.1
# www.blender.org
mtllib monstruo_3_caminar633.mtl
o monstruo_grande
v 0.393371 2.008139 0.254805
v 0.510420 1.181028 0.134288
v -0.706851 1.754431 0.202094
v -0.305460 1.094710 0.190380
v 0.548124 2.300265 -0.087296
v 0.551409 1.589146 -0.218163
v -0.832668 1.971924 -0.207085
v -0.731251 1.708668 -0.276773
v -0.315679 2.381201 0.496408
v 0.241287 2.283027 0.455599
v -0.445202 2.347466 0.597127
v -1.200674 2.010425 -0.033098
v -0.314861 2.556966 0.141805
v 0.236505 2.428076 0.196440
v -1.042363 1.880386 0.117101
v -0.477437 2.629140 0.170063
v -0.789098 2.260933 0.624777
v -1.479308 1.927182 0.250868
v -1.194078 1.968325 0.444558
v -0.986302 2.575747 0.369849
v -0.661670 2.664237 0.243955
v -0.517419 2.304880 0.574617
v -1.172789 1.895396 0.127504
v -1.750069 0.658155 0.922691
v -1.622138 0.637325 0.962313
v -1.614627 0.465364 0.757333
v -1.692713 0.478079 0.733150
v 0.398687 2.199972 0.438180
v 0.496505 2.399076 0.183138
v 0.355441 2.312732 0.451323
v 0.368491 2.449594 0.226419
v 0.647693 1.896464 0.246527
v 0.762855 1.992585 0.072650
v 0.666238 1.974929 0.295338
v 0.745322 2.093978 0.145640
v 0.836049 1.677475 0.200925
v 0.911803 1.711594 0.121557
v 0.918586 1.647641 0.259849
v 0.990877 1.690215 0.180335
v 0.858979 1.526264 0.233133
v 1.012525 1.612869 0.070687
v 0.966264 1.433181 0.369771
v 1.191861 1.561460 0.118914
v -0.154539 2.432981 0.515369
v 0.055039 2.406473 0.497260
v -0.155949 2.537382 0.268792
v 0.047941 2.510874 0.255271
v -0.097687 2.744235 0.664014
v 0.107205 2.679190 0.622781
v -0.111702 2.860641 0.411972
v 0.092267 2.796053 0.370372
v -0.504609 1.151326 -0.027467
v -0.383125 1.211043 -0.229941
v -0.041468 1.280290 -0.334414
v -0.764184 1.800271 -0.012993
v 0.558376 1.173116 -0.101360
v 0.351899 1.170042 -0.248097
v 0.006565 1.527765 -0.320452
v -0.030931 1.141179 0.179943
v 0.447692 2.094917 0.139510
v -0.308682 2.443733 0.372472
v -0.469490 2.598967 0.443189
v -0.980372 1.952197 -0.004069
v 0.217702 2.412167 0.356876
v -0.821084 2.488087 0.585770
v -1.369001 2.068642 0.492822
v -0.621996 2.583585 0.438547
v -1.696013 0.645937 0.973551
v -1.639701 0.358577 0.640658
v 0.483507 2.311491 0.340911
v 0.363769 2.426055 0.362017
v 0.663681 1.924140 0.120554
v 0.745588 2.046537 0.252276
v 0.872481 1.697318 0.160964
v 0.954622 1.668131 0.219779
v 0.916206 1.571331 0.135731
v 1.044161 1.502528 0.215618
v -0.155826 2.484924 0.391084
v 0.049663 2.459768 0.375750
v -0.135885 2.803811 0.540482
v 0.131208 2.736420 0.494462
v -1.501798 0.963707 0.905931
v -1.563355 0.790581 0.839463
v -1.722585 0.969997 0.838470
v -1.683770 0.810187 0.802169
v -1.626623 0.634957 0.743728
v -1.632080 0.946614 0.925196
v -0.055907 1.755322 0.518925
v 0.097715 2.139513 -0.184410
v 0.045645 2.517335 0.075207
v -0.000727 2.267636 0.630413
v -0.056860 2.523635 0.260644
v -0.045681 2.419440 0.505139
v -0.012052 2.845570 0.353008
v 0.006809 2.694254 0.681129
v 0.001778 2.820269 0.540617
v 0.082900 2.663269 0.288193
v 0.096493 2.531960 0.576700
v -0.139161 2.581315 0.612268
v -0.155470 2.712579 0.321394
v -0.163569 2.648041 0.468552
v 0.104955 2.597502 0.431116
v -0.038085 2.696688 0.284510
v -0.019334 2.546784 0.614060
v 0.438616 1.692771 -0.001902
v -0.590924 1.471853 0.215885
v 0.554502 1.806457 -0.214671
v 0.151623 1.174883 0.201877
v -0.240879 0.043026 -0.277420
v -0.389773 0.039327 -0.160556
v -0.406164 0.056930 -0.410104
v -0.270517 0.053546 -0.420094
v 0.287533 0.009160 0.282157
v 0.215657 -0.010575 0.207190
v 0.297723 0.002439 0.244402
v 0.266788 -0.005338 0.218421
v 0.228267 0.007667 0.291810
v 0.086346 0.843876 -0.074057
v 0.114424 0.586138 0.073167
v 0.149216 0.300643 0.179164
v 0.179164 0.321090 0.357314
v 0.161635 0.578811 0.368904
v 0.169621 0.855763 0.338112
v 0.301809 0.314923 0.335754
v 0.368551 0.573447 0.332172
v 0.461089 0.907109 0.279581
v 0.342268 0.866038 -0.027556
v 0.292968 0.586322 0.109743
v 0.255648 0.300462 0.201625
v 0.321286 0.306040 0.255969
v 0.403733 0.596835 0.198702
v 0.501343 0.898540 0.093410
v -0.200555 0.806325 0.215202
v -0.181857 0.538488 0.093799
v -0.186813 0.311205 0.013652
v -0.472040 0.316020 -0.005033
v -0.470344 0.585798 0.042969
v -0.483247 0.837563 0.083181
v -0.496997 0.411080 -0.255801
v -0.492734 0.684699 -0.209999
v -0.485818 0.915388 -0.184421
v -0.091208 0.862186 -0.207317
v -0.149550 0.659326 -0.250563
v -0.202948 0.448487 -0.271735
vn -0.0836 0.5610 -0.8236
vn -0.0577 0.1169 -0.9915
vn 0.5680 -0.2136 -0.7948
vn -0.2507 -0.3171 0.9146
vn 0.9367 -0.0022 0.3500
vn 0.6040 0.7708 0.2025
vn 0.0824 0.9173 -0.3895
vn 0.5845 -0.2360 0.7763
vn -0.0985 0.9025 0.4192
vn -0.1890 0.5636 -0.8041
vn -0.0764 -0.5292 0.8450
vn -0.3936 -0.8660 -0.3084
vn -0.1758 -0.1386 0.9746
vn 0.3605 -0.8623 0.3557
vn 0.9566 -0.2573 0.1367
vn 0.0665 -0.7684 0.6366
vn 0.1020 0.9703 0.2195
vn 0.0552 -0.7560 0.6522
vn -0.6336 0.2528 0.7312
vn 0.9088 0.0309 -0.4161
vn -0.8960 0.0402 -0.4421
vn 0.5816 0.7485 0.3186
vn 0.5231 0.1709 0.8350
vn -0.1997 -0.5487 0.8119
vn -0.1040 0.6054 0.7891
vn -0.5015 -0.5085 0.7000
vn -0.3376 -0.5326 -0.7761
vn 0.8019 0.5722 -0.1721
vn -0.1886 -0.6303 0.7531
vn 0.4139 0.7804 -0.4687
vn 0.4534 0.2131 0.8654
vn 0.7429 0.3590 -0.5650
vn -0.3210 -0.3788 -0.8680
vn -0.0650 -0.8008 -0.5955
vn -0.5810 -0.0999 -0.8078
vn -0.6562 0.1599 0.7375
vn 0.6884 0.4142 0.5954
vn 0.9742 -0.0068 -0.2257
vn 0.3894 0.5513 0.7379
vn 0.1187 0.9927 0.0208
vn -0.3040 0.8678 0.3932
vn 0.3787 0.8948 0.2365
vn 0.0570 0.9658 0.2528
vn -0.9568 0.1020 0.2723
vn 0.3317 -0.3740 0.8661
vn -0.2878 0.5039 -0.8144
vn -0.6605 -0.5136 -0.5477
vn -0.8942 -0.4147 0.1688
vn 0.1420 0.1232 -0.9822
vn -0.9721 0.2343 -0.0107
vn 0.0735 0.8215 0.5654
vn 0.4392 0.7194 0.5381
vn -0.2542 0.8737 0.4147
vn 0.9878 -0.1472 0.0511
vn 0.4825 0.2922 0.8257
vn -0.7634 -0.1990 -0.6145
vn -0.1560 -0.8649 -0.4772
vn -0.6891 -0.6093 -0.3922
vn 0.7872 0.4587 0.4122
vn -0.4704 -0.7363 -0.4864
vn -0.1403 0.9828 0.1198
vn 0.7373 0.5866 0.3351
vn 0.6171 0.3352 0.7120
vn -0.4719 0.2557 -0.8437
vn 0.1417 0.1224 0.9823
vn -0.6224 -0.6457 0.4423
vn -0.2163 0.4275 0.8777
vn -0.7044 0.6168 0.3514
vn -0.3900 -0.8450 -0.3658
vn 0.2606 0.3778 0.8884
vn 0.5827 0.5563 0.5925
vn 0.2844 0.3056 0.9087
vn -0.4850 0.6026 -0.6337
vn -0.8417 0.3888 0.3746
vn 0.9584 -0.2751 0.0758
vn 0.5246 0.6858 0.5045
vn 0.2409 0.4341 -0.8681
vn -0.1962 -0.3130 0.9293
vn 0.5038 0.8513 0.1467
vn 0.3155 0.9484 0.0300
vn -0.0992 0.5045 0.8577
vn -0.4324 -0.1475 0.8895
vn 0.1283 0.7674 -0.6282
vn -0.0936 -0.5865 0.8045
vn 0.0269 0.1675 -0.9855
vn 0.9501 -0.2890 -0.1176
vn -0.9994 -0.0086 -0.0333
vn -0.1697 0.2203 -0.9606
vn 0.0863 -0.6100 0.7877
vn -0.9961 -0.0233 0.0852
vn 0.9522 -0.2379 -0.1915
vn 0.1291 -0.9542 -0.2700
vn 0.1717 -0.6192 0.7663
vn -0.9645 -0.1895 0.1841
vn -0.9619 -0.2728 0.0181
vn 0.9865 -0.0904 -0.1367
vn -0.0852 0.3710 -0.9247
vn -0.0292 -0.9973 -0.0681
vn 0.0604 -0.9775 0.2019
vn 0.1620 -0.1776 0.9707
vn 0.2103 -0.0445 -0.9766
vn 0.9631 -0.0870 0.2547
vn 0.6409 -0.0197 -0.7673
vn 0.5331 -0.5331 -0.6570
vn 0.5955 -0.4328 -0.6768
vn 0.6156 -0.3147 -0.7225
vn 0.9765 -0.0613 0.2066
vn 0.9493 -0.2311 0.2133
vn 0.9460 -0.2318 0.2267
vn 0.1002 -0.5307 -0.8416
vn 0.1893 -0.4652 -0.8647
vn 0.1921 -0.3219 -0.9271
vn 0.1371 0.4189 0.8976
vn 0.1774 0.1044 0.9786
vn 0.1730 -0.0318 0.9844
vn -0.9604 -0.0406 0.2758
vn -0.9832 0.0233 0.1811
vn -0.9845 -0.0666 0.1621
vn -0.1628 -0.1989 -0.9664
vn -0.0669 0.1662 -0.9838
vn -0.0901 0.1469 -0.9850
vn 0.9048 0.1559 0.3963
vn 0.9795 -0.1349 0.1498
vn 0.9917 -0.1260 -0.0262
vn -0.9718 0.0721 -0.2247
vn -0.9990 -0.0181 0.0418
vn -0.9958 -0.0049 0.0917
vn -0.5791 0.0615 0.8129
vn -0.3280 -0.2987 0.8962
vn -0.1386 -0.2455 0.9594
vn 0.5290 -0.1839 0.8285
vn 0.3298 0.3937 -0.8580
vn -0.2280 -0.4344 -0.8714
vn -0.2208 -0.8111 -0.5417
vn -0.8572 -0.0931 -0.5066
vt 0.461701 0.809397
vt 0.301930 0.729761
vt 0.094158 0.499911
vt 0.498737 0.648456
vt 0.250869 0.553264
vt 0.714874 0.752530
vt 0.627854 0.740386
vt 0.227533 0.339544
vt 0.300362 0.438253
vt 0.625828 0.633709
vt 0.338991 0.679376
vt 0.653754 0.621457
vt 0.189641 0.785401
vt 0.531284 0.815038
vt 0.232114 0.729761
vt 0.806952 0.326283
vt 0.527824 0.712310
vt 0.703640 0.331352
vt 0.725736 0.123548
vt 0.557184 0.740386
vt 0.714874 0.681901
vt 0.693091 0.138725
vt 0.558638 0.706064
vt 0.944491 0.391302
vt 0.108931 0.369345
vt 0.090202 0.443431
vt 0.952837 0.467016
vt 0.108059 0.346292
vt 0.960024 0.371234
vt 0.653754 0.712739
vt 0.761990 0.055860
vt 0.265996 0.788213
vt 0.829683 0.188590
vt 0.886815 0.394232
vt 0.909606 0.471204
vt 0.826550 0.267021
vt 0.659457 0.749480
vt 0.206417 0.267620
vt 0.238389 0.812575
vt 0.882743 0.373659
vt 0.837846 0.166681
vt 0.102618 0.289588
vt 0.957957 0.321520
vt 0.918648 0.216117
vt 0.803322 0.012950
vt 0.106348 0.638847
vt 0.232551 0.755661
vt 0.798789 0.485160
vt 0.965752 0.239402
vt 0.153968 0.222285
vt 0.894228 0.312474
vt 0.856067 0.102710
vt 0.881967 0.351902
vt 0.842627 0.144082
vt 0.107159 0.331692
vt 0.958812 0.358201
vt 0.199778 0.246429
vt 0.138792 0.619338
vt 0.232114 0.797406
vt 0.967580 0.012950
vt 0.753483 0.682459
vt 0.843831 0.469074
vt 0.256421 0.022764
vt 0.824689 0.472884
vt 0.987050 0.016155
vt 0.832147 0.505580
vt 0.295109 0.018166
vt 0.782932 0.707368
vt 0.843831 0.503254
vt 0.076417 0.467161
vt 0.958695 0.494573
vt 0.833773 0.298242
vt 0.909847 0.503107
vt 0.076958 0.454690
vt 0.951531 0.482650
vt 0.837149 0.281767
vt 0.912926 0.487172
vt 0.064432 0.532285
vt 0.298790 0.687460
vt 0.825577 0.362572
vt 0.264894 0.686125
vt 0.056614 0.518895
vt 0.959622 0.549977
vt 0.837123 0.350740
vt 0.929664 0.555276
vt 0.051257 0.577890
vt 0.291936 0.641182
vt 0.824256 0.407314
vt 0.275162 0.640522
vt 0.035793 0.577862
vt 0.964581 0.612577
vt 0.838997 0.411720
vt 0.948088 0.615681
vt 0.039898 0.592711
vt 0.301778 0.620707
vt 0.403076 0.772170
vt 0.830596 0.428615
vt 0.403076 0.737417
vt 0.267017 0.619338
vt 0.012950 0.593438
vt 0.987050 0.637067
vt 0.428919 0.781443
vt 0.856067 0.440612
vt 0.428919 0.728949
vt 0.935424 0.646785
vt 0.945356 0.412724
vt 0.357115 0.854737
vt 0.331665 0.779032
vt 0.948027 0.441601
vt 0.799629 0.752473
vt 0.327972 0.853161
vt 0.906904 0.416128
vt 0.370069 0.779032
vt 0.684668 0.778429
vt 0.909575 0.445005
vt 0.655249 0.778999
vt 0.799629 0.791035
vt 0.330193 0.729131
vt 0.557184 0.775635
vt 0.363063 0.804932
vt 0.331684 0.807874
vt 0.754247 0.751428
vt 0.586563 0.768755
vt 0.566112 0.815056
vt 0.689281 0.828405
vt 0.370405 0.729131
vt 0.754247 0.791805
vt 0.657717 0.824383
vt 0.595492 0.808176
vt 0.327830 0.637821
vt 0.590400 0.642651
vt 0.164818 0.789976
vt 0.357235 0.619338
vt 0.642851 0.190721
vt 0.562581 0.649581
vt 0.406824 0.626953
vt 0.080449 0.619338
vt 0.646201 0.239681
vt 0.727583 0.656002
vt 0.597847 0.731399
vt 0.712829 0.722239
vt 0.658284 0.323708
vt 0.527919 0.666449
vt 0.661748 0.291537
vt 0.680225 0.245582
vt 0.377645 0.696957
vt 0.285191 0.477898
vt 0.483372 0.812325
vt 0.280072 0.728266
vt 0.924330 0.393087
vt 0.921760 0.373660
vt 0.678504 0.727397
vt 0.268491 0.812575
vt 0.930826 0.465310
vt 0.923786 0.327561
vt 0.941993 0.227167
vt 0.764056 0.466512
vt 0.919524 0.351927
vt 0.977463 0.013354
vt 0.833186 0.466512
vt 0.317617 0.012950
vt 0.798789 0.722800
vt 0.839639 0.522681
vt 0.934403 0.500152
vt 0.932138 0.484309
vt 0.281656 0.689101
vt 0.944784 0.554368
vt 0.283549 0.640852
vt 0.956335 0.614129
vt 0.284323 0.620942
vt 0.399765 0.754789
vt 0.961112 0.640376
vt 0.422297 0.755187
vt 0.926130 0.414426
vt 0.350867 0.779032
vt 0.928801 0.443303
vt 0.799629 0.771754
vt 0.350773 0.728949
vt 0.557184 0.796361
vt 0.753483 0.771844
vt 0.595492 0.787450
vt 0.985581 0.067358
vt 0.238180 0.070710
vt 0.259592 0.052321
vt 0.138792 0.821791
vt 0.953366 0.057503
vt 0.765454 0.639660
vt 0.120235 0.821584
vt 0.772730 0.660154
vt 0.283154 0.037949
vt 0.784440 0.682652
vt 0.128680 0.843910
vt 0.970110 0.058056
vt 0.758353 0.637393
vt 0.180368 0.432154
vt 0.759258 0.257498
vt 0.884976 0.446549
vt 0.828099 0.241547
vt 0.971226 0.428512
vt 0.101516 0.405509
vt 0.908240 0.430567
vt 0.669958 0.778714
vt 0.946692 0.427163
vt 0.342544 0.853949
vt 0.673120 0.826722
vt 0.582140 0.817526
vt 0.570535 0.766286
vt 0.348248 0.806122
vt 0.576699 0.792002
vt 0.653753 0.802281
vt 0.776512 0.794925
vt 0.776512 0.748700
vt 0.327830 0.829868
vt 0.363063 0.830170
vt 0.327830 0.753980
vt 0.373865 0.753980
vt 0.689281 0.803194
vt 0.351093 0.753886
vt 0.776117 0.771930
vt 0.671321 0.802907
vt 0.345899 0.829874
vt 0.457498 0.727404
vt 0.165986 0.548054
vt 0.260364 0.376248
vt 0.625887 0.695531
vt 0.520555 0.743605
vt 0.734596 0.339638
vt 0.406824 0.703049
vt 0.012950 0.651015
vt 0.277407 0.507014
vt 0.206214 0.619338
vt 0.706517 0.466512
vt 0.399765 0.822801
vt 0.181517 0.620770
vt 0.619265 0.470337
vt 0.422433 0.807343
vt 0.582936 0.466512
vt 0.458892 0.202188
vt 0.422433 0.843958
vt 0.727583 0.468029
vt 0.460639 0.221880
vt 0.402692 0.843997
vt 0.717439 0.778459
vt 0.429089 0.593438
vt 0.518160 0.466685
vt 0.070962 0.817001
vt 0.726094 0.791097
vt 0.457498 0.298878
vt 0.715181 0.783741
vt 0.523936 0.466512
vt 0.458951 0.311476
vt 0.719061 0.788282
vt 0.458165 0.306435
vt 0.058766 0.817583
vt 0.726094 0.778429
vt 0.431598 0.585369
vt 0.599953 0.261833
vt 0.080449 0.668491
vt 0.542336 0.274386
vt 0.076079 0.728305
vt 0.500395 0.287212
vt 0.064936 0.773359
vt 0.389801 0.564275
vt 0.039540 0.774208
vt 0.356388 0.547019
vt 0.031995 0.737396
vt 0.319737 0.531779
vt 0.030523 0.696843
vt 0.505723 0.512116
vt 0.384015 0.580847
vt 0.506522 0.550736
vt 0.346302 0.574833
vt 0.507607 0.604105
vt 0.294291 0.566034
vt 0.610540 0.298468
vt 0.545535 0.300686
vt 0.502363 0.302883
vt 0.504402 0.313331
vt 0.517745 0.511765
vt 0.548610 0.318269
vt 0.527842 0.556627
vt 0.609940 0.323717
vt 0.531284 0.618364
vt 0.660591 0.582499
vt 0.204501 0.743892
vt 0.668589 0.550878
vt 0.206214 0.710848
vt 0.668004 0.517120
vt 0.204545 0.678125
vt 0.623877 0.525891
vt 0.164692 0.675333
vt 0.610236 0.563455
vt 0.167167 0.712219
vt 0.605277 0.597358
vt 0.166352 0.745757
vt 0.511839 0.183186
vt 0.584607 0.521652
vt 0.552303 0.182624
vt 0.569857 0.561129
vt 0.598009 0.178631
vt 0.565182 0.606784
vt 0.592158 0.236754
vt 0.721184 0.600612
vt 0.550092 0.232946
vt 0.722606 0.558204
vt 0.518921 0.225772
vt 0.713819 0.525134
s 0
usemtl Material
f 89/196/1 7/19/1 13/33/1 90/198/1
f 8/22/2 7/19/2 89/196/2 58/145/2 54/138/2 53/134/2
f 6/18/3 56/142/3 57/144/3
f 3/8/4 106/224/4 4/9/4 59/147/4 88/195/4
f 6/17/5 107/226/5 5/14/5 60/148/5 1/1/5 105/222/5 2/4/5 56/143/5
f 61/150/6 13/34/6 16/40/6 62/151/6
f 5/16/7 14/36/7 31/76/7 29/72/7
f 88/195/8 1/3/8 10/26/8 91/200/8
f 67/158/9 21/53/9 20/51/9 65/155/9
f 13/33/10 7/19/10 12/31/10 16/41/10
f 3/8/11 9/25/11 11/28/11 15/38/11
f 55/141/12 3/6/12 15/37/12 63/152/12
f 66/156/13 19/49/13 17/43/13 65/155/13
f 23/57/14 22/55/14 17/42/14 19/50/14
f 83/184/15 82/183/15 25/63/15 26/67/15
f 15/38/16 11/28/16 22/55/16 23/57/16
f 62/151/17 16/40/17 21/53/17 67/158/17
f 69/163/18 26/66/18 25/64/18 68/160/18
f 87/193/19 84/186/19 24/60/19 68/159/19
f 86/190/20 83/184/20 26/67/20 69/161/20
f 84/187/21 85/189/21 27/68/21 24/61/21
f 70/164/22 29/73/22 31/77/22 71/165/22
f 70/164/23 28/71/23 34/83/23 73/167/23
f 10/26/24 1/3/24 28/70/24 30/74/24
f 64/154/25 10/27/25 30/75/25 71/165/25
f 34/82/26 32/78/26 36/86/26 38/90/26
f 60/149/27 5/15/27 33/81/27 72/166/27
f 5/16/28 29/72/28 35/84/28 33/80/28
f 28/70/29 1/3/29 32/78/29 34/82/29
f 37/88/30 39/92/30 43/103/30 41/97/30
f 73/167/31 34/83/31 38/91/31 75/169/31
f 33/80/32 35/84/32 39/92/32 37/88/32
f 72/166/33 33/81/33 37/89/33 74/168/33
f 76/171/34 41/98/34 43/104/34 77/173/34
f 74/168/35 37/89/35 41/99/35 76/170/35
f 38/90/36 36/86/36 40/94/36 42/100/36
f 75/169/37 38/91/37 42/101/37 77/172/37
f 102/219/38 97/211/38 51/127/38 81/180/38
f 91/199/39 10/27/39 45/109/39 93/203/39
f 90/197/40 13/34/40 46/112/40 92/201/40
f 61/150/41 9/24/41 44/106/41 78/174/41
f 64/154/42 14/35/42 47/115/42 79/176/42
f 96/209/43 94/206/43 50/124/43 80/179/43
f 101/218/44 99/215/44 48/118/44 80/178/44
f 104/221/45 98/213/45 49/121/45 95/208/45
f 103/220/46 100/217/46 50/125/46 94/205/46
f 8/23/47 53/135/47 52/131/47
f 8/23/48 52/131/48 4/10/48 106/225/48 3/7/48 55/140/48 7/20/48
f 54/138/49 58/145/49 89/196/49 5/16/49 107/227/49 6/18/49 57/144/49
f 100/216/50 101/218/50 80/178/50 50/126/50
f 95/207/51 96/209/51 80/179/51 48/119/51
f 10/27/52 64/154/52 79/176/52 45/109/52
f 13/34/53 61/150/53 78/174/53 46/112/53
f 98/212/54 102/219/54 81/180/54 49/122/54
f 39/93/55 75/169/55 77/172/55 43/105/55
f 36/87/56 74/168/56 76/170/56 40/95/56
f 40/96/57 76/171/57 77/173/57 42/102/57
f 32/79/58 72/166/58 74/168/58 36/87/58
f 35/85/59 73/167/59 75/169/59 39/93/59
f 1/2/60 60/149/60 72/166/60 32/79/60
f 14/35/61 64/154/61 71/165/61 31/77/61
f 29/73/62 70/164/62 73/167/62 35/85/62
f 28/71/63 70/164/63 71/165/63 30/75/63
f 85/189/64 86/191/64 69/162/64 27/68/64
f 82/182/65 87/193/65 68/159/65 25/65/65
f 27/69/66 69/163/66 68/160/66 24/62/66
f 11/29/67 62/151/67 67/158/67 22/56/67
f 18/44/68 66/156/68 65/155/68 20/51/68
f 7/21/69 55/141/69 63/152/69 12/30/69
f 22/56/70 67/158/70 65/155/70 17/43/70
f 9/24/71 61/150/71 62/151/71 11/29/71
f 19/49/72 66/156/72 87/193/72 82/182/72
f 12/31/73 18/45/73 20/52/73 21/54/73 16/41/73
f 66/157/74 18/48/74 84/187/74 87/194/74
f 23/57/75 19/50/75 82/183/75 83/184/75
f 49/123/76 81/181/76 96/209/76 95/207/76
f 97/210/77 103/220/77 94/205/77 51/128/77
f 99/214/78 104/221/78 95/208/78 48/120/78
f 81/181/79 51/129/79 94/206/79 96/209/79
f 14/35/80 90/197/80 92/201/80 47/115/80
f 9/24/81 91/199/81 93/203/81 44/106/81
f 3/8/82 88/195/82 91/200/82 9/25/82
f 5/16/83 89/196/83 90/198/83 14/36/83
f 44/107/84 93/204/84 104/221/84 99/214/84
f 47/116/85 92/202/85 103/220/85 97/210/85
f 45/110/86 79/177/86 102/219/86 98/212/86
f 46/113/87 78/175/87 101/218/87 100/216/87
f 92/202/88 46/114/88 100/217/88 103/220/88
f 93/204/89 45/111/89 98/213/89 104/221/89
f 78/175/90 44/108/90 99/215/90 101/218/90
f 79/177/91 47/117/91 97/211/91 102/219/91
f 59/146/92 4/11/92 52/130/92 53/133/92 54/136/92 108/228/92
f 136/291/93 110/234/93 109/231/93 135/289/93
f 121/264/94 120/262/94 114/246/94 117/254/94
f 139/297/95 111/237/95 110/235/95 136/290/95
f 135/288/96 109/232/96 112/240/96 144/307/96
f 144/306/97 112/241/97 111/238/97 139/296/97
f 111/239/98 112/242/98 109/233/98 110/236/98
f 117/255/99 114/247/99 116/252/99 115/249/99 113/243/99
f 124/270/100 121/263/100 117/256/100 113/244/100
f 120/261/101 129/277/101 116/253/101 114/248/101
f 130/279/102 124/269/102 113/245/102 115/250/102
f 129/277/103 130/278/103 115/251/103 116/253/103
f 57/144/104 56/142/104 132/282/104 127/275/104
f 127/275/105 132/282/105 131/280/105 128/276/105
f 128/276/106 131/280/106 130/278/106 129/277/106
f 56/143/107 2/4/107 126/273/107 132/283/107
f 132/283/108 126/273/108 125/271/108 131/281/108
f 131/281/109 125/271/109 124/269/109 130/279/109
f 54/138/110 57/144/110 127/275/110 118/257/110
f 118/257/111 127/275/111 128/276/111 119/259/111
f 119/259/112 128/276/112 129/277/112 120/261/112
f 2/5/113 108/230/113 123/267/113 126/274/113
f 126/274/114 123/267/114 122/265/114 125/272/114
f 125/272/115 122/265/115 121/263/115 124/270/115
f 108/229/116 54/137/116 118/258/116 123/268/116
f 123/268/117 118/258/117 119/260/117 122/266/117
f 122/266/118 119/260/118 120/262/118 121/264/118
f 54/138/119 142/302/119 141/300/119 53/134/119
f 142/302/120 143/304/120 140/298/120 141/300/120
f 143/304/121 144/306/121 139/296/121 140/298/121
f 4/12/122 133/284/122 142/303/122 54/139/122
f 133/284/123 134/286/123 143/305/123 142/303/123
f 134/286/124 135/288/124 144/307/124 143/305/124
f 53/135/125 141/301/125 138/294/125 52/131/125
f 141/301/126 140/299/126 137/292/126 138/294/126
f 140/299/127 139/297/127 136/290/127 137/292/127
f 52/132/128 138/295/128 133/285/128 4/13/128
f 138/295/129 137/293/129 134/287/129 133/285/129
f 137/293/130 136/291/130 135/289/130 134/287/130
f 105/223/131 1/3/131 88/195/131 59/147/131 108/230/131 2/5/131
f 86/192/132 85/188/132 83/185/132
f 83/185/133 85/188/133 18/46/133 23/58/133
f 63/153/134 15/39/134 23/59/134 18/47/134 12/32/134
f 84/187/135 18/48/135 85/189/135
l 52 106
