# Blender 3.3.1
# www.blender.org
mtllib monstruo_3_grande_caminar620.mtl
o monstruo_grande
v 0.331516 2.025577 0.215984
v 0.524691 1.206588 0.090260
v -0.735419 1.711855 0.218602
v -0.289538 1.095467 0.215137
v 0.448419 2.323221 -0.133275
v 0.509540 1.621287 -0.249647
v -0.891247 1.941998 -0.185354
v -0.772364 1.666576 -0.264832
v -0.366160 2.371238 0.497743
v 0.193465 2.292016 0.431965
v -0.493041 2.333415 0.603495
v -1.254006 1.974790 -0.014221
v -0.381829 2.539223 0.140998
v 0.167334 2.436996 0.176396
v -1.091194 1.840075 0.132468
v -0.545482 2.604429 0.172297
v -0.842065 2.235110 0.634225
v -1.531380 1.892919 0.264559
v -1.244726 1.936178 0.456307
v -1.045389 2.545772 0.379056
v -0.725828 2.637116 0.250693
v -0.569251 2.284874 0.582651
v -1.223852 1.858567 0.141297
v -1.796467 0.628247 0.945947
v -1.668310 0.608099 0.985190
v -1.660585 0.435944 0.780383
v -1.738808 0.448242 0.756430
v 0.354686 2.214130 0.401410
v 0.423849 2.418448 0.140943
v 0.307105 2.326233 0.420179
v 0.298515 2.465154 0.196184
v 0.584455 1.913855 0.175737
v 0.676102 2.018975 -0.007638
v 0.607767 1.992745 0.225372
v 0.668573 2.116152 0.070297
v 0.764987 1.696424 0.091218
v 0.828575 1.736869 0.004717
v 0.855248 1.665298 0.136655
v 0.915417 1.714198 0.050960
v 0.794739 1.544198 0.110725
v 0.923275 1.643756 -0.065123
v 0.921070 1.446076 0.225863
v 1.108537 1.594563 -0.044482
v -0.204442 2.431712 0.511594
v 0.005886 2.407717 0.488715
v -0.213909 2.532290 0.265567
v -0.011610 2.508910 0.245806
v -0.147385 2.746442 0.654209
v 0.057226 2.681379 0.611634
v -0.164659 2.859008 0.400633
v 0.038793 2.794468 0.357473
v -0.499815 1.123066 0.004009
v -0.388544 1.165660 -0.207933
v -0.055703 1.276062 -0.332830
v -0.800700 1.759332 0.001617
v 0.548582 1.207483 -0.147588
v 0.328727 1.202453 -0.272719
v -0.026946 1.527622 -0.322654
v -0.010107 1.146339 0.192452
v 0.372032 2.115164 0.097577
v -0.365417 2.430870 0.372169
v -0.530074 2.581260 0.444213
v -1.028056 1.911407 0.011469
v 0.158151 2.420086 0.336740
v -0.878280 2.461541 0.594649
v -1.420479 2.035787 0.504874
v -0.682271 2.559867 0.444609
v -1.742192 0.616356 0.996651
v -1.685493 0.328900 0.663906
v 0.428322 2.327806 0.297401
v 0.303777 2.440455 0.331493
v 0.583781 1.948137 0.049619
v 0.680936 2.066441 0.175086
v 0.795328 1.719498 0.048056
v 0.885193 1.689016 0.093471
v 0.837525 1.596339 0.009514
v 0.976266 1.526298 0.067251
v -0.209145 2.481410 0.387327
v -0.004110 2.459224 0.366638
v -0.187156 2.804051 0.530241
v 0.079564 2.736790 0.482121
v -1.549775 0.935011 0.928063
v -1.610677 0.761505 0.861984
v -1.770807 0.940212 0.861323
v -1.731303 0.780469 0.825047
v -1.673468 0.605458 0.766623
v -1.679909 0.917292 0.947756
v -0.075952 1.756863 0.517591
v 0.016842 2.141127 -0.192409
v -0.021761 2.513652 0.065655
v -0.036851 2.265909 0.622559
v -0.114116 2.519552 0.253789
v -0.095784 2.419338 0.499645
v -0.065846 2.843349 0.340691
v -0.042550 2.697025 0.670884
v -0.049552 2.820907 0.528570
v 0.027730 2.660755 0.277049
v 0.046654 2.533662 0.567550
v -0.188841 2.582628 0.605445
v -0.209768 2.709277 0.313473
v -0.215287 2.647047 0.461103
v 0.052857 2.597040 0.420770
v -0.092872 2.693350 0.274816
v -0.068943 2.548512 0.606307
v 0.387780 1.721708 -0.029773
v -0.595712 1.436641 0.229901
v 0.489995 1.840855 -0.246761
v 0.177082 1.184950 0.196655
v -0.203988 -0.001867 -0.136896
v -0.348916 0.003715 -0.015240
v -0.373619 0.004810 -0.264965
v -0.238408 -0.000626 -0.279095
v 0.345522 0.019205 0.361702
v 0.264169 -0.011079 0.301301
v 0.350538 0.004873 0.325066
v 0.316333 -0.006254 0.305089
v 0.288081 0.022394 0.378583
v 0.090616 0.850881 -0.086849
v 0.132399 0.567728 0.093602
v 0.192886 0.296816 0.231490
v 0.251264 0.338744 0.398544
v 0.227928 0.595796 0.383006
v 0.222115 0.867167 0.319459
v 0.368763 0.331412 0.357498
v 0.425625 0.587345 0.311649
v 0.500922 0.923772 0.221823
v 0.347932 0.885634 -0.070444
v 0.314401 0.574228 0.100968
v 0.301460 0.300538 0.235648
v 0.375000 0.313289 0.277145
v 0.437722 0.595711 0.169341
v 0.519124 0.920949 0.032281
v -0.174467 0.818988 0.272455
v -0.149952 0.540258 0.183288
v -0.146940 0.304435 0.129937
v -0.432160 0.296975 0.117637
v -0.441197 0.570652 0.134569
v -0.462636 0.825107 0.148883
v -0.466026 0.362742 -0.141968
v -0.472791 0.639453 -0.127204
v -0.477653 0.871881 -0.125617
v -0.081608 0.831693 -0.158768
v -0.129768 0.622522 -0.173351
v -0.174139 0.408806 -0.168773
vn -0.1296 0.5572 -0.8202
vn -0.0911 0.0987 -0.9909
vn 0.4907 -0.1647 -0.8556
vn -0.2115 -0.3183 0.9241
vn 0.9455 0.0810 0.3155
vn 0.5780 0.7977 0.1720
vn 0.0125 0.9204 -0.3908
vn 0.6570 -0.2152 0.7225
vn -0.1096 0.9041 0.4129
vn -0.2098 0.5470 -0.8104
vn -0.0603 -0.5084 0.8590
vn -0.3800 -0.8734 -0.3046
vn -0.1707 -0.1379 0.9756
vn 0.3728 -0.8538 0.3635
vn 0.9583 -0.2524 0.1340
vn 0.0698 -0.7489 0.6590
vn 0.0806 0.9764 0.2003
vn 0.0610 -0.7550 0.6529
vn -0.6324 0.2504 0.7330
vn 0.9073 0.0349 -0.4190
vn -0.8976 0.0353 -0.4394
vn 0.5854 0.7604 0.2811
vn 0.6106 0.1603 0.7756
vn -0.1178 -0.5645 0.8170
vn -0.0728 0.5956 0.8000
vn -0.3922 -0.5439 0.7418
vn -0.4213 -0.5158 -0.7460
vn 0.7752 0.5814 -0.2470
vn -0.1025 -0.6466 0.7559
vn 0.3318 0.8163 -0.4729
vn 0.5688 0.1701 0.8047
vn 0.6533 0.3880 -0.6501
vn -0.4381 -0.3299 -0.8362
vn -0.1302 -0.7669 -0.6284
vn -0.6834 -0.0683 -0.7268
vn -0.5536 0.0996 0.8268
vn 0.7549 0.3963 0.5226
vn 0.9702 -0.0085 -0.2421
vn 0.4135 0.5560 0.7211
vn 0.0800 0.9967 -0.0160
vn -0.3355 0.8611 0.3821
vn 0.3587 0.9078 0.2172
vn 0.0570 0.9697 0.2375
vn -0.9538 0.1031 0.2823
vn 0.3435 -0.3609 0.8671
vn -0.3020 0.4902 -0.8177
vn -0.6746 -0.5702 -0.4688
vn -0.8623 -0.4636 0.2039
vn 0.0771 0.1253 -0.9891
vn -0.9726 0.2323 -0.0001
vn 0.0773 0.8301 0.5522
vn 0.4506 0.7320 0.5110
vn -0.2921 0.8651 0.4078
vn 0.9889 -0.1431 0.0406
vn 0.5840 0.2559 0.7703
vn -0.8355 -0.1825 -0.5183
vn -0.2035 -0.8392 -0.5043
vn -0.7399 -0.5870 -0.3286
vn 0.8359 0.4416 0.3259
vn -0.5204 -0.7246 -0.4518
vn -0.1780 0.9748 0.1348
vn 0.7662 0.5853 0.2651
vn 0.6635 0.3530 0.6596
vn -0.4758 0.2524 -0.8425
vn 0.1441 0.1243 0.9817
vn -0.6178 -0.6483 0.4450
vn -0.2119 0.4364 0.8744
vn -0.7095 0.6092 0.3543
vn -0.3829 -0.8347 -0.3959
vn 0.2572 0.3898 0.8843
vn 0.5737 0.5920 0.5660
vn 0.2861 0.3144 0.9051
vn -0.4962 0.5900 -0.6370
vn -0.8404 0.3909 0.3755
vn 0.9592 -0.2718 0.0783
vn 0.5282 0.6948 0.4881
vn 0.2268 0.4221 -0.8777
vn -0.1844 -0.2996 0.9361
vn 0.5027 0.8550 0.1274
vn 0.2838 0.9588 0.0092
vn -0.0928 0.4873 0.8683
vn -0.3971 -0.1584 0.9040
vn 0.0431 0.7706 -0.6358
vn -0.0769 -0.5726 0.8162
vn 0.0051 0.1576 -0.9875
vn 0.9494 -0.2839 -0.1347
vn -1.0000 -0.0042 -0.0046
vn -0.1965 0.2027 -0.9593
vn 0.1073 -0.6031 0.7904
vn -0.9942 -0.0256 0.1044
vn 0.9429 -0.2479 -0.2225
vn 0.1757 -0.9578 -0.2274
vn 0.2102 -0.5359 0.8177
vn -0.9263 -0.1322 0.3528
vn -0.9555 -0.2861 0.0723
vn 0.9840 -0.0837 -0.1576
vn -0.1183 0.2849 -0.9512
vn -0.0393 -0.9992 -0.0000
vn 0.0629 -0.9225 0.3809
vn 0.3134 -0.0170 0.9495
vn 0.0595 -0.2126 -0.9753
vn 0.9913 -0.0666 0.1138
vn 0.5164 -0.1682 -0.8397
vn 0.4790 -0.4755 -0.7379
vn 0.5122 -0.4476 -0.7330
vn 0.4985 -0.4026 -0.7677
vn 0.9944 -0.0393 0.0981
vn 0.9757 -0.2017 0.0857
vn 0.9774 -0.1917 0.0889
vn 0.0721 -0.5039 -0.8607
vn 0.0939 -0.5061 -0.8574
vn 0.0511 -0.4434 -0.8949
vn 0.2418 0.3857 0.8904
vn 0.3096 0.1992 0.9298
vn 0.3385 0.0900 0.9366
vn -0.9317 -0.0624 0.3577
vn -0.9503 0.0534 0.3067
vn -0.9436 -0.0549 0.3266
vn -0.1747 -0.2987 -0.9382
vn -0.1030 0.0465 -0.9936
vn -0.1154 0.0295 -0.9929
vn 0.9103 0.2243 0.3480
vn 0.9882 -0.0761 0.1326
vn 0.9955 -0.0877 -0.0356
vn -0.9813 0.0124 -0.1919
vn -0.9956 -0.0562 0.0744
vn -0.9927 -0.0352 0.1156
vn -0.5446 0.1463 0.8258
vn -0.2908 -0.2064 0.9343
vn -0.1097 -0.1384 0.9843
vn 0.5970 -0.1125 0.7943
vn 0.3252 0.3944 -0.8595
vn -0.2299 -0.4418 -0.8672
vn -0.2325 -0.8016 -0.5509
vn -0.8593 -0.0985 -0.5020
vt 0.882279 0.260085
vt 0.436089 0.649131
vt 0.117664 0.305524
vt 0.860974 0.338762
vt 0.079561 0.383885
vt 0.278417 0.728674
vt 0.111517 0.716819
vt 0.301243 0.337859
vt 0.232943 0.387386
vt 0.111517 0.662267
vt 0.671871 0.687525
vt 0.175114 0.511099
vt 0.930991 0.712692
vt 0.796001 0.259488
vt 0.522181 0.649131
vt 0.719621 0.316178
vt 0.801110 0.310020
vt 0.698705 0.366293
vt 0.510656 0.337024
vt 0.023033 0.717149
vt 0.367094 0.730187
vt 0.507246 0.358198
vt 0.018976 0.695717
vt 0.103380 0.570561
vt 0.268725 0.266033
vt 0.143950 0.273348
vt 0.098384 0.631539
vt 0.301351 0.259488
vt 0.128079 0.559933
vt 0.480438 0.333338
vt 0.348619 0.714075
vt 0.604958 0.268707
vt 0.031105 0.562973
vt 0.043818 0.625810
vt 0.721993 0.282954
vt 0.329365 0.336360
vt 0.302724 0.713315
vt 0.030374 0.549675
vt 0.582817 0.260846
vt 0.875347 0.642471
vt 0.380514 0.272320
vt 0.124895 0.517524
vt 0.813390 0.578569
vt 0.436089 0.332372
vt 0.956124 0.588845
vt 0.367094 0.692599
vt 0.367094 0.522797
vt 0.871643 0.594841
vt 0.398138 0.324445
vt 0.043891 0.509019
vt 0.796001 0.641153
vt 0.491075 0.268473
vt 0.032114 0.534706
vt 0.552485 0.259488
vt 0.331566 0.259909
vt 0.129819 0.544964
vt 0.339759 0.337186
vt 0.913298 0.588845
vt 0.317584 0.707220
vt 0.845734 0.463378
vt 0.311567 0.646434
vt 0.944558 0.353645
vt 0.398138 0.462439
vt 0.920230 0.354337
vt 0.870057 0.463781
vt 0.929709 0.374247
vt 0.357807 0.478584
vt 0.347994 0.663056
vt 0.944558 0.373825
vt 0.097076 0.285727
vt 0.229765 0.651022
vt 0.758050 0.297859
vt 0.168317 0.651042
vt 0.119329 0.272208
vt 0.094178 0.643292
vt 0.222768 0.636959
vt 0.746872 0.283208
vt 0.174541 0.636975
vt 0.045175 0.638147
vt 0.080672 0.327471
vt 0.442544 0.673801
vt 0.734592 0.339187
vt 0.484453 0.673801
vt 0.070725 0.319456
vt 0.218298 0.685110
vt 0.751374 0.331694
vt 0.180611 0.684911
vt 0.062412 0.356092
vt 0.455575 0.702696
vt 0.724658 0.367821
vt 0.476314 0.702696
vt 0.043357 0.357400
vt 0.210236 0.723455
vt 0.742364 0.370210
vt 0.189444 0.723462
vt 0.050281 0.367705
vt 0.444942 0.715336
vt 0.810526 0.722486
vt 0.728448 0.380153
vt 0.853695 0.722486
vt 0.487920 0.715336
vt 0.018975 0.371756
vt 0.232852 0.738567
vt 0.796001 0.739289
vt 0.758050 0.386241
vt 0.861207 0.739289
vt 0.167770 0.738589
vt 0.100634 0.583041
vt 0.712300 0.698974
vt 0.802197 0.701507
vt 0.098640 0.600731
vt 0.972705 0.287497
vt 0.747907 0.696578
vt 0.052045 0.577939
vt 0.849895 0.701507
vt 0.710445 0.675017
vt 0.050052 0.595630
vt 0.746553 0.677603
vt 0.924885 0.287497
vt 0.797725 0.671259
vt 0.981025 0.313792
vt 0.715147 0.730011
vt 0.752543 0.724602
vt 0.973919 0.259495
vt 0.967002 0.332143
vt 0.934252 0.306472
vt 0.715328 0.644023
vt 0.847669 0.671259
vt 0.923848 0.259495
vt 0.753088 0.649631
vt 0.920230 0.324823
vt 0.068284 0.665533
vt 0.630362 0.705721
vt 0.712055 0.621316
vt 0.966165 0.712391
vt 0.519769 0.388732
vt 0.031375 0.663704
vt 0.592215 0.695479
vt 0.581836 0.620019
vt 0.750017 0.621843
vt 0.569690 0.667298
vt 0.581066 0.387596
vt 0.531739 0.516092
vt 0.642835 0.625048
vt 0.273616 0.509019
vt 0.070982 0.710642
vt 0.316851 0.732164
vt 0.684917 0.393810
vt 0.816625 0.338063
vt 0.644803 0.392946
vt 0.602800 0.367236
vt 0.671871 0.661666
vt 0.181146 0.386242
vt 0.855113 0.259897
vt 0.463196 0.649131
vt 0.077903 0.567886
vt 0.078993 0.554271
vt 0.322237 0.720993
vt 0.070972 0.628379
vt 0.834014 0.651825
vt 0.084160 0.512738
vt 0.838315 0.596273
vt 0.320679 0.509019
vt 0.080733 0.539302
vt 0.857365 0.464048
vt 0.931678 0.351118
vt 0.335174 0.488977
vt 0.367094 0.673623
vt 0.939667 0.384854
vt 0.199177 0.651021
vt 0.069465 0.641494
vt 0.198664 0.632807
vt 0.464209 0.672968
vt 0.199604 0.684998
vt 0.465945 0.702696
vt 0.199840 0.723459
vt 0.466714 0.715004
vt 0.832520 0.720483
vt 0.200177 0.738589
vt 0.829423 0.735282
vt 0.076340 0.580490
vt 0.826046 0.701507
vt 0.074346 0.598181
vt 0.948795 0.287497
vt 0.823088 0.670800
vt 0.959731 0.307426
vt 0.948976 0.259488
vt 0.941524 0.331189
vt 0.875347 0.491894
vt 0.391834 0.432095
vt 0.377694 0.448634
vt 0.915590 0.478791
vt 0.834644 0.488373
vt 0.326937 0.619279
vt 0.938593 0.478810
vt 0.335216 0.632947
vt 0.358601 0.463790
vt 0.348787 0.648138
vt 0.927106 0.463378
vt 0.854274 0.489560
vt 0.315804 0.619182
vt 0.212520 0.321385
vt 0.644070 0.318501
vt 0.018976 0.592450
vt 0.663817 0.276029
vt 0.129819 0.597828
vt 0.224108 0.269832
vt 0.051049 0.586785
vt 0.728499 0.676310
vt 0.099637 0.591886
vt 0.730103 0.697776
vt 0.734390 0.646904
vt 0.920230 0.314550
vt 0.981025 0.324065
vt 0.732426 0.727384
vt 0.950683 0.319044
vt 0.753088 0.663662
vt 0.920230 0.273492
vt 0.977552 0.273492
vt 0.752543 0.710647
vt 0.709822 0.714522
vt 0.796001 0.686127
vt 0.853178 0.686127
vt 0.709822 0.659561
vt 0.824792 0.685890
vt 0.948939 0.273488
vt 0.731549 0.661651
vt 0.730449 0.712624
vt 0.878850 0.297575
vt 0.096711 0.342677
vt 0.285581 0.357771
vt 0.108549 0.696221
vt 0.804979 0.293594
vt 0.708839 0.350023
vt 0.668288 0.644023
vt 0.436089 0.526409
vt 0.145034 0.385321
vt 0.919159 0.607821
vt 0.247387 0.613831
vt 0.970304 0.416607
vt 0.947808 0.608020
vt 0.704660 0.516092
vt 0.970304 0.403829
vt 0.750017 0.516884
vt 0.618892 0.516092
vt 0.920230 0.404231
vt 0.273616 0.612878
vt 0.642836 0.516847
vt 0.938584 0.415207
vt 0.924281 0.443436
vt 0.075400 0.489812
vt 0.855524 0.444402
vt 0.531739 0.629156
vt 0.934913 0.435583
vt 0.576828 0.496673
vt 0.931440 0.443424
vt 0.848383 0.444289
vt 0.592622 0.497116
vt 0.934913 0.440184
vt 0.586164 0.496977
vt 0.517161 0.630156
vt 0.920230 0.438606
vt 0.085942 0.490043
vt 0.585376 0.420489
vt 0.510472 0.551446
vt 0.582586 0.444044
vt 0.504260 0.576063
vt 0.581388 0.469636
vt 0.508131 0.602400
vt 0.103684 0.463024
vt 0.477645 0.604263
vt 0.118194 0.440373
vt 0.454885 0.581958
vt 0.129418 0.415411
vt 0.438452 0.557360
vt 0.876897 0.417052
vt 0.081901 0.462161
vt 0.882279 0.393921
vt 0.081653 0.438865
vt 0.880271 0.363315
vt 0.079604 0.408162
vt 0.633117 0.418943
vt 0.615530 0.444447
vt 0.600997 0.469910
vt 0.614559 0.469949
vt 0.862035 0.416811
vt 0.638313 0.444473
vt 0.857648 0.390640
vt 0.666106 0.417503
vt 0.844696 0.362700
vt 0.167770 0.536691
vt 0.914144 0.688660
vt 0.182151 0.561697
vt 0.913298 0.663084
vt 0.189855 0.582503
vt 0.915415 0.641729
vt 0.680787 0.549268
vt 0.966165 0.641681
vt 0.684678 0.573659
vt 0.963812 0.665813
vt 0.684995 0.596421
vt 0.964308 0.688427
vt 0.584794 0.548886
vt 0.729850 0.550060
vt 0.578610 0.572959
vt 0.734888 0.574452
vt 0.569690 0.595426
vt 0.736445 0.597214
vt 0.642060 0.590920
vt 0.247172 0.543053
vt 0.641052 0.570535
vt 0.248998 0.562413
vt 0.635978 0.552556
vt 0.245738 0.579271
s 0
usemtl Material
f 89/203/1 7/19/1 13/32/1 90/205/1
f 8/22/2 7/19/2 89/203/2 58/151/2 54/142/2 53/136/2
f 6/18/3 56/148/3 57/150/3
f 3/8/4 106/231/4 4/9/4 59/153/4 88/202/4
f 6/17/5 107/233/5 5/14/5 60/154/5 1/1/5 105/229/5 2/4/5 56/149/5
f 61/156/6 13/33/6 16/38/6 62/157/6
f 5/16/7 14/35/7 31/77/7 29/72/7
f 88/202/8 1/3/8 10/26/8 91/207/8
f 67/164/9 21/53/9 20/50/9 65/161/9
f 13/32/10 7/19/10 12/30/10 16/39/10
f 3/8/11 9/25/11 11/28/11 15/36/11
f 55/147/12 3/6/12 15/37/12 63/158/12
f 66/162/13 19/48/13 17/40/13 65/160/13
f 23/57/14 22/55/14 17/41/14 19/49/14
f 83/191/15 82/190/15 25/63/15 26/67/15
f 15/36/16 11/28/16 22/55/16 23/57/16
f 62/157/17 16/38/17 21/53/17 67/164/17
f 69/169/18 26/66/18 25/64/18 68/166/18
f 87/200/19 84/193/19 24/60/19 68/165/19
f 86/197/20 83/191/20 26/67/20 69/167/20
f 84/194/21 85/196/21 27/68/21 24/61/21
f 70/170/22 29/73/22 31/78/22 71/172/22
f 70/170/23 28/71/23 34/85/23 73/174/23
f 10/26/24 1/3/24 28/70/24 30/74/24
f 64/159/25 10/27/25 30/75/25 71/171/25
f 34/84/26 32/80/26 36/88/26 38/92/26
f 60/155/27 5/15/27 33/83/27 72/173/27
f 5/16/28 29/72/28 35/86/28 33/82/28
f 28/70/29 1/3/29 32/80/29 34/84/29
f 37/90/30 39/94/30 43/105/30 41/99/30
f 73/174/31 34/85/31 38/93/31 75/176/31
f 33/82/32 35/86/32 39/94/32 37/90/32
f 72/173/33 33/83/33 37/91/33 74/175/33
f 76/178/34 41/100/34 43/106/34 77/180/34
f 74/175/35 37/91/35 41/101/35 76/177/35
f 38/92/36 36/88/36 40/96/36 42/102/36
f 75/176/37 38/93/37 42/103/37 77/179/37
f 102/226/38 97/218/38 51/129/38 81/187/38
f 91/206/39 10/27/39 45/111/39 93/210/39
f 90/204/40 13/33/40 46/114/40 92/208/40
f 61/156/41 9/24/41 44/108/41 78/181/41
f 64/159/42 14/34/42 47/117/42 79/183/42
f 96/216/43 94/213/43 50/126/43 80/186/43
f 101/225/44 99/222/44 48/120/44 80/185/44
f 104/228/45 98/220/45 49/123/45 95/215/45
f 103/227/46 100/224/46 50/127/46 94/212/46
f 8/23/47 53/137/47 52/132/47
f 8/23/48 52/132/48 4/10/48 106/232/48 3/7/48 55/146/48 7/20/48
f 54/142/49 58/151/49 89/203/49 5/16/49 107/234/49 6/18/49 57/150/49
f 100/223/50 101/225/50 80/185/50 50/128/50
f 95/214/51 96/216/51 80/186/51 48/121/51
f 10/27/52 64/159/52 79/183/52 45/111/52
f 13/33/53 61/156/53 78/181/53 46/114/53
f 98/219/54 102/226/54 81/187/54 49/124/54
f 39/95/55 75/176/55 77/179/55 43/107/55
f 36/89/56 74/175/56 76/177/56 40/97/56
f 40/98/57 76/178/57 77/180/57 42/104/57
f 32/81/58 72/173/58 74/175/58 36/89/58
f 35/87/59 73/174/59 75/176/59 39/95/59
f 1/2/60 60/155/60 72/173/60 32/81/60
f 14/34/61 64/159/61 71/171/61 31/79/61
f 29/73/62 70/170/62 73/174/62 35/87/62
f 28/71/63 70/170/63 71/172/63 30/76/63
f 85/196/64 86/198/64 69/168/64 27/68/64
f 82/189/65 87/200/65 68/165/65 25/65/65
f 27/69/66 69/169/66 68/166/66 24/62/66
f 11/29/67 62/157/67 67/164/67 22/56/67
f 18/43/68 66/162/68 65/160/68 20/51/68
f 7/21/69 55/147/69 63/158/69 12/31/69
f 22/56/70 67/164/70 65/161/70 17/42/70
f 9/24/71 61/156/71 62/157/71 11/29/71
f 19/48/72 66/162/72 87/200/72 82/189/72
f 12/30/73 18/44/73 20/52/73 21/54/73 16/39/73
f 66/163/74 18/47/74 84/194/74 87/201/74
f 23/57/75 19/49/75 82/190/75 83/191/75
f 49/125/76 81/188/76 96/216/76 95/214/76
f 97/217/77 103/227/77 94/212/77 51/130/77
f 99/221/78 104/228/78 95/215/78 48/122/78
f 81/188/79 51/131/79 94/213/79 96/216/79
f 14/34/80 90/204/80 92/208/80 47/117/80
f 9/24/81 91/206/81 93/210/81 44/108/81
f 3/8/82 88/202/82 91/207/82 9/25/82
f 5/16/83 89/203/83 90/205/83 14/35/83
f 44/109/84 93/211/84 104/228/84 99/221/84
f 47/118/85 92/209/85 103/227/85 97/217/85
f 45/112/86 79/184/86 102/226/86 98/219/86
f 46/115/87 78/182/87 101/225/87 100/223/87
f 92/209/88 46/116/88 100/224/88 103/227/88
f 93/211/89 45/113/89 98/220/89 104/228/89
f 78/182/90 44/110/90 99/222/90 101/225/90
f 79/184/91 47/119/91 97/218/91 102/226/91
f 59/152/92 4/11/92 52/133/92 53/138/92 54/141/92 108/235/92
f 136/298/93 110/241/93 109/238/93 135/296/93
f 121/271/94 120/269/94 114/253/94 117/261/94
f 139/304/95 111/244/95 110/242/95 136/297/95
f 135/295/96 109/239/96 112/247/96 144/314/96
f 144/313/97 112/248/97 111/245/97 139/303/97
f 111/246/98 112/249/98 109/240/98 110/243/98
f 117/262/99 114/254/99 116/259/99 115/256/99 113/250/99
f 124/277/100 121/270/100 117/263/100 113/251/100
f 120/268/101 129/284/101 116/260/101 114/255/101
f 130/286/102 124/276/102 113/252/102 115/257/102
f 129/284/103 130/285/103 115/258/103 116/260/103
f 57/150/104 56/148/104 132/289/104 127/282/104
f 127/282/105 132/289/105 131/287/105 128/283/105
f 128/283/106 131/287/106 130/285/106 129/284/106
f 56/149/107 2/4/107 126/280/107 132/290/107
f 132/290/108 126/280/108 125/278/108 131/288/108
f 131/288/109 125/278/109 124/276/109 130/286/109
f 54/142/110 57/150/110 127/282/110 118/264/110
f 118/264/111 127/282/111 128/283/111 119/266/111
f 119/266/112 128/283/112 129/284/112 120/268/112
f 2/5/113 108/237/113 123/274/113 126/281/113
f 126/281/114 123/274/114 122/272/114 125/279/114
f 125/279/115 122/272/115 121/270/115 124/277/115
f 108/236/116 54/143/116 118/265/116 123/275/116
f 123/275/117 118/265/117 119/267/117 122/273/117
f 122/273/118 119/267/118 120/269/118 121/271/118
f 54/144/119 142/309/119 141/307/119 53/139/119
f 142/309/120 143/311/120 140/305/120 141/307/120
f 143/311/121 144/313/121 139/303/121 140/305/121
f 4/12/122 133/291/122 142/310/122 54/145/122
f 133/291/123 134/293/123 143/312/123 142/310/123
f 134/293/124 135/295/124 144/314/124 143/312/124
f 53/140/125 141/308/125 138/301/125 52/134/125
f 141/308/126 140/306/126 137/299/126 138/301/126
f 140/306/127 139/304/127 136/297/127 137/299/127
f 52/135/128 138/302/128 133/292/128 4/13/128
f 138/302/129 137/300/129 134/294/129 133/292/129
f 137/300/130 136/298/130 135/296/130 134/294/130
f 105/230/131 1/3/131 88/202/131 59/153/131 108/237/131 2/5/131
f 86/199/132 85/195/132 83/192/132
f 83/192/133 85/195/133 18/45/133 23/58/133
f 63/158/134 15/37/134 23/59/134 18/46/134 12/31/134
f 84/194/135 18/47/135 85/196/135
l 52 106
