# Blender 3.3.1
# www.blender.org
mtllib monstruo_3_caminar584.mtl
o monstruo_grande
v 0.357428 2.037116 0.185767
v 0.523582 1.162431 0.064839
v -0.705869 1.781459 0.094689
v -0.299760 1.187416 0.218789
v 0.622298 2.298024 -0.106877
v 0.560640 1.638643 -0.236749
v -0.790937 1.960426 -0.360215
v -0.708715 1.653154 -0.387743
v -0.338765 2.432729 0.348700
v 0.217407 2.324154 0.377328
v -0.482000 2.411117 0.439310
v -1.161850 2.024637 -0.246828
v -0.296119 2.566775 -0.019223
v 0.243710 2.450649 0.110124
v -1.029158 1.903447 -0.056001
v -0.457393 2.641219 -0.019504
v -0.840954 2.337135 0.427054
v -1.481517 1.979708 -0.010775
v -1.226146 2.033926 0.218830
v -0.985030 2.623748 0.110768
v -0.643989 2.687191 0.024838
v -0.559135 2.367156 0.414047
v -1.160837 1.924747 -0.075914
v -1.893739 0.785251 0.718839
v -1.772332 0.760457 0.773756
v -1.753695 0.573600 0.583019
v -1.827798 0.588734 0.549500
v 0.344610 2.230309 0.370569
v 0.515835 2.409781 0.146769
v 0.326083 2.350250 0.380601
v 0.373566 2.470518 0.156001
v 0.567915 1.915355 0.232481
v 0.760475 1.944820 0.123157
v 0.601237 1.976156 0.287049
v 0.733092 2.072918 0.168977
v 0.676368 1.656242 0.329277
v 0.783052 1.661054 0.291041
v 0.715022 1.646564 0.427380
v 0.822378 1.658606 0.386516
v 0.654605 1.523899 0.409996
v 0.877389 1.547603 0.328349
v 0.666911 1.480436 0.601839
v 1.002445 1.515287 0.473463
v -0.176658 2.482683 0.385781
v 0.033575 2.456805 0.388243
v -0.154664 2.565603 0.131980
v 0.046670 2.538949 0.139254
v -0.121895 2.796885 0.528050
v 0.084166 2.728307 0.500712
v -0.121159 2.902615 0.270636
v 0.083629 2.834520 0.242071
v -0.502863 1.156812 0.013339
v -0.388450 1.136913 -0.199287
v -0.035994 1.256523 -0.338278
v -0.745728 1.802649 -0.138302
v 0.545960 1.251310 -0.153079
v 0.329260 1.284637 -0.277198
v 0.023270 1.508020 -0.345587
v -0.025181 1.132531 0.190264
v 0.451794 2.112039 0.085048
v -0.317351 2.480241 0.220122
v -0.482353 2.643452 0.254223
v -0.951963 1.958879 -0.175823
v 0.206675 2.446505 0.268058
v -0.857028 2.558089 0.356625
v -1.401433 2.142082 0.229898
v -0.634219 2.628709 0.233925
v -1.846303 0.773906 0.776103
v -1.772767 0.459976 0.471792
v 0.458994 2.327280 0.297767
v 0.350734 2.457003 0.288393
v 0.637480 1.909655 0.130268
v 0.699176 2.030030 0.271139
v 0.729941 1.661311 0.309087
v 0.768619 1.652131 0.406874
v 0.757774 1.533304 0.346272
v 0.818877 1.493598 0.495195
v -0.167860 2.522782 0.257425
v 0.037864 2.499591 0.262700
v -0.152725 2.851550 0.400262
v 0.115438 2.780045 0.371277
v -1.626502 1.074682 0.709093
v -1.691289 0.900725 0.648090
v -1.838010 1.087682 0.616930
v -1.805562 0.924062 0.596402
v -1.753550 0.742115 0.556694
v -1.758909 1.066216 0.714873
v -0.086142 1.814551 0.457021
v 0.142031 2.136508 -0.262795
v 0.064400 2.526693 -0.039098
v -0.039421 2.324841 0.528728
v -0.058137 2.550694 0.133587
v -0.065794 2.466222 0.386229
v -0.018938 2.883961 0.217019
v -0.019042 2.746724 0.552861
v -0.015091 2.866750 0.407166
v 0.077535 2.697517 0.164797
v 0.073363 2.580931 0.459834
v -0.162848 2.632680 0.480276
v -0.160800 2.749811 0.181401
v -0.178814 2.692916 0.332049
v 0.090537 2.639387 0.311859
v -0.042356 2.731106 0.152136
v -0.043422 2.597074 0.490474
v 0.433423 1.698558 0.037349
v -0.599565 1.509368 0.146560
v 0.578553 1.858281 -0.227298
v 0.170490 1.095294 0.171546
v -0.199216 0.036838 0.099493
v -0.343750 0.044482 0.221772
v -0.369348 0.040312 -0.028643
v -0.234164 0.035259 -0.043173
v 0.370708 0.126824 -0.462670
v 0.297259 0.156528 -0.532618
v 0.379994 0.141608 -0.498252
v 0.348410 0.151457 -0.522685
v 0.311827 0.123729 -0.452735
v 0.095431 0.913593 -0.218048
v 0.162733 0.698891 -0.251710
v 0.230531 0.424811 -0.365036
v 0.274127 0.328691 -0.216901
v 0.237604 0.513741 -0.040027
v 0.221202 0.743630 0.116805
v 0.394515 0.352222 -0.239213
v 0.440151 0.557413 -0.072337
v 0.501576 0.848485 0.080007
v 0.350350 0.947030 -0.195963
v 0.343426 0.696794 -0.228121
v 0.338041 0.422494 -0.349681
v 0.407555 0.399272 -0.305848
v 0.460671 0.661502 -0.155894
v 0.520552 0.933017 -0.088313
v -0.177284 0.946629 0.366617
v -0.150537 0.642574 0.343275
v -0.145546 0.395493 0.335221
v -0.430596 0.383221 0.324332
v -0.441683 0.659726 0.288497
v -0.464735 0.914564 0.246144
v -0.463610 0.401861 0.055253
v -0.472256 0.674432 0.020876
v -0.478352 0.879416 -0.027894
v -0.082137 0.837257 -0.048300
v -0.128891 0.651272 -0.018625
v -0.171884 0.444242 0.021152
vn 0.0003 0.4929 -0.8701
vn 0.0201 -0.0247 -0.9995
vn 0.4628 -0.2039 -0.8627
vn -0.3276 -0.2016 0.9231
vn 0.9040 -0.0429 0.4253
vn 0.5912 0.7857 0.1823
vn 0.1890 0.8935 -0.4074
vn 0.5522 -0.2024 0.8088
vn -0.1167 0.9486 0.2942
vn -0.0641 0.4715 -0.8795
vn -0.2033 -0.4135 0.8875
vn -0.3855 -0.8924 -0.2346
vn -0.3259 -0.0190 0.9452
vn 0.2620 -0.8213 0.5068
vn 0.9185 -0.2984 0.2593
vn -0.0888 -0.6633 0.7431
vn 0.0996 0.9880 0.1182
vn -0.0622 -0.7074 0.7040
vn -0.6920 0.3411 0.6363
vn 0.9482 -0.0498 -0.3137
vn -0.8392 0.0559 -0.5410
vn 0.5538 0.7288 0.4026
vn 0.3213 0.1014 0.9415
vn -0.3427 -0.5208 0.7819
vn -0.1639 0.6570 0.7358
vn -0.8754 -0.1447 0.4612
vn -0.1773 -0.5179 -0.8369
vn 0.8852 0.4646 0.0236
vn -0.4302 -0.6005 0.6741
vn 0.7156 0.5678 -0.4069
vn 0.0731 0.3789 0.9225
vn 0.9858 0.0751 -0.1501
vn -0.0110 -0.5475 -0.8367
vn 0.0765 -0.9562 -0.2827
vn -0.1613 -0.3646 -0.9171
vn -0.8856 0.4037 0.2296
vn 0.3892 0.5811 0.7148
vn 0.9850 -0.0261 -0.1704
vn 0.3239 0.5998 0.7317
vn 0.1161 0.9903 -0.0766
vn -0.3325 0.9039 0.2691
vn 0.3645 0.9095 0.2000
vn 0.0555 0.9755 0.2131
vn -0.9686 0.1237 0.2157
vn 0.2827 -0.3447 0.8951
vn -0.2375 0.4760 -0.8468
vn -0.7374 -0.5824 -0.3423
vn -0.9131 -0.3509 0.2075
vn 0.1852 0.0852 -0.9790
vn -0.9669 0.2432 -0.0774
vn 0.0523 0.8439 0.5339
vn 0.4048 0.7531 0.5185
vn -0.3165 0.9031 0.2903
vn 0.9813 -0.1593 0.1081
vn 0.0828 0.5469 0.8331
vn -0.4078 -0.3845 -0.8281
vn -0.0634 -0.9726 -0.2237
vn -0.5887 -0.5532 -0.5894
vn 0.6533 0.4137 0.6341
vn -0.4295 -0.6902 -0.5824
vn -0.1187 0.9923 0.0359
vn 0.7032 0.5038 0.5016
vn 0.5424 0.2733 0.7944
vn -0.3621 0.2178 -0.9064
vn 0.0432 0.1871 0.9814
vn -0.7053 -0.5761 0.4132
vn -0.2951 0.5385 0.7892
vn -0.7227 0.6683 0.1762
vn -0.3743 -0.8650 -0.3341
vn 0.1383 0.4769 0.8680
vn 0.5218 0.6188 0.5871
vn 0.1709 0.3733 0.9118
vn -0.3621 0.5345 -0.7636
vn -0.8685 0.4420 0.2244
vn 0.9274 -0.2921 0.2338
vn 0.5049 0.7017 0.5027
vn 0.2953 0.3963 -0.8693
vn -0.2517 -0.2734 0.9284
vn 0.5044 0.8528 0.1351
vn 0.3120 0.9495 -0.0342
vn -0.1801 0.5696 0.8019
vn -0.5109 -0.0585 0.8577
vn 0.2136 0.7177 -0.6628
vn -0.1633 -0.5558 0.8151
vn 0.1036 0.1143 -0.9880
vn 0.9487 -0.3134 -0.0415
vn -0.9933 -0.0076 -0.1150
vn -0.0969 0.1849 -0.9780
vn 0.0405 -0.5739 0.8179
vn -0.9997 -0.0040 0.0245
vn 0.9642 -0.2442 -0.1030
vn 0.0103 -0.9960 -0.0892
vn 0.2325 -0.4155 0.8794
vn -0.9556 -0.2825 0.0840
vn -0.9565 -0.2741 0.1003
vn 0.9855 -0.0934 -0.1419
vn -0.1270 0.1823 -0.9750
vn -0.0355 -0.9992 0.0201
vn -0.0131 -0.9262 -0.3769
vn 0.2256 -0.7075 0.6698
vn 0.1568 0.5433 -0.8248
vn 0.9770 -0.1891 0.0990
vn 0.5967 0.4430 -0.6691
vn 0.4868 -0.1929 -0.8520
vn 0.5394 0.0910 -0.8371
vn 0.5704 0.3205 -0.7563
vn 0.9949 -0.0648 0.0774
vn 0.9778 -0.2095 -0.0035
vn 0.9775 -0.2108 0.0063
vn 0.1530 -0.2489 -0.9564
vn 0.0923 0.1513 -0.9842
vn 0.1286 0.4028 -0.9062
vn 0.2330 -0.0477 0.9713
vn 0.2732 -0.5083 0.8167
vn 0.2559 -0.6423 0.7224
vn -0.9343 -0.2184 0.2819
vn -0.9493 -0.2566 0.1818
vn -0.9556 -0.2784 0.0970
vn -0.1209 -0.5425 -0.8313
vn -0.0957 -0.1862 -0.9778
vn -0.1096 -0.1442 -0.9835
vn 0.8948 0.3140 0.3174
vn 0.9874 -0.0383 0.1534
vn 0.9963 -0.0844 -0.0141
vn -0.9789 -0.0573 -0.1963
vn -0.9955 -0.0467 0.0830
vn -0.9930 -0.0208 0.1164
vn -0.5418 0.4016 0.7383
vn -0.2900 0.0067 0.9570
vn -0.1127 0.0492 0.9924
vn 0.4712 -0.1226 0.8735
vn 0.4437 0.3103 -0.8408
vn -0.1167 -0.5010 -0.8576
vn -0.1702 -0.8552 -0.4896
vn -0.8080 -0.0871 -0.5827
vt 0.461701 0.809397
vt 0.301930 0.729761
vt 0.094158 0.499911
vt 0.498737 0.648456
vt 0.250869 0.553264
vt 0.714874 0.752530
vt 0.627854 0.740386
vt 0.227533 0.339544
vt 0.300362 0.438253
vt 0.625828 0.633709
vt 0.338991 0.679376
vt 0.653754 0.621457
vt 0.189641 0.785401
vt 0.531284 0.815038
vt 0.232114 0.729761
vt 0.806952 0.326283
vt 0.527824 0.712310
vt 0.703640 0.331352
vt 0.725736 0.123548
vt 0.557184 0.740386
vt 0.714874 0.681901
vt 0.693091 0.138725
vt 0.558638 0.706064
vt 0.944491 0.391302
vt 0.108931 0.369345
vt 0.090202 0.443431
vt 0.952837 0.467016
vt 0.108059 0.346292
vt 0.960024 0.371234
vt 0.653754 0.712739
vt 0.761990 0.055860
vt 0.265996 0.788213
vt 0.829683 0.188590
vt 0.886815 0.394232
vt 0.909606 0.471204
vt 0.826550 0.267021
vt 0.659457 0.749480
vt 0.206417 0.267620
vt 0.238389 0.812575
vt 0.882743 0.373659
vt 0.837846 0.166681
vt 0.102618 0.289588
vt 0.957957 0.321520
vt 0.918648 0.216117
vt 0.803322 0.012950
vt 0.106348 0.638847
vt 0.232551 0.755661
vt 0.798789 0.485160
vt 0.965752 0.239402
vt 0.153968 0.222285
vt 0.894228 0.312474
vt 0.856067 0.102710
vt 0.881967 0.351902
vt 0.842627 0.144082
vt 0.107159 0.331692
vt 0.958812 0.358201
vt 0.199778 0.246429
vt 0.138792 0.619338
vt 0.232114 0.797406
vt 0.967580 0.012950
vt 0.753483 0.682459
vt 0.843831 0.469074
vt 0.256421 0.022764
vt 0.824689 0.472884
vt 0.987050 0.016155
vt 0.832147 0.505580
vt 0.295109 0.018166
vt 0.782932 0.707368
vt 0.843831 0.503254
vt 0.076417 0.467161
vt 0.958695 0.494573
vt 0.833773 0.298242
vt 0.909847 0.503107
vt 0.076958 0.454690
vt 0.951531 0.482650
vt 0.837149 0.281767
vt 0.912926 0.487172
vt 0.064432 0.532285
vt 0.298790 0.687460
vt 0.825577 0.362572
vt 0.264894 0.686125
vt 0.056614 0.518895
vt 0.959622 0.549977
vt 0.837123 0.350740
vt 0.929664 0.555276
vt 0.051257 0.577890
vt 0.291936 0.641182
vt 0.824256 0.407314
vt 0.275162 0.640522
vt 0.035793 0.577862
vt 0.964581 0.612577
vt 0.838997 0.411720
vt 0.948088 0.615681
vt 0.039898 0.592711
vt 0.301778 0.620707
vt 0.403076 0.772170
vt 0.830596 0.428615
vt 0.403076 0.737417
vt 0.267017 0.619338
vt 0.012950 0.593438
vt 0.987050 0.637067
vt 0.428919 0.781443
vt 0.856067 0.440612
vt 0.428919 0.728949
vt 0.935424 0.646785
vt 0.945356 0.412724
vt 0.357115 0.854737
vt 0.331665 0.779032
vt 0.948027 0.441601
vt 0.799629 0.752473
vt 0.327972 0.853161
vt 0.906904 0.416128
vt 0.370069 0.779032
vt 0.684668 0.778429
vt 0.909575 0.445005
vt 0.655249 0.778999
vt 0.799629 0.791035
vt 0.330193 0.729131
vt 0.557184 0.775635
vt 0.363063 0.804932
vt 0.331684 0.807874
vt 0.754247 0.751428
vt 0.586563 0.768755
vt 0.566112 0.815056
vt 0.689281 0.828405
vt 0.370405 0.729131
vt 0.754247 0.791805
vt 0.657717 0.824383
vt 0.595492 0.808176
vt 0.327830 0.637821
vt 0.590400 0.642651
vt 0.164818 0.789976
vt 0.357235 0.619338
vt 0.642851 0.190721
vt 0.562581 0.649581
vt 0.406824 0.626953
vt 0.080449 0.619338
vt 0.646201 0.239681
vt 0.727583 0.656002
vt 0.597847 0.731399
vt 0.712829 0.722239
vt 0.658284 0.323708
vt 0.527919 0.666449
vt 0.661748 0.291537
vt 0.680225 0.245582
vt 0.377645 0.696957
vt 0.285191 0.477898
vt 0.483372 0.812325
vt 0.280072 0.728266
vt 0.924330 0.393087
vt 0.921760 0.373660
vt 0.678504 0.727397
vt 0.268491 0.812575
vt 0.930826 0.465310
vt 0.923786 0.327561
vt 0.941993 0.227167
vt 0.764056 0.466512
vt 0.919524 0.351927
vt 0.977463 0.013354
vt 0.833186 0.466512
vt 0.317617 0.012950
vt 0.798789 0.722800
vt 0.839639 0.522681
vt 0.934403 0.500152
vt 0.932138 0.484309
vt 0.281656 0.689101
vt 0.944784 0.554368
vt 0.283549 0.640852
vt 0.956335 0.614129
vt 0.284323 0.620942
vt 0.399765 0.754789
vt 0.961112 0.640376
vt 0.422297 0.755187
vt 0.926130 0.414426
vt 0.350867 0.779032
vt 0.928801 0.443303
vt 0.799629 0.771754
vt 0.350773 0.728949
vt 0.557184 0.796361
vt 0.753483 0.771844
vt 0.595492 0.787450
vt 0.985581 0.067358
vt 0.238180 0.070710
vt 0.259592 0.052321
vt 0.138792 0.821791
vt 0.953366 0.057503
vt 0.765454 0.639660
vt 0.120235 0.821584
vt 0.772730 0.660154
vt 0.283154 0.037949
vt 0.784440 0.682652
vt 0.128680 0.843910
vt 0.970110 0.058056
vt 0.758353 0.637393
vt 0.180368 0.432154
vt 0.759258 0.257498
vt 0.884976 0.446549
vt 0.828099 0.241547
vt 0.971226 0.428512
vt 0.101516 0.405509
vt 0.908240 0.430567
vt 0.669958 0.778714
vt 0.946692 0.427163
vt 0.342544 0.853949
vt 0.673120 0.826722
vt 0.582140 0.817526
vt 0.570535 0.766286
vt 0.348248 0.806122
vt 0.576699 0.792002
vt 0.653753 0.802281
vt 0.776512 0.794925
vt 0.776512 0.748700
vt 0.327830 0.829868
vt 0.363063 0.830170
vt 0.327830 0.753980
vt 0.373865 0.753980
vt 0.689281 0.803194
vt 0.351093 0.753886
vt 0.776117 0.771930
vt 0.671321 0.802907
vt 0.345899 0.829874
vt 0.457498 0.727404
vt 0.165986 0.548054
vt 0.260364 0.376248
vt 0.625887 0.695531
vt 0.520555 0.743605
vt 0.734596 0.339638
vt 0.406824 0.703049
vt 0.012950 0.651015
vt 0.277407 0.507014
vt 0.206214 0.619338
vt 0.706517 0.466512
vt 0.399765 0.822801
vt 0.181517 0.620770
vt 0.619265 0.470337
vt 0.422433 0.807343
vt 0.582936 0.466512
vt 0.458892 0.202188
vt 0.422433 0.843958
vt 0.727583 0.468029
vt 0.460639 0.221880
vt 0.402692 0.843997
vt 0.717439 0.778459
vt 0.429089 0.593438
vt 0.518160 0.466685
vt 0.070962 0.817001
vt 0.726094 0.791097
vt 0.457498 0.298878
vt 0.715181 0.783741
vt 0.523936 0.466512
vt 0.458951 0.311476
vt 0.719061 0.788282
vt 0.458165 0.306435
vt 0.058766 0.817583
vt 0.726094 0.778429
vt 0.431598 0.585369
vt 0.599953 0.261833
vt 0.080449 0.668491
vt 0.542336 0.274386
vt 0.076079 0.728305
vt 0.500395 0.287212
vt 0.064936 0.773359
vt 0.389801 0.564275
vt 0.039540 0.774208
vt 0.356388 0.547019
vt 0.031995 0.737396
vt 0.319737 0.531779
vt 0.030523 0.696843
vt 0.505723 0.512116
vt 0.384015 0.580847
vt 0.506522 0.550736
vt 0.346302 0.574833
vt 0.507607 0.604105
vt 0.294291 0.566034
vt 0.610540 0.298468
vt 0.545535 0.300686
vt 0.502363 0.302883
vt 0.504402 0.313331
vt 0.517745 0.511765
vt 0.548610 0.318269
vt 0.527842 0.556627
vt 0.609940 0.323717
vt 0.531284 0.618364
vt 0.660591 0.582499
vt 0.204501 0.743892
vt 0.668589 0.550878
vt 0.206214 0.710848
vt 0.668004 0.517120
vt 0.204545 0.678125
vt 0.623877 0.525891
vt 0.164692 0.675333
vt 0.610236 0.563455
vt 0.167167 0.712219
vt 0.605277 0.597358
vt 0.166352 0.745757
vt 0.511839 0.183186
vt 0.584607 0.521652
vt 0.552303 0.182624
vt 0.569857 0.561129
vt 0.598009 0.178631
vt 0.565182 0.606784
vt 0.592158 0.236754
vt 0.721184 0.600612
vt 0.550092 0.232946
vt 0.722606 0.558204
vt 0.518921 0.225772
vt 0.713819 0.525134
s 0
usemtl Material
f 89/196/1 7/19/1 13/33/1 90/198/1
f 8/22/2 7/19/2 89/196/2 58/145/2 54/138/2 53/134/2
f 6/18/3 56/142/3 57/144/3
f 3/8/4 106/224/4 4/9/4 59/147/4 88/195/4
f 6/17/5 107/226/5 5/14/5 60/148/5 1/1/5 105/222/5 2/4/5 56/143/5
f 61/150/6 13/34/6 16/40/6 62/151/6
f 5/16/7 14/36/7 31/76/7 29/72/7
f 88/195/8 1/3/8 10/26/8 91/200/8
f 67/158/9 21/53/9 20/51/9 65/155/9
f 13/33/10 7/19/10 12/31/10 16/41/10
f 3/8/11 9/25/11 11/28/11 15/38/11
f 55/141/12 3/6/12 15/37/12 63/152/12
f 66/156/13 19/49/13 17/43/13 65/155/13
f 23/57/14 22/55/14 17/42/14 19/50/14
f 83/184/15 82/183/15 25/63/15 26/67/15
f 15/38/16 11/28/16 22/55/16 23/57/16
f 62/151/17 16/40/17 21/53/17 67/158/17
f 69/163/18 26/66/18 25/64/18 68/160/18
f 87/193/19 84/186/19 24/60/19 68/159/19
f 86/190/20 83/184/20 26/67/20 69/161/20
f 84/187/21 85/189/21 27/68/21 24/61/21
f 70/164/22 29/73/22 31/77/22 71/165/22
f 70/164/23 28/71/23 34/83/23 73/167/23
f 10/26/24 1/3/24 28/70/24 30/74/24
f 64/154/25 10/27/25 30/75/25 71/165/25
f 34/82/26 32/78/26 36/86/26 38/90/26
f 60/149/27 5/15/27 33/81/27 72/166/27
f 5/16/28 29/72/28 35/84/28 33/80/28
f 28/70/29 1/3/29 32/78/29 34/82/29
f 37/88/30 39/92/30 43/103/30 41/97/30
f 73/167/31 34/83/31 38/91/31 75/169/31
f 33/80/32 35/84/32 39/92/32 37/88/32
f 72/166/33 33/81/33 37/89/33 74/168/33
f 76/171/34 41/98/34 43/104/34 77/173/34
f 74/168/35 37/89/35 41/99/35 76/170/35
f 38/90/36 36/86/36 40/94/36 42/100/36
f 75/169/37 38/91/37 42/101/37 77/172/37
f 102/219/38 97/211/38 51/127/38 81/180/38
f 91/199/39 10/27/39 45/109/39 93/203/39
f 90/197/40 13/34/40 46/112/40 92/201/40
f 61/150/41 9/24/41 44/106/41 78/174/41
f 64/154/42 14/35/42 47/115/42 79/176/42
f 96/209/43 94/206/43 50/124/43 80/179/43
f 101/218/44 99/215/44 48/118/44 80/178/44
f 104/221/45 98/213/45 49/121/45 95/208/45
f 103/220/46 100/217/46 50/125/46 94/205/46
f 8/23/47 53/135/47 52/131/47
f 8/23/48 52/131/48 4/10/48 106/225/48 3/7/48 55/140/48 7/20/48
f 54/138/49 58/145/49 89/196/49 5/16/49 107/227/49 6/18/49 57/144/49
f 100/216/50 101/218/50 80/178/50 50/126/50
f 95/207/51 96/209/51 80/179/51 48/119/51
f 10/27/52 64/154/52 79/176/52 45/109/52
f 13/34/53 61/150/53 78/174/53 46/112/53
f 98/212/54 102/219/54 81/180/54 49/122/54
f 39/93/55 75/169/55 77/172/55 43/105/55
f 36/87/56 74/168/56 76/170/56 40/95/56
f 40/96/57 76/171/57 77/173/57 42/102/57
f 32/79/58 72/166/58 74/168/58 36/87/58
f 35/85/59 73/167/59 75/169/59 39/93/59
f 1/2/60 60/149/60 72/166/60 32/79/60
f 14/35/61 64/154/61 71/165/61 31/77/61
f 29/73/62 70/164/62 73/167/62 35/85/62
f 28/71/63 70/164/63 71/165/63 30/75/63
f 85/189/64 86/191/64 69/162/64 27/68/64
f 82/182/65 87/193/65 68/159/65 25/65/65
f 27/69/66 69/163/66 68/160/66 24/62/66
f 11/29/67 62/151/67 67/158/67 22/56/67
f 18/44/68 66/156/68 65/155/68 20/51/68
f 7/21/69 55/141/69 63/152/69 12/30/69
f 22/56/70 67/158/70 65/155/70 17/43/70
f 9/24/71 61/150/71 62/151/71 11/29/71
f 19/49/72 66/156/72 87/193/72 82/182/72
f 12/31/73 18/45/73 20/52/73 21/54/73 16/41/73
f 66/157/74 18/48/74 84/187/74 87/194/74
f 23/57/75 19/50/75 82/183/75 83/184/75
f 49/123/76 81/181/76 96/209/76 95/207/76
f 97/210/77 103/220/77 94/205/77 51/128/77
f 99/214/78 104/221/78 95/208/78 48/120/78
f 81/181/79 51/129/79 94/206/79 96/209/79
f 14/35/80 90/197/80 92/201/80 47/115/80
f 9/24/81 91/199/81 93/203/81 44/106/81
f 3/8/82 88/195/82 91/200/82 9/25/82
f 5/16/83 89/196/83 90/198/83 14/36/83
f 44/107/84 93/204/84 104/221/84 99/214/84
f 47/116/85 92/202/85 103/220/85 97/210/85
f 45/110/86 79/177/86 102/219/86 98/212/86
f 46/113/87 78/175/87 101/218/87 100/216/87
f 92/202/88 46/114/88 100/217/88 103/220/88
f 93/204/89 45/111/89 98/213/89 104/221/89
f 78/175/90 44/108/90 99/215/90 101/218/90
f 79/177/91 47/117/91 97/211/91 102/219/91
f 59/146/92 4/11/92 52/130/92 53/133/92 54/136/92 108/228/92
f 136/291/93 110/234/93 109/231/93 135/289/93
f 121/264/94 120/262/94 114/246/94 117/254/94
f 139/297/95 111/237/95 110/235/95 136/290/95
f 135/288/96 109/232/96 112/240/96 144/307/96
f 144/306/97 112/241/97 111/238/97 139/296/97
f 111/239/98 112/242/98 109/233/98 110/236/98
f 117/255/99 114/247/99 116/252/99 115/249/99 113/243/99
f 124/270/100 121/263/100 117/256/100 113/244/100
f 120/261/101 129/277/101 116/253/101 114/248/101
f 130/279/102 124/269/102 113/245/102 115/250/102
f 129/277/103 130/278/103 115/251/103 116/253/103
f 57/144/104 56/142/104 132/282/104 127/275/104
f 127/275/105 132/282/105 131/280/105 128/276/105
f 128/276/106 131/280/106 130/278/106 129/277/106
f 56/143/107 2/4/107 126/273/107 132/283/107
f 132/283/108 126/273/108 125/271/108 131/281/108
f 131/281/109 125/271/109 124/269/109 130/279/109
f 54/138/110 57/144/110 127/275/110 118/257/110
f 118/257/111 127/275/111 128/276/111 119/259/111
f 119/259/112 128/276/112 129/277/112 120/261/112
f 2/5/113 108/230/113 123/267/113 126/274/113
f 126/274/114 123/267/114 122/265/114 125/272/114
f 125/272/115 122/265/115 121/263/115 124/270/115
f 108/229/116 54/137/116 118/258/116 123/268/116
f 123/268/117 118/258/117 119/260/117 122/266/117
f 122/266/118 119/260/118 120/262/118 121/264/118
f 54/138/119 142/302/119 141/300/119 53/134/119
f 142/302/120 143/304/120 140/298/120 141/300/120
f 143/304/121 144/306/121 139/296/121 140/298/121
f 4/12/122 133/284/122 142/303/122 54/139/122
f 133/284/123 134/286/123 143/305/123 142/303/123
f 134/286/124 135/288/124 144/307/124 143/305/124
f 53/135/125 141/301/125 138/294/125 52/131/125
f 141/301/126 140/299/126 137/292/126 138/294/126
f 140/299/127 139/297/127 136/290/127 137/292/127
f 52/132/128 138/295/128 133/285/128 4/13/128
f 138/295/129 137/293/129 134/287/129 133/285/129
f 137/293/130 136/291/130 135/289/130 134/287/130
f 105/223/131 1/3/131 88/195/131 59/147/131 108/230/131 2/5/131
f 86/192/132 85/188/132 83/185/132
f 83/185/133 85/188/133 18/46/133 23/58/133
f 63/153/134 15/39/134 23/59/134 18/47/134 12/32/134
f 84/187/135 18/48/135 85/189/135
l 52 106
