# Blender 3.3.1
# www.blender.org
mtllib monstruo_3_caminar630.mtl
o monstruo_grande
v 0.368346 2.017682 0.243785
v 0.512462 1.189043 0.126662
v -0.725725 1.738761 0.202496
v -0.303531 1.090585 0.194066
v 0.507206 2.310093 -0.102693
v 0.539468 1.598018 -0.220278
v -0.862261 1.968048 -0.200445
v -0.751230 1.699383 -0.275425
v -0.338632 2.376653 0.498074
v 0.219583 2.287837 0.448987
v -0.466962 2.340438 0.599211
v -1.231509 2.004355 -0.022493
v -0.342653 2.551411 0.143088
v 0.206660 2.432714 0.191184
v -1.070914 1.868805 0.122439
v -0.506244 2.620677 0.172810
v -0.809330 2.248993 0.630262
v -1.505992 1.919029 0.265230
v -1.217040 1.957116 0.454798
v -1.011085 2.565558 0.381563
v -0.689245 2.654865 0.250227
v -0.539113 2.295100 0.576138
v -1.201487 1.885916 0.135913
v -1.771925 0.643165 0.924648
v -1.643466 0.621109 0.961827
v -1.640008 0.452770 0.753757
v -1.718415 0.466232 0.731064
v 0.379534 2.208889 0.427455
v 0.465223 2.409707 0.169220
v 0.333498 2.320474 0.442241
v 0.337676 2.458282 0.217434
v 0.622617 1.908069 0.224194
v 0.729269 2.005318 0.045502
v 0.642952 1.986418 0.272303
v 0.714527 2.106493 0.119701
v 0.809122 1.689410 0.168857
v 0.880666 1.724508 0.086100
v 0.894691 1.659668 0.223350
v 0.962654 1.703291 0.140672
v 0.834572 1.538107 0.198698
v 0.979259 1.626848 0.029530
v 0.949125 1.444708 0.329076
v 1.161105 1.576335 0.068274
v -0.175998 2.431509 0.515564
v 0.033886 2.405940 0.496171
v -0.178817 2.535745 0.269333
v 0.023548 2.509772 0.254028
v -0.120100 2.743426 0.662991
v 0.085027 2.679158 0.621713
v -0.134865 2.859122 0.410666
v 0.069357 2.795281 0.368943
v -0.504195 1.140952 -0.023991
v -0.383703 1.198038 -0.227707
v -0.043686 1.280007 -0.334180
v -0.785652 1.787938 -0.011696
v 0.556543 1.184278 -0.109541
v 0.347477 1.182235 -0.252775
v -0.004040 1.528597 -0.320583
v -0.027232 1.141937 0.182772
v 0.416891 2.105260 0.126527
v -0.333590 2.438734 0.373791
v -0.496096 2.591687 0.445180
v -1.008483 1.941747 0.000376
v 0.190918 2.416260 0.351647
v -0.842637 2.476342 0.593549
v -1.391127 2.057254 0.506969
v -0.648171 2.573931 0.442134
v -1.717113 0.629827 0.974406
v -1.667425 0.348165 0.635638
v 0.459521 2.321385 0.326971
v 0.336574 2.434147 0.353127
v 0.632571 1.936429 0.097669
v 0.719741 2.058736 0.226068
v 0.843390 1.709785 0.127284
v 0.928552 1.680693 0.181691
v 0.886580 1.584276 0.098914
v 1.018789 1.515715 0.171772
v -0.177861 2.483250 0.391376
v 0.027271 2.458827 0.374567
v -0.158681 2.802518 0.539346
v 0.108678 2.736152 0.493191
v -1.522609 0.947937 0.909266
v -1.585989 0.776269 0.840761
v -1.744423 0.956367 0.845514
v -1.706899 0.797028 0.805767
v -1.651473 0.622623 0.743335
v -1.652639 0.931044 0.930327
v -0.070084 1.754628 0.519253
v 0.064443 2.139139 -0.185610
v 0.019654 2.515652 0.073887
v -0.018359 2.265913 0.629230
v -0.079565 2.521885 0.260153
v -0.066899 2.418394 0.504906
v -0.035202 2.844319 0.351609
v -0.015372 2.693939 0.680126
v -0.021091 2.819568 0.539295
v 0.060014 2.662291 0.286963
v 0.075054 2.531748 0.575907
v -0.160844 2.580218 0.611736
v -0.177963 2.710737 0.320743
v -0.185704 2.646473 0.467900
v 0.083005 2.596918 0.430092
v -0.060630 2.695128 0.283539
v -0.040912 2.546190 0.613459
v 0.419436 1.702343 -0.002222
v -0.598020 1.457241 0.215661
v 0.533379 1.816726 -0.217223
v 0.155826 1.178781 0.200970
v -0.233535 0.025691 -0.242046
v -0.381453 0.026111 -0.123922
v -0.399893 0.036197 -0.373771
v -0.264345 0.031960 -0.384739
v 0.303168 0.013387 0.324922
v 0.234411 -0.012578 0.248815
v 0.314891 0.004584 0.288056
v 0.285083 -0.005496 0.261515
v 0.243607 0.011127 0.332516
v 0.088506 0.846542 -0.081241
v 0.120879 0.576169 0.079496
v 0.158866 0.296620 0.202859
v 0.191460 0.326860 0.379173
v 0.172689 0.584746 0.377063
v 0.178658 0.859653 0.331189
v 0.313783 0.320106 0.356019
v 0.379086 0.577870 0.336662
v 0.468653 0.911960 0.266852
v 0.344280 0.872647 -0.039284
v 0.299975 0.579010 0.113311
v 0.265600 0.298173 0.223626
v 0.332053 0.306998 0.276531
v 0.412087 0.594393 0.199891
v 0.505381 0.905428 0.079299
v -0.196381 0.804898 0.225773
v -0.174410 0.535298 0.111829
v -0.176993 0.305523 0.039674
v -0.462363 0.306560 0.023708
v -0.463817 0.577622 0.062135
v -0.479623 0.830210 0.093623
v -0.490992 0.392727 -0.229885
v -0.489589 0.668036 -0.193967
v -0.483520 0.901873 -0.175810
v -0.088401 0.852427 -0.198853
v -0.146512 0.645348 -0.236784
v -0.197619 0.432933 -0.250045
vn -0.0937 0.5625 -0.8215
vn -0.0630 0.1156 -0.9913
vn 0.5558 -0.1935 -0.8085
vn -0.2434 -0.3222 0.9149
vn 0.9364 0.0350 0.3492
vn 0.5931 0.7806 0.1972
vn 0.0476 0.9158 -0.3987
vn 0.6087 -0.2306 0.7592
vn -0.0920 0.8997 0.4267
vn -0.1995 0.5662 -0.7997
vn -0.0671 -0.5289 0.8460
vn -0.3935 -0.8632 -0.3164
vn -0.1586 -0.1465 0.9764
vn 0.3697 -0.8642 0.3414
vn 0.9575 -0.2637 0.1167
vn 0.0773 -0.7702 0.6331
vn 0.0963 0.9709 0.2193
vn 0.0623 -0.7677 0.6378
vn -0.6206 0.2424 0.7457
vn 0.9021 0.0345 -0.4301
vn -0.9028 0.0518 -0.4268
vn 0.5780 0.7574 0.3037
vn 0.5570 0.1724 0.8124
vn -0.1635 -0.5539 0.8164
vn -0.1008 0.6004 0.7934
vn -0.4650 -0.5118 0.7224
vn -0.3680 -0.5323 -0.7624
vn 0.7892 0.5784 -0.2062
vn -0.1510 -0.6343 0.7582
vn 0.3847 0.7863 -0.4834
vn 0.4931 0.2104 0.8442
vn 0.7141 0.3632 -0.5984
vn -0.3606 -0.3755 -0.8538
vn -0.0897 -0.7968 -0.5976
vn -0.6197 -0.0973 -0.7788
vn -0.6195 0.1501 0.7705
vn 0.7147 0.4143 0.5635
vn 0.9735 -0.0035 -0.2285
vn 0.3947 0.5512 0.7351
vn 0.1082 0.9941 0.0076
vn -0.3132 0.8649 0.3922
vn 0.3680 0.9005 0.2317
vn 0.0532 0.9667 0.2502
vn -0.9570 0.0982 0.2730
vn 0.3343 -0.3705 0.8666
vn -0.2916 0.5001 -0.8154
vn -0.6554 -0.5315 -0.5366
vn -0.8821 -0.4396 0.1693
vn 0.1309 0.1235 -0.9837
vn -0.9732 0.2298 -0.0106
vn 0.0705 0.8233 0.5632
vn 0.4398 0.7252 0.5297
vn -0.2654 0.8703 0.4150
vn 0.9886 -0.1421 0.0506
vn 0.5213 0.2891 0.8029
vn -0.7919 -0.1994 -0.5772
vn -0.1743 -0.8623 -0.4755
vn -0.7058 -0.6088 -0.3622
vn 0.8044 0.4592 0.3769
vn -0.4857 -0.7384 -0.4677
vn -0.1661 0.9782 0.1246
vn 0.7465 0.5909 0.3058
vn 0.6311 0.3490 0.6928
vn -0.4843 0.2725 -0.8314
vn 0.1580 0.1045 0.9819
vn -0.6181 -0.6509 0.4409
vn -0.2208 0.4206 0.8800
vn -0.6981 0.6132 0.3697
vn -0.3934 -0.8301 -0.3951
vn 0.2752 0.3758 0.8849
vn 0.5766 0.5669 0.5883
vn 0.2990 0.2938 0.9079
vn -0.4958 0.6079 -0.6202
vn -0.8334 0.3884 0.3931
vn 0.9581 -0.2805 0.0576
vn 0.5221 0.6894 0.5022
vn 0.2376 0.4331 -0.8695
vn -0.1939 -0.3115 0.9303
vn 0.5003 0.8538 0.1439
vn 0.3027 0.9528 0.0246
vn -0.0982 0.4980 0.8616
vn -0.4245 -0.1529 0.8924
vn 0.0942 0.7678 -0.6338
vn -0.0888 -0.5841 0.8068
vn 0.0216 0.1668 -0.9858
vn 0.9503 -0.2865 -0.1218
vn -0.9995 -0.0096 -0.0293
vn -0.1762 0.2163 -0.9603
vn 0.0926 -0.6092 0.7876
vn -0.9958 -0.0254 0.0881
vn 0.9496 -0.2398 -0.2020
vn 0.1501 -0.9533 -0.2621
vn 0.1829 -0.5930 0.7842
vn -0.9609 -0.1966 0.1952
vn -0.9604 -0.2763 0.0370
vn 0.9854 -0.0897 -0.1450
vn -0.0964 0.3408 -0.9352
vn -0.0334 -0.9987 -0.0374
vn 0.0729 -0.9616 0.2646
vn 0.1630 -0.1116 0.9803
vn 0.2122 -0.1001 -0.9721
vn 0.9646 -0.0523 0.2585
vn 0.6424 -0.0598 -0.7641
vn 0.5276 -0.5121 -0.6778
vn 0.5875 -0.4404 -0.6789
vn 0.6047 -0.3561 -0.7124
vn 0.9805 -0.0560 0.1885
vn 0.9567 -0.2124 0.1991
vn 0.9511 -0.2145 0.2221
vn 0.1050 -0.5156 -0.8504
vn 0.1815 -0.4805 -0.8580
vn 0.1793 -0.3777 -0.9084
vn 0.1543 0.4036 0.9018
vn 0.1904 0.1543 0.9695
vn 0.1907 0.0236 0.9814
vn -0.9564 -0.0506 0.2877
vn -0.9804 0.0265 0.1952
vn -0.9817 -0.0617 0.1799
vn -0.1600 -0.2171 -0.9629
vn -0.0748 0.1365 -0.9878
vn -0.1009 0.1106 -0.9887
vn 0.9042 0.1708 0.3915
vn 0.9815 -0.1215 0.1477
vn 0.9929 -0.1145 -0.0313
vn -0.9729 0.0581 -0.2239
vn -0.9985 -0.0250 0.0487
vn -0.9948 -0.0139 0.1014
vn -0.5767 0.0763 0.8134
vn -0.3204 -0.2756 0.9063
vn -0.1268 -0.2136 0.9687
vn 0.5423 -0.1619 0.8244
vn 0.3177 0.4075 -0.8562
vn -0.2469 -0.4220 -0.8723
vn -0.2419 -0.7989 -0.5506
vn -0.8670 -0.0816 -0.4916
vt 0.461701 0.809397
vt 0.301930 0.729761
vt 0.094158 0.499911
vt 0.498737 0.648456
vt 0.250869 0.553264
vt 0.714874 0.752530
vt 0.627854 0.740386
vt 0.227533 0.339544
vt 0.300362 0.438253
vt 0.625828 0.633709
vt 0.338991 0.679376
vt 0.653754 0.621457
vt 0.189641 0.785401
vt 0.531284 0.815038
vt 0.232114 0.729761
vt 0.806952 0.326283
vt 0.527824 0.712310
vt 0.703640 0.331352
vt 0.725736 0.123548
vt 0.557184 0.740386
vt 0.714874 0.681901
vt 0.693091 0.138725
vt 0.558638 0.706064
vt 0.944491 0.391302
vt 0.108931 0.369345
vt 0.090202 0.443431
vt 0.952837 0.467016
vt 0.108059 0.346292
vt 0.960024 0.371234
vt 0.653754 0.712739
vt 0.761990 0.055860
vt 0.265996 0.788213
vt 0.829683 0.188590
vt 0.886815 0.394232
vt 0.909606 0.471204
vt 0.826550 0.267021
vt 0.659457 0.749480
vt 0.206417 0.267620
vt 0.238389 0.812575
vt 0.882743 0.373659
vt 0.837846 0.166681
vt 0.102618 0.289588
vt 0.957957 0.321520
vt 0.918648 0.216117
vt 0.803322 0.012950
vt 0.106348 0.638847
vt 0.232551 0.755661
vt 0.798789 0.485160
vt 0.965752 0.239402
vt 0.153968 0.222285
vt 0.894228 0.312474
vt 0.856067 0.102710
vt 0.881967 0.351902
vt 0.842627 0.144082
vt 0.107159 0.331692
vt 0.958812 0.358201
vt 0.199778 0.246429
vt 0.138792 0.619338
vt 0.232114 0.797406
vt 0.967580 0.012950
vt 0.753483 0.682459
vt 0.843831 0.469074
vt 0.256421 0.022764
vt 0.824689 0.472884
vt 0.987050 0.016155
vt 0.832147 0.505580
vt 0.295109 0.018166
vt 0.782932 0.707368
vt 0.843831 0.503254
vt 0.076417 0.467161
vt 0.958695 0.494573
vt 0.833773 0.298242
vt 0.909847 0.503107
vt 0.076958 0.454690
vt 0.951531 0.482650
vt 0.837149 0.281767
vt 0.912926 0.487172
vt 0.064432 0.532285
vt 0.298790 0.687460
vt 0.825577 0.362572
vt 0.264894 0.686125
vt 0.056614 0.518895
vt 0.959622 0.549977
vt 0.837123 0.350740
vt 0.929664 0.555276
vt 0.051257 0.577890
vt 0.291936 0.641182
vt 0.824256 0.407314
vt 0.275162 0.640522
vt 0.035793 0.577862
vt 0.964581 0.612577
vt 0.838997 0.411720
vt 0.948088 0.615681
vt 0.039898 0.592711
vt 0.301778 0.620707
vt 0.403076 0.772170
vt 0.830596 0.428615
vt 0.403076 0.737417
vt 0.267017 0.619338
vt 0.012950 0.593438
vt 0.987050 0.637067
vt 0.428919 0.781443
vt 0.856067 0.440612
vt 0.428919 0.728949
vt 0.935424 0.646785
vt 0.945356 0.412724
vt 0.357115 0.854737
vt 0.331665 0.779032
vt 0.948027 0.441601
vt 0.799629 0.752473
vt 0.327972 0.853161
vt 0.906904 0.416128
vt 0.370069 0.779032
vt 0.684668 0.778429
vt 0.909575 0.445005
vt 0.655249 0.778999
vt 0.799629 0.791035
vt 0.330193 0.729131
vt 0.557184 0.775635
vt 0.363063 0.804932
vt 0.331684 0.807874
vt 0.754247 0.751428
vt 0.586563 0.768755
vt 0.566112 0.815056
vt 0.689281 0.828405
vt 0.370405 0.729131
vt 0.754247 0.791805
vt 0.657717 0.824383
vt 0.595492 0.808176
vt 0.327830 0.637821
vt 0.590400 0.642651
vt 0.164818 0.789976
vt 0.357235 0.619338
vt 0.642851 0.190721
vt 0.562581 0.649581
vt 0.406824 0.626953
vt 0.080449 0.619338
vt 0.646201 0.239681
vt 0.727583 0.656002
vt 0.597847 0.731399
vt 0.712829 0.722239
vt 0.658284 0.323708
vt 0.527919 0.666449
vt 0.661748 0.291537
vt 0.680225 0.245582
vt 0.377645 0.696957
vt 0.285191 0.477898
vt 0.483372 0.812325
vt 0.280072 0.728266
vt 0.924330 0.393087
vt 0.921760 0.373660
vt 0.678504 0.727397
vt 0.268491 0.812575
vt 0.930826 0.465310
vt 0.923786 0.327561
vt 0.941993 0.227167
vt 0.764056 0.466512
vt 0.919524 0.351927
vt 0.977463 0.013354
vt 0.833186 0.466512
vt 0.317617 0.012950
vt 0.798789 0.722800
vt 0.839639 0.522681
vt 0.934403 0.500152
vt 0.932138 0.484309
vt 0.281656 0.689101
vt 0.944784 0.554368
vt 0.283549 0.640852
vt 0.956335 0.614129
vt 0.284323 0.620942
vt 0.399765 0.754789
vt 0.961112 0.640376
vt 0.422297 0.755187
vt 0.926130 0.414426
vt 0.350867 0.779032
vt 0.928801 0.443303
vt 0.799629 0.771754
vt 0.350773 0.728949
vt 0.557184 0.796361
vt 0.753483 0.771844
vt 0.595492 0.787450
vt 0.985581 0.067358
vt 0.238180 0.070710
vt 0.259592 0.052321
vt 0.138792 0.821791
vt 0.953366 0.057503
vt 0.765454 0.639660
vt 0.120235 0.821584
vt 0.772730 0.660154
vt 0.283154 0.037949
vt 0.784440 0.682652
vt 0.128680 0.843910
vt 0.970110 0.058056
vt 0.758353 0.637393
vt 0.180368 0.432154
vt 0.759258 0.257498
vt 0.884976 0.446549
vt 0.828099 0.241547
vt 0.971226 0.428512
vt 0.101516 0.405509
vt 0.908240 0.430567
vt 0.669958 0.778714
vt 0.946692 0.427163
vt 0.342544 0.853949
vt 0.673120 0.826722
vt 0.582140 0.817526
vt 0.570535 0.766286
vt 0.348248 0.806122
vt 0.576699 0.792002
vt 0.653753 0.802281
vt 0.776512 0.794925
vt 0.776512 0.748700
vt 0.327830 0.829868
vt 0.363063 0.830170
vt 0.327830 0.753980
vt 0.373865 0.753980
vt 0.689281 0.803194
vt 0.351093 0.753886
vt 0.776117 0.771930
vt 0.671321 0.802907
vt 0.345899 0.829874
vt 0.457498 0.727404
vt 0.165986 0.548054
vt 0.260364 0.376248
vt 0.625887 0.695531
vt 0.520555 0.743605
vt 0.734596 0.339638
vt 0.406824 0.703049
vt 0.012950 0.651015
vt 0.277407 0.507014
vt 0.206214 0.619338
vt 0.706517 0.466512
vt 0.399765 0.822801
vt 0.181517 0.620770
vt 0.619265 0.470337
vt 0.422433 0.807343
vt 0.582936 0.466512
vt 0.458892 0.202188
vt 0.422433 0.843958
vt 0.727583 0.468029
vt 0.460639 0.221880
vt 0.402692 0.843997
vt 0.717439 0.778459
vt 0.429089 0.593438
vt 0.518160 0.466685
vt 0.070962 0.817001
vt 0.726094 0.791097
vt 0.457498 0.298878
vt 0.715181 0.783741
vt 0.523936 0.466512
vt 0.458951 0.311476
vt 0.719061 0.788282
vt 0.458165 0.306435
vt 0.058766 0.817583
vt 0.726094 0.778429
vt 0.431598 0.585369
vt 0.599953 0.261833
vt 0.080449 0.668491
vt 0.542336 0.274386
vt 0.076079 0.728305
vt 0.500395 0.287212
vt 0.064936 0.773359
vt 0.389801 0.564275
vt 0.039540 0.774208
vt 0.356388 0.547019
vt 0.031995 0.737396
vt 0.319737 0.531779
vt 0.030523 0.696843
vt 0.505723 0.512116
vt 0.384015 0.580847
vt 0.506522 0.550736
vt 0.346302 0.574833
vt 0.507607 0.604105
vt 0.294291 0.566034
vt 0.610540 0.298468
vt 0.545535 0.300686
vt 0.502363 0.302883
vt 0.504402 0.313331
vt 0.517745 0.511765
vt 0.548610 0.318269
vt 0.527842 0.556627
vt 0.609940 0.323717
vt 0.531284 0.618364
vt 0.660591 0.582499
vt 0.204501 0.743892
vt 0.668589 0.550878
vt 0.206214 0.710848
vt 0.668004 0.517120
vt 0.204545 0.678125
vt 0.623877 0.525891
vt 0.164692 0.675333
vt 0.610236 0.563455
vt 0.167167 0.712219
vt 0.605277 0.597358
vt 0.166352 0.745757
vt 0.511839 0.183186
vt 0.584607 0.521652
vt 0.552303 0.182624
vt 0.569857 0.561129
vt 0.598009 0.178631
vt 0.565182 0.606784
vt 0.592158 0.236754
vt 0.721184 0.600612
vt 0.550092 0.232946
vt 0.722606 0.558204
vt 0.518921 0.225772
vt 0.713819 0.525134
s 0
usemtl Material
f 89/196/1 7/19/1 13/33/1 90/198/1
f 8/22/2 7/19/2 89/196/2 58/145/2 54/138/2 53/134/2
f 6/18/3 56/142/3 57/144/3
f 3/8/4 106/224/4 4/9/4 59/147/4 88/195/4
f 6/17/5 107/226/5 5/14/5 60/148/5 1/1/5 105/222/5 2/4/5 56/143/5
f 61/150/6 13/34/6 16/40/6 62/151/6
f 5/16/7 14/36/7 31/76/7 29/72/7
f 88/195/8 1/3/8 10/26/8 91/200/8
f 67/158/9 21/53/9 20/51/9 65/155/9
f 13/33/10 7/19/10 12/31/10 16/41/10
f 3/8/11 9/25/11 11/28/11 15/38/11
f 55/141/12 3/6/12 15/37/12 63/152/12
f 66/156/13 19/49/13 17/43/13 65/155/13
f 23/57/14 22/55/14 17/42/14 19/50/14
f 83/184/15 82/183/15 25/63/15 26/67/15
f 15/38/16 11/28/16 22/55/16 23/57/16
f 62/151/17 16/40/17 21/53/17 67/158/17
f 69/163/18 26/66/18 25/64/18 68/160/18
f 87/193/19 84/186/19 24/60/19 68/159/19
f 86/190/20 83/184/20 26/67/20 69/161/20
f 84/187/21 85/189/21 27/68/21 24/61/21
f 70/164/22 29/73/22 31/77/22 71/165/22
f 70/164/23 28/71/23 34/83/23 73/167/23
f 10/26/24 1/3/24 28/70/24 30/74/24
f 64/154/25 10/27/25 30/75/25 71/165/25
f 34/82/26 32/78/26 36/86/26 38/90/26
f 60/149/27 5/15/27 33/81/27 72/166/27
f 5/16/28 29/72/28 35/84/28 33/80/28
f 28/70/29 1/3/29 32/78/29 34/82/29
f 37/88/30 39/92/30 43/103/30 41/97/30
f 73/167/31 34/83/31 38/91/31 75/169/31
f 33/80/32 35/84/32 39/92/32 37/88/32
f 72/166/33 33/81/33 37/89/33 74/168/33
f 76/171/34 41/98/34 43/104/34 77/173/34
f 74/168/35 37/89/35 41/99/35 76/170/35
f 38/90/36 36/86/36 40/94/36 42/100/36
f 75/169/37 38/91/37 42/101/37 77/172/37
f 102/219/38 97/211/38 51/127/38 81/180/38
f 91/199/39 10/27/39 45/109/39 93/203/39
f 90/197/40 13/34/40 46/112/40 92/201/40
f 61/150/41 9/24/41 44/106/41 78/174/41
f 64/154/42 14/35/42 47/115/42 79/176/42
f 96/209/43 94/206/43 50/124/43 80/179/43
f 101/218/44 99/215/44 48/118/44 80/178/44
f 104/221/45 98/213/45 49/121/45 95/208/45
f 103/220/46 100/217/46 50/125/46 94/205/46
f 8/23/47 53/135/47 52/131/47
f 8/23/48 52/131/48 4/10/48 106/225/48 3/7/48 55/140/48 7/20/48
f 54/138/49 58/145/49 89/196/49 5/16/49 107/227/49 6/18/49 57/144/49
f 100/216/50 101/218/50 80/178/50 50/126/50
f 95/207/51 96/209/51 80/179/51 48/119/51
f 10/27/52 64/154/52 79/176/52 45/109/52
f 13/34/53 61/150/53 78/174/53 46/112/53
f 98/212/54 102/219/54 81/180/54 49/122/54
f 39/93/55 75/169/55 77/172/55 43/105/55
f 36/87/56 74/168/56 76/170/56 40/95/56
f 40/96/57 76/171/57 77/173/57 42/102/57
f 32/79/58 72/166/58 74/168/58 36/87/58
f 35/85/59 73/167/59 75/169/59 39/93/59
f 1/2/60 60/149/60 72/166/60 32/79/60
f 14/35/61 64/154/61 71/165/61 31/77/61
f 29/73/62 70/164/62 73/167/62 35/85/62
f 28/71/63 70/164/63 71/165/63 30/75/63
f 85/189/64 86/191/64 69/162/64 27/68/64
f 82/182/65 87/193/65 68/159/65 25/65/65
f 27/69/66 69/163/66 68/160/66 24/62/66
f 11/29/67 62/151/67 67/158/67 22/56/67
f 18/44/68 66/156/68 65/155/68 20/51/68
f 7/21/69 55/141/69 63/152/69 12/30/69
f 22/56/70 67/158/70 65/155/70 17/43/70
f 9/24/71 61/150/71 62/151/71 11/29/71
f 19/49/72 66/156/72 87/193/72 82/182/72
f 12/31/73 18/45/73 20/52/73 21/54/73 16/41/73
f 66/157/74 18/48/74 84/187/74 87/194/74
f 23/57/75 19/50/75 82/183/75 83/184/75
f 49/123/76 81/181/76 96/209/76 95/207/76
f 97/210/77 103/220/77 94/205/77 51/128/77
f 99/214/78 104/221/78 95/208/78 48/120/78
f 81/181/79 51/129/79 94/206/79 96/209/79
f 14/35/80 90/197/80 92/201/80 47/115/80
f 9/24/81 91/199/81 93/203/81 44/106/81
f 3/8/82 88/195/82 91/200/82 9/25/82
f 5/16/83 89/196/83 90/198/83 14/36/83
f 44/107/84 93/204/84 104/221/84 99/214/84
f 47/116/85 92/202/85 103/220/85 97/210/85
f 45/110/86 79/177/86 102/219/86 98/212/86
f 46/113/87 78/175/87 101/218/87 100/216/87
f 92/202/88 46/114/88 100/217/88 103/220/88
f 93/204/89 45/111/89 98/213/89 104/221/89
f 78/175/90 44/108/90 99/215/90 101/218/90
f 79/177/91 47/117/91 97/211/91 102/219/91
f 59/146/92 4/11/92 52/130/92 53/133/92 54/136/92 108/228/92
f 136/291/93 110/234/93 109/231/93 135/289/93
f 121/264/94 120/262/94 114/246/94 117/254/94
f 139/297/95 111/237/95 110/235/95 136/290/95
f 135/288/96 109/232/96 112/240/96 144/307/96
f 144/306/97 112/241/97 111/238/97 139/296/97
f 111/239/98 112/242/98 109/233/98 110/236/98
f 117/255/99 114/247/99 116/252/99 115/249/99 113/243/99
f 124/270/100 121/263/100 117/256/100 113/244/100
f 120/261/101 129/277/101 116/253/101 114/248/101
f 130/279/102 124/269/102 113/245/102 115/250/102
f 129/277/103 130/278/103 115/251/103 116/253/103
f 57/144/104 56/142/104 132/282/104 127/275/104
f 127/275/105 132/282/105 131/280/105 128/276/105
f 128/276/106 131/280/106 130/278/106 129/277/106
f 56/143/107 2/4/107 126/273/107 132/283/107
f 132/283/108 126/273/108 125/271/108 131/281/108
f 131/281/109 125/271/109 124/269/109 130/279/109
f 54/138/110 57/144/110 127/275/110 118/257/110
f 118/257/111 127/275/111 128/276/111 119/259/111
f 119/259/112 128/276/112 129/277/112 120/261/112
f 2/5/113 108/230/113 123/267/113 126/274/113
f 126/274/114 123/267/114 122/265/114 125/272/114
f 125/272/115 122/265/115 121/263/115 124/270/115
f 108/229/116 54/137/116 118/258/116 123/268/116
f 123/268/117 118/258/117 119/260/117 122/266/117
f 122/266/118 119/260/118 120/262/118 121/264/118
f 54/138/119 142/302/119 141/300/119 53/134/119
f 142/302/120 143/304/120 140/298/120 141/300/120
f 143/304/121 144/306/121 139/296/121 140/298/121
f 4/12/122 133/284/122 142/303/122 54/139/122
f 133/284/123 134/286/123 143/305/123 142/303/123
f 134/286/124 135/288/124 144/307/124 143/305/124
f 53/135/125 141/301/125 138/294/125 52/131/125
f 141/301/126 140/299/126 137/292/126 138/294/126
f 140/299/127 139/297/127 136/290/127 137/292/127
f 52/132/128 138/295/128 133/285/128 4/13/128
f 138/295/129 137/293/129 134/287/129 133/285/129
f 137/293/130 136/291/130 135/289/130 134/287/130
f 105/223/131 1/3/131 88/195/131 59/147/131 108/230/131 2/5/131
f 86/192/132 85/188/132 83/185/132
f 83/185/133 85/188/133 18/46/133 23/58/133
f 63/153/134 15/39/134 23/59/134 18/47/134 12/32/134
f 84/187/135 18/48/135 85/189/135
l 52 106
