# Blender 3.3.1
# www.blender.org
mtllib monstruo_3_caminar532.mtl
o monstruo_grande
v 0.559696 1.925529 0.355012
v 0.527282 1.122136 0.090369
v -0.588682 1.866279 0.162305
v -0.295743 1.190235 0.223655
v 0.840911 2.169974 0.055357
v 0.618566 1.526793 -0.254000
v -0.659781 2.099276 -0.269781
v -0.631070 1.784211 -0.323157
v -0.144495 2.415500 0.469587
v 0.385774 2.235785 0.491836
v -0.288706 2.401759 0.559510
v -0.986440 2.194462 -0.184408
v -0.088553 2.585784 0.120586
v 0.441024 2.362911 0.224246
v -0.869774 2.040469 -0.015142
v -0.238437 2.682305 0.136059
v -0.661063 2.358755 0.524560
v -1.309111 2.125673 0.020495
v -1.064411 2.140011 0.258603
v -0.770400 2.705038 0.258872
v -0.419031 2.746717 0.192679
v -0.372859 2.365593 0.524863
v -0.995581 2.072249 -0.042143
v -1.743441 0.843586 0.570737
v -1.626134 0.816507 0.632996
v -1.581854 0.656960 0.422693
v -1.653455 0.673489 0.384692
v 0.507344 2.138786 0.502820
v 0.699246 2.305448 0.283616
v 0.493978 2.250723 0.502186
v 0.568600 2.368322 0.281326
v 0.785775 1.819073 0.466748
v 0.973962 1.882224 0.351972
v 0.790397 1.902433 0.505027
v 0.929507 1.998754 0.387705
v 0.973006 1.608449 0.598969
v 1.071980 1.634909 0.546935
v 1.017058 1.635988 0.691498
v 1.113996 1.665785 0.636760
v 0.995294 1.501302 0.711119
v 1.196850 1.562859 0.599702
v 1.028355 1.514894 0.904940
v 1.332280 1.606431 0.733099
v 0.024870 2.439803 0.504627
v 0.229765 2.389215 0.498184
v 0.051829 2.541859 0.259293
v 0.250703 2.484690 0.254396
v 0.083234 2.748183 0.645026
v 0.287970 2.675646 0.617946
v 0.087631 2.855430 0.388701
v 0.293222 2.782254 0.361369
v -0.502600 1.208049 0.019492
v -0.393309 1.204430 -0.197097
v -0.043626 1.276250 -0.332643
v -0.631696 1.916638 -0.063399
v 0.539551 1.129017 -0.149678
v 0.319158 1.137845 -0.266318
v 0.050920 1.518407 -0.323221
v -0.024442 1.145994 0.202371
v 0.660578 1.994678 0.261627
v -0.118001 2.474588 0.346849
v -0.258587 2.653430 0.404336
v -0.796046 2.103426 -0.105207
v 0.399155 2.360584 0.384842
v -0.652043 2.587602 0.494850
v -1.232082 2.255000 0.282754
v -0.412297 2.660787 0.386169
v -1.700610 0.826696 0.630220
v -1.585592 0.558160 0.296716
v 0.624156 2.238690 0.434292
v 0.538342 2.355108 0.414412
v 0.861788 1.818676 0.366085
v 0.884748 1.966480 0.491065
v 1.021706 1.622855 0.571766
v 1.065606 1.650610 0.664049
v 1.088078 1.521870 0.635217
v 1.164674 1.541198 0.780983
v 0.037337 2.491124 0.380947
v 0.237929 2.437849 0.375036
v 0.053912 2.804148 0.517446
v 0.321669 2.726773 0.489309
v -1.491093 1.141829 0.622248
v -1.541645 0.974958 0.534052
v -1.694275 1.159380 0.514250
v -1.652058 1.000445 0.475451
v -1.587828 0.827351 0.418007
v -1.622919 1.127621 0.614723
v 0.024416 1.757981 0.508565
v 0.277642 2.098273 -0.194387
v 0.260934 2.488395 0.075881
v 0.124944 2.266249 0.627631
v 0.146081 2.513582 0.255070
v 0.132875 2.415683 0.500614
v 0.191402 2.834921 0.336374
v 0.184984 2.695840 0.669878
v 0.191800 2.816554 0.524858
v 0.286674 2.644307 0.283956
v 0.276826 2.524991 0.576647
v 0.040697 2.585065 0.597175
v 0.049656 2.707622 0.303034
v 0.027544 2.647632 0.450307
v 0.296417 2.584203 0.429628
v 0.167751 2.684415 0.272890
v 0.158413 2.546623 0.606837
v 0.600345 1.599696 0.002953
v -0.538625 1.569188 0.198650
v 0.696776 1.721268 -0.218131
v 0.172874 1.126807 0.211974
v -0.281785 0.233363 -0.368017
v -0.417053 0.167551 -0.252636
v -0.460851 0.298185 -0.463063
v -0.327156 0.307952 -0.486341
v 0.303253 -0.015698 0.068053
v 0.229302 -0.030136 -0.006519
v 0.312398 -0.021078 0.029894
v 0.280711 -0.026961 0.004268
v 0.244229 -0.016183 0.078722
v 0.070927 0.826892 -0.067241
v 0.138618 0.604095 -0.005068
v 0.171352 0.302303 0.006612
v 0.200089 0.272109 0.183717
v 0.185337 0.516607 0.266572
v 0.196660 0.791047 0.314204
v 0.322829 0.270601 0.161874
v 0.393157 0.520066 0.232430
v 0.483870 0.843832 0.239855
v 0.326358 0.832410 -0.051250
v 0.317243 0.592212 0.027521
v 0.277608 0.294674 0.028810
v 0.342858 0.284041 0.082867
v 0.428376 0.577455 0.114244
v 0.500128 0.849352 0.049620
v -0.198606 0.910595 0.329672
v -0.207999 0.605360 0.175842
v -0.227639 0.392619 0.028148
v -0.511622 0.416576 0.015757
v -0.493688 0.675473 0.140252
v -0.488232 0.929866 0.215641
v -0.530388 0.579270 -0.201932
v -0.510892 0.818456 -0.073085
v -0.506395 0.943820 -0.049454
v -0.116616 0.870939 -0.081444
v -0.170019 0.780462 -0.119044
v -0.234421 0.602435 -0.211217
vn 0.0634 0.5747 -0.8159
vn -0.0078 0.0603 -0.9981
vn 0.4353 -0.3083 -0.8458
vn -0.3365 -0.2131 0.9173
vn 0.9176 -0.3209 0.2347
vn 0.6980 0.6676 0.2591
vn 0.2872 0.8644 -0.4126
vn 0.3683 -0.2472 0.8962
vn -0.0448 0.8978 0.4382
vn 0.0442 0.5490 -0.8346
vn -0.3355 -0.4328 0.8368
vn -0.4873 -0.8058 -0.3366
vn -0.3618 -0.1521 0.9197
vn 0.1559 -0.9155 0.3709
vn 0.9065 -0.2943 0.3028
vn -0.1646 -0.7707 0.6155
vn 0.2301 0.9428 0.2411
vn -0.0874 -0.7950 0.6002
vn -0.7586 0.2273 0.6106
vn 0.9730 0.0278 -0.2290
vn -0.7916 0.0945 -0.6037
vn 0.5565 0.7225 0.4102
vn 0.1558 0.2765 0.9483
vn -0.4249 -0.4431 0.7894
vn -0.1441 0.6616 0.7358
vn -0.7770 -0.3071 0.5495
vn -0.0223 -0.6631 -0.7482
vn 0.8326 0.5504 0.0616
vn -0.5027 -0.5160 0.6936
vn 0.5001 0.6202 -0.6044
vn -0.0311 0.5092 0.8601
vn 0.9307 0.2460 -0.2707
vn 0.1094 -0.6308 -0.7682
vn 0.3449 -0.9373 -0.0508
vn -0.0885 -0.6209 -0.7789
vn -0.9549 0.1878 0.2302
vn 0.2288 0.8326 0.5044
vn 0.9875 -0.0370 -0.1534
vn 0.3805 0.4968 0.7800
vn 0.2758 0.9606 0.0345
vn -0.1939 0.9063 0.3754
vn 0.4887 0.8384 0.2415
vn 0.0737 0.9724 0.2212
vn -0.9689 0.1341 0.2079
vn 0.2680 -0.3465 0.8990
vn -0.2238 0.4724 -0.8525
vn -0.8127 -0.4209 -0.4030
vn -0.9560 -0.2038 0.2112
vn 0.1789 0.1704 -0.9690
vn -0.9635 0.2508 -0.0938
vn 0.0674 0.8398 0.5387
vn 0.4854 0.6758 0.5547
vn -0.1509 0.9034 0.4014
vn 0.9787 -0.1640 0.1235
vn -0.0477 0.7475 0.6625
vn -0.3095 -0.6868 -0.6577
vn 0.2200 -0.9752 0.0235
vn -0.4174 -0.7647 -0.4909
vn 0.4850 0.6521 0.5827
vn -0.2659 -0.8065 -0.5281
vn -0.0157 0.9987 0.0490
vn 0.5759 0.6323 0.5182
vn 0.4643 0.2772 0.8412
vn -0.2930 0.3201 -0.9010
vn -0.0509 0.0591 0.9970
vn -0.7087 -0.6516 0.2705
vn -0.2452 0.4557 0.8557
vn -0.6700 0.7004 0.2460
vn -0.4855 -0.7863 -0.3821
vn 0.1458 0.3103 0.9394
vn 0.6047 0.4669 0.6453
vn 0.1402 0.2589 0.9557
vn -0.2879 0.6779 -0.6764
vn -0.8739 0.4203 0.2444
vn 0.9175 -0.3200 0.2362
vn 0.5165 0.6887 0.5089
vn 0.3064 0.3917 -0.8676
vn -0.2583 -0.2720 0.9270
vn 0.5229 0.8394 0.1482
vn 0.4582 0.8877 0.0447
vn -0.0940 0.5390 0.8370
vn -0.5122 -0.0809 0.8550
vn 0.3704 0.7130 -0.5953
vn -0.1749 -0.5577 0.8114
vn 0.0851 0.1269 -0.9883
vn 0.9416 -0.3348 -0.0369
vn -0.9913 0.0092 -0.1311
vn -0.1131 0.1851 -0.9762
vn -0.0025 -0.5688 0.8225
vn -0.9998 0.0152 0.0089
vn 0.9582 -0.2691 -0.0972
vn -0.0243 -0.9883 -0.1508
vn 0.2106 -0.8272 0.5210
vn -0.9706 -0.1882 0.1499
vn -0.9646 -0.2609 -0.0378
vn 0.9821 -0.0487 -0.1819
vn -0.1071 0.6801 -0.7253
vn -0.0305 -0.8516 -0.5233
vn 0.0365 -0.9868 0.1580
vn 0.1653 -0.3162 0.9342
vn 0.2062 0.0754 -0.9756
vn 0.9632 -0.1387 0.2303
vn 0.6355 0.0674 -0.7691
vn 0.4149 -0.5410 -0.7316
vn 0.5253 -0.3054 -0.7942
vn 0.6133 -0.0899 -0.7847
vn 0.9922 -0.1081 0.0627
vn 0.9616 -0.2518 0.1091
vn 0.9412 -0.2995 0.1561
vn -0.0032 -0.5374 -0.8433
vn 0.1028 -0.2778 -0.9551
vn 0.1873 -0.0234 -0.9820
vn 0.2476 0.3607 0.8992
vn 0.2261 -0.1275 0.9657
vn 0.1606 -0.3092 0.9373
vn -0.9382 -0.0033 0.3461
vn -0.9664 -0.1027 0.2358
vn -0.9849 -0.1036 0.1384
vn -0.1965 -0.4628 -0.8644
vn -0.0585 0.2869 -0.9562
vn -0.0649 0.4773 -0.8763
vn 0.9223 0.2037 0.3283
vn 0.9691 -0.2136 0.1237
vn 0.9831 -0.1710 -0.0658
vn -0.9809 0.0622 -0.1842
vn -0.9971 0.0064 0.0758
vn -0.9947 0.0239 0.1000
vn -0.4899 0.3375 0.8038
vn -0.2867 -0.3566 0.8892
vn -0.1526 -0.4848 0.8612
vn 0.4407 -0.3252 0.8367
vn 0.4985 0.4340 -0.7504
vn -0.0818 -0.3924 -0.9162
vn -0.1727 -0.7471 -0.6419
vn -0.7503 -0.0382 -0.6600
vt 0.461701 0.809397
vt 0.301930 0.729761
vt 0.094158 0.499911
vt 0.498737 0.648456
vt 0.250869 0.553264
vt 0.714874 0.752530
vt 0.627854 0.740386
vt 0.227533 0.339544
vt 0.300362 0.438253
vt 0.625828 0.633709
vt 0.338991 0.679376
vt 0.653754 0.621457
vt 0.189641 0.785401
vt 0.531284 0.815038
vt 0.232114 0.729761
vt 0.806952 0.326283
vt 0.527824 0.712310
vt 0.703640 0.331352
vt 0.725736 0.123548
vt 0.557184 0.740386
vt 0.714874 0.681901
vt 0.693091 0.138725
vt 0.558638 0.706064
vt 0.944491 0.391302
vt 0.108931 0.369345
vt 0.090202 0.443431
vt 0.952837 0.467016
vt 0.108059 0.346292
vt 0.960024 0.371234
vt 0.653754 0.712739
vt 0.761990 0.055860
vt 0.265996 0.788213
vt 0.829683 0.188590
vt 0.886815 0.394232
vt 0.909606 0.471204
vt 0.826550 0.267021
vt 0.659457 0.749480
vt 0.206417 0.267620
vt 0.238389 0.812575
vt 0.882743 0.373659
vt 0.837846 0.166681
vt 0.102618 0.289588
vt 0.957957 0.321520
vt 0.918648 0.216117
vt 0.803322 0.012950
vt 0.106348 0.638847
vt 0.232551 0.755661
vt 0.798789 0.485160
vt 0.965752 0.239402
vt 0.153968 0.222285
vt 0.894228 0.312474
vt 0.856067 0.102710
vt 0.881967 0.351902
vt 0.842627 0.144082
vt 0.107159 0.331692
vt 0.958812 0.358201
vt 0.199778 0.246429
vt 0.138792 0.619338
vt 0.232114 0.797406
vt 0.967580 0.012950
vt 0.753483 0.682459
vt 0.843831 0.469074
vt 0.256421 0.022764
vt 0.824689 0.472884
vt 0.987050 0.016155
vt 0.832147 0.505580
vt 0.295109 0.018166
vt 0.782932 0.707368
vt 0.843831 0.503254
vt 0.076417 0.467161
vt 0.958695 0.494573
vt 0.833773 0.298242
vt 0.909847 0.503107
vt 0.076958 0.454690
vt 0.951531 0.482650
vt 0.837149 0.281767
vt 0.912926 0.487172
vt 0.064432 0.532285
vt 0.298790 0.687460
vt 0.825577 0.362572
vt 0.264894 0.686125
vt 0.056614 0.518895
vt 0.959622 0.549977
vt 0.837123 0.350740
vt 0.929664 0.555276
vt 0.051257 0.577890
vt 0.291936 0.641182
vt 0.824256 0.407314
vt 0.275162 0.640522
vt 0.035793 0.577862
vt 0.964581 0.612577
vt 0.838997 0.411720
vt 0.948088 0.615681
vt 0.039898 0.592711
vt 0.301778 0.620707
vt 0.403076 0.772170
vt 0.830596 0.428615
vt 0.403076 0.737417
vt 0.267017 0.619338
vt 0.012950 0.593438
vt 0.987050 0.637067
vt 0.428919 0.781443
vt 0.856067 0.440612
vt 0.428919 0.728949
vt 0.935424 0.646785
vt 0.945356 0.412724
vt 0.357115 0.854737
vt 0.331665 0.779032
vt 0.948027 0.441601
vt 0.799629 0.752473
vt 0.327972 0.853161
vt 0.906904 0.416128
vt 0.370069 0.779032
vt 0.684668 0.778429
vt 0.909575 0.445005
vt 0.655249 0.778999
vt 0.799629 0.791035
vt 0.330193 0.729131
vt 0.557184 0.775635
vt 0.363063 0.804932
vt 0.331684 0.807874
vt 0.754247 0.751428
vt 0.586563 0.768755
vt 0.566112 0.815056
vt 0.689281 0.828405
vt 0.370405 0.729131
vt 0.754247 0.791805
vt 0.657717 0.824383
vt 0.595492 0.808176
vt 0.327830 0.637821
vt 0.590400 0.642651
vt 0.164818 0.789976
vt 0.357235 0.619338
vt 0.642851 0.190721
vt 0.562581 0.649581
vt 0.406824 0.626953
vt 0.080449 0.619338
vt 0.646201 0.239681
vt 0.727583 0.656002
vt 0.597847 0.731399
vt 0.712829 0.722239
vt 0.658284 0.323708
vt 0.527919 0.666449
vt 0.661748 0.291537
vt 0.680225 0.245582
vt 0.377645 0.696957
vt 0.285191 0.477898
vt 0.483372 0.812325
vt 0.280072 0.728266
vt 0.924330 0.393087
vt 0.921760 0.373660
vt 0.678504 0.727397
vt 0.268491 0.812575
vt 0.930826 0.465310
vt 0.923786 0.327561
vt 0.941993 0.227167
vt 0.764056 0.466512
vt 0.919524 0.351927
vt 0.977463 0.013354
vt 0.833186 0.466512
vt 0.317617 0.012950
vt 0.798789 0.722800
vt 0.839639 0.522681
vt 0.934403 0.500152
vt 0.932138 0.484309
vt 0.281656 0.689101
vt 0.944784 0.554368
vt 0.283549 0.640852
vt 0.956335 0.614129
vt 0.284323 0.620942
vt 0.399765 0.754789
vt 0.961112 0.640376
vt 0.422297 0.755187
vt 0.926130 0.414426
vt 0.350867 0.779032
vt 0.928801 0.443303
vt 0.799629 0.771754
vt 0.350773 0.728949
vt 0.557184 0.796361
vt 0.753483 0.771844
vt 0.595492 0.787450
vt 0.985581 0.067358
vt 0.238180 0.070710
vt 0.259592 0.052321
vt 0.138792 0.821791
vt 0.953366 0.057503
vt 0.765454 0.639660
vt 0.120235 0.821584
vt 0.772730 0.660154
vt 0.283154 0.037949
vt 0.784440 0.682652
vt 0.128680 0.843910
vt 0.970110 0.058056
vt 0.758353 0.637393
vt 0.180368 0.432154
vt 0.759258 0.257498
vt 0.884976 0.446549
vt 0.828099 0.241547
vt 0.971226 0.428512
vt 0.101516 0.405509
vt 0.908240 0.430567
vt 0.669958 0.778714
vt 0.946692 0.427163
vt 0.342544 0.853949
vt 0.673120 0.826722
vt 0.582140 0.817526
vt 0.570535 0.766286
vt 0.348248 0.806122
vt 0.576699 0.792002
vt 0.653753 0.802281
vt 0.776512 0.794925
vt 0.776512 0.748700
vt 0.327830 0.829868
vt 0.363063 0.830170
vt 0.327830 0.753980
vt 0.373865 0.753980
vt 0.689281 0.803194
vt 0.351093 0.753886
vt 0.776117 0.771930
vt 0.671321 0.802907
vt 0.345899 0.829874
vt 0.457498 0.727404
vt 0.165986 0.548054
vt 0.260364 0.376248
vt 0.625887 0.695531
vt 0.520555 0.743605
vt 0.734596 0.339638
vt 0.406824 0.703049
vt 0.012950 0.651015
vt 0.277407 0.507014
vt 0.206214 0.619338
vt 0.706517 0.466512
vt 0.399765 0.822801
vt 0.181517 0.620770
vt 0.619265 0.470337
vt 0.422433 0.807343
vt 0.582936 0.466512
vt 0.458892 0.202188
vt 0.422433 0.843958
vt 0.727583 0.468029
vt 0.460639 0.221880
vt 0.402692 0.843997
vt 0.717439 0.778459
vt 0.429089 0.593438
vt 0.518160 0.466685
vt 0.070962 0.817001
vt 0.726094 0.791097
vt 0.457498 0.298878
vt 0.715181 0.783741
vt 0.523936 0.466512
vt 0.458951 0.311476
vt 0.719061 0.788282
vt 0.458165 0.306435
vt 0.058766 0.817583
vt 0.726094 0.778429
vt 0.431598 0.585369
vt 0.599953 0.261833
vt 0.080449 0.668491
vt 0.542336 0.274386
vt 0.076079 0.728305
vt 0.500395 0.287212
vt 0.064936 0.773359
vt 0.389801 0.564275
vt 0.039540 0.774208
vt 0.356388 0.547019
vt 0.031995 0.737396
vt 0.319737 0.531779
vt 0.030523 0.696843
vt 0.505723 0.512116
vt 0.384015 0.580847
vt 0.506522 0.550736
vt 0.346302 0.574833
vt 0.507607 0.604105
vt 0.294291 0.566034
vt 0.610540 0.298468
vt 0.545535 0.300686
vt 0.502363 0.302883
vt 0.504402 0.313331
vt 0.517745 0.511765
vt 0.548610 0.318269
vt 0.527842 0.556627
vt 0.609940 0.323717
vt 0.531284 0.618364
vt 0.660591 0.582499
vt 0.204501 0.743892
vt 0.668589 0.550878
vt 0.206214 0.710848
vt 0.668004 0.517120
vt 0.204545 0.678125
vt 0.623877 0.525891
vt 0.164692 0.675333
vt 0.610236 0.563455
vt 0.167167 0.712219
vt 0.605277 0.597358
vt 0.166352 0.745757
vt 0.511839 0.183186
vt 0.584607 0.521652
vt 0.552303 0.182624
vt 0.569857 0.561129
vt 0.598009 0.178631
vt 0.565182 0.606784
vt 0.592158 0.236754
vt 0.721184 0.600612
vt 0.550092 0.232946
vt 0.722606 0.558204
vt 0.518921 0.225772
vt 0.713819 0.525134
s 0
usemtl Material
f 89/196/1 7/19/1 13/33/1 90/198/1
f 8/22/2 7/19/2 89/196/2 58/145/2 54/138/2 53/134/2
f 6/18/3 56/142/3 57/144/3
f 3/8/4 106/224/4 4/9/4 59/147/4 88/195/4
f 6/17/5 107/226/5 5/14/5 60/148/5 1/1/5 105/222/5 2/4/5 56/143/5
f 61/150/6 13/34/6 16/40/6 62/151/6
f 5/16/7 14/36/7 31/76/7 29/72/7
f 88/195/8 1/3/8 10/26/8 91/200/8
f 67/158/9 21/53/9 20/51/9 65/155/9
f 13/33/10 7/19/10 12/31/10 16/41/10
f 3/8/11 9/25/11 11/28/11 15/38/11
f 55/141/12 3/6/12 15/37/12 63/152/12
f 66/156/13 19/49/13 17/43/13 65/155/13
f 23/57/14 22/55/14 17/42/14 19/50/14
f 83/184/15 82/183/15 25/63/15 26/67/15
f 15/38/16 11/28/16 22/55/16 23/57/16
f 62/151/17 16/40/17 21/53/17 67/158/17
f 69/163/18 26/66/18 25/64/18 68/160/18
f 87/193/19 84/186/19 24/60/19 68/159/19
f 86/190/20 83/184/20 26/67/20 69/161/20
f 84/187/21 85/189/21 27/68/21 24/61/21
f 70/164/22 29/73/22 31/77/22 71/165/22
f 70/164/23 28/71/23 34/83/23 73/167/23
f 10/26/24 1/3/24 28/70/24 30/74/24
f 64/154/25 10/27/25 30/75/25 71/165/25
f 34/82/26 32/78/26 36/86/26 38/90/26
f 60/149/27 5/15/27 33/81/27 72/166/27
f 5/16/28 29/72/28 35/84/28 33/80/28
f 28/70/29 1/3/29 32/78/29 34/82/29
f 37/88/30 39/92/30 43/103/30 41/97/30
f 73/167/31 34/83/31 38/91/31 75/169/31
f 33/80/32 35/84/32 39/92/32 37/88/32
f 72/166/33 33/81/33 37/89/33 74/168/33
f 76/171/34 41/98/34 43/104/34 77/173/34
f 74/168/35 37/89/35 41/99/35 76/170/35
f 38/90/36 36/86/36 40/94/36 42/100/36
f 75/169/37 38/91/37 42/101/37 77/172/37
f 102/219/38 97/211/38 51/127/38 81/180/38
f 91/199/39 10/27/39 45/109/39 93/203/39
f 90/197/40 13/34/40 46/112/40 92/201/40
f 61/150/41 9/24/41 44/106/41 78/174/41
f 64/154/42 14/35/42 47/115/42 79/176/42
f 96/209/43 94/206/43 50/124/43 80/179/43
f 101/218/44 99/215/44 48/118/44 80/178/44
f 104/221/45 98/213/45 49/121/45 95/208/45
f 103/220/46 100/217/46 50/125/46 94/205/46
f 8/23/47 53/135/47 52/131/47
f 8/23/48 52/131/48 4/10/48 106/225/48 3/7/48 55/140/48 7/20/48
f 54/138/49 58/145/49 89/196/49 5/16/49 107/227/49 6/18/49 57/144/49
f 100/216/50 101/218/50 80/178/50 50/126/50
f 95/207/51 96/209/51 80/179/51 48/119/51
f 10/27/52 64/154/52 79/176/52 45/109/52
f 13/34/53 61/150/53 78/174/53 46/112/53
f 98/212/54 102/219/54 81/180/54 49/122/54
f 39/93/55 75/169/55 77/172/55 43/105/55
f 36/87/56 74/168/56 76/170/56 40/95/56
f 40/96/57 76/171/57 77/173/57 42/102/57
f 32/79/58 72/166/58 74/168/58 36/87/58
f 35/85/59 73/167/59 75/169/59 39/93/59
f 1/2/60 60/149/60 72/166/60 32/79/60
f 14/35/61 64/154/61 71/165/61 31/77/61
f 29/73/62 70/164/62 73/167/62 35/85/62
f 28/71/63 70/164/63 71/165/63 30/75/63
f 85/189/64 86/191/64 69/162/64 27/68/64
f 82/182/65 87/193/65 68/159/65 25/65/65
f 27/69/66 69/163/66 68/160/66 24/62/66
f 11/29/67 62/151/67 67/158/67 22/56/67
f 18/44/68 66/156/68 65/155/68 20/51/68
f 7/21/69 55/141/69 63/152/69 12/30/69
f 22/56/70 67/158/70 65/155/70 17/43/70
f 9/24/71 61/150/71 62/151/71 11/29/71
f 19/49/72 66/156/72 87/193/72 82/182/72
f 12/31/73 18/45/73 20/52/73 21/54/73 16/41/73
f 66/157/74 18/48/74 84/187/74 87/194/74
f 23/57/75 19/50/75 82/183/75 83/184/75
f 49/123/76 81/181/76 96/209/76 95/207/76
f 97/210/77 103/220/77 94/205/77 51/128/77
f 99/214/78 104/221/78 95/208/78 48/120/78
f 81/181/79 51/129/79 94/206/79 96/209/79
f 14/35/80 90/197/80 92/201/80 47/115/80
f 9/24/81 91/199/81 93/203/81 44/106/81
f 3/8/82 88/195/82 91/200/82 9/25/82
f 5/16/83 89/196/83 90/198/83 14/36/83
f 44/107/84 93/204/84 104/221/84 99/214/84
f 47/116/85 92/202/85 103/220/85 97/210/85
f 45/110/86 79/177/86 102/219/86 98/212/86
f 46/113/87 78/175/87 101/218/87 100/216/87
f 92/202/88 46/114/88 100/217/88 103/220/88
f 93/204/89 45/111/89 98/213/89 104/221/89
f 78/175/90 44/108/90 99/215/90 101/218/90
f 79/177/91 47/117/91 97/211/91 102/219/91
f 59/146/92 4/11/92 52/130/92 53/133/92 54/136/92 108/228/92
f 136/291/93 110/234/93 109/231/93 135/289/93
f 121/264/94 120/262/94 114/246/94 117/254/94
f 139/297/95 111/237/95 110/235/95 136/290/95
f 135/288/96 109/232/96 112/240/96 144/307/96
f 144/306/97 112/241/97 111/238/97 139/296/97
f 111/239/98 112/242/98 109/233/98 110/236/98
f 117/255/99 114/247/99 116/252/99 115/249/99 113/243/99
f 124/270/100 121/263/100 117/256/100 113/244/100
f 120/261/101 129/277/101 116/253/101 114/248/101
f 130/279/102 124/269/102 113/245/102 115/250/102
f 129/277/103 130/278/103 115/251/103 116/253/103
f 57/144/104 56/142/104 132/282/104 127/275/104
f 127/275/105 132/282/105 131/280/105 128/276/105
f 128/276/106 131/280/106 130/278/106 129/277/106
f 56/143/107 2/4/107 126/273/107 132/283/107
f 132/283/108 126/273/108 125/271/108 131/281/108
f 131/281/109 125/271/109 124/269/109 130/279/109
f 54/138/110 57/144/110 127/275/110 118/257/110
f 118/257/111 127/275/111 128/276/111 119/259/111
f 119/259/112 128/276/112 129/277/112 120/261/112
f 2/5/113 108/230/113 123/267/113 126/274/113
f 126/274/114 123/267/114 122/265/114 125/272/114
f 125/272/115 122/265/115 121/263/115 124/270/115
f 108/229/116 54/137/116 118/258/116 123/268/116
f 123/268/117 118/258/117 119/260/117 122/266/117
f 122/266/118 119/260/118 120/262/118 121/264/118
f 54/138/119 142/302/119 141/300/119 53/134/119
f 142/302/120 143/304/120 140/298/120 141/300/120
f 143/304/121 144/306/121 139/296/121 140/298/121
f 4/12/122 133/284/122 142/303/122 54/139/122
f 133/284/123 134/286/123 143/305/123 142/303/123
f 134/286/124 135/288/124 144/307/124 143/305/124
f 53/135/125 141/301/125 138/294/125 52/131/125
f 141/301/126 140/299/126 137/292/126 138/294/126
f 140/299/127 139/297/127 136/290/127 137/292/127
f 52/132/128 138/295/128 133/285/128 4/13/128
f 138/295/129 137/293/129 134/287/129 133/285/129
f 137/293/130 136/291/130 135/289/130 134/287/130
f 105/223/131 1/3/131 88/195/131 59/147/131 108/230/131 2/5/131
f 86/192/132 85/188/132 83/185/132
f 83/185/133 85/188/133 18/46/133 23/58/133
f 63/153/134 15/39/134 23/59/134 18/47/134 12/32/134
f 84/187/135 18/48/135 85/189/135
l 52 106
