# Blender 3.3.1
# www.blender.org
mtllib monstruo_3_grande_caminar549.mtl
o monstruo_grande
v 0.588108 1.917104 0.424737
v 0.524408 1.093246 0.078620
v -0.568875 1.874019 0.147504
v -0.294496 1.222121 0.222971
v 0.909081 2.155090 0.167178
v 0.651417 1.523409 -0.218211
v -0.610283 2.088299 -0.294440
v -0.600698 1.769659 -0.345130
v -0.128937 2.408504 0.469662
v 0.394927 2.232005 0.533035
v -0.278352 2.396798 0.551583
v -0.942493 2.185815 -0.217986
v -0.051765 2.574303 0.122342
v 0.473714 2.349864 0.266061
v -0.836621 2.038972 -0.036424
v -0.200928 2.671807 0.127254
v -0.647781 2.362340 0.501455
v -1.277577 2.129800 -0.024729
v -1.043305 2.144843 0.224032
v -0.737456 2.703734 0.221925
v -0.383060 2.738162 0.171771
v -0.360658 2.362714 0.514384
v -0.961592 2.069246 -0.070378
v -1.774750 0.879114 0.544367
v -1.661643 0.851265 0.613659
v -1.610900 0.683180 0.411629
v -1.679938 0.700179 0.369335
v 0.505887 2.134583 0.552970
v 0.726254 2.298827 0.363259
v 0.498878 2.247642 0.550789
v 0.595344 2.357783 0.336737
v 0.778053 1.855397 0.581504
v 0.990171 1.863567 0.527439
v 0.788594 1.914486 0.608616
v 0.945276 2.000859 0.520286
v 0.850537 1.728878 0.848620
v 0.963592 1.704112 0.824265
v 0.886483 1.784652 0.931698
v 0.994493 1.759306 0.902384
v 0.813674 1.686103 0.994833
v 1.039414 1.634916 0.936292
v 0.818723 1.780466 1.167791
v 1.157764 1.697525 1.075866
v 0.038010 2.431772 0.515486
v 0.242278 2.383148 0.519869
v 0.077808 2.531601 0.270617
v 0.276610 2.474931 0.276638
v 0.093303 2.740932 0.658311
v 0.298612 2.667548 0.638956
v 0.107318 2.847166 0.401867
v 0.313247 2.773329 0.382358
v -0.499181 1.218767 0.023528
v -0.390029 1.195502 -0.191230
v -0.034854 1.281372 -0.332259
v -0.603314 1.918722 -0.083874
v 0.538428 1.145697 -0.157083
v 0.320598 1.174682 -0.273998
v 0.074762 1.519118 -0.315286
v -0.031773 1.128044 0.198922
v 0.705295 1.980461 0.348000
v -0.095016 2.466128 0.348146
v -0.237586 2.646393 0.395429
v -0.759464 2.099093 -0.129978
v 0.417888 2.352978 0.422955
v -0.633165 2.590302 0.466467
v -1.209270 2.264740 0.236993
v -0.389638 2.654787 0.368316
v -1.735561 0.863268 0.606586
v -1.610803 0.580051 0.289114
v 0.628526 2.235538 0.501898
v 0.552391 2.349395 0.465604
v 0.869266 1.815818 0.524802
v 0.881415 1.974794 0.615300
v 0.905082 1.715635 0.834306
v 0.940640 1.771404 0.917015
v 0.918111 1.643502 0.949322
v 0.972655 1.708705 1.091665
v 0.056077 2.481499 0.391712
v 0.256942 2.430340 0.396951
v 0.068844 2.796512 0.529543
v 0.337007 2.718152 0.511459
v -1.517267 1.172392 0.598876
v -1.567756 1.003825 0.513930
v -1.713976 1.191323 0.479762
v -1.674218 1.030037 0.448710
v -1.611899 0.853390 0.400759
v -1.648865 1.161335 0.584863
v 0.027308 1.746491 0.516315
v 0.339493 2.082133 -0.165428
v 0.298724 2.476151 0.099842
v 0.124097 2.265232 0.643839
v 0.171106 2.503748 0.271686
v 0.146372 2.407991 0.516794
v 0.212651 2.826129 0.353378
v 0.193886 2.688316 0.687037
v 0.206418 2.808446 0.541914
v 0.309167 2.635222 0.305514
v 0.287883 2.517226 0.598013
v 0.051610 2.577772 0.609395
v 0.071962 2.698880 0.314958
v 0.043955 2.639701 0.461764
v 0.313099 2.575832 0.451649
v 0.190833 2.675368 0.289595
v 0.168932 2.539000 0.623610
v 0.648456 1.570848 0.098068
v -0.534862 1.586638 0.179951
v 0.751102 1.714339 -0.152657
v 0.165515 1.073829 0.197936
v -0.284021 0.071039 0.098227
v -0.419963 0.090341 0.228832
v -0.461465 0.081204 -0.019030
v -0.328010 0.067869 -0.041908
v 0.315884 -0.073303 -0.043100
v 0.242633 -0.086222 -0.118600
v 0.325339 -0.077292 -0.081357
v 0.293901 -0.082729 -0.107376
v 0.256815 -0.074906 -0.032845
v 0.070086 0.822793 -0.151943
v 0.141844 0.547739 -0.107325
v 0.180126 0.244105 -0.096194
v 0.207046 0.209807 0.080442
v 0.186870 0.451774 0.169363
v 0.192698 0.725036 0.224207
v 0.330073 0.210999 0.060252
v 0.394944 0.458824 0.136090
v 0.480058 0.792021 0.161251
v 0.325781 0.836160 -0.132081
v 0.320231 0.537689 -0.072204
v 0.286200 0.237737 -0.072754
v 0.350906 0.226837 -0.018100
v 0.430473 0.521417 0.015703
v 0.498306 0.834786 -0.026093
v -0.187960 0.967921 0.365186
v -0.192593 0.666083 0.343218
v -0.210533 0.421085 0.335586
v -0.495100 0.434582 0.320699
v -0.480321 0.710134 0.284264
v -0.478726 0.965094 0.248349
v -0.522561 0.455193 0.050994
v -0.505480 0.727871 0.015646
v -0.499098 0.938836 -0.027213
v -0.109110 0.861570 -0.055447
v -0.165075 0.673339 -0.019827
v -0.227573 0.470768 0.021569
vn 0.1123 0.5666 -0.8163
vn 0.0339 0.0573 -0.9978
vn 0.4278 -0.2677 -0.8633
vn -0.3831 -0.2095 0.8996
vn 0.8958 -0.3849 0.2222
vn 0.6865 0.6663 0.2912
vn 0.3293 0.8513 -0.4085
vn 0.2662 -0.2338 0.9351
vn -0.0471 0.9083 0.4157
vn 0.0803 0.5462 -0.8338
vn -0.3617 -0.4360 0.8241
vn -0.4847 -0.8118 -0.3256
vn -0.4060 -0.1193 0.9060
vn 0.1199 -0.9087 0.3999
vn 0.8810 -0.3066 0.3604
vn -0.1983 -0.7605 0.6183
vn 0.2238 0.9442 0.2418
vn -0.1405 -0.7704 0.6218
vn -0.7827 0.2686 0.5615
vn 0.9840 -0.0056 -0.1779
vn -0.7562 0.0932 -0.6477
vn 0.4851 0.7466 0.4552
vn -0.0297 0.3019 0.9529
vn -0.5065 -0.4232 0.7512
vn -0.2114 0.6844 0.6978
vn -0.9468 0.0854 0.3104
vn 0.1271 -0.7266 -0.6752
vn 0.8166 0.5550 0.1587
vn -0.5862 -0.5069 0.6320
vn 0.7875 0.1196 -0.6046
vn -0.2386 0.8307 0.5030
vn 0.9975 0.0696 0.0079
vn 0.1667 -0.9055 -0.3903
vn -0.0187 -0.9062 0.4223
vn -0.1579 -0.8648 -0.4766
vn -0.8411 0.5144 -0.1670
vn 0.4387 0.8801 0.1815
vn 0.9922 -0.0419 -0.1173
vn 0.3155 0.5190 0.7944
vn 0.2748 0.9605 0.0436
vn -0.2103 0.9112 0.3542
vn 0.4677 0.8466 0.2540
vn 0.0692 0.9730 0.2201
vn -0.9750 0.1399 0.1727
vn 0.2339 -0.3445 0.9092
vn -0.1903 0.4706 -0.8616
vn -0.8315 -0.4066 -0.3786
vn -0.9674 -0.1652 0.1920
vn 0.2459 0.2096 -0.9464
vn -0.9581 0.2551 -0.1300
vn 0.0510 0.8416 0.5377
vn 0.4352 0.6953 0.5721
vn -0.1726 0.9079 0.3819
vn 0.9727 -0.1696 0.1583
vn 0.1273 0.9544 0.2698
vn -0.4333 -0.8097 -0.3957
vn -0.1628 -0.8676 0.4698
vn -0.4374 -0.8619 -0.2567
vn 0.3444 0.8109 0.4730
vn -0.1698 -0.8898 -0.4237
vn -0.0218 0.9997 0.0109
vn 0.4640 0.6715 0.5777
vn 0.3614 0.2831 0.8884
vn -0.2367 0.2950 -0.9257
vn -0.1012 0.0961 0.9902
vn -0.7396 -0.6229 0.2548
vn -0.2810 0.4723 0.8355
vn -0.6646 0.7210 0.1960
vn -0.4753 -0.7940 -0.3791
vn 0.1103 0.3295 0.9377
vn 0.5698 0.4705 0.6738
vn 0.1016 0.2869 0.9526
vn -0.2438 0.6654 -0.7056
vn -0.8719 0.4524 0.1877
vn 0.8952 -0.3376 0.2909
vn 0.5002 0.6888 0.5248
vn 0.3400 0.3868 -0.8572
vn -0.2931 -0.2675 0.9179
vn 0.5200 0.8384 0.1636
vn 0.4533 0.8891 0.0628
vn -0.1390 0.5585 0.8178
vn -0.5535 -0.0722 0.8297
vn 0.4312 0.7004 -0.5687
vn -0.2094 -0.5557 0.8046
vn 0.1283 0.1186 -0.9846
vn 0.9391 -0.3437 0.0040
vn -0.9838 0.0086 -0.1791
vn -0.0680 0.1829 -0.9808
vn -0.0363 -0.5655 0.8239
vn -0.9993 0.0209 -0.0297
vn 0.9627 -0.2664 -0.0471
vn -0.0989 -0.9861 -0.1334
vn 0.2105 -0.4185 0.8835
vn -0.9693 -0.2064 0.1337
vn -0.9693 -0.2119 0.1245
vn 0.9749 -0.1661 -0.1480
vn -0.1202 0.1740 -0.9774
vn -0.0911 -0.9945 0.0516
vn 0.0486 -0.9909 0.1254
vn 0.1600 -0.3425 0.9258
vn 0.2158 0.1083 -0.9704
vn 0.9626 -0.1320 0.2366
vn 0.6429 0.1006 -0.7593
vn 0.4393 -0.3680 -0.8195
vn 0.5455 -0.2007 -0.8138
vn 0.6230 -0.0740 -0.7787
vn 0.9916 -0.1199 0.0487
vn 0.9696 -0.2270 0.0917
vn 0.9461 -0.2836 0.1564
vn 0.0627 -0.3666 -0.9283
vn 0.1252 -0.1638 -0.9785
vn 0.2007 -0.0158 -0.9795
vn 0.2492 0.1536 0.9562
vn 0.2111 -0.1589 0.9645
vn 0.1585 -0.3278 0.9314
vn -0.9470 -0.0751 0.3122
vn -0.9695 -0.1206 0.2132
vn -0.9850 -0.1228 0.1210
vn -0.1863 -0.5005 -0.8455
vn -0.1167 -0.1740 -0.9778
vn -0.1091 -0.1406 -0.9840
vn 0.9216 0.2358 0.3083
vn 0.9820 -0.1173 0.1481
vn 0.9842 -0.1769 0.0004
vn -0.9829 0.0326 -0.1813
vn -0.9961 0.0311 0.0829
vn -0.9922 0.0710 0.1020
vn -0.4904 0.4266 0.7599
vn -0.2889 0.0272 0.9570
vn -0.1215 0.0625 0.9906
vn 0.3398 -0.3864 0.8574
vn 0.5487 0.3938 -0.7375
vn -0.0447 -0.4217 -0.9056
vn -0.1531 -0.7725 -0.6163
vn -0.7155 -0.0421 -0.6973
vt 0.882279 0.260085
vt 0.436089 0.649131
vt 0.117664 0.305524
vt 0.860974 0.338762
vt 0.079561 0.383885
vt 0.278417 0.728674
vt 0.111517 0.716819
vt 0.301243 0.337859
vt 0.232943 0.387386
vt 0.111517 0.662267
vt 0.671871 0.687525
vt 0.175114 0.511099
vt 0.930991 0.712692
vt 0.796001 0.259488
vt 0.522181 0.649131
vt 0.719621 0.316178
vt 0.801110 0.310020
vt 0.698705 0.366293
vt 0.510656 0.337024
vt 0.023033 0.717149
vt 0.367094 0.730187
vt 0.507246 0.358198
vt 0.018976 0.695717
vt 0.103380 0.570561
vt 0.268725 0.266033
vt 0.143950 0.273348
vt 0.098384 0.631539
vt 0.301351 0.259488
vt 0.128079 0.559933
vt 0.480438 0.333338
vt 0.348619 0.714075
vt 0.604958 0.268707
vt 0.031105 0.562973
vt 0.043818 0.625810
vt 0.721993 0.282954
vt 0.329365 0.336360
vt 0.302724 0.713315
vt 0.030374 0.549675
vt 0.582817 0.260846
vt 0.875347 0.642471
vt 0.380514 0.272320
vt 0.124895 0.517524
vt 0.813390 0.578569
vt 0.436089 0.332372
vt 0.956124 0.588845
vt 0.367094 0.692599
vt 0.367094 0.522797
vt 0.871643 0.594841
vt 0.398138 0.324445
vt 0.043891 0.509019
vt 0.796001 0.641153
vt 0.491075 0.268473
vt 0.032114 0.534706
vt 0.552485 0.259488
vt 0.331566 0.259909
vt 0.129819 0.544964
vt 0.339759 0.337186
vt 0.913298 0.588845
vt 0.317584 0.707220
vt 0.845734 0.463378
vt 0.311567 0.646434
vt 0.944558 0.353645
vt 0.398138 0.462439
vt 0.920230 0.354337
vt 0.870057 0.463781
vt 0.929709 0.374247
vt 0.357807 0.478584
vt 0.347994 0.663056
vt 0.944558 0.373825
vt 0.097076 0.285727
vt 0.229765 0.651022
vt 0.758050 0.297859
vt 0.168317 0.651042
vt 0.119329 0.272208
vt 0.094178 0.643292
vt 0.222768 0.636959
vt 0.746872 0.283208
vt 0.174541 0.636975
vt 0.045175 0.638147
vt 0.080672 0.327471
vt 0.442544 0.673801
vt 0.734592 0.339187
vt 0.484453 0.673801
vt 0.070725 0.319456
vt 0.218298 0.685110
vt 0.751374 0.331694
vt 0.180611 0.684911
vt 0.062412 0.356092
vt 0.455575 0.702696
vt 0.724658 0.367821
vt 0.476314 0.702696
vt 0.043357 0.357400
vt 0.210236 0.723455
vt 0.742364 0.370210
vt 0.189444 0.723462
vt 0.050281 0.367705
vt 0.444942 0.715336
vt 0.810526 0.722486
vt 0.728448 0.380153
vt 0.853695 0.722486
vt 0.487920 0.715336
vt 0.018975 0.371756
vt 0.232852 0.738567
vt 0.796001 0.739289
vt 0.758050 0.386241
vt 0.861207 0.739289
vt 0.167770 0.738589
vt 0.100634 0.583041
vt 0.712300 0.698974
vt 0.802197 0.701507
vt 0.098640 0.600731
vt 0.972705 0.287497
vt 0.747907 0.696578
vt 0.052045 0.577939
vt 0.849895 0.701507
vt 0.710445 0.675017
vt 0.050052 0.595630
vt 0.746553 0.677603
vt 0.924885 0.287497
vt 0.797725 0.671259
vt 0.981025 0.313792
vt 0.715147 0.730011
vt 0.752543 0.724602
vt 0.973919 0.259495
vt 0.967002 0.332143
vt 0.934252 0.306472
vt 0.715328 0.644023
vt 0.847669 0.671259
vt 0.923848 0.259495
vt 0.753088 0.649631
vt 0.920230 0.324823
vt 0.068284 0.665533
vt 0.630362 0.705721
vt 0.712055 0.621316
vt 0.966165 0.712391
vt 0.519769 0.388732
vt 0.031375 0.663704
vt 0.592215 0.695479
vt 0.581836 0.620019
vt 0.750017 0.621843
vt 0.569690 0.667298
vt 0.581066 0.387596
vt 0.531739 0.516092
vt 0.642835 0.625048
vt 0.273616 0.509019
vt 0.070982 0.710642
vt 0.316851 0.732164
vt 0.684917 0.393810
vt 0.816625 0.338063
vt 0.644803 0.392946
vt 0.602800 0.367236
vt 0.671871 0.661666
vt 0.181146 0.386242
vt 0.855113 0.259897
vt 0.463196 0.649131
vt 0.077903 0.567886
vt 0.078993 0.554271
vt 0.322237 0.720993
vt 0.070972 0.628379
vt 0.834014 0.651825
vt 0.084160 0.512738
vt 0.838315 0.596273
vt 0.320679 0.509019
vt 0.080733 0.539302
vt 0.857365 0.464048
vt 0.931678 0.351118
vt 0.335174 0.488977
vt 0.367094 0.673623
vt 0.939667 0.384854
vt 0.199177 0.651021
vt 0.069465 0.641494
vt 0.198664 0.632807
vt 0.464209 0.672968
vt 0.199604 0.684998
vt 0.465945 0.702696
vt 0.199840 0.723459
vt 0.466714 0.715004
vt 0.832520 0.720483
vt 0.200177 0.738589
vt 0.829423 0.735282
vt 0.076340 0.580490
vt 0.826046 0.701507
vt 0.074346 0.598181
vt 0.948795 0.287497
vt 0.823088 0.670800
vt 0.959731 0.307426
vt 0.948976 0.259488
vt 0.941524 0.331189
vt 0.875347 0.491894
vt 0.391834 0.432095
vt 0.377694 0.448634
vt 0.915590 0.478791
vt 0.834644 0.488373
vt 0.326937 0.619279
vt 0.938593 0.478810
vt 0.335216 0.632947
vt 0.358601 0.463790
vt 0.348787 0.648138
vt 0.927106 0.463378
vt 0.854274 0.489560
vt 0.315804 0.619182
vt 0.212520 0.321385
vt 0.644070 0.318501
vt 0.018976 0.592450
vt 0.663817 0.276029
vt 0.129819 0.597828
vt 0.224108 0.269832
vt 0.051049 0.586785
vt 0.728499 0.676310
vt 0.099637 0.591886
vt 0.730103 0.697776
vt 0.734390 0.646904
vt 0.920230 0.314550
vt 0.981025 0.324065
vt 0.732426 0.727384
vt 0.950683 0.319044
vt 0.753088 0.663662
vt 0.920230 0.273492
vt 0.977552 0.273492
vt 0.752543 0.710647
vt 0.709822 0.714522
vt 0.796001 0.686127
vt 0.853178 0.686127
vt 0.709822 0.659561
vt 0.824792 0.685890
vt 0.948939 0.273488
vt 0.731549 0.661651
vt 0.730449 0.712624
vt 0.878850 0.297575
vt 0.096711 0.342677
vt 0.285581 0.357771
vt 0.108549 0.696221
vt 0.804979 0.293594
vt 0.708839 0.350023
vt 0.668288 0.644023
vt 0.436089 0.526409
vt 0.145034 0.385321
vt 0.919159 0.607821
vt 0.247387 0.613831
vt 0.970304 0.416607
vt 0.947808 0.608020
vt 0.704660 0.516092
vt 0.970304 0.403829
vt 0.750017 0.516884
vt 0.618892 0.516092
vt 0.920230 0.404231
vt 0.273616 0.612878
vt 0.642836 0.516847
vt 0.938584 0.415207
vt 0.924281 0.443436
vt 0.075400 0.489812
vt 0.855524 0.444402
vt 0.531739 0.629156
vt 0.934913 0.435583
vt 0.576828 0.496673
vt 0.931440 0.443424
vt 0.848383 0.444289
vt 0.592622 0.497116
vt 0.934913 0.440184
vt 0.586164 0.496977
vt 0.517161 0.630156
vt 0.920230 0.438606
vt 0.085942 0.490043
vt 0.585376 0.420489
vt 0.510472 0.551446
vt 0.582586 0.444044
vt 0.504260 0.576063
vt 0.581388 0.469636
vt 0.508131 0.602400
vt 0.103684 0.463024
vt 0.477645 0.604263
vt 0.118194 0.440373
vt 0.454885 0.581958
vt 0.129418 0.415411
vt 0.438452 0.557360
vt 0.876897 0.417052
vt 0.081901 0.462161
vt 0.882279 0.393921
vt 0.081653 0.438865
vt 0.880271 0.363315
vt 0.079604 0.408162
vt 0.633117 0.418943
vt 0.615530 0.444447
vt 0.600997 0.469910
vt 0.614559 0.469949
vt 0.862035 0.416811
vt 0.638313 0.444473
vt 0.857648 0.390640
vt 0.666106 0.417503
vt 0.844696 0.362700
vt 0.167770 0.536691
vt 0.914144 0.688660
vt 0.182151 0.561697
vt 0.913298 0.663084
vt 0.189855 0.582503
vt 0.915415 0.641729
vt 0.680787 0.549268
vt 0.966165 0.641681
vt 0.684678 0.573659
vt 0.963812 0.665813
vt 0.684995 0.596421
vt 0.964308 0.688427
vt 0.584794 0.548886
vt 0.729850 0.550060
vt 0.578610 0.572959
vt 0.734888 0.574452
vt 0.569690 0.595426
vt 0.736445 0.597214
vt 0.642060 0.590920
vt 0.247172 0.543053
vt 0.641052 0.570535
vt 0.248998 0.562413
vt 0.635978 0.552556
vt 0.245738 0.579271
s 0
usemtl Material
f 89/203/1 7/19/1 13/32/1 90/205/1
f 8/22/2 7/19/2 89/203/2 58/151/2 54/142/2 53/136/2
f 6/18/3 56/148/3 57/150/3
f 3/8/4 106/231/4 4/9/4 59/153/4 88/202/4
f 6/17/5 107/233/5 5/14/5 60/154/5 1/1/5 105/229/5 2/4/5 56/149/5
f 61/156/6 13/33/6 16/38/6 62/157/6
f 5/16/7 14/35/7 31/77/7 29/72/7
f 88/202/8 1/3/8 10/26/8 91/207/8
f 67/164/9 21/53/9 20/50/9 65/161/9
f 13/32/10 7/19/10 12/30/10 16/39/10
f 3/8/11 9/25/11 11/28/11 15/36/11
f 55/147/12 3/6/12 15/37/12 63/158/12
f 66/162/13 19/48/13 17/40/13 65/160/13
f 23/57/14 22/55/14 17/41/14 19/49/14
f 83/191/15 82/190/15 25/63/15 26/67/15
f 15/36/16 11/28/16 22/55/16 23/57/16
f 62/157/17 16/38/17 21/53/17 67/164/17
f 69/169/18 26/66/18 25/64/18 68/166/18
f 87/200/19 84/193/19 24/60/19 68/165/19
f 86/197/20 83/191/20 26/67/20 69/167/20
f 84/194/21 85/196/21 27/68/21 24/61/21
f 70/170/22 29/73/22 31/78/22 71/172/22
f 70/170/23 28/71/23 34/85/23 73/174/23
f 10/26/24 1/3/24 28/70/24 30/74/24
f 64/159/25 10/27/25 30/75/25 71/171/25
f 34/84/26 32/80/26 36/88/26 38/92/26
f 60/155/27 5/15/27 33/83/27 72/173/27
f 5/16/28 29/72/28 35/86/28 33/82/28
f 28/70/29 1/3/29 32/80/29 34/84/29
f 37/90/30 39/94/30 43/105/30 41/99/30
f 73/174/31 34/85/31 38/93/31 75/176/31
f 33/82/32 35/86/32 39/94/32 37/90/32
f 72/173/33 33/83/33 37/91/33 74/175/33
f 76/178/34 41/100/34 43/106/34 77/180/34
f 74/175/35 37/91/35 41/101/35 76/177/35
f 38/92/36 36/88/36 40/96/36 42/102/36
f 75/176/37 38/93/37 42/103/37 77/179/37
f 102/226/38 97/218/38 51/129/38 81/187/38
f 91/206/39 10/27/39 45/111/39 93/210/39
f 90/204/40 13/33/40 46/114/40 92/208/40
f 61/156/41 9/24/41 44/108/41 78/181/41
f 64/159/42 14/34/42 47/117/42 79/183/42
f 96/216/43 94/213/43 50/126/43 80/186/43
f 101/225/44 99/222/44 48/120/44 80/185/44
f 104/228/45 98/220/45 49/123/45 95/215/45
f 103/227/46 100/224/46 50/127/46 94/212/46
f 8/23/47 53/137/47 52/132/47
f 8/23/48 52/132/48 4/10/48 106/232/48 3/7/48 55/146/48 7/20/48
f 54/142/49 58/151/49 89/203/49 5/16/49 107/234/49 6/18/49 57/150/49
f 100/223/50 101/225/50 80/185/50 50/128/50
f 95/214/51 96/216/51 80/186/51 48/121/51
f 10/27/52 64/159/52 79/183/52 45/111/52
f 13/33/53 61/156/53 78/181/53 46/114/53
f 98/219/54 102/226/54 81/187/54 49/124/54
f 39/95/55 75/176/55 77/179/55 43/107/55
f 36/89/56 74/175/56 76/177/56 40/97/56
f 40/98/57 76/178/57 77/180/57 42/104/57
f 32/81/58 72/173/58 74/175/58 36/89/58
f 35/87/59 73/174/59 75/176/59 39/95/59
f 1/2/60 60/155/60 72/173/60 32/81/60
f 14/34/61 64/159/61 71/171/61 31/79/61
f 29/73/62 70/170/62 73/174/62 35/87/62
f 28/71/63 70/170/63 71/172/63 30/76/63
f 85/196/64 86/198/64 69/168/64 27/68/64
f 82/189/65 87/200/65 68/165/65 25/65/65
f 27/69/66 69/169/66 68/166/66 24/62/66
f 11/29/67 62/157/67 67/164/67 22/56/67
f 18/43/68 66/162/68 65/160/68 20/51/68
f 7/21/69 55/147/69 63/158/69 12/31/69
f 22/56/70 67/164/70 65/161/70 17/42/70
f 9/24/71 61/156/71 62/157/71 11/29/71
f 19/48/72 66/162/72 87/200/72 82/189/72
f 12/30/73 18/44/73 20/52/73 21/54/73 16/39/73
f 66/163/74 18/47/74 84/194/74 87/201/74
f 23/57/75 19/49/75 82/190/75 83/191/75
f 49/125/76 81/188/76 96/216/76 95/214/76
f 97/217/77 103/227/77 94/212/77 51/130/77
f 99/221/78 104/228/78 95/215/78 48/122/78
f 81/188/79 51/131/79 94/213/79 96/216/79
f 14/34/80 90/204/80 92/208/80 47/117/80
f 9/24/81 91/206/81 93/210/81 44/108/81
f 3/8/82 88/202/82 91/207/82 9/25/82
f 5/16/83 89/203/83 90/205/83 14/35/83
f 44/109/84 93/211/84 104/228/84 99/221/84
f 47/118/85 92/209/85 103/227/85 97/217/85
f 45/112/86 79/184/86 102/226/86 98/219/86
f 46/115/87 78/182/87 101/225/87 100/223/87
f 92/209/88 46/116/88 100/224/88 103/227/88
f 93/211/89 45/113/89 98/220/89 104/228/89
f 78/182/90 44/110/90 99/222/90 101/225/90
f 79/184/91 47/119/91 97/218/91 102/226/91
f 59/152/92 4/11/92 52/133/92 53/138/92 54/141/92 108/235/92
f 136/298/93 110/241/93 109/238/93 135/296/93
f 121/271/94 120/269/94 114/253/94 117/261/94
f 139/304/95 111/244/95 110/242/95 136/297/95
f 135/295/96 109/239/96 112/247/96 144/314/96
f 144/313/97 112/248/97 111/245/97 139/303/97
f 111/246/98 112/249/98 109/240/98 110/243/98
f 117/262/99 114/254/99 116/259/99 115/256/99 113/250/99
f 124/277/100 121/270/100 117/263/100 113/251/100
f 120/268/101 129/284/101 116/260/101 114/255/101
f 130/286/102 124/276/102 113/252/102 115/257/102
f 129/284/103 130/285/103 115/258/103 116/260/103
f 57/150/104 56/148/104 132/289/104 127/282/104
f 127/282/105 132/289/105 131/287/105 128/283/105
f 128/283/106 131/287/106 130/285/106 129/284/106
f 56/149/107 2/4/107 126/280/107 132/290/107
f 132/290/108 126/280/108 125/278/108 131/288/108
f 131/288/109 125/278/109 124/276/109 130/286/109
f 54/142/110 57/150/110 127/282/110 118/264/110
f 118/264/111 127/282/111 128/283/111 119/266/111
f 119/266/112 128/283/112 129/284/112 120/268/112
f 2/5/113 108/237/113 123/274/113 126/281/113
f 126/281/114 123/274/114 122/272/114 125/279/114
f 125/279/115 122/272/115 121/270/115 124/277/115
f 108/236/116 54/143/116 118/265/116 123/275/116
f 123/275/117 118/265/117 119/267/117 122/273/117
f 122/273/118 119/267/118 120/269/118 121/271/118
f 54/144/119 142/309/119 141/307/119 53/139/119
f 142/309/120 143/311/120 140/305/120 141/307/120
f 143/311/121 144/313/121 139/303/121 140/305/121
f 4/12/122 133/291/122 142/310/122 54/145/122
f 133/291/123 134/293/123 143/312/123 142/310/123
f 134/293/124 135/295/124 144/314/124 143/312/124
f 53/140/125 141/308/125 138/301/125 52/134/125
f 141/308/126 140/306/126 137/299/126 138/301/126
f 140/306/127 139/304/127 136/297/127 137/299/127
f 52/135/128 138/302/128 133/292/128 4/13/128
f 138/302/129 137/300/129 134/294/129 133/292/129
f 137/300/130 136/298/130 135/296/130 134/294/130
f 105/230/131 1/3/131 88/202/131 59/153/131 108/237/131 2/5/131
f 86/199/132 85/195/132 83/192/132
f 83/192/133 85/195/133 18/45/133 23/58/133
f 63/158/134 15/37/134 23/59/134 18/46/134 12/31/134
f 84/194/135 18/47/135 85/196/135
l 52 106
