# Blender 3.3.1
# www.blender.org
mtllib monstruo_3_grande_caminar517.mtl
o monstruo_grande
v 0.466749 1.975515 0.266278
v 0.520143 1.154727 0.112315
v -0.665693 1.825898 0.161616
v -0.319415 1.141837 0.202559
v 0.648579 2.249483 -0.077483
v 0.562461 1.568602 -0.235277
v -0.763672 2.063031 -0.253691
v -0.686350 1.765511 -0.324439
v -0.229937 2.405871 0.473689
v 0.317072 2.262761 0.451395
v -0.367034 2.380297 0.567545
v -1.126196 2.144767 -0.112973
v -0.201123 2.582254 0.122956
v 0.331975 2.407086 0.191109
v -0.988795 1.996538 0.035245
v -0.356484 2.668158 0.147411
v -0.726510 2.318220 0.567393
v -1.423239 2.071952 0.147470
v -1.148941 2.090234 0.348742
v -0.877374 2.664420 0.323091
v -0.536776 2.722005 0.219792
v -0.445927 2.338217 0.536244
v -1.117608 2.025256 0.034995
v -1.785715 0.820192 0.816574
v -1.662396 0.796223 0.867450
v -1.647717 0.611366 0.674432
v -1.722987 0.625997 0.643379
v 0.470162 2.172775 0.443035
v 0.588393 2.360420 0.187564
v 0.432786 2.285281 0.451430
v 0.463327 2.419181 0.226007
v 0.718027 1.848993 0.269541
v 0.845360 1.949133 0.104381
v 0.735857 1.932506 0.322440
v 0.826850 2.045908 0.174127
v 0.904102 1.629206 0.213748
v 0.987476 1.667293 0.146504
v 0.979414 1.587699 0.275013
v 1.060544 1.636408 0.208354
v 0.917607 1.474119 0.227279
v 1.089111 1.572481 0.091969
v 1.007698 1.358639 0.359158
v 1.260885 1.505960 0.148275
v -0.063287 2.441098 0.501516
v 0.144964 2.403584 0.487853
v -0.050312 2.547252 0.256330
v 0.148413 2.506396 0.245662
v -0.011952 2.757717 0.637059
v 0.194382 2.692833 0.603470
v -0.021027 2.861909 0.379790
v 0.185510 2.796986 0.346671
v -0.507200 1.182181 -0.025500
v -0.375728 1.209701 -0.228147
v -0.038317 1.275102 -0.333935
v -0.715279 1.876609 -0.059062
v 0.547905 1.150361 -0.124214
v 0.332505 1.150699 -0.254226
v 0.028968 1.521191 -0.326620
v -0.032377 1.146954 0.199255
v 0.530221 2.057033 0.152086
v -0.213284 2.467642 0.350514
v -0.362442 2.635822 0.416453
v -0.915660 2.059416 -0.072486
v 0.306964 2.393290 0.351594
v -0.730477 2.548144 0.543232
v -1.315517 2.202937 0.395086
v -0.515645 2.633035 0.406587
v -1.736398 0.808836 0.872224
v -1.669031 0.498580 0.562760
v 0.563913 2.278545 0.346934
v 0.452483 2.396812 0.362043
v 0.742249 1.881682 0.143237
v 0.820029 2.001675 0.281341
v 0.944859 1.651923 0.180167
v 1.019857 1.611231 0.241328
v 0.985510 1.528243 0.142115
v 1.102476 1.443013 0.223003
v -0.058523 2.493296 0.378090
v 0.144692 2.456020 0.366080
v -0.047921 2.810946 0.510009
v 0.221194 2.743772 0.473463
v -1.522021 1.112620 0.801322
v -1.586815 0.938538 0.740687
v -1.736230 1.124195 0.716562
v -1.702887 0.961098 0.692801
v -1.650195 0.780111 0.649742
v -1.654085 1.102646 0.811131
v -0.022098 1.768156 0.507280
v 0.173294 2.132604 -0.200834
v 0.153498 2.514260 0.067040
v 0.069498 2.266062 0.617690
v 0.045172 2.526059 0.249866
v 0.045967 2.424854 0.494703
v 0.080990 2.845078 0.324588
v 0.092581 2.709658 0.658825
v 0.089552 2.828768 0.512358
v 0.180681 2.659903 0.271881
v 0.186965 2.541381 0.564850
v -0.050210 2.591943 0.592759
v -0.057379 2.711876 0.298202
v -0.071350 2.652198 0.446123
v 0.198753 2.600428 0.417108
v 0.060267 2.693984 0.264564
v 0.069480 2.558625 0.598500
v 0.485006 1.659811 -0.018223
v -0.574874 1.528302 0.193122
v 0.586455 1.778026 -0.228866
v 0.164810 1.157786 0.212296
v -0.247948 0.129972 -0.334928
v -0.402417 0.095814 -0.230627
v -0.406700 0.170284 -0.470317
v -0.270696 0.172840 -0.473132
v 0.307513 -0.002084 0.193419
v 0.235082 -0.020025 0.118298
v 0.317411 -0.008114 0.155497
v 0.286276 -0.015288 0.129542
v 0.248327 -0.003612 0.203316
v 0.076618 0.837335 -0.058250
v 0.130639 0.597583 0.046675
v 0.168869 0.301514 0.108626
v 0.199071 0.298933 0.287961
v 0.180168 0.552870 0.332914
v 0.186590 0.831516 0.338306
v 0.321703 0.296308 0.265619
v 0.387304 0.554109 0.296343
v 0.475434 0.882933 0.267480
v 0.332245 0.850544 -0.030268
v 0.309560 0.593881 0.080720
v 0.275346 0.299110 0.130809
v 0.341065 0.297961 0.185330
v 0.421063 0.593883 0.168820
v 0.500838 0.876984 0.078145
v -0.232234 0.852271 0.272710
v -0.223112 0.562521 0.133573
v -0.229973 0.342644 0.014992
v -0.511328 0.364266 -0.030109
v -0.503288 0.628985 0.061922
v -0.507059 0.882558 0.126458
v -0.505952 0.497486 -0.265797
v -0.497061 0.754130 -0.172048
v -0.494325 0.930569 -0.142272
v -0.102017 0.861245 -0.138725
v -0.153030 0.714779 -0.181583
v -0.210442 0.520988 -0.247112
vn -0.0026 0.5829 -0.8125
vn -0.0095 0.0867 -0.9962
vn 0.5016 -0.2383 -0.8316
vn -0.3164 -0.2499 0.9151
vn 0.9540 -0.1066 0.2802
vn 0.6629 0.7110 0.2346
vn 0.1581 0.8998 -0.4066
vn 0.5220 -0.2664 0.8103
vn -0.0291 0.8876 0.4597
vn -0.0694 0.5832 -0.8094
vn -0.2164 -0.4982 0.8396
vn -0.4706 -0.8229 -0.3184
vn -0.2430 -0.1826 0.9527
vn 0.2342 -0.9141 0.3310
vn 0.9293 -0.2907 0.2277
vn -0.0379 -0.8060 0.5907
vn 0.1916 0.9500 0.2464
vn -0.0327 -0.7146 0.6988
vn -0.6745 0.3271 0.6619
vn 0.9385 -0.0365 -0.3435
vn -0.8566 0.0526 -0.5133
vn 0.6126 0.7195 0.3271
vn 0.4838 0.1797 0.8565
vn -0.2589 -0.5163 0.8163
vn -0.0928 0.6154 0.7827
vn -0.5478 -0.5345 0.6436
vn -0.3051 -0.5460 -0.7803
vn 0.8259 0.5451 -0.1441
vn -0.2542 -0.6007 0.7580
vn 0.4816 0.8126 -0.3281
vn 0.4245 0.1498 0.8930
vn 0.7794 0.3677 -0.5072
vn -0.2690 -0.3216 -0.9079
vn -0.0420 -0.7129 -0.7001
vn -0.5075 0.0344 -0.8610
vn -0.7150 0.0982 0.6922
vn 0.6462 0.2969 0.7031
vn 0.9807 -0.0040 -0.1954
vn 0.4166 0.4927 0.7640
vn 0.2002 0.9787 0.0449
vn -0.2359 0.8898 0.3907
vn 0.4509 0.8590 0.2424
vn 0.0421 0.9770 0.2091
vn -0.9645 0.1021 0.2436
vn 0.3122 -0.3237 0.8932
vn -0.2724 0.4513 -0.8498
vn -0.7030 -0.4833 -0.5217
vn -0.9330 -0.3207 0.1632
vn 0.1506 0.1125 -0.9822
vn -0.9748 0.2158 -0.0574
vn 0.0535 0.8483 0.5269
vn 0.4964 0.6806 0.5388
vn -0.1926 0.8881 0.4173
vn 0.9880 -0.1280 0.0866
vn 0.4149 0.1578 0.8961
vn -0.7104 -0.0765 -0.6996
vn -0.1462 -0.7867 -0.5998
vn -0.6769 -0.5655 -0.4711
vn 0.7773 0.4179 0.4703
vn -0.4730 -0.7165 -0.5127
vn -0.0742 0.9909 0.1119
vn 0.7395 0.5708 0.3568
vn 0.6017 0.3131 0.7348
vn -0.3924 0.2222 -0.8925
vn 0.0717 0.1784 0.9813
vn -0.6858 -0.5876 0.4293
vn -0.2365 0.4192 0.8766
vn -0.6563 0.6755 0.3360
vn -0.4623 -0.7896 -0.4035
vn 0.2471 0.3044 0.9199
vn 0.5985 0.5006 0.6255
vn 0.2723 0.2902 0.9174
vn -0.3878 0.6775 -0.6250
vn -0.8418 0.4268 0.3306
vn 0.9409 -0.3174 0.1186
vn 0.5065 0.7143 0.4829
vn 0.2582 0.3905 -0.8837
vn -0.2129 -0.2690 0.9393
vn 0.4939 0.8611 0.1209
vn 0.3917 0.9187 0.0516
vn -0.0998 0.4966 0.8622
vn -0.4760 -0.1092 0.8726
vn 0.2227 0.7539 -0.6181
vn -0.1155 -0.5514 0.8262
vn 0.0426 0.1200 -0.9919
vn 0.9541 -0.2890 -0.0788
vn -0.9951 -0.0292 -0.0942
vn -0.1522 0.1693 -0.9737
vn 0.0543 -0.5624 0.8251
vn -0.9984 -0.0250 0.0501
vn 0.9593 -0.2389 -0.1506
vn 0.0590 -0.9774 -0.2031
vn 0.1115 -0.7390 0.6644
vn -0.9653 -0.1989 0.1691
vn -0.9595 -0.2574 -0.1146
vn 0.9951 -0.0833 -0.0540
vn -0.0014 0.5375 -0.8433
vn 0.0111 -0.9547 -0.2972
vn 0.0573 -0.9816 0.1819
vn 0.1681 -0.2398 0.9562
vn 0.2072 0.0122 -0.9782
vn 0.9648 -0.1014 0.2426
vn 0.6379 0.0255 -0.7697
vn 0.4666 -0.5521 -0.6910
vn 0.5548 -0.3815 -0.7394
vn 0.6129 -0.2046 -0.7632
vn 0.9885 -0.0841 0.1254
vn 0.9601 -0.2333 0.1544
vn 0.9480 -0.2542 0.1917
vn 0.0442 -0.5554 -0.8304
vn 0.1386 -0.3876 -0.9113
vn 0.1863 -0.1818 -0.9655
vn 0.2049 0.4100 0.8888
vn 0.2111 0.0049 0.9774
vn 0.1730 -0.1595 0.9719
vn -0.9492 -0.0044 0.3146
vn -0.9735 -0.0464 0.2240
vn -0.9826 -0.0972 0.1584
vn -0.1322 -0.3425 -0.9302
vn 0.0239 0.2156 -0.9762
vn 0.0217 0.3305 -0.9436
vn 0.8908 0.1861 0.4145
vn 0.9572 -0.1849 0.2228
vn 0.9830 -0.1758 0.0519
vn -0.9567 0.0809 -0.2797
vn -0.9993 0.0055 -0.0358
vn -0.9994 0.0345 -0.0057
vn -0.5968 0.2041 0.7760
vn -0.3943 -0.3308 0.8574
vn -0.2451 -0.3801 0.8919
vn 0.5188 -0.2172 0.8269
vn 0.4139 0.3230 -0.8511
vn -0.2053 -0.4304 -0.8790
vn -0.2616 -0.7616 -0.5929
vn -0.8102 -0.0810 -0.5806
vt 0.882279 0.260085
vt 0.436089 0.649131
vt 0.117664 0.305524
vt 0.860974 0.338762
vt 0.079561 0.383885
vt 0.278417 0.728674
vt 0.111517 0.716819
vt 0.301243 0.337859
vt 0.232943 0.387386
vt 0.111517 0.662267
vt 0.671871 0.687525
vt 0.175114 0.511099
vt 0.930991 0.712692
vt 0.796001 0.259488
vt 0.522181 0.649131
vt 0.719621 0.316178
vt 0.801110 0.310020
vt 0.698705 0.366293
vt 0.510656 0.337024
vt 0.023033 0.717149
vt 0.367094 0.730187
vt 0.507246 0.358198
vt 0.018976 0.695717
vt 0.103380 0.570561
vt 0.268725 0.266033
vt 0.143950 0.273348
vt 0.098384 0.631539
vt 0.301351 0.259488
vt 0.128079 0.559933
vt 0.480438 0.333338
vt 0.348619 0.714075
vt 0.604958 0.268707
vt 0.031105 0.562973
vt 0.043818 0.625810
vt 0.721993 0.282954
vt 0.329365 0.336360
vt 0.302724 0.713315
vt 0.030374 0.549675
vt 0.582817 0.260846
vt 0.875347 0.642471
vt 0.380514 0.272320
vt 0.124895 0.517524
vt 0.813390 0.578569
vt 0.436089 0.332372
vt 0.956124 0.588845
vt 0.367094 0.692599
vt 0.367094 0.522797
vt 0.871643 0.594841
vt 0.398138 0.324445
vt 0.043891 0.509019
vt 0.796001 0.641153
vt 0.491075 0.268473
vt 0.032114 0.534706
vt 0.552485 0.259488
vt 0.331566 0.259909
vt 0.129819 0.544964
vt 0.339759 0.337186
vt 0.913298 0.588845
vt 0.317584 0.707220
vt 0.845734 0.463378
vt 0.311567 0.646434
vt 0.944558 0.353645
vt 0.398138 0.462439
vt 0.920230 0.354337
vt 0.870057 0.463781
vt 0.929709 0.374247
vt 0.357807 0.478584
vt 0.347994 0.663056
vt 0.944558 0.373825
vt 0.097076 0.285727
vt 0.229765 0.651022
vt 0.758050 0.297859
vt 0.168317 0.651042
vt 0.119329 0.272208
vt 0.094178 0.643292
vt 0.222768 0.636959
vt 0.746872 0.283208
vt 0.174541 0.636975
vt 0.045175 0.638147
vt 0.080672 0.327471
vt 0.442544 0.673801
vt 0.734592 0.339187
vt 0.484453 0.673801
vt 0.070725 0.319456
vt 0.218298 0.685110
vt 0.751374 0.331694
vt 0.180611 0.684911
vt 0.062412 0.356092
vt 0.455575 0.702696
vt 0.724658 0.367821
vt 0.476314 0.702696
vt 0.043357 0.357400
vt 0.210236 0.723455
vt 0.742364 0.370210
vt 0.189444 0.723462
vt 0.050281 0.367705
vt 0.444942 0.715336
vt 0.810526 0.722486
vt 0.728448 0.380153
vt 0.853695 0.722486
vt 0.487920 0.715336
vt 0.018975 0.371756
vt 0.232852 0.738567
vt 0.796001 0.739289
vt 0.758050 0.386241
vt 0.861207 0.739289
vt 0.167770 0.738589
vt 0.100634 0.583041
vt 0.712300 0.698974
vt 0.802197 0.701507
vt 0.098640 0.600731
vt 0.972705 0.287497
vt 0.747907 0.696578
vt 0.052045 0.577939
vt 0.849895 0.701507
vt 0.710445 0.675017
vt 0.050052 0.595630
vt 0.746553 0.677603
vt 0.924885 0.287497
vt 0.797725 0.671259
vt 0.981025 0.313792
vt 0.715147 0.730011
vt 0.752543 0.724602
vt 0.973919 0.259495
vt 0.967002 0.332143
vt 0.934252 0.306472
vt 0.715328 0.644023
vt 0.847669 0.671259
vt 0.923848 0.259495
vt 0.753088 0.649631
vt 0.920230 0.324823
vt 0.068284 0.665533
vt 0.630362 0.705721
vt 0.712055 0.621316
vt 0.966165 0.712391
vt 0.519769 0.388732
vt 0.031375 0.663704
vt 0.592215 0.695479
vt 0.581836 0.620019
vt 0.750017 0.621843
vt 0.569690 0.667298
vt 0.581066 0.387596
vt 0.531739 0.516092
vt 0.642835 0.625048
vt 0.273616 0.509019
vt 0.070982 0.710642
vt 0.316851 0.732164
vt 0.684917 0.393810
vt 0.816625 0.338063
vt 0.644803 0.392946
vt 0.602800 0.367236
vt 0.671871 0.661666
vt 0.181146 0.386242
vt 0.855113 0.259897
vt 0.463196 0.649131
vt 0.077903 0.567886
vt 0.078993 0.554271
vt 0.322237 0.720993
vt 0.070972 0.628379
vt 0.834014 0.651825
vt 0.084160 0.512738
vt 0.838315 0.596273
vt 0.320679 0.509019
vt 0.080733 0.539302
vt 0.857365 0.464048
vt 0.931678 0.351118
vt 0.335174 0.488977
vt 0.367094 0.673623
vt 0.939667 0.384854
vt 0.199177 0.651021
vt 0.069465 0.641494
vt 0.198664 0.632807
vt 0.464209 0.672968
vt 0.199604 0.684998
vt 0.465945 0.702696
vt 0.199840 0.723459
vt 0.466714 0.715004
vt 0.832520 0.720483
vt 0.200177 0.738589
vt 0.829423 0.735282
vt 0.076340 0.580490
vt 0.826046 0.701507
vt 0.074346 0.598181
vt 0.948795 0.287497
vt 0.823088 0.670800
vt 0.959731 0.307426
vt 0.948976 0.259488
vt 0.941524 0.331189
vt 0.875347 0.491894
vt 0.391834 0.432095
vt 0.377694 0.448634
vt 0.915590 0.478791
vt 0.834644 0.488373
vt 0.326937 0.619279
vt 0.938593 0.478810
vt 0.335216 0.632947
vt 0.358601 0.463790
vt 0.348787 0.648138
vt 0.927106 0.463378
vt 0.854274 0.489560
vt 0.315804 0.619182
vt 0.212520 0.321385
vt 0.644070 0.318501
vt 0.018976 0.592450
vt 0.663817 0.276029
vt 0.129819 0.597828
vt 0.224108 0.269832
vt 0.051049 0.586785
vt 0.728499 0.676310
vt 0.099637 0.591886
vt 0.730103 0.697776
vt 0.734390 0.646904
vt 0.920230 0.314550
vt 0.981025 0.324065
vt 0.732426 0.727384
vt 0.950683 0.319044
vt 0.753088 0.663662
vt 0.920230 0.273492
vt 0.977552 0.273492
vt 0.752543 0.710647
vt 0.709822 0.714522
vt 0.796001 0.686127
vt 0.853178 0.686127
vt 0.709822 0.659561
vt 0.824792 0.685890
vt 0.948939 0.273488
vt 0.731549 0.661651
vt 0.730449 0.712624
vt 0.878850 0.297575
vt 0.096711 0.342677
vt 0.285581 0.357771
vt 0.108549 0.696221
vt 0.804979 0.293594
vt 0.708839 0.350023
vt 0.668288 0.644023
vt 0.436089 0.526409
vt 0.145034 0.385321
vt 0.919159 0.607821
vt 0.247387 0.613831
vt 0.970304 0.416607
vt 0.947808 0.608020
vt 0.704660 0.516092
vt 0.970304 0.403829
vt 0.750017 0.516884
vt 0.618892 0.516092
vt 0.920230 0.404231
vt 0.273616 0.612878
vt 0.642836 0.516847
vt 0.938584 0.415207
vt 0.924281 0.443436
vt 0.075400 0.489812
vt 0.855524 0.444402
vt 0.531739 0.629156
vt 0.934913 0.435583
vt 0.576828 0.496673
vt 0.931440 0.443424
vt 0.848383 0.444289
vt 0.592622 0.497116
vt 0.934913 0.440184
vt 0.586164 0.496977
vt 0.517161 0.630156
vt 0.920230 0.438606
vt 0.085942 0.490043
vt 0.585376 0.420489
vt 0.510472 0.551446
vt 0.582586 0.444044
vt 0.504260 0.576063
vt 0.581388 0.469636
vt 0.508131 0.602400
vt 0.103684 0.463024
vt 0.477645 0.604263
vt 0.118194 0.440373
vt 0.454885 0.581958
vt 0.129418 0.415411
vt 0.438452 0.557360
vt 0.876897 0.417052
vt 0.081901 0.462161
vt 0.882279 0.393921
vt 0.081653 0.438865
vt 0.880271 0.363315
vt 0.079604 0.408162
vt 0.633117 0.418943
vt 0.615530 0.444447
vt 0.600997 0.469910
vt 0.614559 0.469949
vt 0.862035 0.416811
vt 0.638313 0.444473
vt 0.857648 0.390640
vt 0.666106 0.417503
vt 0.844696 0.362700
vt 0.167770 0.536691
vt 0.914144 0.688660
vt 0.182151 0.561697
vt 0.913298 0.663084
vt 0.189855 0.582503
vt 0.915415 0.641729
vt 0.680787 0.549268
vt 0.966165 0.641681
vt 0.684678 0.573659
vt 0.963812 0.665813
vt 0.684995 0.596421
vt 0.964308 0.688427
vt 0.584794 0.548886
vt 0.729850 0.550060
vt 0.578610 0.572959
vt 0.734888 0.574452
vt 0.569690 0.595426
vt 0.736445 0.597214
vt 0.642060 0.590920
vt 0.247172 0.543053
vt 0.641052 0.570535
vt 0.248998 0.562413
vt 0.635978 0.552556
vt 0.245738 0.579271
s 0
usemtl Material
f 89/203/1 7/19/1 13/32/1 90/205/1
f 8/22/2 7/19/2 89/203/2 58/151/2 54/142/2 53/136/2
f 6/18/3 56/148/3 57/150/3
f 3/8/4 106/231/4 4/9/4 59/153/4 88/202/4
f 6/17/5 107/233/5 5/14/5 60/154/5 1/1/5 105/229/5 2/4/5 56/149/5
f 61/156/6 13/33/6 16/38/6 62/157/6
f 5/16/7 14/35/7 31/77/7 29/72/7
f 88/202/8 1/3/8 10/26/8 91/207/8
f 67/164/9 21/53/9 20/50/9 65/161/9
f 13/32/10 7/19/10 12/30/10 16/39/10
f 3/8/11 9/25/11 11/28/11 15/36/11
f 55/147/12 3/6/12 15/37/12 63/158/12
f 66/162/13 19/48/13 17/40/13 65/160/13
f 23/57/14 22/55/14 17/41/14 19/49/14
f 83/191/15 82/190/15 25/63/15 26/67/15
f 15/36/16 11/28/16 22/55/16 23/57/16
f 62/157/17 16/38/17 21/53/17 67/164/17
f 69/169/18 26/66/18 25/64/18 68/166/18
f 87/200/19 84/193/19 24/60/19 68/165/19
f 86/197/20 83/191/20 26/67/20 69/167/20
f 84/194/21 85/196/21 27/68/21 24/61/21
f 70/170/22 29/73/22 31/78/22 71/172/22
f 70/170/23 28/71/23 34/85/23 73/174/23
f 10/26/24 1/3/24 28/70/24 30/74/24
f 64/159/25 10/27/25 30/75/25 71/171/25
f 34/84/26 32/80/26 36/88/26 38/92/26
f 60/155/27 5/15/27 33/83/27 72/173/27
f 5/16/28 29/72/28 35/86/28 33/82/28
f 28/70/29 1/3/29 32/80/29 34/84/29
f 37/90/30 39/94/30 43/105/30 41/99/30
f 73/174/31 34/85/31 38/93/31 75/176/31
f 33/82/32 35/86/32 39/94/32 37/90/32
f 72/173/33 33/83/33 37/91/33 74/175/33
f 76/178/34 41/100/34 43/106/34 77/180/34
f 74/175/35 37/91/35 41/101/35 76/177/35
f 38/92/36 36/88/36 40/96/36 42/102/36
f 75/176/37 38/93/37 42/103/37 77/179/37
f 102/226/38 97/218/38 51/129/38 81/187/38
f 91/206/39 10/27/39 45/111/39 93/210/39
f 90/204/40 13/33/40 46/114/40 92/208/40
f 61/156/41 9/24/41 44/108/41 78/181/41
f 64/159/42 14/34/42 47/117/42 79/183/42
f 96/216/43 94/213/43 50/126/43 80/186/43
f 101/225/44 99/222/44 48/120/44 80/185/44
f 104/228/45 98/220/45 49/123/45 95/215/45
f 103/227/46 100/224/46 50/127/46 94/212/46
f 8/23/47 53/137/47 52/132/47
f 8/23/48 52/132/48 4/10/48 106/232/48 3/7/48 55/146/48 7/20/48
f 54/142/49 58/151/49 89/203/49 5/16/49 107/234/49 6/18/49 57/150/49
f 100/223/50 101/225/50 80/185/50 50/128/50
f 95/214/51 96/216/51 80/186/51 48/121/51
f 10/27/52 64/159/52 79/183/52 45/111/52
f 13/33/53 61/156/53 78/181/53 46/114/53
f 98/219/54 102/226/54 81/187/54 49/124/54
f 39/95/55 75/176/55 77/179/55 43/107/55
f 36/89/56 74/175/56 76/177/56 40/97/56
f 40/98/57 76/178/57 77/180/57 42/104/57
f 32/81/58 72/173/58 74/175/58 36/89/58
f 35/87/59 73/174/59 75/176/59 39/95/59
f 1/2/60 60/155/60 72/173/60 32/81/60
f 14/34/61 64/159/61 71/171/61 31/79/61
f 29/73/62 70/170/62 73/174/62 35/87/62
f 28/71/63 70/170/63 71/172/63 30/76/63
f 85/196/64 86/198/64 69/168/64 27/68/64
f 82/189/65 87/200/65 68/165/65 25/65/65
f 27/69/66 69/169/66 68/166/66 24/62/66
f 11/29/67 62/157/67 67/164/67 22/56/67
f 18/43/68 66/162/68 65/160/68 20/51/68
f 7/21/69 55/147/69 63/158/69 12/31/69
f 22/56/70 67/164/70 65/161/70 17/42/70
f 9/24/71 61/156/71 62/157/71 11/29/71
f 19/48/72 66/162/72 87/200/72 82/189/72
f 12/30/73 18/44/73 20/52/73 21/54/73 16/39/73
f 66/163/74 18/47/74 84/194/74 87/201/74
f 23/57/75 19/49/75 82/190/75 83/191/75
f 49/125/76 81/188/76 96/216/76 95/214/76
f 97/217/77 103/227/77 94/212/77 51/130/77
f 99/221/78 104/228/78 95/215/78 48/122/78
f 81/188/79 51/131/79 94/213/79 96/216/79
f 14/34/80 90/204/80 92/208/80 47/117/80
f 9/24/81 91/206/81 93/210/81 44/108/81
f 3/8/82 88/202/82 91/207/82 9/25/82
f 5/16/83 89/203/83 90/205/83 14/35/83
f 44/109/84 93/211/84 104/228/84 99/221/84
f 47/118/85 92/209/85 103/227/85 97/217/85
f 45/112/86 79/184/86 102/226/86 98/219/86
f 46/115/87 78/182/87 101/225/87 100/223/87
f 92/209/88 46/116/88 100/224/88 103/227/88
f 93/211/89 45/113/89 98/220/89 104/228/89
f 78/182/90 44/110/90 99/222/90 101/225/90
f 79/184/91 47/119/91 97/218/91 102/226/91
f 59/152/92 4/11/92 52/133/92 53/138/92 54/141/92 108/235/92
f 136/298/93 110/241/93 109/238/93 135/296/93
f 121/271/94 120/269/94 114/253/94 117/261/94
f 139/304/95 111/244/95 110/242/95 136/297/95
f 135/295/96 109/239/96 112/247/96 144/314/96
f 144/313/97 112/248/97 111/245/97 139/303/97
f 111/246/98 112/249/98 109/240/98 110/243/98
f 117/262/99 114/254/99 116/259/99 115/256/99 113/250/99
f 124/277/100 121/270/100 117/263/100 113/251/100
f 120/268/101 129/284/101 116/260/101 114/255/101
f 130/286/102 124/276/102 113/252/102 115/257/102
f 129/284/103 130/285/103 115/258/103 116/260/103
f 57/150/104 56/148/104 132/289/104 127/282/104
f 127/282/105 132/289/105 131/287/105 128/283/105
f 128/283/106 131/287/106 130/285/106 129/284/106
f 56/149/107 2/4/107 126/280/107 132/290/107
f 132/290/108 126/280/108 125/278/108 131/288/108
f 131/288/109 125/278/109 124/276/109 130/286/109
f 54/142/110 57/150/110 127/282/110 118/264/110
f 118/264/111 127/282/111 128/283/111 119/266/111
f 119/266/112 128/283/112 129/284/112 120/268/112
f 2/5/113 108/237/113 123/274/113 126/281/113
f 126/281/114 123/274/114 122/272/114 125/279/114
f 125/279/115 122/272/115 121/270/115 124/277/115
f 108/236/116 54/143/116 118/265/116 123/275/116
f 123/275/117 118/265/117 119/267/117 122/273/117
f 122/273/118 119/267/118 120/269/118 121/271/118
f 54/144/119 142/309/119 141/307/119 53/139/119
f 142/309/120 143/311/120 140/305/120 141/307/120
f 143/311/121 144/313/121 139/303/121 140/305/121
f 4/12/122 133/291/122 142/310/122 54/145/122
f 133/291/123 134/293/123 143/312/123 142/310/123
f 134/293/124 135/295/124 144/314/124 143/312/124
f 53/140/125 141/308/125 138/301/125 52/134/125
f 141/308/126 140/306/126 137/299/126 138/301/126
f 140/306/127 139/304/127 136/297/127 137/299/127
f 52/135/128 138/302/128 133/292/128 4/13/128
f 138/302/129 137/300/129 134/294/129 133/292/129
f 137/300/130 136/298/130 135/296/130 134/294/130
f 105/230/131 1/3/131 88/202/131 59/153/131 108/237/131 2/5/131
f 86/199/132 85/195/132 83/192/132
f 83/192/133 85/195/133 18/45/133 23/58/133
f 63/158/134 15/37/134 23/59/134 18/46/134 12/31/134
f 84/194/135 18/47/135 85/196/135
l 52 106
