# Blender 3.3.1
# www.blender.org
mtllib monstruo_3_caminar660.mtl
o monstruo_grande
v 0.512485 1.965717 0.348563
v 0.520413 1.118528 0.090209
v -0.629039 1.815110 0.176091
v -0.302354 1.191721 0.228604
v 0.791625 2.244358 0.082536
v 0.618575 1.554559 -0.244543
v -0.725241 2.024209 -0.250477
v -0.665773 1.732965 -0.322785
v -0.222138 2.382065 0.494722
v 0.323944 2.255755 0.512992
v -0.359220 2.352759 0.585353
v -1.075873 2.057802 -0.106236
v -0.189038 2.563821 0.145539
v 0.369512 2.394702 0.250949
v -0.929687 1.929901 0.054572
v -0.351073 2.642046 0.163839
v -0.707943 2.272364 0.579651
v -1.371916 1.959607 0.150611
v -1.103109 2.002234 0.356573
v -0.878065 2.599079 0.320451
v -0.539775 2.683413 0.226796
v -0.430820 2.311581 0.555167
v -1.058807 1.937947 0.048516
v -1.660696 0.693300 0.811942
v -1.537159 0.676919 0.865240
v -1.499331 0.510303 0.659203
v -1.574734 0.520302 0.626671
v 0.446671 2.163386 0.514957
v 0.634991 2.354938 0.316417
v 0.429425 2.278807 0.523711
v 0.496311 2.408766 0.309527
v 0.725521 1.876965 0.455530
v 0.928987 1.920276 0.375463
v 0.737638 1.942178 0.498474
v 0.878367 2.047863 0.400034
v 0.850663 1.677968 0.641310
v 0.961526 1.686504 0.609938
v 0.881207 1.701034 0.740203
v 0.989833 1.713866 0.703989
v 0.834785 1.572171 0.755637
v 1.060795 1.598875 0.683800
v 0.834316 1.586164 0.952229
v 1.174862 1.623026 0.838439
v -0.058028 2.425251 0.527322
v 0.150285 2.391297 0.523136
v -0.036910 2.536154 0.285420
v 0.167904 2.497253 0.282847
v -0.001793 2.725400 0.693138
v 0.203429 2.655555 0.662852
v 0.004879 2.852675 0.445935
v 0.209402 2.783160 0.414676
v -0.508294 1.199904 0.023307
v -0.396199 1.180875 -0.190159
v -0.044050 1.278172 -0.331692
v -0.680941 1.859941 -0.052302
v 0.539083 1.139733 -0.148509
v 0.320898 1.163349 -0.270381
v 0.039090 1.527137 -0.317896
v -0.027039 1.146585 0.200803
v 0.615868 2.044423 0.263196
v -0.203859 2.445807 0.372636
v -0.362113 2.607275 0.434863
v -0.867600 2.009047 -0.062324
v 0.326032 2.383849 0.409660
v -0.729884 2.501231 0.548854
v -1.278977 2.104537 0.395040
v -0.514774 2.598344 0.419638
v -1.612135 0.682162 0.868296
v -1.506544 0.405338 0.538472
v 0.559906 2.272286 0.459038
v 0.465498 2.389387 0.440125
v 0.812777 1.863754 0.373385
v 0.830377 2.006338 0.498146
v 0.905239 1.683569 0.623561
v 0.935604 1.706923 0.722027
v 0.941758 1.575439 0.697853
v 0.993080 1.586728 0.855101
v -0.048518 2.480119 0.404793
v 0.156753 2.445944 0.402208
v -0.029721 2.791311 0.570076
v 0.237875 2.717334 0.538845
v -1.425866 1.009293 0.828814
v -1.471939 0.835356 0.752638
v -1.637774 1.008516 0.737982
v -1.588217 0.850773 0.702472
v -1.517235 0.679516 0.647521
v -1.556597 0.986309 0.833047
v -0.004311 1.749302 0.517661
v 0.236530 2.130017 -0.174666
v 0.178915 2.506412 0.103463
v 0.060404 2.258328 0.647729
v 0.060673 2.516775 0.282201
v 0.050756 2.406713 0.523565
v 0.107976 2.836755 0.392696
v 0.099780 2.671393 0.714973
v 0.108037 2.803291 0.580126
v 0.202394 2.653057 0.325495
v 0.191791 2.511247 0.609300
v -0.044284 2.566572 0.631418
v -0.035775 2.709908 0.345641
v -0.056788 2.639890 0.489174
v 0.212127 2.581981 0.467224
v 0.082933 2.691085 0.315526
v 0.073994 2.527927 0.639796
v 0.599954 1.627672 0.005242
v -0.556935 1.540441 0.196993
v 0.690619 1.764637 -0.207291
v 0.165992 1.127493 0.204390
v -0.292106 0.237149 -0.344294
v -0.431112 0.172719 -0.232643
v -0.467505 0.313017 -0.438389
v -0.333300 0.318039 -0.460188
v 0.253975 -0.021983 0.043076
v 0.183031 -0.035133 -0.034692
v 0.264725 -0.026664 0.005228
v 0.234106 -0.032108 -0.021791
v 0.194480 -0.022686 0.051312
v 0.058943 0.845028 -0.100928
v 0.110336 0.601048 -0.037479
v 0.128387 0.297766 -0.019740
v 0.153561 0.267886 0.157958
v 0.149174 0.513547 0.238539
v 0.172645 0.787589 0.283972
v 0.276354 0.260499 0.137661
v 0.357350 0.506695 0.206211
v 0.463422 0.831903 0.217135
v 0.313368 0.844157 -0.079117
v 0.287777 0.581311 -0.002140
v 0.233907 0.285430 0.003844
v 0.297937 0.272279 0.058799
v 0.396958 0.561919 0.086334
v 0.484933 0.848499 0.027306
v -0.214216 0.921677 0.359281
v -0.225479 0.607631 0.212447
v -0.243485 0.392874 0.061958
v -0.526174 0.421895 0.039936
v -0.508733 0.681693 0.167218
v -0.501460 0.937033 0.239683
v -0.534736 0.586336 -0.177500
v -0.516378 0.823364 -0.044305
v -0.514759 0.933008 -0.023731
v -0.124600 0.855279 -0.043624
v -0.174778 0.779641 -0.077927
v -0.238350 0.604334 -0.176267
vn -0.0012 0.5931 -0.8051
vn -0.0122 0.0842 -0.9964
vn 0.4444 -0.2820 -0.8503
vn -0.3270 -0.2567 0.9095
vn 0.9253 -0.2727 0.2634
vn 0.6196 0.7408 0.2594
vn 0.2249 0.9044 -0.3625
vn 0.4112 -0.2584 0.8741
vn -0.1171 0.8924 0.4357
vn -0.1191 0.6018 -0.7897
vn -0.1643 -0.5439 0.8229
vn -0.3821 -0.8661 -0.3223
vn -0.2560 -0.1749 0.9507
vn 0.3011 -0.8840 0.3577
vn 0.9460 -0.2202 0.2381
vn 0.0270 -0.8077 0.5890
vn 0.1256 0.9615 0.2446
vn 0.0158 -0.7682 0.6400
vn -0.7197 0.2080 0.6624
vn 0.9471 0.0787 -0.3111
vn -0.8428 0.0139 -0.5381
vn 0.4894 0.7376 0.4652
vn 0.1162 0.1793 0.9769
vn -0.4077 -0.5258 0.7466
vn -0.1999 0.6237 0.7556
vn -0.9056 -0.1797 0.3842
vn 0.0452 -0.6050 -0.7950
vn 0.8132 0.5675 0.1291
vn -0.4847 -0.6033 0.6333
vn 0.6929 0.5160 -0.5036
vn -0.1831 0.5919 0.7850
vn 0.9800 0.1891 -0.0627
vn 0.2030 -0.7181 -0.6657
vn 0.1955 -0.9807 0.0078
vn -0.0314 -0.6169 -0.7864
vn -0.9375 0.3440 0.0523
vn 0.2663 0.8004 0.5370
vn 0.9874 -0.0274 -0.1560
vn 0.3199 0.5236 0.7896
vn 0.1660 0.9855 0.0359
vn -0.2910 0.8734 0.3904
vn 0.4052 0.8720 0.2745
vn 0.0689 0.9522 0.2975
vn -0.9700 0.1205 0.2110
vn 0.2618 -0.4223 0.8679
vn -0.2181 0.5470 -0.8083
vn -0.7945 -0.4779 -0.3746
vn -0.9361 -0.2778 0.2158
vn 0.1691 0.2003 -0.9650
vn -0.9618 0.2645 -0.0700
vn 0.0589 0.7943 0.6047
vn 0.4080 0.7001 0.5860
vn -0.2532 0.8721 0.4188
vn 0.9773 -0.1805 0.1113
vn -0.0453 0.7639 0.6437
vn -0.2931 -0.6481 -0.7029
vn 0.0516 -0.9966 0.0638
vn -0.3859 -0.7828 -0.4882
vn 0.4023 0.6634 0.6309
vn -0.2231 -0.7946 -0.5646
vn -0.0992 0.9920 0.0782
vn 0.5362 0.6066 0.5870
vn 0.4401 0.2490 0.8628
vn -0.3862 0.2555 -0.8863
vn 0.0262 0.1051 0.9941
vn -0.6385 -0.6815 0.3577
vn -0.2688 0.4159 0.8688
vn -0.7173 0.6273 0.3033
vn -0.3793 -0.8541 -0.3558
vn 0.1943 0.3371 0.9212
vn 0.5645 0.5210 0.6402
vn 0.2144 0.3347 0.9176
vn -0.4246 0.6323 -0.6480
vn -0.8711 0.3818 0.3088
vn 0.9561 -0.2509 0.1512
vn 0.5091 0.6467 0.5679
vn 0.3123 0.4638 -0.8291
vn -0.2694 -0.3461 0.8987
vn 0.5176 0.8278 0.2164
vn 0.3728 0.9253 0.0701
vn -0.1360 0.5143 0.8467
vn -0.4963 -0.1398 0.8568
vn 0.3066 0.7624 -0.5699
vn -0.1715 -0.6190 0.7664
vn 0.0982 0.2071 -0.9734
vn 0.9445 -0.3233 -0.0579
vn -0.9935 0.0267 -0.1105
vn -0.1011 0.2646 -0.9591
vn 0.0135 -0.6449 0.7641
vn -0.9998 0.0085 0.0154
vn 0.9605 -0.2538 -0.1138
vn -0.0016 -0.9914 -0.1305
vn 0.1795 -0.8394 0.5130
vn -0.9769 -0.1740 0.1242
vn -0.9700 -0.2343 -0.0656
vn 0.9847 -0.0713 -0.1592
vn -0.0713 0.6976 -0.7129
vn -0.0606 -0.8292 -0.5556
vn 0.0314 -0.9894 0.1417
vn 0.1347 -0.3244 0.9363
vn 0.2307 0.0800 -0.9697
vn 0.9543 -0.1562 0.2549
vn 0.6563 0.0615 -0.7520
vn 0.4196 -0.4985 -0.7585
vn 0.5319 -0.3055 -0.7898
vn 0.6172 -0.1326 -0.7755
vn 0.9858 -0.1480 0.0794
vn 0.9490 -0.2916 0.1197
vn 0.9246 -0.3411 0.1697
vn 0.0263 -0.4865 -0.8733
vn 0.1145 -0.2598 -0.9588
vn 0.1981 -0.0506 -0.9789
vn 0.2443 0.2858 0.9266
vn 0.2029 -0.1351 0.9698
vn 0.1366 -0.3069 0.9419
vn -0.9435 -0.0007 0.3315
vn -0.9755 -0.0451 0.2153
vn -0.9906 -0.0549 0.1256
vn -0.1687 -0.5181 -0.8385
vn -0.0219 0.2895 -0.9569
vn -0.0243 0.4931 -0.8696
vn 0.9175 0.2130 0.3359
vn 0.9609 -0.2259 0.1601
vn 0.9821 -0.1857 -0.0309
vn -0.9769 0.0598 -0.2053
vn -0.9988 0.0122 0.0476
vn -0.9972 0.0379 0.0647
vn -0.4869 0.4141 0.7691
vn -0.3095 -0.3330 0.8907
vn -0.1898 -0.4854 0.8535
vn 0.4573 -0.3012 0.8368
vn 0.4053 0.4273 -0.8082
vn -0.1456 -0.4569 -0.8775
vn -0.1499 -0.7943 -0.5887
vn -0.8110 -0.1262 -0.5713
vt 0.461701 0.809397
vt 0.301930 0.729761
vt 0.094158 0.499911
vt 0.498737 0.648456
vt 0.250869 0.553264
vt 0.714874 0.752530
vt 0.627854 0.740386
vt 0.227533 0.339544
vt 0.300362 0.438253
vt 0.625828 0.633709
vt 0.338991 0.679376
vt 0.653754 0.621457
vt 0.189641 0.785401
vt 0.531284 0.815038
vt 0.232114 0.729761
vt 0.806952 0.326283
vt 0.527824 0.712310
vt 0.703640 0.331352
vt 0.725736 0.123548
vt 0.557184 0.740386
vt 0.714874 0.681901
vt 0.693091 0.138725
vt 0.558638 0.706064
vt 0.944491 0.391302
vt 0.108931 0.369345
vt 0.090202 0.443431
vt 0.952837 0.467016
vt 0.108059 0.346292
vt 0.960024 0.371234
vt 0.653754 0.712739
vt 0.761990 0.055860
vt 0.265996 0.788213
vt 0.829683 0.188590
vt 0.886815 0.394232
vt 0.909606 0.471204
vt 0.826550 0.267021
vt 0.659457 0.749480
vt 0.206417 0.267620
vt 0.238389 0.812575
vt 0.882743 0.373659
vt 0.837846 0.166681
vt 0.102618 0.289588
vt 0.957957 0.321520
vt 0.918648 0.216117
vt 0.803322 0.012950
vt 0.106348 0.638847
vt 0.232551 0.755661
vt 0.798789 0.485160
vt 0.965752 0.239402
vt 0.153968 0.222285
vt 0.894228 0.312474
vt 0.856067 0.102710
vt 0.881967 0.351902
vt 0.842627 0.144082
vt 0.107159 0.331692
vt 0.958812 0.358201
vt 0.199778 0.246429
vt 0.138792 0.619338
vt 0.232114 0.797406
vt 0.967580 0.012950
vt 0.753483 0.682459
vt 0.843831 0.469074
vt 0.256421 0.022764
vt 0.824689 0.472884
vt 0.987050 0.016155
vt 0.832147 0.505580
vt 0.295109 0.018166
vt 0.782932 0.707368
vt 0.843831 0.503254
vt 0.076417 0.467161
vt 0.958695 0.494573
vt 0.833773 0.298242
vt 0.909847 0.503107
vt 0.076958 0.454690
vt 0.951531 0.482650
vt 0.837149 0.281767
vt 0.912926 0.487172
vt 0.064432 0.532285
vt 0.298790 0.687460
vt 0.825577 0.362572
vt 0.264894 0.686125
vt 0.056614 0.518895
vt 0.959622 0.549977
vt 0.837123 0.350740
vt 0.929664 0.555276
vt 0.051257 0.577890
vt 0.291936 0.641182
vt 0.824256 0.407314
vt 0.275162 0.640522
vt 0.035793 0.577862
vt 0.964581 0.612577
vt 0.838997 0.411720
vt 0.948088 0.615681
vt 0.039898 0.592711
vt 0.301778 0.620707
vt 0.403076 0.772170
vt 0.830596 0.428615
vt 0.403076 0.737417
vt 0.267017 0.619338
vt 0.012950 0.593438
vt 0.987050 0.637067
vt 0.428919 0.781443
vt 0.856067 0.440612
vt 0.428919 0.728949
vt 0.935424 0.646785
vt 0.945356 0.412724
vt 0.357115 0.854737
vt 0.331665 0.779032
vt 0.948027 0.441601
vt 0.799629 0.752473
vt 0.327972 0.853161
vt 0.906904 0.416128
vt 0.370069 0.779032
vt 0.684668 0.778429
vt 0.909575 0.445005
vt 0.655249 0.778999
vt 0.799629 0.791035
vt 0.330193 0.729131
vt 0.557184 0.775635
vt 0.363063 0.804932
vt 0.331684 0.807874
vt 0.754247 0.751428
vt 0.586563 0.768755
vt 0.566112 0.815056
vt 0.689281 0.828405
vt 0.370405 0.729131
vt 0.754247 0.791805
vt 0.657717 0.824383
vt 0.595492 0.808176
vt 0.327830 0.637821
vt 0.590400 0.642651
vt 0.164818 0.789976
vt 0.357235 0.619338
vt 0.642851 0.190721
vt 0.562581 0.649581
vt 0.406824 0.626953
vt 0.080449 0.619338
vt 0.646201 0.239681
vt 0.727583 0.656002
vt 0.597847 0.731399
vt 0.712829 0.722239
vt 0.658284 0.323708
vt 0.527919 0.666449
vt 0.661748 0.291537
vt 0.680225 0.245582
vt 0.377645 0.696957
vt 0.285191 0.477898
vt 0.483372 0.812325
vt 0.280072 0.728266
vt 0.924330 0.393087
vt 0.921760 0.373660
vt 0.678504 0.727397
vt 0.268491 0.812575
vt 0.930826 0.465310
vt 0.923786 0.327561
vt 0.941993 0.227167
vt 0.764056 0.466512
vt 0.919524 0.351927
vt 0.977463 0.013354
vt 0.833186 0.466512
vt 0.317617 0.012950
vt 0.798789 0.722800
vt 0.839639 0.522681
vt 0.934403 0.500152
vt 0.932138 0.484309
vt 0.281656 0.689101
vt 0.944784 0.554368
vt 0.283549 0.640852
vt 0.956335 0.614129
vt 0.284323 0.620942
vt 0.399765 0.754789
vt 0.961112 0.640376
vt 0.422297 0.755187
vt 0.926130 0.414426
vt 0.350867 0.779032
vt 0.928801 0.443303
vt 0.799629 0.771754
vt 0.350773 0.728949
vt 0.557184 0.796361
vt 0.753483 0.771844
vt 0.595492 0.787450
vt 0.985581 0.067358
vt 0.238180 0.070710
vt 0.259592 0.052321
vt 0.138792 0.821791
vt 0.953366 0.057503
vt 0.765454 0.639660
vt 0.120235 0.821584
vt 0.772730 0.660154
vt 0.283154 0.037949
vt 0.784440 0.682652
vt 0.128680 0.843910
vt 0.970110 0.058056
vt 0.758353 0.637393
vt 0.180368 0.432154
vt 0.759258 0.257498
vt 0.884976 0.446549
vt 0.828099 0.241547
vt 0.971226 0.428512
vt 0.101516 0.405509
vt 0.908240 0.430567
vt 0.669958 0.778714
vt 0.946692 0.427163
vt 0.342544 0.853949
vt 0.673120 0.826722
vt 0.582140 0.817526
vt 0.570535 0.766286
vt 0.348248 0.806122
vt 0.576699 0.792002
vt 0.653753 0.802281
vt 0.776512 0.794925
vt 0.776512 0.748700
vt 0.327830 0.829868
vt 0.363063 0.830170
vt 0.327830 0.753980
vt 0.373865 0.753980
vt 0.689281 0.803194
vt 0.351093 0.753886
vt 0.776117 0.771930
vt 0.671321 0.802907
vt 0.345899 0.829874
vt 0.457498 0.727404
vt 0.165986 0.548054
vt 0.260364 0.376248
vt 0.625887 0.695531
vt 0.520555 0.743605
vt 0.734596 0.339638
vt 0.406824 0.703049
vt 0.012950 0.651015
vt 0.277407 0.507014
vt 0.206214 0.619338
vt 0.706517 0.466512
vt 0.399765 0.822801
vt 0.181517 0.620770
vt 0.619265 0.470337
vt 0.422433 0.807343
vt 0.582936 0.466512
vt 0.458892 0.202188
vt 0.422433 0.843958
vt 0.727583 0.468029
vt 0.460639 0.221880
vt 0.402692 0.843997
vt 0.717439 0.778459
vt 0.429089 0.593438
vt 0.518160 0.466685
vt 0.070962 0.817001
vt 0.726094 0.791097
vt 0.457498 0.298878
vt 0.715181 0.783741
vt 0.523936 0.466512
vt 0.458951 0.311476
vt 0.719061 0.788282
vt 0.458165 0.306435
vt 0.058766 0.817583
vt 0.726094 0.778429
vt 0.431598 0.585369
vt 0.599953 0.261833
vt 0.080449 0.668491
vt 0.542336 0.274386
vt 0.076079 0.728305
vt 0.500395 0.287212
vt 0.064936 0.773359
vt 0.389801 0.564275
vt 0.039540 0.774208
vt 0.356388 0.547019
vt 0.031995 0.737396
vt 0.319737 0.531779
vt 0.030523 0.696843
vt 0.505723 0.512116
vt 0.384015 0.580847
vt 0.506522 0.550736
vt 0.346302 0.574833
vt 0.507607 0.604105
vt 0.294291 0.566034
vt 0.610540 0.298468
vt 0.545535 0.300686
vt 0.502363 0.302883
vt 0.504402 0.313331
vt 0.517745 0.511765
vt 0.548610 0.318269
vt 0.527842 0.556627
vt 0.609940 0.323717
vt 0.531284 0.618364
vt 0.660591 0.582499
vt 0.204501 0.743892
vt 0.668589 0.550878
vt 0.206214 0.710848
vt 0.668004 0.517120
vt 0.204545 0.678125
vt 0.623877 0.525891
vt 0.164692 0.675333
vt 0.610236 0.563455
vt 0.167167 0.712219
vt 0.605277 0.597358
vt 0.166352 0.745757
vt 0.511839 0.183186
vt 0.584607 0.521652
vt 0.552303 0.182624
vt 0.569857 0.561129
vt 0.598009 0.178631
vt 0.565182 0.606784
vt 0.592158 0.236754
vt 0.721184 0.600612
vt 0.550092 0.232946
vt 0.722606 0.558204
vt 0.518921 0.225772
vt 0.713819 0.525134
s 0
usemtl Material
f 89/196/1 7/19/1 13/33/1 90/198/1
f 8/22/2 7/19/2 89/196/2 58/145/2 54/138/2 53/134/2
f 6/18/3 56/142/3 57/144/3
f 3/8/4 106/224/4 4/9/4 59/147/4 88/195/4
f 6/17/5 107/226/5 5/14/5 60/148/5 1/1/5 105/222/5 2/4/5 56/143/5
f 61/150/6 13/34/6 16/40/6 62/151/6
f 5/16/7 14/36/7 31/76/7 29/72/7
f 88/195/8 1/3/8 10/26/8 91/200/8
f 67/158/9 21/53/9 20/51/9 65/155/9
f 13/33/10 7/19/10 12/31/10 16/41/10
f 3/8/11 9/25/11 11/28/11 15/38/11
f 55/141/12 3/6/12 15/37/12 63/152/12
f 66/156/13 19/49/13 17/43/13 65/155/13
f 23/57/14 22/55/14 17/42/14 19/50/14
f 83/184/15 82/183/15 25/63/15 26/67/15
f 15/38/16 11/28/16 22/55/16 23/57/16
f 62/151/17 16/40/17 21/53/17 67/158/17
f 69/163/18 26/66/18 25/64/18 68/160/18
f 87/193/19 84/186/19 24/60/19 68/159/19
f 86/190/20 83/184/20 26/67/20 69/161/20
f 84/187/21 85/189/21 27/68/21 24/61/21
f 70/164/22 29/73/22 31/77/22 71/165/22
f 70/164/23 28/71/23 34/83/23 73/167/23
f 10/26/24 1/3/24 28/70/24 30/74/24
f 64/154/25 10/27/25 30/75/25 71/165/25
f 34/82/26 32/78/26 36/86/26 38/90/26
f 60/149/27 5/15/27 33/81/27 72/166/27
f 5/16/28 29/72/28 35/84/28 33/80/28
f 28/70/29 1/3/29 32/78/29 34/82/29
f 37/88/30 39/92/30 43/103/30 41/97/30
f 73/167/31 34/83/31 38/91/31 75/169/31
f 33/80/32 35/84/32 39/92/32 37/88/32
f 72/166/33 33/81/33 37/89/33 74/168/33
f 76/171/34 41/98/34 43/104/34 77/173/34
f 74/168/35 37/89/35 41/99/35 76/170/35
f 38/90/36 36/86/36 40/94/36 42/100/36
f 75/169/37 38/91/37 42/101/37 77/172/37
f 102/219/38 97/211/38 51/127/38 81/180/38
f 91/199/39 10/27/39 45/109/39 93/203/39
f 90/197/40 13/34/40 46/112/40 92/201/40
f 61/150/41 9/24/41 44/106/41 78/174/41
f 64/154/42 14/35/42 47/115/42 79/176/42
f 96/209/43 94/206/43 50/124/43 80/179/43
f 101/218/44 99/215/44 48/118/44 80/178/44
f 104/221/45 98/213/45 49/121/45 95/208/45
f 103/220/46 100/217/46 50/125/46 94/205/46
f 8/23/47 53/135/47 52/131/47
f 8/23/48 52/131/48 4/10/48 106/225/48 3/7/48 55/140/48 7/20/48
f 54/138/49 58/145/49 89/196/49 5/16/49 107/227/49 6/18/49 57/144/49
f 100/216/50 101/218/50 80/178/50 50/126/50
f 95/207/51 96/209/51 80/179/51 48/119/51
f 10/27/52 64/154/52 79/176/52 45/109/52
f 13/34/53 61/150/53 78/174/53 46/112/53
f 98/212/54 102/219/54 81/180/54 49/122/54
f 39/93/55 75/169/55 77/172/55 43/105/55
f 36/87/56 74/168/56 76/170/56 40/95/56
f 40/96/57 76/171/57 77/173/57 42/102/57
f 32/79/58 72/166/58 74/168/58 36/87/58
f 35/85/59 73/167/59 75/169/59 39/93/59
f 1/2/60 60/149/60 72/166/60 32/79/60
f 14/35/61 64/154/61 71/165/61 31/77/61
f 29/73/62 70/164/62 73/167/62 35/85/62
f 28/71/63 70/164/63 71/165/63 30/75/63
f 85/189/64 86/191/64 69/162/64 27/68/64
f 82/182/65 87/193/65 68/159/65 25/65/65
f 27/69/66 69/163/66 68/160/66 24/62/66
f 11/29/67 62/151/67 67/158/67 22/56/67
f 18/44/68 66/156/68 65/155/68 20/51/68
f 7/21/69 55/141/69 63/152/69 12/30/69
f 22/56/70 67/158/70 65/155/70 17/43/70
f 9/24/71 61/150/71 62/151/71 11/29/71
f 19/49/72 66/156/72 87/193/72 82/182/72
f 12/31/73 18/45/73 20/52/73 21/54/73 16/41/73
f 66/157/74 18/48/74 84/187/74 87/194/74
f 23/57/75 19/50/75 82/183/75 83/184/75
f 49/123/76 81/181/76 96/209/76 95/207/76
f 97/210/77 103/220/77 94/205/77 51/128/77
f 99/214/78 104/221/78 95/208/78 48/120/78
f 81/181/79 51/129/79 94/206/79 96/209/79
f 14/35/80 90/197/80 92/201/80 47/115/80
f 9/24/81 91/199/81 93/203/81 44/106/81
f 3/8/82 88/195/82 91/200/82 9/25/82
f 5/16/83 89/196/83 90/198/83 14/36/83
f 44/107/84 93/204/84 104/221/84 99/214/84
f 47/116/85 92/202/85 103/220/85 97/210/85
f 45/110/86 79/177/86 102/219/86 98/212/86
f 46/113/87 78/175/87 101/218/87 100/216/87
f 92/202/88 46/114/88 100/217/88 103/220/88
f 93/204/89 45/111/89 98/213/89 104/221/89
f 78/175/90 44/108/90 99/215/90 101/218/90
f 79/177/91 47/117/91 97/211/91 102/219/91
f 59/146/92 4/11/92 52/130/92 53/133/92 54/136/92 108/228/92
f 136/291/93 110/234/93 109/231/93 135/289/93
f 121/264/94 120/262/94 114/246/94 117/254/94
f 139/297/95 111/237/95 110/235/95 136/290/95
f 135/288/96 109/232/96 112/240/96 144/307/96
f 144/306/97 112/241/97 111/238/97 139/296/97
f 111/239/98 112/242/98 109/233/98 110/236/98
f 117/255/99 114/247/99 116/252/99 115/249/99 113/243/99
f 124/270/100 121/263/100 117/256/100 113/244/100
f 120/261/101 129/277/101 116/253/101 114/248/101
f 130/279/102 124/269/102 113/245/102 115/250/102
f 129/277/103 130/278/103 115/251/103 116/253/103
f 57/144/104 56/142/104 132/282/104 127/275/104
f 127/275/105 132/282/105 131/280/105 128/276/105
f 128/276/106 131/280/106 130/278/106 129/277/106
f 56/143/107 2/4/107 126/273/107 132/283/107
f 132/283/108 126/273/108 125/271/108 131/281/108
f 131/281/109 125/271/109 124/269/109 130/279/109
f 54/138/110 57/144/110 127/275/110 118/257/110
f 118/257/111 127/275/111 128/276/111 119/259/111
f 119/259/112 128/276/112 129/277/112 120/261/112
f 2/5/113 108/230/113 123/267/113 126/274/113
f 126/274/114 123/267/114 122/265/114 125/272/114
f 125/272/115 122/265/115 121/263/115 124/270/115
f 108/229/116 54/137/116 118/258/116 123/268/116
f 123/268/117 118/258/117 119/260/117 122/266/117
f 122/266/118 119/260/118 120/262/118 121/264/118
f 54/138/119 142/302/119 141/300/119 53/134/119
f 142/302/120 143/304/120 140/298/120 141/300/120
f 143/304/121 144/306/121 139/296/121 140/298/121
f 4/12/122 133/284/122 142/303/122 54/139/122
f 133/284/123 134/286/123 143/305/123 142/303/123
f 134/286/124 135/288/124 144/307/124 143/305/124
f 53/135/125 141/301/125 138/294/125 52/131/125
f 141/301/126 140/299/126 137/292/126 138/294/126
f 140/299/127 139/297/127 136/290/127 137/292/127
f 52/132/128 138/295/128 133/285/128 4/13/128
f 138/295/129 137/293/129 134/287/129 133/285/129
f 137/293/130 136/291/130 135/289/130 134/287/130
f 105/223/131 1/3/131 88/195/131 59/147/131 108/230/131 2/5/131
f 86/192/132 85/188/132 83/185/132
f 83/185/133 85/188/133 18/46/133 23/58/133
f 63/153/134 15/39/134 23/59/134 18/47/134 12/32/134
f 84/187/135 18/48/135 85/189/135
l 52 106
