# Blender 3.3.1
# www.blender.org
mtllib monstruo_3_grande_caminar653.mtl
o monstruo_grande
v 0.483908 1.973801 0.326923
v 0.517766 1.133274 0.105368
v -0.643722 1.805887 0.174744
v -0.310892 1.159704 0.215053
v 0.746780 2.251209 0.040712
v 0.604238 1.559034 -0.242309
v -0.745087 2.016979 -0.251119
v -0.674204 1.737624 -0.319347
v -0.242945 2.385583 0.485042
v 0.306295 2.262289 0.496927
v -0.378987 2.355508 0.576794
v -1.097628 2.046255 -0.106985
v -0.214399 2.564801 0.134167
v 0.345461 2.403001 0.234752
v -0.948363 1.919156 0.052842
v -0.377104 2.641379 0.152834
v -0.725995 2.270890 0.574918
v -1.390705 1.948361 0.153272
v -1.119375 1.992388 0.357328
v -0.902000 2.593488 0.314513
v -0.566018 2.680919 0.216681
v -0.450020 2.313403 0.547536
v -1.077702 1.926780 0.048423
v -1.676602 0.685002 0.821445
v -1.552184 0.667054 0.872123
v -1.521764 0.497912 0.666919
v -1.597705 0.508868 0.635986
v 0.435393 2.171350 0.498644
v 0.611952 2.360679 0.285798
v 0.414079 2.285816 0.506384
v 0.474217 2.416546 0.289244
v 0.709912 1.867943 0.410052
v 0.900575 1.932223 0.305607
v 0.721247 1.941383 0.458255
v 0.853946 2.049476 0.346681
v 0.873526 1.646967 0.521940
v 0.979370 1.670209 0.486015
v 0.911698 1.644377 0.620619
v 1.015937 1.674937 0.581327
v 0.873551 1.513112 0.602921
v 1.090654 1.575532 0.525047
v 0.890226 1.472808 0.795123
v 1.216681 1.564602 0.671514
v -0.079171 2.431188 0.516160
v 0.129874 2.399171 0.510403
v -0.061523 2.539964 0.273073
v 0.143761 2.503659 0.269319
v -0.022897 2.733306 0.679204
v 0.182409 2.664485 0.647193
v -0.019753 2.858728 0.430975
v 0.184730 2.790286 0.397975
v -0.509706 1.189754 -0.001178
v -0.389217 1.197999 -0.211666
v -0.042375 1.277049 -0.333179
v -0.695914 1.851069 -0.050347
v 0.543384 1.141316 -0.133352
v 0.327734 1.156886 -0.261891
v 0.033065 1.525451 -0.320949
v -0.030830 1.146296 0.197406
v 0.579715 2.053512 0.233886
v -0.226196 2.448545 0.362341
v -0.385908 2.608677 0.424293
v -0.887007 1.998740 -0.061417
v 0.305351 2.391117 0.393974
v -0.751367 2.499283 0.541886
v -1.295858 2.093420 0.396824
v -0.538528 2.597858 0.410141
v -1.626974 0.673579 0.876805
v -1.533427 0.391960 0.547404
v 0.546832 2.278448 0.433517
v 0.446786 2.396491 0.421234
v 0.786767 1.871573 0.310438
v 0.814680 2.006793 0.447866
v 0.925825 1.661120 0.502576
v 0.963845 1.659040 0.600874
v 0.974523 1.539995 0.540672
v 1.039270 1.511699 0.690656
v -0.071441 2.484879 0.392991
v 0.134366 2.453119 0.389004
v -0.052576 2.798108 0.555963
v 0.215063 2.725557 0.522343
v -1.436264 0.997164 0.829992
v -1.486908 0.823319 0.756558
v -1.650148 0.998808 0.743755
v -1.604015 0.840212 0.708858
v -1.537129 0.667285 0.653998
v -1.567227 0.976411 0.837372
v -0.016968 1.756283 0.513436
v 0.208818 2.134207 -0.184185
v 0.152783 2.511503 0.089718
v 0.045115 2.263807 0.637181
v 0.036171 2.521691 0.269076
v 0.029940 2.413622 0.511629
v 0.082759 2.843043 0.376699
v 0.079240 2.680087 0.700329
v 0.085207 2.811003 0.564408
v 0.177540 2.659556 0.309968
v 0.170956 2.519856 0.594864
v -0.065151 2.573741 0.619123
v -0.060864 2.714809 0.332101
v -0.079722 2.645848 0.476441
v 0.189251 2.589642 0.452031
v 0.057618 2.696611 0.300850
v 0.053492 2.535912 0.626517
v 0.562113 1.642054 -0.006560
v -0.564867 1.528230 0.199051
v 0.661699 1.770029 -0.215712
v 0.161879 1.144661 0.208061
v -0.283806 0.250779 -0.449713
v -0.425701 0.174016 -0.350077
v -0.456826 0.329170 -0.545866
v -0.321980 0.339532 -0.560725
v 0.252501 -0.006737 0.090774
v 0.181583 -0.020128 0.013061
v 0.263268 -0.011980 0.053001
v 0.232647 -0.017433 0.025987
v 0.193008 -0.006733 0.098918
v 0.061868 0.847102 -0.080239
v 0.105083 0.613359 -0.003449
v 0.126559 0.311175 0.022515
v 0.154328 0.286750 0.200655
v 0.148206 0.534598 0.274110
v 0.169163 0.810091 0.311240
v 0.276925 0.280114 0.178962
v 0.355763 0.529240 0.239776
v 0.460458 0.853866 0.245687
v 0.317096 0.848031 -0.052720
v 0.283120 0.596610 0.030840
v 0.232478 0.300659 0.045048
v 0.297356 0.289819 0.099511
v 0.393408 0.581156 0.118932
v 0.486232 0.859893 0.056810
v -0.225788 0.873117 0.306046
v -0.228713 0.578295 0.128472
v -0.244088 0.376092 -0.035675
v -0.527367 0.403374 -0.056745
v -0.512143 0.653356 0.087151
v -0.508321 0.901788 0.177542
v -0.536696 0.582693 -0.262017
v -0.519833 0.811385 -0.115407
v -0.511169 0.931895 -0.086231
v -0.120508 0.857691 -0.100655
v -0.177702 0.773626 -0.150401
v -0.240413 0.603714 -0.258776
vn -0.0145 0.5852 -0.8108
vn -0.0140 0.0902 -0.9958
vn 0.4752 -0.2862 -0.8320
vn -0.3128 -0.2604 0.9134
vn 0.9283 -0.2248 0.2961
vn 0.6128 0.7500 0.2489
vn 0.2141 0.9051 -0.3673
vn 0.4410 -0.2537 0.8609
vn -0.1237 0.8947 0.4292
vn -0.1299 0.5914 -0.7958
vn -0.1574 -0.5325 0.8316
vn -0.3691 -0.8690 -0.3295
vn -0.2456 -0.1692 0.9545
vn 0.3180 -0.8768 0.3606
vn 0.9473 -0.2338 0.2190
vn 0.0367 -0.7992 0.6000
vn 0.1154 0.9650 0.2356
vn 0.0176 -0.7624 0.6469
vn -0.7016 0.2264 0.6756
vn 0.9410 0.0600 -0.3330
vn -0.8543 0.0228 -0.5193
vn 0.5195 0.7326 0.4398
vn 0.2057 0.1771 0.9625
vn -0.3790 -0.5237 0.7630
vn -0.1843 0.6221 0.7610
vn -0.8322 -0.3348 0.4420
vn -0.0381 -0.5814 -0.8127
vn 0.8250 0.5594 0.0799
vn -0.4487 -0.5995 0.6628
vn 0.6131 0.6843 -0.3947
vn -0.0436 0.4203 0.9063
vn 0.9533 0.2567 -0.1593
vn 0.1360 -0.5740 -0.8075
vn 0.2462 -0.9276 -0.2811
vn -0.0737 -0.3836 -0.9205
vn -0.9453 0.2458 0.2145
vn 0.2725 0.6408 0.7177
vn 0.9857 -0.0228 -0.1671
vn 0.3302 0.5268 0.7832
vn 0.1549 0.9875 0.0278
vn -0.2992 0.8733 0.3845
vn 0.4032 0.8752 0.2674
vn 0.0663 0.9549 0.2894
vn -0.9683 0.1165 0.2211
vn 0.2741 -0.4144 0.8679
vn -0.2306 0.5398 -0.8096
vn -0.7503 -0.4857 -0.4485
vn -0.9325 -0.3053 0.1930
vn 0.1648 0.1751 -0.9707
vn -0.9641 0.2586 -0.0606
vn 0.0606 0.7992 0.5980
vn 0.4159 0.7018 0.5783
vn -0.2604 0.8726 0.4133
vn 0.9795 -0.1743 0.1012
vn -0.0257 0.5538 0.8323
vn -0.3227 -0.4504 -0.8325
vn 0.1083 -0.9694 -0.2201
vn -0.4281 -0.7017 -0.5696
vn 0.5009 0.5668 0.6541
vn -0.2877 -0.7578 -0.5856
vn -0.0956 0.9916 0.0866
vn 0.5946 0.5905 0.5457
vn 0.4753 0.2645 0.8391
vn -0.4018 0.2537 -0.8799
vn 0.0503 0.1139 0.9922
vn -0.6414 -0.6673 0.3785
vn -0.2677 0.4200 0.8671
vn -0.7217 0.6193 0.3093
vn -0.3670 -0.8589 -0.3571
vn 0.1977 0.3484 0.9163
vn 0.5628 0.5327 0.6321
vn 0.2265 0.3327 0.9154
vn -0.4366 0.6225 -0.6495
vn -0.8676 0.3818 0.3185
vn 0.9574 -0.2543 0.1368
vn 0.5114 0.6541 0.5573
vn 0.3004 0.4592 -0.8360
vn -0.2574 -0.3409 0.9042
vn 0.5147 0.8327 0.2041
vn 0.3633 0.9298 0.0589
vn -0.1353 0.5126 0.8479
vn -0.4881 -0.1364 0.8621
vn 0.2857 0.7615 -0.5818
vn -0.1590 -0.6136 0.7734
vn 0.0883 0.1989 -0.9760
vn 0.9467 -0.3153 -0.0660
vn -0.9949 0.0195 -0.0992
vn -0.1133 0.2564 -0.9599
vn 0.0268 -0.6383 0.7693
vn -0.9996 0.0024 0.0269
vn 0.9610 -0.2479 -0.1226
vn 0.0323 -0.9834 -0.1783
vn 0.1852 -0.8719 0.4534
vn -0.9756 -0.1708 0.1377
vn -0.9653 -0.2400 -0.1028
vn 0.9887 -0.0439 -0.1436
vn -0.0722 0.7475 -0.6604
vn -0.0101 -0.7838 -0.6209
vn 0.0213 -0.9879 0.1537
vn 0.1432 -0.3047 0.9416
vn 0.2228 0.0617 -0.9729
vn 0.9566 -0.1520 0.2488
vn 0.6499 0.0447 -0.7587
vn 0.4400 -0.5373 -0.7195
vn 0.5400 -0.3406 -0.7697
vn 0.6112 -0.1458 -0.7779
vn 0.9844 -0.1338 0.1139
vn 0.9450 -0.2965 0.1380
vn 0.9300 -0.3261 0.1693
vn 0.0337 -0.5269 -0.8492
vn 0.1232 -0.3093 -0.9429
vn 0.1887 -0.0750 -0.9792
vn 0.2201 0.3441 0.9128
vn 0.2034 -0.1123 0.9726
vn 0.1509 -0.2783 0.9486
vn -0.9479 0.0101 0.3184
vn -0.9763 -0.0259 0.2150
vn -0.9883 -0.0617 0.1398
vn -0.1619 -0.4192 -0.8933
vn -0.0075 0.3620 -0.9321
vn -0.0275 0.5426 -0.8396
vn 0.9091 0.1809 0.3752
vn 0.9574 -0.2444 0.1541
vn 0.9835 -0.1761 -0.0413
vn -0.9688 0.0826 -0.2336
vn -0.9992 0.0234 0.0320
vn -0.9975 0.0277 0.0645
vn -0.5330 0.2925 0.7940
vn -0.3304 -0.4142 0.8481
vn -0.1883 -0.5442 0.8176
vn 0.4762 -0.2686 0.8373
vn 0.3940 0.4129 -0.8211
vn -0.1572 -0.4562 -0.8759
vn -0.1496 -0.7959 -0.5867
vn -0.8249 -0.1183 -0.5527
vt 0.882279 0.260085
vt 0.436089 0.649131
vt 0.117664 0.305524
vt 0.860974 0.338762
vt 0.079561 0.383885
vt 0.278417 0.728674
vt 0.111517 0.716819
vt 0.301243 0.337859
vt 0.232943 0.387386
vt 0.111517 0.662267
vt 0.671871 0.687525
vt 0.175114 0.511099
vt 0.930991 0.712692
vt 0.796001 0.259488
vt 0.522181 0.649131
vt 0.719621 0.316178
vt 0.801110 0.310020
vt 0.698705 0.366293
vt 0.510656 0.337024
vt 0.023033 0.717149
vt 0.367094 0.730187
vt 0.507246 0.358198
vt 0.018976 0.695717
vt 0.103380 0.570561
vt 0.268725 0.266033
vt 0.143950 0.273348
vt 0.098384 0.631539
vt 0.301351 0.259488
vt 0.128079 0.559933
vt 0.480438 0.333338
vt 0.348619 0.714075
vt 0.604958 0.268707
vt 0.031105 0.562973
vt 0.043818 0.625810
vt 0.721993 0.282954
vt 0.329365 0.336360
vt 0.302724 0.713315
vt 0.030374 0.549675
vt 0.582817 0.260846
vt 0.875347 0.642471
vt 0.380514 0.272320
vt 0.124895 0.517524
vt 0.813390 0.578569
vt 0.436089 0.332372
vt 0.956124 0.588845
vt 0.367094 0.692599
vt 0.367094 0.522797
vt 0.871643 0.594841
vt 0.398138 0.324445
vt 0.043891 0.509019
vt 0.796001 0.641153
vt 0.491075 0.268473
vt 0.032114 0.534706
vt 0.552485 0.259488
vt 0.331566 0.259909
vt 0.129819 0.544964
vt 0.339759 0.337186
vt 0.913298 0.588845
vt 0.317584 0.707220
vt 0.845734 0.463378
vt 0.311567 0.646434
vt 0.944558 0.353645
vt 0.398138 0.462439
vt 0.920230 0.354337
vt 0.870057 0.463781
vt 0.929709 0.374247
vt 0.357807 0.478584
vt 0.347994 0.663056
vt 0.944558 0.373825
vt 0.097076 0.285727
vt 0.229765 0.651022
vt 0.758050 0.297859
vt 0.168317 0.651042
vt 0.119329 0.272208
vt 0.094178 0.643292
vt 0.222768 0.636959
vt 0.746872 0.283208
vt 0.174541 0.636975
vt 0.045175 0.638147
vt 0.080672 0.327471
vt 0.442544 0.673801
vt 0.734592 0.339187
vt 0.484453 0.673801
vt 0.070725 0.319456
vt 0.218298 0.685110
vt 0.751374 0.331694
vt 0.180611 0.684911
vt 0.062412 0.356092
vt 0.455575 0.702696
vt 0.724658 0.367821
vt 0.476314 0.702696
vt 0.043357 0.357400
vt 0.210236 0.723455
vt 0.742364 0.370210
vt 0.189444 0.723462
vt 0.050281 0.367705
vt 0.444942 0.715336
vt 0.810526 0.722486
vt 0.728448 0.380153
vt 0.853695 0.722486
vt 0.487920 0.715336
vt 0.018975 0.371756
vt 0.232852 0.738567
vt 0.796001 0.739289
vt 0.758050 0.386241
vt 0.861207 0.739289
vt 0.167770 0.738589
vt 0.100634 0.583041
vt 0.712300 0.698974
vt 0.802197 0.701507
vt 0.098640 0.600731
vt 0.972705 0.287497
vt 0.747907 0.696578
vt 0.052045 0.577939
vt 0.849895 0.701507
vt 0.710445 0.675017
vt 0.050052 0.595630
vt 0.746553 0.677603
vt 0.924885 0.287497
vt 0.797725 0.671259
vt 0.981025 0.313792
vt 0.715147 0.730011
vt 0.752543 0.724602
vt 0.973919 0.259495
vt 0.967002 0.332143
vt 0.934252 0.306472
vt 0.715328 0.644023
vt 0.847669 0.671259
vt 0.923848 0.259495
vt 0.753088 0.649631
vt 0.920230 0.324823
vt 0.068284 0.665533
vt 0.630362 0.705721
vt 0.712055 0.621316
vt 0.966165 0.712391
vt 0.519769 0.388732
vt 0.031375 0.663704
vt 0.592215 0.695479
vt 0.581836 0.620019
vt 0.750017 0.621843
vt 0.569690 0.667298
vt 0.581066 0.387596
vt 0.531739 0.516092
vt 0.642835 0.625048
vt 0.273616 0.509019
vt 0.070982 0.710642
vt 0.316851 0.732164
vt 0.684917 0.393810
vt 0.816625 0.338063
vt 0.644803 0.392946
vt 0.602800 0.367236
vt 0.671871 0.661666
vt 0.181146 0.386242
vt 0.855113 0.259897
vt 0.463196 0.649131
vt 0.077903 0.567886
vt 0.078993 0.554271
vt 0.322237 0.720993
vt 0.070972 0.628379
vt 0.834014 0.651825
vt 0.084160 0.512738
vt 0.838315 0.596273
vt 0.320679 0.509019
vt 0.080733 0.539302
vt 0.857365 0.464048
vt 0.931678 0.351118
vt 0.335174 0.488977
vt 0.367094 0.673623
vt 0.939667 0.384854
vt 0.199177 0.651021
vt 0.069465 0.641494
vt 0.198664 0.632807
vt 0.464209 0.672968
vt 0.199604 0.684998
vt 0.465945 0.702696
vt 0.199840 0.723459
vt 0.466714 0.715004
vt 0.832520 0.720483
vt 0.200177 0.738589
vt 0.829423 0.735282
vt 0.076340 0.580490
vt 0.826046 0.701507
vt 0.074346 0.598181
vt 0.948795 0.287497
vt 0.823088 0.670800
vt 0.959731 0.307426
vt 0.948976 0.259488
vt 0.941524 0.331189
vt 0.875347 0.491894
vt 0.391834 0.432095
vt 0.377694 0.448634
vt 0.915590 0.478791
vt 0.834644 0.488373
vt 0.326937 0.619279
vt 0.938593 0.478810
vt 0.335216 0.632947
vt 0.358601 0.463790
vt 0.348787 0.648138
vt 0.927106 0.463378
vt 0.854274 0.489560
vt 0.315804 0.619182
vt 0.212520 0.321385
vt 0.644070 0.318501
vt 0.018976 0.592450
vt 0.663817 0.276029
vt 0.129819 0.597828
vt 0.224108 0.269832
vt 0.051049 0.586785
vt 0.728499 0.676310
vt 0.099637 0.591886
vt 0.730103 0.697776
vt 0.734390 0.646904
vt 0.920230 0.314550
vt 0.981025 0.324065
vt 0.732426 0.727384
vt 0.950683 0.319044
vt 0.753088 0.663662
vt 0.920230 0.273492
vt 0.977552 0.273492
vt 0.752543 0.710647
vt 0.709822 0.714522
vt 0.796001 0.686127
vt 0.853178 0.686127
vt 0.709822 0.659561
vt 0.824792 0.685890
vt 0.948939 0.273488
vt 0.731549 0.661651
vt 0.730449 0.712624
vt 0.878850 0.297575
vt 0.096711 0.342677
vt 0.285581 0.357771
vt 0.108549 0.696221
vt 0.804979 0.293594
vt 0.708839 0.350023
vt 0.668288 0.644023
vt 0.436089 0.526409
vt 0.145034 0.385321
vt 0.919159 0.607821
vt 0.247387 0.613831
vt 0.970304 0.416607
vt 0.947808 0.608020
vt 0.704660 0.516092
vt 0.970304 0.403829
vt 0.750017 0.516884
vt 0.618892 0.516092
vt 0.920230 0.404231
vt 0.273616 0.612878
vt 0.642836 0.516847
vt 0.938584 0.415207
vt 0.924281 0.443436
vt 0.075400 0.489812
vt 0.855524 0.444402
vt 0.531739 0.629156
vt 0.934913 0.435583
vt 0.576828 0.496673
vt 0.931440 0.443424
vt 0.848383 0.444289
vt 0.592622 0.497116
vt 0.934913 0.440184
vt 0.586164 0.496977
vt 0.517161 0.630156
vt 0.920230 0.438606
vt 0.085942 0.490043
vt 0.585376 0.420489
vt 0.510472 0.551446
vt 0.582586 0.444044
vt 0.504260 0.576063
vt 0.581388 0.469636
vt 0.508131 0.602400
vt 0.103684 0.463024
vt 0.477645 0.604263
vt 0.118194 0.440373
vt 0.454885 0.581958
vt 0.129418 0.415411
vt 0.438452 0.557360
vt 0.876897 0.417052
vt 0.081901 0.462161
vt 0.882279 0.393921
vt 0.081653 0.438865
vt 0.880271 0.363315
vt 0.079604 0.408162
vt 0.633117 0.418943
vt 0.615530 0.444447
vt 0.600997 0.469910
vt 0.614559 0.469949
vt 0.862035 0.416811
vt 0.638313 0.444473
vt 0.857648 0.390640
vt 0.666106 0.417503
vt 0.844696 0.362700
vt 0.167770 0.536691
vt 0.914144 0.688660
vt 0.182151 0.561697
vt 0.913298 0.663084
vt 0.189855 0.582503
vt 0.915415 0.641729
vt 0.680787 0.549268
vt 0.966165 0.641681
vt 0.684678 0.573659
vt 0.963812 0.665813
vt 0.684995 0.596421
vt 0.964308 0.688427
vt 0.584794 0.548886
vt 0.729850 0.550060
vt 0.578610 0.572959
vt 0.734888 0.574452
vt 0.569690 0.595426
vt 0.736445 0.597214
vt 0.642060 0.590920
vt 0.247172 0.543053
vt 0.641052 0.570535
vt 0.248998 0.562413
vt 0.635978 0.552556
vt 0.245738 0.579271
s 0
usemtl Material
f 89/203/1 7/19/1 13/32/1 90/205/1
f 8/22/2 7/19/2 89/203/2 58/151/2 54/142/2 53/136/2
f 6/18/3 56/148/3 57/150/3
f 3/8/4 106/231/4 4/9/4 59/153/4 88/202/4
f 6/17/5 107/233/5 5/14/5 60/154/5 1/1/5 105/229/5 2/4/5 56/149/5
f 61/156/6 13/33/6 16/38/6 62/157/6
f 5/16/7 14/35/7 31/77/7 29/72/7
f 88/202/8 1/3/8 10/26/8 91/207/8
f 67/164/9 21/53/9 20/50/9 65/161/9
f 13/32/10 7/19/10 12/30/10 16/39/10
f 3/8/11 9/25/11 11/28/11 15/36/11
f 55/147/12 3/6/12 15/37/12 63/158/12
f 66/162/13 19/48/13 17/40/13 65/160/13
f 23/57/14 22/55/14 17/41/14 19/49/14
f 83/191/15 82/190/15 25/63/15 26/67/15
f 15/36/16 11/28/16 22/55/16 23/57/16
f 62/157/17 16/38/17 21/53/17 67/164/17
f 69/169/18 26/66/18 25/64/18 68/166/18
f 87/200/19 84/193/19 24/60/19 68/165/19
f 86/197/20 83/191/20 26/67/20 69/167/20
f 84/194/21 85/196/21 27/68/21 24/61/21
f 70/170/22 29/73/22 31/78/22 71/172/22
f 70/170/23 28/71/23 34/85/23 73/174/23
f 10/26/24 1/3/24 28/70/24 30/74/24
f 64/159/25 10/27/25 30/75/25 71/171/25
f 34/84/26 32/80/26 36/88/26 38/92/26
f 60/155/27 5/15/27 33/83/27 72/173/27
f 5/16/28 29/72/28 35/86/28 33/82/28
f 28/70/29 1/3/29 32/80/29 34/84/29
f 37/90/30 39/94/30 43/105/30 41/99/30
f 73/174/31 34/85/31 38/93/31 75/176/31
f 33/82/32 35/86/32 39/94/32 37/90/32
f 72/173/33 33/83/33 37/91/33 74/175/33
f 76/178/34 41/100/34 43/106/34 77/180/34
f 74/175/35 37/91/35 41/101/35 76/177/35
f 38/92/36 36/88/36 40/96/36 42/102/36
f 75/176/37 38/93/37 42/103/37 77/179/37
f 102/226/38 97/218/38 51/129/38 81/187/38
f 91/206/39 10/27/39 45/111/39 93/210/39
f 90/204/40 13/33/40 46/114/40 92/208/40
f 61/156/41 9/24/41 44/108/41 78/181/41
f 64/159/42 14/34/42 47/117/42 79/183/42
f 96/216/43 94/213/43 50/126/43 80/186/43
f 101/225/44 99/222/44 48/120/44 80/185/44
f 104/228/45 98/220/45 49/123/45 95/215/45
f 103/227/46 100/224/46 50/127/46 94/212/46
f 8/23/47 53/137/47 52/132/47
f 8/23/48 52/132/48 4/10/48 106/232/48 3/7/48 55/146/48 7/20/48
f 54/142/49 58/151/49 89/203/49 5/16/49 107/234/49 6/18/49 57/150/49
f 100/223/50 101/225/50 80/185/50 50/128/50
f 95/214/51 96/216/51 80/186/51 48/121/51
f 10/27/52 64/159/52 79/183/52 45/111/52
f 13/33/53 61/156/53 78/181/53 46/114/53
f 98/219/54 102/226/54 81/187/54 49/124/54
f 39/95/55 75/176/55 77/179/55 43/107/55
f 36/89/56 74/175/56 76/177/56 40/97/56
f 40/98/57 76/178/57 77/180/57 42/104/57
f 32/81/58 72/173/58 74/175/58 36/89/58
f 35/87/59 73/174/59 75/176/59 39/95/59
f 1/2/60 60/155/60 72/173/60 32/81/60
f 14/34/61 64/159/61 71/171/61 31/79/61
f 29/73/62 70/170/62 73/174/62 35/87/62
f 28/71/63 70/170/63 71/172/63 30/76/63
f 85/196/64 86/198/64 69/168/64 27/68/64
f 82/189/65 87/200/65 68/165/65 25/65/65
f 27/69/66 69/169/66 68/166/66 24/62/66
f 11/29/67 62/157/67 67/164/67 22/56/67
f 18/43/68 66/162/68 65/160/68 20/51/68
f 7/21/69 55/147/69 63/158/69 12/31/69
f 22/56/70 67/164/70 65/161/70 17/42/70
f 9/24/71 61/156/71 62/157/71 11/29/71
f 19/48/72 66/162/72 87/200/72 82/189/72
f 12/30/73 18/44/73 20/52/73 21/54/73 16/39/73
f 66/163/74 18/47/74 84/194/74 87/201/74
f 23/57/75 19/49/75 82/190/75 83/191/75
f 49/125/76 81/188/76 96/216/76 95/214/76
f 97/217/77 103/227/77 94/212/77 51/130/77
f 99/221/78 104/228/78 95/215/78 48/122/78
f 81/188/79 51/131/79 94/213/79 96/216/79
f 14/34/80 90/204/80 92/208/80 47/117/80
f 9/24/81 91/206/81 93/210/81 44/108/81
f 3/8/82 88/202/82 91/207/82 9/25/82
f 5/16/83 89/203/83 90/205/83 14/35/83
f 44/109/84 93/211/84 104/228/84 99/221/84
f 47/118/85 92/209/85 103/227/85 97/217/85
f 45/112/86 79/184/86 102/226/86 98/219/86
f 46/115/87 78/182/87 101/225/87 100/223/87
f 92/209/88 46/116/88 100/224/88 103/227/88
f 93/211/89 45/113/89 98/220/89 104/228/89
f 78/182/90 44/110/90 99/222/90 101/225/90
f 79/184/91 47/119/91 97/218/91 102/226/91
f 59/152/92 4/11/92 52/133/92 53/138/92 54/141/92 108/235/92
f 136/298/93 110/241/93 109/238/93 135/296/93
f 121/271/94 120/269/94 114/253/94 117/261/94
f 139/304/95 111/244/95 110/242/95 136/297/95
f 135/295/96 109/239/96 112/247/96 144/314/96
f 144/313/97 112/248/97 111/245/97 139/303/97
f 111/246/98 112/249/98 109/240/98 110/243/98
f 117/262/99 114/254/99 116/259/99 115/256/99 113/250/99
f 124/277/100 121/270/100 117/263/100 113/251/100
f 120/268/101 129/284/101 116/260/101 114/255/101
f 130/286/102 124/276/102 113/252/102 115/257/102
f 129/284/103 130/285/103 115/258/103 116/260/103
f 57/150/104 56/148/104 132/289/104 127/282/104
f 127/282/105 132/289/105 131/287/105 128/283/105
f 128/283/106 131/287/106 130/285/106 129/284/106
f 56/149/107 2/4/107 126/280/107 132/290/107
f 132/290/108 126/280/108 125/278/108 131/288/108
f 131/288/109 125/278/109 124/276/109 130/286/109
f 54/142/110 57/150/110 127/282/110 118/264/110
f 118/264/111 127/282/111 128/283/111 119/266/111
f 119/266/112 128/283/112 129/284/112 120/268/112
f 2/5/113 108/237/113 123/274/113 126/281/113
f 126/281/114 123/274/114 122/272/114 125/279/114
f 125/279/115 122/272/115 121/270/115 124/277/115
f 108/236/116 54/143/116 118/265/116 123/275/116
f 123/275/117 118/265/117 119/267/117 122/273/117
f 122/273/118 119/267/118 120/269/118 121/271/118
f 54/144/119 142/309/119 141/307/119 53/139/119
f 142/309/120 143/311/120 140/305/120 141/307/120
f 143/311/121 144/313/121 139/303/121 140/305/121
f 4/12/122 133/291/122 142/310/122 54/145/122
f 133/291/123 134/293/123 143/312/123 142/310/123
f 134/293/124 135/295/124 144/314/124 143/312/124
f 53/140/125 141/308/125 138/301/125 52/134/125
f 141/308/126 140/306/126 137/299/126 138/301/126
f 140/306/127 139/304/127 136/297/127 137/299/127
f 52/135/128 138/302/128 133/292/128 4/13/128
f 138/302/129 137/300/129 134/294/129 133/292/129
f 137/300/130 136/298/130 135/296/130 134/294/130
f 105/230/131 1/3/131 88/202/131 59/153/131 108/237/131 2/5/131
f 86/199/132 85/195/132 83/192/132
f 83/192/133 85/195/133 18/45/133 23/58/133
f 63/158/134 15/37/134 23/59/134 18/46/134 12/31/134
f 84/194/135 18/47/135 85/196/135
l 52 106
