# Blender 3.3.1
# www.blender.org
mtllib monstruo_3_grande_caminar561.mtl
o monstruo_grande
v 0.542440 1.951381 0.378747
v 0.527721 1.105759 0.051770
v -0.606958 1.859092 0.125985
v -0.280374 1.212737 0.221494
v 0.862590 2.205997 0.143039
v 0.638570 1.570761 -0.214443
v -0.656621 2.067093 -0.317205
v -0.635352 1.749984 -0.346492
v -0.185476 2.420884 0.440195
v 0.343488 2.261423 0.505629
v -0.334595 2.406401 0.520990
v -0.999198 2.166163 -0.246020
v -0.111835 2.579406 0.089009
v 0.416452 2.379178 0.238623
v -0.889089 2.024730 -0.065982
v -0.263109 2.673871 0.092492
v -0.701538 2.358902 0.469767
v -1.333795 2.115490 -0.046592
v -1.094619 2.134073 0.195893
v -0.798399 2.697160 0.188842
v -0.446629 2.738042 0.138127
v -0.415685 2.367175 0.482549
v -1.015714 2.054256 -0.097844
v -1.831316 0.888723 0.570142
v -1.718486 0.864459 0.641212
v -1.663321 0.691746 0.444310
v -1.732190 0.706557 0.400931
v 0.453408 2.160966 0.517952
v 0.672046 2.337324 0.340465
v 0.446100 2.279426 0.521433
v 0.537722 2.391904 0.308683
v 0.726259 1.892271 0.528557
v 0.939192 1.894477 0.495807
v 0.739528 1.943037 0.563496
v 0.895841 2.035287 0.486779
v 0.760156 1.761719 0.796196
v 0.874211 1.732993 0.784852
v 0.787706 1.808359 0.887603
v 0.897454 1.780350 0.869232
v 0.703697 1.708666 0.932354
v 0.932851 1.651985 0.897544
v 0.690985 1.787663 1.112471
v 1.035210 1.695597 1.054924
v -0.022188 2.449628 0.484839
v 0.183033 2.407516 0.492549
v 0.017296 2.544289 0.238262
v 0.216561 2.495049 0.247434
v 0.031604 2.761906 0.625608
v 0.237036 2.688241 0.608790
v 0.047812 2.865866 0.368274
v 0.253156 2.792192 0.351031
v -0.499084 1.207131 0.038203
v -0.406073 1.183474 -0.183889
v -0.037002 1.277423 -0.334632
v -0.641227 1.898968 -0.101142
v 0.536151 1.195134 -0.170327
v 0.315681 1.235202 -0.279442
v 0.062164 1.519711 -0.321054
v -0.023414 1.115193 0.189383
v 0.660908 2.020300 0.307804
v -0.152823 2.476151 0.317237
v -0.299769 2.653911 0.359902
v -0.809920 2.080852 -0.154669
v 0.360905 2.381975 0.394400
v -0.692415 2.587481 0.435087
v -1.261512 2.255270 0.209058
v -0.451787 2.657623 0.332695
v -1.792502 0.875157 0.633130
v -1.660521 0.585350 0.324653
v 0.573955 2.265471 0.474533
v 0.495679 2.382977 0.436060
v 0.818491 1.850497 0.480225
v 0.830225 2.003333 0.577917
v 0.815475 1.746938 0.787544
v 0.842691 1.793653 0.878411
v 0.811182 1.664793 0.896089
v 0.850175 1.714839 1.049266
v -0.004792 2.495871 0.359747
v 0.197298 2.452924 0.368755
v 0.008372 2.816379 0.496143
v 0.276335 2.737937 0.481102
v -1.578720 1.187196 0.619033
v -1.625897 1.015653 0.538242
v -1.774533 1.200373 0.497944
v -1.732097 1.038491 0.471349
v -1.666723 0.861564 0.428803
v -1.709999 1.173793 0.604107
v -0.004492 1.764304 0.502242
v 0.297137 2.100050 -0.184424
v 0.240598 2.492365 0.070818
v 0.072096 2.286227 0.618820
v 0.110870 2.519395 0.240594
v 0.085946 2.427997 0.487650
v 0.152961 2.844451 0.320670
v 0.131883 2.709484 0.655718
v 0.145832 2.828342 0.509680
v 0.248889 2.654141 0.275051
v 0.225971 2.538658 0.568891
v -0.010169 2.598288 0.577520
v 0.011715 2.716010 0.281583
v -0.016859 2.658619 0.429050
v 0.252182 2.596053 0.422089
v 0.130632 2.692958 0.257499
v 0.107266 2.559741 0.593301
v 0.632072 1.593086 0.104057
v -0.551282 1.570331 0.170979
v 0.729199 1.768762 -0.151306
v 0.172573 1.059144 0.177105
v -0.236344 0.075557 0.367136
v -0.380294 0.124058 0.480437
v -0.407033 0.033810 0.247126
v -0.271896 0.024869 0.234103
v 0.332359 -0.077930 -0.151623
v 0.257910 -0.087515 -0.226417
v 0.341216 -0.080909 -0.190113
v 0.309346 -0.085091 -0.215840
v 0.273463 -0.078965 -0.140581
v 0.073391 0.857664 -0.220037
v 0.147313 0.545502 -0.200692
v 0.193861 0.239920 -0.192562
v 0.228744 0.202404 -0.017978
v 0.205975 0.441712 0.077286
v 0.206992 0.713746 0.138198
v 0.350780 0.207321 -0.043035
v 0.412145 0.454663 0.034171
v 0.490893 0.795359 0.075729
v 0.328391 0.883249 -0.204565
v 0.327180 0.539079 -0.172238
v 0.300875 0.235830 -0.173524
v 0.368004 0.225445 -0.121768
v 0.441190 0.522851 -0.089007
v 0.503589 0.868842 -0.103100
v -0.162300 0.966633 0.356960
v -0.164071 0.705521 0.400803
v -0.174006 0.480363 0.474965
v -0.459677 0.478440 0.465866
v -0.455277 0.724216 0.343125
v -0.460980 0.956980 0.260938
v -0.492963 0.412963 0.204597
v -0.490190 0.664436 0.075800
v -0.502010 0.918870 -0.016297
v -0.112250 0.839363 -0.068806
v -0.149586 0.611477 0.039839
v -0.199601 0.428606 0.161611
vn 0.0955 0.5534 -0.8274
vn 0.0224 0.0274 -0.9994
vn 0.4017 -0.2141 -0.8904
vn -0.3738 -0.2113 0.9031
vn 0.9164 -0.3298 0.2269
vn 0.6709 0.6882 0.2762
vn 0.2985 0.8704 -0.3915
vn 0.3116 -0.2244 0.9234
vn -0.0653 0.9108 0.4077
vn 0.0767 0.5233 -0.8487
vn -0.3619 -0.4204 0.8320
vn -0.4645 -0.8268 -0.3174
vn -0.3998 -0.1245 0.9081
vn 0.1375 -0.9025 0.4083
vn 0.8819 -0.2835 0.3768
vn -0.1765 -0.7593 0.6264
vn 0.2051 0.9524 0.2255
vn -0.1352 -0.7553 0.6412
vn -0.7913 0.2715 0.5479
vn 0.9857 0.0044 -0.1686
vn -0.7514 0.0646 -0.6567
vn 0.4530 0.7539 0.4758
vn -0.0540 0.2397 0.9693
vn -0.5061 -0.4647 0.7266
vn -0.2235 0.6797 0.6986
vn -0.9688 0.1465 0.2000
vn 0.1648 -0.6894 -0.7053
vn 0.8070 0.5563 0.1982
vn -0.5777 -0.5633 0.5908
vn 0.8596 0.1279 -0.4947
vn -0.2771 0.8298 0.4844
vn 0.9903 0.0548 0.1274
vn 0.1792 -0.9064 -0.3824
vn -0.1057 -0.9377 0.3309
vn -0.1245 -0.8129 -0.5689
vn -0.7924 0.5690 -0.2200
vn 0.4479 0.8380 0.3117
vn 0.9925 -0.0460 -0.1135
vn 0.2974 0.5445 0.7843
vn 0.2442 0.9694 0.0250
vn -0.2342 0.9154 0.3274
vn 0.4349 0.8678 0.2406
vn 0.0677 0.9750 0.2118
vn -0.9757 0.1444 0.1647
vn 0.2268 -0.3391 0.9130
vn -0.1844 0.4661 -0.8653
vn -0.8475 -0.4317 -0.3089
vn -0.9541 -0.2075 0.2160
vn 0.2434 0.2053 -0.9480
vn -0.9564 0.2586 -0.1359
vn 0.0466 0.8462 0.5308
vn 0.4129 0.7168 0.5618
vn -0.1982 0.9118 0.3597
vn 0.9711 -0.1731 0.1642
vn 0.1303 0.9202 0.3691
vn -0.4128 -0.7500 -0.5168
vn -0.2548 -0.8948 0.3665
vn -0.4438 -0.8380 -0.3174
vn 0.3187 0.7867 0.5287
vn -0.1493 -0.8739 -0.4626
vn -0.0547 0.9985 0.0027
vn 0.4408 0.6493 0.6197
vn 0.3574 0.2626 0.8963
vn -0.2320 0.2662 -0.9356
vn -0.1121 0.1214 0.9863
vn -0.7328 -0.6268 0.2648
vn -0.3048 0.4761 0.8249
vn -0.6724 0.7137 0.1960
vn -0.4583 -0.8111 -0.3636
vn 0.1088 0.3380 0.9348
vn 0.5536 0.5008 0.6653
vn 0.1126 0.3268 0.9384
vn -0.2554 0.6521 -0.7138
vn -0.8643 0.4696 0.1799
vn 0.8941 -0.3331 0.2993
vn 0.4960 0.6930 0.5232
vn 0.3466 0.3803 -0.8575
vn -0.3018 -0.2596 0.9174
vn 0.5184 0.8402 0.1592
vn 0.4169 0.9079 0.0429
vn -0.1559 0.5710 0.8060
vn -0.5546 -0.0746 0.8288
vn 0.3951 0.7116 -0.5810
vn -0.2127 -0.5473 0.8095
vn 0.1382 0.1101 -0.9843
vn 0.9401 -0.3406 0.0112
vn -0.9833 0.0093 -0.1816
vn -0.0614 0.1740 -0.9828
vn -0.0338 -0.5633 0.8256
vn -0.9993 0.0168 -0.0326
vn 0.9629 -0.2666 -0.0422
vn -0.1007 -0.9851 -0.1392
vn 0.2225 -0.1139 0.9683
vn -0.9632 -0.2139 0.1628
vn -0.9624 -0.2028 0.1807
vn 0.9824 -0.1593 -0.0980
vn -0.1260 -0.1463 -0.9812
vn -0.0274 -0.9314 0.3630
vn 0.0355 -0.9948 0.0952
vn 0.1938 -0.3629 0.9115
vn 0.1834 0.1349 -0.9737
vn 0.9709 -0.1336 0.1987
vn 0.6166 0.1193 -0.7782
vn 0.4394 -0.1965 -0.8765
vn 0.5273 -0.1053 -0.8431
vn 0.5918 -0.0524 -0.8044
vn 0.9942 -0.1071 0.0089
vn 0.9784 -0.2027 0.0401
vn 0.9597 -0.2591 0.1092
vn 0.1067 -0.2210 -0.9694
vn 0.1032 -0.0667 -0.9924
vn 0.1631 -0.0057 -0.9866
vn 0.2861 -0.0229 0.9579
vn 0.2418 -0.1906 0.9514
vn 0.2089 -0.3414 0.9164
vn -0.9395 -0.1472 0.3093
vn -0.9617 -0.1369 0.2373
vn -0.9766 -0.1491 0.1553
vn -0.2196 -0.4729 -0.8533
vn -0.1776 -0.3701 -0.9119
vn -0.1361 -0.4826 -0.8652
vn 0.9393 0.2154 0.2670
vn 0.9942 -0.0497 0.0955
vn 0.9902 -0.1389 0.0137
vn -0.9938 0.0304 -0.1072
vn -0.9906 0.0130 0.1358
vn -0.9913 0.0705 0.1112
vn -0.4384 0.4312 0.7886
vn -0.2415 0.2381 0.9407
vn -0.0950 0.3865 0.9174
vn 0.3514 -0.3459 0.8700
vn 0.5500 0.3818 -0.7428
vn -0.0578 -0.4567 -0.8877
vn -0.1580 -0.7838 -0.6005
vn -0.7125 -0.0721 -0.6979
vt 0.882279 0.260085
vt 0.436089 0.649131
vt 0.117664 0.305524
vt 0.860974 0.338762
vt 0.079561 0.383885
vt 0.278417 0.728674
vt 0.111517 0.716819
vt 0.301243 0.337859
vt 0.232943 0.387386
vt 0.111517 0.662267
vt 0.671871 0.687525
vt 0.175114 0.511099
vt 0.930991 0.712692
vt 0.796001 0.259488
vt 0.522181 0.649131
vt 0.719621 0.316178
vt 0.801110 0.310020
vt 0.698705 0.366293
vt 0.510656 0.337024
vt 0.023033 0.717149
vt 0.367094 0.730187
vt 0.507246 0.358198
vt 0.018976 0.695717
vt 0.103380 0.570561
vt 0.268725 0.266033
vt 0.143950 0.273348
vt 0.098384 0.631539
vt 0.301351 0.259488
vt 0.128079 0.559933
vt 0.480438 0.333338
vt 0.348619 0.714075
vt 0.604958 0.268707
vt 0.031105 0.562973
vt 0.043818 0.625810
vt 0.721993 0.282954
vt 0.329365 0.336360
vt 0.302724 0.713315
vt 0.030374 0.549675
vt 0.582817 0.260846
vt 0.875347 0.642471
vt 0.380514 0.272320
vt 0.124895 0.517524
vt 0.813390 0.578569
vt 0.436089 0.332372
vt 0.956124 0.588845
vt 0.367094 0.692599
vt 0.367094 0.522797
vt 0.871643 0.594841
vt 0.398138 0.324445
vt 0.043891 0.509019
vt 0.796001 0.641153
vt 0.491075 0.268473
vt 0.032114 0.534706
vt 0.552485 0.259488
vt 0.331566 0.259909
vt 0.129819 0.544964
vt 0.339759 0.337186
vt 0.913298 0.588845
vt 0.317584 0.707220
vt 0.845734 0.463378
vt 0.311567 0.646434
vt 0.944558 0.353645
vt 0.398138 0.462439
vt 0.920230 0.354337
vt 0.870057 0.463781
vt 0.929709 0.374247
vt 0.357807 0.478584
vt 0.347994 0.663056
vt 0.944558 0.373825
vt 0.097076 0.285727
vt 0.229765 0.651022
vt 0.758050 0.297859
vt 0.168317 0.651042
vt 0.119329 0.272208
vt 0.094178 0.643292
vt 0.222768 0.636959
vt 0.746872 0.283208
vt 0.174541 0.636975
vt 0.045175 0.638147
vt 0.080672 0.327471
vt 0.442544 0.673801
vt 0.734592 0.339187
vt 0.484453 0.673801
vt 0.070725 0.319456
vt 0.218298 0.685110
vt 0.751374 0.331694
vt 0.180611 0.684911
vt 0.062412 0.356092
vt 0.455575 0.702696
vt 0.724658 0.367821
vt 0.476314 0.702696
vt 0.043357 0.357400
vt 0.210236 0.723455
vt 0.742364 0.370210
vt 0.189444 0.723462
vt 0.050281 0.367705
vt 0.444942 0.715336
vt 0.810526 0.722486
vt 0.728448 0.380153
vt 0.853695 0.722486
vt 0.487920 0.715336
vt 0.018975 0.371756
vt 0.232852 0.738567
vt 0.796001 0.739289
vt 0.758050 0.386241
vt 0.861207 0.739289
vt 0.167770 0.738589
vt 0.100634 0.583041
vt 0.712300 0.698974
vt 0.802197 0.701507
vt 0.098640 0.600731
vt 0.972705 0.287497
vt 0.747907 0.696578
vt 0.052045 0.577939
vt 0.849895 0.701507
vt 0.710445 0.675017
vt 0.050052 0.595630
vt 0.746553 0.677603
vt 0.924885 0.287497
vt 0.797725 0.671259
vt 0.981025 0.313792
vt 0.715147 0.730011
vt 0.752543 0.724602
vt 0.973919 0.259495
vt 0.967002 0.332143
vt 0.934252 0.306472
vt 0.715328 0.644023
vt 0.847669 0.671259
vt 0.923848 0.259495
vt 0.753088 0.649631
vt 0.920230 0.324823
vt 0.068284 0.665533
vt 0.630362 0.705721
vt 0.712055 0.621316
vt 0.966165 0.712391
vt 0.519769 0.388732
vt 0.031375 0.663704
vt 0.592215 0.695479
vt 0.581836 0.620019
vt 0.750017 0.621843
vt 0.569690 0.667298
vt 0.581066 0.387596
vt 0.531739 0.516092
vt 0.642835 0.625048
vt 0.273616 0.509019
vt 0.070982 0.710642
vt 0.316851 0.732164
vt 0.684917 0.393810
vt 0.816625 0.338063
vt 0.644803 0.392946
vt 0.602800 0.367236
vt 0.671871 0.661666
vt 0.181146 0.386242
vt 0.855113 0.259897
vt 0.463196 0.649131
vt 0.077903 0.567886
vt 0.078993 0.554271
vt 0.322237 0.720993
vt 0.070972 0.628379
vt 0.834014 0.651825
vt 0.084160 0.512738
vt 0.838315 0.596273
vt 0.320679 0.509019
vt 0.080733 0.539302
vt 0.857365 0.464048
vt 0.931678 0.351118
vt 0.335174 0.488977
vt 0.367094 0.673623
vt 0.939667 0.384854
vt 0.199177 0.651021
vt 0.069465 0.641494
vt 0.198664 0.632807
vt 0.464209 0.672968
vt 0.199604 0.684998
vt 0.465945 0.702696
vt 0.199840 0.723459
vt 0.466714 0.715004
vt 0.832520 0.720483
vt 0.200177 0.738589
vt 0.829423 0.735282
vt 0.076340 0.580490
vt 0.826046 0.701507
vt 0.074346 0.598181
vt 0.948795 0.287497
vt 0.823088 0.670800
vt 0.959731 0.307426
vt 0.948976 0.259488
vt 0.941524 0.331189
vt 0.875347 0.491894
vt 0.391834 0.432095
vt 0.377694 0.448634
vt 0.915590 0.478791
vt 0.834644 0.488373
vt 0.326937 0.619279
vt 0.938593 0.478810
vt 0.335216 0.632947
vt 0.358601 0.463790
vt 0.348787 0.648138
vt 0.927106 0.463378
vt 0.854274 0.489560
vt 0.315804 0.619182
vt 0.212520 0.321385
vt 0.644070 0.318501
vt 0.018976 0.592450
vt 0.663817 0.276029
vt 0.129819 0.597828
vt 0.224108 0.269832
vt 0.051049 0.586785
vt 0.728499 0.676310
vt 0.099637 0.591886
vt 0.730103 0.697776
vt 0.734390 0.646904
vt 0.920230 0.314550
vt 0.981025 0.324065
vt 0.732426 0.727384
vt 0.950683 0.319044
vt 0.753088 0.663662
vt 0.920230 0.273492
vt 0.977552 0.273492
vt 0.752543 0.710647
vt 0.709822 0.714522
vt 0.796001 0.686127
vt 0.853178 0.686127
vt 0.709822 0.659561
vt 0.824792 0.685890
vt 0.948939 0.273488
vt 0.731549 0.661651
vt 0.730449 0.712624
vt 0.878850 0.297575
vt 0.096711 0.342677
vt 0.285581 0.357771
vt 0.108549 0.696221
vt 0.804979 0.293594
vt 0.708839 0.350023
vt 0.668288 0.644023
vt 0.436089 0.526409
vt 0.145034 0.385321
vt 0.919159 0.607821
vt 0.247387 0.613831
vt 0.970304 0.416607
vt 0.947808 0.608020
vt 0.704660 0.516092
vt 0.970304 0.403829
vt 0.750017 0.516884
vt 0.618892 0.516092
vt 0.920230 0.404231
vt 0.273616 0.612878
vt 0.642836 0.516847
vt 0.938584 0.415207
vt 0.924281 0.443436
vt 0.075400 0.489812
vt 0.855524 0.444402
vt 0.531739 0.629156
vt 0.934913 0.435583
vt 0.576828 0.496673
vt 0.931440 0.443424
vt 0.848383 0.444289
vt 0.592622 0.497116
vt 0.934913 0.440184
vt 0.586164 0.496977
vt 0.517161 0.630156
vt 0.920230 0.438606
vt 0.085942 0.490043
vt 0.585376 0.420489
vt 0.510472 0.551446
vt 0.582586 0.444044
vt 0.504260 0.576063
vt 0.581388 0.469636
vt 0.508131 0.602400
vt 0.103684 0.463024
vt 0.477645 0.604263
vt 0.118194 0.440373
vt 0.454885 0.581958
vt 0.129418 0.415411
vt 0.438452 0.557360
vt 0.876897 0.417052
vt 0.081901 0.462161
vt 0.882279 0.393921
vt 0.081653 0.438865
vt 0.880271 0.363315
vt 0.079604 0.408162
vt 0.633117 0.418943
vt 0.615530 0.444447
vt 0.600997 0.469910
vt 0.614559 0.469949
vt 0.862035 0.416811
vt 0.638313 0.444473
vt 0.857648 0.390640
vt 0.666106 0.417503
vt 0.844696 0.362700
vt 0.167770 0.536691
vt 0.914144 0.688660
vt 0.182151 0.561697
vt 0.913298 0.663084
vt 0.189855 0.582503
vt 0.915415 0.641729
vt 0.680787 0.549268
vt 0.966165 0.641681
vt 0.684678 0.573659
vt 0.963812 0.665813
vt 0.684995 0.596421
vt 0.964308 0.688427
vt 0.584794 0.548886
vt 0.729850 0.550060
vt 0.578610 0.572959
vt 0.734888 0.574452
vt 0.569690 0.595426
vt 0.736445 0.597214
vt 0.642060 0.590920
vt 0.247172 0.543053
vt 0.641052 0.570535
vt 0.248998 0.562413
vt 0.635978 0.552556
vt 0.245738 0.579271
s 0
usemtl Material
f 89/203/1 7/19/1 13/32/1 90/205/1
f 8/22/2 7/19/2 89/203/2 58/151/2 54/142/2 53/136/2
f 6/18/3 56/148/3 57/150/3
f 3/8/4 106/231/4 4/9/4 59/153/4 88/202/4
f 6/17/5 107/233/5 5/14/5 60/154/5 1/1/5 105/229/5 2/4/5 56/149/5
f 61/156/6 13/33/6 16/38/6 62/157/6
f 5/16/7 14/35/7 31/77/7 29/72/7
f 88/202/8 1/3/8 10/26/8 91/207/8
f 67/164/9 21/53/9 20/50/9 65/161/9
f 13/32/10 7/19/10 12/30/10 16/39/10
f 3/8/11 9/25/11 11/28/11 15/36/11
f 55/147/12 3/6/12 15/37/12 63/158/12
f 66/162/13 19/48/13 17/40/13 65/160/13
f 23/57/14 22/55/14 17/41/14 19/49/14
f 83/191/15 82/190/15 25/63/15 26/67/15
f 15/36/16 11/28/16 22/55/16 23/57/16
f 62/157/17 16/38/17 21/53/17 67/164/17
f 69/169/18 26/66/18 25/64/18 68/166/18
f 87/200/19 84/193/19 24/60/19 68/165/19
f 86/197/20 83/191/20 26/67/20 69/167/20
f 84/194/21 85/196/21 27/68/21 24/61/21
f 70/170/22 29/73/22 31/78/22 71/172/22
f 70/170/23 28/71/23 34/85/23 73/174/23
f 10/26/24 1/3/24 28/70/24 30/74/24
f 64/159/25 10/27/25 30/75/25 71/171/25
f 34/84/26 32/80/26 36/88/26 38/92/26
f 60/155/27 5/15/27 33/83/27 72/173/27
f 5/16/28 29/72/28 35/86/28 33/82/28
f 28/70/29 1/3/29 32/80/29 34/84/29
f 37/90/30 39/94/30 43/105/30 41/99/30
f 73/174/31 34/85/31 38/93/31 75/176/31
f 33/82/32 35/86/32 39/94/32 37/90/32
f 72/173/33 33/83/33 37/91/33 74/175/33
f 76/178/34 41/100/34 43/106/34 77/180/34
f 74/175/35 37/91/35 41/101/35 76/177/35
f 38/92/36 36/88/36 40/96/36 42/102/36
f 75/176/37 38/93/37 42/103/37 77/179/37
f 102/226/38 97/218/38 51/129/38 81/187/38
f 91/206/39 10/27/39 45/111/39 93/210/39
f 90/204/40 13/33/40 46/114/40 92/208/40
f 61/156/41 9/24/41 44/108/41 78/181/41
f 64/159/42 14/34/42 47/117/42 79/183/42
f 96/216/43 94/213/43 50/126/43 80/186/43
f 101/225/44 99/222/44 48/120/44 80/185/44
f 104/228/45 98/220/45 49/123/45 95/215/45
f 103/227/46 100/224/46 50/127/46 94/212/46
f 8/23/47 53/137/47 52/132/47
f 8/23/48 52/132/48 4/10/48 106/232/48 3/7/48 55/146/48 7/20/48
f 54/142/49 58/151/49 89/203/49 5/16/49 107/234/49 6/18/49 57/150/49
f 100/223/50 101/225/50 80/185/50 50/128/50
f 95/214/51 96/216/51 80/186/51 48/121/51
f 10/27/52 64/159/52 79/183/52 45/111/52
f 13/33/53 61/156/53 78/181/53 46/114/53
f 98/219/54 102/226/54 81/187/54 49/124/54
f 39/95/55 75/176/55 77/179/55 43/107/55
f 36/89/56 74/175/56 76/177/56 40/97/56
f 40/98/57 76/178/57 77/180/57 42/104/57
f 32/81/58 72/173/58 74/175/58 36/89/58
f 35/87/59 73/174/59 75/176/59 39/95/59
f 1/2/60 60/155/60 72/173/60 32/81/60
f 14/34/61 64/159/61 71/171/61 31/79/61
f 29/73/62 70/170/62 73/174/62 35/87/62
f 28/71/63 70/170/63 71/172/63 30/76/63
f 85/196/64 86/198/64 69/168/64 27/68/64
f 82/189/65 87/200/65 68/165/65 25/65/65
f 27/69/66 69/169/66 68/166/66 24/62/66
f 11/29/67 62/157/67 67/164/67 22/56/67
f 18/43/68 66/162/68 65/160/68 20/51/68
f 7/21/69 55/147/69 63/158/69 12/31/69
f 22/56/70 67/164/70 65/161/70 17/42/70
f 9/24/71 61/156/71 62/157/71 11/29/71
f 19/48/72 66/162/72 87/200/72 82/189/72
f 12/30/73 18/44/73 20/52/73 21/54/73 16/39/73
f 66/163/74 18/47/74 84/194/74 87/201/74
f 23/57/75 19/49/75 82/190/75 83/191/75
f 49/125/76 81/188/76 96/216/76 95/214/76
f 97/217/77 103/227/77 94/212/77 51/130/77
f 99/221/78 104/228/78 95/215/78 48/122/78
f 81/188/79 51/131/79 94/213/79 96/216/79
f 14/34/80 90/204/80 92/208/80 47/117/80
f 9/24/81 91/206/81 93/210/81 44/108/81
f 3/8/82 88/202/82 91/207/82 9/25/82
f 5/16/83 89/203/83 90/205/83 14/35/83
f 44/109/84 93/211/84 104/228/84 99/221/84
f 47/118/85 92/209/85 103/227/85 97/217/85
f 45/112/86 79/184/86 102/226/86 98/219/86
f 46/115/87 78/182/87 101/225/87 100/223/87
f 92/209/88 46/116/88 100/224/88 103/227/88
f 93/211/89 45/113/89 98/220/89 104/228/89
f 78/182/90 44/110/90 99/222/90 101/225/90
f 79/184/91 47/119/91 97/218/91 102/226/91
f 59/152/92 4/11/92 52/133/92 53/138/92 54/141/92 108/235/92
f 136/298/93 110/241/93 109/238/93 135/296/93
f 121/271/94 120/269/94 114/253/94 117/261/94
f 139/304/95 111/244/95 110/242/95 136/297/95
f 135/295/96 109/239/96 112/247/96 144/314/96
f 144/313/97 112/248/97 111/245/97 139/303/97
f 111/246/98 112/249/98 109/240/98 110/243/98
f 117/262/99 114/254/99 116/259/99 115/256/99 113/250/99
f 124/277/100 121/270/100 117/263/100 113/251/100
f 120/268/101 129/284/101 116/260/101 114/255/101
f 130/286/102 124/276/102 113/252/102 115/257/102
f 129/284/103 130/285/103 115/258/103 116/260/103
f 57/150/104 56/148/104 132/289/104 127/282/104
f 127/282/105 132/289/105 131/287/105 128/283/105
f 128/283/106 131/287/106 130/285/106 129/284/106
f 56/149/107 2/4/107 126/280/107 132/290/107
f 132/290/108 126/280/108 125/278/108 131/288/108
f 131/288/109 125/278/109 124/276/109 130/286/109
f 54/142/110 57/150/110 127/282/110 118/264/110
f 118/264/111 127/282/111 128/283/111 119/266/111
f 119/266/112 128/283/112 129/284/112 120/268/112
f 2/5/113 108/237/113 123/274/113 126/281/113
f 126/281/114 123/274/114 122/272/114 125/279/114
f 125/279/115 122/272/115 121/270/115 124/277/115
f 108/236/116 54/143/116 118/265/116 123/275/116
f 123/275/117 118/265/117 119/267/117 122/273/117
f 122/273/118 119/267/118 120/269/118 121/271/118
f 54/144/119 142/309/119 141/307/119 53/139/119
f 142/309/120 143/311/120 140/305/120 141/307/120
f 143/311/121 144/313/121 139/303/121 140/305/121
f 4/12/122 133/291/122 142/310/122 54/145/122
f 133/291/123 134/293/123 143/312/123 142/310/123
f 134/293/124 135/295/124 144/314/124 143/312/124
f 53/140/125 141/308/125 138/301/125 52/134/125
f 141/308/126 140/306/126 137/299/126 138/301/126
f 140/306/127 139/304/127 136/297/127 137/299/127
f 52/135/128 138/302/128 133/292/128 4/13/128
f 138/302/129 137/300/129 134/294/129 133/292/129
f 137/300/130 136/298/130 135/296/130 134/294/130
f 105/230/131 1/3/131 88/202/131 59/153/131 108/237/131 2/5/131
f 86/199/132 85/195/132 83/192/132
f 83/192/133 85/195/133 18/45/133 23/58/133
f 63/158/134 15/37/134 23/59/134 18/46/134 12/31/134
f 84/194/135 18/47/135 85/196/135
l 52 106
