# Blender 3.3.1
# www.blender.org
mtllib monstruo_3_caminar513.mtl
o monstruo_grande
v 0.439213 1.992114 0.235584
v 0.518670 1.165448 0.114224
v -0.688213 1.811057 0.171165
v -0.315339 1.125681 0.200778
v 0.590585 2.272386 -0.116202
v 0.548129 1.584436 -0.232341
v -0.800662 2.049045 -0.236661
v -0.711846 1.755816 -0.309338
v -0.251249 2.404127 0.473123
v 0.298946 2.274704 0.432123
v -0.384869 2.375129 0.569805
v -1.171205 2.131928 -0.076768
v -0.236094 2.578889 0.120366
v 0.299136 2.419406 0.172968
v -1.027334 1.983205 0.063321
v -0.392304 2.661411 0.149346
v -0.739593 2.307400 0.586033
v -1.456012 2.059964 0.201509
v -1.171523 2.076477 0.390595
v -0.904724 2.653254 0.351115
v -0.570387 2.712930 0.229356
v -0.462841 2.330342 0.540224
v -1.156322 2.012817 0.072531
v -1.789293 0.802212 0.876070
v -1.663541 0.777763 0.920330
v -1.659574 0.593375 0.726349
v -1.736330 0.608298 0.699334
v 0.458077 2.186405 0.414929
v 0.553521 2.378321 0.152823
v 0.415643 2.299783 0.426998
v 0.431030 2.434681 0.200298
v 0.692005 1.865019 0.212517
v 0.798826 1.970679 0.036603
v 0.712758 1.947722 0.264916
v 0.788864 2.064568 0.110746
v 0.865836 1.653393 0.127380
v 0.942748 1.689439 0.051130
v 0.945047 1.600640 0.172809
v 1.019592 1.648576 0.098271
v 0.866265 1.497241 0.126971
v 1.025236 1.593430 -0.025037
v 0.963615 1.363469 0.234080
v 1.195353 1.507472 -0.002223
v -0.086966 2.441953 0.495403
v 0.122031 2.409666 0.478291
v -0.080689 2.548487 0.249972
v 0.118100 2.513289 0.236007
v -0.042424 2.759512 0.630455
v 0.164988 2.699015 0.595350
v -0.055463 2.863950 0.373480
v 0.152003 2.803502 0.338818
v -0.505487 1.171077 -0.026303
v -0.375655 1.209992 -0.228326
v -0.041145 1.274763 -0.334527
v -0.743281 1.861828 -0.045592
v 0.553083 1.164640 -0.122244
v 0.340131 1.163794 -0.258186
v 0.017308 1.521312 -0.329064
v -0.030607 1.144014 0.193282
v 0.491417 2.075910 0.117604
v -0.239517 2.465525 0.349167
v -0.390458 2.630516 0.418427
v -0.955445 2.045122 -0.049037
v 0.280483 2.404802 0.333293
v -0.746778 2.537305 0.562180
v -1.336237 2.188309 0.445681
v -0.543254 2.624210 0.413278
v -1.737151 0.790571 0.929021
v -1.687062 0.480944 0.615673
v 0.543357 2.293612 0.312172
v 0.427038 2.412003 0.336549
v 0.700353 1.901932 0.084515
v 0.792280 2.018135 0.217187
v 0.903225 1.675455 0.089639
v 0.982064 1.623642 0.135063
v 0.925536 1.552904 0.036519
v 1.044607 1.451459 0.091469
v -0.085505 2.494198 0.372115
v 0.118179 2.462569 0.356759
v -0.080358 2.812206 0.503756
v 0.189808 2.750764 0.465256
v -1.525910 1.093940 0.847696
v -1.594313 0.920199 0.790120
v -1.744277 1.106277 0.774239
v -1.712676 0.943210 0.748462
v -1.662852 0.762191 0.702242
v -1.657305 1.084309 0.864413
v -0.028661 1.771953 0.505249
v 0.137991 2.138941 -0.207506
v 0.118897 2.520648 0.056598
v 0.057874 2.271210 0.609021
v 0.015260 2.530016 0.242246
v 0.021851 2.428223 0.487016
v 0.046368 2.849385 0.317580
v 0.063235 2.713609 0.651423
v 0.056725 2.832894 0.505212
v 0.149089 2.666715 0.263464
v 0.160527 2.547582 0.556400
v -0.077497 2.592986 0.586152
v -0.089598 2.713268 0.291847
v -0.101014 2.653028 0.439848
v 0.169863 2.607227 0.408681
v 0.028026 2.698050 0.257311
v 0.042900 2.562225 0.590965
v 0.452125 1.678815 -0.012157
v -0.582226 1.512900 0.201235
v 0.556991 1.797706 -0.230878
v 0.162327 1.161254 0.204376
v -0.246840 0.080900 -0.282454
v -0.402707 0.069277 -0.175544
v -0.403506 0.109188 -0.423169
v -0.267543 0.104581 -0.425265
v 0.310179 -0.007187 0.226938
v 0.238364 -0.023766 0.151151
v 0.320393 -0.013315 0.189098
v 0.289443 -0.019875 0.162807
v 0.250905 -0.007650 0.236256
v 0.084086 0.837950 -0.076299
v 0.134183 0.581855 0.047740
v 0.174542 0.290932 0.133811
v 0.203588 0.300921 0.313026
v 0.181926 0.557145 0.340275
v 0.185601 0.835552 0.326501
v 0.326381 0.298011 0.291624
v 0.389198 0.557412 0.304168
v 0.475058 0.889826 0.260053
v 0.339985 0.857618 -0.042403
v 0.312846 0.582290 0.083652
v 0.280868 0.291060 0.156677
v 0.346243 0.294332 0.211524
v 0.423630 0.589044 0.172636
v 0.505366 0.885936 0.070961
v -0.222261 0.836281 0.255825
v -0.208015 0.554299 0.131225
v -0.212955 0.328769 0.034503
v -0.495525 0.342940 -0.006024
v -0.490748 0.611355 0.061102
v -0.498473 0.866032 0.111108
v -0.497871 0.453890 -0.251981
v -0.491723 0.720377 -0.184842
v -0.488203 0.923884 -0.158785
v -0.094812 0.860255 -0.160506
v -0.147278 0.686465 -0.200159
v -0.202607 0.483378 -0.242392
vn -0.0360 0.5773 -0.8157
vn -0.0326 0.0894 -0.9955
vn 0.5267 -0.2098 -0.8238
vn -0.2892 -0.2613 0.9209
vn 0.9551 -0.0392 0.2937
vn 0.6534 0.7265 0.2126
vn 0.1141 0.9062 -0.4072
vn 0.5720 -0.2596 0.7781
vn -0.0084 0.8862 0.4632
vn -0.1072 0.5804 -0.8073
vn -0.1728 -0.5048 0.8458
vn -0.4711 -0.8269 -0.3072
vn -0.1902 -0.1838 0.9644
vn 0.2614 -0.9135 0.3119
vn 0.9392 -0.2939 0.1778
vn 0.0015 -0.8094 0.5873
vn 0.1845 0.9531 0.2399
vn 0.0020 -0.7163 0.6978
vn -0.6380 0.3273 0.6970
vn 0.9190 -0.0382 -0.3924
vn -0.8822 0.0562 -0.4675
vn 0.6205 0.7271 0.2939
vn 0.5624 0.1647 0.8103
vn -0.2041 -0.5284 0.8241
vn -0.0696 0.6128 0.7871
vn -0.4848 -0.5644 0.6682
vn -0.3804 -0.5252 -0.7613
vn 0.8109 0.5471 -0.2075
vn -0.1821 -0.6155 0.7668
vn 0.5037 0.7970 -0.3334
vn 0.5319 0.1053 0.8403
vn 0.7249 0.3878 -0.5693
vn -0.3763 -0.2911 -0.8796
vn -0.2136 -0.6370 -0.7407
vn -0.6167 0.1602 -0.7707
vn -0.5912 0.0954 0.8009
vn 0.7692 0.1789 0.6134
vn 0.9788 0.0163 -0.2043
vn 0.4290 0.5071 0.7476
vn 0.1733 0.9842 0.0372
vn -0.2413 0.8866 0.3946
vn 0.4412 0.8673 0.2307
vn 0.0230 0.9773 0.2108
vn -0.9646 0.0817 0.2509
vn 0.3253 -0.3189 0.8902
vn -0.2881 0.4478 -0.8465
vn -0.6819 -0.4993 -0.5344
vn -0.9181 -0.3585 0.1688
vn 0.1415 0.0989 -0.9850
vn -0.9794 0.1961 -0.0489
vn 0.0393 0.8482 0.5281
vn 0.4997 0.6906 0.5229
vn -0.2013 0.8857 0.4184
vn 0.9911 -0.1075 0.0787
vn 0.5568 0.0420 0.8296
vn -0.8108 0.0459 -0.5835
vn -0.3085 -0.7156 -0.6267
vn -0.7301 -0.5549 -0.3989
vn 0.8346 0.3873 0.3917
vn -0.5202 -0.7091 -0.4760
vn -0.0927 0.9888 0.1172
vn 0.7703 0.5638 0.2978
vn 0.6401 0.3293 0.6942
vn -0.4382 0.2257 -0.8701
vn 0.1238 0.1756 0.9766
vn -0.6640 -0.5868 0.4633
vn -0.2242 0.4123 0.8830
vn -0.6411 0.6708 0.3728
vn -0.4676 -0.7872 -0.4022
vn 0.2956 0.3096 0.9037
vn 0.6020 0.5172 0.6084
vn 0.3160 0.2784 0.9070
vn -0.4221 0.6771 -0.6028
vn -0.8243 0.4246 0.3746
vn 0.9444 -0.3214 0.0693
vn 0.4948 0.7239 0.4809
vn 0.2426 0.3985 -0.8845
vn -0.2005 -0.2749 0.9403
vn 0.4765 0.8711 0.1189
vn 0.3712 0.9277 0.0397
vn -0.0879 0.4991 0.8621
vn -0.4499 -0.1134 0.8858
vn 0.1682 0.7581 -0.6301
vn -0.0948 -0.5546 0.8267
vn 0.0270 0.1275 -0.9915
vn 0.9601 -0.2645 -0.0910
vn -0.9956 -0.0480 -0.0802
vn -0.1658 0.1682 -0.9717
vn 0.0768 -0.5663 0.8206
vn -0.9969 -0.0504 0.0606
vn 0.9606 -0.2219 -0.1673
vn 0.0780 -0.9715 -0.2238
vn 0.1071 -0.6717 0.7331
vn -0.9671 -0.1887 0.1708
vn -0.9649 -0.2529 -0.0711
vn 0.9924 -0.1023 -0.0679
vn -0.0097 0.4392 -0.8983
vn -0.0356 -0.9867 -0.1587
vn 0.0386 -0.9827 0.1809
vn 0.1597 -0.2140 0.9637
vn 0.2145 -0.0118 -0.9767
vn 0.9619 -0.1021 0.2538
vn 0.6441 0.0022 -0.7649
vn 0.4963 -0.5244 -0.6919
vn 0.5752 -0.3946 -0.7166
vn 0.6199 -0.2573 -0.7413
vn 0.9861 -0.0703 0.1507
vn 0.9607 -0.2152 0.1754
vn 0.9495 -0.2301 0.2132
vn 0.0708 -0.5280 -0.8463
vn 0.1630 -0.4143 -0.8954
vn 0.1958 -0.2559 -0.9467
vn 0.1826 0.3950 0.9003
vn 0.1950 0.0642 0.9787
vn 0.1703 -0.0893 0.9813
vn -0.9520 -0.0337 0.3042
vn -0.9775 -0.0311 0.2086
vn -0.9831 -0.0945 0.1571
vn -0.1397 -0.2954 -0.9451
vn -0.0001 0.1716 -0.9852
vn -0.0071 0.2277 -0.9737
vn 0.8932 0.1836 0.4104
vn 0.9650 -0.1567 0.2102
vn 0.9873 -0.1529 0.0433
vn -0.9600 0.0771 -0.2692
vn -0.9998 -0.0059 -0.0199
vn -0.9998 0.0168 0.0143
vn -0.6009 0.1528 0.7846
vn -0.3825 -0.3000 0.8739
vn -0.2197 -0.3033 0.9272
vn 0.5327 -0.1893 0.8249
vn 0.3695 0.3241 -0.8709
vn -0.2525 -0.4196 -0.8719
vn -0.2971 -0.7627 -0.5745
vn -0.8346 -0.0755 -0.5457
vt 0.461701 0.809397
vt 0.301930 0.729761
vt 0.094158 0.499911
vt 0.498737 0.648456
vt 0.250869 0.553264
vt 0.714874 0.752530
vt 0.627854 0.740386
vt 0.227533 0.339544
vt 0.300362 0.438253
vt 0.625828 0.633709
vt 0.338991 0.679376
vt 0.653754 0.621457
vt 0.189641 0.785401
vt 0.531284 0.815038
vt 0.232114 0.729761
vt 0.806952 0.326283
vt 0.527824 0.712310
vt 0.703640 0.331352
vt 0.725736 0.123548
vt 0.557184 0.740386
vt 0.714874 0.681901
vt 0.693091 0.138725
vt 0.558638 0.706064
vt 0.944491 0.391302
vt 0.108931 0.369345
vt 0.090202 0.443431
vt 0.952837 0.467016
vt 0.108059 0.346292
vt 0.960024 0.371234
vt 0.653754 0.712739
vt 0.761990 0.055860
vt 0.265996 0.788213
vt 0.829683 0.188590
vt 0.886815 0.394232
vt 0.909606 0.471204
vt 0.826550 0.267021
vt 0.659457 0.749480
vt 0.206417 0.267620
vt 0.238389 0.812575
vt 0.882743 0.373659
vt 0.837846 0.166681
vt 0.102618 0.289588
vt 0.957957 0.321520
vt 0.918648 0.216117
vt 0.803322 0.012950
vt 0.106348 0.638847
vt 0.232551 0.755661
vt 0.798789 0.485160
vt 0.965752 0.239402
vt 0.153968 0.222285
vt 0.894228 0.312474
vt 0.856067 0.102710
vt 0.881967 0.351902
vt 0.842627 0.144082
vt 0.107159 0.331692
vt 0.958812 0.358201
vt 0.199778 0.246429
vt 0.138792 0.619338
vt 0.232114 0.797406
vt 0.967580 0.012950
vt 0.753483 0.682459
vt 0.843831 0.469074
vt 0.256421 0.022764
vt 0.824689 0.472884
vt 0.987050 0.016155
vt 0.832147 0.505580
vt 0.295109 0.018166
vt 0.782932 0.707368
vt 0.843831 0.503254
vt 0.076417 0.467161
vt 0.958695 0.494573
vt 0.833773 0.298242
vt 0.909847 0.503107
vt 0.076958 0.454690
vt 0.951531 0.482650
vt 0.837149 0.281767
vt 0.912926 0.487172
vt 0.064432 0.532285
vt 0.298790 0.687460
vt 0.825577 0.362572
vt 0.264894 0.686125
vt 0.056614 0.518895
vt 0.959622 0.549977
vt 0.837123 0.350740
vt 0.929664 0.555276
vt 0.051257 0.577890
vt 0.291936 0.641182
vt 0.824256 0.407314
vt 0.275162 0.640522
vt 0.035793 0.577862
vt 0.964581 0.612577
vt 0.838997 0.411720
vt 0.948088 0.615681
vt 0.039898 0.592711
vt 0.301778 0.620707
vt 0.403076 0.772170
vt 0.830596 0.428615
vt 0.403076 0.737417
vt 0.267017 0.619338
vt 0.012950 0.593438
vt 0.987050 0.637067
vt 0.428919 0.781443
vt 0.856067 0.440612
vt 0.428919 0.728949
vt 0.935424 0.646785
vt 0.945356 0.412724
vt 0.357115 0.854737
vt 0.331665 0.779032
vt 0.948027 0.441601
vt 0.799629 0.752473
vt 0.327972 0.853161
vt 0.906904 0.416128
vt 0.370069 0.779032
vt 0.684668 0.778429
vt 0.909575 0.445005
vt 0.655249 0.778999
vt 0.799629 0.791035
vt 0.330193 0.729131
vt 0.557184 0.775635
vt 0.363063 0.804932
vt 0.331684 0.807874
vt 0.754247 0.751428
vt 0.586563 0.768755
vt 0.566112 0.815056
vt 0.689281 0.828405
vt 0.370405 0.729131
vt 0.754247 0.791805
vt 0.657717 0.824383
vt 0.595492 0.808176
vt 0.327830 0.637821
vt 0.590400 0.642651
vt 0.164818 0.789976
vt 0.357235 0.619338
vt 0.642851 0.190721
vt 0.562581 0.649581
vt 0.406824 0.626953
vt 0.080449 0.619338
vt 0.646201 0.239681
vt 0.727583 0.656002
vt 0.597847 0.731399
vt 0.712829 0.722239
vt 0.658284 0.323708
vt 0.527919 0.666449
vt 0.661748 0.291537
vt 0.680225 0.245582
vt 0.377645 0.696957
vt 0.285191 0.477898
vt 0.483372 0.812325
vt 0.280072 0.728266
vt 0.924330 0.393087
vt 0.921760 0.373660
vt 0.678504 0.727397
vt 0.268491 0.812575
vt 0.930826 0.465310
vt 0.923786 0.327561
vt 0.941993 0.227167
vt 0.764056 0.466512
vt 0.919524 0.351927
vt 0.977463 0.013354
vt 0.833186 0.466512
vt 0.317617 0.012950
vt 0.798789 0.722800
vt 0.839639 0.522681
vt 0.934403 0.500152
vt 0.932138 0.484309
vt 0.281656 0.689101
vt 0.944784 0.554368
vt 0.283549 0.640852
vt 0.956335 0.614129
vt 0.284323 0.620942
vt 0.399765 0.754789
vt 0.961112 0.640376
vt 0.422297 0.755187
vt 0.926130 0.414426
vt 0.350867 0.779032
vt 0.928801 0.443303
vt 0.799629 0.771754
vt 0.350773 0.728949
vt 0.557184 0.796361
vt 0.753483 0.771844
vt 0.595492 0.787450
vt 0.985581 0.067358
vt 0.238180 0.070710
vt 0.259592 0.052321
vt 0.138792 0.821791
vt 0.953366 0.057503
vt 0.765454 0.639660
vt 0.120235 0.821584
vt 0.772730 0.660154
vt 0.283154 0.037949
vt 0.784440 0.682652
vt 0.128680 0.843910
vt 0.970110 0.058056
vt 0.758353 0.637393
vt 0.180368 0.432154
vt 0.759258 0.257498
vt 0.884976 0.446549
vt 0.828099 0.241547
vt 0.971226 0.428512
vt 0.101516 0.405509
vt 0.908240 0.430567
vt 0.669958 0.778714
vt 0.946692 0.427163
vt 0.342544 0.853949
vt 0.673120 0.826722
vt 0.582140 0.817526
vt 0.570535 0.766286
vt 0.348248 0.806122
vt 0.576699 0.792002
vt 0.653753 0.802281
vt 0.776512 0.794925
vt 0.776512 0.748700
vt 0.327830 0.829868
vt 0.363063 0.830170
vt 0.327830 0.753980
vt 0.373865 0.753980
vt 0.689281 0.803194
vt 0.351093 0.753886
vt 0.776117 0.771930
vt 0.671321 0.802907
vt 0.345899 0.829874
vt 0.457498 0.727404
vt 0.165986 0.548054
vt 0.260364 0.376248
vt 0.625887 0.695531
vt 0.520555 0.743605
vt 0.734596 0.339638
vt 0.406824 0.703049
vt 0.012950 0.651015
vt 0.277407 0.507014
vt 0.206214 0.619338
vt 0.706517 0.466512
vt 0.399765 0.822801
vt 0.181517 0.620770
vt 0.619265 0.470337
vt 0.422433 0.807343
vt 0.582936 0.466512
vt 0.458892 0.202188
vt 0.422433 0.843958
vt 0.727583 0.468029
vt 0.460639 0.221880
vt 0.402692 0.843997
vt 0.717439 0.778459
vt 0.429089 0.593438
vt 0.518160 0.466685
vt 0.070962 0.817001
vt 0.726094 0.791097
vt 0.457498 0.298878
vt 0.715181 0.783741
vt 0.523936 0.466512
vt 0.458951 0.311476
vt 0.719061 0.788282
vt 0.458165 0.306435
vt 0.058766 0.817583
vt 0.726094 0.778429
vt 0.431598 0.585369
vt 0.599953 0.261833
vt 0.080449 0.668491
vt 0.542336 0.274386
vt 0.076079 0.728305
vt 0.500395 0.287212
vt 0.064936 0.773359
vt 0.389801 0.564275
vt 0.039540 0.774208
vt 0.356388 0.547019
vt 0.031995 0.737396
vt 0.319737 0.531779
vt 0.030523 0.696843
vt 0.505723 0.512116
vt 0.384015 0.580847
vt 0.506522 0.550736
vt 0.346302 0.574833
vt 0.507607 0.604105
vt 0.294291 0.566034
vt 0.610540 0.298468
vt 0.545535 0.300686
vt 0.502363 0.302883
vt 0.504402 0.313331
vt 0.517745 0.511765
vt 0.548610 0.318269
vt 0.527842 0.556627
vt 0.609940 0.323717
vt 0.531284 0.618364
vt 0.660591 0.582499
vt 0.204501 0.743892
vt 0.668589 0.550878
vt 0.206214 0.710848
vt 0.668004 0.517120
vt 0.204545 0.678125
vt 0.623877 0.525891
vt 0.164692 0.675333
vt 0.610236 0.563455
vt 0.167167 0.712219
vt 0.605277 0.597358
vt 0.166352 0.745757
vt 0.511839 0.183186
vt 0.584607 0.521652
vt 0.552303 0.182624
vt 0.569857 0.561129
vt 0.598009 0.178631
vt 0.565182 0.606784
vt 0.592158 0.236754
vt 0.721184 0.600612
vt 0.550092 0.232946
vt 0.722606 0.558204
vt 0.518921 0.225772
vt 0.713819 0.525134
s 0
usemtl Material
f 89/196/1 7/19/1 13/33/1 90/198/1
f 8/22/2 7/19/2 89/196/2 58/145/2 54/138/2 53/134/2
f 6/18/3 56/142/3 57/144/3
f 3/8/4 106/224/4 4/9/4 59/147/4 88/195/4
f 6/17/5 107/226/5 5/14/5 60/148/5 1/1/5 105/222/5 2/4/5 56/143/5
f 61/150/6 13/34/6 16/40/6 62/151/6
f 5/16/7 14/36/7 31/76/7 29/72/7
f 88/195/8 1/3/8 10/26/8 91/200/8
f 67/158/9 21/53/9 20/51/9 65/155/9
f 13/33/10 7/19/10 12/31/10 16/41/10
f 3/8/11 9/25/11 11/28/11 15/38/11
f 55/141/12 3/6/12 15/37/12 63/152/12
f 66/156/13 19/49/13 17/43/13 65/155/13
f 23/57/14 22/55/14 17/42/14 19/50/14
f 83/184/15 82/183/15 25/63/15 26/67/15
f 15/38/16 11/28/16 22/55/16 23/57/16
f 62/151/17 16/40/17 21/53/17 67/158/17
f 69/163/18 26/66/18 25/64/18 68/160/18
f 87/193/19 84/186/19 24/60/19 68/159/19
f 86/190/20 83/184/20 26/67/20 69/161/20
f 84/187/21 85/189/21 27/68/21 24/61/21
f 70/164/22 29/73/22 31/77/22 71/165/22
f 70/164/23 28/71/23 34/83/23 73/167/23
f 10/26/24 1/3/24 28/70/24 30/74/24
f 64/154/25 10/27/25 30/75/25 71/165/25
f 34/82/26 32/78/26 36/86/26 38/90/26
f 60/149/27 5/15/27 33/81/27 72/166/27
f 5/16/28 29/72/28 35/84/28 33/80/28
f 28/70/29 1/3/29 32/78/29 34/82/29
f 37/88/30 39/92/30 43/103/30 41/97/30
f 73/167/31 34/83/31 38/91/31 75/169/31
f 33/80/32 35/84/32 39/92/32 37/88/32
f 72/166/33 33/81/33 37/89/33 74/168/33
f 76/171/34 41/98/34 43/104/34 77/173/34
f 74/168/35 37/89/35 41/99/35 76/170/35
f 38/90/36 36/86/36 40/94/36 42/100/36
f 75/169/37 38/91/37 42/101/37 77/172/37
f 102/219/38 97/211/38 51/127/38 81/180/38
f 91/199/39 10/27/39 45/109/39 93/203/39
f 90/197/40 13/34/40 46/112/40 92/201/40
f 61/150/41 9/24/41 44/106/41 78/174/41
f 64/154/42 14/35/42 47/115/42 79/176/42
f 96/209/43 94/206/43 50/124/43 80/179/43
f 101/218/44 99/215/44 48/118/44 80/178/44
f 104/221/45 98/213/45 49/121/45 95/208/45
f 103/220/46 100/217/46 50/125/46 94/205/46
f 8/23/47 53/135/47 52/131/47
f 8/23/48 52/131/48 4/10/48 106/225/48 3/7/48 55/140/48 7/20/48
f 54/138/49 58/145/49 89/196/49 5/16/49 107/227/49 6/18/49 57/144/49
f 100/216/50 101/218/50 80/178/50 50/126/50
f 95/207/51 96/209/51 80/179/51 48/119/51
f 10/27/52 64/154/52 79/176/52 45/109/52
f 13/34/53 61/150/53 78/174/53 46/112/53
f 98/212/54 102/219/54 81/180/54 49/122/54
f 39/93/55 75/169/55 77/172/55 43/105/55
f 36/87/56 74/168/56 76/170/56 40/95/56
f 40/96/57 76/171/57 77/173/57 42/102/57
f 32/79/58 72/166/58 74/168/58 36/87/58
f 35/85/59 73/167/59 75/169/59 39/93/59
f 1/2/60 60/149/60 72/166/60 32/79/60
f 14/35/61 64/154/61 71/165/61 31/77/61
f 29/73/62 70/164/62 73/167/62 35/85/62
f 28/71/63 70/164/63 71/165/63 30/75/63
f 85/189/64 86/191/64 69/162/64 27/68/64
f 82/182/65 87/193/65 68/159/65 25/65/65
f 27/69/66 69/163/66 68/160/66 24/62/66
f 11/29/67 62/151/67 67/158/67 22/56/67
f 18/44/68 66/156/68 65/155/68 20/51/68
f 7/21/69 55/141/69 63/152/69 12/30/69
f 22/56/70 67/158/70 65/155/70 17/43/70
f 9/24/71 61/150/71 62/151/71 11/29/71
f 19/49/72 66/156/72 87/193/72 82/182/72
f 12/31/73 18/45/73 20/52/73 21/54/73 16/41/73
f 66/157/74 18/48/74 84/187/74 87/194/74
f 23/57/75 19/50/75 82/183/75 83/184/75
f 49/123/76 81/181/76 96/209/76 95/207/76
f 97/210/77 103/220/77 94/205/77 51/128/77
f 99/214/78 104/221/78 95/208/78 48/120/78
f 81/181/79 51/129/79 94/206/79 96/209/79
f 14/35/80 90/197/80 92/201/80 47/115/80
f 9/24/81 91/199/81 93/203/81 44/106/81
f 3/8/82 88/195/82 91/200/82 9/25/82
f 5/16/83 89/196/83 90/198/83 14/36/83
f 44/107/84 93/204/84 104/221/84 99/214/84
f 47/116/85 92/202/85 103/220/85 97/210/85
f 45/110/86 79/177/86 102/219/86 98/212/86
f 46/113/87 78/175/87 101/218/87 100/216/87
f 92/202/88 46/114/88 100/217/88 103/220/88
f 93/204/89 45/111/89 98/213/89 104/221/89
f 78/175/90 44/108/90 99/215/90 101/218/90
f 79/177/91 47/117/91 97/211/91 102/219/91
f 59/146/92 4/11/92 52/130/92 53/133/92 54/136/92 108/228/92
f 136/291/93 110/234/93 109/231/93 135/289/93
f 121/264/94 120/262/94 114/246/94 117/254/94
f 139/297/95 111/237/95 110/235/95 136/290/95
f 135/288/96 109/232/96 112/240/96 144/307/96
f 144/306/97 112/241/97 111/238/97 139/296/97
f 111/239/98 112/242/98 109/233/98 110/236/98
f 117/255/99 114/247/99 116/252/99 115/249/99 113/243/99
f 124/270/100 121/263/100 117/256/100 113/244/100
f 120/261/101 129/277/101 116/253/101 114/248/101
f 130/279/102 124/269/102 113/245/102 115/250/102
f 129/277/103 130/278/103 115/251/103 116/253/103
f 57/144/104 56/142/104 132/282/104 127/275/104
f 127/275/105 132/282/105 131/280/105 128/276/105
f 128/276/106 131/280/106 130/278/106 129/277/106
f 56/143/107 2/4/107 126/273/107 132/283/107
f 132/283/108 126/273/108 125/271/108 131/281/108
f 131/281/109 125/271/109 124/269/109 130/279/109
f 54/138/110 57/144/110 127/275/110 118/257/110
f 118/257/111 127/275/111 128/276/111 119/259/111
f 119/259/112 128/276/112 129/277/112 120/261/112
f 2/5/113 108/230/113 123/267/113 126/274/113
f 126/274/114 123/267/114 122/265/114 125/272/114
f 125/272/115 122/265/115 121/263/115 124/270/115
f 108/229/116 54/137/116 118/258/116 123/268/116
f 123/268/117 118/258/117 119/260/117 122/266/117
f 122/266/118 119/260/118 120/262/118 121/264/118
f 54/138/119 142/302/119 141/300/119 53/134/119
f 142/302/120 143/304/120 140/298/120 141/300/120
f 143/304/121 144/306/121 139/296/121 140/298/121
f 4/12/122 133/284/122 142/303/122 54/139/122
f 133/284/123 134/286/123 143/305/123 142/303/123
f 134/286/124 135/288/124 144/307/124 143/305/124
f 53/135/125 141/301/125 138/294/125 52/131/125
f 141/301/126 140/299/126 137/292/126 138/294/126
f 140/299/127 139/297/127 136/290/127 137/292/127
f 52/132/128 138/295/128 133/285/128 4/13/128
f 138/295/129 137/293/129 134/287/129 133/285/129
f 137/293/130 136/291/130 135/289/130 134/287/130
f 105/223/131 1/3/131 88/195/131 59/147/131 108/230/131 2/5/131
f 86/192/132 85/188/132 83/185/132
f 83/185/133 85/188/133 18/46/133 23/58/133
f 63/153/134 15/39/134 23/59/134 18/47/134 12/32/134
f 84/187/135 18/48/135 85/189/135
l 52 106
