# Blender 3.3.1
# www.blender.org
mtllib monstruo_3_grande_caminar604.mtl
o monstruo_grande
v 0.308555 2.047502 0.168340
v 0.526140 1.209279 0.085274
v -0.733617 1.728976 0.167452
v -0.292431 1.131573 0.224076
v 0.470214 2.335576 -0.170876
v 0.509526 1.640068 -0.266245
v -0.867139 1.925221 -0.266042
v -0.755014 1.639997 -0.320312
v -0.380370 2.402100 0.414001
v 0.182208 2.320681 0.380421
v -0.513978 2.371053 0.516251
v -1.234311 1.969066 -0.117935
v -0.376665 2.548984 0.048131
v 0.168350 2.455561 0.118551
v -1.082564 1.848131 0.053535
v -0.540414 2.615322 0.064731
v -0.870045 2.282658 0.533216
v -1.530192 1.906998 0.143280
v -1.260936 1.971880 0.351801
v -1.053133 2.570686 0.238726
v -0.723642 2.651534 0.126689
v -0.591513 2.324525 0.496672
v -1.215890 1.867635 0.048528
v -1.817046 0.689822 0.899727
v -1.691581 0.675374 0.948921
v -1.668295 0.486029 0.761172
v -1.744875 0.494849 0.731146
v 0.334017 2.234920 0.355869
v 0.432370 2.431125 0.100186
v 0.294989 2.352699 0.371762
v 0.300022 2.482825 0.144073
v 0.549313 1.915172 0.139321
v 0.670026 2.016582 -0.029403
v 0.578285 1.992367 0.195277
v 0.660407 2.111339 0.046763
v 0.705206 1.691452 0.053972
v 0.789393 1.723487 -0.014955
v 0.776296 1.630055 0.101854
v 0.859755 1.674766 0.035069
v 0.692802 1.536006 0.045439
v 0.869512 1.624798 -0.090271
v 0.770775 1.389608 0.151891
v 1.030122 1.523873 -0.060219
v -0.219163 2.460494 0.435893
v -0.008095 2.438430 0.421860
v -0.219790 2.550718 0.184468
v -0.017460 2.529932 0.175044
v -0.163266 2.773980 0.579544
v 0.042053 2.708630 0.541006
v -0.176078 2.885005 0.324810
v 0.027837 2.820196 0.285183
v -0.499768 1.128129 0.012219
v -0.386878 1.142934 -0.202231
v -0.051273 1.261113 -0.335710
v -0.789417 1.759671 -0.058579
v 0.548817 1.227470 -0.152617
v 0.329801 1.223161 -0.278353
v -0.016198 1.514208 -0.339414
v -0.012896 1.150382 0.198685
v 0.363726 2.134096 0.052816
v -0.372702 2.454481 0.285604
v -0.541060 2.608490 0.339663
v -1.012624 1.909449 -0.070423
v 0.151058 2.444859 0.278295
v -0.900739 2.504478 0.471830
v -1.439587 2.071844 0.379365
v -0.693301 2.587322 0.332385
v -1.766150 0.683356 0.954736
v -1.684185 0.368750 0.653289
v 0.421373 2.341269 0.257058
v 0.297433 2.463674 0.279169
v 0.564766 1.955159 0.012693
v 0.661251 2.060836 0.151075
v 0.746872 1.711884 0.020090
v 0.817723 1.651502 0.067972
v 0.762865 1.590464 -0.037740
v 0.868874 1.476767 0.019907
v -0.220137 2.505021 0.309173
v -0.014316 2.485392 0.297810
v -0.200805 2.830864 0.454550
v 0.066547 2.763389 0.411389
v -1.573113 0.997953 0.870859
v -1.627547 0.818303 0.816612
v -1.789214 0.993278 0.789493
v -1.745639 0.831902 0.770309
v -1.682102 0.653435 0.731587
v -1.704069 0.979836 0.883477
v -0.088572 1.792442 0.483220
v 0.041044 2.143267 -0.240714
v -0.018047 2.524441 -0.005556
v -0.055863 2.302442 0.561813
v -0.120660 2.539090 0.178136
v -0.109321 2.446834 0.428151
v -0.076408 2.868849 0.266217
v -0.058758 2.724643 0.598375
v -0.063188 2.847684 0.455232
v 0.018445 2.685411 0.204955
v 0.031589 2.561646 0.497417
v -0.204238 2.610140 0.530600
v -0.219702 2.733645 0.235376
v -0.228144 2.673345 0.384932
v 0.040552 2.623630 0.350086
v -0.102208 2.717493 0.199558
v -0.084188 2.575933 0.534109
v 0.365179 1.748825 -0.036702
v -0.600621 1.458945 0.199033
v 0.490539 1.865559 -0.271468
v 0.177992 1.166621 0.198832
v -0.187298 0.006540 -0.034626
v -0.331018 0.012504 0.088520
v -0.358291 0.011427 -0.161241
v -0.223204 0.006519 -0.176698
v 0.375612 0.096278 -0.155960
v 0.302946 0.105440 -0.232359
v 0.385348 0.101733 -0.193981
v 0.354064 0.104236 -0.220602
v 0.316528 0.094346 -0.146511
v 0.109795 0.884560 -0.101293
v 0.179220 0.703987 -0.077359
v 0.235798 0.412372 -0.134589
v 0.272377 0.347855 0.031523
v 0.240299 0.567050 0.164890
v 0.230632 0.825109 0.269896
v 0.394077 0.361649 0.008214
v 0.445828 0.596264 0.131205
v 0.512296 0.913417 0.208809
v 0.363323 0.915896 -0.082653
v 0.359027 0.701409 -0.049785
v 0.342854 0.409335 -0.116015
v 0.410432 0.393195 -0.066360
v 0.473313 0.679194 0.030928
v 0.532272 0.939464 0.023284
v -0.171588 0.869260 0.324490
v -0.140945 0.575994 0.259924
v -0.133187 0.334329 0.221940
v -0.418146 0.320884 0.211415
v -0.432645 0.596821 0.209655
v -0.458892 0.853567 0.200209
v -0.453869 0.369072 -0.052522
v -0.465591 0.644428 -0.054918
v -0.472649 0.862281 -0.076716
v -0.076049 0.826634 -0.102837
v -0.122360 0.630182 -0.099585
v -0.162940 0.418353 -0.083432
vn -0.0969 0.5091 -0.8552
vn -0.0534 0.0305 -0.9981
vn 0.4918 -0.1873 -0.8503
vn -0.2462 -0.2565 0.9346
vn 0.9258 0.0817 0.3691
vn 0.5689 0.8075 0.1560
vn 0.0571 0.9159 -0.3973
vn 0.6543 -0.1931 0.7311
vn -0.1295 0.9345 0.3317
vn -0.1644 0.4886 -0.8569
vn -0.1032 -0.4473 0.8884
vn -0.3662 -0.8962 -0.2504
vn -0.2413 -0.0552 0.9689
vn 0.3313 -0.8204 0.4661
vn 0.9499 -0.2234 0.2184
vn 0.0022 -0.6823 0.7311
vn 0.0674 0.9876 0.1418
vn 0.0256 -0.6935 0.7200
vn -0.6831 0.3033 0.6643
vn 0.9328 0.0133 -0.3601
vn -0.8666 -0.0187 -0.4987
vn 0.5876 0.7487 0.3069
vn 0.5692 0.1118 0.8145
vn -0.1795 -0.5511 0.8149
vn -0.0999 0.6273 0.7723
vn -0.5669 -0.5338 0.6275
vn -0.3939 -0.4770 -0.7857
vn 0.8288 0.5306 -0.1775
vn -0.2047 -0.6396 0.7409
vn 0.5869 0.7668 -0.2600
vn 0.5112 0.0384 0.8586
vn 0.7910 0.3436 -0.5061
vn -0.3552 -0.2365 -0.9044
vn -0.2113 -0.5830 -0.7845
vn -0.5460 0.2461 -0.8009
vn -0.6378 0.1088 0.7625
vn 0.7348 0.0840 0.6731
vn 0.9747 -0.0106 -0.2231
vn 0.3747 0.5978 0.7087
vn 0.0704 0.9955 -0.0629
vn -0.3518 0.8781 0.3243
vn 0.3431 0.9185 0.1968
vn 0.0538 0.9714 0.2314
vn -0.9585 0.1061 0.2647
vn 0.3292 -0.3586 0.8735
vn -0.2852 0.4901 -0.8237
vn -0.6869 -0.6046 -0.4033
vn -0.8734 -0.4349 0.2190
vn 0.0886 0.0854 -0.9924
vn -0.9722 0.2335 -0.0198
vn 0.0677 0.8333 0.5486
vn 0.4220 0.7551 0.5017
vn -0.3265 0.8804 0.3440
vn 0.9875 -0.1466 0.0575
vn 0.4970 -0.0435 0.8667
vn -0.7599 0.1422 -0.6343
vn -0.3200 -0.6570 -0.6826
vn -0.7581 -0.4739 -0.4481
vn 0.8514 0.3108 0.4226
vn -0.5480 -0.6650 -0.5074
vn -0.1710 0.9814 0.0878
vn 0.7872 0.5299 0.3154
vn 0.6500 0.3330 0.6831
vn -0.4213 0.1692 -0.8910
vn 0.0769 0.2125 0.9741
vn -0.6389 -0.6170 0.4594
vn -0.2449 0.5021 0.8294
vn -0.7317 0.6360 0.2452
vn -0.3630 -0.8676 -0.3399
vn 0.1966 0.4576 0.8672
vn 0.5442 0.6252 0.5595
vn 0.2179 0.3836 0.8974
vn -0.4487 0.5332 -0.7172
vn -0.8744 0.3921 0.2857
vn 0.9573 -0.2382 0.1640
vn 0.5199 0.6976 0.4930
vn 0.2450 0.4187 -0.8744
vn -0.2027 -0.2951 0.9337
vn 0.5002 0.8562 0.1294
vn 0.2718 0.9619 -0.0301
vn -0.1314 0.5311 0.8370
vn -0.4322 -0.1052 0.8956
vn 0.0613 0.7424 -0.6671
vn -0.1039 -0.5712 0.8142
vn 0.0371 0.1460 -0.9886
vn 0.9506 -0.2913 -0.1073
vn -0.9993 -0.0096 -0.0357
vn -0.1621 0.2017 -0.9659
vn 0.0953 -0.5973 0.7963
vn -0.9964 -0.0224 0.0822
vn 0.9522 -0.2423 -0.1859
vn 0.1411 -0.9791 -0.1461
vn 0.2295 -0.4898 0.8411
vn -0.9616 -0.2485 0.1169
vn -0.9520 -0.2924 0.0899
vn 0.9843 -0.0771 -0.1589
vn -0.1302 0.2461 -0.9605
vn -0.0348 -0.9994 0.0084
vn 0.0130 -0.9916 -0.1286
vn 0.1955 -0.5332 0.8231
vn 0.1863 0.3298 -0.9255
vn 0.9713 -0.1654 0.1707
vn 0.6194 0.2722 -0.7363
vn 0.4805 -0.4545 -0.7500
vn 0.5451 -0.1431 -0.8261
vn 0.5963 0.1419 -0.7901
vn 0.9950 -0.0004 0.1002
vn 0.9723 -0.2206 0.0774
vn 0.9657 -0.2467 0.0806
vn 0.0970 -0.5100 -0.8547
vn 0.1133 -0.1231 -0.9859
vn 0.1592 0.2148 -0.9636
vn 0.1972 0.2972 0.9342
vn 0.2539 -0.3154 0.9144
vn 0.2116 -0.4876 0.8470
vn -0.9318 -0.1338 0.3374
vn -0.9534 -0.2116 0.2150
vn -0.9685 -0.2149 0.1256
vn -0.1468 -0.4250 -0.8932
vn -0.0985 -0.0508 -0.9938
vn -0.1166 -0.0309 -0.9927
vn 0.8999 0.2828 0.3319
vn 0.9885 -0.0495 0.1427
vn 0.9970 -0.0706 -0.0314
vn -0.9794 -0.0333 -0.1992
vn -0.9948 -0.0646 0.0791
vn -0.9916 -0.0463 0.1205
vn -0.5495 0.2609 0.7937
vn -0.2874 -0.1249 0.9496
vn -0.1055 -0.0739 0.9917
vn 0.5825 -0.0534 0.8111
vn 0.3775 0.3227 -0.8680
vn -0.1572 -0.5093 -0.8461
vn -0.1857 -0.8498 -0.4932
vn -0.8206 -0.1562 -0.5498
vt 0.882279 0.260085
vt 0.436089 0.649131
vt 0.117664 0.305524
vt 0.860974 0.338762
vt 0.079561 0.383885
vt 0.278417 0.728674
vt 0.111517 0.716819
vt 0.301243 0.337859
vt 0.232943 0.387386
vt 0.111517 0.662267
vt 0.671871 0.687525
vt 0.175114 0.511099
vt 0.930991 0.712692
vt 0.796001 0.259488
vt 0.522181 0.649131
vt 0.719621 0.316178
vt 0.801110 0.310020
vt 0.698705 0.366293
vt 0.510656 0.337024
vt 0.023033 0.717149
vt 0.367094 0.730187
vt 0.507246 0.358198
vt 0.018976 0.695717
vt 0.103380 0.570561
vt 0.268725 0.266033
vt 0.143950 0.273348
vt 0.098384 0.631539
vt 0.301351 0.259488
vt 0.128079 0.559933
vt 0.480438 0.333338
vt 0.348619 0.714075
vt 0.604958 0.268707
vt 0.031105 0.562973
vt 0.043818 0.625810
vt 0.721993 0.282954
vt 0.329365 0.336360
vt 0.302724 0.713315
vt 0.030374 0.549675
vt 0.582817 0.260846
vt 0.875347 0.642471
vt 0.380514 0.272320
vt 0.124895 0.517524
vt 0.813390 0.578569
vt 0.436089 0.332372
vt 0.956124 0.588845
vt 0.367094 0.692599
vt 0.367094 0.522797
vt 0.871643 0.594841
vt 0.398138 0.324445
vt 0.043891 0.509019
vt 0.796001 0.641153
vt 0.491075 0.268473
vt 0.032114 0.534706
vt 0.552485 0.259488
vt 0.331566 0.259909
vt 0.129819 0.544964
vt 0.339759 0.337186
vt 0.913298 0.588845
vt 0.317584 0.707220
vt 0.845734 0.463378
vt 0.311567 0.646434
vt 0.944558 0.353645
vt 0.398138 0.462439
vt 0.920230 0.354337
vt 0.870057 0.463781
vt 0.929709 0.374247
vt 0.357807 0.478584
vt 0.347994 0.663056
vt 0.944558 0.373825
vt 0.097076 0.285727
vt 0.229765 0.651022
vt 0.758050 0.297859
vt 0.168317 0.651042
vt 0.119329 0.272208
vt 0.094178 0.643292
vt 0.222768 0.636959
vt 0.746872 0.283208
vt 0.174541 0.636975
vt 0.045175 0.638147
vt 0.080672 0.327471
vt 0.442544 0.673801
vt 0.734592 0.339187
vt 0.484453 0.673801
vt 0.070725 0.319456
vt 0.218298 0.685110
vt 0.751374 0.331694
vt 0.180611 0.684911
vt 0.062412 0.356092
vt 0.455575 0.702696
vt 0.724658 0.367821
vt 0.476314 0.702696
vt 0.043357 0.357400
vt 0.210236 0.723455
vt 0.742364 0.370210
vt 0.189444 0.723462
vt 0.050281 0.367705
vt 0.444942 0.715336
vt 0.810526 0.722486
vt 0.728448 0.380153
vt 0.853695 0.722486
vt 0.487920 0.715336
vt 0.018975 0.371756
vt 0.232852 0.738567
vt 0.796001 0.739289
vt 0.758050 0.386241
vt 0.861207 0.739289
vt 0.167770 0.738589
vt 0.100634 0.583041
vt 0.712300 0.698974
vt 0.802197 0.701507
vt 0.098640 0.600731
vt 0.972705 0.287497
vt 0.747907 0.696578
vt 0.052045 0.577939
vt 0.849895 0.701507
vt 0.710445 0.675017
vt 0.050052 0.595630
vt 0.746553 0.677603
vt 0.924885 0.287497
vt 0.797725 0.671259
vt 0.981025 0.313792
vt 0.715147 0.730011
vt 0.752543 0.724602
vt 0.973919 0.259495
vt 0.967002 0.332143
vt 0.934252 0.306472
vt 0.715328 0.644023
vt 0.847669 0.671259
vt 0.923848 0.259495
vt 0.753088 0.649631
vt 0.920230 0.324823
vt 0.068284 0.665533
vt 0.630362 0.705721
vt 0.712055 0.621316
vt 0.966165 0.712391
vt 0.519769 0.388732
vt 0.031375 0.663704
vt 0.592215 0.695479
vt 0.581836 0.620019
vt 0.750017 0.621843
vt 0.569690 0.667298
vt 0.581066 0.387596
vt 0.531739 0.516092
vt 0.642835 0.625048
vt 0.273616 0.509019
vt 0.070982 0.710642
vt 0.316851 0.732164
vt 0.684917 0.393810
vt 0.816625 0.338063
vt 0.644803 0.392946
vt 0.602800 0.367236
vt 0.671871 0.661666
vt 0.181146 0.386242
vt 0.855113 0.259897
vt 0.463196 0.649131
vt 0.077903 0.567886
vt 0.078993 0.554271
vt 0.322237 0.720993
vt 0.070972 0.628379
vt 0.834014 0.651825
vt 0.084160 0.512738
vt 0.838315 0.596273
vt 0.320679 0.509019
vt 0.080733 0.539302
vt 0.857365 0.464048
vt 0.931678 0.351118
vt 0.335174 0.488977
vt 0.367094 0.673623
vt 0.939667 0.384854
vt 0.199177 0.651021
vt 0.069465 0.641494
vt 0.198664 0.632807
vt 0.464209 0.672968
vt 0.199604 0.684998
vt 0.465945 0.702696
vt 0.199840 0.723459
vt 0.466714 0.715004
vt 0.832520 0.720483
vt 0.200177 0.738589
vt 0.829423 0.735282
vt 0.076340 0.580490
vt 0.826046 0.701507
vt 0.074346 0.598181
vt 0.948795 0.287497
vt 0.823088 0.670800
vt 0.959731 0.307426
vt 0.948976 0.259488
vt 0.941524 0.331189
vt 0.875347 0.491894
vt 0.391834 0.432095
vt 0.377694 0.448634
vt 0.915590 0.478791
vt 0.834644 0.488373
vt 0.326937 0.619279
vt 0.938593 0.478810
vt 0.335216 0.632947
vt 0.358601 0.463790
vt 0.348787 0.648138
vt 0.927106 0.463378
vt 0.854274 0.489560
vt 0.315804 0.619182
vt 0.212520 0.321385
vt 0.644070 0.318501
vt 0.018976 0.592450
vt 0.663817 0.276029
vt 0.129819 0.597828
vt 0.224108 0.269832
vt 0.051049 0.586785
vt 0.728499 0.676310
vt 0.099637 0.591886
vt 0.730103 0.697776
vt 0.734390 0.646904
vt 0.920230 0.314550
vt 0.981025 0.324065
vt 0.732426 0.727384
vt 0.950683 0.319044
vt 0.753088 0.663662
vt 0.920230 0.273492
vt 0.977552 0.273492
vt 0.752543 0.710647
vt 0.709822 0.714522
vt 0.796001 0.686127
vt 0.853178 0.686127
vt 0.709822 0.659561
vt 0.824792 0.685890
vt 0.948939 0.273488
vt 0.731549 0.661651
vt 0.730449 0.712624
vt 0.878850 0.297575
vt 0.096711 0.342677
vt 0.285581 0.357771
vt 0.108549 0.696221
vt 0.804979 0.293594
vt 0.708839 0.350023
vt 0.668288 0.644023
vt 0.436089 0.526409
vt 0.145034 0.385321
vt 0.919159 0.607821
vt 0.247387 0.613831
vt 0.970304 0.416607
vt 0.947808 0.608020
vt 0.704660 0.516092
vt 0.970304 0.403829
vt 0.750017 0.516884
vt 0.618892 0.516092
vt 0.920230 0.404231
vt 0.273616 0.612878
vt 0.642836 0.516847
vt 0.938584 0.415207
vt 0.924281 0.443436
vt 0.075400 0.489812
vt 0.855524 0.444402
vt 0.531739 0.629156
vt 0.934913 0.435583
vt 0.576828 0.496673
vt 0.931440 0.443424
vt 0.848383 0.444289
vt 0.592622 0.497116
vt 0.934913 0.440184
vt 0.586164 0.496977
vt 0.517161 0.630156
vt 0.920230 0.438606
vt 0.085942 0.490043
vt 0.585376 0.420489
vt 0.510472 0.551446
vt 0.582586 0.444044
vt 0.504260 0.576063
vt 0.581388 0.469636
vt 0.508131 0.602400
vt 0.103684 0.463024
vt 0.477645 0.604263
vt 0.118194 0.440373
vt 0.454885 0.581958
vt 0.129418 0.415411
vt 0.438452 0.557360
vt 0.876897 0.417052
vt 0.081901 0.462161
vt 0.882279 0.393921
vt 0.081653 0.438865
vt 0.880271 0.363315
vt 0.079604 0.408162
vt 0.633117 0.418943
vt 0.615530 0.444447
vt 0.600997 0.469910
vt 0.614559 0.469949
vt 0.862035 0.416811
vt 0.638313 0.444473
vt 0.857648 0.390640
vt 0.666106 0.417503
vt 0.844696 0.362700
vt 0.167770 0.536691
vt 0.914144 0.688660
vt 0.182151 0.561697
vt 0.913298 0.663084
vt 0.189855 0.582503
vt 0.915415 0.641729
vt 0.680787 0.549268
vt 0.966165 0.641681
vt 0.684678 0.573659
vt 0.963812 0.665813
vt 0.684995 0.596421
vt 0.964308 0.688427
vt 0.584794 0.548886
vt 0.729850 0.550060
vt 0.578610 0.572959
vt 0.734888 0.574452
vt 0.569690 0.595426
vt 0.736445 0.597214
vt 0.642060 0.590920
vt 0.247172 0.543053
vt 0.641052 0.570535
vt 0.248998 0.562413
vt 0.635978 0.552556
vt 0.245738 0.579271
s 0
usemtl Material
f 89/203/1 7/19/1 13/32/1 90/205/1
f 8/22/2 7/19/2 89/203/2 58/151/2 54/142/2 53/136/2
f 6/18/3 56/148/3 57/150/3
f 3/8/4 106/231/4 4/9/4 59/153/4 88/202/4
f 6/17/5 107/233/5 5/14/5 60/154/5 1/1/5 105/229/5 2/4/5 56/149/5
f 61/156/6 13/33/6 16/38/6 62/157/6
f 5/16/7 14/35/7 31/77/7 29/72/7
f 88/202/8 1/3/8 10/26/8 91/207/8
f 67/164/9 21/53/9 20/50/9 65/161/9
f 13/32/10 7/19/10 12/30/10 16/39/10
f 3/8/11 9/25/11 11/28/11 15/36/11
f 55/147/12 3/6/12 15/37/12 63/158/12
f 66/162/13 19/48/13 17/40/13 65/160/13
f 23/57/14 22/55/14 17/41/14 19/49/14
f 83/191/15 82/190/15 25/63/15 26/67/15
f 15/36/16 11/28/16 22/55/16 23/57/16
f 62/157/17 16/38/17 21/53/17 67/164/17
f 69/169/18 26/66/18 25/64/18 68/166/18
f 87/200/19 84/193/19 24/60/19 68/165/19
f 86/197/20 83/191/20 26/67/20 69/167/20
f 84/194/21 85/196/21 27/68/21 24/61/21
f 70/170/22 29/73/22 31/78/22 71/172/22
f 70/170/23 28/71/23 34/85/23 73/174/23
f 10/26/24 1/3/24 28/70/24 30/74/24
f 64/159/25 10/27/25 30/75/25 71/171/25
f 34/84/26 32/80/26 36/88/26 38/92/26
f 60/155/27 5/15/27 33/83/27 72/173/27
f 5/16/28 29/72/28 35/86/28 33/82/28
f 28/70/29 1/3/29 32/80/29 34/84/29
f 37/90/30 39/94/30 43/105/30 41/99/30
f 73/174/31 34/85/31 38/93/31 75/176/31
f 33/82/32 35/86/32 39/94/32 37/90/32
f 72/173/33 33/83/33 37/91/33 74/175/33
f 76/178/34 41/100/34 43/106/34 77/180/34
f 74/175/35 37/91/35 41/101/35 76/177/35
f 38/92/36 36/88/36 40/96/36 42/102/36
f 75/176/37 38/93/37 42/103/37 77/179/37
f 102/226/38 97/218/38 51/129/38 81/187/38
f 91/206/39 10/27/39 45/111/39 93/210/39
f 90/204/40 13/33/40 46/114/40 92/208/40
f 61/156/41 9/24/41 44/108/41 78/181/41
f 64/159/42 14/34/42 47/117/42 79/183/42
f 96/216/43 94/213/43 50/126/43 80/186/43
f 101/225/44 99/222/44 48/120/44 80/185/44
f 104/228/45 98/220/45 49/123/45 95/215/45
f 103/227/46 100/224/46 50/127/46 94/212/46
f 8/23/47 53/137/47 52/132/47
f 8/23/48 52/132/48 4/10/48 106/232/48 3/7/48 55/146/48 7/20/48
f 54/142/49 58/151/49 89/203/49 5/16/49 107/234/49 6/18/49 57/150/49
f 100/223/50 101/225/50 80/185/50 50/128/50
f 95/214/51 96/216/51 80/186/51 48/121/51
f 10/27/52 64/159/52 79/183/52 45/111/52
f 13/33/53 61/156/53 78/181/53 46/114/53
f 98/219/54 102/226/54 81/187/54 49/124/54
f 39/95/55 75/176/55 77/179/55 43/107/55
f 36/89/56 74/175/56 76/177/56 40/97/56
f 40/98/57 76/178/57 77/180/57 42/104/57
f 32/81/58 72/173/58 74/175/58 36/89/58
f 35/87/59 73/174/59 75/176/59 39/95/59
f 1/2/60 60/155/60 72/173/60 32/81/60
f 14/34/61 64/159/61 71/171/61 31/79/61
f 29/73/62 70/170/62 73/174/62 35/87/62
f 28/71/63 70/170/63 71/172/63 30/76/63
f 85/196/64 86/198/64 69/168/64 27/68/64
f 82/189/65 87/200/65 68/165/65 25/65/65
f 27/69/66 69/169/66 68/166/66 24/62/66
f 11/29/67 62/157/67 67/164/67 22/56/67
f 18/43/68 66/162/68 65/160/68 20/51/68
f 7/21/69 55/147/69 63/158/69 12/31/69
f 22/56/70 67/164/70 65/161/70 17/42/70
f 9/24/71 61/156/71 62/157/71 11/29/71
f 19/48/72 66/162/72 87/200/72 82/189/72
f 12/30/73 18/44/73 20/52/73 21/54/73 16/39/73
f 66/163/74 18/47/74 84/194/74 87/201/74
f 23/57/75 19/49/75 82/190/75 83/191/75
f 49/125/76 81/188/76 96/216/76 95/214/76
f 97/217/77 103/227/77 94/212/77 51/130/77
f 99/221/78 104/228/78 95/215/78 48/122/78
f 81/188/79 51/131/79 94/213/79 96/216/79
f 14/34/80 90/204/80 92/208/80 47/117/80
f 9/24/81 91/206/81 93/210/81 44/108/81
f 3/8/82 88/202/82 91/207/82 9/25/82
f 5/16/83 89/203/83 90/205/83 14/35/83
f 44/109/84 93/211/84 104/228/84 99/221/84
f 47/118/85 92/209/85 103/227/85 97/217/85
f 45/112/86 79/184/86 102/226/86 98/219/86
f 46/115/87 78/182/87 101/225/87 100/223/87
f 92/209/88 46/116/88 100/224/88 103/227/88
f 93/211/89 45/113/89 98/220/89 104/228/89
f 78/182/90 44/110/90 99/222/90 101/225/90
f 79/184/91 47/119/91 97/218/91 102/226/91
f 59/152/92 4/11/92 52/133/92 53/138/92 54/141/92 108/235/92
f 136/298/93 110/241/93 109/238/93 135/296/93
f 121/271/94 120/269/94 114/253/94 117/261/94
f 139/304/95 111/244/95 110/242/95 136/297/95
f 135/295/96 109/239/96 112/247/96 144/314/96
f 144/313/97 112/248/97 111/245/97 139/303/97
f 111/246/98 112/249/98 109/240/98 110/243/98
f 117/262/99 114/254/99 116/259/99 115/256/99 113/250/99
f 124/277/100 121/270/100 117/263/100 113/251/100
f 120/268/101 129/284/101 116/260/101 114/255/101
f 130/286/102 124/276/102 113/252/102 115/257/102
f 129/284/103 130/285/103 115/258/103 116/260/103
f 57/150/104 56/148/104 132/289/104 127/282/104
f 127/282/105 132/289/105 131/287/105 128/283/105
f 128/283/106 131/287/106 130/285/106 129/284/106
f 56/149/107 2/4/107 126/280/107 132/290/107
f 132/290/108 126/280/108 125/278/108 131/288/108
f 131/288/109 125/278/109 124/276/109 130/286/109
f 54/142/110 57/150/110 127/282/110 118/264/110
f 118/264/111 127/282/111 128/283/111 119/266/111
f 119/266/112 128/283/112 129/284/112 120/268/112
f 2/5/113 108/237/113 123/274/113 126/281/113
f 126/281/114 123/274/114 122/272/114 125/279/114
f 125/279/115 122/272/115 121/270/115 124/277/115
f 108/236/116 54/143/116 118/265/116 123/275/116
f 123/275/117 118/265/117 119/267/117 122/273/117
f 122/273/118 119/267/118 120/269/118 121/271/118
f 54/144/119 142/309/119 141/307/119 53/139/119
f 142/309/120 143/311/120 140/305/120 141/307/120
f 143/311/121 144/313/121 139/303/121 140/305/121
f 4/12/122 133/291/122 142/310/122 54/145/122
f 133/291/123 134/293/123 143/312/123 142/310/123
f 134/293/124 135/295/124 144/314/124 143/312/124
f 53/140/125 141/308/125 138/301/125 52/134/125
f 141/308/126 140/306/126 137/299/126 138/301/126
f 140/306/127 139/304/127 136/297/127 137/299/127
f 52/135/128 138/302/128 133/292/128 4/13/128
f 138/302/129 137/300/129 134/294/129 133/292/129
f 137/300/130 136/298/130 135/296/130 134/294/130
f 105/230/131 1/3/131 88/202/131 59/153/131 108/237/131 2/5/131
f 86/199/132 85/195/132 83/192/132
f 83/192/133 85/195/133 18/45/133 23/58/133
f 63/158/134 15/37/134 23/59/134 18/46/134 12/31/134
f 84/194/135 18/47/135 85/196/135
l 52 106
