# Blender 3.3.1
# www.blender.org
mtllib monstruo_3_caminar508.mtl
o monstruo_grande
v 0.407951 2.011555 0.198333
v 0.518201 1.173528 0.111516
v -0.708129 1.800475 0.184467
v -0.307977 1.113513 0.203259
v 0.538629 2.304248 -0.150577
v 0.539507 1.600926 -0.227855
v -0.836133 2.027886 -0.210851
v -0.736961 1.741192 -0.288407
v -0.269068 2.401777 0.477513
v 0.282254 2.288059 0.412916
v -0.398106 2.369293 0.575609
v -1.216081 2.119118 -0.027400
v -0.268318 2.577461 0.124371
v 0.264878 2.432830 0.156261
v -1.062280 1.973577 0.099217
v -0.424092 2.658334 0.159727
v -0.741512 2.292527 0.609886
v -1.481531 2.046225 0.274341
v -1.182832 2.058674 0.442232
v -0.925745 2.640837 0.394516
v -0.600565 2.706802 0.250267
v -0.472430 2.321772 0.546173
v -1.190860 2.001965 0.120628
v -1.765530 0.769853 0.936234
v -1.636613 0.744898 0.969818
v -1.645197 0.570709 0.766771
v -1.723885 0.585941 0.746273
v 0.440822 2.199641 0.383066
v 0.519462 2.399172 0.121549
v 0.397981 2.315495 0.401222
v 0.397385 2.452110 0.175585
v 0.660001 1.882999 0.153100
v 0.750006 1.995532 -0.027399
v 0.682665 1.963468 0.206477
v 0.748289 2.085896 0.051629
v 0.823930 1.678784 0.045784
v 0.893338 1.714324 -0.038516
v 0.905498 1.621146 0.079455
v 0.972422 1.668421 -0.002375
v 0.816741 1.522936 0.041034
v 0.960640 1.617706 -0.126783
v 0.920109 1.381458 0.131274
v 1.127309 1.522935 -0.128208
v -0.109378 2.442315 0.492879
v 0.099601 2.414378 0.470667
v -0.112777 2.548205 0.247084
v 0.086796 2.519003 0.228575
v -0.070783 2.760013 0.627420
v 0.137244 2.703060 0.590098
v -0.087962 2.865339 0.371059
v 0.120055 2.808449 0.334050
v -0.502435 1.159761 -0.021008
v -0.376351 1.207178 -0.223734
v -0.044611 1.276206 -0.334752
v -0.770101 1.848521 -0.026473
v 0.559884 1.182718 -0.124064
v 0.349951 1.183861 -0.266924
v 0.006242 1.522112 -0.329982
v -0.027350 1.137318 0.185591
v 0.452163 2.099044 0.080334
v -0.262018 2.463971 0.353532
v -0.413419 2.625856 0.427915
v -0.994699 2.033334 -0.017544
v 0.254065 2.417219 0.316117
v -0.753504 2.522927 0.591253
v -1.343990 2.168869 0.511491
v -0.565358 2.616668 0.427688
v -1.709501 0.756240 0.984541
v -1.679691 0.463701 0.652731
v 0.519803 2.309069 0.278358
v 0.400891 2.428862 0.310990
v 0.656017 1.924656 0.026622
v 0.758854 2.035239 0.155807
v 0.857433 1.700431 0.004245
v 0.938595 1.643744 0.038007
v 0.866909 1.578934 -0.054572
v 0.986870 1.470527 -0.017889
v -0.111942 2.494856 0.369740
v 0.091589 2.467485 0.349411
v -0.110765 2.812632 0.501320
v 0.159997 2.755781 0.459958
v -1.507854 1.066214 0.903768
v -1.578616 0.894717 0.842438
v -1.731213 1.079669 0.847347
v -1.699959 0.918205 0.810828
v -1.651912 0.740473 0.751754
v -1.637550 1.053952 0.929561
v -0.028868 1.773258 0.505030
v 0.108114 2.146290 -0.211069
v 0.080849 2.526182 0.048566
v 0.050208 2.276310 0.602745
v -0.015543 2.532922 0.237365
v -0.001905 2.430610 0.481897
v 0.013491 2.852682 0.314101
v 0.035803 2.715748 0.647188
v 0.025971 2.835546 0.501584
v 0.118099 2.672138 0.257652
v 0.135091 2.551790 0.550299
v -0.103449 2.593131 0.582755
v -0.121474 2.714196 0.288962
v -0.129417 2.653402 0.437010
v 0.141834 2.612221 0.402683
v -0.003733 2.701317 0.253075
v 0.017414 2.564323 0.586233
v 0.416883 1.703405 -0.005610
v -0.586668 1.500046 0.212939
v 0.534898 1.821018 -0.230323
v 0.160868 1.155840 0.190564
v -0.235117 0.037441 -0.211855
v -0.390892 0.038197 -0.104237
v -0.391691 0.053129 -0.354684
v -0.255788 0.046873 -0.356298
v 0.311600 -0.022876 0.286538
v 0.240148 -0.041777 0.211185
v 0.321934 -0.032828 0.249555
v 0.291051 -0.039813 0.223348
v 0.252394 -0.019087 0.294777
v 0.095101 0.833661 -0.112083
v 0.137913 0.547000 0.043402
v 0.183925 0.266952 0.166206
v 0.216382 0.296526 0.342636
v 0.191214 0.553875 0.342673
v 0.190184 0.829203 0.298993
v 0.338743 0.292996 0.318972
v 0.397466 0.552052 0.300903
v 0.478827 0.888546 0.234809
v 0.352050 0.863541 -0.072570
v 0.317081 0.553612 0.076631
v 0.290598 0.270928 0.186588
v 0.357019 0.280979 0.239313
v 0.429187 0.570557 0.162931
v 0.513848 0.892221 0.046482
v -0.207443 0.826772 0.248383
v -0.189603 0.551672 0.144487
v -0.193136 0.320075 0.075401
v -0.476702 0.326371 0.040056
v -0.474642 0.598667 0.075818
v -0.486199 0.852364 0.107048
v -0.486124 0.410379 -0.216087
v -0.482521 0.685398 -0.182087
v -0.480855 0.914856 -0.164605
v -0.086357 0.858131 -0.173435
v -0.137898 0.655443 -0.203074
v -0.191283 0.444550 -0.216635
vn -0.0776 0.5691 -0.8186
vn -0.0624 0.0938 -0.9936
vn 0.5532 -0.1752 -0.8144
vn -0.2584 -0.2709 0.9273
vn 0.9428 0.0229 0.3325
vn 0.6499 0.7349 0.1935
vn 0.0688 0.9195 -0.3871
vn 0.6359 -0.2539 0.7288
vn 0.0147 0.8773 0.4797
vn -0.1466 0.5707 -0.8079
vn -0.1271 -0.5141 0.8483
vn -0.4775 -0.8322 -0.2819
vn -0.1169 -0.2039 0.9720
vn 0.2998 -0.9155 0.2684
vn 0.9526 -0.2897 0.0929
vn 0.0550 -0.8216 0.5674
vn 0.1809 0.9529 0.2436
vn 0.0607 -0.7509 0.6576
vn -0.5872 0.2824 0.7586
vn 0.8878 -0.0056 -0.4603
vn -0.9149 0.0679 -0.3980
vn 0.6235 0.7316 0.2756
vn 0.6205 0.1316 0.7731
vn -0.1536 -0.5521 0.8195
vn -0.0396 0.6076 0.7932
vn -0.4335 -0.5964 0.6755
vn -0.4419 -0.4880 -0.7527
vn 0.8018 0.5469 -0.2409
vn -0.1347 -0.6416 0.7551
vn 0.5006 0.7840 -0.3670
vn 0.6074 0.0692 0.7914
vn 0.6748 0.4120 -0.6123
vn -0.4625 -0.2593 -0.8479
vn -0.3346 -0.5983 -0.7281
vn -0.6956 0.2170 -0.6849
vn -0.4818 0.0946 0.8712
vn 0.8473 0.1239 0.5165
vn 0.9759 0.0329 -0.2157
vn 0.4423 0.5323 0.7218
vn 0.1552 0.9870 0.0419
vn -0.2444 0.8812 0.4047
vn 0.4207 0.8802 0.2195
vn 0.0091 0.9766 0.2150
vn -0.9633 0.0645 0.2605
vn 0.3393 -0.3177 0.8854
vn -0.3038 0.4486 -0.8405
vn -0.6680 -0.5160 -0.5362
vn -0.9003 -0.3940 0.1852
vn 0.1296 0.0908 -0.9874
vn -0.9828 0.1815 -0.0346
vn 0.0305 0.8465 0.5316
vn 0.4948 0.7054 0.5075
vn -0.1971 0.8843 0.4233
vn 0.9935 -0.0910 0.0684
vn 0.6569 -0.0111 0.7539
vn -0.8738 0.1018 -0.4755
vn -0.4181 -0.6798 -0.6026
vn -0.7638 -0.5482 -0.3407
vn 0.8707 0.3646 0.3301
vn -0.5589 -0.6917 -0.4574
vn -0.1155 0.9852 0.1268
vn 0.7948 0.5474 0.2620
vn 0.6800 0.3251 0.6572
vn -0.5036 0.2637 -0.8227
vn 0.1940 0.1273 0.9727
vn -0.6221 -0.6187 0.4798
vn -0.2151 0.3899 0.8954
vn -0.6181 0.6553 0.4342
vn -0.4809 -0.7939 -0.3721
vn 0.3579 0.3021 0.8835
vn 0.6084 0.5239 0.5962
vn 0.3779 0.2600 0.8886
vn -0.4661 0.6807 -0.5652
vn -0.7912 0.4187 0.4457
vn 0.9465 -0.3227 -0.0024
vn 0.4875 0.7297 0.4794
vn 0.2260 0.4076 -0.8848
vn -0.1869 -0.2823 0.9410
vn 0.4633 0.8783 0.1181
vn 0.3427 0.9391 0.0261
vn -0.0685 0.5040 0.8610
vn -0.4201 -0.1212 0.8994
vn 0.0939 0.7652 -0.6369
vn -0.0718 -0.5580 0.8268
vn 0.0077 0.1369 -0.9905
vn 0.9642 -0.2426 -0.1070
vn -0.9966 -0.0627 -0.0526
vn -0.1834 0.1685 -0.9685
vn 0.1000 -0.5724 0.8138
vn -0.9944 -0.0748 0.0741
vn 0.9589 -0.2098 -0.1908
vn 0.0850 -0.9659 -0.2444
vn 0.1215 -0.5927 0.7962
vn -0.9700 -0.1442 0.1957
vn -0.9661 -0.2564 -0.0306
vn 0.9913 -0.1076 -0.0758
vn -0.0271 0.3448 -0.9383
vn -0.0461 -0.9972 -0.0590
vn -0.0219 -0.9640 0.2649
vn 0.1670 -0.1221 0.9784
vn 0.2050 -0.1096 -0.9726
vn 0.9612 -0.1040 0.2554
vn 0.6370 -0.0929 -0.7652
vn 0.5335 -0.4617 -0.7087
vn 0.5906 -0.4053 -0.6977
vn 0.6095 -0.3385 -0.7169
vn 0.9828 -0.0559 0.1761
vn 0.9640 -0.1921 0.1841
vn 0.9578 -0.1916 0.2143
vn 0.1007 -0.4627 -0.8808
vn 0.1834 -0.4452 -0.8764
vn 0.1845 -0.3702 -0.9105
vn 0.1634 0.3472 0.9235
vn 0.1904 0.1491 0.9703
vn 0.1956 0.0215 0.9805
vn -0.9521 -0.0824 0.2946
vn -0.9789 -0.0039 0.2045
vn -0.9791 -0.0878 0.1832
vn -0.1527 -0.2641 -0.9523
vn -0.0270 0.1116 -0.9934
vn -0.0342 0.1013 -0.9943
vn 0.8972 0.1914 0.3981
vn 0.9726 -0.1236 0.1967
vn 0.9904 -0.1340 0.0351
vn -0.9654 0.0632 -0.2528
vn -0.9998 -0.0204 -0.0010
vn -0.9994 0.0058 0.0356
vn -0.5964 0.1144 0.7945
vn -0.3661 -0.2494 0.8965
vn -0.1943 -0.1978 0.9608
vn 0.5522 -0.1613 0.8180
vn 0.3008 0.3730 -0.8777
vn -0.3202 -0.3973 -0.8600
vn -0.3357 -0.7670 -0.5469
vn -0.8740 -0.0601 -0.4822
vt 0.461701 0.809397
vt 0.301930 0.729761
vt 0.094158 0.499911
vt 0.498737 0.648456
vt 0.250869 0.553264
vt 0.714874 0.752530
vt 0.627854 0.740386
vt 0.227533 0.339544
vt 0.300362 0.438253
vt 0.625828 0.633709
vt 0.338991 0.679376
vt 0.653754 0.621457
vt 0.189641 0.785401
vt 0.531284 0.815038
vt 0.232114 0.729761
vt 0.806952 0.326283
vt 0.527824 0.712310
vt 0.703640 0.331352
vt 0.725736 0.123548
vt 0.557184 0.740386
vt 0.714874 0.681901
vt 0.693091 0.138725
vt 0.558638 0.706064
vt 0.944491 0.391302
vt 0.108931 0.369345
vt 0.090202 0.443431
vt 0.952837 0.467016
vt 0.108059 0.346292
vt 0.960024 0.371234
vt 0.653754 0.712739
vt 0.761990 0.055860
vt 0.265996 0.788213
vt 0.829683 0.188590
vt 0.886815 0.394232
vt 0.909606 0.471204
vt 0.826550 0.267021
vt 0.659457 0.749480
vt 0.206417 0.267620
vt 0.238389 0.812575
vt 0.882743 0.373659
vt 0.837846 0.166681
vt 0.102618 0.289588
vt 0.957957 0.321520
vt 0.918648 0.216117
vt 0.803322 0.012950
vt 0.106348 0.638847
vt 0.232551 0.755661
vt 0.798789 0.485160
vt 0.965752 0.239402
vt 0.153968 0.222285
vt 0.894228 0.312474
vt 0.856067 0.102710
vt 0.881967 0.351902
vt 0.842627 0.144082
vt 0.107159 0.331692
vt 0.958812 0.358201
vt 0.199778 0.246429
vt 0.138792 0.619338
vt 0.232114 0.797406
vt 0.967580 0.012950
vt 0.753483 0.682459
vt 0.843831 0.469074
vt 0.256421 0.022764
vt 0.824689 0.472884
vt 0.987050 0.016155
vt 0.832147 0.505580
vt 0.295109 0.018166
vt 0.782932 0.707368
vt 0.843831 0.503254
vt 0.076417 0.467161
vt 0.958695 0.494573
vt 0.833773 0.298242
vt 0.909847 0.503107
vt 0.076958 0.454690
vt 0.951531 0.482650
vt 0.837149 0.281767
vt 0.912926 0.487172
vt 0.064432 0.532285
vt 0.298790 0.687460
vt 0.825577 0.362572
vt 0.264894 0.686125
vt 0.056614 0.518895
vt 0.959622 0.549977
vt 0.837123 0.350740
vt 0.929664 0.555276
vt 0.051257 0.577890
vt 0.291936 0.641182
vt 0.824256 0.407314
vt 0.275162 0.640522
vt 0.035793 0.577862
vt 0.964581 0.612577
vt 0.838997 0.411720
vt 0.948088 0.615681
vt 0.039898 0.592711
vt 0.301778 0.620707
vt 0.403076 0.772170
vt 0.830596 0.428615
vt 0.403076 0.737417
vt 0.267017 0.619338
vt 0.012950 0.593438
vt 0.987050 0.637067
vt 0.428919 0.781443
vt 0.856067 0.440612
vt 0.428919 0.728949
vt 0.935424 0.646785
vt 0.945356 0.412724
vt 0.357115 0.854737
vt 0.331665 0.779032
vt 0.948027 0.441601
vt 0.799629 0.752473
vt 0.327972 0.853161
vt 0.906904 0.416128
vt 0.370069 0.779032
vt 0.684668 0.778429
vt 0.909575 0.445005
vt 0.655249 0.778999
vt 0.799629 0.791035
vt 0.330193 0.729131
vt 0.557184 0.775635
vt 0.363063 0.804932
vt 0.331684 0.807874
vt 0.754247 0.751428
vt 0.586563 0.768755
vt 0.566112 0.815056
vt 0.689281 0.828405
vt 0.370405 0.729131
vt 0.754247 0.791805
vt 0.657717 0.824383
vt 0.595492 0.808176
vt 0.327830 0.637821
vt 0.590400 0.642651
vt 0.164818 0.789976
vt 0.357235 0.619338
vt 0.642851 0.190721
vt 0.562581 0.649581
vt 0.406824 0.626953
vt 0.080449 0.619338
vt 0.646201 0.239681
vt 0.727583 0.656002
vt 0.597847 0.731399
vt 0.712829 0.722239
vt 0.658284 0.323708
vt 0.527919 0.666449
vt 0.661748 0.291537
vt 0.680225 0.245582
vt 0.377645 0.696957
vt 0.285191 0.477898
vt 0.483372 0.812325
vt 0.280072 0.728266
vt 0.924330 0.393087
vt 0.921760 0.373660
vt 0.678504 0.727397
vt 0.268491 0.812575
vt 0.930826 0.465310
vt 0.923786 0.327561
vt 0.941993 0.227167
vt 0.764056 0.466512
vt 0.919524 0.351927
vt 0.977463 0.013354
vt 0.833186 0.466512
vt 0.317617 0.012950
vt 0.798789 0.722800
vt 0.839639 0.522681
vt 0.934403 0.500152
vt 0.932138 0.484309
vt 0.281656 0.689101
vt 0.944784 0.554368
vt 0.283549 0.640852
vt 0.956335 0.614129
vt 0.284323 0.620942
vt 0.399765 0.754789
vt 0.961112 0.640376
vt 0.422297 0.755187
vt 0.926130 0.414426
vt 0.350867 0.779032
vt 0.928801 0.443303
vt 0.799629 0.771754
vt 0.350773 0.728949
vt 0.557184 0.796361
vt 0.753483 0.771844
vt 0.595492 0.787450
vt 0.985581 0.067358
vt 0.238180 0.070710
vt 0.259592 0.052321
vt 0.138792 0.821791
vt 0.953366 0.057503
vt 0.765454 0.639660
vt 0.120235 0.821584
vt 0.772730 0.660154
vt 0.283154 0.037949
vt 0.784440 0.682652
vt 0.128680 0.843910
vt 0.970110 0.058056
vt 0.758353 0.637393
vt 0.180368 0.432154
vt 0.759258 0.257498
vt 0.884976 0.446549
vt 0.828099 0.241547
vt 0.971226 0.428512
vt 0.101516 0.405509
vt 0.908240 0.430567
vt 0.669958 0.778714
vt 0.946692 0.427163
vt 0.342544 0.853949
vt 0.673120 0.826722
vt 0.582140 0.817526
vt 0.570535 0.766286
vt 0.348248 0.806122
vt 0.576699 0.792002
vt 0.653753 0.802281
vt 0.776512 0.794925
vt 0.776512 0.748700
vt 0.327830 0.829868
vt 0.363063 0.830170
vt 0.327830 0.753980
vt 0.373865 0.753980
vt 0.689281 0.803194
vt 0.351093 0.753886
vt 0.776117 0.771930
vt 0.671321 0.802907
vt 0.345899 0.829874
vt 0.457498 0.727404
vt 0.165986 0.548054
vt 0.260364 0.376248
vt 0.625887 0.695531
vt 0.520555 0.743605
vt 0.734596 0.339638
vt 0.406824 0.703049
vt 0.012950 0.651015
vt 0.277407 0.507014
vt 0.206214 0.619338
vt 0.706517 0.466512
vt 0.399765 0.822801
vt 0.181517 0.620770
vt 0.619265 0.470337
vt 0.422433 0.807343
vt 0.582936 0.466512
vt 0.458892 0.202188
vt 0.422433 0.843958
vt 0.727583 0.468029
vt 0.460639 0.221880
vt 0.402692 0.843997
vt 0.717439 0.778459
vt 0.429089 0.593438
vt 0.518160 0.466685
vt 0.070962 0.817001
vt 0.726094 0.791097
vt 0.457498 0.298878
vt 0.715181 0.783741
vt 0.523936 0.466512
vt 0.458951 0.311476
vt 0.719061 0.788282
vt 0.458165 0.306435
vt 0.058766 0.817583
vt 0.726094 0.778429
vt 0.431598 0.585369
vt 0.599953 0.261833
vt 0.080449 0.668491
vt 0.542336 0.274386
vt 0.076079 0.728305
vt 0.500395 0.287212
vt 0.064936 0.773359
vt 0.389801 0.564275
vt 0.039540 0.774208
vt 0.356388 0.547019
vt 0.031995 0.737396
vt 0.319737 0.531779
vt 0.030523 0.696843
vt 0.505723 0.512116
vt 0.384015 0.580847
vt 0.506522 0.550736
vt 0.346302 0.574833
vt 0.507607 0.604105
vt 0.294291 0.566034
vt 0.610540 0.298468
vt 0.545535 0.300686
vt 0.502363 0.302883
vt 0.504402 0.313331
vt 0.517745 0.511765
vt 0.548610 0.318269
vt 0.527842 0.556627
vt 0.609940 0.323717
vt 0.531284 0.618364
vt 0.660591 0.582499
vt 0.204501 0.743892
vt 0.668589 0.550878
vt 0.206214 0.710848
vt 0.668004 0.517120
vt 0.204545 0.678125
vt 0.623877 0.525891
vt 0.164692 0.675333
vt 0.610236 0.563455
vt 0.167167 0.712219
vt 0.605277 0.597358
vt 0.166352 0.745757
vt 0.511839 0.183186
vt 0.584607 0.521652
vt 0.552303 0.182624
vt 0.569857 0.561129
vt 0.598009 0.178631
vt 0.565182 0.606784
vt 0.592158 0.236754
vt 0.721184 0.600612
vt 0.550092 0.232946
vt 0.722606 0.558204
vt 0.518921 0.225772
vt 0.713819 0.525134
s 0
usemtl Material
f 89/196/1 7/19/1 13/33/1 90/198/1
f 8/22/2 7/19/2 89/196/2 58/145/2 54/138/2 53/134/2
f 6/18/3 56/142/3 57/144/3
f 3/8/4 106/224/4 4/9/4 59/147/4 88/195/4
f 6/17/5 107/226/5 5/14/5 60/148/5 1/1/5 105/222/5 2/4/5 56/143/5
f 61/150/6 13/34/6 16/40/6 62/151/6
f 5/16/7 14/36/7 31/76/7 29/72/7
f 88/195/8 1/3/8 10/26/8 91/200/8
f 67/158/9 21/53/9 20/51/9 65/155/9
f 13/33/10 7/19/10 12/31/10 16/41/10
f 3/8/11 9/25/11 11/28/11 15/38/11
f 55/141/12 3/6/12 15/37/12 63/152/12
f 66/156/13 19/49/13 17/43/13 65/155/13
f 23/57/14 22/55/14 17/42/14 19/50/14
f 83/184/15 82/183/15 25/63/15 26/67/15
f 15/38/16 11/28/16 22/55/16 23/57/16
f 62/151/17 16/40/17 21/53/17 67/158/17
f 69/163/18 26/66/18 25/64/18 68/160/18
f 87/193/19 84/186/19 24/60/19 68/159/19
f 86/190/20 83/184/20 26/67/20 69/161/20
f 84/187/21 85/189/21 27/68/21 24/61/21
f 70/164/22 29/73/22 31/77/22 71/165/22
f 70/164/23 28/71/23 34/83/23 73/167/23
f 10/26/24 1/3/24 28/70/24 30/74/24
f 64/154/25 10/27/25 30/75/25 71/165/25
f 34/82/26 32/78/26 36/86/26 38/90/26
f 60/149/27 5/15/27 33/81/27 72/166/27
f 5/16/28 29/72/28 35/84/28 33/80/28
f 28/70/29 1/3/29 32/78/29 34/82/29
f 37/88/30 39/92/30 43/103/30 41/97/30
f 73/167/31 34/83/31 38/91/31 75/169/31
f 33/80/32 35/84/32 39/92/32 37/88/32
f 72/166/33 33/81/33 37/89/33 74/168/33
f 76/171/34 41/98/34 43/104/34 77/173/34
f 74/168/35 37/89/35 41/99/35 76/170/35
f 38/90/36 36/86/36 40/94/36 42/100/36
f 75/169/37 38/91/37 42/101/37 77/172/37
f 102/219/38 97/211/38 51/127/38 81/180/38
f 91/199/39 10/27/39 45/109/39 93/203/39
f 90/197/40 13/34/40 46/112/40 92/201/40
f 61/150/41 9/24/41 44/106/41 78/174/41
f 64/154/42 14/35/42 47/115/42 79/176/42
f 96/209/43 94/206/43 50/124/43 80/179/43
f 101/218/44 99/215/44 48/118/44 80/178/44
f 104/221/45 98/213/45 49/121/45 95/208/45
f 103/220/46 100/217/46 50/125/46 94/205/46
f 8/23/47 53/135/47 52/131/47
f 8/23/48 52/131/48 4/10/48 106/225/48 3/7/48 55/140/48 7/20/48
f 54/138/49 58/145/49 89/196/49 5/16/49 107/227/49 6/18/49 57/144/49
f 100/216/50 101/218/50 80/178/50 50/126/50
f 95/207/51 96/209/51 80/179/51 48/119/51
f 10/27/52 64/154/52 79/176/52 45/109/52
f 13/34/53 61/150/53 78/174/53 46/112/53
f 98/212/54 102/219/54 81/180/54 49/122/54
f 39/93/55 75/169/55 77/172/55 43/105/55
f 36/87/56 74/168/56 76/170/56 40/95/56
f 40/96/57 76/171/57 77/173/57 42/102/57
f 32/79/58 72/166/58 74/168/58 36/87/58
f 35/85/59 73/167/59 75/169/59 39/93/59
f 1/2/60 60/149/60 72/166/60 32/79/60
f 14/35/61 64/154/61 71/165/61 31/77/61
f 29/73/62 70/164/62 73/167/62 35/85/62
f 28/71/63 70/164/63 71/165/63 30/75/63
f 85/189/64 86/191/64 69/162/64 27/68/64
f 82/182/65 87/193/65 68/159/65 25/65/65
f 27/69/66 69/163/66 68/160/66 24/62/66
f 11/29/67 62/151/67 67/158/67 22/56/67
f 18/44/68 66/156/68 65/155/68 20/51/68
f 7/21/69 55/141/69 63/152/69 12/30/69
f 22/56/70 67/158/70 65/155/70 17/43/70
f 9/24/71 61/150/71 62/151/71 11/29/71
f 19/49/72 66/156/72 87/193/72 82/182/72
f 12/31/73 18/45/73 20/52/73 21/54/73 16/41/73
f 66/157/74 18/48/74 84/187/74 87/194/74
f 23/57/75 19/50/75 82/183/75 83/184/75
f 49/123/76 81/181/76 96/209/76 95/207/76
f 97/210/77 103/220/77 94/205/77 51/128/77
f 99/214/78 104/221/78 95/208/78 48/120/78
f 81/181/79 51/129/79 94/206/79 96/209/79
f 14/35/80 90/197/80 92/201/80 47/115/80
f 9/24/81 91/199/81 93/203/81 44/106/81
f 3/8/82 88/195/82 91/200/82 9/25/82
f 5/16/83 89/196/83 90/198/83 14/36/83
f 44/107/84 93/204/84 104/221/84 99/214/84
f 47/116/85 92/202/85 103/220/85 97/210/85
f 45/110/86 79/177/86 102/219/86 98/212/86
f 46/113/87 78/175/87 101/218/87 100/216/87
f 92/202/88 46/114/88 100/217/88 103/220/88
f 93/204/89 45/111/89 98/213/89 104/221/89
f 78/175/90 44/108/90 99/215/90 101/218/90
f 79/177/91 47/117/91 97/211/91 102/219/91
f 59/146/92 4/11/92 52/130/92 53/133/92 54/136/92 108/228/92
f 136/291/93 110/234/93 109/231/93 135/289/93
f 121/264/94 120/262/94 114/246/94 117/254/94
f 139/297/95 111/237/95 110/235/95 136/290/95
f 135/288/96 109/232/96 112/240/96 144/307/96
f 144/306/97 112/241/97 111/238/97 139/296/97
f 111/239/98 112/242/98 109/233/98 110/236/98
f 117/255/99 114/247/99 116/252/99 115/249/99 113/243/99
f 124/270/100 121/263/100 117/256/100 113/244/100
f 120/261/101 129/277/101 116/253/101 114/248/101
f 130/279/102 124/269/102 113/245/102 115/250/102
f 129/277/103 130/278/103 115/251/103 116/253/103
f 57/144/104 56/142/104 132/282/104 127/275/104
f 127/275/105 132/282/105 131/280/105 128/276/105
f 128/276/106 131/280/106 130/278/106 129/277/106
f 56/143/107 2/4/107 126/273/107 132/283/107
f 132/283/108 126/273/108 125/271/108 131/281/108
f 131/281/109 125/271/109 124/269/109 130/279/109
f 54/138/110 57/144/110 127/275/110 118/257/110
f 118/257/111 127/275/111 128/276/111 119/259/111
f 119/259/112 128/276/112 129/277/112 120/261/112
f 2/5/113 108/230/113 123/267/113 126/274/113
f 126/274/114 123/267/114 122/265/114 125/272/114
f 125/272/115 122/265/115 121/263/115 124/270/115
f 108/229/116 54/137/116 118/258/116 123/268/116
f 123/268/117 118/258/117 119/260/117 122/266/117
f 122/266/118 119/260/118 120/262/118 121/264/118
f 54/138/119 142/302/119 141/300/119 53/134/119
f 142/302/120 143/304/120 140/298/120 141/300/120
f 143/304/121 144/306/121 139/296/121 140/298/121
f 4/12/122 133/284/122 142/303/122 54/139/122
f 133/284/123 134/286/123 143/305/123 142/303/123
f 134/286/124 135/288/124 144/307/124 143/305/124
f 53/135/125 141/301/125 138/294/125 52/131/125
f 141/301/126 140/299/126 137/292/126 138/294/126
f 140/299/127 139/297/127 136/290/127 137/292/127
f 52/132/128 138/295/128 133/285/128 4/13/128
f 138/295/129 137/293/129 134/287/129 133/285/129
f 137/293/130 136/291/130 135/289/130 134/287/130
f 105/223/131 1/3/131 88/195/131 59/147/131 108/230/131 2/5/131
f 86/192/132 85/188/132 83/185/132
f 83/185/133 85/188/133 18/46/133 23/58/133
f 63/153/134 15/39/134 23/59/134 18/47/134 12/32/134
f 84/187/135 18/48/135 85/189/135
l 52 106
