# Blender 3.3.1
# www.blender.org
mtllib monstruo_3_grande_caminar633.mtl
o monstruo_grande
v 0.393371 2.008139 0.254805
v 0.510420 1.181028 0.134288
v -0.706851 1.754431 0.202094
v -0.305460 1.094710 0.190380
v 0.548124 2.300265 -0.087296
v 0.551409 1.589146 -0.218163
v -0.832668 1.971924 -0.207085
v -0.731251 1.708668 -0.276773
v -0.315679 2.381201 0.496408
v 0.241287 2.283027 0.455599
v -0.445202 2.347466 0.597127
v -1.200674 2.010425 -0.033098
v -0.314861 2.556966 0.141805
v 0.236505 2.428076 0.196440
v -1.042363 1.880386 0.117101
v -0.477437 2.629140 0.170063
v -0.789098 2.260933 0.624777
v -1.479308 1.927182 0.250868
v -1.194078 1.968325 0.444558
v -0.986302 2.575747 0.369849
v -0.661670 2.664237 0.243955
v -0.517419 2.304880 0.574617
v -1.172789 1.895396 0.127504
v -1.750069 0.658155 0.922691
v -1.622138 0.637325 0.962313
v -1.614627 0.465364 0.757333
v -1.692713 0.478079 0.733150
v 0.398687 2.199972 0.438180
v 0.496505 2.399076 0.183138
v 0.355441 2.312732 0.451323
v 0.368491 2.449594 0.226419
v 0.647693 1.896464 0.246527
v 0.762855 1.992585 0.072650
v 0.666238 1.974929 0.295338
v 0.745322 2.093978 0.145640
v 0.836049 1.677475 0.200925
v 0.911803 1.711594 0.121557
v 0.918586 1.647641 0.259849
v 0.990877 1.690215 0.180335
v 0.858979 1.526264 0.233133
v 1.012525 1.612869 0.070687
v 0.966264 1.433181 0.369771
v 1.191861 1.561460 0.118914
v -0.154539 2.432981 0.515369
v 0.055039 2.406473 0.497260
v -0.155949 2.537382 0.268792
v 0.047941 2.510874 0.255271
v -0.097687 2.744235 0.664014
v 0.107205 2.679190 0.622781
v -0.111702 2.860641 0.411972
v 0.092267 2.796053 0.370372
v -0.504609 1.151326 -0.027467
v -0.383125 1.211043 -0.229941
v -0.041468 1.280290 -0.334414
v -0.764184 1.800271 -0.012993
v 0.558376 1.173116 -0.101360
v 0.351899 1.170042 -0.248097
v 0.006565 1.527765 -0.320452
v -0.030931 1.141179 0.179943
v 0.447692 2.094917 0.139510
v -0.308682 2.443733 0.372472
v -0.469490 2.598967 0.443189
v -0.980372 1.952197 -0.004069
v 0.217702 2.412167 0.356876
v -0.821084 2.488087 0.585770
v -1.369001 2.068642 0.492822
v -0.621996 2.583585 0.438547
v -1.696013 0.645937 0.973551
v -1.639701 0.358577 0.640658
v 0.483507 2.311491 0.340911
v 0.363769 2.426055 0.362017
v 0.663681 1.924140 0.120554
v 0.745588 2.046537 0.252276
v 0.872481 1.697318 0.160964
v 0.954622 1.668131 0.219779
v 0.916206 1.571331 0.135731
v 1.044161 1.502528 0.215618
v -0.155826 2.484924 0.391084
v 0.049663 2.459768 0.375750
v -0.135885 2.803811 0.540482
v 0.131208 2.736420 0.494462
v -1.501798 0.963707 0.905931
v -1.563355 0.790581 0.839463
v -1.722585 0.969997 0.838470
v -1.683770 0.810187 0.802169
v -1.626623 0.634957 0.743728
v -1.632080 0.946614 0.925196
v -0.055907 1.755322 0.518925
v 0.097715 2.139513 -0.184410
v 0.045645 2.517335 0.075207
v -0.000727 2.267636 0.630413
v -0.056860 2.523635 0.260644
v -0.045681 2.419440 0.505139
v -0.012052 2.845570 0.353008
v 0.006809 2.694254 0.681129
v 0.001778 2.820269 0.540617
v 0.082900 2.663269 0.288193
v 0.096493 2.531960 0.576700
v -0.139161 2.581315 0.612268
v -0.155470 2.712579 0.321394
v -0.163569 2.648041 0.468552
v 0.104955 2.597502 0.431116
v -0.038085 2.696688 0.284510
v -0.019334 2.546784 0.614060
v 0.438616 1.692771 -0.001902
v -0.590924 1.471853 0.215885
v 0.554502 1.806457 -0.214671
v 0.151623 1.174883 0.201877
v -0.240879 0.043026 -0.277420
v -0.389773 0.039327 -0.160556
v -0.406164 0.056930 -0.410104
v -0.270517 0.053546 -0.420094
v 0.287533 0.009160 0.282157
v 0.215657 -0.010575 0.207190
v 0.297723 0.002439 0.244402
v 0.266788 -0.005338 0.218421
v 0.228267 0.007667 0.291810
v 0.086346 0.843876 -0.074057
v 0.114424 0.586138 0.073167
v 0.149216 0.300643 0.179164
v 0.179164 0.321090 0.357314
v 0.161635 0.578811 0.368904
v 0.169621 0.855763 0.338112
v 0.301809 0.314923 0.335754
v 0.368551 0.573447 0.332172
v 0.461089 0.907109 0.279581
v 0.342268 0.866038 -0.027556
v 0.292968 0.586322 0.109743
v 0.255648 0.300462 0.201625
v 0.321286 0.306040 0.255969
v 0.403733 0.596835 0.198702
v 0.501343 0.898540 0.093410
v -0.200555 0.806325 0.215202
v -0.181857 0.538488 0.093799
v -0.186813 0.311205 0.013652
v -0.472040 0.316020 -0.005033
v -0.470344 0.585798 0.042969
v -0.483247 0.837563 0.083181
v -0.496997 0.411080 -0.255801
v -0.492734 0.684699 -0.209999
v -0.485818 0.915388 -0.184421
v -0.091208 0.862186 -0.207317
v -0.149550 0.659326 -0.250563
v -0.202948 0.448487 -0.271735
vn -0.0836 0.5610 -0.8236
vn -0.0577 0.1169 -0.9915
vn 0.5680 -0.2136 -0.7948
vn -0.2507 -0.3171 0.9146
vn 0.9367 -0.0022 0.3500
vn 0.6040 0.7708 0.2025
vn 0.0824 0.9173 -0.3895
vn 0.5845 -0.2360 0.7763
vn -0.0985 0.9025 0.4192
vn -0.1890 0.5636 -0.8041
vn -0.0764 -0.5292 0.8450
vn -0.3936 -0.8660 -0.3084
vn -0.1758 -0.1386 0.9746
vn 0.3605 -0.8623 0.3557
vn 0.9566 -0.2573 0.1367
vn 0.0665 -0.7684 0.6366
vn 0.1020 0.9703 0.2195
vn 0.0552 -0.7560 0.6522
vn -0.6336 0.2528 0.7312
vn 0.9088 0.0309 -0.4161
vn -0.8960 0.0402 -0.4421
vn 0.5816 0.7485 0.3186
vn 0.5231 0.1709 0.8350
vn -0.1997 -0.5487 0.8119
vn -0.1040 0.6054 0.7891
vn -0.5015 -0.5085 0.7000
vn -0.3376 -0.5326 -0.7761
vn 0.8019 0.5722 -0.1721
vn -0.1886 -0.6303 0.7531
vn 0.4139 0.7804 -0.4687
vn 0.4534 0.2131 0.8654
vn 0.7429 0.3590 -0.5650
vn -0.3210 -0.3788 -0.8680
vn -0.0650 -0.8008 -0.5955
vn -0.5810 -0.0999 -0.8078
vn -0.6562 0.1599 0.7375
vn 0.6884 0.4142 0.5954
vn 0.9742 -0.0068 -0.2257
vn 0.3894 0.5513 0.7379
vn 0.1187 0.9927 0.0208
vn -0.3040 0.8678 0.3932
vn 0.3787 0.8948 0.2365
vn 0.0570 0.9658 0.2528
vn -0.9568 0.1020 0.2723
vn 0.3317 -0.3740 0.8661
vn -0.2878 0.5039 -0.8144
vn -0.6605 -0.5136 -0.5477
vn -0.8942 -0.4147 0.1688
vn 0.1420 0.1232 -0.9822
vn -0.9721 0.2343 -0.0107
vn 0.0735 0.8215 0.5654
vn 0.4392 0.7194 0.5381
vn -0.2542 0.8737 0.4147
vn 0.9878 -0.1472 0.0511
vn 0.4825 0.2922 0.8257
vn -0.7634 -0.1990 -0.6145
vn -0.1560 -0.8649 -0.4772
vn -0.6891 -0.6093 -0.3922
vn 0.7872 0.4587 0.4122
vn -0.4704 -0.7363 -0.4864
vn -0.1403 0.9828 0.1198
vn 0.7373 0.5866 0.3351
vn 0.6171 0.3352 0.7120
vn -0.4719 0.2557 -0.8437
vn 0.1417 0.1224 0.9823
vn -0.6224 -0.6457 0.4423
vn -0.2163 0.4275 0.8777
vn -0.7044 0.6168 0.3514
vn -0.3900 -0.8450 -0.3658
vn 0.2606 0.3778 0.8884
vn 0.5827 0.5563 0.5925
vn 0.2844 0.3056 0.9087
vn -0.4850 0.6026 -0.6337
vn -0.8417 0.3888 0.3746
vn 0.9584 -0.2751 0.0758
vn 0.5246 0.6858 0.5045
vn 0.2409 0.4341 -0.8681
vn -0.1962 -0.3130 0.9293
vn 0.5038 0.8513 0.1467
vn 0.3155 0.9484 0.0300
vn -0.0992 0.5045 0.8577
vn -0.4324 -0.1475 0.8895
vn 0.1283 0.7674 -0.6282
vn -0.0936 -0.5865 0.8045
vn 0.0269 0.1675 -0.9855
vn 0.9501 -0.2890 -0.1176
vn -0.9994 -0.0086 -0.0333
vn -0.1697 0.2203 -0.9606
vn 0.0863 -0.6100 0.7877
vn -0.9961 -0.0233 0.0852
vn 0.9522 -0.2379 -0.1915
vn 0.1291 -0.9542 -0.2700
vn 0.1717 -0.6192 0.7663
vn -0.9645 -0.1895 0.1841
vn -0.9619 -0.2728 0.0181
vn 0.9865 -0.0904 -0.1367
vn -0.0852 0.3710 -0.9247
vn -0.0292 -0.9973 -0.0681
vn 0.0604 -0.9775 0.2019
vn 0.1620 -0.1776 0.9707
vn 0.2103 -0.0445 -0.9766
vn 0.9631 -0.0870 0.2547
vn 0.6409 -0.0197 -0.7673
vn 0.5331 -0.5331 -0.6570
vn 0.5955 -0.4328 -0.6768
vn 0.6156 -0.3147 -0.7225
vn 0.9765 -0.0613 0.2066
vn 0.9493 -0.2311 0.2133
vn 0.9460 -0.2318 0.2267
vn 0.1002 -0.5307 -0.8416
vn 0.1893 -0.4652 -0.8647
vn 0.1921 -0.3219 -0.9271
vn 0.1371 0.4189 0.8976
vn 0.1774 0.1044 0.9786
vn 0.1730 -0.0318 0.9844
vn -0.9604 -0.0406 0.2758
vn -0.9832 0.0233 0.1811
vn -0.9845 -0.0666 0.1621
vn -0.1628 -0.1989 -0.9664
vn -0.0669 0.1662 -0.9838
vn -0.0901 0.1469 -0.9850
vn 0.9048 0.1559 0.3963
vn 0.9795 -0.1349 0.1498
vn 0.9917 -0.1260 -0.0262
vn -0.9718 0.0721 -0.2247
vn -0.9990 -0.0181 0.0418
vn -0.9958 -0.0049 0.0917
vn -0.5791 0.0615 0.8129
vn -0.3280 -0.2987 0.8962
vn -0.1386 -0.2455 0.9594
vn 0.5290 -0.1839 0.8285
vn 0.3298 0.3937 -0.8580
vn -0.2280 -0.4344 -0.8714
vn -0.2208 -0.8111 -0.5417
vn -0.8572 -0.0931 -0.5066
vt 0.882279 0.260085
vt 0.436089 0.649131
vt 0.117664 0.305524
vt 0.860974 0.338762
vt 0.079561 0.383885
vt 0.278417 0.728674
vt 0.111517 0.716819
vt 0.301243 0.337859
vt 0.232943 0.387386
vt 0.111517 0.662267
vt 0.671871 0.687525
vt 0.175114 0.511099
vt 0.930991 0.712692
vt 0.796001 0.259488
vt 0.522181 0.649131
vt 0.719621 0.316178
vt 0.801110 0.310020
vt 0.698705 0.366293
vt 0.510656 0.337024
vt 0.023033 0.717149
vt 0.367094 0.730187
vt 0.507246 0.358198
vt 0.018976 0.695717
vt 0.103380 0.570561
vt 0.268725 0.266033
vt 0.143950 0.273348
vt 0.098384 0.631539
vt 0.301351 0.259488
vt 0.128079 0.559933
vt 0.480438 0.333338
vt 0.348619 0.714075
vt 0.604958 0.268707
vt 0.031105 0.562973
vt 0.043818 0.625810
vt 0.721993 0.282954
vt 0.329365 0.336360
vt 0.302724 0.713315
vt 0.030374 0.549675
vt 0.582817 0.260846
vt 0.875347 0.642471
vt 0.380514 0.272320
vt 0.124895 0.517524
vt 0.813390 0.578569
vt 0.436089 0.332372
vt 0.956124 0.588845
vt 0.367094 0.692599
vt 0.367094 0.522797
vt 0.871643 0.594841
vt 0.398138 0.324445
vt 0.043891 0.509019
vt 0.796001 0.641153
vt 0.491075 0.268473
vt 0.032114 0.534706
vt 0.552485 0.259488
vt 0.331566 0.259909
vt 0.129819 0.544964
vt 0.339759 0.337186
vt 0.913298 0.588845
vt 0.317584 0.707220
vt 0.845734 0.463378
vt 0.311567 0.646434
vt 0.944558 0.353645
vt 0.398138 0.462439
vt 0.920230 0.354337
vt 0.870057 0.463781
vt 0.929709 0.374247
vt 0.357807 0.478584
vt 0.347994 0.663056
vt 0.944558 0.373825
vt 0.097076 0.285727
vt 0.229765 0.651022
vt 0.758050 0.297859
vt 0.168317 0.651042
vt 0.119329 0.272208
vt 0.094178 0.643292
vt 0.222768 0.636959
vt 0.746872 0.283208
vt 0.174541 0.636975
vt 0.045175 0.638147
vt 0.080672 0.327471
vt 0.442544 0.673801
vt 0.734592 0.339187
vt 0.484453 0.673801
vt 0.070725 0.319456
vt 0.218298 0.685110
vt 0.751374 0.331694
vt 0.180611 0.684911
vt 0.062412 0.356092
vt 0.455575 0.702696
vt 0.724658 0.367821
vt 0.476314 0.702696
vt 0.043357 0.357400
vt 0.210236 0.723455
vt 0.742364 0.370210
vt 0.189444 0.723462
vt 0.050281 0.367705
vt 0.444942 0.715336
vt 0.810526 0.722486
vt 0.728448 0.380153
vt 0.853695 0.722486
vt 0.487920 0.715336
vt 0.018975 0.371756
vt 0.232852 0.738567
vt 0.796001 0.739289
vt 0.758050 0.386241
vt 0.861207 0.739289
vt 0.167770 0.738589
vt 0.100634 0.583041
vt 0.712300 0.698974
vt 0.802197 0.701507
vt 0.098640 0.600731
vt 0.972705 0.287497
vt 0.747907 0.696578
vt 0.052045 0.577939
vt 0.849895 0.701507
vt 0.710445 0.675017
vt 0.050052 0.595630
vt 0.746553 0.677603
vt 0.924885 0.287497
vt 0.797725 0.671259
vt 0.981025 0.313792
vt 0.715147 0.730011
vt 0.752543 0.724602
vt 0.973919 0.259495
vt 0.967002 0.332143
vt 0.934252 0.306472
vt 0.715328 0.644023
vt 0.847669 0.671259
vt 0.923848 0.259495
vt 0.753088 0.649631
vt 0.920230 0.324823
vt 0.068284 0.665533
vt 0.630362 0.705721
vt 0.712055 0.621316
vt 0.966165 0.712391
vt 0.519769 0.388732
vt 0.031375 0.663704
vt 0.592215 0.695479
vt 0.581836 0.620019
vt 0.750017 0.621843
vt 0.569690 0.667298
vt 0.581066 0.387596
vt 0.531739 0.516092
vt 0.642835 0.625048
vt 0.273616 0.509019
vt 0.070982 0.710642
vt 0.316851 0.732164
vt 0.684917 0.393810
vt 0.816625 0.338063
vt 0.644803 0.392946
vt 0.602800 0.367236
vt 0.671871 0.661666
vt 0.181146 0.386242
vt 0.855113 0.259897
vt 0.463196 0.649131
vt 0.077903 0.567886
vt 0.078993 0.554271
vt 0.322237 0.720993
vt 0.070972 0.628379
vt 0.834014 0.651825
vt 0.084160 0.512738
vt 0.838315 0.596273
vt 0.320679 0.509019
vt 0.080733 0.539302
vt 0.857365 0.464048
vt 0.931678 0.351118
vt 0.335174 0.488977
vt 0.367094 0.673623
vt 0.939667 0.384854
vt 0.199177 0.651021
vt 0.069465 0.641494
vt 0.198664 0.632807
vt 0.464209 0.672968
vt 0.199604 0.684998
vt 0.465945 0.702696
vt 0.199840 0.723459
vt 0.466714 0.715004
vt 0.832520 0.720483
vt 0.200177 0.738589
vt 0.829423 0.735282
vt 0.076340 0.580490
vt 0.826046 0.701507
vt 0.074346 0.598181
vt 0.948795 0.287497
vt 0.823088 0.670800
vt 0.959731 0.307426
vt 0.948976 0.259488
vt 0.941524 0.331189
vt 0.875347 0.491894
vt 0.391834 0.432095
vt 0.377694 0.448634
vt 0.915590 0.478791
vt 0.834644 0.488373
vt 0.326937 0.619279
vt 0.938593 0.478810
vt 0.335216 0.632947
vt 0.358601 0.463790
vt 0.348787 0.648138
vt 0.927106 0.463378
vt 0.854274 0.489560
vt 0.315804 0.619182
vt 0.212520 0.321385
vt 0.644070 0.318501
vt 0.018976 0.592450
vt 0.663817 0.276029
vt 0.129819 0.597828
vt 0.224108 0.269832
vt 0.051049 0.586785
vt 0.728499 0.676310
vt 0.099637 0.591886
vt 0.730103 0.697776
vt 0.734390 0.646904
vt 0.920230 0.314550
vt 0.981025 0.324065
vt 0.732426 0.727384
vt 0.950683 0.319044
vt 0.753088 0.663662
vt 0.920230 0.273492
vt 0.977552 0.273492
vt 0.752543 0.710647
vt 0.709822 0.714522
vt 0.796001 0.686127
vt 0.853178 0.686127
vt 0.709822 0.659561
vt 0.824792 0.685890
vt 0.948939 0.273488
vt 0.731549 0.661651
vt 0.730449 0.712624
vt 0.878850 0.297575
vt 0.096711 0.342677
vt 0.285581 0.357771
vt 0.108549 0.696221
vt 0.804979 0.293594
vt 0.708839 0.350023
vt 0.668288 0.644023
vt 0.436089 0.526409
vt 0.145034 0.385321
vt 0.919159 0.607821
vt 0.247387 0.613831
vt 0.970304 0.416607
vt 0.947808 0.608020
vt 0.704660 0.516092
vt 0.970304 0.403829
vt 0.750017 0.516884
vt 0.618892 0.516092
vt 0.920230 0.404231
vt 0.273616 0.612878
vt 0.642836 0.516847
vt 0.938584 0.415207
vt 0.924281 0.443436
vt 0.075400 0.489812
vt 0.855524 0.444402
vt 0.531739 0.629156
vt 0.934913 0.435583
vt 0.576828 0.496673
vt 0.931440 0.443424
vt 0.848383 0.444289
vt 0.592622 0.497116
vt 0.934913 0.440184
vt 0.586164 0.496977
vt 0.517161 0.630156
vt 0.920230 0.438606
vt 0.085942 0.490043
vt 0.585376 0.420489
vt 0.510472 0.551446
vt 0.582586 0.444044
vt 0.504260 0.576063
vt 0.581388 0.469636
vt 0.508131 0.602400
vt 0.103684 0.463024
vt 0.477645 0.604263
vt 0.118194 0.440373
vt 0.454885 0.581958
vt 0.129418 0.415411
vt 0.438452 0.557360
vt 0.876897 0.417052
vt 0.081901 0.462161
vt 0.882279 0.393921
vt 0.081653 0.438865
vt 0.880271 0.363315
vt 0.079604 0.408162
vt 0.633117 0.418943
vt 0.615530 0.444447
vt 0.600997 0.469910
vt 0.614559 0.469949
vt 0.862035 0.416811
vt 0.638313 0.444473
vt 0.857648 0.390640
vt 0.666106 0.417503
vt 0.844696 0.362700
vt 0.167770 0.536691
vt 0.914144 0.688660
vt 0.182151 0.561697
vt 0.913298 0.663084
vt 0.189855 0.582503
vt 0.915415 0.641729
vt 0.680787 0.549268
vt 0.966165 0.641681
vt 0.684678 0.573659
vt 0.963812 0.665813
vt 0.684995 0.596421
vt 0.964308 0.688427
vt 0.584794 0.548886
vt 0.729850 0.550060
vt 0.578610 0.572959
vt 0.734888 0.574452
vt 0.569690 0.595426
vt 0.736445 0.597214
vt 0.642060 0.590920
vt 0.247172 0.543053
vt 0.641052 0.570535
vt 0.248998 0.562413
vt 0.635978 0.552556
vt 0.245738 0.579271
s 0
usemtl Material
f 89/203/1 7/19/1 13/32/1 90/205/1
f 8/22/2 7/19/2 89/203/2 58/151/2 54/142/2 53/136/2
f 6/18/3 56/148/3 57/150/3
f 3/8/4 106/231/4 4/9/4 59/153/4 88/202/4
f 6/17/5 107/233/5 5/14/5 60/154/5 1/1/5 105/229/5 2/4/5 56/149/5
f 61/156/6 13/33/6 16/38/6 62/157/6
f 5/16/7 14/35/7 31/77/7 29/72/7
f 88/202/8 1/3/8 10/26/8 91/207/8
f 67/164/9 21/53/9 20/50/9 65/161/9
f 13/32/10 7/19/10 12/30/10 16/39/10
f 3/8/11 9/25/11 11/28/11 15/36/11
f 55/147/12 3/6/12 15/37/12 63/158/12
f 66/162/13 19/48/13 17/40/13 65/160/13
f 23/57/14 22/55/14 17/41/14 19/49/14
f 83/191/15 82/190/15 25/63/15 26/67/15
f 15/36/16 11/28/16 22/55/16 23/57/16
f 62/157/17 16/38/17 21/53/17 67/164/17
f 69/169/18 26/66/18 25/64/18 68/166/18
f 87/200/19 84/193/19 24/60/19 68/165/19
f 86/197/20 83/191/20 26/67/20 69/167/20
f 84/194/21 85/196/21 27/68/21 24/61/21
f 70/170/22 29/73/22 31/78/22 71/172/22
f 70/170/23 28/71/23 34/85/23 73/174/23
f 10/26/24 1/3/24 28/70/24 30/74/24
f 64/159/25 10/27/25 30/75/25 71/171/25
f 34/84/26 32/80/26 36/88/26 38/92/26
f 60/155/27 5/15/27 33/83/27 72/173/27
f 5/16/28 29/72/28 35/86/28 33/82/28
f 28/70/29 1/3/29 32/80/29 34/84/29
f 37/90/30 39/94/30 43/105/30 41/99/30
f 73/174/31 34/85/31 38/93/31 75/176/31
f 33/82/32 35/86/32 39/94/32 37/90/32
f 72/173/33 33/83/33 37/91/33 74/175/33
f 76/178/34 41/100/34 43/106/34 77/180/34
f 74/175/35 37/91/35 41/101/35 76/177/35
f 38/92/36 36/88/36 40/96/36 42/102/36
f 75/176/37 38/93/37 42/103/37 77/179/37
f 102/226/38 97/218/38 51/129/38 81/187/38
f 91/206/39 10/27/39 45/111/39 93/210/39
f 90/204/40 13/33/40 46/114/40 92/208/40
f 61/156/41 9/24/41 44/108/41 78/181/41
f 64/159/42 14/34/42 47/117/42 79/183/42
f 96/216/43 94/213/43 50/126/43 80/186/43
f 101/225/44 99/222/44 48/120/44 80/185/44
f 104/228/45 98/220/45 49/123/45 95/215/45
f 103/227/46 100/224/46 50/127/46 94/212/46
f 8/23/47 53/137/47 52/132/47
f 8/23/48 52/132/48 4/10/48 106/232/48 3/7/48 55/146/48 7/20/48
f 54/142/49 58/151/49 89/203/49 5/16/49 107/234/49 6/18/49 57/150/49
f 100/223/50 101/225/50 80/185/50 50/128/50
f 95/214/51 96/216/51 80/186/51 48/121/51
f 10/27/52 64/159/52 79/183/52 45/111/52
f 13/33/53 61/156/53 78/181/53 46/114/53
f 98/219/54 102/226/54 81/187/54 49/124/54
f 39/95/55 75/176/55 77/179/55 43/107/55
f 36/89/56 74/175/56 76/177/56 40/97/56
f 40/98/57 76/178/57 77/180/57 42/104/57
f 32/81/58 72/173/58 74/175/58 36/89/58
f 35/87/59 73/174/59 75/176/59 39/95/59
f 1/2/60 60/155/60 72/173/60 32/81/60
f 14/34/61 64/159/61 71/171/61 31/79/61
f 29/73/62 70/170/62 73/174/62 35/87/62
f 28/71/63 70/170/63 71/172/63 30/76/63
f 85/196/64 86/198/64 69/168/64 27/68/64
f 82/189/65 87/200/65 68/165/65 25/65/65
f 27/69/66 69/169/66 68/166/66 24/62/66
f 11/29/67 62/157/67 67/164/67 22/56/67
f 18/43/68 66/162/68 65/160/68 20/51/68
f 7/21/69 55/147/69 63/158/69 12/31/69
f 22/56/70 67/164/70 65/161/70 17/42/70
f 9/24/71 61/156/71 62/157/71 11/29/71
f 19/48/72 66/162/72 87/200/72 82/189/72
f 12/30/73 18/44/73 20/52/73 21/54/73 16/39/73
f 66/163/74 18/47/74 84/194/74 87/201/74
f 23/57/75 19/49/75 82/190/75 83/191/75
f 49/125/76 81/188/76 96/216/76 95/214/76
f 97/217/77 103/227/77 94/212/77 51/130/77
f 99/221/78 104/228/78 95/215/78 48/122/78
f 81/188/79 51/131/79 94/213/79 96/216/79
f 14/34/80 90/204/80 92/208/80 47/117/80
f 9/24/81 91/206/81 93/210/81 44/108/81
f 3/8/82 88/202/82 91/207/82 9/25/82
f 5/16/83 89/203/83 90/205/83 14/35/83
f 44/109/84 93/211/84 104/228/84 99/221/84
f 47/118/85 92/209/85 103/227/85 97/217/85
f 45/112/86 79/184/86 102/226/86 98/219/86
f 46/115/87 78/182/87 101/225/87 100/223/87
f 92/209/88 46/116/88 100/224/88 103/227/88
f 93/211/89 45/113/89 98/220/89 104/228/89
f 78/182/90 44/110/90 99/222/90 101/225/90
f 79/184/91 47/119/91 97/218/91 102/226/91
f 59/152/92 4/11/92 52/133/92 53/138/92 54/141/92 108/235/92
f 136/298/93 110/241/93 109/238/93 135/296/93
f 121/271/94 120/269/94 114/253/94 117/261/94
f 139/304/95 111/244/95 110/242/95 136/297/95
f 135/295/96 109/239/96 112/247/96 144/314/96
f 144/313/97 112/248/97 111/245/97 139/303/97
f 111/246/98 112/249/98 109/240/98 110/243/98
f 117/262/99 114/254/99 116/259/99 115/256/99 113/250/99
f 124/277/100 121/270/100 117/263/100 113/251/100
f 120/268/101 129/284/101 116/260/101 114/255/101
f 130/286/102 124/276/102 113/252/102 115/257/102
f 129/284/103 130/285/103 115/258/103 116/260/103
f 57/150/104 56/148/104 132/289/104 127/282/104
f 127/282/105 132/289/105 131/287/105 128/283/105
f 128/283/106 131/287/106 130/285/106 129/284/106
f 56/149/107 2/4/107 126/280/107 132/290/107
f 132/290/108 126/280/108 125/278/108 131/288/108
f 131/288/109 125/278/109 124/276/109 130/286/109
f 54/142/110 57/150/110 127/282/110 118/264/110
f 118/264/111 127/282/111 128/283/111 119/266/111
f 119/266/112 128/283/112 129/284/112 120/268/112
f 2/5/113 108/237/113 123/274/113 126/281/113
f 126/281/114 123/274/114 122/272/114 125/279/114
f 125/279/115 122/272/115 121/270/115 124/277/115
f 108/236/116 54/143/116 118/265/116 123/275/116
f 123/275/117 118/265/117 119/267/117 122/273/117
f 122/273/118 119/267/118 120/269/118 121/271/118
f 54/144/119 142/309/119 141/307/119 53/139/119
f 142/309/120 143/311/120 140/305/120 141/307/120
f 143/311/121 144/313/121 139/303/121 140/305/121
f 4/12/122 133/291/122 142/310/122 54/145/122
f 133/291/123 134/293/123 143/312/123 142/310/123
f 134/293/124 135/295/124 144/314/124 143/312/124
f 53/140/125 141/308/125 138/301/125 52/134/125
f 141/308/126 140/306/126 137/299/126 138/301/126
f 140/306/127 139/304/127 136/297/127 137/299/127
f 52/135/128 138/302/128 133/292/128 4/13/128
f 138/302/129 137/300/129 134/294/129 133/292/129
f 137/300/130 136/298/130 135/296/130 134/294/130
f 105/230/131 1/3/131 88/202/131 59/153/131 108/237/131 2/5/131
f 86/199/132 85/195/132 83/192/132
f 83/192/133 85/195/133 18/45/133 23/58/133
f 63/158/134 15/37/134 23/59/134 18/46/134 12/31/134
f 84/194/135 18/47/135 85/196/135
l 52 106
