# Blender 3.3.1
# www.blender.org
mtllib monstruo_3_grande_caminar605.mtl
o monstruo_grande
v 0.311019 2.045561 0.171922
v 0.526352 1.210154 0.085405
v -0.733387 1.726572 0.173312
v -0.291538 1.129310 0.224456
v 0.465222 2.334446 -0.170067
v 0.508044 1.638978 -0.265232
v -0.869138 1.924799 -0.258352
v -0.756552 1.640571 -0.314792
v -0.379475 2.399846 0.420446
v 0.183156 2.318735 0.383761
v -0.512604 2.368422 0.523250
v -1.235863 1.967854 -0.108315
v -0.377606 2.547467 0.054876
v 0.167539 2.454087 0.122226
v -1.083379 1.846094 0.062057
v -0.541310 2.613537 0.072327
v -0.868564 2.279862 0.541821
v -1.530695 1.905400 0.153849
v -1.260383 1.969239 0.361722
v -1.053006 2.568537 0.248825
v -0.724196 2.649529 0.135222
v -0.590251 2.321837 0.503939
v -1.216766 1.865806 0.057804
v -1.815434 0.684337 0.904882
v -1.689674 0.669564 0.953219
v -1.667395 0.481752 0.763815
v -1.744155 0.490770 0.734312
v 0.336902 2.233634 0.358566
v 0.430284 2.430379 0.101139
v 0.296243 2.350917 0.374527
v 0.299184 2.481441 0.146725
v 0.553260 1.915755 0.139958
v 0.669570 2.018209 -0.031106
v 0.581915 1.993391 0.195278
v 0.660524 2.112880 0.045223
v 0.710042 1.693657 0.052052
v 0.792347 1.726194 -0.019080
v 0.782886 1.633579 0.098970
v 0.864314 1.678529 0.029887
v 0.699251 1.538004 0.045402
v 0.871870 1.627444 -0.095185
v 0.781262 1.393622 0.151574
v 1.034253 1.528589 -0.067647
v -0.218387 2.458493 0.441661
v -0.007300 2.436453 0.426836
v -0.219992 2.549250 0.190571
v -0.017610 2.528506 0.180208
v -0.162171 2.771882 0.585530
v 0.043033 2.706438 0.546544
v -0.175347 2.883282 0.330986
v 0.028430 2.818393 0.290915
v -0.499608 1.127567 0.013095
v -0.387344 1.143784 -0.201594
v -0.052065 1.262221 -0.335439
v -0.790114 1.758407 -0.052305
v 0.549009 1.226487 -0.152652
v 0.329882 1.221231 -0.278222
v -0.017704 1.515243 -0.338101
v -0.012186 1.150299 0.198291
v 0.363706 2.132494 0.055507
v -0.372460 2.452482 0.292112
v -0.540731 2.606194 0.347243
v -1.013759 1.907985 -0.062195
v 0.151359 2.443131 0.282058
v -0.899616 2.501800 0.480925
v -1.438898 2.069204 0.390303
v -0.692972 2.584887 0.340635
v -1.764212 0.677457 0.959536
v -1.683859 0.365337 0.655086
v 0.422050 2.340778 0.258286
v 0.297754 2.462039 0.281961
v 0.565797 1.955661 0.013133
v 0.663394 2.062662 0.149670
v 0.750707 1.714223 0.017033
v 0.823298 1.655138 0.063953
v 0.766810 1.592378 -0.039876
v 0.875384 1.480500 0.016543
v -0.219789 2.503270 0.315103
v -0.013985 2.483700 0.302905
v -0.199884 2.828973 0.460682
v 0.067340 2.761366 0.416965
v -1.571833 0.992828 0.877065
v -1.626492 0.813591 0.821692
v -1.788421 0.988727 0.796920
v -1.744862 0.827496 0.776196
v -1.681462 0.649382 0.735663
v -1.702703 0.974536 0.890306
v -0.086901 1.789586 0.486286
v 0.037791 2.142480 -0.236824
v -0.019240 2.523524 -0.000450
v -0.053995 2.300224 0.566485
v -0.120806 2.537675 0.183781
v -0.108657 2.444898 0.433552
v -0.075811 2.867143 0.272209
v -0.057668 2.722442 0.604110
v -0.062254 2.845692 0.461151
v 0.018733 2.683768 0.210471
v 0.032410 2.559520 0.502748
v -0.203337 2.608128 0.536441
v -0.219333 2.732083 0.241509
v -0.227469 2.671561 0.390925
v 0.041121 2.621731 0.355489
v -0.101920 2.715930 0.205408
v -0.083311 2.573838 0.539676
v 0.365986 1.746378 -0.035674
v -0.599746 1.456748 0.202691
v 0.488235 1.863548 -0.269804
v 0.178454 1.168649 0.198744
v -0.187380 0.005334 -0.038748
v -0.331247 0.011345 0.084234
v -0.358247 0.010518 -0.165520
v -0.223153 0.005483 -0.180872
v 0.369013 0.081856 -0.121131
v 0.294524 0.087985 -0.196051
v 0.377821 0.085632 -0.159579
v 0.345900 0.087104 -0.185510
v 0.310188 0.080552 -0.110165
v 0.108328 0.882094 -0.099175
v 0.171707 0.692137 -0.065457
v 0.229067 0.398299 -0.109807
v 0.270772 0.341390 0.057872
v 0.240650 0.566008 0.182377
v 0.231824 0.828359 0.276227
v 0.391659 0.354982 0.030558
v 0.444700 0.594905 0.141511
v 0.512616 0.916206 0.209695
v 0.362607 0.914359 -0.081410
v 0.352223 0.691828 -0.042204
v 0.336609 0.396810 -0.094143
v 0.405673 0.383333 -0.045755
v 0.468749 0.673681 0.036604
v 0.531969 0.939633 0.023845
v -0.171286 0.866036 0.322821
v -0.143391 0.572801 0.259193
v -0.136904 0.331327 0.220629
v -0.421682 0.319594 0.205536
v -0.434326 0.595497 0.204753
v -0.458701 0.851720 0.198627
v -0.452932 0.368995 -0.058805
v -0.463077 0.644424 -0.060103
v -0.472575 0.862451 -0.078477
v -0.075682 0.826144 -0.104799
v -0.119256 0.628524 -0.100138
v -0.161231 0.416659 -0.084776
vn -0.1011 0.5111 -0.8535
vn -0.0583 0.0356 -0.9977
vn 0.4921 -0.1834 -0.8510
vn -0.2414 -0.2619 0.9344
vn 0.9289 0.0846 0.3605
vn 0.5687 0.8078 0.1550
vn 0.0507 0.9158 -0.3984
vn 0.6551 -0.1928 0.7305
vn -0.1276 0.9338 0.3343
vn -0.1689 0.4908 -0.8547
vn -0.0976 -0.4503 0.8875
vn -0.3665 -0.8953 -0.2533
vn -0.2367 -0.0567 0.9699
vn 0.3341 -0.8214 0.4623
vn 0.9513 -0.2246 0.2110
vn 0.0056 -0.6836 0.7298
vn 0.0674 0.9874 0.1435
vn 0.0302 -0.6993 0.7142
vn -0.6793 0.2976 0.6708
vn 0.9307 0.0167 -0.3655
vn -0.8695 -0.0152 -0.4937
vn 0.5881 0.7513 0.2995
vn 0.5789 0.1201 0.8065
vn -0.1708 -0.5505 0.8172
vn -0.0954 0.6261 0.7739
vn -0.5493 -0.5397 0.6380
vn -0.4009 -0.4830 -0.7785
vn 0.8210 0.5380 -0.1911
vn -0.1875 -0.6400 0.7451
vn 0.5730 0.7703 -0.2800
vn 0.5268 0.0464 0.8487
vn 0.7770 0.3517 -0.5221
vn -0.3718 -0.2412 -0.8965
vn -0.2219 -0.5935 -0.7736
vn -0.5669 0.2311 -0.7907
vn -0.6219 0.1096 0.7754
vn 0.7486 0.0993 0.6556
vn 0.9743 -0.0111 -0.2252
vn 0.3785 0.5961 0.7081
vn 0.0689 0.9957 -0.0617
vn -0.3520 0.8769 0.3274
vn 0.3453 0.9177 0.1965
vn 0.0548 0.9710 0.2328
vn -0.9579 0.1064 0.2666
vn 0.3305 -0.3601 0.8724
vn -0.2865 0.4914 -0.8224
vn -0.6873 -0.6031 -0.4049
vn -0.8718 -0.4377 0.2198
vn 0.0863 0.0879 -0.9924
vn -0.9720 0.2344 -0.0174
vn 0.0693 0.8325 0.5497
vn 0.4253 0.7538 0.5009
vn -0.3266 0.8790 0.3473
vn 0.9875 -0.1473 0.0554
vn 0.5166 -0.0288 0.8558
vn -0.7754 0.1268 -0.6186
vn -0.3275 -0.6677 -0.6685
vn -0.7619 -0.4835 -0.4311
vn 0.8556 0.3209 0.4062
vn -0.5475 -0.6727 -0.4976
vn -0.1712 0.9811 0.0907
vn 0.7860 0.5384 0.3039
vn 0.6530 0.3391 0.6772
vn -0.4266 0.1762 -0.8871
vn 0.0825 0.2047 0.9753
vn -0.6359 -0.6211 0.4582
vn -0.2415 0.5003 0.8315
vn -0.7304 0.6354 0.2506
vn -0.3639 -0.8661 -0.3426
vn 0.2009 0.4562 0.8669
vn 0.5460 0.6247 0.5582
vn 0.2215 0.3790 0.8985
vn -0.4519 0.5348 -0.7140
vn -0.8725 0.3920 0.2917
vn 0.9576 -0.2400 0.1593
vn 0.5213 0.6965 0.4931
vn 0.2435 0.4199 -0.8743
vn -0.2012 -0.2963 0.9337
vn 0.5011 0.8556 0.1297
vn 0.2726 0.9617 -0.0290
vn -0.1285 0.5284 0.8392
vn -0.4278 -0.1083 0.8973
vn 0.0571 0.7437 -0.6661
vn -0.1020 -0.5721 0.8138
vn 0.0339 0.1482 -0.9884
vn 0.9504 -0.2909 -0.1103
vn -0.9994 -0.0084 -0.0322
vn -0.1651 0.2029 -0.9652
vn 0.0970 -0.5991 0.7948
vn -0.9962 -0.0223 0.0846
vn 0.9513 -0.2431 -0.1895
vn 0.1447 -0.9779 -0.1511
vn 0.2187 -0.4920 0.8427
vn -0.9572 -0.2446 0.1545
vn -0.9530 -0.2921 0.0804
vn 0.9859 -0.0792 -0.1475
vn -0.1179 0.2483 -0.9615
vn -0.0359 -0.9993 0.0075
vn 0.0072 -0.9963 -0.0859
vn 0.2200 -0.4960 0.8400
vn 0.1599 0.2896 -0.9437
vn 0.9762 -0.1563 0.1504
vn 0.5982 0.2400 -0.7646
vn 0.4805 -0.4577 -0.7481
vn 0.5365 -0.1688 -0.8268
vn 0.5745 0.1089 -0.8112
vn 0.9951 -0.0017 0.0985
vn 0.9724 -0.2234 0.0666
vn 0.9697 -0.2358 0.0643
vn 0.0936 -0.5120 -0.8539
vn 0.1044 -0.1601 -0.9816
vn 0.1330 0.1691 -0.9766
vn 0.2025 0.3083 0.9295
vn 0.2719 -0.2829 0.9198
vn 0.2393 -0.4483 0.8612
vn -0.9311 -0.1274 0.3418
vn -0.9529 -0.1842 0.2411
vn -0.9631 -0.2152 0.1617
vn -0.1489 -0.4191 -0.8957
vn -0.0925 -0.0475 -0.9946
vn -0.1019 -0.0273 -0.9944
vn 0.9006 0.2806 0.3320
vn 0.9876 -0.0495 0.1493
vn 0.9969 -0.0772 -0.0167
vn -0.9797 -0.0316 -0.1977
vn -0.9952 -0.0674 0.0709
vn -0.9936 -0.0407 0.1051
vn -0.5478 0.2557 0.7966
vn -0.2944 -0.1271 0.9472
vn -0.1210 -0.0767 0.9897
vn 0.5846 -0.0581 0.8093
vn 0.3722 0.3299 -0.8675
vn -0.1616 -0.5046 -0.8481
vn -0.1889 -0.8479 -0.4953
vn -0.8233 -0.1521 -0.5468
vt 0.882279 0.260085
vt 0.436089 0.649131
vt 0.117664 0.305524
vt 0.860974 0.338762
vt 0.079561 0.383885
vt 0.278417 0.728674
vt 0.111517 0.716819
vt 0.301243 0.337859
vt 0.232943 0.387386
vt 0.111517 0.662267
vt 0.671871 0.687525
vt 0.175114 0.511099
vt 0.930991 0.712692
vt 0.796001 0.259488
vt 0.522181 0.649131
vt 0.719621 0.316178
vt 0.801110 0.310020
vt 0.698705 0.366293
vt 0.510656 0.337024
vt 0.023033 0.717149
vt 0.367094 0.730187
vt 0.507246 0.358198
vt 0.018976 0.695717
vt 0.103380 0.570561
vt 0.268725 0.266033
vt 0.143950 0.273348
vt 0.098384 0.631539
vt 0.301351 0.259488
vt 0.128079 0.559933
vt 0.480438 0.333338
vt 0.348619 0.714075
vt 0.604958 0.268707
vt 0.031105 0.562973
vt 0.043818 0.625810
vt 0.721993 0.282954
vt 0.329365 0.336360
vt 0.302724 0.713315
vt 0.030374 0.549675
vt 0.582817 0.260846
vt 0.875347 0.642471
vt 0.380514 0.272320
vt 0.124895 0.517524
vt 0.813390 0.578569
vt 0.436089 0.332372
vt 0.956124 0.588845
vt 0.367094 0.692599
vt 0.367094 0.522797
vt 0.871643 0.594841
vt 0.398138 0.324445
vt 0.043891 0.509019
vt 0.796001 0.641153
vt 0.491075 0.268473
vt 0.032114 0.534706
vt 0.552485 0.259488
vt 0.331566 0.259909
vt 0.129819 0.544964
vt 0.339759 0.337186
vt 0.913298 0.588845
vt 0.317584 0.707220
vt 0.845734 0.463378
vt 0.311567 0.646434
vt 0.944558 0.353645
vt 0.398138 0.462439
vt 0.920230 0.354337
vt 0.870057 0.463781
vt 0.929709 0.374247
vt 0.357807 0.478584
vt 0.347994 0.663056
vt 0.944558 0.373825
vt 0.097076 0.285727
vt 0.229765 0.651022
vt 0.758050 0.297859
vt 0.168317 0.651042
vt 0.119329 0.272208
vt 0.094178 0.643292
vt 0.222768 0.636959
vt 0.746872 0.283208
vt 0.174541 0.636975
vt 0.045175 0.638147
vt 0.080672 0.327471
vt 0.442544 0.673801
vt 0.734592 0.339187
vt 0.484453 0.673801
vt 0.070725 0.319456
vt 0.218298 0.685110
vt 0.751374 0.331694
vt 0.180611 0.684911
vt 0.062412 0.356092
vt 0.455575 0.702696
vt 0.724658 0.367821
vt 0.476314 0.702696
vt 0.043357 0.357400
vt 0.210236 0.723455
vt 0.742364 0.370210
vt 0.189444 0.723462
vt 0.050281 0.367705
vt 0.444942 0.715336
vt 0.810526 0.722486
vt 0.728448 0.380153
vt 0.853695 0.722486
vt 0.487920 0.715336
vt 0.018975 0.371756
vt 0.232852 0.738567
vt 0.796001 0.739289
vt 0.758050 0.386241
vt 0.861207 0.739289
vt 0.167770 0.738589
vt 0.100634 0.583041
vt 0.712300 0.698974
vt 0.802197 0.701507
vt 0.098640 0.600731
vt 0.972705 0.287497
vt 0.747907 0.696578
vt 0.052045 0.577939
vt 0.849895 0.701507
vt 0.710445 0.675017
vt 0.050052 0.595630
vt 0.746553 0.677603
vt 0.924885 0.287497
vt 0.797725 0.671259
vt 0.981025 0.313792
vt 0.715147 0.730011
vt 0.752543 0.724602
vt 0.973919 0.259495
vt 0.967002 0.332143
vt 0.934252 0.306472
vt 0.715328 0.644023
vt 0.847669 0.671259
vt 0.923848 0.259495
vt 0.753088 0.649631
vt 0.920230 0.324823
vt 0.068284 0.665533
vt 0.630362 0.705721
vt 0.712055 0.621316
vt 0.966165 0.712391
vt 0.519769 0.388732
vt 0.031375 0.663704
vt 0.592215 0.695479
vt 0.581836 0.620019
vt 0.750017 0.621843
vt 0.569690 0.667298
vt 0.581066 0.387596
vt 0.531739 0.516092
vt 0.642835 0.625048
vt 0.273616 0.509019
vt 0.070982 0.710642
vt 0.316851 0.732164
vt 0.684917 0.393810
vt 0.816625 0.338063
vt 0.644803 0.392946
vt 0.602800 0.367236
vt 0.671871 0.661666
vt 0.181146 0.386242
vt 0.855113 0.259897
vt 0.463196 0.649131
vt 0.077903 0.567886
vt 0.078993 0.554271
vt 0.322237 0.720993
vt 0.070972 0.628379
vt 0.834014 0.651825
vt 0.084160 0.512738
vt 0.838315 0.596273
vt 0.320679 0.509019
vt 0.080733 0.539302
vt 0.857365 0.464048
vt 0.931678 0.351118
vt 0.335174 0.488977
vt 0.367094 0.673623
vt 0.939667 0.384854
vt 0.199177 0.651021
vt 0.069465 0.641494
vt 0.198664 0.632807
vt 0.464209 0.672968
vt 0.199604 0.684998
vt 0.465945 0.702696
vt 0.199840 0.723459
vt 0.466714 0.715004
vt 0.832520 0.720483
vt 0.200177 0.738589
vt 0.829423 0.735282
vt 0.076340 0.580490
vt 0.826046 0.701507
vt 0.074346 0.598181
vt 0.948795 0.287497
vt 0.823088 0.670800
vt 0.959731 0.307426
vt 0.948976 0.259488
vt 0.941524 0.331189
vt 0.875347 0.491894
vt 0.391834 0.432095
vt 0.377694 0.448634
vt 0.915590 0.478791
vt 0.834644 0.488373
vt 0.326937 0.619279
vt 0.938593 0.478810
vt 0.335216 0.632947
vt 0.358601 0.463790
vt 0.348787 0.648138
vt 0.927106 0.463378
vt 0.854274 0.489560
vt 0.315804 0.619182
vt 0.212520 0.321385
vt 0.644070 0.318501
vt 0.018976 0.592450
vt 0.663817 0.276029
vt 0.129819 0.597828
vt 0.224108 0.269832
vt 0.051049 0.586785
vt 0.728499 0.676310
vt 0.099637 0.591886
vt 0.730103 0.697776
vt 0.734390 0.646904
vt 0.920230 0.314550
vt 0.981025 0.324065
vt 0.732426 0.727384
vt 0.950683 0.319044
vt 0.753088 0.663662
vt 0.920230 0.273492
vt 0.977552 0.273492
vt 0.752543 0.710647
vt 0.709822 0.714522
vt 0.796001 0.686127
vt 0.853178 0.686127
vt 0.709822 0.659561
vt 0.824792 0.685890
vt 0.948939 0.273488
vt 0.731549 0.661651
vt 0.730449 0.712624
vt 0.878850 0.297575
vt 0.096711 0.342677
vt 0.285581 0.357771
vt 0.108549 0.696221
vt 0.804979 0.293594
vt 0.708839 0.350023
vt 0.668288 0.644023
vt 0.436089 0.526409
vt 0.145034 0.385321
vt 0.919159 0.607821
vt 0.247387 0.613831
vt 0.970304 0.416607
vt 0.947808 0.608020
vt 0.704660 0.516092
vt 0.970304 0.403829
vt 0.750017 0.516884
vt 0.618892 0.516092
vt 0.920230 0.404231
vt 0.273616 0.612878
vt 0.642836 0.516847
vt 0.938584 0.415207
vt 0.924281 0.443436
vt 0.075400 0.489812
vt 0.855524 0.444402
vt 0.531739 0.629156
vt 0.934913 0.435583
vt 0.576828 0.496673
vt 0.931440 0.443424
vt 0.848383 0.444289
vt 0.592622 0.497116
vt 0.934913 0.440184
vt 0.586164 0.496977
vt 0.517161 0.630156
vt 0.920230 0.438606
vt 0.085942 0.490043
vt 0.585376 0.420489
vt 0.510472 0.551446
vt 0.582586 0.444044
vt 0.504260 0.576063
vt 0.581388 0.469636
vt 0.508131 0.602400
vt 0.103684 0.463024
vt 0.477645 0.604263
vt 0.118194 0.440373
vt 0.454885 0.581958
vt 0.129418 0.415411
vt 0.438452 0.557360
vt 0.876897 0.417052
vt 0.081901 0.462161
vt 0.882279 0.393921
vt 0.081653 0.438865
vt 0.880271 0.363315
vt 0.079604 0.408162
vt 0.633117 0.418943
vt 0.615530 0.444447
vt 0.600997 0.469910
vt 0.614559 0.469949
vt 0.862035 0.416811
vt 0.638313 0.444473
vt 0.857648 0.390640
vt 0.666106 0.417503
vt 0.844696 0.362700
vt 0.167770 0.536691
vt 0.914144 0.688660
vt 0.182151 0.561697
vt 0.913298 0.663084
vt 0.189855 0.582503
vt 0.915415 0.641729
vt 0.680787 0.549268
vt 0.966165 0.641681
vt 0.684678 0.573659
vt 0.963812 0.665813
vt 0.684995 0.596421
vt 0.964308 0.688427
vt 0.584794 0.548886
vt 0.729850 0.550060
vt 0.578610 0.572959
vt 0.734888 0.574452
vt 0.569690 0.595426
vt 0.736445 0.597214
vt 0.642060 0.590920
vt 0.247172 0.543053
vt 0.641052 0.570535
vt 0.248998 0.562413
vt 0.635978 0.552556
vt 0.245738 0.579271
s 0
usemtl Material
f 89/203/1 7/19/1 13/32/1 90/205/1
f 8/22/2 7/19/2 89/203/2 58/151/2 54/142/2 53/136/2
f 6/18/3 56/148/3 57/150/3
f 3/8/4 106/231/4 4/9/4 59/153/4 88/202/4
f 6/17/5 107/233/5 5/14/5 60/154/5 1/1/5 105/229/5 2/4/5 56/149/5
f 61/156/6 13/33/6 16/38/6 62/157/6
f 5/16/7 14/35/7 31/77/7 29/72/7
f 88/202/8 1/3/8 10/26/8 91/207/8
f 67/164/9 21/53/9 20/50/9 65/161/9
f 13/32/10 7/19/10 12/30/10 16/39/10
f 3/8/11 9/25/11 11/28/11 15/36/11
f 55/147/12 3/6/12 15/37/12 63/158/12
f 66/162/13 19/48/13 17/40/13 65/160/13
f 23/57/14 22/55/14 17/41/14 19/49/14
f 83/191/15 82/190/15 25/63/15 26/67/15
f 15/36/16 11/28/16 22/55/16 23/57/16
f 62/157/17 16/38/17 21/53/17 67/164/17
f 69/169/18 26/66/18 25/64/18 68/166/18
f 87/200/19 84/193/19 24/60/19 68/165/19
f 86/197/20 83/191/20 26/67/20 69/167/20
f 84/194/21 85/196/21 27/68/21 24/61/21
f 70/170/22 29/73/22 31/78/22 71/172/22
f 70/170/23 28/71/23 34/85/23 73/174/23
f 10/26/24 1/3/24 28/70/24 30/74/24
f 64/159/25 10/27/25 30/75/25 71/171/25
f 34/84/26 32/80/26 36/88/26 38/92/26
f 60/155/27 5/15/27 33/83/27 72/173/27
f 5/16/28 29/72/28 35/86/28 33/82/28
f 28/70/29 1/3/29 32/80/29 34/84/29
f 37/90/30 39/94/30 43/105/30 41/99/30
f 73/174/31 34/85/31 38/93/31 75/176/31
f 33/82/32 35/86/32 39/94/32 37/90/32
f 72/173/33 33/83/33 37/91/33 74/175/33
f 76/178/34 41/100/34 43/106/34 77/180/34
f 74/175/35 37/91/35 41/101/35 76/177/35
f 38/92/36 36/88/36 40/96/36 42/102/36
f 75/176/37 38/93/37 42/103/37 77/179/37
f 102/226/38 97/218/38 51/129/38 81/187/38
f 91/206/39 10/27/39 45/111/39 93/210/39
f 90/204/40 13/33/40 46/114/40 92/208/40
f 61/156/41 9/24/41 44/108/41 78/181/41
f 64/159/42 14/34/42 47/117/42 79/183/42
f 96/216/43 94/213/43 50/126/43 80/186/43
f 101/225/44 99/222/44 48/120/44 80/185/44
f 104/228/45 98/220/45 49/123/45 95/215/45
f 103/227/46 100/224/46 50/127/46 94/212/46
f 8/23/47 53/137/47 52/132/47
f 8/23/48 52/132/48 4/10/48 106/232/48 3/7/48 55/146/48 7/20/48
f 54/142/49 58/151/49 89/203/49 5/16/49 107/234/49 6/18/49 57/150/49
f 100/223/50 101/225/50 80/185/50 50/128/50
f 95/214/51 96/216/51 80/186/51 48/121/51
f 10/27/52 64/159/52 79/183/52 45/111/52
f 13/33/53 61/156/53 78/181/53 46/114/53
f 98/219/54 102/226/54 81/187/54 49/124/54
f 39/95/55 75/176/55 77/179/55 43/107/55
f 36/89/56 74/175/56 76/177/56 40/97/56
f 40/98/57 76/178/57 77/180/57 42/104/57
f 32/81/58 72/173/58 74/175/58 36/89/58
f 35/87/59 73/174/59 75/176/59 39/95/59
f 1/2/60 60/155/60 72/173/60 32/81/60
f 14/34/61 64/159/61 71/171/61 31/79/61
f 29/73/62 70/170/62 73/174/62 35/87/62
f 28/71/63 70/170/63 71/172/63 30/76/63
f 85/196/64 86/198/64 69/168/64 27/68/64
f 82/189/65 87/200/65 68/165/65 25/65/65
f 27/69/66 69/169/66 68/166/66 24/62/66
f 11/29/67 62/157/67 67/164/67 22/56/67
f 18/43/68 66/162/68 65/160/68 20/51/68
f 7/21/69 55/147/69 63/158/69 12/31/69
f 22/56/70 67/164/70 65/161/70 17/42/70
f 9/24/71 61/156/71 62/157/71 11/29/71
f 19/48/72 66/162/72 87/200/72 82/189/72
f 12/30/73 18/44/73 20/52/73 21/54/73 16/39/73
f 66/163/74 18/47/74 84/194/74 87/201/74
f 23/57/75 19/49/75 82/190/75 83/191/75
f 49/125/76 81/188/76 96/216/76 95/214/76
f 97/217/77 103/227/77 94/212/77 51/130/77
f 99/221/78 104/228/78 95/215/78 48/122/78
f 81/188/79 51/131/79 94/213/79 96/216/79
f 14/34/80 90/204/80 92/208/80 47/117/80
f 9/24/81 91/206/81 93/210/81 44/108/81
f 3/8/82 88/202/82 91/207/82 9/25/82
f 5/16/83 89/203/83 90/205/83 14/35/83
f 44/109/84 93/211/84 104/228/84 99/221/84
f 47/118/85 92/209/85 103/227/85 97/217/85
f 45/112/86 79/184/86 102/226/86 98/219/86
f 46/115/87 78/182/87 101/225/87 100/223/87
f 92/209/88 46/116/88 100/224/88 103/227/88
f 93/211/89 45/113/89 98/220/89 104/228/89
f 78/182/90 44/110/90 99/222/90 101/225/90
f 79/184/91 47/119/91 97/218/91 102/226/91
f 59/152/92 4/11/92 52/133/92 53/138/92 54/141/92 108/235/92
f 136/298/93 110/241/93 109/238/93 135/296/93
f 121/271/94 120/269/94 114/253/94 117/261/94
f 139/304/95 111/244/95 110/242/95 136/297/95
f 135/295/96 109/239/96 112/247/96 144/314/96
f 144/313/97 112/248/97 111/245/97 139/303/97
f 111/246/98 112/249/98 109/240/98 110/243/98
f 117/262/99 114/254/99 116/259/99 115/256/99 113/250/99
f 124/277/100 121/270/100 117/263/100 113/251/100
f 120/268/101 129/284/101 116/260/101 114/255/101
f 130/286/102 124/276/102 113/252/102 115/257/102
f 129/284/103 130/285/103 115/258/103 116/260/103
f 57/150/104 56/148/104 132/289/104 127/282/104
f 127/282/105 132/289/105 131/287/105 128/283/105
f 128/283/106 131/287/106 130/285/106 129/284/106
f 56/149/107 2/4/107 126/280/107 132/290/107
f 132/290/108 126/280/108 125/278/108 131/288/108
f 131/288/109 125/278/109 124/276/109 130/286/109
f 54/142/110 57/150/110 127/282/110 118/264/110
f 118/264/111 127/282/111 128/283/111 119/266/111
f 119/266/112 128/283/112 129/284/112 120/268/112
f 2/5/113 108/237/113 123/274/113 126/281/113
f 126/281/114 123/274/114 122/272/114 125/279/114
f 125/279/115 122/272/115 121/270/115 124/277/115
f 108/236/116 54/143/116 118/265/116 123/275/116
f 123/275/117 118/265/117 119/267/117 122/273/117
f 122/273/118 119/267/118 120/269/118 121/271/118
f 54/144/119 142/309/119 141/307/119 53/139/119
f 142/309/120 143/311/120 140/305/120 141/307/120
f 143/311/121 144/313/121 139/303/121 140/305/121
f 4/12/122 133/291/122 142/310/122 54/145/122
f 133/291/123 134/293/123 143/312/123 142/310/123
f 134/293/124 135/295/124 144/314/124 143/312/124
f 53/140/125 141/308/125 138/301/125 52/134/125
f 141/308/126 140/306/126 137/299/126 138/301/126
f 140/306/127 139/304/127 136/297/127 137/299/127
f 52/135/128 138/302/128 133/292/128 4/13/128
f 138/302/129 137/300/129 134/294/129 133/292/129
f 137/300/130 136/298/130 135/296/130 134/294/130
f 105/230/131 1/3/131 88/202/131 59/153/131 108/237/131 2/5/131
f 86/199/132 85/195/132 83/192/132
f 83/192/133 85/195/133 18/45/133 23/58/133
f 63/158/134 15/37/134 23/59/134 18/46/134 12/31/134
f 84/194/135 18/47/135 85/196/135
l 52 106
