# Blender 3.3.1
# www.blender.org
mtllib monstruo_3_caminar585.mtl
o monstruo_grande
v 0.349582 2.038970 0.181651
v 0.523838 1.165652 0.065511
v -0.709019 1.777168 0.098220
v -0.299804 1.184225 0.218863
v 0.611407 2.301433 -0.112350
v 0.556417 1.640460 -0.240045
v -0.795924 1.955955 -0.356520
v -0.711373 1.650056 -0.385138
v -0.344287 2.431801 0.350615
v 0.212373 2.324829 0.376284
v -0.487241 2.410271 0.441897
v -1.166560 2.019005 -0.241297
v -0.303044 2.565899 -0.017522
v 0.236303 2.451560 0.109280
v -1.033367 1.898724 -0.050081
v -0.464394 2.640100 -0.017490
v -0.846392 2.336400 0.430891
v -1.485510 1.973602 -0.004782
v -1.230805 2.031025 0.224677
v -0.991971 2.620914 0.113310
v -0.651016 2.685376 0.026762
v -0.564443 2.366804 0.417277
v -1.165030 1.920070 -0.069731
v -1.886208 0.778028 0.730307
v -1.764539 0.754950 0.785392
v -1.743729 0.567171 0.595788
v -1.817992 0.581258 0.562166
v 0.340031 2.230897 0.368020
v 0.508767 2.411255 0.143046
v 0.321178 2.351183 0.378761
v 0.366398 2.471875 0.153938
v 0.561319 1.914316 0.224459
v 0.751539 1.947685 0.110829
v 0.594618 1.975768 0.279019
v 0.724989 2.073730 0.159522
v 0.674266 1.654522 0.308672
v 0.780413 1.660862 0.269488
v 0.714449 1.638166 0.405211
v 0.821206 1.652621 0.363473
v 0.653128 1.517185 0.380665
v 0.874851 1.545615 0.297480
v 0.668332 1.460924 0.568941
v 1.001907 1.502941 0.437636
v -0.182433 2.482025 0.387000
v 0.027837 2.456499 0.388819
v -0.161454 2.564849 0.133095
v 0.039848 2.538718 0.139777
v -0.127944 2.796021 0.529454
v 0.078157 2.727768 0.501609
v -0.127876 2.902085 0.272169
v 0.076952 2.834305 0.243064
v -0.502810 1.154336 0.012796
v -0.388153 1.136073 -0.199870
v -0.036494 1.256471 -0.338176
v -0.749018 1.798331 -0.134762
v 0.545120 1.249941 -0.154323
v 0.327756 1.280720 -0.277899
v 0.020972 1.508324 -0.345332
v -0.024279 1.133988 0.192117
v 0.442482 2.114554 0.080266
v -0.323334 2.479383 0.221981
v -0.488486 2.642372 0.256610
v -0.956239 1.953920 -0.170830
v 0.200281 2.447152 0.267249
v -0.863151 2.556891 0.359362
v -1.406659 2.138024 0.235258
v -0.640431 2.627454 0.236691
v -1.838659 0.767569 0.787646
v -1.761479 0.452669 0.485245
v 0.453791 2.327866 0.294252
v 0.344592 2.458153 0.286420
v 0.628884 1.911506 0.119656
v 0.692524 2.029913 0.261794
v 0.727538 1.660665 0.288024
v 0.767732 1.644878 0.384237
v 0.755293 1.530420 0.316011
v 0.818608 1.480586 0.460911
v -0.174070 2.522154 0.258602
v 0.031636 2.499273 0.263267
v -0.159109 2.850808 0.401800
v 0.109098 2.779718 0.372164
v -1.622283 1.070421 0.718860
v -1.685070 0.895373 0.658897
v -1.833910 1.080479 0.626580
v -1.799589 0.917094 0.607049
v -1.745498 0.735515 0.568447
v -1.754586 1.060482 0.724668
v -0.088768 1.813633 0.458064
v 0.135039 2.137233 -0.261805
v 0.056945 2.526417 -0.038635
v -0.043444 2.324350 0.529642
v -0.064786 2.550181 0.134428
v -0.071630 2.465660 0.387106
v -0.025736 2.883636 0.218295
v -0.024970 2.745972 0.553991
v -0.021482 2.866193 0.408445
v 0.070835 2.697374 0.165559
v 0.067496 2.580457 0.460526
v -0.168754 2.631837 0.481538
v -0.167564 2.749281 0.182746
v -0.185107 2.692233 0.333409
v 0.084280 2.639098 0.312569
v -0.049122 2.730788 0.153199
v -0.049263 2.596376 0.491452
v 0.426669 1.705808 0.028529
v -0.600712 1.505351 0.148578
v 0.571422 1.861273 -0.232369
v 0.171612 1.099614 0.175168
v -0.198690 0.034695 0.091435
v -0.343124 0.042464 0.213813
v -0.368919 0.038568 -0.036548
v -0.233754 0.033291 -0.051186
v 0.379199 0.145285 -0.465547
v 0.306427 0.175204 -0.536202
v 0.388884 0.161317 -0.500480
v 0.357571 0.171098 -0.525313
v 0.320164 0.140477 -0.456998
v 0.094160 0.911202 -0.206965
v 0.161305 0.707819 -0.239856
v 0.231191 0.437861 -0.361098
v 0.277170 0.339038 -0.215476
v 0.240292 0.519803 -0.034297
v 0.222869 0.746046 0.127643
v 0.397090 0.364356 -0.238344
v 0.441949 0.566364 -0.066926
v 0.502382 0.851970 0.088666
v 0.349152 0.944559 -0.187273
v 0.342237 0.707128 -0.218002
v 0.338860 0.436387 -0.346747
v 0.409017 0.412979 -0.304052
v 0.460484 0.671704 -0.147549
v 0.520083 0.933054 -0.080765
v -0.177240 0.942539 0.364995
v -0.150324 0.638262 0.339423
v -0.145332 0.391253 0.329174
v -0.430335 0.379157 0.317527
v -0.441350 0.655806 0.284144
v -0.464441 0.910722 0.243912
v -0.462785 0.399941 0.048586
v -0.471269 0.672726 0.016633
v -0.477555 0.877467 -0.030355
v -0.081181 0.836221 -0.050420
v -0.127792 0.649997 -0.022295
v -0.170981 0.442568 0.015518
vn -0.0044 0.4917 -0.8707
vn 0.0176 -0.0219 -0.9996
vn 0.4621 -0.2029 -0.8633
vn -0.3248 -0.2052 0.9233
vn 0.9035 -0.0340 0.4272
vn 0.5906 0.7866 0.1801
vn 0.1827 0.8958 -0.4052
vn 0.5623 -0.2030 0.8016
vn -0.1196 0.9494 0.2905
vn -0.0695 0.4698 -0.8800
vn -0.1970 -0.4135 0.8889
vn -0.3848 -0.8931 -0.2332
vn -0.3249 -0.0151 0.9456
vn 0.2640 -0.8175 0.5118
vn 0.9218 -0.2863 0.2613
vn -0.0889 -0.6578 0.7480
vn 0.0970 0.9885 0.1164
vn -0.0543 -0.7038 0.7083
vn -0.6959 0.3370 0.6341
vn 0.9488 -0.0409 -0.3132
vn -0.8396 0.0431 -0.5414
vn 0.5571 0.7278 0.3999
vn 0.3359 0.0938 0.9372
vn -0.3353 -0.5246 0.7826
vn -0.1599 0.6558 0.7378
vn -0.8650 -0.1709 0.4717
vn -0.1914 -0.5082 -0.8397
vn 0.8862 0.4629 0.0175
vn -0.4240 -0.6029 0.6758
vn 0.7108 0.5913 -0.3810
vn 0.0961 0.3469 0.9330
vn 0.9817 0.0866 -0.1695
vn -0.0242 -0.5237 -0.8516
vn 0.0678 -0.9348 -0.3486
vn -0.1747 -0.3007 -0.9376
vn -0.8797 0.3909 0.2707
vn 0.4037 0.5304 0.7455
vn 0.9847 -0.0245 -0.1726
vn 0.3260 0.6014 0.7294
vn 0.1141 0.9905 -0.0765
vn -0.3334 0.9032 0.2702
vn 0.3619 0.9108 0.1988
vn 0.0547 0.9753 0.2142
vn -0.9683 0.1220 0.2178
vn 0.2851 -0.3456 0.8940
vn -0.2399 0.4770 -0.8456
vn -0.7334 -0.5856 -0.3451
vn -0.9107 -0.3574 0.2071
vn 0.1766 0.0859 -0.9805
vn -0.9674 0.2420 -0.0748
vn 0.0522 0.8433 0.5349
vn 0.4051 0.7544 0.5166
vn -0.3168 0.9027 0.2910
vn 0.9817 -0.1580 0.1059
vn 0.0990 0.4893 0.8665
vn -0.4232 -0.3263 -0.8453
vn -0.0720 -0.9552 -0.2872
vn -0.5987 -0.5405 -0.5911
vn 0.6658 0.3973 0.6315
vn -0.4408 -0.6819 -0.5837
vn -0.1219 0.9918 0.0376
vn 0.7122 0.4974 0.4953
vn 0.5507 0.2723 0.7890
vn -0.3643 0.2082 -0.9077
vn 0.0408 0.1935 0.9803
vn -0.6988 -0.5816 0.4165
vn -0.2911 0.5405 0.7894
vn -0.7254 0.6664 0.1723
vn -0.3733 -0.8664 -0.3317
vn 0.1378 0.4804 0.8661
vn 0.5235 0.6196 0.5849
vn 0.1676 0.3785 0.9103
vn -0.3653 0.5292 -0.7659
vn -0.8726 0.4348 0.2225
vn 0.9301 -0.2820 0.2354
vn 0.5050 0.7017 0.5026
vn 0.2929 0.3980 -0.8694
vn -0.2495 -0.2751 0.9285
vn 0.5035 0.8534 0.1351
vn 0.3084 0.9506 -0.0360
vn -0.1781 0.5692 0.8027
vn -0.5075 -0.0604 0.8595
vn 0.2034 0.7190 -0.6646
vn -0.1608 -0.5570 0.8148
vn 0.1011 0.1159 -0.9881
vn 0.9491 -0.3118 -0.0442
vn -0.9937 -0.0088 -0.1117
vn -0.0996 0.1858 -0.9775
vn 0.0436 -0.5753 0.8168
vn -0.9996 -0.0059 0.0267
vn 0.9641 -0.2433 -0.1066
vn 0.0197 -0.9957 -0.0904
vn 0.2305 -0.4209 0.8774
vn -0.9493 -0.3066 0.0700
vn -0.9565 -0.2747 0.0983
vn 0.9856 -0.0933 -0.1413
vn -0.1252 0.1869 -0.9744
vn -0.0372 -0.9991 0.0192
vn 0.0180 -0.9149 -0.4033
vn 0.2358 -0.7193 0.6535
vn 0.1486 0.5685 -0.8092
vn 0.9802 -0.1702 0.1011
vn 0.5901 0.4730 -0.6543
vn 0.4801 -0.2164 -0.8501
vn 0.5307 0.0939 -0.8423
vn 0.5601 0.3472 -0.7521
vn 0.9954 -0.0622 0.0733
vn 0.9778 -0.2089 -0.0140
vn 0.9797 -0.2001 -0.0066
vn 0.1483 -0.2761 -0.9496
vn 0.0824 0.1534 -0.9847
vn 0.1156 0.4285 -0.8961
vn 0.2354 -0.0250 0.9716
vn 0.2852 -0.5225 0.8036
vn 0.2684 -0.6557 0.7057
vn -0.9336 -0.2081 0.2918
vn -0.9445 -0.2704 0.1864
vn -0.9511 -0.2922 0.0998
vn -0.1197 -0.5383 -0.8342
vn -0.0935 -0.1785 -0.9795
vn -0.1074 -0.1353 -0.9850
vn 0.8939 0.3145 0.3193
vn 0.9871 -0.0388 0.1554
vn 0.9963 -0.0845 -0.0125
vn -0.9785 -0.0584 -0.1979
vn -0.9956 -0.0483 0.0805
vn -0.9932 -0.0217 0.1140
vn -0.5438 0.3952 0.7403
vn -0.2917 -0.0010 0.9565
vn -0.1149 0.0403 0.9926
vn 0.4828 -0.1120 0.8685
vn 0.4403 0.3103 -0.8425
vn -0.1132 -0.5055 -0.8553
vn -0.1685 -0.8583 -0.4846
vn -0.8052 -0.0992 -0.5847
vt 0.461701 0.809397
vt 0.301930 0.729761
vt 0.094158 0.499911
vt 0.498737 0.648456
vt 0.250869 0.553264
vt 0.714874 0.752530
vt 0.627854 0.740386
vt 0.227533 0.339544
vt 0.300362 0.438253
vt 0.625828 0.633709
vt 0.338991 0.679376
vt 0.653754 0.621457
vt 0.189641 0.785401
vt 0.531284 0.815038
vt 0.232114 0.729761
vt 0.806952 0.326283
vt 0.527824 0.712310
vt 0.703640 0.331352
vt 0.725736 0.123548
vt 0.557184 0.740386
vt 0.714874 0.681901
vt 0.693091 0.138725
vt 0.558638 0.706064
vt 0.944491 0.391302
vt 0.108931 0.369345
vt 0.090202 0.443431
vt 0.952837 0.467016
vt 0.108059 0.346292
vt 0.960024 0.371234
vt 0.653754 0.712739
vt 0.761990 0.055860
vt 0.265996 0.788213
vt 0.829683 0.188590
vt 0.886815 0.394232
vt 0.909606 0.471204
vt 0.826550 0.267021
vt 0.659457 0.749480
vt 0.206417 0.267620
vt 0.238389 0.812575
vt 0.882743 0.373659
vt 0.837846 0.166681
vt 0.102618 0.289588
vt 0.957957 0.321520
vt 0.918648 0.216117
vt 0.803322 0.012950
vt 0.106348 0.638847
vt 0.232551 0.755661
vt 0.798789 0.485160
vt 0.965752 0.239402
vt 0.153968 0.222285
vt 0.894228 0.312474
vt 0.856067 0.102710
vt 0.881967 0.351902
vt 0.842627 0.144082
vt 0.107159 0.331692
vt 0.958812 0.358201
vt 0.199778 0.246429
vt 0.138792 0.619338
vt 0.232114 0.797406
vt 0.967580 0.012950
vt 0.753483 0.682459
vt 0.843831 0.469074
vt 0.256421 0.022764
vt 0.824689 0.472884
vt 0.987050 0.016155
vt 0.832147 0.505580
vt 0.295109 0.018166
vt 0.782932 0.707368
vt 0.843831 0.503254
vt 0.076417 0.467161
vt 0.958695 0.494573
vt 0.833773 0.298242
vt 0.909847 0.503107
vt 0.076958 0.454690
vt 0.951531 0.482650
vt 0.837149 0.281767
vt 0.912926 0.487172
vt 0.064432 0.532285
vt 0.298790 0.687460
vt 0.825577 0.362572
vt 0.264894 0.686125
vt 0.056614 0.518895
vt 0.959622 0.549977
vt 0.837123 0.350740
vt 0.929664 0.555276
vt 0.051257 0.577890
vt 0.291936 0.641182
vt 0.824256 0.407314
vt 0.275162 0.640522
vt 0.035793 0.577862
vt 0.964581 0.612577
vt 0.838997 0.411720
vt 0.948088 0.615681
vt 0.039898 0.592711
vt 0.301778 0.620707
vt 0.403076 0.772170
vt 0.830596 0.428615
vt 0.403076 0.737417
vt 0.267017 0.619338
vt 0.012950 0.593438
vt 0.987050 0.637067
vt 0.428919 0.781443
vt 0.856067 0.440612
vt 0.428919 0.728949
vt 0.935424 0.646785
vt 0.945356 0.412724
vt 0.357115 0.854737
vt 0.331665 0.779032
vt 0.948027 0.441601
vt 0.799629 0.752473
vt 0.327972 0.853161
vt 0.906904 0.416128
vt 0.370069 0.779032
vt 0.684668 0.778429
vt 0.909575 0.445005
vt 0.655249 0.778999
vt 0.799629 0.791035
vt 0.330193 0.729131
vt 0.557184 0.775635
vt 0.363063 0.804932
vt 0.331684 0.807874
vt 0.754247 0.751428
vt 0.586563 0.768755
vt 0.566112 0.815056
vt 0.689281 0.828405
vt 0.370405 0.729131
vt 0.754247 0.791805
vt 0.657717 0.824383
vt 0.595492 0.808176
vt 0.327830 0.637821
vt 0.590400 0.642651
vt 0.164818 0.789976
vt 0.357235 0.619338
vt 0.642851 0.190721
vt 0.562581 0.649581
vt 0.406824 0.626953
vt 0.080449 0.619338
vt 0.646201 0.239681
vt 0.727583 0.656002
vt 0.597847 0.731399
vt 0.712829 0.722239
vt 0.658284 0.323708
vt 0.527919 0.666449
vt 0.661748 0.291537
vt 0.680225 0.245582
vt 0.377645 0.696957
vt 0.285191 0.477898
vt 0.483372 0.812325
vt 0.280072 0.728266
vt 0.924330 0.393087
vt 0.921760 0.373660
vt 0.678504 0.727397
vt 0.268491 0.812575
vt 0.930826 0.465310
vt 0.923786 0.327561
vt 0.941993 0.227167
vt 0.764056 0.466512
vt 0.919524 0.351927
vt 0.977463 0.013354
vt 0.833186 0.466512
vt 0.317617 0.012950
vt 0.798789 0.722800
vt 0.839639 0.522681
vt 0.934403 0.500152
vt 0.932138 0.484309
vt 0.281656 0.689101
vt 0.944784 0.554368
vt 0.283549 0.640852
vt 0.956335 0.614129
vt 0.284323 0.620942
vt 0.399765 0.754789
vt 0.961112 0.640376
vt 0.422297 0.755187
vt 0.926130 0.414426
vt 0.350867 0.779032
vt 0.928801 0.443303
vt 0.799629 0.771754
vt 0.350773 0.728949
vt 0.557184 0.796361
vt 0.753483 0.771844
vt 0.595492 0.787450
vt 0.985581 0.067358
vt 0.238180 0.070710
vt 0.259592 0.052321
vt 0.138792 0.821791
vt 0.953366 0.057503
vt 0.765454 0.639660
vt 0.120235 0.821584
vt 0.772730 0.660154
vt 0.283154 0.037949
vt 0.784440 0.682652
vt 0.128680 0.843910
vt 0.970110 0.058056
vt 0.758353 0.637393
vt 0.180368 0.432154
vt 0.759258 0.257498
vt 0.884976 0.446549
vt 0.828099 0.241547
vt 0.971226 0.428512
vt 0.101516 0.405509
vt 0.908240 0.430567
vt 0.669958 0.778714
vt 0.946692 0.427163
vt 0.342544 0.853949
vt 0.673120 0.826722
vt 0.582140 0.817526
vt 0.570535 0.766286
vt 0.348248 0.806122
vt 0.576699 0.792002
vt 0.653753 0.802281
vt 0.776512 0.794925
vt 0.776512 0.748700
vt 0.327830 0.829868
vt 0.363063 0.830170
vt 0.327830 0.753980
vt 0.373865 0.753980
vt 0.689281 0.803194
vt 0.351093 0.753886
vt 0.776117 0.771930
vt 0.671321 0.802907
vt 0.345899 0.829874
vt 0.457498 0.727404
vt 0.165986 0.548054
vt 0.260364 0.376248
vt 0.625887 0.695531
vt 0.520555 0.743605
vt 0.734596 0.339638
vt 0.406824 0.703049
vt 0.012950 0.651015
vt 0.277407 0.507014
vt 0.206214 0.619338
vt 0.706517 0.466512
vt 0.399765 0.822801
vt 0.181517 0.620770
vt 0.619265 0.470337
vt 0.422433 0.807343
vt 0.582936 0.466512
vt 0.458892 0.202188
vt 0.422433 0.843958
vt 0.727583 0.468029
vt 0.460639 0.221880
vt 0.402692 0.843997
vt 0.717439 0.778459
vt 0.429089 0.593438
vt 0.518160 0.466685
vt 0.070962 0.817001
vt 0.726094 0.791097
vt 0.457498 0.298878
vt 0.715181 0.783741
vt 0.523936 0.466512
vt 0.458951 0.311476
vt 0.719061 0.788282
vt 0.458165 0.306435
vt 0.058766 0.817583
vt 0.726094 0.778429
vt 0.431598 0.585369
vt 0.599953 0.261833
vt 0.080449 0.668491
vt 0.542336 0.274386
vt 0.076079 0.728305
vt 0.500395 0.287212
vt 0.064936 0.773359
vt 0.389801 0.564275
vt 0.039540 0.774208
vt 0.356388 0.547019
vt 0.031995 0.737396
vt 0.319737 0.531779
vt 0.030523 0.696843
vt 0.505723 0.512116
vt 0.384015 0.580847
vt 0.506522 0.550736
vt 0.346302 0.574833
vt 0.507607 0.604105
vt 0.294291 0.566034
vt 0.610540 0.298468
vt 0.545535 0.300686
vt 0.502363 0.302883
vt 0.504402 0.313331
vt 0.517745 0.511765
vt 0.548610 0.318269
vt 0.527842 0.556627
vt 0.609940 0.323717
vt 0.531284 0.618364
vt 0.660591 0.582499
vt 0.204501 0.743892
vt 0.668589 0.550878
vt 0.206214 0.710848
vt 0.668004 0.517120
vt 0.204545 0.678125
vt 0.623877 0.525891
vt 0.164692 0.675333
vt 0.610236 0.563455
vt 0.167167 0.712219
vt 0.605277 0.597358
vt 0.166352 0.745757
vt 0.511839 0.183186
vt 0.584607 0.521652
vt 0.552303 0.182624
vt 0.569857 0.561129
vt 0.598009 0.178631
vt 0.565182 0.606784
vt 0.592158 0.236754
vt 0.721184 0.600612
vt 0.550092 0.232946
vt 0.722606 0.558204
vt 0.518921 0.225772
vt 0.713819 0.525134
s 0
usemtl Material
f 89/196/1 7/19/1 13/33/1 90/198/1
f 8/22/2 7/19/2 89/196/2 58/145/2 54/138/2 53/134/2
f 6/18/3 56/142/3 57/144/3
f 3/8/4 106/224/4 4/9/4 59/147/4 88/195/4
f 6/17/5 107/226/5 5/14/5 60/148/5 1/1/5 105/222/5 2/4/5 56/143/5
f 61/150/6 13/34/6 16/40/6 62/151/6
f 5/16/7 14/36/7 31/76/7 29/72/7
f 88/195/8 1/3/8 10/26/8 91/200/8
f 67/158/9 21/53/9 20/51/9 65/155/9
f 13/33/10 7/19/10 12/31/10 16/41/10
f 3/8/11 9/25/11 11/28/11 15/38/11
f 55/141/12 3/6/12 15/37/12 63/152/12
f 66/156/13 19/49/13 17/43/13 65/155/13
f 23/57/14 22/55/14 17/42/14 19/50/14
f 83/184/15 82/183/15 25/63/15 26/67/15
f 15/38/16 11/28/16 22/55/16 23/57/16
f 62/151/17 16/40/17 21/53/17 67/158/17
f 69/163/18 26/66/18 25/64/18 68/160/18
f 87/193/19 84/186/19 24/60/19 68/159/19
f 86/190/20 83/184/20 26/67/20 69/161/20
f 84/187/21 85/189/21 27/68/21 24/61/21
f 70/164/22 29/73/22 31/77/22 71/165/22
f 70/164/23 28/71/23 34/83/23 73/167/23
f 10/26/24 1/3/24 28/70/24 30/74/24
f 64/154/25 10/27/25 30/75/25 71/165/25
f 34/82/26 32/78/26 36/86/26 38/90/26
f 60/149/27 5/15/27 33/81/27 72/166/27
f 5/16/28 29/72/28 35/84/28 33/80/28
f 28/70/29 1/3/29 32/78/29 34/82/29
f 37/88/30 39/92/30 43/103/30 41/97/30
f 73/167/31 34/83/31 38/91/31 75/169/31
f 33/80/32 35/84/32 39/92/32 37/88/32
f 72/166/33 33/81/33 37/89/33 74/168/33
f 76/171/34 41/98/34 43/104/34 77/173/34
f 74/168/35 37/89/35 41/99/35 76/170/35
f 38/90/36 36/86/36 40/94/36 42/100/36
f 75/169/37 38/91/37 42/101/37 77/172/37
f 102/219/38 97/211/38 51/127/38 81/180/38
f 91/199/39 10/27/39 45/109/39 93/203/39
f 90/197/40 13/34/40 46/112/40 92/201/40
f 61/150/41 9/24/41 44/106/41 78/174/41
f 64/154/42 14/35/42 47/115/42 79/176/42
f 96/209/43 94/206/43 50/124/43 80/179/43
f 101/218/44 99/215/44 48/118/44 80/178/44
f 104/221/45 98/213/45 49/121/45 95/208/45
f 103/220/46 100/217/46 50/125/46 94/205/46
f 8/23/47 53/135/47 52/131/47
f 8/23/48 52/131/48 4/10/48 106/225/48 3/7/48 55/140/48 7/20/48
f 54/138/49 58/145/49 89/196/49 5/16/49 107/227/49 6/18/49 57/144/49
f 100/216/50 101/218/50 80/178/50 50/126/50
f 95/207/51 96/209/51 80/179/51 48/119/51
f 10/27/52 64/154/52 79/176/52 45/109/52
f 13/34/53 61/150/53 78/174/53 46/112/53
f 98/212/54 102/219/54 81/180/54 49/122/54
f 39/93/55 75/169/55 77/172/55 43/105/55
f 36/87/56 74/168/56 76/170/56 40/95/56
f 40/96/57 76/171/57 77/173/57 42/102/57
f 32/79/58 72/166/58 74/168/58 36/87/58
f 35/85/59 73/167/59 75/169/59 39/93/59
f 1/2/60 60/149/60 72/166/60 32/79/60
f 14/35/61 64/154/61 71/165/61 31/77/61
f 29/73/62 70/164/62 73/167/62 35/85/62
f 28/71/63 70/164/63 71/165/63 30/75/63
f 85/189/64 86/191/64 69/162/64 27/68/64
f 82/182/65 87/193/65 68/159/65 25/65/65
f 27/69/66 69/163/66 68/160/66 24/62/66
f 11/29/67 62/151/67 67/158/67 22/56/67
f 18/44/68 66/156/68 65/155/68 20/51/68
f 7/21/69 55/141/69 63/152/69 12/30/69
f 22/56/70 67/158/70 65/155/70 17/43/70
f 9/24/71 61/150/71 62/151/71 11/29/71
f 19/49/72 66/156/72 87/193/72 82/182/72
f 12/31/73 18/45/73 20/52/73 21/54/73 16/41/73
f 66/157/74 18/48/74 84/187/74 87/194/74
f 23/57/75 19/50/75 82/183/75 83/184/75
f 49/123/76 81/181/76 96/209/76 95/207/76
f 97/210/77 103/220/77 94/205/77 51/128/77
f 99/214/78 104/221/78 95/208/78 48/120/78
f 81/181/79 51/129/79 94/206/79 96/209/79
f 14/35/80 90/197/80 92/201/80 47/115/80
f 9/24/81 91/199/81 93/203/81 44/106/81
f 3/8/82 88/195/82 91/200/82 9/25/82
f 5/16/83 89/196/83 90/198/83 14/36/83
f 44/107/84 93/204/84 104/221/84 99/214/84
f 47/116/85 92/202/85 103/220/85 97/210/85
f 45/110/86 79/177/86 102/219/86 98/212/86
f 46/113/87 78/175/87 101/218/87 100/216/87
f 92/202/88 46/114/88 100/217/88 103/220/88
f 93/204/89 45/111/89 98/213/89 104/221/89
f 78/175/90 44/108/90 99/215/90 101/218/90
f 79/177/91 47/117/91 97/211/91 102/219/91
f 59/146/92 4/11/92 52/130/92 53/133/92 54/136/92 108/228/92
f 136/291/93 110/234/93 109/231/93 135/289/93
f 121/264/94 120/262/94 114/246/94 117/254/94
f 139/297/95 111/237/95 110/235/95 136/290/95
f 135/288/96 109/232/96 112/240/96 144/307/96
f 144/306/97 112/241/97 111/238/97 139/296/97
f 111/239/98 112/242/98 109/233/98 110/236/98
f 117/255/99 114/247/99 116/252/99 115/249/99 113/243/99
f 124/270/100 121/263/100 117/256/100 113/244/100
f 120/261/101 129/277/101 116/253/101 114/248/101
f 130/279/102 124/269/102 113/245/102 115/250/102
f 129/277/103 130/278/103 115/251/103 116/253/103
f 57/144/104 56/142/104 132/282/104 127/275/104
f 127/275/105 132/282/105 131/280/105 128/276/105
f 128/276/106 131/280/106 130/278/106 129/277/106
f 56/143/107 2/4/107 126/273/107 132/283/107
f 132/283/108 126/273/108 125/271/108 131/281/108
f 131/281/109 125/271/109 124/269/109 130/279/109
f 54/138/110 57/144/110 127/275/110 118/257/110
f 118/257/111 127/275/111 128/276/111 119/259/111
f 119/259/112 128/276/112 129/277/112 120/261/112
f 2/5/113 108/230/113 123/267/113 126/274/113
f 126/274/114 123/267/114 122/265/114 125/272/114
f 125/272/115 122/265/115 121/263/115 124/270/115
f 108/229/116 54/137/116 118/258/116 123/268/116
f 123/268/117 118/258/117 119/260/117 122/266/117
f 122/266/118 119/260/118 120/262/118 121/264/118
f 54/138/119 142/302/119 141/300/119 53/134/119
f 142/302/120 143/304/120 140/298/120 141/300/120
f 143/304/121 144/306/121 139/296/121 140/298/121
f 4/12/122 133/284/122 142/303/122 54/139/122
f 133/284/123 134/286/123 143/305/123 142/303/123
f 134/286/124 135/288/124 144/307/124 143/305/124
f 53/135/125 141/301/125 138/294/125 52/131/125
f 141/301/126 140/299/126 137/292/126 138/294/126
f 140/299/127 139/297/127 136/290/127 137/292/127
f 52/132/128 138/295/128 133/285/128 4/13/128
f 138/295/129 137/293/129 134/287/129 133/285/129
f 137/293/130 136/291/130 135/289/130 134/287/130
f 105/223/131 1/3/131 88/195/131 59/147/131 108/230/131 2/5/131
f 86/192/132 85/188/132 83/185/132
f 83/185/133 85/188/133 18/46/133 23/58/133
f 63/153/134 15/39/134 23/59/134 18/47/134 12/32/134
f 84/187/135 18/48/135 85/189/135
l 52 106
