# Blender 3.3.1
# www.blender.org
mtllib monstruo_3_caminar606.mtl
o monstruo_grande
v 0.304696 2.042448 0.173606
v 0.525727 1.213504 0.086288
v -0.738055 1.719261 0.178110
v -0.290755 1.123484 0.223763
v 0.454406 2.333744 -0.167834
v 0.505547 1.640164 -0.264736
v -0.878176 1.923914 -0.250929
v -0.762435 1.639686 -0.309044
v -0.386708 2.397439 0.425789
v 0.176053 2.315069 0.387738
v -0.519877 2.366229 0.528002
v -1.242569 1.965637 -0.100938
v -0.383550 2.546941 0.060902
v 0.159229 2.451358 0.126825
v -1.089244 1.841401 0.069166
v -0.547160 2.613271 0.077697
v -0.874221 2.279030 0.547601
v -1.536004 1.902250 0.161289
v -1.265586 1.966873 0.369223
v -1.059797 2.566928 0.254548
v -0.730793 2.648653 0.139919
v -0.596522 2.320815 0.508801
v -1.222493 1.862442 0.065109
v -1.816604 0.678061 0.907226
v -1.690739 0.662667 0.955092
v -1.669667 0.475646 0.764769
v -1.746491 0.485043 0.735553
v 0.330631 2.229622 0.361163
v 0.421067 2.428476 0.104214
v 0.289279 2.346998 0.378030
v 0.290832 2.478756 0.150820
v 0.548036 1.914456 0.139172
v 0.661620 2.019032 -0.032469
v 0.576290 1.992069 0.194649
v 0.652801 2.113063 0.044662
v 0.706668 1.693802 0.048509
v 0.787437 1.728003 -0.023680
v 0.781269 1.635313 0.094712
v 0.860954 1.681677 0.024567
v 0.698954 1.537936 0.042355
v 0.867994 1.630431 -0.100529
v 0.785104 1.395506 0.147883
v 1.032725 1.534986 -0.074621
v -0.224912 2.456043 0.447431
v -0.013722 2.433451 0.431896
v -0.226660 2.547103 0.196619
v -0.024735 2.525497 0.185369
v -0.167834 2.769081 0.591266
v 0.037187 2.703279 0.551923
v -0.181152 2.880754 0.336839
v 0.022460 2.815486 0.296349
v -0.499807 1.124350 0.012774
v -0.388210 1.143106 -0.202061
v -0.052884 1.263047 -0.335260
v -0.795470 1.753366 -0.046457
v 0.548799 1.228145 -0.151975
v 0.329667 1.222277 -0.277660
v -0.021780 1.516454 -0.336415
v -0.011597 1.149944 0.197558
v 0.355920 2.130444 0.057365
v -0.379086 2.450778 0.297793
v -0.547212 2.604602 0.353086
v -1.019974 1.903785 -0.055086
v 0.144006 2.439993 0.286691
v -0.905725 2.500778 0.486118
v -1.444314 2.066016 0.398136
v -0.699406 2.583724 0.345818
v -1.765231 0.670769 0.961683
v -1.686851 0.359780 0.655567
v 0.414429 2.337951 0.260889
v 0.290328 2.458676 0.285952
v 0.558959 1.955156 0.012589
v 0.656852 2.062218 0.148810
v 0.746490 1.715111 0.012960
v 0.820823 1.657592 0.059171
v 0.764395 1.593444 -0.043839
v 0.875860 1.483919 0.011551
v -0.226345 2.500971 0.320946
v -0.020730 2.480663 0.307939
v -0.205616 2.826366 0.466528
v 0.061430 2.758284 0.422337
v -1.572108 0.985896 0.880025
v -1.627517 0.807087 0.824016
v -1.788945 0.982755 0.800544
v -1.745987 0.821576 0.778964
v -1.683287 0.643447 0.737422
v -1.702993 0.967961 0.893603
v -0.091873 1.785508 0.489677
v 0.025730 2.139649 -0.232026
v -0.027163 2.520491 0.004788
v -0.060332 2.296365 0.571664
v -0.127690 2.534936 0.189229
v -0.115133 2.442144 0.438933
v -0.081719 2.864466 0.277866
v -0.063400 2.719421 0.609649
v -0.067953 2.842818 0.466816
v 0.012337 2.680889 0.215741
v 0.026288 2.556442 0.507926
v -0.209349 2.605486 0.542073
v -0.225491 2.729744 0.247321
v -0.233568 2.669100 0.396646
v 0.034884 2.618728 0.360673
v -0.108211 2.713311 0.210908
v -0.089406 2.570940 0.545100
v 0.362512 1.746769 -0.036489
v -0.600994 1.449110 0.205770
v 0.483703 1.864436 -0.269018
v 0.178140 1.172511 0.198785
v -0.187835 0.001574 -0.046337
v -0.331504 0.007664 0.076839
v -0.358863 0.006227 -0.172877
v -0.223778 0.001323 -0.188357
v 0.368524 0.071899 -0.085553
v 0.293263 0.073879 -0.159952
v 0.376940 0.074076 -0.124211
v 0.344765 0.074040 -0.149875
v 0.309806 0.070414 -0.073978
v 0.107544 0.882128 -0.098176
v 0.167709 0.683148 -0.055294
v 0.225745 0.387559 -0.086345
v 0.269942 0.338009 0.083026
v 0.240504 0.567611 0.198259
v 0.231784 0.833686 0.280975
v 0.390393 0.350886 0.053524
v 0.443750 0.595311 0.153188
v 0.512114 0.920790 0.211132
v 0.362033 0.915477 -0.080324
v 0.348512 0.684410 -0.034061
v 0.333497 0.387154 -0.072087
v 0.403260 0.376014 -0.024110
v 0.466082 0.669836 0.044145
v 0.531418 0.942184 0.024877
v -0.170629 0.859067 0.317831
v -0.140056 0.568418 0.249676
v -0.132023 0.327573 0.210064
v -0.417044 0.313663 0.201364
v -0.432137 0.589288 0.201649
v -0.458716 0.846293 0.194894
v -0.454684 0.363496 -0.061862
v -0.467152 0.639155 -0.062563
v -0.474160 0.860170 -0.081959
v -0.077679 0.824076 -0.111053
v -0.124262 0.625764 -0.109863
v -0.164091 0.413598 -0.094464
vn -0.1020 0.5113 -0.8534
vn -0.0621 0.0412 -0.9972
vn 0.4929 -0.1812 -0.8510
vn -0.2360 -0.2700 0.9335
vn 0.9281 0.0925 0.3605
vn 0.5697 0.8061 0.1601
vn 0.0462 0.9179 -0.3940
vn 0.6586 -0.1932 0.7272
vn -0.1281 0.9338 0.3341
vn -0.1700 0.4894 -0.8553
vn -0.0965 -0.4481 0.8888
vn -0.3695 -0.8923 -0.2594
vn -0.2340 -0.0548 0.9707
vn 0.3365 -0.8192 0.4644
vn 0.9513 -0.2286 0.2069
vn -0.0036 -0.6738 0.7389
vn 0.0666 0.9870 0.1466
vn 0.0302 -0.7026 0.7109
vn -0.6764 0.2968 0.6741
vn 0.9296 0.0154 -0.3684
vn -0.8711 -0.0102 -0.4910
vn 0.5890 0.7508 0.2990
vn 0.5840 0.1195 0.8029
vn -0.1669 -0.5553 0.8147
vn -0.0901 0.6227 0.7773
vn -0.5340 -0.5486 0.6433
vn -0.4041 -0.4821 -0.7774
vn 0.8155 0.5445 -0.1959
vn -0.1773 -0.6455 0.7429
vn 0.5544 0.7806 -0.2886
vn 0.5342 0.0488 0.8439
vn 0.7651 0.3620 -0.5325
vn -0.3801 -0.2397 -0.8934
vn -0.2190 -0.6002 -0.7693
vn -0.5813 0.2170 -0.7842
vn -0.6148 0.0990 0.7824
vn 0.7541 0.1160 0.6465
vn 0.9739 -0.0126 -0.2267
vn 0.3831 0.5924 0.7088
vn 0.0762 0.9954 -0.0588
vn -0.3502 0.8766 0.3300
vn 0.3469 0.9171 0.1963
vn 0.0571 0.9707 0.2335
vn -0.9574 0.1078 0.2680
vn 0.3311 -0.3617 0.8715
vn -0.2872 0.4927 -0.8214
vn -0.6846 -0.6039 -0.4083
vn -0.8678 -0.4467 0.2176
vn 0.0813 0.0926 -0.9924
vn -0.9716 0.2361 -0.0160
vn 0.0717 0.8318 0.5504
vn 0.4296 0.7517 0.5005
vn -0.3229 0.8791 0.3506
vn 0.9874 -0.1490 0.0540
vn 0.5271 -0.0162 0.8497
vn -0.7850 0.1095 -0.6097
vn -0.3218 -0.6759 -0.6630
vn -0.7616 -0.4889 -0.4254
vn 0.8557 0.3284 0.3999
vn -0.5463 -0.6742 -0.4971
vn -0.1706 0.9807 0.0954
vn 0.7846 0.5418 0.3014
vn 0.6562 0.3371 0.6751
vn -0.4288 0.1816 -0.8849
vn 0.0863 0.2000 0.9760
vn -0.6364 -0.6211 0.4574
vn -0.2408 0.4987 0.8327
vn -0.7315 0.6337 0.2517
vn -0.3657 -0.8610 -0.3533
vn 0.2026 0.4572 0.8660
vn 0.5465 0.6207 0.5622
vn 0.2219 0.3753 0.9000
vn -0.4539 0.5325 -0.7144
vn -0.8733 0.3875 0.2953
vn 0.9587 -0.2385 0.1548
vn 0.5234 0.6950 0.4930
vn 0.2430 0.4203 -0.8742
vn -0.2005 -0.2969 0.9336
vn 0.5029 0.8545 0.1297
vn 0.2735 0.9614 -0.0303
vn -0.1270 0.5242 0.8421
vn -0.4262 -0.1116 0.8977
vn 0.0502 0.7447 -0.6655
vn -0.1013 -0.5723 0.8138
vn 0.0321 0.1487 -0.9884
vn 0.9497 -0.2924 -0.1125
vn -0.9995 -0.0062 -0.0308
vn -0.1685 0.2030 -0.9646
vn 0.0976 -0.6000 0.7940
vn -0.9961 -0.0200 0.0860
vn 0.9501 -0.2456 -0.1925
vn 0.1550 -0.9751 -0.1587
vn 0.2327 -0.4940 0.8377
vn -0.9533 -0.2458 0.1757
vn -0.9515 -0.2932 0.0929
vn 0.9835 -0.0759 -0.1644
vn -0.1348 0.2490 -0.9591
vn -0.0345 -0.9994 0.0099
vn 0.0181 -0.9990 -0.0421
vn 0.2334 -0.4572 0.8582
vn 0.1466 0.2496 -0.9572
vn 0.9791 -0.1413 0.1460
vn 0.5874 0.2116 -0.7812
vn 0.4820 -0.4590 -0.7463
vn 0.5344 -0.1909 -0.8234
vn 0.5641 0.0736 -0.8224
vn 0.9951 -0.0016 0.0992
vn 0.9729 -0.2218 0.0651
vn 0.9716 -0.2288 0.0611
vn 0.0951 -0.5124 -0.8534
vn 0.1029 -0.1912 -0.9761
vn 0.1208 0.1235 -0.9850
vn 0.2044 0.3166 0.9263
vn 0.2794 -0.2487 0.9274
vn 0.2533 -0.4100 0.8762
vn -0.9310 -0.1247 0.3432
vn -0.9532 -0.1630 0.2546
vn -0.9602 -0.2110 0.1833
vn -0.1532 -0.4062 -0.9009
vn -0.1053 -0.0388 -0.9937
vn -0.1236 -0.0258 -0.9920
vn 0.9033 0.2724 0.3313
vn 0.9895 -0.0509 0.1350
vn 0.9969 -0.0679 -0.0391
vn -0.9808 -0.0258 -0.1935
vn -0.9942 -0.0652 0.0850
vn -0.9907 -0.0494 0.1271
vn -0.5445 0.2464 0.8018
vn -0.2818 -0.1359 0.9498
vn -0.0985 -0.0810 0.9918
vn 0.5871 -0.0561 0.8076
vn 0.3705 0.3327 -0.8672
vn -0.1635 -0.5007 -0.8500
vn -0.1932 -0.8450 -0.4986
vn -0.8280 -0.1483 -0.5409
vt 0.461701 0.809397
vt 0.301930 0.729761
vt 0.094158 0.499911
vt 0.498737 0.648456
vt 0.250869 0.553264
vt 0.714874 0.752530
vt 0.627854 0.740386
vt 0.227533 0.339544
vt 0.300362 0.438253
vt 0.625828 0.633709
vt 0.338991 0.679376
vt 0.653754 0.621457
vt 0.189641 0.785401
vt 0.531284 0.815038
vt 0.232114 0.729761
vt 0.806952 0.326283
vt 0.527824 0.712310
vt 0.703640 0.331352
vt 0.725736 0.123548
vt 0.557184 0.740386
vt 0.714874 0.681901
vt 0.693091 0.138725
vt 0.558638 0.706064
vt 0.944491 0.391302
vt 0.108931 0.369345
vt 0.090202 0.443431
vt 0.952837 0.467016
vt 0.108059 0.346292
vt 0.960024 0.371234
vt 0.653754 0.712739
vt 0.761990 0.055860
vt 0.265996 0.788213
vt 0.829683 0.188590
vt 0.886815 0.394232
vt 0.909606 0.471204
vt 0.826550 0.267021
vt 0.659457 0.749480
vt 0.206417 0.267620
vt 0.238389 0.812575
vt 0.882743 0.373659
vt 0.837846 0.166681
vt 0.102618 0.289588
vt 0.957957 0.321520
vt 0.918648 0.216117
vt 0.803322 0.012950
vt 0.106348 0.638847
vt 0.232551 0.755661
vt 0.798789 0.485160
vt 0.965752 0.239402
vt 0.153968 0.222285
vt 0.894228 0.312474
vt 0.856067 0.102710
vt 0.881967 0.351902
vt 0.842627 0.144082
vt 0.107159 0.331692
vt 0.958812 0.358201
vt 0.199778 0.246429
vt 0.138792 0.619338
vt 0.232114 0.797406
vt 0.967580 0.012950
vt 0.753483 0.682459
vt 0.843831 0.469074
vt 0.256421 0.022764
vt 0.824689 0.472884
vt 0.987050 0.016155
vt 0.832147 0.505580
vt 0.295109 0.018166
vt 0.782932 0.707368
vt 0.843831 0.503254
vt 0.076417 0.467161
vt 0.958695 0.494573
vt 0.833773 0.298242
vt 0.909847 0.503107
vt 0.076958 0.454690
vt 0.951531 0.482650
vt 0.837149 0.281767
vt 0.912926 0.487172
vt 0.064432 0.532285
vt 0.298790 0.687460
vt 0.825577 0.362572
vt 0.264894 0.686125
vt 0.056614 0.518895
vt 0.959622 0.549977
vt 0.837123 0.350740
vt 0.929664 0.555276
vt 0.051257 0.577890
vt 0.291936 0.641182
vt 0.824256 0.407314
vt 0.275162 0.640522
vt 0.035793 0.577862
vt 0.964581 0.612577
vt 0.838997 0.411720
vt 0.948088 0.615681
vt 0.039898 0.592711
vt 0.301778 0.620707
vt 0.403076 0.772170
vt 0.830596 0.428615
vt 0.403076 0.737417
vt 0.267017 0.619338
vt 0.012950 0.593438
vt 0.987050 0.637067
vt 0.428919 0.781443
vt 0.856067 0.440612
vt 0.428919 0.728949
vt 0.935424 0.646785
vt 0.945356 0.412724
vt 0.357115 0.854737
vt 0.331665 0.779032
vt 0.948027 0.441601
vt 0.799629 0.752473
vt 0.327972 0.853161
vt 0.906904 0.416128
vt 0.370069 0.779032
vt 0.684668 0.778429
vt 0.909575 0.445005
vt 0.655249 0.778999
vt 0.799629 0.791035
vt 0.330193 0.729131
vt 0.557184 0.775635
vt 0.363063 0.804932
vt 0.331684 0.807874
vt 0.754247 0.751428
vt 0.586563 0.768755
vt 0.566112 0.815056
vt 0.689281 0.828405
vt 0.370405 0.729131
vt 0.754247 0.791805
vt 0.657717 0.824383
vt 0.595492 0.808176
vt 0.327830 0.637821
vt 0.590400 0.642651
vt 0.164818 0.789976
vt 0.357235 0.619338
vt 0.642851 0.190721
vt 0.562581 0.649581
vt 0.406824 0.626953
vt 0.080449 0.619338
vt 0.646201 0.239681
vt 0.727583 0.656002
vt 0.597847 0.731399
vt 0.712829 0.722239
vt 0.658284 0.323708
vt 0.527919 0.666449
vt 0.661748 0.291537
vt 0.680225 0.245582
vt 0.377645 0.696957
vt 0.285191 0.477898
vt 0.483372 0.812325
vt 0.280072 0.728266
vt 0.924330 0.393087
vt 0.921760 0.373660
vt 0.678504 0.727397
vt 0.268491 0.812575
vt 0.930826 0.465310
vt 0.923786 0.327561
vt 0.941993 0.227167
vt 0.764056 0.466512
vt 0.919524 0.351927
vt 0.977463 0.013354
vt 0.833186 0.466512
vt 0.317617 0.012950
vt 0.798789 0.722800
vt 0.839639 0.522681
vt 0.934403 0.500152
vt 0.932138 0.484309
vt 0.281656 0.689101
vt 0.944784 0.554368
vt 0.283549 0.640852
vt 0.956335 0.614129
vt 0.284323 0.620942
vt 0.399765 0.754789
vt 0.961112 0.640376
vt 0.422297 0.755187
vt 0.926130 0.414426
vt 0.350867 0.779032
vt 0.928801 0.443303
vt 0.799629 0.771754
vt 0.350773 0.728949
vt 0.557184 0.796361
vt 0.753483 0.771844
vt 0.595492 0.787450
vt 0.985581 0.067358
vt 0.238180 0.070710
vt 0.259592 0.052321
vt 0.138792 0.821791
vt 0.953366 0.057503
vt 0.765454 0.639660
vt 0.120235 0.821584
vt 0.772730 0.660154
vt 0.283154 0.037949
vt 0.784440 0.682652
vt 0.128680 0.843910
vt 0.970110 0.058056
vt 0.758353 0.637393
vt 0.180368 0.432154
vt 0.759258 0.257498
vt 0.884976 0.446549
vt 0.828099 0.241547
vt 0.971226 0.428512
vt 0.101516 0.405509
vt 0.908240 0.430567
vt 0.669958 0.778714
vt 0.946692 0.427163
vt 0.342544 0.853949
vt 0.673120 0.826722
vt 0.582140 0.817526
vt 0.570535 0.766286
vt 0.348248 0.806122
vt 0.576699 0.792002
vt 0.653753 0.802281
vt 0.776512 0.794925
vt 0.776512 0.748700
vt 0.327830 0.829868
vt 0.363063 0.830170
vt 0.327830 0.753980
vt 0.373865 0.753980
vt 0.689281 0.803194
vt 0.351093 0.753886
vt 0.776117 0.771930
vt 0.671321 0.802907
vt 0.345899 0.829874
vt 0.457498 0.727404
vt 0.165986 0.548054
vt 0.260364 0.376248
vt 0.625887 0.695531
vt 0.520555 0.743605
vt 0.734596 0.339638
vt 0.406824 0.703049
vt 0.012950 0.651015
vt 0.277407 0.507014
vt 0.206214 0.619338
vt 0.706517 0.466512
vt 0.399765 0.822801
vt 0.181517 0.620770
vt 0.619265 0.470337
vt 0.422433 0.807343
vt 0.582936 0.466512
vt 0.458892 0.202188
vt 0.422433 0.843958
vt 0.727583 0.468029
vt 0.460639 0.221880
vt 0.402692 0.843997
vt 0.717439 0.778459
vt 0.429089 0.593438
vt 0.518160 0.466685
vt 0.070962 0.817001
vt 0.726094 0.791097
vt 0.457498 0.298878
vt 0.715181 0.783741
vt 0.523936 0.466512
vt 0.458951 0.311476
vt 0.719061 0.788282
vt 0.458165 0.306435
vt 0.058766 0.817583
vt 0.726094 0.778429
vt 0.431598 0.585369
vt 0.599953 0.261833
vt 0.080449 0.668491
vt 0.542336 0.274386
vt 0.076079 0.728305
vt 0.500395 0.287212
vt 0.064936 0.773359
vt 0.389801 0.564275
vt 0.039540 0.774208
vt 0.356388 0.547019
vt 0.031995 0.737396
vt 0.319737 0.531779
vt 0.030523 0.696843
vt 0.505723 0.512116
vt 0.384015 0.580847
vt 0.506522 0.550736
vt 0.346302 0.574833
vt 0.507607 0.604105
vt 0.294291 0.566034
vt 0.610540 0.298468
vt 0.545535 0.300686
vt 0.502363 0.302883
vt 0.504402 0.313331
vt 0.517745 0.511765
vt 0.548610 0.318269
vt 0.527842 0.556627
vt 0.609940 0.323717
vt 0.531284 0.618364
vt 0.660591 0.582499
vt 0.204501 0.743892
vt 0.668589 0.550878
vt 0.206214 0.710848
vt 0.668004 0.517120
vt 0.204545 0.678125
vt 0.623877 0.525891
vt 0.164692 0.675333
vt 0.610236 0.563455
vt 0.167167 0.712219
vt 0.605277 0.597358
vt 0.166352 0.745757
vt 0.511839 0.183186
vt 0.584607 0.521652
vt 0.552303 0.182624
vt 0.569857 0.561129
vt 0.598009 0.178631
vt 0.565182 0.606784
vt 0.592158 0.236754
vt 0.721184 0.600612
vt 0.550092 0.232946
vt 0.722606 0.558204
vt 0.518921 0.225772
vt 0.713819 0.525134
s 0
usemtl Material
f 89/196/1 7/19/1 13/33/1 90/198/1
f 8/22/2 7/19/2 89/196/2 58/145/2 54/138/2 53/134/2
f 6/18/3 56/142/3 57/144/3
f 3/8/4 106/224/4 4/9/4 59/147/4 88/195/4
f 6/17/5 107/226/5 5/14/5 60/148/5 1/1/5 105/222/5 2/4/5 56/143/5
f 61/150/6 13/34/6 16/40/6 62/151/6
f 5/16/7 14/36/7 31/76/7 29/72/7
f 88/195/8 1/3/8 10/26/8 91/200/8
f 67/158/9 21/53/9 20/51/9 65/155/9
f 13/33/10 7/19/10 12/31/10 16/41/10
f 3/8/11 9/25/11 11/28/11 15/38/11
f 55/141/12 3/6/12 15/37/12 63/152/12
f 66/156/13 19/49/13 17/43/13 65/155/13
f 23/57/14 22/55/14 17/42/14 19/50/14
f 83/184/15 82/183/15 25/63/15 26/67/15
f 15/38/16 11/28/16 22/55/16 23/57/16
f 62/151/17 16/40/17 21/53/17 67/158/17
f 69/163/18 26/66/18 25/64/18 68/160/18
f 87/193/19 84/186/19 24/60/19 68/159/19
f 86/190/20 83/184/20 26/67/20 69/161/20
f 84/187/21 85/189/21 27/68/21 24/61/21
f 70/164/22 29/73/22 31/77/22 71/165/22
f 70/164/23 28/71/23 34/83/23 73/167/23
f 10/26/24 1/3/24 28/70/24 30/74/24
f 64/154/25 10/27/25 30/75/25 71/165/25
f 34/82/26 32/78/26 36/86/26 38/90/26
f 60/149/27 5/15/27 33/81/27 72/166/27
f 5/16/28 29/72/28 35/84/28 33/80/28
f 28/70/29 1/3/29 32/78/29 34/82/29
f 37/88/30 39/92/30 43/103/30 41/97/30
f 73/167/31 34/83/31 38/91/31 75/169/31
f 33/80/32 35/84/32 39/92/32 37/88/32
f 72/166/33 33/81/33 37/89/33 74/168/33
f 76/171/34 41/98/34 43/104/34 77/173/34
f 74/168/35 37/89/35 41/99/35 76/170/35
f 38/90/36 36/86/36 40/94/36 42/100/36
f 75/169/37 38/91/37 42/101/37 77/172/37
f 102/219/38 97/211/38 51/127/38 81/180/38
f 91/199/39 10/27/39 45/109/39 93/203/39
f 90/197/40 13/34/40 46/112/40 92/201/40
f 61/150/41 9/24/41 44/106/41 78/174/41
f 64/154/42 14/35/42 47/115/42 79/176/42
f 96/209/43 94/206/43 50/124/43 80/179/43
f 101/218/44 99/215/44 48/118/44 80/178/44
f 104/221/45 98/213/45 49/121/45 95/208/45
f 103/220/46 100/217/46 50/125/46 94/205/46
f 8/23/47 53/135/47 52/131/47
f 8/23/48 52/131/48 4/10/48 106/225/48 3/7/48 55/140/48 7/20/48
f 54/138/49 58/145/49 89/196/49 5/16/49 107/227/49 6/18/49 57/144/49
f 100/216/50 101/218/50 80/178/50 50/126/50
f 95/207/51 96/209/51 80/179/51 48/119/51
f 10/27/52 64/154/52 79/176/52 45/109/52
f 13/34/53 61/150/53 78/174/53 46/112/53
f 98/212/54 102/219/54 81/180/54 49/122/54
f 39/93/55 75/169/55 77/172/55 43/105/55
f 36/87/56 74/168/56 76/170/56 40/95/56
f 40/96/57 76/171/57 77/173/57 42/102/57
f 32/79/58 72/166/58 74/168/58 36/87/58
f 35/85/59 73/167/59 75/169/59 39/93/59
f 1/2/60 60/149/60 72/166/60 32/79/60
f 14/35/61 64/154/61 71/165/61 31/77/61
f 29/73/62 70/164/62 73/167/62 35/85/62
f 28/71/63 70/164/63 71/165/63 30/75/63
f 85/189/64 86/191/64 69/162/64 27/68/64
f 82/182/65 87/193/65 68/159/65 25/65/65
f 27/69/66 69/163/66 68/160/66 24/62/66
f 11/29/67 62/151/67 67/158/67 22/56/67
f 18/44/68 66/156/68 65/155/68 20/51/68
f 7/21/69 55/141/69 63/152/69 12/30/69
f 22/56/70 67/158/70 65/155/70 17/43/70
f 9/24/71 61/150/71 62/151/71 11/29/71
f 19/49/72 66/156/72 87/193/72 82/182/72
f 12/31/73 18/45/73 20/52/73 21/54/73 16/41/73
f 66/157/74 18/48/74 84/187/74 87/194/74
f 23/57/75 19/50/75 82/183/75 83/184/75
f 49/123/76 81/181/76 96/209/76 95/207/76
f 97/210/77 103/220/77 94/205/77 51/128/77
f 99/214/78 104/221/78 95/208/78 48/120/78
f 81/181/79 51/129/79 94/206/79 96/209/79
f 14/35/80 90/197/80 92/201/80 47/115/80
f 9/24/81 91/199/81 93/203/81 44/106/81
f 3/8/82 88/195/82 91/200/82 9/25/82
f 5/16/83 89/196/83 90/198/83 14/36/83
f 44/107/84 93/204/84 104/221/84 99/214/84
f 47/116/85 92/202/85 103/220/85 97/210/85
f 45/110/86 79/177/86 102/219/86 98/212/86
f 46/113/87 78/175/87 101/218/87 100/216/87
f 92/202/88 46/114/88 100/217/88 103/220/88
f 93/204/89 45/111/89 98/213/89 104/221/89
f 78/175/90 44/108/90 99/215/90 101/218/90
f 79/177/91 47/117/91 97/211/91 102/219/91
f 59/146/92 4/11/92 52/130/92 53/133/92 54/136/92 108/228/92
f 136/291/93 110/234/93 109/231/93 135/289/93
f 121/264/94 120/262/94 114/246/94 117/254/94
f 139/297/95 111/237/95 110/235/95 136/290/95
f 135/288/96 109/232/96 112/240/96 144/307/96
f 144/306/97 112/241/97 111/238/97 139/296/97
f 111/239/98 112/242/98 109/233/98 110/236/98
f 117/255/99 114/247/99 116/252/99 115/249/99 113/243/99
f 124/270/100 121/263/100 117/256/100 113/244/100
f 120/261/101 129/277/101 116/253/101 114/248/101
f 130/279/102 124/269/102 113/245/102 115/250/102
f 129/277/103 130/278/103 115/251/103 116/253/103
f 57/144/104 56/142/104 132/282/104 127/275/104
f 127/275/105 132/282/105 131/280/105 128/276/105
f 128/276/106 131/280/106 130/278/106 129/277/106
f 56/143/107 2/4/107 126/273/107 132/283/107
f 132/283/108 126/273/108 125/271/108 131/281/108
f 131/281/109 125/271/109 124/269/109 130/279/109
f 54/138/110 57/144/110 127/275/110 118/257/110
f 118/257/111 127/275/111 128/276/111 119/259/111
f 119/259/112 128/276/112 129/277/112 120/261/112
f 2/5/113 108/230/113 123/267/113 126/274/113
f 126/274/114 123/267/114 122/265/114 125/272/114
f 125/272/115 122/265/115 121/263/115 124/270/115
f 108/229/116 54/137/116 118/258/116 123/268/116
f 123/268/117 118/258/117 119/260/117 122/266/117
f 122/266/118 119/260/118 120/262/118 121/264/118
f 54/138/119 142/302/119 141/300/119 53/134/119
f 142/302/120 143/304/120 140/298/120 141/300/120
f 143/304/121 144/306/121 139/296/121 140/298/121
f 4/12/122 133/284/122 142/303/122 54/139/122
f 133/284/123 134/286/123 143/305/123 142/303/123
f 134/286/124 135/288/124 144/307/124 143/305/124
f 53/135/125 141/301/125 138/294/125 52/131/125
f 141/301/126 140/299/126 137/292/126 138/294/126
f 140/299/127 139/297/127 136/290/127 137/292/127
f 52/132/128 138/295/128 133/285/128 4/13/128
f 138/295/129 137/293/129 134/287/129 133/285/129
f 137/293/130 136/291/130 135/289/130 134/287/130
f 105/223/131 1/3/131 88/195/131 59/147/131 108/230/131 2/5/131
f 86/192/132 85/188/132 83/185/132
f 83/185/133 85/188/133 18/46/133 23/58/133
f 63/153/134 15/39/134 23/59/134 18/47/134 12/32/134
f 84/187/135 18/48/135 85/189/135
l 52 106
