# Blender 3.3.1
# www.blender.org
mtllib monstruo_3_grande_caminar600.mtl
o monstruo_grande
v 0.308225 2.047331 0.162416
v 0.525121 1.201659 0.085456
v -0.730458 1.738535 0.150963
v -0.296615 1.143096 0.223378
v 0.496397 2.333460 -0.165266
v 0.518109 1.643815 -0.262470
v -0.852607 1.923254 -0.287627
v -0.744119 1.636015 -0.337300
v -0.378324 2.410147 0.396330
v 0.184103 2.322703 0.375206
v -0.513803 2.381186 0.496499
v -1.221928 1.972692 -0.145513
v -0.367241 2.554055 0.029234
v 0.178539 2.457046 0.112237
v -1.074066 1.856158 0.031000
v -0.530680 2.622207 0.042426
v -0.870056 2.295430 0.508358
v -1.522414 1.914063 0.111073
v -1.258140 1.983353 0.324064
v -1.047397 2.579842 0.206753
v -0.715281 2.659361 0.100182
v -0.590780 2.335832 0.476326
v -1.206927 1.875048 0.023241
v -1.819252 0.708156 0.882065
v -1.695153 0.695795 0.935139
v -1.665209 0.502307 0.752630
v -1.740956 0.509853 0.720236
v 0.329368 2.232605 0.353191
v 0.446059 2.427175 0.105059
v 0.296261 2.352352 0.368947
v 0.310865 2.481555 0.142092
v 0.544107 1.910219 0.147394
v 0.681347 2.002971 -0.012620
v 0.573353 1.984511 0.204032
v 0.668195 2.100940 0.061885
v 0.695807 1.680400 0.083021
v 0.787283 1.705926 0.021018
v 0.758872 1.615451 0.136986
v 0.850043 1.654265 0.076896
v 0.674587 1.525920 0.074703
v 0.866999 1.602201 -0.046621
v 0.734574 1.376438 0.188284
v 1.017950 1.492028 -0.003068
v -0.218008 2.466479 0.420377
v -0.006867 2.443809 0.409803
v -0.214807 2.554534 0.167468
v -0.011530 2.534017 0.162449
v -0.162698 2.780047 0.563697
v 0.042836 2.714009 0.527546
v -0.172558 2.890165 0.308421
v 0.031560 2.824684 0.271180
v -0.500554 1.132269 0.009912
v -0.384671 1.139534 -0.203194
v -0.047334 1.259255 -0.336420
v -0.781913 1.764707 -0.076890
v 0.549279 1.231279 -0.150630
v 0.331418 1.232550 -0.278596
v -0.008308 1.512264 -0.341465
v -0.016592 1.148354 0.198811
v 0.372676 2.132816 0.050413
v -0.367931 2.461615 0.267767
v -0.536117 2.617264 0.317731
v -1.002534 1.914756 -0.093707
v 0.157336 2.447106 0.271673
v -0.899036 2.516492 0.443719
v -1.437436 2.083253 0.346603
v -0.688379 2.597155 0.307720
v -1.769911 0.703353 0.938637
v -1.677203 0.382432 0.647124
v 0.424430 2.336656 0.260530
v 0.303945 2.463039 0.276568
v 0.570861 1.946436 0.021902
v 0.661292 2.049856 0.165694
v 0.741268 1.697795 0.052495
v 0.804137 1.633914 0.106421
v 0.754346 1.574968 -0.002923
v 0.848173 1.455802 0.064041
v -0.217197 2.510100 0.293081
v -0.010986 2.490185 0.285406
v -0.198775 2.836571 0.438110
v 0.068803 2.768239 0.398000
v -1.576693 1.017343 0.852926
v -1.628326 0.836077 0.801386
v -1.790313 1.009148 0.765631
v -1.745133 0.847712 0.751431
v -1.679300 0.668870 0.718739
v -1.707829 0.998548 0.862230
v -0.090770 1.798485 0.476421
v 0.059824 2.142539 -0.247385
v -0.008737 2.526512 -0.018393
v -0.058127 2.309156 0.550985
v -0.115779 2.543139 0.163298
v -0.108047 2.452307 0.414183
v -0.072339 2.873523 0.250914
v -0.058526 2.730501 0.583800
v -0.061128 2.853027 0.440170
v 0.022964 2.689600 0.191504
v 0.032284 2.566976 0.484445
v -0.203675 2.616140 0.514873
v -0.215692 2.738416 0.218612
v -0.225871 2.678842 0.368678
v 0.043021 2.628376 0.337003
v -0.097829 2.721905 0.184358
v -0.083719 2.581634 0.519807
v 0.369454 1.749913 -0.030997
v -0.602239 1.468313 0.186810
v 0.504186 1.870553 -0.268052
v 0.175632 1.153632 0.196978
v -0.190498 0.012124 -0.011064
v -0.334000 0.019340 0.112281
v -0.361643 0.018094 -0.137515
v -0.226617 0.012164 -0.153145
v 0.373162 0.144501 -0.279902
v 0.302358 0.166879 -0.355313
v 0.383838 0.155469 -0.316449
v 0.353200 0.162742 -0.342955
v 0.313882 0.142529 -0.271957
v 0.107227 0.889921 -0.113922
v 0.172480 0.732321 -0.110820
v 0.233025 0.453630 -0.212230
v 0.273564 0.367058 -0.057447
v 0.240490 0.564728 0.105938
v 0.228695 0.805259 0.246365
v 0.394590 0.386185 -0.080503
v 0.444597 0.602305 0.074497
v 0.509713 0.899712 0.193127
v 0.361430 0.920213 -0.095466
v 0.352813 0.728942 -0.086656
v 0.340377 0.449918 -0.195956
v 0.409090 0.428186 -0.150142
v 0.468777 0.697924 -0.011520
v 0.530187 0.937012 0.011354
v -0.175861 0.885376 0.336232
v -0.143403 0.588245 0.277295
v -0.135209 0.345104 0.242923
v -0.420121 0.331550 0.232593
v -0.434914 0.607898 0.226128
v -0.461580 0.864687 0.209268
v -0.455806 0.375572 -0.032255
v -0.467286 0.650397 -0.038881
v -0.471935 0.863473 -0.067393
v -0.075365 0.828181 -0.087905
v -0.123980 0.635446 -0.082263
v -0.164875 0.424270 -0.063889
vn -0.0801 0.4975 -0.8638
vn -0.0363 0.0194 -0.9992
vn 0.4962 -0.1921 -0.8467
vn -0.2649 -0.2436 0.9330
vn 0.9150 0.0642 0.3982
vn 0.5729 0.8040 0.1592
vn 0.0921 0.9177 -0.3866
vn 0.6445 -0.1952 0.7392
vn -0.1347 0.9384 0.3182
vn -0.1473 0.4770 -0.8665
vn -0.1181 -0.4391 0.8907
vn -0.3689 -0.8987 -0.2371
vn -0.2594 -0.0418 0.9649
vn 0.3199 -0.8146 0.4838
vn 0.9448 -0.2112 0.2506
vn -0.0136 -0.6729 0.7396
vn 0.0691 0.9885 0.1344
vn 0.0097 -0.6764 0.7365
vn -0.7039 0.3136 0.6373
vn 0.9426 0.0119 -0.3336
vn -0.8518 -0.0367 -0.5225
vn 0.5893 0.7354 0.3346
vn 0.5257 0.0865 0.8463
vn -0.2211 -0.5527 0.8035
vn -0.1072 0.6314 0.7681
vn -0.6474 -0.4922 0.5819
vn -0.3597 -0.4614 -0.8110
vn 0.8525 0.5076 -0.1252
vn -0.2647 -0.6379 0.7232
vn 0.6515 0.7270 -0.2170
vn 0.4394 0.0394 0.8974
vn 0.8508 0.3011 -0.4306
vn -0.2852 -0.2532 -0.9244
vn -0.1823 -0.5779 -0.7955
vn -0.4608 0.2704 -0.8453
vn -0.6894 0.1570 0.7072
vn 0.6818 0.0479 0.7299
vn 0.9772 -0.0139 -0.2116
vn 0.3629 0.6050 0.7087
vn 0.0774 0.9949 -0.0642
vn -0.3475 0.8838 0.3132
vn 0.3431 0.9178 0.1999
vn 0.0540 0.9721 0.2283
vn -0.9609 0.1099 0.2542
vn 0.3191 -0.3564 0.8782
vn -0.2741 0.4889 -0.8282
vn -0.6898 -0.6063 -0.3958
vn -0.8810 -0.4214 0.2150
vn 0.1026 0.0831 -0.9912
vn -0.9712 0.2362 -0.0308
vn 0.0642 0.8352 0.5462
vn 0.4134 0.7547 0.5094
vn -0.3217 0.8872 0.3308
vn 0.9864 -0.1497 0.0682
vn 0.4217 -0.0626 0.9046
vn -0.6960 0.1802 -0.6951
vn -0.3036 -0.6451 -0.7012
vn -0.7351 -0.4597 -0.4982
vn 0.8280 0.2870 0.4817
vn -0.5375 -0.6487 -0.5388
vn -0.1529 0.9849 0.0807
vn 0.7835 0.5051 0.3621
vn 0.6365 0.3057 0.7082
vn -0.3967 0.1453 -0.9064
vn 0.0475 0.2357 0.9707
vn -0.6476 -0.6109 0.4554
vn -0.2542 0.5118 0.8206
vn -0.7361 0.6401 0.2201
vn -0.3637 -0.8750 -0.3196
vn 0.1817 0.4663 0.8658
vn 0.5396 0.6251 0.5639
vn 0.1963 0.3997 0.8954
vn -0.4346 0.5232 -0.7331
vn -0.8833 0.3911 0.2586
vn 0.9549 -0.2300 0.1878
vn 0.5166 0.6980 0.4958
vn 0.2563 0.4148 -0.8731
vn -0.2134 -0.2912 0.9326
vn 0.5011 0.8553 0.1314
vn 0.2749 0.9608 -0.0356
vn -0.1396 0.5447 0.8270
vn -0.4486 -0.0945 0.8887
vn 0.0859 0.7357 -0.6718
vn -0.1159 -0.5683 0.8146
vn 0.0534 0.1398 -0.9887
vn 0.9512 -0.2940 -0.0934
vn -0.9987 -0.0094 -0.0491
vn -0.1459 0.1998 -0.9689
vn 0.0834 -0.5928 0.8010
vn -0.9973 -0.0198 0.0703
vn 0.9557 -0.2418 -0.1680
vn 0.1198 -0.9845 -0.1284
vn 0.2304 -0.4800 0.8464
vn -0.9601 -0.2660 0.0860
vn -0.9531 -0.2880 0.0933
vn 0.9840 -0.0815 -0.1586
vn -0.1307 0.2378 -0.9625
vn -0.0422 -0.9991 0.0099
vn -0.0041 -0.9604 -0.2786
vn 0.2022 -0.6456 0.7364
vn 0.1800 0.4641 -0.8673
vn 0.9728 -0.1862 0.1378
vn 0.6146 0.3748 -0.6941
vn 0.4819 -0.4267 -0.7653
vn 0.5354 -0.0596 -0.8425
vn 0.5803 0.2707 -0.7681
vn 0.9945 -0.0102 0.1046
vn 0.9698 -0.2400 0.0426
vn 0.9708 -0.2379 0.0309
vn 0.1072 -0.4868 -0.8669
vn 0.0987 -0.0179 -0.9950
vn 0.1385 0.3605 -0.9224
vn 0.1941 0.2409 0.9510
vn 0.2692 -0.4394 0.8570
vn 0.2329 -0.5990 0.7661
vn -0.9332 -0.1454 0.3287
vn -0.9466 -0.2524 0.2005
vn -0.9619 -0.2502 0.1099
vn -0.1318 -0.4567 -0.8798
vn -0.0908 -0.0737 -0.9931
vn -0.1150 -0.0441 -0.9924
vn 0.8941 0.2964 0.3356
vn 0.9872 -0.0491 0.1517
vn 0.9971 -0.0708 -0.0287
vn -0.9765 -0.0433 -0.2109
vn -0.9955 -0.0592 0.0740
vn -0.9918 -0.0444 0.1201
vn -0.5586 0.2916 0.7765
vn -0.2931 -0.1035 0.9505
vn -0.1065 -0.0580 0.9926
vn 0.5681 -0.0515 0.8213
vn 0.4000 0.3052 -0.8642
vn -0.1351 -0.5249 -0.8404
vn -0.1738 -0.8610 -0.4780
vn -0.8029 -0.1746 -0.5700
vt 0.882279 0.260085
vt 0.436089 0.649131
vt 0.117664 0.305524
vt 0.860974 0.338762
vt 0.079561 0.383885
vt 0.278417 0.728674
vt 0.111517 0.716819
vt 0.301243 0.337859
vt 0.232943 0.387386
vt 0.111517 0.662267
vt 0.671871 0.687525
vt 0.175114 0.511099
vt 0.930991 0.712692
vt 0.796001 0.259488
vt 0.522181 0.649131
vt 0.719621 0.316178
vt 0.801110 0.310020
vt 0.698705 0.366293
vt 0.510656 0.337024
vt 0.023033 0.717149
vt 0.367094 0.730187
vt 0.507246 0.358198
vt 0.018976 0.695717
vt 0.103380 0.570561
vt 0.268725 0.266033
vt 0.143950 0.273348
vt 0.098384 0.631539
vt 0.301351 0.259488
vt 0.128079 0.559933
vt 0.480438 0.333338
vt 0.348619 0.714075
vt 0.604958 0.268707
vt 0.031105 0.562973
vt 0.043818 0.625810
vt 0.721993 0.282954
vt 0.329365 0.336360
vt 0.302724 0.713315
vt 0.030374 0.549675
vt 0.582817 0.260846
vt 0.875347 0.642471
vt 0.380514 0.272320
vt 0.124895 0.517524
vt 0.813390 0.578569
vt 0.436089 0.332372
vt 0.956124 0.588845
vt 0.367094 0.692599
vt 0.367094 0.522797
vt 0.871643 0.594841
vt 0.398138 0.324445
vt 0.043891 0.509019
vt 0.796001 0.641153
vt 0.491075 0.268473
vt 0.032114 0.534706
vt 0.552485 0.259488
vt 0.331566 0.259909
vt 0.129819 0.544964
vt 0.339759 0.337186
vt 0.913298 0.588845
vt 0.317584 0.707220
vt 0.845734 0.463378
vt 0.311567 0.646434
vt 0.944558 0.353645
vt 0.398138 0.462439
vt 0.920230 0.354337
vt 0.870057 0.463781
vt 0.929709 0.374247
vt 0.357807 0.478584
vt 0.347994 0.663056
vt 0.944558 0.373825
vt 0.097076 0.285727
vt 0.229765 0.651022
vt 0.758050 0.297859
vt 0.168317 0.651042
vt 0.119329 0.272208
vt 0.094178 0.643292
vt 0.222768 0.636959
vt 0.746872 0.283208
vt 0.174541 0.636975
vt 0.045175 0.638147
vt 0.080672 0.327471
vt 0.442544 0.673801
vt 0.734592 0.339187
vt 0.484453 0.673801
vt 0.070725 0.319456
vt 0.218298 0.685110
vt 0.751374 0.331694
vt 0.180611 0.684911
vt 0.062412 0.356092
vt 0.455575 0.702696
vt 0.724658 0.367821
vt 0.476314 0.702696
vt 0.043357 0.357400
vt 0.210236 0.723455
vt 0.742364 0.370210
vt 0.189444 0.723462
vt 0.050281 0.367705
vt 0.444942 0.715336
vt 0.810526 0.722486
vt 0.728448 0.380153
vt 0.853695 0.722486
vt 0.487920 0.715336
vt 0.018975 0.371756
vt 0.232852 0.738567
vt 0.796001 0.739289
vt 0.758050 0.386241
vt 0.861207 0.739289
vt 0.167770 0.738589
vt 0.100634 0.583041
vt 0.712300 0.698974
vt 0.802197 0.701507
vt 0.098640 0.600731
vt 0.972705 0.287497
vt 0.747907 0.696578
vt 0.052045 0.577939
vt 0.849895 0.701507
vt 0.710445 0.675017
vt 0.050052 0.595630
vt 0.746553 0.677603
vt 0.924885 0.287497
vt 0.797725 0.671259
vt 0.981025 0.313792
vt 0.715147 0.730011
vt 0.752543 0.724602
vt 0.973919 0.259495
vt 0.967002 0.332143
vt 0.934252 0.306472
vt 0.715328 0.644023
vt 0.847669 0.671259
vt 0.923848 0.259495
vt 0.753088 0.649631
vt 0.920230 0.324823
vt 0.068284 0.665533
vt 0.630362 0.705721
vt 0.712055 0.621316
vt 0.966165 0.712391
vt 0.519769 0.388732
vt 0.031375 0.663704
vt 0.592215 0.695479
vt 0.581836 0.620019
vt 0.750017 0.621843
vt 0.569690 0.667298
vt 0.581066 0.387596
vt 0.531739 0.516092
vt 0.642835 0.625048
vt 0.273616 0.509019
vt 0.070982 0.710642
vt 0.316851 0.732164
vt 0.684917 0.393810
vt 0.816625 0.338063
vt 0.644803 0.392946
vt 0.602800 0.367236
vt 0.671871 0.661666
vt 0.181146 0.386242
vt 0.855113 0.259897
vt 0.463196 0.649131
vt 0.077903 0.567886
vt 0.078993 0.554271
vt 0.322237 0.720993
vt 0.070972 0.628379
vt 0.834014 0.651825
vt 0.084160 0.512738
vt 0.838315 0.596273
vt 0.320679 0.509019
vt 0.080733 0.539302
vt 0.857365 0.464048
vt 0.931678 0.351118
vt 0.335174 0.488977
vt 0.367094 0.673623
vt 0.939667 0.384854
vt 0.199177 0.651021
vt 0.069465 0.641494
vt 0.198664 0.632807
vt 0.464209 0.672968
vt 0.199604 0.684998
vt 0.465945 0.702696
vt 0.199840 0.723459
vt 0.466714 0.715004
vt 0.832520 0.720483
vt 0.200177 0.738589
vt 0.829423 0.735282
vt 0.076340 0.580490
vt 0.826046 0.701507
vt 0.074346 0.598181
vt 0.948795 0.287497
vt 0.823088 0.670800
vt 0.959731 0.307426
vt 0.948976 0.259488
vt 0.941524 0.331189
vt 0.875347 0.491894
vt 0.391834 0.432095
vt 0.377694 0.448634
vt 0.915590 0.478791
vt 0.834644 0.488373
vt 0.326937 0.619279
vt 0.938593 0.478810
vt 0.335216 0.632947
vt 0.358601 0.463790
vt 0.348787 0.648138
vt 0.927106 0.463378
vt 0.854274 0.489560
vt 0.315804 0.619182
vt 0.212520 0.321385
vt 0.644070 0.318501
vt 0.018976 0.592450
vt 0.663817 0.276029
vt 0.129819 0.597828
vt 0.224108 0.269832
vt 0.051049 0.586785
vt 0.728499 0.676310
vt 0.099637 0.591886
vt 0.730103 0.697776
vt 0.734390 0.646904
vt 0.920230 0.314550
vt 0.981025 0.324065
vt 0.732426 0.727384
vt 0.950683 0.319044
vt 0.753088 0.663662
vt 0.920230 0.273492
vt 0.977552 0.273492
vt 0.752543 0.710647
vt 0.709822 0.714522
vt 0.796001 0.686127
vt 0.853178 0.686127
vt 0.709822 0.659561
vt 0.824792 0.685890
vt 0.948939 0.273488
vt 0.731549 0.661651
vt 0.730449 0.712624
vt 0.878850 0.297575
vt 0.096711 0.342677
vt 0.285581 0.357771
vt 0.108549 0.696221
vt 0.804979 0.293594
vt 0.708839 0.350023
vt 0.668288 0.644023
vt 0.436089 0.526409
vt 0.145034 0.385321
vt 0.919159 0.607821
vt 0.247387 0.613831
vt 0.970304 0.416607
vt 0.947808 0.608020
vt 0.704660 0.516092
vt 0.970304 0.403829
vt 0.750017 0.516884
vt 0.618892 0.516092
vt 0.920230 0.404231
vt 0.273616 0.612878
vt 0.642836 0.516847
vt 0.938584 0.415207
vt 0.924281 0.443436
vt 0.075400 0.489812
vt 0.855524 0.444402
vt 0.531739 0.629156
vt 0.934913 0.435583
vt 0.576828 0.496673
vt 0.931440 0.443424
vt 0.848383 0.444289
vt 0.592622 0.497116
vt 0.934913 0.440184
vt 0.586164 0.496977
vt 0.517161 0.630156
vt 0.920230 0.438606
vt 0.085942 0.490043
vt 0.585376 0.420489
vt 0.510472 0.551446
vt 0.582586 0.444044
vt 0.504260 0.576063
vt 0.581388 0.469636
vt 0.508131 0.602400
vt 0.103684 0.463024
vt 0.477645 0.604263
vt 0.118194 0.440373
vt 0.454885 0.581958
vt 0.129418 0.415411
vt 0.438452 0.557360
vt 0.876897 0.417052
vt 0.081901 0.462161
vt 0.882279 0.393921
vt 0.081653 0.438865
vt 0.880271 0.363315
vt 0.079604 0.408162
vt 0.633117 0.418943
vt 0.615530 0.444447
vt 0.600997 0.469910
vt 0.614559 0.469949
vt 0.862035 0.416811
vt 0.638313 0.444473
vt 0.857648 0.390640
vt 0.666106 0.417503
vt 0.844696 0.362700
vt 0.167770 0.536691
vt 0.914144 0.688660
vt 0.182151 0.561697
vt 0.913298 0.663084
vt 0.189855 0.582503
vt 0.915415 0.641729
vt 0.680787 0.549268
vt 0.966165 0.641681
vt 0.684678 0.573659
vt 0.963812 0.665813
vt 0.684995 0.596421
vt 0.964308 0.688427
vt 0.584794 0.548886
vt 0.729850 0.550060
vt 0.578610 0.572959
vt 0.734888 0.574452
vt 0.569690 0.595426
vt 0.736445 0.597214
vt 0.642060 0.590920
vt 0.247172 0.543053
vt 0.641052 0.570535
vt 0.248998 0.562413
vt 0.635978 0.552556
vt 0.245738 0.579271
s 0
usemtl Material
f 89/203/1 7/19/1 13/32/1 90/205/1
f 8/22/2 7/19/2 89/203/2 58/151/2 54/142/2 53/136/2
f 6/18/3 56/148/3 57/150/3
f 3/8/4 106/231/4 4/9/4 59/153/4 88/202/4
f 6/17/5 107/233/5 5/14/5 60/154/5 1/1/5 105/229/5 2/4/5 56/149/5
f 61/156/6 13/33/6 16/38/6 62/157/6
f 5/16/7 14/35/7 31/77/7 29/72/7
f 88/202/8 1/3/8 10/26/8 91/207/8
f 67/164/9 21/53/9 20/50/9 65/161/9
f 13/32/10 7/19/10 12/30/10 16/39/10
f 3/8/11 9/25/11 11/28/11 15/36/11
f 55/147/12 3/6/12 15/37/12 63/158/12
f 66/162/13 19/48/13 17/40/13 65/160/13
f 23/57/14 22/55/14 17/41/14 19/49/14
f 83/191/15 82/190/15 25/63/15 26/67/15
f 15/36/16 11/28/16 22/55/16 23/57/16
f 62/157/17 16/38/17 21/53/17 67/164/17
f 69/169/18 26/66/18 25/64/18 68/166/18
f 87/200/19 84/193/19 24/60/19 68/165/19
f 86/197/20 83/191/20 26/67/20 69/167/20
f 84/194/21 85/196/21 27/68/21 24/61/21
f 70/170/22 29/73/22 31/78/22 71/172/22
f 70/170/23 28/71/23 34/85/23 73/174/23
f 10/26/24 1/3/24 28/70/24 30/74/24
f 64/159/25 10/27/25 30/75/25 71/171/25
f 34/84/26 32/80/26 36/88/26 38/92/26
f 60/155/27 5/15/27 33/83/27 72/173/27
f 5/16/28 29/72/28 35/86/28 33/82/28
f 28/70/29 1/3/29 32/80/29 34/84/29
f 37/90/30 39/94/30 43/105/30 41/99/30
f 73/174/31 34/85/31 38/93/31 75/176/31
f 33/82/32 35/86/32 39/94/32 37/90/32
f 72/173/33 33/83/33 37/91/33 74/175/33
f 76/178/34 41/100/34 43/106/34 77/180/34
f 74/175/35 37/91/35 41/101/35 76/177/35
f 38/92/36 36/88/36 40/96/36 42/102/36
f 75/176/37 38/93/37 42/103/37 77/179/37
f 102/226/38 97/218/38 51/129/38 81/187/38
f 91/206/39 10/27/39 45/111/39 93/210/39
f 90/204/40 13/33/40 46/114/40 92/208/40
f 61/156/41 9/24/41 44/108/41 78/181/41
f 64/159/42 14/34/42 47/117/42 79/183/42
f 96/216/43 94/213/43 50/126/43 80/186/43
f 101/225/44 99/222/44 48/120/44 80/185/44
f 104/228/45 98/220/45 49/123/45 95/215/45
f 103/227/46 100/224/46 50/127/46 94/212/46
f 8/23/47 53/137/47 52/132/47
f 8/23/48 52/132/48 4/10/48 106/232/48 3/7/48 55/146/48 7/20/48
f 54/142/49 58/151/49 89/203/49 5/16/49 107/234/49 6/18/49 57/150/49
f 100/223/50 101/225/50 80/185/50 50/128/50
f 95/214/51 96/216/51 80/186/51 48/121/51
f 10/27/52 64/159/52 79/183/52 45/111/52
f 13/33/53 61/156/53 78/181/53 46/114/53
f 98/219/54 102/226/54 81/187/54 49/124/54
f 39/95/55 75/176/55 77/179/55 43/107/55
f 36/89/56 74/175/56 76/177/56 40/97/56
f 40/98/57 76/178/57 77/180/57 42/104/57
f 32/81/58 72/173/58 74/175/58 36/89/58
f 35/87/59 73/174/59 75/176/59 39/95/59
f 1/2/60 60/155/60 72/173/60 32/81/60
f 14/34/61 64/159/61 71/171/61 31/79/61
f 29/73/62 70/170/62 73/174/62 35/87/62
f 28/71/63 70/170/63 71/172/63 30/76/63
f 85/196/64 86/198/64 69/168/64 27/68/64
f 82/189/65 87/200/65 68/165/65 25/65/65
f 27/69/66 69/169/66 68/166/66 24/62/66
f 11/29/67 62/157/67 67/164/67 22/56/67
f 18/43/68 66/162/68 65/160/68 20/51/68
f 7/21/69 55/147/69 63/158/69 12/31/69
f 22/56/70 67/164/70 65/161/70 17/42/70
f 9/24/71 61/156/71 62/157/71 11/29/71
f 19/48/72 66/162/72 87/200/72 82/189/72
f 12/30/73 18/44/73 20/52/73 21/54/73 16/39/73
f 66/163/74 18/47/74 84/194/74 87/201/74
f 23/57/75 19/49/75 82/190/75 83/191/75
f 49/125/76 81/188/76 96/216/76 95/214/76
f 97/217/77 103/227/77 94/212/77 51/130/77
f 99/221/78 104/228/78 95/215/78 48/122/78
f 81/188/79 51/131/79 94/213/79 96/216/79
f 14/34/80 90/204/80 92/208/80 47/117/80
f 9/24/81 91/206/81 93/210/81 44/108/81
f 3/8/82 88/202/82 91/207/82 9/25/82
f 5/16/83 89/203/83 90/205/83 14/35/83
f 44/109/84 93/211/84 104/228/84 99/221/84
f 47/118/85 92/209/85 103/227/85 97/217/85
f 45/112/86 79/184/86 102/226/86 98/219/86
f 46/115/87 78/182/87 101/225/87 100/223/87
f 92/209/88 46/116/88 100/224/88 103/227/88
f 93/211/89 45/113/89 98/220/89 104/228/89
f 78/182/90 44/110/90 99/222/90 101/225/90
f 79/184/91 47/119/91 97/218/91 102/226/91
f 59/152/92 4/11/92 52/133/92 53/138/92 54/141/92 108/235/92
f 136/298/93 110/241/93 109/238/93 135/296/93
f 121/271/94 120/269/94 114/253/94 117/261/94
f 139/304/95 111/244/95 110/242/95 136/297/95
f 135/295/96 109/239/96 112/247/96 144/314/96
f 144/313/97 112/248/97 111/245/97 139/303/97
f 111/246/98 112/249/98 109/240/98 110/243/98
f 117/262/99 114/254/99 116/259/99 115/256/99 113/250/99
f 124/277/100 121/270/100 117/263/100 113/251/100
f 120/268/101 129/284/101 116/260/101 114/255/101
f 130/286/102 124/276/102 113/252/102 115/257/102
f 129/284/103 130/285/103 115/258/103 116/260/103
f 57/150/104 56/148/104 132/289/104 127/282/104
f 127/282/105 132/289/105 131/287/105 128/283/105
f 128/283/106 131/287/106 130/285/106 129/284/106
f 56/149/107 2/4/107 126/280/107 132/290/107
f 132/290/108 126/280/108 125/278/108 131/288/108
f 131/288/109 125/278/109 124/276/109 130/286/109
f 54/142/110 57/150/110 127/282/110 118/264/110
f 118/264/111 127/282/111 128/283/111 119/266/111
f 119/266/112 128/283/112 129/284/112 120/268/112
f 2/5/113 108/237/113 123/274/113 126/281/113
f 126/281/114 123/274/114 122/272/114 125/279/114
f 125/279/115 122/272/115 121/270/115 124/277/115
f 108/236/116 54/143/116 118/265/116 123/275/116
f 123/275/117 118/265/117 119/267/117 122/273/117
f 122/273/118 119/267/118 120/269/118 121/271/118
f 54/144/119 142/309/119 141/307/119 53/139/119
f 142/309/120 143/311/120 140/305/120 141/307/120
f 143/311/121 144/313/121 139/303/121 140/305/121
f 4/12/122 133/291/122 142/310/122 54/145/122
f 133/291/123 134/293/123 143/312/123 142/310/123
f 134/293/124 135/295/124 144/314/124 143/312/124
f 53/140/125 141/308/125 138/301/125 52/134/125
f 141/308/126 140/306/126 137/299/126 138/301/126
f 140/306/127 139/304/127 136/297/127 137/299/127
f 52/135/128 138/302/128 133/292/128 4/13/128
f 138/302/129 137/300/129 134/294/129 133/292/129
f 137/300/130 136/298/130 135/296/130 134/294/130
f 105/230/131 1/3/131 88/202/131 59/153/131 108/237/131 2/5/131
f 86/199/132 85/195/132 83/192/132
f 83/192/133 85/195/133 18/45/133 23/58/133
f 63/158/134 15/37/134 23/59/134 18/46/134 12/31/134
f 84/194/135 18/47/135 85/196/135
l 52 106
