# Blender 3.3.1
# www.blender.org
mtllib monstruo_3_grande_caminar637.mtl
o monstruo_grande
v 0.403654 2.005196 0.262680
v 0.510249 1.178338 0.135286
v -0.698116 1.761623 0.189450
v -0.312431 1.097748 0.186864
v 0.582342 2.290367 -0.074066
v 0.558164 1.585424 -0.224267
v -0.820145 1.988155 -0.225260
v -0.721106 1.722442 -0.290869
v -0.307403 2.382402 0.484515
v 0.250245 2.280341 0.456311
v -0.439256 2.348331 0.582880
v -1.182529 2.016189 -0.063568
v -0.299408 2.557630 0.130320
v 0.254014 2.427264 0.197405
v -1.027967 1.884284 0.089971
v -0.463042 2.628258 0.154342
v -0.785962 2.261152 0.601306
v -1.467383 1.929168 0.210765
v -1.187255 1.971189 0.410129
v -0.975739 2.576527 0.341439
v -0.648012 2.663934 0.224521
v -0.512206 2.304704 0.558635
v -1.158225 1.898069 0.095448
v -1.755288 0.669227 0.894175
v -1.628620 0.649381 0.938124
v -1.615088 0.472403 0.737776
v -1.692403 0.484518 0.710951
v 0.401801 2.198570 0.444145
v 0.516816 2.394026 0.193953
v 0.363359 2.309826 0.455271
v 0.385520 2.447267 0.231906
v 0.655495 1.888687 0.271188
v 0.784218 1.981773 0.105162
v 0.672435 1.967829 0.320799
v 0.762971 2.083950 0.175321
v 0.845655 1.666404 0.241499
v 0.927156 1.700020 0.168124
v 0.923194 1.638331 0.307661
v 1.001584 1.680259 0.233771
v 0.867104 1.515948 0.278074
v 1.032872 1.601243 0.127519
v 0.963263 1.426162 0.424827
v 1.208128 1.552626 0.191746
v -0.143434 2.435059 0.508394
v 0.066873 2.407973 0.493964
v -0.139083 2.540674 0.263251
v 0.064079 2.511952 0.252040
v -0.087874 2.746071 0.658624
v 0.117599 2.680948 0.620526
v -0.097918 2.862667 0.406462
v 0.106632 2.797990 0.367895
v -0.506764 1.159340 -0.034991
v -0.380350 1.217550 -0.234786
v -0.040506 1.277706 -0.334743
v -0.753910 1.809356 -0.027394
v 0.555855 1.166435 -0.100503
v 0.348399 1.162739 -0.245283
v 0.009785 1.525617 -0.323782
v -0.033541 1.143950 0.182808
v 0.466440 2.089606 0.150299
v -0.298139 2.444340 0.360490
v -0.460798 2.599391 0.427270
v -0.964672 1.959246 -0.026715
v 0.230754 2.410558 0.358000
v -0.816135 2.488382 0.562113
v -1.362988 2.072302 0.453877
v -0.613225 2.583528 0.419735
v -1.702793 0.658270 0.946922
v -1.636729 0.362764 0.623075
v 0.493473 2.307980 0.351449
v 0.376231 2.423065 0.367331
v 0.681259 1.914810 0.146521
v 0.755760 2.037694 0.282193
v 0.885125 1.685973 0.204416
v 0.962307 1.658532 0.270430
v 0.931963 1.560007 0.185095
v 1.053301 1.493788 0.276638
v -0.142226 2.486943 0.384481
v 0.063538 2.461269 0.372291
v -0.124120 2.805757 0.534558
v 0.143623 2.738265 0.492601
v -1.506392 0.974266 0.877332
v -1.566058 0.799551 0.813344
v -1.725020 0.978824 0.803172
v -1.685283 0.818231 0.771978
v -1.626540 0.641607 0.719628
v -1.637207 0.957657 0.893091
v -0.055000 1.761639 0.512497
v 0.110697 2.142852 -0.193926
v 0.065028 2.518959 0.072204
v 0.004233 2.266116 0.624862
v -0.040762 2.525407 0.255791
v -0.033726 2.421239 0.500311
v 0.002619 2.847573 0.348980
v 0.016319 2.696022 0.677321
v 0.013532 2.822142 0.536840
v 0.098508 2.665085 0.285498
v 0.107574 2.533829 0.574091
v -0.128601 2.583246 0.606105
v -0.139703 2.714885 0.315440
v -0.150757 2.650067 0.462050
v 0.118289 2.599411 0.428642
v -0.022094 2.698685 0.280093
v -0.008846 2.548632 0.609733
v 0.454904 1.688040 -0.011554
v -0.589136 1.480147 0.209116
v 0.569370 1.801384 -0.220426
v 0.151497 1.178376 0.206469
v -0.253167 0.070020 -0.335186
v -0.402905 0.055719 -0.220158
v -0.417557 0.093012 -0.467688
v -0.281815 0.091691 -0.476845
v 0.271573 0.017131 0.226838
v 0.199913 0.002340 0.150475
v 0.281895 0.011258 0.188991
v 0.250991 0.005390 0.162474
v 0.212234 0.017368 0.235835
v 0.081976 0.850632 -0.060316
v 0.113709 0.614033 0.061329
v 0.143387 0.320565 0.137295
v 0.168949 0.324575 0.317281
v 0.153646 0.580402 0.351645
v 0.165124 0.858884 0.346178
v 0.292040 0.318898 0.298286
v 0.361564 0.576591 0.320639
v 0.457695 0.908235 0.290482
v 0.337105 0.866854 -0.014901
v 0.291381 0.609109 0.101214
v 0.249198 0.317119 0.162301
v 0.313472 0.316995 0.218530
v 0.400176 0.611002 0.192855
v 0.497080 0.897809 0.104570
v -0.214731 0.805739 0.210379
v -0.197264 0.538121 0.073414
v -0.203838 0.315620 -0.023416
v -0.488775 0.325151 -0.045217
v -0.484268 0.592164 0.021645
v -0.494163 0.844194 0.073747
v -0.509077 0.437478 -0.289415
v -0.501788 0.705944 -0.223937
v -0.490124 0.925116 -0.191672
v -0.096427 0.865223 -0.207276
v -0.158509 0.677967 -0.260769
v -0.214344 0.472028 -0.299135
vn -0.0681 0.5718 -0.8176
vn -0.0442 0.1058 -0.9934
vn 0.5587 -0.2378 -0.7945
vn -0.2633 -0.3026 0.9160
vn 0.9362 -0.0378 0.3494
vn 0.5953 0.7743 0.2146
vn 0.1101 0.9114 -0.3966
vn 0.5594 -0.2434 0.7923
vn -0.1073 0.9030 0.4161
vn -0.1753 0.5727 -0.8008
vn -0.1023 -0.5225 0.8465
vn -0.3770 -0.8665 -0.3272
vn -0.2018 -0.1400 0.9694
vn 0.3466 -0.8640 0.3651
vn 0.9519 -0.2539 0.1717
vn 0.0550 -0.7726 0.6325
vn 0.0977 0.9709 0.2189
vn 0.0350 -0.7397 0.6720
vn -0.6551 0.2709 0.7053
vn 0.9209 0.0206 -0.3893
vn -0.8824 0.0294 -0.4696
vn 0.5765 0.7415 0.3433
vn 0.4732 0.1711 0.8642
vn -0.2273 -0.5417 0.8093
vn -0.1229 0.6009 0.7898
vn -0.5537 -0.4945 0.6700
vn -0.2953 -0.5405 -0.7878
vn 0.8188 0.5591 -0.1302
vn -0.2473 -0.6187 0.7457
vn 0.4448 0.7764 -0.4464
vn 0.3909 0.2209 0.8935
vn 0.7839 0.3449 -0.5163
vn -0.2589 -0.3855 -0.8856
vn -0.0076 -0.8118 -0.5839
vn -0.5119 -0.1207 -0.8505
vn -0.7174 0.1652 0.6767
vn 0.6321 0.4307 0.6442
vn 0.9776 -0.0070 -0.2105
vn 0.3806 0.5307 0.7573
vn 0.1175 0.9930 0.0127
vn -0.3159 0.8673 0.3848
vn 0.3847 0.8896 0.2461
vn 0.0537 0.9656 0.2543
vn -0.9609 0.1021 0.2575
vn 0.3182 -0.3751 0.8707
vn -0.2762 0.5033 -0.8188
vn -0.6554 -0.5048 -0.5618
vn -0.9037 -0.3981 0.1573
vn 0.1499 0.1206 -0.9813
vn -0.9718 0.2342 -0.0280
vn 0.0651 0.8211 0.5671
vn 0.4425 0.7107 0.5469
vn -0.2747 0.8690 0.4116
vn 0.9868 -0.1476 0.0663
vn 0.4085 0.3106 0.8583
vn -0.7070 -0.2167 -0.6732
vn -0.1077 -0.8740 -0.4739
vn -0.6630 -0.6065 -0.4387
vn 0.7584 0.4588 0.4630
vn -0.4517 -0.7320 -0.5101
vn -0.1346 0.9835 0.1211
vn 0.7251 0.5787 0.3734
vn 0.5936 0.3202 0.7383
vn -0.4462 0.2348 -0.8636
vn 0.1122 0.1467 0.9828
vn -0.6359 -0.6346 0.4392
vn -0.2363 0.4297 0.8715
vn -0.7112 0.6201 0.3313
vn -0.3724 -0.8405 -0.3935
vn 0.2379 0.3767 0.8952
vn 0.5681 0.5606 0.6025
vn 0.2642 0.3168 0.9110
vn -0.4688 0.6054 -0.6433
vn -0.8514 0.3929 0.3475
vn 0.9563 -0.2741 0.1020
vn 0.5171 0.6852 0.5130
vn 0.2544 0.4343 -0.8641
vn -0.2109 -0.3137 0.9258
vn 0.5019 0.8510 0.1549
vn 0.3225 0.9458 0.0386
vn -0.1194 0.4906 0.8631
vn -0.4461 -0.1416 0.8837
vn 0.1646 0.7683 -0.6186
vn -0.1084 -0.5873 0.8021
vn 0.0422 0.1674 -0.9850
vn 0.9513 -0.2907 -0.1031
vn -0.9984 -0.0057 -0.0555
vn -0.1587 0.2201 -0.9625
vn 0.0738 -0.6098 0.7891
vn -0.9974 -0.0190 0.0696
vn 0.9552 -0.2385 -0.1751
vn 0.1221 -0.9565 -0.2648
vn 0.1624 -0.6716 0.7229
vn -0.9734 -0.1719 0.1513
vn -0.9627 -0.2702 -0.0138
vn 0.9882 -0.0839 -0.1285
vn -0.0731 0.4377 -0.8961
vn -0.0193 -0.9888 -0.1477
vn 0.0241 -0.9850 0.1707
vn 0.1399 -0.2362 0.9616
vn 0.2296 0.0006 -0.9733
vn 0.9556 -0.1261 0.2664
vn 0.6559 0.0043 -0.7548
vn 0.5172 -0.5621 -0.6454
vn 0.5929 -0.4144 -0.6904
vn 0.6308 -0.2476 -0.7354
vn 0.9773 -0.0678 0.2006
vn 0.9432 -0.2532 0.2152
vn 0.9368 -0.2639 0.2297
vn 0.0863 -0.5614 -0.8230
vn 0.1854 -0.4302 -0.8835
vn 0.2109 -0.2271 -0.9508
vn 0.1402 0.4355 0.8892
vn 0.1682 0.0279 0.9854
vn 0.1447 -0.1237 0.9817
vn -0.9607 -0.0216 0.2768
vn -0.9847 0.0042 0.1741
vn -0.9886 -0.0709 0.1332
vn -0.1525 -0.1985 -0.9682
vn -0.0439 0.2139 -0.9759
vn -0.0732 0.2225 -0.9722
vn 0.9009 0.1414 0.4103
vn 0.9736 -0.1626 0.1603
vn 0.9903 -0.1376 -0.0210
vn -0.9656 0.0938 -0.2427
vn -0.9997 -0.0009 0.0260
vn -0.9969 0.0026 0.0782
vn -0.5930 0.0671 0.8024
vn -0.3462 -0.3368 0.8756
vn -0.1551 -0.3101 0.9380
vn 0.5214 -0.1869 0.8326
vn 0.3558 0.3724 -0.8572
vn -0.2024 -0.4471 -0.8713
vn -0.2014 -0.8011 -0.5636
vn -0.8399 -0.1044 -0.5327
vt 0.882279 0.260085
vt 0.436089 0.649131
vt 0.117664 0.305524
vt 0.860974 0.338762
vt 0.079561 0.383885
vt 0.278417 0.728674
vt 0.111517 0.716819
vt 0.301243 0.337859
vt 0.232943 0.387386
vt 0.111517 0.662267
vt 0.671871 0.687525
vt 0.175114 0.511099
vt 0.930991 0.712692
vt 0.796001 0.259488
vt 0.522181 0.649131
vt 0.719621 0.316178
vt 0.801110 0.310020
vt 0.698705 0.366293
vt 0.510656 0.337024
vt 0.023033 0.717149
vt 0.367094 0.730187
vt 0.507246 0.358198
vt 0.018976 0.695717
vt 0.103380 0.570561
vt 0.268725 0.266033
vt 0.143950 0.273348
vt 0.098384 0.631539
vt 0.301351 0.259488
vt 0.128079 0.559933
vt 0.480438 0.333338
vt 0.348619 0.714075
vt 0.604958 0.268707
vt 0.031105 0.562973
vt 0.043818 0.625810
vt 0.721993 0.282954
vt 0.329365 0.336360
vt 0.302724 0.713315
vt 0.030374 0.549675
vt 0.582817 0.260846
vt 0.875347 0.642471
vt 0.380514 0.272320
vt 0.124895 0.517524
vt 0.813390 0.578569
vt 0.436089 0.332372
vt 0.956124 0.588845
vt 0.367094 0.692599
vt 0.367094 0.522797
vt 0.871643 0.594841
vt 0.398138 0.324445
vt 0.043891 0.509019
vt 0.796001 0.641153
vt 0.491075 0.268473
vt 0.032114 0.534706
vt 0.552485 0.259488
vt 0.331566 0.259909
vt 0.129819 0.544964
vt 0.339759 0.337186
vt 0.913298 0.588845
vt 0.317584 0.707220
vt 0.845734 0.463378
vt 0.311567 0.646434
vt 0.944558 0.353645
vt 0.398138 0.462439
vt 0.920230 0.354337
vt 0.870057 0.463781
vt 0.929709 0.374247
vt 0.357807 0.478584
vt 0.347994 0.663056
vt 0.944558 0.373825
vt 0.097076 0.285727
vt 0.229765 0.651022
vt 0.758050 0.297859
vt 0.168317 0.651042
vt 0.119329 0.272208
vt 0.094178 0.643292
vt 0.222768 0.636959
vt 0.746872 0.283208
vt 0.174541 0.636975
vt 0.045175 0.638147
vt 0.080672 0.327471
vt 0.442544 0.673801
vt 0.734592 0.339187
vt 0.484453 0.673801
vt 0.070725 0.319456
vt 0.218298 0.685110
vt 0.751374 0.331694
vt 0.180611 0.684911
vt 0.062412 0.356092
vt 0.455575 0.702696
vt 0.724658 0.367821
vt 0.476314 0.702696
vt 0.043357 0.357400
vt 0.210236 0.723455
vt 0.742364 0.370210
vt 0.189444 0.723462
vt 0.050281 0.367705
vt 0.444942 0.715336
vt 0.810526 0.722486
vt 0.728448 0.380153
vt 0.853695 0.722486
vt 0.487920 0.715336
vt 0.018975 0.371756
vt 0.232852 0.738567
vt 0.796001 0.739289
vt 0.758050 0.386241
vt 0.861207 0.739289
vt 0.167770 0.738589
vt 0.100634 0.583041
vt 0.712300 0.698974
vt 0.802197 0.701507
vt 0.098640 0.600731
vt 0.972705 0.287497
vt 0.747907 0.696578
vt 0.052045 0.577939
vt 0.849895 0.701507
vt 0.710445 0.675017
vt 0.050052 0.595630
vt 0.746553 0.677603
vt 0.924885 0.287497
vt 0.797725 0.671259
vt 0.981025 0.313792
vt 0.715147 0.730011
vt 0.752543 0.724602
vt 0.973919 0.259495
vt 0.967002 0.332143
vt 0.934252 0.306472
vt 0.715328 0.644023
vt 0.847669 0.671259
vt 0.923848 0.259495
vt 0.753088 0.649631
vt 0.920230 0.324823
vt 0.068284 0.665533
vt 0.630362 0.705721
vt 0.712055 0.621316
vt 0.966165 0.712391
vt 0.519769 0.388732
vt 0.031375 0.663704
vt 0.592215 0.695479
vt 0.581836 0.620019
vt 0.750017 0.621843
vt 0.569690 0.667298
vt 0.581066 0.387596
vt 0.531739 0.516092
vt 0.642835 0.625048
vt 0.273616 0.509019
vt 0.070982 0.710642
vt 0.316851 0.732164
vt 0.684917 0.393810
vt 0.816625 0.338063
vt 0.644803 0.392946
vt 0.602800 0.367236
vt 0.671871 0.661666
vt 0.181146 0.386242
vt 0.855113 0.259897
vt 0.463196 0.649131
vt 0.077903 0.567886
vt 0.078993 0.554271
vt 0.322237 0.720993
vt 0.070972 0.628379
vt 0.834014 0.651825
vt 0.084160 0.512738
vt 0.838315 0.596273
vt 0.320679 0.509019
vt 0.080733 0.539302
vt 0.857365 0.464048
vt 0.931678 0.351118
vt 0.335174 0.488977
vt 0.367094 0.673623
vt 0.939667 0.384854
vt 0.199177 0.651021
vt 0.069465 0.641494
vt 0.198664 0.632807
vt 0.464209 0.672968
vt 0.199604 0.684998
vt 0.465945 0.702696
vt 0.199840 0.723459
vt 0.466714 0.715004
vt 0.832520 0.720483
vt 0.200177 0.738589
vt 0.829423 0.735282
vt 0.076340 0.580490
vt 0.826046 0.701507
vt 0.074346 0.598181
vt 0.948795 0.287497
vt 0.823088 0.670800
vt 0.959731 0.307426
vt 0.948976 0.259488
vt 0.941524 0.331189
vt 0.875347 0.491894
vt 0.391834 0.432095
vt 0.377694 0.448634
vt 0.915590 0.478791
vt 0.834644 0.488373
vt 0.326937 0.619279
vt 0.938593 0.478810
vt 0.335216 0.632947
vt 0.358601 0.463790
vt 0.348787 0.648138
vt 0.927106 0.463378
vt 0.854274 0.489560
vt 0.315804 0.619182
vt 0.212520 0.321385
vt 0.644070 0.318501
vt 0.018976 0.592450
vt 0.663817 0.276029
vt 0.129819 0.597828
vt 0.224108 0.269832
vt 0.051049 0.586785
vt 0.728499 0.676310
vt 0.099637 0.591886
vt 0.730103 0.697776
vt 0.734390 0.646904
vt 0.920230 0.314550
vt 0.981025 0.324065
vt 0.732426 0.727384
vt 0.950683 0.319044
vt 0.753088 0.663662
vt 0.920230 0.273492
vt 0.977552 0.273492
vt 0.752543 0.710647
vt 0.709822 0.714522
vt 0.796001 0.686127
vt 0.853178 0.686127
vt 0.709822 0.659561
vt 0.824792 0.685890
vt 0.948939 0.273488
vt 0.731549 0.661651
vt 0.730449 0.712624
vt 0.878850 0.297575
vt 0.096711 0.342677
vt 0.285581 0.357771
vt 0.108549 0.696221
vt 0.804979 0.293594
vt 0.708839 0.350023
vt 0.668288 0.644023
vt 0.436089 0.526409
vt 0.145034 0.385321
vt 0.919159 0.607821
vt 0.247387 0.613831
vt 0.970304 0.416607
vt 0.947808 0.608020
vt 0.704660 0.516092
vt 0.970304 0.403829
vt 0.750017 0.516884
vt 0.618892 0.516092
vt 0.920230 0.404231
vt 0.273616 0.612878
vt 0.642836 0.516847
vt 0.938584 0.415207
vt 0.924281 0.443436
vt 0.075400 0.489812
vt 0.855524 0.444402
vt 0.531739 0.629156
vt 0.934913 0.435583
vt 0.576828 0.496673
vt 0.931440 0.443424
vt 0.848383 0.444289
vt 0.592622 0.497116
vt 0.934913 0.440184
vt 0.586164 0.496977
vt 0.517161 0.630156
vt 0.920230 0.438606
vt 0.085942 0.490043
vt 0.585376 0.420489
vt 0.510472 0.551446
vt 0.582586 0.444044
vt 0.504260 0.576063
vt 0.581388 0.469636
vt 0.508131 0.602400
vt 0.103684 0.463024
vt 0.477645 0.604263
vt 0.118194 0.440373
vt 0.454885 0.581958
vt 0.129418 0.415411
vt 0.438452 0.557360
vt 0.876897 0.417052
vt 0.081901 0.462161
vt 0.882279 0.393921
vt 0.081653 0.438865
vt 0.880271 0.363315
vt 0.079604 0.408162
vt 0.633117 0.418943
vt 0.615530 0.444447
vt 0.600997 0.469910
vt 0.614559 0.469949
vt 0.862035 0.416811
vt 0.638313 0.444473
vt 0.857648 0.390640
vt 0.666106 0.417503
vt 0.844696 0.362700
vt 0.167770 0.536691
vt 0.914144 0.688660
vt 0.182151 0.561697
vt 0.913298 0.663084
vt 0.189855 0.582503
vt 0.915415 0.641729
vt 0.680787 0.549268
vt 0.966165 0.641681
vt 0.684678 0.573659
vt 0.963812 0.665813
vt 0.684995 0.596421
vt 0.964308 0.688427
vt 0.584794 0.548886
vt 0.729850 0.550060
vt 0.578610 0.572959
vt 0.734888 0.574452
vt 0.569690 0.595426
vt 0.736445 0.597214
vt 0.642060 0.590920
vt 0.247172 0.543053
vt 0.641052 0.570535
vt 0.248998 0.562413
vt 0.635978 0.552556
vt 0.245738 0.579271
s 0
usemtl Material
f 89/203/1 7/19/1 13/32/1 90/205/1
f 8/22/2 7/19/2 89/203/2 58/151/2 54/142/2 53/136/2
f 6/18/3 56/148/3 57/150/3
f 3/8/4 106/231/4 4/9/4 59/153/4 88/202/4
f 6/17/5 107/233/5 5/14/5 60/154/5 1/1/5 105/229/5 2/4/5 56/149/5
f 61/156/6 13/33/6 16/38/6 62/157/6
f 5/16/7 14/35/7 31/77/7 29/72/7
f 88/202/8 1/3/8 10/26/8 91/207/8
f 67/164/9 21/53/9 20/50/9 65/161/9
f 13/32/10 7/19/10 12/30/10 16/39/10
f 3/8/11 9/25/11 11/28/11 15/36/11
f 55/147/12 3/6/12 15/37/12 63/158/12
f 66/162/13 19/48/13 17/40/13 65/160/13
f 23/57/14 22/55/14 17/41/14 19/49/14
f 83/191/15 82/190/15 25/63/15 26/67/15
f 15/36/16 11/28/16 22/55/16 23/57/16
f 62/157/17 16/38/17 21/53/17 67/164/17
f 69/169/18 26/66/18 25/64/18 68/166/18
f 87/200/19 84/193/19 24/60/19 68/165/19
f 86/197/20 83/191/20 26/67/20 69/167/20
f 84/194/21 85/196/21 27/68/21 24/61/21
f 70/170/22 29/73/22 31/78/22 71/172/22
f 70/170/23 28/71/23 34/85/23 73/174/23
f 10/26/24 1/3/24 28/70/24 30/74/24
f 64/159/25 10/27/25 30/75/25 71/171/25
f 34/84/26 32/80/26 36/88/26 38/92/26
f 60/155/27 5/15/27 33/83/27 72/173/27
f 5/16/28 29/72/28 35/86/28 33/82/28
f 28/70/29 1/3/29 32/80/29 34/84/29
f 37/90/30 39/94/30 43/105/30 41/99/30
f 73/174/31 34/85/31 38/93/31 75/176/31
f 33/82/32 35/86/32 39/94/32 37/90/32
f 72/173/33 33/83/33 37/91/33 74/175/33
f 76/178/34 41/100/34 43/106/34 77/180/34
f 74/175/35 37/91/35 41/101/35 76/177/35
f 38/92/36 36/88/36 40/96/36 42/102/36
f 75/176/37 38/93/37 42/103/37 77/179/37
f 102/226/38 97/218/38 51/129/38 81/187/38
f 91/206/39 10/27/39 45/111/39 93/210/39
f 90/204/40 13/33/40 46/114/40 92/208/40
f 61/156/41 9/24/41 44/108/41 78/181/41
f 64/159/42 14/34/42 47/117/42 79/183/42
f 96/216/43 94/213/43 50/126/43 80/186/43
f 101/225/44 99/222/44 48/120/44 80/185/44
f 104/228/45 98/220/45 49/123/45 95/215/45
f 103/227/46 100/224/46 50/127/46 94/212/46
f 8/23/47 53/137/47 52/132/47
f 8/23/48 52/132/48 4/10/48 106/232/48 3/7/48 55/146/48 7/20/48
f 54/142/49 58/151/49 89/203/49 5/16/49 107/234/49 6/18/49 57/150/49
f 100/223/50 101/225/50 80/185/50 50/128/50
f 95/214/51 96/216/51 80/186/51 48/121/51
f 10/27/52 64/159/52 79/183/52 45/111/52
f 13/33/53 61/156/53 78/181/53 46/114/53
f 98/219/54 102/226/54 81/187/54 49/124/54
f 39/95/55 75/176/55 77/179/55 43/107/55
f 36/89/56 74/175/56 76/177/56 40/97/56
f 40/98/57 76/178/57 77/180/57 42/104/57
f 32/81/58 72/173/58 74/175/58 36/89/58
f 35/87/59 73/174/59 75/176/59 39/95/59
f 1/2/60 60/155/60 72/173/60 32/81/60
f 14/34/61 64/159/61 71/171/61 31/79/61
f 29/73/62 70/170/62 73/174/62 35/87/62
f 28/71/63 70/170/63 71/172/63 30/76/63
f 85/196/64 86/198/64 69/168/64 27/68/64
f 82/189/65 87/200/65 68/165/65 25/65/65
f 27/69/66 69/169/66 68/166/66 24/62/66
f 11/29/67 62/157/67 67/164/67 22/56/67
f 18/43/68 66/162/68 65/160/68 20/51/68
f 7/21/69 55/147/69 63/158/69 12/31/69
f 22/56/70 67/164/70 65/161/70 17/42/70
f 9/24/71 61/156/71 62/157/71 11/29/71
f 19/48/72 66/162/72 87/200/72 82/189/72
f 12/30/73 18/44/73 20/52/73 21/54/73 16/39/73
f 66/163/74 18/47/74 84/194/74 87/201/74
f 23/57/75 19/49/75 82/190/75 83/191/75
f 49/125/76 81/188/76 96/216/76 95/214/76
f 97/217/77 103/227/77 94/212/77 51/130/77
f 99/221/78 104/228/78 95/215/78 48/122/78
f 81/188/79 51/131/79 94/213/79 96/216/79
f 14/34/80 90/204/80 92/208/80 47/117/80
f 9/24/81 91/206/81 93/210/81 44/108/81
f 3/8/82 88/202/82 91/207/82 9/25/82
f 5/16/83 89/203/83 90/205/83 14/35/83
f 44/109/84 93/211/84 104/228/84 99/221/84
f 47/118/85 92/209/85 103/227/85 97/217/85
f 45/112/86 79/184/86 102/226/86 98/219/86
f 46/115/87 78/182/87 101/225/87 100/223/87
f 92/209/88 46/116/88 100/224/88 103/227/88
f 93/211/89 45/113/89 98/220/89 104/228/89
f 78/182/90 44/110/90 99/222/90 101/225/90
f 79/184/91 47/119/91 97/218/91 102/226/91
f 59/152/92 4/11/92 52/133/92 53/138/92 54/141/92 108/235/92
f 136/298/93 110/241/93 109/238/93 135/296/93
f 121/271/94 120/269/94 114/253/94 117/261/94
f 139/304/95 111/244/95 110/242/95 136/297/95
f 135/295/96 109/239/96 112/247/96 144/314/96
f 144/313/97 112/248/97 111/245/97 139/303/97
f 111/246/98 112/249/98 109/240/98 110/243/98
f 117/262/99 114/254/99 116/259/99 115/256/99 113/250/99
f 124/277/100 121/270/100 117/263/100 113/251/100
f 120/268/101 129/284/101 116/260/101 114/255/101
f 130/286/102 124/276/102 113/252/102 115/257/102
f 129/284/103 130/285/103 115/258/103 116/260/103
f 57/150/104 56/148/104 132/289/104 127/282/104
f 127/282/105 132/289/105 131/287/105 128/283/105
f 128/283/106 131/287/106 130/285/106 129/284/106
f 56/149/107 2/4/107 126/280/107 132/290/107
f 132/290/108 126/280/108 125/278/108 131/288/108
f 131/288/109 125/278/109 124/276/109 130/286/109
f 54/142/110 57/150/110 127/282/110 118/264/110
f 118/264/111 127/282/111 128/283/111 119/266/111
f 119/266/112 128/283/112 129/284/112 120/268/112
f 2/5/113 108/237/113 123/274/113 126/281/113
f 126/281/114 123/274/114 122/272/114 125/279/114
f 125/279/115 122/272/115 121/270/115 124/277/115
f 108/236/116 54/143/116 118/265/116 123/275/116
f 123/275/117 118/265/117 119/267/117 122/273/117
f 122/273/118 119/267/118 120/269/118 121/271/118
f 54/144/119 142/309/119 141/307/119 53/139/119
f 142/309/120 143/311/120 140/305/120 141/307/120
f 143/311/121 144/313/121 139/303/121 140/305/121
f 4/12/122 133/291/122 142/310/122 54/145/122
f 133/291/123 134/293/123 143/312/123 142/310/123
f 134/293/124 135/295/124 144/314/124 143/312/124
f 53/140/125 141/308/125 138/301/125 52/134/125
f 141/308/126 140/306/126 137/299/126 138/301/126
f 140/306/127 139/304/127 136/297/127 137/299/127
f 52/135/128 138/302/128 133/292/128 4/13/128
f 138/302/129 137/300/129 134/294/129 133/292/129
f 137/300/130 136/298/130 135/296/130 134/294/130
f 105/230/131 1/3/131 88/202/131 59/153/131 108/237/131 2/5/131
f 86/199/132 85/195/132 83/192/132
f 83/192/133 85/195/133 18/45/133 23/58/133
f 63/158/134 15/37/134 23/59/134 18/46/134 12/31/134
f 84/194/135 18/47/135 85/196/135
l 52 106
