# Blender 3.3.1
# www.blender.org
mtllib monstruo_3_grande_caminar541.mtl
o monstruo_grande
v 0.588520 1.916294 0.402186
v 0.525712 1.103717 0.086361
v -0.565743 1.877696 0.156439
v -0.287672 1.211748 0.226860
v 0.894980 2.147734 0.117980
v 0.641107 1.516216 -0.236309
v -0.621633 2.099146 -0.281110
v -0.610036 1.782163 -0.328370
v -0.120679 2.413099 0.467764
v 0.404464 2.231745 0.513090
v -0.267657 2.401525 0.553840
v -0.945621 2.197970 -0.206102
v -0.053373 2.580663 0.119631
v 0.474761 2.350494 0.243875
v -0.835544 2.046724 -0.030059
v -0.202029 2.679038 0.130030
v -0.639436 2.363805 0.509431
v -1.275741 2.135314 -0.012356
v -1.038247 2.146737 0.234433
v -0.736317 2.708908 0.237241
v -0.383231 2.745606 0.180512
v -0.351389 2.366691 0.517531
v -0.960659 2.077500 -0.062652
v -1.754782 0.864981 0.524980
v -1.640365 0.835131 0.591221
v -1.592714 0.674485 0.382498
v -1.662551 0.692705 0.342066
v 0.519475 2.136040 0.532572
v 0.729842 2.294633 0.325674
v 0.510396 2.246785 0.528056
v 0.599379 2.356464 0.309257
v 0.793753 1.840806 0.548425
v 0.998310 1.862856 0.460570
v 0.802283 1.909988 0.573956
v 0.952979 1.995414 0.469327
v 0.919566 1.678373 0.776235
v 1.027788 1.669144 0.731906
v 0.963298 1.726398 0.860362
v 1.067027 1.717750 0.811789
v 0.911446 1.612568 0.918268
v 1.127977 1.595573 0.819740
v 0.935883 1.683203 1.100636
v 1.261539 1.653204 0.947905
v 0.047370 2.435287 0.507965
v 0.251616 2.384850 0.506300
v 0.080442 2.536044 0.262629
v 0.279573 2.477720 0.262457
v 0.105027 2.743536 0.649525
v 0.309864 2.670107 0.625829
v 0.113954 2.850409 0.393138
v 0.319568 2.776399 0.369215
v -0.498950 1.218764 0.031833
v -0.396559 1.202276 -0.187159
v -0.040444 1.278352 -0.332753
v -0.605162 1.925088 -0.071077
v 0.540465 1.132542 -0.153407
v 0.322127 1.151138 -0.272333
v 0.065316 1.517405 -0.320396
v -0.027075 1.137074 0.198593
v 0.699440 1.978870 0.316082
v -0.090096 2.471225 0.345578
v -0.230317 2.651907 0.398109
v -0.760908 2.109026 -0.118488
v 0.424760 2.353149 0.402925
v -0.626785 2.592309 0.477366
v -1.205006 2.264508 0.252132
v -0.383341 2.660899 0.375460
v -1.714436 0.847096 0.585893
v -1.594483 0.575750 0.256426
v 0.640748 2.234496 0.471367
v 0.561304 2.347928 0.440533
v 0.879237 1.811151 0.470561
v 0.896652 1.970392 0.569571
v 0.971925 1.673528 0.752154
v 1.015316 1.721607 0.835965
v 1.010545 1.588813 0.851875
v 1.081311 1.640554 0.992599
v 0.062500 2.485800 0.384193
v 0.263083 2.432456 0.383123
v 0.077991 2.799448 0.521419
v 0.345785 2.720953 0.497685
v -1.497294 1.157125 0.585253
v -1.548762 0.991475 0.495304
v -1.696158 1.179429 0.470350
v -1.656455 1.019572 0.432955
v -1.594446 0.844967 0.377680
v -1.629086 1.146071 0.573197
v 0.036656 1.751939 0.511519
v 0.321558 2.084743 -0.183277
v 0.295094 2.479831 0.084553
v 0.137746 2.267269 0.633378
v 0.174015 2.507569 0.260791
v 0.155312 2.410861 0.506155
v 0.218402 2.829407 0.342478
v 0.206144 2.690801 0.676075
v 0.215792 2.811288 0.531027
v 0.313895 2.638276 0.291916
v 0.298552 2.519633 0.584616
v 0.062461 2.580543 0.601139
v 0.076835 2.702513 0.306786
v 0.051907 2.642911 0.453923
v 0.320792 2.578545 0.437867
v 0.195205 2.678834 0.278748
v 0.179912 2.541634 0.612801
v 0.633597 1.576605 0.062121
v -0.529085 1.585236 0.193077
v 0.734681 1.705908 -0.182470
v 0.167719 1.097436 0.204579
v -0.294165 0.132842 -0.160149
v -0.422516 0.110123 -0.022594
v -0.477667 0.178313 -0.258223
v -0.345889 0.173268 -0.291699
v 0.308107 -0.046061 0.005159
v 0.235065 -0.059491 -0.070474
v 0.317685 -0.050588 -0.033003
v 0.286313 -0.056174 -0.059071
v 0.248985 -0.047199 0.015193
v 0.071720 0.819934 -0.110090
v 0.142378 0.575433 -0.058026
v 0.175908 0.272841 -0.051088
v 0.200475 0.237962 0.125781
v 0.182876 0.480089 0.214812
v 0.192091 0.753172 0.270082
v 0.323712 0.237391 0.106890
v 0.391506 0.484670 0.184962
v 0.480339 0.812539 0.204817
v 0.327429 0.828358 -0.090250
v 0.320213 0.563098 -0.021456
v 0.281637 0.264923 -0.026535
v 0.345599 0.253018 0.028783
v 0.429322 0.545897 0.067437
v 0.499517 0.836255 0.015181
v -0.183063 0.944269 0.352098
v -0.194685 0.630887 0.261903
v -0.215823 0.393182 0.175918
v -0.499991 0.413267 0.169270
v -0.482395 0.690945 0.221200
v -0.476817 0.954102 0.245511
v -0.529637 0.514595 -0.081581
v -0.509618 0.780502 -0.024981
v -0.504950 0.947014 -0.024495
v -0.116443 0.869621 -0.066682
v -0.170327 0.733732 -0.075899
v -0.234711 0.535288 -0.108160
vn 0.0904 0.5680 -0.8180
vn 0.0034 0.0536 -0.9986
vn 0.4369 -0.2980 -0.8487
vn -0.3562 -0.2047 0.9117
vn 0.9008 -0.3709 0.2259
vn 0.6983 0.6610 0.2746
vn 0.3217 0.8457 -0.4257
vn 0.2962 -0.2301 0.9270
vn -0.0452 0.9023 0.4288
vn 0.0741 0.5406 -0.8380
vn -0.3606 -0.4248 0.8304
vn -0.4859 -0.8075 -0.3345
vn -0.3904 -0.1360 0.9106
vn 0.1356 -0.9144 0.3815
vn 0.8883 -0.3158 0.3336
vn -0.1876 -0.7667 0.6139
vn 0.2331 0.9419 0.2418
vn -0.1269 -0.7925 0.5966
vn -0.7735 0.2457 0.5842
vn 0.9807 0.0044 -0.1954
vn -0.7679 0.1131 -0.6305
vn 0.5226 0.7400 0.4234
vn 0.0493 0.3233 0.9450
vn -0.4726 -0.4090 0.7806
vn -0.1808 0.6849 0.7059
vn -0.8841 -0.0412 0.4654
vn 0.0519 -0.7235 -0.6884
vn 0.8306 0.5478 0.1004
vn -0.5575 -0.4816 0.6762
vn 0.6610 0.2846 -0.6943
vn -0.1521 0.7397 0.6555
vn 0.9832 0.1058 -0.1487
vn 0.1345 -0.8366 -0.5310
vn 0.1351 -0.9494 0.2835
vn -0.1597 -0.8095 -0.5650
vn -0.9017 0.4306 0.0389
vn 0.3777 0.8935 0.2430
vn 0.9897 -0.0413 -0.1368
vn 0.3468 0.5128 0.7853
vn 0.2836 0.9581 0.0394
vn -0.1943 0.9101 0.3659
vn 0.4852 0.8399 0.2433
vn 0.0742 0.9724 0.2211
vn -0.9714 0.1390 0.1923
vn 0.2521 -0.3466 0.9035
vn -0.2077 0.4726 -0.8564
vn -0.8420 -0.3985 -0.3637
vn -0.9618 -0.1667 0.2171
vn 0.2207 0.1882 -0.9570
vn -0.9607 0.2550 -0.1100
vn 0.0623 0.8402 0.5386
vn 0.4608 0.6878 0.5609
vn -0.1538 0.9068 0.3925
vn 0.9758 -0.1689 0.1390
vn 0.0798 0.9190 0.3861
vn -0.4146 -0.7951 -0.4427
vn -0.0011 -0.9351 0.3545
vn -0.4393 -0.8437 -0.3085
vn 0.4218 0.7594 0.4954
vn -0.2148 -0.8754 -0.4330
vn -0.0097 0.9998 0.0173
vn 0.5154 0.6685 0.5362
vn 0.4043 0.2961 0.8654
vn -0.2541 0.3266 -0.9104
vn -0.0837 0.0607 0.9946
vn -0.7330 -0.6344 0.2457
vn -0.2614 0.4651 0.8458
vn -0.6674 0.7113 0.2207
vn -0.4875 -0.7911 -0.3695
vn 0.1232 0.3177 0.9401
vn 0.5915 0.4639 0.6595
vn 0.1108 0.2593 0.9594
vn -0.2586 0.6747 -0.6913
vn -0.8732 0.4382 0.2133
vn 0.9024 -0.3386 0.2664
vn 0.5111 0.6872 0.5162
vn 0.3223 0.3893 -0.8629
vn -0.2744 -0.2697 0.9230
vn 0.5238 0.8376 0.1554
vn 0.4646 0.8841 0.0510
vn -0.1101 0.5558 0.8240
vn -0.5325 -0.0709 0.8434
vn 0.4181 0.6965 -0.5832
vn -0.1919 -0.5572 0.8079
vn 0.1041 0.1236 -0.9869
vn 0.9396 -0.3418 -0.0175
vn -0.9881 0.0106 -0.1533
vn -0.0925 0.1848 -0.9784
vn -0.0195 -0.5679 0.8229
vn -0.9998 0.0196 -0.0087
vn 0.9606 -0.2687 -0.0713
vn -0.0749 -0.9879 -0.1360
vn 0.2296 -0.6656 0.7101
vn -0.9725 -0.1960 0.1257
vn -0.9662 -0.2437 0.0835
vn 0.9697 -0.1154 -0.2154
vn -0.1401 0.4632 -0.8751
vn -0.1021 -0.9616 -0.2547
vn 0.0422 -0.9895 0.1380
vn 0.1484 -0.3384 0.9292
vn 0.2249 0.0990 -0.9693
vn 0.9591 -0.1397 0.2462
vn 0.6501 0.0897 -0.7545
vn 0.4320 -0.4632 -0.7738
vn 0.5448 -0.2503 -0.8003
vn 0.6311 -0.0734 -0.7722
vn 0.9914 -0.1142 0.0644
vn 0.9638 -0.2421 0.1119
vn 0.9389 -0.2998 0.1687
vn 0.0277 -0.4566 -0.8893
vn 0.1241 -0.2143 -0.9689
vn 0.2104 -0.0048 -0.9776
vn 0.2387 0.2627 0.9349
vn 0.2049 -0.1543 0.9666
vn 0.1410 -0.3328 0.9324
vn -0.9442 -0.0434 0.3264
vn -0.9707 -0.1165 0.2102
vn -0.9877 -0.1095 0.1112
vn -0.2144 -0.4871 -0.8466
vn -0.1175 0.0546 -0.9916
vn -0.1103 0.2061 -0.9723
vn 0.9312 0.2113 0.2970
vn 0.9795 -0.1675 0.1115
vn 0.9825 -0.1762 -0.0608
vn -0.9869 0.0534 -0.1524
vn -0.9939 0.0174 0.1094
vn -0.9906 0.0426 0.1297
vn -0.4611 0.3960 0.7941
vn -0.2618 -0.1805 0.9481
vn -0.1145 -0.2488 0.9618
vn 0.3719 -0.3706 0.8510
vn 0.5342 0.4217 -0.7327
vn -0.0540 -0.3943 -0.9174
vn -0.1518 -0.7548 -0.6382
vn -0.7316 -0.0223 -0.6814
vt 0.882279 0.260085
vt 0.436089 0.649131
vt 0.117664 0.305524
vt 0.860974 0.338762
vt 0.079561 0.383885
vt 0.278417 0.728674
vt 0.111517 0.716819
vt 0.301243 0.337859
vt 0.232943 0.387386
vt 0.111517 0.662267
vt 0.671871 0.687525
vt 0.175114 0.511099
vt 0.930991 0.712692
vt 0.796001 0.259488
vt 0.522181 0.649131
vt 0.719621 0.316178
vt 0.801110 0.310020
vt 0.698705 0.366293
vt 0.510656 0.337024
vt 0.023033 0.717149
vt 0.367094 0.730187
vt 0.507246 0.358198
vt 0.018976 0.695717
vt 0.103380 0.570561
vt 0.268725 0.266033
vt 0.143950 0.273348
vt 0.098384 0.631539
vt 0.301351 0.259488
vt 0.128079 0.559933
vt 0.480438 0.333338
vt 0.348619 0.714075
vt 0.604958 0.268707
vt 0.031105 0.562973
vt 0.043818 0.625810
vt 0.721993 0.282954
vt 0.329365 0.336360
vt 0.302724 0.713315
vt 0.030374 0.549675
vt 0.582817 0.260846
vt 0.875347 0.642471
vt 0.380514 0.272320
vt 0.124895 0.517524
vt 0.813390 0.578569
vt 0.436089 0.332372
vt 0.956124 0.588845
vt 0.367094 0.692599
vt 0.367094 0.522797
vt 0.871643 0.594841
vt 0.398138 0.324445
vt 0.043891 0.509019
vt 0.796001 0.641153
vt 0.491075 0.268473
vt 0.032114 0.534706
vt 0.552485 0.259488
vt 0.331566 0.259909
vt 0.129819 0.544964
vt 0.339759 0.337186
vt 0.913298 0.588845
vt 0.317584 0.707220
vt 0.845734 0.463378
vt 0.311567 0.646434
vt 0.944558 0.353645
vt 0.398138 0.462439
vt 0.920230 0.354337
vt 0.870057 0.463781
vt 0.929709 0.374247
vt 0.357807 0.478584
vt 0.347994 0.663056
vt 0.944558 0.373825
vt 0.097076 0.285727
vt 0.229765 0.651022
vt 0.758050 0.297859
vt 0.168317 0.651042
vt 0.119329 0.272208
vt 0.094178 0.643292
vt 0.222768 0.636959
vt 0.746872 0.283208
vt 0.174541 0.636975
vt 0.045175 0.638147
vt 0.080672 0.327471
vt 0.442544 0.673801
vt 0.734592 0.339187
vt 0.484453 0.673801
vt 0.070725 0.319456
vt 0.218298 0.685110
vt 0.751374 0.331694
vt 0.180611 0.684911
vt 0.062412 0.356092
vt 0.455575 0.702696
vt 0.724658 0.367821
vt 0.476314 0.702696
vt 0.043357 0.357400
vt 0.210236 0.723455
vt 0.742364 0.370210
vt 0.189444 0.723462
vt 0.050281 0.367705
vt 0.444942 0.715336
vt 0.810526 0.722486
vt 0.728448 0.380153
vt 0.853695 0.722486
vt 0.487920 0.715336
vt 0.018975 0.371756
vt 0.232852 0.738567
vt 0.796001 0.739289
vt 0.758050 0.386241
vt 0.861207 0.739289
vt 0.167770 0.738589
vt 0.100634 0.583041
vt 0.712300 0.698974
vt 0.802197 0.701507
vt 0.098640 0.600731
vt 0.972705 0.287497
vt 0.747907 0.696578
vt 0.052045 0.577939
vt 0.849895 0.701507
vt 0.710445 0.675017
vt 0.050052 0.595630
vt 0.746553 0.677603
vt 0.924885 0.287497
vt 0.797725 0.671259
vt 0.981025 0.313792
vt 0.715147 0.730011
vt 0.752543 0.724602
vt 0.973919 0.259495
vt 0.967002 0.332143
vt 0.934252 0.306472
vt 0.715328 0.644023
vt 0.847669 0.671259
vt 0.923848 0.259495
vt 0.753088 0.649631
vt 0.920230 0.324823
vt 0.068284 0.665533
vt 0.630362 0.705721
vt 0.712055 0.621316
vt 0.966165 0.712391
vt 0.519769 0.388732
vt 0.031375 0.663704
vt 0.592215 0.695479
vt 0.581836 0.620019
vt 0.750017 0.621843
vt 0.569690 0.667298
vt 0.581066 0.387596
vt 0.531739 0.516092
vt 0.642835 0.625048
vt 0.273616 0.509019
vt 0.070982 0.710642
vt 0.316851 0.732164
vt 0.684917 0.393810
vt 0.816625 0.338063
vt 0.644803 0.392946
vt 0.602800 0.367236
vt 0.671871 0.661666
vt 0.181146 0.386242
vt 0.855113 0.259897
vt 0.463196 0.649131
vt 0.077903 0.567886
vt 0.078993 0.554271
vt 0.322237 0.720993
vt 0.070972 0.628379
vt 0.834014 0.651825
vt 0.084160 0.512738
vt 0.838315 0.596273
vt 0.320679 0.509019
vt 0.080733 0.539302
vt 0.857365 0.464048
vt 0.931678 0.351118
vt 0.335174 0.488977
vt 0.367094 0.673623
vt 0.939667 0.384854
vt 0.199177 0.651021
vt 0.069465 0.641494
vt 0.198664 0.632807
vt 0.464209 0.672968
vt 0.199604 0.684998
vt 0.465945 0.702696
vt 0.199840 0.723459
vt 0.466714 0.715004
vt 0.832520 0.720483
vt 0.200177 0.738589
vt 0.829423 0.735282
vt 0.076340 0.580490
vt 0.826046 0.701507
vt 0.074346 0.598181
vt 0.948795 0.287497
vt 0.823088 0.670800
vt 0.959731 0.307426
vt 0.948976 0.259488
vt 0.941524 0.331189
vt 0.875347 0.491894
vt 0.391834 0.432095
vt 0.377694 0.448634
vt 0.915590 0.478791
vt 0.834644 0.488373
vt 0.326937 0.619279
vt 0.938593 0.478810
vt 0.335216 0.632947
vt 0.358601 0.463790
vt 0.348787 0.648138
vt 0.927106 0.463378
vt 0.854274 0.489560
vt 0.315804 0.619182
vt 0.212520 0.321385
vt 0.644070 0.318501
vt 0.018976 0.592450
vt 0.663817 0.276029
vt 0.129819 0.597828
vt 0.224108 0.269832
vt 0.051049 0.586785
vt 0.728499 0.676310
vt 0.099637 0.591886
vt 0.730103 0.697776
vt 0.734390 0.646904
vt 0.920230 0.314550
vt 0.981025 0.324065
vt 0.732426 0.727384
vt 0.950683 0.319044
vt 0.753088 0.663662
vt 0.920230 0.273492
vt 0.977552 0.273492
vt 0.752543 0.710647
vt 0.709822 0.714522
vt 0.796001 0.686127
vt 0.853178 0.686127
vt 0.709822 0.659561
vt 0.824792 0.685890
vt 0.948939 0.273488
vt 0.731549 0.661651
vt 0.730449 0.712624
vt 0.878850 0.297575
vt 0.096711 0.342677
vt 0.285581 0.357771
vt 0.108549 0.696221
vt 0.804979 0.293594
vt 0.708839 0.350023
vt 0.668288 0.644023
vt 0.436089 0.526409
vt 0.145034 0.385321
vt 0.919159 0.607821
vt 0.247387 0.613831
vt 0.970304 0.416607
vt 0.947808 0.608020
vt 0.704660 0.516092
vt 0.970304 0.403829
vt 0.750017 0.516884
vt 0.618892 0.516092
vt 0.920230 0.404231
vt 0.273616 0.612878
vt 0.642836 0.516847
vt 0.938584 0.415207
vt 0.924281 0.443436
vt 0.075400 0.489812
vt 0.855524 0.444402
vt 0.531739 0.629156
vt 0.934913 0.435583
vt 0.576828 0.496673
vt 0.931440 0.443424
vt 0.848383 0.444289
vt 0.592622 0.497116
vt 0.934913 0.440184
vt 0.586164 0.496977
vt 0.517161 0.630156
vt 0.920230 0.438606
vt 0.085942 0.490043
vt 0.585376 0.420489
vt 0.510472 0.551446
vt 0.582586 0.444044
vt 0.504260 0.576063
vt 0.581388 0.469636
vt 0.508131 0.602400
vt 0.103684 0.463024
vt 0.477645 0.604263
vt 0.118194 0.440373
vt 0.454885 0.581958
vt 0.129418 0.415411
vt 0.438452 0.557360
vt 0.876897 0.417052
vt 0.081901 0.462161
vt 0.882279 0.393921
vt 0.081653 0.438865
vt 0.880271 0.363315
vt 0.079604 0.408162
vt 0.633117 0.418943
vt 0.615530 0.444447
vt 0.600997 0.469910
vt 0.614559 0.469949
vt 0.862035 0.416811
vt 0.638313 0.444473
vt 0.857648 0.390640
vt 0.666106 0.417503
vt 0.844696 0.362700
vt 0.167770 0.536691
vt 0.914144 0.688660
vt 0.182151 0.561697
vt 0.913298 0.663084
vt 0.189855 0.582503
vt 0.915415 0.641729
vt 0.680787 0.549268
vt 0.966165 0.641681
vt 0.684678 0.573659
vt 0.963812 0.665813
vt 0.684995 0.596421
vt 0.964308 0.688427
vt 0.584794 0.548886
vt 0.729850 0.550060
vt 0.578610 0.572959
vt 0.734888 0.574452
vt 0.569690 0.595426
vt 0.736445 0.597214
vt 0.642060 0.590920
vt 0.247172 0.543053
vt 0.641052 0.570535
vt 0.248998 0.562413
vt 0.635978 0.552556
vt 0.245738 0.579271
s 0
usemtl Material
f 89/203/1 7/19/1 13/32/1 90/205/1
f 8/22/2 7/19/2 89/203/2 58/151/2 54/142/2 53/136/2
f 6/18/3 56/148/3 57/150/3
f 3/8/4 106/231/4 4/9/4 59/153/4 88/202/4
f 6/17/5 107/233/5 5/14/5 60/154/5 1/1/5 105/229/5 2/4/5 56/149/5
f 61/156/6 13/33/6 16/38/6 62/157/6
f 5/16/7 14/35/7 31/77/7 29/72/7
f 88/202/8 1/3/8 10/26/8 91/207/8
f 67/164/9 21/53/9 20/50/9 65/161/9
f 13/32/10 7/19/10 12/30/10 16/39/10
f 3/8/11 9/25/11 11/28/11 15/36/11
f 55/147/12 3/6/12 15/37/12 63/158/12
f 66/162/13 19/48/13 17/40/13 65/160/13
f 23/57/14 22/55/14 17/41/14 19/49/14
f 83/191/15 82/190/15 25/63/15 26/67/15
f 15/36/16 11/28/16 22/55/16 23/57/16
f 62/157/17 16/38/17 21/53/17 67/164/17
f 69/169/18 26/66/18 25/64/18 68/166/18
f 87/200/19 84/193/19 24/60/19 68/165/19
f 86/197/20 83/191/20 26/67/20 69/167/20
f 84/194/21 85/196/21 27/68/21 24/61/21
f 70/170/22 29/73/22 31/78/22 71/172/22
f 70/170/23 28/71/23 34/85/23 73/174/23
f 10/26/24 1/3/24 28/70/24 30/74/24
f 64/159/25 10/27/25 30/75/25 71/171/25
f 34/84/26 32/80/26 36/88/26 38/92/26
f 60/155/27 5/15/27 33/83/27 72/173/27
f 5/16/28 29/72/28 35/86/28 33/82/28
f 28/70/29 1/3/29 32/80/29 34/84/29
f 37/90/30 39/94/30 43/105/30 41/99/30
f 73/174/31 34/85/31 38/93/31 75/176/31
f 33/82/32 35/86/32 39/94/32 37/90/32
f 72/173/33 33/83/33 37/91/33 74/175/33
f 76/178/34 41/100/34 43/106/34 77/180/34
f 74/175/35 37/91/35 41/101/35 76/177/35
f 38/92/36 36/88/36 40/96/36 42/102/36
f 75/176/37 38/93/37 42/103/37 77/179/37
f 102/226/38 97/218/38 51/129/38 81/187/38
f 91/206/39 10/27/39 45/111/39 93/210/39
f 90/204/40 13/33/40 46/114/40 92/208/40
f 61/156/41 9/24/41 44/108/41 78/181/41
f 64/159/42 14/34/42 47/117/42 79/183/42
f 96/216/43 94/213/43 50/126/43 80/186/43
f 101/225/44 99/222/44 48/120/44 80/185/44
f 104/228/45 98/220/45 49/123/45 95/215/45
f 103/227/46 100/224/46 50/127/46 94/212/46
f 8/23/47 53/137/47 52/132/47
f 8/23/48 52/132/48 4/10/48 106/232/48 3/7/48 55/146/48 7/20/48
f 54/142/49 58/151/49 89/203/49 5/16/49 107/234/49 6/18/49 57/150/49
f 100/223/50 101/225/50 80/185/50 50/128/50
f 95/214/51 96/216/51 80/186/51 48/121/51
f 10/27/52 64/159/52 79/183/52 45/111/52
f 13/33/53 61/156/53 78/181/53 46/114/53
f 98/219/54 102/226/54 81/187/54 49/124/54
f 39/95/55 75/176/55 77/179/55 43/107/55
f 36/89/56 74/175/56 76/177/56 40/97/56
f 40/98/57 76/178/57 77/180/57 42/104/57
f 32/81/58 72/173/58 74/175/58 36/89/58
f 35/87/59 73/174/59 75/176/59 39/95/59
f 1/2/60 60/155/60 72/173/60 32/81/60
f 14/34/61 64/159/61 71/171/61 31/79/61
f 29/73/62 70/170/62 73/174/62 35/87/62
f 28/71/63 70/170/63 71/172/63 30/76/63
f 85/196/64 86/198/64 69/168/64 27/68/64
f 82/189/65 87/200/65 68/165/65 25/65/65
f 27/69/66 69/169/66 68/166/66 24/62/66
f 11/29/67 62/157/67 67/164/67 22/56/67
f 18/43/68 66/162/68 65/160/68 20/51/68
f 7/21/69 55/147/69 63/158/69 12/31/69
f 22/56/70 67/164/70 65/161/70 17/42/70
f 9/24/71 61/156/71 62/157/71 11/29/71
f 19/48/72 66/162/72 87/200/72 82/189/72
f 12/30/73 18/44/73 20/52/73 21/54/73 16/39/73
f 66/163/74 18/47/74 84/194/74 87/201/74
f 23/57/75 19/49/75 82/190/75 83/191/75
f 49/125/76 81/188/76 96/216/76 95/214/76
f 97/217/77 103/227/77 94/212/77 51/130/77
f 99/221/78 104/228/78 95/215/78 48/122/78
f 81/188/79 51/131/79 94/213/79 96/216/79
f 14/34/80 90/204/80 92/208/80 47/117/80
f 9/24/81 91/206/81 93/210/81 44/108/81
f 3/8/82 88/202/82 91/207/82 9/25/82
f 5/16/83 89/203/83 90/205/83 14/35/83
f 44/109/84 93/211/84 104/228/84 99/221/84
f 47/118/85 92/209/85 103/227/85 97/217/85
f 45/112/86 79/184/86 102/226/86 98/219/86
f 46/115/87 78/182/87 101/225/87 100/223/87
f 92/209/88 46/116/88 100/224/88 103/227/88
f 93/211/89 45/113/89 98/220/89 104/228/89
f 78/182/90 44/110/90 99/222/90 101/225/90
f 79/184/91 47/119/91 97/218/91 102/226/91
f 59/152/92 4/11/92 52/133/92 53/138/92 54/141/92 108/235/92
f 136/298/93 110/241/93 109/238/93 135/296/93
f 121/271/94 120/269/94 114/253/94 117/261/94
f 139/304/95 111/244/95 110/242/95 136/297/95
f 135/295/96 109/239/96 112/247/96 144/314/96
f 144/313/97 112/248/97 111/245/97 139/303/97
f 111/246/98 112/249/98 109/240/98 110/243/98
f 117/262/99 114/254/99 116/259/99 115/256/99 113/250/99
f 124/277/100 121/270/100 117/263/100 113/251/100
f 120/268/101 129/284/101 116/260/101 114/255/101
f 130/286/102 124/276/102 113/252/102 115/257/102
f 129/284/103 130/285/103 115/258/103 116/260/103
f 57/150/104 56/148/104 132/289/104 127/282/104
f 127/282/105 132/289/105 131/287/105 128/283/105
f 128/283/106 131/287/106 130/285/106 129/284/106
f 56/149/107 2/4/107 126/280/107 132/290/107
f 132/290/108 126/280/108 125/278/108 131/288/108
f 131/288/109 125/278/109 124/276/109 130/286/109
f 54/142/110 57/150/110 127/282/110 118/264/110
f 118/264/111 127/282/111 128/283/111 119/266/111
f 119/266/112 128/283/112 129/284/112 120/268/112
f 2/5/113 108/237/113 123/274/113 126/281/113
f 126/281/114 123/274/114 122/272/114 125/279/114
f 125/279/115 122/272/115 121/270/115 124/277/115
f 108/236/116 54/143/116 118/265/116 123/275/116
f 123/275/117 118/265/117 119/267/117 122/273/117
f 122/273/118 119/267/118 120/269/118 121/271/118
f 54/144/119 142/309/119 141/307/119 53/139/119
f 142/309/120 143/311/120 140/305/120 141/307/120
f 143/311/121 144/313/121 139/303/121 140/305/121
f 4/12/122 133/291/122 142/310/122 54/145/122
f 133/291/123 134/293/123 143/312/123 142/310/123
f 134/293/124 135/295/124 144/314/124 143/312/124
f 53/140/125 141/308/125 138/301/125 52/134/125
f 141/308/126 140/306/126 137/299/126 138/301/126
f 140/306/127 139/304/127 136/297/127 137/299/127
f 52/135/128 138/302/128 133/292/128 4/13/128
f 138/302/129 137/300/129 134/294/129 133/292/129
f 137/300/130 136/298/130 135/296/130 134/294/130
f 105/230/131 1/3/131 88/202/131 59/153/131 108/237/131 2/5/131
f 86/199/132 85/195/132 83/192/132
f 83/192/133 85/195/133 18/45/133 23/58/133
f 63/158/134 15/37/134 23/59/134 18/46/134 12/31/134
f 84/194/135 18/47/135 85/196/135
l 52 106
