# Blender 3.3.1
# www.blender.org
mtllib monstruo_3_caminar524.mtl
o monstruo_grande
v 0.518441 1.946113 0.315139
v 0.524468 1.136264 0.101423
v -0.622498 1.847753 0.162540
v -0.318553 1.170238 0.211675
v 0.756311 2.208549 -0.005123
v 0.591399 1.543608 -0.247897
v -0.700821 2.080875 -0.264215
v -0.646398 1.774367 -0.334679
v -0.182620 2.409399 0.476734
v 0.355954 2.244107 0.480527
v -0.324249 2.390833 0.568212
v -1.046594 2.169321 -0.150198
v -0.136310 2.584145 0.127576
v 0.393805 2.382908 0.217527
v -0.921038 2.018905 0.012554
v -0.288631 2.676184 0.145932
v -0.691333 2.342716 0.549066
v -1.359278 2.099023 0.080102
v -1.102403 2.118215 0.303586
v -0.818266 2.687137 0.288824
v -0.469810 2.735508 0.207247
v -0.405753 2.353793 0.536014
v -1.048394 2.049489 -0.003078
v -1.757035 0.828976 0.688521
v -1.636685 0.803486 0.745410
v -1.607514 0.630477 0.543270
v -1.680972 0.646037 0.508547
v 0.493127 2.149338 0.483285
v 0.652809 2.328543 0.246549
v 0.468180 2.261907 0.487267
v 0.523697 2.390504 0.265029
v 0.760868 1.822671 0.371307
v 0.923647 1.909922 0.232392
v 0.771333 1.907579 0.421548
v 0.889583 2.014215 0.289089
v 0.964167 1.595650 0.397899
v 1.055175 1.636048 0.343550
v 1.024076 1.585793 0.484617
v 1.113138 1.633755 0.428806
v 0.995772 1.453909 0.456255
v 1.181738 1.551858 0.343370
v 1.059887 1.392787 0.632317
v 1.338853 1.539875 0.456756
v -0.013944 2.439169 0.509837
v 0.192386 2.392994 0.500695
v 0.007397 2.543262 0.264717
v 0.206576 2.492778 0.258064
v 0.042994 2.750957 0.648446
v 0.248206 2.681001 0.618348
v 0.041739 2.857102 0.391711
v 0.247614 2.786723 0.361698
v -0.505860 1.196656 -0.014680
v -0.375169 1.205959 -0.219048
v -0.039068 1.276228 -0.332395
v -0.666392 1.898121 -0.064489
v 0.541583 1.132444 -0.136540
v 0.322462 1.135945 -0.257020
v 0.043991 1.520537 -0.322661
v -0.031271 1.148968 0.206263
v 0.602753 2.022591 0.211223
v -0.159582 2.470382 0.354200
v -0.304115 2.644622 0.415359
v -0.846854 2.081803 -0.090431
v 0.359222 2.373143 0.378110
v -0.687579 2.571753 0.519469
v -1.270230 2.231196 0.336260
v -0.457643 2.648098 0.399915
v -1.711022 0.814939 0.746347
v -1.620297 0.524212 0.424149
v 0.601012 2.252272 0.402365
v 0.501832 2.370961 0.399653
v 0.815231 1.843294 0.254706
v 0.862749 1.974197 0.395146
v 1.008919 1.618613 0.370090
v 1.068637 1.609288 0.456574
v 1.076696 1.500864 0.378540
v 1.176529 1.462863 0.505337
v -0.004338 2.491247 0.386281
v 0.197381 2.443610 0.378208
v 0.010869 2.805957 0.521122
v 0.279031 2.732025 0.489100
v -1.497360 1.124826 0.706494
v -1.555708 0.953871 0.631999
v -1.706238 1.139136 0.609486
v -1.668986 0.977863 0.578453
v -1.611042 0.800341 0.528298
v -1.629610 1.112765 0.707567
v 0.002671 1.759712 0.511268
v 0.235529 2.116054 -0.190733
v 0.215143 2.499456 0.079836
v 0.100097 2.261093 0.630136
v 0.102644 2.517768 0.259656
v 0.094808 2.418045 0.504858
v 0.144745 2.837842 0.338048
v 0.145819 2.700070 0.671862
v 0.148682 2.820211 0.526236
v 0.241341 2.649212 0.285578
v 0.238081 2.529959 0.578187
v 0.001654 2.586864 0.602083
v 0.003734 2.708531 0.307809
v -0.014803 2.648640 0.455319
v 0.254485 2.589132 0.430859
v 0.121789 2.687215 0.276079
v 0.120129 2.550171 0.609949
v 0.545661 1.628860 -0.021773
v -0.556911 1.551425 0.192074
v 0.644660 1.746279 -0.228392
v 0.170595 1.144268 0.216330
v -0.273417 0.218124 -0.411006
v -0.417923 0.155360 -0.305571
v -0.443790 0.292046 -0.515166
v -0.308649 0.296948 -0.530151
v 0.303729 -0.004549 0.133907
v 0.230418 -0.021031 0.059170
v 0.313200 -0.010509 0.095894
v 0.281746 -0.017134 0.070164
v 0.244625 -0.005380 0.144228
v 0.071963 0.831600 -0.048986
v 0.135746 0.608566 0.029814
v 0.169607 0.308178 0.060966
v 0.198591 0.289122 0.239551
v 0.182965 0.538240 0.307065
v 0.193271 0.815151 0.337536
v 0.321320 0.286724 0.217722
v 0.390645 0.540271 0.272517
v 0.481015 0.864885 0.262617
v 0.327070 0.838210 -0.029426
v 0.314431 0.599386 0.063219
v 0.275905 0.302308 0.083464
v 0.341237 0.295303 0.138012
v 0.425607 0.590390 0.150804
v 0.499598 0.860828 0.072638
v -0.233082 0.884689 0.307566
v -0.232049 0.582995 0.144574
v -0.245301 0.372369 -0.005825
v -0.526155 0.405408 -0.041684
v -0.511184 0.661677 0.084881
v -0.508438 0.909103 0.163772
v -0.521673 0.570315 -0.258700
v -0.504095 0.807878 -0.128761
v -0.496746 0.937979 -0.101851
v -0.105826 0.866343 -0.096387
v -0.161209 0.761731 -0.145294
v -0.225461 0.584133 -0.242768
vn 0.0386 0.5827 -0.8118
vn 0.0085 0.0823 -0.9966
vn 0.4585 -0.2837 -0.8422
vn -0.3386 -0.2319 0.9119
vn 0.9386 -0.2307 0.2566
vn 0.6826 0.6852 0.2541
vn 0.2310 0.8875 -0.3989
vn 0.4423 -0.2683 0.8558
vn -0.0393 0.8959 0.4425
vn -0.0106 0.5723 -0.8200
vn -0.2754 -0.4737 0.8365
vn -0.4836 -0.8133 -0.3235
vn -0.3136 -0.1588 0.9362
vn 0.1873 -0.9126 0.3635
vn 0.9181 -0.2928 0.2672
vn -0.1165 -0.7806 0.6141
vn 0.2111 0.9462 0.2451
vn -0.0642 -0.7548 0.6528
vn -0.7181 0.2796 0.6373
vn 0.9580 -0.0054 -0.2866
vn -0.8245 0.0726 -0.5612
vn 0.5891 0.7110 0.3840
vn 0.3196 0.2093 0.9242
vn -0.3548 -0.4904 0.7960
vn -0.1237 0.6307 0.7661
vn -0.6650 -0.4559 0.5915
vn -0.1545 -0.5891 -0.7931
vn 0.8391 0.5436 -0.0210
vn -0.3911 -0.5686 0.7236
vn 0.4363 0.7984 -0.4150
vn 0.1824 0.2920 0.9389
vn 0.8664 0.3248 -0.3792
vn -0.0457 -0.4378 -0.8979
vn 0.2630 -0.8491 -0.4581
vn -0.2513 -0.2798 -0.9266
vn -0.8901 0.0952 0.4458
vn 0.3664 0.5774 0.7296
vn 0.9848 -0.0259 -0.1718
vn 0.3966 0.4865 0.7785
vn 0.2442 0.9687 0.0449
vn -0.2175 0.8976 0.3835
vn 0.4672 0.8478 0.2508
vn 0.0639 0.9742 0.2164
vn -0.9668 0.1234 0.2239
vn 0.2866 -0.3381 0.8964
vn -0.2436 0.4647 -0.8513
vn -0.7410 -0.4542 -0.4946
vn -0.9521 -0.2564 0.1669
vn 0.1571 0.1464 -0.9767
vn -0.9680 0.2391 -0.0768
vn 0.0650 0.8430 0.5340
vn 0.4883 0.6730 0.5555
vn -0.1717 0.8961 0.4094
vn 0.9826 -0.1518 0.1073
vn 0.1126 0.4406 0.8906
vn -0.4600 -0.3825 -0.8013
vn 0.1482 -0.9134 -0.3792
vn -0.5294 -0.6402 -0.5566
vn 0.6258 0.5179 0.5832
vn -0.3707 -0.7413 -0.5595
vn -0.0427 0.9950 0.0906
vn 0.6654 0.5874 0.4606
vn 0.5313 0.2808 0.7993
vn -0.3408 0.2697 -0.9006
vn 0.0093 0.1212 0.9926
vn -0.7017 -0.6198 0.3515
vn -0.2384 0.4421 0.8647
vn -0.6677 0.6908 0.2776
vn -0.4734 -0.7880 -0.3936
vn 0.1867 0.3121 0.9315
vn 0.6014 0.4777 0.6403
vn 0.1981 0.2742 0.9410
vn -0.3316 0.6740 -0.6601
vn -0.8652 0.4156 0.2805
vn 0.9323 -0.3108 0.1848
vn 0.5154 0.6977 0.4976
vn 0.2868 0.3902 -0.8749
vn -0.2389 -0.2706 0.9326
vn 0.5138 0.8470 0.1366
vn 0.4261 0.9030 0.0543
vn -0.1024 0.5110 0.8535
vn -0.5009 -0.0972 0.8600
vn 0.3032 0.7395 -0.6009
vn -0.1516 -0.5548 0.8181
vn 0.0694 0.1220 -0.9901
vn 0.9461 -0.3191 -0.0548
vn -0.9935 -0.0041 -0.1135
vn -0.1289 0.1794 -0.9753
vn 0.0189 -0.5648 0.8250
vn -0.9996 0.0028 0.0265
vn 0.9582 -0.2594 -0.1210
vn 0.0195 -0.9853 -0.1699
vn 0.1444 -0.8392 0.5244
vn -0.9692 -0.1904 0.1563
vn -0.9668 -0.2289 -0.1134
vn 0.9909 -0.0801 -0.1082
vn -0.0285 0.6931 -0.7203
vn -0.0313 -0.8386 -0.5439
vn 0.0449 -0.9834 0.1758
vn 0.1647 -0.2811 0.9454
vn 0.2082 0.0441 -0.9771
vn 0.9634 -0.1238 0.2378
vn 0.6379 0.0455 -0.7688
vn 0.4275 -0.5678 -0.7035
vn 0.5323 -0.3492 -0.7712
vn 0.6137 -0.1371 -0.7775
vn 0.9916 -0.0984 0.0845
vn 0.9606 -0.2463 0.1286
vn 0.9425 -0.2854 0.1736
vn 0.0040 -0.5666 -0.8240
vn 0.1122 -0.3349 -0.9356
vn 0.1874 -0.0856 -0.9785
vn 0.2347 0.4070 0.8828
vn 0.2222 -0.0704 0.9724
vn 0.1626 -0.2496 0.9546
vn -0.9420 0.0126 0.3354
vn -0.9685 -0.0809 0.2353
vn -0.9845 -0.0983 0.1453
vn -0.1334 -0.4286 -0.8936
vn 0.0336 0.2991 -0.9536
vn 0.0233 0.4768 -0.8787
vn 0.8900 0.2157 0.4018
vn 0.9469 -0.2389 0.2151
vn 0.9785 -0.2056 0.0160
vn -0.9566 0.0623 -0.2847
vn -0.9991 0.0342 -0.0267
vn -0.9982 0.0580 0.0151
vn -0.5803 0.2818 0.7641
vn -0.3800 -0.3719 0.8470
vn -0.2402 -0.4845 0.8412
vn 0.4925 -0.2748 0.8258
vn 0.4599 0.3772 -0.8039
vn -0.1343 -0.4114 -0.9015
vn -0.2143 -0.7618 -0.6114
vn -0.7808 -0.0607 -0.6218
vt 0.461701 0.809397
vt 0.301930 0.729761
vt 0.094158 0.499911
vt 0.498737 0.648456
vt 0.250869 0.553264
vt 0.714874 0.752530
vt 0.627854 0.740386
vt 0.227533 0.339544
vt 0.300362 0.438253
vt 0.625828 0.633709
vt 0.338991 0.679376
vt 0.653754 0.621457
vt 0.189641 0.785401
vt 0.531284 0.815038
vt 0.232114 0.729761
vt 0.806952 0.326283
vt 0.527824 0.712310
vt 0.703640 0.331352
vt 0.725736 0.123548
vt 0.557184 0.740386
vt 0.714874 0.681901
vt 0.693091 0.138725
vt 0.558638 0.706064
vt 0.944491 0.391302
vt 0.108931 0.369345
vt 0.090202 0.443431
vt 0.952837 0.467016
vt 0.108059 0.346292
vt 0.960024 0.371234
vt 0.653754 0.712739
vt 0.761990 0.055860
vt 0.265996 0.788213
vt 0.829683 0.188590
vt 0.886815 0.394232
vt 0.909606 0.471204
vt 0.826550 0.267021
vt 0.659457 0.749480
vt 0.206417 0.267620
vt 0.238389 0.812575
vt 0.882743 0.373659
vt 0.837846 0.166681
vt 0.102618 0.289588
vt 0.957957 0.321520
vt 0.918648 0.216117
vt 0.803322 0.012950
vt 0.106348 0.638847
vt 0.232551 0.755661
vt 0.798789 0.485160
vt 0.965752 0.239402
vt 0.153968 0.222285
vt 0.894228 0.312474
vt 0.856067 0.102710
vt 0.881967 0.351902
vt 0.842627 0.144082
vt 0.107159 0.331692
vt 0.958812 0.358201
vt 0.199778 0.246429
vt 0.138792 0.619338
vt 0.232114 0.797406
vt 0.967580 0.012950
vt 0.753483 0.682459
vt 0.843831 0.469074
vt 0.256421 0.022764
vt 0.824689 0.472884
vt 0.987050 0.016155
vt 0.832147 0.505580
vt 0.295109 0.018166
vt 0.782932 0.707368
vt 0.843831 0.503254
vt 0.076417 0.467161
vt 0.958695 0.494573
vt 0.833773 0.298242
vt 0.909847 0.503107
vt 0.076958 0.454690
vt 0.951531 0.482650
vt 0.837149 0.281767
vt 0.912926 0.487172
vt 0.064432 0.532285
vt 0.298790 0.687460
vt 0.825577 0.362572
vt 0.264894 0.686125
vt 0.056614 0.518895
vt 0.959622 0.549977
vt 0.837123 0.350740
vt 0.929664 0.555276
vt 0.051257 0.577890
vt 0.291936 0.641182
vt 0.824256 0.407314
vt 0.275162 0.640522
vt 0.035793 0.577862
vt 0.964581 0.612577
vt 0.838997 0.411720
vt 0.948088 0.615681
vt 0.039898 0.592711
vt 0.301778 0.620707
vt 0.403076 0.772170
vt 0.830596 0.428615
vt 0.403076 0.737417
vt 0.267017 0.619338
vt 0.012950 0.593438
vt 0.987050 0.637067
vt 0.428919 0.781443
vt 0.856067 0.440612
vt 0.428919 0.728949
vt 0.935424 0.646785
vt 0.945356 0.412724
vt 0.357115 0.854737
vt 0.331665 0.779032
vt 0.948027 0.441601
vt 0.799629 0.752473
vt 0.327972 0.853161
vt 0.906904 0.416128
vt 0.370069 0.779032
vt 0.684668 0.778429
vt 0.909575 0.445005
vt 0.655249 0.778999
vt 0.799629 0.791035
vt 0.330193 0.729131
vt 0.557184 0.775635
vt 0.363063 0.804932
vt 0.331684 0.807874
vt 0.754247 0.751428
vt 0.586563 0.768755
vt 0.566112 0.815056
vt 0.689281 0.828405
vt 0.370405 0.729131
vt 0.754247 0.791805
vt 0.657717 0.824383
vt 0.595492 0.808176
vt 0.327830 0.637821
vt 0.590400 0.642651
vt 0.164818 0.789976
vt 0.357235 0.619338
vt 0.642851 0.190721
vt 0.562581 0.649581
vt 0.406824 0.626953
vt 0.080449 0.619338
vt 0.646201 0.239681
vt 0.727583 0.656002
vt 0.597847 0.731399
vt 0.712829 0.722239
vt 0.658284 0.323708
vt 0.527919 0.666449
vt 0.661748 0.291537
vt 0.680225 0.245582
vt 0.377645 0.696957
vt 0.285191 0.477898
vt 0.483372 0.812325
vt 0.280072 0.728266
vt 0.924330 0.393087
vt 0.921760 0.373660
vt 0.678504 0.727397
vt 0.268491 0.812575
vt 0.930826 0.465310
vt 0.923786 0.327561
vt 0.941993 0.227167
vt 0.764056 0.466512
vt 0.919524 0.351927
vt 0.977463 0.013354
vt 0.833186 0.466512
vt 0.317617 0.012950
vt 0.798789 0.722800
vt 0.839639 0.522681
vt 0.934403 0.500152
vt 0.932138 0.484309
vt 0.281656 0.689101
vt 0.944784 0.554368
vt 0.283549 0.640852
vt 0.956335 0.614129
vt 0.284323 0.620942
vt 0.399765 0.754789
vt 0.961112 0.640376
vt 0.422297 0.755187
vt 0.926130 0.414426
vt 0.350867 0.779032
vt 0.928801 0.443303
vt 0.799629 0.771754
vt 0.350773 0.728949
vt 0.557184 0.796361
vt 0.753483 0.771844
vt 0.595492 0.787450
vt 0.985581 0.067358
vt 0.238180 0.070710
vt 0.259592 0.052321
vt 0.138792 0.821791
vt 0.953366 0.057503
vt 0.765454 0.639660
vt 0.120235 0.821584
vt 0.772730 0.660154
vt 0.283154 0.037949
vt 0.784440 0.682652
vt 0.128680 0.843910
vt 0.970110 0.058056
vt 0.758353 0.637393
vt 0.180368 0.432154
vt 0.759258 0.257498
vt 0.884976 0.446549
vt 0.828099 0.241547
vt 0.971226 0.428512
vt 0.101516 0.405509
vt 0.908240 0.430567
vt 0.669958 0.778714
vt 0.946692 0.427163
vt 0.342544 0.853949
vt 0.673120 0.826722
vt 0.582140 0.817526
vt 0.570535 0.766286
vt 0.348248 0.806122
vt 0.576699 0.792002
vt 0.653753 0.802281
vt 0.776512 0.794925
vt 0.776512 0.748700
vt 0.327830 0.829868
vt 0.363063 0.830170
vt 0.327830 0.753980
vt 0.373865 0.753980
vt 0.689281 0.803194
vt 0.351093 0.753886
vt 0.776117 0.771930
vt 0.671321 0.802907
vt 0.345899 0.829874
vt 0.457498 0.727404
vt 0.165986 0.548054
vt 0.260364 0.376248
vt 0.625887 0.695531
vt 0.520555 0.743605
vt 0.734596 0.339638
vt 0.406824 0.703049
vt 0.012950 0.651015
vt 0.277407 0.507014
vt 0.206214 0.619338
vt 0.706517 0.466512
vt 0.399765 0.822801
vt 0.181517 0.620770
vt 0.619265 0.470337
vt 0.422433 0.807343
vt 0.582936 0.466512
vt 0.458892 0.202188
vt 0.422433 0.843958
vt 0.727583 0.468029
vt 0.460639 0.221880
vt 0.402692 0.843997
vt 0.717439 0.778459
vt 0.429089 0.593438
vt 0.518160 0.466685
vt 0.070962 0.817001
vt 0.726094 0.791097
vt 0.457498 0.298878
vt 0.715181 0.783741
vt 0.523936 0.466512
vt 0.458951 0.311476
vt 0.719061 0.788282
vt 0.458165 0.306435
vt 0.058766 0.817583
vt 0.726094 0.778429
vt 0.431598 0.585369
vt 0.599953 0.261833
vt 0.080449 0.668491
vt 0.542336 0.274386
vt 0.076079 0.728305
vt 0.500395 0.287212
vt 0.064936 0.773359
vt 0.389801 0.564275
vt 0.039540 0.774208
vt 0.356388 0.547019
vt 0.031995 0.737396
vt 0.319737 0.531779
vt 0.030523 0.696843
vt 0.505723 0.512116
vt 0.384015 0.580847
vt 0.506522 0.550736
vt 0.346302 0.574833
vt 0.507607 0.604105
vt 0.294291 0.566034
vt 0.610540 0.298468
vt 0.545535 0.300686
vt 0.502363 0.302883
vt 0.504402 0.313331
vt 0.517745 0.511765
vt 0.548610 0.318269
vt 0.527842 0.556627
vt 0.609940 0.323717
vt 0.531284 0.618364
vt 0.660591 0.582499
vt 0.204501 0.743892
vt 0.668589 0.550878
vt 0.206214 0.710848
vt 0.668004 0.517120
vt 0.204545 0.678125
vt 0.623877 0.525891
vt 0.164692 0.675333
vt 0.610236 0.563455
vt 0.167167 0.712219
vt 0.605277 0.597358
vt 0.166352 0.745757
vt 0.511839 0.183186
vt 0.584607 0.521652
vt 0.552303 0.182624
vt 0.569857 0.561129
vt 0.598009 0.178631
vt 0.565182 0.606784
vt 0.592158 0.236754
vt 0.721184 0.600612
vt 0.550092 0.232946
vt 0.722606 0.558204
vt 0.518921 0.225772
vt 0.713819 0.525134
s 0
usemtl Material
f 89/196/1 7/19/1 13/33/1 90/198/1
f 8/22/2 7/19/2 89/196/2 58/145/2 54/138/2 53/134/2
f 6/18/3 56/142/3 57/144/3
f 3/8/4 106/224/4 4/9/4 59/147/4 88/195/4
f 6/17/5 107/226/5 5/14/5 60/148/5 1/1/5 105/222/5 2/4/5 56/143/5
f 61/150/6 13/34/6 16/40/6 62/151/6
f 5/16/7 14/36/7 31/76/7 29/72/7
f 88/195/8 1/3/8 10/26/8 91/200/8
f 67/158/9 21/53/9 20/51/9 65/155/9
f 13/33/10 7/19/10 12/31/10 16/41/10
f 3/8/11 9/25/11 11/28/11 15/38/11
f 55/141/12 3/6/12 15/37/12 63/152/12
f 66/156/13 19/49/13 17/43/13 65/155/13
f 23/57/14 22/55/14 17/42/14 19/50/14
f 83/184/15 82/183/15 25/63/15 26/67/15
f 15/38/16 11/28/16 22/55/16 23/57/16
f 62/151/17 16/40/17 21/53/17 67/158/17
f 69/163/18 26/66/18 25/64/18 68/160/18
f 87/193/19 84/186/19 24/60/19 68/159/19
f 86/190/20 83/184/20 26/67/20 69/161/20
f 84/187/21 85/189/21 27/68/21 24/61/21
f 70/164/22 29/73/22 31/77/22 71/165/22
f 70/164/23 28/71/23 34/83/23 73/167/23
f 10/26/24 1/3/24 28/70/24 30/74/24
f 64/154/25 10/27/25 30/75/25 71/165/25
f 34/82/26 32/78/26 36/86/26 38/90/26
f 60/149/27 5/15/27 33/81/27 72/166/27
f 5/16/28 29/72/28 35/84/28 33/80/28
f 28/70/29 1/3/29 32/78/29 34/82/29
f 37/88/30 39/92/30 43/103/30 41/97/30
f 73/167/31 34/83/31 38/91/31 75/169/31
f 33/80/32 35/84/32 39/92/32 37/88/32
f 72/166/33 33/81/33 37/89/33 74/168/33
f 76/171/34 41/98/34 43/104/34 77/173/34
f 74/168/35 37/89/35 41/99/35 76/170/35
f 38/90/36 36/86/36 40/94/36 42/100/36
f 75/169/37 38/91/37 42/101/37 77/172/37
f 102/219/38 97/211/38 51/127/38 81/180/38
f 91/199/39 10/27/39 45/109/39 93/203/39
f 90/197/40 13/34/40 46/112/40 92/201/40
f 61/150/41 9/24/41 44/106/41 78/174/41
f 64/154/42 14/35/42 47/115/42 79/176/42
f 96/209/43 94/206/43 50/124/43 80/179/43
f 101/218/44 99/215/44 48/118/44 80/178/44
f 104/221/45 98/213/45 49/121/45 95/208/45
f 103/220/46 100/217/46 50/125/46 94/205/46
f 8/23/47 53/135/47 52/131/47
f 8/23/48 52/131/48 4/10/48 106/225/48 3/7/48 55/140/48 7/20/48
f 54/138/49 58/145/49 89/196/49 5/16/49 107/227/49 6/18/49 57/144/49
f 100/216/50 101/218/50 80/178/50 50/126/50
f 95/207/51 96/209/51 80/179/51 48/119/51
f 10/27/52 64/154/52 79/176/52 45/109/52
f 13/34/53 61/150/53 78/174/53 46/112/53
f 98/212/54 102/219/54 81/180/54 49/122/54
f 39/93/55 75/169/55 77/172/55 43/105/55
f 36/87/56 74/168/56 76/170/56 40/95/56
f 40/96/57 76/171/57 77/173/57 42/102/57
f 32/79/58 72/166/58 74/168/58 36/87/58
f 35/85/59 73/167/59 75/169/59 39/93/59
f 1/2/60 60/149/60 72/166/60 32/79/60
f 14/35/61 64/154/61 71/165/61 31/77/61
f 29/73/62 70/164/62 73/167/62 35/85/62
f 28/71/63 70/164/63 71/165/63 30/75/63
f 85/189/64 86/191/64 69/162/64 27/68/64
f 82/182/65 87/193/65 68/159/65 25/65/65
f 27/69/66 69/163/66 68/160/66 24/62/66
f 11/29/67 62/151/67 67/158/67 22/56/67
f 18/44/68 66/156/68 65/155/68 20/51/68
f 7/21/69 55/141/69 63/152/69 12/30/69
f 22/56/70 67/158/70 65/155/70 17/43/70
f 9/24/71 61/150/71 62/151/71 11/29/71
f 19/49/72 66/156/72 87/193/72 82/182/72
f 12/31/73 18/45/73 20/52/73 21/54/73 16/41/73
f 66/157/74 18/48/74 84/187/74 87/194/74
f 23/57/75 19/50/75 82/183/75 83/184/75
f 49/123/76 81/181/76 96/209/76 95/207/76
f 97/210/77 103/220/77 94/205/77 51/128/77
f 99/214/78 104/221/78 95/208/78 48/120/78
f 81/181/79 51/129/79 94/206/79 96/209/79
f 14/35/80 90/197/80 92/201/80 47/115/80
f 9/24/81 91/199/81 93/203/81 44/106/81
f 3/8/82 88/195/82 91/200/82 9/25/82
f 5/16/83 89/196/83 90/198/83 14/36/83
f 44/107/84 93/204/84 104/221/84 99/214/84
f 47/116/85 92/202/85 103/220/85 97/210/85
f 45/110/86 79/177/86 102/219/86 98/212/86
f 46/113/87 78/175/87 101/218/87 100/216/87
f 92/202/88 46/114/88 100/217/88 103/220/88
f 93/204/89 45/111/89 98/213/89 104/221/89
f 78/175/90 44/108/90 99/215/90 101/218/90
f 79/177/91 47/117/91 97/211/91 102/219/91
f 59/146/92 4/11/92 52/130/92 53/133/92 54/136/92 108/228/92
f 136/291/93 110/234/93 109/231/93 135/289/93
f 121/264/94 120/262/94 114/246/94 117/254/94
f 139/297/95 111/237/95 110/235/95 136/290/95
f 135/288/96 109/232/96 112/240/96 144/307/96
f 144/306/97 112/241/97 111/238/97 139/296/97
f 111/239/98 112/242/98 109/233/98 110/236/98
f 117/255/99 114/247/99 116/252/99 115/249/99 113/243/99
f 124/270/100 121/263/100 117/256/100 113/244/100
f 120/261/101 129/277/101 116/253/101 114/248/101
f 130/279/102 124/269/102 113/245/102 115/250/102
f 129/277/103 130/278/103 115/251/103 116/253/103
f 57/144/104 56/142/104 132/282/104 127/275/104
f 127/275/105 132/282/105 131/280/105 128/276/105
f 128/276/106 131/280/106 130/278/106 129/277/106
f 56/143/107 2/4/107 126/273/107 132/283/107
f 132/283/108 126/273/108 125/271/108 131/281/108
f 131/281/109 125/271/109 124/269/109 130/279/109
f 54/138/110 57/144/110 127/275/110 118/257/110
f 118/257/111 127/275/111 128/276/111 119/259/111
f 119/259/112 128/276/112 129/277/112 120/261/112
f 2/5/113 108/230/113 123/267/113 126/274/113
f 126/274/114 123/267/114 122/265/114 125/272/114
f 125/272/115 122/265/115 121/263/115 124/270/115
f 108/229/116 54/137/116 118/258/116 123/268/116
f 123/268/117 118/258/117 119/260/117 122/266/117
f 122/266/118 119/260/118 120/262/118 121/264/118
f 54/138/119 142/302/119 141/300/119 53/134/119
f 142/302/120 143/304/120 140/298/120 141/300/120
f 143/304/121 144/306/121 139/296/121 140/298/121
f 4/12/122 133/284/122 142/303/122 54/139/122
f 133/284/123 134/286/123 143/305/123 142/303/123
f 134/286/124 135/288/124 144/307/124 143/305/124
f 53/135/125 141/301/125 138/294/125 52/131/125
f 141/301/126 140/299/126 137/292/126 138/294/126
f 140/299/127 139/297/127 136/290/127 137/292/127
f 52/132/128 138/295/128 133/285/128 4/13/128
f 138/295/129 137/293/129 134/287/129 133/285/129
f 137/293/130 136/291/130 135/289/130 134/287/130
f 105/223/131 1/3/131 88/195/131 59/147/131 108/230/131 2/5/131
f 86/192/132 85/188/132 83/185/132
f 83/185/133 85/188/133 18/46/133 23/58/133
f 63/153/134 15/39/134 23/59/134 18/47/134 12/32/134
f 84/187/135 18/48/135 85/189/135
l 52 106
