# Blender 3.3.1
# www.blender.org
mtllib monstruo_3_grande_caminar609.mtl
o monstruo_grande
v 0.308861 2.039087 0.182012
v 0.526271 1.215286 0.086019
v -0.739030 1.717115 0.187084
v -0.288536 1.116117 0.223480
v 0.444603 2.331455 -0.164000
v 0.502907 1.636901 -0.264204
v -0.886167 1.928542 -0.233148
v -0.768730 1.645395 -0.296507
v -0.384066 2.391210 0.444013
v 0.178118 2.310873 0.396418
v -0.515076 2.357616 0.546550
v -1.250021 1.968827 -0.080137
v -0.386626 2.544861 0.080950
v 0.156625 2.447841 0.136457
v -1.092492 1.841485 0.080651
v -0.550577 2.611032 0.102373
v -0.865785 2.262312 0.568395
v -1.537753 1.898844 0.187738
v -1.260545 1.954966 0.388817
v -1.058909 2.559607 0.290204
v -0.733803 2.646049 0.171189
v -0.590625 2.309238 0.525561
v -1.225755 1.860932 0.080902
v -1.817936 0.667592 0.923071
v -1.691561 0.651247 0.969250
v -1.673124 0.466914 0.776053
v -1.750260 0.476892 0.747867
v 0.335382 2.227541 0.367897
v 0.416301 2.427275 0.108069
v 0.291459 2.343696 0.385135
v 0.287896 2.476154 0.157951
v 0.555443 1.915391 0.142380
v 0.659537 2.022823 -0.033579
v 0.582432 1.994279 0.196690
v 0.652159 2.116305 0.044024
v 0.718282 1.697786 0.045895
v 0.793773 1.735023 -0.030713
v 0.797966 1.644511 0.089983
v 0.871814 1.693180 0.015238
v 0.718820 1.541604 0.043669
v 0.875897 1.639281 -0.109016
v 0.817193 1.406659 0.148345
v 1.046725 1.553507 -0.088361
v -0.222001 2.450289 0.463149
v -0.010977 2.427651 0.445027
v -0.226418 2.543379 0.213205
v -0.024757 2.521387 0.199139
v -0.165055 2.763352 0.606804
v 0.039883 2.698184 0.565997
v -0.180295 2.875518 0.352740
v 0.023311 2.810859 0.310872
v -0.499156 1.122182 0.013471
v -0.388968 1.146309 -0.201620
v -0.055017 1.265730 -0.334554
v -0.799757 1.754687 -0.034555
v 0.548774 1.225198 -0.152704
v 0.329113 1.217519 -0.277330
v -0.025456 1.519078 -0.332941
v -0.009759 1.149508 0.196548
v 0.355338 2.127497 0.064439
v -0.378474 2.445895 0.316443
v -0.545932 2.598690 0.375996
v -1.025853 1.906571 -0.040354
v 0.144032 2.435902 0.296485
v -0.900126 2.486347 0.516486
v -1.438507 2.055234 0.425108
v -0.698041 2.577146 0.371159
v -1.765952 0.659414 0.976820
v -1.691839 0.352654 0.665419
v 0.414866 2.337295 0.265124
v 0.290062 2.455607 0.293253
v 0.560570 1.956030 0.015751
v 0.659999 2.066012 0.148346
v 0.755254 1.720337 0.008073
v 0.834630 1.667967 0.052173
v 0.777248 1.598338 -0.046666
v 0.896855 1.496333 0.006034
v -0.224620 2.496304 0.337095
v -0.019242 2.475635 0.321471
v -0.203799 2.820788 0.482432
v 0.063184 2.753489 0.436401
v -1.573060 0.975259 0.897419
v -1.629526 0.797386 0.839518
v -1.790804 0.973906 0.820560
v -1.748476 0.812770 0.796054
v -1.686672 0.635117 0.751256
v -1.703819 0.957413 0.912258
v -0.088155 1.778106 0.497307
v 0.018417 2.138088 -0.222060
v -0.029591 2.518045 0.018613
v -0.055438 2.290313 0.583904
v -0.127265 2.531105 0.204506
v -0.112425 2.436746 0.453374
v -0.081135 2.859638 0.293176
v -0.060370 2.713937 0.624407
v -0.066182 2.837612 0.481860
v 0.012947 2.676456 0.230036
v 0.029253 2.551198 0.521794
v -0.206360 2.599719 0.557621
v -0.224727 2.724814 0.263582
v -0.231664 2.663643 0.412575
v 0.036720 2.613884 0.374665
v -0.107617 2.708714 0.226264
v -0.086359 2.565487 0.559741
v 0.364779 1.742054 -0.036168
v -0.599615 1.444857 0.212778
v 0.479790 1.859579 -0.266849
v 0.179252 1.177613 0.198379
v -0.188663 -0.001335 -0.064274
v -0.332438 0.004493 0.058779
v -0.359565 0.004010 -0.190918
v -0.224473 -0.001025 -0.206296
v 0.370363 0.041990 0.024573
v 0.292866 0.033891 -0.047058
v 0.377580 0.039739 -0.014329
v 0.344656 0.036132 -0.038762
v 0.312048 0.040886 0.038140
v 0.104761 0.874785 -0.094101
v 0.159537 0.649663 -0.020875
v 0.221458 0.352383 -0.010028
v 0.272594 0.326293 0.162590
v 0.243716 0.568849 0.247411
v 0.233768 0.843453 0.294397
v 0.391667 0.336453 0.127048
v 0.444368 0.591813 0.190513
v 0.512385 0.926693 0.213685
v 0.360251 0.910392 -0.077680
v 0.340984 0.655356 -0.005785
v 0.329650 0.355055 0.000011
v 0.401288 0.351166 0.046333
v 0.461397 0.651832 0.069876
v 0.530426 0.941166 0.026143
v -0.168498 0.849070 0.309375
v -0.139574 0.560678 0.237183
v -0.132551 0.320774 0.194767
v -0.417610 0.307954 0.185399
v -0.431601 0.583237 0.189226
v -0.457251 0.839660 0.187634
v -0.454644 0.361141 -0.077155
v -0.466219 0.637048 -0.074559
v -0.474132 0.860495 -0.089027
v -0.077683 0.824360 -0.120942
v -0.123308 0.623300 -0.122008
v -0.163827 0.410681 -0.108632
vn -0.1099 0.5211 -0.8464
vn -0.0716 0.0543 -0.9960
vn 0.4904 -0.1765 -0.8534
vn -0.2291 -0.2806 0.9321
vn 0.9343 0.0971 0.3429
vn 0.5712 0.8048 0.1616
vn 0.0291 0.9169 -0.3979
vn 0.6632 -0.1946 0.7228
vn -0.1268 0.9222 0.3654
vn -0.1780 0.5032 -0.8456
vn -0.0937 -0.4622 0.8818
vn -0.3705 -0.8880 -0.2724
vn -0.2106 -0.0910 0.9733
vn 0.3540 -0.8333 0.4247
vn 0.9531 -0.2336 0.1926
vn 0.0271 -0.7040 0.7097
vn 0.0706 0.9841 0.1628
vn 0.0368 -0.7128 0.7004
vn -0.6674 0.2884 0.6866
vn 0.9253 0.0187 -0.3789
vn -0.8768 -0.0012 -0.4809
vn 0.5878 0.7573 0.2848
vn 0.6006 0.1362 0.7878
vn -0.1453 -0.5546 0.8193
vn -0.0818 0.6197 0.7806
vn -0.4835 -0.5626 0.6706
vn -0.4160 -0.4940 -0.7635
vn 0.7998 0.5583 -0.2206
vn -0.1459 -0.6449 0.7502
vn 0.4992 0.8008 -0.3310
vn 0.5627 0.0702 0.8237
vn 0.7246 0.3816 -0.5739
vn -0.4124 -0.2511 -0.8757
vn -0.2201 -0.6310 -0.7439
vn -0.6277 0.1647 -0.7608
vn -0.5839 0.0857 0.8073
vn 0.7747 0.1722 0.6085
vn 0.9724 -0.0093 -0.2332
vn 0.3932 0.5877 0.7071
vn 0.0773 0.9957 -0.0514
vn -0.3459 0.8734 0.3427
vn 0.3508 0.9157 0.1959
vn 0.0559 0.9703 0.2354
vn -0.9560 0.1044 0.2743
vn 0.3375 -0.3620 0.8689
vn -0.2940 0.4929 -0.8189
vn -0.6833 -0.5992 -0.4172
vn -0.8641 -0.4527 0.2200
vn 0.0730 0.0998 -0.9923
vn -0.9724 0.2331 -0.0093
vn 0.0730 0.8309 0.5516
vn 0.4368 0.7495 0.4974
vn -0.3142 0.8765 0.3649
vn 0.9882 -0.1456 0.0478
vn 0.5645 0.0332 0.8248
vn -0.8161 0.0517 -0.5755
vn -0.3138 -0.7085 -0.6321
vn -0.7639 -0.5123 -0.3924
vn 0.8586 0.3561 0.3687
vn -0.5438 -0.6891 -0.4790
vn -0.1762 0.9791 0.1015
vn 0.7810 0.5581 0.2804
vn 0.6627 0.3486 0.6628
vn -0.4386 0.1951 -0.8772
vn 0.0980 0.1859 0.9777
vn -0.6325 -0.6262 0.4559
vn -0.2418 0.4746 0.8463
vn -0.7251 0.6238 0.2917
vn -0.3695 -0.8545 -0.3651
vn 0.2208 0.4306 0.8751
vn 0.5516 0.6150 0.5634
vn 0.2457 0.3626 0.8990
vn -0.4698 0.5541 -0.6872
vn -0.8608 0.3969 0.3184
vn 0.9581 -0.2540 0.1320
vn 0.5246 0.6954 0.4911
vn 0.2357 0.4227 -0.8751
vn -0.1934 -0.2992 0.9344
vn 0.5016 0.8555 0.1287
vn 0.2758 0.9609 -0.0252
vn -0.1161 0.5185 0.8471
vn -0.4185 -0.1238 0.8997
vn 0.0396 0.7485 -0.6620
vn -0.0923 -0.5737 0.8138
vn 0.0217 0.1527 -0.9880
vn 0.9497 -0.2889 -0.1209
vn -0.9997 -0.0075 -0.0218
vn -0.1781 0.2040 -0.9626
vn 0.1040 -0.6020 0.7917
vn -0.9954 -0.0230 0.0932
vn 0.9481 -0.2445 -0.2032
vn 0.1646 -0.9708 -0.1743
vn 0.2291 -0.5031 0.8333
vn -0.9416 -0.2368 0.2393
vn -0.9522 -0.2923 0.0892
vn 0.9835 -0.0769 -0.1637
vn -0.1322 0.2573 -0.9572
vn -0.0358 -0.9993 0.0062
vn 0.0376 -0.9965 0.0749
vn 0.2708 -0.3435 0.8993
vn 0.1089 0.1319 -0.9853
vn 0.9860 -0.1076 0.1276
vn 0.5565 0.1220 -0.8219
vn 0.4813 -0.4653 -0.7429
vn 0.5251 -0.2575 -0.8111
vn 0.5347 -0.0386 -0.8442
vn 0.9955 -0.0055 0.0944
vn 0.9754 -0.2122 0.0597
vn 0.9770 -0.2065 0.0527
vn 0.0881 -0.5139 -0.8533
vn 0.0955 -0.2815 -0.9548
vn 0.0870 -0.0204 -0.9960
vn 0.2160 0.3425 0.9144
vn 0.3014 -0.1373 0.9436
vn 0.2934 -0.2857 0.9123
vn -0.9294 -0.1113 0.3520
vn -0.9509 -0.1079 0.2902
vn -0.9501 -0.1933 0.2447
vn -0.1614 -0.3839 -0.9092
vn -0.1082 -0.0218 -0.9939
vn -0.1228 -0.0146 -0.9923
vn 0.9060 0.2643 0.3307
vn 0.9898 -0.0535 0.1317
vn 0.9967 -0.0713 -0.0390
vn -0.9819 -0.0202 -0.1882
vn -0.9941 -0.0667 0.0855
vn -0.9910 -0.0474 0.1253
vn -0.5403 0.2246 0.8110
vn -0.2804 -0.1509 0.9479
vn -0.1000 -0.0930 0.9906
vn 0.5939 -0.0662 0.8018
vn 0.3612 0.3442 -0.8666
vn -0.1858 -0.4889 -0.8523
vn -0.2049 -0.8288 -0.5207
vn -0.8338 -0.1377 -0.5347
vt 0.882279 0.260085
vt 0.436089 0.649131
vt 0.117664 0.305524
vt 0.860974 0.338762
vt 0.079561 0.383885
vt 0.278417 0.728674
vt 0.111517 0.716819
vt 0.301243 0.337859
vt 0.232943 0.387386
vt 0.111517 0.662267
vt 0.671871 0.687525
vt 0.175114 0.511099
vt 0.930991 0.712692
vt 0.796001 0.259488
vt 0.522181 0.649131
vt 0.719621 0.316178
vt 0.801110 0.310020
vt 0.698705 0.366293
vt 0.510656 0.337024
vt 0.023033 0.717149
vt 0.367094 0.730187
vt 0.507246 0.358198
vt 0.018976 0.695717
vt 0.103380 0.570561
vt 0.268725 0.266033
vt 0.143950 0.273348
vt 0.098384 0.631539
vt 0.301351 0.259488
vt 0.128079 0.559933
vt 0.480438 0.333338
vt 0.348619 0.714075
vt 0.604958 0.268707
vt 0.031105 0.562973
vt 0.043818 0.625810
vt 0.721993 0.282954
vt 0.329365 0.336360
vt 0.302724 0.713315
vt 0.030374 0.549675
vt 0.582817 0.260846
vt 0.875347 0.642471
vt 0.380514 0.272320
vt 0.124895 0.517524
vt 0.813390 0.578569
vt 0.436089 0.332372
vt 0.956124 0.588845
vt 0.367094 0.692599
vt 0.367094 0.522797
vt 0.871643 0.594841
vt 0.398138 0.324445
vt 0.043891 0.509019
vt 0.796001 0.641153
vt 0.491075 0.268473
vt 0.032114 0.534706
vt 0.552485 0.259488
vt 0.331566 0.259909
vt 0.129819 0.544964
vt 0.339759 0.337186
vt 0.913298 0.588845
vt 0.317584 0.707220
vt 0.845734 0.463378
vt 0.311567 0.646434
vt 0.944558 0.353645
vt 0.398138 0.462439
vt 0.920230 0.354337
vt 0.870057 0.463781
vt 0.929709 0.374247
vt 0.357807 0.478584
vt 0.347994 0.663056
vt 0.944558 0.373825
vt 0.097076 0.285727
vt 0.229765 0.651022
vt 0.758050 0.297859
vt 0.168317 0.651042
vt 0.119329 0.272208
vt 0.094178 0.643292
vt 0.222768 0.636959
vt 0.746872 0.283208
vt 0.174541 0.636975
vt 0.045175 0.638147
vt 0.080672 0.327471
vt 0.442544 0.673801
vt 0.734592 0.339187
vt 0.484453 0.673801
vt 0.070725 0.319456
vt 0.218298 0.685110
vt 0.751374 0.331694
vt 0.180611 0.684911
vt 0.062412 0.356092
vt 0.455575 0.702696
vt 0.724658 0.367821
vt 0.476314 0.702696
vt 0.043357 0.357400
vt 0.210236 0.723455
vt 0.742364 0.370210
vt 0.189444 0.723462
vt 0.050281 0.367705
vt 0.444942 0.715336
vt 0.810526 0.722486
vt 0.728448 0.380153
vt 0.853695 0.722486
vt 0.487920 0.715336
vt 0.018975 0.371756
vt 0.232852 0.738567
vt 0.796001 0.739289
vt 0.758050 0.386241
vt 0.861207 0.739289
vt 0.167770 0.738589
vt 0.100634 0.583041
vt 0.712300 0.698974
vt 0.802197 0.701507
vt 0.098640 0.600731
vt 0.972705 0.287497
vt 0.747907 0.696578
vt 0.052045 0.577939
vt 0.849895 0.701507
vt 0.710445 0.675017
vt 0.050052 0.595630
vt 0.746553 0.677603
vt 0.924885 0.287497
vt 0.797725 0.671259
vt 0.981025 0.313792
vt 0.715147 0.730011
vt 0.752543 0.724602
vt 0.973919 0.259495
vt 0.967002 0.332143
vt 0.934252 0.306472
vt 0.715328 0.644023
vt 0.847669 0.671259
vt 0.923848 0.259495
vt 0.753088 0.649631
vt 0.920230 0.324823
vt 0.068284 0.665533
vt 0.630362 0.705721
vt 0.712055 0.621316
vt 0.966165 0.712391
vt 0.519769 0.388732
vt 0.031375 0.663704
vt 0.592215 0.695479
vt 0.581836 0.620019
vt 0.750017 0.621843
vt 0.569690 0.667298
vt 0.581066 0.387596
vt 0.531739 0.516092
vt 0.642835 0.625048
vt 0.273616 0.509019
vt 0.070982 0.710642
vt 0.316851 0.732164
vt 0.684917 0.393810
vt 0.816625 0.338063
vt 0.644803 0.392946
vt 0.602800 0.367236
vt 0.671871 0.661666
vt 0.181146 0.386242
vt 0.855113 0.259897
vt 0.463196 0.649131
vt 0.077903 0.567886
vt 0.078993 0.554271
vt 0.322237 0.720993
vt 0.070972 0.628379
vt 0.834014 0.651825
vt 0.084160 0.512738
vt 0.838315 0.596273
vt 0.320679 0.509019
vt 0.080733 0.539302
vt 0.857365 0.464048
vt 0.931678 0.351118
vt 0.335174 0.488977
vt 0.367094 0.673623
vt 0.939667 0.384854
vt 0.199177 0.651021
vt 0.069465 0.641494
vt 0.198664 0.632807
vt 0.464209 0.672968
vt 0.199604 0.684998
vt 0.465945 0.702696
vt 0.199840 0.723459
vt 0.466714 0.715004
vt 0.832520 0.720483
vt 0.200177 0.738589
vt 0.829423 0.735282
vt 0.076340 0.580490
vt 0.826046 0.701507
vt 0.074346 0.598181
vt 0.948795 0.287497
vt 0.823088 0.670800
vt 0.959731 0.307426
vt 0.948976 0.259488
vt 0.941524 0.331189
vt 0.875347 0.491894
vt 0.391834 0.432095
vt 0.377694 0.448634
vt 0.915590 0.478791
vt 0.834644 0.488373
vt 0.326937 0.619279
vt 0.938593 0.478810
vt 0.335216 0.632947
vt 0.358601 0.463790
vt 0.348787 0.648138
vt 0.927106 0.463378
vt 0.854274 0.489560
vt 0.315804 0.619182
vt 0.212520 0.321385
vt 0.644070 0.318501
vt 0.018976 0.592450
vt 0.663817 0.276029
vt 0.129819 0.597828
vt 0.224108 0.269832
vt 0.051049 0.586785
vt 0.728499 0.676310
vt 0.099637 0.591886
vt 0.730103 0.697776
vt 0.734390 0.646904
vt 0.920230 0.314550
vt 0.981025 0.324065
vt 0.732426 0.727384
vt 0.950683 0.319044
vt 0.753088 0.663662
vt 0.920230 0.273492
vt 0.977552 0.273492
vt 0.752543 0.710647
vt 0.709822 0.714522
vt 0.796001 0.686127
vt 0.853178 0.686127
vt 0.709822 0.659561
vt 0.824792 0.685890
vt 0.948939 0.273488
vt 0.731549 0.661651
vt 0.730449 0.712624
vt 0.878850 0.297575
vt 0.096711 0.342677
vt 0.285581 0.357771
vt 0.108549 0.696221
vt 0.804979 0.293594
vt 0.708839 0.350023
vt 0.668288 0.644023
vt 0.436089 0.526409
vt 0.145034 0.385321
vt 0.919159 0.607821
vt 0.247387 0.613831
vt 0.970304 0.416607
vt 0.947808 0.608020
vt 0.704660 0.516092
vt 0.970304 0.403829
vt 0.750017 0.516884
vt 0.618892 0.516092
vt 0.920230 0.404231
vt 0.273616 0.612878
vt 0.642836 0.516847
vt 0.938584 0.415207
vt 0.924281 0.443436
vt 0.075400 0.489812
vt 0.855524 0.444402
vt 0.531739 0.629156
vt 0.934913 0.435583
vt 0.576828 0.496673
vt 0.931440 0.443424
vt 0.848383 0.444289
vt 0.592622 0.497116
vt 0.934913 0.440184
vt 0.586164 0.496977
vt 0.517161 0.630156
vt 0.920230 0.438606
vt 0.085942 0.490043
vt 0.585376 0.420489
vt 0.510472 0.551446
vt 0.582586 0.444044
vt 0.504260 0.576063
vt 0.581388 0.469636
vt 0.508131 0.602400
vt 0.103684 0.463024
vt 0.477645 0.604263
vt 0.118194 0.440373
vt 0.454885 0.581958
vt 0.129418 0.415411
vt 0.438452 0.557360
vt 0.876897 0.417052
vt 0.081901 0.462161
vt 0.882279 0.393921
vt 0.081653 0.438865
vt 0.880271 0.363315
vt 0.079604 0.408162
vt 0.633117 0.418943
vt 0.615530 0.444447
vt 0.600997 0.469910
vt 0.614559 0.469949
vt 0.862035 0.416811
vt 0.638313 0.444473
vt 0.857648 0.390640
vt 0.666106 0.417503
vt 0.844696 0.362700
vt 0.167770 0.536691
vt 0.914144 0.688660
vt 0.182151 0.561697
vt 0.913298 0.663084
vt 0.189855 0.582503
vt 0.915415 0.641729
vt 0.680787 0.549268
vt 0.966165 0.641681
vt 0.684678 0.573659
vt 0.963812 0.665813
vt 0.684995 0.596421
vt 0.964308 0.688427
vt 0.584794 0.548886
vt 0.729850 0.550060
vt 0.578610 0.572959
vt 0.734888 0.574452
vt 0.569690 0.595426
vt 0.736445 0.597214
vt 0.642060 0.590920
vt 0.247172 0.543053
vt 0.641052 0.570535
vt 0.248998 0.562413
vt 0.635978 0.552556
vt 0.245738 0.579271
s 0
usemtl Material
f 89/203/1 7/19/1 13/32/1 90/205/1
f 8/22/2 7/19/2 89/203/2 58/151/2 54/142/2 53/136/2
f 6/18/3 56/148/3 57/150/3
f 3/8/4 106/231/4 4/9/4 59/153/4 88/202/4
f 6/17/5 107/233/5 5/14/5 60/154/5 1/1/5 105/229/5 2/4/5 56/149/5
f 61/156/6 13/33/6 16/38/6 62/157/6
f 5/16/7 14/35/7 31/77/7 29/72/7
f 88/202/8 1/3/8 10/26/8 91/207/8
f 67/164/9 21/53/9 20/50/9 65/161/9
f 13/32/10 7/19/10 12/30/10 16/39/10
f 3/8/11 9/25/11 11/28/11 15/36/11
f 55/147/12 3/6/12 15/37/12 63/158/12
f 66/162/13 19/48/13 17/40/13 65/160/13
f 23/57/14 22/55/14 17/41/14 19/49/14
f 83/191/15 82/190/15 25/63/15 26/67/15
f 15/36/16 11/28/16 22/55/16 23/57/16
f 62/157/17 16/38/17 21/53/17 67/164/17
f 69/169/18 26/66/18 25/64/18 68/166/18
f 87/200/19 84/193/19 24/60/19 68/165/19
f 86/197/20 83/191/20 26/67/20 69/167/20
f 84/194/21 85/196/21 27/68/21 24/61/21
f 70/170/22 29/73/22 31/78/22 71/172/22
f 70/170/23 28/71/23 34/85/23 73/174/23
f 10/26/24 1/3/24 28/70/24 30/74/24
f 64/159/25 10/27/25 30/75/25 71/171/25
f 34/84/26 32/80/26 36/88/26 38/92/26
f 60/155/27 5/15/27 33/83/27 72/173/27
f 5/16/28 29/72/28 35/86/28 33/82/28
f 28/70/29 1/3/29 32/80/29 34/84/29
f 37/90/30 39/94/30 43/105/30 41/99/30
f 73/174/31 34/85/31 38/93/31 75/176/31
f 33/82/32 35/86/32 39/94/32 37/90/32
f 72/173/33 33/83/33 37/91/33 74/175/33
f 76/178/34 41/100/34 43/106/34 77/180/34
f 74/175/35 37/91/35 41/101/35 76/177/35
f 38/92/36 36/88/36 40/96/36 42/102/36
f 75/176/37 38/93/37 42/103/37 77/179/37
f 102/226/38 97/218/38 51/129/38 81/187/38
f 91/206/39 10/27/39 45/111/39 93/210/39
f 90/204/40 13/33/40 46/114/40 92/208/40
f 61/156/41 9/24/41 44/108/41 78/181/41
f 64/159/42 14/34/42 47/117/42 79/183/42
f 96/216/43 94/213/43 50/126/43 80/186/43
f 101/225/44 99/222/44 48/120/44 80/185/44
f 104/228/45 98/220/45 49/123/45 95/215/45
f 103/227/46 100/224/46 50/127/46 94/212/46
f 8/23/47 53/137/47 52/132/47
f 8/23/48 52/132/48 4/10/48 106/232/48 3/7/48 55/146/48 7/20/48
f 54/142/49 58/151/49 89/203/49 5/16/49 107/234/49 6/18/49 57/150/49
f 100/223/50 101/225/50 80/185/50 50/128/50
f 95/214/51 96/216/51 80/186/51 48/121/51
f 10/27/52 64/159/52 79/183/52 45/111/52
f 13/33/53 61/156/53 78/181/53 46/114/53
f 98/219/54 102/226/54 81/187/54 49/124/54
f 39/95/55 75/176/55 77/179/55 43/107/55
f 36/89/56 74/175/56 76/177/56 40/97/56
f 40/98/57 76/178/57 77/180/57 42/104/57
f 32/81/58 72/173/58 74/175/58 36/89/58
f 35/87/59 73/174/59 75/176/59 39/95/59
f 1/2/60 60/155/60 72/173/60 32/81/60
f 14/34/61 64/159/61 71/171/61 31/79/61
f 29/73/62 70/170/62 73/174/62 35/87/62
f 28/71/63 70/170/63 71/172/63 30/76/63
f 85/196/64 86/198/64 69/168/64 27/68/64
f 82/189/65 87/200/65 68/165/65 25/65/65
f 27/69/66 69/169/66 68/166/66 24/62/66
f 11/29/67 62/157/67 67/164/67 22/56/67
f 18/43/68 66/162/68 65/160/68 20/51/68
f 7/21/69 55/147/69 63/158/69 12/31/69
f 22/56/70 67/164/70 65/161/70 17/42/70
f 9/24/71 61/156/71 62/157/71 11/29/71
f 19/48/72 66/162/72 87/200/72 82/189/72
f 12/30/73 18/44/73 20/52/73 21/54/73 16/39/73
f 66/163/74 18/47/74 84/194/74 87/201/74
f 23/57/75 19/49/75 82/190/75 83/191/75
f 49/125/76 81/188/76 96/216/76 95/214/76
f 97/217/77 103/227/77 94/212/77 51/130/77
f 99/221/78 104/228/78 95/215/78 48/122/78
f 81/188/79 51/131/79 94/213/79 96/216/79
f 14/34/80 90/204/80 92/208/80 47/117/80
f 9/24/81 91/206/81 93/210/81 44/108/81
f 3/8/82 88/202/82 91/207/82 9/25/82
f 5/16/83 89/203/83 90/205/83 14/35/83
f 44/109/84 93/211/84 104/228/84 99/221/84
f 47/118/85 92/209/85 103/227/85 97/217/85
f 45/112/86 79/184/86 102/226/86 98/219/86
f 46/115/87 78/182/87 101/225/87 100/223/87
f 92/209/88 46/116/88 100/224/88 103/227/88
f 93/211/89 45/113/89 98/220/89 104/228/89
f 78/182/90 44/110/90 99/222/90 101/225/90
f 79/184/91 47/119/91 97/218/91 102/226/91
f 59/152/92 4/11/92 52/133/92 53/138/92 54/141/92 108/235/92
f 136/298/93 110/241/93 109/238/93 135/296/93
f 121/271/94 120/269/94 114/253/94 117/261/94
f 139/304/95 111/244/95 110/242/95 136/297/95
f 135/295/96 109/239/96 112/247/96 144/314/96
f 144/313/97 112/248/97 111/245/97 139/303/97
f 111/246/98 112/249/98 109/240/98 110/243/98
f 117/262/99 114/254/99 116/259/99 115/256/99 113/250/99
f 124/277/100 121/270/100 117/263/100 113/251/100
f 120/268/101 129/284/101 116/260/101 114/255/101
f 130/286/102 124/276/102 113/252/102 115/257/102
f 129/284/103 130/285/103 115/258/103 116/260/103
f 57/150/104 56/148/104 132/289/104 127/282/104
f 127/282/105 132/289/105 131/287/105 128/283/105
f 128/283/106 131/287/106 130/285/106 129/284/106
f 56/149/107 2/4/107 126/280/107 132/290/107
f 132/290/108 126/280/108 125/278/108 131/288/108
f 131/288/109 125/278/109 124/276/109 130/286/109
f 54/142/110 57/150/110 127/282/110 118/264/110
f 118/264/111 127/282/111 128/283/111 119/266/111
f 119/266/112 128/283/112 129/284/112 120/268/112
f 2/5/113 108/237/113 123/274/113 126/281/113
f 126/281/114 123/274/114 122/272/114 125/279/114
f 125/279/115 122/272/115 121/270/115 124/277/115
f 108/236/116 54/143/116 118/265/116 123/275/116
f 123/275/117 118/265/117 119/267/117 122/273/117
f 122/273/118 119/267/118 120/269/118 121/271/118
f 54/144/119 142/309/119 141/307/119 53/139/119
f 142/309/120 143/311/120 140/305/120 141/307/120
f 143/311/121 144/313/121 139/303/121 140/305/121
f 4/12/122 133/291/122 142/310/122 54/145/122
f 133/291/123 134/293/123 143/312/123 142/310/123
f 134/293/124 135/295/124 144/314/124 143/312/124
f 53/140/125 141/308/125 138/301/125 52/134/125
f 141/308/126 140/306/126 137/299/126 138/301/126
f 140/306/127 139/304/127 136/297/127 137/299/127
f 52/135/128 138/302/128 133/292/128 4/13/128
f 138/302/129 137/300/129 134/294/129 133/292/129
f 137/300/130 136/298/130 135/296/130 134/294/130
f 105/230/131 1/3/131 88/202/131 59/153/131 108/237/131 2/5/131
f 86/199/132 85/195/132 83/192/132
f 83/192/133 85/195/133 18/45/133 23/58/133
f 63/158/134 15/37/134 23/59/134 18/46/134 12/31/134
f 84/194/135 18/47/135 85/196/135
l 52 106
