# Blender 3.3.1
# www.blender.org
mtllib monstruo_3_grande_caminar641.mtl
o monstruo_grande
v 0.398187 1.993840 0.271616
v 0.513106 1.172311 0.122409
v -0.700341 1.757229 0.185125
v -0.315815 1.099581 0.188885
v 0.609853 2.279813 -0.043793
v 0.563805 1.584554 -0.233414
v -0.824715 1.997635 -0.227963
v -0.722947 1.725997 -0.294915
v -0.314365 2.385618 0.482938
v 0.241143 2.273007 0.466715
v -0.447830 2.354615 0.579056
v -1.176114 2.020084 -0.078600
v -0.297646 2.559706 0.128785
v 0.255159 2.417876 0.206439
v -1.023839 1.883328 0.077298
v -0.461389 2.632469 0.148975
v -0.793751 2.267238 0.590157
v -1.463816 1.928334 0.185816
v -1.189211 1.974484 0.391148
v -0.979432 2.580620 0.324894
v -0.648871 2.669446 0.215343
v -0.519414 2.311906 0.553545
v -1.153020 1.898351 0.078650
v -1.758016 0.673018 0.872975
v -1.632879 0.654630 0.921690
v -1.610990 0.475210 0.724275
v -1.687370 0.486434 0.694541
v 0.382377 2.184693 0.456024
v 0.521370 2.381564 0.221321
v 0.352116 2.299416 0.468100
v 0.386197 2.435572 0.247094
v 0.645605 1.873986 0.304093
v 0.794012 1.966182 0.155020
v 0.658525 1.951763 0.355776
v 0.765293 2.068759 0.222806
v 0.838627 1.650658 0.301381
v 0.928094 1.684600 0.238276
v 0.907640 1.624787 0.377214
v 0.994089 1.666929 0.313116
v 0.857561 1.501081 0.342745
v 1.039563 1.586860 0.212849
v 0.935785 1.414959 0.501830
v 1.206160 1.542289 0.299437
v -0.148370 2.434250 0.509755
v 0.061957 2.404997 0.497632
v -0.138606 2.540448 0.265005
v 0.063464 2.507922 0.255317
v -0.091954 2.741526 0.664096
v 0.113446 2.675071 0.627953
v -0.097623 2.861186 0.413158
v 0.106856 2.795141 0.376211
v -0.510134 1.160126 -0.033248
v -0.383039 1.211050 -0.234415
v -0.041247 1.278077 -0.334183
v -0.754317 1.809080 -0.032134
v 0.546530 1.161048 -0.113471
v 0.332878 1.164022 -0.248262
v 0.005630 1.527052 -0.321809
v -0.030598 1.147593 0.190210
v 0.473151 2.078811 0.167487
v -0.301854 2.446784 0.358881
v -0.463452 2.604661 0.421919
v -0.960499 1.960700 -0.036421
v 0.227355 2.403058 0.366786
v -0.823839 2.494265 0.549740
v -1.366683 2.074478 0.430241
v -0.616094 2.590736 0.411578
v -1.707378 0.663106 0.927708
v -1.627772 0.363964 0.610309
v 0.482660 2.293687 0.374942
v 0.371614 2.412420 0.381100
v 0.686827 1.899406 0.183955
v 0.746641 2.020742 0.327560
v 0.882144 1.670379 0.269248
v 0.950828 1.645126 0.344885
v 0.932956 1.544936 0.257979
v 1.042763 1.482035 0.365096
v -0.144837 2.486184 0.386017
v 0.060621 2.458056 0.375692
v -0.126024 2.802995 0.540284
v 0.141683 2.733700 0.500951
v -1.510695 0.979568 0.861095
v -1.566868 0.803633 0.797289
v -1.726486 0.981574 0.779224
v -1.684651 0.820941 0.751437
v -1.622901 0.644083 0.703529
v -1.641879 0.962238 0.872371
v -0.066155 1.758524 0.513111
v 0.103822 2.135806 -0.192040
v 0.066399 2.512869 0.074967
v -0.008840 2.264879 0.628618
v -0.041526 2.523067 0.258139
v -0.038554 2.418455 0.502643
v 0.003528 2.845842 0.356594
v 0.011547 2.690352 0.683574
v 0.011721 2.818151 0.544590
v 0.098721 2.662818 0.291654
v 0.102901 2.528904 0.579348
v -0.133307 2.579853 0.609003
v -0.138861 2.714753 0.319301
v -0.152993 2.648470 0.465343
v 0.116035 2.595854 0.434620
v -0.021323 2.697589 0.285113
v -0.013943 2.544073 0.613850
v 0.477592 1.680876 -0.035466
v -0.590865 1.475146 0.205406
v 0.584315 1.800042 -0.226520
v 0.158363 1.182866 0.212650
v -0.262069 0.100906 -0.388494
v -0.411924 0.068696 -0.277126
v -0.426451 0.138982 -0.517619
v -0.290689 0.141320 -0.526258
v 0.268314 0.026244 0.190275
v 0.196890 0.011087 0.113573
v 0.278779 0.020383 0.152480
v 0.247971 0.014330 0.125854
v 0.208927 0.026169 0.199021
v 0.068815 0.861792 -0.051034
v 0.110883 0.632776 0.051741
v 0.139428 0.335036 0.107333
v 0.166214 0.328307 0.287107
v 0.153500 0.581800 0.336521
v 0.167514 0.860011 0.347313
v 0.289120 0.322668 0.266935
v 0.361262 0.578238 0.304179
v 0.459068 0.904328 0.283116
v 0.322990 0.869638 -0.016654
v 0.288937 0.623687 0.088988
v 0.245368 0.329254 0.131388
v 0.310007 0.325261 0.187054
v 0.398683 0.619316 0.179118
v 0.489239 0.894541 0.095245
v -0.226185 0.805484 0.221001
v -0.216068 0.532687 0.071739
v -0.225569 0.315651 -0.044257
v -0.509274 0.333700 -0.074034
v -0.500156 0.596951 0.015197
v -0.504549 0.847529 0.083830
v -0.518519 0.466416 -0.309555
v -0.507413 0.726020 -0.220254
v -0.498382 0.923606 -0.181072
v -0.104959 0.856929 -0.193678
v -0.163892 0.691423 -0.248342
v -0.222790 0.493853 -0.307064
vn -0.0517 0.5711 -0.8193
vn -0.0369 0.1054 -0.9937
vn 0.5137 -0.2531 -0.8198
vn -0.2736 -0.3022 0.9131
vn 0.9328 -0.0839 0.3505
vn 0.6011 0.7677 0.2223
vn 0.1458 0.9144 -0.3775
vn 0.5393 -0.2496 0.8043
vn -0.1228 0.9041 0.4093
vn -0.1599 0.5700 -0.8059
vn -0.1275 -0.5079 0.8519
vn -0.3772 -0.8591 -0.3461
vn -0.2230 -0.1377 0.9650
vn 0.3408 -0.8597 0.3806
vn 0.9467 -0.2450 0.2090
vn 0.0257 -0.7565 0.6535
vn 0.1011 0.9716 0.2140
vn 0.0157 -0.7308 0.6824
vn -0.6817 0.2752 0.6779
vn 0.9341 0.0221 -0.3563
vn -0.8652 0.0174 -0.5011
vn 0.5628 0.7308 0.3864
vn 0.3876 0.1484 0.9098
vn -0.2834 -0.5485 0.7866
vn -0.1332 0.6062 0.7841
vn -0.6313 -0.4867 0.6038
vn -0.2190 -0.5334 -0.8170
vn 0.8316 0.5533 -0.0468
vn -0.3297 -0.6252 0.7074
vn 0.4857 0.7771 -0.4002
vn 0.2749 0.2289 0.9338
vn 0.8408 0.3393 -0.4218
vn -0.1465 -0.3940 -0.9073
vn 0.0780 -0.8204 -0.5665
vn -0.3996 -0.1417 -0.9057
vn -0.7994 0.1624 0.5785
vn 0.5393 0.4501 0.7117
vn 0.9803 -0.0126 -0.1970
vn 0.3720 0.5266 0.7644
vn 0.1387 0.9903 0.0059
vn -0.3018 0.8745 0.3796
vn 0.3975 0.8837 0.2470
vn 0.0589 0.9622 0.2660
vn -0.9634 0.1071 0.2457
vn 0.3040 -0.3893 0.8695
vn -0.2617 0.5162 -0.8155
vn -0.6666 -0.5045 -0.5488
vn -0.9056 -0.3957 0.1527
vn 0.1417 0.1415 -0.9797
vn -0.9693 0.2424 -0.0405
vn 0.0645 0.8137 0.5777
vn 0.4448 0.7054 0.5518
vn -0.2665 0.8733 0.4079
vn 0.9846 -0.1568 0.0774
vn 0.2925 0.3294 0.8978
vn -0.6132 -0.2379 -0.7532
vn -0.0340 -0.8821 -0.4698
vn -0.6013 -0.6104 -0.5156
vn 0.6940 0.4629 0.5514
vn -0.4065 -0.7186 -0.5643
vn -0.1190 0.9868 0.1102
vn 0.6917 0.5645 0.4505
vn 0.5655 0.2818 0.7751
vn -0.4164 0.2206 -0.8820
vn 0.0759 0.1600 0.9842
vn -0.6471 -0.6334 0.4244
vn -0.2485 0.4363 0.8648
vn -0.7227 0.6175 0.3105
vn -0.3683 -0.8289 -0.4209
vn 0.2155 0.3786 0.9001
vn 0.5670 0.5554 0.6084
vn 0.2372 0.3286 0.9142
vn -0.4570 0.5999 -0.6567
vn -0.8647 0.3869 0.3202
vn 0.9561 -0.2645 0.1264
vn 0.5161 0.6745 0.5279
vn 0.2698 0.4436 -0.8547
vn -0.2264 -0.3233 0.9188
vn 0.5070 0.8448 0.1710
vn 0.3389 0.9403 0.0313
vn -0.1209 0.5016 0.8566
vn -0.4598 -0.1398 0.8769
vn 0.1936 0.7646 -0.6147
vn -0.1264 -0.5965 0.7926
vn 0.0560 0.1793 -0.9822
vn 0.9495 -0.2997 -0.0929
vn -0.9972 0.0045 -0.0740
vn -0.1465 0.2324 -0.9615
vn 0.0604 -0.6204 0.7819
vn -0.9984 -0.0100 0.0558
vn 0.9564 -0.2439 -0.1608
vn 0.1297 -0.9589 -0.2524
vn 0.1484 -0.7354 0.6611
vn -0.9734 -0.1751 0.1480
vn -0.9626 -0.2632 -0.0642
vn 0.9914 -0.0771 -0.1060
vn -0.0486 0.5302 -0.8465
vn -0.0018 -0.9598 -0.2807
vn 0.0279 -0.9848 0.1713
vn 0.1437 -0.2577 0.9555
vn 0.2257 0.0201 -0.9740
vn 0.9571 -0.1307 0.2586
vn 0.6526 0.0189 -0.7574
vn 0.4669 -0.5800 -0.6675
vn 0.5609 -0.3981 -0.7259
vn 0.6221 -0.2044 -0.7558
vn 0.9833 -0.0994 0.1525
vn 0.9475 -0.2657 0.1781
vn 0.9362 -0.2849 0.2057
vn 0.0574 -0.5803 -0.8124
vn 0.1491 -0.3952 -0.9064
vn 0.1999 -0.1649 -0.9659
vn 0.1889 0.4276 0.8840
vn 0.1913 -0.0187 0.9814
vn 0.1492 -0.1828 0.9717
vn -0.9530 0.0173 0.3025
vn -0.9794 -0.0177 0.2012
vn -0.9877 -0.0724 0.1386
vn -0.1471 -0.2263 -0.9629
vn -0.0186 0.2535 -0.9672
vn -0.0345 0.3126 -0.9492
vn 0.9012 0.1323 0.4128
vn 0.9665 -0.1887 0.1741
vn 0.9867 -0.1624 -0.0009
vn -0.9633 0.1062 -0.2465
vn -0.9999 0.0089 0.0058
vn -0.9986 0.0224 0.0475
vn -0.5872 0.1052 0.8026
vn -0.3642 -0.3665 0.8562
vn -0.1926 -0.3793 0.9050
vn 0.5312 -0.1819 0.8275
vn 0.3839 0.3639 -0.8487
vn -0.1752 -0.4578 -0.8716
vn -0.1900 -0.7900 -0.5829
vn -0.8239 -0.1187 -0.5541
vt 0.882279 0.260085
vt 0.436089 0.649131
vt 0.117664 0.305524
vt 0.860974 0.338762
vt 0.079561 0.383885
vt 0.278417 0.728674
vt 0.111517 0.716819
vt 0.301243 0.337859
vt 0.232943 0.387386
vt 0.111517 0.662267
vt 0.671871 0.687525
vt 0.175114 0.511099
vt 0.930991 0.712692
vt 0.796001 0.259488
vt 0.522181 0.649131
vt 0.719621 0.316178
vt 0.801110 0.310020
vt 0.698705 0.366293
vt 0.510656 0.337024
vt 0.023033 0.717149
vt 0.367094 0.730187
vt 0.507246 0.358198
vt 0.018976 0.695717
vt 0.103380 0.570561
vt 0.268725 0.266033
vt 0.143950 0.273348
vt 0.098384 0.631539
vt 0.301351 0.259488
vt 0.128079 0.559933
vt 0.480438 0.333338
vt 0.348619 0.714075
vt 0.604958 0.268707
vt 0.031105 0.562973
vt 0.043818 0.625810
vt 0.721993 0.282954
vt 0.329365 0.336360
vt 0.302724 0.713315
vt 0.030374 0.549675
vt 0.582817 0.260846
vt 0.875347 0.642471
vt 0.380514 0.272320
vt 0.124895 0.517524
vt 0.813390 0.578569
vt 0.436089 0.332372
vt 0.956124 0.588845
vt 0.367094 0.692599
vt 0.367094 0.522797
vt 0.871643 0.594841
vt 0.398138 0.324445
vt 0.043891 0.509019
vt 0.796001 0.641153
vt 0.491075 0.268473
vt 0.032114 0.534706
vt 0.552485 0.259488
vt 0.331566 0.259909
vt 0.129819 0.544964
vt 0.339759 0.337186
vt 0.913298 0.588845
vt 0.317584 0.707220
vt 0.845734 0.463378
vt 0.311567 0.646434
vt 0.944558 0.353645
vt 0.398138 0.462439
vt 0.920230 0.354337
vt 0.870057 0.463781
vt 0.929709 0.374247
vt 0.357807 0.478584
vt 0.347994 0.663056
vt 0.944558 0.373825
vt 0.097076 0.285727
vt 0.229765 0.651022
vt 0.758050 0.297859
vt 0.168317 0.651042
vt 0.119329 0.272208
vt 0.094178 0.643292
vt 0.222768 0.636959
vt 0.746872 0.283208
vt 0.174541 0.636975
vt 0.045175 0.638147
vt 0.080672 0.327471
vt 0.442544 0.673801
vt 0.734592 0.339187
vt 0.484453 0.673801
vt 0.070725 0.319456
vt 0.218298 0.685110
vt 0.751374 0.331694
vt 0.180611 0.684911
vt 0.062412 0.356092
vt 0.455575 0.702696
vt 0.724658 0.367821
vt 0.476314 0.702696
vt 0.043357 0.357400
vt 0.210236 0.723455
vt 0.742364 0.370210
vt 0.189444 0.723462
vt 0.050281 0.367705
vt 0.444942 0.715336
vt 0.810526 0.722486
vt 0.728448 0.380153
vt 0.853695 0.722486
vt 0.487920 0.715336
vt 0.018975 0.371756
vt 0.232852 0.738567
vt 0.796001 0.739289
vt 0.758050 0.386241
vt 0.861207 0.739289
vt 0.167770 0.738589
vt 0.100634 0.583041
vt 0.712300 0.698974
vt 0.802197 0.701507
vt 0.098640 0.600731
vt 0.972705 0.287497
vt 0.747907 0.696578
vt 0.052045 0.577939
vt 0.849895 0.701507
vt 0.710445 0.675017
vt 0.050052 0.595630
vt 0.746553 0.677603
vt 0.924885 0.287497
vt 0.797725 0.671259
vt 0.981025 0.313792
vt 0.715147 0.730011
vt 0.752543 0.724602
vt 0.973919 0.259495
vt 0.967002 0.332143
vt 0.934252 0.306472
vt 0.715328 0.644023
vt 0.847669 0.671259
vt 0.923848 0.259495
vt 0.753088 0.649631
vt 0.920230 0.324823
vt 0.068284 0.665533
vt 0.630362 0.705721
vt 0.712055 0.621316
vt 0.966165 0.712391
vt 0.519769 0.388732
vt 0.031375 0.663704
vt 0.592215 0.695479
vt 0.581836 0.620019
vt 0.750017 0.621843
vt 0.569690 0.667298
vt 0.581066 0.387596
vt 0.531739 0.516092
vt 0.642835 0.625048
vt 0.273616 0.509019
vt 0.070982 0.710642
vt 0.316851 0.732164
vt 0.684917 0.393810
vt 0.816625 0.338063
vt 0.644803 0.392946
vt 0.602800 0.367236
vt 0.671871 0.661666
vt 0.181146 0.386242
vt 0.855113 0.259897
vt 0.463196 0.649131
vt 0.077903 0.567886
vt 0.078993 0.554271
vt 0.322237 0.720993
vt 0.070972 0.628379
vt 0.834014 0.651825
vt 0.084160 0.512738
vt 0.838315 0.596273
vt 0.320679 0.509019
vt 0.080733 0.539302
vt 0.857365 0.464048
vt 0.931678 0.351118
vt 0.335174 0.488977
vt 0.367094 0.673623
vt 0.939667 0.384854
vt 0.199177 0.651021
vt 0.069465 0.641494
vt 0.198664 0.632807
vt 0.464209 0.672968
vt 0.199604 0.684998
vt 0.465945 0.702696
vt 0.199840 0.723459
vt 0.466714 0.715004
vt 0.832520 0.720483
vt 0.200177 0.738589
vt 0.829423 0.735282
vt 0.076340 0.580490
vt 0.826046 0.701507
vt 0.074346 0.598181
vt 0.948795 0.287497
vt 0.823088 0.670800
vt 0.959731 0.307426
vt 0.948976 0.259488
vt 0.941524 0.331189
vt 0.875347 0.491894
vt 0.391834 0.432095
vt 0.377694 0.448634
vt 0.915590 0.478791
vt 0.834644 0.488373
vt 0.326937 0.619279
vt 0.938593 0.478810
vt 0.335216 0.632947
vt 0.358601 0.463790
vt 0.348787 0.648138
vt 0.927106 0.463378
vt 0.854274 0.489560
vt 0.315804 0.619182
vt 0.212520 0.321385
vt 0.644070 0.318501
vt 0.018976 0.592450
vt 0.663817 0.276029
vt 0.129819 0.597828
vt 0.224108 0.269832
vt 0.051049 0.586785
vt 0.728499 0.676310
vt 0.099637 0.591886
vt 0.730103 0.697776
vt 0.734390 0.646904
vt 0.920230 0.314550
vt 0.981025 0.324065
vt 0.732426 0.727384
vt 0.950683 0.319044
vt 0.753088 0.663662
vt 0.920230 0.273492
vt 0.977552 0.273492
vt 0.752543 0.710647
vt 0.709822 0.714522
vt 0.796001 0.686127
vt 0.853178 0.686127
vt 0.709822 0.659561
vt 0.824792 0.685890
vt 0.948939 0.273488
vt 0.731549 0.661651
vt 0.730449 0.712624
vt 0.878850 0.297575
vt 0.096711 0.342677
vt 0.285581 0.357771
vt 0.108549 0.696221
vt 0.804979 0.293594
vt 0.708839 0.350023
vt 0.668288 0.644023
vt 0.436089 0.526409
vt 0.145034 0.385321
vt 0.919159 0.607821
vt 0.247387 0.613831
vt 0.970304 0.416607
vt 0.947808 0.608020
vt 0.704660 0.516092
vt 0.970304 0.403829
vt 0.750017 0.516884
vt 0.618892 0.516092
vt 0.920230 0.404231
vt 0.273616 0.612878
vt 0.642836 0.516847
vt 0.938584 0.415207
vt 0.924281 0.443436
vt 0.075400 0.489812
vt 0.855524 0.444402
vt 0.531739 0.629156
vt 0.934913 0.435583
vt 0.576828 0.496673
vt 0.931440 0.443424
vt 0.848383 0.444289
vt 0.592622 0.497116
vt 0.934913 0.440184
vt 0.586164 0.496977
vt 0.517161 0.630156
vt 0.920230 0.438606
vt 0.085942 0.490043
vt 0.585376 0.420489
vt 0.510472 0.551446
vt 0.582586 0.444044
vt 0.504260 0.576063
vt 0.581388 0.469636
vt 0.508131 0.602400
vt 0.103684 0.463024
vt 0.477645 0.604263
vt 0.118194 0.440373
vt 0.454885 0.581958
vt 0.129418 0.415411
vt 0.438452 0.557360
vt 0.876897 0.417052
vt 0.081901 0.462161
vt 0.882279 0.393921
vt 0.081653 0.438865
vt 0.880271 0.363315
vt 0.079604 0.408162
vt 0.633117 0.418943
vt 0.615530 0.444447
vt 0.600997 0.469910
vt 0.614559 0.469949
vt 0.862035 0.416811
vt 0.638313 0.444473
vt 0.857648 0.390640
vt 0.666106 0.417503
vt 0.844696 0.362700
vt 0.167770 0.536691
vt 0.914144 0.688660
vt 0.182151 0.561697
vt 0.913298 0.663084
vt 0.189855 0.582503
vt 0.915415 0.641729
vt 0.680787 0.549268
vt 0.966165 0.641681
vt 0.684678 0.573659
vt 0.963812 0.665813
vt 0.684995 0.596421
vt 0.964308 0.688427
vt 0.584794 0.548886
vt 0.729850 0.550060
vt 0.578610 0.572959
vt 0.734888 0.574452
vt 0.569690 0.595426
vt 0.736445 0.597214
vt 0.642060 0.590920
vt 0.247172 0.543053
vt 0.641052 0.570535
vt 0.248998 0.562413
vt 0.635978 0.552556
vt 0.245738 0.579271
s 0
usemtl Material
f 89/203/1 7/19/1 13/32/1 90/205/1
f 8/22/2 7/19/2 89/203/2 58/151/2 54/142/2 53/136/2
f 6/18/3 56/148/3 57/150/3
f 3/8/4 106/231/4 4/9/4 59/153/4 88/202/4
f 6/17/5 107/233/5 5/14/5 60/154/5 1/1/5 105/229/5 2/4/5 56/149/5
f 61/156/6 13/33/6 16/38/6 62/157/6
f 5/16/7 14/35/7 31/77/7 29/72/7
f 88/202/8 1/3/8 10/26/8 91/207/8
f 67/164/9 21/53/9 20/50/9 65/161/9
f 13/32/10 7/19/10 12/30/10 16/39/10
f 3/8/11 9/25/11 11/28/11 15/36/11
f 55/147/12 3/6/12 15/37/12 63/158/12
f 66/162/13 19/48/13 17/40/13 65/160/13
f 23/57/14 22/55/14 17/41/14 19/49/14
f 83/191/15 82/190/15 25/63/15 26/67/15
f 15/36/16 11/28/16 22/55/16 23/57/16
f 62/157/17 16/38/17 21/53/17 67/164/17
f 69/169/18 26/66/18 25/64/18 68/166/18
f 87/200/19 84/193/19 24/60/19 68/165/19
f 86/197/20 83/191/20 26/67/20 69/167/20
f 84/194/21 85/196/21 27/68/21 24/61/21
f 70/170/22 29/73/22 31/78/22 71/172/22
f 70/170/23 28/71/23 34/85/23 73/174/23
f 10/26/24 1/3/24 28/70/24 30/74/24
f 64/159/25 10/27/25 30/75/25 71/171/25
f 34/84/26 32/80/26 36/88/26 38/92/26
f 60/155/27 5/15/27 33/83/27 72/173/27
f 5/16/28 29/72/28 35/86/28 33/82/28
f 28/70/29 1/3/29 32/80/29 34/84/29
f 37/90/30 39/94/30 43/105/30 41/99/30
f 73/174/31 34/85/31 38/93/31 75/176/31
f 33/82/32 35/86/32 39/94/32 37/90/32
f 72/173/33 33/83/33 37/91/33 74/175/33
f 76/178/34 41/100/34 43/106/34 77/180/34
f 74/175/35 37/91/35 41/101/35 76/177/35
f 38/92/36 36/88/36 40/96/36 42/102/36
f 75/176/37 38/93/37 42/103/37 77/179/37
f 102/226/38 97/218/38 51/129/38 81/187/38
f 91/206/39 10/27/39 45/111/39 93/210/39
f 90/204/40 13/33/40 46/114/40 92/208/40
f 61/156/41 9/24/41 44/108/41 78/181/41
f 64/159/42 14/34/42 47/117/42 79/183/42
f 96/216/43 94/213/43 50/126/43 80/186/43
f 101/225/44 99/222/44 48/120/44 80/185/44
f 104/228/45 98/220/45 49/123/45 95/215/45
f 103/227/46 100/224/46 50/127/46 94/212/46
f 8/23/47 53/137/47 52/132/47
f 8/23/48 52/132/48 4/10/48 106/232/48 3/7/48 55/146/48 7/20/48
f 54/142/49 58/151/49 89/203/49 5/16/49 107/234/49 6/18/49 57/150/49
f 100/223/50 101/225/50 80/185/50 50/128/50
f 95/214/51 96/216/51 80/186/51 48/121/51
f 10/27/52 64/159/52 79/183/52 45/111/52
f 13/33/53 61/156/53 78/181/53 46/114/53
f 98/219/54 102/226/54 81/187/54 49/124/54
f 39/95/55 75/176/55 77/179/55 43/107/55
f 36/89/56 74/175/56 76/177/56 40/97/56
f 40/98/57 76/178/57 77/180/57 42/104/57
f 32/81/58 72/173/58 74/175/58 36/89/58
f 35/87/59 73/174/59 75/176/59 39/95/59
f 1/2/60 60/155/60 72/173/60 32/81/60
f 14/34/61 64/159/61 71/171/61 31/79/61
f 29/73/62 70/170/62 73/174/62 35/87/62
f 28/71/63 70/170/63 71/172/63 30/76/63
f 85/196/64 86/198/64 69/168/64 27/68/64
f 82/189/65 87/200/65 68/165/65 25/65/65
f 27/69/66 69/169/66 68/166/66 24/62/66
f 11/29/67 62/157/67 67/164/67 22/56/67
f 18/43/68 66/162/68 65/160/68 20/51/68
f 7/21/69 55/147/69 63/158/69 12/31/69
f 22/56/70 67/164/70 65/161/70 17/42/70
f 9/24/71 61/156/71 62/157/71 11/29/71
f 19/48/72 66/162/72 87/200/72 82/189/72
f 12/30/73 18/44/73 20/52/73 21/54/73 16/39/73
f 66/163/74 18/47/74 84/194/74 87/201/74
f 23/57/75 19/49/75 82/190/75 83/191/75
f 49/125/76 81/188/76 96/216/76 95/214/76
f 97/217/77 103/227/77 94/212/77 51/130/77
f 99/221/78 104/228/78 95/215/78 48/122/78
f 81/188/79 51/131/79 94/213/79 96/216/79
f 14/34/80 90/204/80 92/208/80 47/117/80
f 9/24/81 91/206/81 93/210/81 44/108/81
f 3/8/82 88/202/82 91/207/82 9/25/82
f 5/16/83 89/203/83 90/205/83 14/35/83
f 44/109/84 93/211/84 104/228/84 99/221/84
f 47/118/85 92/209/85 103/227/85 97/217/85
f 45/112/86 79/184/86 102/226/86 98/219/86
f 46/115/87 78/182/87 101/225/87 100/223/87
f 92/209/88 46/116/88 100/224/88 103/227/88
f 93/211/89 45/113/89 98/220/89 104/228/89
f 78/182/90 44/110/90 99/222/90 101/225/90
f 79/184/91 47/119/91 97/218/91 102/226/91
f 59/152/92 4/11/92 52/133/92 53/138/92 54/141/92 108/235/92
f 136/298/93 110/241/93 109/238/93 135/296/93
f 121/271/94 120/269/94 114/253/94 117/261/94
f 139/304/95 111/244/95 110/242/95 136/297/95
f 135/295/96 109/239/96 112/247/96 144/314/96
f 144/313/97 112/248/97 111/245/97 139/303/97
f 111/246/98 112/249/98 109/240/98 110/243/98
f 117/262/99 114/254/99 116/259/99 115/256/99 113/250/99
f 124/277/100 121/270/100 117/263/100 113/251/100
f 120/268/101 129/284/101 116/260/101 114/255/101
f 130/286/102 124/276/102 113/252/102 115/257/102
f 129/284/103 130/285/103 115/258/103 116/260/103
f 57/150/104 56/148/104 132/289/104 127/282/104
f 127/282/105 132/289/105 131/287/105 128/283/105
f 128/283/106 131/287/106 130/285/106 129/284/106
f 56/149/107 2/4/107 126/280/107 132/290/107
f 132/290/108 126/280/108 125/278/108 131/288/108
f 131/288/109 125/278/109 124/276/109 130/286/109
f 54/142/110 57/150/110 127/282/110 118/264/110
f 118/264/111 127/282/111 128/283/111 119/266/111
f 119/266/112 128/283/112 129/284/112 120/268/112
f 2/5/113 108/237/113 123/274/113 126/281/113
f 126/281/114 123/274/114 122/272/114 125/279/114
f 125/279/115 122/272/115 121/270/115 124/277/115
f 108/236/116 54/143/116 118/265/116 123/275/116
f 123/275/117 118/265/117 119/267/117 122/273/117
f 122/273/118 119/267/118 120/269/118 121/271/118
f 54/144/119 142/309/119 141/307/119 53/139/119
f 142/309/120 143/311/120 140/305/120 141/307/120
f 143/311/121 144/313/121 139/303/121 140/305/121
f 4/12/122 133/291/122 142/310/122 54/145/122
f 133/291/123 134/293/123 143/312/123 142/310/123
f 134/293/124 135/295/124 144/314/124 143/312/124
f 53/140/125 141/308/125 138/301/125 52/134/125
f 141/308/126 140/306/126 137/299/126 138/301/126
f 140/306/127 139/304/127 136/297/127 137/299/127
f 52/135/128 138/302/128 133/292/128 4/13/128
f 138/302/129 137/300/129 134/294/129 133/292/129
f 137/300/130 136/298/130 135/296/130 134/294/130
f 105/230/131 1/3/131 88/202/131 59/153/131 108/237/131 2/5/131
f 86/199/132 85/195/132 83/192/132
f 83/192/133 85/195/133 18/45/133 23/58/133
f 63/158/134 15/37/134 23/59/134 18/46/134 12/31/134
f 84/194/135 18/47/135 85/196/135
l 52 106
