# Blender 3.3.1
# www.blender.org
mtllib monstruo_3_caminar650.mtl
o monstruo_grande
v 0.468972 1.977215 0.313242
v 0.517469 1.140087 0.109534
v -0.651120 1.798205 0.177274
v -0.317396 1.146158 0.207199
v 0.725272 2.257993 0.024534
v 0.596998 1.562300 -0.243151
v -0.752932 2.010666 -0.248688
v -0.675957 1.736927 -0.318346
v -0.253147 2.385416 0.483855
v 0.298078 2.264332 0.492019
v -0.388971 2.355189 0.576165
v -1.108093 2.038395 -0.102770
v -0.226263 2.562060 0.131573
v 0.332731 2.405775 0.230211
v -0.958501 1.910957 0.058179
v -0.389250 2.637536 0.149553
v -0.735624 2.270059 0.576948
v -1.401175 1.943321 0.158383
v -1.129132 1.986948 0.363824
v -0.912904 2.589665 0.313712
v -0.577982 2.676595 0.213120
v -0.460029 2.312763 0.547721
v -1.088055 1.919310 0.054355
v -1.691738 0.679098 0.827074
v -1.566654 0.660804 0.875960
v -1.540131 0.490515 0.671163
v -1.616479 0.501682 0.641325
v 0.428659 2.172057 0.490388
v 0.600011 2.363230 0.274877
v 0.406563 2.287750 0.499884
v 0.462321 2.419427 0.282103
v 0.700154 1.862743 0.385092
v 0.883372 1.936833 0.271304
v 0.710939 1.938027 0.435466
v 0.839979 2.048881 0.320579
v 0.877245 1.638740 0.466004
v 0.980255 1.666834 0.426064
v 0.921678 1.627289 0.561325
v 1.022847 1.663413 0.518712
v 0.883943 1.497712 0.533313
v 1.095000 1.571324 0.448562
v 0.913357 1.439286 0.719231
v 1.230169 1.548268 0.584949
v -0.089156 2.432323 0.515029
v 0.120315 2.401137 0.508563
v -0.073134 2.539777 0.271205
v 0.132091 2.504800 0.267034
v -0.033189 2.735490 0.676551
v 0.172267 2.667566 0.643599
v -0.032234 2.859688 0.427687
v 0.172408 2.792128 0.393766
v -0.509744 1.185451 -0.015868
v -0.382468 1.205381 -0.221748
v -0.041608 1.277719 -0.333144
v -0.702801 1.844045 -0.047622
v 0.543884 1.141467 -0.128930
v 0.328360 1.153313 -0.258018
v 0.030567 1.525584 -0.320672
v -0.032484 1.146139 0.197607
v 0.561413 2.058279 0.218704
v -0.236993 2.447522 0.360657
v -0.397670 2.607070 0.421527
v -0.896513 1.990492 -0.057257
v 0.294856 2.393387 0.389401
v -0.761935 2.498009 0.540835
v -1.305748 2.087991 0.402642
v -0.550195 2.595242 0.407692
v -1.641334 0.667709 0.881736
v -1.554097 0.384037 0.552365
v 0.539190 2.278880 0.423260
v 0.437141 2.398896 0.414291
v 0.770918 1.873938 0.279684
v 0.804395 2.003929 0.422152
v 0.928036 1.655576 0.444896
v 0.972284 1.644698 0.539876
v 0.980409 1.532243 0.467778
v 1.054952 1.490689 0.609921
v -0.082216 2.485391 0.391557
v 0.123773 2.454615 0.386948
v -0.063969 2.799523 0.553179
v 0.203829 2.728180 0.518253
v -1.449832 0.990147 0.830446
v -1.502397 0.816187 0.758648
v -1.665053 0.992340 0.747206
v -1.620130 0.833406 0.712636
v -1.554893 0.659895 0.657634
v -1.580766 0.970056 0.839902
v -0.022936 1.756608 0.513940
v 0.197298 2.135865 -0.183605
v 0.140433 2.511893 0.087513
v 0.038817 2.264896 0.636527
v 0.024697 2.522103 0.267082
v 0.020303 2.415213 0.510303
v 0.070035 2.844258 0.372853
v 0.069352 2.682902 0.697301
v 0.073795 2.813168 0.560699
v 0.165378 2.660927 0.306513
v 0.161208 2.522613 0.592088
v -0.075003 2.575417 0.617515
v -0.073209 2.715056 0.329713
v -0.090814 2.646739 0.474561
v 0.178290 2.591773 0.448811
v 0.045219 2.697321 0.297896
v 0.043884 2.538231 0.624367
v 0.544698 1.652251 -0.020487
v -0.569389 1.520570 0.199773
v 0.647907 1.775236 -0.221595
v 0.161840 1.152368 0.210512
v -0.291253 0.223804 -0.469565
v -0.433023 0.154864 -0.364261
v -0.463942 0.308000 -0.561718
v -0.329324 0.312213 -0.580999
v 0.256572 0.001399 0.113128
v 0.185680 -0.012315 0.035475
v 0.267345 -0.003836 0.075349
v 0.236735 -0.009415 0.048354
v 0.197084 0.001208 0.121309
v 0.063460 0.848029 -0.068341
v 0.107234 0.619344 0.012813
v 0.129695 0.317780 0.042805
v 0.157245 0.296100 0.221325
v 0.150136 0.544994 0.291063
v 0.170074 0.821081 0.324113
v 0.279901 0.289569 0.199937
v 0.357774 0.539939 0.257309
v 0.461325 0.864343 0.258105
v 0.318555 0.849693 -0.039970
v 0.285268 0.603766 0.047620
v 0.235613 0.307959 0.065658
v 0.300434 0.298160 0.120385
v 0.395457 0.590108 0.136105
v 0.487435 0.865217 0.069362
v -0.234003 0.855190 0.283010
v -0.231794 0.565940 0.104390
v -0.244963 0.361421 -0.054093
v -0.527643 0.389558 -0.077884
v -0.514291 0.641487 0.058092
v -0.512101 0.888932 0.145878
v -0.535045 0.563908 -0.287585
v -0.518553 0.797212 -0.149662
v -0.505859 0.932684 -0.118172
v -0.115037 0.859373 -0.124027
v -0.176014 0.758416 -0.180209
v -0.238857 0.583901 -0.282312
vn -0.0201 0.5815 -0.8133
vn -0.0119 0.0985 -0.9951
vn 0.4808 -0.2857 -0.8290
vn -0.3088 -0.2678 0.9126
vn 0.9280 -0.2044 0.3114
vn 0.6080 0.7561 0.2421
vn 0.2051 0.9098 -0.3608
vn 0.4647 -0.2572 0.8473
vn -0.1229 0.8988 0.4208
vn -0.1359 0.5862 -0.7987
vn -0.1489 -0.5285 0.8358
vn -0.3649 -0.8700 -0.3316
vn -0.2424 -0.1574 0.9573
vn 0.3238 -0.8721 0.3669
vn 0.9494 -0.2372 0.2058
vn 0.0357 -0.7900 0.6120
vn 0.1103 0.9676 0.2273
vn 0.0237 -0.7593 0.6503
vn -0.6906 0.2332 0.6846
vn 0.9362 0.0538 -0.3474
vn -0.8617 0.0241 -0.5068
vn 0.5313 0.7272 0.4347
vn 0.2442 0.1573 0.9569
vn -0.3666 -0.5323 0.7631
vn -0.1715 0.6197 0.7659
vn -0.7906 -0.3912 0.4711
vn -0.0755 -0.5580 -0.8264
vn 0.8312 0.5518 0.0677
vn -0.4343 -0.6076 0.6650
vn 0.5780 0.7303 -0.3642
vn 0.0219 0.3525 0.9356
vn 0.9348 0.2846 -0.2125
vn 0.0898 -0.5127 -0.8538
vn 0.2383 -0.8911 -0.3862
vn -0.1274 -0.2938 -0.9473
vn -0.9323 0.2074 0.2963
vn 0.3108 0.5730 0.7583
vn 0.9848 -0.0186 -0.1729
vn 0.3384 0.5287 0.7784
vn 0.1465 0.9890 0.0202
vn -0.3061 0.8733 0.3791
vn 0.4023 0.8768 0.2632
vn 0.0631 0.9567 0.2843
vn -0.9675 0.1127 0.2265
vn 0.2815 -0.4086 0.8682
vn -0.2380 0.5346 -0.8109
vn -0.7208 -0.4875 -0.4928
vn -0.9312 -0.3202 0.1741
vn 0.1559 0.1686 -0.9733
vn -0.9658 0.2534 -0.0558
vn 0.0602 0.8025 0.5936
vn 0.4221 0.7028 0.5726
vn -0.2694 0.8729 0.4067
vn 0.9809 -0.1689 0.0960
vn 0.0215 0.4700 0.8824
vn -0.3704 -0.3730 -0.8507
vn 0.1048 -0.9416 -0.3201
vn -0.4554 -0.6702 -0.5861
vn 0.5389 0.5311 0.6538
vn -0.3180 -0.7351 -0.5987
vn -0.0956 0.9912 0.0913
vn 0.6207 0.5726 0.5356
vn 0.4961 0.2594 0.8286
vn -0.4138 0.2513 -0.8750
vn 0.0658 0.1185 0.9908
vn -0.6388 -0.6624 0.3914
vn -0.2670 0.4270 0.8639
vn -0.7219 0.6198 0.3076
vn -0.3625 -0.8587 -0.3623
vn 0.2002 0.3601 0.9112
vn 0.5601 0.5415 0.6270
vn 0.2299 0.3270 0.9166
vn -0.4392 0.6159 -0.6540
vn -0.8651 0.3849 0.3216
vn 0.9563 -0.2592 0.1354
vn 0.5114 0.6595 0.5509
vn 0.2930 0.4564 -0.8401
vn -0.2500 -0.3378 0.9074
vn 0.5117 0.8363 0.1968
vn 0.3584 0.9320 0.0535
vn -0.1377 0.5106 0.8487
vn -0.4837 -0.1357 0.8646
vn 0.2686 0.7642 -0.5864
vn -0.1524 -0.6107 0.7770
vn 0.0826 0.1940 -0.9775
vn 0.9480 -0.3103 -0.0701
vn -0.9955 0.0138 -0.0938
vn -0.1184 0.2517 -0.9605
vn 0.0344 -0.6337 0.7729
vn -0.9995 -0.0016 0.0325
vn 0.9614 -0.2437 -0.1278
vn 0.0504 -0.9787 -0.1992
vn 0.1736 -0.8650 0.4708
vn -0.9751 -0.1733 0.1383
vn -0.9702 -0.2251 -0.0898
vn 0.9863 -0.0645 -0.1519
vn -0.0633 0.7351 -0.6750
vn -0.0633 -0.7930 -0.6060
vn 0.0250 -0.9877 0.1545
vn 0.1428 -0.2983 0.9437
vn 0.2240 0.0568 -0.9729
vn 0.9567 -0.1475 0.2510
vn 0.6509 0.0427 -0.7579
vn 0.4420 -0.5560 -0.7040
vn 0.5420 -0.3558 -0.7613
vn 0.6133 -0.1540 -0.7747
vn 0.9848 -0.1252 0.1204
vn 0.9451 -0.2921 0.1464
vn 0.9307 -0.3205 0.1761
vn 0.0311 -0.5468 -0.8367
vn 0.1259 -0.3299 -0.9356
vn 0.1907 -0.0873 -0.9778
vn 0.2151 0.3728 0.9026
vn 0.2023 -0.0965 0.9746
vn 0.1498 -0.2638 0.9529
vn -0.9484 0.0163 0.3168
vn -0.9765 -0.0257 0.2138
vn -0.9883 -0.0631 0.1392
vn -0.1473 -0.3726 -0.9162
vn 0.0063 0.3459 -0.9382
vn -0.0190 0.5099 -0.8600
vn 0.9001 0.1733 0.3999
vn 0.9539 -0.2465 0.1709
vn 0.9835 -0.1792 -0.0263
vn -0.9611 0.0908 -0.2608
vn -0.9993 0.0355 0.0108
vn -0.9981 0.0316 0.0528
vn -0.5662 0.2407 0.7883
vn -0.3550 -0.4157 0.8374
vn -0.1987 -0.5231 0.8288
vn 0.4957 -0.2495 0.8319
vn 0.3835 0.4070 -0.8290
vn -0.1614 -0.4526 -0.8770
vn -0.1531 -0.7992 -0.5813
vn -0.8256 -0.1131 -0.5527
vt 0.461701 0.809397
vt 0.301930 0.729761
vt 0.094158 0.499911
vt 0.498737 0.648456
vt 0.250869 0.553264
vt 0.714874 0.752530
vt 0.627854 0.740386
vt 0.227533 0.339544
vt 0.300362 0.438253
vt 0.625828 0.633709
vt 0.338991 0.679376
vt 0.653754 0.621457
vt 0.189641 0.785401
vt 0.531284 0.815038
vt 0.232114 0.729761
vt 0.806952 0.326283
vt 0.527824 0.712310
vt 0.703640 0.331352
vt 0.725736 0.123548
vt 0.557184 0.740386
vt 0.714874 0.681901
vt 0.693091 0.138725
vt 0.558638 0.706064
vt 0.944491 0.391302
vt 0.108931 0.369345
vt 0.090202 0.443431
vt 0.952837 0.467016
vt 0.108059 0.346292
vt 0.960024 0.371234
vt 0.653754 0.712739
vt 0.761990 0.055860
vt 0.265996 0.788213
vt 0.829683 0.188590
vt 0.886815 0.394232
vt 0.909606 0.471204
vt 0.826550 0.267021
vt 0.659457 0.749480
vt 0.206417 0.267620
vt 0.238389 0.812575
vt 0.882743 0.373659
vt 0.837846 0.166681
vt 0.102618 0.289588
vt 0.957957 0.321520
vt 0.918648 0.216117
vt 0.803322 0.012950
vt 0.106348 0.638847
vt 0.232551 0.755661
vt 0.798789 0.485160
vt 0.965752 0.239402
vt 0.153968 0.222285
vt 0.894228 0.312474
vt 0.856067 0.102710
vt 0.881967 0.351902
vt 0.842627 0.144082
vt 0.107159 0.331692
vt 0.958812 0.358201
vt 0.199778 0.246429
vt 0.138792 0.619338
vt 0.232114 0.797406
vt 0.967580 0.012950
vt 0.753483 0.682459
vt 0.843831 0.469074
vt 0.256421 0.022764
vt 0.824689 0.472884
vt 0.987050 0.016155
vt 0.832147 0.505580
vt 0.295109 0.018166
vt 0.782932 0.707368
vt 0.843831 0.503254
vt 0.076417 0.467161
vt 0.958695 0.494573
vt 0.833773 0.298242
vt 0.909847 0.503107
vt 0.076958 0.454690
vt 0.951531 0.482650
vt 0.837149 0.281767
vt 0.912926 0.487172
vt 0.064432 0.532285
vt 0.298790 0.687460
vt 0.825577 0.362572
vt 0.264894 0.686125
vt 0.056614 0.518895
vt 0.959622 0.549977
vt 0.837123 0.350740
vt 0.929664 0.555276
vt 0.051257 0.577890
vt 0.291936 0.641182
vt 0.824256 0.407314
vt 0.275162 0.640522
vt 0.035793 0.577862
vt 0.964581 0.612577
vt 0.838997 0.411720
vt 0.948088 0.615681
vt 0.039898 0.592711
vt 0.301778 0.620707
vt 0.403076 0.772170
vt 0.830596 0.428615
vt 0.403076 0.737417
vt 0.267017 0.619338
vt 0.012950 0.593438
vt 0.987050 0.637067
vt 0.428919 0.781443
vt 0.856067 0.440612
vt 0.428919 0.728949
vt 0.935424 0.646785
vt 0.945356 0.412724
vt 0.357115 0.854737
vt 0.331665 0.779032
vt 0.948027 0.441601
vt 0.799629 0.752473
vt 0.327972 0.853161
vt 0.906904 0.416128
vt 0.370069 0.779032
vt 0.684668 0.778429
vt 0.909575 0.445005
vt 0.655249 0.778999
vt 0.799629 0.791035
vt 0.330193 0.729131
vt 0.557184 0.775635
vt 0.363063 0.804932
vt 0.331684 0.807874
vt 0.754247 0.751428
vt 0.586563 0.768755
vt 0.566112 0.815056
vt 0.689281 0.828405
vt 0.370405 0.729131
vt 0.754247 0.791805
vt 0.657717 0.824383
vt 0.595492 0.808176
vt 0.327830 0.637821
vt 0.590400 0.642651
vt 0.164818 0.789976
vt 0.357235 0.619338
vt 0.642851 0.190721
vt 0.562581 0.649581
vt 0.406824 0.626953
vt 0.080449 0.619338
vt 0.646201 0.239681
vt 0.727583 0.656002
vt 0.597847 0.731399
vt 0.712829 0.722239
vt 0.658284 0.323708
vt 0.527919 0.666449
vt 0.661748 0.291537
vt 0.680225 0.245582
vt 0.377645 0.696957
vt 0.285191 0.477898
vt 0.483372 0.812325
vt 0.280072 0.728266
vt 0.924330 0.393087
vt 0.921760 0.373660
vt 0.678504 0.727397
vt 0.268491 0.812575
vt 0.930826 0.465310
vt 0.923786 0.327561
vt 0.941993 0.227167
vt 0.764056 0.466512
vt 0.919524 0.351927
vt 0.977463 0.013354
vt 0.833186 0.466512
vt 0.317617 0.012950
vt 0.798789 0.722800
vt 0.839639 0.522681
vt 0.934403 0.500152
vt 0.932138 0.484309
vt 0.281656 0.689101
vt 0.944784 0.554368
vt 0.283549 0.640852
vt 0.956335 0.614129
vt 0.284323 0.620942
vt 0.399765 0.754789
vt 0.961112 0.640376
vt 0.422297 0.755187
vt 0.926130 0.414426
vt 0.350867 0.779032
vt 0.928801 0.443303
vt 0.799629 0.771754
vt 0.350773 0.728949
vt 0.557184 0.796361
vt 0.753483 0.771844
vt 0.595492 0.787450
vt 0.985581 0.067358
vt 0.238180 0.070710
vt 0.259592 0.052321
vt 0.138792 0.821791
vt 0.953366 0.057503
vt 0.765454 0.639660
vt 0.120235 0.821584
vt 0.772730 0.660154
vt 0.283154 0.037949
vt 0.784440 0.682652
vt 0.128680 0.843910
vt 0.970110 0.058056
vt 0.758353 0.637393
vt 0.180368 0.432154
vt 0.759258 0.257498
vt 0.884976 0.446549
vt 0.828099 0.241547
vt 0.971226 0.428512
vt 0.101516 0.405509
vt 0.908240 0.430567
vt 0.669958 0.778714
vt 0.946692 0.427163
vt 0.342544 0.853949
vt 0.673120 0.826722
vt 0.582140 0.817526
vt 0.570535 0.766286
vt 0.348248 0.806122
vt 0.576699 0.792002
vt 0.653753 0.802281
vt 0.776512 0.794925
vt 0.776512 0.748700
vt 0.327830 0.829868
vt 0.363063 0.830170
vt 0.327830 0.753980
vt 0.373865 0.753980
vt 0.689281 0.803194
vt 0.351093 0.753886
vt 0.776117 0.771930
vt 0.671321 0.802907
vt 0.345899 0.829874
vt 0.457498 0.727404
vt 0.165986 0.548054
vt 0.260364 0.376248
vt 0.625887 0.695531
vt 0.520555 0.743605
vt 0.734596 0.339638
vt 0.406824 0.703049
vt 0.012950 0.651015
vt 0.277407 0.507014
vt 0.206214 0.619338
vt 0.706517 0.466512
vt 0.399765 0.822801
vt 0.181517 0.620770
vt 0.619265 0.470337
vt 0.422433 0.807343
vt 0.582936 0.466512
vt 0.458892 0.202188
vt 0.422433 0.843958
vt 0.727583 0.468029
vt 0.460639 0.221880
vt 0.402692 0.843997
vt 0.717439 0.778459
vt 0.429089 0.593438
vt 0.518160 0.466685
vt 0.070962 0.817001
vt 0.726094 0.791097
vt 0.457498 0.298878
vt 0.715181 0.783741
vt 0.523936 0.466512
vt 0.458951 0.311476
vt 0.719061 0.788282
vt 0.458165 0.306435
vt 0.058766 0.817583
vt 0.726094 0.778429
vt 0.431598 0.585369
vt 0.599953 0.261833
vt 0.080449 0.668491
vt 0.542336 0.274386
vt 0.076079 0.728305
vt 0.500395 0.287212
vt 0.064936 0.773359
vt 0.389801 0.564275
vt 0.039540 0.774208
vt 0.356388 0.547019
vt 0.031995 0.737396
vt 0.319737 0.531779
vt 0.030523 0.696843
vt 0.505723 0.512116
vt 0.384015 0.580847
vt 0.506522 0.550736
vt 0.346302 0.574833
vt 0.507607 0.604105
vt 0.294291 0.566034
vt 0.610540 0.298468
vt 0.545535 0.300686
vt 0.502363 0.302883
vt 0.504402 0.313331
vt 0.517745 0.511765
vt 0.548610 0.318269
vt 0.527842 0.556627
vt 0.609940 0.323717
vt 0.531284 0.618364
vt 0.660591 0.582499
vt 0.204501 0.743892
vt 0.668589 0.550878
vt 0.206214 0.710848
vt 0.668004 0.517120
vt 0.204545 0.678125
vt 0.623877 0.525891
vt 0.164692 0.675333
vt 0.610236 0.563455
vt 0.167167 0.712219
vt 0.605277 0.597358
vt 0.166352 0.745757
vt 0.511839 0.183186
vt 0.584607 0.521652
vt 0.552303 0.182624
vt 0.569857 0.561129
vt 0.598009 0.178631
vt 0.565182 0.606784
vt 0.592158 0.236754
vt 0.721184 0.600612
vt 0.550092 0.232946
vt 0.722606 0.558204
vt 0.518921 0.225772
vt 0.713819 0.525134
s 0
usemtl Material
f 89/196/1 7/19/1 13/33/1 90/198/1
f 8/22/2 7/19/2 89/196/2 58/145/2 54/138/2 53/134/2
f 6/18/3 56/142/3 57/144/3
f 3/8/4 106/224/4 4/9/4 59/147/4 88/195/4
f 6/17/5 107/226/5 5/14/5 60/148/5 1/1/5 105/222/5 2/4/5 56/143/5
f 61/150/6 13/34/6 16/40/6 62/151/6
f 5/16/7 14/36/7 31/76/7 29/72/7
f 88/195/8 1/3/8 10/26/8 91/200/8
f 67/158/9 21/53/9 20/51/9 65/155/9
f 13/33/10 7/19/10 12/31/10 16/41/10
f 3/8/11 9/25/11 11/28/11 15/38/11
f 55/141/12 3/6/12 15/37/12 63/152/12
f 66/156/13 19/49/13 17/43/13 65/155/13
f 23/57/14 22/55/14 17/42/14 19/50/14
f 83/184/15 82/183/15 25/63/15 26/67/15
f 15/38/16 11/28/16 22/55/16 23/57/16
f 62/151/17 16/40/17 21/53/17 67/158/17
f 69/163/18 26/66/18 25/64/18 68/160/18
f 87/193/19 84/186/19 24/60/19 68/159/19
f 86/190/20 83/184/20 26/67/20 69/161/20
f 84/187/21 85/189/21 27/68/21 24/61/21
f 70/164/22 29/73/22 31/77/22 71/165/22
f 70/164/23 28/71/23 34/83/23 73/167/23
f 10/26/24 1/3/24 28/70/24 30/74/24
f 64/154/25 10/27/25 30/75/25 71/165/25
f 34/82/26 32/78/26 36/86/26 38/90/26
f 60/149/27 5/15/27 33/81/27 72/166/27
f 5/16/28 29/72/28 35/84/28 33/80/28
f 28/70/29 1/3/29 32/78/29 34/82/29
f 37/88/30 39/92/30 43/103/30 41/97/30
f 73/167/31 34/83/31 38/91/31 75/169/31
f 33/80/32 35/84/32 39/92/32 37/88/32
f 72/166/33 33/81/33 37/89/33 74/168/33
f 76/171/34 41/98/34 43/104/34 77/173/34
f 74/168/35 37/89/35 41/99/35 76/170/35
f 38/90/36 36/86/36 40/94/36 42/100/36
f 75/169/37 38/91/37 42/101/37 77/172/37
f 102/219/38 97/211/38 51/127/38 81/180/38
f 91/199/39 10/27/39 45/109/39 93/203/39
f 90/197/40 13/34/40 46/112/40 92/201/40
f 61/150/41 9/24/41 44/106/41 78/174/41
f 64/154/42 14/35/42 47/115/42 79/176/42
f 96/209/43 94/206/43 50/124/43 80/179/43
f 101/218/44 99/215/44 48/118/44 80/178/44
f 104/221/45 98/213/45 49/121/45 95/208/45
f 103/220/46 100/217/46 50/125/46 94/205/46
f 8/23/47 53/135/47 52/131/47
f 8/23/48 52/131/48 4/10/48 106/225/48 3/7/48 55/140/48 7/20/48
f 54/138/49 58/145/49 89/196/49 5/16/49 107/227/49 6/18/49 57/144/49
f 100/216/50 101/218/50 80/178/50 50/126/50
f 95/207/51 96/209/51 80/179/51 48/119/51
f 10/27/52 64/154/52 79/176/52 45/109/52
f 13/34/53 61/150/53 78/174/53 46/112/53
f 98/212/54 102/219/54 81/180/54 49/122/54
f 39/93/55 75/169/55 77/172/55 43/105/55
f 36/87/56 74/168/56 76/170/56 40/95/56
f 40/96/57 76/171/57 77/173/57 42/102/57
f 32/79/58 72/166/58 74/168/58 36/87/58
f 35/85/59 73/167/59 75/169/59 39/93/59
f 1/2/60 60/149/60 72/166/60 32/79/60
f 14/35/61 64/154/61 71/165/61 31/77/61
f 29/73/62 70/164/62 73/167/62 35/85/62
f 28/71/63 70/164/63 71/165/63 30/75/63
f 85/189/64 86/191/64 69/162/64 27/68/64
f 82/182/65 87/193/65 68/159/65 25/65/65
f 27/69/66 69/163/66 68/160/66 24/62/66
f 11/29/67 62/151/67 67/158/67 22/56/67
f 18/44/68 66/156/68 65/155/68 20/51/68
f 7/21/69 55/141/69 63/152/69 12/30/69
f 22/56/70 67/158/70 65/155/70 17/43/70
f 9/24/71 61/150/71 62/151/71 11/29/71
f 19/49/72 66/156/72 87/193/72 82/182/72
f 12/31/73 18/45/73 20/52/73 21/54/73 16/41/73
f 66/157/74 18/48/74 84/187/74 87/194/74
f 23/57/75 19/50/75 82/183/75 83/184/75
f 49/123/76 81/181/76 96/209/76 95/207/76
f 97/210/77 103/220/77 94/205/77 51/128/77
f 99/214/78 104/221/78 95/208/78 48/120/78
f 81/181/79 51/129/79 94/206/79 96/209/79
f 14/35/80 90/197/80 92/201/80 47/115/80
f 9/24/81 91/199/81 93/203/81 44/106/81
f 3/8/82 88/195/82 91/200/82 9/25/82
f 5/16/83 89/196/83 90/198/83 14/36/83
f 44/107/84 93/204/84 104/221/84 99/214/84
f 47/116/85 92/202/85 103/220/85 97/210/85
f 45/110/86 79/177/86 102/219/86 98/212/86
f 46/113/87 78/175/87 101/218/87 100/216/87
f 92/202/88 46/114/88 100/217/88 103/220/88
f 93/204/89 45/111/89 98/213/89 104/221/89
f 78/175/90 44/108/90 99/215/90 101/218/90
f 79/177/91 47/117/91 97/211/91 102/219/91
f 59/146/92 4/11/92 52/130/92 53/133/92 54/136/92 108/228/92
f 136/291/93 110/234/93 109/231/93 135/289/93
f 121/264/94 120/262/94 114/246/94 117/254/94
f 139/297/95 111/237/95 110/235/95 136/290/95
f 135/288/96 109/232/96 112/240/96 144/307/96
f 144/306/97 112/241/97 111/238/97 139/296/97
f 111/239/98 112/242/98 109/233/98 110/236/98
f 117/255/99 114/247/99 116/252/99 115/249/99 113/243/99
f 124/270/100 121/263/100 117/256/100 113/244/100
f 120/261/101 129/277/101 116/253/101 114/248/101
f 130/279/102 124/269/102 113/245/102 115/250/102
f 129/277/103 130/278/103 115/251/103 116/253/103
f 57/144/104 56/142/104 132/282/104 127/275/104
f 127/275/105 132/282/105 131/280/105 128/276/105
f 128/276/106 131/280/106 130/278/106 129/277/106
f 56/143/107 2/4/107 126/273/107 132/283/107
f 132/283/108 126/273/108 125/271/108 131/281/108
f 131/281/109 125/271/109 124/269/109 130/279/109
f 54/138/110 57/144/110 127/275/110 118/257/110
f 118/257/111 127/275/111 128/276/111 119/259/111
f 119/259/112 128/276/112 129/277/112 120/261/112
f 2/5/113 108/230/113 123/267/113 126/274/113
f 126/274/114 123/267/114 122/265/114 125/272/114
f 125/272/115 122/265/115 121/263/115 124/270/115
f 108/229/116 54/137/116 118/258/116 123/268/116
f 123/268/117 118/258/117 119/260/117 122/266/117
f 122/266/118 119/260/118 120/262/118 121/264/118
f 54/138/119 142/302/119 141/300/119 53/134/119
f 142/302/120 143/304/120 140/298/120 141/300/120
f 143/304/121 144/306/121 139/296/121 140/298/121
f 4/12/122 133/284/122 142/303/122 54/139/122
f 133/284/123 134/286/123 143/305/123 142/303/123
f 134/286/124 135/288/124 144/307/124 143/305/124
f 53/135/125 141/301/125 138/294/125 52/131/125
f 141/301/126 140/299/126 137/292/126 138/294/126
f 140/299/127 139/297/127 136/290/127 137/292/127
f 52/132/128 138/295/128 133/285/128 4/13/128
f 138/295/129 137/293/129 134/287/129 133/285/129
f 137/293/130 136/291/130 135/289/130 134/287/130
f 105/223/131 1/3/131 88/195/131 59/147/131 108/230/131 2/5/131
f 86/192/132 85/188/132 83/185/132
f 83/185/133 85/188/133 18/46/133 23/58/133
f 63/153/134 15/39/134 23/59/134 18/47/134 12/32/134
f 84/187/135 18/48/135 85/189/135
l 52 106
