# Blender 3.3.1
# www.blender.org
mtllib monstruo_3_caminar516.mtl
o monstruo_grande
v 0.460879 1.979314 0.258539
v 0.519623 1.157458 0.113639
v -0.670637 1.823167 0.163173
v -0.318846 1.137711 0.201819
v 0.634271 2.254946 -0.087867
v 0.559053 1.572319 -0.234682
v -0.771981 2.059804 -0.250356
v -0.691931 1.763451 -0.321564
v -0.234609 2.405539 0.473408
v 0.313271 2.265703 0.446468
v -0.370860 2.379166 0.567622
v -1.136566 2.141802 -0.105322
v -0.208607 2.581859 0.122343
v 0.324282 2.409589 0.186239
v -0.997150 1.993971 0.040513
v -0.364198 2.667057 0.147837
v -0.728653 2.314964 0.570917
v -1.430482 2.068830 0.159876
v -1.153233 2.086425 0.357353
v -0.883397 2.661541 0.329724
v -0.544276 2.720314 0.222239
v -0.449176 2.336300 0.536404
v -1.126096 2.022435 0.042630
v -1.786791 0.818362 0.835029
v -1.662907 0.794294 0.884464
v -1.651192 0.608424 0.692218
v -1.726808 0.623115 0.662045
v 0.468176 2.175980 0.435912
v 0.580102 2.364594 0.178211
v 0.429304 2.288812 0.445086
v 0.455774 2.422664 0.219019
v 0.712653 1.852887 0.254567
v 0.834761 1.954621 0.086421
v 0.731506 1.936265 0.307542
v 0.818412 2.050559 0.157402
v 0.895545 1.634613 0.189807
v 0.977338 1.672501 0.120454
v 0.972199 1.590254 0.247242
v 1.051769 1.639050 0.178762
v 0.906417 1.479040 0.199248
v 1.074919 1.577445 0.060079
v 0.998983 1.358763 0.324983
v 1.247117 1.506179 0.108242
v -0.068262 2.441488 0.500116
v 0.140155 2.404820 0.485557
v -0.056882 2.547715 0.254908
v 0.141924 2.507712 0.243249
v -0.019671 2.758070 0.635455
v 0.187155 2.694812 0.601796
v -0.029585 2.862291 0.378234
v 0.177540 2.798933 0.345008
v -0.506597 1.179421 -0.026557
v -0.374976 1.210169 -0.228690
v -0.038977 1.274921 -0.334101
v -0.721650 1.873571 -0.056538
v 0.549658 1.153900 -0.123013
v 0.335158 1.153657 -0.255007
v 0.026441 1.521197 -0.327282
v -0.032365 1.146046 0.197585
v 0.521269 2.061473 0.143143
v -0.218930 2.467328 0.350102
v -0.368463 2.634795 0.416764
v -0.924702 2.056528 -0.067966
v 0.301023 2.395866 0.346685
v -0.733696 2.545008 0.547623
v -1.319381 2.199056 0.406213
v -0.521566 2.631235 0.407882
v -1.736807 0.807145 0.890109
v -1.674235 0.495137 0.581399
v 0.559575 2.282131 0.337810
v 0.446813 2.400420 0.355175
v 0.732715 1.886939 0.127642
v 0.814398 2.005845 0.264527
v 0.935505 1.657317 0.155266
v 1.011835 1.613801 0.212621
v 0.972202 1.533861 0.112877
v 1.090344 1.444516 0.187362
v -0.064089 2.493903 0.376772
v 0.139135 2.457185 0.363787
v -0.056084 2.811064 0.508435
v 0.213588 2.745983 0.471789
v -1.522488 1.109947 0.814961
v -1.588534 0.935748 0.756034
v -1.737714 1.121674 0.732848
v -1.705138 0.958402 0.709505
v -1.653506 0.777048 0.666704
v -1.654445 1.100404 0.826488
v -0.023203 1.769063 0.506846
v 0.165487 2.134365 -0.202412
v 0.145799 2.515607 0.064574
v 0.067377 2.267560 0.615670
v 0.038935 2.527009 0.248110
v 0.040903 2.425735 0.492928
v 0.072625 2.846260 0.322995
v 0.085238 2.710820 0.657180
v 0.081246 2.829959 0.510759
v 0.173737 2.661742 0.270005
v 0.181060 2.543214 0.563058
v -0.056556 2.592048 0.591124
v -0.064726 2.712074 0.296630
v -0.078157 2.652224 0.444539
v 0.192363 2.602368 0.415311
v 0.053095 2.695023 0.262890
v 0.063340 2.559629 0.596801
v 0.476831 1.664259 -0.015817
v -0.576572 1.525092 0.194824
v 0.579278 1.782608 -0.229618
v 0.163754 1.158391 0.210225
v -0.246118 0.118151 -0.322898
v -0.401162 0.088350 -0.218147
v -0.404098 0.153639 -0.460449
v -0.268075 0.155735 -0.462673
v 0.308329 -0.003475 0.201603
v 0.236037 -0.021366 0.126370
v 0.318303 -0.009506 0.163697
v 0.287216 -0.016650 0.137679
v 0.249125 -0.004953 0.211396
v 0.078311 0.837104 -0.062709
v 0.129369 0.593487 0.047654
v 0.168915 0.298544 0.115241
v 0.200249 0.298993 0.294391
v 0.180724 0.553566 0.335297
v 0.186183 0.832284 0.336082
v 0.322746 0.296428 0.271313
v 0.387529 0.554798 0.297272
v 0.475047 0.884719 0.265905
v 0.334326 0.852139 -0.033019
v 0.308482 0.590960 0.080976
v 0.275527 0.296857 0.136774
v 0.341593 0.296830 0.190885
v 0.420441 0.592693 0.168601
v 0.501967 0.879256 0.076846
v -0.230060 0.848018 0.267960
v -0.219386 0.560061 0.131890
v -0.226077 0.338851 0.018439
v -0.507780 0.358693 -0.025740
v -0.500109 0.624437 0.060419
v -0.504839 0.878159 0.121363
v -0.504031 0.486702 -0.264032
v -0.495368 0.745924 -0.176582
v -0.491948 0.929049 -0.147613
v -0.099380 0.861390 -0.144482
v -0.151215 0.707786 -0.187301
v -0.208519 0.511600 -0.247388
vn -0.0099 0.5819 -0.8132
vn -0.0141 0.0876 -0.9961
vn 0.5099 -0.2325 -0.8282
vn -0.3106 -0.2521 0.9165
vn 0.9550 -0.0892 0.2830
vn 0.6610 0.7141 0.2305
vn 0.1457 0.9014 -0.4078
vn 0.5346 -0.2646 0.8026
vn -0.0257 0.8862 0.4625
vn -0.0779 0.5827 -0.8089
vn -0.2077 -0.4997 0.8409
vn -0.4710 -0.8242 -0.3144
vn -0.2298 -0.1861 0.9553
vn 0.2421 -0.9145 0.3242
vn 0.9313 -0.2922 0.2175
vn -0.0263 -0.8089 0.5874
vn 0.1901 0.9504 0.2460
vn -0.0258 -0.7110 0.7028
vn -0.6652 0.3324 0.6686
vn 0.9339 -0.0409 -0.3551
vn -0.8629 0.0525 -0.5027
vn 0.6149 0.7221 0.3170
vn 0.5052 0.1772 0.8446
vn -0.2446 -0.5187 0.8192
vn -0.0864 0.6161 0.7829
vn -0.5308 -0.5427 0.6509
vn -0.3248 -0.5411 -0.7757
vn 0.8217 0.5466 -0.1615
vn -0.2340 -0.6045 0.7615
vn 0.4853 0.8111 -0.3264
vn 0.4545 0.1359 0.8803
vn 0.7655 0.3730 -0.5242
vn -0.2984 -0.3101 -0.9027
vn -0.0820 -0.6942 -0.7151
vn -0.5366 0.0659 -0.8412
vn -0.6869 0.0954 0.7204
vn 0.6775 0.2677 0.6851
vn 0.9807 0.0041 -0.1954
vn 0.4211 0.4963 0.7592
vn 0.1954 0.9798 0.0428
vn -0.2381 0.8885 0.3922
vn 0.4500 0.8606 0.2385
vn 0.0346 0.9772 0.2095
vn -0.9653 0.0940 0.2436
vn 0.3149 -0.3214 0.8930
vn -0.2760 0.4494 -0.8496
vn -0.6960 -0.4873 -0.5274
vn -0.9299 -0.3293 0.1640
vn 0.1480 0.1087 -0.9830
vn -0.9765 0.2077 -0.0572
vn 0.0470 0.8485 0.5272
vn 0.4984 0.6835 0.5333
vn -0.1950 0.8875 0.4175
vn 0.9890 -0.1195 0.0869
vn 0.4507 0.1284 0.8834
vn -0.7371 -0.0461 -0.6742
vn -0.1839 -0.7693 -0.6118
vn -0.6933 -0.5593 -0.4543
vn 0.7940 0.4085 0.4502
vn -0.4854 -0.7145 -0.5038
vn -0.0796 0.9906 0.1115
vn 0.7476 0.5702 0.3407
vn 0.6122 0.3186 0.7236
vn -0.4031 0.2188 -0.8886
vn 0.0846 0.1832 0.9794
vn -0.6820 -0.5835 0.4409
vn -0.2356 0.4158 0.8784
vn -0.6531 0.6731 0.3470
vn -0.4633 -0.7897 -0.4021
vn 0.2587 0.3034 0.9171
vn 0.5991 0.5036 0.6225
vn 0.2853 0.2897 0.9136
vn -0.3967 0.6781 -0.6187
vn -0.8368 0.4283 0.3411
vn 0.9416 -0.3196 0.1057
vn 0.5010 0.7181 0.4831
vn 0.2546 0.3932 -0.8835
vn -0.2105 -0.2710 0.9393
vn 0.4873 0.8648 0.1212
vn 0.3892 0.9199 0.0491
vn -0.0975 0.4969 0.8623
vn -0.4704 -0.1103 0.8755
vn 0.2095 0.7556 -0.6207
vn -0.1108 -0.5526 0.8260
vn 0.0388 0.1224 -0.9917
vn 0.9563 -0.2811 -0.0798
vn -0.9951 -0.0365 -0.0915
vn -0.1549 0.1684 -0.9735
vn 0.0594 -0.5629 0.8244
vn -0.9982 -0.0336 0.0504
vn 0.9603 -0.2328 -0.1534
vn 0.0635 -0.9759 -0.2086
vn 0.1111 -0.7223 0.6826
vn -0.9642 -0.1994 0.1749
vn -0.9597 -0.2601 -0.1062
vn 0.9949 -0.0846 -0.0547
vn -0.0034 0.5128 -0.8585
vn 0.0100 -0.9654 -0.2606
vn 0.0563 -0.9817 0.1820
vn 0.1718 -0.2323 0.9574
vn 0.2036 0.0067 -0.9790
vn 0.9658 -0.0984 0.2399
vn 0.6352 0.0208 -0.7720
vn 0.4758 -0.5453 -0.6901
vn 0.5586 -0.3854 -0.7345
vn 0.6094 -0.2164 -0.7628
vn 0.9877 -0.0804 0.1338
vn 0.9600 -0.2319 0.1571
vn 0.9501 -0.2475 0.1899
vn 0.0515 -0.5487 -0.8344
vn 0.1427 -0.3960 -0.9071
vn 0.1819 -0.1996 -0.9628
vn 0.1982 0.4068 0.8918
vn 0.2115 0.0168 0.9772
vn 0.1800 -0.1428 0.9733
vn -0.9502 -0.0118 0.3114
vn -0.9740 -0.0382 0.2234
vn -0.9814 -0.0975 0.1656
vn -0.1325 -0.3303 -0.9345
vn 0.0194 0.2054 -0.9785
vn 0.0152 0.3062 -0.9519
vn 0.8904 0.1869 0.4151
vn 0.9587 -0.1790 0.2212
vn 0.9839 -0.1717 0.0501
vn -0.9568 0.0793 -0.2798
vn -0.9994 0.0039 -0.0335
vn -0.9995 0.0315 -0.0013
vn -0.6004 0.1894 0.7769
vn -0.3930 -0.3242 0.8605
vn -0.2395 -0.3622 0.9008
vn 0.5213 -0.2109 0.8269
vn 0.4040 0.3175 -0.8579
vn -0.2177 -0.4305 -0.8759
vn -0.2697 -0.7619 -0.5889
vn -0.8164 -0.0811 -0.5718
vt 0.461701 0.809397
vt 0.301930 0.729761
vt 0.094158 0.499911
vt 0.498737 0.648456
vt 0.250869 0.553264
vt 0.714874 0.752530
vt 0.627854 0.740386
vt 0.227533 0.339544
vt 0.300362 0.438253
vt 0.625828 0.633709
vt 0.338991 0.679376
vt 0.653754 0.621457
vt 0.189641 0.785401
vt 0.531284 0.815038
vt 0.232114 0.729761
vt 0.806952 0.326283
vt 0.527824 0.712310
vt 0.703640 0.331352
vt 0.725736 0.123548
vt 0.557184 0.740386
vt 0.714874 0.681901
vt 0.693091 0.138725
vt 0.558638 0.706064
vt 0.944491 0.391302
vt 0.108931 0.369345
vt 0.090202 0.443431
vt 0.952837 0.467016
vt 0.108059 0.346292
vt 0.960024 0.371234
vt 0.653754 0.712739
vt 0.761990 0.055860
vt 0.265996 0.788213
vt 0.829683 0.188590
vt 0.886815 0.394232
vt 0.909606 0.471204
vt 0.826550 0.267021
vt 0.659457 0.749480
vt 0.206417 0.267620
vt 0.238389 0.812575
vt 0.882743 0.373659
vt 0.837846 0.166681
vt 0.102618 0.289588
vt 0.957957 0.321520
vt 0.918648 0.216117
vt 0.803322 0.012950
vt 0.106348 0.638847
vt 0.232551 0.755661
vt 0.798789 0.485160
vt 0.965752 0.239402
vt 0.153968 0.222285
vt 0.894228 0.312474
vt 0.856067 0.102710
vt 0.881967 0.351902
vt 0.842627 0.144082
vt 0.107159 0.331692
vt 0.958812 0.358201
vt 0.199778 0.246429
vt 0.138792 0.619338
vt 0.232114 0.797406
vt 0.967580 0.012950
vt 0.753483 0.682459
vt 0.843831 0.469074
vt 0.256421 0.022764
vt 0.824689 0.472884
vt 0.987050 0.016155
vt 0.832147 0.505580
vt 0.295109 0.018166
vt 0.782932 0.707368
vt 0.843831 0.503254
vt 0.076417 0.467161
vt 0.958695 0.494573
vt 0.833773 0.298242
vt 0.909847 0.503107
vt 0.076958 0.454690
vt 0.951531 0.482650
vt 0.837149 0.281767
vt 0.912926 0.487172
vt 0.064432 0.532285
vt 0.298790 0.687460
vt 0.825577 0.362572
vt 0.264894 0.686125
vt 0.056614 0.518895
vt 0.959622 0.549977
vt 0.837123 0.350740
vt 0.929664 0.555276
vt 0.051257 0.577890
vt 0.291936 0.641182
vt 0.824256 0.407314
vt 0.275162 0.640522
vt 0.035793 0.577862
vt 0.964581 0.612577
vt 0.838997 0.411720
vt 0.948088 0.615681
vt 0.039898 0.592711
vt 0.301778 0.620707
vt 0.403076 0.772170
vt 0.830596 0.428615
vt 0.403076 0.737417
vt 0.267017 0.619338
vt 0.012950 0.593438
vt 0.987050 0.637067
vt 0.428919 0.781443
vt 0.856067 0.440612
vt 0.428919 0.728949
vt 0.935424 0.646785
vt 0.945356 0.412724
vt 0.357115 0.854737
vt 0.331665 0.779032
vt 0.948027 0.441601
vt 0.799629 0.752473
vt 0.327972 0.853161
vt 0.906904 0.416128
vt 0.370069 0.779032
vt 0.684668 0.778429
vt 0.909575 0.445005
vt 0.655249 0.778999
vt 0.799629 0.791035
vt 0.330193 0.729131
vt 0.557184 0.775635
vt 0.363063 0.804932
vt 0.331684 0.807874
vt 0.754247 0.751428
vt 0.586563 0.768755
vt 0.566112 0.815056
vt 0.689281 0.828405
vt 0.370405 0.729131
vt 0.754247 0.791805
vt 0.657717 0.824383
vt 0.595492 0.808176
vt 0.327830 0.637821
vt 0.590400 0.642651
vt 0.164818 0.789976
vt 0.357235 0.619338
vt 0.642851 0.190721
vt 0.562581 0.649581
vt 0.406824 0.626953
vt 0.080449 0.619338
vt 0.646201 0.239681
vt 0.727583 0.656002
vt 0.597847 0.731399
vt 0.712829 0.722239
vt 0.658284 0.323708
vt 0.527919 0.666449
vt 0.661748 0.291537
vt 0.680225 0.245582
vt 0.377645 0.696957
vt 0.285191 0.477898
vt 0.483372 0.812325
vt 0.280072 0.728266
vt 0.924330 0.393087
vt 0.921760 0.373660
vt 0.678504 0.727397
vt 0.268491 0.812575
vt 0.930826 0.465310
vt 0.923786 0.327561
vt 0.941993 0.227167
vt 0.764056 0.466512
vt 0.919524 0.351927
vt 0.977463 0.013354
vt 0.833186 0.466512
vt 0.317617 0.012950
vt 0.798789 0.722800
vt 0.839639 0.522681
vt 0.934403 0.500152
vt 0.932138 0.484309
vt 0.281656 0.689101
vt 0.944784 0.554368
vt 0.283549 0.640852
vt 0.956335 0.614129
vt 0.284323 0.620942
vt 0.399765 0.754789
vt 0.961112 0.640376
vt 0.422297 0.755187
vt 0.926130 0.414426
vt 0.350867 0.779032
vt 0.928801 0.443303
vt 0.799629 0.771754
vt 0.350773 0.728949
vt 0.557184 0.796361
vt 0.753483 0.771844
vt 0.595492 0.787450
vt 0.985581 0.067358
vt 0.238180 0.070710
vt 0.259592 0.052321
vt 0.138792 0.821791
vt 0.953366 0.057503
vt 0.765454 0.639660
vt 0.120235 0.821584
vt 0.772730 0.660154
vt 0.283154 0.037949
vt 0.784440 0.682652
vt 0.128680 0.843910
vt 0.970110 0.058056
vt 0.758353 0.637393
vt 0.180368 0.432154
vt 0.759258 0.257498
vt 0.884976 0.446549
vt 0.828099 0.241547
vt 0.971226 0.428512
vt 0.101516 0.405509
vt 0.908240 0.430567
vt 0.669958 0.778714
vt 0.946692 0.427163
vt 0.342544 0.853949
vt 0.673120 0.826722
vt 0.582140 0.817526
vt 0.570535 0.766286
vt 0.348248 0.806122
vt 0.576699 0.792002
vt 0.653753 0.802281
vt 0.776512 0.794925
vt 0.776512 0.748700
vt 0.327830 0.829868
vt 0.363063 0.830170
vt 0.327830 0.753980
vt 0.373865 0.753980
vt 0.689281 0.803194
vt 0.351093 0.753886
vt 0.776117 0.771930
vt 0.671321 0.802907
vt 0.345899 0.829874
vt 0.457498 0.727404
vt 0.165986 0.548054
vt 0.260364 0.376248
vt 0.625887 0.695531
vt 0.520555 0.743605
vt 0.734596 0.339638
vt 0.406824 0.703049
vt 0.012950 0.651015
vt 0.277407 0.507014
vt 0.206214 0.619338
vt 0.706517 0.466512
vt 0.399765 0.822801
vt 0.181517 0.620770
vt 0.619265 0.470337
vt 0.422433 0.807343
vt 0.582936 0.466512
vt 0.458892 0.202188
vt 0.422433 0.843958
vt 0.727583 0.468029
vt 0.460639 0.221880
vt 0.402692 0.843997
vt 0.717439 0.778459
vt 0.429089 0.593438
vt 0.518160 0.466685
vt 0.070962 0.817001
vt 0.726094 0.791097
vt 0.457498 0.298878
vt 0.715181 0.783741
vt 0.523936 0.466512
vt 0.458951 0.311476
vt 0.719061 0.788282
vt 0.458165 0.306435
vt 0.058766 0.817583
vt 0.726094 0.778429
vt 0.431598 0.585369
vt 0.599953 0.261833
vt 0.080449 0.668491
vt 0.542336 0.274386
vt 0.076079 0.728305
vt 0.500395 0.287212
vt 0.064936 0.773359
vt 0.389801 0.564275
vt 0.039540 0.774208
vt 0.356388 0.547019
vt 0.031995 0.737396
vt 0.319737 0.531779
vt 0.030523 0.696843
vt 0.505723 0.512116
vt 0.384015 0.580847
vt 0.506522 0.550736
vt 0.346302 0.574833
vt 0.507607 0.604105
vt 0.294291 0.566034
vt 0.610540 0.298468
vt 0.545535 0.300686
vt 0.502363 0.302883
vt 0.504402 0.313331
vt 0.517745 0.511765
vt 0.548610 0.318269
vt 0.527842 0.556627
vt 0.609940 0.323717
vt 0.531284 0.618364
vt 0.660591 0.582499
vt 0.204501 0.743892
vt 0.668589 0.550878
vt 0.206214 0.710848
vt 0.668004 0.517120
vt 0.204545 0.678125
vt 0.623877 0.525891
vt 0.164692 0.675333
vt 0.610236 0.563455
vt 0.167167 0.712219
vt 0.605277 0.597358
vt 0.166352 0.745757
vt 0.511839 0.183186
vt 0.584607 0.521652
vt 0.552303 0.182624
vt 0.569857 0.561129
vt 0.598009 0.178631
vt 0.565182 0.606784
vt 0.592158 0.236754
vt 0.721184 0.600612
vt 0.550092 0.232946
vt 0.722606 0.558204
vt 0.518921 0.225772
vt 0.713819 0.525134
s 0
usemtl Material
f 89/196/1 7/19/1 13/33/1 90/198/1
f 8/22/2 7/19/2 89/196/2 58/145/2 54/138/2 53/134/2
f 6/18/3 56/142/3 57/144/3
f 3/8/4 106/224/4 4/9/4 59/147/4 88/195/4
f 6/17/5 107/226/5 5/14/5 60/148/5 1/1/5 105/222/5 2/4/5 56/143/5
f 61/150/6 13/34/6 16/40/6 62/151/6
f 5/16/7 14/36/7 31/76/7 29/72/7
f 88/195/8 1/3/8 10/26/8 91/200/8
f 67/158/9 21/53/9 20/51/9 65/155/9
f 13/33/10 7/19/10 12/31/10 16/41/10
f 3/8/11 9/25/11 11/28/11 15/38/11
f 55/141/12 3/6/12 15/37/12 63/152/12
f 66/156/13 19/49/13 17/43/13 65/155/13
f 23/57/14 22/55/14 17/42/14 19/50/14
f 83/184/15 82/183/15 25/63/15 26/67/15
f 15/38/16 11/28/16 22/55/16 23/57/16
f 62/151/17 16/40/17 21/53/17 67/158/17
f 69/163/18 26/66/18 25/64/18 68/160/18
f 87/193/19 84/186/19 24/60/19 68/159/19
f 86/190/20 83/184/20 26/67/20 69/161/20
f 84/187/21 85/189/21 27/68/21 24/61/21
f 70/164/22 29/73/22 31/77/22 71/165/22
f 70/164/23 28/71/23 34/83/23 73/167/23
f 10/26/24 1/3/24 28/70/24 30/74/24
f 64/154/25 10/27/25 30/75/25 71/165/25
f 34/82/26 32/78/26 36/86/26 38/90/26
f 60/149/27 5/15/27 33/81/27 72/166/27
f 5/16/28 29/72/28 35/84/28 33/80/28
f 28/70/29 1/3/29 32/78/29 34/82/29
f 37/88/30 39/92/30 43/103/30 41/97/30
f 73/167/31 34/83/31 38/91/31 75/169/31
f 33/80/32 35/84/32 39/92/32 37/88/32
f 72/166/33 33/81/33 37/89/33 74/168/33
f 76/171/34 41/98/34 43/104/34 77/173/34
f 74/168/35 37/89/35 41/99/35 76/170/35
f 38/90/36 36/86/36 40/94/36 42/100/36
f 75/169/37 38/91/37 42/101/37 77/172/37
f 102/219/38 97/211/38 51/127/38 81/180/38
f 91/199/39 10/27/39 45/109/39 93/203/39
f 90/197/40 13/34/40 46/112/40 92/201/40
f 61/150/41 9/24/41 44/106/41 78/174/41
f 64/154/42 14/35/42 47/115/42 79/176/42
f 96/209/43 94/206/43 50/124/43 80/179/43
f 101/218/44 99/215/44 48/118/44 80/178/44
f 104/221/45 98/213/45 49/121/45 95/208/45
f 103/220/46 100/217/46 50/125/46 94/205/46
f 8/23/47 53/135/47 52/131/47
f 8/23/48 52/131/48 4/10/48 106/225/48 3/7/48 55/140/48 7/20/48
f 54/138/49 58/145/49 89/196/49 5/16/49 107/227/49 6/18/49 57/144/49
f 100/216/50 101/218/50 80/178/50 50/126/50
f 95/207/51 96/209/51 80/179/51 48/119/51
f 10/27/52 64/154/52 79/176/52 45/109/52
f 13/34/53 61/150/53 78/174/53 46/112/53
f 98/212/54 102/219/54 81/180/54 49/122/54
f 39/93/55 75/169/55 77/172/55 43/105/55
f 36/87/56 74/168/56 76/170/56 40/95/56
f 40/96/57 76/171/57 77/173/57 42/102/57
f 32/79/58 72/166/58 74/168/58 36/87/58
f 35/85/59 73/167/59 75/169/59 39/93/59
f 1/2/60 60/149/60 72/166/60 32/79/60
f 14/35/61 64/154/61 71/165/61 31/77/61
f 29/73/62 70/164/62 73/167/62 35/85/62
f 28/71/63 70/164/63 71/165/63 30/75/63
f 85/189/64 86/191/64 69/162/64 27/68/64
f 82/182/65 87/193/65 68/159/65 25/65/65
f 27/69/66 69/163/66 68/160/66 24/62/66
f 11/29/67 62/151/67 67/158/67 22/56/67
f 18/44/68 66/156/68 65/155/68 20/51/68
f 7/21/69 55/141/69 63/152/69 12/30/69
f 22/56/70 67/158/70 65/155/70 17/43/70
f 9/24/71 61/150/71 62/151/71 11/29/71
f 19/49/72 66/156/72 87/193/72 82/182/72
f 12/31/73 18/45/73 20/52/73 21/54/73 16/41/73
f 66/157/74 18/48/74 84/187/74 87/194/74
f 23/57/75 19/50/75 82/183/75 83/184/75
f 49/123/76 81/181/76 96/209/76 95/207/76
f 97/210/77 103/220/77 94/205/77 51/128/77
f 99/214/78 104/221/78 95/208/78 48/120/78
f 81/181/79 51/129/79 94/206/79 96/209/79
f 14/35/80 90/197/80 92/201/80 47/115/80
f 9/24/81 91/199/81 93/203/81 44/106/81
f 3/8/82 88/195/82 91/200/82 9/25/82
f 5/16/83 89/196/83 90/198/83 14/36/83
f 44/107/84 93/204/84 104/221/84 99/214/84
f 47/116/85 92/202/85 103/220/85 97/210/85
f 45/110/86 79/177/86 102/219/86 98/212/86
f 46/113/87 78/175/87 101/218/87 100/216/87
f 92/202/88 46/114/88 100/217/88 103/220/88
f 93/204/89 45/111/89 98/213/89 104/221/89
f 78/175/90 44/108/90 99/215/90 101/218/90
f 79/177/91 47/117/91 97/211/91 102/219/91
f 59/146/92 4/11/92 52/130/92 53/133/92 54/136/92 108/228/92
f 136/291/93 110/234/93 109/231/93 135/289/93
f 121/264/94 120/262/94 114/246/94 117/254/94
f 139/297/95 111/237/95 110/235/95 136/290/95
f 135/288/96 109/232/96 112/240/96 144/307/96
f 144/306/97 112/241/97 111/238/97 139/296/97
f 111/239/98 112/242/98 109/233/98 110/236/98
f 117/255/99 114/247/99 116/252/99 115/249/99 113/243/99
f 124/270/100 121/263/100 117/256/100 113/244/100
f 120/261/101 129/277/101 116/253/101 114/248/101
f 130/279/102 124/269/102 113/245/102 115/250/102
f 129/277/103 130/278/103 115/251/103 116/253/103
f 57/144/104 56/142/104 132/282/104 127/275/104
f 127/275/105 132/282/105 131/280/105 128/276/105
f 128/276/106 131/280/106 130/278/106 129/277/106
f 56/143/107 2/4/107 126/273/107 132/283/107
f 132/283/108 126/273/108 125/271/108 131/281/108
f 131/281/109 125/271/109 124/269/109 130/279/109
f 54/138/110 57/144/110 127/275/110 118/257/110
f 118/257/111 127/275/111 128/276/111 119/259/111
f 119/259/112 128/276/112 129/277/112 120/261/112
f 2/5/113 108/230/113 123/267/113 126/274/113
f 126/274/114 123/267/114 122/265/114 125/272/114
f 125/272/115 122/265/115 121/263/115 124/270/115
f 108/229/116 54/137/116 118/258/116 123/268/116
f 123/268/117 118/258/117 119/260/117 122/266/117
f 122/266/118 119/260/118 120/262/118 121/264/118
f 54/138/119 142/302/119 141/300/119 53/134/119
f 142/302/120 143/304/120 140/298/120 141/300/120
f 143/304/121 144/306/121 139/296/121 140/298/121
f 4/12/122 133/284/122 142/303/122 54/139/122
f 133/284/123 134/286/123 143/305/123 142/303/123
f 134/286/124 135/288/124 144/307/124 143/305/124
f 53/135/125 141/301/125 138/294/125 52/131/125
f 141/301/126 140/299/126 137/292/126 138/294/126
f 140/299/127 139/297/127 136/290/127 137/292/127
f 52/132/128 138/295/128 133/285/128 4/13/128
f 138/295/129 137/293/129 134/287/129 133/285/129
f 137/293/130 136/291/130 135/289/130 134/287/130
f 105/223/131 1/3/131 88/195/131 59/147/131 108/230/131 2/5/131
f 86/192/132 85/188/132 83/185/132
f 83/185/133 85/188/133 18/46/133 23/58/133
f 63/153/134 15/39/134 23/59/134 18/47/134 12/32/134
f 84/187/135 18/48/135 85/189/135
l 52 106
