# Blender 3.3.1
# www.blender.org
mtllib monstruo_3_caminar551.mtl
o monstruo_grande
v 0.584134 1.920183 0.424777
v 0.524501 1.092430 0.074632
v -0.572491 1.871758 0.145794
v -0.294171 1.222104 0.222250
v 0.906997 2.160372 0.172551
v 0.651303 1.529360 -0.215460
v -0.612328 2.085272 -0.297308
v -0.602067 1.767054 -0.346530
v -0.134767 2.408762 0.467962
v 0.389227 2.234435 0.533924
v -0.284649 2.396861 0.549560
v -0.946354 2.182575 -0.220839
v -0.056684 2.574102 0.120546
v 0.468937 2.352645 0.267423
v -0.841497 2.036414 -0.037782
v -0.205929 2.671295 0.124623
v -0.654241 2.363561 0.498923
v -1.282459 2.128729 -0.028140
v -1.049205 2.144964 0.221668
v -0.742469 2.703365 0.216885
v -0.387972 2.737267 0.167799
v -0.367085 2.363179 0.512628
v -0.966447 2.067105 -0.072131
v -1.783958 0.882046 0.546560
v -1.671131 0.854450 0.616408
v -1.620236 0.684635 0.415869
v -1.689102 0.701480 0.373235
v 0.499681 2.136812 0.553515
v 0.721314 2.302740 0.367183
v 0.492813 2.250444 0.552077
v 0.590100 2.361073 0.338952
v 0.772070 1.859684 0.582132
v 0.984794 1.867230 0.534748
v 0.782362 1.917236 0.610265
v 0.939814 2.004517 0.525160
v 0.834660 1.738678 0.851070
v 0.948741 1.712736 0.833161
v 0.866384 1.793145 0.936632
v 0.975651 1.766761 0.913294
v 0.788744 1.694956 0.994338
v 1.017211 1.641749 0.948460
v 0.784876 1.787497 1.168308
v 1.127620 1.700925 1.095441
v 0.031295 2.432808 0.514004
v 0.235710 2.385679 0.519584
v 0.071999 2.532007 0.269185
v 0.270750 2.476612 0.276229
v 0.086699 2.742028 0.657707
v 0.291940 2.668318 0.638873
v 0.101660 2.848720 0.401464
v 0.307320 2.774681 0.382368
v -0.499510 1.218276 0.023700
v -0.391105 1.194412 -0.191339
v -0.034364 1.281110 -0.332498
v -0.605948 1.916008 -0.085771
v 0.537917 1.152155 -0.159121
v 0.319883 1.183852 -0.275004
v 0.074778 1.519482 -0.315146
v -0.031630 1.125159 0.197924
v 0.702295 1.984000 0.349839
v -0.100563 2.466316 0.346492
v -0.243821 2.646274 0.393033
v -0.763232 2.095907 -0.131930
v 0.412151 2.355605 0.423896
v -0.639210 2.591272 0.462477
v -1.215058 2.265113 0.233197
v -0.395752 2.654337 0.365288
v -1.744996 0.866591 0.609020
v -1.620049 0.580537 0.294176
v 0.622368 2.238352 0.504438
v 0.546396 2.352503 0.467341
v 0.864187 1.819165 0.529182
v 0.874843 1.977748 0.619093
v 0.889787 1.724846 0.839852
v 0.921132 1.779316 0.924993
v 0.895108 1.651412 0.954543
v 0.942063 1.714439 1.100526
v 0.049517 2.481896 0.389971
v 0.250671 2.432616 0.396565
v 0.062755 2.797898 0.528968
v 0.330746 2.719170 0.511553
v -1.525859 1.175069 0.599511
v -1.576545 1.005967 0.515754
v -1.722164 1.193545 0.479641
v -1.682742 1.031940 0.450011
v -1.620751 0.854755 0.403647
v -1.657444 1.164248 0.585193
v 0.023484 1.747325 0.515794
v 0.338130 2.083728 -0.164571
v 0.294104 2.477137 0.099706
v 0.117660 2.266402 0.643277
v 0.165060 2.504552 0.270499
v 0.139637 2.409376 0.515768
v 0.206939 2.827613 0.353162
v 0.187096 2.689178 0.686656
v 0.200308 2.809564 0.541806
v 0.303095 2.636838 0.305192
v 0.280880 2.518467 0.597552
v 0.044741 2.579047 0.608252
v 0.066046 2.700402 0.313912
v 0.037552 2.641165 0.460610
v 0.306578 2.577289 0.451315
v 0.184854 2.676891 0.288852
v 0.162033 2.540073 0.622836
v 0.649163 1.571431 0.104680
v -0.536851 1.585155 0.178168
v 0.750919 1.720954 -0.148331
v 0.165848 1.068906 0.194761
v -0.278268 0.066424 0.159712
v -0.416053 0.092688 0.287152
v -0.454385 0.065281 0.040105
v -0.320467 0.052608 0.019690
v 0.316946 -0.078754 -0.059644
v 0.243467 -0.090893 -0.135035
v 0.326290 -0.082491 -0.097956
v 0.294768 -0.087633 -0.123933
v 0.257907 -0.080239 -0.049239
v 0.069797 0.826475 -0.164940
v 0.141448 0.542559 -0.123268
v 0.180972 0.238528 -0.110857
v 0.209141 0.204471 0.065628
v 0.188625 0.446436 0.154476
v 0.193777 0.719765 0.209054
v 0.332031 0.206107 0.044651
v 0.396416 0.454115 0.119492
v 0.480730 0.788905 0.146236
v 0.325451 0.841537 -0.145598
v 0.320093 0.533113 -0.089128
v 0.287208 0.232567 -0.088095
v 0.352303 0.221956 -0.033846
v 0.430933 0.517102 -0.001863
v 0.498322 0.837364 -0.039999
v -0.187178 0.969913 0.365206
v -0.191597 0.675321 0.359226
v -0.208808 0.432544 0.370756
v -0.493503 0.443409 0.354129
v -0.479425 0.714612 0.296844
v -0.478343 0.965727 0.248919
v -0.520070 0.444109 0.083573
v -0.504237 0.714491 0.026046
v -0.499678 0.936412 -0.027678
v -0.109541 0.858006 -0.056265
v -0.163592 0.658989 -0.005873
v -0.225039 0.458925 0.053839
vn 0.1131 0.5659 -0.8167
vn 0.0359 0.0559 -0.9978
vn 0.4241 -0.2572 -0.8683
vn -0.3847 -0.2113 0.8985
vn 0.8979 -0.3816 0.2195
vn 0.6839 0.6683 0.2927
vn 0.3285 0.8537 -0.4040
vn 0.2648 -0.2337 0.9356
vn -0.0471 0.9105 0.4109
vn 0.0803 0.5451 -0.8345
vn -0.3600 -0.4367 0.8245
vn -0.4821 -0.8134 -0.3254
vn -0.4093 -0.1126 0.9054
vn 0.1164 -0.9061 0.4068
vn 0.8791 -0.3060 0.3655
vn -0.2034 -0.7549 0.6235
vn 0.2206 0.9452 0.2406
vn -0.1444 -0.7651 0.6275
vn -0.7837 0.2751 0.5569
vn 0.9845 -0.0096 -0.1749
vn -0.7540 0.0900 -0.6507
vn 0.4771 0.7479 0.4616
vn -0.0425 0.2936 0.9550
vn -0.5109 -0.4285 0.7452
vn -0.2177 0.6830 0.6973
vn -0.9589 0.0846 0.2710
vn 0.1428 -0.7237 -0.6752
vn 0.8126 0.5573 0.1707
vn -0.5896 -0.5153 0.6219
vn 0.8229 0.1172 -0.5560
vn -0.2567 0.8385 0.4806
vn 0.9960 0.0776 0.0447
vn 0.1802 -0.9117 -0.3693
vn -0.0538 -0.9110 0.4089
vn -0.1381 -0.8581 -0.4945
vn -0.8232 0.5273 -0.2103
vn 0.4387 0.8722 0.2163
vn 0.9923 -0.0440 -0.1154
vn 0.3075 0.5213 0.7961
vn 0.2715 0.9614 0.0445
vn -0.2136 0.9119 0.3505
vn 0.4618 0.8498 0.2542
vn 0.0702 0.9725 0.2220
vn -0.9751 0.1420 0.1705
vn 0.2309 -0.3475 0.9088
vn -0.1875 0.4733 -0.8607
vn -0.8326 -0.4082 -0.3744
vn -0.9672 -0.1687 0.1902
vn 0.2492 0.2128 -0.9448
vn -0.9571 0.2581 -0.1317
vn 0.0507 0.8405 0.5395
vn 0.4298 0.6977 0.5732
vn -0.1755 0.9082 0.3800
vn 0.9719 -0.1730 0.1598
vn 0.1232 0.9498 0.2875
vn -0.4197 -0.7997 -0.4293
vn -0.2012 -0.8700 0.4501
vn -0.4309 -0.8653 -0.2559
vn 0.3233 0.8180 0.4758
vn -0.1615 -0.8895 -0.4275
vn -0.0256 0.9996 0.0106
vn 0.4551 0.6698 0.5868
vn 0.3542 0.2798 0.8923
vn -0.2331 0.2882 -0.9287
vn -0.1038 0.1042 0.9891
vn -0.7420 -0.6189 0.2575
vn -0.2820 0.4749 0.8336
vn -0.6642 0.7233 0.1889
vn -0.4722 -0.7955 -0.3798
vn 0.1078 0.3344 0.9362
vn 0.5662 0.4729 0.6751
vn 0.0983 0.2917 0.9514
vn -0.2409 0.6613 -0.7104
vn -0.8721 0.4544 0.1814
vn 0.8936 -0.3372 0.2964
vn 0.4998 0.6869 0.5277
vn 0.3432 0.3881 -0.8553
vn -0.2967 -0.2689 0.9163
vn 0.5207 0.8374 0.1663
vn 0.4468 0.8925 0.0618
vn -0.1435 0.5596 0.8162
vn -0.5554 -0.0730 0.8284
vn 0.4303 0.7021 -0.5674
vn -0.2121 -0.5565 0.8033
vn 0.1331 0.1191 -0.9839
vn 0.9386 -0.3449 0.0063
vn -0.9831 0.0107 -0.1830
vn -0.0656 0.1842 -0.9807
vn -0.0376 -0.5678 0.8223
vn -0.9993 0.0219 -0.0316
vn 0.9628 -0.2667 -0.0437
vn -0.1040 -0.9854 -0.1350
vn 0.2085 -0.3516 0.9126
vn -0.9685 -0.2069 0.1389
vn -0.9687 -0.2101 0.1323
vn 0.9773 -0.1675 -0.1296
vn -0.1160 0.1021 -0.9880
vn -0.0759 -0.9897 0.1212
vn 0.0458 -0.9919 0.1181
vn 0.1653 -0.3457 0.9237
vn 0.2107 0.1124 -0.9711
vn 0.9639 -0.1331 0.2306
vn 0.6389 0.1031 -0.7624
vn 0.4404 -0.3375 -0.8320
vn 0.5433 -0.1861 -0.8187
vn 0.6181 -0.0750 -0.7825
vn 0.9918 -0.1207 0.0421
vn 0.9711 -0.2234 0.0836
vn 0.9485 -0.2792 0.1499
vn 0.0724 -0.3395 -0.9378
vn 0.1228 -0.1488 -0.9812
vn 0.1948 -0.0197 -0.9806
vn 0.2547 0.1201 0.9595
vn 0.2153 -0.1605 0.9633
vn 0.1667 -0.3258 0.9306
vn -0.9468 -0.0854 0.3104
vn -0.9687 -0.1206 0.2169
vn -0.9839 -0.1260 0.1271
vn -0.1871 -0.4968 -0.8474
vn -0.1209 -0.2225 -0.9674
vn -0.1083 -0.2236 -0.9686
vn 0.9228 0.2336 0.3063
vn 0.9835 -0.1031 0.1489
vn 0.9849 -0.1726 0.0145
vn -0.9835 0.0330 -0.1778
vn -0.9962 0.0296 0.0824
vn -0.9927 0.0748 0.0943
vn -0.4885 0.4299 0.7594
vn -0.2898 0.0763 0.9540
vn -0.1234 0.1391 0.9826
vn 0.3356 -0.3859 0.8594
vn 0.5520 0.3865 -0.7389
vn -0.0420 -0.4267 -0.9034
vn -0.1536 -0.7767 -0.6108
vn -0.7123 -0.0454 -0.7004
vt 0.461701 0.809397
vt 0.301930 0.729761
vt 0.094158 0.499911
vt 0.498737 0.648456
vt 0.250869 0.553264
vt 0.714874 0.752530
vt 0.627854 0.740386
vt 0.227533 0.339544
vt 0.300362 0.438253
vt 0.625828 0.633709
vt 0.338991 0.679376
vt 0.653754 0.621457
vt 0.189641 0.785401
vt 0.531284 0.815038
vt 0.232114 0.729761
vt 0.806952 0.326283
vt 0.527824 0.712310
vt 0.703640 0.331352
vt 0.725736 0.123548
vt 0.557184 0.740386
vt 0.714874 0.681901
vt 0.693091 0.138725
vt 0.558638 0.706064
vt 0.944491 0.391302
vt 0.108931 0.369345
vt 0.090202 0.443431
vt 0.952837 0.467016
vt 0.108059 0.346292
vt 0.960024 0.371234
vt 0.653754 0.712739
vt 0.761990 0.055860
vt 0.265996 0.788213
vt 0.829683 0.188590
vt 0.886815 0.394232
vt 0.909606 0.471204
vt 0.826550 0.267021
vt 0.659457 0.749480
vt 0.206417 0.267620
vt 0.238389 0.812575
vt 0.882743 0.373659
vt 0.837846 0.166681
vt 0.102618 0.289588
vt 0.957957 0.321520
vt 0.918648 0.216117
vt 0.803322 0.012950
vt 0.106348 0.638847
vt 0.232551 0.755661
vt 0.798789 0.485160
vt 0.965752 0.239402
vt 0.153968 0.222285
vt 0.894228 0.312474
vt 0.856067 0.102710
vt 0.881967 0.351902
vt 0.842627 0.144082
vt 0.107159 0.331692
vt 0.958812 0.358201
vt 0.199778 0.246429
vt 0.138792 0.619338
vt 0.232114 0.797406
vt 0.967580 0.012950
vt 0.753483 0.682459
vt 0.843831 0.469074
vt 0.256421 0.022764
vt 0.824689 0.472884
vt 0.987050 0.016155
vt 0.832147 0.505580
vt 0.295109 0.018166
vt 0.782932 0.707368
vt 0.843831 0.503254
vt 0.076417 0.467161
vt 0.958695 0.494573
vt 0.833773 0.298242
vt 0.909847 0.503107
vt 0.076958 0.454690
vt 0.951531 0.482650
vt 0.837149 0.281767
vt 0.912926 0.487172
vt 0.064432 0.532285
vt 0.298790 0.687460
vt 0.825577 0.362572
vt 0.264894 0.686125
vt 0.056614 0.518895
vt 0.959622 0.549977
vt 0.837123 0.350740
vt 0.929664 0.555276
vt 0.051257 0.577890
vt 0.291936 0.641182
vt 0.824256 0.407314
vt 0.275162 0.640522
vt 0.035793 0.577862
vt 0.964581 0.612577
vt 0.838997 0.411720
vt 0.948088 0.615681
vt 0.039898 0.592711
vt 0.301778 0.620707
vt 0.403076 0.772170
vt 0.830596 0.428615
vt 0.403076 0.737417
vt 0.267017 0.619338
vt 0.012950 0.593438
vt 0.987050 0.637067
vt 0.428919 0.781443
vt 0.856067 0.440612
vt 0.428919 0.728949
vt 0.935424 0.646785
vt 0.945356 0.412724
vt 0.357115 0.854737
vt 0.331665 0.779032
vt 0.948027 0.441601
vt 0.799629 0.752473
vt 0.327972 0.853161
vt 0.906904 0.416128
vt 0.370069 0.779032
vt 0.684668 0.778429
vt 0.909575 0.445005
vt 0.655249 0.778999
vt 0.799629 0.791035
vt 0.330193 0.729131
vt 0.557184 0.775635
vt 0.363063 0.804932
vt 0.331684 0.807874
vt 0.754247 0.751428
vt 0.586563 0.768755
vt 0.566112 0.815056
vt 0.689281 0.828405
vt 0.370405 0.729131
vt 0.754247 0.791805
vt 0.657717 0.824383
vt 0.595492 0.808176
vt 0.327830 0.637821
vt 0.590400 0.642651
vt 0.164818 0.789976
vt 0.357235 0.619338
vt 0.642851 0.190721
vt 0.562581 0.649581
vt 0.406824 0.626953
vt 0.080449 0.619338
vt 0.646201 0.239681
vt 0.727583 0.656002
vt 0.597847 0.731399
vt 0.712829 0.722239
vt 0.658284 0.323708
vt 0.527919 0.666449
vt 0.661748 0.291537
vt 0.680225 0.245582
vt 0.377645 0.696957
vt 0.285191 0.477898
vt 0.483372 0.812325
vt 0.280072 0.728266
vt 0.924330 0.393087
vt 0.921760 0.373660
vt 0.678504 0.727397
vt 0.268491 0.812575
vt 0.930826 0.465310
vt 0.923786 0.327561
vt 0.941993 0.227167
vt 0.764056 0.466512
vt 0.919524 0.351927
vt 0.977463 0.013354
vt 0.833186 0.466512
vt 0.317617 0.012950
vt 0.798789 0.722800
vt 0.839639 0.522681
vt 0.934403 0.500152
vt 0.932138 0.484309
vt 0.281656 0.689101
vt 0.944784 0.554368
vt 0.283549 0.640852
vt 0.956335 0.614129
vt 0.284323 0.620942
vt 0.399765 0.754789
vt 0.961112 0.640376
vt 0.422297 0.755187
vt 0.926130 0.414426
vt 0.350867 0.779032
vt 0.928801 0.443303
vt 0.799629 0.771754
vt 0.350773 0.728949
vt 0.557184 0.796361
vt 0.753483 0.771844
vt 0.595492 0.787450
vt 0.985581 0.067358
vt 0.238180 0.070710
vt 0.259592 0.052321
vt 0.138792 0.821791
vt 0.953366 0.057503
vt 0.765454 0.639660
vt 0.120235 0.821584
vt 0.772730 0.660154
vt 0.283154 0.037949
vt 0.784440 0.682652
vt 0.128680 0.843910
vt 0.970110 0.058056
vt 0.758353 0.637393
vt 0.180368 0.432154
vt 0.759258 0.257498
vt 0.884976 0.446549
vt 0.828099 0.241547
vt 0.971226 0.428512
vt 0.101516 0.405509
vt 0.908240 0.430567
vt 0.669958 0.778714
vt 0.946692 0.427163
vt 0.342544 0.853949
vt 0.673120 0.826722
vt 0.582140 0.817526
vt 0.570535 0.766286
vt 0.348248 0.806122
vt 0.576699 0.792002
vt 0.653753 0.802281
vt 0.776512 0.794925
vt 0.776512 0.748700
vt 0.327830 0.829868
vt 0.363063 0.830170
vt 0.327830 0.753980
vt 0.373865 0.753980
vt 0.689281 0.803194
vt 0.351093 0.753886
vt 0.776117 0.771930
vt 0.671321 0.802907
vt 0.345899 0.829874
vt 0.457498 0.727404
vt 0.165986 0.548054
vt 0.260364 0.376248
vt 0.625887 0.695531
vt 0.520555 0.743605
vt 0.734596 0.339638
vt 0.406824 0.703049
vt 0.012950 0.651015
vt 0.277407 0.507014
vt 0.206214 0.619338
vt 0.706517 0.466512
vt 0.399765 0.822801
vt 0.181517 0.620770
vt 0.619265 0.470337
vt 0.422433 0.807343
vt 0.582936 0.466512
vt 0.458892 0.202188
vt 0.422433 0.843958
vt 0.727583 0.468029
vt 0.460639 0.221880
vt 0.402692 0.843997
vt 0.717439 0.778459
vt 0.429089 0.593438
vt 0.518160 0.466685
vt 0.070962 0.817001
vt 0.726094 0.791097
vt 0.457498 0.298878
vt 0.715181 0.783741
vt 0.523936 0.466512
vt 0.458951 0.311476
vt 0.719061 0.788282
vt 0.458165 0.306435
vt 0.058766 0.817583
vt 0.726094 0.778429
vt 0.431598 0.585369
vt 0.599953 0.261833
vt 0.080449 0.668491
vt 0.542336 0.274386
vt 0.076079 0.728305
vt 0.500395 0.287212
vt 0.064936 0.773359
vt 0.389801 0.564275
vt 0.039540 0.774208
vt 0.356388 0.547019
vt 0.031995 0.737396
vt 0.319737 0.531779
vt 0.030523 0.696843
vt 0.505723 0.512116
vt 0.384015 0.580847
vt 0.506522 0.550736
vt 0.346302 0.574833
vt 0.507607 0.604105
vt 0.294291 0.566034
vt 0.610540 0.298468
vt 0.545535 0.300686
vt 0.502363 0.302883
vt 0.504402 0.313331
vt 0.517745 0.511765
vt 0.548610 0.318269
vt 0.527842 0.556627
vt 0.609940 0.323717
vt 0.531284 0.618364
vt 0.660591 0.582499
vt 0.204501 0.743892
vt 0.668589 0.550878
vt 0.206214 0.710848
vt 0.668004 0.517120
vt 0.204545 0.678125
vt 0.623877 0.525891
vt 0.164692 0.675333
vt 0.610236 0.563455
vt 0.167167 0.712219
vt 0.605277 0.597358
vt 0.166352 0.745757
vt 0.511839 0.183186
vt 0.584607 0.521652
vt 0.552303 0.182624
vt 0.569857 0.561129
vt 0.598009 0.178631
vt 0.565182 0.606784
vt 0.592158 0.236754
vt 0.721184 0.600612
vt 0.550092 0.232946
vt 0.722606 0.558204
vt 0.518921 0.225772
vt 0.713819 0.525134
s 0
usemtl Material
f 89/196/1 7/19/1 13/33/1 90/198/1
f 8/22/2 7/19/2 89/196/2 58/145/2 54/138/2 53/134/2
f 6/18/3 56/142/3 57/144/3
f 3/8/4 106/224/4 4/9/4 59/147/4 88/195/4
f 6/17/5 107/226/5 5/14/5 60/148/5 1/1/5 105/222/5 2/4/5 56/143/5
f 61/150/6 13/34/6 16/40/6 62/151/6
f 5/16/7 14/36/7 31/76/7 29/72/7
f 88/195/8 1/3/8 10/26/8 91/200/8
f 67/158/9 21/53/9 20/51/9 65/155/9
f 13/33/10 7/19/10 12/31/10 16/41/10
f 3/8/11 9/25/11 11/28/11 15/38/11
f 55/141/12 3/6/12 15/37/12 63/152/12
f 66/156/13 19/49/13 17/43/13 65/155/13
f 23/57/14 22/55/14 17/42/14 19/50/14
f 83/184/15 82/183/15 25/63/15 26/67/15
f 15/38/16 11/28/16 22/55/16 23/57/16
f 62/151/17 16/40/17 21/53/17 67/158/17
f 69/163/18 26/66/18 25/64/18 68/160/18
f 87/193/19 84/186/19 24/60/19 68/159/19
f 86/190/20 83/184/20 26/67/20 69/161/20
f 84/187/21 85/189/21 27/68/21 24/61/21
f 70/164/22 29/73/22 31/77/22 71/165/22
f 70/164/23 28/71/23 34/83/23 73/167/23
f 10/26/24 1/3/24 28/70/24 30/74/24
f 64/154/25 10/27/25 30/75/25 71/165/25
f 34/82/26 32/78/26 36/86/26 38/90/26
f 60/149/27 5/15/27 33/81/27 72/166/27
f 5/16/28 29/72/28 35/84/28 33/80/28
f 28/70/29 1/3/29 32/78/29 34/82/29
f 37/88/30 39/92/30 43/103/30 41/97/30
f 73/167/31 34/83/31 38/91/31 75/169/31
f 33/80/32 35/84/32 39/92/32 37/88/32
f 72/166/33 33/81/33 37/89/33 74/168/33
f 76/171/34 41/98/34 43/104/34 77/173/34
f 74/168/35 37/89/35 41/99/35 76/170/35
f 38/90/36 36/86/36 40/94/36 42/100/36
f 75/169/37 38/91/37 42/101/37 77/172/37
f 102/219/38 97/211/38 51/127/38 81/180/38
f 91/199/39 10/27/39 45/109/39 93/203/39
f 90/197/40 13/34/40 46/112/40 92/201/40
f 61/150/41 9/24/41 44/106/41 78/174/41
f 64/154/42 14/35/42 47/115/42 79/176/42
f 96/209/43 94/206/43 50/124/43 80/179/43
f 101/218/44 99/215/44 48/118/44 80/178/44
f 104/221/45 98/213/45 49/121/45 95/208/45
f 103/220/46 100/217/46 50/125/46 94/205/46
f 8/23/47 53/135/47 52/131/47
f 8/23/48 52/131/48 4/10/48 106/225/48 3/7/48 55/140/48 7/20/48
f 54/138/49 58/145/49 89/196/49 5/16/49 107/227/49 6/18/49 57/144/49
f 100/216/50 101/218/50 80/178/50 50/126/50
f 95/207/51 96/209/51 80/179/51 48/119/51
f 10/27/52 64/154/52 79/176/52 45/109/52
f 13/34/53 61/150/53 78/174/53 46/112/53
f 98/212/54 102/219/54 81/180/54 49/122/54
f 39/93/55 75/169/55 77/172/55 43/105/55
f 36/87/56 74/168/56 76/170/56 40/95/56
f 40/96/57 76/171/57 77/173/57 42/102/57
f 32/79/58 72/166/58 74/168/58 36/87/58
f 35/85/59 73/167/59 75/169/59 39/93/59
f 1/2/60 60/149/60 72/166/60 32/79/60
f 14/35/61 64/154/61 71/165/61 31/77/61
f 29/73/62 70/164/62 73/167/62 35/85/62
f 28/71/63 70/164/63 71/165/63 30/75/63
f 85/189/64 86/191/64 69/162/64 27/68/64
f 82/182/65 87/193/65 68/159/65 25/65/65
f 27/69/66 69/163/66 68/160/66 24/62/66
f 11/29/67 62/151/67 67/158/67 22/56/67
f 18/44/68 66/156/68 65/155/68 20/51/68
f 7/21/69 55/141/69 63/152/69 12/30/69
f 22/56/70 67/158/70 65/155/70 17/43/70
f 9/24/71 61/150/71 62/151/71 11/29/71
f 19/49/72 66/156/72 87/193/72 82/182/72
f 12/31/73 18/45/73 20/52/73 21/54/73 16/41/73
f 66/157/74 18/48/74 84/187/74 87/194/74
f 23/57/75 19/50/75 82/183/75 83/184/75
f 49/123/76 81/181/76 96/209/76 95/207/76
f 97/210/77 103/220/77 94/205/77 51/128/77
f 99/214/78 104/221/78 95/208/78 48/120/78
f 81/181/79 51/129/79 94/206/79 96/209/79
f 14/35/80 90/197/80 92/201/80 47/115/80
f 9/24/81 91/199/81 93/203/81 44/106/81
f 3/8/82 88/195/82 91/200/82 9/25/82
f 5/16/83 89/196/83 90/198/83 14/36/83
f 44/107/84 93/204/84 104/221/84 99/214/84
f 47/116/85 92/202/85 103/220/85 97/210/85
f 45/110/86 79/177/86 102/219/86 98/212/86
f 46/113/87 78/175/87 101/218/87 100/216/87
f 92/202/88 46/114/88 100/217/88 103/220/88
f 93/204/89 45/111/89 98/213/89 104/221/89
f 78/175/90 44/108/90 99/215/90 101/218/90
f 79/177/91 47/117/91 97/211/91 102/219/91
f 59/146/92 4/11/92 52/130/92 53/133/92 54/136/92 108/228/92
f 136/291/93 110/234/93 109/231/93 135/289/93
f 121/264/94 120/262/94 114/246/94 117/254/94
f 139/297/95 111/237/95 110/235/95 136/290/95
f 135/288/96 109/232/96 112/240/96 144/307/96
f 144/306/97 112/241/97 111/238/97 139/296/97
f 111/239/98 112/242/98 109/233/98 110/236/98
f 117/255/99 114/247/99 116/252/99 115/249/99 113/243/99
f 124/270/100 121/263/100 117/256/100 113/244/100
f 120/261/101 129/277/101 116/253/101 114/248/101
f 130/279/102 124/269/102 113/245/102 115/250/102
f 129/277/103 130/278/103 115/251/103 116/253/103
f 57/144/104 56/142/104 132/282/104 127/275/104
f 127/275/105 132/282/105 131/280/105 128/276/105
f 128/276/106 131/280/106 130/278/106 129/277/106
f 56/143/107 2/4/107 126/273/107 132/283/107
f 132/283/108 126/273/108 125/271/108 131/281/108
f 131/281/109 125/271/109 124/269/109 130/279/109
f 54/138/110 57/144/110 127/275/110 118/257/110
f 118/257/111 127/275/111 128/276/111 119/259/111
f 119/259/112 128/276/112 129/277/112 120/261/112
f 2/5/113 108/230/113 123/267/113 126/274/113
f 126/274/114 123/267/114 122/265/114 125/272/114
f 125/272/115 122/265/115 121/263/115 124/270/115
f 108/229/116 54/137/116 118/258/116 123/268/116
f 123/268/117 118/258/117 119/260/117 122/266/117
f 122/266/118 119/260/118 120/262/118 121/264/118
f 54/138/119 142/302/119 141/300/119 53/134/119
f 142/302/120 143/304/120 140/298/120 141/300/120
f 143/304/121 144/306/121 139/296/121 140/298/121
f 4/12/122 133/284/122 142/303/122 54/139/122
f 133/284/123 134/286/123 143/305/123 142/303/123
f 134/286/124 135/288/124 144/307/124 143/305/124
f 53/135/125 141/301/125 138/294/125 52/131/125
f 141/301/126 140/299/126 137/292/126 138/294/126
f 140/299/127 139/297/127 136/290/127 137/292/127
f 52/132/128 138/295/128 133/285/128 4/13/128
f 138/295/129 137/293/129 134/287/129 133/285/129
f 137/293/130 136/291/130 135/289/130 134/287/130
f 105/223/131 1/3/131 88/195/131 59/147/131 108/230/131 2/5/131
f 86/192/132 85/188/132 83/185/132
f 83/185/133 85/188/133 18/46/133 23/58/133
f 63/153/134 15/39/134 23/59/134 18/47/134 12/32/134
f 84/187/135 18/48/135 85/189/135
l 52 106
