# Blender 3.3.1
# www.blender.org
mtllib monstruo_3_grande_caminar625.mtl
o monstruo_grande
v 0.348685 2.021491 0.228618
v 0.520577 1.196519 0.102195
v -0.731299 1.724174 0.214111
v -0.295483 1.091621 0.205999
v 0.474211 2.318722 -0.118698
v 0.522456 1.611206 -0.237049
v -0.880478 1.954696 -0.186698
v -0.764461 1.682754 -0.266472
v -0.352494 2.371439 0.503375
v 0.206131 2.288818 0.441448
v -0.478809 2.333259 0.607911
v -1.245680 1.987772 -0.009740
v -0.366934 2.544352 0.148356
v 0.185336 2.434886 0.185377
v -1.082591 1.852428 0.132746
v -0.530696 2.610842 0.181554
v -0.824046 2.234589 0.640204
v -1.519442 1.900873 0.274482
v -1.229881 1.939249 0.463609
v -1.030058 2.550358 0.393800
v -0.711611 2.643388 0.262328
v -0.553275 2.285221 0.585784
v -1.214081 1.868992 0.145422
v -1.783946 0.626237 0.938299
v -1.655538 0.605334 0.976310
v -1.649708 0.435823 0.769246
v -1.728084 0.448582 0.746045
v 0.366985 2.210369 0.414265
v 0.442870 2.414380 0.155438
v 0.319973 2.322286 0.431863
v 0.316703 2.461664 0.207995
v 0.602962 1.911035 0.196781
v 0.700104 2.013083 0.015028
v 0.624455 1.989374 0.245622
v 0.689525 2.111994 0.091877
v 0.788294 1.694208 0.125758
v 0.854562 1.732199 0.039865
v 0.877211 1.665012 0.174971
v 0.939824 1.711218 0.089543
v 0.817859 1.542866 0.151380
v 0.951506 1.637013 -0.023791
v 0.940900 1.449219 0.273591
v 1.136096 1.589107 0.004131
v -0.190791 2.429864 0.517160
v 0.019196 2.405033 0.494869
v -0.198735 2.533181 0.271505
v 0.004133 2.508872 0.252806
v -0.134267 2.744181 0.661021
v 0.070501 2.679396 0.618779
v -0.150870 2.857665 0.407862
v 0.052866 2.793382 0.365247
v -0.501614 1.130266 -0.008507
v -0.386231 1.180733 -0.216693
v -0.050880 1.278735 -0.333277
v -0.795135 1.772959 -0.000846
v 0.551148 1.196408 -0.134833
v 0.334622 1.194618 -0.266286
v -0.017791 1.528793 -0.321340
v -0.016505 1.143938 0.189032
v 0.392382 2.110621 0.110922
v -0.351293 2.432801 0.378605
v -0.514582 2.583558 0.452865
v -1.020841 1.925655 0.011826
v 0.173607 2.417430 0.345774
v -0.860406 2.461888 0.605309
v -1.404850 2.038696 0.516223
v -0.666727 2.563263 0.453264
v -1.729315 0.613586 0.988434
v -1.675712 0.330341 0.651590
v 0.443225 2.324007 0.312117
v 0.319360 2.436657 0.343394
v 0.606476 1.942478 0.070544
v 0.699093 2.062631 0.197233
v 0.819886 1.715925 0.082762
v 0.908391 1.687357 0.131929
v 0.863562 1.591685 0.049788
v 1.000675 1.524189 0.114072
v -0.194811 2.481060 0.393246
v 0.010329 2.457860 0.373291
v -0.173730 2.802214 0.537153
v 0.093206 2.735249 0.489615
v -1.536767 0.932724 0.922510
v -1.598520 0.760206 0.854660
v -1.758283 0.939247 0.857533
v -1.719382 0.779880 0.818883
v -1.662347 0.605526 0.757772
v -1.666785 0.915006 0.942955
v -0.071664 1.754852 0.519349
v 0.036545 2.142154 -0.188294
v -0.004484 2.515476 0.072542
v -0.027250 2.263925 0.627762
v -0.098881 2.520207 0.260479
v -0.082181 2.417536 0.505352
v -0.051773 2.842311 0.348301
v -0.029449 2.694767 0.677808
v -0.036132 2.819159 0.535924
v 0.042415 2.660045 0.284554
v 0.060173 2.531529 0.574314
v -0.175464 2.580449 0.611617
v -0.195356 2.708525 0.320209
v -0.201463 2.645480 0.467530
v 0.066872 2.595581 0.427928
v -0.078277 2.692768 0.282022
v -0.055565 2.546421 0.612653
v 0.403965 1.712004 -0.019518
v -0.596469 1.445400 0.225445
v 0.508994 1.830683 -0.233626
v 0.169573 1.181459 0.197598
v -0.216132 0.008670 -0.183369
v -0.362782 0.012195 -0.063723
v -0.383939 0.015347 -0.313632
v -0.248509 0.010951 -0.325916
v 0.308964 0.015291 0.400393
v 0.230973 -0.013358 0.335102
v 0.315953 -0.000022 0.364480
v 0.282831 -0.010330 0.342386
v 0.250696 0.020952 0.413168
v 0.087060 0.845440 -0.087754
v 0.123454 0.558128 0.101924
v 0.172867 0.291729 0.253844
v 0.222073 0.339278 0.422323
v 0.202952 0.595794 0.395943
v 0.204259 0.864619 0.322150
v 0.341630 0.329155 0.388436
v 0.404415 0.582321 0.336025
v 0.488005 0.914940 0.235223
v 0.344182 0.876478 -0.062594
v 0.304879 0.562800 0.119147
v 0.281037 0.294420 0.264128
v 0.352234 0.307948 0.309305
v 0.424521 0.585265 0.193396
v 0.512441 0.909948 0.045748
v -0.183867 0.810585 0.250262
v -0.160403 0.536484 0.149887
v -0.159962 0.303325 0.088608
v -0.445313 0.299493 0.074487
v -0.450871 0.572123 0.100530
v -0.469885 0.825585 0.122517
v -0.476803 0.373902 -0.182715
v -0.479898 0.650449 -0.159166
v -0.479907 0.884959 -0.149880
v -0.084191 0.841079 -0.178471
v -0.136805 0.631054 -0.203746
v -0.184222 0.417472 -0.206506
vn -0.1194 0.5641 -0.8170
vn -0.0821 0.1093 -0.9906
vn 0.5123 -0.1719 -0.8414
vn -0.2239 -0.3213 0.9201
vn 0.9435 0.0588 0.3262
vn 0.5848 0.7905 0.1818
vn 0.0281 0.9207 -0.3893
vn 0.6377 -0.2243 0.7369
vn -0.1023 0.8969 0.4303
vn -0.2120 0.5618 -0.7997
vn -0.0578 -0.5250 0.8491
vn -0.3854 -0.8681 -0.3129
vn -0.1563 -0.1540 0.9756
vn 0.3796 -0.8615 0.3373
vn 0.9588 -0.2560 0.1235
vn 0.0887 -0.7699 0.6319
vn 0.0880 0.9728 0.2144
vn 0.0644 -0.7635 0.6426
vn -0.6263 0.2422 0.7410
vn 0.9042 0.0386 -0.4254
vn -0.9008 0.0427 -0.4321
vn 0.5830 0.7577 0.2933
vn 0.5893 0.1619 0.7916
vn -0.1372 -0.5635 0.8146
vn -0.0838 0.5946 0.7997
vn -0.4180 -0.5313 0.7369
vn -0.4000 -0.5202 -0.7546
vn 0.7813 0.5808 -0.2287
vn -0.1216 -0.6444 0.7550
vn 0.3451 0.8011 -0.4890
vn 0.5353 0.1938 0.8221
vn 0.6750 0.3799 -0.6324
vn -0.4054 -0.3554 -0.8422
vn -0.1090 -0.7880 -0.6060
vn -0.6601 -0.0949 -0.7451
vn -0.5788 0.1256 0.8057
vn 0.7375 0.4168 0.5314
vn 0.9712 -0.0067 -0.2381
vn 0.4075 0.5514 0.7279
vn 0.0900 0.9959 -0.0007
vn -0.3237 0.8606 0.3932
vn 0.3628 0.9037 0.2274
vn 0.0555 0.9688 0.2416
vn -0.9547 0.1014 0.2798
vn 0.3406 -0.3629 0.8673
vn -0.2988 0.4923 -0.8175
vn -0.6658 -0.5514 -0.5027
vn -0.8705 -0.4543 0.1894
vn 0.0992 0.1275 -0.9869
vn -0.9729 0.2312 -0.0029
vn 0.0753 0.8282 0.5554
vn 0.4459 0.7270 0.5222
vn -0.2762 0.8655 0.4178
vn 0.9889 -0.1422 0.0436
vn 0.5596 0.2842 0.7785
vn -0.8188 -0.2033 -0.5369
vn -0.1857 -0.8567 -0.4812
vn -0.7214 -0.6037 -0.3393
vn 0.8199 0.4553 0.3470
vn -0.5054 -0.7307 -0.4590
vn -0.1719 0.9759 0.1348
vn 0.7586 0.5864 0.2840
vn 0.6507 0.3483 0.6748
vn -0.4816 0.2642 -0.8356
vn 0.1518 0.1113 0.9821
vn -0.6158 -0.6528 0.4413
vn -0.2114 0.4205 0.8823
vn -0.7028 0.6045 0.3749
vn -0.3887 -0.8317 -0.3965
vn 0.2717 0.3743 0.8866
vn 0.5793 0.5792 0.5736
vn 0.2971 0.2978 0.9072
vn -0.5032 0.6043 -0.6178
vn -0.8343 0.3894 0.3904
vn 0.9583 -0.2792 0.0615
vn 0.5263 0.6933 0.4922
vn 0.2297 0.4249 -0.8756
vn -0.1866 -0.3028 0.9346
vn 0.5019 0.8547 0.1326
vn 0.2926 0.9560 0.0210
vn -0.0898 0.4896 0.8673
vn -0.4051 -0.1612 0.8999
vn 0.0654 0.7727 -0.6314
vn -0.0784 -0.5758 0.8138
vn 0.0090 0.1608 -0.9869
vn 0.9498 -0.2838 -0.1315
vn -0.9999 -0.0058 -0.0106
vn -0.1903 0.2069 -0.9597
vn 0.1014 -0.6046 0.7901
vn -0.9946 -0.0262 0.1000
vn 0.9448 -0.2452 -0.2171
vn 0.1642 -0.9552 -0.2463
vn 0.1972 -0.5588 0.8055
vn -0.9496 -0.0976 0.2979
vn -0.9574 -0.2834 0.0561
vn 0.9850 -0.0854 -0.1502
vn -0.1077 0.3055 -0.9461
vn -0.0325 -0.9994 -0.0094
vn 0.0018 -0.9155 0.4024
vn 0.2540 0.0027 0.9672
vn 0.1144 -0.2409 -0.9638
vn 0.9799 -0.0894 0.1782
vn 0.5631 -0.2060 -0.8003
vn 0.4945 -0.4831 -0.7225
vn 0.5362 -0.4690 -0.7018
vn 0.5346 -0.4393 -0.7219
vn 0.9903 -0.0534 0.1284
vn 0.9702 -0.2035 0.1314
vn 0.9684 -0.1988 0.1505
vn 0.0824 -0.4994 -0.8624
vn 0.1241 -0.5221 -0.8438
vn 0.0950 -0.4797 -0.8723
vn 0.2176 0.3865 0.8962
vn 0.2653 0.2341 0.9353
vn 0.2866 0.1223 0.9502
vn -0.9413 -0.0521 0.3335
vn -0.9625 0.0642 0.2637
vn -0.9613 -0.0327 0.2735
vn -0.1698 -0.2580 -0.9511
vn -0.0907 0.0879 -0.9920
vn -0.1091 0.0631 -0.9920
vn 0.9079 0.2009 0.3680
vn 0.9855 -0.0957 0.1400
vn 0.9945 -0.0998 -0.0331
vn -0.9778 0.0327 -0.2069
vn -0.9972 -0.0429 0.0621
vn -0.9937 -0.0255 0.1088
vn -0.5595 0.1090 0.8216
vn -0.3043 -0.2384 0.9223
vn -0.1173 -0.1703 0.9784
vn 0.5772 -0.1362 0.8052
vn 0.3195 0.4048 -0.8568
vn -0.2423 -0.4264 -0.8715
vn -0.2389 -0.7951 -0.5574
vn -0.8615 -0.0891 -0.4998
vt 0.882279 0.260085
vt 0.436089 0.649131
vt 0.117664 0.305524
vt 0.860974 0.338762
vt 0.079561 0.383885
vt 0.278417 0.728674
vt 0.111517 0.716819
vt 0.301243 0.337859
vt 0.232943 0.387386
vt 0.111517 0.662267
vt 0.671871 0.687525
vt 0.175114 0.511099
vt 0.930991 0.712692
vt 0.796001 0.259488
vt 0.522181 0.649131
vt 0.719621 0.316178
vt 0.801110 0.310020
vt 0.698705 0.366293
vt 0.510656 0.337024
vt 0.023033 0.717149
vt 0.367094 0.730187
vt 0.507246 0.358198
vt 0.018976 0.695717
vt 0.103380 0.570561
vt 0.268725 0.266033
vt 0.143950 0.273348
vt 0.098384 0.631539
vt 0.301351 0.259488
vt 0.128079 0.559933
vt 0.480438 0.333338
vt 0.348619 0.714075
vt 0.604958 0.268707
vt 0.031105 0.562973
vt 0.043818 0.625810
vt 0.721993 0.282954
vt 0.329365 0.336360
vt 0.302724 0.713315
vt 0.030374 0.549675
vt 0.582817 0.260846
vt 0.875347 0.642471
vt 0.380514 0.272320
vt 0.124895 0.517524
vt 0.813390 0.578569
vt 0.436089 0.332372
vt 0.956124 0.588845
vt 0.367094 0.692599
vt 0.367094 0.522797
vt 0.871643 0.594841
vt 0.398138 0.324445
vt 0.043891 0.509019
vt 0.796001 0.641153
vt 0.491075 0.268473
vt 0.032114 0.534706
vt 0.552485 0.259488
vt 0.331566 0.259909
vt 0.129819 0.544964
vt 0.339759 0.337186
vt 0.913298 0.588845
vt 0.317584 0.707220
vt 0.845734 0.463378
vt 0.311567 0.646434
vt 0.944558 0.353645
vt 0.398138 0.462439
vt 0.920230 0.354337
vt 0.870057 0.463781
vt 0.929709 0.374247
vt 0.357807 0.478584
vt 0.347994 0.663056
vt 0.944558 0.373825
vt 0.097076 0.285727
vt 0.229765 0.651022
vt 0.758050 0.297859
vt 0.168317 0.651042
vt 0.119329 0.272208
vt 0.094178 0.643292
vt 0.222768 0.636959
vt 0.746872 0.283208
vt 0.174541 0.636975
vt 0.045175 0.638147
vt 0.080672 0.327471
vt 0.442544 0.673801
vt 0.734592 0.339187
vt 0.484453 0.673801
vt 0.070725 0.319456
vt 0.218298 0.685110
vt 0.751374 0.331694
vt 0.180611 0.684911
vt 0.062412 0.356092
vt 0.455575 0.702696
vt 0.724658 0.367821
vt 0.476314 0.702696
vt 0.043357 0.357400
vt 0.210236 0.723455
vt 0.742364 0.370210
vt 0.189444 0.723462
vt 0.050281 0.367705
vt 0.444942 0.715336
vt 0.810526 0.722486
vt 0.728448 0.380153
vt 0.853695 0.722486
vt 0.487920 0.715336
vt 0.018975 0.371756
vt 0.232852 0.738567
vt 0.796001 0.739289
vt 0.758050 0.386241
vt 0.861207 0.739289
vt 0.167770 0.738589
vt 0.100634 0.583041
vt 0.712300 0.698974
vt 0.802197 0.701507
vt 0.098640 0.600731
vt 0.972705 0.287497
vt 0.747907 0.696578
vt 0.052045 0.577939
vt 0.849895 0.701507
vt 0.710445 0.675017
vt 0.050052 0.595630
vt 0.746553 0.677603
vt 0.924885 0.287497
vt 0.797725 0.671259
vt 0.981025 0.313792
vt 0.715147 0.730011
vt 0.752543 0.724602
vt 0.973919 0.259495
vt 0.967002 0.332143
vt 0.934252 0.306472
vt 0.715328 0.644023
vt 0.847669 0.671259
vt 0.923848 0.259495
vt 0.753088 0.649631
vt 0.920230 0.324823
vt 0.068284 0.665533
vt 0.630362 0.705721
vt 0.712055 0.621316
vt 0.966165 0.712391
vt 0.519769 0.388732
vt 0.031375 0.663704
vt 0.592215 0.695479
vt 0.581836 0.620019
vt 0.750017 0.621843
vt 0.569690 0.667298
vt 0.581066 0.387596
vt 0.531739 0.516092
vt 0.642835 0.625048
vt 0.273616 0.509019
vt 0.070982 0.710642
vt 0.316851 0.732164
vt 0.684917 0.393810
vt 0.816625 0.338063
vt 0.644803 0.392946
vt 0.602800 0.367236
vt 0.671871 0.661666
vt 0.181146 0.386242
vt 0.855113 0.259897
vt 0.463196 0.649131
vt 0.077903 0.567886
vt 0.078993 0.554271
vt 0.322237 0.720993
vt 0.070972 0.628379
vt 0.834014 0.651825
vt 0.084160 0.512738
vt 0.838315 0.596273
vt 0.320679 0.509019
vt 0.080733 0.539302
vt 0.857365 0.464048
vt 0.931678 0.351118
vt 0.335174 0.488977
vt 0.367094 0.673623
vt 0.939667 0.384854
vt 0.199177 0.651021
vt 0.069465 0.641494
vt 0.198664 0.632807
vt 0.464209 0.672968
vt 0.199604 0.684998
vt 0.465945 0.702696
vt 0.199840 0.723459
vt 0.466714 0.715004
vt 0.832520 0.720483
vt 0.200177 0.738589
vt 0.829423 0.735282
vt 0.076340 0.580490
vt 0.826046 0.701507
vt 0.074346 0.598181
vt 0.948795 0.287497
vt 0.823088 0.670800
vt 0.959731 0.307426
vt 0.948976 0.259488
vt 0.941524 0.331189
vt 0.875347 0.491894
vt 0.391834 0.432095
vt 0.377694 0.448634
vt 0.915590 0.478791
vt 0.834644 0.488373
vt 0.326937 0.619279
vt 0.938593 0.478810
vt 0.335216 0.632947
vt 0.358601 0.463790
vt 0.348787 0.648138
vt 0.927106 0.463378
vt 0.854274 0.489560
vt 0.315804 0.619182
vt 0.212520 0.321385
vt 0.644070 0.318501
vt 0.018976 0.592450
vt 0.663817 0.276029
vt 0.129819 0.597828
vt 0.224108 0.269832
vt 0.051049 0.586785
vt 0.728499 0.676310
vt 0.099637 0.591886
vt 0.730103 0.697776
vt 0.734390 0.646904
vt 0.920230 0.314550
vt 0.981025 0.324065
vt 0.732426 0.727384
vt 0.950683 0.319044
vt 0.753088 0.663662
vt 0.920230 0.273492
vt 0.977552 0.273492
vt 0.752543 0.710647
vt 0.709822 0.714522
vt 0.796001 0.686127
vt 0.853178 0.686127
vt 0.709822 0.659561
vt 0.824792 0.685890
vt 0.948939 0.273488
vt 0.731549 0.661651
vt 0.730449 0.712624
vt 0.878850 0.297575
vt 0.096711 0.342677
vt 0.285581 0.357771
vt 0.108549 0.696221
vt 0.804979 0.293594
vt 0.708839 0.350023
vt 0.668288 0.644023
vt 0.436089 0.526409
vt 0.145034 0.385321
vt 0.919159 0.607821
vt 0.247387 0.613831
vt 0.970304 0.416607
vt 0.947808 0.608020
vt 0.704660 0.516092
vt 0.970304 0.403829
vt 0.750017 0.516884
vt 0.618892 0.516092
vt 0.920230 0.404231
vt 0.273616 0.612878
vt 0.642836 0.516847
vt 0.938584 0.415207
vt 0.924281 0.443436
vt 0.075400 0.489812
vt 0.855524 0.444402
vt 0.531739 0.629156
vt 0.934913 0.435583
vt 0.576828 0.496673
vt 0.931440 0.443424
vt 0.848383 0.444289
vt 0.592622 0.497116
vt 0.934913 0.440184
vt 0.586164 0.496977
vt 0.517161 0.630156
vt 0.920230 0.438606
vt 0.085942 0.490043
vt 0.585376 0.420489
vt 0.510472 0.551446
vt 0.582586 0.444044
vt 0.504260 0.576063
vt 0.581388 0.469636
vt 0.508131 0.602400
vt 0.103684 0.463024
vt 0.477645 0.604263
vt 0.118194 0.440373
vt 0.454885 0.581958
vt 0.129418 0.415411
vt 0.438452 0.557360
vt 0.876897 0.417052
vt 0.081901 0.462161
vt 0.882279 0.393921
vt 0.081653 0.438865
vt 0.880271 0.363315
vt 0.079604 0.408162
vt 0.633117 0.418943
vt 0.615530 0.444447
vt 0.600997 0.469910
vt 0.614559 0.469949
vt 0.862035 0.416811
vt 0.638313 0.444473
vt 0.857648 0.390640
vt 0.666106 0.417503
vt 0.844696 0.362700
vt 0.167770 0.536691
vt 0.914144 0.688660
vt 0.182151 0.561697
vt 0.913298 0.663084
vt 0.189855 0.582503
vt 0.915415 0.641729
vt 0.680787 0.549268
vt 0.966165 0.641681
vt 0.684678 0.573659
vt 0.963812 0.665813
vt 0.684995 0.596421
vt 0.964308 0.688427
vt 0.584794 0.548886
vt 0.729850 0.550060
vt 0.578610 0.572959
vt 0.734888 0.574452
vt 0.569690 0.595426
vt 0.736445 0.597214
vt 0.642060 0.590920
vt 0.247172 0.543053
vt 0.641052 0.570535
vt 0.248998 0.562413
vt 0.635978 0.552556
vt 0.245738 0.579271
s 0
usemtl Material
f 89/203/1 7/19/1 13/32/1 90/205/1
f 8/22/2 7/19/2 89/203/2 58/151/2 54/142/2 53/136/2
f 6/18/3 56/148/3 57/150/3
f 3/8/4 106/231/4 4/9/4 59/153/4 88/202/4
f 6/17/5 107/233/5 5/14/5 60/154/5 1/1/5 105/229/5 2/4/5 56/149/5
f 61/156/6 13/33/6 16/38/6 62/157/6
f 5/16/7 14/35/7 31/77/7 29/72/7
f 88/202/8 1/3/8 10/26/8 91/207/8
f 67/164/9 21/53/9 20/50/9 65/161/9
f 13/32/10 7/19/10 12/30/10 16/39/10
f 3/8/11 9/25/11 11/28/11 15/36/11
f 55/147/12 3/6/12 15/37/12 63/158/12
f 66/162/13 19/48/13 17/40/13 65/160/13
f 23/57/14 22/55/14 17/41/14 19/49/14
f 83/191/15 82/190/15 25/63/15 26/67/15
f 15/36/16 11/28/16 22/55/16 23/57/16
f 62/157/17 16/38/17 21/53/17 67/164/17
f 69/169/18 26/66/18 25/64/18 68/166/18
f 87/200/19 84/193/19 24/60/19 68/165/19
f 86/197/20 83/191/20 26/67/20 69/167/20
f 84/194/21 85/196/21 27/68/21 24/61/21
f 70/170/22 29/73/22 31/78/22 71/172/22
f 70/170/23 28/71/23 34/85/23 73/174/23
f 10/26/24 1/3/24 28/70/24 30/74/24
f 64/159/25 10/27/25 30/75/25 71/171/25
f 34/84/26 32/80/26 36/88/26 38/92/26
f 60/155/27 5/15/27 33/83/27 72/173/27
f 5/16/28 29/72/28 35/86/28 33/82/28
f 28/70/29 1/3/29 32/80/29 34/84/29
f 37/90/30 39/94/30 43/105/30 41/99/30
f 73/174/31 34/85/31 38/93/31 75/176/31
f 33/82/32 35/86/32 39/94/32 37/90/32
f 72/173/33 33/83/33 37/91/33 74/175/33
f 76/178/34 41/100/34 43/106/34 77/180/34
f 74/175/35 37/91/35 41/101/35 76/177/35
f 38/92/36 36/88/36 40/96/36 42/102/36
f 75/176/37 38/93/37 42/103/37 77/179/37
f 102/226/38 97/218/38 51/129/38 81/187/38
f 91/206/39 10/27/39 45/111/39 93/210/39
f 90/204/40 13/33/40 46/114/40 92/208/40
f 61/156/41 9/24/41 44/108/41 78/181/41
f 64/159/42 14/34/42 47/117/42 79/183/42
f 96/216/43 94/213/43 50/126/43 80/186/43
f 101/225/44 99/222/44 48/120/44 80/185/44
f 104/228/45 98/220/45 49/123/45 95/215/45
f 103/227/46 100/224/46 50/127/46 94/212/46
f 8/23/47 53/137/47 52/132/47
f 8/23/48 52/132/48 4/10/48 106/232/48 3/7/48 55/146/48 7/20/48
f 54/142/49 58/151/49 89/203/49 5/16/49 107/234/49 6/18/49 57/150/49
f 100/223/50 101/225/50 80/185/50 50/128/50
f 95/214/51 96/216/51 80/186/51 48/121/51
f 10/27/52 64/159/52 79/183/52 45/111/52
f 13/33/53 61/156/53 78/181/53 46/114/53
f 98/219/54 102/226/54 81/187/54 49/124/54
f 39/95/55 75/176/55 77/179/55 43/107/55
f 36/89/56 74/175/56 76/177/56 40/97/56
f 40/98/57 76/178/57 77/180/57 42/104/57
f 32/81/58 72/173/58 74/175/58 36/89/58
f 35/87/59 73/174/59 75/176/59 39/95/59
f 1/2/60 60/155/60 72/173/60 32/81/60
f 14/34/61 64/159/61 71/171/61 31/79/61
f 29/73/62 70/170/62 73/174/62 35/87/62
f 28/71/63 70/170/63 71/172/63 30/76/63
f 85/196/64 86/198/64 69/168/64 27/68/64
f 82/189/65 87/200/65 68/165/65 25/65/65
f 27/69/66 69/169/66 68/166/66 24/62/66
f 11/29/67 62/157/67 67/164/67 22/56/67
f 18/43/68 66/162/68 65/160/68 20/51/68
f 7/21/69 55/147/69 63/158/69 12/31/69
f 22/56/70 67/164/70 65/161/70 17/42/70
f 9/24/71 61/156/71 62/157/71 11/29/71
f 19/48/72 66/162/72 87/200/72 82/189/72
f 12/30/73 18/44/73 20/52/73 21/54/73 16/39/73
f 66/163/74 18/47/74 84/194/74 87/201/74
f 23/57/75 19/49/75 82/190/75 83/191/75
f 49/125/76 81/188/76 96/216/76 95/214/76
f 97/217/77 103/227/77 94/212/77 51/130/77
f 99/221/78 104/228/78 95/215/78 48/122/78
f 81/188/79 51/131/79 94/213/79 96/216/79
f 14/34/80 90/204/80 92/208/80 47/117/80
f 9/24/81 91/206/81 93/210/81 44/108/81
f 3/8/82 88/202/82 91/207/82 9/25/82
f 5/16/83 89/203/83 90/205/83 14/35/83
f 44/109/84 93/211/84 104/228/84 99/221/84
f 47/118/85 92/209/85 103/227/85 97/217/85
f 45/112/86 79/184/86 102/226/86 98/219/86
f 46/115/87 78/182/87 101/225/87 100/223/87
f 92/209/88 46/116/88 100/224/88 103/227/88
f 93/211/89 45/113/89 98/220/89 104/228/89
f 78/182/90 44/110/90 99/222/90 101/225/90
f 79/184/91 47/119/91 97/218/91 102/226/91
f 59/152/92 4/11/92 52/133/92 53/138/92 54/141/92 108/235/92
f 136/298/93 110/241/93 109/238/93 135/296/93
f 121/271/94 120/269/94 114/253/94 117/261/94
f 139/304/95 111/244/95 110/242/95 136/297/95
f 135/295/96 109/239/96 112/247/96 144/314/96
f 144/313/97 112/248/97 111/245/97 139/303/97
f 111/246/98 112/249/98 109/240/98 110/243/98
f 117/262/99 114/254/99 116/259/99 115/256/99 113/250/99
f 124/277/100 121/270/100 117/263/100 113/251/100
f 120/268/101 129/284/101 116/260/101 114/255/101
f 130/286/102 124/276/102 113/252/102 115/257/102
f 129/284/103 130/285/103 115/258/103 116/260/103
f 57/150/104 56/148/104 132/289/104 127/282/104
f 127/282/105 132/289/105 131/287/105 128/283/105
f 128/283/106 131/287/106 130/285/106 129/284/106
f 56/149/107 2/4/107 126/280/107 132/290/107
f 132/290/108 126/280/108 125/278/108 131/288/108
f 131/288/109 125/278/109 124/276/109 130/286/109
f 54/142/110 57/150/110 127/282/110 118/264/110
f 118/264/111 127/282/111 128/283/111 119/266/111
f 119/266/112 128/283/112 129/284/112 120/268/112
f 2/5/113 108/237/113 123/274/113 126/281/113
f 126/281/114 123/274/114 122/272/114 125/279/114
f 125/279/115 122/272/115 121/270/115 124/277/115
f 108/236/116 54/143/116 118/265/116 123/275/116
f 123/275/117 118/265/117 119/267/117 122/273/117
f 122/273/118 119/267/118 120/269/118 121/271/118
f 54/144/119 142/309/119 141/307/119 53/139/119
f 142/309/120 143/311/120 140/305/120 141/307/120
f 143/311/121 144/313/121 139/303/121 140/305/121
f 4/12/122 133/291/122 142/310/122 54/145/122
f 133/291/123 134/293/123 143/312/123 142/310/123
f 134/293/124 135/295/124 144/314/124 143/312/124
f 53/140/125 141/308/125 138/301/125 52/134/125
f 141/308/126 140/306/126 137/299/126 138/301/126
f 140/306/127 139/304/127 136/297/127 137/299/127
f 52/135/128 138/302/128 133/292/128 4/13/128
f 138/302/129 137/300/129 134/294/129 133/292/129
f 137/300/130 136/298/130 135/296/130 134/294/130
f 105/230/131 1/3/131 88/202/131 59/153/131 108/237/131 2/5/131
f 86/199/132 85/195/132 83/192/132
f 83/192/133 85/195/133 18/45/133 23/58/133
f 63/158/134 15/37/134 23/59/134 18/46/134 12/31/134
f 84/194/135 18/47/135 85/196/135
l 52 106
