# Blender 3.3.1
# www.blender.org
mtllib monstruo_3_grande_caminar557.mtl
o monstruo_grande
v 0.562452 1.934275 0.402550
v 0.526595 1.098214 0.060191
v -0.590895 1.862332 0.139370
v -0.286342 1.217545 0.221649
v 0.886498 2.184031 0.165219
v 0.646497 1.552097 -0.213447
v -0.632943 2.073231 -0.306297
v -0.618065 1.756333 -0.344790
v -0.161899 2.414586 0.455702
v 0.364559 2.247092 0.521941
v -0.312215 2.402399 0.537140
v -0.971241 2.170975 -0.231349
v -0.084083 2.576499 0.106616
v 0.440848 2.364879 0.255415
v -0.866605 2.027681 -0.045736
v -0.233729 2.672488 0.108858
v -0.681891 2.368145 0.486298
v -1.308007 2.122288 -0.037647
v -1.075408 2.144447 0.211807
v -0.770261 2.702838 0.198065
v -0.415896 2.737497 0.150055
v -0.394707 2.368381 0.500877
v -0.991791 2.059483 -0.080310
v -1.805749 0.886385 0.561060
v -1.693365 0.860969 0.632434
v -1.638980 0.688385 0.435201
v -1.707576 0.703899 0.391637
v 0.472801 2.146731 0.536012
v 0.694534 2.319369 0.358231
v 0.467155 2.263686 0.538293
v 0.561818 2.375234 0.326035
v 0.745653 1.875913 0.559233
v 0.959012 1.880549 0.524468
v 0.756795 1.928938 0.590828
v 0.914681 2.019622 0.513391
v 0.786875 1.755649 0.830899
v 0.901222 1.726803 0.819773
v 0.814883 1.806739 0.919761
v 0.924551 1.777843 0.902196
v 0.731122 1.709368 0.969782
v 0.960371 1.650999 0.936342
v 0.719347 1.797095 1.145877
v 1.063276 1.702273 1.091101
v 0.002154 2.440620 0.501821
v 0.207053 2.396342 0.509163
v 0.043208 2.537659 0.256397
v 0.241994 2.485453 0.264916
v 0.055907 2.751339 0.644514
v 0.261358 2.677791 0.627420
v 0.072396 2.856864 0.387852
v 0.277984 2.783169 0.370400
v -0.499559 1.213102 0.032141
v -0.400125 1.188881 -0.187072
v -0.035499 1.279958 -0.333520
v -0.623303 1.904372 -0.090729
v 0.536261 1.176548 -0.166918
v 0.316579 1.213866 -0.278034
v 0.068989 1.520408 -0.317097
v -0.026962 1.117940 0.193320
v 0.681776 2.001182 0.332051
v -0.127789 2.471072 0.333714
v -0.272754 2.650317 0.377772
v -0.786186 2.084419 -0.139170
v 0.384745 2.367939 0.411401
v -0.667480 2.595277 0.446292
v -1.241579 2.264529 0.220616
v -0.424593 2.656909 0.349357
v -1.767262 0.872308 0.624137
v -1.636664 0.582325 0.315237
v 0.594293 2.250385 0.492207
v 0.519046 2.366587 0.453574
v 0.838539 1.834157 0.511801
v 0.847831 1.989666 0.604662
v 0.842180 1.740473 0.822650
v 0.869820 1.791592 0.911011
v 0.838420 1.663758 0.935144
v 0.878212 1.721240 1.085479
v 0.020348 2.488256 0.377316
v 0.221977 2.442518 0.385810
v 0.032778 2.806592 0.515360
v 0.300854 2.728195 0.500095
v -1.550837 1.182591 0.611688
v -1.599172 1.011688 0.530228
v -1.746118 1.197413 0.489757
v -1.704951 1.035611 0.463048
v -1.640913 0.858271 0.420192
v -1.682173 1.170329 0.596283
v 0.007882 1.754595 0.510146
v 0.319035 2.092296 -0.171523
v 0.266462 2.484440 0.088631
v 0.093121 2.276006 0.633743
v 0.136363 2.511549 0.258500
v 0.110349 2.418210 0.504501
v 0.177781 2.835709 0.340270
v 0.156165 2.698743 0.674389
v 0.170227 2.818482 0.529083
v 0.274112 2.645261 0.293624
v 0.250519 2.528154 0.586651
v 0.014312 2.588050 0.595448
v 0.036960 2.707790 0.300474
v 0.007880 2.649365 0.447393
v 0.276982 2.586385 0.440261
v 0.155887 2.684618 0.276319
v 0.131655 2.549356 0.611062
v 0.644531 1.581419 0.106797
v -0.544737 1.576005 0.175406
v 0.742897 1.746945 -0.146531
v 0.170094 1.060631 0.184745
v -0.263498 0.066986 0.310860
v -0.402433 0.117130 0.429533
v -0.438343 0.044258 0.191486
v -0.304286 0.027404 0.175480
v 0.325936 -0.083588 -0.109931
v 0.251989 -0.094313 -0.185076
v 0.335055 -0.086839 -0.148344
v 0.303368 -0.091452 -0.174225
v 0.266960 -0.084913 -0.099227
v 0.071156 0.842596 -0.198906
v 0.143874 0.538408 -0.168604
v 0.187723 0.233380 -0.155820
v 0.220804 0.198765 0.019705
v 0.199323 0.439962 0.110395
v 0.202206 0.713046 0.166350
v 0.343086 0.202173 -0.004379
v 0.405975 0.450415 0.069254
v 0.487100 0.789680 0.102254
v 0.326500 0.864102 -0.182707
v 0.323435 0.531033 -0.138661
v 0.294545 0.228719 -0.135793
v 0.361138 0.218705 -0.083276
v 0.436613 0.515566 -0.054208
v 0.501132 0.853593 -0.079988
v -0.173155 0.969637 0.360952
v -0.176329 0.697550 0.390748
v -0.189470 0.465691 0.447751
v -0.474654 0.470148 0.436489
v -0.466417 0.724055 0.331029
v -0.469010 0.962400 0.256433
v -0.507463 0.422760 0.171067
v -0.498800 0.680856 0.061190
v -0.502173 0.926606 -0.021163
v -0.112336 0.845959 -0.063773
v -0.158471 0.624686 0.026829
v -0.213575 0.435743 0.131560
vn 0.1051 0.5597 -0.8220
vn 0.0290 0.0433 -0.9986
vn 0.4080 -0.2293 -0.8837
vn -0.3790 -0.2169 0.8996
vn 0.9074 -0.3583 0.2197
vn 0.6776 0.6770 0.2872
vn 0.3143 0.8642 -0.3929
vn 0.2890 -0.2315 0.9289
vn -0.0516 0.9167 0.3962
vn 0.0779 0.5321 -0.8431
vn -0.3560 -0.4281 0.8307
vn -0.4747 -0.8196 -0.3207
vn -0.4118 -0.0986 0.9059
vn 0.1141 -0.8973 0.4264
vn 0.8782 -0.2919 0.3789
vn -0.2110 -0.7373 0.6417
vn 0.2124 0.9497 0.2301
vn -0.1436 -0.7561 0.6385
vn -0.7914 0.2768 0.5451
vn 0.9862 -0.0034 -0.1652
vn -0.7485 0.0726 -0.6592
vn 0.4597 0.7508 0.4743
vn -0.0666 0.2617 0.9628
vn -0.5121 -0.4497 0.7318
vn -0.2167 0.6806 0.6999
vn -0.9701 0.1221 0.2097
vn 0.1708 -0.7051 -0.6882
vn 0.8040 0.5601 0.1994
vn -0.5912 -0.5447 0.5948
vn 0.8578 0.1069 -0.5027
vn -0.2792 0.8428 0.4601
vn 0.9917 0.0686 0.1091
vn 0.1863 -0.9153 -0.3570
vn -0.1035 -0.9206 0.3766
vn -0.1275 -0.8395 -0.5282
vn -0.7936 0.5576 -0.2435
vn 0.4494 0.8522 0.2679
vn 0.9929 -0.0444 -0.1108
vn 0.3035 0.5314 0.7909
vn 0.2584 0.9653 0.0377
vn -0.2238 0.9139 0.3386
vn 0.4516 0.8572 0.2476
vn 0.0675 0.9736 0.2178
vn -0.9761 0.1426 0.1641
vn 0.2257 -0.3440 0.9115
vn -0.1832 0.4702 -0.8633
vn -0.8439 -0.4177 -0.3366
vn -0.9611 -0.1897 0.2008
vn 0.2474 0.2147 -0.9448
vn -0.9564 0.2580 -0.1372
vn 0.0461 0.8430 0.5360
vn 0.4249 0.7053 0.5674
vn -0.1876 0.9103 0.3691
vn 0.9710 -0.1727 0.1654
vn 0.1322 0.9372 0.3228
vn -0.4154 -0.7744 -0.4772
vn -0.2528 -0.8758 0.4113
vn -0.4343 -0.8558 -0.2809
vn 0.3031 0.8115 0.4996
vn -0.1435 -0.8831 -0.4466
vn -0.0381 0.9993 0.0064
vn 0.4349 0.6600 0.6125
vn 0.3530 0.2625 0.8981
vn -0.2266 0.2709 -0.9355
vn -0.1144 0.1194 0.9862
vn -0.7389 -0.6215 0.2605
vn -0.2850 0.4844 0.8271
vn -0.6663 0.7254 0.1729
vn -0.4649 -0.8032 -0.3725
vn 0.1040 0.3490 0.9313
vn 0.5600 0.4853 0.6715
vn 0.0931 0.3148 0.9446
vn -0.2406 0.6465 -0.7240
vn -0.8740 0.4557 0.1685
vn 0.8936 -0.3266 0.3081
vn 0.4954 0.6899 0.5279
vn 0.3477 0.3852 -0.8548
vn -0.3026 -0.2651 0.9155
vn 0.5183 0.8390 0.1653
vn 0.4338 0.8993 0.0550
vn -0.1528 0.5652 0.8107
vn -0.5543 -0.0742 0.8290
vn 0.4140 0.7090 -0.5708
vn -0.2151 -0.5527 0.8051
vn 0.1382 0.1160 -0.9836
vn 0.9398 -0.3415 0.0120
vn -0.9823 0.0089 -0.1869
vn -0.0604 0.1794 -0.9819
vn -0.0378 -0.5667 0.8230
vn -0.9992 0.0180 -0.0359
vn 0.9633 -0.2656 -0.0393
vn -0.1060 -0.9845 -0.1396
vn 0.2190 -0.1839 0.9582
vn -0.9645 -0.2122 0.1569
vn -0.9671 -0.1836 0.1759
vn 0.9761 -0.1864 -0.1116
vn -0.1289 -0.0773 -0.9886
vn -0.0835 -0.9493 0.3030
vn 0.0414 -0.9937 0.1040
vn 0.1853 -0.3522 0.9174
vn 0.1915 0.1233 -0.9737
vn 0.9689 -0.1313 0.2096
vn 0.6235 0.1108 -0.7740
vn 0.4379 -0.2503 -0.8635
vn 0.5308 -0.1404 -0.8358
vn 0.5984 -0.0693 -0.7982
vn 0.9934 -0.1137 0.0180
vn 0.9761 -0.2105 0.0538
vn 0.9562 -0.2658 0.1228
vn 0.0937 -0.2664 -0.9593
vn 0.1083 -0.1035 -0.9887
vn 0.1710 -0.0212 -0.9850
vn 0.2769 0.0315 0.9604
vn 0.2352 -0.1712 0.9567
vn 0.1971 -0.3270 0.9243
vn -0.9426 -0.1205 0.3116
vn -0.9639 -0.1270 0.2341
vn -0.9789 -0.1385 0.1501
vn -0.2070 -0.4802 -0.8524
vn -0.1599 -0.3299 -0.9304
vn -0.1331 -0.4134 -0.9008
vn 0.9336 0.2196 0.2832
vn 0.9907 -0.0706 0.1164
vn 0.9879 -0.1547 0.0143
vn -0.9901 0.0344 -0.1362
vn -0.9930 0.0251 0.1153
vn -0.9911 0.0779 0.1075
vn -0.4581 0.4337 0.7759
vn -0.2589 0.1938 0.9463
vn -0.0991 0.3195 0.9424
vn 0.3422 -0.3677 0.8647
vn 0.5556 0.3794 -0.7398
vn -0.0399 -0.4466 -0.8938
vn -0.1562 -0.7893 -0.5938
vn -0.7091 -0.0645 -0.7022
vt 0.882279 0.260085
vt 0.436089 0.649131
vt 0.117664 0.305524
vt 0.860974 0.338762
vt 0.079561 0.383885
vt 0.278417 0.728674
vt 0.111517 0.716819
vt 0.301243 0.337859
vt 0.232943 0.387386
vt 0.111517 0.662267
vt 0.671871 0.687525
vt 0.175114 0.511099
vt 0.930991 0.712692
vt 0.796001 0.259488
vt 0.522181 0.649131
vt 0.719621 0.316178
vt 0.801110 0.310020
vt 0.698705 0.366293
vt 0.510656 0.337024
vt 0.023033 0.717149
vt 0.367094 0.730187
vt 0.507246 0.358198
vt 0.018976 0.695717
vt 0.103380 0.570561
vt 0.268725 0.266033
vt 0.143950 0.273348
vt 0.098384 0.631539
vt 0.301351 0.259488
vt 0.128079 0.559933
vt 0.480438 0.333338
vt 0.348619 0.714075
vt 0.604958 0.268707
vt 0.031105 0.562973
vt 0.043818 0.625810
vt 0.721993 0.282954
vt 0.329365 0.336360
vt 0.302724 0.713315
vt 0.030374 0.549675
vt 0.582817 0.260846
vt 0.875347 0.642471
vt 0.380514 0.272320
vt 0.124895 0.517524
vt 0.813390 0.578569
vt 0.436089 0.332372
vt 0.956124 0.588845
vt 0.367094 0.692599
vt 0.367094 0.522797
vt 0.871643 0.594841
vt 0.398138 0.324445
vt 0.043891 0.509019
vt 0.796001 0.641153
vt 0.491075 0.268473
vt 0.032114 0.534706
vt 0.552485 0.259488
vt 0.331566 0.259909
vt 0.129819 0.544964
vt 0.339759 0.337186
vt 0.913298 0.588845
vt 0.317584 0.707220
vt 0.845734 0.463378
vt 0.311567 0.646434
vt 0.944558 0.353645
vt 0.398138 0.462439
vt 0.920230 0.354337
vt 0.870057 0.463781
vt 0.929709 0.374247
vt 0.357807 0.478584
vt 0.347994 0.663056
vt 0.944558 0.373825
vt 0.097076 0.285727
vt 0.229765 0.651022
vt 0.758050 0.297859
vt 0.168317 0.651042
vt 0.119329 0.272208
vt 0.094178 0.643292
vt 0.222768 0.636959
vt 0.746872 0.283208
vt 0.174541 0.636975
vt 0.045175 0.638147
vt 0.080672 0.327471
vt 0.442544 0.673801
vt 0.734592 0.339187
vt 0.484453 0.673801
vt 0.070725 0.319456
vt 0.218298 0.685110
vt 0.751374 0.331694
vt 0.180611 0.684911
vt 0.062412 0.356092
vt 0.455575 0.702696
vt 0.724658 0.367821
vt 0.476314 0.702696
vt 0.043357 0.357400
vt 0.210236 0.723455
vt 0.742364 0.370210
vt 0.189444 0.723462
vt 0.050281 0.367705
vt 0.444942 0.715336
vt 0.810526 0.722486
vt 0.728448 0.380153
vt 0.853695 0.722486
vt 0.487920 0.715336
vt 0.018975 0.371756
vt 0.232852 0.738567
vt 0.796001 0.739289
vt 0.758050 0.386241
vt 0.861207 0.739289
vt 0.167770 0.738589
vt 0.100634 0.583041
vt 0.712300 0.698974
vt 0.802197 0.701507
vt 0.098640 0.600731
vt 0.972705 0.287497
vt 0.747907 0.696578
vt 0.052045 0.577939
vt 0.849895 0.701507
vt 0.710445 0.675017
vt 0.050052 0.595630
vt 0.746553 0.677603
vt 0.924885 0.287497
vt 0.797725 0.671259
vt 0.981025 0.313792
vt 0.715147 0.730011
vt 0.752543 0.724602
vt 0.973919 0.259495
vt 0.967002 0.332143
vt 0.934252 0.306472
vt 0.715328 0.644023
vt 0.847669 0.671259
vt 0.923848 0.259495
vt 0.753088 0.649631
vt 0.920230 0.324823
vt 0.068284 0.665533
vt 0.630362 0.705721
vt 0.712055 0.621316
vt 0.966165 0.712391
vt 0.519769 0.388732
vt 0.031375 0.663704
vt 0.592215 0.695479
vt 0.581836 0.620019
vt 0.750017 0.621843
vt 0.569690 0.667298
vt 0.581066 0.387596
vt 0.531739 0.516092
vt 0.642835 0.625048
vt 0.273616 0.509019
vt 0.070982 0.710642
vt 0.316851 0.732164
vt 0.684917 0.393810
vt 0.816625 0.338063
vt 0.644803 0.392946
vt 0.602800 0.367236
vt 0.671871 0.661666
vt 0.181146 0.386242
vt 0.855113 0.259897
vt 0.463196 0.649131
vt 0.077903 0.567886
vt 0.078993 0.554271
vt 0.322237 0.720993
vt 0.070972 0.628379
vt 0.834014 0.651825
vt 0.084160 0.512738
vt 0.838315 0.596273
vt 0.320679 0.509019
vt 0.080733 0.539302
vt 0.857365 0.464048
vt 0.931678 0.351118
vt 0.335174 0.488977
vt 0.367094 0.673623
vt 0.939667 0.384854
vt 0.199177 0.651021
vt 0.069465 0.641494
vt 0.198664 0.632807
vt 0.464209 0.672968
vt 0.199604 0.684998
vt 0.465945 0.702696
vt 0.199840 0.723459
vt 0.466714 0.715004
vt 0.832520 0.720483
vt 0.200177 0.738589
vt 0.829423 0.735282
vt 0.076340 0.580490
vt 0.826046 0.701507
vt 0.074346 0.598181
vt 0.948795 0.287497
vt 0.823088 0.670800
vt 0.959731 0.307426
vt 0.948976 0.259488
vt 0.941524 0.331189
vt 0.875347 0.491894
vt 0.391834 0.432095
vt 0.377694 0.448634
vt 0.915590 0.478791
vt 0.834644 0.488373
vt 0.326937 0.619279
vt 0.938593 0.478810
vt 0.335216 0.632947
vt 0.358601 0.463790
vt 0.348787 0.648138
vt 0.927106 0.463378
vt 0.854274 0.489560
vt 0.315804 0.619182
vt 0.212520 0.321385
vt 0.644070 0.318501
vt 0.018976 0.592450
vt 0.663817 0.276029
vt 0.129819 0.597828
vt 0.224108 0.269832
vt 0.051049 0.586785
vt 0.728499 0.676310
vt 0.099637 0.591886
vt 0.730103 0.697776
vt 0.734390 0.646904
vt 0.920230 0.314550
vt 0.981025 0.324065
vt 0.732426 0.727384
vt 0.950683 0.319044
vt 0.753088 0.663662
vt 0.920230 0.273492
vt 0.977552 0.273492
vt 0.752543 0.710647
vt 0.709822 0.714522
vt 0.796001 0.686127
vt 0.853178 0.686127
vt 0.709822 0.659561
vt 0.824792 0.685890
vt 0.948939 0.273488
vt 0.731549 0.661651
vt 0.730449 0.712624
vt 0.878850 0.297575
vt 0.096711 0.342677
vt 0.285581 0.357771
vt 0.108549 0.696221
vt 0.804979 0.293594
vt 0.708839 0.350023
vt 0.668288 0.644023
vt 0.436089 0.526409
vt 0.145034 0.385321
vt 0.919159 0.607821
vt 0.247387 0.613831
vt 0.970304 0.416607
vt 0.947808 0.608020
vt 0.704660 0.516092
vt 0.970304 0.403829
vt 0.750017 0.516884
vt 0.618892 0.516092
vt 0.920230 0.404231
vt 0.273616 0.612878
vt 0.642836 0.516847
vt 0.938584 0.415207
vt 0.924281 0.443436
vt 0.075400 0.489812
vt 0.855524 0.444402
vt 0.531739 0.629156
vt 0.934913 0.435583
vt 0.576828 0.496673
vt 0.931440 0.443424
vt 0.848383 0.444289
vt 0.592622 0.497116
vt 0.934913 0.440184
vt 0.586164 0.496977
vt 0.517161 0.630156
vt 0.920230 0.438606
vt 0.085942 0.490043
vt 0.585376 0.420489
vt 0.510472 0.551446
vt 0.582586 0.444044
vt 0.504260 0.576063
vt 0.581388 0.469636
vt 0.508131 0.602400
vt 0.103684 0.463024
vt 0.477645 0.604263
vt 0.118194 0.440373
vt 0.454885 0.581958
vt 0.129418 0.415411
vt 0.438452 0.557360
vt 0.876897 0.417052
vt 0.081901 0.462161
vt 0.882279 0.393921
vt 0.081653 0.438865
vt 0.880271 0.363315
vt 0.079604 0.408162
vt 0.633117 0.418943
vt 0.615530 0.444447
vt 0.600997 0.469910
vt 0.614559 0.469949
vt 0.862035 0.416811
vt 0.638313 0.444473
vt 0.857648 0.390640
vt 0.666106 0.417503
vt 0.844696 0.362700
vt 0.167770 0.536691
vt 0.914144 0.688660
vt 0.182151 0.561697
vt 0.913298 0.663084
vt 0.189855 0.582503
vt 0.915415 0.641729
vt 0.680787 0.549268
vt 0.966165 0.641681
vt 0.684678 0.573659
vt 0.963812 0.665813
vt 0.684995 0.596421
vt 0.964308 0.688427
vt 0.584794 0.548886
vt 0.729850 0.550060
vt 0.578610 0.572959
vt 0.734888 0.574452
vt 0.569690 0.595426
vt 0.736445 0.597214
vt 0.642060 0.590920
vt 0.247172 0.543053
vt 0.641052 0.570535
vt 0.248998 0.562413
vt 0.635978 0.552556
vt 0.245738 0.579271
s 0
usemtl Material
f 89/203/1 7/19/1 13/32/1 90/205/1
f 8/22/2 7/19/2 89/203/2 58/151/2 54/142/2 53/136/2
f 6/18/3 56/148/3 57/150/3
f 3/8/4 106/231/4 4/9/4 59/153/4 88/202/4
f 6/17/5 107/233/5 5/14/5 60/154/5 1/1/5 105/229/5 2/4/5 56/149/5
f 61/156/6 13/33/6 16/38/6 62/157/6
f 5/16/7 14/35/7 31/77/7 29/72/7
f 88/202/8 1/3/8 10/26/8 91/207/8
f 67/164/9 21/53/9 20/50/9 65/161/9
f 13/32/10 7/19/10 12/30/10 16/39/10
f 3/8/11 9/25/11 11/28/11 15/36/11
f 55/147/12 3/6/12 15/37/12 63/158/12
f 66/162/13 19/48/13 17/40/13 65/160/13
f 23/57/14 22/55/14 17/41/14 19/49/14
f 83/191/15 82/190/15 25/63/15 26/67/15
f 15/36/16 11/28/16 22/55/16 23/57/16
f 62/157/17 16/38/17 21/53/17 67/164/17
f 69/169/18 26/66/18 25/64/18 68/166/18
f 87/200/19 84/193/19 24/60/19 68/165/19
f 86/197/20 83/191/20 26/67/20 69/167/20
f 84/194/21 85/196/21 27/68/21 24/61/21
f 70/170/22 29/73/22 31/78/22 71/172/22
f 70/170/23 28/71/23 34/85/23 73/174/23
f 10/26/24 1/3/24 28/70/24 30/74/24
f 64/159/25 10/27/25 30/75/25 71/171/25
f 34/84/26 32/80/26 36/88/26 38/92/26
f 60/155/27 5/15/27 33/83/27 72/173/27
f 5/16/28 29/72/28 35/86/28 33/82/28
f 28/70/29 1/3/29 32/80/29 34/84/29
f 37/90/30 39/94/30 43/105/30 41/99/30
f 73/174/31 34/85/31 38/93/31 75/176/31
f 33/82/32 35/86/32 39/94/32 37/90/32
f 72/173/33 33/83/33 37/91/33 74/175/33
f 76/178/34 41/100/34 43/106/34 77/180/34
f 74/175/35 37/91/35 41/101/35 76/177/35
f 38/92/36 36/88/36 40/96/36 42/102/36
f 75/176/37 38/93/37 42/103/37 77/179/37
f 102/226/38 97/218/38 51/129/38 81/187/38
f 91/206/39 10/27/39 45/111/39 93/210/39
f 90/204/40 13/33/40 46/114/40 92/208/40
f 61/156/41 9/24/41 44/108/41 78/181/41
f 64/159/42 14/34/42 47/117/42 79/183/42
f 96/216/43 94/213/43 50/126/43 80/186/43
f 101/225/44 99/222/44 48/120/44 80/185/44
f 104/228/45 98/220/45 49/123/45 95/215/45
f 103/227/46 100/224/46 50/127/46 94/212/46
f 8/23/47 53/137/47 52/132/47
f 8/23/48 52/132/48 4/10/48 106/232/48 3/7/48 55/146/48 7/20/48
f 54/142/49 58/151/49 89/203/49 5/16/49 107/234/49 6/18/49 57/150/49
f 100/223/50 101/225/50 80/185/50 50/128/50
f 95/214/51 96/216/51 80/186/51 48/121/51
f 10/27/52 64/159/52 79/183/52 45/111/52
f 13/33/53 61/156/53 78/181/53 46/114/53
f 98/219/54 102/226/54 81/187/54 49/124/54
f 39/95/55 75/176/55 77/179/55 43/107/55
f 36/89/56 74/175/56 76/177/56 40/97/56
f 40/98/57 76/178/57 77/180/57 42/104/57
f 32/81/58 72/173/58 74/175/58 36/89/58
f 35/87/59 73/174/59 75/176/59 39/95/59
f 1/2/60 60/155/60 72/173/60 32/81/60
f 14/34/61 64/159/61 71/171/61 31/79/61
f 29/73/62 70/170/62 73/174/62 35/87/62
f 28/71/63 70/170/63 71/172/63 30/76/63
f 85/196/64 86/198/64 69/168/64 27/68/64
f 82/189/65 87/200/65 68/165/65 25/65/65
f 27/69/66 69/169/66 68/166/66 24/62/66
f 11/29/67 62/157/67 67/164/67 22/56/67
f 18/43/68 66/162/68 65/160/68 20/51/68
f 7/21/69 55/147/69 63/158/69 12/31/69
f 22/56/70 67/164/70 65/161/70 17/42/70
f 9/24/71 61/156/71 62/157/71 11/29/71
f 19/48/72 66/162/72 87/200/72 82/189/72
f 12/30/73 18/44/73 20/52/73 21/54/73 16/39/73
f 66/163/74 18/47/74 84/194/74 87/201/74
f 23/57/75 19/49/75 82/190/75 83/191/75
f 49/125/76 81/188/76 96/216/76 95/214/76
f 97/217/77 103/227/77 94/212/77 51/130/77
f 99/221/78 104/228/78 95/215/78 48/122/78
f 81/188/79 51/131/79 94/213/79 96/216/79
f 14/34/80 90/204/80 92/208/80 47/117/80
f 9/24/81 91/206/81 93/210/81 44/108/81
f 3/8/82 88/202/82 91/207/82 9/25/82
f 5/16/83 89/203/83 90/205/83 14/35/83
f 44/109/84 93/211/84 104/228/84 99/221/84
f 47/118/85 92/209/85 103/227/85 97/217/85
f 45/112/86 79/184/86 102/226/86 98/219/86
f 46/115/87 78/182/87 101/225/87 100/223/87
f 92/209/88 46/116/88 100/224/88 103/227/88
f 93/211/89 45/113/89 98/220/89 104/228/89
f 78/182/90 44/110/90 99/222/90 101/225/90
f 79/184/91 47/119/91 97/218/91 102/226/91
f 59/152/92 4/11/92 52/133/92 53/138/92 54/141/92 108/235/92
f 136/298/93 110/241/93 109/238/93 135/296/93
f 121/271/94 120/269/94 114/253/94 117/261/94
f 139/304/95 111/244/95 110/242/95 136/297/95
f 135/295/96 109/239/96 112/247/96 144/314/96
f 144/313/97 112/248/97 111/245/97 139/303/97
f 111/246/98 112/249/98 109/240/98 110/243/98
f 117/262/99 114/254/99 116/259/99 115/256/99 113/250/99
f 124/277/100 121/270/100 117/263/100 113/251/100
f 120/268/101 129/284/101 116/260/101 114/255/101
f 130/286/102 124/276/102 113/252/102 115/257/102
f 129/284/103 130/285/103 115/258/103 116/260/103
f 57/150/104 56/148/104 132/289/104 127/282/104
f 127/282/105 132/289/105 131/287/105 128/283/105
f 128/283/106 131/287/106 130/285/106 129/284/106
f 56/149/107 2/4/107 126/280/107 132/290/107
f 132/290/108 126/280/108 125/278/108 131/288/108
f 131/288/109 125/278/109 124/276/109 130/286/109
f 54/142/110 57/150/110 127/282/110 118/264/110
f 118/264/111 127/282/111 128/283/111 119/266/111
f 119/266/112 128/283/112 129/284/112 120/268/112
f 2/5/113 108/237/113 123/274/113 126/281/113
f 126/281/114 123/274/114 122/272/114 125/279/114
f 125/279/115 122/272/115 121/270/115 124/277/115
f 108/236/116 54/143/116 118/265/116 123/275/116
f 123/275/117 118/265/117 119/267/117 122/273/117
f 122/273/118 119/267/118 120/269/118 121/271/118
f 54/144/119 142/309/119 141/307/119 53/139/119
f 142/309/120 143/311/120 140/305/120 141/307/120
f 143/311/121 144/313/121 139/303/121 140/305/121
f 4/12/122 133/291/122 142/310/122 54/145/122
f 133/291/123 134/293/123 143/312/123 142/310/123
f 134/293/124 135/295/124 144/314/124 143/312/124
f 53/140/125 141/308/125 138/301/125 52/134/125
f 141/308/126 140/306/126 137/299/126 138/301/126
f 140/306/127 139/304/127 136/297/127 137/299/127
f 52/135/128 138/302/128 133/292/128 4/13/128
f 138/302/129 137/300/129 134/294/129 133/292/129
f 137/300/130 136/298/130 135/296/130 134/294/130
f 105/230/131 1/3/131 88/202/131 59/153/131 108/237/131 2/5/131
f 86/199/132 85/195/132 83/192/132
f 83/192/133 85/195/133 18/45/133 23/58/133
f 63/158/134 15/37/134 23/59/134 18/46/134 12/31/134
f 84/194/135 18/47/135 85/196/135
l 52 106
