# Blender 3.3.1
# www.blender.org
mtllib monstruo_3_grande_caminar563.mtl
o monstruo_grande
v 0.531256 1.958091 0.361233
v 0.527847 1.109575 0.048974
v -0.616247 1.853956 0.122568
v -0.279822 1.209697 0.221390
v 0.848431 2.215484 0.125114
v 0.634097 1.579946 -0.216641
v -0.668347 2.060287 -0.321983
v -0.642903 1.743265 -0.348373
v -0.198030 2.424493 0.430465
v 0.333144 2.267674 0.493538
v -0.347021 2.409609 0.511895
v -1.013454 2.160040 -0.250378
v -0.126518 2.580039 0.077496
v 0.402720 2.385318 0.225998
v -0.903063 2.019388 -0.069253
v -0.278268 2.673336 0.080483
v -0.714432 2.360888 0.462858
v -1.347655 2.111503 -0.049922
v -1.108397 2.132438 0.193001
v -0.812891 2.696124 0.178886
v -0.461533 2.736978 0.126026
v -0.428432 2.369645 0.474195
v -1.029934 2.049576 -0.100786
v -1.842559 0.886540 0.573037
v -1.729585 0.862745 0.644038
v -1.674949 0.688529 0.448316
v -1.743904 0.703053 0.404979
v 0.443418 2.166279 0.503678
v 0.659512 2.344380 0.325151
v 0.435884 2.285684 0.508056
v 0.524612 2.398510 0.294498
v 0.716937 1.896977 0.506444
v 0.929654 1.901169 0.473452
v 0.730426 1.948029 0.543285
v 0.885684 2.041634 0.466054
v 0.751519 1.759725 0.767854
v 0.866081 1.733303 0.758775
v 0.775367 1.803084 0.861812
v 0.886249 1.777885 0.845682
v 0.691989 1.700136 0.899877
v 0.923387 1.649215 0.869889
v 0.672253 1.771488 1.082534
v 1.019801 1.688132 1.032128
v -0.034671 2.455007 0.474347
v 0.171002 2.413867 0.481832
v 0.003460 2.547779 0.226882
v 0.203072 2.499821 0.235965
v 0.018861 2.767433 0.614513
v 0.224414 2.694218 0.597210
v 0.034064 2.871016 0.356924
v 0.239490 2.797791 0.339063
v -0.499085 1.202643 0.038232
v -0.406451 1.180015 -0.184181
v -0.037945 1.275514 -0.335205
v -0.650732 1.892506 -0.104441
v 0.537103 1.204578 -0.170656
v 0.316795 1.246297 -0.279963
v 0.058146 1.519023 -0.323493
v -0.022698 1.114435 0.187324
v 0.648997 2.028159 0.289469
v -0.166166 2.478810 0.306868
v -0.314295 2.655859 0.348255
v -0.822909 2.074360 -0.158693
v 0.348824 2.388198 0.382059
v -0.705851 2.589031 0.425472
v -1.275591 2.253149 0.205314
v -0.466372 2.658279 0.321500
v -1.803613 0.873424 0.636039
v -1.672470 0.581238 0.329455
v 0.563213 2.271194 0.459793
v 0.484124 2.389487 0.422124
v 0.809446 1.856669 0.456804
v 0.821217 2.008485 0.557428
v 0.807326 1.746306 0.760360
v 0.830882 1.789769 0.853761
v 0.801364 1.659744 0.865257
v 0.834685 1.704212 1.021464
v -0.017869 2.500348 0.348785
v 0.184547 2.458459 0.357639
v -0.004875 2.821648 0.485030
v 0.263209 2.743826 0.469275
v -1.589692 1.185228 0.619134
v -1.637141 1.013111 0.539736
v -1.785764 1.197544 0.498336
v -1.743475 1.035506 0.472906
v -1.678292 0.858229 0.431544
v -1.721011 1.171787 0.604597
v -0.010716 1.769637 0.497602
v 0.284686 2.102972 -0.192550
v 0.226352 2.495703 0.059261
v 0.062760 2.291990 0.609876
v 0.097339 2.523423 0.229130
v 0.073660 2.433553 0.477022
v 0.139092 2.849744 0.308930
v 0.119349 2.715292 0.644412
v 0.132596 2.833951 0.498147
v 0.235270 2.659511 0.263179
v 0.213550 2.544744 0.557480
v -0.022692 2.603702 0.566733
v -0.002115 2.720720 0.270242
v -0.029979 2.663713 0.418103
v 0.239177 2.601854 0.410425
v 0.116834 2.697924 0.245844
v 0.094890 2.565431 0.582279
v 0.623877 1.597405 0.102137
v -0.555419 1.565378 0.169647
v 0.721188 1.779213 -0.156684
v 0.172704 1.058950 0.172263
v -0.234376 0.071568 0.376426
v -0.378374 0.126284 0.486727
v -0.404613 0.033552 0.254349
v -0.269658 0.020015 0.243612
v 0.336561 -0.072591 -0.175885
v 0.261994 -0.082002 -0.250595
v 0.345348 -0.075378 -0.214401
v 0.313439 -0.079517 -0.240088
v 0.277694 -0.073815 -0.164747
v 0.074992 0.866595 -0.231813
v 0.148413 0.551191 -0.218419
v 0.196731 0.245409 -0.213938
v 0.232312 0.205747 -0.039965
v 0.208408 0.443607 0.058590
v 0.208005 0.714795 0.123175
v 0.354247 0.211720 -0.065280
v 0.414329 0.458315 0.014965
v 0.491723 0.798865 0.063129
v 0.330060 0.893917 -0.215291
v 0.328390 0.545343 -0.190354
v 0.303816 0.241696 -0.195236
v 0.371147 0.231007 -0.143805
v 0.442680 0.528526 -0.107562
v 0.504923 0.877214 -0.113505
v -0.160177 0.964225 0.355770
v -0.161373 0.705193 0.402561
v -0.169642 0.480854 0.479449
v -0.454939 0.476826 0.467475
v -0.452275 0.720685 0.342289
v -0.458844 0.952460 0.260044
v -0.485536 0.408047 0.206688
v -0.484399 0.658126 0.075133
v -0.499858 0.914214 -0.017386
v -0.109363 0.837388 -0.069980
v -0.143094 0.608014 0.042240
v -0.192009 0.425667 0.166443
vn 0.0883 0.5473 -0.8323
vn 0.0195 0.0204 -0.9996
vn 0.4016 -0.2129 -0.8907
vn -0.3671 -0.2102 0.9061
vn 0.9212 -0.3117 0.2328
vn 0.6667 0.6956 0.2676
vn 0.2899 0.8740 -0.3901
vn 0.3301 -0.2204 0.9179
vn -0.0644 0.9146 0.3993
vn 0.0719 0.5150 -0.8542
vn -0.3554 -0.4147 0.8377
vn -0.4612 -0.8306 -0.3120
vn -0.3961 -0.1146 0.9110
vn 0.1407 -0.8979 0.4171
vn 0.8825 -0.2811 0.3769
vn -0.1768 -0.7498 0.6376
vn 0.2004 0.9556 0.2161
vn -0.1342 -0.7504 0.6472
vn -0.7900 0.2761 0.5474
vn 0.9853 0.0025 -0.1707
vn -0.7528 0.0600 -0.6556
vn 0.4558 0.7534 0.4739
vn -0.0426 0.2292 0.9724
vn -0.5001 -0.4712 0.7265
vn -0.2159 0.6790 0.7017
vn -0.9741 0.1196 0.1918
vn 0.1619 -0.6793 -0.7158
vn 0.8068 0.5574 0.1960
vn -0.5690 -0.5719 0.5909
vn 0.8711 0.1644 -0.4627
vn -0.2834 0.8142 0.5067
vn 0.9881 0.0679 0.1377
vn 0.1914 -0.8955 -0.4018
vn -0.0969 -0.9525 0.2889
vn -0.0929 -0.7919 -0.6035
vn -0.7962 0.5629 -0.2216
vn 0.4217 0.8326 0.3590
vn 0.9922 -0.0440 -0.1165
vn 0.3020 0.5499 0.7787
vn 0.2368 0.9715 0.0131
vn -0.2410 0.9164 0.3195
vn 0.4328 0.8707 0.2335
vn 0.0663 0.9755 0.2098
vn -0.9755 0.1425 0.1673
vn 0.2306 -0.3378 0.9125
vn -0.1881 0.4652 -0.8650
vn -0.8427 -0.4430 -0.3059
vn -0.9511 -0.2195 0.2175
vn 0.2383 0.1982 -0.9508
vn -0.9574 0.2566 -0.1329
vn 0.0461 0.8472 0.5293
vn 0.4158 0.7198 0.5559
vn -0.2060 0.9135 0.3508
vn 0.9720 -0.1710 0.1614
vn 0.1010 0.9066 0.4096
vn -0.3822 -0.7355 -0.5594
vn -0.2484 -0.9135 0.3222
vn -0.4335 -0.8343 -0.3407
vn 0.3172 0.7742 0.5478
vn -0.1523 -0.8662 -0.4760
vn -0.0573 0.9984 0.0026
vn 0.4466 0.6443 0.6208
vn 0.3680 0.2592 0.8930
vn -0.2339 0.2593 -0.9370
vn -0.1099 0.1288 0.9856
vn -0.7325 -0.6244 0.2711
vn -0.3043 0.4827 0.8212
vn -0.6731 0.7145 0.1910
vn -0.4552 -0.8140 -0.3608
vn 0.1123 0.3486 0.9305
vn 0.5515 0.5113 0.6591
vn 0.1117 0.3303 0.9372
vn -0.2589 0.6444 -0.7195
vn -0.8658 0.4678 0.1777
vn 0.8951 -0.3300 0.2998
vn 0.4960 0.6950 0.5206
vn 0.3433 0.3801 -0.8589
vn -0.2988 -0.2590 0.9185
vn 0.5168 0.8418 0.1560
vn 0.4121 0.9105 0.0331
vn -0.1568 0.5743 0.8035
vn -0.5504 -0.0722 0.8318
vn 0.3831 0.7121 -0.5884
vn -0.2098 -0.5463 0.8108
vn 0.1362 0.1084 -0.9847
vn 0.9412 -0.3378 0.0093
vn -0.9843 0.0074 -0.1766
vn -0.0641 0.1725 -0.9829
vn -0.0286 -0.5621 0.8265
vn -0.9995 0.0146 -0.0291
vn 0.9634 -0.2642 -0.0449
vn -0.0963 -0.9857 -0.1383
vn 0.2104 -0.1039 0.9721
vn -0.9620 -0.2188 0.1634
vn -0.9654 -0.1936 0.1747
vn 0.9818 -0.1688 -0.0865
vn -0.1152 -0.1574 -0.9808
vn -0.0631 -0.9245 0.3759
vn 0.0379 -0.9952 0.0906
vn 0.1978 -0.3693 0.9080
vn 0.1804 0.1431 -0.9731
vn 0.9720 -0.1313 0.1948
vn 0.6138 0.1275 -0.7791
vn 0.4446 -0.1700 -0.8794
vn 0.5290 -0.0859 -0.8443
vn 0.5900 -0.0392 -0.8064
vn 0.9944 -0.1053 0.0103
vn 0.9790 -0.2006 0.0364
vn 0.9615 -0.2546 0.1031
vn 0.1140 -0.1961 -0.9739
vn 0.1041 -0.0461 -0.9935
vn 0.1610 0.0069 -0.9869
vn 0.2855 -0.0514 0.9570
vn 0.2422 -0.2053 0.9483
vn 0.2138 -0.3522 0.9112
vn -0.9385 -0.1628 0.3044
vn -0.9615 -0.1416 0.2355
vn -0.9753 -0.1565 0.1556
vn -0.2174 -0.4731 -0.8538
vn -0.1718 -0.3773 -0.9100
vn -0.1244 -0.4944 -0.8603
vn 0.9382 0.2216 0.2658
vn 0.9944 -0.0390 0.0985
vn 0.9915 -0.1281 0.0230
vn -0.9942 0.0230 -0.1055
vn -0.9912 0.0027 0.1326
vn -0.9928 0.0611 0.1028
vn -0.4410 0.4256 0.7902
vn -0.2466 0.2439 0.9379
vn -0.1065 0.3961 0.9120
vn 0.3558 -0.3320 0.8736
vn 0.5485 0.3759 -0.7468
vn -0.0582 -0.4602 -0.8859
vn -0.1615 -0.7893 -0.5923
vn -0.7127 -0.0766 -0.6972
vt 0.882279 0.260085
vt 0.436089 0.649131
vt 0.117664 0.305524
vt 0.860974 0.338762
vt 0.079561 0.383885
vt 0.278417 0.728674
vt 0.111517 0.716819
vt 0.301243 0.337859
vt 0.232943 0.387386
vt 0.111517 0.662267
vt 0.671871 0.687525
vt 0.175114 0.511099
vt 0.930991 0.712692
vt 0.796001 0.259488
vt 0.522181 0.649131
vt 0.719621 0.316178
vt 0.801110 0.310020
vt 0.698705 0.366293
vt 0.510656 0.337024
vt 0.023033 0.717149
vt 0.367094 0.730187
vt 0.507246 0.358198
vt 0.018976 0.695717
vt 0.103380 0.570561
vt 0.268725 0.266033
vt 0.143950 0.273348
vt 0.098384 0.631539
vt 0.301351 0.259488
vt 0.128079 0.559933
vt 0.480438 0.333338
vt 0.348619 0.714075
vt 0.604958 0.268707
vt 0.031105 0.562973
vt 0.043818 0.625810
vt 0.721993 0.282954
vt 0.329365 0.336360
vt 0.302724 0.713315
vt 0.030374 0.549675
vt 0.582817 0.260846
vt 0.875347 0.642471
vt 0.380514 0.272320
vt 0.124895 0.517524
vt 0.813390 0.578569
vt 0.436089 0.332372
vt 0.956124 0.588845
vt 0.367094 0.692599
vt 0.367094 0.522797
vt 0.871643 0.594841
vt 0.398138 0.324445
vt 0.043891 0.509019
vt 0.796001 0.641153
vt 0.491075 0.268473
vt 0.032114 0.534706
vt 0.552485 0.259488
vt 0.331566 0.259909
vt 0.129819 0.544964
vt 0.339759 0.337186
vt 0.913298 0.588845
vt 0.317584 0.707220
vt 0.845734 0.463378
vt 0.311567 0.646434
vt 0.944558 0.353645
vt 0.398138 0.462439
vt 0.920230 0.354337
vt 0.870057 0.463781
vt 0.929709 0.374247
vt 0.357807 0.478584
vt 0.347994 0.663056
vt 0.944558 0.373825
vt 0.097076 0.285727
vt 0.229765 0.651022
vt 0.758050 0.297859
vt 0.168317 0.651042
vt 0.119329 0.272208
vt 0.094178 0.643292
vt 0.222768 0.636959
vt 0.746872 0.283208
vt 0.174541 0.636975
vt 0.045175 0.638147
vt 0.080672 0.327471
vt 0.442544 0.673801
vt 0.734592 0.339187
vt 0.484453 0.673801
vt 0.070725 0.319456
vt 0.218298 0.685110
vt 0.751374 0.331694
vt 0.180611 0.684911
vt 0.062412 0.356092
vt 0.455575 0.702696
vt 0.724658 0.367821
vt 0.476314 0.702696
vt 0.043357 0.357400
vt 0.210236 0.723455
vt 0.742364 0.370210
vt 0.189444 0.723462
vt 0.050281 0.367705
vt 0.444942 0.715336
vt 0.810526 0.722486
vt 0.728448 0.380153
vt 0.853695 0.722486
vt 0.487920 0.715336
vt 0.018975 0.371756
vt 0.232852 0.738567
vt 0.796001 0.739289
vt 0.758050 0.386241
vt 0.861207 0.739289
vt 0.167770 0.738589
vt 0.100634 0.583041
vt 0.712300 0.698974
vt 0.802197 0.701507
vt 0.098640 0.600731
vt 0.972705 0.287497
vt 0.747907 0.696578
vt 0.052045 0.577939
vt 0.849895 0.701507
vt 0.710445 0.675017
vt 0.050052 0.595630
vt 0.746553 0.677603
vt 0.924885 0.287497
vt 0.797725 0.671259
vt 0.981025 0.313792
vt 0.715147 0.730011
vt 0.752543 0.724602
vt 0.973919 0.259495
vt 0.967002 0.332143
vt 0.934252 0.306472
vt 0.715328 0.644023
vt 0.847669 0.671259
vt 0.923848 0.259495
vt 0.753088 0.649631
vt 0.920230 0.324823
vt 0.068284 0.665533
vt 0.630362 0.705721
vt 0.712055 0.621316
vt 0.966165 0.712391
vt 0.519769 0.388732
vt 0.031375 0.663704
vt 0.592215 0.695479
vt 0.581836 0.620019
vt 0.750017 0.621843
vt 0.569690 0.667298
vt 0.581066 0.387596
vt 0.531739 0.516092
vt 0.642835 0.625048
vt 0.273616 0.509019
vt 0.070982 0.710642
vt 0.316851 0.732164
vt 0.684917 0.393810
vt 0.816625 0.338063
vt 0.644803 0.392946
vt 0.602800 0.367236
vt 0.671871 0.661666
vt 0.181146 0.386242
vt 0.855113 0.259897
vt 0.463196 0.649131
vt 0.077903 0.567886
vt 0.078993 0.554271
vt 0.322237 0.720993
vt 0.070972 0.628379
vt 0.834014 0.651825
vt 0.084160 0.512738
vt 0.838315 0.596273
vt 0.320679 0.509019
vt 0.080733 0.539302
vt 0.857365 0.464048
vt 0.931678 0.351118
vt 0.335174 0.488977
vt 0.367094 0.673623
vt 0.939667 0.384854
vt 0.199177 0.651021
vt 0.069465 0.641494
vt 0.198664 0.632807
vt 0.464209 0.672968
vt 0.199604 0.684998
vt 0.465945 0.702696
vt 0.199840 0.723459
vt 0.466714 0.715004
vt 0.832520 0.720483
vt 0.200177 0.738589
vt 0.829423 0.735282
vt 0.076340 0.580490
vt 0.826046 0.701507
vt 0.074346 0.598181
vt 0.948795 0.287497
vt 0.823088 0.670800
vt 0.959731 0.307426
vt 0.948976 0.259488
vt 0.941524 0.331189
vt 0.875347 0.491894
vt 0.391834 0.432095
vt 0.377694 0.448634
vt 0.915590 0.478791
vt 0.834644 0.488373
vt 0.326937 0.619279
vt 0.938593 0.478810
vt 0.335216 0.632947
vt 0.358601 0.463790
vt 0.348787 0.648138
vt 0.927106 0.463378
vt 0.854274 0.489560
vt 0.315804 0.619182
vt 0.212520 0.321385
vt 0.644070 0.318501
vt 0.018976 0.592450
vt 0.663817 0.276029
vt 0.129819 0.597828
vt 0.224108 0.269832
vt 0.051049 0.586785
vt 0.728499 0.676310
vt 0.099637 0.591886
vt 0.730103 0.697776
vt 0.734390 0.646904
vt 0.920230 0.314550
vt 0.981025 0.324065
vt 0.732426 0.727384
vt 0.950683 0.319044
vt 0.753088 0.663662
vt 0.920230 0.273492
vt 0.977552 0.273492
vt 0.752543 0.710647
vt 0.709822 0.714522
vt 0.796001 0.686127
vt 0.853178 0.686127
vt 0.709822 0.659561
vt 0.824792 0.685890
vt 0.948939 0.273488
vt 0.731549 0.661651
vt 0.730449 0.712624
vt 0.878850 0.297575
vt 0.096711 0.342677
vt 0.285581 0.357771
vt 0.108549 0.696221
vt 0.804979 0.293594
vt 0.708839 0.350023
vt 0.668288 0.644023
vt 0.436089 0.526409
vt 0.145034 0.385321
vt 0.919159 0.607821
vt 0.247387 0.613831
vt 0.970304 0.416607
vt 0.947808 0.608020
vt 0.704660 0.516092
vt 0.970304 0.403829
vt 0.750017 0.516884
vt 0.618892 0.516092
vt 0.920230 0.404231
vt 0.273616 0.612878
vt 0.642836 0.516847
vt 0.938584 0.415207
vt 0.924281 0.443436
vt 0.075400 0.489812
vt 0.855524 0.444402
vt 0.531739 0.629156
vt 0.934913 0.435583
vt 0.576828 0.496673
vt 0.931440 0.443424
vt 0.848383 0.444289
vt 0.592622 0.497116
vt 0.934913 0.440184
vt 0.586164 0.496977
vt 0.517161 0.630156
vt 0.920230 0.438606
vt 0.085942 0.490043
vt 0.585376 0.420489
vt 0.510472 0.551446
vt 0.582586 0.444044
vt 0.504260 0.576063
vt 0.581388 0.469636
vt 0.508131 0.602400
vt 0.103684 0.463024
vt 0.477645 0.604263
vt 0.118194 0.440373
vt 0.454885 0.581958
vt 0.129418 0.415411
vt 0.438452 0.557360
vt 0.876897 0.417052
vt 0.081901 0.462161
vt 0.882279 0.393921
vt 0.081653 0.438865
vt 0.880271 0.363315
vt 0.079604 0.408162
vt 0.633117 0.418943
vt 0.615530 0.444447
vt 0.600997 0.469910
vt 0.614559 0.469949
vt 0.862035 0.416811
vt 0.638313 0.444473
vt 0.857648 0.390640
vt 0.666106 0.417503
vt 0.844696 0.362700
vt 0.167770 0.536691
vt 0.914144 0.688660
vt 0.182151 0.561697
vt 0.913298 0.663084
vt 0.189855 0.582503
vt 0.915415 0.641729
vt 0.680787 0.549268
vt 0.966165 0.641681
vt 0.684678 0.573659
vt 0.963812 0.665813
vt 0.684995 0.596421
vt 0.964308 0.688427
vt 0.584794 0.548886
vt 0.729850 0.550060
vt 0.578610 0.572959
vt 0.734888 0.574452
vt 0.569690 0.595426
vt 0.736445 0.597214
vt 0.642060 0.590920
vt 0.247172 0.543053
vt 0.641052 0.570535
vt 0.248998 0.562413
vt 0.635978 0.552556
vt 0.245738 0.579271
s 0
usemtl Material
f 89/203/1 7/19/1 13/32/1 90/205/1
f 8/22/2 7/19/2 89/203/2 58/151/2 54/142/2 53/136/2
f 6/18/3 56/148/3 57/150/3
f 3/8/4 106/231/4 4/9/4 59/153/4 88/202/4
f 6/17/5 107/233/5 5/14/5 60/154/5 1/1/5 105/229/5 2/4/5 56/149/5
f 61/156/6 13/33/6 16/38/6 62/157/6
f 5/16/7 14/35/7 31/77/7 29/72/7
f 88/202/8 1/3/8 10/26/8 91/207/8
f 67/164/9 21/53/9 20/50/9 65/161/9
f 13/32/10 7/19/10 12/30/10 16/39/10
f 3/8/11 9/25/11 11/28/11 15/36/11
f 55/147/12 3/6/12 15/37/12 63/158/12
f 66/162/13 19/48/13 17/40/13 65/160/13
f 23/57/14 22/55/14 17/41/14 19/49/14
f 83/191/15 82/190/15 25/63/15 26/67/15
f 15/36/16 11/28/16 22/55/16 23/57/16
f 62/157/17 16/38/17 21/53/17 67/164/17
f 69/169/18 26/66/18 25/64/18 68/166/18
f 87/200/19 84/193/19 24/60/19 68/165/19
f 86/197/20 83/191/20 26/67/20 69/167/20
f 84/194/21 85/196/21 27/68/21 24/61/21
f 70/170/22 29/73/22 31/78/22 71/172/22
f 70/170/23 28/71/23 34/85/23 73/174/23
f 10/26/24 1/3/24 28/70/24 30/74/24
f 64/159/25 10/27/25 30/75/25 71/171/25
f 34/84/26 32/80/26 36/88/26 38/92/26
f 60/155/27 5/15/27 33/83/27 72/173/27
f 5/16/28 29/72/28 35/86/28 33/82/28
f 28/70/29 1/3/29 32/80/29 34/84/29
f 37/90/30 39/94/30 43/105/30 41/99/30
f 73/174/31 34/85/31 38/93/31 75/176/31
f 33/82/32 35/86/32 39/94/32 37/90/32
f 72/173/33 33/83/33 37/91/33 74/175/33
f 76/178/34 41/100/34 43/106/34 77/180/34
f 74/175/35 37/91/35 41/101/35 76/177/35
f 38/92/36 36/88/36 40/96/36 42/102/36
f 75/176/37 38/93/37 42/103/37 77/179/37
f 102/226/38 97/218/38 51/129/38 81/187/38
f 91/206/39 10/27/39 45/111/39 93/210/39
f 90/204/40 13/33/40 46/114/40 92/208/40
f 61/156/41 9/24/41 44/108/41 78/181/41
f 64/159/42 14/34/42 47/117/42 79/183/42
f 96/216/43 94/213/43 50/126/43 80/186/43
f 101/225/44 99/222/44 48/120/44 80/185/44
f 104/228/45 98/220/45 49/123/45 95/215/45
f 103/227/46 100/224/46 50/127/46 94/212/46
f 8/23/47 53/137/47 52/132/47
f 8/23/48 52/132/48 4/10/48 106/232/48 3/7/48 55/146/48 7/20/48
f 54/142/49 58/151/49 89/203/49 5/16/49 107/234/49 6/18/49 57/150/49
f 100/223/50 101/225/50 80/185/50 50/128/50
f 95/214/51 96/216/51 80/186/51 48/121/51
f 10/27/52 64/159/52 79/183/52 45/111/52
f 13/33/53 61/156/53 78/181/53 46/114/53
f 98/219/54 102/226/54 81/187/54 49/124/54
f 39/95/55 75/176/55 77/179/55 43/107/55
f 36/89/56 74/175/56 76/177/56 40/97/56
f 40/98/57 76/178/57 77/180/57 42/104/57
f 32/81/58 72/173/58 74/175/58 36/89/58
f 35/87/59 73/174/59 75/176/59 39/95/59
f 1/2/60 60/155/60 72/173/60 32/81/60
f 14/34/61 64/159/61 71/171/61 31/79/61
f 29/73/62 70/170/62 73/174/62 35/87/62
f 28/71/63 70/170/63 71/172/63 30/76/63
f 85/196/64 86/198/64 69/168/64 27/68/64
f 82/189/65 87/200/65 68/165/65 25/65/65
f 27/69/66 69/169/66 68/166/66 24/62/66
f 11/29/67 62/157/67 67/164/67 22/56/67
f 18/43/68 66/162/68 65/160/68 20/51/68
f 7/21/69 55/147/69 63/158/69 12/31/69
f 22/56/70 67/164/70 65/161/70 17/42/70
f 9/24/71 61/156/71 62/157/71 11/29/71
f 19/48/72 66/162/72 87/200/72 82/189/72
f 12/30/73 18/44/73 20/52/73 21/54/73 16/39/73
f 66/163/74 18/47/74 84/194/74 87/201/74
f 23/57/75 19/49/75 82/190/75 83/191/75
f 49/125/76 81/188/76 96/216/76 95/214/76
f 97/217/77 103/227/77 94/212/77 51/130/77
f 99/221/78 104/228/78 95/215/78 48/122/78
f 81/188/79 51/131/79 94/213/79 96/216/79
f 14/34/80 90/204/80 92/208/80 47/117/80
f 9/24/81 91/206/81 93/210/81 44/108/81
f 3/8/82 88/202/82 91/207/82 9/25/82
f 5/16/83 89/203/83 90/205/83 14/35/83
f 44/109/84 93/211/84 104/228/84 99/221/84
f 47/118/85 92/209/85 103/227/85 97/217/85
f 45/112/86 79/184/86 102/226/86 98/219/86
f 46/115/87 78/182/87 101/225/87 100/223/87
f 92/209/88 46/116/88 100/224/88 103/227/88
f 93/211/89 45/113/89 98/220/89 104/228/89
f 78/182/90 44/110/90 99/222/90 101/225/90
f 79/184/91 47/119/91 97/218/91 102/226/91
f 59/152/92 4/11/92 52/133/92 53/138/92 54/141/92 108/235/92
f 136/298/93 110/241/93 109/238/93 135/296/93
f 121/271/94 120/269/94 114/253/94 117/261/94
f 139/304/95 111/244/95 110/242/95 136/297/95
f 135/295/96 109/239/96 112/247/96 144/314/96
f 144/313/97 112/248/97 111/245/97 139/303/97
f 111/246/98 112/249/98 109/240/98 110/243/98
f 117/262/99 114/254/99 116/259/99 115/256/99 113/250/99
f 124/277/100 121/270/100 117/263/100 113/251/100
f 120/268/101 129/284/101 116/260/101 114/255/101
f 130/286/102 124/276/102 113/252/102 115/257/102
f 129/284/103 130/285/103 115/258/103 116/260/103
f 57/150/104 56/148/104 132/289/104 127/282/104
f 127/282/105 132/289/105 131/287/105 128/283/105
f 128/283/106 131/287/106 130/285/106 129/284/106
f 56/149/107 2/4/107 126/280/107 132/290/107
f 132/290/108 126/280/108 125/278/108 131/288/108
f 131/288/109 125/278/109 124/276/109 130/286/109
f 54/142/110 57/150/110 127/282/110 118/264/110
f 118/264/111 127/282/111 128/283/111 119/266/111
f 119/266/112 128/283/112 129/284/112 120/268/112
f 2/5/113 108/237/113 123/274/113 126/281/113
f 126/281/114 123/274/114 122/272/114 125/279/114
f 125/279/115 122/272/115 121/270/115 124/277/115
f 108/236/116 54/143/116 118/265/116 123/275/116
f 123/275/117 118/265/117 119/267/117 122/273/117
f 122/273/118 119/267/118 120/269/118 121/271/118
f 54/144/119 142/309/119 141/307/119 53/139/119
f 142/309/120 143/311/120 140/305/120 141/307/120
f 143/311/121 144/313/121 139/303/121 140/305/121
f 4/12/122 133/291/122 142/310/122 54/145/122
f 133/291/123 134/293/123 143/312/123 142/310/123
f 134/293/124 135/295/124 144/314/124 143/312/124
f 53/140/125 141/308/125 138/301/125 52/134/125
f 141/308/126 140/306/126 137/299/126 138/301/126
f 140/306/127 139/304/127 136/297/127 137/299/127
f 52/135/128 138/302/128 133/292/128 4/13/128
f 138/302/129 137/300/129 134/294/129 133/292/129
f 137/300/130 136/298/130 135/296/130 134/294/130
f 105/230/131 1/3/131 88/202/131 59/153/131 108/237/131 2/5/131
f 86/199/132 85/195/132 83/192/132
f 83/192/133 85/195/133 18/45/133 23/58/133
f 63/158/134 15/37/134 23/59/134 18/46/134 12/31/134
f 84/194/135 18/47/135 85/196/135
l 52 106
