# Blender 3.3.1
# www.blender.org
mtllib monstruo_3_caminar602.mtl
o monstruo_grande
v 0.304549 2.046988 0.163541
v 0.525350 1.206613 0.084930
v -0.735281 1.731090 0.156989
v -0.295344 1.136351 0.223374
v 0.477725 2.333556 -0.171281
v 0.512064 1.642338 -0.264834
v -0.864568 1.924971 -0.279100
v -0.752402 1.637644 -0.331152
v -0.383671 2.405068 0.403205
v 0.179479 2.321259 0.375649
v -0.518337 2.374528 0.504047
v -1.232907 1.969627 -0.134070
v -0.375864 2.550130 0.036669
v 0.169026 2.456030 0.113428
v -1.082947 1.849620 0.039590
v -0.539778 2.616524 0.051019
v -0.874163 2.286707 0.518265
v -1.531048 1.909031 0.125084
v -1.263791 1.975449 0.335530
v -1.054395 2.573088 0.220412
v -0.723696 2.653080 0.110879
v -0.595432 2.328017 0.483913
v -1.216115 1.869132 0.033343
v -1.823717 0.697002 0.887899
v -1.698765 0.683349 0.938603
v -1.672773 0.492626 0.752612
v -1.749040 0.500960 0.721664
v 0.328291 2.233721 0.352181
v 0.434472 2.428942 0.099299
v 0.291965 2.352247 0.367860
v 0.300882 2.481925 0.140432
v 0.543115 1.912726 0.140695
v 0.671259 2.009876 -0.024541
v 0.572409 1.988591 0.196866
v 0.660085 2.106217 0.050790
v 0.696244 1.686310 0.064600
v 0.784071 1.714567 -0.001410
v 0.763187 1.622480 0.115136
v 0.850585 1.663717 0.051175
v 0.678146 1.531440 0.056156
v 0.862927 1.612872 -0.073472
v 0.746670 1.382662 0.165764
v 1.018220 1.505870 -0.037605
v -0.222369 2.463236 0.426941
v -0.011020 2.441157 0.414837
v -0.220545 2.552541 0.174995
v -0.018134 2.531853 0.167708
v -0.166022 2.777327 0.570156
v 0.039306 2.711237 0.532950
v -0.177161 2.887511 0.314976
v 0.026674 2.822019 0.276705
v -0.500442 1.129014 0.009910
v -0.385358 1.139997 -0.203520
v -0.049224 1.259786 -0.336101
v -0.789123 1.760284 -0.070086
v 0.548218 1.230122 -0.152146
v 0.329439 1.228664 -0.278435
v -0.013604 1.512944 -0.341057
v -0.014761 1.150181 0.199555
v 0.363752 2.133012 0.049319
v -0.374558 2.456796 0.274659
v -0.543499 2.611082 0.326040
v -1.011940 1.910101 -0.084699
v 0.150157 2.445665 0.273038
v -0.904071 2.508173 0.455321
v -1.442643 2.075667 0.360819
v -0.695601 2.589899 0.317187
v -1.773420 0.691132 0.943521
v -1.687079 0.374460 0.645479
v 0.418963 2.338988 0.255779
v 0.296615 2.463061 0.275312
v 0.563445 1.950958 0.014358
v 0.657587 2.055631 0.155017
v 0.739835 1.704946 0.032132
v 0.806563 1.642161 0.082651
v 0.753106 1.582775 -0.024707
v 0.852587 1.465366 0.036995
v -0.222312 2.507125 0.299984
v -0.016248 2.487849 0.290623
v -0.202717 2.833894 0.444768
v 0.064612 2.765502 0.403296
v -1.580462 1.005698 0.859349
v -1.633710 0.825454 0.805904
v -1.795622 0.999714 0.775633
v -1.751319 0.838304 0.758179
v -1.686782 0.659750 0.721567
v -1.711491 0.987250 0.870644
v -0.093232 1.796132 0.478757
v 0.045119 2.143011 -0.246036
v -0.016723 2.525481 -0.012902
v -0.060237 2.305278 0.555044
v -0.121667 2.540916 0.169732
v -0.112234 2.449510 0.420204
v -0.077301 2.870870 0.256986
v -0.061765 2.727744 0.589719
v -0.065056 2.850309 0.446137
v 0.017377 2.687073 0.196982
v 0.028484 2.564232 0.489861
v -0.207302 2.613404 0.521528
v -0.220770 2.735897 0.225694
v -0.230270 2.676145 0.375499
v 0.038415 2.625727 0.342393
v -0.103201 2.719362 0.190686
v -0.087327 2.578893 0.525823
v 0.365432 1.749107 -0.034765
v -0.603041 1.461517 0.191496
v 0.494467 1.868103 -0.270671
v 0.176950 1.161912 0.198664
v -0.188752 0.008563 -0.023805
v -0.332413 0.014198 0.099440
v -0.359811 0.013564 -0.150358
v -0.224728 0.008794 -0.165894
v 0.371008 0.120378 -0.219391
v 0.298840 0.136453 -0.295106
v 0.380991 0.128454 -0.256875
v 0.349869 0.133481 -0.283329
v 0.311884 0.118810 -0.210282
v 0.107572 0.888799 -0.106248
v 0.175086 0.720569 -0.093894
v 0.233054 0.434725 -0.174371
v 0.271567 0.358497 -0.013742
v 0.239487 0.567174 0.135546
v 0.229317 0.816824 0.259181
v 0.392956 0.374748 -0.037092
v 0.444381 0.600263 0.102751
v 0.510680 0.907784 0.201328
v 0.361257 0.919201 -0.088407
v 0.355179 0.717083 -0.068242
v 0.340269 0.431027 -0.157039
v 0.408412 0.411752 -0.109312
v 0.470321 0.689952 0.009630
v 0.530434 0.939250 0.017498
v -0.175033 0.876321 0.330407
v -0.142871 0.581091 0.268185
v -0.134735 0.338683 0.231887
v -0.419695 0.324968 0.221658
v -0.434469 0.601205 0.217539
v -0.461146 0.858042 0.203871
v -0.455564 0.371173 -0.042723
v -0.467210 0.646281 -0.047245
v -0.472338 0.861697 -0.072955
v -0.075711 0.826313 -0.095083
v -0.123954 0.631834 -0.091286
v -0.164673 0.420349 -0.074191
vn -0.0881 0.5051 -0.8586
vn -0.0430 0.0232 -0.9988
vn 0.4918 -0.1892 -0.8499
vn -0.2565 -0.2494 0.9338
vn 0.9203 0.0782 0.3833
vn 0.5671 0.8083 0.1583
vn 0.0724 0.9159 -0.3948
vn 0.6507 -0.1938 0.7342
vn -0.1316 0.9365 0.3251
vn -0.1567 0.4844 -0.8607
vn -0.1113 -0.4425 0.8899
vn -0.3651 -0.8976 -0.2469
vn -0.2497 -0.0488 0.9671
vn 0.3261 -0.8178 0.4742
vn 0.9481 -0.2186 0.2307
vn -0.0052 -0.6776 0.7354
vn 0.0661 0.9883 0.1376
vn 0.0197 -0.6878 0.7256
vn -0.6914 0.3062 0.6543
vn 0.9367 0.0136 -0.3497
vn -0.8609 -0.0254 -0.5082
vn 0.5892 0.7430 0.3175
vn 0.5511 0.1021 0.8282
vn -0.1962 -0.5510 0.8111
vn -0.1011 0.6290 0.7708
vn -0.6074 -0.5139 0.6058
vn -0.3799 -0.4713 -0.7959
vn 0.8394 0.5205 -0.1564
vn -0.2305 -0.6382 0.7345
vn 0.6247 0.7427 -0.2411
vn 0.4815 0.0368 0.8757
vn 0.8215 0.3227 -0.4702
vn -0.3257 -0.2431 -0.9137
vn -0.2059 -0.5773 -0.7901
vn -0.5066 0.2641 -0.8207
vn -0.6593 0.1368 0.7393
vn 0.7136 0.0589 0.6981
vn 0.9759 -0.0145 -0.2179
vn 0.3714 0.5982 0.7101
vn 0.0709 0.9953 -0.0665
vn -0.3540 0.8800 0.3166
vn 0.3462 0.9172 0.1973
vn 0.0554 0.9720 0.2284
vn -0.9595 0.1103 0.2594
vn 0.3235 -0.3567 0.8764
vn -0.2791 0.4884 -0.8268
vn -0.6852 -0.6082 -0.4008
vn -0.8759 -0.4319 0.2150
vn 0.0960 0.0823 -0.9920
vn -0.9713 0.2367 -0.0258
vn 0.0672 0.8350 0.5461
vn 0.4223 0.7534 0.5040
vn -0.3303 0.8818 0.3366
vn 0.9867 -0.1501 0.0628
vn 0.4644 -0.0585 0.8837
vn -0.7313 0.1685 -0.6609
vn -0.3212 -0.6475 -0.6911
vn -0.7506 -0.4656 -0.4689
vn 0.8437 0.2970 0.4471
vn -0.5439 -0.6586 -0.5200
vn -0.1619 0.9832 0.0849
vn 0.7861 0.5198 0.3345
vn 0.6452 0.3214 0.6931
vn -0.4118 0.1609 -0.8970
vn 0.0653 0.2204 0.9732
vn -0.6421 -0.6155 0.4570
vn -0.2538 0.5062 0.8242
vn -0.7333 0.6384 0.2340
vn -0.3607 -0.8685 -0.3399
vn 0.1898 0.4626 0.8660
vn 0.5379 0.6280 0.5624
vn 0.2089 0.3908 0.8965
vn -0.4420 0.5291 -0.7244
vn -0.8774 0.3936 0.2743
vn 0.9559 -0.2359 0.1751
vn 0.5194 0.6977 0.4934
vn 0.2512 0.4149 -0.8745
vn -0.2086 -0.2913 0.9336
vn 0.5020 0.8552 0.1290
vn 0.2745 0.9611 -0.0318
vn -0.1396 0.5333 0.8343
vn -0.4411 -0.0997 0.8919
vn 0.0728 0.7396 -0.6691
vn -0.1105 -0.5682 0.8154
vn 0.0450 0.1416 -0.9889
vn 0.9505 -0.2941 -0.1007
vn -0.9990 -0.0075 -0.0438
vn -0.1541 0.1994 -0.9677
vn 0.0891 -0.5945 0.7991
vn -0.9969 -0.0185 0.0764
vn 0.9534 -0.2443 -0.1774
vn 0.1347 -0.9815 -0.1358
vn 0.2315 -0.4852 0.8432
vn -0.9619 -0.2520 0.1057
vn -0.9520 -0.2921 0.0913
vn 0.9843 -0.0770 -0.1588
vn -0.1314 0.2430 -0.9611
vn -0.0341 -0.9994 0.0065
vn -0.0039 -0.9795 -0.2015
vn 0.1989 -0.5917 0.7813
vn 0.1822 0.3962 -0.8999
vn 0.9717 -0.1817 0.1507
vn 0.6161 0.3203 -0.7195
vn 0.4784 -0.4431 -0.7582
vn 0.5382 -0.1017 -0.8366
vn 0.5882 0.2077 -0.7816
vn 0.9950 -0.0063 0.0999
vn 0.9710 -0.2317 0.0588
vn 0.9679 -0.2456 0.0541
vn 0.1020 -0.5018 -0.8590
vn 0.1038 -0.0699 -0.9921
vn 0.1487 0.2909 -0.9451
vn 0.1984 0.2704 0.9421
vn 0.2623 -0.3802 0.8869
vn 0.2216 -0.5473 0.8071
vn -0.9324 -0.1367 0.3346
vn -0.9499 -0.2323 0.2092
vn -0.9657 -0.2310 0.1188
vn -0.1364 -0.4413 -0.8869
vn -0.0930 -0.0618 -0.9937
vn -0.1162 -0.0372 -0.9925
vn 0.8962 0.2898 0.3359
vn 0.9876 -0.0502 0.1487
vn 0.9971 -0.0703 -0.0305
vn -0.9773 -0.0382 -0.2082
vn -0.9953 -0.0608 0.0753
vn -0.9916 -0.0456 0.1207
vn -0.5566 0.2767 0.7833
vn -0.2916 -0.1146 0.9496
vn -0.1055 -0.0662 0.9922
vn 0.5753 -0.0479 0.8165
vn 0.3861 0.3172 -0.8662
vn -0.1488 -0.5159 -0.8436
vn -0.1822 -0.8529 -0.4893
vn -0.8134 -0.1629 -0.5585
vt 0.461701 0.809397
vt 0.301930 0.729761
vt 0.094158 0.499911
vt 0.498737 0.648456
vt 0.250869 0.553264
vt 0.714874 0.752530
vt 0.627854 0.740386
vt 0.227533 0.339544
vt 0.300362 0.438253
vt 0.625828 0.633709
vt 0.338991 0.679376
vt 0.653754 0.621457
vt 0.189641 0.785401
vt 0.531284 0.815038
vt 0.232114 0.729761
vt 0.806952 0.326283
vt 0.527824 0.712310
vt 0.703640 0.331352
vt 0.725736 0.123548
vt 0.557184 0.740386
vt 0.714874 0.681901
vt 0.693091 0.138725
vt 0.558638 0.706064
vt 0.944491 0.391302
vt 0.108931 0.369345
vt 0.090202 0.443431
vt 0.952837 0.467016
vt 0.108059 0.346292
vt 0.960024 0.371234
vt 0.653754 0.712739
vt 0.761990 0.055860
vt 0.265996 0.788213
vt 0.829683 0.188590
vt 0.886815 0.394232
vt 0.909606 0.471204
vt 0.826550 0.267021
vt 0.659457 0.749480
vt 0.206417 0.267620
vt 0.238389 0.812575
vt 0.882743 0.373659
vt 0.837846 0.166681
vt 0.102618 0.289588
vt 0.957957 0.321520
vt 0.918648 0.216117
vt 0.803322 0.012950
vt 0.106348 0.638847
vt 0.232551 0.755661
vt 0.798789 0.485160
vt 0.965752 0.239402
vt 0.153968 0.222285
vt 0.894228 0.312474
vt 0.856067 0.102710
vt 0.881967 0.351902
vt 0.842627 0.144082
vt 0.107159 0.331692
vt 0.958812 0.358201
vt 0.199778 0.246429
vt 0.138792 0.619338
vt 0.232114 0.797406
vt 0.967580 0.012950
vt 0.753483 0.682459
vt 0.843831 0.469074
vt 0.256421 0.022764
vt 0.824689 0.472884
vt 0.987050 0.016155
vt 0.832147 0.505580
vt 0.295109 0.018166
vt 0.782932 0.707368
vt 0.843831 0.503254
vt 0.076417 0.467161
vt 0.958695 0.494573
vt 0.833773 0.298242
vt 0.909847 0.503107
vt 0.076958 0.454690
vt 0.951531 0.482650
vt 0.837149 0.281767
vt 0.912926 0.487172
vt 0.064432 0.532285
vt 0.298790 0.687460
vt 0.825577 0.362572
vt 0.264894 0.686125
vt 0.056614 0.518895
vt 0.959622 0.549977
vt 0.837123 0.350740
vt 0.929664 0.555276
vt 0.051257 0.577890
vt 0.291936 0.641182
vt 0.824256 0.407314
vt 0.275162 0.640522
vt 0.035793 0.577862
vt 0.964581 0.612577
vt 0.838997 0.411720
vt 0.948088 0.615681
vt 0.039898 0.592711
vt 0.301778 0.620707
vt 0.403076 0.772170
vt 0.830596 0.428615
vt 0.403076 0.737417
vt 0.267017 0.619338
vt 0.012950 0.593438
vt 0.987050 0.637067
vt 0.428919 0.781443
vt 0.856067 0.440612
vt 0.428919 0.728949
vt 0.935424 0.646785
vt 0.945356 0.412724
vt 0.357115 0.854737
vt 0.331665 0.779032
vt 0.948027 0.441601
vt 0.799629 0.752473
vt 0.327972 0.853161
vt 0.906904 0.416128
vt 0.370069 0.779032
vt 0.684668 0.778429
vt 0.909575 0.445005
vt 0.655249 0.778999
vt 0.799629 0.791035
vt 0.330193 0.729131
vt 0.557184 0.775635
vt 0.363063 0.804932
vt 0.331684 0.807874
vt 0.754247 0.751428
vt 0.586563 0.768755
vt 0.566112 0.815056
vt 0.689281 0.828405
vt 0.370405 0.729131
vt 0.754247 0.791805
vt 0.657717 0.824383
vt 0.595492 0.808176
vt 0.327830 0.637821
vt 0.590400 0.642651
vt 0.164818 0.789976
vt 0.357235 0.619338
vt 0.642851 0.190721
vt 0.562581 0.649581
vt 0.406824 0.626953
vt 0.080449 0.619338
vt 0.646201 0.239681
vt 0.727583 0.656002
vt 0.597847 0.731399
vt 0.712829 0.722239
vt 0.658284 0.323708
vt 0.527919 0.666449
vt 0.661748 0.291537
vt 0.680225 0.245582
vt 0.377645 0.696957
vt 0.285191 0.477898
vt 0.483372 0.812325
vt 0.280072 0.728266
vt 0.924330 0.393087
vt 0.921760 0.373660
vt 0.678504 0.727397
vt 0.268491 0.812575
vt 0.930826 0.465310
vt 0.923786 0.327561
vt 0.941993 0.227167
vt 0.764056 0.466512
vt 0.919524 0.351927
vt 0.977463 0.013354
vt 0.833186 0.466512
vt 0.317617 0.012950
vt 0.798789 0.722800
vt 0.839639 0.522681
vt 0.934403 0.500152
vt 0.932138 0.484309
vt 0.281656 0.689101
vt 0.944784 0.554368
vt 0.283549 0.640852
vt 0.956335 0.614129
vt 0.284323 0.620942
vt 0.399765 0.754789
vt 0.961112 0.640376
vt 0.422297 0.755187
vt 0.926130 0.414426
vt 0.350867 0.779032
vt 0.928801 0.443303
vt 0.799629 0.771754
vt 0.350773 0.728949
vt 0.557184 0.796361
vt 0.753483 0.771844
vt 0.595492 0.787450
vt 0.985581 0.067358
vt 0.238180 0.070710
vt 0.259592 0.052321
vt 0.138792 0.821791
vt 0.953366 0.057503
vt 0.765454 0.639660
vt 0.120235 0.821584
vt 0.772730 0.660154
vt 0.283154 0.037949
vt 0.784440 0.682652
vt 0.128680 0.843910
vt 0.970110 0.058056
vt 0.758353 0.637393
vt 0.180368 0.432154
vt 0.759258 0.257498
vt 0.884976 0.446549
vt 0.828099 0.241547
vt 0.971226 0.428512
vt 0.101516 0.405509
vt 0.908240 0.430567
vt 0.669958 0.778714
vt 0.946692 0.427163
vt 0.342544 0.853949
vt 0.673120 0.826722
vt 0.582140 0.817526
vt 0.570535 0.766286
vt 0.348248 0.806122
vt 0.576699 0.792002
vt 0.653753 0.802281
vt 0.776512 0.794925
vt 0.776512 0.748700
vt 0.327830 0.829868
vt 0.363063 0.830170
vt 0.327830 0.753980
vt 0.373865 0.753980
vt 0.689281 0.803194
vt 0.351093 0.753886
vt 0.776117 0.771930
vt 0.671321 0.802907
vt 0.345899 0.829874
vt 0.457498 0.727404
vt 0.165986 0.548054
vt 0.260364 0.376248
vt 0.625887 0.695531
vt 0.520555 0.743605
vt 0.734596 0.339638
vt 0.406824 0.703049
vt 0.012950 0.651015
vt 0.277407 0.507014
vt 0.206214 0.619338
vt 0.706517 0.466512
vt 0.399765 0.822801
vt 0.181517 0.620770
vt 0.619265 0.470337
vt 0.422433 0.807343
vt 0.582936 0.466512
vt 0.458892 0.202188
vt 0.422433 0.843958
vt 0.727583 0.468029
vt 0.460639 0.221880
vt 0.402692 0.843997
vt 0.717439 0.778459
vt 0.429089 0.593438
vt 0.518160 0.466685
vt 0.070962 0.817001
vt 0.726094 0.791097
vt 0.457498 0.298878
vt 0.715181 0.783741
vt 0.523936 0.466512
vt 0.458951 0.311476
vt 0.719061 0.788282
vt 0.458165 0.306435
vt 0.058766 0.817583
vt 0.726094 0.778429
vt 0.431598 0.585369
vt 0.599953 0.261833
vt 0.080449 0.668491
vt 0.542336 0.274386
vt 0.076079 0.728305
vt 0.500395 0.287212
vt 0.064936 0.773359
vt 0.389801 0.564275
vt 0.039540 0.774208
vt 0.356388 0.547019
vt 0.031995 0.737396
vt 0.319737 0.531779
vt 0.030523 0.696843
vt 0.505723 0.512116
vt 0.384015 0.580847
vt 0.506522 0.550736
vt 0.346302 0.574833
vt 0.507607 0.604105
vt 0.294291 0.566034
vt 0.610540 0.298468
vt 0.545535 0.300686
vt 0.502363 0.302883
vt 0.504402 0.313331
vt 0.517745 0.511765
vt 0.548610 0.318269
vt 0.527842 0.556627
vt 0.609940 0.323717
vt 0.531284 0.618364
vt 0.660591 0.582499
vt 0.204501 0.743892
vt 0.668589 0.550878
vt 0.206214 0.710848
vt 0.668004 0.517120
vt 0.204545 0.678125
vt 0.623877 0.525891
vt 0.164692 0.675333
vt 0.610236 0.563455
vt 0.167167 0.712219
vt 0.605277 0.597358
vt 0.166352 0.745757
vt 0.511839 0.183186
vt 0.584607 0.521652
vt 0.552303 0.182624
vt 0.569857 0.561129
vt 0.598009 0.178631
vt 0.565182 0.606784
vt 0.592158 0.236754
vt 0.721184 0.600612
vt 0.550092 0.232946
vt 0.722606 0.558204
vt 0.518921 0.225772
vt 0.713819 0.525134
s 0
usemtl Material
f 89/196/1 7/19/1 13/33/1 90/198/1
f 8/22/2 7/19/2 89/196/2 58/145/2 54/138/2 53/134/2
f 6/18/3 56/142/3 57/144/3
f 3/8/4 106/224/4 4/9/4 59/147/4 88/195/4
f 6/17/5 107/226/5 5/14/5 60/148/5 1/1/5 105/222/5 2/4/5 56/143/5
f 61/150/6 13/34/6 16/40/6 62/151/6
f 5/16/7 14/36/7 31/76/7 29/72/7
f 88/195/8 1/3/8 10/26/8 91/200/8
f 67/158/9 21/53/9 20/51/9 65/155/9
f 13/33/10 7/19/10 12/31/10 16/41/10
f 3/8/11 9/25/11 11/28/11 15/38/11
f 55/141/12 3/6/12 15/37/12 63/152/12
f 66/156/13 19/49/13 17/43/13 65/155/13
f 23/57/14 22/55/14 17/42/14 19/50/14
f 83/184/15 82/183/15 25/63/15 26/67/15
f 15/38/16 11/28/16 22/55/16 23/57/16
f 62/151/17 16/40/17 21/53/17 67/158/17
f 69/163/18 26/66/18 25/64/18 68/160/18
f 87/193/19 84/186/19 24/60/19 68/159/19
f 86/190/20 83/184/20 26/67/20 69/161/20
f 84/187/21 85/189/21 27/68/21 24/61/21
f 70/164/22 29/73/22 31/77/22 71/165/22
f 70/164/23 28/71/23 34/83/23 73/167/23
f 10/26/24 1/3/24 28/70/24 30/74/24
f 64/154/25 10/27/25 30/75/25 71/165/25
f 34/82/26 32/78/26 36/86/26 38/90/26
f 60/149/27 5/15/27 33/81/27 72/166/27
f 5/16/28 29/72/28 35/84/28 33/80/28
f 28/70/29 1/3/29 32/78/29 34/82/29
f 37/88/30 39/92/30 43/103/30 41/97/30
f 73/167/31 34/83/31 38/91/31 75/169/31
f 33/80/32 35/84/32 39/92/32 37/88/32
f 72/166/33 33/81/33 37/89/33 74/168/33
f 76/171/34 41/98/34 43/104/34 77/173/34
f 74/168/35 37/89/35 41/99/35 76/170/35
f 38/90/36 36/86/36 40/94/36 42/100/36
f 75/169/37 38/91/37 42/101/37 77/172/37
f 102/219/38 97/211/38 51/127/38 81/180/38
f 91/199/39 10/27/39 45/109/39 93/203/39
f 90/197/40 13/34/40 46/112/40 92/201/40
f 61/150/41 9/24/41 44/106/41 78/174/41
f 64/154/42 14/35/42 47/115/42 79/176/42
f 96/209/43 94/206/43 50/124/43 80/179/43
f 101/218/44 99/215/44 48/118/44 80/178/44
f 104/221/45 98/213/45 49/121/45 95/208/45
f 103/220/46 100/217/46 50/125/46 94/205/46
f 8/23/47 53/135/47 52/131/47
f 8/23/48 52/131/48 4/10/48 106/225/48 3/7/48 55/140/48 7/20/48
f 54/138/49 58/145/49 89/196/49 5/16/49 107/227/49 6/18/49 57/144/49
f 100/216/50 101/218/50 80/178/50 50/126/50
f 95/207/51 96/209/51 80/179/51 48/119/51
f 10/27/52 64/154/52 79/176/52 45/109/52
f 13/34/53 61/150/53 78/174/53 46/112/53
f 98/212/54 102/219/54 81/180/54 49/122/54
f 39/93/55 75/169/55 77/172/55 43/105/55
f 36/87/56 74/168/56 76/170/56 40/95/56
f 40/96/57 76/171/57 77/173/57 42/102/57
f 32/79/58 72/166/58 74/168/58 36/87/58
f 35/85/59 73/167/59 75/169/59 39/93/59
f 1/2/60 60/149/60 72/166/60 32/79/60
f 14/35/61 64/154/61 71/165/61 31/77/61
f 29/73/62 70/164/62 73/167/62 35/85/62
f 28/71/63 70/164/63 71/165/63 30/75/63
f 85/189/64 86/191/64 69/162/64 27/68/64
f 82/182/65 87/193/65 68/159/65 25/65/65
f 27/69/66 69/163/66 68/160/66 24/62/66
f 11/29/67 62/151/67 67/158/67 22/56/67
f 18/44/68 66/156/68 65/155/68 20/51/68
f 7/21/69 55/141/69 63/152/69 12/30/69
f 22/56/70 67/158/70 65/155/70 17/43/70
f 9/24/71 61/150/71 62/151/71 11/29/71
f 19/49/72 66/156/72 87/193/72 82/182/72
f 12/31/73 18/45/73 20/52/73 21/54/73 16/41/73
f 66/157/74 18/48/74 84/187/74 87/194/74
f 23/57/75 19/50/75 82/183/75 83/184/75
f 49/123/76 81/181/76 96/209/76 95/207/76
f 97/210/77 103/220/77 94/205/77 51/128/77
f 99/214/78 104/221/78 95/208/78 48/120/78
f 81/181/79 51/129/79 94/206/79 96/209/79
f 14/35/80 90/197/80 92/201/80 47/115/80
f 9/24/81 91/199/81 93/203/81 44/106/81
f 3/8/82 88/195/82 91/200/82 9/25/82
f 5/16/83 89/196/83 90/198/83 14/36/83
f 44/107/84 93/204/84 104/221/84 99/214/84
f 47/116/85 92/202/85 103/220/85 97/210/85
f 45/110/86 79/177/86 102/219/86 98/212/86
f 46/113/87 78/175/87 101/218/87 100/216/87
f 92/202/88 46/114/88 100/217/88 103/220/88
f 93/204/89 45/111/89 98/213/89 104/221/89
f 78/175/90 44/108/90 99/215/90 101/218/90
f 79/177/91 47/117/91 97/211/91 102/219/91
f 59/146/92 4/11/92 52/130/92 53/133/92 54/136/92 108/228/92
f 136/291/93 110/234/93 109/231/93 135/289/93
f 121/264/94 120/262/94 114/246/94 117/254/94
f 139/297/95 111/237/95 110/235/95 136/290/95
f 135/288/96 109/232/96 112/240/96 144/307/96
f 144/306/97 112/241/97 111/238/97 139/296/97
f 111/239/98 112/242/98 109/233/98 110/236/98
f 117/255/99 114/247/99 116/252/99 115/249/99 113/243/99
f 124/270/100 121/263/100 117/256/100 113/244/100
f 120/261/101 129/277/101 116/253/101 114/248/101
f 130/279/102 124/269/102 113/245/102 115/250/102
f 129/277/103 130/278/103 115/251/103 116/253/103
f 57/144/104 56/142/104 132/282/104 127/275/104
f 127/275/105 132/282/105 131/280/105 128/276/105
f 128/276/106 131/280/106 130/278/106 129/277/106
f 56/143/107 2/4/107 126/273/107 132/283/107
f 132/283/108 126/273/108 125/271/108 131/281/108
f 131/281/109 125/271/109 124/269/109 130/279/109
f 54/138/110 57/144/110 127/275/110 118/257/110
f 118/257/111 127/275/111 128/276/111 119/259/111
f 119/259/112 128/276/112 129/277/112 120/261/112
f 2/5/113 108/230/113 123/267/113 126/274/113
f 126/274/114 123/267/114 122/265/114 125/272/114
f 125/272/115 122/265/115 121/263/115 124/270/115
f 108/229/116 54/137/116 118/258/116 123/268/116
f 123/268/117 118/258/117 119/260/117 122/266/117
f 122/266/118 119/260/118 120/262/118 121/264/118
f 54/138/119 142/302/119 141/300/119 53/134/119
f 142/302/120 143/304/120 140/298/120 141/300/120
f 143/304/121 144/306/121 139/296/121 140/298/121
f 4/12/122 133/284/122 142/303/122 54/139/122
f 133/284/123 134/286/123 143/305/123 142/303/123
f 134/286/124 135/288/124 144/307/124 143/305/124
f 53/135/125 141/301/125 138/294/125 52/131/125
f 141/301/126 140/299/126 137/292/126 138/294/126
f 140/299/127 139/297/127 136/290/127 137/292/127
f 52/132/128 138/295/128 133/285/128 4/13/128
f 138/295/129 137/293/129 134/287/129 133/285/129
f 137/293/130 136/291/130 135/289/130 134/287/130
f 105/223/131 1/3/131 88/195/131 59/147/131 108/230/131 2/5/131
f 86/192/132 85/188/132 83/185/132
f 83/185/133 85/188/133 18/46/133 23/58/133
f 63/153/134 15/39/134 23/59/134 18/47/134 12/32/134
f 84/187/135 18/48/135 85/189/135
l 52 106
