# Blender 3.3.1
# www.blender.org
mtllib monstruo_3_grande_caminar594.mtl
o monstruo_grande
v 0.304569 2.052002 0.154863
v 0.523048 1.192362 0.081627
v -0.731834 1.748835 0.117718
v -0.297808 1.157729 0.220800
v 0.525814 2.327618 -0.160286
v 0.528544 1.647811 -0.257160
v -0.841039 1.934485 -0.330388
v -0.737957 1.638314 -0.365964
v -0.380638 2.418469 0.363187
v 0.181068 2.328043 0.363298
v -0.519630 2.391698 0.458607
v -1.210793 1.983950 -0.200207
v -0.355565 2.556489 -0.004893
v 0.185978 2.459900 0.099045
v -1.070545 1.866591 -0.017564
v -0.518916 2.625193 0.000807
v -0.876201 2.308131 0.460100
v -1.519253 1.928185 0.046634
v -1.262427 1.998662 0.268358
v -1.041334 2.590707 0.150078
v -0.705021 2.665195 0.052488
v -0.595879 2.345670 0.435986
v -1.202467 1.886386 -0.029770
v -1.845697 0.729646 0.818865
v -1.723885 0.719056 0.877345
v -1.684456 0.523720 0.698649
v -1.758806 0.530184 0.662954
v 0.318349 2.237859 0.346301
v 0.457411 2.426366 0.106494
v 0.291668 2.357746 0.360487
v 0.317325 2.483984 0.134242
v 0.529658 1.913081 0.160258
v 0.690947 1.984094 0.014504
v 0.561927 1.982461 0.216573
v 0.672772 2.091482 0.082248
v 0.670259 1.665344 0.140951
v 0.769607 1.682932 0.090019
v 0.723548 1.608783 0.212303
v 0.823286 1.638948 0.161725
v 0.648081 1.511022 0.151095
v 0.857015 1.569907 0.050049
v 0.687968 1.379166 0.292047
v 0.998616 1.468262 0.131304
v -0.219066 2.474714 0.394744
v -0.007932 2.452461 0.390240
v -0.207615 2.560098 0.141901
v -0.006176 2.538191 0.141814
v -0.164189 2.789781 0.537113
v 0.041735 2.722991 0.504772
v -0.170027 2.897163 0.280491
v 0.034389 2.830956 0.246949
v -0.502385 1.138060 0.010544
v -0.387810 1.134360 -0.203246
v -0.042111 1.254950 -0.337887
v -0.777478 1.772465 -0.111934
v 0.547195 1.240696 -0.150359
v 0.329906 1.252295 -0.278565
v 0.000632 1.508084 -0.347572
v -0.020158 1.146087 0.197602
v 0.380916 2.133554 0.046367
v -0.365378 2.467505 0.234270
v -0.534109 2.625063 0.275423
v -0.995026 1.923878 -0.139440
v 0.158369 2.451561 0.257791
v -0.900710 2.528585 0.392050
v -1.441637 2.100041 0.283633
v -0.685952 2.605685 0.260557
v -1.798787 0.725965 0.877550
v -1.690868 0.402506 0.594190
v 0.422386 2.337722 0.260652
v 0.304272 2.467087 0.268056
v 0.573913 1.936937 0.038996
v 0.655620 2.042264 0.185738
v 0.719973 1.678594 0.115449
v 0.773170 1.623015 0.186627
v 0.739339 1.549129 0.080294
v 0.820146 1.440944 0.176494
v -0.214944 2.516039 0.266957
v -0.008953 2.496852 0.265131
v -0.198260 2.845026 0.410402
v 0.069680 2.775828 0.375024
v -1.604817 1.040696 0.796374
v -1.652610 0.858367 0.744879
v -1.814438 1.029661 0.700183
v -1.767264 0.868334 0.689835
v -1.698533 0.689736 0.662164
v -1.736063 1.020801 0.800287
v -0.102053 1.811681 0.460624
v 0.076105 2.146865 -0.266153
v 0.003806 2.528924 -0.037522
v -0.066580 2.316326 0.530840
v -0.109922 2.547408 0.139903
v -0.108348 2.460358 0.391931
v -0.069063 2.879696 0.224557
v -0.060430 2.740265 0.559311
v -0.060628 2.861255 0.414362
v 0.026828 2.694895 0.168733
v 0.031220 2.575839 0.463091
v -0.204915 2.625471 0.489278
v -0.211444 2.744498 0.191612
v -0.224792 2.686523 0.341948
v 0.044381 2.635529 0.315143
v -0.093435 2.727250 0.159311
v -0.085023 2.590813 0.496505
v 0.376614 1.746724 -0.016530
v -0.606744 1.479225 0.165166
v 0.521128 1.874990 -0.261963
v 0.172544 1.137439 0.192847
v -0.192382 0.019518 0.024722
v -0.336296 0.026281 0.147676
v -0.363178 0.024099 -0.102314
v -0.228076 0.018971 -0.117562
v 0.381666 0.207191 -0.410155
v 0.312076 0.239170 -0.483237
v 0.392935 0.223608 -0.444415
v 0.362746 0.234155 -0.470337
v 0.322242 0.203020 -0.404091
v 0.103708 0.902105 -0.139546
v 0.174231 0.762706 -0.159604
v 0.236605 0.502179 -0.301266
v 0.273821 0.393883 -0.159906
v 0.237867 0.565941 0.029740
v 0.223749 0.783626 0.203314
v 0.395333 0.415531 -0.177542
v 0.442713 0.606793 0.008550
v 0.505349 0.881474 0.163370
v 0.357157 0.930951 -0.121008
v 0.354092 0.755044 -0.133234
v 0.343619 0.495608 -0.283579
v 0.411339 0.467110 -0.240051
v 0.468578 0.713174 -0.061459
v 0.525988 0.936153 -0.013488
v -0.176324 0.905945 0.347265
v -0.146953 0.604609 0.301356
v -0.140074 0.359667 0.274578
v -0.424961 0.346734 0.262207
v -0.438119 0.623723 0.247459
v -0.463064 0.880489 0.223590
v -0.458006 0.383504 -0.004403
v -0.468398 0.657781 -0.018474
v -0.475427 0.865852 -0.052374
v -0.078557 0.828287 -0.073633
v -0.124817 0.639989 -0.058927
v -0.166558 0.430101 -0.034829
vn -0.0507 0.4985 -0.8654
vn -0.0093 -0.0113 -0.9999
vn 0.4899 -0.2001 -0.8485
vn -0.2921 -0.2190 0.9310
vn 0.9012 0.0465 0.4310
vn 0.5711 0.8036 0.1672
vn 0.1233 0.9100 -0.3959
vn 0.6236 -0.1995 0.7558
vn -0.1338 0.9437 0.3025
vn -0.1176 0.4734 -0.8730
vn -0.1550 -0.4224 0.8931
vn -0.3657 -0.8997 -0.2382
vn -0.2891 -0.0261 0.9570
vn 0.2968 -0.8125 0.5018
vn 0.9350 -0.1995 0.2933
vn -0.0409 -0.6653 0.7455
vn 0.0737 0.9898 0.1217
vn -0.0160 -0.6675 0.7444
vn -0.7330 0.3145 0.6032
vn 0.9559 0.0167 -0.2931
vn -0.8283 -0.0507 -0.5580
vn 0.5783 0.7301 0.3641
vn 0.4625 0.0720 0.8837
vn -0.2604 -0.5464 0.7961
vn -0.1346 0.6384 0.7579
vn -0.7485 -0.3845 0.5402
vn -0.3082 -0.4621 -0.8315
vn 0.8765 0.4767 -0.0669
vn -0.3376 -0.6236 0.7051
vn 0.6880 0.6916 -0.2198
vn 0.3162 0.1073 0.9426
vn 0.9198 0.2117 -0.3304
vn -0.1782 -0.3239 -0.9291
vn -0.0723 -0.6876 -0.7224
vn -0.3317 0.1428 -0.9325
vn -0.7847 0.2508 0.5669
vn 0.5657 0.1527 0.8104
vn 0.9803 -0.0184 -0.1964
vn 0.3451 0.5983 0.7232
vn 0.0817 0.9937 -0.0763
vn -0.3575 0.8891 0.2860
vn 0.3433 0.9180 0.1987
vn 0.0526 0.9744 0.2184
vn -0.9643 0.1150 0.2386
vn 0.3054 -0.3483 0.8862
vn -0.2615 0.4795 -0.8377
vn -0.7043 -0.6078 -0.3669
vn -0.8900 -0.4041 0.2112
vn 0.1348 0.0727 -0.9882
vn -0.9701 0.2374 -0.0506
vn 0.0576 0.8408 0.5382
vn 0.4095 0.7570 0.5091
vn -0.3407 0.8882 0.3084
vn 0.9847 -0.1524 0.0840
vn 0.2809 0.0670 0.9574
vn -0.5814 0.0771 -0.8100
vn -0.2058 -0.7382 -0.6424
vn -0.6929 -0.4556 -0.5588
vn 0.7789 0.2907 0.5556
vn -0.5176 -0.6416 -0.5661
vn -0.1514 0.9864 0.0640
vn 0.7709 0.4834 0.4148
vn 0.6086 0.2895 0.7388
vn -0.3587 0.1309 -0.9242
vn 0.0038 0.2476 0.9689
vn -0.6612 -0.6115 0.4347
vn -0.2823 0.5242 0.8035
vn -0.7359 0.6510 0.1861
vn -0.3569 -0.8715 -0.3362
vn 0.1613 0.4764 0.8643
vn 0.5226 0.6315 0.5727
vn 0.1629 0.4094 0.8977
vn -0.4070 0.5200 -0.7510
vn -0.8912 0.3963 0.2208
vn 0.9467 -0.2294 0.2262
vn 0.5106 0.7023 0.4960
vn 0.2708 0.4044 -0.8736
vn -0.2284 -0.2811 0.9321
vn 0.5006 0.8560 0.1292
vn 0.2791 0.9597 -0.0341
vn -0.1703 0.5427 0.8225
vn -0.4768 -0.0783 0.8755
vn 0.1262 0.7341 -0.6672
vn -0.1348 -0.5606 0.8171
vn 0.0733 0.1254 -0.9894
vn 0.9507 -0.3015 -0.0726
vn -0.9968 -0.0107 -0.0788
vn -0.1285 0.1892 -0.9735
vn 0.0696 -0.5830 0.8095
vn -0.9986 -0.0140 0.0520
vn 0.9594 -0.2431 -0.1433
vn 0.0906 -0.9904 -0.1045
vn 0.2279 -0.4606 0.8578
vn -0.9592 -0.2819 0.0214
vn -0.9538 -0.2860 0.0915
vn 0.9854 -0.0835 -0.1486
vn -0.1251 0.2213 -0.9671
vn -0.0363 -0.9993 0.0127
vn 0.0226 -0.9089 -0.4164
vn 0.1901 -0.7459 0.6384
vn 0.1955 0.5874 -0.7853
vn 0.9709 -0.1986 0.1341
vn 0.6270 0.4776 -0.6154
vn 0.4797 -0.3697 -0.7958
vn 0.5384 0.0454 -0.8415
vn 0.5950 0.3809 -0.7078
vn 0.9944 -0.0265 0.1022
vn 0.9696 -0.2436 0.0237
vn 0.9695 -0.2444 0.0150
vn 0.1291 -0.4368 -0.8902
vn 0.0964 0.1218 -0.9879
vn 0.1558 0.4955 -0.8545
vn 0.1970 0.1445 0.9697
vn 0.2574 -0.5536 0.7920
vn 0.2154 -0.7053 0.6754
vn -0.9348 -0.1682 0.3127
vn -0.9419 -0.3024 0.1460
vn -0.9640 -0.2603 0.0538
vn -0.1259 -0.4920 -0.8615
vn -0.0909 -0.1123 -0.9895
vn -0.1075 -0.0712 -0.9917
vn 0.8949 0.3016 0.3289
vn 0.9871 -0.0439 0.1539
vn 0.9969 -0.0763 -0.0185
vn -0.9781 -0.0501 -0.2022
vn -0.9953 -0.0590 0.0762
vn -0.9929 -0.0365 0.1132
vn -0.5504 0.3358 0.7644
vn -0.2924 -0.0661 0.9540
vn -0.1145 -0.0273 0.9930
vn 0.5378 -0.0482 0.8417
vn 0.4340 0.2987 -0.8499
vn -0.1056 -0.5342 -0.8387
vn -0.1645 -0.8615 -0.4804
vn -0.7729 -0.1871 -0.6063
vt 0.882279 0.260085
vt 0.436089 0.649131
vt 0.117664 0.305524
vt 0.860974 0.338762
vt 0.079561 0.383885
vt 0.278417 0.728674
vt 0.111517 0.716819
vt 0.301243 0.337859
vt 0.232943 0.387386
vt 0.111517 0.662267
vt 0.671871 0.687525
vt 0.175114 0.511099
vt 0.930991 0.712692
vt 0.796001 0.259488
vt 0.522181 0.649131
vt 0.719621 0.316178
vt 0.801110 0.310020
vt 0.698705 0.366293
vt 0.510656 0.337024
vt 0.023033 0.717149
vt 0.367094 0.730187
vt 0.507246 0.358198
vt 0.018976 0.695717
vt 0.103380 0.570561
vt 0.268725 0.266033
vt 0.143950 0.273348
vt 0.098384 0.631539
vt 0.301351 0.259488
vt 0.128079 0.559933
vt 0.480438 0.333338
vt 0.348619 0.714075
vt 0.604958 0.268707
vt 0.031105 0.562973
vt 0.043818 0.625810
vt 0.721993 0.282954
vt 0.329365 0.336360
vt 0.302724 0.713315
vt 0.030374 0.549675
vt 0.582817 0.260846
vt 0.875347 0.642471
vt 0.380514 0.272320
vt 0.124895 0.517524
vt 0.813390 0.578569
vt 0.436089 0.332372
vt 0.956124 0.588845
vt 0.367094 0.692599
vt 0.367094 0.522797
vt 0.871643 0.594841
vt 0.398138 0.324445
vt 0.043891 0.509019
vt 0.796001 0.641153
vt 0.491075 0.268473
vt 0.032114 0.534706
vt 0.552485 0.259488
vt 0.331566 0.259909
vt 0.129819 0.544964
vt 0.339759 0.337186
vt 0.913298 0.588845
vt 0.317584 0.707220
vt 0.845734 0.463378
vt 0.311567 0.646434
vt 0.944558 0.353645
vt 0.398138 0.462439
vt 0.920230 0.354337
vt 0.870057 0.463781
vt 0.929709 0.374247
vt 0.357807 0.478584
vt 0.347994 0.663056
vt 0.944558 0.373825
vt 0.097076 0.285727
vt 0.229765 0.651022
vt 0.758050 0.297859
vt 0.168317 0.651042
vt 0.119329 0.272208
vt 0.094178 0.643292
vt 0.222768 0.636959
vt 0.746872 0.283208
vt 0.174541 0.636975
vt 0.045175 0.638147
vt 0.080672 0.327471
vt 0.442544 0.673801
vt 0.734592 0.339187
vt 0.484453 0.673801
vt 0.070725 0.319456
vt 0.218298 0.685110
vt 0.751374 0.331694
vt 0.180611 0.684911
vt 0.062412 0.356092
vt 0.455575 0.702696
vt 0.724658 0.367821
vt 0.476314 0.702696
vt 0.043357 0.357400
vt 0.210236 0.723455
vt 0.742364 0.370210
vt 0.189444 0.723462
vt 0.050281 0.367705
vt 0.444942 0.715336
vt 0.810526 0.722486
vt 0.728448 0.380153
vt 0.853695 0.722486
vt 0.487920 0.715336
vt 0.018975 0.371756
vt 0.232852 0.738567
vt 0.796001 0.739289
vt 0.758050 0.386241
vt 0.861207 0.739289
vt 0.167770 0.738589
vt 0.100634 0.583041
vt 0.712300 0.698974
vt 0.802197 0.701507
vt 0.098640 0.600731
vt 0.972705 0.287497
vt 0.747907 0.696578
vt 0.052045 0.577939
vt 0.849895 0.701507
vt 0.710445 0.675017
vt 0.050052 0.595630
vt 0.746553 0.677603
vt 0.924885 0.287497
vt 0.797725 0.671259
vt 0.981025 0.313792
vt 0.715147 0.730011
vt 0.752543 0.724602
vt 0.973919 0.259495
vt 0.967002 0.332143
vt 0.934252 0.306472
vt 0.715328 0.644023
vt 0.847669 0.671259
vt 0.923848 0.259495
vt 0.753088 0.649631
vt 0.920230 0.324823
vt 0.068284 0.665533
vt 0.630362 0.705721
vt 0.712055 0.621316
vt 0.966165 0.712391
vt 0.519769 0.388732
vt 0.031375 0.663704
vt 0.592215 0.695479
vt 0.581836 0.620019
vt 0.750017 0.621843
vt 0.569690 0.667298
vt 0.581066 0.387596
vt 0.531739 0.516092
vt 0.642835 0.625048
vt 0.273616 0.509019
vt 0.070982 0.710642
vt 0.316851 0.732164
vt 0.684917 0.393810
vt 0.816625 0.338063
vt 0.644803 0.392946
vt 0.602800 0.367236
vt 0.671871 0.661666
vt 0.181146 0.386242
vt 0.855113 0.259897
vt 0.463196 0.649131
vt 0.077903 0.567886
vt 0.078993 0.554271
vt 0.322237 0.720993
vt 0.070972 0.628379
vt 0.834014 0.651825
vt 0.084160 0.512738
vt 0.838315 0.596273
vt 0.320679 0.509019
vt 0.080733 0.539302
vt 0.857365 0.464048
vt 0.931678 0.351118
vt 0.335174 0.488977
vt 0.367094 0.673623
vt 0.939667 0.384854
vt 0.199177 0.651021
vt 0.069465 0.641494
vt 0.198664 0.632807
vt 0.464209 0.672968
vt 0.199604 0.684998
vt 0.465945 0.702696
vt 0.199840 0.723459
vt 0.466714 0.715004
vt 0.832520 0.720483
vt 0.200177 0.738589
vt 0.829423 0.735282
vt 0.076340 0.580490
vt 0.826046 0.701507
vt 0.074346 0.598181
vt 0.948795 0.287497
vt 0.823088 0.670800
vt 0.959731 0.307426
vt 0.948976 0.259488
vt 0.941524 0.331189
vt 0.875347 0.491894
vt 0.391834 0.432095
vt 0.377694 0.448634
vt 0.915590 0.478791
vt 0.834644 0.488373
vt 0.326937 0.619279
vt 0.938593 0.478810
vt 0.335216 0.632947
vt 0.358601 0.463790
vt 0.348787 0.648138
vt 0.927106 0.463378
vt 0.854274 0.489560
vt 0.315804 0.619182
vt 0.212520 0.321385
vt 0.644070 0.318501
vt 0.018976 0.592450
vt 0.663817 0.276029
vt 0.129819 0.597828
vt 0.224108 0.269832
vt 0.051049 0.586785
vt 0.728499 0.676310
vt 0.099637 0.591886
vt 0.730103 0.697776
vt 0.734390 0.646904
vt 0.920230 0.314550
vt 0.981025 0.324065
vt 0.732426 0.727384
vt 0.950683 0.319044
vt 0.753088 0.663662
vt 0.920230 0.273492
vt 0.977552 0.273492
vt 0.752543 0.710647
vt 0.709822 0.714522
vt 0.796001 0.686127
vt 0.853178 0.686127
vt 0.709822 0.659561
vt 0.824792 0.685890
vt 0.948939 0.273488
vt 0.731549 0.661651
vt 0.730449 0.712624
vt 0.878850 0.297575
vt 0.096711 0.342677
vt 0.285581 0.357771
vt 0.108549 0.696221
vt 0.804979 0.293594
vt 0.708839 0.350023
vt 0.668288 0.644023
vt 0.436089 0.526409
vt 0.145034 0.385321
vt 0.919159 0.607821
vt 0.247387 0.613831
vt 0.970304 0.416607
vt 0.947808 0.608020
vt 0.704660 0.516092
vt 0.970304 0.403829
vt 0.750017 0.516884
vt 0.618892 0.516092
vt 0.920230 0.404231
vt 0.273616 0.612878
vt 0.642836 0.516847
vt 0.938584 0.415207
vt 0.924281 0.443436
vt 0.075400 0.489812
vt 0.855524 0.444402
vt 0.531739 0.629156
vt 0.934913 0.435583
vt 0.576828 0.496673
vt 0.931440 0.443424
vt 0.848383 0.444289
vt 0.592622 0.497116
vt 0.934913 0.440184
vt 0.586164 0.496977
vt 0.517161 0.630156
vt 0.920230 0.438606
vt 0.085942 0.490043
vt 0.585376 0.420489
vt 0.510472 0.551446
vt 0.582586 0.444044
vt 0.504260 0.576063
vt 0.581388 0.469636
vt 0.508131 0.602400
vt 0.103684 0.463024
vt 0.477645 0.604263
vt 0.118194 0.440373
vt 0.454885 0.581958
vt 0.129418 0.415411
vt 0.438452 0.557360
vt 0.876897 0.417052
vt 0.081901 0.462161
vt 0.882279 0.393921
vt 0.081653 0.438865
vt 0.880271 0.363315
vt 0.079604 0.408162
vt 0.633117 0.418943
vt 0.615530 0.444447
vt 0.600997 0.469910
vt 0.614559 0.469949
vt 0.862035 0.416811
vt 0.638313 0.444473
vt 0.857648 0.390640
vt 0.666106 0.417503
vt 0.844696 0.362700
vt 0.167770 0.536691
vt 0.914144 0.688660
vt 0.182151 0.561697
vt 0.913298 0.663084
vt 0.189855 0.582503
vt 0.915415 0.641729
vt 0.680787 0.549268
vt 0.966165 0.641681
vt 0.684678 0.573659
vt 0.963812 0.665813
vt 0.684995 0.596421
vt 0.964308 0.688427
vt 0.584794 0.548886
vt 0.729850 0.550060
vt 0.578610 0.572959
vt 0.734888 0.574452
vt 0.569690 0.595426
vt 0.736445 0.597214
vt 0.642060 0.590920
vt 0.247172 0.543053
vt 0.641052 0.570535
vt 0.248998 0.562413
vt 0.635978 0.552556
vt 0.245738 0.579271
s 0
usemtl Material
f 89/203/1 7/19/1 13/32/1 90/205/1
f 8/22/2 7/19/2 89/203/2 58/151/2 54/142/2 53/136/2
f 6/18/3 56/148/3 57/150/3
f 3/8/4 106/231/4 4/9/4 59/153/4 88/202/4
f 6/17/5 107/233/5 5/14/5 60/154/5 1/1/5 105/229/5 2/4/5 56/149/5
f 61/156/6 13/33/6 16/38/6 62/157/6
f 5/16/7 14/35/7 31/77/7 29/72/7
f 88/202/8 1/3/8 10/26/8 91/207/8
f 67/164/9 21/53/9 20/50/9 65/161/9
f 13/32/10 7/19/10 12/30/10 16/39/10
f 3/8/11 9/25/11 11/28/11 15/36/11
f 55/147/12 3/6/12 15/37/12 63/158/12
f 66/162/13 19/48/13 17/40/13 65/160/13
f 23/57/14 22/55/14 17/41/14 19/49/14
f 83/191/15 82/190/15 25/63/15 26/67/15
f 15/36/16 11/28/16 22/55/16 23/57/16
f 62/157/17 16/38/17 21/53/17 67/164/17
f 69/169/18 26/66/18 25/64/18 68/166/18
f 87/200/19 84/193/19 24/60/19 68/165/19
f 86/197/20 83/191/20 26/67/20 69/167/20
f 84/194/21 85/196/21 27/68/21 24/61/21
f 70/170/22 29/73/22 31/78/22 71/172/22
f 70/170/23 28/71/23 34/85/23 73/174/23
f 10/26/24 1/3/24 28/70/24 30/74/24
f 64/159/25 10/27/25 30/75/25 71/171/25
f 34/84/26 32/80/26 36/88/26 38/92/26
f 60/155/27 5/15/27 33/83/27 72/173/27
f 5/16/28 29/72/28 35/86/28 33/82/28
f 28/70/29 1/3/29 32/80/29 34/84/29
f 37/90/30 39/94/30 43/105/30 41/99/30
f 73/174/31 34/85/31 38/93/31 75/176/31
f 33/82/32 35/86/32 39/94/32 37/90/32
f 72/173/33 33/83/33 37/91/33 74/175/33
f 76/178/34 41/100/34 43/106/34 77/180/34
f 74/175/35 37/91/35 41/101/35 76/177/35
f 38/92/36 36/88/36 40/96/36 42/102/36
f 75/176/37 38/93/37 42/103/37 77/179/37
f 102/226/38 97/218/38 51/129/38 81/187/38
f 91/206/39 10/27/39 45/111/39 93/210/39
f 90/204/40 13/33/40 46/114/40 92/208/40
f 61/156/41 9/24/41 44/108/41 78/181/41
f 64/159/42 14/34/42 47/117/42 79/183/42
f 96/216/43 94/213/43 50/126/43 80/186/43
f 101/225/44 99/222/44 48/120/44 80/185/44
f 104/228/45 98/220/45 49/123/45 95/215/45
f 103/227/46 100/224/46 50/127/46 94/212/46
f 8/23/47 53/137/47 52/132/47
f 8/23/48 52/132/48 4/10/48 106/232/48 3/7/48 55/146/48 7/20/48
f 54/142/49 58/151/49 89/203/49 5/16/49 107/234/49 6/18/49 57/150/49
f 100/223/50 101/225/50 80/185/50 50/128/50
f 95/214/51 96/216/51 80/186/51 48/121/51
f 10/27/52 64/159/52 79/183/52 45/111/52
f 13/33/53 61/156/53 78/181/53 46/114/53
f 98/219/54 102/226/54 81/187/54 49/124/54
f 39/95/55 75/176/55 77/179/55 43/107/55
f 36/89/56 74/175/56 76/177/56 40/97/56
f 40/98/57 76/178/57 77/180/57 42/104/57
f 32/81/58 72/173/58 74/175/58 36/89/58
f 35/87/59 73/174/59 75/176/59 39/95/59
f 1/2/60 60/155/60 72/173/60 32/81/60
f 14/34/61 64/159/61 71/171/61 31/79/61
f 29/73/62 70/170/62 73/174/62 35/87/62
f 28/71/63 70/170/63 71/172/63 30/76/63
f 85/196/64 86/198/64 69/168/64 27/68/64
f 82/189/65 87/200/65 68/165/65 25/65/65
f 27/69/66 69/169/66 68/166/66 24/62/66
f 11/29/67 62/157/67 67/164/67 22/56/67
f 18/43/68 66/162/68 65/160/68 20/51/68
f 7/21/69 55/147/69 63/158/69 12/31/69
f 22/56/70 67/164/70 65/161/70 17/42/70
f 9/24/71 61/156/71 62/157/71 11/29/71
f 19/48/72 66/162/72 87/200/72 82/189/72
f 12/30/73 18/44/73 20/52/73 21/54/73 16/39/73
f 66/163/74 18/47/74 84/194/74 87/201/74
f 23/57/75 19/49/75 82/190/75 83/191/75
f 49/125/76 81/188/76 96/216/76 95/214/76
f 97/217/77 103/227/77 94/212/77 51/130/77
f 99/221/78 104/228/78 95/215/78 48/122/78
f 81/188/79 51/131/79 94/213/79 96/216/79
f 14/34/80 90/204/80 92/208/80 47/117/80
f 9/24/81 91/206/81 93/210/81 44/108/81
f 3/8/82 88/202/82 91/207/82 9/25/82
f 5/16/83 89/203/83 90/205/83 14/35/83
f 44/109/84 93/211/84 104/228/84 99/221/84
f 47/118/85 92/209/85 103/227/85 97/217/85
f 45/112/86 79/184/86 102/226/86 98/219/86
f 46/115/87 78/182/87 101/225/87 100/223/87
f 92/209/88 46/116/88 100/224/88 103/227/88
f 93/211/89 45/113/89 98/220/89 104/228/89
f 78/182/90 44/110/90 99/222/90 101/225/90
f 79/184/91 47/119/91 97/218/91 102/226/91
f 59/152/92 4/11/92 52/133/92 53/138/92 54/141/92 108/235/92
f 136/298/93 110/241/93 109/238/93 135/296/93
f 121/271/94 120/269/94 114/253/94 117/261/94
f 139/304/95 111/244/95 110/242/95 136/297/95
f 135/295/96 109/239/96 112/247/96 144/314/96
f 144/313/97 112/248/97 111/245/97 139/303/97
f 111/246/98 112/249/98 109/240/98 110/243/98
f 117/262/99 114/254/99 116/259/99 115/256/99 113/250/99
f 124/277/100 121/270/100 117/263/100 113/251/100
f 120/268/101 129/284/101 116/260/101 114/255/101
f 130/286/102 124/276/102 113/252/102 115/257/102
f 129/284/103 130/285/103 115/258/103 116/260/103
f 57/150/104 56/148/104 132/289/104 127/282/104
f 127/282/105 132/289/105 131/287/105 128/283/105
f 128/283/106 131/287/106 130/285/106 129/284/106
f 56/149/107 2/4/107 126/280/107 132/290/107
f 132/290/108 126/280/108 125/278/108 131/288/108
f 131/288/109 125/278/109 124/276/109 130/286/109
f 54/142/110 57/150/110 127/282/110 118/264/110
f 118/264/111 127/282/111 128/283/111 119/266/111
f 119/266/112 128/283/112 129/284/112 120/268/112
f 2/5/113 108/237/113 123/274/113 126/281/113
f 126/281/114 123/274/114 122/272/114 125/279/114
f 125/279/115 122/272/115 121/270/115 124/277/115
f 108/236/116 54/143/116 118/265/116 123/275/116
f 123/275/117 118/265/117 119/267/117 122/273/117
f 122/273/118 119/267/118 120/269/118 121/271/118
f 54/144/119 142/309/119 141/307/119 53/139/119
f 142/309/120 143/311/120 140/305/120 141/307/120
f 143/311/121 144/313/121 139/303/121 140/305/121
f 4/12/122 133/291/122 142/310/122 54/145/122
f 133/291/123 134/293/123 143/312/123 142/310/123
f 134/293/124 135/295/124 144/314/124 143/312/124
f 53/140/125 141/308/125 138/301/125 52/134/125
f 141/308/126 140/306/126 137/299/126 138/301/126
f 140/306/127 139/304/127 136/297/127 137/299/127
f 52/135/128 138/302/128 133/292/128 4/13/128
f 138/302/129 137/300/129 134/294/129 133/292/129
f 137/300/130 136/298/130 135/296/130 134/294/130
f 105/230/131 1/3/131 88/202/131 59/153/131 108/237/131 2/5/131
f 86/199/132 85/195/132 83/192/132
f 83/192/133 85/195/133 18/45/133 23/58/133
f 63/158/134 15/37/134 23/59/134 18/46/134 12/31/134
f 84/194/135 18/47/135 85/196/135
l 52 106
