# Blender 3.3.1
# www.blender.org
mtllib monstruo_3_grande_caminar521.mtl
o monstruo_grande
v 0.495627 1.958219 0.294985
v 0.522472 1.143941 0.106630
v -0.641659 1.836040 0.162201
v -0.322796 1.159099 0.206612
v 0.709598 2.226695 -0.035896
v 0.578487 1.553665 -0.241963
v -0.725691 2.071681 -0.262348
v -0.660123 1.768983 -0.334982
v -0.204739 2.407657 0.474797
v 0.337950 2.251612 0.469662
v -0.345048 2.386370 0.567845
v -1.078977 2.154807 -0.135319
v -0.164981 2.583158 0.124783
v 0.367335 2.393162 0.207835
v -0.950529 2.005455 0.024960
v -0.318846 2.671992 0.144485
v -0.710702 2.336300 0.557482
v -1.387086 2.084991 0.105599
v -1.126030 2.107889 0.324245
v -0.845730 2.677993 0.297562
v -0.499470 2.728613 0.207956
v -0.426174 2.348708 0.537476
v -1.078278 2.036148 0.014837
v -1.770701 0.824367 0.743806
v -1.649672 0.800359 0.799895
v -1.624764 0.618930 0.604686
v -1.698637 0.633584 0.570451
v 0.483118 2.158127 0.468582
v 0.625265 2.341745 0.223306
v 0.452063 2.271115 0.474288
v 0.497899 2.402376 0.250593
v 0.742375 1.832627 0.326532
v 0.891419 1.925909 0.176319
v 0.756727 1.916691 0.379011
v 0.863508 2.026738 0.239442
v 0.940576 1.606292 0.314603
v 1.028965 1.646780 0.256395
v 1.007873 1.581735 0.392384
v 1.094222 1.631266 0.333539
v 0.967123 1.456606 0.351381
v 1.148174 1.557298 0.232366
v 1.043782 1.369435 0.510658
v 1.313984 1.520577 0.325117
v -0.036311 2.440179 0.506477
v 0.170950 2.397398 0.495816
v -0.017824 2.545376 0.261383
v 0.181278 2.498766 0.253493
v 0.019621 2.754272 0.643818
v 0.225120 2.685850 0.612190
v 0.015209 2.859454 0.386778
v 0.221147 2.790808 0.355459
v -0.506792 1.190741 -0.023773
v -0.372462 1.206706 -0.225470
v -0.037851 1.275825 -0.332876
v -0.686430 1.886658 -0.063908
v 0.543509 1.138702 -0.130588
v 0.325675 1.140981 -0.254486
v 0.038352 1.520871 -0.324240
v -0.033004 1.149141 0.205065
v 0.571058 2.037340 0.186144
v -0.184199 2.469036 0.352019
v -0.331288 2.640519 0.414739
v -0.875253 2.068391 -0.083053
v 0.336131 2.381496 0.368220
v -0.709302 2.565102 0.526072
v -1.294030 2.220025 0.359321
v -0.484746 2.641357 0.401118
v -1.723907 0.812392 0.801469
v -1.640084 0.507928 0.490277
v 0.585346 2.262420 0.380984
v 0.480146 2.381428 0.385848
v 0.784673 1.859154 0.204951
v 0.845500 1.984382 0.346245
v 0.983974 1.629773 0.285160
v 1.051034 1.605877 0.362747
v 1.043146 1.508153 0.271654
v 1.152043 1.448038 0.381271
v -0.028473 2.492362 0.383002
v 0.174046 2.448973 0.373696
v -0.014047 2.808544 0.516580
v 0.254308 2.736688 0.482587
v -1.508781 1.118775 0.745610
v -1.569418 0.945323 0.679147
v -1.718975 1.130316 0.651179
v -1.683335 0.967919 0.626355
v -1.627369 0.788051 0.582740
v -1.641078 1.107749 0.749161
v -0.010061 1.763744 0.509505
v 0.208926 2.124027 -0.194424
v 0.189005 2.506230 0.075207
v 0.084726 2.263015 0.625195
v 0.077546 2.521623 0.255981
v 0.072915 2.421068 0.500957
v 0.117703 2.840915 0.332463
v 0.123050 2.704296 0.666523
v 0.123686 2.823919 0.520445
v 0.215075 2.653537 0.280116
v 0.215606 2.534626 0.572859
v -0.020968 2.589511 0.598471
v -0.022602 2.710328 0.304021
v -0.039322 2.650616 0.451728
v 0.230169 2.593674 0.425341
v 0.095243 2.690165 0.271513
v 0.097967 2.553930 0.605409
v 0.518859 1.642336 -0.022902
v -0.565918 1.540878 0.190308
v 0.618876 1.759625 -0.228654
v 0.168275 1.151245 0.216224
v -0.255679 0.185602 -0.382567
v -0.405907 0.127467 -0.282578
v -0.419361 0.240939 -0.506458
v -0.283718 0.250338 -0.511355
v 0.304228 -0.002297 0.160107
v 0.231026 -0.019365 0.085449
v 0.313748 -0.008446 0.122126
v 0.282332 -0.015271 0.096408
v 0.245120 -0.003175 0.170411
v 0.072622 0.834876 -0.049320
v 0.133008 0.606325 0.039308
v 0.168868 0.307261 0.082083
v 0.198399 0.294525 0.261124
v 0.181382 0.545722 0.320053
v 0.190032 0.823577 0.340934
v 0.321087 0.292132 0.239065
v 0.388823 0.547636 0.284713
v 0.478195 0.873429 0.267151
v 0.327827 0.843472 -0.026761
v 0.311819 0.599318 0.072932
v 0.275248 0.302797 0.104471
v 0.340756 0.298080 0.159055
v 0.423176 0.593834 0.160757
v 0.499092 0.867695 0.077394
v -0.238978 0.871637 0.294290
v -0.234115 0.573110 0.139630
v -0.245567 0.358978 0.000854
v -0.526145 0.389323 -0.042689
v -0.512208 0.649449 0.071588
v -0.511497 0.898643 0.144807
v -0.516871 0.542959 -0.266953
v -0.501325 0.788049 -0.149845
v -0.494567 0.934672 -0.121942
v -0.103482 0.863127 -0.110696
v -0.158094 0.741946 -0.159048
v -0.220913 0.558413 -0.245785
vn 0.0227 0.5831 -0.8121
vn 0.0064 0.0858 -0.9963
vn 0.4746 -0.2653 -0.8393
vn -0.3324 -0.2410 0.9118
vn 0.9470 -0.1781 0.2675
vn 0.6717 0.6984 0.2471
vn 0.2022 0.8944 -0.3990
vn 0.4738 -0.2695 0.8384
vn -0.0347 0.8980 0.4387
vn -0.0394 0.5787 -0.8146
vn -0.2432 -0.4872 0.8388
vn -0.4763 -0.8183 -0.3216
vn -0.2906 -0.1522 0.9447
vn 0.2010 -0.9085 0.3664
vn 0.9200 -0.2883 0.2654
vn -0.0939 -0.7801 0.6185
vn 0.1994 0.9495 0.2423
vn -0.0594 -0.7266 0.6845
vn -0.7068 0.3113 0.6353
vn 0.9535 -0.0243 -0.3005
vn -0.8324 0.0555 -0.5513
vn 0.6006 0.7128 0.3622
vn 0.3948 0.1906 0.8988
vn -0.3188 -0.5043 0.8025
vn -0.1136 0.6238 0.7733
vn -0.6178 -0.4930 0.6125
vn -0.2211 -0.5657 -0.7944
vn 0.8363 0.5435 -0.0728
vn -0.3312 -0.5864 0.7392
vn 0.4489 0.8183 -0.3589
vn 0.2862 0.2222 0.9321
vn 0.8341 0.3440 -0.4313
vn -0.1369 -0.3791 -0.9152
vn 0.1524 -0.7949 -0.5872
vn -0.3579 -0.1383 -0.9235
vn -0.8315 0.0912 0.5480
vn 0.4796 0.4548 0.7505
vn 0.9830 -0.0197 -0.1824
vn 0.4030 0.4873 0.7747
vn 0.2235 0.9737 0.0436
vn -0.2286 0.8938 0.3858
vn 0.4602 0.8520 0.2497
vn 0.0575 0.9754 0.2126
vn -0.9654 0.1175 0.2328
vn 0.2969 -0.3322 0.8952
vn -0.2547 0.4591 -0.8511
vn -0.7181 -0.4677 -0.5153
vn -0.9458 -0.2846 0.1563
vn 0.1547 0.1310 -0.9792
vn -0.9703 0.2321 -0.0682
vn 0.0629 0.8455 0.5303
vn 0.4905 0.6752 0.5509
vn -0.1852 0.8923 0.4117
vn 0.9846 -0.1448 0.0980
vn 0.2334 0.3134 0.9205
vn -0.5652 -0.2461 -0.7874
vn 0.0410 -0.8641 -0.5016
vn -0.5948 -0.5991 -0.5359
vn 0.6941 0.4692 0.5460
vn -0.4188 -0.7252 -0.5465
vn -0.0552 0.9934 0.1005
vn 0.7016 0.5765 0.4189
vn 0.5609 0.2942 0.7738
vn -0.3527 0.2348 -0.9058
vn 0.0253 0.1621 0.9865
vn -0.7004 -0.5995 0.3874
vn -0.2318 0.4402 0.8675
vn -0.6655 0.6899 0.2850
vn -0.4653 -0.7883 -0.4026
vn 0.2075 0.3202 0.9244
vn 0.5992 0.4891 0.6339
vn 0.2162 0.2854 0.9337
vn -0.3521 0.6679 -0.6557
vn -0.8638 0.4138 0.2875
vn 0.9371 -0.3062 0.1676
vn 0.5140 0.7036 0.4907
vn 0.2754 0.3888 -0.8792
vn -0.2281 -0.2686 0.9358
vn 0.5079 0.8517 0.1291
vn 0.4124 0.9093 0.0559
vn -0.1051 0.5030 0.8579
vn -0.4914 -0.1019 0.8650
vn 0.2716 0.7470 -0.6068
vn -0.1376 -0.5526 0.8220
vn 0.0590 0.1198 -0.9910
vn 0.9487 -0.3095 -0.0649
vn -0.9943 -0.0116 -0.1059
vn -0.1372 0.1754 -0.9749
vn 0.0321 -0.5632 0.8257
vn -0.9993 -0.0047 0.0369
vn 0.9583 -0.2530 -0.1329
vn 0.0388 -0.9827 -0.1809
vn 0.1281 -0.8024 0.5829
vn -0.9679 -0.1915 0.1625
vn -0.9579 -0.2505 -0.1404
vn 0.9957 -0.0712 -0.0591
vn -0.0077 0.6374 -0.7705
vn 0.0434 -0.8896 -0.4546
vn 0.0470 -0.9823 0.1814
vn 0.1669 -0.2638 0.9500
vn 0.2069 0.0293 -0.9779
vn 0.9641 -0.1164 0.2387
vn 0.6371 0.0351 -0.7699
vn 0.4402 -0.5666 -0.6966
vn 0.5397 -0.3640 -0.7591
vn 0.6132 -0.1621 -0.7731
vn 0.9905 -0.0944 0.0997
vn 0.9605 -0.2415 0.1380
vn 0.9450 -0.2729 0.1805
vn 0.0186 -0.5672 -0.8234
vn 0.1212 -0.3575 -0.9260
vn 0.1866 -0.1219 -0.9749
vn 0.2247 0.4125 0.8828
vn 0.2189 -0.0409 0.9749
vn 0.1670 -0.2153 0.9622
vn -0.9449 0.0112 0.3271
vn -0.9702 -0.0680 0.2324
vn -0.9836 -0.0989 0.1509
vn -0.1218 -0.3989 -0.9089
vn 0.0450 0.2640 -0.9635
vn 0.0373 0.4236 -0.9051
vn 0.8846 0.2078 0.4176
vn 0.9461 -0.2249 0.2331
vn 0.9777 -0.2060 0.0413
vn -0.9516 0.0694 -0.2995
vn -0.9985 0.0306 -0.0459
vn -0.9981 0.0607 -0.0053
vn -0.5992 0.2539 0.7593
vn -0.4004 -0.3546 0.8450
vn -0.2563 -0.4443 0.8584
vn 0.5058 -0.2485 0.8261
vn 0.4501 0.3402 -0.8256
vn -0.1520 -0.4248 -0.8924
vn -0.2313 -0.7685 -0.5966
vn -0.7850 -0.0783 -0.6146
vt 0.882279 0.260085
vt 0.436089 0.649131
vt 0.117664 0.305524
vt 0.860974 0.338762
vt 0.079561 0.383885
vt 0.278417 0.728674
vt 0.111517 0.716819
vt 0.301243 0.337859
vt 0.232943 0.387386
vt 0.111517 0.662267
vt 0.671871 0.687525
vt 0.175114 0.511099
vt 0.930991 0.712692
vt 0.796001 0.259488
vt 0.522181 0.649131
vt 0.719621 0.316178
vt 0.801110 0.310020
vt 0.698705 0.366293
vt 0.510656 0.337024
vt 0.023033 0.717149
vt 0.367094 0.730187
vt 0.507246 0.358198
vt 0.018976 0.695717
vt 0.103380 0.570561
vt 0.268725 0.266033
vt 0.143950 0.273348
vt 0.098384 0.631539
vt 0.301351 0.259488
vt 0.128079 0.559933
vt 0.480438 0.333338
vt 0.348619 0.714075
vt 0.604958 0.268707
vt 0.031105 0.562973
vt 0.043818 0.625810
vt 0.721993 0.282954
vt 0.329365 0.336360
vt 0.302724 0.713315
vt 0.030374 0.549675
vt 0.582817 0.260846
vt 0.875347 0.642471
vt 0.380514 0.272320
vt 0.124895 0.517524
vt 0.813390 0.578569
vt 0.436089 0.332372
vt 0.956124 0.588845
vt 0.367094 0.692599
vt 0.367094 0.522797
vt 0.871643 0.594841
vt 0.398138 0.324445
vt 0.043891 0.509019
vt 0.796001 0.641153
vt 0.491075 0.268473
vt 0.032114 0.534706
vt 0.552485 0.259488
vt 0.331566 0.259909
vt 0.129819 0.544964
vt 0.339759 0.337186
vt 0.913298 0.588845
vt 0.317584 0.707220
vt 0.845734 0.463378
vt 0.311567 0.646434
vt 0.944558 0.353645
vt 0.398138 0.462439
vt 0.920230 0.354337
vt 0.870057 0.463781
vt 0.929709 0.374247
vt 0.357807 0.478584
vt 0.347994 0.663056
vt 0.944558 0.373825
vt 0.097076 0.285727
vt 0.229765 0.651022
vt 0.758050 0.297859
vt 0.168317 0.651042
vt 0.119329 0.272208
vt 0.094178 0.643292
vt 0.222768 0.636959
vt 0.746872 0.283208
vt 0.174541 0.636975
vt 0.045175 0.638147
vt 0.080672 0.327471
vt 0.442544 0.673801
vt 0.734592 0.339187
vt 0.484453 0.673801
vt 0.070725 0.319456
vt 0.218298 0.685110
vt 0.751374 0.331694
vt 0.180611 0.684911
vt 0.062412 0.356092
vt 0.455575 0.702696
vt 0.724658 0.367821
vt 0.476314 0.702696
vt 0.043357 0.357400
vt 0.210236 0.723455
vt 0.742364 0.370210
vt 0.189444 0.723462
vt 0.050281 0.367705
vt 0.444942 0.715336
vt 0.810526 0.722486
vt 0.728448 0.380153
vt 0.853695 0.722486
vt 0.487920 0.715336
vt 0.018975 0.371756
vt 0.232852 0.738567
vt 0.796001 0.739289
vt 0.758050 0.386241
vt 0.861207 0.739289
vt 0.167770 0.738589
vt 0.100634 0.583041
vt 0.712300 0.698974
vt 0.802197 0.701507
vt 0.098640 0.600731
vt 0.972705 0.287497
vt 0.747907 0.696578
vt 0.052045 0.577939
vt 0.849895 0.701507
vt 0.710445 0.675017
vt 0.050052 0.595630
vt 0.746553 0.677603
vt 0.924885 0.287497
vt 0.797725 0.671259
vt 0.981025 0.313792
vt 0.715147 0.730011
vt 0.752543 0.724602
vt 0.973919 0.259495
vt 0.967002 0.332143
vt 0.934252 0.306472
vt 0.715328 0.644023
vt 0.847669 0.671259
vt 0.923848 0.259495
vt 0.753088 0.649631
vt 0.920230 0.324823
vt 0.068284 0.665533
vt 0.630362 0.705721
vt 0.712055 0.621316
vt 0.966165 0.712391
vt 0.519769 0.388732
vt 0.031375 0.663704
vt 0.592215 0.695479
vt 0.581836 0.620019
vt 0.750017 0.621843
vt 0.569690 0.667298
vt 0.581066 0.387596
vt 0.531739 0.516092
vt 0.642835 0.625048
vt 0.273616 0.509019
vt 0.070982 0.710642
vt 0.316851 0.732164
vt 0.684917 0.393810
vt 0.816625 0.338063
vt 0.644803 0.392946
vt 0.602800 0.367236
vt 0.671871 0.661666
vt 0.181146 0.386242
vt 0.855113 0.259897
vt 0.463196 0.649131
vt 0.077903 0.567886
vt 0.078993 0.554271
vt 0.322237 0.720993
vt 0.070972 0.628379
vt 0.834014 0.651825
vt 0.084160 0.512738
vt 0.838315 0.596273
vt 0.320679 0.509019
vt 0.080733 0.539302
vt 0.857365 0.464048
vt 0.931678 0.351118
vt 0.335174 0.488977
vt 0.367094 0.673623
vt 0.939667 0.384854
vt 0.199177 0.651021
vt 0.069465 0.641494
vt 0.198664 0.632807
vt 0.464209 0.672968
vt 0.199604 0.684998
vt 0.465945 0.702696
vt 0.199840 0.723459
vt 0.466714 0.715004
vt 0.832520 0.720483
vt 0.200177 0.738589
vt 0.829423 0.735282
vt 0.076340 0.580490
vt 0.826046 0.701507
vt 0.074346 0.598181
vt 0.948795 0.287497
vt 0.823088 0.670800
vt 0.959731 0.307426
vt 0.948976 0.259488
vt 0.941524 0.331189
vt 0.875347 0.491894
vt 0.391834 0.432095
vt 0.377694 0.448634
vt 0.915590 0.478791
vt 0.834644 0.488373
vt 0.326937 0.619279
vt 0.938593 0.478810
vt 0.335216 0.632947
vt 0.358601 0.463790
vt 0.348787 0.648138
vt 0.927106 0.463378
vt 0.854274 0.489560
vt 0.315804 0.619182
vt 0.212520 0.321385
vt 0.644070 0.318501
vt 0.018976 0.592450
vt 0.663817 0.276029
vt 0.129819 0.597828
vt 0.224108 0.269832
vt 0.051049 0.586785
vt 0.728499 0.676310
vt 0.099637 0.591886
vt 0.730103 0.697776
vt 0.734390 0.646904
vt 0.920230 0.314550
vt 0.981025 0.324065
vt 0.732426 0.727384
vt 0.950683 0.319044
vt 0.753088 0.663662
vt 0.920230 0.273492
vt 0.977552 0.273492
vt 0.752543 0.710647
vt 0.709822 0.714522
vt 0.796001 0.686127
vt 0.853178 0.686127
vt 0.709822 0.659561
vt 0.824792 0.685890
vt 0.948939 0.273488
vt 0.731549 0.661651
vt 0.730449 0.712624
vt 0.878850 0.297575
vt 0.096711 0.342677
vt 0.285581 0.357771
vt 0.108549 0.696221
vt 0.804979 0.293594
vt 0.708839 0.350023
vt 0.668288 0.644023
vt 0.436089 0.526409
vt 0.145034 0.385321
vt 0.919159 0.607821
vt 0.247387 0.613831
vt 0.970304 0.416607
vt 0.947808 0.608020
vt 0.704660 0.516092
vt 0.970304 0.403829
vt 0.750017 0.516884
vt 0.618892 0.516092
vt 0.920230 0.404231
vt 0.273616 0.612878
vt 0.642836 0.516847
vt 0.938584 0.415207
vt 0.924281 0.443436
vt 0.075400 0.489812
vt 0.855524 0.444402
vt 0.531739 0.629156
vt 0.934913 0.435583
vt 0.576828 0.496673
vt 0.931440 0.443424
vt 0.848383 0.444289
vt 0.592622 0.497116
vt 0.934913 0.440184
vt 0.586164 0.496977
vt 0.517161 0.630156
vt 0.920230 0.438606
vt 0.085942 0.490043
vt 0.585376 0.420489
vt 0.510472 0.551446
vt 0.582586 0.444044
vt 0.504260 0.576063
vt 0.581388 0.469636
vt 0.508131 0.602400
vt 0.103684 0.463024
vt 0.477645 0.604263
vt 0.118194 0.440373
vt 0.454885 0.581958
vt 0.129418 0.415411
vt 0.438452 0.557360
vt 0.876897 0.417052
vt 0.081901 0.462161
vt 0.882279 0.393921
vt 0.081653 0.438865
vt 0.880271 0.363315
vt 0.079604 0.408162
vt 0.633117 0.418943
vt 0.615530 0.444447
vt 0.600997 0.469910
vt 0.614559 0.469949
vt 0.862035 0.416811
vt 0.638313 0.444473
vt 0.857648 0.390640
vt 0.666106 0.417503
vt 0.844696 0.362700
vt 0.167770 0.536691
vt 0.914144 0.688660
vt 0.182151 0.561697
vt 0.913298 0.663084
vt 0.189855 0.582503
vt 0.915415 0.641729
vt 0.680787 0.549268
vt 0.966165 0.641681
vt 0.684678 0.573659
vt 0.963812 0.665813
vt 0.684995 0.596421
vt 0.964308 0.688427
vt 0.584794 0.548886
vt 0.729850 0.550060
vt 0.578610 0.572959
vt 0.734888 0.574452
vt 0.569690 0.595426
vt 0.736445 0.597214
vt 0.642060 0.590920
vt 0.247172 0.543053
vt 0.641052 0.570535
vt 0.248998 0.562413
vt 0.635978 0.552556
vt 0.245738 0.579271
s 0
usemtl Material
f 89/203/1 7/19/1 13/32/1 90/205/1
f 8/22/2 7/19/2 89/203/2 58/151/2 54/142/2 53/136/2
f 6/18/3 56/148/3 57/150/3
f 3/8/4 106/231/4 4/9/4 59/153/4 88/202/4
f 6/17/5 107/233/5 5/14/5 60/154/5 1/1/5 105/229/5 2/4/5 56/149/5
f 61/156/6 13/33/6 16/38/6 62/157/6
f 5/16/7 14/35/7 31/77/7 29/72/7
f 88/202/8 1/3/8 10/26/8 91/207/8
f 67/164/9 21/53/9 20/50/9 65/161/9
f 13/32/10 7/19/10 12/30/10 16/39/10
f 3/8/11 9/25/11 11/28/11 15/36/11
f 55/147/12 3/6/12 15/37/12 63/158/12
f 66/162/13 19/48/13 17/40/13 65/160/13
f 23/57/14 22/55/14 17/41/14 19/49/14
f 83/191/15 82/190/15 25/63/15 26/67/15
f 15/36/16 11/28/16 22/55/16 23/57/16
f 62/157/17 16/38/17 21/53/17 67/164/17
f 69/169/18 26/66/18 25/64/18 68/166/18
f 87/200/19 84/193/19 24/60/19 68/165/19
f 86/197/20 83/191/20 26/67/20 69/167/20
f 84/194/21 85/196/21 27/68/21 24/61/21
f 70/170/22 29/73/22 31/78/22 71/172/22
f 70/170/23 28/71/23 34/85/23 73/174/23
f 10/26/24 1/3/24 28/70/24 30/74/24
f 64/159/25 10/27/25 30/75/25 71/171/25
f 34/84/26 32/80/26 36/88/26 38/92/26
f 60/155/27 5/15/27 33/83/27 72/173/27
f 5/16/28 29/72/28 35/86/28 33/82/28
f 28/70/29 1/3/29 32/80/29 34/84/29
f 37/90/30 39/94/30 43/105/30 41/99/30
f 73/174/31 34/85/31 38/93/31 75/176/31
f 33/82/32 35/86/32 39/94/32 37/90/32
f 72/173/33 33/83/33 37/91/33 74/175/33
f 76/178/34 41/100/34 43/106/34 77/180/34
f 74/175/35 37/91/35 41/101/35 76/177/35
f 38/92/36 36/88/36 40/96/36 42/102/36
f 75/176/37 38/93/37 42/103/37 77/179/37
f 102/226/38 97/218/38 51/129/38 81/187/38
f 91/206/39 10/27/39 45/111/39 93/210/39
f 90/204/40 13/33/40 46/114/40 92/208/40
f 61/156/41 9/24/41 44/108/41 78/181/41
f 64/159/42 14/34/42 47/117/42 79/183/42
f 96/216/43 94/213/43 50/126/43 80/186/43
f 101/225/44 99/222/44 48/120/44 80/185/44
f 104/228/45 98/220/45 49/123/45 95/215/45
f 103/227/46 100/224/46 50/127/46 94/212/46
f 8/23/47 53/137/47 52/132/47
f 8/23/48 52/132/48 4/10/48 106/232/48 3/7/48 55/146/48 7/20/48
f 54/142/49 58/151/49 89/203/49 5/16/49 107/234/49 6/18/49 57/150/49
f 100/223/50 101/225/50 80/185/50 50/128/50
f 95/214/51 96/216/51 80/186/51 48/121/51
f 10/27/52 64/159/52 79/183/52 45/111/52
f 13/33/53 61/156/53 78/181/53 46/114/53
f 98/219/54 102/226/54 81/187/54 49/124/54
f 39/95/55 75/176/55 77/179/55 43/107/55
f 36/89/56 74/175/56 76/177/56 40/97/56
f 40/98/57 76/178/57 77/180/57 42/104/57
f 32/81/58 72/173/58 74/175/58 36/89/58
f 35/87/59 73/174/59 75/176/59 39/95/59
f 1/2/60 60/155/60 72/173/60 32/81/60
f 14/34/61 64/159/61 71/171/61 31/79/61
f 29/73/62 70/170/62 73/174/62 35/87/62
f 28/71/63 70/170/63 71/172/63 30/76/63
f 85/196/64 86/198/64 69/168/64 27/68/64
f 82/189/65 87/200/65 68/165/65 25/65/65
f 27/69/66 69/169/66 68/166/66 24/62/66
f 11/29/67 62/157/67 67/164/67 22/56/67
f 18/43/68 66/162/68 65/160/68 20/51/68
f 7/21/69 55/147/69 63/158/69 12/31/69
f 22/56/70 67/164/70 65/161/70 17/42/70
f 9/24/71 61/156/71 62/157/71 11/29/71
f 19/48/72 66/162/72 87/200/72 82/189/72
f 12/30/73 18/44/73 20/52/73 21/54/73 16/39/73
f 66/163/74 18/47/74 84/194/74 87/201/74
f 23/57/75 19/49/75 82/190/75 83/191/75
f 49/125/76 81/188/76 96/216/76 95/214/76
f 97/217/77 103/227/77 94/212/77 51/130/77
f 99/221/78 104/228/78 95/215/78 48/122/78
f 81/188/79 51/131/79 94/213/79 96/216/79
f 14/34/80 90/204/80 92/208/80 47/117/80
f 9/24/81 91/206/81 93/210/81 44/108/81
f 3/8/82 88/202/82 91/207/82 9/25/82
f 5/16/83 89/203/83 90/205/83 14/35/83
f 44/109/84 93/211/84 104/228/84 99/221/84
f 47/118/85 92/209/85 103/227/85 97/217/85
f 45/112/86 79/184/86 102/226/86 98/219/86
f 46/115/87 78/182/87 101/225/87 100/223/87
f 92/209/88 46/116/88 100/224/88 103/227/88
f 93/211/89 45/113/89 98/220/89 104/228/89
f 78/182/90 44/110/90 99/222/90 101/225/90
f 79/184/91 47/119/91 97/218/91 102/226/91
f 59/152/92 4/11/92 52/133/92 53/138/92 54/141/92 108/235/92
f 136/298/93 110/241/93 109/238/93 135/296/93
f 121/271/94 120/269/94 114/253/94 117/261/94
f 139/304/95 111/244/95 110/242/95 136/297/95
f 135/295/96 109/239/96 112/247/96 144/314/96
f 144/313/97 112/248/97 111/245/97 139/303/97
f 111/246/98 112/249/98 109/240/98 110/243/98
f 117/262/99 114/254/99 116/259/99 115/256/99 113/250/99
f 124/277/100 121/270/100 117/263/100 113/251/100
f 120/268/101 129/284/101 116/260/101 114/255/101
f 130/286/102 124/276/102 113/252/102 115/257/102
f 129/284/103 130/285/103 115/258/103 116/260/103
f 57/150/104 56/148/104 132/289/104 127/282/104
f 127/282/105 132/289/105 131/287/105 128/283/105
f 128/283/106 131/287/106 130/285/106 129/284/106
f 56/149/107 2/4/107 126/280/107 132/290/107
f 132/290/108 126/280/108 125/278/108 131/288/108
f 131/288/109 125/278/109 124/276/109 130/286/109
f 54/142/110 57/150/110 127/282/110 118/264/110
f 118/264/111 127/282/111 128/283/111 119/266/111
f 119/266/112 128/283/112 129/284/112 120/268/112
f 2/5/113 108/237/113 123/274/113 126/281/113
f 126/281/114 123/274/114 122/272/114 125/279/114
f 125/279/115 122/272/115 121/270/115 124/277/115
f 108/236/116 54/143/116 118/265/116 123/275/116
f 123/275/117 118/265/117 119/267/117 122/273/117
f 122/273/118 119/267/118 120/269/118 121/271/118
f 54/144/119 142/309/119 141/307/119 53/139/119
f 142/309/120 143/311/120 140/305/120 141/307/120
f 143/311/121 144/313/121 139/303/121 140/305/121
f 4/12/122 133/291/122 142/310/122 54/145/122
f 133/291/123 134/293/123 143/312/123 142/310/123
f 134/293/124 135/295/124 144/314/124 143/312/124
f 53/140/125 141/308/125 138/301/125 52/134/125
f 141/308/126 140/306/126 137/299/126 138/301/126
f 140/306/127 139/304/127 136/297/127 137/299/127
f 52/135/128 138/302/128 133/292/128 4/13/128
f 138/302/129 137/300/129 134/294/129 133/292/129
f 137/300/130 136/298/130 135/296/130 134/294/130
f 105/230/131 1/3/131 88/202/131 59/153/131 108/237/131 2/5/131
f 86/199/132 85/195/132 83/192/132
f 83/192/133 85/195/133 18/45/133 23/58/133
f 63/158/134 15/37/134 23/59/134 18/46/134 12/31/134
f 84/194/135 18/47/135 85/196/135
l 52 106
