# Blender 3.3.1
# www.blender.org
mtllib monstruo_3_caminar548.mtl
o monstruo_grande
v 0.589818 1.916446 0.424827
v 0.524376 1.093614 0.080150
v -0.566986 1.875051 0.148784
v -0.293516 1.221889 0.223599
v 0.909506 2.152323 0.162933
v 0.650739 1.520971 -0.219534
v -0.609670 2.089668 -0.292668
v -0.600583 1.771621 -0.343078
v -0.126069 2.408332 0.469991
v 0.397908 2.231318 0.531910
v -0.275290 2.396602 0.552204
v -0.941123 2.187313 -0.216352
v -0.049713 2.574340 0.122673
v 0.476047 2.349300 0.264615
v -0.834753 2.040015 -0.035357
v -0.198755 2.671945 0.128024
v -0.644862 2.362017 0.502716
v -1.275679 2.130583 -0.022856
v -1.040872 2.144855 0.225554
v -0.735148 2.703964 0.224129
v -0.380795 2.738364 0.173116
v -0.357682 2.362451 0.515046
v -0.959775 2.070259 -0.069198
v -1.771424 0.877274 0.539903
v -1.658165 0.848577 0.608599
v -1.608386 0.682195 0.404926
v -1.677516 0.699712 0.362996
v 0.509421 2.134759 0.552437
v 0.728913 2.297427 0.360003
v 0.502123 2.247050 0.549535
v 0.598028 2.356934 0.334831
v 0.781527 1.853631 0.580671
v 0.993018 1.862676 0.522548
v 0.791932 1.914003 0.607320
v 0.948106 1.999601 0.516617
v 0.860126 1.723966 0.844588
v 0.972884 1.700302 0.818186
v 0.896844 1.779610 0.927411
v 1.004632 1.755380 0.896300
v 0.825908 1.680061 0.991107
v 1.051178 1.631147 0.928752
v 0.832762 1.773531 1.164488
v 1.171086 1.694185 1.066922
v 0.041084 2.431498 0.515541
v 0.245385 2.382867 0.519089
v 0.079955 2.531442 0.270583
v 0.278779 2.474738 0.275806
v 0.097190 2.740644 0.658277
v 0.302390 2.667232 0.637900
v 0.109969 2.846950 0.401798
v 0.315782 2.773091 0.381273
v -0.499089 1.219791 0.024901
v -0.390915 1.196764 -0.190402
v -0.035274 1.281163 -0.332284
v -0.602029 1.920137 -0.082218
v 0.538698 1.142848 -0.156259
v 0.320923 1.170546 -0.273681
v 0.074485 1.518832 -0.315664
v -0.031441 1.129199 0.198933
v 0.706381 1.979216 0.346653
v -0.092407 2.466021 0.348443
v -0.234772 2.646322 0.396184
v -0.757899 2.100597 -0.128413
v 0.420704 2.352368 0.421798
v -0.630301 2.590025 0.468057
v -1.206827 2.264564 0.239246
v -0.386892 2.654788 0.369434
v -1.732080 0.860795 0.601859
v -1.608876 0.580161 0.281498
v 0.632099 2.235144 0.499732
v 0.555443 2.348601 0.464053
v 0.872144 1.814711 0.521676
v 0.885088 1.974186 0.612420
v 0.914552 1.711298 0.829355
v 0.950886 1.766936 0.911827
v 0.930014 1.638662 0.943767
v 0.986148 1.703590 1.085617
v 0.058646 2.481259 0.391717
v 0.259548 2.430124 0.396140
v 0.072113 2.796265 0.529646
v 0.340167 2.717869 0.510235
v -1.513167 1.169526 0.596234
v -1.564265 1.001826 0.509946
v -1.710193 1.189891 0.477897
v -1.670869 1.028837 0.445287
v -1.609064 0.852497 0.395575
v -1.644830 1.158864 0.582525
v 0.029600 1.746493 0.516236
v 0.339719 2.081699 -0.166759
v 0.300285 2.476067 0.098965
v 0.127418 2.264799 0.643428
v 0.173176 2.503581 0.271252
v 0.149504 2.407727 0.516410
v 0.215056 2.825912 0.352794
v 0.197903 2.688003 0.686497
v 0.209747 2.808172 0.541349
v 0.311333 2.635008 0.304449
v 0.291417 2.516930 0.596979
v 0.055221 2.577502 0.609515
v 0.074180 2.698694 0.315026
v 0.046856 2.639472 0.461938
v 0.315934 2.575581 0.450518
v 0.192914 2.675178 0.289090
v 0.172611 2.538710 0.623150
v 0.647183 1.570246 0.095653
v -0.533399 1.587483 0.181574
v 0.750034 1.711351 -0.154924
v 0.165442 1.076279 0.199114
v -0.284989 0.076118 0.064637
v -0.419944 0.089081 0.197049
v -0.463425 0.090445 -0.050648
v -0.330102 0.078799 -0.075161
v 0.313932 -0.070802 -0.036577
v 0.240602 -0.083507 -0.112031
v 0.323351 -0.074861 -0.074835
v 0.291880 -0.080201 -0.100832
v 0.254868 -0.072171 -0.026291
v 0.069976 0.821415 -0.146062
v 0.141424 0.550508 -0.100187
v 0.179198 0.247045 -0.089791
v 0.205827 0.212582 0.086857
v 0.185919 0.454519 0.175918
v 0.192111 0.727734 0.230958
v 0.328882 0.213592 0.066832
v 0.394054 0.461319 0.143111
v 0.479634 0.793646 0.167754
v 0.325728 0.833917 -0.126082
v 0.319748 0.540180 -0.064877
v 0.285230 0.240491 -0.066214
v 0.349846 0.229449 -0.011481
v 0.429847 0.523768 0.023160
v 0.498136 0.833757 -0.020010
v -0.187311 0.966147 0.364359
v -0.192491 0.661607 0.333684
v -0.210764 0.416153 0.315977
v -0.495422 0.430423 0.303438
v -0.480486 0.707919 0.278128
v -0.478611 0.965118 0.249037
v -0.524488 0.461725 0.034888
v -0.507250 0.735168 0.011312
v -0.500332 0.940864 -0.025848
v -0.110713 0.863082 -0.056284
v -0.167169 0.681426 -0.027752
v -0.229652 0.478167 0.004257
vn 0.1106 0.5670 -0.8163
vn 0.0306 0.0572 -0.9979
vn 0.4298 -0.2715 -0.8612
vn -0.3809 -0.2087 0.9008
vn 0.8955 -0.3853 0.2228
vn 0.6876 0.6656 0.2901
vn 0.3299 0.8490 -0.4128
vn 0.2667 -0.2328 0.9352
vn -0.0460 0.9075 0.4175
vn 0.0801 0.5460 -0.8340
vn -0.3615 -0.4355 0.8244
vn -0.4840 -0.8117 -0.3271
vn -0.4041 -0.1212 0.9067
vn 0.1214 -0.9097 0.3972
vn 0.8814 -0.3116 0.3550
vn -0.1968 -0.7620 0.6170
vn 0.2248 0.9438 0.2423
vn -0.1402 -0.7757 0.6154
vn -0.7805 0.2652 0.5662
vn 0.9835 -0.0060 -0.1809
vn -0.7580 0.1005 -0.6445
vn 0.4902 0.7465 0.4500
vn -0.0199 0.3087 0.9510
vn -0.5018 -0.4186 0.7569
vn -0.2092 0.6849 0.6980
vn -0.9417 0.0724 0.3286
vn 0.1172 -0.7293 -0.6741
vn 0.8192 0.5536 0.1496
vn -0.5835 -0.5005 0.6395
vn 0.7770 0.1302 -0.6159
vn -0.2292 0.8243 0.5177
vn 0.9973 0.0722 -0.0103
vn 0.1627 -0.9007 -0.4028
vn -0.0042 -0.9085 0.4178
vn -0.1588 -0.8638 -0.4782
vn -0.8482 0.5076 -0.1512
vn 0.4335 0.8831 0.1796
vn 0.9916 -0.0420 -0.1220
vn 0.3183 0.5180 0.7939
vn 0.2756 0.9603 0.0439
vn -0.2091 0.9111 0.3553
vn 0.4694 0.8460 0.2528
vn 0.0704 0.9730 0.2200
vn -0.9741 0.1400 0.1776
vn 0.2383 -0.3448 0.9079
vn -0.1944 0.4708 -0.8606
vn -0.8340 -0.4040 -0.3758
vn -0.9671 -0.1634 0.1952
vn 0.2447 0.2067 -0.9473
vn -0.9587 0.2553 -0.1253
vn 0.0537 0.8414 0.5377
vn 0.4377 0.6946 0.5710
vn -0.1715 0.9077 0.3831
vn 0.9734 -0.1699 0.1535
vn 0.1229 0.9541 0.2730
vn -0.4321 -0.8115 -0.3935
vn -0.1477 -0.8716 0.4675
vn -0.4384 -0.8609 -0.2582
vn 0.3547 0.8068 0.4725
vn -0.1762 -0.8898 -0.4209
vn -0.0201 0.9997 0.0115
vn 0.4711 0.6729 0.5703
vn 0.3656 0.2873 0.8854
vn -0.2389 0.3037 -0.9223
vn -0.0979 0.0875 0.9913
vn -0.7401 -0.6237 0.2515
vn -0.2796 0.4713 0.8365
vn -0.6645 0.7202 0.1996
vn -0.4765 -0.7941 -0.3772
vn 0.1122 0.3281 0.9379
vn 0.5715 0.4697 0.6729
vn 0.1033 0.2821 0.9538
vn -0.2452 0.6670 -0.7036
vn -0.8716 0.4510 0.1924
vn 0.8961 -0.3391 0.2862
vn 0.5029 0.6885 0.5225
vn 0.3360 0.3869 -0.8587
vn -0.2886 -0.2677 0.9193
vn 0.5209 0.8382 0.1613
vn 0.4541 0.8888 0.0619
vn -0.1367 0.5574 0.8189
vn -0.5517 -0.0717 0.8310
vn 0.4314 0.6992 -0.5701
vn -0.2058 -0.5559 0.8054
vn 0.1241 0.1184 -0.9852
vn 0.9390 -0.3439 -0.0004
vn -0.9845 0.0086 -0.1751
vn -0.0725 0.1832 -0.9804
vn -0.0327 -0.5655 0.8241
vn -0.9995 0.0213 -0.0251
vn 0.9626 -0.2662 -0.0511
vn -0.0978 -0.9863 -0.1331
vn 0.2175 -0.4534 0.8644
vn -0.9700 -0.2034 0.1332
vn -0.9682 -0.2184 0.1222
vn 0.9742 -0.1582 -0.1608
vn -0.1271 0.2138 -0.9686
vn -0.0860 -0.9963 0.0093
vn 0.0449 -0.9910 0.1263
vn 0.1586 -0.3428 0.9259
vn 0.2167 0.1074 -0.9703
vn 0.9621 -0.1349 0.2371
vn 0.6436 0.0985 -0.7590
vn 0.4387 -0.3819 -0.8135
vn 0.5457 -0.2075 -0.8119
vn 0.6241 -0.0732 -0.7779
vn 0.9914 -0.1199 0.0515
vn 0.9687 -0.2293 0.0945
vn 0.9453 -0.2855 0.1579
vn 0.0578 -0.3791 -0.9235
vn 0.1253 -0.1708 -0.9773
vn 0.2020 -0.0136 -0.9793
vn 0.2471 0.1689 0.9542
vn 0.2102 -0.1588 0.9647
vn 0.1563 -0.3289 0.9313
vn -0.9470 -0.0700 0.3136
vn -0.9698 -0.1199 0.2126
vn -0.9853 -0.1215 0.1198
vn -0.1909 -0.4999 -0.8448
vn -0.1200 -0.1469 -0.9818
vn -0.1142 -0.0962 -0.9888
vn 0.9234 0.2316 0.3062
vn 0.9820 -0.1251 0.1413
vn 0.9840 -0.1775 -0.0122
vn -0.9835 0.0366 -0.1770
vn -0.9955 0.0317 0.0893
vn -0.9915 0.0677 0.1108
vn -0.4854 0.4255 0.7638
vn -0.2829 0.0008 0.9592
vn -0.1158 0.0218 0.9930
vn 0.3414 -0.3867 0.8567
vn 0.5473 0.3992 -0.7356
vn -0.0468 -0.4166 -0.9079
vn -0.1527 -0.7704 -0.6190
vn -0.7206 -0.0357 -0.6924
vt 0.461701 0.809397
vt 0.301930 0.729761
vt 0.094158 0.499911
vt 0.498737 0.648456
vt 0.250869 0.553264
vt 0.714874 0.752530
vt 0.627854 0.740386
vt 0.227533 0.339544
vt 0.300362 0.438253
vt 0.625828 0.633709
vt 0.338991 0.679376
vt 0.653754 0.621457
vt 0.189641 0.785401
vt 0.531284 0.815038
vt 0.232114 0.729761
vt 0.806952 0.326283
vt 0.527824 0.712310
vt 0.703640 0.331352
vt 0.725736 0.123548
vt 0.557184 0.740386
vt 0.714874 0.681901
vt 0.693091 0.138725
vt 0.558638 0.706064
vt 0.944491 0.391302
vt 0.108931 0.369345
vt 0.090202 0.443431
vt 0.952837 0.467016
vt 0.108059 0.346292
vt 0.960024 0.371234
vt 0.653754 0.712739
vt 0.761990 0.055860
vt 0.265996 0.788213
vt 0.829683 0.188590
vt 0.886815 0.394232
vt 0.909606 0.471204
vt 0.826550 0.267021
vt 0.659457 0.749480
vt 0.206417 0.267620
vt 0.238389 0.812575
vt 0.882743 0.373659
vt 0.837846 0.166681
vt 0.102618 0.289588
vt 0.957957 0.321520
vt 0.918648 0.216117
vt 0.803322 0.012950
vt 0.106348 0.638847
vt 0.232551 0.755661
vt 0.798789 0.485160
vt 0.965752 0.239402
vt 0.153968 0.222285
vt 0.894228 0.312474
vt 0.856067 0.102710
vt 0.881967 0.351902
vt 0.842627 0.144082
vt 0.107159 0.331692
vt 0.958812 0.358201
vt 0.199778 0.246429
vt 0.138792 0.619338
vt 0.232114 0.797406
vt 0.967580 0.012950
vt 0.753483 0.682459
vt 0.843831 0.469074
vt 0.256421 0.022764
vt 0.824689 0.472884
vt 0.987050 0.016155
vt 0.832147 0.505580
vt 0.295109 0.018166
vt 0.782932 0.707368
vt 0.843831 0.503254
vt 0.076417 0.467161
vt 0.958695 0.494573
vt 0.833773 0.298242
vt 0.909847 0.503107
vt 0.076958 0.454690
vt 0.951531 0.482650
vt 0.837149 0.281767
vt 0.912926 0.487172
vt 0.064432 0.532285
vt 0.298790 0.687460
vt 0.825577 0.362572
vt 0.264894 0.686125
vt 0.056614 0.518895
vt 0.959622 0.549977
vt 0.837123 0.350740
vt 0.929664 0.555276
vt 0.051257 0.577890
vt 0.291936 0.641182
vt 0.824256 0.407314
vt 0.275162 0.640522
vt 0.035793 0.577862
vt 0.964581 0.612577
vt 0.838997 0.411720
vt 0.948088 0.615681
vt 0.039898 0.592711
vt 0.301778 0.620707
vt 0.403076 0.772170
vt 0.830596 0.428615
vt 0.403076 0.737417
vt 0.267017 0.619338
vt 0.012950 0.593438
vt 0.987050 0.637067
vt 0.428919 0.781443
vt 0.856067 0.440612
vt 0.428919 0.728949
vt 0.935424 0.646785
vt 0.945356 0.412724
vt 0.357115 0.854737
vt 0.331665 0.779032
vt 0.948027 0.441601
vt 0.799629 0.752473
vt 0.327972 0.853161
vt 0.906904 0.416128
vt 0.370069 0.779032
vt 0.684668 0.778429
vt 0.909575 0.445005
vt 0.655249 0.778999
vt 0.799629 0.791035
vt 0.330193 0.729131
vt 0.557184 0.775635
vt 0.363063 0.804932
vt 0.331684 0.807874
vt 0.754247 0.751428
vt 0.586563 0.768755
vt 0.566112 0.815056
vt 0.689281 0.828405
vt 0.370405 0.729131
vt 0.754247 0.791805
vt 0.657717 0.824383
vt 0.595492 0.808176
vt 0.327830 0.637821
vt 0.590400 0.642651
vt 0.164818 0.789976
vt 0.357235 0.619338
vt 0.642851 0.190721
vt 0.562581 0.649581
vt 0.406824 0.626953
vt 0.080449 0.619338
vt 0.646201 0.239681
vt 0.727583 0.656002
vt 0.597847 0.731399
vt 0.712829 0.722239
vt 0.658284 0.323708
vt 0.527919 0.666449
vt 0.661748 0.291537
vt 0.680225 0.245582
vt 0.377645 0.696957
vt 0.285191 0.477898
vt 0.483372 0.812325
vt 0.280072 0.728266
vt 0.924330 0.393087
vt 0.921760 0.373660
vt 0.678504 0.727397
vt 0.268491 0.812575
vt 0.930826 0.465310
vt 0.923786 0.327561
vt 0.941993 0.227167
vt 0.764056 0.466512
vt 0.919524 0.351927
vt 0.977463 0.013354
vt 0.833186 0.466512
vt 0.317617 0.012950
vt 0.798789 0.722800
vt 0.839639 0.522681
vt 0.934403 0.500152
vt 0.932138 0.484309
vt 0.281656 0.689101
vt 0.944784 0.554368
vt 0.283549 0.640852
vt 0.956335 0.614129
vt 0.284323 0.620942
vt 0.399765 0.754789
vt 0.961112 0.640376
vt 0.422297 0.755187
vt 0.926130 0.414426
vt 0.350867 0.779032
vt 0.928801 0.443303
vt 0.799629 0.771754
vt 0.350773 0.728949
vt 0.557184 0.796361
vt 0.753483 0.771844
vt 0.595492 0.787450
vt 0.985581 0.067358
vt 0.238180 0.070710
vt 0.259592 0.052321
vt 0.138792 0.821791
vt 0.953366 0.057503
vt 0.765454 0.639660
vt 0.120235 0.821584
vt 0.772730 0.660154
vt 0.283154 0.037949
vt 0.784440 0.682652
vt 0.128680 0.843910
vt 0.970110 0.058056
vt 0.758353 0.637393
vt 0.180368 0.432154
vt 0.759258 0.257498
vt 0.884976 0.446549
vt 0.828099 0.241547
vt 0.971226 0.428512
vt 0.101516 0.405509
vt 0.908240 0.430567
vt 0.669958 0.778714
vt 0.946692 0.427163
vt 0.342544 0.853949
vt 0.673120 0.826722
vt 0.582140 0.817526
vt 0.570535 0.766286
vt 0.348248 0.806122
vt 0.576699 0.792002
vt 0.653753 0.802281
vt 0.776512 0.794925
vt 0.776512 0.748700
vt 0.327830 0.829868
vt 0.363063 0.830170
vt 0.327830 0.753980
vt 0.373865 0.753980
vt 0.689281 0.803194
vt 0.351093 0.753886
vt 0.776117 0.771930
vt 0.671321 0.802907
vt 0.345899 0.829874
vt 0.457498 0.727404
vt 0.165986 0.548054
vt 0.260364 0.376248
vt 0.625887 0.695531
vt 0.520555 0.743605
vt 0.734596 0.339638
vt 0.406824 0.703049
vt 0.012950 0.651015
vt 0.277407 0.507014
vt 0.206214 0.619338
vt 0.706517 0.466512
vt 0.399765 0.822801
vt 0.181517 0.620770
vt 0.619265 0.470337
vt 0.422433 0.807343
vt 0.582936 0.466512
vt 0.458892 0.202188
vt 0.422433 0.843958
vt 0.727583 0.468029
vt 0.460639 0.221880
vt 0.402692 0.843997
vt 0.717439 0.778459
vt 0.429089 0.593438
vt 0.518160 0.466685
vt 0.070962 0.817001
vt 0.726094 0.791097
vt 0.457498 0.298878
vt 0.715181 0.783741
vt 0.523936 0.466512
vt 0.458951 0.311476
vt 0.719061 0.788282
vt 0.458165 0.306435
vt 0.058766 0.817583
vt 0.726094 0.778429
vt 0.431598 0.585369
vt 0.599953 0.261833
vt 0.080449 0.668491
vt 0.542336 0.274386
vt 0.076079 0.728305
vt 0.500395 0.287212
vt 0.064936 0.773359
vt 0.389801 0.564275
vt 0.039540 0.774208
vt 0.356388 0.547019
vt 0.031995 0.737396
vt 0.319737 0.531779
vt 0.030523 0.696843
vt 0.505723 0.512116
vt 0.384015 0.580847
vt 0.506522 0.550736
vt 0.346302 0.574833
vt 0.507607 0.604105
vt 0.294291 0.566034
vt 0.610540 0.298468
vt 0.545535 0.300686
vt 0.502363 0.302883
vt 0.504402 0.313331
vt 0.517745 0.511765
vt 0.548610 0.318269
vt 0.527842 0.556627
vt 0.609940 0.323717
vt 0.531284 0.618364
vt 0.660591 0.582499
vt 0.204501 0.743892
vt 0.668589 0.550878
vt 0.206214 0.710848
vt 0.668004 0.517120
vt 0.204545 0.678125
vt 0.623877 0.525891
vt 0.164692 0.675333
vt 0.610236 0.563455
vt 0.167167 0.712219
vt 0.605277 0.597358
vt 0.166352 0.745757
vt 0.511839 0.183186
vt 0.584607 0.521652
vt 0.552303 0.182624
vt 0.569857 0.561129
vt 0.598009 0.178631
vt 0.565182 0.606784
vt 0.592158 0.236754
vt 0.721184 0.600612
vt 0.550092 0.232946
vt 0.722606 0.558204
vt 0.518921 0.225772
vt 0.713819 0.525134
s 0
usemtl Material
f 89/196/1 7/19/1 13/33/1 90/198/1
f 8/22/2 7/19/2 89/196/2 58/145/2 54/138/2 53/134/2
f 6/18/3 56/142/3 57/144/3
f 3/8/4 106/224/4 4/9/4 59/147/4 88/195/4
f 6/17/5 107/226/5 5/14/5 60/148/5 1/1/5 105/222/5 2/4/5 56/143/5
f 61/150/6 13/34/6 16/40/6 62/151/6
f 5/16/7 14/36/7 31/76/7 29/72/7
f 88/195/8 1/3/8 10/26/8 91/200/8
f 67/158/9 21/53/9 20/51/9 65/155/9
f 13/33/10 7/19/10 12/31/10 16/41/10
f 3/8/11 9/25/11 11/28/11 15/38/11
f 55/141/12 3/6/12 15/37/12 63/152/12
f 66/156/13 19/49/13 17/43/13 65/155/13
f 23/57/14 22/55/14 17/42/14 19/50/14
f 83/184/15 82/183/15 25/63/15 26/67/15
f 15/38/16 11/28/16 22/55/16 23/57/16
f 62/151/17 16/40/17 21/53/17 67/158/17
f 69/163/18 26/66/18 25/64/18 68/160/18
f 87/193/19 84/186/19 24/60/19 68/159/19
f 86/190/20 83/184/20 26/67/20 69/161/20
f 84/187/21 85/189/21 27/68/21 24/61/21
f 70/164/22 29/73/22 31/77/22 71/165/22
f 70/164/23 28/71/23 34/83/23 73/167/23
f 10/26/24 1/3/24 28/70/24 30/74/24
f 64/154/25 10/27/25 30/75/25 71/165/25
f 34/82/26 32/78/26 36/86/26 38/90/26
f 60/149/27 5/15/27 33/81/27 72/166/27
f 5/16/28 29/72/28 35/84/28 33/80/28
f 28/70/29 1/3/29 32/78/29 34/82/29
f 37/88/30 39/92/30 43/103/30 41/97/30
f 73/167/31 34/83/31 38/91/31 75/169/31
f 33/80/32 35/84/32 39/92/32 37/88/32
f 72/166/33 33/81/33 37/89/33 74/168/33
f 76/171/34 41/98/34 43/104/34 77/173/34
f 74/168/35 37/89/35 41/99/35 76/170/35
f 38/90/36 36/86/36 40/94/36 42/100/36
f 75/169/37 38/91/37 42/101/37 77/172/37
f 102/219/38 97/211/38 51/127/38 81/180/38
f 91/199/39 10/27/39 45/109/39 93/203/39
f 90/197/40 13/34/40 46/112/40 92/201/40
f 61/150/41 9/24/41 44/106/41 78/174/41
f 64/154/42 14/35/42 47/115/42 79/176/42
f 96/209/43 94/206/43 50/124/43 80/179/43
f 101/218/44 99/215/44 48/118/44 80/178/44
f 104/221/45 98/213/45 49/121/45 95/208/45
f 103/220/46 100/217/46 50/125/46 94/205/46
f 8/23/47 53/135/47 52/131/47
f 8/23/48 52/131/48 4/10/48 106/225/48 3/7/48 55/140/48 7/20/48
f 54/138/49 58/145/49 89/196/49 5/16/49 107/227/49 6/18/49 57/144/49
f 100/216/50 101/218/50 80/178/50 50/126/50
f 95/207/51 96/209/51 80/179/51 48/119/51
f 10/27/52 64/154/52 79/176/52 45/109/52
f 13/34/53 61/150/53 78/174/53 46/112/53
f 98/212/54 102/219/54 81/180/54 49/122/54
f 39/93/55 75/169/55 77/172/55 43/105/55
f 36/87/56 74/168/56 76/170/56 40/95/56
f 40/96/57 76/171/57 77/173/57 42/102/57
f 32/79/58 72/166/58 74/168/58 36/87/58
f 35/85/59 73/167/59 75/169/59 39/93/59
f 1/2/60 60/149/60 72/166/60 32/79/60
f 14/35/61 64/154/61 71/165/61 31/77/61
f 29/73/62 70/164/62 73/167/62 35/85/62
f 28/71/63 70/164/63 71/165/63 30/75/63
f 85/189/64 86/191/64 69/162/64 27/68/64
f 82/182/65 87/193/65 68/159/65 25/65/65
f 27/69/66 69/163/66 68/160/66 24/62/66
f 11/29/67 62/151/67 67/158/67 22/56/67
f 18/44/68 66/156/68 65/155/68 20/51/68
f 7/21/69 55/141/69 63/152/69 12/30/69
f 22/56/70 67/158/70 65/155/70 17/43/70
f 9/24/71 61/150/71 62/151/71 11/29/71
f 19/49/72 66/156/72 87/193/72 82/182/72
f 12/31/73 18/45/73 20/52/73 21/54/73 16/41/73
f 66/157/74 18/48/74 84/187/74 87/194/74
f 23/57/75 19/50/75 82/183/75 83/184/75
f 49/123/76 81/181/76 96/209/76 95/207/76
f 97/210/77 103/220/77 94/205/77 51/128/77
f 99/214/78 104/221/78 95/208/78 48/120/78
f 81/181/79 51/129/79 94/206/79 96/209/79
f 14/35/80 90/197/80 92/201/80 47/115/80
f 9/24/81 91/199/81 93/203/81 44/106/81
f 3/8/82 88/195/82 91/200/82 9/25/82
f 5/16/83 89/196/83 90/198/83 14/36/83
f 44/107/84 93/204/84 104/221/84 99/214/84
f 47/116/85 92/202/85 103/220/85 97/210/85
f 45/110/86 79/177/86 102/219/86 98/212/86
f 46/113/87 78/175/87 101/218/87 100/216/87
f 92/202/88 46/114/88 100/217/88 103/220/88
f 93/204/89 45/111/89 98/213/89 104/221/89
f 78/175/90 44/108/90 99/215/90 101/218/90
f 79/177/91 47/117/91 97/211/91 102/219/91
f 59/146/92 4/11/92 52/130/92 53/133/92 54/136/92 108/228/92
f 136/291/93 110/234/93 109/231/93 135/289/93
f 121/264/94 120/262/94 114/246/94 117/254/94
f 139/297/95 111/237/95 110/235/95 136/290/95
f 135/288/96 109/232/96 112/240/96 144/307/96
f 144/306/97 112/241/97 111/238/97 139/296/97
f 111/239/98 112/242/98 109/233/98 110/236/98
f 117/255/99 114/247/99 116/252/99 115/249/99 113/243/99
f 124/270/100 121/263/100 117/256/100 113/244/100
f 120/261/101 129/277/101 116/253/101 114/248/101
f 130/279/102 124/269/102 113/245/102 115/250/102
f 129/277/103 130/278/103 115/251/103 116/253/103
f 57/144/104 56/142/104 132/282/104 127/275/104
f 127/275/105 132/282/105 131/280/105 128/276/105
f 128/276/106 131/280/106 130/278/106 129/277/106
f 56/143/107 2/4/107 126/273/107 132/283/107
f 132/283/108 126/273/108 125/271/108 131/281/108
f 131/281/109 125/271/109 124/269/109 130/279/109
f 54/138/110 57/144/110 127/275/110 118/257/110
f 118/257/111 127/275/111 128/276/111 119/259/111
f 119/259/112 128/276/112 129/277/112 120/261/112
f 2/5/113 108/230/113 123/267/113 126/274/113
f 126/274/114 123/267/114 122/265/114 125/272/114
f 125/272/115 122/265/115 121/263/115 124/270/115
f 108/229/116 54/137/116 118/258/116 123/268/116
f 123/268/117 118/258/117 119/260/117 122/266/117
f 122/266/118 119/260/118 120/262/118 121/264/118
f 54/138/119 142/302/119 141/300/119 53/134/119
f 142/302/120 143/304/120 140/298/120 141/300/120
f 143/304/121 144/306/121 139/296/121 140/298/121
f 4/12/122 133/284/122 142/303/122 54/139/122
f 133/284/123 134/286/123 143/305/123 142/303/123
f 134/286/124 135/288/124 144/307/124 143/305/124
f 53/135/125 141/301/125 138/294/125 52/131/125
f 141/301/126 140/299/126 137/292/126 138/294/126
f 140/299/127 139/297/127 136/290/127 137/292/127
f 52/132/128 138/295/128 133/285/128 4/13/128
f 138/295/129 137/293/129 134/287/129 133/285/129
f 137/293/130 136/291/130 135/289/130 134/287/130
f 105/223/131 1/3/131 88/195/131 59/147/131 108/230/131 2/5/131
f 86/192/132 85/188/132 83/185/132
f 83/185/133 85/188/133 18/46/133 23/58/133
f 63/153/134 15/39/134 23/59/134 18/47/134 12/32/134
f 84/187/135 18/48/135 85/189/135
l 52 106
