# Blender 3.3.1
# www.blender.org
mtllib monstruo_3_grande_caminar616.mtl
o monstruo_grande
v 0.320771 2.032039 0.202983
v 0.526258 1.211249 0.084619
v -0.738063 1.711341 0.209896
v -0.287855 1.101447 0.219688
v 0.438504 2.327646 -0.147307
v 0.503166 1.628075 -0.258514
v -0.893626 1.935693 -0.198988
v -0.773927 1.657163 -0.273460
v -0.375274 2.377814 0.479859
v 0.185087 2.300163 0.418315
v -0.503464 2.341415 0.584291
v -1.256175 1.971917 -0.033788
v -0.386408 2.542033 0.121325
v 0.158376 2.441257 0.160971
v -1.094317 1.839327 0.117458
v -0.549952 2.607912 0.149164
v -0.851829 2.244827 0.613100
v -1.536196 1.894832 0.241826
v -1.251978 1.942287 0.436210
v -1.052823 2.550860 0.350467
v -0.731670 2.641024 0.224251
v -0.578810 2.293566 0.563504
v -1.227302 1.858650 0.123519
v -1.804875 0.640529 0.940863
v -1.677138 0.621554 0.982017
v -1.666266 0.445917 0.780332
v -1.744233 0.457499 0.755213
v 0.346128 2.221237 0.387705
v 0.415366 2.423683 0.125982
v 0.298592 2.334592 0.405988
v 0.289380 2.470506 0.180375
v 0.571975 1.916821 0.159730
v 0.664089 2.024295 -0.022547
v 0.596670 1.996394 0.210897
v 0.657766 2.119567 0.055509
v 0.746086 1.699591 0.065740
v 0.811683 1.740827 -0.018375
v 0.834578 1.661793 0.109417
v 0.897265 1.712426 0.026484
v 0.768425 1.545307 0.076956
v 0.902246 1.648032 -0.093085
v 0.889578 1.435175 0.186669
v 1.084730 1.588886 -0.075184
v -0.213594 2.437983 0.495401
v -0.003175 2.414977 0.473191
v -0.222304 2.535833 0.248146
v -0.020731 2.512991 0.229074
v -0.155925 2.751713 0.638738
v 0.048601 2.686579 0.595861
v -0.173381 2.864741 0.385289
v 0.029872 2.800133 0.341570
v -0.499067 1.120822 0.009302
v -0.388888 1.156931 -0.204284
v -0.057025 1.271843 -0.333255
v -0.802625 1.755364 -0.008269
v 0.547136 1.214583 -0.153658
v 0.326022 1.208171 -0.276185
v -0.029456 1.524533 -0.326333
v -0.007954 1.148419 0.194993
v 0.361358 2.121219 0.084244
v -0.372712 2.436244 0.353795
v -0.538267 2.587452 0.421990
v -1.030323 1.908064 -0.003580
v 0.148854 2.426571 0.321232
v -0.887890 2.470513 0.569286
v -1.428504 2.042165 0.481072
v -0.690413 2.566229 0.420393
v -1.751186 0.629724 0.992427
v -1.689349 0.336782 0.665431
v 0.420065 2.333698 0.282850
v 0.294496 2.447720 0.315773
v 0.570785 1.954024 0.033458
v 0.670176 2.069911 0.160095
v 0.777631 1.723422 0.023918
v 0.865751 1.686347 0.067590
v 0.813955 1.600726 -0.021272
v 0.949016 1.521105 0.032646
v -0.218085 2.486308 0.370444
v -0.013191 2.464967 0.350526
v -0.195765 2.809578 0.514912
v 0.070807 2.742261 0.466326
v -1.559095 0.947883 0.920693
v -1.618549 0.773029 0.856887
v -1.779304 0.951078 0.851171
v -1.738779 0.790888 0.818151
v -1.679594 0.615118 0.763482
v -1.689397 0.930007 0.939093
v -0.080292 1.764159 0.510963
v 0.011099 2.140006 -0.202950
v -0.029729 2.514716 0.049036
v -0.045387 2.274895 0.609121
v -0.122913 2.523200 0.236771
v -0.104766 2.425222 0.483604
v -0.074724 2.849066 0.324993
v -0.051111 2.702188 0.655229
v -0.058150 2.826337 0.513149
v 0.018526 2.666311 0.260572
v 0.037719 2.539371 0.551356
v -0.197636 2.588144 0.589560
v -0.218790 2.714776 0.297148
v -0.224214 2.652697 0.445168
v 0.043814 2.602773 0.404510
v -0.102005 2.698800 0.258383
v -0.077708 2.553893 0.590356
v 0.378086 1.729140 -0.035010
v -0.596661 1.436892 0.226420
v 0.480804 1.848555 -0.257441
v 0.180221 1.184870 0.197055
v -0.196707 -0.003989 -0.108641
v -0.341096 0.001440 0.013685
v -0.366947 0.002107 -0.236011
v -0.231788 -0.003019 -0.250749
v 0.363510 0.016792 0.261684
v 0.280992 -0.009552 0.200924
v 0.367741 0.005858 0.223806
v 0.333176 -0.004109 0.203815
v 0.306505 0.017365 0.280257
v 0.092861 0.859117 -0.087821
v 0.137714 0.587947 0.061614
v 0.203655 0.304750 0.162933
v 0.265942 0.328236 0.332191
v 0.240209 0.585140 0.346347
v 0.230658 0.861865 0.314003
v 0.382413 0.326826 0.287725
v 0.436036 0.587410 0.270770
v 0.506954 0.927520 0.214285
v 0.349992 0.894860 -0.075326
v 0.319769 0.595660 0.065065
v 0.312274 0.309162 0.164847
v 0.386744 0.317939 0.205712
v 0.444549 0.611191 0.132363
v 0.522353 0.929391 0.025182
v -0.170691 0.828261 0.287287
v -0.144935 0.545732 0.204799
v -0.140573 0.308295 0.155719
v -0.425729 0.298887 0.144110
v -0.436457 0.573240 0.155990
v -0.459355 0.828295 0.164816
v -0.460422 0.359888 -0.116773
v -0.468896 0.636369 -0.106721
v -0.475703 0.865622 -0.110782
v -0.079424 0.827424 -0.144221
v -0.125848 0.620583 -0.153036
v -0.168862 0.407169 -0.144916
vn -0.1265 0.5440 -0.8295
vn -0.0882 0.0825 -0.9927
vn 0.4816 -0.1670 -0.8603
vn -0.2134 -0.3051 0.9281
vn 0.9446 0.0924 0.3150
vn 0.5768 0.7989 0.1706
vn 0.0088 0.9181 -0.3962
vn 0.6633 -0.2040 0.7200
vn -0.1153 0.9103 0.3976
vn -0.1999 0.5292 -0.8246
vn -0.0711 -0.4898 0.8689
vn -0.3785 -0.8785 -0.2914
vn -0.1808 -0.1212 0.9760
vn 0.3688 -0.8462 0.3846
vn 0.9575 -0.2464 0.1501
vn 0.0515 -0.7289 0.6827
vn 0.0767 0.9788 0.1901
vn 0.0557 -0.7434 0.6665
vn -0.6423 0.2606 0.7208
vn 0.9123 0.0312 -0.4084
vn -0.8923 0.0243 -0.4509
vn 0.5839 0.7638 0.2751
vn 0.6159 0.1578 0.7719
vn -0.1181 -0.5592 0.8206
vn -0.0757 0.6063 0.7917
vn -0.4025 -0.5577 0.7260
vn -0.4269 -0.5118 -0.7455
vn 0.7779 0.5770 -0.2490
vn -0.1050 -0.6449 0.7570
vn 0.3696 0.8244 -0.4286
vn 0.5826 0.1352 0.8015
vn 0.6604 0.3932 -0.6398
vn -0.4458 -0.2986 -0.8439
vn -0.1650 -0.7241 -0.6696
vn -0.6832 0.0040 -0.7302
vn -0.5506 0.0812 0.8308
vn 0.7714 0.3309 0.5435
vn 0.9700 -0.0090 -0.2431
vn 0.4068 0.5701 0.7138
vn 0.0825 0.9963 -0.0258
vn -0.3391 0.8648 0.3704
vn 0.3533 0.9126 0.2056
vn 0.0582 0.9694 0.2387
vn -0.9534 0.1036 0.2834
vn 0.3447 -0.3640 0.8653
vn -0.3024 0.4935 -0.8154
vn -0.6774 -0.5834 -0.4481
vn -0.8605 -0.4632 0.2123
vn 0.0685 0.1165 -0.9908
vn -0.9724 0.2334 0.0012
vn 0.0784 0.8290 0.5537
vn 0.4450 0.7418 0.5018
vn -0.2976 0.8689 0.3954
vn 0.9887 -0.1450 0.0388
vn 0.5933 0.1857 0.7832
vn -0.8419 -0.1136 -0.5276
vn -0.2419 -0.8001 -0.5490
vn -0.7536 -0.5624 -0.3403
vn 0.8481 0.4163 0.3276
vn -0.5312 -0.7151 -0.4543
vn -0.1838 0.9755 0.1209
vn 0.7715 0.5808 0.2597
vn 0.6656 0.3595 0.6540
vn -0.4663 0.2360 -0.8526
vn 0.1316 0.1418 0.9811
vn -0.6209 -0.6429 0.4486
vn -0.2212 0.4477 0.8664
vn -0.7146 0.6139 0.3355
vn -0.3800 -0.8412 -0.3847
vn 0.2476 0.4037 0.8807
vn 0.5669 0.5973 0.5673
vn 0.2744 0.3301 0.9032
vn -0.4892 0.5765 -0.6545
vn -0.8461 0.3938 0.3591
vn 0.9591 -0.2667 0.0945
vn 0.5293 0.6935 0.4887
vn 0.2266 0.4246 -0.8765
vn -0.1844 -0.3017 0.9354
vn 0.5033 0.8547 0.1277
vn 0.2785 0.9604 -0.0047
vn -0.0992 0.4982 0.8613
vn -0.4014 -0.1471 0.9040
vn 0.0342 0.7630 -0.6455
vn -0.0789 -0.5747 0.8145
vn 0.0059 0.1583 -0.9874
vn 0.9486 -0.2865 -0.1343
vn -1.0000 -0.0052 -0.0066
vn -0.1954 0.2045 -0.9592
vn 0.1103 -0.6055 0.7881
vn -0.9942 -0.0248 0.1043
vn 0.9435 -0.2472 -0.2206
vn 0.1765 -0.9621 -0.2079
vn 0.2172 -0.5233 0.8240
vn -0.9153 -0.1806 0.3599
vn -0.9541 -0.2891 0.0782
vn 0.9840 -0.0807 -0.1590
vn -0.1230 0.2746 -0.9537
vn -0.0370 -0.9993 0.0016
vn 0.0886 -0.9513 0.2954
vn 0.3386 -0.1056 0.9350
vn 0.0368 -0.1160 -0.9926
vn 0.9948 -0.0617 0.0812
vn 0.4960 -0.0774 -0.8649
vn 0.4712 -0.4730 -0.7445
vn 0.5012 -0.3962 -0.7693
vn 0.4831 -0.3001 -0.8225
vn 0.9960 -0.0315 0.0842
vn 0.9768 -0.2070 0.0551
vn 0.9808 -0.1901 0.0443
vn 0.0709 -0.5100 -0.8573
vn 0.0768 -0.4501 -0.8897
vn 0.0312 -0.3299 -0.9435
vn 0.2488 0.3756 0.8927
vn 0.3334 0.1018 0.9373
vn 0.3588 -0.0143 0.9333
vn -0.9276 -0.0719 0.3667
vn -0.9437 0.0159 0.3303
vn -0.9335 -0.1030 0.3435
vn -0.1721 -0.3308 -0.9279
vn -0.1058 0.0204 -0.9942
vn -0.1171 0.0122 -0.9930
vn 0.9093 0.2413 0.3391
vn 0.9890 -0.0664 0.1320
vn 0.9960 -0.0822 -0.0356
vn -0.9821 -0.0012 -0.1885
vn -0.9950 -0.0618 0.0786
vn -0.9922 -0.0393 0.1179
vn -0.5410 0.1744 0.8227
vn -0.2863 -0.1856 0.9400
vn -0.1072 -0.1207 0.9869
vn 0.6022 -0.0924 0.7930
vn 0.3343 0.3807 -0.8621
vn -0.2175 -0.4569 -0.8625
vn -0.2256 -0.8113 -0.5394
vn -0.8525 -0.1103 -0.5110
vt 0.882279 0.260085
vt 0.436089 0.649131
vt 0.117664 0.305524
vt 0.860974 0.338762
vt 0.079561 0.383885
vt 0.278417 0.728674
vt 0.111517 0.716819
vt 0.301243 0.337859
vt 0.232943 0.387386
vt 0.111517 0.662267
vt 0.671871 0.687525
vt 0.175114 0.511099
vt 0.930991 0.712692
vt 0.796001 0.259488
vt 0.522181 0.649131
vt 0.719621 0.316178
vt 0.801110 0.310020
vt 0.698705 0.366293
vt 0.510656 0.337024
vt 0.023033 0.717149
vt 0.367094 0.730187
vt 0.507246 0.358198
vt 0.018976 0.695717
vt 0.103380 0.570561
vt 0.268725 0.266033
vt 0.143950 0.273348
vt 0.098384 0.631539
vt 0.301351 0.259488
vt 0.128079 0.559933
vt 0.480438 0.333338
vt 0.348619 0.714075
vt 0.604958 0.268707
vt 0.031105 0.562973
vt 0.043818 0.625810
vt 0.721993 0.282954
vt 0.329365 0.336360
vt 0.302724 0.713315
vt 0.030374 0.549675
vt 0.582817 0.260846
vt 0.875347 0.642471
vt 0.380514 0.272320
vt 0.124895 0.517524
vt 0.813390 0.578569
vt 0.436089 0.332372
vt 0.956124 0.588845
vt 0.367094 0.692599
vt 0.367094 0.522797
vt 0.871643 0.594841
vt 0.398138 0.324445
vt 0.043891 0.509019
vt 0.796001 0.641153
vt 0.491075 0.268473
vt 0.032114 0.534706
vt 0.552485 0.259488
vt 0.331566 0.259909
vt 0.129819 0.544964
vt 0.339759 0.337186
vt 0.913298 0.588845
vt 0.317584 0.707220
vt 0.845734 0.463378
vt 0.311567 0.646434
vt 0.944558 0.353645
vt 0.398138 0.462439
vt 0.920230 0.354337
vt 0.870057 0.463781
vt 0.929709 0.374247
vt 0.357807 0.478584
vt 0.347994 0.663056
vt 0.944558 0.373825
vt 0.097076 0.285727
vt 0.229765 0.651022
vt 0.758050 0.297859
vt 0.168317 0.651042
vt 0.119329 0.272208
vt 0.094178 0.643292
vt 0.222768 0.636959
vt 0.746872 0.283208
vt 0.174541 0.636975
vt 0.045175 0.638147
vt 0.080672 0.327471
vt 0.442544 0.673801
vt 0.734592 0.339187
vt 0.484453 0.673801
vt 0.070725 0.319456
vt 0.218298 0.685110
vt 0.751374 0.331694
vt 0.180611 0.684911
vt 0.062412 0.356092
vt 0.455575 0.702696
vt 0.724658 0.367821
vt 0.476314 0.702696
vt 0.043357 0.357400
vt 0.210236 0.723455
vt 0.742364 0.370210
vt 0.189444 0.723462
vt 0.050281 0.367705
vt 0.444942 0.715336
vt 0.810526 0.722486
vt 0.728448 0.380153
vt 0.853695 0.722486
vt 0.487920 0.715336
vt 0.018975 0.371756
vt 0.232852 0.738567
vt 0.796001 0.739289
vt 0.758050 0.386241
vt 0.861207 0.739289
vt 0.167770 0.738589
vt 0.100634 0.583041
vt 0.712300 0.698974
vt 0.802197 0.701507
vt 0.098640 0.600731
vt 0.972705 0.287497
vt 0.747907 0.696578
vt 0.052045 0.577939
vt 0.849895 0.701507
vt 0.710445 0.675017
vt 0.050052 0.595630
vt 0.746553 0.677603
vt 0.924885 0.287497
vt 0.797725 0.671259
vt 0.981025 0.313792
vt 0.715147 0.730011
vt 0.752543 0.724602
vt 0.973919 0.259495
vt 0.967002 0.332143
vt 0.934252 0.306472
vt 0.715328 0.644023
vt 0.847669 0.671259
vt 0.923848 0.259495
vt 0.753088 0.649631
vt 0.920230 0.324823
vt 0.068284 0.665533
vt 0.630362 0.705721
vt 0.712055 0.621316
vt 0.966165 0.712391
vt 0.519769 0.388732
vt 0.031375 0.663704
vt 0.592215 0.695479
vt 0.581836 0.620019
vt 0.750017 0.621843
vt 0.569690 0.667298
vt 0.581066 0.387596
vt 0.531739 0.516092
vt 0.642835 0.625048
vt 0.273616 0.509019
vt 0.070982 0.710642
vt 0.316851 0.732164
vt 0.684917 0.393810
vt 0.816625 0.338063
vt 0.644803 0.392946
vt 0.602800 0.367236
vt 0.671871 0.661666
vt 0.181146 0.386242
vt 0.855113 0.259897
vt 0.463196 0.649131
vt 0.077903 0.567886
vt 0.078993 0.554271
vt 0.322237 0.720993
vt 0.070972 0.628379
vt 0.834014 0.651825
vt 0.084160 0.512738
vt 0.838315 0.596273
vt 0.320679 0.509019
vt 0.080733 0.539302
vt 0.857365 0.464048
vt 0.931678 0.351118
vt 0.335174 0.488977
vt 0.367094 0.673623
vt 0.939667 0.384854
vt 0.199177 0.651021
vt 0.069465 0.641494
vt 0.198664 0.632807
vt 0.464209 0.672968
vt 0.199604 0.684998
vt 0.465945 0.702696
vt 0.199840 0.723459
vt 0.466714 0.715004
vt 0.832520 0.720483
vt 0.200177 0.738589
vt 0.829423 0.735282
vt 0.076340 0.580490
vt 0.826046 0.701507
vt 0.074346 0.598181
vt 0.948795 0.287497
vt 0.823088 0.670800
vt 0.959731 0.307426
vt 0.948976 0.259488
vt 0.941524 0.331189
vt 0.875347 0.491894
vt 0.391834 0.432095
vt 0.377694 0.448634
vt 0.915590 0.478791
vt 0.834644 0.488373
vt 0.326937 0.619279
vt 0.938593 0.478810
vt 0.335216 0.632947
vt 0.358601 0.463790
vt 0.348787 0.648138
vt 0.927106 0.463378
vt 0.854274 0.489560
vt 0.315804 0.619182
vt 0.212520 0.321385
vt 0.644070 0.318501
vt 0.018976 0.592450
vt 0.663817 0.276029
vt 0.129819 0.597828
vt 0.224108 0.269832
vt 0.051049 0.586785
vt 0.728499 0.676310
vt 0.099637 0.591886
vt 0.730103 0.697776
vt 0.734390 0.646904
vt 0.920230 0.314550
vt 0.981025 0.324065
vt 0.732426 0.727384
vt 0.950683 0.319044
vt 0.753088 0.663662
vt 0.920230 0.273492
vt 0.977552 0.273492
vt 0.752543 0.710647
vt 0.709822 0.714522
vt 0.796001 0.686127
vt 0.853178 0.686127
vt 0.709822 0.659561
vt 0.824792 0.685890
vt 0.948939 0.273488
vt 0.731549 0.661651
vt 0.730449 0.712624
vt 0.878850 0.297575
vt 0.096711 0.342677
vt 0.285581 0.357771
vt 0.108549 0.696221
vt 0.804979 0.293594
vt 0.708839 0.350023
vt 0.668288 0.644023
vt 0.436089 0.526409
vt 0.145034 0.385321
vt 0.919159 0.607821
vt 0.247387 0.613831
vt 0.970304 0.416607
vt 0.947808 0.608020
vt 0.704660 0.516092
vt 0.970304 0.403829
vt 0.750017 0.516884
vt 0.618892 0.516092
vt 0.920230 0.404231
vt 0.273616 0.612878
vt 0.642836 0.516847
vt 0.938584 0.415207
vt 0.924281 0.443436
vt 0.075400 0.489812
vt 0.855524 0.444402
vt 0.531739 0.629156
vt 0.934913 0.435583
vt 0.576828 0.496673
vt 0.931440 0.443424
vt 0.848383 0.444289
vt 0.592622 0.497116
vt 0.934913 0.440184
vt 0.586164 0.496977
vt 0.517161 0.630156
vt 0.920230 0.438606
vt 0.085942 0.490043
vt 0.585376 0.420489
vt 0.510472 0.551446
vt 0.582586 0.444044
vt 0.504260 0.576063
vt 0.581388 0.469636
vt 0.508131 0.602400
vt 0.103684 0.463024
vt 0.477645 0.604263
vt 0.118194 0.440373
vt 0.454885 0.581958
vt 0.129418 0.415411
vt 0.438452 0.557360
vt 0.876897 0.417052
vt 0.081901 0.462161
vt 0.882279 0.393921
vt 0.081653 0.438865
vt 0.880271 0.363315
vt 0.079604 0.408162
vt 0.633117 0.418943
vt 0.615530 0.444447
vt 0.600997 0.469910
vt 0.614559 0.469949
vt 0.862035 0.416811
vt 0.638313 0.444473
vt 0.857648 0.390640
vt 0.666106 0.417503
vt 0.844696 0.362700
vt 0.167770 0.536691
vt 0.914144 0.688660
vt 0.182151 0.561697
vt 0.913298 0.663084
vt 0.189855 0.582503
vt 0.915415 0.641729
vt 0.680787 0.549268
vt 0.966165 0.641681
vt 0.684678 0.573659
vt 0.963812 0.665813
vt 0.684995 0.596421
vt 0.964308 0.688427
vt 0.584794 0.548886
vt 0.729850 0.550060
vt 0.578610 0.572959
vt 0.734888 0.574452
vt 0.569690 0.595426
vt 0.736445 0.597214
vt 0.642060 0.590920
vt 0.247172 0.543053
vt 0.641052 0.570535
vt 0.248998 0.562413
vt 0.635978 0.552556
vt 0.245738 0.579271
s 0
usemtl Material
f 89/203/1 7/19/1 13/32/1 90/205/1
f 8/22/2 7/19/2 89/203/2 58/151/2 54/142/2 53/136/2
f 6/18/3 56/148/3 57/150/3
f 3/8/4 106/231/4 4/9/4 59/153/4 88/202/4
f 6/17/5 107/233/5 5/14/5 60/154/5 1/1/5 105/229/5 2/4/5 56/149/5
f 61/156/6 13/33/6 16/38/6 62/157/6
f 5/16/7 14/35/7 31/77/7 29/72/7
f 88/202/8 1/3/8 10/26/8 91/207/8
f 67/164/9 21/53/9 20/50/9 65/161/9
f 13/32/10 7/19/10 12/30/10 16/39/10
f 3/8/11 9/25/11 11/28/11 15/36/11
f 55/147/12 3/6/12 15/37/12 63/158/12
f 66/162/13 19/48/13 17/40/13 65/160/13
f 23/57/14 22/55/14 17/41/14 19/49/14
f 83/191/15 82/190/15 25/63/15 26/67/15
f 15/36/16 11/28/16 22/55/16 23/57/16
f 62/157/17 16/38/17 21/53/17 67/164/17
f 69/169/18 26/66/18 25/64/18 68/166/18
f 87/200/19 84/193/19 24/60/19 68/165/19
f 86/197/20 83/191/20 26/67/20 69/167/20
f 84/194/21 85/196/21 27/68/21 24/61/21
f 70/170/22 29/73/22 31/78/22 71/172/22
f 70/170/23 28/71/23 34/85/23 73/174/23
f 10/26/24 1/3/24 28/70/24 30/74/24
f 64/159/25 10/27/25 30/75/25 71/171/25
f 34/84/26 32/80/26 36/88/26 38/92/26
f 60/155/27 5/15/27 33/83/27 72/173/27
f 5/16/28 29/72/28 35/86/28 33/82/28
f 28/70/29 1/3/29 32/80/29 34/84/29
f 37/90/30 39/94/30 43/105/30 41/99/30
f 73/174/31 34/85/31 38/93/31 75/176/31
f 33/82/32 35/86/32 39/94/32 37/90/32
f 72/173/33 33/83/33 37/91/33 74/175/33
f 76/178/34 41/100/34 43/106/34 77/180/34
f 74/175/35 37/91/35 41/101/35 76/177/35
f 38/92/36 36/88/36 40/96/36 42/102/36
f 75/176/37 38/93/37 42/103/37 77/179/37
f 102/226/38 97/218/38 51/129/38 81/187/38
f 91/206/39 10/27/39 45/111/39 93/210/39
f 90/204/40 13/33/40 46/114/40 92/208/40
f 61/156/41 9/24/41 44/108/41 78/181/41
f 64/159/42 14/34/42 47/117/42 79/183/42
f 96/216/43 94/213/43 50/126/43 80/186/43
f 101/225/44 99/222/44 48/120/44 80/185/44
f 104/228/45 98/220/45 49/123/45 95/215/45
f 103/227/46 100/224/46 50/127/46 94/212/46
f 8/23/47 53/137/47 52/132/47
f 8/23/48 52/132/48 4/10/48 106/232/48 3/7/48 55/146/48 7/20/48
f 54/142/49 58/151/49 89/203/49 5/16/49 107/234/49 6/18/49 57/150/49
f 100/223/50 101/225/50 80/185/50 50/128/50
f 95/214/51 96/216/51 80/186/51 48/121/51
f 10/27/52 64/159/52 79/183/52 45/111/52
f 13/33/53 61/156/53 78/181/53 46/114/53
f 98/219/54 102/226/54 81/187/54 49/124/54
f 39/95/55 75/176/55 77/179/55 43/107/55
f 36/89/56 74/175/56 76/177/56 40/97/56
f 40/98/57 76/178/57 77/180/57 42/104/57
f 32/81/58 72/173/58 74/175/58 36/89/58
f 35/87/59 73/174/59 75/176/59 39/95/59
f 1/2/60 60/155/60 72/173/60 32/81/60
f 14/34/61 64/159/61 71/171/61 31/79/61
f 29/73/62 70/170/62 73/174/62 35/87/62
f 28/71/63 70/170/63 71/172/63 30/76/63
f 85/196/64 86/198/64 69/168/64 27/68/64
f 82/189/65 87/200/65 68/165/65 25/65/65
f 27/69/66 69/169/66 68/166/66 24/62/66
f 11/29/67 62/157/67 67/164/67 22/56/67
f 18/43/68 66/162/68 65/160/68 20/51/68
f 7/21/69 55/147/69 63/158/69 12/31/69
f 22/56/70 67/164/70 65/161/70 17/42/70
f 9/24/71 61/156/71 62/157/71 11/29/71
f 19/48/72 66/162/72 87/200/72 82/189/72
f 12/30/73 18/44/73 20/52/73 21/54/73 16/39/73
f 66/163/74 18/47/74 84/194/74 87/201/74
f 23/57/75 19/49/75 82/190/75 83/191/75
f 49/125/76 81/188/76 96/216/76 95/214/76
f 97/217/77 103/227/77 94/212/77 51/130/77
f 99/221/78 104/228/78 95/215/78 48/122/78
f 81/188/79 51/131/79 94/213/79 96/216/79
f 14/34/80 90/204/80 92/208/80 47/117/80
f 9/24/81 91/206/81 93/210/81 44/108/81
f 3/8/82 88/202/82 91/207/82 9/25/82
f 5/16/83 89/203/83 90/205/83 14/35/83
f 44/109/84 93/211/84 104/228/84 99/221/84
f 47/118/85 92/209/85 103/227/85 97/217/85
f 45/112/86 79/184/86 102/226/86 98/219/86
f 46/115/87 78/182/87 101/225/87 100/223/87
f 92/209/88 46/116/88 100/224/88 103/227/88
f 93/211/89 45/113/89 98/220/89 104/228/89
f 78/182/90 44/110/90 99/222/90 101/225/90
f 79/184/91 47/119/91 97/218/91 102/226/91
f 59/152/92 4/11/92 52/133/92 53/138/92 54/141/92 108/235/92
f 136/298/93 110/241/93 109/238/93 135/296/93
f 121/271/94 120/269/94 114/253/94 117/261/94
f 139/304/95 111/244/95 110/242/95 136/297/95
f 135/295/96 109/239/96 112/247/96 144/314/96
f 144/313/97 112/248/97 111/245/97 139/303/97
f 111/246/98 112/249/98 109/240/98 110/243/98
f 117/262/99 114/254/99 116/259/99 115/256/99 113/250/99
f 124/277/100 121/270/100 117/263/100 113/251/100
f 120/268/101 129/284/101 116/260/101 114/255/101
f 130/286/102 124/276/102 113/252/102 115/257/102
f 129/284/103 130/285/103 115/258/103 116/260/103
f 57/150/104 56/148/104 132/289/104 127/282/104
f 127/282/105 132/289/105 131/287/105 128/283/105
f 128/283/106 131/287/106 130/285/106 129/284/106
f 56/149/107 2/4/107 126/280/107 132/290/107
f 132/290/108 126/280/108 125/278/108 131/288/108
f 131/288/109 125/278/109 124/276/109 130/286/109
f 54/142/110 57/150/110 127/282/110 118/264/110
f 118/264/111 127/282/111 128/283/111 119/266/111
f 119/266/112 128/283/112 129/284/112 120/268/112
f 2/5/113 108/237/113 123/274/113 126/281/113
f 126/281/114 123/274/114 122/272/114 125/279/114
f 125/279/115 122/272/115 121/270/115 124/277/115
f 108/236/116 54/143/116 118/265/116 123/275/116
f 123/275/117 118/265/117 119/267/117 122/273/117
f 122/273/118 119/267/118 120/269/118 121/271/118
f 54/144/119 142/309/119 141/307/119 53/139/119
f 142/309/120 143/311/120 140/305/120 141/307/120
f 143/311/121 144/313/121 139/303/121 140/305/121
f 4/12/122 133/291/122 142/310/122 54/145/122
f 133/291/123 134/293/123 143/312/123 142/310/123
f 134/293/124 135/295/124 144/314/124 143/312/124
f 53/140/125 141/308/125 138/301/125 52/134/125
f 141/308/126 140/306/126 137/299/126 138/301/126
f 140/306/127 139/304/127 136/297/127 137/299/127
f 52/135/128 138/302/128 133/292/128 4/13/128
f 138/302/129 137/300/129 134/294/129 133/292/129
f 137/300/130 136/298/130 135/296/130 134/294/130
f 105/230/131 1/3/131 88/202/131 59/153/131 108/237/131 2/5/131
f 86/199/132 85/195/132 83/192/132
f 83/192/133 85/195/133 18/45/133 23/58/133
f 63/158/134 15/37/134 23/59/134 18/46/134 12/31/134
f 84/194/135 18/47/135 85/196/135
l 52 106
