# Blender 3.3.1
# www.blender.org
mtllib monstruo_3_caminar621.mtl
o monstruo_grande
v 0.335111 2.024872 0.219471
v 0.523957 1.204495 0.092402
v -0.734587 1.714191 0.219088
v -0.290921 1.094592 0.213388
v 0.452415 2.322565 -0.129963
v 0.511702 1.619350 -0.247108
v -0.889106 1.943588 -0.184650
v -0.770466 1.669487 -0.264623
v -0.363455 2.371376 0.500011
v 0.195592 2.291499 0.434416
v -0.489978 2.333667 0.606284
v -1.252734 1.977055 -0.011082
v -0.380061 2.540627 0.143684
v 0.170739 2.436633 0.178591
v -1.089572 1.842386 0.135162
v -0.543588 2.606284 0.176054
v -0.839108 2.236067 0.638049
v -1.529415 1.894720 0.269198
v -1.242105 1.937153 0.460341
v -1.043018 2.547276 0.383999
v -0.723737 2.638855 0.254913
v -0.566338 2.285681 0.585799
v -1.222147 1.860666 0.144735
v -1.793019 0.626171 0.942591
v -1.664665 0.605234 0.980767
v -1.658691 0.435533 0.773863
v -1.737035 0.448312 0.750562
v 0.357522 2.213615 0.404772
v 0.427227 2.417816 0.144274
v 0.309474 2.325597 0.423246
v 0.302031 2.464589 0.199159
v 0.588119 1.913611 0.179928
v 0.680550 2.018342 -0.003202
v 0.611341 1.992501 0.229519
v 0.672425 2.115764 0.074474
v 0.769301 1.696244 0.097083
v 0.833457 1.736412 0.010889
v 0.859241 1.665362 0.143311
v 0.920013 1.713963 0.057863
v 0.799004 1.544118 0.117417
v 0.928767 1.643076 -0.057895
v 0.924539 1.446542 0.233881
v 1.113913 1.594074 -0.035656
v -0.202088 2.431406 0.512963
v 0.007995 2.407096 0.489968
v -0.211757 2.532461 0.266973
v -0.009052 2.508861 0.247238
v -0.145250 2.745869 0.655837
v 0.059378 2.680920 0.613165
v -0.162556 2.858760 0.402415
v 0.040971 2.794310 0.359185
v -0.500300 1.124665 0.001432
v -0.388068 1.168815 -0.209723
v -0.054779 1.276434 -0.332933
v -0.799485 1.761766 0.002215
v 0.549078 1.205298 -0.145281
v 0.329805 1.200939 -0.271615
v -0.025172 1.527867 -0.322390
v -0.011355 1.145764 0.191840
v 0.375826 2.114392 0.100987
v -0.363059 2.431497 0.374640
v -0.527036 2.582063 0.447953
v -1.026696 1.913936 0.013474
v 0.160918 2.419623 0.338958
v -0.875384 2.462585 0.598867
v -1.417656 2.036552 0.509713
v -0.679330 2.561078 0.448839
v -1.738451 0.613537 0.992800
v -1.684618 0.329957 0.656273
v 0.431344 2.327329 0.300809
v 0.306660 2.439838 0.334540
v 0.588050 1.947528 0.053763
v 0.684592 2.066201 0.179349
v 0.799945 1.719167 0.054055
v 0.889491 1.688928 0.100257
v 0.842507 1.595884 0.016319
v 0.980860 1.526167 0.075363
v -0.206828 2.481484 0.388731
v -0.001785 2.458834 0.367974
v -0.185046 2.803626 0.531947
v 0.081713 2.736490 0.483732
v -1.545659 0.932512 0.926805
v -1.607427 0.759965 0.859041
v -1.767105 0.939072 0.861542
v -1.728238 0.779671 0.823110
v -1.671227 0.605232 0.762221
v -1.675710 0.914882 0.947119
v -0.074879 1.756395 0.518083
v 0.020618 2.141539 -0.191282
v -0.019214 2.514065 0.067068
v -0.035574 2.265585 0.623749
v -0.111777 2.519709 0.255209
v -0.093598 2.418969 0.500843
v -0.063692 2.843206 0.342467
v -0.040399 2.696460 0.672442
v -0.047447 2.820523 0.530288
v 0.030039 2.660676 0.278629
v 0.048883 2.533177 0.568914
v -0.186638 2.582109 0.606875
v -0.207605 2.709178 0.315081
v -0.213077 2.646734 0.462630
v 0.055102 2.596750 0.422233
v -0.090635 2.693316 0.276422
v -0.066745 2.548015 0.607679
v 0.390955 1.719465 -0.026837
v -0.595699 1.438268 0.229529
v 0.493103 1.838850 -0.243945
v 0.175680 1.184246 0.196687
v -0.206833 -0.000100 -0.145942
v -0.351862 0.005445 -0.024412
v -0.376354 0.006632 -0.274125
v -0.241132 0.001189 -0.288149
v 0.339847 0.019176 0.376843
v 0.259347 -0.011479 0.315516
v 0.345385 0.004341 0.340483
v 0.311456 -0.006868 0.320092
v 0.282162 0.022884 0.392735
v 0.089885 0.849212 -0.087358
v 0.131370 0.564017 0.097151
v 0.190079 0.295179 0.240577
v 0.246354 0.339740 0.407669
v 0.223397 0.596523 0.387726
v 0.218581 0.866845 0.319777
v 0.364360 0.331694 0.368243
v 0.421993 0.586723 0.318841
v 0.498436 0.921913 0.224154
v 0.347155 0.883434 -0.069279
v 0.313291 0.570462 0.106644
v 0.298588 0.298908 0.246056
v 0.371605 0.312285 0.288276
v 0.435797 0.592847 0.176163
v 0.517819 0.918472 0.034537
v -0.176925 0.817056 0.268052
v -0.152507 0.539455 0.176636
v -0.149795 0.304164 0.121782
v -0.435025 0.297304 0.109143
v -0.443608 0.570777 0.127746
v -0.464614 0.825219 0.143462
v -0.468512 0.364645 -0.150036
v -0.474738 0.641391 -0.133686
v -0.478485 0.874603 -0.130672
v -0.082529 0.833381 -0.162723
v -0.131700 0.624058 -0.179485
v -0.176512 0.410345 -0.176272
vn -0.1290 0.5583 -0.8195
vn -0.0901 0.1016 -0.9907
vn 0.4948 -0.1651 -0.8532
vn -0.2130 -0.3197 0.9233
vn 0.9457 0.0774 0.3156
vn 0.5808 0.7956 0.1722
vn 0.0153 0.9206 -0.3903
vn 0.6522 -0.2160 0.7266
vn -0.1083 0.9033 0.4152
vn -0.2121 0.5502 -0.8077
vn -0.0567 -0.5130 0.8565
vn -0.3821 -0.8724 -0.3047
vn -0.1682 -0.1398 0.9758
vn 0.3740 -0.8547 0.3600
vn 0.9585 -0.2564 0.1248
vn 0.0727 -0.7519 0.6553
vn 0.0827 0.9757 0.2028
vn 0.0632 -0.7630 0.6434
vn -0.6271 0.2432 0.7400
vn 0.9047 0.0377 -0.4244
vn -0.9003 0.0428 -0.4332
vn 0.5849 0.7603 0.2826
vn 0.6084 0.1616 0.7770
vn -0.1217 -0.5639 0.8168
vn -0.0766 0.5957 0.7995
vn -0.3968 -0.5425 0.7404
vn -0.4183 -0.5171 -0.7467
vn 0.7752 0.5822 -0.2453
vn -0.1032 -0.6461 0.7562
vn 0.3349 0.8146 -0.4735
vn 0.5642 0.1733 0.8072
vn 0.6572 0.3874 -0.6465
vn -0.4329 -0.3331 -0.8377
vn -0.1251 -0.7695 -0.6262
vn -0.6781 -0.0719 -0.7314
vn -0.5598 0.1025 0.8223
vn 0.7507 0.3989 0.5266
vn 0.9703 -0.0077 -0.2416
vn 0.4111 0.5562 0.7222
vn 0.0827 0.9965 -0.0120
vn -0.3311 0.8611 0.3859
vn 0.3579 0.9075 0.2197
vn 0.0567 0.9694 0.2388
vn -0.9538 0.1024 0.2823
vn 0.3435 -0.3617 0.8667
vn -0.3018 0.4911 -0.8171
vn -0.6729 -0.5662 -0.4761
vn -0.8638 -0.4622 0.2006
vn 0.0816 0.1263 -0.9886
vn -0.9728 0.2318 0.0002
vn 0.0771 0.8294 0.5533
vn 0.4475 0.7319 0.5139
vn -0.2855 0.8659 0.4108
vn 0.9889 -0.1426 0.0407
vn 0.5781 0.2594 0.7736
vn -0.8315 -0.1851 -0.5237
vn -0.1992 -0.8414 -0.5024
vn -0.7373 -0.5889 -0.3311
vn 0.8337 0.4438 0.3287
vn -0.5183 -0.7258 -0.4523
vn -0.1774 0.9749 0.1345
vn 0.7649 0.5864 0.2665
vn 0.6603 0.3541 0.6623
vn -0.4806 0.2637 -0.8364
vn 0.1507 0.1121 0.9822
vn -0.6166 -0.6521 0.4411
vn -0.2063 0.4350 0.8765
vn -0.7085 0.6079 0.3584
vn -0.3852 -0.8352 -0.3925
vn 0.2593 0.3876 0.8846
vn 0.5781 0.5885 0.5653
vn 0.2892 0.3088 0.9061
vn -0.4980 0.5920 -0.6336
vn -0.8383 0.3893 0.3818
vn 0.9592 -0.2730 0.0728
vn 0.5280 0.6943 0.4890
vn 0.2268 0.4233 -0.8772
vn -0.1843 -0.3009 0.9357
vn 0.5025 0.8550 0.1287
vn 0.2850 0.9585 0.0116
vn -0.0891 0.4899 0.8672
vn -0.3971 -0.1598 0.9037
vn 0.0480 0.7712 -0.6348
vn -0.0765 -0.5737 0.8155
vn 0.0054 0.1586 -0.9873
vn 0.9494 -0.2838 -0.1344
vn -1.0000 -0.0047 -0.0040
vn -0.1960 0.2039 -0.9592
vn 0.1063 -0.6036 0.7901
vn -0.9942 -0.0264 0.1042
vn 0.9433 -0.2469 -0.2218
vn 0.1729 -0.9574 -0.2312
vn 0.2081 -0.5399 0.8156
vn -0.9316 -0.1241 0.3417
vn -0.9557 -0.2857 0.0704
vn 0.9840 -0.0843 -0.1569
vn -0.1167 0.2881 -0.9504
vn -0.0394 -0.9992 -0.0004
vn 0.0518 -0.9177 0.3938
vn 0.3001 -0.0042 0.9539
vn 0.0726 -0.2265 -0.9713
vn 0.9893 -0.0683 0.1288
vn 0.5276 -0.1822 -0.8297
vn 0.4822 -0.4761 -0.7354
vn 0.5176 -0.4544 -0.7250
vn 0.5073 -0.4162 -0.7545
vn 0.9937 -0.0423 0.1038
vn 0.9752 -0.1996 0.0958
vn 0.9761 -0.1908 0.1037
vn 0.0743 -0.5021 -0.8616
vn 0.1010 -0.5125 -0.8527
vn 0.0618 -0.4589 -0.8863
vn 0.2375 0.3856 0.8916
vn 0.2994 0.2143 0.9297
vn 0.3272 0.1051 0.9391
vn -0.9336 -0.0603 0.3532
vn -0.9531 0.0558 0.2975
vn -0.9477 -0.0492 0.3154
vn -0.1739 -0.2903 -0.9410
vn -0.1003 0.0547 -0.9935
vn -0.1142 0.0356 -0.9928
vn 0.9100 0.2188 0.3522
vn 0.9877 -0.0801 0.1343
vn 0.9954 -0.0893 -0.0350
vn -0.9806 0.0177 -0.1953
vn -0.9960 -0.0533 0.0717
vn -0.9929 -0.0340 0.1142
vn -0.5478 0.1391 0.8249
vn -0.2938 -0.2127 0.9319
vn -0.1111 -0.1444 0.9833
vn 0.5928 -0.1183 0.7966
vn 0.3207 0.4039 -0.8568
vn -0.2344 -0.4356 -0.8691
vn -0.2340 -0.8018 -0.5499
vn -0.8643 -0.0915 -0.4945
vt 0.461701 0.809397
vt 0.301930 0.729761
vt 0.094158 0.499911
vt 0.498737 0.648456
vt 0.250869 0.553264
vt 0.714874 0.752530
vt 0.627854 0.740386
vt 0.227533 0.339544
vt 0.300362 0.438253
vt 0.625828 0.633709
vt 0.338991 0.679376
vt 0.653754 0.621457
vt 0.189641 0.785401
vt 0.531284 0.815038
vt 0.232114 0.729761
vt 0.806952 0.326283
vt 0.527824 0.712310
vt 0.703640 0.331352
vt 0.725736 0.123548
vt 0.557184 0.740386
vt 0.714874 0.681901
vt 0.693091 0.138725
vt 0.558638 0.706064
vt 0.944491 0.391302
vt 0.108931 0.369345
vt 0.090202 0.443431
vt 0.952837 0.467016
vt 0.108059 0.346292
vt 0.960024 0.371234
vt 0.653754 0.712739
vt 0.761990 0.055860
vt 0.265996 0.788213
vt 0.829683 0.188590
vt 0.886815 0.394232
vt 0.909606 0.471204
vt 0.826550 0.267021
vt 0.659457 0.749480
vt 0.206417 0.267620
vt 0.238389 0.812575
vt 0.882743 0.373659
vt 0.837846 0.166681
vt 0.102618 0.289588
vt 0.957957 0.321520
vt 0.918648 0.216117
vt 0.803322 0.012950
vt 0.106348 0.638847
vt 0.232551 0.755661
vt 0.798789 0.485160
vt 0.965752 0.239402
vt 0.153968 0.222285
vt 0.894228 0.312474
vt 0.856067 0.102710
vt 0.881967 0.351902
vt 0.842627 0.144082
vt 0.107159 0.331692
vt 0.958812 0.358201
vt 0.199778 0.246429
vt 0.138792 0.619338
vt 0.232114 0.797406
vt 0.967580 0.012950
vt 0.753483 0.682459
vt 0.843831 0.469074
vt 0.256421 0.022764
vt 0.824689 0.472884
vt 0.987050 0.016155
vt 0.832147 0.505580
vt 0.295109 0.018166
vt 0.782932 0.707368
vt 0.843831 0.503254
vt 0.076417 0.467161
vt 0.958695 0.494573
vt 0.833773 0.298242
vt 0.909847 0.503107
vt 0.076958 0.454690
vt 0.951531 0.482650
vt 0.837149 0.281767
vt 0.912926 0.487172
vt 0.064432 0.532285
vt 0.298790 0.687460
vt 0.825577 0.362572
vt 0.264894 0.686125
vt 0.056614 0.518895
vt 0.959622 0.549977
vt 0.837123 0.350740
vt 0.929664 0.555276
vt 0.051257 0.577890
vt 0.291936 0.641182
vt 0.824256 0.407314
vt 0.275162 0.640522
vt 0.035793 0.577862
vt 0.964581 0.612577
vt 0.838997 0.411720
vt 0.948088 0.615681
vt 0.039898 0.592711
vt 0.301778 0.620707
vt 0.403076 0.772170
vt 0.830596 0.428615
vt 0.403076 0.737417
vt 0.267017 0.619338
vt 0.012950 0.593438
vt 0.987050 0.637067
vt 0.428919 0.781443
vt 0.856067 0.440612
vt 0.428919 0.728949
vt 0.935424 0.646785
vt 0.945356 0.412724
vt 0.357115 0.854737
vt 0.331665 0.779032
vt 0.948027 0.441601
vt 0.799629 0.752473
vt 0.327972 0.853161
vt 0.906904 0.416128
vt 0.370069 0.779032
vt 0.684668 0.778429
vt 0.909575 0.445005
vt 0.655249 0.778999
vt 0.799629 0.791035
vt 0.330193 0.729131
vt 0.557184 0.775635
vt 0.363063 0.804932
vt 0.331684 0.807874
vt 0.754247 0.751428
vt 0.586563 0.768755
vt 0.566112 0.815056
vt 0.689281 0.828405
vt 0.370405 0.729131
vt 0.754247 0.791805
vt 0.657717 0.824383
vt 0.595492 0.808176
vt 0.327830 0.637821
vt 0.590400 0.642651
vt 0.164818 0.789976
vt 0.357235 0.619338
vt 0.642851 0.190721
vt 0.562581 0.649581
vt 0.406824 0.626953
vt 0.080449 0.619338
vt 0.646201 0.239681
vt 0.727583 0.656002
vt 0.597847 0.731399
vt 0.712829 0.722239
vt 0.658284 0.323708
vt 0.527919 0.666449
vt 0.661748 0.291537
vt 0.680225 0.245582
vt 0.377645 0.696957
vt 0.285191 0.477898
vt 0.483372 0.812325
vt 0.280072 0.728266
vt 0.924330 0.393087
vt 0.921760 0.373660
vt 0.678504 0.727397
vt 0.268491 0.812575
vt 0.930826 0.465310
vt 0.923786 0.327561
vt 0.941993 0.227167
vt 0.764056 0.466512
vt 0.919524 0.351927
vt 0.977463 0.013354
vt 0.833186 0.466512
vt 0.317617 0.012950
vt 0.798789 0.722800
vt 0.839639 0.522681
vt 0.934403 0.500152
vt 0.932138 0.484309
vt 0.281656 0.689101
vt 0.944784 0.554368
vt 0.283549 0.640852
vt 0.956335 0.614129
vt 0.284323 0.620942
vt 0.399765 0.754789
vt 0.961112 0.640376
vt 0.422297 0.755187
vt 0.926130 0.414426
vt 0.350867 0.779032
vt 0.928801 0.443303
vt 0.799629 0.771754
vt 0.350773 0.728949
vt 0.557184 0.796361
vt 0.753483 0.771844
vt 0.595492 0.787450
vt 0.985581 0.067358
vt 0.238180 0.070710
vt 0.259592 0.052321
vt 0.138792 0.821791
vt 0.953366 0.057503
vt 0.765454 0.639660
vt 0.120235 0.821584
vt 0.772730 0.660154
vt 0.283154 0.037949
vt 0.784440 0.682652
vt 0.128680 0.843910
vt 0.970110 0.058056
vt 0.758353 0.637393
vt 0.180368 0.432154
vt 0.759258 0.257498
vt 0.884976 0.446549
vt 0.828099 0.241547
vt 0.971226 0.428512
vt 0.101516 0.405509
vt 0.908240 0.430567
vt 0.669958 0.778714
vt 0.946692 0.427163
vt 0.342544 0.853949
vt 0.673120 0.826722
vt 0.582140 0.817526
vt 0.570535 0.766286
vt 0.348248 0.806122
vt 0.576699 0.792002
vt 0.653753 0.802281
vt 0.776512 0.794925
vt 0.776512 0.748700
vt 0.327830 0.829868
vt 0.363063 0.830170
vt 0.327830 0.753980
vt 0.373865 0.753980
vt 0.689281 0.803194
vt 0.351093 0.753886
vt 0.776117 0.771930
vt 0.671321 0.802907
vt 0.345899 0.829874
vt 0.457498 0.727404
vt 0.165986 0.548054
vt 0.260364 0.376248
vt 0.625887 0.695531
vt 0.520555 0.743605
vt 0.734596 0.339638
vt 0.406824 0.703049
vt 0.012950 0.651015
vt 0.277407 0.507014
vt 0.206214 0.619338
vt 0.706517 0.466512
vt 0.399765 0.822801
vt 0.181517 0.620770
vt 0.619265 0.470337
vt 0.422433 0.807343
vt 0.582936 0.466512
vt 0.458892 0.202188
vt 0.422433 0.843958
vt 0.727583 0.468029
vt 0.460639 0.221880
vt 0.402692 0.843997
vt 0.717439 0.778459
vt 0.429089 0.593438
vt 0.518160 0.466685
vt 0.070962 0.817001
vt 0.726094 0.791097
vt 0.457498 0.298878
vt 0.715181 0.783741
vt 0.523936 0.466512
vt 0.458951 0.311476
vt 0.719061 0.788282
vt 0.458165 0.306435
vt 0.058766 0.817583
vt 0.726094 0.778429
vt 0.431598 0.585369
vt 0.599953 0.261833
vt 0.080449 0.668491
vt 0.542336 0.274386
vt 0.076079 0.728305
vt 0.500395 0.287212
vt 0.064936 0.773359
vt 0.389801 0.564275
vt 0.039540 0.774208
vt 0.356388 0.547019
vt 0.031995 0.737396
vt 0.319737 0.531779
vt 0.030523 0.696843
vt 0.505723 0.512116
vt 0.384015 0.580847
vt 0.506522 0.550736
vt 0.346302 0.574833
vt 0.507607 0.604105
vt 0.294291 0.566034
vt 0.610540 0.298468
vt 0.545535 0.300686
vt 0.502363 0.302883
vt 0.504402 0.313331
vt 0.517745 0.511765
vt 0.548610 0.318269
vt 0.527842 0.556627
vt 0.609940 0.323717
vt 0.531284 0.618364
vt 0.660591 0.582499
vt 0.204501 0.743892
vt 0.668589 0.550878
vt 0.206214 0.710848
vt 0.668004 0.517120
vt 0.204545 0.678125
vt 0.623877 0.525891
vt 0.164692 0.675333
vt 0.610236 0.563455
vt 0.167167 0.712219
vt 0.605277 0.597358
vt 0.166352 0.745757
vt 0.511839 0.183186
vt 0.584607 0.521652
vt 0.552303 0.182624
vt 0.569857 0.561129
vt 0.598009 0.178631
vt 0.565182 0.606784
vt 0.592158 0.236754
vt 0.721184 0.600612
vt 0.550092 0.232946
vt 0.722606 0.558204
vt 0.518921 0.225772
vt 0.713819 0.525134
s 0
usemtl Material
f 89/196/1 7/19/1 13/33/1 90/198/1
f 8/22/2 7/19/2 89/196/2 58/145/2 54/138/2 53/134/2
f 6/18/3 56/142/3 57/144/3
f 3/8/4 106/224/4 4/9/4 59/147/4 88/195/4
f 6/17/5 107/226/5 5/14/5 60/148/5 1/1/5 105/222/5 2/4/5 56/143/5
f 61/150/6 13/34/6 16/40/6 62/151/6
f 5/16/7 14/36/7 31/76/7 29/72/7
f 88/195/8 1/3/8 10/26/8 91/200/8
f 67/158/9 21/53/9 20/51/9 65/155/9
f 13/33/10 7/19/10 12/31/10 16/41/10
f 3/8/11 9/25/11 11/28/11 15/38/11
f 55/141/12 3/6/12 15/37/12 63/152/12
f 66/156/13 19/49/13 17/43/13 65/155/13
f 23/57/14 22/55/14 17/42/14 19/50/14
f 83/184/15 82/183/15 25/63/15 26/67/15
f 15/38/16 11/28/16 22/55/16 23/57/16
f 62/151/17 16/40/17 21/53/17 67/158/17
f 69/163/18 26/66/18 25/64/18 68/160/18
f 87/193/19 84/186/19 24/60/19 68/159/19
f 86/190/20 83/184/20 26/67/20 69/161/20
f 84/187/21 85/189/21 27/68/21 24/61/21
f 70/164/22 29/73/22 31/77/22 71/165/22
f 70/164/23 28/71/23 34/83/23 73/167/23
f 10/26/24 1/3/24 28/70/24 30/74/24
f 64/154/25 10/27/25 30/75/25 71/165/25
f 34/82/26 32/78/26 36/86/26 38/90/26
f 60/149/27 5/15/27 33/81/27 72/166/27
f 5/16/28 29/72/28 35/84/28 33/80/28
f 28/70/29 1/3/29 32/78/29 34/82/29
f 37/88/30 39/92/30 43/103/30 41/97/30
f 73/167/31 34/83/31 38/91/31 75/169/31
f 33/80/32 35/84/32 39/92/32 37/88/32
f 72/166/33 33/81/33 37/89/33 74/168/33
f 76/171/34 41/98/34 43/104/34 77/173/34
f 74/168/35 37/89/35 41/99/35 76/170/35
f 38/90/36 36/86/36 40/94/36 42/100/36
f 75/169/37 38/91/37 42/101/37 77/172/37
f 102/219/38 97/211/38 51/127/38 81/180/38
f 91/199/39 10/27/39 45/109/39 93/203/39
f 90/197/40 13/34/40 46/112/40 92/201/40
f 61/150/41 9/24/41 44/106/41 78/174/41
f 64/154/42 14/35/42 47/115/42 79/176/42
f 96/209/43 94/206/43 50/124/43 80/179/43
f 101/218/44 99/215/44 48/118/44 80/178/44
f 104/221/45 98/213/45 49/121/45 95/208/45
f 103/220/46 100/217/46 50/125/46 94/205/46
f 8/23/47 53/135/47 52/131/47
f 8/23/48 52/131/48 4/10/48 106/225/48 3/7/48 55/140/48 7/20/48
f 54/138/49 58/145/49 89/196/49 5/16/49 107/227/49 6/18/49 57/144/49
f 100/216/50 101/218/50 80/178/50 50/126/50
f 95/207/51 96/209/51 80/179/51 48/119/51
f 10/27/52 64/154/52 79/176/52 45/109/52
f 13/34/53 61/150/53 78/174/53 46/112/53
f 98/212/54 102/219/54 81/180/54 49/122/54
f 39/93/55 75/169/55 77/172/55 43/105/55
f 36/87/56 74/168/56 76/170/56 40/95/56
f 40/96/57 76/171/57 77/173/57 42/102/57
f 32/79/58 72/166/58 74/168/58 36/87/58
f 35/85/59 73/167/59 75/169/59 39/93/59
f 1/2/60 60/149/60 72/166/60 32/79/60
f 14/35/61 64/154/61 71/165/61 31/77/61
f 29/73/62 70/164/62 73/167/62 35/85/62
f 28/71/63 70/164/63 71/165/63 30/75/63
f 85/189/64 86/191/64 69/162/64 27/68/64
f 82/182/65 87/193/65 68/159/65 25/65/65
f 27/69/66 69/163/66 68/160/66 24/62/66
f 11/29/67 62/151/67 67/158/67 22/56/67
f 18/44/68 66/156/68 65/155/68 20/51/68
f 7/21/69 55/141/69 63/152/69 12/30/69
f 22/56/70 67/158/70 65/155/70 17/43/70
f 9/24/71 61/150/71 62/151/71 11/29/71
f 19/49/72 66/156/72 87/193/72 82/182/72
f 12/31/73 18/45/73 20/52/73 21/54/73 16/41/73
f 66/157/74 18/48/74 84/187/74 87/194/74
f 23/57/75 19/50/75 82/183/75 83/184/75
f 49/123/76 81/181/76 96/209/76 95/207/76
f 97/210/77 103/220/77 94/205/77 51/128/77
f 99/214/78 104/221/78 95/208/78 48/120/78
f 81/181/79 51/129/79 94/206/79 96/209/79
f 14/35/80 90/197/80 92/201/80 47/115/80
f 9/24/81 91/199/81 93/203/81 44/106/81
f 3/8/82 88/195/82 91/200/82 9/25/82
f 5/16/83 89/196/83 90/198/83 14/36/83
f 44/107/84 93/204/84 104/221/84 99/214/84
f 47/116/85 92/202/85 103/220/85 97/210/85
f 45/110/86 79/177/86 102/219/86 98/212/86
f 46/113/87 78/175/87 101/218/87 100/216/87
f 92/202/88 46/114/88 100/217/88 103/220/88
f 93/204/89 45/111/89 98/213/89 104/221/89
f 78/175/90 44/108/90 99/215/90 101/218/90
f 79/177/91 47/117/91 97/211/91 102/219/91
f 59/146/92 4/11/92 52/130/92 53/133/92 54/136/92 108/228/92
f 136/291/93 110/234/93 109/231/93 135/289/93
f 121/264/94 120/262/94 114/246/94 117/254/94
f 139/297/95 111/237/95 110/235/95 136/290/95
f 135/288/96 109/232/96 112/240/96 144/307/96
f 144/306/97 112/241/97 111/238/97 139/296/97
f 111/239/98 112/242/98 109/233/98 110/236/98
f 117/255/99 114/247/99 116/252/99 115/249/99 113/243/99
f 124/270/100 121/263/100 117/256/100 113/244/100
f 120/261/101 129/277/101 116/253/101 114/248/101
f 130/279/102 124/269/102 113/245/102 115/250/102
f 129/277/103 130/278/103 115/251/103 116/253/103
f 57/144/104 56/142/104 132/282/104 127/275/104
f 127/275/105 132/282/105 131/280/105 128/276/105
f 128/276/106 131/280/106 130/278/106 129/277/106
f 56/143/107 2/4/107 126/273/107 132/283/107
f 132/283/108 126/273/108 125/271/108 131/281/108
f 131/281/109 125/271/109 124/269/109 130/279/109
f 54/138/110 57/144/110 127/275/110 118/257/110
f 118/257/111 127/275/111 128/276/111 119/259/111
f 119/259/112 128/276/112 129/277/112 120/261/112
f 2/5/113 108/230/113 123/267/113 126/274/113
f 126/274/114 123/267/114 122/265/114 125/272/114
f 125/272/115 122/265/115 121/263/115 124/270/115
f 108/229/116 54/137/116 118/258/116 123/268/116
f 123/268/117 118/258/117 119/260/117 122/266/117
f 122/266/118 119/260/118 120/262/118 121/264/118
f 54/138/119 142/302/119 141/300/119 53/134/119
f 142/302/120 143/304/120 140/298/120 141/300/120
f 143/304/121 144/306/121 139/296/121 140/298/121
f 4/12/122 133/284/122 142/303/122 54/139/122
f 133/284/123 134/286/123 143/305/123 142/303/123
f 134/286/124 135/288/124 144/307/124 143/305/124
f 53/135/125 141/301/125 138/294/125 52/131/125
f 141/301/126 140/299/126 137/292/126 138/294/126
f 140/299/127 139/297/127 136/290/127 137/292/127
f 52/132/128 138/295/128 133/285/128 4/13/128
f 138/295/129 137/293/129 134/287/129 133/285/129
f 137/293/130 136/291/130 135/289/130 134/287/130
f 105/223/131 1/3/131 88/195/131 59/147/131 108/230/131 2/5/131
f 86/192/132 85/188/132 83/185/132
f 83/185/133 85/188/133 18/46/133 23/58/133
f 63/153/134 15/39/134 23/59/134 18/47/134 12/32/134
f 84/187/135 18/48/135 85/189/135
l 52 106
