# Blender 3.3.1
# www.blender.org
mtllib monstruo_3_caminar627.mtl
o monstruo_grande
v 0.357269 2.020013 0.233998
v 0.518095 1.192405 0.109756
v -0.728430 1.730020 0.211266
v -0.297771 1.091107 0.201706
v 0.487668 2.315749 -0.113068
v 0.529344 1.605674 -0.230695
v -0.872997 1.959111 -0.190374
v -0.759280 1.689178 -0.268121
v -0.346083 2.373496 0.502080
v 0.212247 2.288375 0.444050
v -0.472876 2.336141 0.605944
v -1.239714 1.993575 -0.012191
v -0.357893 2.546723 0.146882
v 0.194250 2.434258 0.187388
v -1.077394 1.858381 0.131232
v -0.521526 2.614219 0.179296
v -0.817517 2.240132 0.638618
v -1.513402 1.906962 0.273516
v -1.224093 1.945493 0.463032
v -1.022449 2.555832 0.391328
v -0.702935 2.647390 0.259175
v -0.546796 2.289083 0.583810
v -1.208520 1.875064 0.144356
v -1.777936 0.631252 0.934197
v -1.649533 0.609343 0.971650
v -1.646084 0.439419 0.764871
v -1.724458 0.452792 0.742011
v 0.372691 2.209765 0.418925
v 0.452240 2.412679 0.160337
v 0.326120 2.321457 0.435492
v 0.325619 2.460477 0.211372
v 0.612036 1.910064 0.207033
v 0.712312 2.010406 0.026208
v 0.632722 1.988411 0.255508
v 0.700164 2.110133 0.102149
v 0.798166 1.693276 0.141927
v 0.866339 1.729889 0.056877
v 0.885945 1.663625 0.192854
v 0.950425 1.708571 0.108135
v 0.825791 1.541876 0.169237
v 0.963359 1.633408 -0.004362
v 0.945845 1.448024 0.294229
v 1.146881 1.583825 0.026983
v -0.184266 2.430707 0.516598
v 0.025629 2.405491 0.495169
v -0.190899 2.534216 0.270714
v 0.012119 2.509356 0.253097
v -0.128330 2.743730 0.662124
v 0.076614 2.679387 0.620054
v -0.144455 2.858390 0.409434
v 0.059543 2.794492 0.366919
v -0.502633 1.134607 -0.013375
v -0.386105 1.187927 -0.220309
v -0.048253 1.279523 -0.333644
v -0.790903 1.778850 -0.003341
v 0.552937 1.191365 -0.126900
v 0.338710 1.190372 -0.262259
v -0.012460 1.528809 -0.321088
v -0.019995 1.142868 0.186732
v 0.402768 2.108574 0.116501
v -0.343908 2.435004 0.377396
v -0.506713 2.586608 0.450995
v -1.015497 1.931647 0.009679
v 0.181210 2.417036 0.347870
v -0.852855 2.467347 0.602663
v -1.398785 2.044750 0.515634
v -0.658889 2.567214 0.450632
v -1.723180 0.618234 0.984101
v -1.673516 0.333947 0.647531
v 0.450307 2.323059 0.317438
v 0.326965 2.435650 0.346890
v 0.617711 1.940251 0.080632
v 0.708110 2.061376 0.207928
v 0.830696 1.714331 0.099298
v 0.918057 1.685317 0.150165
v 0.873662 1.589427 0.068042
v 1.009011 1.521119 0.135147
v -0.187678 2.482155 0.392577
v 0.017496 2.458301 0.373559
v -0.167574 2.802299 0.538439
v 0.099579 2.735867 0.491179
v -1.528279 0.935630 0.916701
v -1.591788 0.763514 0.849454
v -1.750019 0.943727 0.852682
v -1.712646 0.784135 0.814202
v -1.657357 0.609200 0.753146
v -1.658345 0.919038 0.937782
v -0.069906 1.754857 0.519282
v 0.047863 2.141433 -0.187565
v 0.004765 2.515709 0.072819
v -0.022716 2.264681 0.628229
v -0.091078 2.520994 0.260231
v -0.075571 2.417986 0.505079
v -0.045127 2.843405 0.349959
v -0.023491 2.694361 0.678922
v -0.029994 2.819412 0.537611
v 0.049633 2.661305 0.285512
v 0.066583 2.531743 0.574838
v -0.169203 2.580259 0.611802
v -0.188356 2.709589 0.320680
v -0.194884 2.645931 0.467897
v 0.073636 2.596380 0.428720
v -0.071129 2.694018 0.282754
v -0.049276 2.546315 0.612995
v 0.411347 1.707432 -0.013330
v -0.596462 1.450259 0.222786
v 0.519020 1.824906 -0.227316
v 0.165049 1.179583 0.198483
v -0.224242 0.013813 -0.205758
v -0.371059 0.018034 -0.086368
v -0.391719 0.023938 -0.336234
v -0.256335 0.017898 -0.348315
v 0.304361 0.012205 0.381260
v 0.230079 -0.016125 0.311591
v 0.313364 -0.001328 0.345077
v 0.281541 -0.011749 0.321179
v 0.245403 0.015449 0.391757
v 0.087777 0.844884 -0.087620
v 0.125030 0.560552 0.092980
v 0.168469 0.290557 0.238766
v 0.209365 0.333884 0.410567
v 0.190689 0.590951 0.389834
v 0.194662 0.861578 0.323056
v 0.330449 0.324879 0.382241
v 0.394943 0.579567 0.339514
v 0.481378 0.912191 0.245199
v 0.344220 0.874109 -0.056313
v 0.305503 0.565074 0.118402
v 0.276030 0.293210 0.254311
v 0.344922 0.305725 0.303199
v 0.421560 0.585961 0.198451
v 0.510111 0.906875 0.055865
v -0.187813 0.808117 0.240320
v -0.165649 0.535952 0.135418
v -0.166221 0.303945 0.070243
v -0.451485 0.302184 0.054919
v -0.455703 0.574166 0.085523
v -0.473274 0.827312 0.111872
v -0.481573 0.380892 -0.201094
v -0.483228 0.657053 -0.172969
v -0.481953 0.891812 -0.159447
v -0.086426 0.845707 -0.187248
v -0.140081 0.636360 -0.216537
v -0.188660 0.423056 -0.222986
vn -0.1119 0.5635 -0.8185
vn -0.0771 0.1117 -0.9907
vn 0.5262 -0.1783 -0.8315
vn -0.2298 -0.3219 0.9185
vn 0.9415 0.0486 0.3335
vn 0.5884 0.7872 0.1847
vn 0.0358 0.9192 -0.3922
vn 0.6272 -0.2266 0.7452
vn -0.0980 0.8984 0.4281
vn -0.2091 0.5633 -0.7994
vn -0.0584 -0.5273 0.8477
vn -0.3881 -0.8665 -0.3140
vn -0.1561 -0.1502 0.9763
vn 0.3770 -0.8621 0.3386
vn 0.9571 -0.2638 0.1195
vn 0.0863 -0.7703 0.6318
vn 0.0913 0.9724 0.2147
vn 0.0610 -0.7629 0.6437
vn -0.6211 0.2488 0.7432
vn 0.9025 0.0303 -0.4296
vn -0.9024 0.0495 -0.4280
vn 0.5816 0.7572 0.2973
vn 0.5767 0.1664 0.7998
vn -0.1468 -0.5601 0.8153
vn -0.0894 0.5960 0.7980
vn -0.4347 -0.5252 0.7316
vn -0.3875 -0.5251 -0.7577
vn 0.7842 0.5803 -0.2199
vn -0.1326 -0.6406 0.7563
vn 0.3613 0.7940 -0.4890
vn 0.5200 0.2011 0.8301
vn 0.6887 0.3749 -0.6206
vn -0.3892 -0.3645 -0.8460
vn -0.1067 -0.7913 -0.6020
vn -0.6479 -0.0939 -0.7559
vn -0.5909 0.1378 0.7949
vn 0.7326 0.4139 0.5404
vn 0.9721 -0.0040 -0.2346
vn 0.4032 0.5516 0.7302
vn 0.0954 0.9954 0.0013
vn -0.3196 0.8621 0.3932
vn 0.3643 0.9026 0.2293
vn 0.0539 0.9677 0.2461
vn -0.9556 0.0988 0.2777
vn 0.3391 -0.3667 0.8664
vn -0.2969 0.4963 -0.8158
vn -0.6639 -0.5433 -0.5139
vn -0.8748 -0.4484 0.1836
vn 0.1112 0.1263 -0.9857
vn -0.9733 0.2297 -0.0049
vn 0.0730 0.8256 0.5595
vn 0.4435 0.7262 0.5253
vn -0.2721 0.8675 0.4165
vn 0.9889 -0.1411 0.0458
vn 0.5493 0.2849 0.7856
vn -0.8117 -0.1995 -0.5489
vn -0.1861 -0.8587 -0.4774
vn -0.7147 -0.6080 -0.3458
vn 0.8139 0.4579 0.3576
vn -0.4970 -0.7346 -0.4619
vn -0.1690 0.9767 0.1321
vn 0.7537 0.5886 0.2926
vn 0.6436 0.3477 0.6818
vn -0.4833 0.2667 -0.8338
vn 0.1573 0.1118 0.9812
vn -0.6191 -0.6468 0.4453
vn -0.2117 0.4220 0.8815
vn -0.7013 0.6072 0.3735
vn -0.3906 -0.8327 -0.3926
vn 0.2736 0.3761 0.8853
vn 0.5802 0.5755 0.5763
vn 0.2991 0.2934 0.9080
vn -0.5017 0.6052 -0.6181
vn -0.8346 0.3864 0.3926
vn 0.9584 -0.2796 0.0567
vn 0.5244 0.6916 0.4966
vn 0.2319 0.4295 -0.8728
vn -0.1887 -0.3076 0.9326
vn 0.5006 0.8546 0.1378
vn 0.2958 0.9550 0.0216
vn -0.0907 0.4934 0.8651
vn -0.4106 -0.1583 0.8980
vn 0.0761 0.7712 -0.6320
vn -0.0818 -0.5802 0.8104
vn 0.0133 0.1644 -0.9863
vn 0.9503 -0.2836 -0.1283
vn -0.9998 -0.0079 -0.0157
vn -0.1859 0.2116 -0.9595
vn 0.0989 -0.6071 0.7885
vn -0.9950 -0.0273 0.0961
vn 0.9469 -0.2418 -0.2119
vn 0.1568 -0.9545 -0.2537
vn 0.1889 -0.5724 0.7979
vn -0.9592 -0.1280 0.2521
vn -0.9597 -0.2765 0.0500
vn 0.9845 -0.0919 -0.1492
vn -0.1017 0.3191 -0.9423
vn -0.0453 -0.9988 -0.0193
vn 0.0162 -0.9312 0.3641
vn 0.2089 -0.0274 0.9775
vn 0.1616 -0.2028 -0.9658
vn 0.9726 -0.0760 0.2197
vn 0.6021 -0.1645 -0.7813
vn 0.5057 -0.4906 -0.7096
vn 0.5582 -0.4604 -0.6902
vn 0.5691 -0.4180 -0.7081
vn 0.9874 -0.0556 0.1482
vn 0.9664 -0.2003 0.1612
vn 0.9608 -0.2008 0.1910
vn 0.0907 -0.5010 -0.8607
vn 0.1494 -0.5083 -0.8482
vn 0.1365 -0.4542 -0.8804
vn 0.1958 0.3889 0.9002
vn 0.2301 0.2187 0.9483
vn 0.2396 0.0983 0.9659
vn -0.9470 -0.0523 0.3170
vn -0.9712 0.0460 0.2338
vn -0.9728 -0.0426 0.2279
vn -0.1690 -0.2404 -0.9558
vn -0.0861 0.1061 -0.9906
vn -0.1047 0.0801 -0.9913
vn 0.9079 0.1877 0.3749
vn 0.9844 -0.1039 0.1419
vn 0.9940 -0.1048 -0.0308
vn -0.9768 0.0430 -0.2097
vn -0.9976 -0.0380 0.0576
vn -0.9943 -0.0218 0.1045
vn -0.5630 0.0950 0.8210
vn -0.3093 -0.2525 0.9168
vn -0.1223 -0.1862 0.9749
vn 0.5648 -0.1468 0.8121
vn 0.3189 0.4006 -0.8590
vn -0.2446 -0.4227 -0.8726
vn -0.2392 -0.7973 -0.5542
vn -0.8659 -0.0838 -0.4932
vt 0.461701 0.809397
vt 0.301930 0.729761
vt 0.094158 0.499911
vt 0.498737 0.648456
vt 0.250869 0.553264
vt 0.714874 0.752530
vt 0.627854 0.740386
vt 0.227533 0.339544
vt 0.300362 0.438253
vt 0.625828 0.633709
vt 0.338991 0.679376
vt 0.653754 0.621457
vt 0.189641 0.785401
vt 0.531284 0.815038
vt 0.232114 0.729761
vt 0.806952 0.326283
vt 0.527824 0.712310
vt 0.703640 0.331352
vt 0.725736 0.123548
vt 0.557184 0.740386
vt 0.714874 0.681901
vt 0.693091 0.138725
vt 0.558638 0.706064
vt 0.944491 0.391302
vt 0.108931 0.369345
vt 0.090202 0.443431
vt 0.952837 0.467016
vt 0.108059 0.346292
vt 0.960024 0.371234
vt 0.653754 0.712739
vt 0.761990 0.055860
vt 0.265996 0.788213
vt 0.829683 0.188590
vt 0.886815 0.394232
vt 0.909606 0.471204
vt 0.826550 0.267021
vt 0.659457 0.749480
vt 0.206417 0.267620
vt 0.238389 0.812575
vt 0.882743 0.373659
vt 0.837846 0.166681
vt 0.102618 0.289588
vt 0.957957 0.321520
vt 0.918648 0.216117
vt 0.803322 0.012950
vt 0.106348 0.638847
vt 0.232551 0.755661
vt 0.798789 0.485160
vt 0.965752 0.239402
vt 0.153968 0.222285
vt 0.894228 0.312474
vt 0.856067 0.102710
vt 0.881967 0.351902
vt 0.842627 0.144082
vt 0.107159 0.331692
vt 0.958812 0.358201
vt 0.199778 0.246429
vt 0.138792 0.619338
vt 0.232114 0.797406
vt 0.967580 0.012950
vt 0.753483 0.682459
vt 0.843831 0.469074
vt 0.256421 0.022764
vt 0.824689 0.472884
vt 0.987050 0.016155
vt 0.832147 0.505580
vt 0.295109 0.018166
vt 0.782932 0.707368
vt 0.843831 0.503254
vt 0.076417 0.467161
vt 0.958695 0.494573
vt 0.833773 0.298242
vt 0.909847 0.503107
vt 0.076958 0.454690
vt 0.951531 0.482650
vt 0.837149 0.281767
vt 0.912926 0.487172
vt 0.064432 0.532285
vt 0.298790 0.687460
vt 0.825577 0.362572
vt 0.264894 0.686125
vt 0.056614 0.518895
vt 0.959622 0.549977
vt 0.837123 0.350740
vt 0.929664 0.555276
vt 0.051257 0.577890
vt 0.291936 0.641182
vt 0.824256 0.407314
vt 0.275162 0.640522
vt 0.035793 0.577862
vt 0.964581 0.612577
vt 0.838997 0.411720
vt 0.948088 0.615681
vt 0.039898 0.592711
vt 0.301778 0.620707
vt 0.403076 0.772170
vt 0.830596 0.428615
vt 0.403076 0.737417
vt 0.267017 0.619338
vt 0.012950 0.593438
vt 0.987050 0.637067
vt 0.428919 0.781443
vt 0.856067 0.440612
vt 0.428919 0.728949
vt 0.935424 0.646785
vt 0.945356 0.412724
vt 0.357115 0.854737
vt 0.331665 0.779032
vt 0.948027 0.441601
vt 0.799629 0.752473
vt 0.327972 0.853161
vt 0.906904 0.416128
vt 0.370069 0.779032
vt 0.684668 0.778429
vt 0.909575 0.445005
vt 0.655249 0.778999
vt 0.799629 0.791035
vt 0.330193 0.729131
vt 0.557184 0.775635
vt 0.363063 0.804932
vt 0.331684 0.807874
vt 0.754247 0.751428
vt 0.586563 0.768755
vt 0.566112 0.815056
vt 0.689281 0.828405
vt 0.370405 0.729131
vt 0.754247 0.791805
vt 0.657717 0.824383
vt 0.595492 0.808176
vt 0.327830 0.637821
vt 0.590400 0.642651
vt 0.164818 0.789976
vt 0.357235 0.619338
vt 0.642851 0.190721
vt 0.562581 0.649581
vt 0.406824 0.626953
vt 0.080449 0.619338
vt 0.646201 0.239681
vt 0.727583 0.656002
vt 0.597847 0.731399
vt 0.712829 0.722239
vt 0.658284 0.323708
vt 0.527919 0.666449
vt 0.661748 0.291537
vt 0.680225 0.245582
vt 0.377645 0.696957
vt 0.285191 0.477898
vt 0.483372 0.812325
vt 0.280072 0.728266
vt 0.924330 0.393087
vt 0.921760 0.373660
vt 0.678504 0.727397
vt 0.268491 0.812575
vt 0.930826 0.465310
vt 0.923786 0.327561
vt 0.941993 0.227167
vt 0.764056 0.466512
vt 0.919524 0.351927
vt 0.977463 0.013354
vt 0.833186 0.466512
vt 0.317617 0.012950
vt 0.798789 0.722800
vt 0.839639 0.522681
vt 0.934403 0.500152
vt 0.932138 0.484309
vt 0.281656 0.689101
vt 0.944784 0.554368
vt 0.283549 0.640852
vt 0.956335 0.614129
vt 0.284323 0.620942
vt 0.399765 0.754789
vt 0.961112 0.640376
vt 0.422297 0.755187
vt 0.926130 0.414426
vt 0.350867 0.779032
vt 0.928801 0.443303
vt 0.799629 0.771754
vt 0.350773 0.728949
vt 0.557184 0.796361
vt 0.753483 0.771844
vt 0.595492 0.787450
vt 0.985581 0.067358
vt 0.238180 0.070710
vt 0.259592 0.052321
vt 0.138792 0.821791
vt 0.953366 0.057503
vt 0.765454 0.639660
vt 0.120235 0.821584
vt 0.772730 0.660154
vt 0.283154 0.037949
vt 0.784440 0.682652
vt 0.128680 0.843910
vt 0.970110 0.058056
vt 0.758353 0.637393
vt 0.180368 0.432154
vt 0.759258 0.257498
vt 0.884976 0.446549
vt 0.828099 0.241547
vt 0.971226 0.428512
vt 0.101516 0.405509
vt 0.908240 0.430567
vt 0.669958 0.778714
vt 0.946692 0.427163
vt 0.342544 0.853949
vt 0.673120 0.826722
vt 0.582140 0.817526
vt 0.570535 0.766286
vt 0.348248 0.806122
vt 0.576699 0.792002
vt 0.653753 0.802281
vt 0.776512 0.794925
vt 0.776512 0.748700
vt 0.327830 0.829868
vt 0.363063 0.830170
vt 0.327830 0.753980
vt 0.373865 0.753980
vt 0.689281 0.803194
vt 0.351093 0.753886
vt 0.776117 0.771930
vt 0.671321 0.802907
vt 0.345899 0.829874
vt 0.457498 0.727404
vt 0.165986 0.548054
vt 0.260364 0.376248
vt 0.625887 0.695531
vt 0.520555 0.743605
vt 0.734596 0.339638
vt 0.406824 0.703049
vt 0.012950 0.651015
vt 0.277407 0.507014
vt 0.206214 0.619338
vt 0.706517 0.466512
vt 0.399765 0.822801
vt 0.181517 0.620770
vt 0.619265 0.470337
vt 0.422433 0.807343
vt 0.582936 0.466512
vt 0.458892 0.202188
vt 0.422433 0.843958
vt 0.727583 0.468029
vt 0.460639 0.221880
vt 0.402692 0.843997
vt 0.717439 0.778459
vt 0.429089 0.593438
vt 0.518160 0.466685
vt 0.070962 0.817001
vt 0.726094 0.791097
vt 0.457498 0.298878
vt 0.715181 0.783741
vt 0.523936 0.466512
vt 0.458951 0.311476
vt 0.719061 0.788282
vt 0.458165 0.306435
vt 0.058766 0.817583
vt 0.726094 0.778429
vt 0.431598 0.585369
vt 0.599953 0.261833
vt 0.080449 0.668491
vt 0.542336 0.274386
vt 0.076079 0.728305
vt 0.500395 0.287212
vt 0.064936 0.773359
vt 0.389801 0.564275
vt 0.039540 0.774208
vt 0.356388 0.547019
vt 0.031995 0.737396
vt 0.319737 0.531779
vt 0.030523 0.696843
vt 0.505723 0.512116
vt 0.384015 0.580847
vt 0.506522 0.550736
vt 0.346302 0.574833
vt 0.507607 0.604105
vt 0.294291 0.566034
vt 0.610540 0.298468
vt 0.545535 0.300686
vt 0.502363 0.302883
vt 0.504402 0.313331
vt 0.517745 0.511765
vt 0.548610 0.318269
vt 0.527842 0.556627
vt 0.609940 0.323717
vt 0.531284 0.618364
vt 0.660591 0.582499
vt 0.204501 0.743892
vt 0.668589 0.550878
vt 0.206214 0.710848
vt 0.668004 0.517120
vt 0.204545 0.678125
vt 0.623877 0.525891
vt 0.164692 0.675333
vt 0.610236 0.563455
vt 0.167167 0.712219
vt 0.605277 0.597358
vt 0.166352 0.745757
vt 0.511839 0.183186
vt 0.584607 0.521652
vt 0.552303 0.182624
vt 0.569857 0.561129
vt 0.598009 0.178631
vt 0.565182 0.606784
vt 0.592158 0.236754
vt 0.721184 0.600612
vt 0.550092 0.232946
vt 0.722606 0.558204
vt 0.518921 0.225772
vt 0.713819 0.525134
s 0
usemtl Material
f 89/196/1 7/19/1 13/33/1 90/198/1
f 8/22/2 7/19/2 89/196/2 58/145/2 54/138/2 53/134/2
f 6/18/3 56/142/3 57/144/3
f 3/8/4 106/224/4 4/9/4 59/147/4 88/195/4
f 6/17/5 107/226/5 5/14/5 60/148/5 1/1/5 105/222/5 2/4/5 56/143/5
f 61/150/6 13/34/6 16/40/6 62/151/6
f 5/16/7 14/36/7 31/76/7 29/72/7
f 88/195/8 1/3/8 10/26/8 91/200/8
f 67/158/9 21/53/9 20/51/9 65/155/9
f 13/33/10 7/19/10 12/31/10 16/41/10
f 3/8/11 9/25/11 11/28/11 15/38/11
f 55/141/12 3/6/12 15/37/12 63/152/12
f 66/156/13 19/49/13 17/43/13 65/155/13
f 23/57/14 22/55/14 17/42/14 19/50/14
f 83/184/15 82/183/15 25/63/15 26/67/15
f 15/38/16 11/28/16 22/55/16 23/57/16
f 62/151/17 16/40/17 21/53/17 67/158/17
f 69/163/18 26/66/18 25/64/18 68/160/18
f 87/193/19 84/186/19 24/60/19 68/159/19
f 86/190/20 83/184/20 26/67/20 69/161/20
f 84/187/21 85/189/21 27/68/21 24/61/21
f 70/164/22 29/73/22 31/77/22 71/165/22
f 70/164/23 28/71/23 34/83/23 73/167/23
f 10/26/24 1/3/24 28/70/24 30/74/24
f 64/154/25 10/27/25 30/75/25 71/165/25
f 34/82/26 32/78/26 36/86/26 38/90/26
f 60/149/27 5/15/27 33/81/27 72/166/27
f 5/16/28 29/72/28 35/84/28 33/80/28
f 28/70/29 1/3/29 32/78/29 34/82/29
f 37/88/30 39/92/30 43/103/30 41/97/30
f 73/167/31 34/83/31 38/91/31 75/169/31
f 33/80/32 35/84/32 39/92/32 37/88/32
f 72/166/33 33/81/33 37/89/33 74/168/33
f 76/171/34 41/98/34 43/104/34 77/173/34
f 74/168/35 37/89/35 41/99/35 76/170/35
f 38/90/36 36/86/36 40/94/36 42/100/36
f 75/169/37 38/91/37 42/101/37 77/172/37
f 102/219/38 97/211/38 51/127/38 81/180/38
f 91/199/39 10/27/39 45/109/39 93/203/39
f 90/197/40 13/34/40 46/112/40 92/201/40
f 61/150/41 9/24/41 44/106/41 78/174/41
f 64/154/42 14/35/42 47/115/42 79/176/42
f 96/209/43 94/206/43 50/124/43 80/179/43
f 101/218/44 99/215/44 48/118/44 80/178/44
f 104/221/45 98/213/45 49/121/45 95/208/45
f 103/220/46 100/217/46 50/125/46 94/205/46
f 8/23/47 53/135/47 52/131/47
f 8/23/48 52/131/48 4/10/48 106/225/48 3/7/48 55/140/48 7/20/48
f 54/138/49 58/145/49 89/196/49 5/16/49 107/227/49 6/18/49 57/144/49
f 100/216/50 101/218/50 80/178/50 50/126/50
f 95/207/51 96/209/51 80/179/51 48/119/51
f 10/27/52 64/154/52 79/176/52 45/109/52
f 13/34/53 61/150/53 78/174/53 46/112/53
f 98/212/54 102/219/54 81/180/54 49/122/54
f 39/93/55 75/169/55 77/172/55 43/105/55
f 36/87/56 74/168/56 76/170/56 40/95/56
f 40/96/57 76/171/57 77/173/57 42/102/57
f 32/79/58 72/166/58 74/168/58 36/87/58
f 35/85/59 73/167/59 75/169/59 39/93/59
f 1/2/60 60/149/60 72/166/60 32/79/60
f 14/35/61 64/154/61 71/165/61 31/77/61
f 29/73/62 70/164/62 73/167/62 35/85/62
f 28/71/63 70/164/63 71/165/63 30/75/63
f 85/189/64 86/191/64 69/162/64 27/68/64
f 82/182/65 87/193/65 68/159/65 25/65/65
f 27/69/66 69/163/66 68/160/66 24/62/66
f 11/29/67 62/151/67 67/158/67 22/56/67
f 18/44/68 66/156/68 65/155/68 20/51/68
f 7/21/69 55/141/69 63/152/69 12/30/69
f 22/56/70 67/158/70 65/155/70 17/43/70
f 9/24/71 61/150/71 62/151/71 11/29/71
f 19/49/72 66/156/72 87/193/72 82/182/72
f 12/31/73 18/45/73 20/52/73 21/54/73 16/41/73
f 66/157/74 18/48/74 84/187/74 87/194/74
f 23/57/75 19/50/75 82/183/75 83/184/75
f 49/123/76 81/181/76 96/209/76 95/207/76
f 97/210/77 103/220/77 94/205/77 51/128/77
f 99/214/78 104/221/78 95/208/78 48/120/78
f 81/181/79 51/129/79 94/206/79 96/209/79
f 14/35/80 90/197/80 92/201/80 47/115/80
f 9/24/81 91/199/81 93/203/81 44/106/81
f 3/8/82 88/195/82 91/200/82 9/25/82
f 5/16/83 89/196/83 90/198/83 14/36/83
f 44/107/84 93/204/84 104/221/84 99/214/84
f 47/116/85 92/202/85 103/220/85 97/210/85
f 45/110/86 79/177/86 102/219/86 98/212/86
f 46/113/87 78/175/87 101/218/87 100/216/87
f 92/202/88 46/114/88 100/217/88 103/220/88
f 93/204/89 45/111/89 98/213/89 104/221/89
f 78/175/90 44/108/90 99/215/90 101/218/90
f 79/177/91 47/117/91 97/211/91 102/219/91
f 59/146/92 4/11/92 52/130/92 53/133/92 54/136/92 108/228/92
f 136/291/93 110/234/93 109/231/93 135/289/93
f 121/264/94 120/262/94 114/246/94 117/254/94
f 139/297/95 111/237/95 110/235/95 136/290/95
f 135/288/96 109/232/96 112/240/96 144/307/96
f 144/306/97 112/241/97 111/238/97 139/296/97
f 111/239/98 112/242/98 109/233/98 110/236/98
f 117/255/99 114/247/99 116/252/99 115/249/99 113/243/99
f 124/270/100 121/263/100 117/256/100 113/244/100
f 120/261/101 129/277/101 116/253/101 114/248/101
f 130/279/102 124/269/102 113/245/102 115/250/102
f 129/277/103 130/278/103 115/251/103 116/253/103
f 57/144/104 56/142/104 132/282/104 127/275/104
f 127/275/105 132/282/105 131/280/105 128/276/105
f 128/276/106 131/280/106 130/278/106 129/277/106
f 56/143/107 2/4/107 126/273/107 132/283/107
f 132/283/108 126/273/108 125/271/108 131/281/108
f 131/281/109 125/271/109 124/269/109 130/279/109
f 54/138/110 57/144/110 127/275/110 118/257/110
f 118/257/111 127/275/111 128/276/111 119/259/111
f 119/259/112 128/276/112 129/277/112 120/261/112
f 2/5/113 108/230/113 123/267/113 126/274/113
f 126/274/114 123/267/114 122/265/114 125/272/114
f 125/272/115 122/265/115 121/263/115 124/270/115
f 108/229/116 54/137/116 118/258/116 123/268/116
f 123/268/117 118/258/117 119/260/117 122/266/117
f 122/266/118 119/260/118 120/262/118 121/264/118
f 54/138/119 142/302/119 141/300/119 53/134/119
f 142/302/120 143/304/120 140/298/120 141/300/120
f 143/304/121 144/306/121 139/296/121 140/298/121
f 4/12/122 133/284/122 142/303/122 54/139/122
f 133/284/123 134/286/123 143/305/123 142/303/123
f 134/286/124 135/288/124 144/307/124 143/305/124
f 53/135/125 141/301/125 138/294/125 52/131/125
f 141/301/126 140/299/126 137/292/126 138/294/126
f 140/299/127 139/297/127 136/290/127 137/292/127
f 52/132/128 138/295/128 133/285/128 4/13/128
f 138/295/129 137/293/129 134/287/129 133/285/129
f 137/293/130 136/291/130 135/289/130 134/287/130
f 105/223/131 1/3/131 88/195/131 59/147/131 108/230/131 2/5/131
f 86/192/132 85/188/132 83/185/132
f 83/185/133 85/188/133 18/46/133 23/58/133
f 63/153/134 15/39/134 23/59/134 18/47/134 12/32/134
f 84/187/135 18/48/135 85/189/135
l 52 106
