# Blender 3.3.1
# www.blender.org
mtllib monstruo_3_caminar644.mtl
o monstruo_grande
v 0.435650 1.993343 0.288526
v 0.515908 1.153422 0.115841
v -0.672937 1.784721 0.178579
v -0.319335 1.119828 0.192642
v 0.661911 2.271641 -0.025664
v 0.576331 1.569305 -0.237577
v -0.780704 2.002944 -0.242816
v -0.692719 1.736355 -0.308052
v -0.278199 2.387106 0.480897
v 0.276207 2.274046 0.472310
v -0.412254 2.355653 0.575973
v -1.139811 2.030466 -0.091215
v -0.259344 2.561918 0.126904
v 0.296263 2.418986 0.211903
v -0.988942 1.901562 0.066643
v -0.422925 2.635865 0.147930
v -0.758947 2.268311 0.583686
v -1.430191 1.938403 0.174988
v -1.155538 1.981504 0.379561
v -0.941739 2.585904 0.321567
v -0.610229 2.673707 0.214622
v -0.484145 2.312323 0.549139
v -1.118524 1.911697 0.067258
v -1.727754 0.680653 0.857104
v -1.602680 0.662493 0.906064
v -1.578986 0.485410 0.706756
v -1.655328 0.496495 0.676872
v 0.414518 2.188819 0.466903
v 0.563367 2.379213 0.232944
v 0.386586 2.300945 0.476006
v 0.426939 2.435603 0.255208
v 0.678163 1.873185 0.332726
v 0.837698 1.958771 0.191682
v 0.691328 1.952131 0.384119
v 0.805047 2.064181 0.253030
v 0.867948 1.646699 0.350397
v 0.962464 1.678716 0.295010
v 0.929192 1.623731 0.433478
v 1.021521 1.664042 0.376727
v 0.882966 1.498681 0.398482
v 1.076575 1.580678 0.283994
v 0.945231 1.418385 0.567361
v 1.234071 1.540143 0.388406
v -0.114572 2.435660 0.507969
v 0.095276 2.406838 0.498851
v -0.102569 2.541745 0.262907
v 0.101119 2.510201 0.256981
v -0.058223 2.740753 0.666628
v 0.147185 2.673963 0.631158
v -0.061734 2.863269 0.416959
v 0.142701 2.796917 0.380583
v -0.509815 1.176729 -0.031968
v -0.380164 1.218376 -0.233543
v -0.039691 1.277984 -0.333931
v -0.724663 1.831607 -0.041985
v 0.544036 1.146108 -0.120884
v 0.328684 1.152705 -0.251335
v 0.023077 1.525070 -0.322045
v -0.032325 1.146405 0.194749
v 0.515790 2.074767 0.184977
v -0.265047 2.448709 0.357055
v -0.426351 2.606788 0.420185
v -0.925686 1.979553 -0.048235
v 0.265076 2.404069 0.372181
v -0.787400 2.496008 0.546409
v -1.332300 2.082694 0.419484
v -0.578966 2.593286 0.409247
v -1.677250 0.670445 0.911907
v -1.594678 0.375334 0.591505
v 0.518346 2.295415 0.387071
v 0.409074 2.412972 0.389361
v 0.728138 1.894234 0.215148
v 0.781613 2.019443 0.358085
v 0.914339 1.665533 0.322052
v 0.975330 1.643180 0.404892
v 0.966296 1.540018 0.320122
v 1.065085 1.481329 0.439640
v -0.109908 2.487812 0.383848
v 0.095990 2.460101 0.377107
v -0.091207 2.803750 0.543292
v 0.176461 2.733969 0.504991
v -1.482288 0.988825 0.849511
v -1.537149 0.813268 0.783559
v -1.697814 0.990619 0.766973
v -1.654873 0.830360 0.737476
v -1.591864 0.654426 0.687837
v -1.613401 0.970567 0.860121
v -0.040249 1.760559 0.512042
v 0.160866 2.137483 -0.190058
v 0.107664 2.515774 0.077036
v 0.023163 2.266766 0.628822
v -0.004781 2.525131 0.257799
v -0.004938 2.419614 0.501964
v 0.039718 2.848169 0.360778
v 0.044955 2.688982 0.686240
v 0.046557 2.818352 0.548728
v 0.134942 2.665428 0.294483
v 0.136164 2.528714 0.580847
v -0.099922 2.579956 0.609250
v -0.103258 2.717633 0.320444
v -0.118336 2.650168 0.466058
v 0.150676 2.597096 0.436922
v 0.014738 2.700594 0.287147
v 0.019361 2.543657 0.614647
v 0.505374 1.664710 -0.028604
v -0.579763 1.504191 0.200902
v 0.609337 1.783348 -0.225778
v 0.161374 1.167677 0.214124
v -0.266394 0.145956 -0.426509
v -0.415272 0.096743 -0.320007
v -0.431970 0.199648 -0.548634
v -0.296306 0.205021 -0.557464
v 0.266707 0.013555 0.161942
v 0.195642 -0.001348 0.084773
v 0.277361 0.007946 0.124170
v 0.246685 0.001947 0.097364
v 0.207266 0.013230 0.170387
v 0.065000 0.852497 -0.052353
v 0.112399 0.625146 0.039454
v 0.138481 0.325441 0.083613
v 0.164413 0.312296 0.263177
v 0.153603 0.564026 0.321294
v 0.169898 0.841566 0.341780
v 0.287356 0.306310 0.243336
v 0.361596 0.559925 0.289793
v 0.461144 0.884094 0.275526
v 0.319317 0.856166 -0.022394
v 0.290262 0.613220 0.076577
v 0.244269 0.317958 0.107918
v 0.308622 0.311489 0.163682
v 0.399725 0.604866 0.166595
v 0.487793 0.877092 0.086803
v -0.234162 0.824316 0.236905
v -0.229378 0.545500 0.078434
v -0.241104 0.332579 -0.052309
v -0.523169 0.358870 -0.088498
v -0.510258 0.618992 0.017471
v -0.510324 0.867293 0.096445
v -0.522434 0.507077 -0.316110
v -0.507725 0.758279 -0.209103
v -0.500078 0.935529 -0.168362
v -0.107871 0.862886 -0.174254
v -0.164411 0.716383 -0.228978
v -0.226291 0.526775 -0.303722
vn -0.0370 0.5742 -0.8179
vn -0.0213 0.1026 -0.9945
vn 0.4935 -0.2660 -0.8281
vn -0.2965 -0.2821 0.9124
vn 0.9356 -0.1344 0.3265
vn 0.6043 0.7637 0.2273
vn 0.1656 0.9057 -0.3902
vn 0.5113 -0.2515 0.8218
vn -0.1195 0.9004 0.4184
vn -0.1518 0.5799 -0.8004
vn -0.1312 -0.5253 0.8407
vn -0.3675 -0.8674 -0.3355
vn -0.2272 -0.1495 0.9623
vn 0.3353 -0.8681 0.3660
vn 0.9475 -0.2415 0.2097
vn 0.0491 -0.7853 0.6172
vn 0.1057 0.9695 0.2211
vn 0.0178 -0.7382 0.6743
vn -0.6854 0.2633 0.6789
vn 0.9352 0.0318 -0.3526
vn -0.8635 0.0177 -0.5040
vn 0.5574 0.7320 0.3918
vn 0.3510 0.1689 0.9210
vn -0.2962 -0.5311 0.7938
vn -0.1496 0.6084 0.7794
vn -0.6833 -0.4579 0.5687
vn -0.1817 -0.5514 -0.8142
vn 0.8363 0.5478 -0.0217
vn -0.3626 -0.6044 0.7093
vn 0.5206 0.7652 -0.3788
vn 0.2126 0.2588 0.9422
vn 0.8757 0.3180 -0.3633
vn -0.0809 -0.4225 -0.9027
vn 0.1345 -0.8397 -0.5261
vn -0.3118 -0.1776 -0.9334
vn -0.8528 0.1779 0.4910
vn 0.4656 0.4766 0.7457
vn 0.9819 -0.0141 -0.1891
vn 0.3559 0.5306 0.7693
vn 0.1355 0.9907 0.0149
vn -0.3044 0.8739 0.3790
vn 0.3923 0.8836 0.2557
vn 0.0607 0.9590 0.2770
vn -0.9647 0.1084 0.2402
vn 0.2968 -0.4010 0.8667
vn -0.2532 0.5279 -0.8107
vn -0.6835 -0.4902 -0.5409
vn -0.9218 -0.3546 0.1569
vn 0.1496 0.1427 -0.9784
vn -0.9680 0.2472 -0.0432
vn 0.0634 0.8068 0.5874
vn 0.4311 0.7055 0.5625
vn -0.2652 0.8744 0.4064
vn 0.9833 -0.1627 0.0821
vn 0.2020 0.3616 0.9102
vn -0.5356 -0.2664 -0.8013
vn 0.0140 -0.8977 -0.4404
vn -0.5678 -0.6179 -0.5439
vn 0.6608 0.4765 0.5800
vn -0.3884 -0.7275 -0.5657
vn -0.1153 0.9876 0.1067
vn 0.6775 0.5719 0.4625
vn 0.5443 0.2860 0.7886
vn -0.4146 0.2278 -0.8810
vn 0.0714 0.1496 0.9862
vn -0.6447 -0.6420 0.4150
vn -0.2545 0.4294 0.8665
vn -0.7192 0.6194 0.3147
vn -0.3642 -0.8529 -0.3739
vn 0.2143 0.3672 0.9051
vn 0.5651 0.5508 0.6142
vn 0.2382 0.3269 0.9146
vn -0.4516 0.6110 -0.6501
vn -0.8623 0.3910 0.3217
vn 0.9550 -0.2675 0.1285
vn 0.5149 0.6666 0.5390
vn 0.2782 0.4524 -0.8473
vn -0.2346 -0.3332 0.9132
vn 0.5087 0.8411 0.1837
vn 0.3378 0.9403 0.0414
vn -0.1261 0.5072 0.8525
vn -0.4704 -0.1353 0.8720
vn 0.2228 0.7617 -0.6085
vn -0.1364 -0.6054 0.7841
vn 0.0696 0.1869 -0.9799
vn 0.9489 -0.3039 -0.0848
vn -0.9967 0.0065 -0.0808
vn -0.1328 0.2446 -0.9605
vn 0.0518 -0.6283 0.7763
vn -0.9988 -0.0082 0.0476
vn 0.9591 -0.2414 -0.1476
vn 0.0850 -0.9676 -0.2376
vn 0.1400 -0.7864 0.6017
vn -0.9745 -0.1761 0.1390
vn -0.9625 -0.2504 -0.1041
vn 0.9931 -0.0758 -0.0894
vn -0.0289 0.6107 -0.7914
vn 0.0080 -0.9114 -0.4115
vn 0.0299 -0.9857 0.1656
vn 0.1390 -0.2748 0.9514
vn 0.2298 0.0355 -0.9726
vn 0.9559 -0.1360 0.2603
vn 0.6557 0.0304 -0.7544
vn 0.4474 -0.5785 -0.6820
vn 0.5496 -0.3826 -0.7426
vn 0.6228 -0.1818 -0.7610
vn 0.9849 -0.1139 0.1306
vn 0.9481 -0.2724 0.1638
vn 0.9329 -0.3000 0.1990
vn 0.0358 -0.5738 -0.8182
vn 0.1358 -0.3679 -0.9199
vn 0.2014 -0.1299 -0.9709
vn 0.2080 0.4120 0.8871
vn 0.1955 -0.0478 0.9795
vn 0.1431 -0.2178 0.9655
vn -0.9498 0.0267 0.3119
vn -0.9776 -0.0308 0.2080
vn -0.9887 -0.0695 0.1327
vn -0.1430 -0.2684 -0.9526
vn 0.0101 0.2810 -0.9597
vn 0.0024 0.3808 -0.9246
vn 0.8973 0.1415 0.4181
vn 0.9578 -0.2132 0.1928
vn 0.9820 -0.1883 0.0172
vn -0.9589 0.1094 -0.2619
vn -0.9996 0.0225 -0.0165
vn -0.9988 0.0451 0.0213
vn -0.5904 0.1440 0.7941
vn -0.3839 -0.3822 0.8406
vn -0.2267 -0.4264 0.8757
vn 0.5186 -0.2114 0.8285
vn 0.3846 0.3756 -0.8432
vn -0.1719 -0.4560 -0.8732
vn -0.1704 -0.8002 -0.5751
vn -0.8210 -0.1172 -0.5587
vt 0.461701 0.809397
vt 0.301930 0.729761
vt 0.094158 0.499911
vt 0.498737 0.648456
vt 0.250869 0.553264
vt 0.714874 0.752530
vt 0.627854 0.740386
vt 0.227533 0.339544
vt 0.300362 0.438253
vt 0.625828 0.633709
vt 0.338991 0.679376
vt 0.653754 0.621457
vt 0.189641 0.785401
vt 0.531284 0.815038
vt 0.232114 0.729761
vt 0.806952 0.326283
vt 0.527824 0.712310
vt 0.703640 0.331352
vt 0.725736 0.123548
vt 0.557184 0.740386
vt 0.714874 0.681901
vt 0.693091 0.138725
vt 0.558638 0.706064
vt 0.944491 0.391302
vt 0.108931 0.369345
vt 0.090202 0.443431
vt 0.952837 0.467016
vt 0.108059 0.346292
vt 0.960024 0.371234
vt 0.653754 0.712739
vt 0.761990 0.055860
vt 0.265996 0.788213
vt 0.829683 0.188590
vt 0.886815 0.394232
vt 0.909606 0.471204
vt 0.826550 0.267021
vt 0.659457 0.749480
vt 0.206417 0.267620
vt 0.238389 0.812575
vt 0.882743 0.373659
vt 0.837846 0.166681
vt 0.102618 0.289588
vt 0.957957 0.321520
vt 0.918648 0.216117
vt 0.803322 0.012950
vt 0.106348 0.638847
vt 0.232551 0.755661
vt 0.798789 0.485160
vt 0.965752 0.239402
vt 0.153968 0.222285
vt 0.894228 0.312474
vt 0.856067 0.102710
vt 0.881967 0.351902
vt 0.842627 0.144082
vt 0.107159 0.331692
vt 0.958812 0.358201
vt 0.199778 0.246429
vt 0.138792 0.619338
vt 0.232114 0.797406
vt 0.967580 0.012950
vt 0.753483 0.682459
vt 0.843831 0.469074
vt 0.256421 0.022764
vt 0.824689 0.472884
vt 0.987050 0.016155
vt 0.832147 0.505580
vt 0.295109 0.018166
vt 0.782932 0.707368
vt 0.843831 0.503254
vt 0.076417 0.467161
vt 0.958695 0.494573
vt 0.833773 0.298242
vt 0.909847 0.503107
vt 0.076958 0.454690
vt 0.951531 0.482650
vt 0.837149 0.281767
vt 0.912926 0.487172
vt 0.064432 0.532285
vt 0.298790 0.687460
vt 0.825577 0.362572
vt 0.264894 0.686125
vt 0.056614 0.518895
vt 0.959622 0.549977
vt 0.837123 0.350740
vt 0.929664 0.555276
vt 0.051257 0.577890
vt 0.291936 0.641182
vt 0.824256 0.407314
vt 0.275162 0.640522
vt 0.035793 0.577862
vt 0.964581 0.612577
vt 0.838997 0.411720
vt 0.948088 0.615681
vt 0.039898 0.592711
vt 0.301778 0.620707
vt 0.403076 0.772170
vt 0.830596 0.428615
vt 0.403076 0.737417
vt 0.267017 0.619338
vt 0.012950 0.593438
vt 0.987050 0.637067
vt 0.428919 0.781443
vt 0.856067 0.440612
vt 0.428919 0.728949
vt 0.935424 0.646785
vt 0.945356 0.412724
vt 0.357115 0.854737
vt 0.331665 0.779032
vt 0.948027 0.441601
vt 0.799629 0.752473
vt 0.327972 0.853161
vt 0.906904 0.416128
vt 0.370069 0.779032
vt 0.684668 0.778429
vt 0.909575 0.445005
vt 0.655249 0.778999
vt 0.799629 0.791035
vt 0.330193 0.729131
vt 0.557184 0.775635
vt 0.363063 0.804932
vt 0.331684 0.807874
vt 0.754247 0.751428
vt 0.586563 0.768755
vt 0.566112 0.815056
vt 0.689281 0.828405
vt 0.370405 0.729131
vt 0.754247 0.791805
vt 0.657717 0.824383
vt 0.595492 0.808176
vt 0.327830 0.637821
vt 0.590400 0.642651
vt 0.164818 0.789976
vt 0.357235 0.619338
vt 0.642851 0.190721
vt 0.562581 0.649581
vt 0.406824 0.626953
vt 0.080449 0.619338
vt 0.646201 0.239681
vt 0.727583 0.656002
vt 0.597847 0.731399
vt 0.712829 0.722239
vt 0.658284 0.323708
vt 0.527919 0.666449
vt 0.661748 0.291537
vt 0.680225 0.245582
vt 0.377645 0.696957
vt 0.285191 0.477898
vt 0.483372 0.812325
vt 0.280072 0.728266
vt 0.924330 0.393087
vt 0.921760 0.373660
vt 0.678504 0.727397
vt 0.268491 0.812575
vt 0.930826 0.465310
vt 0.923786 0.327561
vt 0.941993 0.227167
vt 0.764056 0.466512
vt 0.919524 0.351927
vt 0.977463 0.013354
vt 0.833186 0.466512
vt 0.317617 0.012950
vt 0.798789 0.722800
vt 0.839639 0.522681
vt 0.934403 0.500152
vt 0.932138 0.484309
vt 0.281656 0.689101
vt 0.944784 0.554368
vt 0.283549 0.640852
vt 0.956335 0.614129
vt 0.284323 0.620942
vt 0.399765 0.754789
vt 0.961112 0.640376
vt 0.422297 0.755187
vt 0.926130 0.414426
vt 0.350867 0.779032
vt 0.928801 0.443303
vt 0.799629 0.771754
vt 0.350773 0.728949
vt 0.557184 0.796361
vt 0.753483 0.771844
vt 0.595492 0.787450
vt 0.985581 0.067358
vt 0.238180 0.070710
vt 0.259592 0.052321
vt 0.138792 0.821791
vt 0.953366 0.057503
vt 0.765454 0.639660
vt 0.120235 0.821584
vt 0.772730 0.660154
vt 0.283154 0.037949
vt 0.784440 0.682652
vt 0.128680 0.843910
vt 0.970110 0.058056
vt 0.758353 0.637393
vt 0.180368 0.432154
vt 0.759258 0.257498
vt 0.884976 0.446549
vt 0.828099 0.241547
vt 0.971226 0.428512
vt 0.101516 0.405509
vt 0.908240 0.430567
vt 0.669958 0.778714
vt 0.946692 0.427163
vt 0.342544 0.853949
vt 0.673120 0.826722
vt 0.582140 0.817526
vt 0.570535 0.766286
vt 0.348248 0.806122
vt 0.576699 0.792002
vt 0.653753 0.802281
vt 0.776512 0.794925
vt 0.776512 0.748700
vt 0.327830 0.829868
vt 0.363063 0.830170
vt 0.327830 0.753980
vt 0.373865 0.753980
vt 0.689281 0.803194
vt 0.351093 0.753886
vt 0.776117 0.771930
vt 0.671321 0.802907
vt 0.345899 0.829874
vt 0.457498 0.727404
vt 0.165986 0.548054
vt 0.260364 0.376248
vt 0.625887 0.695531
vt 0.520555 0.743605
vt 0.734596 0.339638
vt 0.406824 0.703049
vt 0.012950 0.651015
vt 0.277407 0.507014
vt 0.206214 0.619338
vt 0.706517 0.466512
vt 0.399765 0.822801
vt 0.181517 0.620770
vt 0.619265 0.470337
vt 0.422433 0.807343
vt 0.582936 0.466512
vt 0.458892 0.202188
vt 0.422433 0.843958
vt 0.727583 0.468029
vt 0.460639 0.221880
vt 0.402692 0.843997
vt 0.717439 0.778459
vt 0.429089 0.593438
vt 0.518160 0.466685
vt 0.070962 0.817001
vt 0.726094 0.791097
vt 0.457498 0.298878
vt 0.715181 0.783741
vt 0.523936 0.466512
vt 0.458951 0.311476
vt 0.719061 0.788282
vt 0.458165 0.306435
vt 0.058766 0.817583
vt 0.726094 0.778429
vt 0.431598 0.585369
vt 0.599953 0.261833
vt 0.080449 0.668491
vt 0.542336 0.274386
vt 0.076079 0.728305
vt 0.500395 0.287212
vt 0.064936 0.773359
vt 0.389801 0.564275
vt 0.039540 0.774208
vt 0.356388 0.547019
vt 0.031995 0.737396
vt 0.319737 0.531779
vt 0.030523 0.696843
vt 0.505723 0.512116
vt 0.384015 0.580847
vt 0.506522 0.550736
vt 0.346302 0.574833
vt 0.507607 0.604105
vt 0.294291 0.566034
vt 0.610540 0.298468
vt 0.545535 0.300686
vt 0.502363 0.302883
vt 0.504402 0.313331
vt 0.517745 0.511765
vt 0.548610 0.318269
vt 0.527842 0.556627
vt 0.609940 0.323717
vt 0.531284 0.618364
vt 0.660591 0.582499
vt 0.204501 0.743892
vt 0.668589 0.550878
vt 0.206214 0.710848
vt 0.668004 0.517120
vt 0.204545 0.678125
vt 0.623877 0.525891
vt 0.164692 0.675333
vt 0.610236 0.563455
vt 0.167167 0.712219
vt 0.605277 0.597358
vt 0.166352 0.745757
vt 0.511839 0.183186
vt 0.584607 0.521652
vt 0.552303 0.182624
vt 0.569857 0.561129
vt 0.598009 0.178631
vt 0.565182 0.606784
vt 0.592158 0.236754
vt 0.721184 0.600612
vt 0.550092 0.232946
vt 0.722606 0.558204
vt 0.518921 0.225772
vt 0.713819 0.525134
s 0
usemtl Material
f 89/196/1 7/19/1 13/33/1 90/198/1
f 8/22/2 7/19/2 89/196/2 58/145/2 54/138/2 53/134/2
f 6/18/3 56/142/3 57/144/3
f 3/8/4 106/224/4 4/9/4 59/147/4 88/195/4
f 6/17/5 107/226/5 5/14/5 60/148/5 1/1/5 105/222/5 2/4/5 56/143/5
f 61/150/6 13/34/6 16/40/6 62/151/6
f 5/16/7 14/36/7 31/76/7 29/72/7
f 88/195/8 1/3/8 10/26/8 91/200/8
f 67/158/9 21/53/9 20/51/9 65/155/9
f 13/33/10 7/19/10 12/31/10 16/41/10
f 3/8/11 9/25/11 11/28/11 15/38/11
f 55/141/12 3/6/12 15/37/12 63/152/12
f 66/156/13 19/49/13 17/43/13 65/155/13
f 23/57/14 22/55/14 17/42/14 19/50/14
f 83/184/15 82/183/15 25/63/15 26/67/15
f 15/38/16 11/28/16 22/55/16 23/57/16
f 62/151/17 16/40/17 21/53/17 67/158/17
f 69/163/18 26/66/18 25/64/18 68/160/18
f 87/193/19 84/186/19 24/60/19 68/159/19
f 86/190/20 83/184/20 26/67/20 69/161/20
f 84/187/21 85/189/21 27/68/21 24/61/21
f 70/164/22 29/73/22 31/77/22 71/165/22
f 70/164/23 28/71/23 34/83/23 73/167/23
f 10/26/24 1/3/24 28/70/24 30/74/24
f 64/154/25 10/27/25 30/75/25 71/165/25
f 34/82/26 32/78/26 36/86/26 38/90/26
f 60/149/27 5/15/27 33/81/27 72/166/27
f 5/16/28 29/72/28 35/84/28 33/80/28
f 28/70/29 1/3/29 32/78/29 34/82/29
f 37/88/30 39/92/30 43/103/30 41/97/30
f 73/167/31 34/83/31 38/91/31 75/169/31
f 33/80/32 35/84/32 39/92/32 37/88/32
f 72/166/33 33/81/33 37/89/33 74/168/33
f 76/171/34 41/98/34 43/104/34 77/173/34
f 74/168/35 37/89/35 41/99/35 76/170/35
f 38/90/36 36/86/36 40/94/36 42/100/36
f 75/169/37 38/91/37 42/101/37 77/172/37
f 102/219/38 97/211/38 51/127/38 81/180/38
f 91/199/39 10/27/39 45/109/39 93/203/39
f 90/197/40 13/34/40 46/112/40 92/201/40
f 61/150/41 9/24/41 44/106/41 78/174/41
f 64/154/42 14/35/42 47/115/42 79/176/42
f 96/209/43 94/206/43 50/124/43 80/179/43
f 101/218/44 99/215/44 48/118/44 80/178/44
f 104/221/45 98/213/45 49/121/45 95/208/45
f 103/220/46 100/217/46 50/125/46 94/205/46
f 8/23/47 53/135/47 52/131/47
f 8/23/48 52/131/48 4/10/48 106/225/48 3/7/48 55/140/48 7/20/48
f 54/138/49 58/145/49 89/196/49 5/16/49 107/227/49 6/18/49 57/144/49
f 100/216/50 101/218/50 80/178/50 50/126/50
f 95/207/51 96/209/51 80/179/51 48/119/51
f 10/27/52 64/154/52 79/176/52 45/109/52
f 13/34/53 61/150/53 78/174/53 46/112/53
f 98/212/54 102/219/54 81/180/54 49/122/54
f 39/93/55 75/169/55 77/172/55 43/105/55
f 36/87/56 74/168/56 76/170/56 40/95/56
f 40/96/57 76/171/57 77/173/57 42/102/57
f 32/79/58 72/166/58 74/168/58 36/87/58
f 35/85/59 73/167/59 75/169/59 39/93/59
f 1/2/60 60/149/60 72/166/60 32/79/60
f 14/35/61 64/154/61 71/165/61 31/77/61
f 29/73/62 70/164/62 73/167/62 35/85/62
f 28/71/63 70/164/63 71/165/63 30/75/63
f 85/189/64 86/191/64 69/162/64 27/68/64
f 82/182/65 87/193/65 68/159/65 25/65/65
f 27/69/66 69/163/66 68/160/66 24/62/66
f 11/29/67 62/151/67 67/158/67 22/56/67
f 18/44/68 66/156/68 65/155/68 20/51/68
f 7/21/69 55/141/69 63/152/69 12/30/69
f 22/56/70 67/158/70 65/155/70 17/43/70
f 9/24/71 61/150/71 62/151/71 11/29/71
f 19/49/72 66/156/72 87/193/72 82/182/72
f 12/31/73 18/45/73 20/52/73 21/54/73 16/41/73
f 66/157/74 18/48/74 84/187/74 87/194/74
f 23/57/75 19/50/75 82/183/75 83/184/75
f 49/123/76 81/181/76 96/209/76 95/207/76
f 97/210/77 103/220/77 94/205/77 51/128/77
f 99/214/78 104/221/78 95/208/78 48/120/78
f 81/181/79 51/129/79 94/206/79 96/209/79
f 14/35/80 90/197/80 92/201/80 47/115/80
f 9/24/81 91/199/81 93/203/81 44/106/81
f 3/8/82 88/195/82 91/200/82 9/25/82
f 5/16/83 89/196/83 90/198/83 14/36/83
f 44/107/84 93/204/84 104/221/84 99/214/84
f 47/116/85 92/202/85 103/220/85 97/210/85
f 45/110/86 79/177/86 102/219/86 98/212/86
f 46/113/87 78/175/87 101/218/87 100/216/87
f 92/202/88 46/114/88 100/217/88 103/220/88
f 93/204/89 45/111/89 98/213/89 104/221/89
f 78/175/90 44/108/90 99/215/90 101/218/90
f 79/177/91 47/117/91 97/211/91 102/219/91
f 59/146/92 4/11/92 52/130/92 53/133/92 54/136/92 108/228/92
f 136/291/93 110/234/93 109/231/93 135/289/93
f 121/264/94 120/262/94 114/246/94 117/254/94
f 139/297/95 111/237/95 110/235/95 136/290/95
f 135/288/96 109/232/96 112/240/96 144/307/96
f 144/306/97 112/241/97 111/238/97 139/296/97
f 111/239/98 112/242/98 109/233/98 110/236/98
f 117/255/99 114/247/99 116/252/99 115/249/99 113/243/99
f 124/270/100 121/263/100 117/256/100 113/244/100
f 120/261/101 129/277/101 116/253/101 114/248/101
f 130/279/102 124/269/102 113/245/102 115/250/102
f 129/277/103 130/278/103 115/251/103 116/253/103
f 57/144/104 56/142/104 132/282/104 127/275/104
f 127/275/105 132/282/105 131/280/105 128/276/105
f 128/276/106 131/280/106 130/278/106 129/277/106
f 56/143/107 2/4/107 126/273/107 132/283/107
f 132/283/108 126/273/108 125/271/108 131/281/108
f 131/281/109 125/271/109 124/269/109 130/279/109
f 54/138/110 57/144/110 127/275/110 118/257/110
f 118/257/111 127/275/111 128/276/111 119/259/111
f 119/259/112 128/276/112 129/277/112 120/261/112
f 2/5/113 108/230/113 123/267/113 126/274/113
f 126/274/114 123/267/114 122/265/114 125/272/114
f 125/272/115 122/265/115 121/263/115 124/270/115
f 108/229/116 54/137/116 118/258/116 123/268/116
f 123/268/117 118/258/117 119/260/117 122/266/117
f 122/266/118 119/260/118 120/262/118 121/264/118
f 54/138/119 142/302/119 141/300/119 53/134/119
f 142/302/120 143/304/120 140/298/120 141/300/120
f 143/304/121 144/306/121 139/296/121 140/298/121
f 4/12/122 133/284/122 142/303/122 54/139/122
f 133/284/123 134/286/123 143/305/123 142/303/123
f 134/286/124 135/288/124 144/307/124 143/305/124
f 53/135/125 141/301/125 138/294/125 52/131/125
f 141/301/126 140/299/126 137/292/126 138/294/126
f 140/299/127 139/297/127 136/290/127 137/292/127
f 52/132/128 138/295/128 133/285/128 4/13/128
f 138/295/129 137/293/129 134/287/129 133/285/129
f 137/293/130 136/291/130 135/289/130 134/287/130
f 105/223/131 1/3/131 88/195/131 59/147/131 108/230/131 2/5/131
f 86/192/132 85/188/132 83/185/132
f 83/185/133 85/188/133 18/46/133 23/58/133
f 63/153/134 15/39/134 23/59/134 18/47/134 12/32/134
f 84/187/135 18/48/135 85/189/135
l 52 106
