# Blender 3.3.1
# www.blender.org
mtllib monstruo_3_grande_caminar513.mtl
o monstruo_grande
v 0.439213 1.992114 0.235584
v 0.518670 1.165448 0.114224
v -0.688213 1.811057 0.171165
v -0.315339 1.125681 0.200778
v 0.590585 2.272386 -0.116202
v 0.548129 1.584436 -0.232341
v -0.800662 2.049045 -0.236661
v -0.711846 1.755816 -0.309338
v -0.251249 2.404127 0.473123
v 0.298946 2.274704 0.432123
v -0.384869 2.375129 0.569805
v -1.171205 2.131928 -0.076768
v -0.236094 2.578889 0.120366
v 0.299136 2.419406 0.172968
v -1.027334 1.983205 0.063321
v -0.392304 2.661411 0.149346
v -0.739593 2.307400 0.586033
v -1.456012 2.059964 0.201509
v -1.171523 2.076477 0.390595
v -0.904724 2.653254 0.351115
v -0.570387 2.712930 0.229356
v -0.462841 2.330342 0.540224
v -1.156322 2.012817 0.072531
v -1.789293 0.802212 0.876070
v -1.663541 0.777763 0.920330
v -1.659574 0.593375 0.726349
v -1.736330 0.608298 0.699334
v 0.458077 2.186405 0.414929
v 0.553521 2.378321 0.152823
v 0.415643 2.299783 0.426998
v 0.431030 2.434681 0.200298
v 0.692005 1.865019 0.212517
v 0.798826 1.970679 0.036603
v 0.712758 1.947722 0.264916
v 0.788864 2.064568 0.110746
v 0.865836 1.653393 0.127380
v 0.942748 1.689439 0.051130
v 0.945047 1.600640 0.172809
v 1.019592 1.648576 0.098271
v 0.866265 1.497241 0.126971
v 1.025236 1.593430 -0.025037
v 0.963615 1.363469 0.234080
v 1.195353 1.507472 -0.002223
v -0.086966 2.441953 0.495403
v 0.122031 2.409666 0.478291
v -0.080689 2.548487 0.249972
v 0.118100 2.513289 0.236007
v -0.042424 2.759512 0.630455
v 0.164988 2.699015 0.595350
v -0.055463 2.863950 0.373480
v 0.152003 2.803502 0.338818
v -0.505487 1.171077 -0.026303
v -0.375655 1.209992 -0.228326
v -0.041145 1.274763 -0.334527
v -0.743281 1.861828 -0.045592
v 0.553083 1.164640 -0.122244
v 0.340131 1.163794 -0.258186
v 0.017308 1.521312 -0.329064
v -0.030607 1.144014 0.193282
v 0.491417 2.075910 0.117604
v -0.239517 2.465525 0.349167
v -0.390458 2.630516 0.418427
v -0.955445 2.045122 -0.049037
v 0.280483 2.404802 0.333293
v -0.746778 2.537305 0.562180
v -1.336237 2.188309 0.445681
v -0.543254 2.624210 0.413278
v -1.737151 0.790571 0.929021
v -1.687062 0.480944 0.615673
v 0.543357 2.293612 0.312172
v 0.427038 2.412003 0.336549
v 0.700353 1.901932 0.084515
v 0.792280 2.018135 0.217187
v 0.903225 1.675455 0.089639
v 0.982064 1.623642 0.135063
v 0.925536 1.552904 0.036519
v 1.044607 1.451459 0.091469
v -0.085505 2.494198 0.372115
v 0.118179 2.462569 0.356759
v -0.080358 2.812206 0.503756
v 0.189808 2.750764 0.465256
v -1.525910 1.093940 0.847696
v -1.594313 0.920199 0.790120
v -1.744277 1.106277 0.774239
v -1.712676 0.943210 0.748462
v -1.662852 0.762191 0.702242
v -1.657305 1.084309 0.864413
v -0.028661 1.771953 0.505249
v 0.137991 2.138941 -0.207506
v 0.118897 2.520648 0.056598
v 0.057874 2.271210 0.609021
v 0.015260 2.530016 0.242246
v 0.021851 2.428223 0.487016
v 0.046368 2.849385 0.317580
v 0.063235 2.713609 0.651423
v 0.056725 2.832894 0.505212
v 0.149089 2.666715 0.263464
v 0.160527 2.547582 0.556400
v -0.077497 2.592986 0.586152
v -0.089598 2.713268 0.291847
v -0.101014 2.653028 0.439848
v 0.169863 2.607227 0.408681
v 0.028026 2.698050 0.257311
v 0.042900 2.562225 0.590965
v 0.452125 1.678815 -0.012157
v -0.582226 1.512900 0.201235
v 0.556991 1.797706 -0.230878
v 0.162327 1.161254 0.204376
v -0.246840 0.080900 -0.282454
v -0.402707 0.069277 -0.175544
v -0.403506 0.109188 -0.423169
v -0.267543 0.104581 -0.425265
v 0.310179 -0.007187 0.226938
v 0.238364 -0.023766 0.151151
v 0.320393 -0.013315 0.189098
v 0.289443 -0.019875 0.162807
v 0.250905 -0.007650 0.236256
v 0.084086 0.837950 -0.076299
v 0.134183 0.581855 0.047740
v 0.174542 0.290932 0.133811
v 0.203588 0.300921 0.313026
v 0.181926 0.557145 0.340275
v 0.185601 0.835552 0.326501
v 0.326381 0.298011 0.291624
v 0.389198 0.557412 0.304168
v 0.475058 0.889826 0.260053
v 0.339985 0.857618 -0.042403
v 0.312846 0.582290 0.083652
v 0.280868 0.291060 0.156677
v 0.346243 0.294332 0.211524
v 0.423630 0.589044 0.172636
v 0.505366 0.885936 0.070961
v -0.222261 0.836281 0.255825
v -0.208015 0.554299 0.131225
v -0.212955 0.328769 0.034503
v -0.495525 0.342940 -0.006024
v -0.490748 0.611355 0.061102
v -0.498473 0.866032 0.111108
v -0.497871 0.453890 -0.251981
v -0.491723 0.720377 -0.184842
v -0.488203 0.923884 -0.158785
v -0.094812 0.860255 -0.160506
v -0.147278 0.686465 -0.200159
v -0.202607 0.483378 -0.242392
vn -0.0360 0.5773 -0.8157
vn -0.0326 0.0894 -0.9955
vn 0.5267 -0.2098 -0.8238
vn -0.2892 -0.2613 0.9209
vn 0.9551 -0.0392 0.2937
vn 0.6534 0.7265 0.2126
vn 0.1141 0.9062 -0.4072
vn 0.5720 -0.2596 0.7781
vn -0.0084 0.8862 0.4632
vn -0.1072 0.5804 -0.8073
vn -0.1728 -0.5048 0.8458
vn -0.4711 -0.8269 -0.3072
vn -0.1902 -0.1838 0.9644
vn 0.2614 -0.9135 0.3119
vn 0.9392 -0.2939 0.1778
vn 0.0015 -0.8094 0.5873
vn 0.1845 0.9531 0.2399
vn 0.0020 -0.7163 0.6978
vn -0.6380 0.3273 0.6970
vn 0.9190 -0.0382 -0.3924
vn -0.8822 0.0562 -0.4675
vn 0.6205 0.7271 0.2939
vn 0.5624 0.1647 0.8103
vn -0.2041 -0.5284 0.8241
vn -0.0696 0.6128 0.7871
vn -0.4848 -0.5644 0.6682
vn -0.3804 -0.5252 -0.7613
vn 0.8109 0.5471 -0.2075
vn -0.1821 -0.6155 0.7668
vn 0.5037 0.7970 -0.3334
vn 0.5319 0.1053 0.8403
vn 0.7249 0.3878 -0.5693
vn -0.3763 -0.2911 -0.8796
vn -0.2136 -0.6370 -0.7407
vn -0.6167 0.1602 -0.7707
vn -0.5912 0.0954 0.8009
vn 0.7692 0.1789 0.6134
vn 0.9788 0.0163 -0.2043
vn 0.4290 0.5071 0.7476
vn 0.1733 0.9842 0.0372
vn -0.2413 0.8866 0.3946
vn 0.4412 0.8673 0.2307
vn 0.0230 0.9773 0.2108
vn -0.9646 0.0817 0.2509
vn 0.3253 -0.3189 0.8902
vn -0.2881 0.4478 -0.8465
vn -0.6819 -0.4993 -0.5344
vn -0.9181 -0.3585 0.1688
vn 0.1415 0.0989 -0.9850
vn -0.9794 0.1961 -0.0489
vn 0.0393 0.8482 0.5281
vn 0.4997 0.6906 0.5229
vn -0.2013 0.8857 0.4184
vn 0.9911 -0.1075 0.0787
vn 0.5568 0.0420 0.8296
vn -0.8108 0.0459 -0.5835
vn -0.3085 -0.7156 -0.6267
vn -0.7301 -0.5549 -0.3989
vn 0.8346 0.3873 0.3917
vn -0.5202 -0.7091 -0.4760
vn -0.0927 0.9888 0.1172
vn 0.7703 0.5638 0.2978
vn 0.6401 0.3293 0.6942
vn -0.4382 0.2257 -0.8701
vn 0.1238 0.1756 0.9766
vn -0.6640 -0.5868 0.4633
vn -0.2242 0.4123 0.8830
vn -0.6411 0.6708 0.3728
vn -0.4676 -0.7872 -0.4022
vn 0.2956 0.3096 0.9037
vn 0.6020 0.5172 0.6084
vn 0.3160 0.2784 0.9070
vn -0.4221 0.6771 -0.6028
vn -0.8243 0.4246 0.3746
vn 0.9444 -0.3214 0.0693
vn 0.4948 0.7239 0.4809
vn 0.2426 0.3985 -0.8845
vn -0.2005 -0.2749 0.9403
vn 0.4765 0.8711 0.1189
vn 0.3712 0.9277 0.0397
vn -0.0879 0.4991 0.8621
vn -0.4499 -0.1134 0.8858
vn 0.1682 0.7581 -0.6301
vn -0.0948 -0.5546 0.8267
vn 0.0270 0.1275 -0.9915
vn 0.9601 -0.2645 -0.0910
vn -0.9956 -0.0480 -0.0802
vn -0.1658 0.1682 -0.9717
vn 0.0768 -0.5663 0.8206
vn -0.9969 -0.0504 0.0606
vn 0.9606 -0.2219 -0.1673
vn 0.0780 -0.9715 -0.2238
vn 0.1071 -0.6717 0.7331
vn -0.9671 -0.1887 0.1708
vn -0.9649 -0.2529 -0.0711
vn 0.9924 -0.1023 -0.0679
vn -0.0097 0.4392 -0.8983
vn -0.0356 -0.9867 -0.1587
vn 0.0386 -0.9827 0.1809
vn 0.1597 -0.2140 0.9637
vn 0.2145 -0.0118 -0.9767
vn 0.9619 -0.1021 0.2538
vn 0.6441 0.0022 -0.7649
vn 0.4963 -0.5244 -0.6919
vn 0.5752 -0.3946 -0.7166
vn 0.6199 -0.2573 -0.7413
vn 0.9861 -0.0703 0.1507
vn 0.9607 -0.2152 0.1754
vn 0.9495 -0.2301 0.2132
vn 0.0708 -0.5280 -0.8463
vn 0.1630 -0.4143 -0.8954
vn 0.1958 -0.2559 -0.9467
vn 0.1826 0.3950 0.9003
vn 0.1950 0.0642 0.9787
vn 0.1703 -0.0893 0.9813
vn -0.9520 -0.0337 0.3042
vn -0.9775 -0.0311 0.2086
vn -0.9831 -0.0945 0.1571
vn -0.1397 -0.2954 -0.9451
vn -0.0001 0.1716 -0.9852
vn -0.0071 0.2277 -0.9737
vn 0.8932 0.1836 0.4104
vn 0.9650 -0.1567 0.2102
vn 0.9873 -0.1529 0.0433
vn -0.9600 0.0771 -0.2692
vn -0.9998 -0.0059 -0.0199
vn -0.9998 0.0168 0.0143
vn -0.6009 0.1528 0.7846
vn -0.3825 -0.3000 0.8739
vn -0.2197 -0.3033 0.9272
vn 0.5327 -0.1893 0.8249
vn 0.3695 0.3241 -0.8709
vn -0.2525 -0.4196 -0.8719
vn -0.2971 -0.7627 -0.5745
vn -0.8346 -0.0755 -0.5457
vt 0.882279 0.260085
vt 0.436089 0.649131
vt 0.117664 0.305524
vt 0.860974 0.338762
vt 0.079561 0.383885
vt 0.278417 0.728674
vt 0.111517 0.716819
vt 0.301243 0.337859
vt 0.232943 0.387386
vt 0.111517 0.662267
vt 0.671871 0.687525
vt 0.175114 0.511099
vt 0.930991 0.712692
vt 0.796001 0.259488
vt 0.522181 0.649131
vt 0.719621 0.316178
vt 0.801110 0.310020
vt 0.698705 0.366293
vt 0.510656 0.337024
vt 0.023033 0.717149
vt 0.367094 0.730187
vt 0.507246 0.358198
vt 0.018976 0.695717
vt 0.103380 0.570561
vt 0.268725 0.266033
vt 0.143950 0.273348
vt 0.098384 0.631539
vt 0.301351 0.259488
vt 0.128079 0.559933
vt 0.480438 0.333338
vt 0.348619 0.714075
vt 0.604958 0.268707
vt 0.031105 0.562973
vt 0.043818 0.625810
vt 0.721993 0.282954
vt 0.329365 0.336360
vt 0.302724 0.713315
vt 0.030374 0.549675
vt 0.582817 0.260846
vt 0.875347 0.642471
vt 0.380514 0.272320
vt 0.124895 0.517524
vt 0.813390 0.578569
vt 0.436089 0.332372
vt 0.956124 0.588845
vt 0.367094 0.692599
vt 0.367094 0.522797
vt 0.871643 0.594841
vt 0.398138 0.324445
vt 0.043891 0.509019
vt 0.796001 0.641153
vt 0.491075 0.268473
vt 0.032114 0.534706
vt 0.552485 0.259488
vt 0.331566 0.259909
vt 0.129819 0.544964
vt 0.339759 0.337186
vt 0.913298 0.588845
vt 0.317584 0.707220
vt 0.845734 0.463378
vt 0.311567 0.646434
vt 0.944558 0.353645
vt 0.398138 0.462439
vt 0.920230 0.354337
vt 0.870057 0.463781
vt 0.929709 0.374247
vt 0.357807 0.478584
vt 0.347994 0.663056
vt 0.944558 0.373825
vt 0.097076 0.285727
vt 0.229765 0.651022
vt 0.758050 0.297859
vt 0.168317 0.651042
vt 0.119329 0.272208
vt 0.094178 0.643292
vt 0.222768 0.636959
vt 0.746872 0.283208
vt 0.174541 0.636975
vt 0.045175 0.638147
vt 0.080672 0.327471
vt 0.442544 0.673801
vt 0.734592 0.339187
vt 0.484453 0.673801
vt 0.070725 0.319456
vt 0.218298 0.685110
vt 0.751374 0.331694
vt 0.180611 0.684911
vt 0.062412 0.356092
vt 0.455575 0.702696
vt 0.724658 0.367821
vt 0.476314 0.702696
vt 0.043357 0.357400
vt 0.210236 0.723455
vt 0.742364 0.370210
vt 0.189444 0.723462
vt 0.050281 0.367705
vt 0.444942 0.715336
vt 0.810526 0.722486
vt 0.728448 0.380153
vt 0.853695 0.722486
vt 0.487920 0.715336
vt 0.018975 0.371756
vt 0.232852 0.738567
vt 0.796001 0.739289
vt 0.758050 0.386241
vt 0.861207 0.739289
vt 0.167770 0.738589
vt 0.100634 0.583041
vt 0.712300 0.698974
vt 0.802197 0.701507
vt 0.098640 0.600731
vt 0.972705 0.287497
vt 0.747907 0.696578
vt 0.052045 0.577939
vt 0.849895 0.701507
vt 0.710445 0.675017
vt 0.050052 0.595630
vt 0.746553 0.677603
vt 0.924885 0.287497
vt 0.797725 0.671259
vt 0.981025 0.313792
vt 0.715147 0.730011
vt 0.752543 0.724602
vt 0.973919 0.259495
vt 0.967002 0.332143
vt 0.934252 0.306472
vt 0.715328 0.644023
vt 0.847669 0.671259
vt 0.923848 0.259495
vt 0.753088 0.649631
vt 0.920230 0.324823
vt 0.068284 0.665533
vt 0.630362 0.705721
vt 0.712055 0.621316
vt 0.966165 0.712391
vt 0.519769 0.388732
vt 0.031375 0.663704
vt 0.592215 0.695479
vt 0.581836 0.620019
vt 0.750017 0.621843
vt 0.569690 0.667298
vt 0.581066 0.387596
vt 0.531739 0.516092
vt 0.642835 0.625048
vt 0.273616 0.509019
vt 0.070982 0.710642
vt 0.316851 0.732164
vt 0.684917 0.393810
vt 0.816625 0.338063
vt 0.644803 0.392946
vt 0.602800 0.367236
vt 0.671871 0.661666
vt 0.181146 0.386242
vt 0.855113 0.259897
vt 0.463196 0.649131
vt 0.077903 0.567886
vt 0.078993 0.554271
vt 0.322237 0.720993
vt 0.070972 0.628379
vt 0.834014 0.651825
vt 0.084160 0.512738
vt 0.838315 0.596273
vt 0.320679 0.509019
vt 0.080733 0.539302
vt 0.857365 0.464048
vt 0.931678 0.351118
vt 0.335174 0.488977
vt 0.367094 0.673623
vt 0.939667 0.384854
vt 0.199177 0.651021
vt 0.069465 0.641494
vt 0.198664 0.632807
vt 0.464209 0.672968
vt 0.199604 0.684998
vt 0.465945 0.702696
vt 0.199840 0.723459
vt 0.466714 0.715004
vt 0.832520 0.720483
vt 0.200177 0.738589
vt 0.829423 0.735282
vt 0.076340 0.580490
vt 0.826046 0.701507
vt 0.074346 0.598181
vt 0.948795 0.287497
vt 0.823088 0.670800
vt 0.959731 0.307426
vt 0.948976 0.259488
vt 0.941524 0.331189
vt 0.875347 0.491894
vt 0.391834 0.432095
vt 0.377694 0.448634
vt 0.915590 0.478791
vt 0.834644 0.488373
vt 0.326937 0.619279
vt 0.938593 0.478810
vt 0.335216 0.632947
vt 0.358601 0.463790
vt 0.348787 0.648138
vt 0.927106 0.463378
vt 0.854274 0.489560
vt 0.315804 0.619182
vt 0.212520 0.321385
vt 0.644070 0.318501
vt 0.018976 0.592450
vt 0.663817 0.276029
vt 0.129819 0.597828
vt 0.224108 0.269832
vt 0.051049 0.586785
vt 0.728499 0.676310
vt 0.099637 0.591886
vt 0.730103 0.697776
vt 0.734390 0.646904
vt 0.920230 0.314550
vt 0.981025 0.324065
vt 0.732426 0.727384
vt 0.950683 0.319044
vt 0.753088 0.663662
vt 0.920230 0.273492
vt 0.977552 0.273492
vt 0.752543 0.710647
vt 0.709822 0.714522
vt 0.796001 0.686127
vt 0.853178 0.686127
vt 0.709822 0.659561
vt 0.824792 0.685890
vt 0.948939 0.273488
vt 0.731549 0.661651
vt 0.730449 0.712624
vt 0.878850 0.297575
vt 0.096711 0.342677
vt 0.285581 0.357771
vt 0.108549 0.696221
vt 0.804979 0.293594
vt 0.708839 0.350023
vt 0.668288 0.644023
vt 0.436089 0.526409
vt 0.145034 0.385321
vt 0.919159 0.607821
vt 0.247387 0.613831
vt 0.970304 0.416607
vt 0.947808 0.608020
vt 0.704660 0.516092
vt 0.970304 0.403829
vt 0.750017 0.516884
vt 0.618892 0.516092
vt 0.920230 0.404231
vt 0.273616 0.612878
vt 0.642836 0.516847
vt 0.938584 0.415207
vt 0.924281 0.443436
vt 0.075400 0.489812
vt 0.855524 0.444402
vt 0.531739 0.629156
vt 0.934913 0.435583
vt 0.576828 0.496673
vt 0.931440 0.443424
vt 0.848383 0.444289
vt 0.592622 0.497116
vt 0.934913 0.440184
vt 0.586164 0.496977
vt 0.517161 0.630156
vt 0.920230 0.438606
vt 0.085942 0.490043
vt 0.585376 0.420489
vt 0.510472 0.551446
vt 0.582586 0.444044
vt 0.504260 0.576063
vt 0.581388 0.469636
vt 0.508131 0.602400
vt 0.103684 0.463024
vt 0.477645 0.604263
vt 0.118194 0.440373
vt 0.454885 0.581958
vt 0.129418 0.415411
vt 0.438452 0.557360
vt 0.876897 0.417052
vt 0.081901 0.462161
vt 0.882279 0.393921
vt 0.081653 0.438865
vt 0.880271 0.363315
vt 0.079604 0.408162
vt 0.633117 0.418943
vt 0.615530 0.444447
vt 0.600997 0.469910
vt 0.614559 0.469949
vt 0.862035 0.416811
vt 0.638313 0.444473
vt 0.857648 0.390640
vt 0.666106 0.417503
vt 0.844696 0.362700
vt 0.167770 0.536691
vt 0.914144 0.688660
vt 0.182151 0.561697
vt 0.913298 0.663084
vt 0.189855 0.582503
vt 0.915415 0.641729
vt 0.680787 0.549268
vt 0.966165 0.641681
vt 0.684678 0.573659
vt 0.963812 0.665813
vt 0.684995 0.596421
vt 0.964308 0.688427
vt 0.584794 0.548886
vt 0.729850 0.550060
vt 0.578610 0.572959
vt 0.734888 0.574452
vt 0.569690 0.595426
vt 0.736445 0.597214
vt 0.642060 0.590920
vt 0.247172 0.543053
vt 0.641052 0.570535
vt 0.248998 0.562413
vt 0.635978 0.552556
vt 0.245738 0.579271
s 0
usemtl Material
f 89/203/1 7/19/1 13/32/1 90/205/1
f 8/22/2 7/19/2 89/203/2 58/151/2 54/142/2 53/136/2
f 6/18/3 56/148/3 57/150/3
f 3/8/4 106/231/4 4/9/4 59/153/4 88/202/4
f 6/17/5 107/233/5 5/14/5 60/154/5 1/1/5 105/229/5 2/4/5 56/149/5
f 61/156/6 13/33/6 16/38/6 62/157/6
f 5/16/7 14/35/7 31/77/7 29/72/7
f 88/202/8 1/3/8 10/26/8 91/207/8
f 67/164/9 21/53/9 20/50/9 65/161/9
f 13/32/10 7/19/10 12/30/10 16/39/10
f 3/8/11 9/25/11 11/28/11 15/36/11
f 55/147/12 3/6/12 15/37/12 63/158/12
f 66/162/13 19/48/13 17/40/13 65/160/13
f 23/57/14 22/55/14 17/41/14 19/49/14
f 83/191/15 82/190/15 25/63/15 26/67/15
f 15/36/16 11/28/16 22/55/16 23/57/16
f 62/157/17 16/38/17 21/53/17 67/164/17
f 69/169/18 26/66/18 25/64/18 68/166/18
f 87/200/19 84/193/19 24/60/19 68/165/19
f 86/197/20 83/191/20 26/67/20 69/167/20
f 84/194/21 85/196/21 27/68/21 24/61/21
f 70/170/22 29/73/22 31/78/22 71/172/22
f 70/170/23 28/71/23 34/85/23 73/174/23
f 10/26/24 1/3/24 28/70/24 30/74/24
f 64/159/25 10/27/25 30/75/25 71/171/25
f 34/84/26 32/80/26 36/88/26 38/92/26
f 60/155/27 5/15/27 33/83/27 72/173/27
f 5/16/28 29/72/28 35/86/28 33/82/28
f 28/70/29 1/3/29 32/80/29 34/84/29
f 37/90/30 39/94/30 43/105/30 41/99/30
f 73/174/31 34/85/31 38/93/31 75/176/31
f 33/82/32 35/86/32 39/94/32 37/90/32
f 72/173/33 33/83/33 37/91/33 74/175/33
f 76/178/34 41/100/34 43/106/34 77/180/34
f 74/175/35 37/91/35 41/101/35 76/177/35
f 38/92/36 36/88/36 40/96/36 42/102/36
f 75/176/37 38/93/37 42/103/37 77/179/37
f 102/226/38 97/218/38 51/129/38 81/187/38
f 91/206/39 10/27/39 45/111/39 93/210/39
f 90/204/40 13/33/40 46/114/40 92/208/40
f 61/156/41 9/24/41 44/108/41 78/181/41
f 64/159/42 14/34/42 47/117/42 79/183/42
f 96/216/43 94/213/43 50/126/43 80/186/43
f 101/225/44 99/222/44 48/120/44 80/185/44
f 104/228/45 98/220/45 49/123/45 95/215/45
f 103/227/46 100/224/46 50/127/46 94/212/46
f 8/23/47 53/137/47 52/132/47
f 8/23/48 52/132/48 4/10/48 106/232/48 3/7/48 55/146/48 7/20/48
f 54/142/49 58/151/49 89/203/49 5/16/49 107/234/49 6/18/49 57/150/49
f 100/223/50 101/225/50 80/185/50 50/128/50
f 95/214/51 96/216/51 80/186/51 48/121/51
f 10/27/52 64/159/52 79/183/52 45/111/52
f 13/33/53 61/156/53 78/181/53 46/114/53
f 98/219/54 102/226/54 81/187/54 49/124/54
f 39/95/55 75/176/55 77/179/55 43/107/55
f 36/89/56 74/175/56 76/177/56 40/97/56
f 40/98/57 76/178/57 77/180/57 42/104/57
f 32/81/58 72/173/58 74/175/58 36/89/58
f 35/87/59 73/174/59 75/176/59 39/95/59
f 1/2/60 60/155/60 72/173/60 32/81/60
f 14/34/61 64/159/61 71/171/61 31/79/61
f 29/73/62 70/170/62 73/174/62 35/87/62
f 28/71/63 70/170/63 71/172/63 30/76/63
f 85/196/64 86/198/64 69/168/64 27/68/64
f 82/189/65 87/200/65 68/165/65 25/65/65
f 27/69/66 69/169/66 68/166/66 24/62/66
f 11/29/67 62/157/67 67/164/67 22/56/67
f 18/43/68 66/162/68 65/160/68 20/51/68
f 7/21/69 55/147/69 63/158/69 12/31/69
f 22/56/70 67/164/70 65/161/70 17/42/70
f 9/24/71 61/156/71 62/157/71 11/29/71
f 19/48/72 66/162/72 87/200/72 82/189/72
f 12/30/73 18/44/73 20/52/73 21/54/73 16/39/73
f 66/163/74 18/47/74 84/194/74 87/201/74
f 23/57/75 19/49/75 82/190/75 83/191/75
f 49/125/76 81/188/76 96/216/76 95/214/76
f 97/217/77 103/227/77 94/212/77 51/130/77
f 99/221/78 104/228/78 95/215/78 48/122/78
f 81/188/79 51/131/79 94/213/79 96/216/79
f 14/34/80 90/204/80 92/208/80 47/117/80
f 9/24/81 91/206/81 93/210/81 44/108/81
f 3/8/82 88/202/82 91/207/82 9/25/82
f 5/16/83 89/203/83 90/205/83 14/35/83
f 44/109/84 93/211/84 104/228/84 99/221/84
f 47/118/85 92/209/85 103/227/85 97/217/85
f 45/112/86 79/184/86 102/226/86 98/219/86
f 46/115/87 78/182/87 101/225/87 100/223/87
f 92/209/88 46/116/88 100/224/88 103/227/88
f 93/211/89 45/113/89 98/220/89 104/228/89
f 78/182/90 44/110/90 99/222/90 101/225/90
f 79/184/91 47/119/91 97/218/91 102/226/91
f 59/152/92 4/11/92 52/133/92 53/138/92 54/141/92 108/235/92
f 136/298/93 110/241/93 109/238/93 135/296/93
f 121/271/94 120/269/94 114/253/94 117/261/94
f 139/304/95 111/244/95 110/242/95 136/297/95
f 135/295/96 109/239/96 112/247/96 144/314/96
f 144/313/97 112/248/97 111/245/97 139/303/97
f 111/246/98 112/249/98 109/240/98 110/243/98
f 117/262/99 114/254/99 116/259/99 115/256/99 113/250/99
f 124/277/100 121/270/100 117/263/100 113/251/100
f 120/268/101 129/284/101 116/260/101 114/255/101
f 130/286/102 124/276/102 113/252/102 115/257/102
f 129/284/103 130/285/103 115/258/103 116/260/103
f 57/150/104 56/148/104 132/289/104 127/282/104
f 127/282/105 132/289/105 131/287/105 128/283/105
f 128/283/106 131/287/106 130/285/106 129/284/106
f 56/149/107 2/4/107 126/280/107 132/290/107
f 132/290/108 126/280/108 125/278/108 131/288/108
f 131/288/109 125/278/109 124/276/109 130/286/109
f 54/142/110 57/150/110 127/282/110 118/264/110
f 118/264/111 127/282/111 128/283/111 119/266/111
f 119/266/112 128/283/112 129/284/112 120/268/112
f 2/5/113 108/237/113 123/274/113 126/281/113
f 126/281/114 123/274/114 122/272/114 125/279/114
f 125/279/115 122/272/115 121/270/115 124/277/115
f 108/236/116 54/143/116 118/265/116 123/275/116
f 123/275/117 118/265/117 119/267/117 122/273/117
f 122/273/118 119/267/118 120/269/118 121/271/118
f 54/144/119 142/309/119 141/307/119 53/139/119
f 142/309/120 143/311/120 140/305/120 141/307/120
f 143/311/121 144/313/121 139/303/121 140/305/121
f 4/12/122 133/291/122 142/310/122 54/145/122
f 133/291/123 134/293/123 143/312/123 142/310/123
f 134/293/124 135/295/124 144/314/124 143/312/124
f 53/140/125 141/308/125 138/301/125 52/134/125
f 141/308/126 140/306/126 137/299/126 138/301/126
f 140/306/127 139/304/127 136/297/127 137/299/127
f 52/135/128 138/302/128 133/292/128 4/13/128
f 138/302/129 137/300/129 134/294/129 133/292/129
f 137/300/130 136/298/130 135/296/130 134/294/130
f 105/230/131 1/3/131 88/202/131 59/153/131 108/237/131 2/5/131
f 86/199/132 85/195/132 83/192/132
f 83/192/133 85/195/133 18/45/133 23/58/133
f 63/158/134 15/37/134 23/59/134 18/46/134 12/31/134
f 84/194/135 18/47/135 85/196/135
l 52 106
