# Blender 3.3.1
# www.blender.org
mtllib monstruo_3_grande_caminar502.mtl
o monstruo_grande
v 0.370840 2.024154 0.172959
v 0.522877 1.186509 0.090885
v -0.722762 1.773834 0.216714
v -0.293646 1.102535 0.215991
v 0.483020 2.323192 -0.177816
v 0.519332 1.621739 -0.246235
v -0.875993 2.002472 -0.171451
v -0.765619 1.718448 -0.256229
v -0.291466 2.392098 0.491668
v 0.259268 2.293148 0.398201
v -0.415116 2.354886 0.597021
v -1.253715 2.089351 0.029769
v -0.313820 2.570493 0.140380
v 0.226556 2.442429 0.146026
v -1.092772 1.944386 0.149981
v -0.469395 2.646202 0.184218
v -0.758778 2.273599 0.648250
v -1.506795 2.013778 0.339880
v -1.202825 2.031784 0.498925
v -0.958051 2.618244 0.440183
v -0.641033 2.689649 0.282009
v -0.491814 2.306412 0.572480
v -1.221636 1.973560 0.176664
v -1.739775 0.724665 0.998919
v -1.609092 0.701927 1.026764
v -1.623962 0.526720 0.824961
v -1.703727 0.540598 0.807965
v 0.416165 2.208531 0.358682
v 0.480564 2.412325 0.096610
v 0.373901 2.323207 0.381307
v 0.359927 2.464003 0.158808
v 0.617782 1.893726 0.110087
v 0.697450 2.009772 -0.073511
v 0.645088 1.973388 0.163702
v 0.702199 2.098228 0.007341
v 0.774181 1.686349 -0.014165
v 0.836488 1.727023 -0.101334
v 0.860467 1.632696 0.014235
v 0.920351 1.684413 -0.070233
v 0.775197 1.530349 -0.021164
v 0.904157 1.634502 -0.194855
v 0.890619 1.393458 0.061193
v 1.075947 1.549605 -0.206295
v -0.134825 2.438759 0.497632
v 0.073943 2.413663 0.468009
v -0.150542 2.545517 0.253634
v 0.050529 2.521090 0.227581
v -0.098026 2.759401 0.628154
v 0.109702 2.703804 0.587292
v -0.120804 2.863078 0.371674
v 0.086775 2.807647 0.331273
v -0.498638 1.143787 -0.000485
v -0.381852 1.193236 -0.208170
v -0.057019 1.274963 -0.333658
v -0.793623 1.821898 0.008438
v 0.558953 1.201054 -0.145779
v 0.344768 1.202372 -0.283658
v -0.017905 1.522957 -0.331339
v -0.015104 1.137912 0.183075
v 0.408476 2.113311 0.054269
v -0.292745 2.455592 0.368035
v -0.444803 2.612182 0.451868
v -1.027704 2.004212 0.029256
v 0.223527 2.423302 0.305914
v -0.775638 2.503486 0.629073
v -1.363427 2.137766 0.574226
v -0.596385 2.598824 0.459257
v -1.681420 0.712166 1.044708
v -1.661803 0.418665 0.712988
v 0.489679 2.319173 0.251384
v 0.370205 2.438163 0.293463
v 0.606604 1.938532 -0.014738
v 0.718567 2.045552 0.109770
v 0.804169 1.710407 -0.057014
v 0.890071 1.657638 -0.028492
v 0.817173 1.590321 -0.118295
v 0.944541 1.488100 -0.089721
v -0.142622 2.491920 0.375517
v 0.060777 2.467947 0.347542
v -0.140747 2.810972 0.502520
v 0.129621 2.755916 0.456506
v -1.488650 1.024966 0.953793
v -1.559307 0.852087 0.896348
v -1.714554 1.034382 0.907239
v -1.682311 0.873487 0.870138
v -1.634092 0.696286 0.809628
v -1.616841 1.010744 0.985437
v -0.027776 1.774604 0.504437
v 0.059245 2.155562 -0.216743
v 0.034221 2.530885 0.047221
v 0.036757 2.272867 0.599234
v -0.052021 2.532771 0.239836
v -0.028723 2.429349 0.483194
v -0.020468 2.850924 0.313136
v 0.009244 2.716061 0.646188
v -0.004210 2.834920 0.500104
v 0.083823 2.671533 0.255838
v 0.108239 2.552045 0.548325
v -0.130091 2.591810 0.585287
v -0.155834 2.711240 0.292195
v -0.159380 2.651097 0.440001
v 0.111418 2.611974 0.400387
v -0.038544 2.699498 0.253784
v -0.009043 2.564064 0.586495
v 0.387909 1.721723 -0.016016
v -0.584487 1.476625 0.237988
v 0.502178 1.844100 -0.248795
v 0.169452 1.162608 0.177574
v -0.211612 0.003840 -0.133176
v -0.366568 0.007520 -0.024372
v -0.369488 0.009138 -0.275453
v -0.233507 0.005290 -0.277866
v 0.329598 -0.005669 0.363506
v 0.254043 -0.040017 0.297923
v 0.337872 -0.022695 0.328673
v 0.305594 -0.035138 0.306400
v 0.270897 -0.001045 0.374535
v 0.098126 0.837812 -0.132339
v 0.141203 0.533452 0.050231
v 0.191676 0.265846 0.202879
v 0.232155 0.312640 0.373916
v 0.207325 0.568873 0.349612
v 0.204650 0.838537 0.278987
v 0.353315 0.306094 0.345243
v 0.411480 0.561070 0.297906
v 0.490465 0.896814 0.204476
v 0.356005 0.873529 -0.099994
v 0.321603 0.542283 0.075393
v 0.299199 0.271326 0.217991
v 0.367952 0.286161 0.266425
v 0.437359 0.566435 0.154998
v 0.520532 0.902840 0.015387
v -0.187222 0.820082 0.258886
v -0.169552 0.549155 0.177368
v -0.170809 0.313708 0.132856
v -0.454912 0.312062 0.101395
v -0.456599 0.586154 0.110043
v -0.471421 0.838340 0.127132
v -0.469081 0.372518 -0.161529
v -0.470281 0.651514 -0.155655
v -0.477270 0.897533 -0.146969
v -0.081681 0.847409 -0.169636
v -0.125565 0.625612 -0.181182
v -0.174902 0.411171 -0.169647
vn -0.1378 0.5720 -0.8086
vn -0.1113 0.0906 -0.9897
vn 0.5347 -0.1483 -0.8320
vn -0.2020 -0.2814 0.9381
vn 0.9422 0.0732 0.3269
vn 0.6374 0.7521 0.1674
vn 0.0370 0.9267 -0.3741
vn 0.6900 -0.2422 0.6821
vn 0.0218 0.8775 0.4791
vn -0.1955 0.5660 -0.8009
vn -0.0735 -0.5186 0.8518
vn -0.4708 -0.8407 -0.2674
vn -0.0741 -0.2023 0.9765
vn 0.3243 -0.9094 0.2603
vn 0.9604 -0.2740 0.0511
vn 0.0822 -0.8116 0.5784
vn 0.1677 0.9557 0.2421
vn 0.1023 -0.7469 0.6570
vn -0.5577 0.2765 0.7826
vn 0.8662 0.0066 -0.4997
vn -0.9327 0.0513 -0.3569
vn 0.6317 0.7310 0.2582
vn 0.6671 0.1131 0.7364
vn -0.1006 -0.5680 0.8168
vn -0.0110 0.5910 0.8066
vn -0.3710 -0.6040 0.7054
vn -0.4923 -0.4690 -0.7333
vn 0.7922 0.5438 -0.2770
vn -0.0957 -0.6539 0.7505
vn 0.4357 0.8146 -0.3829
vn 0.6568 0.0517 0.7523
vn 0.6208 0.4186 -0.6628
vn -0.5221 -0.2314 -0.8209
vn -0.3396 -0.6086 -0.7171
vn -0.7444 0.1848 -0.6417
vn -0.4394 0.0560 0.8965
vn 0.8655 0.1626 0.4738
vn 0.9706 0.0383 -0.2376
vn 0.4621 0.5363 0.7063
vn 0.1265 0.9910 0.0430
vn -0.2539 0.8701 0.4224
vn 0.4031 0.8886 0.2191
vn 0.0053 0.9778 0.2096
vn -0.9586 0.0587 0.2788
vn 0.3582 -0.3094 0.8809
vn -0.3246 0.4401 -0.8372
vn -0.6733 -0.5384 -0.5068
vn -0.8762 -0.4313 0.2150
vn 0.0904 0.0930 -0.9916
vn -0.9845 0.1751 -0.0124
vn 0.0339 0.8498 0.5260
vn 0.4967 0.7091 0.5005
vn -0.2008 0.8758 0.4389
vn 0.9954 -0.0821 0.0495
vn 0.6955 0.0144 0.7184
vn -0.9019 0.0600 -0.4277
vn -0.4123 -0.6930 -0.5914
vn -0.7927 -0.5275 -0.3056
vn 0.8905 0.3567 0.2825
vn -0.5932 -0.6764 -0.4366
vn -0.1277 0.9800 0.1528
vn 0.8140 0.5362 0.2234
vn 0.7122 0.3200 0.6248
vn -0.5442 0.2520 -0.8002
vn 0.2354 0.1347 0.9625
vn -0.5899 -0.6264 0.5096
vn -0.1722 0.3843 0.9070
vn -0.6126 0.6445 0.4575
vn -0.4817 -0.8002 -0.3572
vn 0.3884 0.3103 0.8677
vn 0.6229 0.5369 0.5690
vn 0.4058 0.2538 0.8780
vn -0.5015 0.6706 -0.5466
vn -0.7846 0.3941 0.4786
vn 0.9526 -0.3016 -0.0409
vn 0.4907 0.7362 0.4661
vn 0.2036 0.4033 -0.8921
vn -0.1661 -0.2775 0.9463
vn 0.4586 0.8824 0.1046
vn 0.3154 0.9487 0.0230
vn -0.0414 0.4903 0.8706
vn -0.3708 -0.1394 0.9182
vn 0.0417 0.7743 -0.6315
vn -0.0414 -0.5500 0.8341
vn -0.0211 0.1349 -0.9906
vn 0.9647 -0.2276 -0.1327
vn -0.9979 -0.0643 -0.0109
vn -0.2153 0.1575 -0.9638
vn 0.1251 -0.5705 0.8117
vn -0.9911 -0.0873 0.1008
vn 0.9516 -0.2092 -0.2253
vn 0.1077 -0.9629 -0.2475
vn 0.1454 -0.5239 0.8393
vn -0.9581 -0.1159 0.2619
vn -0.9627 -0.2706 -0.0007
vn 0.9922 -0.0965 -0.0790
vn -0.0458 0.2749 -0.9604
vn -0.0282 -0.9996 -0.0060
vn 0.0162 -0.8921 0.4516
vn 0.2175 0.0347 0.9754
vn 0.1584 -0.2670 -0.9506
vn 0.9750 -0.0566 0.2150
vn 0.5981 -0.2122 -0.7728
vn 0.5241 -0.4277 -0.7365
vn 0.5693 -0.4307 -0.7003
vn 0.5757 -0.4194 -0.7019
vn 0.9873 -0.0484 0.1510
vn 0.9710 -0.1797 0.1575
vn 0.9665 -0.1746 0.1881
vn 0.0879 -0.4320 -0.8976
vn 0.1620 -0.4825 -0.8608
vn 0.1452 -0.4698 -0.8708
vn 0.1917 0.3252 0.9260
vn 0.2206 0.2291 0.9481
vn 0.2431 0.1191 0.9627
vn -0.9394 -0.1051 0.3264
vn -0.9717 0.0261 0.2347
vn -0.9710 -0.0616 0.2308
vn -0.1831 -0.2644 -0.9469
vn -0.0600 0.0479 -0.9971
vn -0.0525 -0.0063 -0.9986
vn 0.9088 0.2098 0.3607
vn 0.9809 -0.0853 0.1751
vn 0.9930 -0.1139 0.0300
vn -0.9757 0.0432 -0.2149
vn -0.9987 -0.0451 0.0257
vn -0.9987 -0.0066 0.0511
vn -0.5678 0.1076 0.8161
vn -0.3395 -0.1946 0.9203
vn -0.1757 -0.1023 0.9791
vn 0.5907 -0.1321 0.7960
vn 0.2551 0.3739 -0.8917
vn -0.3454 -0.3927 -0.8524
vn -0.3485 -0.7722 -0.5312
vn -0.8886 -0.0737 -0.4526
vt 0.882279 0.260085
vt 0.436089 0.649131
vt 0.117664 0.305524
vt 0.860974 0.338762
vt 0.079561 0.383885
vt 0.278417 0.728674
vt 0.111517 0.716819
vt 0.301243 0.337859
vt 0.232943 0.387386
vt 0.111517 0.662267
vt 0.671871 0.687525
vt 0.175114 0.511099
vt 0.930991 0.712692
vt 0.796001 0.259488
vt 0.522181 0.649131
vt 0.719621 0.316178
vt 0.801110 0.310020
vt 0.698705 0.366293
vt 0.510656 0.337024
vt 0.023033 0.717149
vt 0.367094 0.730187
vt 0.507246 0.358198
vt 0.018976 0.695717
vt 0.103380 0.570561
vt 0.268725 0.266033
vt 0.143950 0.273348
vt 0.098384 0.631539
vt 0.301351 0.259488
vt 0.128079 0.559933
vt 0.480438 0.333338
vt 0.348619 0.714075
vt 0.604958 0.268707
vt 0.031105 0.562973
vt 0.043818 0.625810
vt 0.721993 0.282954
vt 0.329365 0.336360
vt 0.302724 0.713315
vt 0.030374 0.549675
vt 0.582817 0.260846
vt 0.875347 0.642471
vt 0.380514 0.272320
vt 0.124895 0.517524
vt 0.813390 0.578569
vt 0.436089 0.332372
vt 0.956124 0.588845
vt 0.367094 0.692599
vt 0.367094 0.522797
vt 0.871643 0.594841
vt 0.398138 0.324445
vt 0.043891 0.509019
vt 0.796001 0.641153
vt 0.491075 0.268473
vt 0.032114 0.534706
vt 0.552485 0.259488
vt 0.331566 0.259909
vt 0.129819 0.544964
vt 0.339759 0.337186
vt 0.913298 0.588845
vt 0.317584 0.707220
vt 0.845734 0.463378
vt 0.311567 0.646434
vt 0.944558 0.353645
vt 0.398138 0.462439
vt 0.920230 0.354337
vt 0.870057 0.463781
vt 0.929709 0.374247
vt 0.357807 0.478584
vt 0.347994 0.663056
vt 0.944558 0.373825
vt 0.097076 0.285727
vt 0.229765 0.651022
vt 0.758050 0.297859
vt 0.168317 0.651042
vt 0.119329 0.272208
vt 0.094178 0.643292
vt 0.222768 0.636959
vt 0.746872 0.283208
vt 0.174541 0.636975
vt 0.045175 0.638147
vt 0.080672 0.327471
vt 0.442544 0.673801
vt 0.734592 0.339187
vt 0.484453 0.673801
vt 0.070725 0.319456
vt 0.218298 0.685110
vt 0.751374 0.331694
vt 0.180611 0.684911
vt 0.062412 0.356092
vt 0.455575 0.702696
vt 0.724658 0.367821
vt 0.476314 0.702696
vt 0.043357 0.357400
vt 0.210236 0.723455
vt 0.742364 0.370210
vt 0.189444 0.723462
vt 0.050281 0.367705
vt 0.444942 0.715336
vt 0.810526 0.722486
vt 0.728448 0.380153
vt 0.853695 0.722486
vt 0.487920 0.715336
vt 0.018975 0.371756
vt 0.232852 0.738567
vt 0.796001 0.739289
vt 0.758050 0.386241
vt 0.861207 0.739289
vt 0.167770 0.738589
vt 0.100634 0.583041
vt 0.712300 0.698974
vt 0.802197 0.701507
vt 0.098640 0.600731
vt 0.972705 0.287497
vt 0.747907 0.696578
vt 0.052045 0.577939
vt 0.849895 0.701507
vt 0.710445 0.675017
vt 0.050052 0.595630
vt 0.746553 0.677603
vt 0.924885 0.287497
vt 0.797725 0.671259
vt 0.981025 0.313792
vt 0.715147 0.730011
vt 0.752543 0.724602
vt 0.973919 0.259495
vt 0.967002 0.332143
vt 0.934252 0.306472
vt 0.715328 0.644023
vt 0.847669 0.671259
vt 0.923848 0.259495
vt 0.753088 0.649631
vt 0.920230 0.324823
vt 0.068284 0.665533
vt 0.630362 0.705721
vt 0.712055 0.621316
vt 0.966165 0.712391
vt 0.519769 0.388732
vt 0.031375 0.663704
vt 0.592215 0.695479
vt 0.581836 0.620019
vt 0.750017 0.621843
vt 0.569690 0.667298
vt 0.581066 0.387596
vt 0.531739 0.516092
vt 0.642835 0.625048
vt 0.273616 0.509019
vt 0.070982 0.710642
vt 0.316851 0.732164
vt 0.684917 0.393810
vt 0.816625 0.338063
vt 0.644803 0.392946
vt 0.602800 0.367236
vt 0.671871 0.661666
vt 0.181146 0.386242
vt 0.855113 0.259897
vt 0.463196 0.649131
vt 0.077903 0.567886
vt 0.078993 0.554271
vt 0.322237 0.720993
vt 0.070972 0.628379
vt 0.834014 0.651825
vt 0.084160 0.512738
vt 0.838315 0.596273
vt 0.320679 0.509019
vt 0.080733 0.539302
vt 0.857365 0.464048
vt 0.931678 0.351118
vt 0.335174 0.488977
vt 0.367094 0.673623
vt 0.939667 0.384854
vt 0.199177 0.651021
vt 0.069465 0.641494
vt 0.198664 0.632807
vt 0.464209 0.672968
vt 0.199604 0.684998
vt 0.465945 0.702696
vt 0.199840 0.723459
vt 0.466714 0.715004
vt 0.832520 0.720483
vt 0.200177 0.738589
vt 0.829423 0.735282
vt 0.076340 0.580490
vt 0.826046 0.701507
vt 0.074346 0.598181
vt 0.948795 0.287497
vt 0.823088 0.670800
vt 0.959731 0.307426
vt 0.948976 0.259488
vt 0.941524 0.331189
vt 0.875347 0.491894
vt 0.391834 0.432095
vt 0.377694 0.448634
vt 0.915590 0.478791
vt 0.834644 0.488373
vt 0.326937 0.619279
vt 0.938593 0.478810
vt 0.335216 0.632947
vt 0.358601 0.463790
vt 0.348787 0.648138
vt 0.927106 0.463378
vt 0.854274 0.489560
vt 0.315804 0.619182
vt 0.212520 0.321385
vt 0.644070 0.318501
vt 0.018976 0.592450
vt 0.663817 0.276029
vt 0.129819 0.597828
vt 0.224108 0.269832
vt 0.051049 0.586785
vt 0.728499 0.676310
vt 0.099637 0.591886
vt 0.730103 0.697776
vt 0.734390 0.646904
vt 0.920230 0.314550
vt 0.981025 0.324065
vt 0.732426 0.727384
vt 0.950683 0.319044
vt 0.753088 0.663662
vt 0.920230 0.273492
vt 0.977552 0.273492
vt 0.752543 0.710647
vt 0.709822 0.714522
vt 0.796001 0.686127
vt 0.853178 0.686127
vt 0.709822 0.659561
vt 0.824792 0.685890
vt 0.948939 0.273488
vt 0.731549 0.661651
vt 0.730449 0.712624
vt 0.878850 0.297575
vt 0.096711 0.342677
vt 0.285581 0.357771
vt 0.108549 0.696221
vt 0.804979 0.293594
vt 0.708839 0.350023
vt 0.668288 0.644023
vt 0.436089 0.526409
vt 0.145034 0.385321
vt 0.919159 0.607821
vt 0.247387 0.613831
vt 0.970304 0.416607
vt 0.947808 0.608020
vt 0.704660 0.516092
vt 0.970304 0.403829
vt 0.750017 0.516884
vt 0.618892 0.516092
vt 0.920230 0.404231
vt 0.273616 0.612878
vt 0.642836 0.516847
vt 0.938584 0.415207
vt 0.924281 0.443436
vt 0.075400 0.489812
vt 0.855524 0.444402
vt 0.531739 0.629156
vt 0.934913 0.435583
vt 0.576828 0.496673
vt 0.931440 0.443424
vt 0.848383 0.444289
vt 0.592622 0.497116
vt 0.934913 0.440184
vt 0.586164 0.496977
vt 0.517161 0.630156
vt 0.920230 0.438606
vt 0.085942 0.490043
vt 0.585376 0.420489
vt 0.510472 0.551446
vt 0.582586 0.444044
vt 0.504260 0.576063
vt 0.581388 0.469636
vt 0.508131 0.602400
vt 0.103684 0.463024
vt 0.477645 0.604263
vt 0.118194 0.440373
vt 0.454885 0.581958
vt 0.129418 0.415411
vt 0.438452 0.557360
vt 0.876897 0.417052
vt 0.081901 0.462161
vt 0.882279 0.393921
vt 0.081653 0.438865
vt 0.880271 0.363315
vt 0.079604 0.408162
vt 0.633117 0.418943
vt 0.615530 0.444447
vt 0.600997 0.469910
vt 0.614559 0.469949
vt 0.862035 0.416811
vt 0.638313 0.444473
vt 0.857648 0.390640
vt 0.666106 0.417503
vt 0.844696 0.362700
vt 0.167770 0.536691
vt 0.914144 0.688660
vt 0.182151 0.561697
vt 0.913298 0.663084
vt 0.189855 0.582503
vt 0.915415 0.641729
vt 0.680787 0.549268
vt 0.966165 0.641681
vt 0.684678 0.573659
vt 0.963812 0.665813
vt 0.684995 0.596421
vt 0.964308 0.688427
vt 0.584794 0.548886
vt 0.729850 0.550060
vt 0.578610 0.572959
vt 0.734888 0.574452
vt 0.569690 0.595426
vt 0.736445 0.597214
vt 0.642060 0.590920
vt 0.247172 0.543053
vt 0.641052 0.570535
vt 0.248998 0.562413
vt 0.635978 0.552556
vt 0.245738 0.579271
s 0
usemtl Material
f 89/203/1 7/19/1 13/32/1 90/205/1
f 8/22/2 7/19/2 89/203/2 58/151/2 54/142/2 53/136/2
f 6/18/3 56/148/3 57/150/3
f 3/8/4 106/231/4 4/9/4 59/153/4 88/202/4
f 6/17/5 107/233/5 5/14/5 60/154/5 1/1/5 105/229/5 2/4/5 56/149/5
f 61/156/6 13/33/6 16/38/6 62/157/6
f 5/16/7 14/35/7 31/77/7 29/72/7
f 88/202/8 1/3/8 10/26/8 91/207/8
f 67/164/9 21/53/9 20/50/9 65/161/9
f 13/32/10 7/19/10 12/30/10 16/39/10
f 3/8/11 9/25/11 11/28/11 15/36/11
f 55/147/12 3/6/12 15/37/12 63/158/12
f 66/162/13 19/48/13 17/40/13 65/160/13
f 23/57/14 22/55/14 17/41/14 19/49/14
f 83/191/15 82/190/15 25/63/15 26/67/15
f 15/36/16 11/28/16 22/55/16 23/57/16
f 62/157/17 16/38/17 21/53/17 67/164/17
f 69/169/18 26/66/18 25/64/18 68/166/18
f 87/200/19 84/193/19 24/60/19 68/165/19
f 86/197/20 83/191/20 26/67/20 69/167/20
f 84/194/21 85/196/21 27/68/21 24/61/21
f 70/170/22 29/73/22 31/78/22 71/172/22
f 70/170/23 28/71/23 34/85/23 73/174/23
f 10/26/24 1/3/24 28/70/24 30/74/24
f 64/159/25 10/27/25 30/75/25 71/171/25
f 34/84/26 32/80/26 36/88/26 38/92/26
f 60/155/27 5/15/27 33/83/27 72/173/27
f 5/16/28 29/72/28 35/86/28 33/82/28
f 28/70/29 1/3/29 32/80/29 34/84/29
f 37/90/30 39/94/30 43/105/30 41/99/30
f 73/174/31 34/85/31 38/93/31 75/176/31
f 33/82/32 35/86/32 39/94/32 37/90/32
f 72/173/33 33/83/33 37/91/33 74/175/33
f 76/178/34 41/100/34 43/106/34 77/180/34
f 74/175/35 37/91/35 41/101/35 76/177/35
f 38/92/36 36/88/36 40/96/36 42/102/36
f 75/176/37 38/93/37 42/103/37 77/179/37
f 102/226/38 97/218/38 51/129/38 81/187/38
f 91/206/39 10/27/39 45/111/39 93/210/39
f 90/204/40 13/33/40 46/114/40 92/208/40
f 61/156/41 9/24/41 44/108/41 78/181/41
f 64/159/42 14/34/42 47/117/42 79/183/42
f 96/216/43 94/213/43 50/126/43 80/186/43
f 101/225/44 99/222/44 48/120/44 80/185/44
f 104/228/45 98/220/45 49/123/45 95/215/45
f 103/227/46 100/224/46 50/127/46 94/212/46
f 8/23/47 53/137/47 52/132/47
f 8/23/48 52/132/48 4/10/48 106/232/48 3/7/48 55/146/48 7/20/48
f 54/142/49 58/151/49 89/203/49 5/16/49 107/234/49 6/18/49 57/150/49
f 100/223/50 101/225/50 80/185/50 50/128/50
f 95/214/51 96/216/51 80/186/51 48/121/51
f 10/27/52 64/159/52 79/183/52 45/111/52
f 13/33/53 61/156/53 78/181/53 46/114/53
f 98/219/54 102/226/54 81/187/54 49/124/54
f 39/95/55 75/176/55 77/179/55 43/107/55
f 36/89/56 74/175/56 76/177/56 40/97/56
f 40/98/57 76/178/57 77/180/57 42/104/57
f 32/81/58 72/173/58 74/175/58 36/89/58
f 35/87/59 73/174/59 75/176/59 39/95/59
f 1/2/60 60/155/60 72/173/60 32/81/60
f 14/34/61 64/159/61 71/171/61 31/79/61
f 29/73/62 70/170/62 73/174/62 35/87/62
f 28/71/63 70/170/63 71/172/63 30/76/63
f 85/196/64 86/198/64 69/168/64 27/68/64
f 82/189/65 87/200/65 68/165/65 25/65/65
f 27/69/66 69/169/66 68/166/66 24/62/66
f 11/29/67 62/157/67 67/164/67 22/56/67
f 18/43/68 66/162/68 65/160/68 20/51/68
f 7/21/69 55/147/69 63/158/69 12/31/69
f 22/56/70 67/164/70 65/161/70 17/42/70
f 9/24/71 61/156/71 62/157/71 11/29/71
f 19/48/72 66/162/72 87/200/72 82/189/72
f 12/30/73 18/44/73 20/52/73 21/54/73 16/39/73
f 66/163/74 18/47/74 84/194/74 87/201/74
f 23/57/75 19/49/75 82/190/75 83/191/75
f 49/125/76 81/188/76 96/216/76 95/214/76
f 97/217/77 103/227/77 94/212/77 51/130/77
f 99/221/78 104/228/78 95/215/78 48/122/78
f 81/188/79 51/131/79 94/213/79 96/216/79
f 14/34/80 90/204/80 92/208/80 47/117/80
f 9/24/81 91/206/81 93/210/81 44/108/81
f 3/8/82 88/202/82 91/207/82 9/25/82
f 5/16/83 89/203/83 90/205/83 14/35/83
f 44/109/84 93/211/84 104/228/84 99/221/84
f 47/118/85 92/209/85 103/227/85 97/217/85
f 45/112/86 79/184/86 102/226/86 98/219/86
f 46/115/87 78/182/87 101/225/87 100/223/87
f 92/209/88 46/116/88 100/224/88 103/227/88
f 93/211/89 45/113/89 98/220/89 104/228/89
f 78/182/90 44/110/90 99/222/90 101/225/90
f 79/184/91 47/119/91 97/218/91 102/226/91
f 59/152/92 4/11/92 52/133/92 53/138/92 54/141/92 108/235/92
f 136/298/93 110/241/93 109/238/93 135/296/93
f 121/271/94 120/269/94 114/253/94 117/261/94
f 139/304/95 111/244/95 110/242/95 136/297/95
f 135/295/96 109/239/96 112/247/96 144/314/96
f 144/313/97 112/248/97 111/245/97 139/303/97
f 111/246/98 112/249/98 109/240/98 110/243/98
f 117/262/99 114/254/99 116/259/99 115/256/99 113/250/99
f 124/277/100 121/270/100 117/263/100 113/251/100
f 120/268/101 129/284/101 116/260/101 114/255/101
f 130/286/102 124/276/102 113/252/102 115/257/102
f 129/284/103 130/285/103 115/258/103 116/260/103
f 57/150/104 56/148/104 132/289/104 127/282/104
f 127/282/105 132/289/105 131/287/105 128/283/105
f 128/283/106 131/287/106 130/285/106 129/284/106
f 56/149/107 2/4/107 126/280/107 132/290/107
f 132/290/108 126/280/108 125/278/108 131/288/108
f 131/288/109 125/278/109 124/276/109 130/286/109
f 54/142/110 57/150/110 127/282/110 118/264/110
f 118/264/111 127/282/111 128/283/111 119/266/111
f 119/266/112 128/283/112 129/284/112 120/268/112
f 2/5/113 108/237/113 123/274/113 126/281/113
f 126/281/114 123/274/114 122/272/114 125/279/114
f 125/279/115 122/272/115 121/270/115 124/277/115
f 108/236/116 54/143/116 118/265/116 123/275/116
f 123/275/117 118/265/117 119/267/117 122/273/117
f 122/273/118 119/267/118 120/269/118 121/271/118
f 54/144/119 142/309/119 141/307/119 53/139/119
f 142/309/120 143/311/120 140/305/120 141/307/120
f 143/311/121 144/313/121 139/303/121 140/305/121
f 4/12/122 133/291/122 142/310/122 54/145/122
f 133/291/123 134/293/123 143/312/123 142/310/123
f 134/293/124 135/295/124 144/314/124 143/312/124
f 53/140/125 141/308/125 138/301/125 52/134/125
f 141/308/126 140/306/126 137/299/126 138/301/126
f 140/306/127 139/304/127 136/297/127 137/299/127
f 52/135/128 138/302/128 133/292/128 4/13/128
f 138/302/129 137/300/129 134/294/129 133/292/129
f 137/300/130 136/298/130 135/296/130 134/294/130
f 105/230/131 1/3/131 88/202/131 59/153/131 108/237/131 2/5/131
f 86/199/132 85/195/132 83/192/132
f 83/192/133 85/195/133 18/45/133 23/58/133
f 63/158/134 15/37/134 23/59/134 18/46/134 12/31/134
f 84/194/135 18/47/135 85/196/135
l 52 106
