# Blender 3.3.1
# www.blender.org
mtllib monstruo_3_grande_caminar610.mtl
o monstruo_grande
v 0.312218 2.038519 0.184965
v 0.526665 1.214927 0.084955
v -0.737895 1.716374 0.191518
v -0.287814 1.114222 0.223428
v 0.442493 2.330494 -0.163572
v 0.502178 1.635129 -0.264013
v -0.886405 1.929292 -0.227719
v -0.769155 1.646956 -0.292364
v -0.381625 2.389534 0.448600
v 0.180358 2.310175 0.398485
v -0.512222 2.355614 0.551732
v -1.249861 1.968845 -0.072797
v -0.385896 2.544024 0.085911
v 0.157528 2.447065 0.138647
v -1.091944 1.840852 0.087215
v -0.549766 2.609940 0.108163
v -0.863166 2.260587 0.575050
v -1.536758 1.898333 0.195773
v -1.258893 1.953622 0.396562
v -1.057163 2.558470 0.298113
v -0.732546 2.644788 0.177753
v -0.588049 2.307310 0.531070
v -1.225204 1.860426 0.088058
v -1.813963 0.662074 0.924041
v -1.687299 0.645549 0.969356
v -1.669610 0.463027 0.774379
v -1.746922 0.473114 0.746720
v 0.339062 2.227862 0.369744
v 0.416323 2.427262 0.108346
v 0.293853 2.343440 0.386820
v 0.288674 2.475764 0.159385
v 0.559448 1.916487 0.143440
v 0.660388 2.023941 -0.034354
v 0.586418 1.995833 0.197073
v 0.653542 2.117699 0.043090
v 0.723324 1.698663 0.045734
v 0.796812 1.736823 -0.032398
v 0.804846 1.647969 0.089570
v 0.876546 1.697224 0.013169
v 0.727651 1.542507 0.045779
v 0.880238 1.641569 -0.110425
v 0.830581 1.411542 0.151126
v 1.053488 1.560359 -0.090627
v -0.219693 2.448951 0.467120
v -0.008757 2.426325 0.448345
v -0.224896 2.542594 0.217602
v -0.023258 2.520496 0.202604
v -0.162519 2.761945 0.610984
v 0.042327 2.696674 0.569877
v -0.177948 2.874435 0.357081
v 0.025555 2.809680 0.314917
v -0.498922 1.122109 0.013725
v -0.389193 1.148021 -0.201431
v -0.055710 1.266543 -0.334337
v -0.799364 1.754728 -0.029792
v 0.548436 1.223488 -0.153785
v 0.328333 1.215589 -0.277618
v -0.026223 1.519667 -0.332269
v -0.008981 1.149595 0.196456
v 0.356861 2.126779 0.066608
v -0.376663 2.444507 0.321120
v -0.543951 2.597046 0.381780
v -1.025551 1.906414 -0.034009
v 0.145607 2.435083 0.298721
v -0.897565 2.484681 0.523455
v -1.436689 2.053747 0.433679
v -0.696071 2.575440 0.377586
v -1.761662 0.653504 0.977419
v -1.688735 0.349747 0.662811
v 0.416901 2.337875 0.265708
v 0.291583 2.455258 0.294818
v 0.562656 1.956589 0.016752
v 0.662848 2.067925 0.147575
v 0.759244 1.721561 0.007110
v 0.840453 1.671740 0.050954
v 0.783545 1.599289 -0.046116
v 0.906249 1.500992 0.006512
v -0.222638 2.495225 0.341238
v -0.017341 2.474521 0.324897
v -0.201353 2.819563 0.486724
v 0.065531 2.752120 0.440325
v -1.569808 0.970430 0.899832
v -1.626269 0.792987 0.840622
v -1.787997 0.969405 0.824164
v -1.745490 0.808540 0.797970
v -1.683610 0.631423 0.751201
v -1.700449 0.952200 0.915241
v -0.085674 1.776668 0.499014
v 0.017530 2.138480 -0.220076
v -0.028905 2.517806 0.022149
v -0.052548 2.288999 0.586795
v -0.125660 2.530317 0.208467
v -0.110270 2.435474 0.457052
v -0.078875 2.858558 0.297402
v -0.057852 2.712430 0.628414
v -0.063724 2.836285 0.486025
v 0.014920 2.675411 0.233877
v 0.031570 2.549736 0.525491
v -0.203983 2.598394 0.561662
v -0.222667 2.723887 0.267919
v -0.229408 2.662520 0.416741
v 0.038894 2.612614 0.378432
v -0.105606 2.707767 0.230385
v -0.084013 2.564076 0.563597
v 0.366986 1.739477 -0.035758
v -0.598529 1.444110 0.215717
v 0.478941 1.857130 -0.266022
v 0.180022 1.178976 0.198139
v -0.188951 -0.001610 -0.070195
v -0.332847 0.004225 0.052708
v -0.359719 0.003791 -0.196998
v -0.224613 -0.001275 -0.212236
v 0.369837 0.034375 0.060419
v 0.291205 0.023394 -0.009560
v 0.376425 0.030771 0.021504
v 0.343120 0.026158 -0.002233
v 0.311757 0.033514 0.074995
v 0.102675 0.872102 -0.092459
v 0.155073 0.638772 -0.007924
v 0.218734 0.342161 0.016511
v 0.273375 0.323965 0.189063
v 0.245023 0.569941 0.263588
v 0.234701 0.846323 0.298523
v 0.391676 0.332993 0.150749
v 0.444251 0.590876 0.201502
v 0.512381 0.927655 0.213102
v 0.358625 0.908065 -0.077470
v 0.336762 0.645663 0.003765
v 0.327087 0.345687 0.024267
v 0.399639 0.344137 0.069285
v 0.458580 0.645679 0.077417
v 0.529439 0.939836 0.025288
v -0.167830 0.846237 0.306387
v -0.139294 0.558766 0.232675
v -0.132490 0.319225 0.189303
v -0.417571 0.306610 0.180037
v -0.431359 0.581746 0.185079
v -0.456828 0.838048 0.185105
v -0.454734 0.360875 -0.082220
v -0.466186 0.636873 -0.078516
v -0.474239 0.861279 -0.091433
v -0.077863 0.825043 -0.124367
v -0.123324 0.623166 -0.126388
v -0.163911 0.410396 -0.113671
vn -0.1136 0.5239 -0.8442
vn -0.0756 0.0575 -0.9955
vn 0.4876 -0.1743 -0.8555
vn -0.2251 -0.2835 0.9322
vn 0.9375 0.0975 0.3341
vn 0.5712 0.8049 0.1609
vn 0.0231 0.9158 -0.4009
vn 0.6630 -0.1944 0.7230
vn -0.1242 0.9217 0.3676
vn -0.1820 0.5061 -0.8431
vn -0.0890 -0.4649 0.8809
vn -0.3709 -0.8872 -0.2745
vn -0.2069 -0.0919 0.9740
vn 0.3554 -0.8343 0.4214
vn 0.9546 -0.2335 0.1851
vn 0.0299 -0.7058 0.7078
vn 0.0710 0.9838 0.1645
vn 0.0421 -0.7191 0.6937
vn -0.6640 0.2808 0.6930
vn 0.9231 0.0239 -0.3839
vn -0.8795 0.0015 -0.4759
vn 0.5868 0.7604 0.2784
vn 0.6073 0.1442 0.7813
vn -0.1377 -0.5525 0.8221
vn -0.0808 0.6197 0.7806
vn -0.4654 -0.5625 0.6834
vn -0.4211 -0.5002 -0.7566
vn 0.7938 0.5623 -0.2317
vn -0.1334 -0.6427 0.7544
vn 0.4757 0.8073 -0.3493
vn 0.5725 0.0809 0.8159
vn 0.7102 0.3841 -0.5899
vn -0.4241 -0.2577 -0.8682
vn -0.2140 -0.6478 -0.7311
vn -0.6420 0.1372 -0.7543
vn -0.5756 0.0836 0.8134
vn 0.7778 0.1999 0.5959
vn 0.9720 -0.0098 -0.2346
vn 0.3953 0.5866 0.7069
vn 0.0760 0.9958 -0.0501
vn -0.3463 0.8721 0.3457
vn 0.3518 0.9154 0.1954
vn 0.0569 0.9699 0.2366
vn -0.9556 0.1047 0.2755
vn 0.3382 -0.3633 0.8681
vn -0.2948 0.4939 -0.8180
vn -0.6833 -0.5970 -0.4204
vn -0.8635 -0.4536 0.2204
vn 0.0719 0.1011 -0.9923
vn -0.9722 0.2339 -0.0076
vn 0.0742 0.8302 0.5525
vn 0.4384 0.7495 0.4961
vn -0.3143 0.8750 0.3682
vn 0.9882 -0.1463 0.0465
vn 0.5738 0.0591 0.8169
vn -0.8243 0.0233 -0.5657
vn -0.3044 -0.7252 -0.6177
vn -0.7657 -0.5196 -0.3792
vn 0.8597 0.3666 0.3558
vn -0.5434 -0.6953 -0.4703
vn -0.1788 0.9786 0.1021
vn 0.7798 0.5645 0.2706
vn 0.6638 0.3554 0.6581
vn -0.4439 0.2022 -0.8729
vn 0.1032 0.1771 0.9788
vn -0.6288 -0.6315 0.4536
vn -0.2376 0.4732 0.8483
vn -0.7237 0.6236 0.2958
vn -0.3705 -0.8533 -0.3669
vn 0.2246 0.4294 0.8747
vn 0.5537 0.6142 0.5623
vn 0.2482 0.3570 0.9005
vn -0.4722 0.5560 -0.6840
vn -0.8595 0.3952 0.3241
vn 0.9586 -0.2545 0.1279
vn 0.5257 0.6944 0.4914
vn 0.2347 0.4237 -0.8749
vn -0.1925 -0.3001 0.9343
vn 0.5023 0.8550 0.1292
vn 0.2768 0.9607 -0.0230
vn -0.1138 0.5162 0.8489
vn -0.4145 -0.1260 0.9013
vn 0.0380 0.7502 -0.6602
vn -0.0909 -0.5746 0.8134
vn 0.0188 0.1548 -0.9878
vn 0.9494 -0.2890 -0.1231
vn -0.9998 -0.0062 -0.0189
vn -0.1807 0.2049 -0.9620
vn 0.1051 -0.6037 0.7902
vn -0.9952 -0.0229 0.0949
vn 0.9472 -0.2455 -0.2062
vn 0.1661 -0.9697 -0.1791
vn 0.2283 -0.5059 0.8318
vn -0.9357 -0.2315 0.2664
vn -0.9523 -0.2920 0.0884
vn 0.9834 -0.0771 -0.1641
vn -0.1320 0.2596 -0.9567
vn -0.0361 -0.9993 0.0060
vn 0.0436 -0.9930 0.1096
vn 0.2891 -0.3066 0.9069
vn 0.0896 0.0941 -0.9915
vn 0.9887 -0.0984 0.1133
vn 0.5405 0.0920 -0.8363
vn 0.4783 -0.4677 -0.7433
vn 0.5178 -0.2800 -0.8084
vn 0.5191 -0.0767 -0.8513
vn 0.9959 -0.0095 0.0902
vn 0.9759 -0.2116 0.0528
vn 0.9790 -0.1996 0.0421
vn 0.0835 -0.5148 -0.8532
vn 0.0881 -0.3110 -0.9463
vn 0.0692 -0.0687 -0.9952
vn 0.2236 0.3499 0.9097
vn 0.3137 -0.1012 0.9441
vn 0.3132 -0.2433 0.9180
vn -0.9283 -0.1040 0.3569
vn -0.9483 -0.0870 0.3053
vn -0.9445 -0.1852 0.2712
vn -0.1647 -0.3763 -0.9117
vn -0.1097 -0.0158 -0.9938
vn -0.1236 -0.0109 -0.9923
vn 0.9070 0.2614 0.3302
vn 0.9900 -0.0543 0.1298
vn 0.9966 -0.0717 -0.0401
vn -0.9823 -0.0179 -0.1862
vn -0.9940 -0.0670 0.0864
vn -0.9909 -0.0474 0.1258
vn -0.5389 0.2168 0.8140
vn -0.2793 -0.1562 0.9474
vn -0.0993 -0.0971 0.9903
vn 0.5958 -0.0708 0.8000
vn 0.3557 0.3528 -0.8655
vn -0.1891 -0.4833 -0.8548
vn -0.2071 -0.8272 -0.5223
vn -0.8358 -0.1341 -0.5324
vt 0.882279 0.260085
vt 0.436089 0.649131
vt 0.117664 0.305524
vt 0.860974 0.338762
vt 0.079561 0.383885
vt 0.278417 0.728674
vt 0.111517 0.716819
vt 0.301243 0.337859
vt 0.232943 0.387386
vt 0.111517 0.662267
vt 0.671871 0.687525
vt 0.175114 0.511099
vt 0.930991 0.712692
vt 0.796001 0.259488
vt 0.522181 0.649131
vt 0.719621 0.316178
vt 0.801110 0.310020
vt 0.698705 0.366293
vt 0.510656 0.337024
vt 0.023033 0.717149
vt 0.367094 0.730187
vt 0.507246 0.358198
vt 0.018976 0.695717
vt 0.103380 0.570561
vt 0.268725 0.266033
vt 0.143950 0.273348
vt 0.098384 0.631539
vt 0.301351 0.259488
vt 0.128079 0.559933
vt 0.480438 0.333338
vt 0.348619 0.714075
vt 0.604958 0.268707
vt 0.031105 0.562973
vt 0.043818 0.625810
vt 0.721993 0.282954
vt 0.329365 0.336360
vt 0.302724 0.713315
vt 0.030374 0.549675
vt 0.582817 0.260846
vt 0.875347 0.642471
vt 0.380514 0.272320
vt 0.124895 0.517524
vt 0.813390 0.578569
vt 0.436089 0.332372
vt 0.956124 0.588845
vt 0.367094 0.692599
vt 0.367094 0.522797
vt 0.871643 0.594841
vt 0.398138 0.324445
vt 0.043891 0.509019
vt 0.796001 0.641153
vt 0.491075 0.268473
vt 0.032114 0.534706
vt 0.552485 0.259488
vt 0.331566 0.259909
vt 0.129819 0.544964
vt 0.339759 0.337186
vt 0.913298 0.588845
vt 0.317584 0.707220
vt 0.845734 0.463378
vt 0.311567 0.646434
vt 0.944558 0.353645
vt 0.398138 0.462439
vt 0.920230 0.354337
vt 0.870057 0.463781
vt 0.929709 0.374247
vt 0.357807 0.478584
vt 0.347994 0.663056
vt 0.944558 0.373825
vt 0.097076 0.285727
vt 0.229765 0.651022
vt 0.758050 0.297859
vt 0.168317 0.651042
vt 0.119329 0.272208
vt 0.094178 0.643292
vt 0.222768 0.636959
vt 0.746872 0.283208
vt 0.174541 0.636975
vt 0.045175 0.638147
vt 0.080672 0.327471
vt 0.442544 0.673801
vt 0.734592 0.339187
vt 0.484453 0.673801
vt 0.070725 0.319456
vt 0.218298 0.685110
vt 0.751374 0.331694
vt 0.180611 0.684911
vt 0.062412 0.356092
vt 0.455575 0.702696
vt 0.724658 0.367821
vt 0.476314 0.702696
vt 0.043357 0.357400
vt 0.210236 0.723455
vt 0.742364 0.370210
vt 0.189444 0.723462
vt 0.050281 0.367705
vt 0.444942 0.715336
vt 0.810526 0.722486
vt 0.728448 0.380153
vt 0.853695 0.722486
vt 0.487920 0.715336
vt 0.018975 0.371756
vt 0.232852 0.738567
vt 0.796001 0.739289
vt 0.758050 0.386241
vt 0.861207 0.739289
vt 0.167770 0.738589
vt 0.100634 0.583041
vt 0.712300 0.698974
vt 0.802197 0.701507
vt 0.098640 0.600731
vt 0.972705 0.287497
vt 0.747907 0.696578
vt 0.052045 0.577939
vt 0.849895 0.701507
vt 0.710445 0.675017
vt 0.050052 0.595630
vt 0.746553 0.677603
vt 0.924885 0.287497
vt 0.797725 0.671259
vt 0.981025 0.313792
vt 0.715147 0.730011
vt 0.752543 0.724602
vt 0.973919 0.259495
vt 0.967002 0.332143
vt 0.934252 0.306472
vt 0.715328 0.644023
vt 0.847669 0.671259
vt 0.923848 0.259495
vt 0.753088 0.649631
vt 0.920230 0.324823
vt 0.068284 0.665533
vt 0.630362 0.705721
vt 0.712055 0.621316
vt 0.966165 0.712391
vt 0.519769 0.388732
vt 0.031375 0.663704
vt 0.592215 0.695479
vt 0.581836 0.620019
vt 0.750017 0.621843
vt 0.569690 0.667298
vt 0.581066 0.387596
vt 0.531739 0.516092
vt 0.642835 0.625048
vt 0.273616 0.509019
vt 0.070982 0.710642
vt 0.316851 0.732164
vt 0.684917 0.393810
vt 0.816625 0.338063
vt 0.644803 0.392946
vt 0.602800 0.367236
vt 0.671871 0.661666
vt 0.181146 0.386242
vt 0.855113 0.259897
vt 0.463196 0.649131
vt 0.077903 0.567886
vt 0.078993 0.554271
vt 0.322237 0.720993
vt 0.070972 0.628379
vt 0.834014 0.651825
vt 0.084160 0.512738
vt 0.838315 0.596273
vt 0.320679 0.509019
vt 0.080733 0.539302
vt 0.857365 0.464048
vt 0.931678 0.351118
vt 0.335174 0.488977
vt 0.367094 0.673623
vt 0.939667 0.384854
vt 0.199177 0.651021
vt 0.069465 0.641494
vt 0.198664 0.632807
vt 0.464209 0.672968
vt 0.199604 0.684998
vt 0.465945 0.702696
vt 0.199840 0.723459
vt 0.466714 0.715004
vt 0.832520 0.720483
vt 0.200177 0.738589
vt 0.829423 0.735282
vt 0.076340 0.580490
vt 0.826046 0.701507
vt 0.074346 0.598181
vt 0.948795 0.287497
vt 0.823088 0.670800
vt 0.959731 0.307426
vt 0.948976 0.259488
vt 0.941524 0.331189
vt 0.875347 0.491894
vt 0.391834 0.432095
vt 0.377694 0.448634
vt 0.915590 0.478791
vt 0.834644 0.488373
vt 0.326937 0.619279
vt 0.938593 0.478810
vt 0.335216 0.632947
vt 0.358601 0.463790
vt 0.348787 0.648138
vt 0.927106 0.463378
vt 0.854274 0.489560
vt 0.315804 0.619182
vt 0.212520 0.321385
vt 0.644070 0.318501
vt 0.018976 0.592450
vt 0.663817 0.276029
vt 0.129819 0.597828
vt 0.224108 0.269832
vt 0.051049 0.586785
vt 0.728499 0.676310
vt 0.099637 0.591886
vt 0.730103 0.697776
vt 0.734390 0.646904
vt 0.920230 0.314550
vt 0.981025 0.324065
vt 0.732426 0.727384
vt 0.950683 0.319044
vt 0.753088 0.663662
vt 0.920230 0.273492
vt 0.977552 0.273492
vt 0.752543 0.710647
vt 0.709822 0.714522
vt 0.796001 0.686127
vt 0.853178 0.686127
vt 0.709822 0.659561
vt 0.824792 0.685890
vt 0.948939 0.273488
vt 0.731549 0.661651
vt 0.730449 0.712624
vt 0.878850 0.297575
vt 0.096711 0.342677
vt 0.285581 0.357771
vt 0.108549 0.696221
vt 0.804979 0.293594
vt 0.708839 0.350023
vt 0.668288 0.644023
vt 0.436089 0.526409
vt 0.145034 0.385321
vt 0.919159 0.607821
vt 0.247387 0.613831
vt 0.970304 0.416607
vt 0.947808 0.608020
vt 0.704660 0.516092
vt 0.970304 0.403829
vt 0.750017 0.516884
vt 0.618892 0.516092
vt 0.920230 0.404231
vt 0.273616 0.612878
vt 0.642836 0.516847
vt 0.938584 0.415207
vt 0.924281 0.443436
vt 0.075400 0.489812
vt 0.855524 0.444402
vt 0.531739 0.629156
vt 0.934913 0.435583
vt 0.576828 0.496673
vt 0.931440 0.443424
vt 0.848383 0.444289
vt 0.592622 0.497116
vt 0.934913 0.440184
vt 0.586164 0.496977
vt 0.517161 0.630156
vt 0.920230 0.438606
vt 0.085942 0.490043
vt 0.585376 0.420489
vt 0.510472 0.551446
vt 0.582586 0.444044
vt 0.504260 0.576063
vt 0.581388 0.469636
vt 0.508131 0.602400
vt 0.103684 0.463024
vt 0.477645 0.604263
vt 0.118194 0.440373
vt 0.454885 0.581958
vt 0.129418 0.415411
vt 0.438452 0.557360
vt 0.876897 0.417052
vt 0.081901 0.462161
vt 0.882279 0.393921
vt 0.081653 0.438865
vt 0.880271 0.363315
vt 0.079604 0.408162
vt 0.633117 0.418943
vt 0.615530 0.444447
vt 0.600997 0.469910
vt 0.614559 0.469949
vt 0.862035 0.416811
vt 0.638313 0.444473
vt 0.857648 0.390640
vt 0.666106 0.417503
vt 0.844696 0.362700
vt 0.167770 0.536691
vt 0.914144 0.688660
vt 0.182151 0.561697
vt 0.913298 0.663084
vt 0.189855 0.582503
vt 0.915415 0.641729
vt 0.680787 0.549268
vt 0.966165 0.641681
vt 0.684678 0.573659
vt 0.963812 0.665813
vt 0.684995 0.596421
vt 0.964308 0.688427
vt 0.584794 0.548886
vt 0.729850 0.550060
vt 0.578610 0.572959
vt 0.734888 0.574452
vt 0.569690 0.595426
vt 0.736445 0.597214
vt 0.642060 0.590920
vt 0.247172 0.543053
vt 0.641052 0.570535
vt 0.248998 0.562413
vt 0.635978 0.552556
vt 0.245738 0.579271
s 0
usemtl Material
f 89/203/1 7/19/1 13/32/1 90/205/1
f 8/22/2 7/19/2 89/203/2 58/151/2 54/142/2 53/136/2
f 6/18/3 56/148/3 57/150/3
f 3/8/4 106/231/4 4/9/4 59/153/4 88/202/4
f 6/17/5 107/233/5 5/14/5 60/154/5 1/1/5 105/229/5 2/4/5 56/149/5
f 61/156/6 13/33/6 16/38/6 62/157/6
f 5/16/7 14/35/7 31/77/7 29/72/7
f 88/202/8 1/3/8 10/26/8 91/207/8
f 67/164/9 21/53/9 20/50/9 65/161/9
f 13/32/10 7/19/10 12/30/10 16/39/10
f 3/8/11 9/25/11 11/28/11 15/36/11
f 55/147/12 3/6/12 15/37/12 63/158/12
f 66/162/13 19/48/13 17/40/13 65/160/13
f 23/57/14 22/55/14 17/41/14 19/49/14
f 83/191/15 82/190/15 25/63/15 26/67/15
f 15/36/16 11/28/16 22/55/16 23/57/16
f 62/157/17 16/38/17 21/53/17 67/164/17
f 69/169/18 26/66/18 25/64/18 68/166/18
f 87/200/19 84/193/19 24/60/19 68/165/19
f 86/197/20 83/191/20 26/67/20 69/167/20
f 84/194/21 85/196/21 27/68/21 24/61/21
f 70/170/22 29/73/22 31/78/22 71/172/22
f 70/170/23 28/71/23 34/85/23 73/174/23
f 10/26/24 1/3/24 28/70/24 30/74/24
f 64/159/25 10/27/25 30/75/25 71/171/25
f 34/84/26 32/80/26 36/88/26 38/92/26
f 60/155/27 5/15/27 33/83/27 72/173/27
f 5/16/28 29/72/28 35/86/28 33/82/28
f 28/70/29 1/3/29 32/80/29 34/84/29
f 37/90/30 39/94/30 43/105/30 41/99/30
f 73/174/31 34/85/31 38/93/31 75/176/31
f 33/82/32 35/86/32 39/94/32 37/90/32
f 72/173/33 33/83/33 37/91/33 74/175/33
f 76/178/34 41/100/34 43/106/34 77/180/34
f 74/175/35 37/91/35 41/101/35 76/177/35
f 38/92/36 36/88/36 40/96/36 42/102/36
f 75/176/37 38/93/37 42/103/37 77/179/37
f 102/226/38 97/218/38 51/129/38 81/187/38
f 91/206/39 10/27/39 45/111/39 93/210/39
f 90/204/40 13/33/40 46/114/40 92/208/40
f 61/156/41 9/24/41 44/108/41 78/181/41
f 64/159/42 14/34/42 47/117/42 79/183/42
f 96/216/43 94/213/43 50/126/43 80/186/43
f 101/225/44 99/222/44 48/120/44 80/185/44
f 104/228/45 98/220/45 49/123/45 95/215/45
f 103/227/46 100/224/46 50/127/46 94/212/46
f 8/23/47 53/137/47 52/132/47
f 8/23/48 52/132/48 4/10/48 106/232/48 3/7/48 55/146/48 7/20/48
f 54/142/49 58/151/49 89/203/49 5/16/49 107/234/49 6/18/49 57/150/49
f 100/223/50 101/225/50 80/185/50 50/128/50
f 95/214/51 96/216/51 80/186/51 48/121/51
f 10/27/52 64/159/52 79/183/52 45/111/52
f 13/33/53 61/156/53 78/181/53 46/114/53
f 98/219/54 102/226/54 81/187/54 49/124/54
f 39/95/55 75/176/55 77/179/55 43/107/55
f 36/89/56 74/175/56 76/177/56 40/97/56
f 40/98/57 76/178/57 77/180/57 42/104/57
f 32/81/58 72/173/58 74/175/58 36/89/58
f 35/87/59 73/174/59 75/176/59 39/95/59
f 1/2/60 60/155/60 72/173/60 32/81/60
f 14/34/61 64/159/61 71/171/61 31/79/61
f 29/73/62 70/170/62 73/174/62 35/87/62
f 28/71/63 70/170/63 71/172/63 30/76/63
f 85/196/64 86/198/64 69/168/64 27/68/64
f 82/189/65 87/200/65 68/165/65 25/65/65
f 27/69/66 69/169/66 68/166/66 24/62/66
f 11/29/67 62/157/67 67/164/67 22/56/67
f 18/43/68 66/162/68 65/160/68 20/51/68
f 7/21/69 55/147/69 63/158/69 12/31/69
f 22/56/70 67/164/70 65/161/70 17/42/70
f 9/24/71 61/156/71 62/157/71 11/29/71
f 19/48/72 66/162/72 87/200/72 82/189/72
f 12/30/73 18/44/73 20/52/73 21/54/73 16/39/73
f 66/163/74 18/47/74 84/194/74 87/201/74
f 23/57/75 19/49/75 82/190/75 83/191/75
f 49/125/76 81/188/76 96/216/76 95/214/76
f 97/217/77 103/227/77 94/212/77 51/130/77
f 99/221/78 104/228/78 95/215/78 48/122/78
f 81/188/79 51/131/79 94/213/79 96/216/79
f 14/34/80 90/204/80 92/208/80 47/117/80
f 9/24/81 91/206/81 93/210/81 44/108/81
f 3/8/82 88/202/82 91/207/82 9/25/82
f 5/16/83 89/203/83 90/205/83 14/35/83
f 44/109/84 93/211/84 104/228/84 99/221/84
f 47/118/85 92/209/85 103/227/85 97/217/85
f 45/112/86 79/184/86 102/226/86 98/219/86
f 46/115/87 78/182/87 101/225/87 100/223/87
f 92/209/88 46/116/88 100/224/88 103/227/88
f 93/211/89 45/113/89 98/220/89 104/228/89
f 78/182/90 44/110/90 99/222/90 101/225/90
f 79/184/91 47/119/91 97/218/91 102/226/91
f 59/152/92 4/11/92 52/133/92 53/138/92 54/141/92 108/235/92
f 136/298/93 110/241/93 109/238/93 135/296/93
f 121/271/94 120/269/94 114/253/94 117/261/94
f 139/304/95 111/244/95 110/242/95 136/297/95
f 135/295/96 109/239/96 112/247/96 144/314/96
f 144/313/97 112/248/97 111/245/97 139/303/97
f 111/246/98 112/249/98 109/240/98 110/243/98
f 117/262/99 114/254/99 116/259/99 115/256/99 113/250/99
f 124/277/100 121/270/100 117/263/100 113/251/100
f 120/268/101 129/284/101 116/260/101 114/255/101
f 130/286/102 124/276/102 113/252/102 115/257/102
f 129/284/103 130/285/103 115/258/103 116/260/103
f 57/150/104 56/148/104 132/289/104 127/282/104
f 127/282/105 132/289/105 131/287/105 128/283/105
f 128/283/106 131/287/106 130/285/106 129/284/106
f 56/149/107 2/4/107 126/280/107 132/290/107
f 132/290/108 126/280/108 125/278/108 131/288/108
f 131/288/109 125/278/109 124/276/109 130/286/109
f 54/142/110 57/150/110 127/282/110 118/264/110
f 118/264/111 127/282/111 128/283/111 119/266/111
f 119/266/112 128/283/112 129/284/112 120/268/112
f 2/5/113 108/237/113 123/274/113 126/281/113
f 126/281/114 123/274/114 122/272/114 125/279/114
f 125/279/115 122/272/115 121/270/115 124/277/115
f 108/236/116 54/143/116 118/265/116 123/275/116
f 123/275/117 118/265/117 119/267/117 122/273/117
f 122/273/118 119/267/118 120/269/118 121/271/118
f 54/144/119 142/309/119 141/307/119 53/139/119
f 142/309/120 143/311/120 140/305/120 141/307/120
f 143/311/121 144/313/121 139/303/121 140/305/121
f 4/12/122 133/291/122 142/310/122 54/145/122
f 133/291/123 134/293/123 143/312/123 142/310/123
f 134/293/124 135/295/124 144/314/124 143/312/124
f 53/140/125 141/308/125 138/301/125 52/134/125
f 141/308/126 140/306/126 137/299/126 138/301/126
f 140/306/127 139/304/127 136/297/127 137/299/127
f 52/135/128 138/302/128 133/292/128 4/13/128
f 138/302/129 137/300/129 134/294/129 133/292/129
f 137/300/130 136/298/130 135/296/130 134/294/130
f 105/230/131 1/3/131 88/202/131 59/153/131 108/237/131 2/5/131
f 86/199/132 85/195/132 83/192/132
f 83/192/133 85/195/133 18/45/133 23/58/133
f 63/158/134 15/37/134 23/59/134 18/46/134 12/31/134
f 84/194/135 18/47/135 85/196/135
l 52 106
