# Blender 3.3.1
# www.blender.org
mtllib monstruo_3_caminar631.mtl
o monstruo_grande
v 0.372052 2.014716 0.245274
v 0.511220 1.187880 0.130027
v -0.723128 1.741769 0.199412
v -0.305148 1.090755 0.192295
v 0.515900 2.306510 -0.099962
v 0.542543 1.595820 -0.218894
v -0.858149 1.971363 -0.204242
v -0.748213 1.703048 -0.278154
v -0.335360 2.377303 0.496312
v 0.222930 2.286172 0.449544
v -0.464099 2.341456 0.596678
v -1.226663 2.005914 -0.028895
v -0.337486 2.551491 0.141255
v 0.211652 2.430832 0.191459
v -1.066136 1.870795 0.115924
v -0.501146 2.621068 0.170111
v -0.806103 2.248725 0.625258
v -1.501983 1.920146 0.257998
v -1.212881 1.957215 0.447040
v -1.006857 2.565969 0.376662
v -0.684672 2.655685 0.247217
v -0.535930 2.295640 0.572805
v -1.196738 1.886981 0.128731
v -1.771994 0.646809 0.921030
v -1.643516 0.624870 0.958211
v -1.639614 0.457246 0.749571
v -1.718033 0.470638 0.726877
v 0.381495 2.206207 0.428787
v 0.470769 2.406365 0.171396
v 0.336685 2.318138 0.443113
v 0.342755 2.455457 0.218185
v 0.626389 1.904409 0.229246
v 0.735680 2.001287 0.052008
v 0.646149 1.982809 0.277606
v 0.720092 2.102515 0.125828
v 0.813418 1.685708 0.176849
v 0.886356 1.720348 0.095100
v 0.898003 1.655894 0.232810
v 0.967421 1.699002 0.151064
v 0.837885 1.534439 0.207642
v 0.985553 1.622138 0.040446
v 0.950033 1.441149 0.340171
v 1.166582 1.571127 0.082313
v -0.172631 2.431959 0.514976
v 0.037387 2.406432 0.496344
v -0.174319 2.536048 0.268975
v 0.027962 2.509640 0.253977
v -0.116450 2.743511 0.663227
v 0.088660 2.678977 0.622276
v -0.130525 2.859609 0.411021
v 0.073623 2.795521 0.369554
v -0.504638 1.143177 -0.026582
v -0.383006 1.201060 -0.229410
v -0.042732 1.279947 -0.334295
v -0.782657 1.790843 -0.014944
v 0.556986 1.181801 -0.105929
v 0.348918 1.179505 -0.250624
v -0.002061 1.528375 -0.320915
v -0.028831 1.142152 0.182080
v 0.422393 2.101986 0.128596
v -0.329622 2.439076 0.371929
v -0.492129 2.592519 0.442222
v -1.004053 1.944187 -0.004740
v 0.195317 2.414739 0.351894
v -0.839457 2.476297 0.589452
v -1.386902 2.058077 0.499040
v -0.644226 2.574937 0.438557
v -1.717187 0.633405 0.970775
v -1.666762 0.352994 0.631081
v 0.462902 2.318335 0.329250
v 0.340959 2.431629 0.353848
v 0.638189 1.932547 0.102876
v 0.723753 2.054894 0.232319
v 0.848411 1.705822 0.135753
v 0.932594 1.676656 0.191622
v 0.891630 1.580071 0.108535
v 1.022433 1.511351 0.183743
v -0.174090 2.483422 0.390743
v 0.031139 2.459118 0.374636
v -0.154679 2.802853 0.539592
v 0.112642 2.736149 0.493862
v -1.523246 0.952103 0.906836
v -1.586260 0.780550 0.837710
v -1.745055 0.960462 0.843011
v -1.707188 0.801199 0.802713
v -1.651394 0.627113 0.739720
v -1.653256 0.934892 0.927761
v -0.069255 1.755294 0.518527
v 0.069488 2.139847 -0.186605
v 0.024859 2.515492 0.074101
v -0.015693 2.266031 0.629069
v -0.075338 2.521927 0.259916
v -0.063427 2.418692 0.504739
v -0.030810 2.844726 0.352082
v -0.011837 2.693830 0.680504
v -0.017062 2.819683 0.539852
v 0.064266 2.662575 0.287259
v 0.078476 2.531797 0.576186
v -0.157388 2.580474 0.611595
v -0.173637 2.711339 0.320718
v -0.181873 2.646938 0.467752
v 0.086813 2.597121 0.430439
v -0.056334 2.695584 0.283677
v -0.037491 2.546246 0.613545
v 0.423367 1.699963 -0.002483
v -0.597545 1.459996 0.213913
v 0.538447 1.813999 -0.216207
v 0.153902 1.179109 0.201606
v -0.236846 0.029946 -0.253953
v -0.385153 0.029245 -0.136314
v -0.402765 0.041590 -0.386113
v -0.267180 0.037504 -0.396676
v 0.301219 0.015043 0.311106
v 0.232801 -0.010032 0.234389
v 0.313060 0.007324 0.274032
v 0.283389 -0.002532 0.247253
v 0.241676 0.011735 0.318647
v 0.088371 0.847163 -0.078803
v 0.120893 0.581087 0.076442
v 0.156331 0.299423 0.194283
v 0.185626 0.326384 0.371695
v 0.167198 0.584293 0.373956
v 0.174356 0.859985 0.333252
v 0.308360 0.319871 0.350749
v 0.374371 0.578003 0.337552
v 0.465326 0.911960 0.272675
v 0.343723 0.871980 -0.034453
v 0.299358 0.583085 0.113413
v 0.262679 0.300438 0.217085
v 0.328124 0.308193 0.271396
v 0.409903 0.596861 0.202186
v 0.503795 0.904670 0.085439
v -0.199235 0.804165 0.222114
v -0.177580 0.535229 0.105304
v -0.180725 0.306230 0.030528
v -0.466071 0.308328 0.013867
v -0.466692 0.579014 0.055287
v -0.481787 0.831519 0.088930
v -0.493759 0.397304 -0.238833
v -0.491470 0.672135 -0.199858
v -0.484221 0.905145 -0.179898
v -0.089260 0.854338 -0.201499
v -0.148364 0.648727 -0.241939
v -0.200200 0.436785 -0.257844
vn -0.0895 0.5649 -0.8203
vn -0.0593 0.1148 -0.9916
vn 0.5609 -0.1996 -0.8034
vn -0.2472 -0.3201 0.9146
vn 0.9351 0.0279 0.3533
vn 0.5936 0.7798 0.1987
vn 0.0556 0.9155 -0.3984
vn 0.6036 -0.2331 0.7625
vn -0.0953 0.8987 0.4280
vn -0.1956 0.5681 -0.7994
vn -0.0741 -0.5283 0.8458
vn -0.3907 -0.8636 -0.3187
vn -0.1625 -0.1507 0.9751
vn 0.3693 -0.8650 0.3396
vn 0.9580 -0.2622 0.1164
vn 0.0790 -0.7741 0.6282
vn 0.0971 0.9710 0.2186
vn 0.0634 -0.7697 0.6352
vn -0.6213 0.2386 0.7464
vn 0.9023 0.0377 -0.4295
vn -0.9027 0.0515 -0.4272
vn 0.5786 0.7556 0.3070
vn 0.5466 0.1724 0.8194
vn -0.1716 -0.5520 0.8160
vn -0.0997 0.6021 0.7922
vn -0.4770 -0.5110 0.7151
vn -0.3587 -0.5330 -0.7664
vn 0.7931 0.5765 -0.1964
vn -0.1630 -0.6327 0.7570
vn 0.3953 0.7834 -0.4796
vn 0.4811 0.2111 0.8509
vn 0.7235 0.3620 -0.5878
vn -0.3487 -0.3763 -0.8584
vn -0.0828 -0.7986 -0.5961
vn -0.6077 -0.0983 -0.7881
vn -0.6312 0.1549 0.7600
vn 0.7070 0.4140 0.5733
vn 0.9740 -0.0047 -0.2264
vn 0.3955 0.5475 0.7374
vn 0.1091 0.9940 0.0066
vn -0.3151 0.8657 0.3889
vn 0.3745 0.8981 0.2304
vn 0.0543 0.9663 0.2516
vn -0.9574 0.0995 0.2713
vn 0.3322 -0.3727 0.8665
vn -0.2896 0.5018 -0.8151
vn -0.6534 -0.5280 -0.5425
vn -0.8848 -0.4351 0.1667
vn 0.1356 0.1221 -0.9832
vn -0.9727 0.2315 -0.0125
vn 0.0706 0.8223 0.5646
vn 0.4453 0.7228 0.5285
vn -0.2690 0.8699 0.4135
vn 0.9882 -0.1442 0.0520
vn 0.5094 0.2904 0.8101
vn -0.7832 -0.1990 -0.5890
vn -0.1695 -0.8634 -0.4751
vn -0.7010 -0.6089 -0.3713
vn 0.7995 0.4588 0.3877
vn -0.4811 -0.7379 -0.4734
vn -0.1596 0.9796 0.1223
vn 0.7437 0.5899 0.3145
vn 0.6285 0.3448 0.6972
vn -0.4843 0.2744 -0.8307
vn 0.1572 0.1014 0.9823
vn -0.6171 -0.6535 0.4383
vn -0.2270 0.4200 0.8787
vn -0.6989 0.6121 0.3699
vn -0.3897 -0.8304 -0.3981
vn 0.2709 0.3734 0.8872
vn 0.5747 0.5670 0.5901
vn 0.2993 0.2974 0.9066
vn -0.4931 0.6096 -0.6207
vn -0.8313 0.3941 0.3920
vn 0.9571 -0.2834 0.0611
vn 0.5222 0.6878 0.5042
vn 0.2399 0.4342 -0.8683
vn -0.1964 -0.3127 0.9293
vn 0.5013 0.8529 0.1459
vn 0.3080 0.9510 0.0256
vn -0.1022 0.4962 0.8622
vn -0.4286 -0.1516 0.8907
vn 0.1037 0.7690 -0.6308
vn -0.0923 -0.5855 0.8054
vn 0.0236 0.1681 -0.9855
vn 0.9503 -0.2876 -0.1195
vn -0.9994 -0.0083 -0.0334
vn -0.1746 0.2176 -0.9603
vn 0.0908 -0.6108 0.7866
vn -0.9960 -0.0240 0.0859
vn 0.9504 -0.2398 -0.1981
vn 0.1478 -0.9532 -0.2638
vn 0.1794 -0.6014 0.7786
vn -0.9616 -0.2079 0.1790
vn -0.9610 -0.2749 0.0312
vn 0.9856 -0.0901 -0.1428
vn -0.0931 0.3502 -0.9320
vn -0.0330 -0.9984 -0.0466
vn 0.0869 -0.9667 0.2409
vn 0.1507 -0.1346 0.9794
vn 0.2249 -0.0758 -0.9714
vn 0.9616 -0.0517 0.2696
vn 0.6521 -0.0350 -0.7573
vn 0.5306 -0.5197 -0.6696
vn 0.5951 -0.4370 -0.6745
vn 0.6176 -0.3423 -0.7081
vn 0.9788 -0.0566 0.1966
vn 0.9536 -0.2149 0.2110
vn 0.9464 -0.2202 0.2364
vn 0.1066 -0.5213 -0.8467
vn 0.1905 -0.4737 -0.8598
vn 0.1954 -0.3587 -0.9128
vn 0.1453 0.4091 0.9009
vn 0.1768 0.1403 0.9742
vn 0.1715 0.0051 0.9852
vn -0.9584 -0.0484 0.2812
vn -0.9829 0.0201 0.1828
vn -0.9849 -0.0639 0.1608
vn -0.1579 -0.2114 -0.9646
vn -0.0704 0.1465 -0.9867
vn -0.0979 0.1222 -0.9877
vn 0.9033 0.1657 0.3957
vn 0.9805 -0.1271 0.1501
vn 0.9926 -0.1176 -0.0299
vn -0.9716 0.0634 -0.2279
vn -0.9988 -0.0211 0.0451
vn -0.9951 -0.0115 0.0987
vn -0.5805 0.0721 0.8111
vn -0.3245 -0.2833 0.9025
vn -0.1300 -0.2239 0.9659
vn 0.5377 -0.1649 0.8268
vn 0.3175 0.4110 -0.8546
vn -0.2463 -0.4249 -0.8711
vn -0.2388 -0.7970 -0.5548
vn -0.8662 -0.0812 -0.4931
vt 0.461701 0.809397
vt 0.301930 0.729761
vt 0.094158 0.499911
vt 0.498737 0.648456
vt 0.250869 0.553264
vt 0.714874 0.752530
vt 0.627854 0.740386
vt 0.227533 0.339544
vt 0.300362 0.438253
vt 0.625828 0.633709
vt 0.338991 0.679376
vt 0.653754 0.621457
vt 0.189641 0.785401
vt 0.531284 0.815038
vt 0.232114 0.729761
vt 0.806952 0.326283
vt 0.527824 0.712310
vt 0.703640 0.331352
vt 0.725736 0.123548
vt 0.557184 0.740386
vt 0.714874 0.681901
vt 0.693091 0.138725
vt 0.558638 0.706064
vt 0.944491 0.391302
vt 0.108931 0.369345
vt 0.090202 0.443431
vt 0.952837 0.467016
vt 0.108059 0.346292
vt 0.960024 0.371234
vt 0.653754 0.712739
vt 0.761990 0.055860
vt 0.265996 0.788213
vt 0.829683 0.188590
vt 0.886815 0.394232
vt 0.909606 0.471204
vt 0.826550 0.267021
vt 0.659457 0.749480
vt 0.206417 0.267620
vt 0.238389 0.812575
vt 0.882743 0.373659
vt 0.837846 0.166681
vt 0.102618 0.289588
vt 0.957957 0.321520
vt 0.918648 0.216117
vt 0.803322 0.012950
vt 0.106348 0.638847
vt 0.232551 0.755661
vt 0.798789 0.485160
vt 0.965752 0.239402
vt 0.153968 0.222285
vt 0.894228 0.312474
vt 0.856067 0.102710
vt 0.881967 0.351902
vt 0.842627 0.144082
vt 0.107159 0.331692
vt 0.958812 0.358201
vt 0.199778 0.246429
vt 0.138792 0.619338
vt 0.232114 0.797406
vt 0.967580 0.012950
vt 0.753483 0.682459
vt 0.843831 0.469074
vt 0.256421 0.022764
vt 0.824689 0.472884
vt 0.987050 0.016155
vt 0.832147 0.505580
vt 0.295109 0.018166
vt 0.782932 0.707368
vt 0.843831 0.503254
vt 0.076417 0.467161
vt 0.958695 0.494573
vt 0.833773 0.298242
vt 0.909847 0.503107
vt 0.076958 0.454690
vt 0.951531 0.482650
vt 0.837149 0.281767
vt 0.912926 0.487172
vt 0.064432 0.532285
vt 0.298790 0.687460
vt 0.825577 0.362572
vt 0.264894 0.686125
vt 0.056614 0.518895
vt 0.959622 0.549977
vt 0.837123 0.350740
vt 0.929664 0.555276
vt 0.051257 0.577890
vt 0.291936 0.641182
vt 0.824256 0.407314
vt 0.275162 0.640522
vt 0.035793 0.577862
vt 0.964581 0.612577
vt 0.838997 0.411720
vt 0.948088 0.615681
vt 0.039898 0.592711
vt 0.301778 0.620707
vt 0.403076 0.772170
vt 0.830596 0.428615
vt 0.403076 0.737417
vt 0.267017 0.619338
vt 0.012950 0.593438
vt 0.987050 0.637067
vt 0.428919 0.781443
vt 0.856067 0.440612
vt 0.428919 0.728949
vt 0.935424 0.646785
vt 0.945356 0.412724
vt 0.357115 0.854737
vt 0.331665 0.779032
vt 0.948027 0.441601
vt 0.799629 0.752473
vt 0.327972 0.853161
vt 0.906904 0.416128
vt 0.370069 0.779032
vt 0.684668 0.778429
vt 0.909575 0.445005
vt 0.655249 0.778999
vt 0.799629 0.791035
vt 0.330193 0.729131
vt 0.557184 0.775635
vt 0.363063 0.804932
vt 0.331684 0.807874
vt 0.754247 0.751428
vt 0.586563 0.768755
vt 0.566112 0.815056
vt 0.689281 0.828405
vt 0.370405 0.729131
vt 0.754247 0.791805
vt 0.657717 0.824383
vt 0.595492 0.808176
vt 0.327830 0.637821
vt 0.590400 0.642651
vt 0.164818 0.789976
vt 0.357235 0.619338
vt 0.642851 0.190721
vt 0.562581 0.649581
vt 0.406824 0.626953
vt 0.080449 0.619338
vt 0.646201 0.239681
vt 0.727583 0.656002
vt 0.597847 0.731399
vt 0.712829 0.722239
vt 0.658284 0.323708
vt 0.527919 0.666449
vt 0.661748 0.291537
vt 0.680225 0.245582
vt 0.377645 0.696957
vt 0.285191 0.477898
vt 0.483372 0.812325
vt 0.280072 0.728266
vt 0.924330 0.393087
vt 0.921760 0.373660
vt 0.678504 0.727397
vt 0.268491 0.812575
vt 0.930826 0.465310
vt 0.923786 0.327561
vt 0.941993 0.227167
vt 0.764056 0.466512
vt 0.919524 0.351927
vt 0.977463 0.013354
vt 0.833186 0.466512
vt 0.317617 0.012950
vt 0.798789 0.722800
vt 0.839639 0.522681
vt 0.934403 0.500152
vt 0.932138 0.484309
vt 0.281656 0.689101
vt 0.944784 0.554368
vt 0.283549 0.640852
vt 0.956335 0.614129
vt 0.284323 0.620942
vt 0.399765 0.754789
vt 0.961112 0.640376
vt 0.422297 0.755187
vt 0.926130 0.414426
vt 0.350867 0.779032
vt 0.928801 0.443303
vt 0.799629 0.771754
vt 0.350773 0.728949
vt 0.557184 0.796361
vt 0.753483 0.771844
vt 0.595492 0.787450
vt 0.985581 0.067358
vt 0.238180 0.070710
vt 0.259592 0.052321
vt 0.138792 0.821791
vt 0.953366 0.057503
vt 0.765454 0.639660
vt 0.120235 0.821584
vt 0.772730 0.660154
vt 0.283154 0.037949
vt 0.784440 0.682652
vt 0.128680 0.843910
vt 0.970110 0.058056
vt 0.758353 0.637393
vt 0.180368 0.432154
vt 0.759258 0.257498
vt 0.884976 0.446549
vt 0.828099 0.241547
vt 0.971226 0.428512
vt 0.101516 0.405509
vt 0.908240 0.430567
vt 0.669958 0.778714
vt 0.946692 0.427163
vt 0.342544 0.853949
vt 0.673120 0.826722
vt 0.582140 0.817526
vt 0.570535 0.766286
vt 0.348248 0.806122
vt 0.576699 0.792002
vt 0.653753 0.802281
vt 0.776512 0.794925
vt 0.776512 0.748700
vt 0.327830 0.829868
vt 0.363063 0.830170
vt 0.327830 0.753980
vt 0.373865 0.753980
vt 0.689281 0.803194
vt 0.351093 0.753886
vt 0.776117 0.771930
vt 0.671321 0.802907
vt 0.345899 0.829874
vt 0.457498 0.727404
vt 0.165986 0.548054
vt 0.260364 0.376248
vt 0.625887 0.695531
vt 0.520555 0.743605
vt 0.734596 0.339638
vt 0.406824 0.703049
vt 0.012950 0.651015
vt 0.277407 0.507014
vt 0.206214 0.619338
vt 0.706517 0.466512
vt 0.399765 0.822801
vt 0.181517 0.620770
vt 0.619265 0.470337
vt 0.422433 0.807343
vt 0.582936 0.466512
vt 0.458892 0.202188
vt 0.422433 0.843958
vt 0.727583 0.468029
vt 0.460639 0.221880
vt 0.402692 0.843997
vt 0.717439 0.778459
vt 0.429089 0.593438
vt 0.518160 0.466685
vt 0.070962 0.817001
vt 0.726094 0.791097
vt 0.457498 0.298878
vt 0.715181 0.783741
vt 0.523936 0.466512
vt 0.458951 0.311476
vt 0.719061 0.788282
vt 0.458165 0.306435
vt 0.058766 0.817583
vt 0.726094 0.778429
vt 0.431598 0.585369
vt 0.599953 0.261833
vt 0.080449 0.668491
vt 0.542336 0.274386
vt 0.076079 0.728305
vt 0.500395 0.287212
vt 0.064936 0.773359
vt 0.389801 0.564275
vt 0.039540 0.774208
vt 0.356388 0.547019
vt 0.031995 0.737396
vt 0.319737 0.531779
vt 0.030523 0.696843
vt 0.505723 0.512116
vt 0.384015 0.580847
vt 0.506522 0.550736
vt 0.346302 0.574833
vt 0.507607 0.604105
vt 0.294291 0.566034
vt 0.610540 0.298468
vt 0.545535 0.300686
vt 0.502363 0.302883
vt 0.504402 0.313331
vt 0.517745 0.511765
vt 0.548610 0.318269
vt 0.527842 0.556627
vt 0.609940 0.323717
vt 0.531284 0.618364
vt 0.660591 0.582499
vt 0.204501 0.743892
vt 0.668589 0.550878
vt 0.206214 0.710848
vt 0.668004 0.517120
vt 0.204545 0.678125
vt 0.623877 0.525891
vt 0.164692 0.675333
vt 0.610236 0.563455
vt 0.167167 0.712219
vt 0.605277 0.597358
vt 0.166352 0.745757
vt 0.511839 0.183186
vt 0.584607 0.521652
vt 0.552303 0.182624
vt 0.569857 0.561129
vt 0.598009 0.178631
vt 0.565182 0.606784
vt 0.592158 0.236754
vt 0.721184 0.600612
vt 0.550092 0.232946
vt 0.722606 0.558204
vt 0.518921 0.225772
vt 0.713819 0.525134
s 0
usemtl Material
f 89/196/1 7/19/1 13/33/1 90/198/1
f 8/22/2 7/19/2 89/196/2 58/145/2 54/138/2 53/134/2
f 6/18/3 56/142/3 57/144/3
f 3/8/4 106/224/4 4/9/4 59/147/4 88/195/4
f 6/17/5 107/226/5 5/14/5 60/148/5 1/1/5 105/222/5 2/4/5 56/143/5
f 61/150/6 13/34/6 16/40/6 62/151/6
f 5/16/7 14/36/7 31/76/7 29/72/7
f 88/195/8 1/3/8 10/26/8 91/200/8
f 67/158/9 21/53/9 20/51/9 65/155/9
f 13/33/10 7/19/10 12/31/10 16/41/10
f 3/8/11 9/25/11 11/28/11 15/38/11
f 55/141/12 3/6/12 15/37/12 63/152/12
f 66/156/13 19/49/13 17/43/13 65/155/13
f 23/57/14 22/55/14 17/42/14 19/50/14
f 83/184/15 82/183/15 25/63/15 26/67/15
f 15/38/16 11/28/16 22/55/16 23/57/16
f 62/151/17 16/40/17 21/53/17 67/158/17
f 69/163/18 26/66/18 25/64/18 68/160/18
f 87/193/19 84/186/19 24/60/19 68/159/19
f 86/190/20 83/184/20 26/67/20 69/161/20
f 84/187/21 85/189/21 27/68/21 24/61/21
f 70/164/22 29/73/22 31/77/22 71/165/22
f 70/164/23 28/71/23 34/83/23 73/167/23
f 10/26/24 1/3/24 28/70/24 30/74/24
f 64/154/25 10/27/25 30/75/25 71/165/25
f 34/82/26 32/78/26 36/86/26 38/90/26
f 60/149/27 5/15/27 33/81/27 72/166/27
f 5/16/28 29/72/28 35/84/28 33/80/28
f 28/70/29 1/3/29 32/78/29 34/82/29
f 37/88/30 39/92/30 43/103/30 41/97/30
f 73/167/31 34/83/31 38/91/31 75/169/31
f 33/80/32 35/84/32 39/92/32 37/88/32
f 72/166/33 33/81/33 37/89/33 74/168/33
f 76/171/34 41/98/34 43/104/34 77/173/34
f 74/168/35 37/89/35 41/99/35 76/170/35
f 38/90/36 36/86/36 40/94/36 42/100/36
f 75/169/37 38/91/37 42/101/37 77/172/37
f 102/219/38 97/211/38 51/127/38 81/180/38
f 91/199/39 10/27/39 45/109/39 93/203/39
f 90/197/40 13/34/40 46/112/40 92/201/40
f 61/150/41 9/24/41 44/106/41 78/174/41
f 64/154/42 14/35/42 47/115/42 79/176/42
f 96/209/43 94/206/43 50/124/43 80/179/43
f 101/218/44 99/215/44 48/118/44 80/178/44
f 104/221/45 98/213/45 49/121/45 95/208/45
f 103/220/46 100/217/46 50/125/46 94/205/46
f 8/23/47 53/135/47 52/131/47
f 8/23/48 52/131/48 4/10/48 106/225/48 3/7/48 55/140/48 7/20/48
f 54/138/49 58/145/49 89/196/49 5/16/49 107/227/49 6/18/49 57/144/49
f 100/216/50 101/218/50 80/178/50 50/126/50
f 95/207/51 96/209/51 80/179/51 48/119/51
f 10/27/52 64/154/52 79/176/52 45/109/52
f 13/34/53 61/150/53 78/174/53 46/112/53
f 98/212/54 102/219/54 81/180/54 49/122/54
f 39/93/55 75/169/55 77/172/55 43/105/55
f 36/87/56 74/168/56 76/170/56 40/95/56
f 40/96/57 76/171/57 77/173/57 42/102/57
f 32/79/58 72/166/58 74/168/58 36/87/58
f 35/85/59 73/167/59 75/169/59 39/93/59
f 1/2/60 60/149/60 72/166/60 32/79/60
f 14/35/61 64/154/61 71/165/61 31/77/61
f 29/73/62 70/164/62 73/167/62 35/85/62
f 28/71/63 70/164/63 71/165/63 30/75/63
f 85/189/64 86/191/64 69/162/64 27/68/64
f 82/182/65 87/193/65 68/159/65 25/65/65
f 27/69/66 69/163/66 68/160/66 24/62/66
f 11/29/67 62/151/67 67/158/67 22/56/67
f 18/44/68 66/156/68 65/155/68 20/51/68
f 7/21/69 55/141/69 63/152/69 12/30/69
f 22/56/70 67/158/70 65/155/70 17/43/70
f 9/24/71 61/150/71 62/151/71 11/29/71
f 19/49/72 66/156/72 87/193/72 82/182/72
f 12/31/73 18/45/73 20/52/73 21/54/73 16/41/73
f 66/157/74 18/48/74 84/187/74 87/194/74
f 23/57/75 19/50/75 82/183/75 83/184/75
f 49/123/76 81/181/76 96/209/76 95/207/76
f 97/210/77 103/220/77 94/205/77 51/128/77
f 99/214/78 104/221/78 95/208/78 48/120/78
f 81/181/79 51/129/79 94/206/79 96/209/79
f 14/35/80 90/197/80 92/201/80 47/115/80
f 9/24/81 91/199/81 93/203/81 44/106/81
f 3/8/82 88/195/82 91/200/82 9/25/82
f 5/16/83 89/196/83 90/198/83 14/36/83
f 44/107/84 93/204/84 104/221/84 99/214/84
f 47/116/85 92/202/85 103/220/85 97/210/85
f 45/110/86 79/177/86 102/219/86 98/212/86
f 46/113/87 78/175/87 101/218/87 100/216/87
f 92/202/88 46/114/88 100/217/88 103/220/88
f 93/204/89 45/111/89 98/213/89 104/221/89
f 78/175/90 44/108/90 99/215/90 101/218/90
f 79/177/91 47/117/91 97/211/91 102/219/91
f 59/146/92 4/11/92 52/130/92 53/133/92 54/136/92 108/228/92
f 136/291/93 110/234/93 109/231/93 135/289/93
f 121/264/94 120/262/94 114/246/94 117/254/94
f 139/297/95 111/237/95 110/235/95 136/290/95
f 135/288/96 109/232/96 112/240/96 144/307/96
f 144/306/97 112/241/97 111/238/97 139/296/97
f 111/239/98 112/242/98 109/233/98 110/236/98
f 117/255/99 114/247/99 116/252/99 115/249/99 113/243/99
f 124/270/100 121/263/100 117/256/100 113/244/100
f 120/261/101 129/277/101 116/253/101 114/248/101
f 130/279/102 124/269/102 113/245/102 115/250/102
f 129/277/103 130/278/103 115/251/103 116/253/103
f 57/144/104 56/142/104 132/282/104 127/275/104
f 127/275/105 132/282/105 131/280/105 128/276/105
f 128/276/106 131/280/106 130/278/106 129/277/106
f 56/143/107 2/4/107 126/273/107 132/283/107
f 132/283/108 126/273/108 125/271/108 131/281/108
f 131/281/109 125/271/109 124/269/109 130/279/109
f 54/138/110 57/144/110 127/275/110 118/257/110
f 118/257/111 127/275/111 128/276/111 119/259/111
f 119/259/112 128/276/112 129/277/112 120/261/112
f 2/5/113 108/230/113 123/267/113 126/274/113
f 126/274/114 123/267/114 122/265/114 125/272/114
f 125/272/115 122/265/115 121/263/115 124/270/115
f 108/229/116 54/137/116 118/258/116 123/268/116
f 123/268/117 118/258/117 119/260/117 122/266/117
f 122/266/118 119/260/118 120/262/118 121/264/118
f 54/138/119 142/302/119 141/300/119 53/134/119
f 142/302/120 143/304/120 140/298/120 141/300/120
f 143/304/121 144/306/121 139/296/121 140/298/121
f 4/12/122 133/284/122 142/303/122 54/139/122
f 133/284/123 134/286/123 143/305/123 142/303/123
f 134/286/124 135/288/124 144/307/124 143/305/124
f 53/135/125 141/301/125 138/294/125 52/131/125
f 141/301/126 140/299/126 137/292/126 138/294/126
f 140/299/127 139/297/127 136/290/127 137/292/127
f 52/132/128 138/295/128 133/285/128 4/13/128
f 138/295/129 137/293/129 134/287/129 133/285/129
f 137/293/130 136/291/130 135/289/130 134/287/130
f 105/223/131 1/3/131 88/195/131 59/147/131 108/230/131 2/5/131
f 86/192/132 85/188/132 83/185/132
f 83/185/133 85/188/133 18/46/133 23/58/133
f 63/153/134 15/39/134 23/59/134 18/47/134 12/32/134
f 84/187/135 18/48/135 85/189/135
l 52 106
