# Blender v3.3.1 OBJ File: 'enemy.blend'
# www.blender.org
mtllib enemy.mtl
o enemy_Cube.004
v 0.200000 -0.384259 -1.337246
v 0.200000 0.815741 -0.796071
v 0.200000 -0.384259 -0.937246
v 0.200000 0.815741 -0.396071
v -0.200000 -0.384259 -1.337246
v -0.200000 0.815741 -0.796071
v -0.200000 -0.384259 -0.937246
v -0.200000 0.815741 -0.396071
v -0.196660 -2.787941 -0.119558
v -0.196660 -0.787941 -0.119558
v -0.196660 -2.787941 -0.519558
v -0.196660 -0.787941 -0.519558
v 0.203340 -2.787941 -0.119558
v 0.203340 -0.787941 -0.119558
v 0.203340 -2.787941 -0.519558
v 0.203340 -0.787941 -0.519558
v 0.200000 0.800000 -0.500000
v 0.200000 -0.800000 -0.500000
v 0.200000 0.800000 0.500000
v 0.200000 -0.800000 0.500000
v -0.200000 0.800000 -0.500000
v -0.200000 -0.800000 -0.500000
v -0.200000 0.800000 0.500000
v -0.200000 -0.800000 0.500000
v -0.196660 -2.787940 0.506626
v -0.196660 -0.787940 0.506626
v -0.196660 -2.787940 0.106626
v -0.196660 -0.787940 0.106626
v 0.203340 -2.787940 0.506626
v 0.203340 -0.787940 0.506626
v 0.203340 -2.787940 0.106626
v 0.203340 -0.787940 0.106626
v -0.200000 -0.384259 1.310714
v -0.200000 0.815741 0.769540
v -0.200000 -0.384259 0.910715
v -0.200000 0.815741 0.369539
v 0.200000 -0.384259 1.310714
v 0.200000 0.815741 0.769540
v 0.200000 -0.384259 0.910715
v 0.200000 0.815741 0.369539
v -0.000000 0.804784 -0.257587
v 0.043491 0.804784 -0.252637
v 0.085311 0.804784 -0.237979
v 0.123852 0.804784 -0.214176
v 0.157634 0.804784 -0.182141
v 0.185358 0.804784 -0.143108
v 0.205959 0.804784 -0.098574
v 0.218645 0.804784 -0.050253
v 0.222928 0.804784 0.000000
v 0.218645 0.804784 0.050253
v 0.205959 0.804784 0.098574
v 0.185358 0.804784 0.143108
v 0.157634 0.804784 0.182141
v 0.123852 0.804784 0.214176
v 0.085311 0.804784 0.237979
v 0.043491 0.804784 0.252637
v -0.000000 0.804784 0.257587
v -0.043491 0.804784 0.252637
v -0.085311 0.804784 0.237979
v -0.123852 0.804784 0.214176
v -0.157634 0.804784 0.182141
v -0.185358 0.804784 0.143108
v -0.205959 0.804784 0.098574
v -0.218645 0.804784 0.050253
v -0.222928 0.804784 0.000000
v -0.218645 0.804784 -0.050253
v -0.205959 0.804784 -0.098574
v -0.185358 0.804784 -0.143108
v -0.157634 0.804784 -0.182141
v -0.123852 0.804784 -0.214176
v -0.085311 0.804784 -0.237979
v -0.043491 0.804784 -0.252637
v -0.000000 1.319958 0.000000
v -0.000000 0.804784 -0.257587
v 0.043491 0.804784 -0.252637
v -0.000000 2.078840 0.000000
v 0.085311 0.804784 -0.237979
v 0.123852 0.804784 -0.214176
v 0.157634 0.804784 -0.182141
v 0.185358 0.804784 -0.143108
v 0.205959 0.804784 -0.098574
v 0.218645 0.804784 -0.050253
v 0.222928 0.804784 0.000000
v 0.218645 0.804784 0.050253
v 0.205959 0.804784 0.098574
v 0.185358 0.804784 0.143108
v 0.157634 0.804784 0.182141
v 0.123852 0.804784 0.214176
v 0.085311 0.804784 0.237979
v 0.043491 0.804784 0.252637
v -0.000000 0.804784 0.257587
v -0.043491 0.804784 0.252637
v -0.085311 0.804784 0.237979
v -0.123852 0.804784 0.214176
v -0.157634 0.804784 0.182141
v -0.185358 0.804784 0.143108
v -0.205959 0.804784 0.098574
v -0.218645 0.804784 0.050253
v -0.222928 1.563666 0.000000
v -0.218645 1.563666 -0.050253
v -0.205959 0.804784 -0.098574
v -0.185358 0.804784 -0.143108
v -0.157634 0.804784 -0.182141
v -0.123852 0.804784 -0.214176
v -0.085311 0.804784 -0.237979
v -0.043491 0.804784 -0.252637
vt 0.375000 0.000000
vt 0.625000 0.000000
vt 0.625000 0.250000
vt 0.375000 0.250000
vt 0.625000 0.500000
vt 0.375000 0.500000
vt 0.625000 0.750000
vt 0.375000 0.750000
vt 0.625000 1.000000
vt 0.375000 1.000000
vt 0.125000 0.500000
vt 0.125000 0.750000
vt 0.875000 0.500000
vt 0.875000 0.750000
vt 0.375000 0.000000
vt 0.625000 0.000000
vt 0.625000 0.250000
vt 0.375000 0.250000
vt 0.625000 0.500000
vt 0.375000 0.500000
vt 0.625000 0.750000
vt 0.375000 0.750000
vt 0.625000 1.000000
vt 0.375000 1.000000
vt 0.125000 0.500000
vt 0.125000 0.750000
vt 0.875000 0.500000
vt 0.875000 0.750000
vt 0.625000 0.500000
vt 0.875000 0.500000
vt 0.875000 0.750000
vt 0.625000 0.750000
vt 0.375000 0.750000
vt 0.625000 1.000000
vt 0.375000 1.000000
vt 0.375000 0.000000
vt 0.625000 0.000000
vt 0.625000 0.250000
vt 0.375000 0.250000
vt 0.125000 0.500000
vt 0.375000 0.500000
vt 0.125000 0.750000
vt 0.375000 0.000000
vt 0.625000 0.000000
vt 0.625000 0.250000
vt 0.375000 0.250000
vt 0.625000 0.500000
vt 0.375000 0.500000
vt 0.625000 0.750000
vt 0.375000 0.750000
vt 0.625000 1.000000
vt 0.375000 1.000000
vt 0.125000 0.500000
vt 0.125000 0.750000
vt 0.875000 0.500000
vt 0.875000 0.750000
vt 0.375000 0.000000
vt 0.625000 0.000000
vt 0.625000 0.250000
vt 0.375000 0.250000
vt 0.625000 0.500000
vt 0.375000 0.500000
vt 0.625000 0.750000
vt 0.375000 0.750000
vt 0.625000 1.000000
vt 0.375000 1.000000
vt 0.125000 0.500000
vt 0.125000 0.750000
vt 0.875000 0.500000
vt 0.875000 0.750000
vt 0.250000 0.490000
vt 0.296822 0.485388
vt 0.250000 0.250000
vt 0.341844 0.471731
vt 0.383337 0.449553
vt 0.419706 0.419706
vt 0.449553 0.383337
vt 0.471731 0.341844
vt 0.485388 0.296822
vt 0.490000 0.250000
vt 0.485388 0.203178
vt 0.471731 0.158156
vt 0.449553 0.116663
vt 0.419706 0.080294
vt 0.383337 0.050447
vt 0.341844 0.028269
vt 0.296822 0.014612
vt 0.250000 0.010000
vt 0.203178 0.014612
vt 0.158156 0.028269
vt 0.116663 0.050447
vt 0.080294 0.080294
vt 0.050447 0.116663
vt 0.028269 0.158156
vt 0.014612 0.203178
vt 0.010000 0.250000
vt 0.014612 0.296822
vt 0.028269 0.341844
vt 0.050447 0.383337
vt 0.080294 0.419706
vt 0.116663 0.449553
vt 0.158156 0.471731
vt 0.750000 0.490000
vt 0.703178 0.485388
vt 0.658156 0.471731
vt 0.616663 0.449553
vt 0.580294 0.419706
vt 0.550447 0.383337
vt 0.528269 0.341844
vt 0.514612 0.296822
vt 0.510000 0.250000
vt 0.514612 0.203178
vt 0.528269 0.158156
vt 0.550447 0.116663
vt 0.580294 0.080294
vt 0.616663 0.050447
vt 0.658156 0.028269
vt 0.703178 0.014612
vt 0.750000 0.010000
vt 0.796822 0.014612
vt 0.841844 0.028269
vt 0.883337 0.050447
vt 0.919706 0.080294
vt 0.949553 0.116663
vt 0.971731 0.158156
vt 0.985388 0.203178
vt 0.990000 0.250000
vt 0.985388 0.296822
vt 0.971731 0.341844
vt 0.949553 0.383337
vt 0.919706 0.419706
vt 0.883337 0.449553
vt 0.841844 0.471731
vt 0.796822 0.485388
vt 0.203178 0.485388
vt 0.250000 0.490000
vt 0.250000 0.250000
vt 0.296822 0.485388
vt 0.341844 0.471731
vt 0.383337 0.449553
vt 0.419706 0.419706
vt 0.449553 0.383337
vt 0.471731 0.341844
vt 0.485388 0.296822
vt 0.490000 0.250000
vt 0.485388 0.203178
vt 0.471731 0.158156
vt 0.449553 0.116663
vt 0.419706 0.080294
vt 0.383337 0.050447
vt 0.341844 0.028269
vt 0.296822 0.014612
vt 0.250000 0.010000
vt 0.203178 0.014612
vt 0.158156 0.028269
vt 0.116663 0.050447
vt 0.080294 0.080294
vt 0.050447 0.116663
vt 0.028269 0.158156
vt 0.014612 0.203178
vt 0.010000 0.250000
vt 0.014612 0.296822
vt 0.028269 0.341844
vt 0.050447 0.383337
vt 0.080294 0.419706
vt 0.116663 0.449553
vt 0.158156 0.471731
vt 0.750000 0.490000
vt 0.796822 0.485388
vt 0.841844 0.471731
vt 0.883337 0.449553
vt 0.919706 0.419706
vt 0.949553 0.383337
vt 0.971731 0.341844
vt 0.985388 0.296822
vt 0.990000 0.250000
vt 0.985388 0.203178
vt 0.971731 0.158156
vt 0.949553 0.116663
vt 0.919706 0.080294
vt 0.883337 0.050447
vt 0.841844 0.028269
vt 0.796822 0.014612
vt 0.750000 0.010000
vt 0.703178 0.014612
vt 0.658156 0.028269
vt 0.616663 0.050447
vt 0.580294 0.080294
vt 0.550447 0.116663
vt 0.528269 0.158156
vt 0.514612 0.203178
vt 0.510000 0.250000
vt 0.514612 0.296822
vt 0.528269 0.341844
vt 0.550447 0.383337
vt 0.580294 0.419706
vt 0.616663 0.449553
vt 0.658156 0.471731
vt 0.703178 0.485388
vt 0.203178 0.485388
vn 1.0000 -0.0000 -0.0000
vn 0.0000 -0.4111 0.9116
vn -1.0000 0.0000 0.0000
vn -0.0000 0.4111 -0.9116
vn 0.0000 -1.0000 0.0000
vn 0.0000 1.0000 0.0000
vn 0.0000 0.0000 -1.0000
vn 0.0000 0.0000 1.0000
vn 0.0000 -0.4111 -0.9116
vn 0.0000 0.4111 0.9116
vn -0.1013 -0.4449 0.8898
vn -0.2970 -0.4405 0.8472
vn -0.4737 -0.4328 0.7670
vn -0.6234 -0.4232 0.6574
vn -0.7423 -0.4135 0.5272
vn -0.8298 -0.4052 0.3838
vn -0.8869 -0.3991 0.2328
vn -0.9150 -0.3959 0.0780
vn -0.9150 -0.3959 -0.0780
vn -0.8869 -0.3991 -0.2328
vn -0.8298 -0.4052 -0.3838
vn -0.7423 -0.4135 -0.5272
vn -0.6234 -0.4232 -0.6574
vn -0.4737 -0.4328 -0.7670
vn -0.2970 -0.4405 -0.8472
vn -0.1013 -0.4449 -0.8898
vn 0.1013 -0.4449 -0.8898
vn 0.2970 -0.4405 -0.8472
vn 0.4737 -0.4328 -0.7670
vn 0.6234 -0.4232 -0.6574
vn 0.7423 -0.4135 -0.5272
vn 0.8298 -0.4052 -0.3838
vn 0.8869 -0.3991 -0.2328
vn 0.9150 -0.3959 -0.0780
vn 0.9150 -0.3959 0.0780
vn 0.8869 -0.3991 0.2328
vn 0.8298 -0.4052 0.3838
vn 0.7423 -0.4135 0.5272
vn 0.6234 -0.4232 0.6574
vn 0.4737 -0.4328 0.7670
vn 0.2970 -0.4405 0.8472
vn 0.1013 -0.4449 0.8898
vn 0.1109 0.1969 -0.9741
vn 0.3245 0.1946 -0.9257
vn 0.5158 0.1906 -0.8352
vn 0.6761 0.1856 -0.7130
vn 0.8019 0.1806 -0.5695
vn 0.8934 0.1764 -0.4133
vn 0.9526 0.1733 -0.2501
vn 0.9816 0.1718 -0.0837
vn 0.9816 0.1718 0.0837
vn 0.9526 0.1733 0.2501
vn 0.8934 0.1764 0.4133
vn 0.8019 0.1806 0.5695
vn 0.6761 0.1856 0.7130
vn 0.5158 0.1906 0.8352
vn 0.3245 0.1946 0.9257
vn 0.1109 0.1969 0.9741
vn -0.1109 0.1969 0.9741
vn -0.3245 0.1946 0.9257
vn -0.5158 0.1906 0.8352
vn -0.6761 0.1856 0.7130
vn -0.8019 0.1806 0.5695
vn -0.8934 0.1764 0.4133
vn -0.9526 0.1733 0.2501
vn -0.1491 0.0645 0.9867
vn -0.9150 0.3959 -0.0780
vn 0.0764 0.0646 -0.9950
vn -0.8934 0.1764 -0.4133
vn -0.8019 0.1806 -0.5695
vn -0.6761 0.1856 -0.7130
vn -0.5158 0.1906 -0.8352
vn -0.3881 -0.9210 -0.0331
vn -0.3245 0.1946 -0.9257
vn -0.1109 0.1969 -0.9741
usemtl Material
s off
f 1/1/1 2/2/1 4/3/1 3/4/1
f 3/4/2 4/3/2 8/5/2 7/6/2
f 7/6/3 8/5/3 6/7/3 5/8/3
f 5/8/4 6/7/4 2/9/4 1/10/4
f 3/11/5 7/6/5 5/8/5 1/12/5
f 8/5/6 4/13/6 2/14/6 6/7/6
f 9/15/3 10/16/3 12/17/3 11/18/3
f 11/18/7 12/17/7 16/19/7 15/20/7
f 15/20/1 16/19/1 14/21/1 13/22/1
f 13/22/8 14/21/8 10/23/8 9/24/8
f 11/25/5 15/20/5 13/22/5 9/26/5
f 16/19/6 12/27/6 10/28/6 14/21/6
f 17/29/6 21/30/6 23/31/6 19/32/6
f 20/33/8 19/32/8 23/34/8 24/35/8
f 24/36/3 23/37/3 21/38/3 22/39/3
f 22/40/5 18/41/5 20/33/5 24/42/5
f 18/41/1 17/29/1 19/32/1 20/33/1
f 22/39/7 21/38/7 17/29/7 18/41/7
f 25/43/3 26/44/3 28/45/3 27/46/3
f 27/46/7 28/45/7 32/47/7 31/48/7
f 31/48/1 32/47/1 30/49/1 29/50/1
f 29/50/8 30/49/8 26/51/8 25/52/8
f 27/53/5 31/48/5 29/50/5 25/54/5
f 32/47/6 28/55/6 26/56/6 30/49/6
f 33/57/3 34/58/3 36/59/3 35/60/3
f 35/60/9 36/59/9 40/61/9 39/62/9
f 39/62/1 40/61/1 38/63/1 37/64/1
f 37/64/10 38/63/10 34/65/10 33/66/10
f 35/67/5 39/62/5 37/64/5 33/68/5
f 40/61/6 36/69/6 34/70/6 38/63/6
f 41/71/11 42/72/11 73/73/11
f 42/72/12 43/74/12 73/73/12
f 43/74/13 44/75/13 73/73/13
f 44/75/14 45/76/14 73/73/14
f 45/76/15 46/77/15 73/73/15
f 46/77/16 47/78/16 73/73/16
f 47/78/17 48/79/17 73/73/17
f 48/79/18 49/80/18 73/73/18
f 49/80/19 50/81/19 73/73/19
f 50/81/20 51/82/20 73/73/20
f 51/82/21 52/83/21 73/73/21
f 52/83/22 53/84/22 73/73/22
f 53/84/23 54/85/23 73/73/23
f 54/85/24 55/86/24 73/73/24
f 55/86/25 56/87/25 73/73/25
f 56/87/26 57/88/26 73/73/26
f 57/88/27 58/89/27 73/73/27
f 58/89/28 59/90/28 73/73/28
f 59/90/29 60/91/29 73/73/29
f 60/91/30 61/92/30 73/73/30
f 61/92/31 62/93/31 73/73/31
f 62/93/32 63/94/32 73/73/32
f 63/94/33 64/95/33 73/73/33
f 64/95/34 65/96/34 73/73/34
f 65/96/35 66/97/35 73/73/35
f 66/97/36 67/98/36 73/73/36
f 67/98/37 68/99/37 73/73/37
f 68/99/38 69/100/38 73/73/38
f 69/100/39 70/101/39 73/73/39
f 70/101/40 71/102/40 73/73/40
f 41/103/6 72/104/6 71/105/6 70/106/6 69/107/6 68/108/6 67/109/6 66/110/6 65/111/6 64/112/6 63/113/6 62/114/6 61/115/6 60/116/6 59/117/6 58/118/6 57/119/6 56/120/6 55/121/6 54/122/6 53/123/6 52/124/6 51/125/6 50/126/6 49/127/6 48/128/6 47/129/6 46/130/6 45/131/6 44/132/6 43/133/6 42/134/6
f 71/102/41 72/135/41 73/73/41
f 72/135/42 41/71/42 73/73/42
f 74/136/43 76/137/43 75/138/43
f 75/138/44 76/137/44 77/139/44
f 77/139/45 76/137/45 78/140/45
f 78/140/46 76/137/46 79/141/46
f 79/141/47 76/137/47 80/142/47
f 80/142/48 76/137/48 81/143/48
f 81/143/49 76/137/49 82/144/49
f 82/144/50 76/137/50 83/145/50
f 83/145/51 76/137/51 84/146/51
f 84/146/52 76/137/52 85/147/52
f 85/147/53 76/137/53 86/148/53
f 86/148/54 76/137/54 87/149/54
f 87/149/55 76/137/55 88/150/55
f 88/150/56 76/137/56 89/151/56
f 89/151/57 76/137/57 90/152/57
f 90/152/58 76/137/58 91/153/58
f 91/153/59 76/137/59 92/154/59
f 92/154/60 76/137/60 93/155/60
f 93/155/61 76/137/61 94/156/61
f 94/156/62 76/137/62 95/157/62
f 95/157/63 76/137/63 96/158/63
f 96/158/64 76/137/64 97/159/64
f 97/159/65 76/137/65 98/160/65
f 98/160/66 76/137/66 99/161/66
f 99/161/67 76/137/67 100/162/67
f 100/162/68 76/137/68 101/163/68
f 101/163/69 76/137/69 102/164/69
f 102/164/70 76/137/70 103/165/70
f 103/165/71 76/137/71 104/166/71
f 104/166/72 76/137/72 105/167/72
f 74/168/73 75/169/73 77/170/73 78/171/73 79/172/73 80/173/73 81/174/73 82/175/73 83/176/73 84/177/73 85/178/73 86/179/73 87/180/73 88/181/73 89/182/73 90/183/73 91/184/73 92/185/73 93/186/73 94/187/73 95/188/73 96/189/73 97/190/73 98/191/73 99/192/73 100/193/73 101/194/73 102/195/73 103/196/73 104/197/73 105/198/73 106/199/73
f 105/167/74 76/137/74 106/200/74
f 106/200/75 76/137/75 74/136/75
