# Blender 3.3.1
# www.blender.org
mtllib mapa_simple.mtl
o Sala_1
v 68.000000 19.000000 -1.000000
v 68.000000 -1.000000 -1.000000
v 68.000000 19.000000 68.000000
v 68.000000 -1.000000 68.000000
v -1.000000 19.000000 -1.000000
v -1.000000 -1.000000 -1.000000
v -1.000000 19.000000 68.000000
v -1.000000 -1.000000 68.000000
v -1.000000 -1.000000 21.500170
v -1.000000 19.000000 45.499035
v -1.000000 19.000000 21.500170
v -1.000000 -1.000000 45.499035
v 45.497887 -1.000000 -1.000000
v -1.000000 17.000000 21.500170
v -1.000000 17.000000 45.499035
v 45.497887 19.000000 -1.000000
v 45.497887 17.000000 -1.000000
v 21.499327 -1.000000 -1.000000
v 21.499327 19.000000 -1.000000
v 21.499327 17.000000 -1.000000
vn -0.0000 -1.0000 -0.0000
vn -0.0000 1.0000 -0.0000
vn 1.0000 -0.0000 -0.0000
vn -0.0000 -0.0000 1.0000
vn -1.0000 -0.0000 -0.0000
vn -0.0000 -0.0000 -1.0000
vt 0.625000 0.500000
vt 0.375000 0.500000
vt 0.625000 0.750000
vt 0.375000 0.750000
vt 0.875000 0.500000
vt 0.625000 0.250000
vt 0.125000 0.500000
vt 0.375000 0.250000
vt 0.875000 0.750000
vt 0.625000 0.000000
vt 0.625000 1.000000
vt 0.125000 0.750000
vt 0.375000 0.000000
vt 0.375000 1.000000
vt 0.125000 0.587500
vt 0.375000 0.162500
vt 0.875000 0.671412
vt 0.625000 0.078588
vt 0.875000 0.587500
vt 0.625000 0.162500
vt 0.125000 0.671412
vt 0.375000 0.078588
vt 0.293870 0.500000
vt 0.375000 0.418870
vt 0.600000 0.162500
vt 0.600000 0.078588
vt 0.706130 0.500000
vt 0.625000 0.418870
vt 0.600000 0.418870
vt 0.206557 0.500000
vt 0.375000 0.331557
vt 0.793443 0.500000
vt 0.625000 0.331557
vt 0.600000 0.331557
s 0
usemtl Material
f 1/1/1 3/3/1 7/9/1 10/17/1 11/19/1 5/5/1 19/32/1 16/27/1
f 6/7/2 9/15/2 12/21/2 8/12/2 4/4/2 2/2/2 13/23/2 18/30/2
f 14/25/3 9/16/3 6/8/3 5/6/3 11/20/3
f 15/26/3 14/25/3 11/20/3 10/18/3
f 20/34/4 17/29/4 16/28/4 19/33/4
f 7/10/3 8/13/3 12/22/3 15/26/3 10/18/3
f 2/2/5 4/4/5 3/3/5 1/1/5
f 6/8/4 18/31/4 20/34/4 19/33/4 5/6/4
f 4/4/6 8/14/6 7/11/6 3/3/6
f 13/24/4 2/2/4 1/1/4 16/28/4 17/29/4
o Sala_2
v -73.000008 19.000000 91.992920
v -73.000008 -1.000000 91.992920
v -142.000000 19.000000 91.992912
v -142.000000 -1.000000 91.992912
v -73.000000 19.000000 22.992924
v -73.000000 -1.000000 22.992924
v -142.000000 19.000000 22.992922
v -142.000000 -1.000000 22.992922
v -95.500168 -1.000000 22.992924
v -119.499039 19.000000 22.992922
v -95.500168 19.000000 22.992924
v -119.499039 -1.000000 22.992922
v -73.000000 -1.000000 69.490814
v -95.500168 17.000000 22.992924
v -119.499039 17.000000 22.992922
v -73.000000 19.000000 69.490814
v -73.000000 17.000000 69.490814
v -73.000000 -1.000000 45.492249
v -73.000000 19.000000 45.492249
v -73.000000 17.000000 45.492249
vn -0.0000 -1.0000 -0.0000
vn -0.0000 1.0000 -0.0000
vn -0.0000 -0.0000 1.0000
vn -1.0000 -0.0000 -0.0000
vn -0.0000 -0.0000 -1.0000
vn 1.0000 -0.0000 -0.0000
vt 0.625000 0.500000
vt 0.375000 0.500000
vt 0.625000 0.750000
vt 0.375000 0.750000
vt 0.875000 0.500000
vt 0.625000 0.250000
vt 0.125000 0.500000
vt 0.375000 0.250000
vt 0.875000 0.750000
vt 0.625000 0.000000
vt 0.625000 1.000000
vt 0.125000 0.750000
vt 0.375000 0.000000
vt 0.375000 1.000000
vt 0.125000 0.587500
vt 0.375000 0.162500
vt 0.875000 0.671412
vt 0.625000 0.078588
vt 0.875000 0.587500
vt 0.625000 0.162500
vt 0.125000 0.671412
vt 0.375000 0.078588
vt 0.293870 0.500000
vt 0.375000 0.418870
vt 0.600000 0.162500
vt 0.600000 0.078588
vt 0.706130 0.500000
vt 0.625000 0.418870
vt 0.600000 0.418870
vt 0.206557 0.500000
vt 0.375000 0.331557
vt 0.793443 0.500000
vt 0.625000 0.331557
vt 0.600000 0.331557
s 0
usemtl Material.001
f 21/35/7 23/37/7 27/43/7 30/51/7 31/53/7 25/39/7 39/66/7 36/61/7
f 26/41/8 29/49/8 32/55/8 28/46/8 24/38/8 22/36/8 33/57/8 38/64/8
f 34/59/9 29/50/9 26/42/9 25/40/9 31/54/9
f 35/60/9 34/59/9 31/54/9 30/52/9
f 40/68/10 37/63/10 36/62/10 39/67/10
f 27/44/9 28/47/9 32/56/9 35/60/9 30/52/9
f 22/36/11 24/38/11 23/37/11 21/35/11
f 26/42/10 38/65/10 40/68/10 39/67/10 25/40/10
f 24/38/12 28/48/12 27/45/12 23/37/12
f 33/58/10 22/36/10 21/35/10 36/62/10 37/63/10
o Pasillo_1
v -49.000000 -1.000000 45.500168
v -49.000000 17.000000 45.500168
v -49.000000 -1.000000 21.500170
v -49.000000 17.000000 21.500170
v -1.000000 -1.000000 45.500168
v -1.000000 17.000000 45.500168
v -1.000000 -1.000000 21.500170
v -1.000000 17.000000 21.500170
v -25.000000 -1.000000 21.500170
v -25.000000 17.000000 21.500170
v -25.000000 -1.000000 45.500168
v -25.000000 17.000000 45.500168
v -49.000000 -1.000000 69.500168
v -49.000000 17.000000 69.500168
v -25.000000 -1.000000 69.500168
v -25.000000 17.000000 69.500168
v -73.000000 -1.000000 45.500168
v -73.000000 17.000000 45.500168
v -73.000000 -1.000000 69.500168
v -73.000000 17.000000 69.500168
vn 1.0000 -0.0000 -0.0000
vn -0.0000 -0.0000 1.0000
vn -0.0000 1.0000 -0.0000
vn -0.0000 -1.0000 -0.0000
vn -0.0000 -0.0000 -1.0000
vn -1.0000 -0.0000 -0.0000
vt 0.125000 0.750000
vt 0.375000 0.000000
vt 0.625000 0.000000
vt 0.875000 0.750000
vt 0.125000 0.500000
vt 0.375000 0.250000
vt 0.875000 0.500000
vt 0.625000 0.250000
vt 0.375000 0.750000
vt 0.625000 0.750000
vt 0.375000 0.500000
vt 0.625000 0.500000
vt 0.250000 0.500000
vt 0.375000 0.375000
vt 0.750000 0.500000
vt 0.625000 0.375000
vt 0.250000 0.750000
vt 0.375000 0.875000
vt 0.750000 0.750000
vt 0.625000 0.875000
vt 0.375000 1.000000
vt 0.125000 0.750000
vt 0.625000 1.000000
vt 0.875000 0.750000
vt 0.250000 0.750000
vt 0.375000 0.875000
vt 0.750000 0.750000
vt 0.625000 0.875000
vt 0.125000 0.750000
vt 0.375000 0.000000
vt 0.625000 0.000000
vt 0.875000 0.750000
vt 0.375000 1.000000
vt 0.125000 0.750000
vt 0.625000 1.000000
vt 0.875000 0.750000
s 0
f 41/70/13 43/74/13 44/76/13 42/71/13
f 49/82/14 47/79/14 48/80/14 50/84/14
f 41/69/15 53/90/15 55/93/15 51/85/15
f 49/81/15 51/85/15 45/77/15 47/79/15
f 50/83/16 52/87/16 42/72/16 44/75/16
f 48/80/16 46/78/16 52/87/16 50/83/16
f 43/73/15 41/69/15 51/85/15 49/81/15
f 45/77/17 51/86/17 52/88/17 46/78/17
f 43/74/14 49/82/14 50/84/14 44/76/14
f 55/94/17 53/89/17 54/91/17 56/96/17
f 53/89/17 59/101/17 60/103/17 54/91/17
f 52/87/16 56/95/16 54/92/16 42/72/16
f 51/86/18 55/94/18 56/96/18 52/88/18
f 41/69/15 57/97/15 59/102/15 53/90/15
f 42/71/14 58/99/14 57/98/14 41/70/14
f 54/92/16 60/104/16 58/100/16 42/72/16
o Pasillo_2
v -119.499039 -1.000000 22.992922
v -119.499039 17.000000 22.992922
v -119.499039 -1.000000 -73.007080
v -119.499039 17.000000 -73.007080
v -95.499039 -1.000000 22.992922
v -95.499039 17.000000 22.992922
v -95.499039 -1.000000 -73.007080
v -95.499039 17.000000 -73.007080
v -119.499039 -1.000000 -49.007080
v -119.499039 -1.000000 -25.007078
v -119.499039 -1.000000 -1.007078
v -119.499039 17.000000 -1.007078
v -119.499039 17.000000 -25.007078
v -119.499039 17.000000 -49.007080
v -95.499039 -1.000000 -1.007078
v -95.499039 -1.000000 -25.007078
v -95.499039 -1.000000 -49.007080
v -95.499039 17.000000 -49.007080
v -95.499039 17.000000 -25.007078
v -95.499039 17.000000 -1.007078
v -71.499039 -1.000000 -73.007080
v -71.499039 17.000000 -73.007080
v -71.499039 -1.000000 -49.007080
v -71.499039 17.000000 -49.007080
vn 1.0000 -0.0000 -0.0000
vn -0.0000 -0.0000 1.0000
vn -1.0000 -0.0000 -0.0000
vn -0.0000 1.0000 -0.0000
vn -0.0000 -1.0000 -0.0000
vn -0.0000 -0.0000 -1.0000
vt 0.125000 0.750000
vt 0.375000 0.000000
vt 0.875000 0.750000
vt 0.625000 0.000000
vt 0.375000 0.250000
vt 0.125000 0.500000
vt 0.625000 0.250000
vt 0.875000 0.500000
vt 0.375000 0.750000
vt 0.625000 0.750000
vt 0.375000 0.500000
vt 0.625000 0.500000
vt 0.125000 0.562500
vt 0.375000 0.187500
vt 0.125000 0.625000
vt 0.375000 0.125000
vt 0.125000 0.687500
vt 0.375000 0.062500
vt 0.875000 0.687500
vt 0.625000 0.062500
vt 0.875000 0.625000
vt 0.625000 0.125000
vt 0.875000 0.562500
vt 0.625000 0.187500
vt 0.375000 0.687500
vt 0.375000 0.625000
vt 0.375000 0.562500
vt 0.625000 0.562500
vt 0.625000 0.625000
vt 0.625000 0.687500
vt 0.375000 0.500000
vt 0.625000 0.500000
vt 0.375000 0.562500
vt 0.625000 0.562500
s 0
f 69/118/19 63/109/19 64/111/19 74/128/19
f 63/109/20 67/115/20 68/116/20 64/111/20
f 75/129/21 65/113/21 66/114/21 80/134/21
f 71/121/22 61/105/22 65/113/22 75/129/22
f 80/134/23 66/114/23 62/107/23 72/123/23
f 68/116/23 78/132/23 74/127/23 64/112/23
f 78/132/23 79/133/23 73/125/23 74/127/23
f 79/133/23 80/134/23 72/123/23 73/125/23
f 63/110/22 69/117/22 77/131/22 67/115/22
f 69/117/22 70/119/22 76/130/22 77/131/22
f 70/119/22 71/121/22 75/129/22 76/130/22
f 68/116/23 82/136/23 84/138/23 78/132/23
f 77/131/21 76/130/21 79/133/21 78/132/21
f 76/130/21 75/129/21 80/134/21 79/133/21
f 61/106/19 71/122/19 72/124/19 62/108/19
f 71/122/19 70/120/19 73/126/19 72/124/19
f 70/120/19 69/118/19 74/128/19 73/126/19
f 78/132/24 84/138/24 83/137/24 77/131/24
f 67/115/20 81/135/20 82/136/20 68/116/20
f 77/131/22 83/137/22 81/135/22 67/115/22
o Sala_3
v -71.499039 -1.000000 -26.491913
v -71.499039 19.000000 -26.491913
v -71.499039 -1.000000 -95.491913
v -71.499039 19.000000 -95.491913
v -2.499039 -1.000000 -26.491913
v -2.499039 19.000000 -26.491913
v -2.499039 -1.000000 -95.491913
v -2.499039 19.000000 -95.491913
v -71.499039 -1.000000 -72.987816
v -71.499039 19.000000 -72.987816
v -2.499039 -1.000000 -72.987816
v -2.499039 19.000000 -72.987816
v -71.499039 -0.999569 -48.996002
v -2.499039 19.000431 -48.996002
v -71.499039 19.000431 -48.996006
v -2.499039 -0.999569 -48.996006
v -2.499039 16.994850 -72.987816
v -71.499039 16.994850 -72.987816
v -71.499039 16.995281 -48.996002
v -2.499039 16.995281 -48.996002
vn 1.0000 -0.0000 -0.0000
vn -0.0000 -0.0000 1.0000
vn -1.0000 -0.0000 -0.0000
vn -0.0000 -1.0000 -0.0000
vn -0.0000 1.0000 -0.0000
vn -0.0000 -0.0000 -1.0000
vt 0.375000 0.000000
vt 0.125000 0.750000
vt 0.375000 1.000000
vt 0.625000 0.000000
vt 0.875000 0.750000
vt 0.625000 1.000000
vt 0.375000 0.250000
vt 0.125000 0.500000
vt 0.625000 0.250000
vt 0.875000 0.500000
vt 0.375000 0.750000
vt 0.625000 0.750000
vt 0.375000 0.500000
vt 0.625000 0.500000
vt 0.375000 0.168453
vt 0.125000 0.581547
vt 0.875000 0.581547
vt 0.625000 0.168453
vt 0.375000 0.581547
vt 0.625000 0.581547
vt 0.375000 0.081570
vt 0.125000 0.668430
vt 0.625000 0.668430
vt 0.875000 0.668430
vt 0.625000 0.081570
vt 0.375000 0.668430
vt 0.548864 0.581547
vt 0.548864 0.168453
vt 0.548864 0.081570
vt 0.548864 0.668430
s 0
f 93/153/25 87/145/25 88/147/25 94/156/25 102/166/25
f 87/145/26 91/151/26 92/152/26 88/147/26
f 100/164/27 89/149/27 90/150/27 98/161/27 104/168/27
f 85/139/25 97/159/25 103/167/25 99/163/25 86/142/25
f 94/155/28 88/148/28 92/152/28 96/158/28 98/161/28 90/150/28 86/143/28 99/162/28
f 95/157/29 91/151/29 87/146/29 93/154/29 97/160/29 85/140/29 89/149/29 100/164/29
f 89/149/30 85/141/30 86/144/30 90/150/30
f 103/167/25 102/166/25 94/156/25 99/163/25
f 91/151/27 95/157/27 101/165/27 96/158/27 92/152/27
f 101/165/27 104/168/27 98/161/27 96/158/27
o Pasillo_3
v 21.499329 -1.000000 -1.000000
v 21.499329 17.000000 -1.000000
v 21.499329 -1.000000 -73.000000
v 21.499329 17.000000 -73.000000
v 45.499329 -1.000000 -1.000000
v 45.499329 17.000000 -1.000000
v 45.499329 -1.000000 -73.000000
v 45.499329 17.000000 -73.000000
v 21.499329 -1.000000 -48.964951
v 21.499329 17.000000 -48.964951
v 45.499329 -1.000000 -48.964951
v 45.499329 17.000000 -48.964951
v -2.499039 -1.000000 -73.000000
v -2.499039 17.000000 -73.000000
v -2.499039 -1.000000 -48.964951
v -2.499039 17.000000 -48.964951
vn -0.0000 -0.0000 -1.0000
vn -0.0000 -0.0000 1.0000
vn -1.0000 -0.0000 -0.0000
vn -0.0000 1.0000 -0.0000
vn -0.0000 -1.0000 -0.0000
vn 1.0000 -0.0000 -0.0000
vt 0.125000 0.750000
vt 0.375000 0.000000
vt 0.875000 0.750000
vt 0.625000 0.000000
vt 0.375000 0.250000
vt 0.125000 0.500000
vt 0.875000 0.500000
vt 0.625000 0.250000
vt 0.375000 0.750000
vt 0.625000 0.750000
vt 0.375000 0.500000
vt 0.625000 0.500000
vt 0.375000 0.165987
vt 0.125000 0.584013
vt 0.625000 0.165987
vt 0.875000 0.584013
vt 0.375000 0.584013
vt 0.625000 0.584013
vt 0.375000 0.250000
vt 0.125000 0.500000
vt 0.875000 0.500000
vt 0.625000 0.250000
vt 0.375000 0.165987
vt 0.125000 0.584013
vt 0.625000 0.165987
vt 0.875000 0.584013
s 0
f 113/181/31 119/191/31 120/193/31 114/183/31
f 107/173/32 111/179/32 112/180/32 108/176/32
f 115/185/33 109/177/33 110/178/33 116/186/33
f 113/182/34 105/169/34 109/177/34 115/185/34
f 116/186/35 110/178/35 106/171/35 114/184/35
f 112/180/35 116/186/35 114/184/35 108/175/35
f 107/174/34 113/182/34 115/185/34 111/179/34
f 111/179/33 115/185/33 116/186/33 112/180/33
f 105/170/36 113/181/36 114/183/36 106/172/36
f 114/184/35 120/194/35 118/189/35 108/175/35
f 108/176/32 118/190/32 117/187/32 107/173/32
f 107/174/34 117/188/34 119/192/34 113/182/34
