# Blender 3.3.1
# www.blender.org
mtllib Pasillo_6.mtl
o Pasillo_6
v -40.402534 1.392719 23.129196
v -40.402534 6.792719 23.129196
v -33.202534 1.392719 23.129196
v -33.202534 6.792719 23.129196
v -40.402534 1.392719 1.541840
v -40.402534 6.792719 1.541840
v -33.202534 1.392719 1.541840
v -33.202534 6.792719 1.541840
vn -1.0000 -0.0000 -0.0000
vn -0.0000 1.0000 -0.0000
vn -0.0000 -1.0000 -0.0000
vn 1.0000 -0.0000 -0.0000
vt 0.274661 0.806322
vt 0.774662 0.008597
vt 0.291855 0.806322
vt 0.575113 0.008597
vt 0.991403 0.806322
vt 0.008597 0.806322
vt 0.791855 0.806322
vt 0.557919 0.806322
vt 0.274661 0.008596
vt 0.774662 0.806323
vt 0.291855 0.008596
vt 0.575113 0.806323
vt 0.991403 0.008596
vt 0.008597 0.008596
vt 0.791855 0.008596
vt 0.557919 0.008596
s 0
usemtl Material.003
f 7/13/1 3/5/1 4/7/1 8/15/1
f 5/9/2 1/1/2 3/6/2 7/14/2
f 8/16/3 4/8/3 2/3/3 6/11/3
f 1/2/4 5/10/4 6/12/4 2/4/4
