# Blender 3.3.1
# www.blender.org
mtllib Pasillo_7.mtl
o Pasillo_7
v -82.701843 1.392719 23.129196
v -82.701843 6.792719 23.129196
v -75.501846 1.392719 23.129196
v -75.501846 6.792719 23.129196
v -82.701843 1.392719 8.739711
v -82.701843 6.792719 8.739711
v -75.501846 1.392719 8.739711
v -75.501846 6.792719 8.739711
vn -1.0000 -0.0000 -0.0000
vn -0.0000 1.0000 -0.0000
vn -0.0000 -1.0000 -0.0000
vn 1.0000 -0.0000 -0.0000
vt 0.276575 0.545648
vt 0.574475 0.545648
vt 0.290792 0.545648
vt 0.776575 0.545648
vt 0.790792 0.007109
vt 0.007109 0.545648
vt 0.992891 0.007109
vt 0.560258 0.545648
vt 0.276575 0.007109
vt 0.574475 0.007109
vt 0.290792 0.007109
vt 0.776575 0.007109
vt 0.790792 0.545647
vt 0.007109 0.007109
vt 0.992891 0.545647
vt 0.560258 0.007109
s 0
usemtl Material.001
f 7/13/1 3/5/1 4/7/1 8/15/1
f 5/9/2 1/1/2 3/6/2 7/14/2
f 8/16/3 4/8/3 2/3/3 6/11/3
f 1/2/4 5/10/4 6/12/4 2/4/4
