# Blender 3.3.1
# www.blender.org
mtllib Pasillo_3.mtl
o Pasillo_3
v -40.402550 1.392719 -19.158163
v -40.402550 6.792719 -19.158163
v -40.402550 1.392719 -40.758163
v -40.402550 6.792719 -40.758163
v -33.202549 1.392719 -19.158163
v -33.202549 6.792719 -19.158163
v -33.202549 1.392719 -40.758163
v -33.202549 6.792719 -40.758163
v -40.402550 1.392719 -33.547649
v -40.402550 6.792719 -33.547649
v -33.202549 1.392719 -33.547649
v -33.202549 6.792719 -33.547649
v -47.602058 1.392719 -40.758163
v -47.602058 6.792719 -40.758163
v -47.602058 1.392719 -33.547649
v -47.602058 6.792719 -33.547649
vn -0.0000 -0.0000 -1.0000
vn -0.0000 -0.0000 1.0000
vn -1.0000 -0.0000 -0.0000
vn -0.0000 1.0000 -0.0000
vn -0.0000 -1.0000 -0.0000
vn 1.0000 -0.0000 -0.0000
vt 0.201873 0.586916
vt 0.316835 0.605618
vt 0.605605 0.009351
vt 0.172444 0.605618
vt 0.153742 0.798127
vt 0.201873 0.009350
vt 0.605605 0.586917
vt 0.009351 0.798127
vt 0.961207 0.586916
vt 0.009351 0.586916
vt 0.816816 0.586916
vt 0.413083 0.009351
vt 0.153742 0.990649
vt 0.009351 0.009350
vt 0.961207 0.009350
vt 0.009351 0.990649
vt 0.413083 0.586917
vt 0.816816 0.009350
vt 0.479928 0.605618
vt 0.316835 0.990381
vt 0.201873 0.202154
vt 0.335537 0.605618
vt 0.172444 0.990381
vt 0.605605 0.394114
vt 0.009351 0.202154
vt 0.961207 0.202154
vt 0.413083 0.394114
vt 0.816816 0.202154
vt 0.153742 0.605618
vt 0.394382 0.009350
vt 0.798114 0.586917
vt 0.009351 0.605618
vt 0.479928 0.798127
vt 0.394382 0.202154
vt 0.335537 0.798127
vt 0.798114 0.394114
s 0
usemtl Material.004
f 9/19/1 15/33/1 16/35/1 10/22/1
f 3/5/2 7/13/2 8/16/2 4/8/2
f 11/26/3 5/9/3 6/11/3 12/28/3
f 9/21/4 1/1/4 5/10/4 11/25/4
f 12/27/5 6/12/5 2/3/5 10/24/5
f 8/17/5 12/27/5 10/24/5 4/7/5
f 3/6/4 9/21/4 11/25/4 7/14/4
f 7/15/3 11/26/3 12/28/3 8/18/3
f 1/2/6 9/20/6 10/23/6 2/4/6
f 10/24/5 16/36/5 14/31/5 4/7/5
f 4/8/2 14/32/2 13/29/2 3/5/2
f 3/6/4 13/30/4 15/34/4 9/21/4
