# Blender 3.3.1
# www.blender.org
mtllib Pasillo_1.mtl
o Pasillo_1
v -61.552334 1.392719 -5.208111
v -61.552334 6.792719 -5.208111
v -61.552334 1.392719 -12.408112
v -61.552334 6.792719 -12.408112
v -47.152332 1.392719 -5.208111
v -47.152332 6.792719 -5.208111
v -47.152332 1.392719 -12.408112
v -47.152332 6.792719 -12.408112
v -54.352333 1.392719 -12.408112
v -54.352333 6.792719 -12.408112
v -54.352333 1.392719 -5.208111
v -54.352333 6.792719 -5.208111
v -61.552334 1.392719 1.991889
v -61.552334 6.792719 1.991889
v -54.352333 1.392719 1.991889
v -54.352333 6.792719 1.991889
v -68.752335 1.392719 -5.208111
v -68.752335 6.792719 -5.208111
v -68.752335 1.392719 1.991889
v -68.752335 6.792719 1.991889
vn 1.0000 -0.0000 -0.0000
vn -0.0000 -0.0000 1.0000
vn -0.0000 1.0000 -0.0000
vn -0.0000 -1.0000 -0.0000
vn -0.0000 -0.0000 -1.0000
vn -1.0000 -0.0000 -0.0000
vt 0.496675 0.623168
vt 0.207723 0.404791
vt 0.327565 0.820236
vt 0.348873 0.623168
vt 0.179763 0.820236
vt 0.623168 0.404791
vt 0.496675 0.820236
vt 0.404791 0.404791
vt 0.989346 0.010654
vt 0.348873 0.820236
vt 0.426099 0.404791
vt 0.841545 0.010654
vt 0.207723 0.010654
vt 0.158455 0.623168
vt 0.623168 0.010654
vt 0.010654 0.623168
vt 0.989346 0.404791
vt 0.404791 0.010654
vt 0.841545 0.404791
vt 0.426099 0.010654
vt 0.404791 0.207723
vt 0.989346 0.207723
vt 0.426099 0.207723
vt 0.841545 0.207723
vt 0.207723 0.207723
vt 0.158455 0.820236
vt 0.665784 0.623168
vt 0.010654 0.820236
vt 0.623168 0.207723
vt 0.517983 0.623168
vt 0.989346 0.623168
vt 0.010654 0.404791
vt 0.841545 0.623168
vt 0.820236 0.404791
vt 0.010654 0.207723
vt 0.989346 0.426099
vt 0.665784 0.820236
vt 0.841545 0.426099
vt 0.820236 0.207723
vt 0.517983 0.820236
vt 0.207723 0.601860
vt 0.327565 0.623169
vt 0.179763 0.623169
vt 0.623168 0.601860
vt 0.989346 0.820236
vt 0.010654 0.601860
vt 0.841545 0.820236
vt 0.820236 0.601860
s 0
usemtl Material.002
f 1/1/1 3/7/1 4/10/1 2/4/1
f 9/22/2 7/17/2 8/19/2 10/24/2
f 1/2/3 13/32/3 15/35/3 11/25/3
f 9/21/3 11/25/3 5/13/3 7/18/3
f 10/23/4 12/29/4 2/6/4 4/11/4
f 8/20/4 6/15/4 12/29/4 10/23/4
f 3/8/3 1/2/3 11/25/3 9/21/3
f 5/14/5 11/26/5 12/28/5 6/16/5
f 3/9/2 9/22/2 10/24/2 4/12/2
f 15/36/5 13/31/5 14/33/5 16/38/5
f 13/31/5 19/45/5 20/47/5 14/33/5
f 12/29/4 16/39/4 14/34/4 2/6/4
f 11/27/6 15/37/6 16/40/6 12/30/6
f 1/2/3 17/41/3 19/46/3 13/32/3
f 2/5/2 18/43/2 17/42/2 1/3/2
f 14/34/4 20/48/4 18/44/4 2/6/4
