# Blender 3.3.1
# www.blender.org
mtllib patio.mtl
o Patio_exterior
v -89.452339 1.392719 43.829197
v -89.452339 7.392719 43.829197
v -89.452339 1.392719 23.129196
v -89.452339 7.392719 23.129196
v -26.452335 1.392719 43.829197
v -26.452335 7.392719 43.829197
v -26.452335 1.392719 23.129196
v -26.452335 7.392719 23.129196
v -75.502411 1.392719 23.129196
v -75.502411 7.392719 23.129196
v -75.502411 6.792719 23.129196
v -82.701843 1.392719 23.129196
v -82.701843 7.392719 23.129196
v -82.701843 6.792719 23.129196
v -40.402527 7.392719 23.129196
v -40.402527 6.792719 23.129196
v -40.402527 1.392719 23.129196
v -33.202530 7.392719 23.129196
v -33.202530 6.792719 23.129196
v -33.202530 1.392719 23.129196
vn -0.0000 -0.0000 1.0000
vn -1.0000 -0.0000 -0.0000
vn 1.0000 -0.0000 -0.0000
vn -0.0000 -0.0000 -1.0000
vn -0.0000 1.0000 -0.0000
vt 0.325397 0.341270
vt 0.341270 0.007937
vt 0.341270 0.658730
vt 0.325397 0.658730
vt 0.341270 0.325397
vt 0.007937 0.341270
vt 0.325397 0.674603
vt 0.341270 0.341270
vt 0.007937 0.658730
vt 0.325397 0.992064
vt 0.007936 0.007937
vt 0.658730 0.007937
vt 0.658730 0.658730
vt 0.007936 0.325397
vt 0.658730 0.325397
vt 0.007936 0.674603
vt 0.325397 0.007937
vt 0.658730 0.341270
vt 0.007936 0.992064
vt 0.325397 0.325397
vt 0.255102 0.674603
vt 0.411564 0.341270
vt 0.255102 0.992064
vt 0.255102 0.960317
vt 0.291381 0.674603
vt 0.375286 0.341270
vt 0.291381 0.992064
vt 0.291381 0.960317
vt 0.078232 0.992064
vt 0.078232 0.960317
vt 0.078232 0.674603
vt 0.588434 0.341270
vt 0.041951 0.992064
vt 0.041951 0.960317
vt 0.041951 0.674603
vt 0.624716 0.341270
s 0
usemtl Material.006
f 19/34/1 20/35/1 7/16/1 8/19/1 18/33/1
f 7/17/2 5/11/2 6/14/2 8/20/2
f 9/21/1 17/31/1 16/30/1 15/29/1 10/23/1 11/24/1
f 1/1/3 3/6/3 4/9/3 2/4/3
f 14/28/1 11/24/1 10/23/1 13/27/1
f 3/7/1 12/25/1 14/28/1 13/27/1 4/10/1
f 5/12/4 1/2/4 2/5/4 6/15/4
f 9/22/5 12/26/5 3/8/5 1/3/5 5/13/5 7/18/5 20/36/5 17/32/5
f 16/30/1 19/34/1 18/33/1 15/29/1
