# Blender 3.3.1
# www.blender.org
mtllib Patio.mtl
o Patio
v -26.452129 7.392719 43.829193
v -26.452129 1.392719 43.829193
v -47.152130 7.392719 43.829193
v -47.152130 1.392719 43.829193
v -26.452129 7.392719 23.129194
v -26.452129 1.392719 23.129194
v -47.152130 7.392719 23.129192
v -47.152130 1.392719 23.129192
v -33.202179 1.392719 23.129194
v -40.401840 7.392719 23.129194
v -33.202179 7.392719 23.129194
v -40.401840 1.392719 23.129194
v -33.202179 6.792720 23.129194
v -40.401840 6.792720 23.129194
v -47.152134 7.392719 43.829201
v -47.152134 1.392719 43.829201
v -89.452133 7.392719 43.829197
v -89.452133 1.392719 43.829197
v -47.152134 7.392719 23.129196
v -47.152134 1.392719 23.129196
v -89.452133 7.392719 23.129194
v -89.452133 1.392719 23.129194
v -75.502182 1.392719 23.129196
v -82.701843 7.392719 23.129196
v -75.502182 7.392719 23.129196
v -82.701843 1.392719 23.129196
v -75.502182 6.792720 23.129196
v -82.701843 6.792720 23.129196
vn -0.0000 1.0000 -0.0000
vn -0.0000 -0.0000 1.0000
vn -0.0000 -0.0000 -1.0000
vn -1.0000 -0.0000 -0.0000
vn 1.0000 -0.0000 -0.0000
vt 0.455763 0.344872
vt 0.344871 0.660734
vt 0.660732 0.009668
vt 0.547318 0.344872
vt 0.436425 0.660734
vt 0.455763 0.660732
vt 0.344872 0.009668
vt 0.547318 0.660732
vt 0.009669 0.990330
vt 0.344871 0.344871
vt 0.660732 0.325533
vt 0.101223 0.990330
vt 0.436425 0.344871
vt 0.009669 0.674469
vt 0.344872 0.325533
vt 0.101223 0.674469
vt 0.557735 0.325533
vt 0.101223 0.887333
vt 0.009669 0.777470
vt 0.009669 0.887333
vt 0.447872 0.325533
vt 0.101223 0.777470
vt 0.018825 0.887333
vt 0.018825 0.777470
vt 0.790965 0.009670
vt 0.009668 0.009670
vt 0.882519 0.009670
vt 0.790965 0.655128
vt 0.566656 0.344870
vt 0.009668 0.655128
vt 0.882519 0.655128
vt 0.658211 0.344870
vt 0.680072 0.655129
vt 0.325533 0.009670
vt 0.771627 0.655129
vt 0.680072 0.009669
vt 0.566656 0.660734
vt 0.325533 0.655128
vt 0.771627 0.009669
vt 0.658211 0.660734
vt 0.325533 0.442265
vt 0.771627 0.222533
vt 0.680072 0.112672
vt 0.680072 0.222533
vt 0.325533 0.552124
vt 0.771627 0.112672
vt 0.689228 0.222533
vt 0.689228 0.112672
s 0
usemtl material_sala_4.003
f 6/11/1 9/17/1 12/21/1 8/15/1 4/7/1 2/3/1
f 13/23/2 9/18/2 6/12/2 5/9/2 11/20/2
f 14/24/2 13/23/2 11/20/2 10/19/2
f 7/14/2 8/16/2 12/22/2 14/24/2 10/19/2
f 2/4/3 4/8/3 3/6/3 1/1/3
f 6/13/4 2/5/4 1/2/4 5/10/4
usemtl material_sala_4.002
f 20/34/1 23/41/1 26/45/1 22/38/1 18/30/1 16/26/1
f 27/47/2 23/42/2 20/35/2 19/33/2 25/44/2
f 28/48/2 27/47/2 25/44/2 24/43/2
f 21/36/2 22/39/2 26/46/2 28/48/2 24/43/2
f 16/27/3 18/31/3 17/28/3 15/25/3
f 18/32/5 22/40/5 21/37/5 17/29/5
