# Blender 3.3.1
# www.blender.org
mtllib Sala_1.mtl
o Sala_1
v -26.452332 7.392719 -19.158161
v -26.452332 1.392719 -19.158161
v -26.452332 7.392719 1.541840
v -26.452332 1.392719 1.541840
v -47.152332 7.392719 -19.158161
v -47.152332 1.392719 -19.158161
v -47.152332 7.392719 1.541840
v -47.152332 1.392719 1.541840
v -47.152332 1.392719 -12.408111
v -47.152332 7.392719 -5.208451
v -47.152332 7.392719 -12.408111
v -47.152332 1.392719 -5.208451
v -33.202965 1.392719 -19.158161
v -47.152332 6.792719 -12.408111
v -47.152332 6.792719 -5.208451
v -33.202965 7.392719 -19.158161
v -33.202965 6.792719 -19.158161
v -40.402534 1.392719 -19.158161
v -40.402534 7.392719 -19.158161
v -40.402534 6.792719 -19.158161
v -40.402534 7.392719 1.541840
v -40.402534 1.392719 1.541840
v -33.202965 1.392719 1.541840
v -33.202965 7.392719 1.541840
v -40.402534 6.792717 1.541840
v -33.202965 6.792717 1.541840
vn -0.0000 -1.0000 -0.0000
vn -0.0000 1.0000 -0.0000
vn 1.0000 -0.0000 -0.0000
vn -0.0000 -0.0000 1.0000
vn -0.0000 -0.0000 -1.0000
vn -1.0000 -0.0000 -0.0000
vt 0.490030 0.509970
vt 0.509970 0.490030
vt 0.669057 0.009970
vt 0.009970 0.009970
vt 0.649117 0.490030
vt 0.808206 0.009970
vt 0.490030 0.990030
vt 0.828145 0.009970
vt 0.669057 0.490030
vt 0.009970 0.490030
vt 0.967292 0.009970
vt 0.808205 0.490030
vt 0.009970 0.509970
vt 0.509970 0.990030
vt 0.509970 0.009970
vt 0.490030 0.009970
vt 0.649117 0.990030
vt 0.649118 0.009970
vt 0.009970 0.990030
vt 0.509970 0.509970
vt 0.828145 0.490030
vt 0.490030 0.490030
vt 0.649117 0.509970
vt 0.967292 0.490030
vt 0.490030 0.166512
vt 0.649117 0.833488
vt 0.009970 0.833482
vt 0.509970 0.666517
vt 0.009970 0.666512
vt 0.509970 0.833488
vt 0.490030 0.333482
vt 0.649117 0.666517
vt 0.166527 0.009970
vt 0.649117 0.333474
vt 0.523884 0.833488
vt 0.523884 0.666517
vt 0.333474 0.509970
vt 0.509970 0.333474
vt 0.523884 0.333474
vt 0.333494 0.009970
vt 0.649117 0.166507
vt 0.166507 0.509970
vt 0.509970 0.166507
vt 0.523884 0.166507
vt 0.166506 0.990030
vt 0.828145 0.333494
vt 0.333494 0.490030
vt 0.967292 0.333494
vt 0.166526 0.490030
vt 0.967292 0.166526
vt 0.333474 0.990030
vt 0.828144 0.166526
vt 0.841360 0.333494
vt 0.841360 0.166526
s 0
usemtl Material
f 1/1/1 3/7/1 24/51/1 21/45/1 7/19/1 10/27/1 11/29/1 5/13/1 19/42/1 16/37/1
f 6/16/2 9/25/2 12/31/2 8/22/2 22/47/2 23/49/2 4/10/2 2/4/2 13/33/2 18/40/2
f 14/35/3 9/26/3 6/17/3 5/14/3 11/30/3
f 15/36/3 14/35/3 11/30/3 10/28/3
f 20/44/4 17/39/4 16/38/4 19/43/4
f 7/20/3 8/23/3 12/32/3 15/36/3 10/28/3
f 6/18/4 18/41/4 20/44/4 19/43/4 5/15/4
f 4/11/5 23/50/5 26/54/5 24/52/5 3/8/5
f 13/34/4 2/5/4 1/2/4 16/38/4 17/39/4
f 26/54/5 25/53/5 21/46/5 24/52/5
f 2/6/6 4/12/6 3/9/6 1/3/6
f 22/48/5 8/24/5 7/21/5 21/46/5 25/53/5
