# Blender 3.3.1
# www.blender.org
mtllib Sala_4.mtl
o Sala_4
v -110.593903 7.392719 -40.311214
v -110.593903 1.392719 -40.311214
v -89.893898 7.392719 -40.311214
v -89.893898 1.392719 -40.311214
v -110.593903 7.392719 -19.611214
v -110.593903 1.392719 -19.611214
v -89.893898 7.392719 -19.611214
v -89.893898 1.392719 -19.611214
v -103.843849 1.392719 -19.611214
v -96.644188 7.392719 -19.611214
v -103.843849 7.392719 -19.611214
v -96.644188 1.392719 -19.611214
v -103.843849 6.792719 -19.611214
v -96.644188 6.792719 -19.611214
vn -0.0000 -1.0000 -0.0000
vn -0.0000 1.0000 -0.0000
vn -0.0000 -0.0000 -1.0000
vn -0.0000 -0.0000 1.0000
vn 1.0000 -0.0000 -0.0000
vn -1.0000 -0.0000 -0.0000
vt 0.490030 0.509970
vt 0.509970 0.009970
vt 0.669057 0.490030
vt 0.009970 0.009970
vt 0.649118 0.009970
vt 0.808205 0.490030
vt 0.490030 0.990030
vt 0.509970 0.490030
vt 0.828145 0.009970
vt 0.009970 0.490030
vt 0.649117 0.490030
vt 0.967292 0.009970
vt 0.009970 0.509970
vt 0.509970 0.990030
vt 0.669057 0.009970
vt 0.490030 0.009970
vt 0.649117 0.990030
vt 0.808206 0.009970
vt 0.009970 0.990030
vt 0.509970 0.509970
vt 0.828145 0.490030
vt 0.490030 0.490030
vt 0.649117 0.509970
vt 0.967292 0.490030
vt 0.490030 0.166512
vt 0.649117 0.833488
vt 0.009970 0.833482
vt 0.509970 0.666517
vt 0.009970 0.666512
vt 0.509970 0.833488
vt 0.490030 0.333482
vt 0.649117 0.666517
vt 0.523884 0.833488
vt 0.523884 0.666517
s 0
usemtl material_sala_4
f 1/1/1 3/7/1 7/19/1 10/27/1 11/29/1 5/13/1
f 6/16/2 9/25/2 12/31/2 8/22/2 4/10/2 2/4/2
f 13/33/3 9/26/3 6/17/3 5/14/3 11/30/3
f 14/34/3 13/33/3 11/30/3 10/28/3
f 7/20/3 8/23/3 12/32/3 14/34/3 10/28/3
f 2/5/4 4/11/4 3/8/4 1/2/4
f 6/18/5 2/6/5 1/3/5 5/15/5
f 4/12/6 8/24/6 7/21/6 3/9/6
