# Blender 3.5.0
# www.blender.org
mtllib escopeta.mtl
o escopeta
v -0.124096 -0.247519 0.157398
v -0.124096 -0.229288 0.307333
v -0.015904 -0.247519 0.157398
v -0.015904 -0.229288 0.307333
v -0.124096 -0.102611 0.262896
v -0.104096 0.103822 0.181998
v -0.109096 0.206570 0.176301
v -0.109096 0.309660 0.180859
v -0.015904 -0.200600 0.151701
v -0.035904 0.075337 0.144865
v -0.030904 0.206570 0.100428
v -0.030904 0.359660 0.113447
v -0.030904 0.309659 0.180859
v -0.030904 0.206570 0.176301
v -0.035904 0.103822 0.181998
v -0.015904 -0.102611 0.262896
v -0.109096 0.309659 0.113447
v -0.109096 0.206570 0.100428
v -0.104096 0.075337 0.144865
v -0.124096 -0.200600 0.151701
v -0.104096 0.064412 0.210483
v -0.035904 0.035357 0.157398
v -0.035904 0.064412 0.210483
v -0.104096 0.035357 0.157398
v -0.035904 0.052113 0.236500
v -0.104096 -0.008560 0.142016
v -0.104096 0.052113 0.236500
v -0.035904 -0.008560 0.142016
v -0.035904 -0.013380 0.227859
v -0.104096 -0.104580 0.146859
v -0.104096 -0.013380 0.227859
v -0.035904 -0.104580 0.146859
v -0.104096 -0.016206 0.254147
v -0.104096 0.050237 0.270383
v -0.035904 0.050237 0.270383
v -0.035904 -0.016206 0.254147
v -0.082093 0.103822 0.181998
v -0.057675 0.103822 0.181998
v -0.057675 0.127715 0.181018
v -0.082093 0.127715 0.181018
v -0.082093 0.124453 0.197209
v -0.057675 0.124453 0.197209
v -0.057675 0.140206 0.197187
v -0.082093 0.140206 0.197187
v -0.080021 0.142288 0.215959
v -0.059748 0.142288 0.215959
v -0.059748 0.147780 0.205758
v -0.080021 0.147780 0.205758
v -0.080021 0.175503 0.221039
v -0.059748 0.175502 0.221039
v -0.059748 0.175312 0.208919
v -0.080021 0.175312 0.208919
v -0.080021 0.200512 0.210904
v -0.059748 0.200512 0.210904
v -0.059748 0.191775 0.201172
v -0.080021 0.191775 0.201172
v -0.080021 0.209505 0.194824
v -0.059748 0.209505 0.194824
v -0.059748 0.197392 0.189892
v -0.080021 0.197392 0.189892
v -0.080021 0.214950 0.179983
v -0.059748 0.214951 0.179983
v -0.059748 0.201872 0.179835
v -0.080021 0.201872 0.179835
v -0.087640 0.309659 0.113447
v -0.052775 0.359660 0.113447
v -0.124096 -0.247519 0.157398
v -0.124096 -0.229288 0.307333
v -0.015904 -0.229288 0.307333
v -0.124096 -0.247519 0.157398
v -0.124096 -0.229288 0.307333
v -0.015904 -0.229288 0.307333
v -0.015904 -0.247519 0.157398
v -0.124096 -0.247519 0.157398
v -0.124096 -0.229288 0.307333
v -0.015904 -0.229288 0.307333
v -0.030904 0.308832 0.094419
v -0.109096 0.308832 0.094419
v -0.087640 0.308832 0.094419
v -0.052775 0.308832 0.094419
v -0.086983 1.033919 0.141202
v -0.086983 0.298649 0.141202
v -0.080751 1.033919 0.151296
v -0.080751 0.298649 0.151296
v -0.069489 1.033919 0.155024
v -0.069489 0.298649 0.155024
v -0.058465 1.033919 0.150639
v -0.058465 0.298649 0.150639
v -0.052839 1.033919 0.140195
v -0.052839 0.298649 0.140195
v -0.055243 1.033919 0.128578
v -0.055243 0.298649 0.128578
v -0.064551 1.033919 0.121223
v -0.064551 0.298649 0.121223
v -0.076409 1.033919 0.121573
v -0.076409 0.298649 0.121573
v -0.085268 1.033919 0.129463
v -0.085269 0.298649 0.129463
v -0.086983 1.033919 0.107288
v -0.086983 0.298649 0.107288
v -0.080751 1.033919 0.117383
v -0.080751 0.298649 0.117383
v -0.069489 1.033919 0.121110
v -0.069489 0.298649 0.121110
v -0.058465 1.033919 0.116726
v -0.058465 0.298649 0.116726
v -0.052839 1.033919 0.106282
v -0.052839 0.298649 0.106282
v -0.055243 1.033919 0.094664
v -0.055243 0.298649 0.094664
v -0.064551 1.033919 0.087310
v -0.064551 0.298649 0.087310
v -0.076409 1.033919 0.087660
v -0.076409 0.298649 0.087660
v -0.085268 1.033919 0.095550
v -0.085269 0.298649 0.095550
v -0.064551 1.024208 0.087310
v -0.076409 1.024208 0.087660
v -0.065435 1.024208 0.069323
v -0.065435 1.033919 0.069323
v -0.077294 1.033919 0.069673
v -0.077294 1.024208 0.069673
v -0.109773 0.310069 0.180859
v -0.108550 0.472859 0.180859
v -0.107356 0.631661 0.180859
v -0.031585 0.309256 0.113447
v -0.030361 0.472046 0.113447
v -0.029168 0.630848 0.113447
v -0.029168 0.630848 0.180859
v -0.030361 0.472046 0.180859
v -0.031585 0.309255 0.180859
v -0.107356 0.631661 0.113447
v -0.108550 0.472859 0.113447
v -0.109773 0.360069 0.113447
v -0.029168 0.630848 0.113447
v -0.107356 0.631661 0.113447
v -0.107356 0.631661 0.180859
v -0.029168 0.630848 0.180859
v -0.029168 0.630848 0.154547
v -0.107356 0.631661 0.154547
v -0.050933 0.631124 0.113447
v -0.051155 0.631126 0.154547
v -0.050933 0.631124 0.113447
v -0.085895 0.631387 0.113447
v -0.085785 0.631386 0.154547
v -0.085895 0.631387 0.113447
v -0.087092 0.472585 0.113447
v -0.088318 0.359795 0.113447
v -0.052181 0.472323 0.113447
v -0.053455 0.309533 0.113447
vn -0.0000 0.3310 0.9436
vn 1.0000 -0.0000 -0.0000
vn -0.0000 -0.0000 1.0000
vn -1.0000 -0.0000 -0.0000
vn -0.9991 -0.0405 0.0102
vn -0.9701 0.1728 -0.1701
vn -0.0000 -0.0442 0.9990
vn -0.0000 0.0566 0.9984
vn -0.0000 0.3655 0.9308
vn 0.9991 -0.0405 0.0102
vn -1.0000 0.0033 0.0012
vn -0.0000 -0.1205 -0.9927
vn -0.0000 -0.2991 -0.9542
vn -0.0000 -0.3207 -0.9472
vn 0.9994 0.0021 0.0357
vn -0.0000 0.3306 -0.9438
vn -0.0000 0.5858 0.8105
vn -0.0000 -0.0504 -0.9987
vn -0.0000 0.9041 0.4274
vn 0.9701 0.1728 -0.1701
vn -0.0000 -0.2374 0.9714
vn -0.0000 0.9985 0.0553
vn -0.0000 -0.9943 -0.1069
vn -0.9933 0.0501 0.1041
vn -0.0000 0.7914 -0.6113
vn -0.0000 -0.5934 0.8049
vn 0.9933 0.0501 0.1041
vn -0.0000 0.7493 -0.6622
vn -0.0000 -0.7246 0.6892
vn -0.0000 -0.4258 -0.9048
vn -0.0000 0.1141 -0.9935
vn -0.0000 -0.1512 0.9885
vn -0.0000 0.3756 0.9268
vn -0.0000 -0.9135 -0.4069
vn -0.0000 -0.8952 -0.4458
vn -0.0000 0.8728 0.4881
vn -0.0000 0.0113 -0.9999
vn -0.0000 0.9388 0.3445
vn -0.0000 0.7486 -0.6631
vn -0.0000 0.7486 0.6631
vn -0.0000 -0.9927 0.1207
vn -0.3914 0.5458 -0.7409
vn 0.9999 0.0134 -0.0006
vn -0.0000 0.3506 -0.9365
vn -0.0000 -0.0587 -0.9983
vn 1.0000 0.0068 -0.0048
vn -0.8509 -0.0000 0.5253
vn -0.3143 -0.0000 0.9493
vn 0.3696 -0.0000 0.9292
vn 0.8804 -0.0000 0.4743
vn 0.9793 -0.0000 -0.2026
vn 0.6200 -0.0000 -0.7846
vn -0.0295 -0.0000 -0.9996
vn -0.0000 -1.0000 -0.0000
vn -0.6651 -0.0000 -0.7468
vn -0.9895 -0.0000 -0.1445
vn -0.0000 1.0000 -0.0000
vn -0.3142 -0.0000 0.9494
vn 0.3695 -0.0000 0.9292
vn 0.6199 -0.0000 -0.7847
vn 0.9988 -0.0000 -0.0491
vn -0.9988 -0.0000 0.0491
vn -0.0022 -0.3490 0.9371
vn 1.0000 -0.0075 -0.0000
vn -0.0000 -0.0000 -1.0000
vn -1.0000 0.0075 -0.0000
vn 0.0202 0.9998 -0.0000
vn 0.0176 0.9998 -0.0001
vn 0.0177 0.9998 -0.0000
vn 0.0203 0.9998 -0.0000
vn 0.0176 0.9998 0.0001
vn -0.9999 0.0104 -0.0000
vn 0.9999 -0.0104 -0.0000
vn 0.0127 0.9999 -0.0000
vn 0.0128 0.9999 -0.0000
vn 0.0104 0.9999 -0.0000
vn 0.0007 0.3502 -0.9367
vn 0.0075 1.0000 -0.0000
vn 0.7010 -0.0054 -0.7132
vn 0.9993 -0.0135 0.0361
vt 0.559075 0.381278
vt 0.592796 0.501923
vt 0.664411 0.632912
vt 0.144689 0.409979
vt 0.304791 0.393182
vt 0.664411 0.632912
vt 0.271208 0.270305
vt 0.686532 0.497804
vt 0.664411 0.632912
vt 0.238781 0.415486
vt 0.664411 0.632912
vt 0.016792 0.258396
vt 0.352473 0.362048
vt 0.144673 0.465049
vt 0.110907 0.503229
vt 0.444347 0.310423
vt 0.432330 0.288351
vt 0.110959 0.459293
vt 0.111089 0.415460
vt 0.403111 0.267282
vt 0.686531 0.477612
vt 0.270891 0.280708
vt 0.224456 0.339097
vt 0.686424 0.359291
vt 0.686532 0.302346
vt 0.271207 0.371184
vt 0.625186 0.717254
vt 0.016973 0.409979
vt 0.016843 0.453812
vt 0.144397 0.363229
vt 0.156420 0.341157
vt 0.016792 0.497747
vt 0.238764 0.470556
vt 0.064499 0.289531
vt 0.515721 0.260217
vt 0.000000 0.000000
vt 0.559075 0.280399
vt 0.592796 0.306465
vt 0.000000 0.000000
vt 0.592687 0.363410
vt 0.512348 0.312485
vt 0.558758 0.370875
vt 0.592795 0.481731
vt 0.111089 0.520716
vt 0.432433 0.680848
vt 0.405023 0.321646
vt 0.686395 0.376623
vt 0.211892 0.329427
vt 0.117076 0.329934
vt 0.016973 0.515234
vt 0.525684 0.680848
vt 0.592658 0.380742
vt 0.499790 0.322155
vt 0.076172 0.324636
vt 0.525688 0.669193
vt 0.592739 0.399304
vt 0.534689 0.329722
vt 0.432437 0.669193
vt 0.364141 0.326943
vt 0.246809 0.321861
vt 0.686476 0.395185
vt 0.238781 0.509438
vt 0.104347 0.311853
vt 0.823962 0.671521
vt 0.592767 0.440517
vt 0.546724 0.350298
vt 0.144689 0.503931
vt 0.392300 0.339726
vt 0.823962 0.694834
vt 0.686503 0.436398
vt 0.258850 0.301285
vt 0.144673 0.612331
vt 0.348979 0.343072
vt 0.869538 0.694834
vt 0.144673 0.640262
vt 0.432420 0.654578
vt 0.307932 0.330886
vt 0.019934 0.320691
vt 0.238824 0.645704
vt 0.525671 0.654578
vt 0.061003 0.308507
vt 0.238824 0.617774
vt 0.869538 0.671521
vt 0.074369 0.501101
vt 0.789299 0.695482
vt 0.053128 0.499864
vt 0.213888 0.662496
vt 0.053143 0.489655
vt 0.109590 0.583811
vt 0.214951 0.667655
vt 0.074384 0.490893
vt 0.088544 0.583806
vt 0.790378 0.690324
vt 0.762588 0.691234
vt 0.074505 0.492674
vt 0.187149 0.666740
vt 0.053264 0.491437
vt 0.186776 0.670133
vt 0.109590 0.577373
vt 0.762225 0.687841
vt 0.088544 0.577367
vt 0.072862 0.485419
vt 0.729705 0.687632
vt 0.154290 0.670336
vt 0.055226 0.484392
vt 0.171717 0.671652
vt 0.107802 0.573997
vt 0.106132 0.556429
vt 0.090329 0.573993
vt 0.088567 0.557201
vt 0.747127 0.686319
vt 0.072931 0.471383
vt 0.720116 0.680544
vt 0.055296 0.470356
vt 0.144673 0.677423
vt 0.106109 0.544686
vt 0.165553 0.677540
vt 0.088544 0.545458
vt 0.740986 0.680430
vt 0.072877 0.460478
vt 0.736926 0.675027
vt 0.376309 0.569185
vt 0.055241 0.459451
vt 0.161474 0.682942
vt 0.393782 0.569185
vt 0.106132 0.537507
vt 0.178466 0.681188
vt 0.664411 0.518715
vt 0.088567 0.538279
vt 0.753904 0.676785
vt 0.681884 0.518715
vt 0.376306 0.576445
vt 0.764380 0.672884
vt 0.393780 0.576444
vt 0.188935 0.685090
vt 0.664411 0.523807
vt 0.197747 0.682545
vt 0.681884 0.523807
vt 0.773180 0.675430
vt 0.664411 0.585989
vt 0.376308 0.583031
vt 0.789791 0.671521
vt 0.681976 0.585219
vt 0.393782 0.583030
vt 0.214354 0.686457
vt 0.664411 0.528323
vt 0.681976 0.590819
vt 0.214951 0.683642
vt 0.681884 0.528323
vt 0.664411 0.591589
vt 0.790378 0.674336
vt 0.625186 0.701797
vt 0.625186 0.709310
vt 0.664411 0.632912
vt 0.664411 0.632912
vt 0.664411 0.632912
vt 0.664411 0.632912
vt 0.664411 0.632912
vt 0.664411 0.632912
vt 0.720116 0.654730
vt 0.664411 0.632912
vt 0.813367 0.654730
vt 0.664411 0.632912
vt 0.813367 0.591326
vt 0.664411 0.632912
vt 0.720116 0.591326
vt 0.664411 0.632912
vt 0.686506 0.258439
vt 0.592658 0.717257
vt 0.000000 0.000000
vt 0.592769 0.262559
vt 0.624354 0.261171
vt 0.592658 0.701800
vt 0.654561 0.259843
vt 0.592658 0.709313
vt 0.965369 0.416829
vt 0.903121 0.677663
vt 0.932601 0.708862
vt 0.965369 0.258396
vt 0.983208 0.416832
vt 0.892299 0.571816
vt 0.907462 0.673260
vt 0.983208 0.258399
vt 0.892299 0.258396
vt 0.928252 0.704465
vt 0.902069 0.572295
vt 0.916776 0.671521
vt 0.902069 0.258875
vt 0.918935 0.702729
vt 0.911693 0.572958
vt 0.016792 0.695942
vt 0.926704 0.673260
vt 0.911693 0.259538
vt 0.016792 0.537509
vt 0.909010 0.704465
vt 0.035056 0.695941
vt 0.932602 0.677663
vt 0.035056 0.537507
vt 0.903121 0.708862
vt 0.054960 0.695942
vt 0.779718 0.574534
vt 0.931709 0.682669
vt 0.054960 0.537509
vt 0.779718 0.259552
vt 0.904024 0.713861
vt 0.787755 0.574301
vt 0.924444 0.685937
vt 0.787755 0.259318
vt 0.911296 0.717125
vt 0.798031 0.573844
vt 0.914205 0.685937
vt 0.921534 0.717125
vt 0.798031 0.258862
vt 0.805737 0.573379
vt 0.945277 0.416831
vt 0.905785 0.682669
vt 0.929948 0.713861
vt 0.805737 0.258396
vt 0.945277 0.258398
vt 0.324884 0.727617
vt 0.876173 0.648031
vt 0.173896 0.708879
vt 0.324884 0.569185
vt 0.342723 0.727620
vt 0.839321 0.571816
vt 0.869549 0.652252
vt 0.342723 0.569188
vt 0.839321 0.258396
vt 0.167272 0.704664
vt 0.849091 0.572295
vt 0.859400 0.653669
vt 0.849091 0.258875
vt 0.157122 0.703249
vt 0.858715 0.572959
vt 0.592658 0.677150
vt 0.850475 0.651618
vt 0.858715 0.259538
vt 0.592658 0.518717
vt 0.148197 0.705296
vt 0.610923 0.677148
vt 0.846950 0.647059
vt 0.610923 0.518715
vt 0.144673 0.709848
vt 0.630827 0.677150
vt 0.720116 0.574534
vt 0.850475 0.642126
vt 0.630827 0.518716
vt 0.720116 0.259552
vt 0.148197 0.714775
vt 0.728152 0.574301
vt 0.672781 0.616119
vt 0.859400 0.639126
vt 0.157122 0.717770
vt 0.728152 0.259318
vt 0.738428 0.573844
vt 0.096914 0.600603
vt 0.869549 0.639463
vt 0.167272 0.717434
vt 0.738428 0.258862
vt 0.746135 0.573379
vt 0.304791 0.727620
vt 0.876173 0.642980
vt 0.173896 0.713922
vt 0.746135 0.258396
vt 0.304791 0.569187
vt 0.664411 0.616120
vt 0.728152 0.570141
vt 0.376306 0.599909
vt 0.738428 0.569684
vt 0.386539 0.599822
vt 0.088544 0.600603
vt 0.664411 0.608382
vt 0.386582 0.628570
vt 0.376306 0.607618
vt 0.672781 0.608381
vt 0.386582 0.624410
vt 0.862418 0.631442
vt 0.376306 0.624867
vt 0.096914 0.608364
vt 0.872568 0.631780
vt 0.376306 0.629027
vt 0.386539 0.607532
vt 0.088544 0.608364
vt 0.304791 0.409974
vt 0.304791 0.479428
vt 0.548522 0.603568
vt 0.304791 0.547181
vt 0.548522 0.637787
vt 0.088544 0.625156
vt 0.260833 0.526245
vt 0.432420 0.413827
vt 0.000000 0.000000
vt 0.260833 0.561322
vt 0.432420 0.483611
vt 0.432420 0.551687
vt 0.260833 0.595539
vt 0.664411 0.545115
vt 0.398837 0.552393
vt 0.144673 0.595525
vt 0.088544 0.625156
vt 0.398837 0.484640
vt 0.144673 0.561307
vt 0.398837 0.415186
vt 0.144673 0.526230
vt 0.432420 0.637775
vt 0.664411 0.568427
vt 0.526101 0.547834
vt 0.432420 0.603557
vt 0.526101 0.479758
vt 0.000000 0.000000
vt 0.526101 0.409974
vt 0.664411 0.545115
vt 0.464225 0.715275
vt 0.664411 0.568427
vt 0.529406 0.697640
vt 0.088544 0.625156
vt 0.846950 0.614639
vt 0.088544 0.625156
vt 0.846950 0.591326
vt 0.464301 0.697640
vt 0.892111 0.591338
vt 0.529406 0.715275
vt 0.892111 0.614651
vt 0.432537 0.715275
vt 0.664411 0.553037
vt 0.432420 0.697640
vt 0.664411 0.553037
vt 0.464256 0.550377
vt 0.664411 0.560570
vt 0.497980 0.697648
vt 0.497884 0.715284
vt 0.664411 0.560570
vt 0.494529 0.549132
vt 0.494532 0.481057
vt 0.494535 0.411272
vt 0.464303 0.482300
vt 0.464346 0.412513
s 0
usemtl Material.012
f 5/14/1 2/4/1 4/10/1 16/33/1
f 4/11/2 2/6/3 68/155/4 69/156/3
f 5/13/4 20/42/4 1/1/4 2/5/4
f 8/20/4 17/35/4 18/37/4 7/17/4
f 7/17/5 18/37/5 19/41/5 6/16/5
f 31/68/6 30/66/6 20/42/6 5/13/6
f 8/19/7 7/18/7 14/29/7 13/28/7
f 7/18/8 6/15/8 37/84/8 40/91/8 39/88/8 38/86/8 15/32/8 14/29/8
f 31/67/9 5/14/9 16/33/9 29/62/9
f 4/12/2 3/7/2 9/22/2 16/34/2
f 23/49/2 22/48/2 10/23/2 15/31/2
f 15/31/10 10/23/10 11/26/10 14/30/10
f 134/310/11 17/36/11 8/20/11 123/284/11 124/285/11 133/308/11
f 1/2/12 20/43/12 9/21/12 3/8/12
f 24/52/13 19/40/13 10/24/13 22/47/13
f 19/40/14 18/38/14 11/25/14 10/24/14
f 77/168/15 126/292/15 11/25/15
f 26/56/16 24/52/16 22/47/16 28/61/16
f 25/54/2 28/60/2 22/48/2 23/49/2
f 6/15/17 21/44/17 23/50/17 15/32/17 38/86/17 37/84/17
f 6/16/4 19/41/4 24/53/4 21/46/4
f 29/63/2 32/71/2 28/60/2 25/54/2
f 30/65/18 26/56/18 28/61/18 32/70/18
f 21/45/19 27/58/19 25/55/19 23/51/19
f 21/46/4 24/53/4 26/57/4 27/59/4
f 20/43/18 30/65/18 32/70/18 9/21/18
f 16/34/20 9/22/20 32/71/20 29/63/20
f 29/63/2 25/54/2 35/78/2 36/81/2
f 27/59/4 26/57/4 30/66/4 31/68/4
f 34/75/21 33/72/21 36/82/21 35/79/21
f 25/55/22 27/58/22 34/76/22 35/80/22
f 27/59/4 31/68/4 33/73/4 34/77/4
f 31/69/23 29/64/23 36/83/23 33/74/23
f 44/100/24 41/94/24 45/103/24 48/111/24
f 39/89/25 40/92/25 44/101/25 43/99/25
f 37/84/26 38/86/26 42/97/26 41/95/26
f 40/93/4 37/85/4 41/94/4 44/100/4
f 38/87/2 39/90/2 43/98/2 42/96/2
f 46/104/2 47/106/2 51/117/2 50/115/2
f 42/96/27 43/98/27 47/106/27 46/104/27
f 43/99/28 44/101/28 48/109/28 47/107/28
f 41/95/29 42/97/29 46/105/29 45/102/29
f 51/116/30 52/118/30 56/129/30 55/126/30
f 47/108/31 48/110/31 52/118/31 51/116/31
f 45/102/32 46/105/32 50/114/32 49/112/32
f 48/111/4 45/103/4 49/113/4 52/119/4
f 56/130/4 53/121/4 57/133/4 60/139/4
f 49/112/33 50/114/33 54/123/33 53/120/33
f 52/119/4 49/113/4 53/121/4 56/130/4
f 50/115/2 51/117/2 55/127/2 54/124/2
f 59/136/34 60/138/34 64/149/34 63/146/34
f 54/124/2 55/127/2 59/137/2 58/135/2
f 55/128/35 56/131/35 60/138/35 59/136/35
f 53/122/36 54/125/36 58/134/36 57/132/36
f 62/143/37 63/147/37 64/150/37 61/140/37
f 57/132/38 58/134/38 62/144/38 61/141/38
f 60/139/4 57/133/4 61/142/4 64/151/4
f 58/135/2 59/137/2 63/148/2 62/145/2
f 2/6/39 1/3/3 67/154/40 68/155/3
f 68/155/39 67/154/3 70/157/40 71/158/3
f 69/156/2 68/155/3 71/158/4 72/159/3
f 72/159/2 71/158/3 75/165/4 76/167/3
f 75/164/41 74/162/41 73/160/41 76/166/41
f 3/9/40 72/159/3 76/167/39 73/161/3
f 71/158/39 70/157/3 74/163/40 75/165/3
f 70/157/4 3/9/3 73/161/2 74/163/3
f 65/152/42 66/153/42 80/175/42 79/173/42
f 78/170/43 134/310/43 17/36/43
f 66/153/44 12/27/44 77/169/44 80/175/44
f 18/38/45 78/171/45 79/172/45 80/174/45 77/168/45 11/25/45
f 14/30/46 11/26/46 126/292/46 131/304/46 13/28/46
f 17/36/4 78/170/4 18/39/4
f 81/176/47 82/179/47 84/183/47 83/180/47
f 83/181/48 84/184/48 86/188/48 85/186/48
f 85/186/49 86/188/49 88/193/49 87/190/49
f 87/191/50 88/194/50 90/198/50 89/196/50
f 89/196/51 90/198/51 92/203/51 91/200/51
f 91/201/52 92/204/52 94/208/52 93/206/52
f 93/206/53 94/208/53 96/213/53 95/210/53
f 84/185/54 82/178/54 98/217/54 96/212/54 94/209/54 92/205/54 90/199/54 88/195/54 86/189/54
f 95/210/55 96/213/55 98/218/55 97/214/55
f 97/215/56 98/219/56 82/179/56 81/176/56
f 81/177/57 83/182/57 85/187/57 87/192/57 89/197/57 91/202/57 93/207/57 95/211/57 97/216/57
f 99/220/47 100/223/47 102/227/47 101/224/47
f 101/225/58 102/228/58 104/232/58 103/230/58
f 103/230/59 104/232/59 106/237/59 105/234/59
f 105/235/50 106/238/50 108/242/50 107/240/50
f 107/240/51 108/242/51 110/247/51 109/244/51
f 109/245/60 110/248/60 112/254/60 117/267/60 111/250/60
f 111/251/61 117/266/61 119/272/61 120/275/61
f 102/229/54 100/222/54 116/263/54 114/258/54 112/253/54 110/249/54 108/243/54 106/239/54 104/233/54
f 113/255/55 118/269/55 114/259/55 116/264/55 115/260/55
f 115/261/56 116/265/56 100/223/56 99/220/56
f 99/221/57 101/226/57 103/231/57 105/236/57 107/241/57 109/246/57 111/252/57 113/257/57 115/262/57
f 120/276/53 119/273/53 122/281/53 121/278/53
f 118/269/53 117/267/53 112/254/53 114/259/53
f 117/268/54 118/270/54 122/282/54 119/274/54
f 118/271/62 113/256/62 121/279/62 122/283/62
f 113/257/57 111/252/57 120/277/57 121/280/57
f 134/311/63 78/171/63 79/172/63 148/335/63
f 124/285/3 130/301/3 129/298/3 125/287/3
f 124/285/3 123/284/3 131/303/3 130/301/3
f 131/304/64 126/290/64 127/293/64 130/302/64
f 134/311/65 133/309/65 147/334/65 148/335/65
f 127/294/65 149/336/65 143/328/65 128/295/65
f 124/286/66 125/288/66 132/305/66 133/308/66
f 127/293/64 128/296/64 129/299/64 130/302/64
f 128/297/67 143/327/68 146/332/69 132/306/3 136/314/70 144/329/69 141/325/71 135/312/3
f 125/289/72 129/300/3 138/318/73 137/316/3
f 135/313/74 141/324/74 142/326/74 139/320/74
f 148/335/65 147/334/65 149/336/65 150/337/65
f 145/331/75 144/330/75 136/315/75 140/322/75
f 146/333/65 147/334/65 133/309/65 132/307/65
f 150/337/65 149/336/65 127/294/65 126/291/65
f 143/328/65 149/336/65 147/334/65 146/333/65
f 137/317/76 138/319/76 139/321/76 140/323/76
f 148/335/77 66/153/77 80/175/77 79/173/77
f 142/326/78 141/325/79 144/330/78 145/331/78
f 77/169/80 12/27/80 126/292/80
l 17 65
