# Blender 3.3.1
# www.blender.org
mtllib pistola.mtl
o Cube
v 0.458314 0.303990 -0.122172
v 0.458314 0.453951 -0.122172
v -0.549946 0.307739 -0.090204
v -0.549780 0.299825 -0.090120
v 0.456933 0.303990 0.127758
v 0.456933 0.453951 0.127758
v -0.550913 0.307739 0.084747
v -0.550748 0.299825 0.085102
v 0.100844 0.295659 -0.111650
v 0.101913 0.303990 -0.124141
v 0.100844 0.462282 -0.111650
v 0.101913 0.453951 -0.124141
v 0.099598 0.295659 0.113912
v 0.100532 0.303990 0.125789
v 0.099598 0.462282 0.113912
v 0.100532 0.453951 0.125789
v 0.453918 -0.370832 -0.080540
v 0.452997 -0.370832 0.086080
v 0.154001 -0.370832 -0.082197
v 0.153081 -0.370832 0.084423
v 0.136721 -0.037841 0.034345
v 0.137089 -0.037841 -0.032303
v 0.133334 -0.003978 0.034327
v 0.133702 -0.003978 -0.032321
v -0.179285 0.295659 -0.075707
v -0.180113 0.295659 0.074252
v -0.529464 0.295659 -0.027654
v -0.529740 0.295659 0.022332
v -0.179469 -0.004262 -0.042383
v -0.179929 -0.004262 0.040927
v -0.213161 0.262335 0.024081
v -0.212885 0.262335 -0.025905
v -0.179561 -0.045918 -0.025721
v -0.179837 -0.045918 0.024265
v -0.221492 -0.012593 0.024035
v -0.221216 -0.012593 -0.025951
v -0.179469 0.263043 -0.042383
v -0.179929 0.263043 0.040927
v 0.466199 0.298604 -0.114050
v 0.512143 0.303990 -0.063556
v 0.512143 0.453951 -0.063556
v 0.466199 0.459336 -0.114050
v 0.511403 0.303990 0.070365
v 0.464422 0.298524 0.120011
v 0.511403 0.453951 0.070365
v 0.464422 0.459417 0.120011
v -0.227585 0.458116 -0.079676
v -0.228457 0.458116 0.078218
v -0.207675 0.307739 0.086643
v -0.228457 0.308156 0.078218
v -0.228457 0.458116 0.078218
v -0.207675 0.450202 0.086643
v -0.227585 0.458116 -0.079676
v -0.206709 0.450202 -0.088308
v -0.206709 0.307739 -0.088308
v -0.227585 0.308156 -0.079676
v -0.179929 0.262689 0.040927
v -0.179469 0.262689 -0.042383
v 0.100221 0.478944 0.001131
v 0.511773 0.303990 0.003405
v 0.465310 0.476039 0.002980
v 0.511773 0.453951 0.003405
v -0.228021 0.474779 -0.000729
v 0.369213 0.303990 -0.122664
v 0.367833 0.453951 0.127266
v 0.369213 0.453951 -0.122664
v 0.367833 0.303990 0.127266
v 0.374860 0.460073 -0.113450
v 0.373216 0.460133 0.118486
v 0.374038 0.476765 0.002518
v 0.413763 0.303990 -0.122418
v 0.412383 0.453951 0.127512
v 0.420530 0.459705 -0.113750
v 0.418819 0.459775 0.119248
v 0.413763 0.453951 -0.122418
v 0.412383 0.303990 0.127512
v 0.419674 0.476402 0.002749
v 0.511496 0.303990 0.053547
v 0.464866 0.467728 0.061496
v -0.228239 0.466448 0.038744
v 0.099909 0.470613 0.057522
v 0.511496 0.453951 0.053547
v 0.373627 0.468449 0.060502
v 0.419247 0.468088 0.060999
v 0.100533 0.470613 -0.055259
v 0.512050 0.453951 -0.046738
v 0.512050 0.303990 -0.046738
v 0.465755 0.467688 -0.055535
v -0.227803 0.466448 -0.040202
v 0.374449 0.468419 -0.055466
v 0.420102 0.468053 -0.055500
v 0.511981 0.303990 -0.034202
v 0.465644 0.469775 -0.040906
v -0.227857 0.468530 -0.030334
v 0.100455 0.472696 -0.041162
v 0.511981 0.453951 -0.034202
v 0.374254 0.473838 -0.024308
v 0.419903 0.473473 -0.024276
v 0.099987 0.472696 0.043424
v 0.511565 0.453951 0.041011
v 0.373822 0.473861 0.029344
v 0.419446 0.473499 0.029774
v 0.511565 0.303990 0.041011
v 0.464977 0.469806 0.046867
v -0.228184 0.468530 0.028876
v 0.100075 0.475039 0.027564
v 0.511643 0.453951 0.026909
v 0.373937 0.476199 0.013036
v 0.419566 0.475837 0.013392
v 0.511643 0.303990 0.026909
v 0.465102 0.472143 0.030409
v -0.228123 0.470873 0.017774
v 0.511903 0.303990 -0.020099
v 0.465519 0.472124 -0.024449
v -0.227918 0.470873 -0.019232
v 0.100367 0.475039 -0.025302
v 0.511903 0.453951 -0.020099
v 0.374139 0.476185 -0.008000
v 0.419783 0.475821 -0.007893
v 0.419446 0.490162 0.029774
v 0.373822 0.490523 0.029344
v 0.373937 0.492862 0.013036
v 0.419566 0.492500 0.013392
v 0.374139 0.492848 -0.008000
v 0.374254 0.490500 -0.024308
v 0.419783 0.492483 -0.007893
v 0.419903 0.490135 -0.024276
v 0.408930 -0.354170 -0.080789
v 0.468730 -0.354170 -0.047133
v 0.460687 -0.363311 -0.080503
v 0.468177 -0.354170 0.052839
v 0.408010 -0.354170 0.085832
v 0.453005 -0.370824 0.086080
v 0.228060 -0.354170 0.084838
v 0.168261 -0.354170 0.051182
v 0.159850 -0.363311 0.084461
v 0.168813 -0.354170 -0.048790
v 0.228981 -0.354170 -0.081783
v 0.154009 -0.370824 -0.082197
v 0.406997 0.263168 -0.047474
v 0.347198 0.263168 -0.081130
v 0.346277 0.263168 0.085491
v 0.406445 0.263168 0.052498
v 0.106528 0.263168 0.050841
v 0.166327 0.263168 0.084497
v 0.167248 0.263168 -0.082124
v 0.107080 0.263168 -0.049131
vn 0.0055 -0.0000 -1.0000
vn -0.9998 -0.0210 -0.0055
vn 1.0000 -0.0000 0.0055
vn 0.0074 0.9899 -0.1415
vn -0.0032 -0.8186 0.5744
vn 0.5171 -0.8559 0.0034
vn 0.7190 -0.0000 0.6950
vn 0.0080 -1.0000 -0.0001
vn -0.0889 0.7292 0.6785
vn -0.0055 -0.0000 1.0000
vn 0.0031 0.8320 -0.5547
vn 0.0018 -0.6775 -0.7355
vn -0.0000 -1.0000 -0.0000
vn -0.9950 -0.0995 -0.0055
vn 0.9950 0.0995 0.0055
vn -0.0009 1.0000 -0.0000
vn -0.0025 -0.2153 0.9765
vn -0.2356 -0.8718 -0.4296
vn -0.1047 -0.9945 -0.0006
vn -0.9995 0.0303 -0.0055
vn -0.6247 -0.7809 -0.0035
vn 0.1033 0.7111 -0.6954
vn -0.2897 -0.3560 0.8884
vn 0.0083 -0.2153 -0.9765
vn -0.1039 -0.9638 0.2455
vn -0.2799 -0.3560 -0.8916
vn -0.2386 -0.8737 0.4239
vn -0.0032 0.8186 0.5744
vn 0.7175 -0.0000 -0.6966
vn 0.1849 -0.9262 -0.3286
vn -0.7433 0.6690 -0.0041
vn 0.7396 -0.0000 -0.6730
vn 0.7263 -0.0000 0.6874
vn 0.1160 -0.9933 0.0006
vn 0.2633 0.9587 0.1076
vn 0.0031 -0.8320 -0.5547
vn -1.0000 -0.0000 -0.0055
vn -0.3757 -0.0000 0.9267
vn -0.1260 -0.0000 0.9920
vn -0.1153 -0.0000 -0.9933
vn -0.3821 -0.0000 -0.9241
vn -0.0248 0.9849 -0.1713
vn -0.0794 0.7486 -0.6582
vn 0.0005 0.9950 -0.0994
vn -0.0006 0.9950 0.0996
vn -0.0000 1.0000 -0.0000
vn 0.0255 -0.9997 0.0001
vn -0.4118 0.0063 0.9113
vn -0.4017 0.0063 -0.9158
vn -0.1012 -0.9638 -0.2466
vn 0.1809 -0.9265 0.3299
vn -0.0956 -0.7111 -0.6965
vn -0.0374 -0.6104 -0.7912
vn -0.0473 -0.5764 0.8158
vn -0.0064 -1.0000 -0.0000
vn -0.0155 0.9851 0.1711
vn 0.3999 0.9141 -0.0676
vn 0.0221 0.9929 0.1165
vn 0.0047 0.9927 0.1202
vn 0.0074 0.9895 -0.1442
vn 0.0076 0.9985 0.0534
vn 0.0031 0.8321 -0.5547
vn 0.0074 0.9898 -0.1421
vn 0.0058 0.9899 0.1417
vn 0.0058 0.9896 0.1441
vn 0.0059 0.9900 0.1410
vn -0.0267 0.9849 0.1710
vn 0.3121 0.9471 0.0745
vn 0.0079 0.9852 -0.1711
vn 0.0069 0.9865 -0.1635
vn 0.2658 0.9584 -0.1043
vn -0.0193 0.9850 -0.1713
vn 0.0144 0.9868 -0.1615
vn 0.0287 0.9895 -0.1413
vn -0.0169 0.9851 -0.1713
vn 0.0049 0.9895 -0.1443
vn 1.0000 -0.0000 0.0073
vn 0.3140 0.9468 -0.0707
vn 0.3490 0.9342 0.0738
vn 0.0061 0.9853 0.1710
vn 0.0051 0.9865 0.1634
vn 0.0128 0.9868 0.1613
vn -0.0212 0.9850 0.1711
vn 0.3984 0.9143 0.0726
vn -1.0000 -0.0000 -0.0071
vn 0.0033 0.9896 0.1441
vn 0.0274 0.9896 0.1411
vn -0.0188 0.9851 0.1711
vn 0.0082 0.9985 -0.0547
vn 0.0060 0.9927 -0.1205
vn -0.0136 0.9851 -0.1713
vn 0.0232 0.9929 -0.1170
vn 0.3507 0.9339 -0.0694
vn 0.0066 0.9899 0.1417
vn 0.0078 -0.0000 -1.0000
vn -0.0094 -0.0000 1.0000
vn 0.0081 0.9898 -0.1421
vn -0.0023 -0.0000 1.0000
vn 0.0007 -0.0000 -1.0000
vn 0.1676 0.9398 -0.2978
vn 0.2914 0.7953 0.5315
vn -0.1305 0.9640 0.2318
vn -0.2000 0.9094 -0.3647
vn 0.0486 0.8294 -0.5566
vn -0.0059 -0.6834 0.7300
vn 0.0004 -1.0000 -0.0000
vn -0.0420 -0.8277 -0.5596
vn 0.4899 0.0485 -0.8704
vn -0.4899 -0.0485 0.8704
vn 0.4802 0.0485 0.8758
vn -0.4802 -0.0485 -0.8758
vn 0.7433 -0.6690 0.0041
vt 0.387500 0.987500
vt 0.612500 0.987500
vt 0.387500 0.762500
vt 0.375000 0.737500
vt 0.387500 0.262500
vt 0.612500 0.262500
vt 0.387500 0.487500
vt 0.375000 0.511875
vt 0.220000 0.737500
vt 0.375000 0.905000
vt 0.000000 0.000000
vt 0.387500 0.902000
vt 0.625000 0.905000
vt 0.780000 0.737500
vt 0.612500 0.902000
vt 0.375000 0.345000
vt 0.000000 0.000000
vt 0.220000 0.511875
vt 0.387500 0.348000
vt 0.625000 0.345000
vt 0.780000 0.511875
vt 0.612500 0.348000
vt 0.125000 0.750000
vt 0.375000 1.000000
vt 0.375000 0.000000
vt 0.125000 0.500000
vt 0.375000 0.250000
vt 0.375000 0.750000
vt 0.375000 0.500000
vt 0.000000 0.000000
vt 0.000000 0.000000
vt 0.000000 0.000000
vt 0.000000 0.000000
vt 0.000000 0.000000
vt 0.000000 0.000000
vt 0.625000 0.750000
vt 0.625000 0.500000
vt 0.400000 0.000000
vt 0.400000 0.250000
vt 0.400000 0.500000
vt 0.400000 0.750000
vt 0.375000 0.750000
vt 0.375000 0.500000
vt 0.400000 0.500000
vt 0.400000 0.750000
vt 0.600531 0.000000
vt 0.600531 0.250000
vt 0.135669 0.741919
vt 0.379419 0.992456
vt 0.379419 0.012500
vt 0.000000 0.000000
vt 0.379419 0.989368
vt 0.000000 0.000000
vt 0.387500 0.025000
vt 0.612500 0.025000
vt 0.864331 0.741919
vt 0.620581 0.989368
vt 0.620581 0.992456
vt 0.620581 0.012500
vt 0.625000 0.012500
vt 0.387500 0.225625
vt 0.000000 0.000000
vt 0.379299 0.260744
vt 0.379299 0.253152
vt 0.000000 0.000000
vt 0.135781 0.507791
vt 0.612500 0.225625
vt 0.620701 0.253152
vt 0.625000 0.238125
vt 0.620701 0.260744
vt 0.864219 0.507791
vt 0.625000 0.737500
vt 0.625000 0.511875
vt 0.387500 0.487500
vt 0.000000 0.000000
vt 0.375000 0.511875
vt 0.625000 0.511875
vt 0.612500 0.487500
vt 0.625000 0.737500
vt 0.612500 0.762500
vt 0.387500 0.762500
vt 0.000000 0.000000
vt 0.375000 0.737500
vt 0.500266 0.250000
vt 0.500266 0.000000
vt 0.780000 0.624688
vt 0.000000 0.000000
vt 0.387500 0.125313
vt 0.625000 0.125313
vt 0.864275 0.624855
vt 0.612500 0.125312
vt 0.625000 0.624687
vt 0.387500 0.966125
vt 0.612500 0.283875
vt 0.612500 0.966125
vt 0.387500 0.283875
vt 0.621685 0.968276
vt 0.843248 0.740814
vt 0.621776 0.281808
vt 0.843164 0.508812
vt 0.843206 0.624813
vt 0.387500 0.976812
vt 0.612500 0.273188
vt 0.621133 0.978822
vt 0.853789 0.741367
vt 0.621238 0.271276
vt 0.853691 0.508301
vt 0.612500 0.976813
vt 0.387500 0.273188
vt 0.853740 0.624834
vt 0.000000 0.000000
vt 0.387500 0.175469
vt 0.625000 0.181719
vt 0.864247 0.566323
vt 0.625000 0.568281
vt 0.780000 0.568281
vt 0.612500 0.175469
vt 0.843185 0.566813
vt 0.853716 0.566568
vt 0.780000 0.681094
vt 0.612500 0.075156
vt 0.000000 0.000000
vt 0.387500 0.075156
vt 0.864303 0.683387
vt 0.625000 0.068906
vt 0.625000 0.681094
vt 0.843227 0.682814
vt 0.853765 0.683100
vt 0.000000 0.000000
vt 0.387500 0.087695
vt 0.864296 0.668754
vt 0.625000 0.083008
vt 0.625000 0.666992
vt 0.780000 0.666992
vt 0.612500 0.087695
vt 0.843222 0.668314
vt 0.853759 0.668534
vt 0.780000 0.582383
vt 0.612500 0.162930
vt 0.843190 0.581313
vt 0.853722 0.581134
vt 0.000000 0.000000
vt 0.387500 0.162930
vt 0.625000 0.167617
vt 0.864254 0.580956
vt 0.625000 0.582383
vt 0.780000 0.598247
vt 0.612500 0.148823
vt 0.843196 0.597625
vt 0.853729 0.597522
vt 0.000000 0.000000
vt 0.387500 0.148823
vt 0.625000 0.151753
vt 0.864262 0.597418
vt 0.625000 0.598247
vt 0.000000 0.000000
vt 0.387500 0.101802
vt 0.864288 0.652292
vt 0.625000 0.098872
vt 0.625000 0.651128
vt 0.780000 0.651128
vt 0.612500 0.101802
vt 0.843216 0.652001
vt 0.853752 0.652146
vt 0.853722 0.581134
vt 0.843190 0.581313
vt 0.843196 0.597625
vt 0.853729 0.597522
vt 0.843216 0.652001
vt 0.843222 0.668314
vt 0.853752 0.652146
vt 0.853759 0.668534
vt 0.381250 0.950000
vt 0.380780 0.000000
vt 0.000000 0.000000
vt 0.000000 0.000000
vt 0.381250 0.050000
vt 0.377821 1.000000
vt 0.377821 0.000000
vt 0.000000 0.000000
vt 0.381250 0.200000
vt 0.381250 0.300000
vt 0.380780 0.250000
vt 0.000000 0.000000
vt 0.375003 0.250000
vt 0.000000 0.000000
vt 0.381250 0.450000
vt 0.381250 0.500000
vt 0.381250 0.500000
vt 0.381250 0.550000
vt 0.377821 0.500000
vt 0.381250 0.750000
vt 0.381250 0.700000
vt 0.000000 0.000000
vt 0.381250 0.800000
vt 0.381250 0.750000
vt 0.375003 0.750000
vt 0.000000 0.000000
vt 0.000000 0.000000
vt 0.000000 0.000000
vt 0.000000 0.000000
vt 0.000000 0.000000
vt 0.122563 0.150000
vt 0.000000 0.000000
vt 0.000088 0.000115
vt 0.000000 0.000000
vt 0.612759 0.750000
vt 0.000000 0.000000
vt 0.490250 0.600000
s 0
f 71/102/1 75/108/1 2/2/1 1/1/1
f 4/4/2 8/8/2 7/7/2 3/3/2
f 78/112/3 82/117/3 45/67/3 43/61/3
f 91/128/4 88/124/4 42/56/4 73/105/4
f 13/16/5 44/63/5 5/5/5 76/109/5 67/96/5 14/19/5
f 39/51/6 44/65/6 143/201/6 140/198/6
f 6/6/7 5/5/7 44/64/7 46/68/7
f 44/66/8 13/18/8 9/9/8 39/48/8
f 51/77/9 52/78/9 16/22/9 15/20/9
f 67/96/10 65/94/10 16/22/10 14/19/10
f 73/104/11 42/57/11 2/2/11 75/108/11
f 9/10/12 39/52/12 141/199/12 146/206/12
f 18/26/13 20/29/13 19/28/13 17/23/13
f 138/194/1 146/206/1 141/199/1 128/175/1
f 137/193/14 135/190/14 144/203/14 147/209/14
f 132/184/10 142/200/10 145/204/10 134/186/10
f 129/176/15 140/198/15 143/201/15 131/180/15
f 23/32/16 24/33/16 29/38/16 30/39/16
f 19/28/1 139/197/1 138/195/1 128/173/1 130/178/1 17/24/1
f 30/39/17 34/43/17 21/30/17 23/32/17
f 147/209/18 9/11/18 146/207/18
f 32/41/19 31/40/19 28/37/19 27/36/19
f 31/40/20 32/41/20 36/45/20 35/44/20
f 33/42/21 34/43/21 35/44/21 36/45/21
f 58/85/3 37/46/3 38/47/3 57/84/3
f 28/37/22 26/35/22 38/47/22
f 35/44/23 34/43/23 30/39/23
f 33/42/24 29/38/24 24/33/24 22/31/24
f 31/40/25 57/84/25 38/47/25 28/37/25
f 33/42/26 36/45/26 29/38/26
f 13/17/27 144/203/27 145/205/27
f 69/99/28 15/20/28 16/22/28 65/94/28
f 1/1/29 2/2/29 42/58/29 39/49/29
f 141/199/30 39/51/30 140/198/30
f 20/29/31 136/191/31 135/190/31 137/193/31 139/197/31 19/28/31
f 41/55/32 40/54/32 39/50/32 42/59/32
f 43/61/33 45/67/33 46/68/33 44/64/33
f 44/65/34 39/51/34 40/53/34 87/122/34 92/129/34 113/156/34 60/87/34 110/151/34 103/142/34 78/111/34 43/62/34
f 79/113/35 46/69/35 45/67/35 82/117/35
f 39/52/36 9/10/36 10/12/36 64/93/36 71/102/36 1/1/36
f 141/199/13 140/198/13 143/201/13 142/200/13 145/204/13 144/202/13 147/208/13 146/206/13
f 50/75/37 48/73/37 80/115/37 105/146/37 112/155/37 63/92/37 115/160/37 94/133/37 89/126/37 47/72/37 56/82/37
f 51/77/38 50/76/38 49/74/38 52/78/38
f 49/74/39 14/19/39 16/22/39 52/78/39
f 10/12/40 55/81/40 54/80/40 12/15/40
f 54/80/41 55/81/41 56/83/41 53/79/41
f 85/120/42 11/14/42 47/72/42 89/126/42
f 11/14/43 12/15/43 54/80/43 47/72/43
f 10/12/44 3/3/44 55/81/44
f 7/7/45 14/19/45 49/74/45
f 7/7/46 49/74/46 55/81/46 3/3/46
f 18/27/10 133/185/10 132/182/10 134/187/10 136/191/10 20/29/10
f 24/33/15 23/32/15 21/30/15 22/31/15
f 21/30/47 34/43/47 33/42/47 22/31/47
f 29/38/3 58/85/3 57/84/3 30/39/3
f 57/84/48 31/40/48 35/44/48 30/39/48
f 32/41/49 58/85/49 29/38/49 36/45/49
f 27/36/50 37/46/50 58/85/50 32/41/50
f 44/65/51 142/200/51 143/201/51
f 37/46/52 27/36/52 25/34/52
f 3/3/53 10/12/53 9/10/53 4/4/53
f 7/7/54 8/8/54 13/16/54 14/19/54
f 4/4/55 9/10/55 13/18/55 8/8/55
f 106/147/56 59/86/56 63/92/56 112/155/56
f 114/159/57 61/89/57 62/91/57 117/162/57
f 109/150/58 111/154/58 61/90/58 77/110/58
f 113/157/3 117/162/3 62/91/3 60/88/3
f 106/147/59 108/149/59 70/101/59 59/86/59
f 74/106/28 69/99/28 65/94/28 72/103/28
f 11/13/11 68/97/11 66/95/11 12/15/11
f 76/109/10 72/103/10 65/94/10 67/96/10
f 85/120/60 90/127/60 68/98/60 11/14/60
f 10/12/1 12/15/1 66/95/1 64/93/1
f 5/5/10 6/6/10 72/103/10 76/109/10
f 46/70/28 74/106/28 72/103/28 6/6/28
f 108/149/61 109/150/61 77/110/61 70/101/61
f 68/97/62 73/104/62 75/108/62 66/95/62
f 90/127/63 91/128/63 73/105/63 68/98/63
f 64/93/1 66/95/1 75/108/1 71/102/1
f 69/100/64 74/107/64 84/119/64 83/118/64
f 15/21/65 69/100/65 83/118/65 81/116/65
f 74/107/66 46/71/66 79/114/66 84/119/66
f 15/21/67 81/116/67 80/115/67 48/73/67
f 104/144/68 79/113/68 82/117/68 100/139/68
f 103/143/3 100/139/3 82/117/3 78/112/3
f 97/136/69 98/137/69 91/128/69 90/127/69
f 95/134/70 97/136/70 90/127/70 85/120/70
f 40/54/3 41/55/3 86/121/3 87/123/3
f 42/60/71 88/125/71 86/121/71 41/55/71
f 95/134/72 85/120/72 89/126/72 94/133/72
f 98/137/73 93/131/73 88/124/73 91/128/73
f 119/164/74 114/158/74 93/131/74 98/137/74
f 116/161/75 95/134/75 94/133/75 115/160/75
f 116/161/76 118/163/76 97/136/76 95/134/76
f 119/164/77 98/137/77 127/172/77 126/171/77
f 87/123/3 86/121/3 96/135/3 92/130/3
f 88/125/78 93/132/78 96/135/78 86/121/78
f 110/152/3 107/148/3 100/139/3 103/143/3
f 111/153/79 104/144/79 100/139/79 107/148/79
f 83/118/80 84/119/80 102/141/80 101/140/80
f 81/116/81 83/118/81 101/140/81 99/138/81
f 84/119/82 79/114/82 104/145/82 102/141/82
f 81/116/83 99/138/83 105/146/83 80/115/83
f 61/89/84 111/153/84 107/148/84 62/91/84
f 60/88/3 62/91/3 107/148/3 110/152/3
f 108/149/85 101/140/85 121/166/85 122/167/85
f 99/138/86 101/140/86 108/149/86 106/147/86
f 102/141/87 104/145/87 111/154/87 109/150/87
f 99/138/88 106/147/88 112/155/88 105/146/88
f 70/101/89 77/110/89 119/164/89 118/163/89
f 59/86/90 70/101/90 118/163/90 116/161/90
f 59/86/91 116/161/91 115/160/91 63/92/91
f 77/110/92 61/90/92 114/158/92 119/164/92
f 92/130/3 96/135/3 117/162/3 113/157/3
f 93/132/93 114/159/93 117/162/93 96/135/93
f 121/166/94 120/165/94 123/168/94 122/167/94
f 109/150/95 108/149/95 122/167/95 123/168/95
f 101/140/96 102/141/96 120/165/96 121/166/96
f 102/141/77 109/150/77 123/168/77 120/165/77
f 124/169/97 126/171/97 127/172/97 125/170/97
f 118/163/98 119/164/98 126/171/98 124/169/98
f 97/136/85 118/163/85 124/169/85 125/170/85
f 98/137/99 97/136/99 125/170/99 127/172/99
f 128/174/100 129/177/100 130/179/100
f 131/181/101 132/183/101 133/185/101
f 134/187/102 135/189/102 136/191/102
f 137/192/103 138/195/103 139/197/103
f 26/35/104 13/17/104 144/203/104 38/47/104
f 44/66/105 13/18/105 145/205/105 142/200/105
f 147/208/106 144/202/106 38/47/106 37/46/106
f 25/34/107 9/11/107 147/209/107 37/46/107
f 128/175/108 141/199/108 140/198/108 129/176/108
f 144/203/109 135/190/109 134/188/109 145/205/109
f 131/180/110 143/201/110 142/200/110 132/184/110
f 137/193/111 147/209/111 146/207/111 138/196/111
f 17/25/112 130/179/112 129/177/112 131/181/112 133/185/112 18/27/112
o Cylinder
v 0.268287 0.431534 -0.026753
v 0.268287 0.431979 0.024257
v -0.564827 0.448341 -0.010236
v -0.523171 0.448341 -0.010236
v -0.564827 0.448495 0.007450
v -0.523171 0.448495 0.007450
v -0.564827 0.335708 0.051742
v -0.564827 0.358545 0.060969
v -0.564827 0.318339 0.034674
v -0.564827 0.308716 0.012002
v -0.564827 0.308503 -0.012349
v -0.564827 0.317730 -0.035185
v -0.564827 0.334798 -0.052554
v -0.564827 0.357470 -0.062178
v -0.564827 0.381821 -0.062390
v -0.564827 0.404658 -0.053164
v -0.564827 0.422026 -0.036096
v -0.564827 0.431650 -0.013423
v -0.456564 0.431534 -0.026753
v -0.564827 0.431862 0.010927
v -0.564827 0.422636 0.033764
v -0.456564 0.431979 0.024257
v -0.564827 0.405568 0.051133
v -0.564827 0.382895 0.060757
v 0.143320 0.448341 -0.010236
v 0.143320 0.448495 0.007449
v -0.523171 0.481665 -0.007107
v -0.523171 0.481819 0.003914
v -0.564827 0.481665 -0.007107
v -0.564827 0.481819 0.003914
v 0.268287 0.361211 0.060946
v 0.268287 0.333807 0.049874
v 0.268287 0.320241 0.036543
v 0.268287 0.308692 0.009336
v 0.268287 0.308526 -0.009683
v 0.268287 0.319598 -0.037087
v 0.268287 0.332929 -0.050653
v 0.268287 0.360136 -0.062201
v 0.268287 0.379155 -0.062367
v 0.268287 0.406559 -0.051295
v 0.268287 0.407436 0.049231
v 0.268287 0.380230 0.060780
v -0.456564 0.333807 0.049874
v -0.456564 0.361211 0.060946
v -0.564804 0.358542 0.060969
v -0.564804 0.335710 0.051744
v -0.456564 0.308692 0.009336
v -0.456564 0.320241 0.036543
v -0.564804 0.318337 0.034672
v -0.564804 0.308716 0.012005
v -0.456564 0.319598 -0.037087
v -0.456564 0.308526 -0.009683
v -0.564804 0.308503 -0.012351
v -0.564804 0.317728 -0.035183
v -0.456564 0.360136 -0.062201
v -0.456564 0.332929 -0.050652
v -0.564804 0.334800 -0.052556
v -0.564804 0.357467 -0.062178
v -0.456564 0.406559 -0.051295
v -0.456564 0.379155 -0.062367
v -0.564804 0.381823 -0.062390
v -0.564804 0.404655 -0.053166
v -0.456564 0.380230 0.060780
v -0.456564 0.407436 0.049231
v -0.564804 0.405566 0.051135
v -0.564804 0.382898 0.060756
vn -0.0000 0.0087 1.0000
vn -0.0000 0.7009 -0.7133
vn -0.0000 -0.7009 0.7133
vn -0.0000 -1.0000 0.0087
vn -0.0000 -0.7133 -0.7009
vn -0.0000 0.7132 0.7009
vn -0.0000 -0.0087 -1.0000
vn -0.0470 -0.3742 0.9262
vn -0.0476 0.3903 0.9195
vn -0.0000 0.7133 0.7009
vn 1.0000 -0.0000 -0.0000
vn -0.0469 -0.3903 -0.9195
vn -0.0000 0.0935 -0.9956
vn -0.0474 -0.9195 0.3903
vn -0.0461 0.3742 -0.9262
vn -1.0000 -0.0000 -0.0000
vn -0.0000 1.0000 -0.0087
vn 0.1322 0.9912 -0.0086
vn -0.0469 -0.9262 -0.3742
vn -0.0000 0.9999 -0.0140
vn -0.0000 0.1055 0.9944
vn 0.0094 -0.3746 0.9271
vn 0.0094 -0.9205 0.3907
vn 0.0094 -0.9271 -0.3746
vn 0.0094 -0.3907 -0.9205
vn 0.0094 0.3746 -0.9271
vn 0.0094 0.3907 0.9205
vn -0.0000 -0.9272 -0.3746
vn -0.0000 0.3746 -0.9272
vn -0.0000 -0.9205 0.3907
vn -0.0000 -0.3907 -0.9205
vn -0.0000 -0.3746 0.9272
vn -0.0000 0.3907 0.9205
vt 0.580294 0.080294
vt 0.510000 0.250000
vt 0.375000 1.000000
vt 0.375000 0.975000
vt 0.250000 1.000000
vt 0.250000 0.975000
vt 0.294346 0.471631
vt 0.032664 1.000000
vt 0.205654 0.471631
vt 0.907664 1.000000
vt 0.375359 0.438074
vt 0.438074 0.375359
vt 0.471631 0.294346
vt 0.782664 1.000000
vt 0.471631 0.205654
vt 0.657664 1.000000
vt 0.438074 0.124641
vt 0.375359 0.061926
vt 0.532664 1.000000
vt 0.294346 0.028369
vt 0.205654 0.028369
vt 0.124641 0.061926
vt 0.061926 0.124641
vt 0.375000 0.975025
vt 0.028369 0.205654
vt 0.028369 0.294346
vt 0.217336 1.000000
vt 0.250000 0.975025
vt 0.157664 1.000000
vt 0.061926 0.375359
vt 0.124641 0.438074
vt 0.375000 0.975000
vt 0.250000 0.975000
vt 0.375000 0.975000
vt 0.250000 0.975000
vt 0.375000 1.000000
vt 0.250000 1.000000
vt 0.696785 0.467957
vt 0.803215 0.467957
vt 0.866490 0.441748
vt 0.941748 0.366490
vt 0.967957 0.303215
vt 0.967957 0.196785
vt 0.941748 0.133510
vt 0.866490 0.058252
vt 0.803216 0.032043
vt 0.696784 0.032043
vt 0.558252 0.366490
vt 0.633510 0.441748
vt 1.000000 0.975025
vt 0.960803 0.975025
vt 0.725622 0.975025
vt 0.032867 0.999995
vt 0.205820 0.471737
vt 0.294494 0.471737
vt 1.000000 0.975025
vt 0.875000 0.975025
vt 0.835803 0.975025
vt 0.914197 0.975025
vt 0.907657 0.999995
vt 0.375464 0.438187
vt 0.438166 0.375485
vt 0.875000 0.975025
vt 0.710803 0.975025
vt 0.750000 0.975025
vt 0.789197 0.975025
vt 0.471690 0.294489
vt 0.782657 0.999995
vt 0.750000 0.975025
vt 0.471690 0.205815
vt 0.585803 0.975025
vt 0.625000 0.975025
vt 0.664197 0.975025
vt 0.657657 0.999995
vt 0.438114 0.124819
vt 0.625000 0.975025
vt 0.375412 0.062117
vt 0.460803 0.975025
vt 0.500000 0.975025
vt 0.539197 0.975025
vt 0.294389 0.028567
vt 0.532657 0.999995
vt 0.500000 0.975025
vt 0.205715 0.028567
vt 0.125000 0.975025
vt 0.399378 0.975025
vt 0.164197 0.975025
vt 0.157657 0.999995
vt 0.061939 0.375485
vt 0.124641 0.438187
vt 0.125000 0.975025
s 0
f 210/295/113 213/299/113 171/240/113 155/218/113 192/263/113 191/261/113
f 166/233/114 148/210/114 187/256/114 206/287/114
f 166/233/114 151/213/114 172/241/114 148/210/114
f 154/216/115 156/220/115 196/270/115 195/268/115 190/260/115 193/264/115
f 182/251/116 181/250/116 194/267/116 199/275/116
f 184/253/117 183/252/117 198/273/117 203/282/117
f 189/258/113 210/295/113 191/261/113 178/247/113
f 153/215/118 169/237/118 149/211/118 173/242/118
f 202/280/119 205/286/119 161/227/119 162/229/119 208/290/119 207/289/119
f 154/216/120 193/264/120 192/262/120 155/217/120
f 170/238/121 171/240/121 213/299/121 212/297/121
f 211/296/122 188/257/122 149/211/122 169/237/122
f 186/255/119 185/254/119 202/280/119 207/289/119
f 178/247/123 179/248/123 180/249/123 181/250/123 182/251/123 183/252/123 184/253/123 185/254/123 186/255/123 187/256/123 148/210/123 149/211/123 188/257/123 189/258/123
f 153/215/123 151/213/123 174/243/123 175/244/123
f 160/225/124 161/227/124 205/286/124 204/283/124
f 151/213/125 150/212/125 176/245/125 174/243/125
f 156/219/126 157/221/126 197/271/126 196/269/126
f 157/221/116 158/222/116 200/276/116 199/275/116 194/267/116 197/271/116
f 159/224/117 160/226/117 204/284/117 203/282/117 198/273/117 201/279/117
f 162/228/127 163/230/127 209/293/127 208/291/127
f 163/230/114 164/231/114 166/233/114 206/287/114 209/293/114
f 157/221/128 156/220/128 154/216/128 155/218/128 171/240/128 170/239/128 168/235/128 167/234/128 165/232/128 164/231/128 163/230/128 162/229/128 161/227/128 160/226/128 159/224/128 158/222/128
f 150/212/128 165/232/128 167/234/128 152/214/128
f 151/213/129 153/215/129 173/242/129 172/241/129
f 149/211/130 148/210/130 172/241/130 173/242/130
f 158/223/131 159/224/131 201/279/131 200/277/131
f 169/237/122 168/236/122 170/239/122 212/298/122 211/296/122
f 175/244/132 174/243/132 176/245/132 177/246/132
f 152/214/128 177/246/128 176/245/128 150/212/128
f 153/215/133 175/244/133 177/246/133 152/214/133
f 190/259/134 191/261/134 192/263/134 193/265/134
f 194/266/135 195/268/135 196/270/135 197/272/135
f 198/273/136 199/274/136 200/278/136 201/279/136
f 202/280/137 203/281/137 204/285/137 205/286/137
f 206/287/138 207/288/138 208/292/138 209/293/138
f 210/294/139 211/296/139 212/298/139 213/300/139
f 182/251/140 199/275/140 198/273/140 183/252/140
f 186/255/141 207/289/141 206/287/141 187/256/141
f 180/249/142 195/268/142 194/267/142 181/250/142
f 184/253/143 203/282/143 202/280/143 185/254/143
f 178/247/144 191/261/144 190/260/144 179/248/144
f 188/257/145 211/296/145 210/295/145 189/258/145
f 180/249/115 179/248/115 190/260/115 195/268/115
f 165/232/128 150/212/128 164/231/128
f 167/234/128 168/235/128 152/214/128
f 153/215/118 152/214/118 168/236/118 169/237/118
f 151/213/114 166/233/114 164/231/114 150/212/114
